M48
;Layer_Color=9474304
;FILE_FORMAT=2:5
INCH,TZ
;TYPE=PLATED
T1F00S00C0.01575
T2F00S00C0.01800
T3F00S00C0.01969
T4F00S00C0.02362
T5F00S00C0.02756
T6F00S00C0.03150
T7F00S00C0.03200
T8F00S00C0.03543
T9F00S00C0.04000
T10F00S00C0.04331
T11F00S00C0.05512
T12F00S00C0.07874
T13F00S00C0.09843
%
T01
X139500Y32800
X149500Y32806
X213962Y54806
Y62686
X189700Y78132
Y86011
X149500Y62806
X139500Y62800
X93500Y70000
Y90000
X63500
Y70000
Y151000
Y161000
Y181000
X93500
Y161000
Y151000
X111500Y161000
X121500
X131500
Y191000
X121500
X111500
X170000
Y171000
Y161000
X200000
Y171000
Y191000
X54000Y181000
X24000
X23500Y130000
Y120000
Y110000
Y100000
X53500
Y110000
Y120000
Y130000
X52504Y259000
X22504
X11000Y267622
Y237622
X175500Y245500
X185500
X195189
Y215500
X185500
X175500
T02
X3700Y4000
Y29000
X28700
X53700
Y4000
X28700
X78700
X103700
Y29000
X78700
X128700
X153700
Y4000
X178700
X203700
Y29000
X128700Y4000
X228700
Y29000
Y54000
Y79000
Y104000
Y129000
X213500Y129041
X216000Y153889
X228700Y154000
Y179000
X216000
X228700Y204000
X203700
X169226
X165000Y185962
X155535Y176000
X164750Y165741
X156606Y156153
X145000Y153889
X128700Y154000
X126500Y140175
X116762Y140123
X106500
X98300Y135500
X98000Y154081
X84500Y153991
X76500Y153889
X59000Y155500
Y166000
X69000Y176789
Y185000
X80000Y184500
X97000Y187000
Y171400
X107728Y179000
X118000Y173396
X134826Y179000
X134675Y196500
X145000
X107493Y196173
X77000Y206000
X73500Y125000
X85366
Y104000
X75000
X58000
Y125000
X100500Y115500
Y105500
X113500Y111495
X112895Y125000
X131500
X128700Y104000
X151827
X170500
X180661
X205297
X198749Y114500
X187674Y128943
X170000
Y143434
X155000
X153700Y129000
X178700Y154000
X192666Y160000
X185712Y179000
X204657Y143000
X196000Y70774
X203700Y54000
X178700
X153725Y57500
X128700Y54000
X103700
Y79000
X78700
Y54000
X128700Y79000
X175000Y79418
X112500Y154081
X49177Y155500
X41000
X38691Y167500
X33500Y184066
X43000Y190500
X24000
X14000Y179000
X3700
Y204000
X14000
X53700
X43500Y140600
X30919Y129000
X27348Y105500
X35896
X39000Y81594
X48000Y81500
Y53726
X28700Y54000
X3700
Y79000
X17500Y79023
X3700Y104000
Y129000
Y154000
X14000
X28700Y209500
X38391
Y230500
X28700
X14000Y229000
X3700
Y254000
Y279000
Y304000
X28700
Y329000
X3700
Y354000
X28700
X53700
Y329000
Y279000
X28700
Y254000
X38391
X69000
X77000
Y272000
X70000Y278129
X93590Y269737
Y261000
X102000Y252000
X98567Y240000
X89199
X77000Y234900
X69000Y239000
X58000Y228500
X77000Y217615
X69000Y208334
X97000Y209000
X107325
X109500Y229700
X110726Y242000
X128700Y254000
X153700
X178700
X175500Y274500
X149100Y279000
X138911
X138000Y291500
X126500Y303000
X103700Y304000
X110578Y290000
X114237Y279000
X78700Y304000
Y329000
X103700
Y354000
X78700
X153700
X178700
Y329000
X203700
Y354000
Y304000
Y279000
Y254000
X205297Y229000
X178700
X180260Y210589
X190325
X149000Y208995
X139000Y209000
X138400Y229700
X124000Y218275
X153700Y304000
Y329000
X178700Y304000
X228700
Y279000
Y254000
Y229000
Y329000
Y354000
X203700Y379000
X178700
X153700
X128700
X103700
X78700
X53700
X28700
T03
X107525Y16000
X127524
X117525Y26000
X220687Y78184
X210686
X200687
X154762Y77306
X144762
X134762
X149500Y161000
Y171000
Y181000
Y191000
X175500Y205500
X185500
X195500
X90424Y190589
X80962
X54000Y171000
Y161000
Y151000
X34000
X24000
Y171000
X34000
Y161000
X80962Y210589
X90424
X84000Y234500
X104000
X114000
X124000
X134000
X144019
X154019
X211500Y237387
Y227387
X211100Y248500
Y258500
T04
X23500Y25500
Y35500
X43500
Y25500
X68500Y50000
X88500
X199462Y42806
Y62806
X200000Y128000
Y138500
X180000
Y128000
X131000Y134500
Y145000
X111000
Y134500
X93500Y141000
X73500
X68500Y171000
X88500
Y79900
Y60000
X68500
Y79900
X175506Y181000
X195506
X53500Y140500
X33500
X114032Y249800
X134032
T05
X144019Y258000
X172019
T06
X84000Y245366
Y265366
Y275366
Y285366
X104000
Y275366
Y265366
Y245366
T07
X159462Y32806
Y42806
X189462
Y32806
Y52806
Y62806
X159462
Y52806
X93500Y100000
Y110000
Y120000
Y130000
X63500
Y120000
Y110000
Y100000
X115000Y265500
X125000
Y295500
X115000
T08
X23500Y50000
X53500
X214847Y18500
Y8500
X136000Y110000
Y120000
X106000
Y110000
X53500Y86500
Y76500
Y60000
X23500
Y76500
Y86500
X22474Y245000
X52473
T09
X149500Y11600
X159500
X181252
X191252
T10
X169000Y150000
X189000
X209000
X43500Y269500
X23500
X63500
X169000
X189000
X209000
T11
X29692Y316100
Y341100
X93590
Y316100
X138911
Y341100
X202809
Y316100
Y366100
X138911
X93590
X29692
T12
X63500Y201462
X43500
X23500
Y221462
X43500
X63500
T13
X116250Y332278
Y355900
M30
