G04*
G04 #@! TF.GenerationSoftware,Altium Limited,Altium Designer,19.1.6 (110)*
G04*
G04 Layer_Color=32896*
%FSLAX25Y25*%
%MOIN*%
G70*
G01*
G75*
%ADD86C,0.07874*%
D86*
X36072Y29169D02*
G03*
X40009Y25232I3937J0D01*
G01*
X36072Y29169D02*
G03*
X40009Y25232I3937J0D01*
G01*
Y340925D02*
G03*
X36072Y336988I0J-3937D01*
G01*
X40009Y340925D02*
G03*
X36072Y336988I0J-3937D01*
G01*
X63039Y368425D02*
G03*
X59102Y364488I0J-3937D01*
G01*
X63039Y368425D02*
G03*
X59102Y364488I0J-3937D01*
G01*
X272509Y25232D02*
G03*
X276447Y29169I0J3937D01*
G01*
X272509Y25232D02*
G03*
X276447Y29169I0J3937D01*
G01*
Y336988D02*
G03*
X272509Y340925I-3937J0D01*
G01*
X276447Y336988D02*
G03*
X272509Y340925I-3937J0D01*
G01*
X253412Y364488D02*
G03*
X249474Y368425I-3937J0D01*
G01*
X253412Y364488D02*
G03*
X249474Y368425I-3937J0D01*
G01*
X36072Y83599D02*
Y282888D01*
X40009Y25232D02*
X272509D01*
X40009Y340925D02*
X59102D01*
Y364488D01*
X63039Y368425D02*
X249474D01*
X276447Y282888D02*
X276447Y83688D01*
X253412Y340925D02*
X272509D01*
X253412D02*
Y364488D01*
X36072Y29169D02*
Y58788D01*
Y307788D02*
Y336988D01*
X276447Y307808D02*
Y336988D01*
Y29169D02*
Y58768D01*
X307942Y29169D02*
G03*
X311879Y25232I3937J0D01*
G01*
X307942Y29169D02*
G03*
X311879Y25232I3937J0D01*
G01*
Y340925D02*
G03*
X307942Y336988I0J-3937D01*
G01*
X311879Y340925D02*
G03*
X307942Y336988I0J-3937D01*
G01*
X334910Y368425D02*
G03*
X330972Y364488I0J-3937D01*
G01*
X334910Y368425D02*
G03*
X330972Y364488I0J-3937D01*
G01*
X544380Y25232D02*
G03*
X548317Y29169I0J3937D01*
G01*
X544380Y25232D02*
G03*
X548317Y29169I0J3937D01*
G01*
Y336988D02*
G03*
X544380Y340925I-3937J0D01*
G01*
X548317Y336988D02*
G03*
X544380Y340925I-3937J0D01*
G01*
X525282Y364488D02*
G03*
X521345Y368425I-3937J0D01*
G01*
X525282Y364488D02*
G03*
X521345Y368425I-3937J0D01*
G01*
X307942Y83599D02*
Y282888D01*
X311879Y25232D02*
X544380D01*
X311879Y340925D02*
X330972D01*
Y364488D01*
X334910Y368425D02*
X521345D01*
X548317Y282888D02*
X548317Y83688D01*
X525282Y340925D02*
X544380D01*
X525282D02*
Y364488D01*
X307942Y29169D02*
Y58788D01*
Y307788D02*
Y336988D01*
X548317Y307808D02*
Y336988D01*
Y29169D02*
Y58768D01*
M02*
