M48
;Layer_Color=9474304
;FILE_FORMAT=2:5
INCH,TZ
;TYPE=PLATED
T1F00S00C0.01378
T2F00S00C0.01969
T3F00S00C0.02000
T4F00S00C0.03150
T5F00S00C0.03543
T6F00S00C0.04000
T7F00S00C0.04331
T8F00S00C0.05512
T9F00S00C0.05906
;TYPE=NON_PLATED
T10F00S00C0.01968
T11F00S00C0.11811
%
T01
X44209Y33888
Y58788
Y83688
X69109
X72883Y99543
X95915Y99445
X118909Y99543
Y83688
Y58788
X138828Y57417
X143809Y33888
X118909
X94009
X69109
Y58788
X78986Y73658
X94009Y58788
X152116Y73660
X143809Y88717
X146210Y108588
X135860
X141167Y115131
X151427Y115147
X145915Y124890
Y147772
X130364Y144425
X115994
X106225Y140980
X92568Y145679
X90305Y153284
X94009Y133488
X118909
X69109
X77214Y141965
X51722Y151512
X44209Y133488
Y108588
X168709
X168946Y133233
X157234
X163139Y142260
X179872Y124948
X193609Y133488
Y108588
X190219Y94721
X184301Y86834
X196210
X202509Y83599
X212450Y88323
X218509Y108588
X243409
X243946Y91374
X236257Y97280
Y85370
X228395Y77595
X243409Y58788
X268309
Y83688
Y108588
Y133488
X239320Y133500
X220226Y133488
X225856Y145467
X208021Y58788
X218509Y33888
X193609
X168709
X175147Y51413
X161958
X179872Y70902
X168709Y83688
X243409Y33888
X268309
X316079
Y58788
Y83688
X340980
X344754Y99543
X367785Y99445
X390779Y99543
Y83688
Y58788
X410698Y57417
X415680Y33888
X390779
X365880
X340980
Y58788
X350856Y73658
X365880Y58788
X423986Y73660
X415680Y88717
X418080Y108588
X407730
X413037Y115131
X423297Y115147
X417785Y124890
X429104Y133233
X440816
X435009Y142260
X417785Y147772
X402234Y144425
X387864
X378095Y140980
X364439Y145679
X362175Y153284
X365880Y133488
X390779
X340980
X349084Y141965
X323592Y151512
X316079Y133488
Y108588
X440580
X465480
X462089Y94721
X456171Y86834
X468080
X440580Y83688
X451742Y70902
X447017Y51413
X433828
X440580Y33888
X465480
Y133488
X451742Y124948
X492096Y133488
X497726Y145467
X511191Y133500
X540179Y133488
Y108588
Y83688
Y58788
X515279
Y33888
X490379
X479891Y58788
X474379Y83599
X484320Y88323
X490379Y108588
X515279
X515816Y91374
X508127Y97280
Y85370
X500265Y77595
X540179Y33888
Y158388
X515816Y158446
X508533Y159583
X513651Y171747
Y183065
X504891Y196098
X517195Y208459
X523592Y219483
X515279Y233088
Y257988
X540179
Y282888
Y307788
X515279
X490379
Y282888
X515279
X483070Y257988
X468966
X472747Y233088
X490379
X489832Y216079
X483070Y208188
X468769Y208613
X483070Y183288
X485797Y170467
X496919Y174740
X491210Y158656
X540179Y183288
Y208188
Y233088
X462864Y217838
Y199445
X465480Y183288
X446230Y183008
X425561Y181828
X410403Y182124
X410313Y194679
X405679Y192116
X400364Y186846
X396195Y181828
X394226Y165193
X390779Y162240
X387864Y158500
X376939Y161158
X379990Y172709
X385108Y173067
X364045Y174051
X359861Y167654
X357549Y156925
X347706Y173942
X338565Y168441
X329891Y170311
X325167Y168343
X324183Y183288
X331691
X316079
Y208188
X324084
X331691
X331726Y233088
X323986
X316079
Y257988
X325908Y256236
X333579
X343868Y262929
X343832Y249502
X365844
X365880Y262929
X375856Y259878
X383533Y264799
X387864Y249502
X404990Y245114
X400167Y231236
X410403
X417096Y236059
X414537Y220409
X410313Y210370
X429005Y208781
X441013
X435009Y199543
Y226709
X444950Y231039
X447903Y239110
X439832
X443848Y245114
Y258795
X439832Y264701
X447903
X443848Y270508
X441998Y279169
X436991Y279902
X431269Y280751
X431368Y275072
X432773Y270987
X415680Y282888
Y257988
X456761Y258008
X462864Y265587
X459730Y275072
X465480Y282888
X449049Y286059
X440580Y292800
Y307788
X465480
X415680
X390779
X365880
X340980
X316079
Y282888
X340980
X365880
X390779
X396159Y223264
X375820
X365844
X372474Y208188
X367616Y194186
X367651Y184878
X355053Y189209
X355088Y210370
X341568Y223264
X380777Y194819
X396195Y201217
X406008Y171787
X417785Y171825
Y158598
X427820Y158710
X447805Y158388
X465480
X407254Y158710
X316079Y158388
X268309
X243946Y158446
X236663Y159583
X241781Y171747
Y183065
X233021Y196098
X245324Y208459
X251722Y219483
X243409Y233088
Y257988
X268309
Y282888
Y307788
X243409
X218509
X193609
X168709
Y292800
X170127Y279169
X165120Y279902
X159399Y280751
X159498Y275072
X160903Y270987
X171978Y270508
X167962Y264701
X176033
X171978Y258795
Y245114
X167962Y239110
X176033
X173080Y231039
X163139Y226709
X157135Y208781
X169143
X163139Y199543
X174360Y183008
X193609Y183288
X211200
X213927Y170467
X225049Y174740
X219340Y158656
X193609Y158388
X175935
X190994Y199445
X196899Y208613
X211200Y208188
X217962Y216079
X218509Y233088
X200877
X190994Y217838
X197096Y257988
X184891Y258008
X190994Y265587
X187860Y275072
X193609Y282888
X177179Y286059
X218509Y282888
X243409
X211200Y257988
X268309Y233088
Y208188
Y183288
X153691Y181828
X138533Y182124
X138443Y194679
X133809Y192116
X128494Y186846
X124324Y181828
X122356Y165193
X118909Y162240
X115994Y158500
X105069Y161158
X108120Y172709
X113238Y173067
X92175Y174051
X87991Y167654
X85679Y156925
X75836Y173942
X66695Y168441
X58021Y170311
X53297Y168343
X52312Y183288
X59820
X44209
Y208188
X52214
X59820
X59856Y233088
X52116
X44209
Y257988
X54038Y256236
X61709
X71998Y262929
X71962Y249502
X93974
X94009Y262929
X103986Y259878
X111663Y264799
X115994Y249502
X133120Y245114
X128297Y231236
X138533
X145226Y236059
X142667Y220409
X138443Y210370
X124324Y201217
X108907Y194819
X95746Y194186
X95781Y184878
X83183Y189209
X83218Y210370
X100604Y208188
X103950Y223264
X93974
X69698
X124289
X143809Y257988
Y282888
Y307788
X118909
X94009
X69109
X44209
Y282888
X69109
X94009
X118909
X134138Y171787
X145915Y171825
Y158598
X155950Y158710
X135383
X44209Y158388
Y332688
X69109
X94009
X118909
Y357588
X143809
Y332688
X94009Y357588
X69109
X168709
Y332688
X193609
Y357588
X218509
X243409
Y332688
X268309
X218509
X316079
X340980
X365880
X390779
Y357588
X415680
X440580
Y332688
X465480
Y357588
X415680Y332688
X365880Y357588
X340980
X490379
X515279
Y332688
X540179
X490379
T02
X206250Y49051
X226250
X216250Y59051
X478120Y49051
X498120
X488120Y59051
X393769Y190823
X385108
Y210823
X393769
X381387Y218835
Y228012
X361387
X354143
Y218835
X361387
X334143
Y228012
X109517
Y218835
X113238Y210823
X121899
Y190823
X113238
X89517Y218835
X82273
Y228012
X89517
X62273
Y218835
T03
X105659Y146098
X136246Y153087
X197687Y114898
X377529Y146098
X408116Y153087
X469557Y114898
X452923Y165193
Y183857
X408116Y165193
X181053Y165193
Y183857
X136246Y165193
T04
X55364Y106630
Y116472
Y126315
X67962
Y116472
Y106630
X78001Y106630
Y116472
Y126315
X90600
Y116472
Y106630
X100639
Y116472
Y126315
X113238
Y116472
Y106630
X327234Y106630
Y116472
Y126315
X339832
Y116472
Y106630
X349872Y106630
Y116472
Y126315
X362470
Y116472
Y106630
X372510
Y116472
Y126315
X385108
Y116472
Y106630
T05
X137175Y42850
X147175
X157175
X167175
X181663Y42850
X191663
X409045Y42850
X419045
X429045
X439045
X453533Y42850
X463533
T06
X104490Y44660
X114490
X242779Y44209
X252779
X376360Y44660
X386360
X514649Y44209
X524649
X433120Y288421
X423120
X161250
X151250
T07
X209009Y127988
X229009
X249009
X480879
X500879
X520880
Y247488
X500879
X480879
X375379
X355380
X335380
X249009
X229009
X209009
X103509
X83509
X63509
T08
X514688Y294088
X450791
X405470
X341571
X242818
X178920
X133599
X69701
Y319088
Y344088
X133599
Y319088
X178920
Y344088
X242818
Y319088
X341571
Y344088
X405470
Y319088
X450791
Y344088
X514688
Y319088
T09
X337579Y179450
X355380
X373180
Y199450
X355380
X337579
X101309
X83509
X65709
Y179450
X83509
X101309
T10
X39469Y63386
Y67323
Y71260
Y75197
Y79134
X273031
Y75197
Y71260
Y67323
Y63386
X311319
Y67323
Y71260
Y75197
Y79134
X544882
Y75197
Y71260
Y67323
Y63386
Y287500
Y291437
Y295374
Y299311
Y303249
X311319
Y299311
Y295374
Y291437
Y287500
X273031
Y291437
Y295374
Y299311
Y303249
X39469
Y299311
Y295374
Y291437
Y287500
T11
X11811Y11811
X578740
X11811Y381890
X578740Y381890
M30
