G04*
G04 #@! TF.GenerationSoftware,Altium Limited,Altium Designer,19.1.6 (110)*
G04*
G04 Layer_Color=8388736*
%FSLAX25Y25*%
%MOIN*%
G70*
G01*
G75*
%ADD10C,0.11811*%
%ADD31C,0.01968*%
%ADD54C,0.12402*%
%ADD55R,0.02756X0.04134*%
%ADD56R,0.04331X0.04134*%
%ADD57R,0.07677X0.02953*%
%ADD58R,0.04921X0.07480*%
%ADD59R,0.06890X0.10433*%
%ADD60R,0.02953X0.04331*%
%ADD61R,0.10433X0.06890*%
%ADD62R,0.04134X0.04331*%
%ADD63R,0.07677X0.03740*%
%ADD64R,0.02953X0.06890*%
%ADD65R,0.03740X0.02165*%
%ADD66R,0.06890X0.13189*%
%ADD67R,0.07087X0.10433*%
%ADD68R,0.07480X0.04921*%
%ADD69R,0.06102X0.04528*%
%ADD70R,0.07677X0.17323*%
%ADD71R,0.06890X0.11614*%
%ADD72R,0.06299X0.02953*%
%ADD73C,0.05315*%
%ADD74R,0.05315X0.05315*%
%ADD75R,0.05315X0.05315*%
%ADD76C,0.06591*%
%ADD77C,0.07678*%
%ADD78C,0.07191*%
%ADD79C,0.09252*%
%ADD80C,0.06890*%
%ADD81C,0.08859*%
%ADD82C,0.03347*%
%ADD83C,0.04091*%
D10*
X11811Y11811D02*
D03*
X578740D02*
D03*
Y381890D02*
D03*
X11811Y381890D02*
D03*
D31*
X311319Y303249D02*
D03*
Y299311D02*
D03*
Y295374D02*
D03*
Y287500D02*
D03*
Y291437D02*
D03*
Y67323D02*
D03*
Y63386D02*
D03*
Y71260D02*
D03*
Y75197D02*
D03*
Y79134D02*
D03*
X544882Y291437D02*
D03*
Y287500D02*
D03*
Y295374D02*
D03*
Y299311D02*
D03*
Y303249D02*
D03*
Y67323D02*
D03*
Y63386D02*
D03*
Y71260D02*
D03*
Y75197D02*
D03*
Y79134D02*
D03*
X273031D02*
D03*
Y75197D02*
D03*
Y71260D02*
D03*
Y63386D02*
D03*
Y67323D02*
D03*
Y303249D02*
D03*
Y299311D02*
D03*
Y295374D02*
D03*
Y287500D02*
D03*
Y291437D02*
D03*
X39469Y79134D02*
D03*
Y75197D02*
D03*
Y71260D02*
D03*
Y63386D02*
D03*
Y67323D02*
D03*
Y291437D02*
D03*
Y287500D02*
D03*
Y295374D02*
D03*
Y299311D02*
D03*
Y303249D02*
D03*
D54*
X11811Y11811D02*
D03*
X578740Y11811D02*
D03*
Y381890D02*
D03*
X11811Y381890D02*
D03*
D55*
X141191Y93221D02*
D03*
X143749Y84363D02*
D03*
X138631D02*
D03*
X413061Y93221D02*
D03*
X415620Y84363D02*
D03*
X410501D02*
D03*
D56*
X151427Y90291D02*
D03*
Y84189D02*
D03*
X131053Y77988D02*
D03*
Y71886D02*
D03*
X202509Y78973D02*
D03*
Y72870D02*
D03*
X175147Y77004D02*
D03*
Y70902D02*
D03*
X173080Y220409D02*
D03*
Y226512D02*
D03*
X61860Y88717D02*
D03*
Y94819D02*
D03*
X55757Y88717D02*
D03*
Y94819D02*
D03*
X67962Y88717D02*
D03*
Y94819D02*
D03*
X49655Y88717D02*
D03*
Y94819D02*
D03*
X135187Y120213D02*
D03*
Y126315D02*
D03*
X214124Y153185D02*
D03*
Y147083D02*
D03*
X70127Y162240D02*
D03*
Y156138D02*
D03*
X64025D02*
D03*
Y162240D02*
D03*
X57923D02*
D03*
Y156138D02*
D03*
X51820D02*
D03*
Y162240D02*
D03*
X423297Y90291D02*
D03*
Y84189D02*
D03*
X402923Y77988D02*
D03*
Y71886D02*
D03*
X474379Y78973D02*
D03*
Y72870D02*
D03*
X447017Y77004D02*
D03*
Y70902D02*
D03*
X444950Y220409D02*
D03*
Y226512D02*
D03*
X333730Y88717D02*
D03*
Y94819D02*
D03*
X327628Y88717D02*
D03*
Y94819D02*
D03*
X339832Y88717D02*
D03*
Y94819D02*
D03*
X321525Y88717D02*
D03*
Y94819D02*
D03*
X407057Y120213D02*
D03*
Y126315D02*
D03*
X485994Y153185D02*
D03*
Y147083D02*
D03*
X341998Y162240D02*
D03*
Y156138D02*
D03*
X335895D02*
D03*
Y162240D02*
D03*
X329793D02*
D03*
Y156138D02*
D03*
X323691D02*
D03*
Y162240D02*
D03*
D57*
X167175Y71925D02*
D03*
Y76925D02*
D03*
Y61925D02*
D03*
Y66925D02*
D03*
X138828Y71925D02*
D03*
Y76925D02*
D03*
Y66925D02*
D03*
Y61925D02*
D03*
X439045Y71925D02*
D03*
Y76925D02*
D03*
Y61925D02*
D03*
Y66925D02*
D03*
X410698Y71925D02*
D03*
Y76925D02*
D03*
Y66925D02*
D03*
Y61925D02*
D03*
D58*
X183907Y57910D02*
D03*
X195521D02*
D03*
X78986Y93441D02*
D03*
X90600D02*
D03*
X236663Y153185D02*
D03*
X225049D02*
D03*
X69537Y148461D02*
D03*
X57923D02*
D03*
X85383Y237536D02*
D03*
X96998D02*
D03*
X455777Y57910D02*
D03*
X467391D02*
D03*
X350856Y93441D02*
D03*
X362470D02*
D03*
X508533Y153185D02*
D03*
X496919D02*
D03*
X341407Y148461D02*
D03*
X329793D02*
D03*
X357254Y237536D02*
D03*
X368868D02*
D03*
D59*
X190206Y86834D02*
D03*
Y72883D02*
D03*
X462076Y86834D02*
D03*
Y72883D02*
D03*
D60*
X212450Y83697D02*
D03*
X208710Y72870D02*
D03*
X216191D02*
D03*
X163139Y231236D02*
D03*
X166880Y220409D02*
D03*
X159399D02*
D03*
X217076Y165488D02*
D03*
X224557D02*
D03*
X220816Y174740D02*
D03*
X484320Y83697D02*
D03*
X480580Y72870D02*
D03*
X488061D02*
D03*
X435009Y231236D02*
D03*
X438750Y220409D02*
D03*
X431269D02*
D03*
X488946Y165488D02*
D03*
X496427D02*
D03*
X492687Y174740D02*
D03*
D61*
X236257Y91374D02*
D03*
X222305D02*
D03*
X508127D02*
D03*
X494176D02*
D03*
D62*
X228395Y72870D02*
D03*
X222293D02*
D03*
X153297Y220409D02*
D03*
X147195D02*
D03*
X61860Y82713D02*
D03*
X55757D02*
D03*
X129183Y126315D02*
D03*
X123080D02*
D03*
Y120213D02*
D03*
X129183D02*
D03*
X129183Y114110D02*
D03*
X123080D02*
D03*
X236958Y171689D02*
D03*
X230856D02*
D03*
X236958Y165488D02*
D03*
X230856D02*
D03*
X201919Y153185D02*
D03*
X208021D02*
D03*
X208021Y147083D02*
D03*
X201919D02*
D03*
X208021Y140980D02*
D03*
X201919D02*
D03*
X230561Y145409D02*
D03*
X236663D02*
D03*
X208021Y165488D02*
D03*
X201919D02*
D03*
X98671Y167654D02*
D03*
X92568D02*
D03*
X92574Y139406D02*
D03*
X98676D02*
D03*
X109517Y237536D02*
D03*
X103415D02*
D03*
X78986D02*
D03*
X72883D02*
D03*
X500265Y72870D02*
D03*
X494163D02*
D03*
X425167Y220409D02*
D03*
X419065D02*
D03*
X333730Y82713D02*
D03*
X327628D02*
D03*
X401053Y126315D02*
D03*
X394951D02*
D03*
Y120213D02*
D03*
X401053D02*
D03*
X401053Y114110D02*
D03*
X394951D02*
D03*
X508828Y171689D02*
D03*
X502726D02*
D03*
X508828Y165488D02*
D03*
X502726D02*
D03*
X473789Y153185D02*
D03*
X479891D02*
D03*
X479891Y147083D02*
D03*
X473789D02*
D03*
X479891Y140980D02*
D03*
X473789D02*
D03*
X502431Y145409D02*
D03*
X508533D02*
D03*
X479891Y165488D02*
D03*
X473789D02*
D03*
X370541Y167654D02*
D03*
X364439D02*
D03*
X364444Y139406D02*
D03*
X370546D02*
D03*
X381387Y237536D02*
D03*
X375285D02*
D03*
X350856D02*
D03*
X344754D02*
D03*
D63*
X125683Y239957D02*
D03*
Y249957D02*
D03*
Y269957D02*
D03*
Y259957D02*
D03*
X153242D02*
D03*
Y269957D02*
D03*
Y249957D02*
D03*
Y239957D02*
D03*
X397553D02*
D03*
Y249957D02*
D03*
Y269957D02*
D03*
Y259957D02*
D03*
X425112D02*
D03*
Y269957D02*
D03*
Y249957D02*
D03*
Y239957D02*
D03*
D64*
X161978Y239110D02*
D03*
X171978D02*
D03*
X161978Y264701D02*
D03*
X171978D02*
D03*
X433848Y239110D02*
D03*
X443848D02*
D03*
X433848Y264701D02*
D03*
X443848D02*
D03*
D65*
X144242Y231335D02*
D03*
X153297D02*
D03*
X416112D02*
D03*
X425167D02*
D03*
D66*
X163139Y188927D02*
D03*
Y208781D02*
D03*
X190994Y228466D02*
D03*
Y208613D02*
D03*
X163139Y153087D02*
D03*
Y133233D02*
D03*
X435009Y188927D02*
D03*
Y208781D02*
D03*
X462864Y228466D02*
D03*
Y208613D02*
D03*
X435009Y153087D02*
D03*
Y133233D02*
D03*
D67*
X190994Y243244D02*
D03*
Y258008D02*
D03*
X462864Y243244D02*
D03*
Y258008D02*
D03*
D68*
X90600Y73756D02*
D03*
Y85370D02*
D03*
X172588Y165193D02*
D03*
Y176807D02*
D03*
X163139Y176807D02*
D03*
Y165193D02*
D03*
X153691Y176807D02*
D03*
Y165193D02*
D03*
X362470Y73756D02*
D03*
Y85370D02*
D03*
X444458Y165193D02*
D03*
Y176807D02*
D03*
X435009Y176807D02*
D03*
Y165193D02*
D03*
X425561Y176807D02*
D03*
Y165193D02*
D03*
D69*
X78980Y78284D02*
D03*
Y85567D02*
D03*
X350851Y78284D02*
D03*
Y85567D02*
D03*
D70*
X251722Y208402D02*
D03*
Y183008D02*
D03*
X523592Y208402D02*
D03*
Y183008D02*
D03*
D71*
X221013Y204538D02*
D03*
Y187634D02*
D03*
X492883Y204538D02*
D03*
Y187634D02*
D03*
D72*
X98671Y146079D02*
D03*
Y151079D02*
D03*
Y156079D02*
D03*
Y161079D02*
D03*
X77214Y146079D02*
D03*
Y151079D02*
D03*
Y156079D02*
D03*
Y161079D02*
D03*
X370541Y146079D02*
D03*
Y151079D02*
D03*
Y156079D02*
D03*
Y161079D02*
D03*
X349084Y146079D02*
D03*
Y151079D02*
D03*
Y156079D02*
D03*
Y161079D02*
D03*
D73*
X121899Y210823D02*
D03*
X113238Y190823D02*
D03*
X62273Y218835D02*
D03*
X89517D02*
D03*
X82273Y228012D02*
D03*
X109517D02*
D03*
X226250Y49051D02*
D03*
X216250Y59051D02*
D03*
X393769Y210823D02*
D03*
X385108Y190823D02*
D03*
X334143Y218835D02*
D03*
X361387D02*
D03*
X354143Y228012D02*
D03*
X381387D02*
D03*
X498120Y49051D02*
D03*
X488120Y59051D02*
D03*
D74*
X121899Y190823D02*
D03*
X113238Y210823D02*
D03*
X393769Y190823D02*
D03*
X385108Y210823D02*
D03*
D75*
X82273Y218835D02*
D03*
X109517D02*
D03*
X62273Y228012D02*
D03*
X89517D02*
D03*
X206250Y49051D02*
D03*
X354143Y218835D02*
D03*
X381387D02*
D03*
X334143Y228012D02*
D03*
X361387D02*
D03*
X478120Y49051D02*
D03*
D76*
X151250Y288421D02*
D03*
X161250D02*
D03*
X104490Y44660D02*
D03*
X114490D02*
D03*
X242779Y44209D02*
D03*
X252779D02*
D03*
X423120Y288421D02*
D03*
X433120D02*
D03*
X376360Y44660D02*
D03*
X386360D02*
D03*
X514649Y44209D02*
D03*
X524649D02*
D03*
D77*
X249009Y247488D02*
D03*
X229009D02*
D03*
X209009D02*
D03*
X249009Y127988D02*
D03*
X229009D02*
D03*
X209009D02*
D03*
X103509Y247488D02*
D03*
X83509D02*
D03*
X63509D02*
D03*
X520880D02*
D03*
X500879D02*
D03*
X480879D02*
D03*
X520880Y127988D02*
D03*
X500879D02*
D03*
X480879D02*
D03*
X375379Y247488D02*
D03*
X355380D02*
D03*
X335380D02*
D03*
D78*
X191663Y42850D02*
D03*
X181663D02*
D03*
X147175Y42850D02*
D03*
X137175D02*
D03*
X167175D02*
D03*
X157175D02*
D03*
X463533Y42850D02*
D03*
X453533D02*
D03*
X419045Y42850D02*
D03*
X409045D02*
D03*
X439045D02*
D03*
X429045D02*
D03*
D79*
X101309Y179450D02*
D03*
X83509D02*
D03*
X65709D02*
D03*
X101309Y199450D02*
D03*
X83509D02*
D03*
X65709D02*
D03*
X373180Y179450D02*
D03*
X355380D02*
D03*
X337579D02*
D03*
X373180Y199450D02*
D03*
X355380D02*
D03*
X337579D02*
D03*
D80*
X100639Y116472D02*
D03*
Y106630D02*
D03*
Y126315D02*
D03*
X113238D02*
D03*
Y106630D02*
D03*
Y116472D02*
D03*
X67962Y116472D02*
D03*
Y126315D02*
D03*
Y106630D02*
D03*
X55364D02*
D03*
Y126315D02*
D03*
Y116472D02*
D03*
X78001Y116472D02*
D03*
Y106630D02*
D03*
Y126315D02*
D03*
X90600D02*
D03*
Y106630D02*
D03*
Y116472D02*
D03*
X372510D02*
D03*
Y106630D02*
D03*
Y126315D02*
D03*
X385108D02*
D03*
Y106630D02*
D03*
Y116472D02*
D03*
X339832Y116472D02*
D03*
Y126315D02*
D03*
Y106630D02*
D03*
X327234D02*
D03*
Y126315D02*
D03*
Y116472D02*
D03*
X349872Y116472D02*
D03*
Y106630D02*
D03*
Y126315D02*
D03*
X362470D02*
D03*
Y106630D02*
D03*
Y116472D02*
D03*
D81*
X178920Y319088D02*
D03*
X242818D02*
D03*
X178920Y344088D02*
D03*
X242818D02*
D03*
X178920Y294088D02*
D03*
X242818D02*
D03*
X69701Y319088D02*
D03*
X133599D02*
D03*
X69701Y344088D02*
D03*
X133599D02*
D03*
X69701Y294088D02*
D03*
X133599D02*
D03*
X450791Y319088D02*
D03*
X514688D02*
D03*
X450791Y344088D02*
D03*
X514688D02*
D03*
X450791Y294088D02*
D03*
X514688D02*
D03*
X341571Y319088D02*
D03*
X405470D02*
D03*
X341571Y344088D02*
D03*
X405470D02*
D03*
X341571Y294088D02*
D03*
X405470D02*
D03*
D82*
X61709Y256236D02*
D03*
X75836Y173942D02*
D03*
X113238Y173067D02*
D03*
X118909Y162240D02*
D03*
X187860Y275072D02*
D03*
X236663Y159583D02*
D03*
X225049Y174740D02*
D03*
X58021Y170311D02*
D03*
X141167Y115131D02*
D03*
X151427Y115147D02*
D03*
X165120Y279902D02*
D03*
X159498Y275072D02*
D03*
X44209Y307788D02*
D03*
X243409Y357588D02*
D03*
X44209Y33888D02*
D03*
X268309Y257988D02*
D03*
X44209Y83688D02*
D03*
X168709Y357588D02*
D03*
X193609Y33888D02*
D03*
X268309Y282888D02*
D03*
Y133488D02*
D03*
X44209D02*
D03*
X268309Y183288D02*
D03*
X44209Y233088D02*
D03*
X69109Y332688D02*
D03*
X268309D02*
D03*
X94009Y33888D02*
D03*
X268309Y58788D02*
D03*
X44209D02*
D03*
X118909Y357588D02*
D03*
X268309Y83688D02*
D03*
X44209Y257988D02*
D03*
X268309Y208188D02*
D03*
X69109Y33888D02*
D03*
X268309Y307788D02*
D03*
X118909Y33888D02*
D03*
X44209Y332688D02*
D03*
X193609Y357588D02*
D03*
X268309Y158388D02*
D03*
X243409Y332688D02*
D03*
Y33888D02*
D03*
X268309Y108588D02*
D03*
X143809Y357588D02*
D03*
X44209Y208188D02*
D03*
X168709Y33888D02*
D03*
X94009Y357588D02*
D03*
X44209Y282888D02*
D03*
X218509Y33888D02*
D03*
X268309D02*
D03*
X218509Y357588D02*
D03*
X44209Y158388D02*
D03*
X69109Y357588D02*
D03*
X268309Y233088D02*
D03*
X44209Y108588D02*
D03*
Y183288D02*
D03*
X143809Y33888D02*
D03*
X92175Y174051D02*
D03*
X133809Y192116D02*
D03*
X128494Y186846D02*
D03*
X138533Y231236D02*
D03*
X128297D02*
D03*
X103986Y259878D02*
D03*
X90305Y153284D02*
D03*
X333579Y256236D02*
D03*
X347706Y173942D02*
D03*
X385108Y173067D02*
D03*
X390779Y162240D02*
D03*
X459730Y275072D02*
D03*
X508533Y159583D02*
D03*
X496919Y174740D02*
D03*
X329891Y170311D02*
D03*
X413037Y115131D02*
D03*
X423297Y115147D02*
D03*
X436991Y279902D02*
D03*
X431368Y275072D02*
D03*
X316079Y307788D02*
D03*
X515279Y357588D02*
D03*
X316079Y33888D02*
D03*
X540179Y257988D02*
D03*
X316079Y83688D02*
D03*
X440580Y357588D02*
D03*
X465480Y33888D02*
D03*
X540179Y282888D02*
D03*
Y133488D02*
D03*
X316079D02*
D03*
X540179Y183288D02*
D03*
X316079Y233088D02*
D03*
X340980Y332688D02*
D03*
X540179D02*
D03*
X365880Y33888D02*
D03*
X540179Y58788D02*
D03*
X316079D02*
D03*
X390779Y357588D02*
D03*
X540179Y83688D02*
D03*
X316079Y257988D02*
D03*
X540179Y208188D02*
D03*
X340980Y33888D02*
D03*
X540179Y307788D02*
D03*
X390779Y33888D02*
D03*
X316079Y332688D02*
D03*
X465480Y357588D02*
D03*
X540179Y158388D02*
D03*
X515279Y332688D02*
D03*
Y33888D02*
D03*
X540179Y108588D02*
D03*
X415680Y357588D02*
D03*
X316079Y208188D02*
D03*
X440580Y33888D02*
D03*
X365880Y357588D02*
D03*
X316079Y282888D02*
D03*
X490379Y33888D02*
D03*
X540179D02*
D03*
X490379Y357588D02*
D03*
X316079Y158388D02*
D03*
X340980Y357588D02*
D03*
X540179Y233088D02*
D03*
X316079Y108588D02*
D03*
Y183288D02*
D03*
X415680Y33888D02*
D03*
X364045Y174051D02*
D03*
X405679Y192116D02*
D03*
X400364Y186846D02*
D03*
X410403Y231236D02*
D03*
X400167D02*
D03*
X375856Y259878D02*
D03*
X362175Y153284D02*
D03*
D83*
X105659Y146098D02*
D03*
X136246Y165193D02*
D03*
Y153087D02*
D03*
X181053Y183857D02*
D03*
X197687Y114898D02*
D03*
X181053Y165193D02*
D03*
X377529Y146098D02*
D03*
X408116Y165193D02*
D03*
Y153087D02*
D03*
X452923Y183857D02*
D03*
X469557Y114898D02*
D03*
X452923Y165193D02*
D03*
M02*
