G04*
G04 #@! TF.GenerationSoftware,Altium Limited,Altium Designer,19.1.6 (110)*
G04*
G04 Layer_Color=16711935*
%FSLAX25Y25*%
%MOIN*%
G70*
G01*
G75*
%ADD10C,0.11811*%
%ADD31C,0.01968*%
%ADD73C,0.05315*%
%ADD74R,0.05315X0.05315*%
%ADD75R,0.05315X0.05315*%
%ADD76C,0.06591*%
%ADD77C,0.07678*%
%ADD78C,0.07191*%
%ADD79C,0.09252*%
%ADD80C,0.06890*%
%ADD81C,0.08859*%
%ADD82C,0.03347*%
%ADD83C,0.04091*%
D10*
X11811Y11811D02*
D03*
X578740D02*
D03*
Y381890D02*
D03*
X11811Y381890D02*
D03*
D31*
X311319Y303249D02*
D03*
Y299311D02*
D03*
Y295374D02*
D03*
Y287500D02*
D03*
Y291437D02*
D03*
Y67323D02*
D03*
Y63386D02*
D03*
Y71260D02*
D03*
Y75197D02*
D03*
Y79134D02*
D03*
X544882Y291437D02*
D03*
Y287500D02*
D03*
Y295374D02*
D03*
Y299311D02*
D03*
Y303249D02*
D03*
Y67323D02*
D03*
Y63386D02*
D03*
Y71260D02*
D03*
Y75197D02*
D03*
Y79134D02*
D03*
X273031D02*
D03*
Y75197D02*
D03*
Y71260D02*
D03*
Y63386D02*
D03*
Y67323D02*
D03*
Y303249D02*
D03*
Y299311D02*
D03*
Y295374D02*
D03*
Y287500D02*
D03*
Y291437D02*
D03*
X39469Y79134D02*
D03*
Y75197D02*
D03*
Y71260D02*
D03*
Y63386D02*
D03*
Y67323D02*
D03*
Y291437D02*
D03*
Y287500D02*
D03*
Y295374D02*
D03*
Y299311D02*
D03*
Y303249D02*
D03*
D73*
X121899Y210823D02*
D03*
X113238Y190823D02*
D03*
X62273Y218835D02*
D03*
X89517D02*
D03*
X82273Y228012D02*
D03*
X109517D02*
D03*
X226250Y49051D02*
D03*
X216250Y59051D02*
D03*
X393769Y210823D02*
D03*
X385108Y190823D02*
D03*
X334143Y218835D02*
D03*
X361387D02*
D03*
X354143Y228012D02*
D03*
X381387D02*
D03*
X498120Y49051D02*
D03*
X488120Y59051D02*
D03*
D74*
X121899Y190823D02*
D03*
X113238Y210823D02*
D03*
X393769Y190823D02*
D03*
X385108Y210823D02*
D03*
D75*
X82273Y218835D02*
D03*
X109517D02*
D03*
X62273Y228012D02*
D03*
X89517D02*
D03*
X206250Y49051D02*
D03*
X354143Y218835D02*
D03*
X381387D02*
D03*
X334143Y228012D02*
D03*
X361387D02*
D03*
X478120Y49051D02*
D03*
D76*
X151250Y288421D02*
D03*
X161250D02*
D03*
X104490Y44660D02*
D03*
X114490D02*
D03*
X242779Y44209D02*
D03*
X252779D02*
D03*
X423120Y288421D02*
D03*
X433120D02*
D03*
X376360Y44660D02*
D03*
X386360D02*
D03*
X514649Y44209D02*
D03*
X524649D02*
D03*
D77*
X249009Y247488D02*
D03*
X229009D02*
D03*
X209009D02*
D03*
X249009Y127988D02*
D03*
X229009D02*
D03*
X209009D02*
D03*
X103509Y247488D02*
D03*
X83509D02*
D03*
X63509D02*
D03*
X520880D02*
D03*
X500879D02*
D03*
X480879D02*
D03*
X520880Y127988D02*
D03*
X500879D02*
D03*
X480879D02*
D03*
X375379Y247488D02*
D03*
X355380D02*
D03*
X335380D02*
D03*
D78*
X191663Y42850D02*
D03*
X181663D02*
D03*
X147175Y42850D02*
D03*
X137175D02*
D03*
X167175D02*
D03*
X157175D02*
D03*
X463533Y42850D02*
D03*
X453533D02*
D03*
X419045Y42850D02*
D03*
X409045D02*
D03*
X439045D02*
D03*
X429045D02*
D03*
D79*
X101309Y179450D02*
D03*
X83509D02*
D03*
X65709D02*
D03*
X101309Y199450D02*
D03*
X83509D02*
D03*
X65709D02*
D03*
X373180Y179450D02*
D03*
X355380D02*
D03*
X337579D02*
D03*
X373180Y199450D02*
D03*
X355380D02*
D03*
X337579D02*
D03*
D80*
X100639Y116472D02*
D03*
Y106630D02*
D03*
Y126315D02*
D03*
X113238D02*
D03*
Y106630D02*
D03*
Y116472D02*
D03*
X67962Y116472D02*
D03*
Y126315D02*
D03*
Y106630D02*
D03*
X55364D02*
D03*
Y126315D02*
D03*
Y116472D02*
D03*
X78001Y116472D02*
D03*
Y106630D02*
D03*
Y126315D02*
D03*
X90600D02*
D03*
Y106630D02*
D03*
Y116472D02*
D03*
X372510D02*
D03*
Y106630D02*
D03*
Y126315D02*
D03*
X385108D02*
D03*
Y106630D02*
D03*
Y116472D02*
D03*
X339832Y116472D02*
D03*
Y126315D02*
D03*
Y106630D02*
D03*
X327234D02*
D03*
Y126315D02*
D03*
Y116472D02*
D03*
X349872Y116472D02*
D03*
Y106630D02*
D03*
Y126315D02*
D03*
X362470D02*
D03*
Y106630D02*
D03*
Y116472D02*
D03*
D81*
X178920Y319088D02*
D03*
X242818D02*
D03*
X178920Y344088D02*
D03*
X242818D02*
D03*
X178920Y294088D02*
D03*
X242818D02*
D03*
X69701Y319088D02*
D03*
X133599D02*
D03*
X69701Y344088D02*
D03*
X133599D02*
D03*
X69701Y294088D02*
D03*
X133599D02*
D03*
X450791Y319088D02*
D03*
X514688D02*
D03*
X450791Y344088D02*
D03*
X514688D02*
D03*
X450791Y294088D02*
D03*
X514688D02*
D03*
X341571Y319088D02*
D03*
X405470D02*
D03*
X341571Y344088D02*
D03*
X405470D02*
D03*
X341571Y294088D02*
D03*
X405470D02*
D03*
D82*
X61709Y256236D02*
D03*
X75836Y173942D02*
D03*
X113238Y173067D02*
D03*
X118909Y162240D02*
D03*
X187860Y275072D02*
D03*
X236663Y159583D02*
D03*
X225049Y174740D02*
D03*
X58021Y170311D02*
D03*
X141167Y115131D02*
D03*
X151427Y115147D02*
D03*
X165120Y279902D02*
D03*
X159498Y275072D02*
D03*
X44209Y307788D02*
D03*
X243409Y357588D02*
D03*
X44209Y33888D02*
D03*
X268309Y257988D02*
D03*
X44209Y83688D02*
D03*
X168709Y357588D02*
D03*
X193609Y33888D02*
D03*
X268309Y282888D02*
D03*
Y133488D02*
D03*
X44209D02*
D03*
X268309Y183288D02*
D03*
X44209Y233088D02*
D03*
X69109Y332688D02*
D03*
X268309D02*
D03*
X94009Y33888D02*
D03*
X268309Y58788D02*
D03*
X44209D02*
D03*
X118909Y357588D02*
D03*
X268309Y83688D02*
D03*
X44209Y257988D02*
D03*
X268309Y208188D02*
D03*
X69109Y33888D02*
D03*
X268309Y307788D02*
D03*
X118909Y33888D02*
D03*
X44209Y332688D02*
D03*
X193609Y357588D02*
D03*
X268309Y158388D02*
D03*
X243409Y332688D02*
D03*
Y33888D02*
D03*
X268309Y108588D02*
D03*
X143809Y357588D02*
D03*
X44209Y208188D02*
D03*
X168709Y33888D02*
D03*
X94009Y357588D02*
D03*
X44209Y282888D02*
D03*
X218509Y33888D02*
D03*
X268309D02*
D03*
X218509Y357588D02*
D03*
X44209Y158388D02*
D03*
X69109Y357588D02*
D03*
X268309Y233088D02*
D03*
X44209Y108588D02*
D03*
Y183288D02*
D03*
X143809Y33888D02*
D03*
X92175Y174051D02*
D03*
X133809Y192116D02*
D03*
X128494Y186846D02*
D03*
X138533Y231236D02*
D03*
X128297D02*
D03*
X103986Y259878D02*
D03*
X90305Y153284D02*
D03*
X333579Y256236D02*
D03*
X347706Y173942D02*
D03*
X385108Y173067D02*
D03*
X390779Y162240D02*
D03*
X459730Y275072D02*
D03*
X508533Y159583D02*
D03*
X496919Y174740D02*
D03*
X329891Y170311D02*
D03*
X413037Y115131D02*
D03*
X423297Y115147D02*
D03*
X436991Y279902D02*
D03*
X431368Y275072D02*
D03*
X316079Y307788D02*
D03*
X515279Y357588D02*
D03*
X316079Y33888D02*
D03*
X540179Y257988D02*
D03*
X316079Y83688D02*
D03*
X440580Y357588D02*
D03*
X465480Y33888D02*
D03*
X540179Y282888D02*
D03*
Y133488D02*
D03*
X316079D02*
D03*
X540179Y183288D02*
D03*
X316079Y233088D02*
D03*
X340980Y332688D02*
D03*
X540179D02*
D03*
X365880Y33888D02*
D03*
X540179Y58788D02*
D03*
X316079D02*
D03*
X390779Y357588D02*
D03*
X540179Y83688D02*
D03*
X316079Y257988D02*
D03*
X540179Y208188D02*
D03*
X340980Y33888D02*
D03*
X540179Y307788D02*
D03*
X390779Y33888D02*
D03*
X316079Y332688D02*
D03*
X465480Y357588D02*
D03*
X540179Y158388D02*
D03*
X515279Y332688D02*
D03*
Y33888D02*
D03*
X540179Y108588D02*
D03*
X415680Y357588D02*
D03*
X316079Y208188D02*
D03*
X440580Y33888D02*
D03*
X365880Y357588D02*
D03*
X316079Y282888D02*
D03*
X490379Y33888D02*
D03*
X540179D02*
D03*
X490379Y357588D02*
D03*
X316079Y158388D02*
D03*
X340980Y357588D02*
D03*
X540179Y233088D02*
D03*
X316079Y108588D02*
D03*
Y183288D02*
D03*
X415680Y33888D02*
D03*
X364045Y174051D02*
D03*
X405679Y192116D02*
D03*
X400364Y186846D02*
D03*
X410403Y231236D02*
D03*
X400167D02*
D03*
X375856Y259878D02*
D03*
X362175Y153284D02*
D03*
D83*
X105659Y146098D02*
D03*
X136246Y165193D02*
D03*
Y153087D02*
D03*
X181053Y183857D02*
D03*
X197687Y114898D02*
D03*
X181053Y165193D02*
D03*
X377529Y146098D02*
D03*
X408116Y165193D02*
D03*
Y153087D02*
D03*
X452923Y183857D02*
D03*
X469557Y114898D02*
D03*
X452923Y165193D02*
D03*
M02*
