G04*
G04 #@! TF.GenerationSoftware,Altium Limited,Altium Designer,19.1.6 (110)*
G04*
G04 Layer_Color=8421504*
%FSLAX25Y25*%
%MOIN*%
G70*
G01*
G75*
%ADD10C,0.11811*%
%ADD11R,0.02165X0.03543*%
%ADD12R,0.03740X0.03543*%
%ADD13R,0.07087X0.02362*%
%ADD14R,0.04331X0.06890*%
%ADD15R,0.06299X0.09843*%
%ADD16R,0.02362X0.03740*%
%ADD17R,0.09843X0.06299*%
%ADD18R,0.03543X0.03740*%
%ADD19R,0.07087X0.03150*%
%ADD20R,0.02362X0.06299*%
%ADD21R,0.03150X0.01575*%
%ADD22R,0.06299X0.12598*%
%ADD23R,0.06496X0.09843*%
%ADD24R,0.06890X0.04331*%
%ADD25R,0.05512X0.03937*%
%ADD26R,0.07087X0.16732*%
%ADD27R,0.06299X0.11024*%
%ADD28R,0.05709X0.02362*%
D10*
X11811Y11811D02*
D03*
X578740Y11811D02*
D03*
Y381890D02*
D03*
X11811Y381890D02*
D03*
D11*
X141191Y93221D02*
D03*
X143749Y84363D02*
D03*
X138631D02*
D03*
X413061Y93221D02*
D03*
X415620Y84363D02*
D03*
X410501D02*
D03*
D12*
X151427Y90291D02*
D03*
Y84189D02*
D03*
X131053Y77988D02*
D03*
Y71886D02*
D03*
X202509Y78973D02*
D03*
Y72870D02*
D03*
X175147Y77004D02*
D03*
Y70902D02*
D03*
X173080Y220409D02*
D03*
Y226512D02*
D03*
X61860Y88717D02*
D03*
Y94819D02*
D03*
X55757Y88717D02*
D03*
Y94819D02*
D03*
X67962Y88717D02*
D03*
Y94819D02*
D03*
X49655Y88717D02*
D03*
Y94819D02*
D03*
X135187Y120213D02*
D03*
Y126315D02*
D03*
X214124Y153185D02*
D03*
Y147083D02*
D03*
X70127Y162240D02*
D03*
Y156138D02*
D03*
X64025D02*
D03*
Y162240D02*
D03*
X57923D02*
D03*
Y156138D02*
D03*
X51820D02*
D03*
Y162240D02*
D03*
X423297Y90291D02*
D03*
Y84189D02*
D03*
X402923Y77988D02*
D03*
Y71886D02*
D03*
X474379Y78973D02*
D03*
Y72870D02*
D03*
X447017Y77004D02*
D03*
Y70902D02*
D03*
X444950Y220409D02*
D03*
Y226512D02*
D03*
X333730Y88717D02*
D03*
Y94819D02*
D03*
X327628Y88717D02*
D03*
Y94819D02*
D03*
X339832Y88717D02*
D03*
Y94819D02*
D03*
X321525Y88717D02*
D03*
Y94819D02*
D03*
X407057Y120213D02*
D03*
Y126315D02*
D03*
X485994Y153185D02*
D03*
Y147083D02*
D03*
X341998Y162240D02*
D03*
Y156138D02*
D03*
X335895D02*
D03*
Y162240D02*
D03*
X329793D02*
D03*
Y156138D02*
D03*
X323691D02*
D03*
Y162240D02*
D03*
D13*
X167175Y71925D02*
D03*
Y76925D02*
D03*
Y61925D02*
D03*
Y66925D02*
D03*
X138828Y71925D02*
D03*
Y76925D02*
D03*
Y66925D02*
D03*
Y61925D02*
D03*
X439045Y71925D02*
D03*
Y76925D02*
D03*
Y61925D02*
D03*
Y66925D02*
D03*
X410698Y71925D02*
D03*
Y76925D02*
D03*
Y66925D02*
D03*
Y61925D02*
D03*
D14*
X183907Y57910D02*
D03*
X195521D02*
D03*
X78986Y93441D02*
D03*
X90600D02*
D03*
X236663Y153185D02*
D03*
X225049D02*
D03*
X69537Y148461D02*
D03*
X57923D02*
D03*
X85383Y237536D02*
D03*
X96998D02*
D03*
X455777Y57910D02*
D03*
X467391D02*
D03*
X350856Y93441D02*
D03*
X362470D02*
D03*
X508533Y153185D02*
D03*
X496919D02*
D03*
X341407Y148461D02*
D03*
X329793D02*
D03*
X357254Y237536D02*
D03*
X368868D02*
D03*
D15*
X190206Y86834D02*
D03*
Y72883D02*
D03*
X462076Y86834D02*
D03*
Y72883D02*
D03*
D16*
X212450Y83697D02*
D03*
X208710Y72870D02*
D03*
X216191D02*
D03*
X163139Y231236D02*
D03*
X166880Y220409D02*
D03*
X159399D02*
D03*
X217076Y165488D02*
D03*
X224557D02*
D03*
X220816Y174740D02*
D03*
X484320Y83697D02*
D03*
X480580Y72870D02*
D03*
X488061D02*
D03*
X435009Y231236D02*
D03*
X438750Y220409D02*
D03*
X431269D02*
D03*
X488946Y165488D02*
D03*
X496427D02*
D03*
X492687Y174740D02*
D03*
D17*
X236257Y91374D02*
D03*
X222305D02*
D03*
X508127D02*
D03*
X494176D02*
D03*
D18*
X228395Y72870D02*
D03*
X222293D02*
D03*
X153297Y220409D02*
D03*
X147195D02*
D03*
X61860Y82713D02*
D03*
X55757D02*
D03*
X129183Y126315D02*
D03*
X123080D02*
D03*
Y120213D02*
D03*
X129183D02*
D03*
X129183Y114110D02*
D03*
X123080D02*
D03*
X236958Y171689D02*
D03*
X230856D02*
D03*
X236958Y165488D02*
D03*
X230856D02*
D03*
X201919Y153185D02*
D03*
X208021D02*
D03*
X208021Y147083D02*
D03*
X201919D02*
D03*
X208021Y140980D02*
D03*
X201919D02*
D03*
X230561Y145409D02*
D03*
X236663D02*
D03*
X208021Y165488D02*
D03*
X201919D02*
D03*
X98671Y167654D02*
D03*
X92568D02*
D03*
X92574Y139406D02*
D03*
X98676D02*
D03*
X109517Y237536D02*
D03*
X103415D02*
D03*
X78986D02*
D03*
X72883D02*
D03*
X500265Y72870D02*
D03*
X494163D02*
D03*
X425167Y220409D02*
D03*
X419065D02*
D03*
X333730Y82713D02*
D03*
X327628D02*
D03*
X401053Y126315D02*
D03*
X394951D02*
D03*
Y120213D02*
D03*
X401053D02*
D03*
X401053Y114110D02*
D03*
X394951D02*
D03*
X508828Y171689D02*
D03*
X502726D02*
D03*
X508828Y165488D02*
D03*
X502726D02*
D03*
X473789Y153185D02*
D03*
X479891D02*
D03*
X479891Y147083D02*
D03*
X473789D02*
D03*
X479891Y140980D02*
D03*
X473789D02*
D03*
X502431Y145409D02*
D03*
X508533D02*
D03*
X479891Y165488D02*
D03*
X473789D02*
D03*
X370541Y167654D02*
D03*
X364439D02*
D03*
X364444Y139406D02*
D03*
X370546D02*
D03*
X381387Y237536D02*
D03*
X375285D02*
D03*
X350856D02*
D03*
X344754D02*
D03*
D19*
X125683Y239957D02*
D03*
Y249957D02*
D03*
Y269957D02*
D03*
Y259957D02*
D03*
X153242D02*
D03*
Y269957D02*
D03*
Y249957D02*
D03*
Y239957D02*
D03*
X397553D02*
D03*
Y249957D02*
D03*
Y269957D02*
D03*
Y259957D02*
D03*
X425112D02*
D03*
Y269957D02*
D03*
Y249957D02*
D03*
Y239957D02*
D03*
D20*
X161978Y239110D02*
D03*
X171978D02*
D03*
X161978Y264701D02*
D03*
X171978D02*
D03*
X433848Y239110D02*
D03*
X443848D02*
D03*
X433848Y264701D02*
D03*
X443848D02*
D03*
D21*
X144242Y231335D02*
D03*
X153297D02*
D03*
X416112D02*
D03*
X425167D02*
D03*
D22*
X163139Y188927D02*
D03*
Y208781D02*
D03*
X190994Y228466D02*
D03*
Y208613D02*
D03*
X163139Y153087D02*
D03*
Y133233D02*
D03*
X435009Y188927D02*
D03*
Y208781D02*
D03*
X462864Y228466D02*
D03*
Y208613D02*
D03*
X435009Y153087D02*
D03*
Y133233D02*
D03*
D23*
X190994Y243244D02*
D03*
Y258008D02*
D03*
X462864Y243244D02*
D03*
Y258008D02*
D03*
D24*
X90600Y73756D02*
D03*
Y85370D02*
D03*
X172588Y165193D02*
D03*
Y176807D02*
D03*
X163139Y176807D02*
D03*
Y165193D02*
D03*
X153691Y176807D02*
D03*
Y165193D02*
D03*
X362470Y73756D02*
D03*
Y85370D02*
D03*
X444458Y165193D02*
D03*
Y176807D02*
D03*
X435009Y176807D02*
D03*
Y165193D02*
D03*
X425561Y176807D02*
D03*
Y165193D02*
D03*
D25*
X78980Y78284D02*
D03*
Y85567D02*
D03*
X350851Y78284D02*
D03*
Y85567D02*
D03*
D26*
X251722Y208402D02*
D03*
Y183008D02*
D03*
X523592Y208402D02*
D03*
Y183008D02*
D03*
D27*
X221013Y204538D02*
D03*
Y187634D02*
D03*
X492883Y204538D02*
D03*
Y187634D02*
D03*
D28*
X98671Y146079D02*
D03*
Y151079D02*
D03*
Y156079D02*
D03*
Y161079D02*
D03*
X77214Y146079D02*
D03*
Y151079D02*
D03*
Y156079D02*
D03*
Y161079D02*
D03*
X370541Y146079D02*
D03*
Y151079D02*
D03*
Y156079D02*
D03*
Y161079D02*
D03*
X349084Y146079D02*
D03*
Y151079D02*
D03*
Y156079D02*
D03*
Y161079D02*
D03*
M02*
