M48
;Layer_Color=9474304
;FILE_FORMAT=2:5
INCH,TZ
;TYPE=PLATED
T1F00S00C0.01575
T2F00S00C0.01800
T3F00S00C0.01969
T4F00S00C0.02362
T5F00S00C0.02756
T6F00S00C0.03150
T7F00S00C0.03200
T8F00S00C0.03543
T9F00S00C0.04000
T10F00S00C0.04331
T11F00S00C0.05512
T12F00S00C0.07874
T13F00S00C0.08661
T14F00S00C0.09843
%
T01
X88500Y32800
X98500Y32806
Y62806
X88500Y62800
X63500Y79769
Y89768
X63574Y99766
X63500Y160740
Y180720
X63483Y190720
X94238Y182352
Y172352
X112238Y172405
X127854Y172386
Y202386
X112238Y202405
X134000Y137800
X144000Y137769
X154000Y137800
Y107800
X144000Y107769
X134000Y107800
X138700Y86011
Y78132
X162962Y62686
Y54806
X33500Y79769
Y89768
X33574Y99766
X23519Y99769
X13275
Y129769
X23519
Y139770
Y169770
X33500Y160740
Y180720
X33483Y190720
X146000Y239366
X156000
T02
X3850Y4000
Y29000
X28850
Y4000
X53850
Y29000
X78850
Y4000
X103850
X128850
X153850
X178850
X203850
Y29000
X178850
X103850
X102877Y48400
X228850Y29000
Y4000
Y54000
Y79000
Y104000
Y129000
Y154000
Y179000
Y204000
X199800Y203900
X178850Y204000
X171400Y186400
X162432Y194600
X152200Y187000
Y202700
X150300Y169567
X165264Y170000
X165144Y147200
X154657Y143500
X159400Y136200
X153850Y129000
X178850
X203850
Y154000
X178850
X189600Y171100
Y186500
X128850Y179000
Y154000
X127100Y137800
X128850Y129000
X107037Y128000
Y137800
X91800Y134200
Y120500
X79800
X78850Y104000
X89567Y92700
X103850Y104000
X125600Y109230
X148600Y103200
X178850Y104000
Y79000
Y54000
X203850
Y79000
Y104000
X128850Y79000
Y54000
X153850
X102900Y57900
X78850Y54000
X68500Y134300
Y144800
X74700Y162200
X91800Y165700
X103850Y154000
Y179000
X78850
X68400Y185600
X78850Y204000
X92200
X150300Y153717
X54500Y156400
X53850Y179000
Y204000
X28850
X3850
Y179000
X18400
X28000
X28850Y154000
X28000Y135000
X18100Y134800
X21900Y121675
X3850Y129000
Y104000
X18200Y94700
X39600Y96800
X41800Y115775
X53100Y123700
X53850Y104000
Y79000
Y54000
X28850
X3850
Y79000
Y154000
X46000Y139900
X53850Y229000
Y254000
Y279000
Y304000
Y329000
X28850
X3850
Y354000
X28850
X53850
X28850Y304000
X3850
Y279000
Y254000
Y229000
X28850
Y279000
X94000
X95533Y250738
X101133Y245564
X89700Y234200
X78700
X78850Y254000
Y304000
X103850
Y329000
Y354000
X78850
Y329000
X153850
X178850
Y304000
X203850
Y329000
Y354000
X178850
X153850
Y304000
X154300Y274043
X140400
X128850Y254000
X153850
Y229000
X140870
X178850
X203850
Y254000
Y279000
X176768Y274043
X164000Y211300
X228850Y229000
Y254000
Y279000
Y304000
Y329000
Y354000
X203850Y379000
X178850
X153850
X128850
X103850
X78850
X53850
X28850
T03
X71600Y12800
Y22800
Y32800
X213576Y161077
Y181077
X204189
X194915Y180920
X185917
X176788Y180820
X167519Y180800
Y160800
X176788Y160820
X185917Y160920
X194915
X204189Y161077
X143125Y177406
Y187406
Y197406
X118700Y132500
Y122500
X103762Y77306
X93762
X83762
X63500Y64110
X149687Y78184
X159687
X169686
X53500Y64110
X84000Y228500
X104000
X114000
X124000
X134000
T04
X148462Y42806
Y62806
X102000Y112503
Y132503
X73520Y139769
Y119769
X58499Y150630
X58500Y170722
X127825Y162406
X147826
X38500Y170722
X38499Y150630
X13275Y159813
Y139813
Y89770
X23519
Y69770
X13275
X127825Y212351
X147826
X134032Y243800
X114032
T05
X146019Y258000
X174019
T06
X84000Y239366
Y259366
Y269366
Y279366
X104000
Y269366
Y259366
Y239366
T07
X108462Y32806
Y42806
X138462
Y32806
Y52806
Y62806
X108462
Y52806
X63517Y109769
Y119769
Y129769
Y139769
X33517
Y129769
Y119769
Y109769
X115000Y259500
X125000
Y289500
X115000
T08
X163847Y8500
Y18500
T09
X98500Y11600
X108500
X130252
X140252
T10
X96500Y150000
X116500
X136500
X43500Y269500
X23500
X63500
X169000
X189000
X209000
T11
X29692Y316100
Y341100
X93590
Y316100
X138911
Y341100
X202809
Y316100
Y366100
X138911
X93590
X29692
T12
X169000Y201462
X189000
X209000
Y221462
X189000
X169000
T13
X23500Y211500
X43500
X63500
T14
X116250Y332278
Y355900
M30
