G04*
G04 #@! TF.GenerationSoftware,Altium Limited,Altium Designer,19.0.12 (326)*
G04*
G04 Layer_Color=32896*
%FSLAX25Y25*%
%MOIN*%
G70*
G01*
G75*
%ADD10C,0.00600*%
%ADD11C,0.00500*%
%ADD12C,0.01000*%
%ADD14C,0.00800*%
D10*
X141200Y149000D02*
Y177000D01*
X91200D02*
X141200D01*
X91200Y149000D02*
Y177000D01*
Y149000D02*
X141200D01*
D11*
X154000Y282437D02*
G03*
X189000Y247437I35000J0D01*
G01*
Y317437D02*
G03*
X154000Y282437I-0J-35000D01*
G01*
X189000Y317437D02*
G03*
X154000Y282437I-0J-35000D01*
G01*
Y282437D02*
G03*
X189000Y247437I35000J0D01*
G01*
D02*
G03*
X224000Y282437I0J35000D01*
G01*
Y282437D02*
G03*
X189000Y317437I-35000J0D01*
G01*
X224000Y282437D02*
G03*
X189000Y317437I-35000J0D01*
G01*
Y247437D02*
G03*
X224000Y282437I0J35000D01*
G01*
X192535D02*
G03*
X192535Y282437I-3535J0D01*
G01*
D02*
G03*
X192535Y282437I-3535J0D01*
G01*
X8525Y162937D02*
G03*
X43525Y127937I35000J0D01*
G01*
Y197937D02*
G03*
X8525Y162937I-0J-35000D01*
G01*
X43525Y197937D02*
G03*
X8525Y162937I-0J-35000D01*
G01*
Y162937D02*
G03*
X43525Y127937I35000J0D01*
G01*
D02*
G03*
X78526Y162937I0J35000D01*
G01*
Y162937D02*
G03*
X43525Y197937I-35000J0D01*
G01*
X78526Y162937D02*
G03*
X43525Y197937I-35000J0D01*
G01*
Y127937D02*
G03*
X78526Y162937I0J35000D01*
G01*
X47060D02*
G03*
X47060Y162937I-3535J0D01*
G01*
D02*
G03*
X47060Y162937I-3535J0D01*
G01*
X154000D02*
G03*
X189000Y127937I35000J0D01*
G01*
Y197937D02*
G03*
X154000Y162937I-0J-35000D01*
G01*
X189000Y197937D02*
G03*
X154000Y162937I-0J-35000D01*
G01*
Y162937D02*
G03*
X189000Y127937I35000J0D01*
G01*
D02*
G03*
X224000Y162937I0J35000D01*
G01*
Y162937D02*
G03*
X189000Y197937I-35000J0D01*
G01*
X224000Y162937D02*
G03*
X189000Y197937I-35000J0D01*
G01*
Y127937D02*
G03*
X224000Y162937I0J35000D01*
G01*
X192535D02*
G03*
X192535Y162937I-3535J0D01*
G01*
D02*
G03*
X192535Y162937I-3535J0D01*
G01*
X8525Y282463D02*
G03*
X43525Y247463I35000J0D01*
G01*
Y317462D02*
G03*
X8525Y282463I-0J-35000D01*
G01*
X43525Y317462D02*
G03*
X8525Y282463I-0J-35000D01*
G01*
Y282463D02*
G03*
X43525Y247463I35000J0D01*
G01*
D02*
G03*
X78526Y282463I0J35000D01*
G01*
Y282463D02*
G03*
X43525Y317462I-35000J0D01*
G01*
X78526Y282463D02*
G03*
X43525Y317462I-35000J0D01*
G01*
Y247463D02*
G03*
X78526Y282463I0J35000D01*
G01*
X47060D02*
G03*
X47060Y282463I-3535J0D01*
G01*
D02*
G03*
X47060Y282463I-3535J0D01*
G01*
X154000Y282437D02*
X224000D01*
X154000D02*
X224000D01*
X159000Y227500D02*
X219000D01*
X159000D02*
X219000D01*
X189000Y247437D02*
Y317437D01*
Y247437D02*
Y317437D01*
X159000Y227500D02*
Y264937D01*
Y227500D02*
Y264937D01*
X219000Y227500D02*
Y264937D01*
Y227500D02*
Y264937D01*
X8525Y162937D02*
X78526D01*
X8525D02*
X78526D01*
X13525Y108000D02*
X73526D01*
X13525D02*
X73526D01*
X43525Y127937D02*
Y197937D01*
Y127937D02*
Y197937D01*
X13525Y108000D02*
Y145437D01*
Y108000D02*
Y145437D01*
X73526Y108000D02*
Y145437D01*
Y108000D02*
Y145437D01*
X154000Y162937D02*
X224000D01*
X154000D02*
X224000D01*
X159000Y108000D02*
X219000D01*
X159000D02*
X219000D01*
X189000Y127937D02*
Y197937D01*
Y127937D02*
Y197937D01*
X159000Y108000D02*
Y145437D01*
Y108000D02*
Y145437D01*
X219000Y108000D02*
Y145437D01*
Y108000D02*
Y145437D01*
X8525Y282463D02*
X78526D01*
X8525D02*
X78526D01*
X13525Y227525D02*
X73526D01*
X13525D02*
X73526D01*
X43525Y247463D02*
Y317462D01*
Y247463D02*
Y317462D01*
X13525Y227525D02*
Y264963D01*
Y227525D02*
Y264963D01*
X73526Y227525D02*
Y264963D01*
Y227525D02*
Y264963D01*
D12*
X115951Y333498D02*
X117951D01*
X116951D01*
Y328500D01*
X117951Y327500D01*
X118950D01*
X119950Y328500D01*
X113952Y327500D02*
X111953D01*
X112952D01*
Y333498D01*
X113952Y332498D01*
D14*
X98533Y283778D02*
X106801D01*
X125699D02*
X133967D01*
Y286534D01*
X133950Y286515D02*
Y305890D01*
X98533Y283778D02*
Y336715D01*
X133967Y305038D02*
Y336715D01*
X98533D02*
X133967D01*
X192794Y233499D02*
Y230833D01*
X191461Y229500D01*
X190128Y230833D01*
Y233499D01*
X186796D02*
X188129D01*
X188795Y232832D01*
Y230166D01*
X188129Y229500D01*
X186796D01*
X186129Y230166D01*
Y232832D01*
X186796Y233499D01*
X184797D02*
Y229500D01*
X182131D01*
X50187Y113332D02*
X50853Y113999D01*
X52186D01*
X52853Y113332D01*
Y112666D01*
X52186Y111999D01*
X50853D01*
X50187Y111333D01*
Y110667D01*
X50853Y110000D01*
X52186D01*
X52853Y110667D01*
X48854Y113999D02*
Y110000D01*
X47521Y111333D01*
X46188Y110000D01*
Y113999D01*
X42189D02*
X44855D01*
Y110000D01*
X42189D01*
X44855Y111999D02*
X43522D01*
X38191Y113999D02*
X40857D01*
Y110000D01*
X38191D01*
X40857Y111999D02*
X39524D01*
X36858Y110000D02*
Y113999D01*
X34858D01*
X34192Y113332D01*
Y111999D01*
X34858Y111333D01*
X36858D01*
X118462Y174332D02*
X119128Y174999D01*
X120461D01*
X121127Y174332D01*
Y173666D01*
X120461Y172999D01*
X119128D01*
X118462Y172333D01*
Y171667D01*
X119128Y171000D01*
X120461D01*
X121127Y171667D01*
X117129Y174999D02*
Y171000D01*
X115796Y172333D01*
X114463Y171000D01*
Y174999D01*
X113130Y171000D02*
X111797D01*
X112463D01*
Y174999D01*
X113130Y174332D01*
X196500Y113999D02*
X193834D01*
X195167D01*
Y110000D01*
X190502Y113999D02*
X191835D01*
X192501Y113332D01*
Y110667D01*
X191835Y110000D01*
X190502D01*
X189836Y110667D01*
Y113332D01*
X190502Y113999D01*
X188503Y110000D02*
Y113999D01*
X185837Y110000D01*
Y113999D01*
X181838D02*
X184504D01*
Y110000D01*
X181838D01*
X184504Y111999D02*
X183171D01*
X47334Y232332D02*
X48001Y232999D01*
X49334D01*
X50000Y232332D01*
Y229666D01*
X49334Y229000D01*
X48001D01*
X47334Y229666D01*
Y230999D01*
X48667D01*
X46001Y229000D02*
Y231666D01*
X44668Y232999D01*
X43336Y231666D01*
Y229000D01*
Y230999D01*
X46001D01*
X42003Y232999D02*
X40670D01*
X41336D01*
Y229000D01*
X42003D01*
X40670D01*
X38670D02*
Y232999D01*
X36004Y229000D01*
Y232999D01*
M02*
