G04*
G04 #@! TF.GenerationSoftware,Altium Limited,Altium Designer,19.0.12 (326)*
G04*
G04 Layer_Physical_Order=2*
G04 Layer_Color=16711680*
%FSLAX25Y25*%
%MOIN*%
G70*
G01*
G75*
%ADD12C,0.01000*%
%ADD42C,0.03200*%
%ADD43C,0.04724*%
%ADD44R,0.04724X0.04724*%
%ADD45C,0.06299*%
%ADD46C,0.04331*%
%ADD47C,0.05512*%
%ADD48C,0.05118*%
%ADD49C,0.05000*%
%ADD50R,0.04331X0.04331*%
%ADD51R,0.04724X0.04724*%
%ADD52C,0.11417*%
%ADD53R,0.11417X0.11417*%
%ADD54R,0.07087X0.07087*%
%ADD55C,0.07087*%
%ADD56C,0.14765*%
%ADD57C,0.08268*%
%ADD58R,0.05906X0.05906*%
%ADD59C,0.05906*%
%ADD60R,0.05512X0.05512*%
%ADD61C,0.06000*%
%ADD62C,0.06600*%
%ADD63R,0.06600X0.06600*%
%ADD64C,0.04725*%
%ADD65R,0.04331X0.04331*%
%ADD66C,0.03000*%
%ADD67C,0.01500*%
G36*
X207936Y319429D02*
X207436Y319330D01*
X207121Y320088D01*
X206330Y321119D01*
X205300Y321910D01*
X204099Y322407D01*
X202812Y322577D01*
X201523Y322407D01*
X200323Y321910D01*
X199293Y321119D01*
X198502Y320088D01*
X198004Y318888D01*
X197835Y317600D01*
X198004Y316312D01*
X198502Y315112D01*
X199293Y314081D01*
X200323Y313290D01*
X201523Y312793D01*
X202812Y312623D01*
X204099Y312793D01*
X205300Y313290D01*
X206330Y314081D01*
X207121Y315112D01*
X207436Y315870D01*
X207936Y315771D01*
Y310500D01*
X208052Y309915D01*
X208384Y309419D01*
X208880Y309087D01*
X209465Y308971D01*
X230971D01*
Y1529D01*
X1529D01*
Y308971D01*
X23000D01*
X23585Y309087D01*
X24081Y309419D01*
X24413Y309915D01*
X24529Y310500D01*
Y316677D01*
X25029Y316710D01*
X25075Y316364D01*
X25552Y315213D01*
X26311Y314224D01*
X27300Y313465D01*
X28451Y312988D01*
X29287Y312878D01*
Y317600D01*
Y322322D01*
X28451Y322212D01*
X27300Y321735D01*
X26311Y320976D01*
X25552Y319987D01*
X25075Y318836D01*
X25029Y318490D01*
X24529Y318523D01*
Y336471D01*
X207936D01*
Y319429D01*
D02*
G37*
%LPC*%
G36*
X139313Y322322D02*
Y318000D01*
X143636D01*
X143526Y318836D01*
X143049Y319987D01*
X142290Y320976D01*
X141301Y321735D01*
X140149Y322212D01*
X139313Y322322D01*
D02*
G37*
G36*
X30087D02*
Y318000D01*
X34409D01*
X34299Y318836D01*
X33822Y319987D01*
X33063Y320976D01*
X32074Y321735D01*
X30923Y322212D01*
X30087Y322322D01*
D02*
G37*
G36*
X138514D02*
X137678Y322212D01*
X136526Y321735D01*
X135537Y320976D01*
X134778Y319987D01*
X134301Y318836D01*
X134191Y318000D01*
X138514D01*
Y322322D01*
D02*
G37*
G36*
X34409Y317200D02*
X30087D01*
Y312878D01*
X30923Y312988D01*
X32074Y313465D01*
X33063Y314224D01*
X33822Y315213D01*
X34299Y316364D01*
X34409Y317200D01*
D02*
G37*
G36*
X143636D02*
X139313D01*
Y312878D01*
X140149Y312988D01*
X141301Y313465D01*
X142290Y314224D01*
X143049Y315213D01*
X143526Y316364D01*
X143636Y317200D01*
D02*
G37*
G36*
X138514D02*
X134191D01*
X134301Y316364D01*
X134778Y315213D01*
X135537Y314224D01*
X136526Y313465D01*
X137678Y312988D01*
X138514Y312878D01*
Y317200D01*
D02*
G37*
G36*
X93585Y322577D02*
X92297Y322407D01*
X91097Y321910D01*
X90066Y321119D01*
X89275Y320088D01*
X88778Y318888D01*
X88608Y317600D01*
X88778Y316312D01*
X89275Y315112D01*
X90066Y314081D01*
X91097Y313290D01*
X92297Y312793D01*
X93585Y312623D01*
X94873Y312793D01*
X96073Y313290D01*
X97104Y314081D01*
X97895Y315112D01*
X98392Y316312D01*
X98562Y317600D01*
X98392Y318888D01*
X97895Y320088D01*
X97104Y321119D01*
X96073Y321910D01*
X94873Y322407D01*
X93585Y322577D01*
D02*
G37*
G36*
X116250Y315622D02*
X114646Y315464D01*
X113104Y314996D01*
X111682Y314236D01*
X110436Y313214D01*
X109414Y311968D01*
X108654Y310546D01*
X108186Y309004D01*
X108028Y307400D01*
X108186Y305796D01*
X108654Y304254D01*
X109414Y302832D01*
X110436Y301586D01*
X111682Y300564D01*
X113104Y299804D01*
X114646Y299336D01*
X116250Y299178D01*
X117854Y299336D01*
X119396Y299804D01*
X120818Y300564D01*
X122064Y301586D01*
X123086Y302832D01*
X123846Y304254D01*
X124314Y305796D01*
X124472Y307400D01*
X124314Y309004D01*
X123846Y310546D01*
X123086Y311968D01*
X122064Y313214D01*
X120818Y314236D01*
X119396Y314996D01*
X117854Y315464D01*
X116250Y315622D01*
D02*
G37*
G36*
X202812Y297577D02*
X201523Y297407D01*
X200323Y296910D01*
X199293Y296119D01*
X198502Y295088D01*
X198004Y293888D01*
X197835Y292600D01*
X198004Y291312D01*
X198502Y290112D01*
X199293Y289081D01*
X200323Y288290D01*
X201523Y287793D01*
X202812Y287623D01*
X204099Y287793D01*
X205300Y288290D01*
X206330Y289081D01*
X207121Y290112D01*
X207618Y291312D01*
X207788Y292600D01*
X207618Y293888D01*
X207121Y295088D01*
X206330Y296119D01*
X205300Y296910D01*
X204099Y297407D01*
X202812Y297577D01*
D02*
G37*
G36*
X138914D02*
X137626Y297407D01*
X136425Y296910D01*
X135395Y296119D01*
X134604Y295088D01*
X134107Y293888D01*
X133937Y292600D01*
X134107Y291312D01*
X134604Y290112D01*
X135395Y289081D01*
X136425Y288290D01*
X137626Y287793D01*
X138914Y287623D01*
X140201Y287793D01*
X141402Y288290D01*
X142432Y289081D01*
X143223Y290112D01*
X143720Y291312D01*
X143890Y292600D01*
X143720Y293888D01*
X143223Y295088D01*
X142432Y296119D01*
X141402Y296910D01*
X140201Y297407D01*
X138914Y297577D01*
D02*
G37*
G36*
X93585D02*
X92297Y297407D01*
X91097Y296910D01*
X90066Y296119D01*
X89275Y295088D01*
X88778Y293888D01*
X88608Y292600D01*
X88778Y291312D01*
X89275Y290112D01*
X90066Y289081D01*
X91097Y288290D01*
X92297Y287793D01*
X93585Y287623D01*
X94873Y287793D01*
X96073Y288290D01*
X97104Y289081D01*
X97895Y290112D01*
X98392Y291312D01*
X98562Y292600D01*
X98392Y293888D01*
X97895Y295088D01*
X97104Y296119D01*
X96073Y296910D01*
X94873Y297407D01*
X93585Y297577D01*
D02*
G37*
G36*
X29687D02*
X28399Y297407D01*
X27199Y296910D01*
X26168Y296119D01*
X25377Y295088D01*
X24880Y293888D01*
X24710Y292600D01*
X24880Y291312D01*
X25377Y290112D01*
X26168Y289081D01*
X27199Y288290D01*
X28399Y287793D01*
X29687Y287623D01*
X30975Y287793D01*
X32175Y288290D01*
X33206Y289081D01*
X33997Y290112D01*
X34494Y291312D01*
X34664Y292600D01*
X34494Y293888D01*
X33997Y295088D01*
X33206Y296119D01*
X32175Y296910D01*
X30975Y297407D01*
X29687Y297577D01*
D02*
G37*
G36*
X116650Y291759D02*
Y284178D01*
X124232D01*
X124117Y285343D01*
X123660Y286847D01*
X122919Y288234D01*
X121922Y289450D01*
X120706Y290447D01*
X119319Y291188D01*
X117815Y291645D01*
X116650Y291759D01*
D02*
G37*
G36*
X115850D02*
X114685Y291645D01*
X113180Y291188D01*
X111794Y290447D01*
X110578Y289450D01*
X109581Y288234D01*
X108840Y286847D01*
X108383Y285343D01*
X108268Y284178D01*
X115850D01*
Y291759D01*
D02*
G37*
G36*
X124232Y283378D02*
X116650D01*
Y275797D01*
X117815Y275911D01*
X119319Y276368D01*
X120706Y277109D01*
X121922Y278106D01*
X122919Y279322D01*
X123660Y280709D01*
X124117Y282213D01*
X124232Y283378D01*
D02*
G37*
G36*
X115850D02*
X108268D01*
X108383Y282213D01*
X108840Y280709D01*
X109581Y279322D01*
X110578Y278106D01*
X111794Y277109D01*
X113180Y276368D01*
X114685Y275911D01*
X115850Y275797D01*
Y283378D01*
D02*
G37*
G36*
X202812Y272577D02*
X201523Y272407D01*
X200323Y271910D01*
X199293Y271119D01*
X198502Y270088D01*
X198004Y268888D01*
X197835Y267600D01*
X198004Y266312D01*
X198502Y265112D01*
X199293Y264081D01*
X200323Y263290D01*
X201523Y262793D01*
X202812Y262623D01*
X204099Y262793D01*
X205300Y263290D01*
X206330Y264081D01*
X207121Y265112D01*
X207618Y266312D01*
X207788Y267600D01*
X207618Y268888D01*
X207121Y270088D01*
X206330Y271119D01*
X205300Y271910D01*
X204099Y272407D01*
X202812Y272577D01*
D02*
G37*
G36*
X138914D02*
X137626Y272407D01*
X136425Y271910D01*
X135395Y271119D01*
X134604Y270088D01*
X134122Y268925D01*
X126600D01*
X126093Y268825D01*
X125663Y268537D01*
X114563Y257437D01*
X114275Y257007D01*
X114174Y256500D01*
Y246951D01*
X114010Y246883D01*
X113321Y246354D01*
X112792Y245664D01*
X112460Y244862D01*
X112346Y244000D01*
X112460Y243139D01*
X112792Y242336D01*
X113321Y241646D01*
X114010Y241118D01*
X114813Y240785D01*
X115674Y240671D01*
X116536Y240785D01*
X117339Y241118D01*
X118028Y241646D01*
X118557Y242336D01*
X118890Y243139D01*
X119003Y244000D01*
X118890Y244862D01*
X118557Y245664D01*
X118028Y246354D01*
X117339Y246883D01*
X116825Y247095D01*
Y255951D01*
X127149Y266274D01*
X134122D01*
X134604Y265112D01*
X135395Y264081D01*
X136425Y263290D01*
X137626Y262793D01*
X138914Y262623D01*
X140201Y262793D01*
X141402Y263290D01*
X142432Y264081D01*
X143223Y265112D01*
X143720Y266312D01*
X143890Y267600D01*
X143720Y268888D01*
X143223Y270088D01*
X142432Y271119D01*
X141402Y271910D01*
X140201Y272407D01*
X138914Y272577D01*
D02*
G37*
G36*
X93585D02*
X92297Y272407D01*
X91097Y271910D01*
X90066Y271119D01*
X89275Y270088D01*
X88778Y268888D01*
X88608Y267600D01*
X88778Y266312D01*
X89275Y265112D01*
X90066Y264081D01*
X91097Y263290D01*
X92297Y262793D01*
X93585Y262623D01*
X94873Y262793D01*
X96073Y263290D01*
X97104Y264081D01*
X97895Y265112D01*
X98392Y266312D01*
X98562Y267600D01*
X98392Y268888D01*
X97895Y270088D01*
X97104Y271119D01*
X96073Y271910D01*
X94873Y272407D01*
X93585Y272577D01*
D02*
G37*
G36*
X29687D02*
X28399Y272407D01*
X27199Y271910D01*
X26168Y271119D01*
X25377Y270088D01*
X24880Y268888D01*
X24710Y267600D01*
X24880Y266312D01*
X25377Y265112D01*
X26168Y264081D01*
X27199Y263290D01*
X28399Y262793D01*
X29687Y262623D01*
X30975Y262793D01*
X32175Y263290D01*
X33206Y264081D01*
X33997Y265112D01*
X34494Y266312D01*
X34664Y267600D01*
X34494Y268888D01*
X33997Y270088D01*
X33206Y271119D01*
X32175Y271910D01*
X30975Y272407D01*
X29687Y272577D01*
D02*
G37*
G36*
X11900Y247537D02*
Y245200D01*
X14237D01*
X14194Y245522D01*
X13916Y246195D01*
X13472Y246772D01*
X12895Y247216D01*
X12222Y247494D01*
X11900Y247537D01*
D02*
G37*
G36*
X11100D02*
X10778Y247494D01*
X10105Y247216D01*
X9528Y246772D01*
X9084Y246195D01*
X8806Y245522D01*
X8763Y245200D01*
X11100D01*
Y247537D01*
D02*
G37*
G36*
X126075Y247074D02*
Y244400D01*
X128749D01*
X128695Y244809D01*
X128382Y245563D01*
X127885Y246211D01*
X127238Y246708D01*
X126484Y247020D01*
X126075Y247074D01*
D02*
G37*
G36*
X125275D02*
X124865Y247020D01*
X124111Y246708D01*
X123464Y246211D01*
X122967Y245563D01*
X122654Y244809D01*
X122600Y244400D01*
X125275D01*
Y247074D01*
D02*
G37*
G36*
X14237Y244400D02*
X11900D01*
Y242063D01*
X12222Y242106D01*
X12895Y242384D01*
X13472Y242828D01*
X13916Y243405D01*
X14194Y244078D01*
X14237Y244400D01*
D02*
G37*
G36*
X11100D02*
X8763D01*
X8806Y244078D01*
X9084Y243405D01*
X9528Y242828D01*
X10105Y242384D01*
X10778Y242106D01*
X11100Y242063D01*
Y244400D01*
D02*
G37*
G36*
X128749Y243600D02*
X126075D01*
Y240926D01*
X126484Y240980D01*
X127238Y241292D01*
X127885Y241789D01*
X128382Y242437D01*
X128695Y243191D01*
X128749Y243600D01*
D02*
G37*
G36*
X125275D02*
X122600D01*
X122654Y243191D01*
X122967Y242437D01*
X123464Y241789D01*
X124111Y241292D01*
X124865Y240980D01*
X125275Y240926D01*
Y243600D01*
D02*
G37*
G36*
X85000Y237190D02*
X84174Y237081D01*
X83405Y236762D01*
X82744Y236256D01*
X82238Y235595D01*
X82126Y235326D01*
X24262D01*
X23755Y235225D01*
X23325Y234937D01*
X10563Y222175D01*
X10275Y221745D01*
X10175Y221238D01*
Y217461D01*
X10005Y217390D01*
X9385Y216915D01*
X8910Y216296D01*
X8611Y215574D01*
X8509Y214800D01*
X8611Y214026D01*
X8910Y213304D01*
X9385Y212685D01*
X10005Y212210D01*
X10726Y211911D01*
X11500Y211809D01*
X12267Y211910D01*
X18431Y205745D01*
X18279Y205377D01*
X18163Y204500D01*
X18279Y203623D01*
X18617Y202806D01*
X19155Y202104D01*
X19857Y201566D01*
X20674Y201227D01*
X21551Y201112D01*
X22428Y201227D01*
X23245Y201566D01*
X23947Y202104D01*
X24485Y202806D01*
X24824Y203623D01*
X24939Y204500D01*
X24824Y205377D01*
X24485Y206194D01*
X23947Y206896D01*
X23245Y207434D01*
X22428Y207772D01*
X21551Y207888D01*
X20674Y207772D01*
X20306Y207620D01*
X14246Y213680D01*
X14389Y214026D01*
X14491Y214800D01*
X14389Y215574D01*
X14090Y216296D01*
X13615Y216915D01*
X12995Y217390D01*
X12825Y217461D01*
Y220689D01*
X24812Y232675D01*
X82126D01*
X82238Y232405D01*
X82744Y231745D01*
X83405Y231238D01*
X84174Y230919D01*
X85000Y230810D01*
X85826Y230919D01*
X86595Y231238D01*
X87256Y231745D01*
X87762Y232405D01*
X88081Y233174D01*
X88190Y234000D01*
X88081Y234826D01*
X87762Y235595D01*
X87256Y236256D01*
X86595Y236762D01*
X85826Y237081D01*
X85000Y237190D01*
D02*
G37*
G36*
X43525Y225407D02*
X42392Y225257D01*
X41335Y224819D01*
X40428Y224123D01*
X39731Y223216D01*
X39373Y222351D01*
X27678D01*
X27319Y223216D01*
X26623Y224123D01*
X25716Y224819D01*
X24659Y225257D01*
X23526Y225407D01*
X22392Y225257D01*
X21335Y224819D01*
X20428Y224123D01*
X19732Y223216D01*
X19294Y222159D01*
X19144Y221025D01*
X19294Y219892D01*
X19732Y218835D01*
X20428Y217928D01*
X21335Y217231D01*
X22392Y216794D01*
X23526Y216645D01*
X24659Y216794D01*
X25716Y217231D01*
X26623Y217928D01*
X27319Y218835D01*
X27678Y219700D01*
X35175D01*
Y211587D01*
X34806Y211434D01*
X34104Y210896D01*
X33566Y210194D01*
X33228Y209377D01*
X33112Y208500D01*
X33228Y207623D01*
X33566Y206806D01*
X34104Y206104D01*
X34806Y205566D01*
X35623Y205227D01*
X36500Y205112D01*
X37377Y205227D01*
X37745Y205380D01*
X43334Y199792D01*
Y188095D01*
X43275Y188007D01*
X43174Y187500D01*
Y179549D01*
X39451Y175826D01*
X34523D01*
X34383Y176164D01*
X33854Y176854D01*
X33164Y177383D01*
X32362Y177715D01*
X31500Y177829D01*
X30639Y177715D01*
X29836Y177383D01*
X29146Y176854D01*
X28618Y176164D01*
X28285Y175362D01*
X28172Y174500D01*
X28285Y173638D01*
X28618Y172836D01*
X29146Y172146D01*
X29836Y171617D01*
X30639Y171285D01*
X31500Y171171D01*
X32362Y171285D01*
X33164Y171617D01*
X33854Y172146D01*
X34383Y172836D01*
X34523Y173175D01*
X38675D01*
Y134275D01*
X31845Y127446D01*
X31500Y127491D01*
X30726Y127389D01*
X30005Y127090D01*
X29385Y126615D01*
X28910Y125996D01*
X28611Y125274D01*
X28509Y124500D01*
X28611Y123726D01*
X28910Y123004D01*
X29385Y122385D01*
X30005Y121910D01*
X30174Y121839D01*
Y117161D01*
X30005Y117090D01*
X29385Y116615D01*
X28910Y115996D01*
X28611Y115274D01*
X28509Y114500D01*
X28611Y113726D01*
X28910Y113005D01*
X29385Y112385D01*
X30005Y111910D01*
X30726Y111611D01*
X31500Y111509D01*
X32274Y111611D01*
X32996Y111910D01*
X33615Y112385D01*
X34090Y113005D01*
X34389Y113726D01*
X34491Y114500D01*
X34389Y115274D01*
X34090Y115996D01*
X33615Y116615D01*
X32996Y117090D01*
X32825Y117161D01*
Y121839D01*
X32996Y121910D01*
X33615Y122385D01*
X34090Y123004D01*
X34389Y123726D01*
X34491Y124500D01*
X34389Y125274D01*
X34106Y125958D01*
X40937Y132789D01*
X41225Y133219D01*
X41326Y133726D01*
Y173951D01*
X45437Y178063D01*
X45725Y178493D01*
X45825Y179000D01*
Y187065D01*
X45884Y187152D01*
X45985Y187659D01*
Y200341D01*
X45884Y200848D01*
X45597Y201278D01*
X39620Y207255D01*
X39772Y207623D01*
X39888Y208500D01*
X39772Y209377D01*
X39434Y210194D01*
X38896Y210896D01*
X38194Y211434D01*
X37826Y211587D01*
Y219700D01*
X39373D01*
X39731Y218835D01*
X40428Y217928D01*
X41335Y217231D01*
X42392Y216794D01*
X43525Y216645D01*
X44659Y216794D01*
X45716Y217231D01*
X46623Y217928D01*
X47319Y218835D01*
X47757Y219892D01*
X47907Y221025D01*
X47757Y222159D01*
X47319Y223216D01*
X46623Y224123D01*
X45716Y224819D01*
X44659Y225257D01*
X43525Y225407D01*
D02*
G37*
G36*
X213143Y225144D02*
X209400D01*
Y221400D01*
X213143D01*
Y225144D01*
D02*
G37*
G36*
X208600D02*
X204856D01*
Y221400D01*
X208600D01*
Y225144D01*
D02*
G37*
G36*
X105000Y227190D02*
X104174Y227081D01*
X103405Y226762D01*
X102744Y226255D01*
X102238Y225595D01*
X101919Y224826D01*
X101810Y224000D01*
X101919Y223174D01*
X102238Y222405D01*
X102744Y221744D01*
X103405Y221238D01*
X104174Y220919D01*
X105000Y220810D01*
X105826Y220919D01*
X106595Y221238D01*
X107255Y221744D01*
X107762Y222405D01*
X108081Y223174D01*
X108190Y224000D01*
X108081Y224826D01*
X107762Y225595D01*
X107255Y226255D01*
X106595Y226762D01*
X105826Y227081D01*
X105000Y227190D01*
D02*
G37*
G36*
X85000D02*
X84174Y227081D01*
X83405Y226762D01*
X82744Y226255D01*
X82238Y225595D01*
X81919Y224826D01*
X81810Y224000D01*
X81919Y223174D01*
X82238Y222405D01*
X82744Y221744D01*
X83405Y221238D01*
X84174Y220919D01*
X85000Y220810D01*
X85826Y220919D01*
X86595Y221238D01*
X87256Y221744D01*
X87762Y222405D01*
X88081Y223174D01*
X88190Y224000D01*
X88081Y224826D01*
X87762Y225595D01*
X87256Y226255D01*
X86595Y226762D01*
X85826Y227081D01*
X85000Y227190D01*
D02*
G37*
G36*
X213143Y220600D02*
X209400D01*
Y216857D01*
X213143D01*
Y220600D01*
D02*
G37*
G36*
X208600D02*
X204856D01*
Y216857D01*
X208600D01*
Y220600D01*
D02*
G37*
G36*
X105000Y237190D02*
X104174Y237081D01*
X103405Y236762D01*
X102744Y236256D01*
X102238Y235595D01*
X101919Y234826D01*
X101810Y234000D01*
X101919Y233174D01*
X102238Y232405D01*
X102744Y231745D01*
X103405Y231238D01*
X104174Y230919D01*
X105000Y230810D01*
X105826Y230919D01*
X106595Y231238D01*
X107255Y231745D01*
X107762Y232405D01*
X107874Y232675D01*
X180377D01*
X187451Y225601D01*
X187342Y225014D01*
X186810Y224794D01*
X185902Y224098D01*
X185206Y223190D01*
X184768Y222134D01*
X184619Y221000D01*
X184768Y219866D01*
X185206Y218810D01*
X185902Y217902D01*
X186810Y217206D01*
X187866Y216768D01*
X189000Y216619D01*
X190134Y216768D01*
X191191Y217206D01*
X192098Y217902D01*
X192794Y218810D01*
X193232Y219866D01*
X193381Y221000D01*
X193232Y222134D01*
X192794Y223190D01*
X192098Y224098D01*
X191191Y224794D01*
X190325Y225152D01*
Y225926D01*
X190225Y226433D01*
X189937Y226863D01*
X181863Y234937D01*
X181433Y235225D01*
X180926Y235326D01*
X107874D01*
X107762Y235595D01*
X107255Y236256D01*
X106595Y236762D01*
X105826Y237081D01*
X105000Y237190D01*
D02*
G37*
G36*
Y217190D02*
X104174Y217081D01*
X103405Y216762D01*
X102744Y216255D01*
X102238Y215595D01*
X102126Y215325D01*
X87874D01*
X87762Y215595D01*
X87256Y216255D01*
X86595Y216762D01*
X85826Y217081D01*
X85000Y217190D01*
X84174Y217081D01*
X83405Y216762D01*
X82744Y216255D01*
X82238Y215595D01*
X81919Y214826D01*
X81810Y214000D01*
X81919Y213174D01*
X82238Y212405D01*
X82744Y211744D01*
X83405Y211238D01*
X84174Y210919D01*
X85000Y210810D01*
X85826Y210919D01*
X86595Y211238D01*
X87256Y211744D01*
X87762Y212405D01*
X87874Y212674D01*
X102126D01*
X102238Y212405D01*
X102744Y211744D01*
X103405Y211238D01*
X104174Y210919D01*
X105000Y210810D01*
X105826Y210919D01*
X106595Y211238D01*
X107255Y211744D01*
X107762Y212405D01*
X108081Y213174D01*
X108190Y214000D01*
X108081Y214826D01*
X107762Y215595D01*
X107255Y216255D01*
X106595Y216762D01*
X105826Y217081D01*
X105000Y217190D01*
D02*
G37*
G36*
X126075Y217074D02*
Y214400D01*
X128749D01*
X128695Y214809D01*
X128382Y215563D01*
X127885Y216211D01*
X127238Y216708D01*
X126484Y217020D01*
X126075Y217074D01*
D02*
G37*
G36*
X125275D02*
X124865Y217020D01*
X124111Y216708D01*
X123464Y216211D01*
X122967Y215563D01*
X122654Y214809D01*
X122600Y214400D01*
X125275D01*
Y217074D01*
D02*
G37*
G36*
X67869Y225369D02*
X59182D01*
Y216682D01*
X62200D01*
Y216074D01*
X57745Y211620D01*
X57377Y211772D01*
X56500Y211888D01*
X55623Y211772D01*
X54806Y211434D01*
X54104Y210896D01*
X53566Y210194D01*
X53228Y209377D01*
X53112Y208500D01*
X53228Y207623D01*
X53566Y206806D01*
X54104Y206104D01*
X54806Y205566D01*
X55623Y205227D01*
X56500Y205112D01*
X57377Y205227D01*
X58194Y205566D01*
X58896Y206104D01*
X59434Y206806D01*
X59772Y207623D01*
X59888Y208500D01*
X59772Y209377D01*
X59620Y209745D01*
X64463Y214588D01*
X64750Y215018D01*
X64851Y215526D01*
Y216682D01*
X67869D01*
Y225369D01*
D02*
G37*
G36*
X184734Y214332D02*
Y211400D01*
X187666D01*
X187603Y211876D01*
X187265Y212692D01*
X186727Y213393D01*
X186026Y213931D01*
X185210Y214270D01*
X184734Y214332D01*
D02*
G37*
G36*
X183934D02*
X183458Y214270D01*
X182641Y213931D01*
X181940Y213393D01*
X181402Y212692D01*
X181064Y211876D01*
X181002Y211400D01*
X183934D01*
Y214332D01*
D02*
G37*
G36*
X128749Y213600D02*
X126075D01*
Y210926D01*
X126484Y210980D01*
X127238Y211292D01*
X127885Y211789D01*
X128382Y212437D01*
X128695Y213191D01*
X128749Y213600D01*
D02*
G37*
G36*
X125275D02*
X122600D01*
X122654Y213191D01*
X122967Y212437D01*
X123464Y211789D01*
X124111Y211292D01*
X124865Y210980D01*
X125275Y210926D01*
Y213600D01*
D02*
G37*
G36*
X115674Y217329D02*
X114813Y217215D01*
X114010Y216882D01*
X113321Y216354D01*
X112792Y215664D01*
X112460Y214861D01*
X112346Y214000D01*
X112460Y213139D01*
X112792Y212336D01*
X113321Y211646D01*
X114010Y211118D01*
X114813Y210785D01*
X115674Y210671D01*
X116536Y210785D01*
X117339Y211118D01*
X118028Y211646D01*
X118557Y212336D01*
X118890Y213139D01*
X119003Y214000D01*
X118890Y214861D01*
X118557Y215664D01*
X118028Y216354D01*
X117339Y216882D01*
X116536Y217215D01*
X115674Y217329D01*
D02*
G37*
G36*
X187666Y210600D02*
X184734D01*
Y207668D01*
X185210Y207730D01*
X186026Y208068D01*
X186727Y208607D01*
X187265Y209308D01*
X187603Y210124D01*
X187666Y210600D01*
D02*
G37*
G36*
X183934D02*
X181002D01*
X181064Y210124D01*
X181402Y209308D01*
X181940Y208607D01*
X182641Y208068D01*
X183458Y207730D01*
X183934Y207668D01*
Y210600D01*
D02*
G37*
G36*
X159890Y214556D02*
X152778D01*
Y207444D01*
X159890D01*
Y214556D01*
D02*
G37*
G36*
X138400Y203143D02*
Y200410D01*
X141134D01*
X141078Y200834D01*
X140759Y201603D01*
X140253Y202263D01*
X139593Y202769D01*
X138825Y203087D01*
X138400Y203143D01*
D02*
G37*
G36*
X137600D02*
X137175Y203087D01*
X136407Y202769D01*
X135747Y202263D01*
X135241Y201603D01*
X134922Y200834D01*
X134866Y200410D01*
X137600D01*
Y203143D01*
D02*
G37*
G36*
X141134Y199610D02*
X138400D01*
Y196876D01*
X138825Y196932D01*
X139593Y197250D01*
X140253Y197757D01*
X140759Y198417D01*
X141078Y199185D01*
X141134Y199610D01*
D02*
G37*
G36*
X137600D02*
X134866D01*
X134922Y199185D01*
X135241Y198417D01*
X135747Y197757D01*
X136407Y197250D01*
X137175Y196932D01*
X137600Y196876D01*
Y199610D01*
D02*
G37*
G36*
X214500Y203187D02*
X213572Y203064D01*
X212707Y202706D01*
X211964Y202136D01*
X211394Y201393D01*
X211035Y200528D01*
X210913Y199600D01*
X211035Y198672D01*
X211229Y198204D01*
X207563Y194537D01*
X207275Y194107D01*
X207174Y193600D01*
Y185561D01*
X207004Y185490D01*
X206385Y185015D01*
X205910Y184396D01*
X205611Y183674D01*
X205509Y182900D01*
X205611Y182126D01*
X205910Y181404D01*
X206385Y180785D01*
X206928Y180368D01*
X206992Y180022D01*
X206982Y179778D01*
X196770Y169566D01*
X196119Y169622D01*
X195855Y169966D01*
X195195Y170473D01*
X194425Y170791D01*
X193600Y170900D01*
X192774Y170791D01*
X192005Y170473D01*
X191345Y169966D01*
X190838Y169305D01*
X190519Y168536D01*
X190411Y167711D01*
X190519Y166885D01*
X190838Y166116D01*
X191345Y165456D01*
X192005Y164949D01*
X192774Y164630D01*
X193600Y164521D01*
X194425Y164630D01*
X195195Y164949D01*
X195855Y165456D01*
X196362Y166116D01*
X196474Y166385D01*
X196789D01*
X197297Y166486D01*
X197727Y166773D01*
X209437Y178484D01*
X209725Y178914D01*
X209825Y179421D01*
Y180239D01*
X209996Y180310D01*
X210615Y180785D01*
X211090Y181404D01*
X211389Y182126D01*
X211491Y182900D01*
X211389Y183674D01*
X211090Y184396D01*
X210615Y185015D01*
X209996Y185490D01*
X209825Y185561D01*
Y193051D01*
X213104Y196329D01*
X213572Y196135D01*
X214500Y196013D01*
X215428Y196135D01*
X216293Y196494D01*
X217036Y197064D01*
X217606Y197807D01*
X217965Y198672D01*
X218087Y199600D01*
X217965Y200528D01*
X217606Y201393D01*
X217036Y202136D01*
X216293Y202706D01*
X215428Y203064D01*
X214500Y203187D01*
D02*
G37*
G36*
X169000Y225381D02*
X167866Y225232D01*
X166809Y224794D01*
X165902Y224098D01*
X165206Y223190D01*
X164768Y222134D01*
X164619Y221000D01*
X164768Y219866D01*
X165206Y218810D01*
X165902Y217902D01*
X166809Y217206D01*
X167675Y216848D01*
Y213110D01*
X167775Y212602D01*
X168063Y212173D01*
X181572Y198663D01*
X182002Y198375D01*
X182510Y198275D01*
X191200D01*
X191394Y197807D01*
X191964Y197064D01*
X192707Y196494D01*
X193572Y196135D01*
X194500Y196013D01*
X195428Y196135D01*
X196293Y196494D01*
X197036Y197064D01*
X197606Y197807D01*
X197965Y198672D01*
X198087Y199600D01*
X197965Y200528D01*
X197606Y201393D01*
X197036Y202136D01*
X196293Y202706D01*
X195428Y203064D01*
X194500Y203187D01*
X193572Y203064D01*
X192707Y202706D01*
X191964Y202136D01*
X191394Y201393D01*
X191200Y200925D01*
X183059D01*
X170326Y213659D01*
Y216848D01*
X171191Y217206D01*
X172098Y217902D01*
X172794Y218810D01*
X173232Y219866D01*
X173381Y221000D01*
X173232Y222134D01*
X172794Y223190D01*
X172098Y224098D01*
X171191Y224794D01*
X170134Y225232D01*
X169000Y225381D01*
D02*
G37*
G36*
X156302Y199991D02*
X155528Y199889D01*
X154806Y199590D01*
X154187Y199115D01*
X153712Y198496D01*
X153413Y197774D01*
X153311Y197000D01*
X153413Y196226D01*
X153712Y195504D01*
X154187Y194885D01*
X154806Y194410D01*
X155528Y194111D01*
X156302Y194009D01*
X157076Y194111D01*
X157798Y194410D01*
X158417Y194885D01*
X158892Y195504D01*
X159191Y196226D01*
X159293Y197000D01*
X159191Y197774D01*
X158892Y198496D01*
X158417Y199115D01*
X157798Y199590D01*
X157076Y199889D01*
X156302Y199991D01*
D02*
G37*
G36*
X175862Y200162D02*
X169538D01*
Y193838D01*
X175862D01*
Y200162D01*
D02*
G37*
G36*
X36500Y200388D02*
X35623Y200272D01*
X34806Y199934D01*
X34104Y199396D01*
X33566Y198694D01*
X33228Y197877D01*
X33112Y197000D01*
X33228Y196123D01*
X33380Y195755D01*
X30563Y192937D01*
X30275Y192507D01*
X30174Y192000D01*
Y187523D01*
X29836Y187382D01*
X29146Y186854D01*
X28618Y186164D01*
X28285Y185362D01*
X28172Y184500D01*
X28285Y183639D01*
X28618Y182836D01*
X29146Y182146D01*
X29836Y181617D01*
X30639Y181285D01*
X31500Y181172D01*
X32362Y181285D01*
X33164Y181617D01*
X33854Y182146D01*
X34383Y182836D01*
X34715Y183639D01*
X34828Y184500D01*
X34715Y185362D01*
X34383Y186164D01*
X33854Y186854D01*
X33164Y187382D01*
X32825Y187523D01*
Y191451D01*
X35255Y193880D01*
X35623Y193728D01*
X36500Y193612D01*
X37377Y193728D01*
X38194Y194066D01*
X38896Y194604D01*
X39434Y195306D01*
X39772Y196123D01*
X39888Y197000D01*
X39772Y197877D01*
X39434Y198694D01*
X38896Y199396D01*
X38194Y199934D01*
X37377Y200272D01*
X36500Y200388D01*
D02*
G37*
G36*
X85000Y197190D02*
X84174Y197081D01*
X83405Y196762D01*
X82744Y196256D01*
X82238Y195595D01*
X81919Y194826D01*
X81810Y194000D01*
X81919Y193174D01*
X82238Y192405D01*
X82744Y191744D01*
X83405Y191238D01*
X84174Y190919D01*
X85000Y190810D01*
X85826Y190919D01*
X86595Y191238D01*
X87256Y191744D01*
X87762Y192405D01*
X88081Y193174D01*
X88190Y194000D01*
X88081Y194826D01*
X87762Y195595D01*
X87256Y196256D01*
X86595Y196762D01*
X85826Y197081D01*
X85000Y197190D01*
D02*
G37*
G36*
X173100Y189935D02*
Y187400D01*
X175635D01*
X175586Y187773D01*
X175287Y188494D01*
X174812Y189112D01*
X174194Y189587D01*
X173473Y189886D01*
X173100Y189935D01*
D02*
G37*
G36*
X172300D02*
X171927Y189886D01*
X171206Y189587D01*
X170588Y189112D01*
X170113Y188494D01*
X169814Y187773D01*
X169765Y187400D01*
X172300D01*
Y189935D01*
D02*
G37*
G36*
X118000Y203398D02*
X117123Y203282D01*
X116306Y202944D01*
X115604Y202405D01*
X115066Y201704D01*
X114727Y200887D01*
X114612Y200010D01*
X114727Y199133D01*
X115066Y198316D01*
X115553Y197681D01*
Y186947D01*
X108162D01*
Y187662D01*
X107447D01*
Y191994D01*
X107762Y192405D01*
X108081Y193174D01*
X108190Y194000D01*
X108081Y194826D01*
X107762Y195595D01*
X107255Y196256D01*
X106595Y196762D01*
X105826Y197081D01*
X105000Y197190D01*
X104174Y197081D01*
X103405Y196762D01*
X102744Y196256D01*
X102238Y195595D01*
X101919Y194826D01*
X101810Y194000D01*
X101919Y193174D01*
X102238Y192405D01*
X102553Y191994D01*
Y187662D01*
X101838D01*
Y181338D01*
X108162D01*
Y182053D01*
X115995D01*
X116405Y181738D01*
X117174Y181419D01*
X118000Y181311D01*
X118825Y181419D01*
X119595Y181738D01*
X120255Y182245D01*
X120762Y182905D01*
X121081Y183675D01*
X121189Y184500D01*
X121081Y185326D01*
X120762Y186095D01*
X120447Y186505D01*
Y197681D01*
X120934Y198316D01*
X121273Y199133D01*
X121388Y200010D01*
X121273Y200887D01*
X120934Y201704D01*
X120396Y202405D01*
X119694Y202944D01*
X118877Y203282D01*
X118000Y203398D01*
D02*
G37*
G36*
X128400Y187435D02*
Y184900D01*
X130935D01*
X130886Y185273D01*
X130587Y185994D01*
X130113Y186612D01*
X129494Y187087D01*
X128773Y187386D01*
X128400Y187435D01*
D02*
G37*
G36*
X127600D02*
X127227Y187386D01*
X126506Y187087D01*
X125888Y186612D01*
X125413Y185994D01*
X125114Y185273D01*
X125065Y184900D01*
X127600D01*
Y187435D01*
D02*
G37*
G36*
X175635Y186600D02*
X173100D01*
Y184065D01*
X173473Y184114D01*
X174194Y184413D01*
X174812Y184888D01*
X175287Y185506D01*
X175586Y186227D01*
X175635Y186600D01*
D02*
G37*
G36*
X172300D02*
X169765D01*
X169814Y186227D01*
X170113Y185506D01*
X170588Y184888D01*
X171206Y184413D01*
X171927Y184114D01*
X172300Y184065D01*
Y186600D01*
D02*
G37*
G36*
X130935Y184100D02*
X128400D01*
Y181565D01*
X128773Y181614D01*
X129494Y181913D01*
X130113Y182387D01*
X130587Y183006D01*
X130886Y183727D01*
X130935Y184100D01*
D02*
G37*
G36*
X127600D02*
X125065D01*
X125114Y183727D01*
X125413Y183006D01*
X125888Y182387D01*
X126506Y181913D01*
X127227Y181614D01*
X127600Y181565D01*
Y184100D01*
D02*
G37*
G36*
X138000Y187689D02*
X137174Y187581D01*
X136405Y187262D01*
X135745Y186755D01*
X135238Y186095D01*
X134919Y185326D01*
X134811Y184500D01*
X134919Y183675D01*
X135238Y182905D01*
X135745Y182245D01*
X136405Y181738D01*
X137174Y181419D01*
X138000Y181311D01*
X138826Y181419D01*
X139595Y181738D01*
X140255Y182245D01*
X140762Y182905D01*
X141081Y183675D01*
X141189Y184500D01*
X141081Y185326D01*
X140762Y186095D01*
X140255Y186755D01*
X139595Y187262D01*
X138826Y187581D01*
X138000Y187689D01*
D02*
G37*
G36*
X85000D02*
X84175Y187581D01*
X83405Y187262D01*
X82745Y186755D01*
X82238Y186095D01*
X81919Y185326D01*
X81811Y184500D01*
X81919Y183675D01*
X82238Y182905D01*
X82745Y182245D01*
X83405Y181738D01*
X84175Y181419D01*
X85000Y181311D01*
X85826Y181419D01*
X86595Y181738D01*
X87255Y182245D01*
X87762Y182905D01*
X88081Y183675D01*
X88189Y184500D01*
X88081Y185326D01*
X87762Y186095D01*
X87255Y186755D01*
X86595Y187262D01*
X85826Y187581D01*
X85000Y187689D01*
D02*
G37*
G36*
X56500Y200388D02*
X55623Y200272D01*
X54806Y199934D01*
X54104Y199396D01*
X53566Y198694D01*
X53228Y197877D01*
X53112Y197000D01*
X53228Y196123D01*
X53566Y195306D01*
X54104Y194604D01*
X54806Y194066D01*
X55623Y193728D01*
X56500Y193612D01*
X57377Y193728D01*
X57745Y193880D01*
X60175Y191451D01*
Y187523D01*
X59836Y187382D01*
X59146Y186854D01*
X58617Y186164D01*
X58285Y185362D01*
X58171Y184500D01*
X58285Y183639D01*
X58617Y182836D01*
X59146Y182146D01*
X59836Y181617D01*
X60638Y181285D01*
X61500Y181172D01*
X62362Y181285D01*
X63164Y181617D01*
X63854Y182146D01*
X64383Y182836D01*
X64715Y183639D01*
X64828Y184500D01*
X64715Y185362D01*
X64383Y186164D01*
X63854Y186854D01*
X63164Y187382D01*
X62826Y187523D01*
Y192000D01*
X62725Y192507D01*
X62437Y192937D01*
X59620Y195755D01*
X59772Y196123D01*
X59888Y197000D01*
X59772Y197877D01*
X59434Y198694D01*
X58896Y199396D01*
X58194Y199934D01*
X57377Y200272D01*
X56500Y200388D01*
D02*
G37*
G36*
X173202Y179935D02*
Y177400D01*
X175737D01*
X175688Y177773D01*
X175389Y178494D01*
X174915Y179113D01*
X174296Y179587D01*
X173575Y179886D01*
X173202Y179935D01*
D02*
G37*
G36*
X172402D02*
X172029Y179886D01*
X171308Y179587D01*
X170689Y179113D01*
X170215Y178494D01*
X169916Y177773D01*
X169867Y177400D01*
X172402D01*
Y179935D01*
D02*
G37*
G36*
X175737Y176600D02*
X173202D01*
Y174065D01*
X173575Y174114D01*
X174296Y174413D01*
X174915Y174888D01*
X175389Y175506D01*
X175688Y176227D01*
X175737Y176600D01*
D02*
G37*
G36*
X172402D02*
X169867D01*
X169916Y176227D01*
X170215Y175506D01*
X170689Y174888D01*
X171308Y174413D01*
X172029Y174114D01*
X172402Y174065D01*
Y176600D01*
D02*
G37*
G36*
X11500Y207491D02*
X10726Y207389D01*
X10005Y207090D01*
X9385Y206615D01*
X8910Y205995D01*
X8611Y205274D01*
X8509Y204500D01*
X8611Y203726D01*
X8910Y203005D01*
X9385Y202385D01*
X10005Y201910D01*
X10175Y201839D01*
Y199335D01*
X10275Y198828D01*
X10563Y198398D01*
X20225Y188735D01*
Y187587D01*
X19857Y187434D01*
X19155Y186896D01*
X18617Y186194D01*
X18279Y185377D01*
X18163Y184500D01*
X18279Y183623D01*
X18617Y182806D01*
X19155Y182104D01*
X19857Y181566D01*
X20225Y181413D01*
Y177161D01*
X20055Y177090D01*
X19436Y176615D01*
X18961Y175996D01*
X18662Y175274D01*
X18560Y174500D01*
X18662Y173726D01*
X18961Y173004D01*
X19436Y172385D01*
X20055Y171910D01*
X20777Y171611D01*
X21551Y171509D01*
X22325Y171611D01*
X23046Y171910D01*
X23666Y172385D01*
X24141Y173004D01*
X24440Y173726D01*
X24542Y174500D01*
X24440Y175274D01*
X24141Y175996D01*
X23666Y176615D01*
X23046Y177090D01*
X22876Y177161D01*
Y181413D01*
X23245Y181566D01*
X23947Y182104D01*
X24485Y182806D01*
X24824Y183623D01*
X24939Y184500D01*
X24824Y185377D01*
X24485Y186194D01*
X23947Y186896D01*
X23245Y187434D01*
X22876Y187587D01*
Y189284D01*
X22776Y189791D01*
X22488Y190221D01*
X12825Y199884D01*
Y201839D01*
X12995Y201910D01*
X13615Y202385D01*
X14090Y203005D01*
X14389Y203726D01*
X14491Y204500D01*
X14389Y205274D01*
X14090Y205995D01*
X13615Y206615D01*
X12995Y207090D01*
X12274Y207389D01*
X11500Y207491D01*
D02*
G37*
G36*
X193600Y180900D02*
X192774Y180791D01*
X192005Y180473D01*
X191595Y180158D01*
X187411D01*
X186474Y179972D01*
X185680Y179441D01*
X176273Y170034D01*
X175964Y170162D01*
Y170162D01*
X169640D01*
Y169447D01*
X157984D01*
X157798Y169590D01*
X157076Y169889D01*
X156302Y169991D01*
X155528Y169889D01*
X154806Y169590D01*
X154782Y169571D01*
X152718D01*
X146059Y176230D01*
X145265Y176761D01*
X144328Y176947D01*
X73829D01*
X73194Y177434D01*
X72377Y177772D01*
X71500Y177888D01*
X70623Y177772D01*
X69806Y177434D01*
X69171Y176947D01*
X63732D01*
X63164Y177383D01*
X62362Y177715D01*
X61500Y177829D01*
X60638Y177715D01*
X59836Y177383D01*
X59268Y176947D01*
X58171D01*
X57235Y176761D01*
X56441Y176230D01*
X50770Y170559D01*
X50239Y169765D01*
X50053Y168828D01*
Y150509D01*
X50239Y149573D01*
X50770Y148779D01*
X56779Y142770D01*
X57573Y142239D01*
X58509Y142053D01*
X59818D01*
X60005Y141910D01*
X60726Y141611D01*
X61500Y141509D01*
X62274Y141611D01*
X62995Y141910D01*
X63615Y142385D01*
X64090Y143005D01*
X64389Y143726D01*
X64491Y144500D01*
X64389Y145274D01*
X64090Y145995D01*
X63615Y146615D01*
X62995Y147090D01*
X62274Y147389D01*
X61500Y147491D01*
X60726Y147389D01*
X60005Y147090D01*
X59818Y146947D01*
X59522D01*
X54947Y151523D01*
Y167815D01*
X59185Y172053D01*
X59268D01*
X59836Y171617D01*
X60638Y171285D01*
X61500Y171171D01*
X62362Y171285D01*
X63164Y171617D01*
X63732Y172053D01*
X69171D01*
X69806Y171566D01*
X70623Y171228D01*
X71500Y171112D01*
X72377Y171228D01*
X73194Y171566D01*
X73829Y172053D01*
X143315D01*
X149974Y165394D01*
X150768Y164864D01*
X151704Y164677D01*
X154457D01*
X154806Y164410D01*
X155528Y164111D01*
X156302Y164009D01*
X157076Y164111D01*
X157798Y164410D01*
X157984Y164553D01*
X169640D01*
Y163838D01*
X175964D01*
Y164553D01*
X176700D01*
X177636Y164739D01*
X178430Y165270D01*
X188424Y175264D01*
X191595D01*
X192005Y174949D01*
X192774Y174630D01*
X193600Y174521D01*
X194425Y174630D01*
X195195Y174949D01*
X195855Y175456D01*
X196362Y176116D01*
X196681Y176885D01*
X196789Y177711D01*
X196681Y178536D01*
X196362Y179305D01*
X195855Y179966D01*
X195195Y180473D01*
X194425Y180791D01*
X193600Y180900D01*
D02*
G37*
G36*
X11500Y177491D02*
X10726Y177389D01*
X10005Y177090D01*
X9385Y176615D01*
X8910Y175996D01*
X8611Y175274D01*
X8509Y174500D01*
X8611Y173726D01*
X8910Y173004D01*
X9385Y172385D01*
X10005Y171910D01*
X10175Y171839D01*
Y167587D01*
X9806Y167434D01*
X9104Y166896D01*
X8566Y166194D01*
X8228Y165377D01*
X8112Y164500D01*
X8228Y163623D01*
X8566Y162806D01*
X9104Y162104D01*
X9806Y161566D01*
X10623Y161228D01*
X11500Y161112D01*
X12377Y161228D01*
X13194Y161566D01*
X13896Y162104D01*
X14434Y162806D01*
X14587Y163174D01*
X28477D01*
X28618Y162836D01*
X29146Y162146D01*
X29836Y161618D01*
X30639Y161285D01*
X31500Y161171D01*
X32362Y161285D01*
X33164Y161618D01*
X33854Y162146D01*
X34383Y162836D01*
X34715Y163638D01*
X34828Y164500D01*
X34715Y165361D01*
X34383Y166164D01*
X33854Y166854D01*
X33164Y167383D01*
X32362Y167715D01*
X31500Y167829D01*
X30639Y167715D01*
X29836Y167383D01*
X29146Y166854D01*
X28618Y166164D01*
X28477Y165825D01*
X14587D01*
X14434Y166194D01*
X13896Y166896D01*
X13194Y167434D01*
X12825Y167587D01*
Y171839D01*
X12995Y171910D01*
X13615Y172385D01*
X14090Y173004D01*
X14389Y173726D01*
X14491Y174500D01*
X14389Y175274D01*
X14090Y175996D01*
X13615Y176615D01*
X12995Y177090D01*
X12274Y177389D01*
X11500Y177491D01*
D02*
G37*
G36*
X71900Y157634D02*
Y154900D01*
X74634D01*
X74578Y155325D01*
X74259Y156093D01*
X73753Y156753D01*
X73093Y157259D01*
X72325Y157578D01*
X71900Y157634D01*
D02*
G37*
G36*
X31900Y157574D02*
Y154900D01*
X34574D01*
X34520Y155309D01*
X34208Y156063D01*
X33711Y156711D01*
X33063Y157208D01*
X32309Y157520D01*
X31900Y157574D01*
D02*
G37*
G36*
X31100D02*
X30691Y157520D01*
X29937Y157208D01*
X29289Y156711D01*
X28792Y156063D01*
X28480Y155309D01*
X28426Y154900D01*
X31100D01*
Y157574D01*
D02*
G37*
G36*
X71100Y157634D02*
X70675Y157578D01*
X69907Y157259D01*
X69247Y156753D01*
X68741Y156093D01*
X68422Y155325D01*
X68366Y154900D01*
X71100D01*
Y157634D01*
D02*
G37*
G36*
X193600Y160900D02*
X192774Y160791D01*
X192005Y160473D01*
X191345Y159966D01*
X190838Y159305D01*
X190519Y158536D01*
X190411Y157711D01*
X190519Y156885D01*
X190631Y156616D01*
X179719Y145705D01*
X179274Y145889D01*
X178500Y145991D01*
X177726Y145889D01*
X177005Y145590D01*
X176385Y145115D01*
X175910Y144495D01*
X175611Y143774D01*
X175509Y143000D01*
X175611Y142226D01*
X175910Y141505D01*
X176385Y140885D01*
X177005Y140410D01*
X177174Y140339D01*
Y133000D01*
X177275Y132493D01*
X177563Y132063D01*
X185380Y124245D01*
X185228Y123877D01*
X185112Y123000D01*
X185228Y122123D01*
X185566Y121306D01*
X186104Y120604D01*
X186806Y120066D01*
X187623Y119728D01*
X188500Y119612D01*
X189377Y119728D01*
X190194Y120066D01*
X190896Y120604D01*
X191434Y121306D01*
X191772Y122123D01*
X191888Y123000D01*
X191772Y123877D01*
X191434Y124694D01*
X190896Y125396D01*
X190194Y125934D01*
X189377Y126272D01*
X188500Y126388D01*
X187623Y126272D01*
X187255Y126120D01*
X179825Y133549D01*
Y140339D01*
X179996Y140410D01*
X180615Y140885D01*
X181090Y141505D01*
X181389Y142226D01*
X181491Y143000D01*
X181406Y143643D01*
X192505Y154742D01*
X192774Y154630D01*
X193600Y154521D01*
X194425Y154630D01*
X195195Y154949D01*
X195855Y155456D01*
X196362Y156116D01*
X196681Y156885D01*
X196789Y157711D01*
X196681Y158536D01*
X196362Y159305D01*
X195855Y159966D01*
X195195Y160473D01*
X194425Y160791D01*
X193600Y160900D01*
D02*
G37*
G36*
X208900Y155637D02*
Y153300D01*
X211237D01*
X211194Y153622D01*
X210916Y154295D01*
X210472Y154872D01*
X209895Y155316D01*
X209222Y155594D01*
X208900Y155637D01*
D02*
G37*
G36*
X208100D02*
X207778Y155594D01*
X207105Y155316D01*
X206528Y154872D01*
X206084Y154295D01*
X205806Y153622D01*
X205763Y153300D01*
X208100D01*
Y155637D01*
D02*
G37*
G36*
X34574Y154100D02*
X31900D01*
Y151426D01*
X32309Y151480D01*
X33063Y151792D01*
X33711Y152289D01*
X34208Y152937D01*
X34520Y153691D01*
X34574Y154100D01*
D02*
G37*
G36*
X31100D02*
X28426D01*
X28480Y153691D01*
X28792Y152937D01*
X29289Y152289D01*
X29937Y151792D01*
X30691Y151480D01*
X31100Y151426D01*
Y154100D01*
D02*
G37*
G36*
X74634D02*
X71900D01*
Y151366D01*
X72325Y151422D01*
X73093Y151741D01*
X73753Y152247D01*
X74259Y152907D01*
X74578Y153675D01*
X74634Y154100D01*
D02*
G37*
G36*
X71100D02*
X68366D01*
X68422Y153675D01*
X68741Y152907D01*
X69247Y152247D01*
X69907Y151741D01*
X70675Y151422D01*
X71100Y151366D01*
Y154100D01*
D02*
G37*
G36*
X61500Y157828D02*
X60638Y157715D01*
X59836Y157383D01*
X59146Y156854D01*
X58617Y156164D01*
X58285Y155361D01*
X58171Y154500D01*
X58285Y153639D01*
X58617Y152836D01*
X59146Y152146D01*
X59836Y151618D01*
X60638Y151285D01*
X61500Y151172D01*
X62362Y151285D01*
X63164Y151618D01*
X63854Y152146D01*
X64383Y152836D01*
X64715Y153639D01*
X64828Y154500D01*
X64715Y155361D01*
X64383Y156164D01*
X63854Y156854D01*
X63164Y157383D01*
X62362Y157715D01*
X61500Y157828D01*
D02*
G37*
G36*
X211237Y152500D02*
X208900D01*
Y150163D01*
X209222Y150206D01*
X209895Y150484D01*
X210472Y150928D01*
X210916Y151505D01*
X211194Y152178D01*
X211237Y152500D01*
D02*
G37*
G36*
X208100D02*
X205763D01*
X205806Y152178D01*
X206084Y151505D01*
X206528Y150928D01*
X207105Y150484D01*
X207778Y150206D01*
X208100Y150163D01*
Y152500D01*
D02*
G37*
G36*
X31500Y147491D02*
X30726Y147389D01*
X30005Y147090D01*
X29818Y146947D01*
X23233D01*
X23046Y147090D01*
X22325Y147389D01*
X21551Y147491D01*
X20777Y147389D01*
X20055Y147090D01*
X19436Y146615D01*
X18961Y145995D01*
X18662Y145274D01*
X18560Y144500D01*
X18662Y143726D01*
X18961Y143005D01*
X19436Y142385D01*
X20055Y141910D01*
X20777Y141611D01*
X21551Y141509D01*
X22325Y141611D01*
X23046Y141910D01*
X23233Y142053D01*
X29053D01*
Y136947D01*
X21162D01*
Y137662D01*
X14838D01*
Y131338D01*
X21162D01*
Y132053D01*
X29818D01*
X30005Y131910D01*
X30726Y131611D01*
X31500Y131509D01*
X32274Y131611D01*
X32996Y131910D01*
X33615Y132385D01*
X34090Y133004D01*
X34389Y133726D01*
X34491Y134500D01*
X34389Y135274D01*
X34090Y135995D01*
X33947Y136182D01*
Y142818D01*
X34090Y143005D01*
X34389Y143726D01*
X34491Y144500D01*
X34389Y145274D01*
X34090Y145995D01*
X33615Y146615D01*
X32996Y147090D01*
X32274Y147389D01*
X31500Y147491D01*
D02*
G37*
G36*
X11900Y147634D02*
Y144900D01*
X14634D01*
X14578Y145325D01*
X14259Y146093D01*
X13753Y146753D01*
X13093Y147259D01*
X12325Y147578D01*
X11900Y147634D01*
D02*
G37*
G36*
X11100D02*
X10675Y147578D01*
X9907Y147259D01*
X9247Y146753D01*
X8741Y146093D01*
X8422Y145325D01*
X8366Y144900D01*
X11100D01*
Y147634D01*
D02*
G37*
G36*
X122749Y146487D02*
X120187D01*
Y143925D01*
X122749D01*
Y146487D01*
D02*
G37*
G36*
X119387D02*
X116825D01*
Y143925D01*
X119387D01*
Y146487D01*
D02*
G37*
G36*
X14634Y144100D02*
X11900D01*
Y141366D01*
X12325Y141422D01*
X13093Y141741D01*
X13753Y142247D01*
X14259Y142907D01*
X14578Y143675D01*
X14634Y144100D01*
D02*
G37*
G36*
X11100D02*
X8366D01*
X8422Y143675D01*
X8741Y142907D01*
X9247Y142247D01*
X9907Y141741D01*
X10675Y141422D01*
X11100Y141366D01*
Y144100D01*
D02*
G37*
G36*
X61500Y167829D02*
X60638Y167715D01*
X59836Y167383D01*
X59146Y166854D01*
X58617Y166164D01*
X58285Y165361D01*
X58171Y164500D01*
X58285Y163638D01*
X58617Y162836D01*
X59146Y162146D01*
X59836Y161618D01*
X60638Y161285D01*
X61500Y161171D01*
X62362Y161285D01*
X63164Y161618D01*
X63854Y162146D01*
X64383Y162836D01*
X64523Y163174D01*
X71178D01*
X85237Y149116D01*
Y146361D01*
X85067Y146290D01*
X84447Y145815D01*
X83972Y145195D01*
X83673Y144474D01*
X83571Y143700D01*
X83673Y142926D01*
X83972Y142204D01*
X84447Y141585D01*
X85067Y141110D01*
X85788Y140811D01*
X86562Y140709D01*
X87337Y140811D01*
X88058Y141110D01*
X88678Y141585D01*
X89153Y142204D01*
X89452Y142926D01*
X89553Y143700D01*
X89452Y144474D01*
X89153Y145195D01*
X88678Y145815D01*
X88058Y146290D01*
X87888Y146361D01*
Y149665D01*
X87787Y150172D01*
X87500Y150602D01*
X72665Y165437D01*
X72235Y165725D01*
X71728Y165825D01*
X64523D01*
X64383Y166164D01*
X63854Y166854D01*
X63164Y167383D01*
X62362Y167715D01*
X61500Y167829D01*
D02*
G37*
G36*
X122749Y143125D02*
X120187D01*
Y140563D01*
X122749D01*
Y143125D01*
D02*
G37*
G36*
X119387D02*
X116825D01*
Y140563D01*
X119387D01*
Y143125D01*
D02*
G37*
G36*
X96200Y169540D02*
X94924Y169414D01*
X93697Y169042D01*
X92567Y168438D01*
X91575Y167624D01*
X90762Y166633D01*
X90158Y165503D01*
X89786Y164276D01*
X89660Y163000D01*
X89786Y161724D01*
X90158Y160497D01*
X90762Y159367D01*
X91575Y158376D01*
X92567Y157562D01*
X93697Y156958D01*
X94875Y156601D01*
Y146851D01*
X93111D01*
Y140527D01*
X99435D01*
Y142364D01*
X103131D01*
X103238Y142105D01*
X103745Y141445D01*
X104405Y140938D01*
X105175Y140619D01*
X106000Y140511D01*
X106825Y140619D01*
X107595Y140938D01*
X108255Y141445D01*
X108762Y142105D01*
X109081Y142875D01*
X109189Y143700D01*
X109081Y144526D01*
X108762Y145295D01*
X108255Y145955D01*
X107595Y146462D01*
X106825Y146781D01*
X106000Y146889D01*
X105175Y146781D01*
X104405Y146462D01*
X103745Y145955D01*
X103238Y145295D01*
X103122Y145015D01*
X99435D01*
Y146851D01*
X97526D01*
Y156601D01*
X98703Y156958D01*
X99833Y157562D01*
X100824Y158376D01*
X101638Y159367D01*
X102242Y160497D01*
X102614Y161724D01*
X102740Y163000D01*
X102614Y164276D01*
X102242Y165503D01*
X101638Y166633D01*
X100824Y167624D01*
X99833Y168438D01*
X98703Y169042D01*
X97476Y169414D01*
X96200Y169540D01*
D02*
G37*
G36*
X188500Y146388D02*
X187623Y146273D01*
X186806Y145934D01*
X186104Y145396D01*
X185566Y144694D01*
X185228Y143877D01*
X185112Y143000D01*
X185228Y142123D01*
X185566Y141306D01*
X186104Y140604D01*
X186806Y140066D01*
X187623Y139727D01*
X188500Y139612D01*
X189377Y139727D01*
X190194Y140066D01*
X190896Y140604D01*
X191434Y141306D01*
X191587Y141674D01*
X195824D01*
X195910Y141467D01*
X196385Y140847D01*
X197004Y140372D01*
X197726Y140073D01*
X198500Y139971D01*
X199274Y140073D01*
X199996Y140372D01*
X200615Y140847D01*
X201090Y141467D01*
X201161Y141637D01*
X205394D01*
X205566Y141221D01*
X206104Y140520D01*
X206806Y139981D01*
X207623Y139643D01*
X208500Y139527D01*
X209377Y139643D01*
X210194Y139981D01*
X210896Y140520D01*
X211434Y141221D01*
X211772Y142038D01*
X211888Y142915D01*
X211772Y143792D01*
X211434Y144609D01*
X210896Y145311D01*
X210194Y145849D01*
X209377Y146188D01*
X208500Y146303D01*
X207623Y146188D01*
X206806Y145849D01*
X206104Y145311D01*
X205566Y144609D01*
X205433Y144288D01*
X201161D01*
X201090Y144458D01*
X200615Y145077D01*
X199996Y145553D01*
X199274Y145851D01*
X198500Y145953D01*
X197726Y145851D01*
X197004Y145553D01*
X196385Y145077D01*
X195910Y144458D01*
X195855Y144325D01*
X191587D01*
X191434Y144694D01*
X190896Y145396D01*
X190194Y145934D01*
X189377Y146273D01*
X188500Y146388D01*
D02*
G37*
G36*
X61900Y137237D02*
Y134900D01*
X64237D01*
X64194Y135222D01*
X63916Y135895D01*
X63472Y136472D01*
X62895Y136916D01*
X62222Y137194D01*
X61900Y137237D01*
D02*
G37*
G36*
X61100D02*
X60778Y137194D01*
X60105Y136916D01*
X59528Y136472D01*
X59084Y135895D01*
X58806Y135222D01*
X58763Y134900D01*
X61100D01*
Y137237D01*
D02*
G37*
G36*
X120187Y136435D02*
Y133900D01*
X122722D01*
X122673Y134273D01*
X122375Y134994D01*
X121900Y135612D01*
X121281Y136087D01*
X120561Y136386D01*
X120187Y136435D01*
D02*
G37*
G36*
X119387D02*
X119014Y136386D01*
X118293Y136087D01*
X117675Y135612D01*
X117200Y134994D01*
X116902Y134273D01*
X116852Y133900D01*
X119387D01*
Y136435D01*
D02*
G37*
G36*
X64237Y134100D02*
X61900D01*
Y131763D01*
X62222Y131806D01*
X62895Y132084D01*
X63472Y132528D01*
X63916Y133105D01*
X64194Y133778D01*
X64237Y134100D01*
D02*
G37*
G36*
X61100D02*
X58763D01*
X58806Y133778D01*
X59084Y133105D01*
X59528Y132528D01*
X60105Y132084D01*
X60778Y131806D01*
X61100Y131763D01*
Y134100D01*
D02*
G37*
G36*
X122722Y133100D02*
X120187D01*
Y130565D01*
X120561Y130614D01*
X121281Y130913D01*
X121900Y131387D01*
X122375Y132006D01*
X122673Y132727D01*
X122722Y133100D01*
D02*
G37*
G36*
X119387D02*
X116852D01*
X116902Y132727D01*
X117200Y132006D01*
X117675Y131387D01*
X118293Y130913D01*
X119014Y130614D01*
X119387Y130565D01*
Y133100D01*
D02*
G37*
G36*
X142709Y169509D02*
X129692D01*
Y156491D01*
X134874D01*
Y151300D01*
X134975Y150793D01*
X135263Y150363D01*
X138462Y147164D01*
Y146399D01*
X138193Y146287D01*
X137532Y145781D01*
X137025Y145120D01*
X136707Y144351D01*
X136598Y143526D01*
X136707Y142700D01*
X137025Y141931D01*
X137532Y141270D01*
X138193Y140763D01*
X138462Y140652D01*
Y136662D01*
X136625D01*
Y130338D01*
X142949D01*
Y136662D01*
X141113D01*
Y140652D01*
X141382Y140763D01*
X142043Y141270D01*
X142549Y141931D01*
X142868Y142700D01*
X142977Y143526D01*
X142868Y144351D01*
X142549Y145120D01*
X142043Y145781D01*
X141382Y146287D01*
X141113Y146399D01*
Y147713D01*
X141012Y148220D01*
X140725Y148650D01*
X137525Y151849D01*
Y156491D01*
X142709D01*
Y169509D01*
D02*
G37*
G36*
X18400Y127435D02*
Y124900D01*
X20935D01*
X20886Y125273D01*
X20587Y125994D01*
X20112Y126612D01*
X19494Y127087D01*
X18773Y127386D01*
X18400Y127435D01*
D02*
G37*
G36*
X17600D02*
X17227Y127386D01*
X16506Y127087D01*
X15888Y126612D01*
X15413Y125994D01*
X15114Y125273D01*
X15065Y124900D01*
X17600D01*
Y127435D01*
D02*
G37*
G36*
X120200Y126634D02*
Y123900D01*
X122934D01*
X122878Y124325D01*
X122559Y125093D01*
X122053Y125753D01*
X121393Y126259D01*
X120625Y126578D01*
X120200Y126634D01*
D02*
G37*
G36*
X119400D02*
X118975Y126578D01*
X118207Y126259D01*
X117547Y125753D01*
X117041Y125093D01*
X116722Y124325D01*
X116666Y123900D01*
X119400D01*
Y126634D01*
D02*
G37*
G36*
X208900Y126049D02*
Y123315D01*
X211634D01*
X211578Y123740D01*
X211259Y124508D01*
X210753Y125168D01*
X210093Y125675D01*
X209325Y125993D01*
X208900Y126049D01*
D02*
G37*
G36*
X208100D02*
X207675Y125993D01*
X206907Y125675D01*
X206247Y125168D01*
X205741Y124508D01*
X205422Y123740D01*
X205366Y123315D01*
X208100D01*
Y126049D01*
D02*
G37*
G36*
X20935Y124100D02*
X18400D01*
Y121565D01*
X18773Y121614D01*
X19494Y121913D01*
X20112Y122388D01*
X20587Y123006D01*
X20886Y123727D01*
X20935Y124100D01*
D02*
G37*
G36*
X17600D02*
X15065D01*
X15114Y123727D01*
X15413Y123006D01*
X15888Y122388D01*
X16506Y121913D01*
X17227Y121614D01*
X17600Y121565D01*
Y124100D01*
D02*
G37*
G36*
X61500Y127491D02*
X60726Y127389D01*
X60005Y127090D01*
X59385Y126615D01*
X58910Y125996D01*
X58611Y125274D01*
X58509Y124500D01*
X58611Y123726D01*
X58681Y123556D01*
X52813Y117687D01*
X52525Y117257D01*
X52425Y116750D01*
Y95662D01*
X50588D01*
Y89338D01*
X56912D01*
Y95662D01*
X55076D01*
Y116201D01*
X60556Y121681D01*
X60726Y121611D01*
X61500Y121509D01*
X62274Y121611D01*
X62995Y121910D01*
X63615Y122385D01*
X64090Y123004D01*
X64389Y123726D01*
X64491Y124500D01*
X64389Y125274D01*
X64090Y125996D01*
X63615Y126615D01*
X62995Y127090D01*
X62274Y127389D01*
X61500Y127491D01*
D02*
G37*
G36*
X122934Y123100D02*
X120200D01*
Y120366D01*
X120625Y120422D01*
X121393Y120741D01*
X122053Y121247D01*
X122559Y121907D01*
X122878Y122675D01*
X122934Y123100D01*
D02*
G37*
G36*
X119400D02*
X116666D01*
X116722Y122675D01*
X117041Y121907D01*
X117547Y121247D01*
X118207Y120741D01*
X118975Y120422D01*
X119400Y120366D01*
Y123100D01*
D02*
G37*
G36*
X211634Y122515D02*
X208900D01*
Y119782D01*
X209325Y119838D01*
X210093Y120156D01*
X210753Y120662D01*
X211259Y121322D01*
X211578Y122091D01*
X211634Y122515D01*
D02*
G37*
G36*
X208100D02*
X205366D01*
X205422Y122091D01*
X205741Y121322D01*
X206247Y120662D01*
X206907Y120156D01*
X207675Y119838D01*
X208100Y119782D01*
Y122515D01*
D02*
G37*
G36*
X108962Y116662D02*
X106400D01*
Y114100D01*
X108962D01*
Y116662D01*
D02*
G37*
G36*
X105600D02*
X103038D01*
Y114100D01*
X105600D01*
Y116662D01*
D02*
G37*
G36*
X96673Y116624D02*
Y114089D01*
X99208D01*
X99159Y114462D01*
X98860Y115183D01*
X98385Y115802D01*
X97767Y116277D01*
X97046Y116575D01*
X96673Y116624D01*
D02*
G37*
G36*
X95873D02*
X95499Y116575D01*
X94779Y116277D01*
X94160Y115802D01*
X93685Y115183D01*
X93387Y114462D01*
X93338Y114089D01*
X95873D01*
Y116624D01*
D02*
G37*
G36*
X178900Y115737D02*
Y113400D01*
X181237D01*
X181194Y113722D01*
X180916Y114395D01*
X180472Y114972D01*
X179895Y115416D01*
X179222Y115694D01*
X178900Y115737D01*
D02*
G37*
G36*
X178100D02*
X177778Y115694D01*
X177105Y115416D01*
X176528Y114972D01*
X176084Y114395D01*
X175806Y113722D01*
X175763Y113400D01*
X178100D01*
Y115737D01*
D02*
G37*
G36*
X99208Y113289D02*
X96673D01*
Y110754D01*
X97046Y110803D01*
X97767Y111102D01*
X98385Y111577D01*
X98860Y112195D01*
X99159Y112916D01*
X99208Y113289D01*
D02*
G37*
G36*
X95873D02*
X93338D01*
X93387Y112916D01*
X93685Y112195D01*
X94160Y111577D01*
X94779Y111102D01*
X95499Y110803D01*
X95873Y110754D01*
Y113289D01*
D02*
G37*
G36*
X108962Y113300D02*
X106400D01*
Y110738D01*
X108962D01*
Y113300D01*
D02*
G37*
G36*
X105600D02*
X103038D01*
Y110738D01*
X105600D01*
Y113300D01*
D02*
G37*
G36*
X181237Y112600D02*
X178900D01*
Y110263D01*
X179222Y110306D01*
X179895Y110584D01*
X180472Y111028D01*
X180916Y111605D01*
X181194Y112278D01*
X181237Y112600D01*
D02*
G37*
G36*
X178100D02*
X175763D01*
X175806Y112278D01*
X176084Y111605D01*
X176528Y111028D01*
X177105Y110584D01*
X177778Y110306D01*
X178100Y110263D01*
Y112600D01*
D02*
G37*
G36*
X198500Y115953D02*
X197726Y115851D01*
X197004Y115552D01*
X196385Y115077D01*
X195910Y114458D01*
X195611Y113736D01*
X195509Y112962D01*
X195611Y112188D01*
X195910Y111467D01*
X196385Y110847D01*
X196390Y110765D01*
X190999Y105373D01*
X190134Y105732D01*
X189000Y105881D01*
X187866Y105732D01*
X186810Y105294D01*
X185902Y104598D01*
X185206Y103691D01*
X184848Y102825D01*
X173152D01*
X172794Y103691D01*
X172098Y104598D01*
X171191Y105294D01*
X170134Y105732D01*
X169000Y105881D01*
X167866Y105732D01*
X166809Y105294D01*
X165902Y104598D01*
X165206Y103691D01*
X164768Y102634D01*
X164619Y101500D01*
X164768Y100366D01*
X165206Y99309D01*
X165902Y98402D01*
X166809Y97706D01*
X167866Y97268D01*
X169000Y97119D01*
X170134Y97268D01*
X171191Y97706D01*
X172098Y98402D01*
X172794Y99309D01*
X173152Y100174D01*
X184848D01*
X185206Y99309D01*
X185902Y98402D01*
X186810Y97706D01*
X187866Y97268D01*
X189000Y97119D01*
X190134Y97268D01*
X191191Y97706D01*
X192098Y98402D01*
X192794Y99309D01*
X193232Y100366D01*
X193381Y101500D01*
X193232Y102634D01*
X192873Y103499D01*
X198826Y109452D01*
X199114Y109882D01*
X199148Y110056D01*
X199274Y110073D01*
X199996Y110372D01*
X200615Y110847D01*
X201090Y111467D01*
X201389Y112188D01*
X201491Y112962D01*
X201389Y113736D01*
X201090Y114458D01*
X200615Y115077D01*
X199996Y115552D01*
X199274Y115851D01*
X198500Y115953D01*
D02*
G37*
G36*
X139800Y126888D02*
X138923Y126772D01*
X138106Y126434D01*
X137404Y125896D01*
X136866Y125194D01*
X136528Y124377D01*
X136412Y123500D01*
X136528Y122623D01*
X136866Y121806D01*
X137404Y121104D01*
X138106Y120566D01*
X138475Y120413D01*
Y115709D01*
X138575Y115202D01*
X138863Y114772D01*
X142638Y110997D01*
X142361Y110331D01*
X142226Y109300D01*
X142361Y108269D01*
X142760Y107308D01*
X143393Y106483D01*
X144218Y105850D01*
X145178Y105452D01*
X146209Y105316D01*
X147240Y105452D01*
X148201Y105850D01*
X149026Y106483D01*
X149659Y107308D01*
X150057Y108269D01*
X150193Y109300D01*
X150057Y110331D01*
X149659Y111292D01*
X149026Y112117D01*
X148201Y112750D01*
X147240Y113148D01*
X146209Y113284D01*
X145178Y113148D01*
X144512Y112872D01*
X141126Y116258D01*
Y120413D01*
X141494Y120566D01*
X142196Y121104D01*
X142734Y121806D01*
X143072Y122623D01*
X143188Y123500D01*
X143072Y124377D01*
X142734Y125194D01*
X142196Y125896D01*
X141494Y126434D01*
X140677Y126772D01*
X139800Y126888D01*
D02*
G37*
G36*
X43525Y105881D02*
X42392Y105732D01*
X41335Y105294D01*
X40428Y104598D01*
X39731Y103691D01*
X39373Y102825D01*
X27678D01*
X27319Y103691D01*
X26623Y104598D01*
X25716Y105294D01*
X24659Y105732D01*
X23526Y105881D01*
X22392Y105732D01*
X21335Y105294D01*
X20428Y104598D01*
X19732Y103691D01*
X19294Y102634D01*
X19144Y101500D01*
X19294Y100366D01*
X19732Y99309D01*
X20428Y98402D01*
X21335Y97706D01*
X22392Y97268D01*
X23526Y97119D01*
X24659Y97268D01*
X25716Y97706D01*
X26623Y98402D01*
X27319Y99309D01*
X27678Y100174D01*
X30174D01*
Y95662D01*
X28338D01*
Y89338D01*
X34662D01*
Y95662D01*
X32825D01*
Y100174D01*
X39373D01*
X39731Y99309D01*
X40428Y98402D01*
X41335Y97706D01*
X42392Y97268D01*
X43525Y97119D01*
X44659Y97268D01*
X45716Y97706D01*
X46623Y98402D01*
X47319Y99309D01*
X47757Y100366D01*
X47907Y101500D01*
X47757Y102634D01*
X47319Y103691D01*
X46623Y104598D01*
X45716Y105294D01*
X44659Y105732D01*
X43525Y105881D01*
D02*
G37*
G36*
X116200Y169540D02*
X114924Y169414D01*
X113697Y169042D01*
X112567Y168438D01*
X111575Y167624D01*
X110762Y166633D01*
X110158Y165503D01*
X109786Y164276D01*
X109660Y163000D01*
X109786Y161724D01*
X110158Y160497D01*
X110762Y159367D01*
X111575Y158376D01*
X112567Y157562D01*
X113697Y156958D01*
X114874Y156601D01*
Y152049D01*
X112263Y149437D01*
X111975Y149007D01*
X111874Y148500D01*
Y119084D01*
X111975Y118577D01*
X112263Y118147D01*
X114884Y115525D01*
Y113026D01*
X114218Y112750D01*
X113392Y112117D01*
X112759Y111292D01*
X112362Y110331D01*
X112226Y109300D01*
X112362Y108269D01*
X112759Y107308D01*
X113392Y106483D01*
X114218Y105850D01*
X115178Y105452D01*
X115646Y105391D01*
X115731Y104963D01*
X116018Y104533D01*
X119675Y100876D01*
Y99753D01*
X117247D01*
Y97325D01*
X113049D01*
X111937Y98437D01*
X111507Y98725D01*
X111000Y98826D01*
X107800D01*
X107606Y99293D01*
X107036Y100036D01*
X106293Y100606D01*
X105428Y100964D01*
X104500Y101087D01*
X103572Y100964D01*
X102707Y100606D01*
X101964Y100036D01*
X101394Y99293D01*
X101035Y98428D01*
X100913Y97500D01*
X101035Y96572D01*
X101394Y95707D01*
X101964Y94964D01*
X102707Y94394D01*
X103572Y94036D01*
X104500Y93913D01*
X105428Y94036D01*
X106293Y94394D01*
X107036Y94964D01*
X107606Y95707D01*
X107800Y96175D01*
X110451D01*
X111563Y95063D01*
X111993Y94775D01*
X112500Y94674D01*
X117247D01*
Y92247D01*
X124753D01*
Y94674D01*
X131987D01*
X132222Y94107D01*
X132823Y93323D01*
X133607Y92722D01*
X134520Y92344D01*
X135500Y92215D01*
X136480Y92344D01*
X137393Y92722D01*
X138177Y93323D01*
X138778Y94107D01*
X139013Y94674D01*
X147851D01*
X151400Y91126D01*
X151830Y90838D01*
X152337Y90737D01*
X199563D01*
X200070Y90838D01*
X200500Y91126D01*
X206531Y97157D01*
X213344D01*
Y105843D01*
X204657D01*
Y99031D01*
X199014Y93388D01*
X152886D01*
X149337Y96937D01*
X148907Y97225D01*
X148400Y97325D01*
X139013D01*
X138778Y97893D01*
X138177Y98677D01*
X137393Y99278D01*
X136480Y99656D01*
X135500Y99785D01*
X134520Y99656D01*
X133607Y99278D01*
X132823Y98677D01*
X132222Y97893D01*
X131987Y97325D01*
X124753D01*
Y99753D01*
X122326D01*
Y101426D01*
X122225Y101933D01*
X121937Y102363D01*
X118610Y105690D01*
X118643Y106189D01*
X119026Y106483D01*
X119659Y107308D01*
X120057Y108269D01*
X120193Y109300D01*
X120057Y110331D01*
X119659Y111292D01*
X119026Y112117D01*
X118201Y112750D01*
X117535Y113026D01*
Y116075D01*
X117434Y116582D01*
X117147Y117012D01*
X114525Y119633D01*
Y147951D01*
X117137Y150563D01*
X117425Y150993D01*
X117525Y151500D01*
Y156601D01*
X118703Y156958D01*
X119833Y157562D01*
X120825Y158376D01*
X121638Y159367D01*
X122242Y160497D01*
X122614Y161724D01*
X122740Y163000D01*
X122614Y164276D01*
X122242Y165503D01*
X121638Y166633D01*
X120825Y167624D01*
X119833Y168438D01*
X118703Y169042D01*
X117476Y169414D01*
X116200Y169540D01*
D02*
G37*
G36*
X61500Y117491D02*
X60726Y117389D01*
X60005Y117090D01*
X59385Y116615D01*
X58910Y115996D01*
X58611Y115274D01*
X58509Y114500D01*
X58611Y113726D01*
X58910Y113005D01*
X59385Y112385D01*
X60005Y111910D01*
X60726Y111611D01*
X61500Y111509D01*
X61824Y111552D01*
X62200Y111222D01*
Y105843D01*
X59182D01*
Y97157D01*
X67869D01*
Y105843D01*
X64851D01*
Y112249D01*
X64750Y112756D01*
X64463Y113186D01*
X64253Y113396D01*
X64389Y113726D01*
X64491Y114500D01*
X64389Y115274D01*
X64090Y115996D01*
X63615Y116615D01*
X62995Y117090D01*
X62274Y117389D01*
X61500Y117491D01*
D02*
G37*
G36*
X86562Y116691D02*
X85788Y116589D01*
X85067Y116290D01*
X84447Y115815D01*
X83972Y115196D01*
X83673Y114474D01*
X83571Y113700D01*
X83673Y112926D01*
X83972Y112205D01*
X84447Y111585D01*
X85067Y111110D01*
X85237Y111039D01*
Y107172D01*
X83563Y105498D01*
X83275Y105068D01*
X83175Y104561D01*
Y100800D01*
X82707Y100606D01*
X81964Y100036D01*
X81394Y99293D01*
X81036Y98428D01*
X80913Y97500D01*
X81036Y96572D01*
X81394Y95707D01*
X81964Y94964D01*
X82707Y94394D01*
X83572Y94036D01*
X84500Y93913D01*
X85428Y94036D01*
X86293Y94394D01*
X87036Y94964D01*
X87606Y95707D01*
X87964Y96572D01*
X88087Y97500D01*
X87964Y98428D01*
X87606Y99293D01*
X87036Y100036D01*
X86293Y100606D01*
X85826Y100800D01*
Y104012D01*
X87500Y105686D01*
X87787Y106116D01*
X87888Y106623D01*
Y111039D01*
X88058Y111110D01*
X88678Y111585D01*
X89153Y112205D01*
X89452Y112926D01*
X89553Y113700D01*
X89452Y114474D01*
X89153Y115196D01*
X88678Y115815D01*
X88058Y116290D01*
X87337Y116589D01*
X86562Y116691D01*
D02*
G37*
G36*
X139053Y89553D02*
X135900D01*
Y86400D01*
X139053D01*
Y89553D01*
D02*
G37*
G36*
X121400Y89531D02*
Y86400D01*
X124531D01*
X124462Y86927D01*
X124103Y87792D01*
X123534Y88534D01*
X122792Y89104D01*
X121927Y89461D01*
X121400Y89531D01*
D02*
G37*
G36*
X120600D02*
X120072Y89461D01*
X119208Y89104D01*
X118466Y88534D01*
X117896Y87792D01*
X117538Y86927D01*
X117469Y86400D01*
X120600D01*
Y89531D01*
D02*
G37*
G36*
X135100Y89553D02*
X131947D01*
Y86400D01*
X135100D01*
Y89553D01*
D02*
G37*
G36*
X54150Y85435D02*
Y82900D01*
X56685D01*
X56636Y83273D01*
X56337Y83994D01*
X55862Y84613D01*
X55244Y85087D01*
X54523Y85386D01*
X54150Y85435D01*
D02*
G37*
G36*
X31900D02*
Y82900D01*
X34435D01*
X34386Y83273D01*
X34087Y83994D01*
X33612Y84613D01*
X32994Y85087D01*
X32273Y85386D01*
X31900Y85435D01*
D02*
G37*
G36*
X53350D02*
X52977Y85386D01*
X52256Y85087D01*
X51638Y84613D01*
X51163Y83994D01*
X50864Y83273D01*
X50815Y82900D01*
X53350D01*
Y85435D01*
D02*
G37*
G36*
X31100D02*
X30727Y85386D01*
X30006Y85087D01*
X29388Y84613D01*
X28913Y83994D01*
X28614Y83273D01*
X28565Y82900D01*
X31100D01*
Y85435D01*
D02*
G37*
G36*
X124531Y85600D02*
X121400D01*
Y82469D01*
X121927Y82538D01*
X122792Y82897D01*
X123534Y83466D01*
X124103Y84208D01*
X124462Y85072D01*
X124531Y85600D01*
D02*
G37*
G36*
X120600D02*
X117469D01*
X117538Y85072D01*
X117896Y84208D01*
X118466Y83466D01*
X119208Y82897D01*
X120072Y82538D01*
X120600Y82469D01*
Y85600D01*
D02*
G37*
G36*
X139053D02*
X135900D01*
Y82447D01*
X139053D01*
Y85600D01*
D02*
G37*
G36*
X135100D02*
X131947D01*
Y82447D01*
X135100D01*
Y85600D01*
D02*
G37*
G36*
X56685Y82100D02*
X54150D01*
Y79565D01*
X54523Y79614D01*
X55244Y79913D01*
X55862Y80388D01*
X56337Y81006D01*
X56636Y81727D01*
X56685Y82100D01*
D02*
G37*
G36*
X34435D02*
X31900D01*
Y79565D01*
X32273Y79614D01*
X32994Y79913D01*
X33612Y80388D01*
X34087Y81006D01*
X34386Y81727D01*
X34435Y82100D01*
D02*
G37*
G36*
X53350D02*
X50815D01*
X50864Y81727D01*
X51163Y81006D01*
X51638Y80388D01*
X52256Y79913D01*
X52977Y79614D01*
X53350Y79565D01*
Y82100D01*
D02*
G37*
G36*
X31100D02*
X28565D01*
X28614Y81727D01*
X28913Y81006D01*
X29388Y80388D01*
X30006Y79913D01*
X30727Y79614D01*
X31100Y79565D01*
Y82100D01*
D02*
G37*
G36*
X165604Y79563D02*
X164778Y79455D01*
X164009Y79136D01*
X163599Y78821D01*
X159345D01*
Y79340D01*
X153414D01*
Y73409D01*
X159345D01*
Y73927D01*
X163599D01*
X164009Y73612D01*
X164778Y73294D01*
X165604Y73185D01*
X166429Y73294D01*
X167198Y73612D01*
X167859Y74119D01*
X168366Y74779D01*
X168684Y75549D01*
X168793Y76374D01*
X168684Y77200D01*
X168366Y77969D01*
X167859Y78629D01*
X167198Y79136D01*
X166429Y79455D01*
X165604Y79563D01*
D02*
G37*
G36*
X176004Y79309D02*
Y76774D01*
X178539D01*
X178489Y77147D01*
X178191Y77868D01*
X177716Y78487D01*
X177097Y78961D01*
X176377Y79260D01*
X176004Y79309D01*
D02*
G37*
G36*
X148900Y79111D02*
Y76774D01*
X151237D01*
X151194Y77096D01*
X150916Y77769D01*
X150472Y78347D01*
X149895Y78790D01*
X149222Y79068D01*
X148900Y79111D01*
D02*
G37*
G36*
X148100D02*
X147778Y79068D01*
X147105Y78790D01*
X146528Y78347D01*
X146084Y77769D01*
X145806Y77096D01*
X145763Y76774D01*
X148100D01*
Y79111D01*
D02*
G37*
G36*
X175204Y79309D02*
X174830Y79260D01*
X174110Y78961D01*
X173491Y78487D01*
X173016Y77868D01*
X172718Y77147D01*
X172669Y76774D01*
X175204D01*
Y79309D01*
D02*
G37*
G36*
X151237Y75974D02*
X148900D01*
Y73637D01*
X149222Y73680D01*
X149895Y73958D01*
X150472Y74402D01*
X150916Y74980D01*
X151194Y75652D01*
X151237Y75974D01*
D02*
G37*
G36*
X148100D02*
X145763D01*
X145806Y75652D01*
X146084Y74980D01*
X146528Y74402D01*
X147105Y73958D01*
X147778Y73680D01*
X148100Y73637D01*
Y75974D01*
D02*
G37*
G36*
X178539D02*
X176004D01*
Y73439D01*
X176377Y73488D01*
X177097Y73787D01*
X177716Y74262D01*
X178191Y74880D01*
X178489Y75601D01*
X178539Y75974D01*
D02*
G37*
G36*
X175204D02*
X172669D01*
X172718Y75601D01*
X173016Y74880D01*
X173491Y74262D01*
X174110Y73787D01*
X174830Y73488D01*
X175204Y73439D01*
Y75974D01*
D02*
G37*
G36*
X101645Y75190D02*
Y72655D01*
X104180D01*
X104131Y73028D01*
X103832Y73749D01*
X103357Y74368D01*
X102739Y74843D01*
X102018Y75141D01*
X101645Y75190D01*
D02*
G37*
G36*
X100845D02*
X100472Y75141D01*
X99751Y74843D01*
X99132Y74368D01*
X98658Y73749D01*
X98359Y73028D01*
X98310Y72655D01*
X100845D01*
Y75190D01*
D02*
G37*
G36*
X104180Y71855D02*
X101645D01*
Y69320D01*
X102018Y69369D01*
X102739Y69668D01*
X103357Y70143D01*
X103832Y70761D01*
X104131Y71482D01*
X104180Y71855D01*
D02*
G37*
G36*
X100845D02*
X98310D01*
X98359Y71482D01*
X98658Y70761D01*
X99132Y70143D01*
X99751Y69668D01*
X100472Y69369D01*
X100845Y69320D01*
Y71855D01*
D02*
G37*
G36*
X81245Y75444D02*
X80419Y75336D01*
X79650Y75017D01*
X78990Y74510D01*
X78483Y73850D01*
X78164Y73081D01*
X78056Y72255D01*
X78164Y71430D01*
X78483Y70661D01*
X78990Y70000D01*
X79650Y69493D01*
X80419Y69174D01*
X81245Y69066D01*
X82070Y69174D01*
X82840Y69493D01*
X83500Y70000D01*
X84007Y70661D01*
X84325Y71430D01*
X84434Y72255D01*
X84325Y73081D01*
X84007Y73850D01*
X83500Y74510D01*
X82840Y75017D01*
X82070Y75336D01*
X81245Y75444D01*
D02*
G37*
G36*
X185604Y79563D02*
X184778Y79455D01*
X184009Y79136D01*
X183349Y78629D01*
X182842Y77969D01*
X182523Y77200D01*
X182414Y76374D01*
X182523Y75549D01*
X182842Y74779D01*
X183157Y74369D01*
Y68935D01*
X178441Y64219D01*
X176331D01*
X176095Y64172D01*
X172800D01*
Y63816D01*
X164187D01*
X163553Y64303D01*
X162736Y64641D01*
X161859Y64757D01*
X160982Y64641D01*
X160165Y64303D01*
X159525Y63812D01*
X154071D01*
X153503Y64248D01*
X152701Y64580D01*
X151839Y64694D01*
X150978Y64580D01*
X150175Y64248D01*
X149486Y63719D01*
X148957Y63029D01*
X148624Y62227D01*
X148511Y61365D01*
X148624Y60504D01*
X148957Y59701D01*
X149486Y59012D01*
X150175Y58483D01*
X150978Y58150D01*
X151839Y58037D01*
X152701Y58150D01*
X153503Y58483D01*
X154071Y58918D01*
X159535D01*
X160165Y58435D01*
X160982Y58096D01*
X161859Y57981D01*
X162736Y58096D01*
X163553Y58435D01*
X164187Y58922D01*
X172800D01*
Y58241D01*
X178731D01*
Y59325D01*
X179455D01*
X180391Y59512D01*
X181185Y60042D01*
X187334Y66191D01*
X187864Y66985D01*
X188051Y67921D01*
Y74369D01*
X188366Y74779D01*
X188684Y75549D01*
X188793Y76374D01*
X188684Y77200D01*
X188366Y77969D01*
X187859Y78629D01*
X187198Y79136D01*
X186429Y79455D01*
X185604Y79563D01*
D02*
G37*
G36*
X91245Y75444D02*
X90419Y75336D01*
X89650Y75017D01*
X88990Y74510D01*
X88483Y73850D01*
X88164Y73081D01*
X88056Y72255D01*
X88164Y71430D01*
X88483Y70661D01*
X88990Y70000D01*
X89650Y69493D01*
X90419Y69174D01*
X91245Y69066D01*
X91965Y69161D01*
X95078Y66048D01*
X95508Y65760D01*
X96015Y65659D01*
X105540D01*
X108881Y62318D01*
X108811Y62148D01*
X108709Y61374D01*
X108811Y60600D01*
X109110Y59879D01*
X109585Y59259D01*
X110204Y58784D01*
X110926Y58485D01*
X111700Y58383D01*
X112474Y58485D01*
X113196Y58784D01*
X113815Y59259D01*
X114290Y59879D01*
X114589Y60600D01*
X114691Y61374D01*
X114589Y62148D01*
X114290Y62870D01*
X113815Y63489D01*
X113196Y63964D01*
X112474Y64263D01*
X111700Y64365D01*
X110926Y64263D01*
X110756Y64193D01*
X107027Y67922D01*
X106597Y68209D01*
X106089Y68310D01*
X96564D01*
X94068Y70807D01*
X94326Y71430D01*
X94434Y72255D01*
X94326Y73081D01*
X94007Y73850D01*
X93500Y74510D01*
X92839Y75017D01*
X92070Y75336D01*
X91245Y75444D01*
D02*
G37*
G36*
X121839Y64694D02*
X120978Y64580D01*
X120175Y64248D01*
X119486Y63719D01*
X118957Y63029D01*
X118624Y62227D01*
X118511Y61365D01*
X118624Y60504D01*
X118957Y59701D01*
X119486Y59012D01*
X120175Y58483D01*
X120978Y58150D01*
X121839Y58037D01*
X122701Y58150D01*
X123503Y58483D01*
X124193Y59012D01*
X124722Y59701D01*
X125054Y60504D01*
X125168Y61365D01*
X125054Y62227D01*
X124722Y63029D01*
X124193Y63719D01*
X123503Y64248D01*
X122701Y64580D01*
X121839Y64694D01*
D02*
G37*
G36*
X176166Y56063D02*
Y53727D01*
X178503D01*
X178460Y54049D01*
X178182Y54721D01*
X177738Y55299D01*
X177161Y55742D01*
X176488Y56021D01*
X176166Y56063D01*
D02*
G37*
G36*
X175366D02*
X175044Y56021D01*
X174371Y55742D01*
X173793Y55299D01*
X173350Y54721D01*
X173072Y54049D01*
X173029Y53727D01*
X175366D01*
Y56063D01*
D02*
G37*
G36*
X178503Y52927D02*
X176166D01*
Y50590D01*
X176488Y50633D01*
X177161Y50911D01*
X177738Y51354D01*
X178182Y51932D01*
X178460Y52605D01*
X178503Y52927D01*
D02*
G37*
G36*
X175366D02*
X173029D01*
X173072Y52605D01*
X173350Y51932D01*
X173793Y51354D01*
X174371Y50911D01*
X175044Y50633D01*
X175366Y50590D01*
Y52927D01*
D02*
G37*
G36*
X151839Y54694D02*
X150978Y54580D01*
X150175Y54248D01*
X149486Y53719D01*
X148957Y53030D01*
X148624Y52227D01*
X148511Y51365D01*
X148624Y50504D01*
X148957Y49701D01*
X149486Y49012D01*
X150175Y48483D01*
X150978Y48150D01*
X151839Y48037D01*
X152701Y48150D01*
X153503Y48483D01*
X154193Y49012D01*
X154722Y49701D01*
X155054Y50504D01*
X155168Y51365D01*
X155054Y52227D01*
X154722Y53030D01*
X154193Y53719D01*
X153503Y54248D01*
X152701Y54580D01*
X151839Y54694D01*
D02*
G37*
G36*
X101700Y64356D02*
X100926Y64254D01*
X100204Y63956D01*
X99585Y63480D01*
X99110Y62861D01*
X98811Y62139D01*
X98709Y61365D01*
X98811Y60591D01*
X99110Y59870D01*
X99585Y59250D01*
X100204Y58775D01*
X100926Y58476D01*
X101700Y58374D01*
X102474Y58476D01*
X102644Y58547D01*
X110374Y50816D01*
Y34035D01*
X110204Y33964D01*
X109585Y33489D01*
X109110Y32870D01*
X108811Y32148D01*
X108709Y31374D01*
X108811Y30600D01*
X109110Y29879D01*
X109585Y29259D01*
X110204Y28784D01*
X110926Y28485D01*
X111700Y28383D01*
X112474Y28485D01*
X113196Y28784D01*
X113815Y29259D01*
X114290Y29879D01*
X114589Y30600D01*
X114691Y31374D01*
X114589Y32148D01*
X114290Y32870D01*
X113815Y33489D01*
X113196Y33964D01*
X113025Y34035D01*
Y50040D01*
X118816D01*
X118957Y49701D01*
X119486Y49012D01*
X120175Y48483D01*
X120978Y48150D01*
X121839Y48037D01*
X122701Y48150D01*
X123503Y48483D01*
X124193Y49012D01*
X124722Y49701D01*
X125054Y50504D01*
X125168Y51365D01*
X125054Y52227D01*
X124722Y53030D01*
X124193Y53719D01*
X123503Y54248D01*
X122701Y54580D01*
X121839Y54694D01*
X120978Y54580D01*
X120175Y54248D01*
X119486Y53719D01*
X118957Y53030D01*
X118816Y52691D01*
X112249D01*
X104519Y60421D01*
X104589Y60591D01*
X104691Y61365D01*
X104589Y62139D01*
X104290Y62861D01*
X103815Y63480D01*
X103196Y63956D01*
X102474Y64254D01*
X101700Y64356D01*
D02*
G37*
G36*
X162259Y44502D02*
Y41769D01*
X164992D01*
X164936Y42193D01*
X164618Y42962D01*
X164112Y43622D01*
X163452Y44128D01*
X162683Y44447D01*
X162259Y44502D01*
D02*
G37*
G36*
X161459D02*
X161034Y44447D01*
X160266Y44128D01*
X159606Y43622D01*
X159099Y42962D01*
X158781Y42193D01*
X158725Y41769D01*
X161459D01*
Y44502D01*
D02*
G37*
G36*
X164992Y40969D02*
X162259D01*
Y38235D01*
X162683Y38291D01*
X163452Y38609D01*
X164112Y39116D01*
X164618Y39776D01*
X164936Y40544D01*
X164992Y40969D01*
D02*
G37*
G36*
X161459D02*
X158725D01*
X158781Y40544D01*
X159099Y39776D01*
X159606Y39116D01*
X160266Y38609D01*
X161034Y38291D01*
X161459Y38235D01*
Y40969D01*
D02*
G37*
G36*
X151839Y44694D02*
X150978Y44580D01*
X150175Y44248D01*
X149486Y43719D01*
X148957Y43029D01*
X148624Y42227D01*
X148511Y41365D01*
X148624Y40504D01*
X148957Y39701D01*
X149486Y39012D01*
X150175Y38483D01*
X150978Y38150D01*
X151839Y38037D01*
X152701Y38150D01*
X153503Y38483D01*
X154193Y39012D01*
X154722Y39701D01*
X155054Y40504D01*
X155168Y41365D01*
X155054Y42227D01*
X154722Y43029D01*
X154193Y43719D01*
X153503Y44248D01*
X152701Y44580D01*
X151839Y44694D01*
D02*
G37*
G36*
X122239Y34439D02*
Y31765D01*
X124913D01*
X124859Y32175D01*
X124547Y32929D01*
X124050Y33576D01*
X123403Y34073D01*
X122649Y34385D01*
X122239Y34439D01*
D02*
G37*
G36*
X121439D02*
X121030Y34385D01*
X120276Y34073D01*
X119628Y33576D01*
X119131Y32929D01*
X118819Y32175D01*
X118765Y31765D01*
X121439D01*
Y34439D01*
D02*
G37*
G36*
X101700Y34356D02*
X100926Y34255D01*
X100204Y33956D01*
X99585Y33480D01*
X99110Y32861D01*
X99039Y32691D01*
X77917D01*
X77409Y32590D01*
X76979Y32302D01*
X70187Y25510D01*
X69900Y25080D01*
X69799Y24573D01*
Y18436D01*
X67962D01*
Y12112D01*
X74287D01*
Y18436D01*
X72450D01*
Y24024D01*
X78466Y30040D01*
X99039D01*
X99110Y29870D01*
X99585Y29250D01*
X100204Y28775D01*
X100926Y28476D01*
X101700Y28374D01*
X102474Y28476D01*
X103196Y28775D01*
X103815Y29250D01*
X104290Y29870D01*
X104589Y30591D01*
X104691Y31365D01*
X104589Y32139D01*
X104290Y32861D01*
X103815Y33480D01*
X103196Y33956D01*
X102474Y34255D01*
X101700Y34356D01*
D02*
G37*
G36*
X124913Y30965D02*
X122239D01*
Y28291D01*
X122649Y28345D01*
X123403Y28657D01*
X124050Y29154D01*
X124547Y29802D01*
X124859Y30556D01*
X124913Y30965D01*
D02*
G37*
G36*
X121439D02*
X118765D01*
X118819Y30556D01*
X119131Y29802D01*
X119628Y29154D01*
X120276Y28657D01*
X121030Y28345D01*
X121439Y28291D01*
Y30965D01*
D02*
G37*
G36*
X191900Y18436D02*
X188400D01*
Y14936D01*
X191900D01*
Y18436D01*
D02*
G37*
G36*
X187600D02*
X184100D01*
Y14936D01*
X187600D01*
Y18436D01*
D02*
G37*
G36*
X154790Y14281D02*
Y11103D01*
X157968D01*
X157897Y11643D01*
X157535Y12519D01*
X156958Y13271D01*
X156206Y13848D01*
X155330Y14210D01*
X154790Y14281D01*
D02*
G37*
G36*
X153990D02*
X153450Y14210D01*
X152575Y13848D01*
X151822Y13271D01*
X151245Y12519D01*
X150883Y11643D01*
X150812Y11103D01*
X153990D01*
Y14281D01*
D02*
G37*
G36*
X122045Y14216D02*
Y11038D01*
X125223D01*
X125152Y11577D01*
X124789Y12453D01*
X124212Y13205D01*
X123460Y13782D01*
X122584Y14145D01*
X122045Y14216D01*
D02*
G37*
G36*
X121245D02*
X120705Y14145D01*
X119829Y13782D01*
X119077Y13205D01*
X118500Y12453D01*
X118137Y11577D01*
X118066Y11038D01*
X121245D01*
Y14216D01*
D02*
G37*
G36*
X191900Y14136D02*
X188400D01*
Y10636D01*
X191900D01*
Y14136D01*
D02*
G37*
G36*
X187600D02*
X184100D01*
Y10636D01*
X187600D01*
Y14136D01*
D02*
G37*
G36*
X151839Y34694D02*
X150978Y34580D01*
X150175Y34248D01*
X149486Y33719D01*
X148957Y33029D01*
X148624Y32227D01*
X148511Y31365D01*
X148624Y30504D01*
X148957Y29701D01*
X149486Y29012D01*
X150175Y28483D01*
X150978Y28150D01*
X151839Y28037D01*
X152701Y28150D01*
X153039Y28291D01*
X167731Y13599D01*
X168161Y13311D01*
X168669Y13210D01*
X174111D01*
X174419Y12468D01*
X175076Y11612D01*
X175932Y10954D01*
X176930Y10541D01*
X178000Y10401D01*
X179070Y10541D01*
X180068Y10954D01*
X180924Y11612D01*
X181581Y12468D01*
X181994Y13466D01*
X182135Y14536D01*
X181994Y15606D01*
X181581Y16604D01*
X180924Y17460D01*
X180068Y18117D01*
X179070Y18530D01*
X178000Y18671D01*
X176930Y18530D01*
X175932Y18117D01*
X175076Y17460D01*
X174419Y16604D01*
X174111Y15861D01*
X169218D01*
X154914Y30165D01*
X155054Y30504D01*
X155168Y31365D01*
X155054Y32227D01*
X154722Y33029D01*
X154193Y33719D01*
X153503Y34248D01*
X152701Y34580D01*
X151839Y34694D01*
D02*
G37*
G36*
X157968Y10303D02*
X154790D01*
Y7125D01*
X155330Y7196D01*
X156206Y7559D01*
X156958Y8135D01*
X157535Y8888D01*
X157897Y9763D01*
X157968Y10303D01*
D02*
G37*
G36*
X153990D02*
X150812D01*
X150883Y9763D01*
X151245Y8888D01*
X151822Y8135D01*
X152575Y7559D01*
X153450Y7196D01*
X153990Y7125D01*
Y10303D01*
D02*
G37*
G36*
X125223Y10238D02*
X122045D01*
Y7059D01*
X122584Y7130D01*
X123460Y7493D01*
X124212Y8070D01*
X124789Y8822D01*
X125152Y9698D01*
X125223Y10238D01*
D02*
G37*
G36*
X121245D02*
X118066D01*
X118137Y9698D01*
X118500Y8822D01*
X119077Y8070D01*
X119829Y7493D01*
X120705Y7130D01*
X121245Y7059D01*
Y10238D01*
D02*
G37*
G36*
X121839Y44694D02*
X120978Y44580D01*
X120175Y44248D01*
X119486Y43719D01*
X118957Y43029D01*
X118624Y42227D01*
X118511Y41365D01*
X118624Y40504D01*
X118957Y39701D01*
X119486Y39012D01*
X120175Y38483D01*
X120978Y38150D01*
X121839Y38037D01*
X122701Y38150D01*
X123503Y38483D01*
X124193Y39012D01*
X124722Y39701D01*
X124862Y40040D01*
X126586D01*
X143065Y23561D01*
Y14267D01*
X142474Y14022D01*
X141680Y13413D01*
X141071Y12619D01*
X140688Y11695D01*
X140557Y10703D01*
X140688Y9711D01*
X141071Y8787D01*
X141680Y7993D01*
X142474Y7384D01*
X143398Y7001D01*
X144390Y6870D01*
X145382Y7001D01*
X146306Y7384D01*
X147100Y7993D01*
X147709Y8787D01*
X148092Y9711D01*
X148223Y10703D01*
X148092Y11695D01*
X147709Y12619D01*
X147100Y13413D01*
X146306Y14022D01*
X145715Y14267D01*
Y24110D01*
X145615Y24617D01*
X145327Y25047D01*
X128072Y42303D01*
X127642Y42590D01*
X127135Y42691D01*
X124862D01*
X124722Y43029D01*
X124193Y43719D01*
X123503Y44248D01*
X122701Y44580D01*
X121839Y44694D01*
D02*
G37*
G36*
X81125Y28463D02*
X80299Y28355D01*
X79530Y28036D01*
X78869Y27529D01*
X78363Y26869D01*
X78044Y26100D01*
X77935Y25274D01*
X78044Y24449D01*
X78363Y23679D01*
X78869Y23019D01*
X79530Y22512D01*
X79799Y22401D01*
Y20376D01*
X79900Y19868D01*
X80187Y19438D01*
X85289Y14337D01*
X85719Y14050D01*
X86226Y13949D01*
X88251D01*
X88362Y13679D01*
X88869Y13019D01*
X89530Y12512D01*
X90299Y12194D01*
X91124Y12085D01*
X91950Y12194D01*
X92719Y12512D01*
X93380Y13019D01*
X93887Y13679D01*
X93998Y13949D01*
X106459D01*
X108187Y12220D01*
X107942Y11630D01*
X107812Y10638D01*
X107942Y9646D01*
X108325Y8721D01*
X108934Y7927D01*
X109728Y7318D01*
X110652Y6935D01*
X111644Y6805D01*
X112636Y6935D01*
X113561Y7318D01*
X114355Y7927D01*
X114964Y8721D01*
X115347Y9646D01*
X115477Y10638D01*
X115347Y11630D01*
X114964Y12554D01*
X114355Y13348D01*
X113561Y13957D01*
X112636Y14340D01*
X111644Y14470D01*
X110652Y14340D01*
X110062Y14095D01*
X107945Y16211D01*
X107515Y16499D01*
X107008Y16600D01*
X93998D01*
X93887Y16869D01*
X93380Y17529D01*
X92719Y18036D01*
X91950Y18355D01*
X91124Y18463D01*
X90299Y18355D01*
X89530Y18036D01*
X88869Y17529D01*
X88362Y16869D01*
X88251Y16600D01*
X86775D01*
X82450Y20924D01*
Y22401D01*
X82719Y22512D01*
X83380Y23019D01*
X83886Y23679D01*
X84205Y24449D01*
X84314Y25274D01*
X84205Y26100D01*
X83886Y26869D01*
X83380Y27529D01*
X82719Y28036D01*
X81950Y28355D01*
X81125Y28463D01*
D02*
G37*
%LPD*%
D12*
X168669Y14536D02*
X178000D01*
X151839Y31365D02*
X168669Y14536D01*
X144390Y10703D02*
Y24110D01*
X127135Y41365D02*
X144390Y24110D01*
X121839Y41365D02*
X127135D01*
X107008Y15274D02*
X111644Y10638D01*
X91124Y15274D02*
X107008D01*
X81125Y20376D02*
X86226Y15274D01*
X91124D01*
X81125Y20376D02*
Y25274D01*
X71125Y15274D02*
Y24573D01*
X77917Y31365D01*
X101700D01*
X111700Y31374D02*
Y51365D01*
X101700Y61365D02*
X111700Y51365D01*
X121839D01*
X106089Y66985D02*
X111700Y61374D01*
X96015Y66985D02*
X106089D01*
X91245Y71755D02*
X96015Y66985D01*
X91245Y71755D02*
Y72255D01*
X152337Y92063D02*
X199563D01*
X148400Y96000D02*
X152337Y92063D01*
X135500Y96000D02*
X148400D01*
X121000D02*
X135500D01*
X121000D02*
Y101426D01*
X116955Y105470D02*
X121000Y101426D01*
X116955Y105470D02*
Y108554D01*
X116209Y109300D02*
X116955Y108554D01*
X111000Y97500D02*
X112500Y96000D01*
X121000D01*
X104500Y97500D02*
X111000D01*
X84500Y104561D02*
X86562Y106623D01*
Y113700D01*
X84500Y97500D02*
Y104561D01*
X116209Y109300D02*
Y116075D01*
X113200Y119084D02*
X116209Y116075D01*
X113200Y119084D02*
Y148500D01*
X116200Y151500D02*
Y163000D01*
X113200Y148500D02*
X116200Y151500D01*
X139800Y115709D02*
X146209Y109300D01*
X139800Y115709D02*
Y123500D01*
X139787Y133500D02*
Y143526D01*
X136200Y151300D02*
X139787Y147713D01*
Y143526D02*
Y147713D01*
X136200Y151300D02*
Y163000D01*
X169000Y213110D02*
X182510Y199600D01*
X194500D01*
X169000Y213110D02*
Y221000D01*
X208500Y193600D02*
X214500Y199600D01*
X208500Y182900D02*
Y193600D01*
X139787Y133500D02*
X139987Y133300D01*
X105989Y143689D02*
X106000Y143700D01*
X96273Y143689D02*
X105989D01*
X96200Y143762D02*
X96273Y143689D01*
X96200Y143762D02*
Y163000D01*
X86562Y143700D02*
Y149665D01*
X71728Y164500D02*
X86562Y149665D01*
X61500Y164500D02*
X71728D01*
X193600Y167711D02*
X196789D01*
X208500Y179421D01*
Y182900D01*
X178500Y143000D02*
X178889D01*
X193600Y157711D01*
X178500Y133000D02*
Y143000D01*
Y133000D02*
X188500Y123000D01*
X208453Y142962D02*
X208500Y142915D01*
X198500Y142962D02*
X208453D01*
X198462Y143000D02*
X198500Y142962D01*
X188500Y143000D02*
X198462D01*
X169000Y101500D02*
X189000D01*
X197889Y110389D01*
Y112351D01*
X198500Y112962D01*
X126600Y267600D02*
X138914D01*
X115500Y256500D02*
X126600Y267600D01*
X115500Y244175D02*
Y256500D01*
X116000Y162800D02*
X116200Y163000D01*
X136000Y162800D02*
X136200Y163000D01*
X96173Y162973D02*
X96200Y163000D01*
X180926Y234000D02*
X189000Y225926D01*
Y221000D02*
Y225926D01*
X63525Y215526D02*
Y221025D01*
X56500Y208500D02*
X63525Y215526D01*
X36500Y221025D02*
X43525D01*
X23526D02*
X36500D01*
Y208500D02*
Y221025D01*
X23500Y221000D02*
Y223091D01*
X11500Y221238D02*
X24262Y234000D01*
X11500Y214800D02*
Y221238D01*
Y214551D02*
X21551Y204500D01*
X11500Y214551D02*
Y214800D01*
X199563Y92063D02*
X209000Y101500D01*
X105000Y234000D02*
X180926D01*
X31500Y92500D02*
Y101500D01*
X53750Y116750D02*
X61500Y124500D01*
X53750Y92500D02*
Y116750D01*
X31500Y101500D02*
X43525D01*
X23526D02*
X31500D01*
X61500Y114274D02*
Y114500D01*
Y114274D02*
X63525Y112249D01*
Y101500D02*
Y112249D01*
X40000Y133726D02*
Y174500D01*
X44500Y187500D02*
X44659Y187659D01*
X44500Y179000D02*
Y187500D01*
X40000Y174500D02*
X44500Y179000D01*
X31500Y174500D02*
X40000D01*
X209000Y101500D02*
X209074Y101426D01*
X31500Y114500D02*
Y124500D01*
Y125226D02*
X40000Y133726D01*
X31500Y124500D02*
Y125226D01*
X36500Y208500D02*
X44659Y200341D01*
Y187659D02*
Y200341D01*
X56500Y197000D02*
X61500Y192000D01*
Y184500D02*
Y192000D01*
X31500D02*
X36500Y197000D01*
X31500Y184500D02*
Y192000D01*
X11500Y164500D02*
X31500D01*
X11500D02*
Y174500D01*
X21551D02*
Y184500D01*
X11500Y199335D02*
X21551Y189284D01*
Y184500D02*
Y189284D01*
X11500Y199335D02*
Y204500D01*
X24262Y234000D02*
X85000D01*
X115500Y244175D02*
X115674Y244000D01*
X85000Y214000D02*
X105000D01*
D42*
X175604Y61369D02*
X175766Y61207D01*
X161859Y61369D02*
X175604D01*
X161855Y61365D02*
X161859Y61369D01*
X151839Y61365D02*
X161855D01*
X179455Y61772D02*
X185604Y67921D01*
X176331Y61772D02*
X179455D01*
X175766Y61207D02*
X176331Y61772D01*
X185604Y67921D02*
Y76374D01*
X156380D02*
X165604D01*
X151704Y167124D02*
X156177D01*
X144328Y174500D02*
X151704Y167124D01*
X71500Y174500D02*
X144328D01*
X118000Y184500D02*
Y200010D01*
X105000Y184500D02*
X118000D01*
X172802Y167000D02*
X176700D01*
X187411Y177711D01*
X193600D01*
X156302Y167000D02*
X172802D01*
X156177Y167124D02*
X156302Y167000D01*
X61500Y174500D02*
X71500D01*
X58171D02*
X61500D01*
X52500Y168828D02*
X58171Y174500D01*
X52500Y150509D02*
Y168828D01*
Y150509D02*
X58509Y144500D01*
X61500D01*
X18000Y134500D02*
X31500D01*
Y144500D01*
X21551D02*
X31500D01*
X105000Y184500D02*
Y194000D01*
D43*
X139787Y143526D02*
D03*
X185604Y76374D02*
D03*
X175604D02*
D03*
X165604D02*
D03*
X91124Y15274D02*
D03*
X81125Y25274D02*
D03*
X106000Y143700D02*
D03*
X96273Y113689D02*
D03*
X193600Y177711D02*
D03*
Y167711D02*
D03*
Y157711D02*
D03*
X53750Y82500D02*
D03*
X31500D02*
D03*
X18000Y124500D02*
D03*
X119787Y133500D02*
D03*
X172700Y187000D02*
D03*
X172802Y177000D02*
D03*
X118000Y184500D02*
D03*
X128000D02*
D03*
X138000D02*
D03*
X81245Y72255D02*
D03*
X101245D02*
D03*
X91245D02*
D03*
X85000Y184500D02*
D03*
D44*
X119787Y143526D02*
D03*
X71125Y15274D02*
D03*
X139787Y133500D02*
D03*
X105000Y184500D02*
D03*
D45*
X146209Y109300D02*
D03*
X116209D02*
D03*
D46*
X21551Y144500D02*
D03*
Y174500D02*
D03*
X11500Y214800D02*
D03*
Y244800D02*
D03*
X101700Y61365D02*
D03*
Y31365D02*
D03*
X148500Y76374D02*
D03*
X31500Y114500D02*
D03*
X61500D02*
D03*
Y124500D02*
D03*
X31500D02*
D03*
X61500Y134500D02*
D03*
X31500D02*
D03*
X61500Y144500D02*
D03*
X31500D02*
D03*
X11500Y174500D02*
D03*
Y204500D02*
D03*
X86562Y113700D02*
D03*
Y143700D02*
D03*
X208500Y152900D02*
D03*
Y182900D02*
D03*
X198500Y142962D02*
D03*
Y112962D02*
D03*
X178500Y143000D02*
D03*
Y113000D02*
D03*
X156302Y167000D02*
D03*
Y197000D02*
D03*
X175766Y53327D02*
D03*
X111700Y61374D02*
D03*
Y31374D02*
D03*
D47*
X84500Y97500D02*
D03*
X104500D02*
D03*
X214500Y199600D02*
D03*
X194500D02*
D03*
X184334Y211000D02*
D03*
D48*
X118000Y200010D02*
D03*
X138000D02*
D03*
X188500Y123000D02*
D03*
Y143000D02*
D03*
X11500Y164500D02*
D03*
Y144500D02*
D03*
X21551Y184500D02*
D03*
Y204500D02*
D03*
X36500Y208500D02*
D03*
X56500D02*
D03*
X36500Y197000D02*
D03*
X56500D02*
D03*
X139800Y123500D02*
D03*
X119800D02*
D03*
X208500Y142915D02*
D03*
Y122915D02*
D03*
X71500Y154500D02*
D03*
Y174500D02*
D03*
X161859Y41369D02*
D03*
Y61369D02*
D03*
D49*
X121839Y61365D02*
D03*
Y51365D02*
D03*
Y41365D02*
D03*
Y31365D02*
D03*
X151839Y51365D02*
D03*
Y61365D02*
D03*
Y41365D02*
D03*
Y31365D02*
D03*
X61500Y154500D02*
D03*
Y164500D02*
D03*
Y184500D02*
D03*
Y174500D02*
D03*
X31500Y154500D02*
D03*
Y164500D02*
D03*
Y174500D02*
D03*
Y184500D02*
D03*
X115674Y214000D02*
D03*
X125674D02*
D03*
Y244000D02*
D03*
X115674D02*
D03*
D50*
X156380Y76374D02*
D03*
D51*
X106000Y113700D02*
D03*
X96273Y143689D02*
D03*
X53750Y92500D02*
D03*
X31500D02*
D03*
X18000Y134500D02*
D03*
X172700Y197000D02*
D03*
X172802Y167000D02*
D03*
D52*
X96200Y163000D02*
D03*
X116200D02*
D03*
D53*
X136200D02*
D03*
D54*
X209000Y221000D02*
D03*
X63525Y101500D02*
D03*
X209000D02*
D03*
X63525Y221025D02*
D03*
D55*
X189000Y221000D02*
D03*
X169000D02*
D03*
X43525Y101500D02*
D03*
X23526D02*
D03*
X189000D02*
D03*
X169000D02*
D03*
X43525Y221025D02*
D03*
X23526D02*
D03*
D56*
X116250Y307400D02*
D03*
Y283778D02*
D03*
D57*
X138914Y292600D02*
D03*
X202812D02*
D03*
X138914Y317600D02*
D03*
X202812D02*
D03*
X138914Y267600D02*
D03*
X202812D02*
D03*
X29687Y292600D02*
D03*
X93585D02*
D03*
X29687Y317600D02*
D03*
X93585D02*
D03*
X29687Y267600D02*
D03*
X93585D02*
D03*
D58*
X121000Y96000D02*
D03*
X135500Y86000D02*
D03*
D59*
X121000D02*
D03*
X135500Y96000D02*
D03*
D60*
X156334Y211000D02*
D03*
D61*
X111644Y10638D02*
D03*
X121644D02*
D03*
X154390Y10703D02*
D03*
X144390D02*
D03*
D62*
X178000Y14536D02*
D03*
D63*
X188000D02*
D03*
D64*
X85000Y194000D02*
D03*
Y214000D02*
D03*
Y224000D02*
D03*
Y234000D02*
D03*
X105000D02*
D03*
Y224000D02*
D03*
Y214000D02*
D03*
Y194000D02*
D03*
D65*
X175766Y61207D02*
D03*
D66*
X95000Y209500D02*
D03*
Y219000D02*
D03*
X28700Y76000D02*
D03*
X153500Y179255D02*
D03*
X49000Y109100D02*
D03*
X36500Y119633D02*
D03*
X26623Y119500D02*
D03*
X26500Y189000D02*
D03*
X89381Y78629D02*
D03*
Y87500D02*
D03*
X108255D02*
D03*
X142549Y190000D02*
D03*
X151000Y203500D02*
D03*
X161800Y190500D02*
D03*
Y230000D02*
D03*
X125500Y169622D02*
D03*
X106500Y169540D02*
D03*
X111500Y179500D02*
D03*
Y189500D02*
D03*
X142000Y152907D02*
D03*
X153500D02*
D03*
X153700Y21500D02*
D03*
X135500Y54000D02*
D03*
X142000Y60042D02*
D03*
X108255Y78500D02*
D03*
X126000Y76374D02*
D03*
X119387Y70000D02*
D03*
X76979Y79300D02*
D03*
X78700Y35500D02*
D03*
X87606Y21500D02*
D03*
X116250Y56500D02*
D03*
X139053Y37000D02*
D03*
X130500Y31365D02*
D03*
X100500Y54300D02*
D03*
X161800Y67922D02*
D03*
X128400Y89500D02*
D03*
X125413Y110263D02*
D03*
X178889Y96937D02*
D03*
X179000Y106189D02*
D03*
X161800Y86500D02*
D03*
X151000D02*
D03*
X161800Y99278D02*
D03*
X151000Y99309D02*
D03*
X147500Y120422D02*
D03*
X155168Y129300D02*
D03*
X125413D02*
D03*
X103700Y4300D02*
D03*
X202000Y179400D02*
D03*
X104900Y207800D02*
D03*
X105000Y200100D02*
D03*
X161800Y203500D02*
D03*
X68227Y94300D02*
D03*
X53750Y76000D02*
D03*
X57573Y159600D02*
D03*
X58588Y109100D02*
D03*
X21551Y160500D02*
D03*
X21700Y168500D02*
D03*
X76900Y179255D02*
D03*
X202300Y129300D02*
D03*
X178700Y125800D02*
D03*
X202096Y154300D02*
D03*
X199000Y101000D02*
D03*
X89000Y154500D02*
D03*
X151000Y230000D02*
D03*
X115480Y21500D02*
D03*
X46500Y205112D02*
D03*
X38500Y180197D02*
D03*
X44500Y162500D02*
D03*
Y139509D02*
D03*
X26500D02*
D03*
X37500Y96264D02*
D03*
X34389Y105500D02*
D03*
X125500Y153000D02*
D03*
X80866Y189500D02*
D03*
X89381D02*
D03*
X98428D02*
D03*
X142508Y179500D02*
D03*
X77000Y169590D02*
D03*
X89000Y169447D02*
D03*
X68227Y138500D02*
D03*
X80600D02*
D03*
X68227Y118500D02*
D03*
X80600D02*
D03*
X228700Y304300D02*
D03*
Y279300D02*
D03*
Y254300D02*
D03*
Y229300D02*
D03*
Y204300D02*
D03*
Y179300D02*
D03*
Y154300D02*
D03*
Y129300D02*
D03*
Y104300D02*
D03*
Y79300D02*
D03*
Y54300D02*
D03*
Y29300D02*
D03*
Y4300D02*
D03*
X203700Y329300D02*
D03*
Y304300D02*
D03*
Y279300D02*
D03*
Y254300D02*
D03*
Y229300D02*
D03*
Y204300D02*
D03*
Y79300D02*
D03*
Y54300D02*
D03*
Y29300D02*
D03*
Y4300D02*
D03*
X178700Y329300D02*
D03*
Y304300D02*
D03*
Y279300D02*
D03*
Y254300D02*
D03*
Y229300D02*
D03*
Y154300D02*
D03*
Y29300D02*
D03*
Y4300D02*
D03*
X153700Y329300D02*
D03*
Y304300D02*
D03*
Y279300D02*
D03*
Y254300D02*
D03*
Y4300D02*
D03*
X128700Y329300D02*
D03*
Y254300D02*
D03*
Y229300D02*
D03*
Y204300D02*
D03*
Y4300D02*
D03*
X103700Y329300D02*
D03*
Y304300D02*
D03*
Y279300D02*
D03*
Y254300D02*
D03*
Y154300D02*
D03*
Y129300D02*
D03*
X78700Y329300D02*
D03*
Y304300D02*
D03*
Y279300D02*
D03*
Y254300D02*
D03*
Y204300D02*
D03*
Y54300D02*
D03*
Y4300D02*
D03*
X53700Y329300D02*
D03*
Y304300D02*
D03*
Y279300D02*
D03*
Y254300D02*
D03*
Y229300D02*
D03*
Y179300D02*
D03*
Y129300D02*
D03*
Y54300D02*
D03*
Y29300D02*
D03*
Y4300D02*
D03*
X28700Y329300D02*
D03*
Y304300D02*
D03*
Y279300D02*
D03*
Y254300D02*
D03*
Y229300D02*
D03*
Y204300D02*
D03*
Y54300D02*
D03*
Y29300D02*
D03*
Y4300D02*
D03*
X3700Y304300D02*
D03*
Y279300D02*
D03*
Y254300D02*
D03*
Y229300D02*
D03*
Y204300D02*
D03*
Y179300D02*
D03*
Y154300D02*
D03*
Y129300D02*
D03*
Y104300D02*
D03*
Y79300D02*
D03*
Y54300D02*
D03*
Y29300D02*
D03*
Y4300D02*
D03*
D67*
X43500Y221000D02*
X43525Y221025D01*
M02*
