M48
;Layer_Color=9474304
;FILE_FORMAT=2:5
INCH,TZ
;TYPE=PLATED
T1F00S00C0.01575
T2F00S00C0.01800
T3F00S00C0.01969
T4F00S00C0.02362
T5F00S00C0.02756
T6F00S00C0.03150
T7F00S00C0.03200
T8F00S00C0.03543
T9F00S00C0.04000
T10F00S00C0.04331
T11F00S00C0.05512
T12F00S00C0.08661
T13F00S00C0.09843
%
T01
X101700Y31365
X111700Y31374
Y61374
X101700Y61365
X148500Y76374
X156380
X175766Y61207
Y53327
X178500Y113000
X198500Y112962
Y142962
X208500Y152900
X178500Y143000
X86562Y143700
X61500Y144500
Y134500
Y124500
Y114500
X86562Y113700
X31500Y114500
Y124500
Y134500
Y144500
X21551
Y174500
X11500
Y204500
Y214800
Y244800
X156302Y197000
Y167000
X208500Y182900
T02
X228700Y4300
Y29300
Y54300
Y79300
Y104300
Y129300
Y154300
X202096
X178700
X153500Y152907
X142000
X125500Y153000
X103700Y154300
X89000Y154500
X80600Y138500
X68227
Y118500
X80600
X58588Y109100
X68227Y94300
X76979Y79300
X89381Y78629
Y87500
X108255
Y78500
X119387Y70000
X126000Y76374
X128400Y89500
X125413Y110263
Y129300
X103700
X155168
X147500Y120422
X151000Y99309
X161800Y99278
Y86500
X151000
X161800Y67922
X142000Y60042
X135500Y54000
X139053Y37000
X130500Y31365
X115480Y21500
X87606
X78700Y35500
Y54300
X100500
X116250Y56500
X128700Y4300
X103700
X78700
X153700
Y21500
X178700Y29300
X203700
Y54300
Y79300
X199000Y101000
X178889Y96937
X179000Y106189
X178700Y125800
X202300Y129300
X203700Y4300
X178700
X53700
Y29300
Y54300
X53750Y76000
X28700
Y54300
Y29300
Y4300
X3700
Y29300
Y54300
Y79300
Y104300
Y129300
Y154300
X26500Y139509
X44500
X53700Y129300
X49000Y109100
X34389Y105500
X37500Y96264
X36500Y119633
X26623Y119500
X21551Y160500
X21700Y168500
X26500Y189000
X28700Y204300
X46500Y205112
X53700Y229300
Y254300
Y279300
Y304300
X28700
Y279300
Y254300
Y229300
X3700
Y254300
Y279300
Y304300
Y204300
Y179300
X38500Y180197
X53700Y179300
X44500Y162500
X57573Y159600
X77000Y169590
X76900Y179255
X80866Y189500
X89381
X98428
X111500
Y179500
X106500Y169540
X89000Y169447
X125500Y169622
X142508Y179500
X142549Y190000
X161800Y190500
Y203500
X151000
X128700Y204300
Y229300
X151000Y230000
X161800
X178700Y229300
X203700
Y254300
Y279300
Y304300
X178700
Y279300
Y254300
X153700
Y279300
Y304300
X103700
Y279300
Y254300
X128700
X78700
Y279300
Y304300
Y204300
X95000Y209500
Y219000
X104900Y207800
X105000Y200100
X153500Y179255
X202000Y179400
X203700Y204300
X228700
Y229300
Y254300
Y279300
Y304300
Y179300
X203700Y329300
X178700
X153700
X128700
X103700
X78700
X53700
X28700
T03
X71125Y15274
X91124
X81125Y25274
X81245Y72255
X91245
X101245
X106000Y113700
X96273Y113689
Y143689
X106000Y143700
X119787Y143526
Y133500
X139787
Y143526
X193600Y157711
X185604Y76374
X175604
X165604
X53750Y82500
Y92500
X31500
Y82500
X18000Y124500
Y134500
X85000Y184500
X105000
X118000
X128000
X138000
X172700Y187000
Y197000
X172802Y177000
Y167000
X193600Y167711
Y177711
T04
X161859Y41369
Y61369
X139800Y123500
X119800
X188500Y123000
Y143000
X208500Y142915
Y122915
X71500Y154500
X11500Y144500
Y164500
X21551Y184500
Y204500
X36500Y208500
Y197000
X56500
Y208500
X71500Y174500
X118000Y200010
X138000
T05
X84500Y97500
X104500
X156334Y211000
X184334
X194500Y199600
X214500
T06
X121000Y86000
Y96000
X135500
Y86000
X105000Y194000
X85000
Y214000
Y224000
Y234000
X105000
Y224000
Y214000
T07
X121839Y31365
Y41365
Y51365
Y61365
X151839
Y51365
Y41365
Y31365
X61500Y154500
X31500
Y164500
Y174500
Y184500
X61500
Y174500
Y164500
X115674Y214000
X125674
Y244000
X115674
T08
X178000Y14536
X188000
X146209Y109300
X116209
T09
X111644Y10638
X121644
X144390Y10703
X154390
T10
X63525Y101500
X169000
X189000
X209000
X43525
X23526
Y221025
X43525
X63525
X169000Y221000
X189000
X209000
T11
X29687Y267600
Y292600
X93585
Y267600
X138914
Y292600
X202812
Y267600
Y317600
X138914
X93585
X29687
T12
X96200Y163000
X116200
X136200
T13
X116250Y283778
Y307400
M30
