G04*
G04 #@! TF.GenerationSoftware,Altium Limited,Altium Designer,19.1.6 (110)*
G04*
G04 Layer_Color=32896*
%FSLAX25Y25*%
%MOIN*%
G70*
G01*
G75*
%ADD31C,0.01000*%
%ADD42C,0.00787*%
%ADD43C,0.00500*%
%ADD45C,0.00591*%
%ADD77C,0.00800*%
D31*
X142470Y294395D02*
X171604D01*
Y271757D02*
Y294395D01*
X142470Y271757D02*
X171604D01*
X142470D02*
Y294395D01*
X414340D02*
X443474D01*
Y271757D02*
Y294395D01*
X414340Y271757D02*
X443474D01*
X414340D02*
Y294395D01*
D42*
X151919Y271984D02*
Y273952D01*
X162155D01*
Y271984D02*
Y273952D01*
X423789Y271984D02*
Y273952D01*
X434025D01*
Y271984D02*
Y273952D01*
D43*
X194797Y301559D02*
G03*
X229797Y266559I35000J0D01*
G01*
Y336559D02*
G03*
X194797Y301559I-0J-35000D01*
G01*
X229797Y336559D02*
G03*
X194797Y301559I-0J-35000D01*
G01*
Y301559D02*
G03*
X229797Y266559I35000J0D01*
G01*
D02*
G03*
X264797Y301559I0J35000D01*
G01*
Y301559D02*
G03*
X229797Y336559I-35000J0D01*
G01*
X264797Y301559D02*
G03*
X229797Y336559I-35000J0D01*
G01*
Y266559D02*
G03*
X264797Y301559I0J35000D01*
G01*
X233332D02*
G03*
X233332Y301559I-3535J0D01*
G01*
D02*
G03*
X233332Y301559I-3535J0D01*
G01*
X194797Y182059D02*
G03*
X229797Y147059I35000J0D01*
G01*
Y217059D02*
G03*
X194797Y182060I-0J-35000D01*
G01*
X229797Y217059D02*
G03*
X194797Y182060I-0J-35000D01*
G01*
Y182059D02*
G03*
X229797Y147059I35000J0D01*
G01*
D02*
G03*
X264797Y182059I0J35000D01*
G01*
Y182060D02*
G03*
X229797Y217059I-35000J0D01*
G01*
X264797Y182060D02*
G03*
X229797Y217059I-35000J0D01*
G01*
Y147059D02*
G03*
X264797Y182059I0J35000D01*
G01*
X233332D02*
G03*
X233332Y182059I-3535J0D01*
G01*
D02*
G03*
X233332Y182059I-3535J0D01*
G01*
X49297Y301559D02*
G03*
X84297Y266559I35000J0D01*
G01*
Y336559D02*
G03*
X49297Y301559I-0J-35000D01*
G01*
X84297Y336559D02*
G03*
X49297Y301559I-0J-35000D01*
G01*
Y301559D02*
G03*
X84297Y266559I35000J0D01*
G01*
D02*
G03*
X119297Y301559I0J35000D01*
G01*
Y301559D02*
G03*
X84297Y336559I-35000J0D01*
G01*
X119297Y301559D02*
G03*
X84297Y336559I-35000J0D01*
G01*
Y266559D02*
G03*
X119297Y301559I0J35000D01*
G01*
X87832D02*
G03*
X87832Y301559I-3535J0D01*
G01*
D02*
G03*
X87832Y301559I-3535J0D01*
G01*
X49297Y182059D02*
G03*
X84297Y147059I35000J0D01*
G01*
Y217059D02*
G03*
X49297Y182060I-0J-35000D01*
G01*
X84297Y217059D02*
G03*
X49297Y182060I-0J-35000D01*
G01*
Y182059D02*
G03*
X84297Y147059I35000J0D01*
G01*
D02*
G03*
X119297Y182059I0J35000D01*
G01*
Y182060D02*
G03*
X84297Y217059I-35000J0D01*
G01*
X119297Y182060D02*
G03*
X84297Y217059I-35000J0D01*
G01*
Y147059D02*
G03*
X119297Y182059I0J35000D01*
G01*
X87832D02*
G03*
X87832Y182059I-3535J0D01*
G01*
D02*
G03*
X87832Y182059I-3535J0D01*
G01*
X194797Y301559D02*
X264797D01*
X194797D02*
X264797D01*
X199797Y246622D02*
X259797D01*
X199797D02*
X259797D01*
X229797Y266559D02*
Y336559D01*
Y266559D02*
Y336559D01*
X199797Y246622D02*
Y284059D01*
Y246622D02*
Y284059D01*
X259797Y246622D02*
Y284059D01*
Y246622D02*
Y284059D01*
X194797Y182059D02*
X264797D01*
X194797D02*
X264797D01*
X199797Y127122D02*
X259797D01*
X199797D02*
X259797D01*
X229797Y147059D02*
Y217059D01*
Y147059D02*
Y217059D01*
X199797Y127122D02*
Y164559D01*
Y127122D02*
Y164559D01*
X259797Y127122D02*
Y164559D01*
Y127122D02*
Y164559D01*
X49297Y301559D02*
X119297D01*
X49297D02*
X119297D01*
X54297Y246622D02*
X114297D01*
X54297D02*
X114297D01*
X84297Y266559D02*
Y336559D01*
Y266559D02*
Y336559D01*
X54297Y246622D02*
Y284059D01*
Y246622D02*
Y284059D01*
X114297Y246622D02*
Y284059D01*
Y246622D02*
Y284059D01*
X49297Y182059D02*
X119297D01*
X49297D02*
X119297D01*
X54297Y127122D02*
X114297D01*
X54297D02*
X114297D01*
X84297Y147059D02*
Y217059D01*
Y147059D02*
Y217059D01*
X54297Y127122D02*
Y164559D01*
Y127122D02*
Y164559D01*
X114297Y127122D02*
Y164559D01*
Y127122D02*
Y164559D01*
X466667Y301559D02*
G03*
X501667Y266559I35000J0D01*
G01*
Y336559D02*
G03*
X466667Y301559I-0J-35000D01*
G01*
X501667Y336559D02*
G03*
X466667Y301559I-0J-35000D01*
G01*
Y301559D02*
G03*
X501667Y266559I35000J0D01*
G01*
D02*
G03*
X536667Y301559I0J35000D01*
G01*
Y301559D02*
G03*
X501667Y336559I-35000J0D01*
G01*
X536667Y301559D02*
G03*
X501667Y336559I-35000J0D01*
G01*
Y266559D02*
G03*
X536667Y301559I0J35000D01*
G01*
X505202D02*
G03*
X505202Y301559I-3535J0D01*
G01*
D02*
G03*
X505202Y301559I-3535J0D01*
G01*
X466667Y182059D02*
G03*
X501667Y147059I35000J0D01*
G01*
Y217059D02*
G03*
X466667Y182060I-0J-35000D01*
G01*
X501667Y217059D02*
G03*
X466667Y182060I-0J-35000D01*
G01*
Y182059D02*
G03*
X501667Y147059I35000J0D01*
G01*
D02*
G03*
X536667Y182059I0J35000D01*
G01*
Y182060D02*
G03*
X501667Y217059I-35000J0D01*
G01*
X536667Y182060D02*
G03*
X501667Y217059I-35000J0D01*
G01*
Y147059D02*
G03*
X536667Y182059I0J35000D01*
G01*
X505202D02*
G03*
X505202Y182059I-3535J0D01*
G01*
D02*
G03*
X505202Y182059I-3535J0D01*
G01*
X321167Y301559D02*
G03*
X356167Y266559I35000J0D01*
G01*
Y336559D02*
G03*
X321167Y301559I-0J-35000D01*
G01*
X356167Y336559D02*
G03*
X321167Y301559I-0J-35000D01*
G01*
Y301559D02*
G03*
X356167Y266559I35000J0D01*
G01*
D02*
G03*
X391167Y301559I0J35000D01*
G01*
Y301559D02*
G03*
X356167Y336559I-35000J0D01*
G01*
X391167Y301559D02*
G03*
X356167Y336559I-35000J0D01*
G01*
Y266559D02*
G03*
X391167Y301559I0J35000D01*
G01*
X359702D02*
G03*
X359702Y301559I-3535J0D01*
G01*
D02*
G03*
X359702Y301559I-3535J0D01*
G01*
X321167Y182059D02*
G03*
X356167Y147059I35000J0D01*
G01*
Y217059D02*
G03*
X321167Y182060I-0J-35000D01*
G01*
X356167Y217059D02*
G03*
X321167Y182060I-0J-35000D01*
G01*
Y182059D02*
G03*
X356167Y147059I35000J0D01*
G01*
D02*
G03*
X391167Y182059I0J35000D01*
G01*
Y182060D02*
G03*
X356167Y217059I-35000J0D01*
G01*
X391167Y182060D02*
G03*
X356167Y217059I-35000J0D01*
G01*
Y147059D02*
G03*
X391167Y182059I0J35000D01*
G01*
X359702D02*
G03*
X359702Y182059I-3535J0D01*
G01*
D02*
G03*
X359702Y182059I-3535J0D01*
G01*
X466667Y301559D02*
X536667D01*
X466667D02*
X536667D01*
X471667Y246622D02*
X531667D01*
X471667D02*
X531667D01*
X501667Y266559D02*
Y336559D01*
Y266559D02*
Y336559D01*
X471667Y246622D02*
Y284059D01*
Y246622D02*
Y284059D01*
X531667Y246622D02*
Y284059D01*
Y246622D02*
Y284059D01*
X466667Y182059D02*
X536667D01*
X466667D02*
X536667D01*
X471667Y127122D02*
X531667D01*
X471667D02*
X531667D01*
X501667Y147059D02*
Y217059D01*
Y147059D02*
Y217059D01*
X471667Y127122D02*
Y164559D01*
Y127122D02*
Y164559D01*
X531667Y127122D02*
Y164559D01*
Y127122D02*
Y164559D01*
X321167Y301559D02*
X391167D01*
X321167D02*
X391167D01*
X326167Y246622D02*
X386167D01*
X326167D02*
X386167D01*
X356167Y266559D02*
Y336559D01*
Y266559D02*
Y336559D01*
X326167Y246622D02*
Y284059D01*
Y246622D02*
Y284059D01*
X386167Y246622D02*
Y284059D01*
Y246622D02*
Y284059D01*
X321167Y182059D02*
X391167D01*
X321167D02*
X391167D01*
X326167Y127122D02*
X386167D01*
X326167D02*
X386167D01*
X356167Y147059D02*
Y217059D01*
Y147059D02*
Y217059D01*
X326167Y127122D02*
Y164559D01*
Y127122D02*
Y164559D01*
X386167Y127122D02*
Y164559D01*
Y127122D02*
Y164559D01*
D45*
X242797Y132771D02*
X240698D01*
X241747D01*
Y129622D01*
X239648D02*
Y132771D01*
X238074D01*
X237549Y132246D01*
Y131196D01*
X238074Y130672D01*
X239648D01*
X238599D02*
X237549Y129622D01*
X234401Y132771D02*
X236500D01*
Y129622D01*
X234401D01*
X236500Y131196D02*
X235450D01*
X233351Y132771D02*
Y129622D01*
X231777D01*
X231252Y130147D01*
Y130672D01*
X231777Y131196D01*
X233351D01*
X231777D01*
X231252Y131721D01*
Y132246D01*
X231777Y132771D01*
X233351D01*
X230203D02*
Y129622D01*
X228103D01*
X224955Y132771D02*
X227054D01*
Y129622D01*
X224955D01*
X227054Y131196D02*
X226004D01*
X239297Y251771D02*
Y249672D01*
X238247Y248622D01*
X237198Y249672D01*
Y251771D01*
X234574D02*
X235624D01*
X236148Y251246D01*
Y249147D01*
X235624Y248622D01*
X234574D01*
X234049Y249147D01*
Y251246D01*
X234574Y251771D01*
X233000D02*
Y248622D01*
X230901D01*
X97797Y132371D02*
Y129222D01*
X96223D01*
X95698Y129747D01*
Y130272D01*
X96223Y130796D01*
X97797D01*
X96223D01*
X95698Y131321D01*
Y131846D01*
X96223Y132371D01*
X97797D01*
X94648Y129222D02*
Y131321D01*
X93599Y132371D01*
X92549Y131321D01*
Y129222D01*
Y130796D01*
X94648D01*
X89401Y131846D02*
X89925Y132371D01*
X90975D01*
X91500Y131846D01*
Y131321D01*
X90975Y130796D01*
X89925D01*
X89401Y130272D01*
Y129747D01*
X89925Y129222D01*
X90975D01*
X91500Y129747D01*
X86252Y131846D02*
X86777Y132371D01*
X87826D01*
X88351Y131846D01*
Y131321D01*
X87826Y130796D01*
X86777D01*
X86252Y130272D01*
Y129747D01*
X86777Y129222D01*
X87826D01*
X88351Y129747D01*
X94698Y251246D02*
X95223Y251771D01*
X96272D01*
X96797Y251246D01*
Y249147D01*
X96272Y248622D01*
X95223D01*
X94698Y249147D01*
Y250196D01*
X95747D01*
X93648Y248622D02*
Y250721D01*
X92599Y251771D01*
X91549Y250721D01*
Y248622D01*
Y250196D01*
X93648D01*
X90500Y251771D02*
X89450D01*
X89975D01*
Y248622D01*
X90500D01*
X89450D01*
X87876D02*
Y251771D01*
X85777Y248622D01*
Y251771D01*
X514667Y132771D02*
X512568D01*
X513617D01*
Y129622D01*
X511518D02*
Y132771D01*
X509944D01*
X509419Y132246D01*
Y131196D01*
X509944Y130672D01*
X511518D01*
X510469D02*
X509419Y129622D01*
X506271Y132771D02*
X508370D01*
Y129622D01*
X506271D01*
X508370Y131196D02*
X507320D01*
X505221Y132771D02*
Y129622D01*
X503647D01*
X503122Y130147D01*
Y130672D01*
X503647Y131196D01*
X505221D01*
X503647D01*
X503122Y131721D01*
Y132246D01*
X503647Y132771D01*
X505221D01*
X502073D02*
Y129622D01*
X499974D01*
X496825Y132771D02*
X498924D01*
Y129622D01*
X496825D01*
X498924Y131196D02*
X497874D01*
X511167Y251771D02*
Y249672D01*
X510117Y248622D01*
X509068Y249672D01*
Y251771D01*
X506444D02*
X507494D01*
X508018Y251246D01*
Y249147D01*
X507494Y248622D01*
X506444D01*
X505919Y249147D01*
Y251246D01*
X506444Y251771D01*
X504870D02*
Y248622D01*
X502771D01*
X369667Y132371D02*
Y129222D01*
X368093D01*
X367568Y129747D01*
Y130272D01*
X368093Y130796D01*
X369667D01*
X368093D01*
X367568Y131321D01*
Y131846D01*
X368093Y132371D01*
X369667D01*
X366518Y129222D02*
Y131321D01*
X365469Y132371D01*
X364419Y131321D01*
Y129222D01*
Y130796D01*
X366518D01*
X361271Y131846D02*
X361795Y132371D01*
X362845D01*
X363370Y131846D01*
Y131321D01*
X362845Y130796D01*
X361795D01*
X361271Y130272D01*
Y129747D01*
X361795Y129222D01*
X362845D01*
X363370Y129747D01*
X358122Y131846D02*
X358647Y132371D01*
X359696D01*
X360221Y131846D01*
Y131321D01*
X359696Y130796D01*
X358647D01*
X358122Y130272D01*
Y129747D01*
X358647Y129222D01*
X359696D01*
X360221Y129747D01*
X366568Y251246D02*
X367093Y251771D01*
X368142D01*
X368667Y251246D01*
Y249147D01*
X368142Y248622D01*
X367093D01*
X366568Y249147D01*
Y250196D01*
X367617D01*
X365518Y248622D02*
Y250721D01*
X364469Y251771D01*
X363419Y250721D01*
Y248622D01*
Y250196D01*
X365518D01*
X362370Y251771D02*
X361320D01*
X361845D01*
Y248622D01*
X362370D01*
X361320D01*
X359746D02*
Y251771D01*
X357647Y248622D01*
Y251771D01*
D77*
X149432Y301716D02*
Y297717D01*
X147433D01*
X146766Y298384D01*
Y301050D01*
X147433Y301716D01*
X149432D01*
X142768Y301050D02*
X143434Y301716D01*
X144767D01*
X145434Y301050D01*
Y298384D01*
X144767Y297717D01*
X143434D01*
X142768Y298384D01*
X421302Y301716D02*
Y297717D01*
X419303D01*
X418637Y298384D01*
Y301050D01*
X419303Y301716D01*
X421302D01*
X414638Y301050D02*
X415304Y301716D01*
X416637D01*
X417304Y301050D01*
Y298384D01*
X416637Y297717D01*
X415304D01*
X414638Y298384D01*
M02*
