G04*
G04 #@! TF.GenerationSoftware,Altium Limited,Altium Designer,19.1.6 (110)*
G04*
G04 Layer_Physical_Order=1*
G04 Layer_Color=255*
%FSLAX25Y25*%
%MOIN*%
G70*
G01*
G75*
%ADD10C,0.11811*%
%ADD11R,0.02165X0.03543*%
%ADD12R,0.06890X0.04331*%
%ADD13R,0.03543X0.03740*%
%ADD14R,0.05276X0.07087*%
%ADD15R,0.07087X0.05276*%
%ADD16R,0.09843X0.06299*%
%ADD17R,0.03740X0.03543*%
%ADD18R,0.02362X0.03740*%
%ADD19R,0.04331X0.06890*%
%ADD20R,0.06299X0.09843*%
%ADD21R,0.07087X0.02362*%
%ADD22R,0.06299X0.12598*%
%ADD23R,0.06299X0.11024*%
%ADD24R,0.07087X0.03150*%
%ADD25R,0.02362X0.06299*%
%ADD26R,0.06496X0.09843*%
%ADD27R,0.05709X0.02362*%
%ADD28R,0.03150X0.01575*%
%ADD29R,0.12598X0.06299*%
%ADD30C,0.02400*%
%ADD31C,0.01000*%
%ADD32C,0.01968*%
%ADD33C,0.06000*%
%ADD34C,0.06600*%
%ADD35R,0.04724X0.04724*%
%ADD36C,0.04724*%
%ADD37C,0.07087*%
%ADD38C,0.08268*%
%ADD39C,0.02756*%
%ADD40C,0.03500*%
G36*
X520638Y338460D02*
X520138Y338361D01*
X519786Y339210D01*
X518995Y340241D01*
X517964Y341032D01*
X516764Y341529D01*
X515476Y341699D01*
X514188Y341529D01*
X512988Y341032D01*
X511957Y340241D01*
X511166Y339210D01*
X510669Y338010D01*
X510499Y336722D01*
X510669Y335434D01*
X511166Y334234D01*
X511957Y333203D01*
X512988Y332412D01*
X514188Y331915D01*
X515476Y331746D01*
X516764Y331915D01*
X517964Y332412D01*
X518995Y333203D01*
X519786Y334234D01*
X520138Y335083D01*
X520638Y334984D01*
Y329622D01*
X520754Y329037D01*
X521086Y328541D01*
X521582Y328209D01*
X522167Y328093D01*
X543638D01*
Y48317D01*
X314196D01*
Y328093D01*
X335667D01*
X336252Y328209D01*
X336748Y328541D01*
X337080Y329037D01*
X337196Y329622D01*
Y334986D01*
X337696Y335086D01*
X338049Y334234D01*
X338840Y333203D01*
X339871Y332412D01*
X341071Y331915D01*
X341959Y331798D01*
Y336722D01*
Y341646D01*
X341071Y341529D01*
X339871Y341032D01*
X338840Y340241D01*
X338049Y339210D01*
X337696Y338359D01*
X337196Y338458D01*
Y355593D01*
X520638D01*
Y338460D01*
D02*
G37*
G36*
X248767D02*
X248268Y338361D01*
X247916Y339210D01*
X247125Y340241D01*
X246094Y341032D01*
X244894Y341529D01*
X243606Y341699D01*
X242318Y341529D01*
X241118Y341032D01*
X240087Y340241D01*
X239296Y339210D01*
X238799Y338010D01*
X238629Y336722D01*
X238799Y335434D01*
X239296Y334234D01*
X240087Y333203D01*
X241118Y332412D01*
X242318Y331915D01*
X243606Y331746D01*
X244894Y331915D01*
X246094Y332412D01*
X247125Y333203D01*
X247916Y334234D01*
X248268Y335083D01*
X248767Y334984D01*
Y329622D01*
X248884Y329037D01*
X249215Y328541D01*
X249712Y328209D01*
X250297Y328093D01*
X271767D01*
Y48317D01*
X42326D01*
Y328093D01*
X63797D01*
X64382Y328209D01*
X64878Y328541D01*
X65210Y329037D01*
X65326Y329622D01*
Y334986D01*
X65826Y335086D01*
X66179Y334234D01*
X66970Y333203D01*
X68001Y332412D01*
X69201Y331915D01*
X70089Y331798D01*
Y336722D01*
Y341646D01*
X69201Y341529D01*
X68001Y341032D01*
X66970Y340241D01*
X66179Y339210D01*
X65826Y338359D01*
X65326Y338458D01*
Y355593D01*
X248767D01*
Y338460D01*
D02*
G37*
%LPC*%
G36*
X451978Y341646D02*
Y337122D01*
X456502D01*
X456385Y338010D01*
X455888Y339210D01*
X455097Y340241D01*
X454066Y341032D01*
X452866Y341529D01*
X451978Y341646D01*
D02*
G37*
G36*
X342759D02*
Y337122D01*
X347283D01*
X347166Y338010D01*
X346669Y339210D01*
X345878Y340241D01*
X344847Y341032D01*
X343647Y341529D01*
X342759Y341646D01*
D02*
G37*
G36*
X451178D02*
X450290Y341529D01*
X449090Y341032D01*
X448059Y340241D01*
X447268Y339210D01*
X446771Y338010D01*
X446654Y337122D01*
X451178D01*
Y341646D01*
D02*
G37*
G36*
X456502Y336322D02*
X451978D01*
Y331798D01*
X452866Y331915D01*
X454066Y332412D01*
X455097Y333203D01*
X455888Y334234D01*
X456385Y335434D01*
X456502Y336322D01*
D02*
G37*
G36*
X347283D02*
X342759D01*
Y331798D01*
X343647Y331915D01*
X344847Y332412D01*
X345878Y333203D01*
X346669Y334234D01*
X347166Y335434D01*
X347283Y336322D01*
D02*
G37*
G36*
X451178D02*
X446654D01*
X446771Y335434D01*
X447268Y334234D01*
X448059Y333203D01*
X449090Y332412D01*
X450290Y331915D01*
X451178Y331798D01*
Y336322D01*
D02*
G37*
G36*
X406257Y341699D02*
X404969Y341529D01*
X403769Y341032D01*
X402738Y340241D01*
X401947Y339210D01*
X401450Y338010D01*
X401280Y336722D01*
X401450Y335434D01*
X401947Y334234D01*
X402738Y333203D01*
X403769Y332412D01*
X404969Y331915D01*
X406257Y331746D01*
X407545Y331915D01*
X408745Y332412D01*
X409776Y333203D01*
X410567Y334234D01*
X411064Y335434D01*
X411234Y336722D01*
X411064Y338010D01*
X410567Y339210D01*
X409776Y340241D01*
X408745Y341032D01*
X407545Y341529D01*
X406257Y341699D01*
D02*
G37*
G36*
X515476Y316699D02*
X514188Y316529D01*
X512988Y316032D01*
X511957Y315241D01*
X511166Y314210D01*
X510669Y313010D01*
X510499Y311722D01*
X510669Y310434D01*
X511166Y309234D01*
X511957Y308203D01*
X512988Y307412D01*
X514188Y306915D01*
X515476Y306746D01*
X516764Y306915D01*
X517964Y307412D01*
X518995Y308203D01*
X519786Y309234D01*
X520283Y310434D01*
X520452Y311722D01*
X520283Y313010D01*
X519786Y314210D01*
X518995Y315241D01*
X517964Y316032D01*
X516764Y316529D01*
X515476Y316699D01*
D02*
G37*
G36*
X451578D02*
X450290Y316529D01*
X449090Y316032D01*
X448059Y315241D01*
X447268Y314210D01*
X446771Y313010D01*
X446601Y311722D01*
X446771Y310434D01*
X447268Y309234D01*
X448059Y308203D01*
X449090Y307412D01*
X450290Y306915D01*
X451578Y306746D01*
X452866Y306915D01*
X454066Y307412D01*
X455097Y308203D01*
X455888Y309234D01*
X456385Y310434D01*
X456555Y311722D01*
X456385Y313010D01*
X455888Y314210D01*
X455097Y315241D01*
X454066Y316032D01*
X452866Y316529D01*
X451578Y316699D01*
D02*
G37*
G36*
X406257D02*
X404969Y316529D01*
X403769Y316032D01*
X402738Y315241D01*
X401947Y314210D01*
X401450Y313010D01*
X401280Y311722D01*
X401450Y310434D01*
X401947Y309234D01*
X402738Y308203D01*
X403769Y307412D01*
X404969Y306915D01*
X406257Y306746D01*
X407545Y306915D01*
X408745Y307412D01*
X409776Y308203D01*
X410567Y309234D01*
X411064Y310434D01*
X411234Y311722D01*
X411064Y313010D01*
X410567Y314210D01*
X409776Y315241D01*
X408745Y316032D01*
X407545Y316529D01*
X406257Y316699D01*
D02*
G37*
G36*
X342359D02*
X341071Y316529D01*
X339871Y316032D01*
X338840Y315241D01*
X338049Y314210D01*
X337552Y313010D01*
X337382Y311722D01*
X337552Y310434D01*
X338049Y309234D01*
X338840Y308203D01*
X339871Y307412D01*
X341071Y306915D01*
X342359Y306746D01*
X343647Y306915D01*
X344847Y307412D01*
X345878Y308203D01*
X346669Y309234D01*
X347166Y310434D01*
X347336Y311722D01*
X347166Y313010D01*
X346669Y314210D01*
X345878Y315241D01*
X344847Y316032D01*
X343647Y316529D01*
X342359Y316699D01*
D02*
G37*
G36*
X425107Y284655D02*
Y282239D01*
X427523D01*
X427226Y282956D01*
X426617Y283750D01*
X425823Y284359D01*
X425107Y284655D01*
D02*
G37*
G36*
X422707D02*
X421991Y284359D01*
X421197Y283750D01*
X420588Y282956D01*
X420291Y282239D01*
X422707D01*
Y284655D01*
D02*
G37*
G36*
X515476Y291699D02*
X514188Y291529D01*
X512988Y291032D01*
X511957Y290241D01*
X511166Y289210D01*
X510669Y288010D01*
X510499Y286722D01*
X510669Y285434D01*
X511166Y284234D01*
X511957Y283203D01*
X512988Y282412D01*
X514188Y281915D01*
X515476Y281746D01*
X516764Y281915D01*
X517964Y282412D01*
X518995Y283203D01*
X519786Y284234D01*
X520283Y285434D01*
X520452Y286722D01*
X520283Y288010D01*
X519786Y289210D01*
X518995Y290241D01*
X517964Y291032D01*
X516764Y291529D01*
X515476Y291699D01*
D02*
G37*
G36*
X451578D02*
X450290Y291529D01*
X449090Y291032D01*
X448059Y290241D01*
X447268Y289210D01*
X446771Y288010D01*
X446601Y286722D01*
X446771Y285434D01*
X447268Y284234D01*
X448059Y283203D01*
X449090Y282412D01*
X450290Y281915D01*
X451578Y281746D01*
X452866Y281915D01*
X454066Y282412D01*
X455097Y283203D01*
X455888Y284234D01*
X456385Y285434D01*
X456555Y286722D01*
X456385Y288010D01*
X455888Y289210D01*
X455097Y290241D01*
X454066Y291032D01*
X452866Y291529D01*
X451578Y291699D01*
D02*
G37*
G36*
X406257D02*
X404969Y291529D01*
X403769Y291032D01*
X402738Y290241D01*
X401947Y289210D01*
X401450Y288010D01*
X401280Y286722D01*
X401450Y285434D01*
X401947Y284234D01*
X402738Y283203D01*
X403769Y282412D01*
X404969Y281915D01*
X406257Y281746D01*
X407545Y281915D01*
X408745Y282412D01*
X409776Y283203D01*
X410567Y284234D01*
X411064Y285434D01*
X411234Y286722D01*
X411064Y288010D01*
X410567Y289210D01*
X409776Y290241D01*
X408745Y291032D01*
X407545Y291529D01*
X406257Y291699D01*
D02*
G37*
G36*
X342359D02*
X341071Y291529D01*
X339871Y291032D01*
X338840Y290241D01*
X338049Y289210D01*
X337552Y288010D01*
X337382Y286722D01*
X337552Y285434D01*
X338049Y284234D01*
X338840Y283203D01*
X339871Y282412D01*
X341071Y281915D01*
X342359Y281746D01*
X343647Y281915D01*
X344847Y282412D01*
X345878Y283203D01*
X346669Y284234D01*
X347166Y285434D01*
X347336Y286722D01*
X347166Y288010D01*
X346669Y289210D01*
X345878Y290241D01*
X344847Y291032D01*
X343647Y291529D01*
X342359Y291699D01*
D02*
G37*
G36*
X427523Y279839D02*
X425107D01*
Y277423D01*
X425823Y277720D01*
X426617Y278329D01*
X427226Y279123D01*
X427523Y279839D01*
D02*
G37*
G36*
X422707D02*
X420291D01*
X420588Y279123D01*
X421197Y278329D01*
X421991Y277720D01*
X422707Y277423D01*
Y279839D01*
D02*
G37*
G36*
X431860Y269087D02*
X431010Y268918D01*
X430290Y268436D01*
X429808Y267716D01*
X429639Y266866D01*
X429697Y266578D01*
X427085Y263965D01*
X421261D01*
Y259216D01*
X429947D01*
Y263079D01*
X431571Y264703D01*
X431860Y264646D01*
X432710Y264815D01*
X433430Y265296D01*
X433911Y266016D01*
X434081Y266866D01*
X433911Y267716D01*
X433430Y268436D01*
X432710Y268918D01*
X431860Y269087D01*
D02*
G37*
G36*
X402388Y263965D02*
X393702D01*
Y262916D01*
X366053D01*
X365546Y262815D01*
X365115Y262528D01*
X347655Y245067D01*
X347368Y244637D01*
X347267Y244130D01*
Y233906D01*
X346021D01*
Y228566D01*
X347267D01*
Y227804D01*
X345627D01*
Y219314D01*
X351557D01*
Y227804D01*
X349918D01*
Y228566D01*
X351164D01*
Y233906D01*
X349918D01*
Y243581D01*
X366602Y260265D01*
X393702D01*
Y259216D01*
X402388D01*
Y263965D01*
D02*
G37*
G36*
X446813Y260580D02*
X445232D01*
Y257030D01*
X446813D01*
Y260580D01*
D02*
G37*
G36*
X444432D02*
X442851D01*
Y257030D01*
X444432D01*
Y260580D01*
D02*
G37*
G36*
X402388Y253965D02*
X393702D01*
Y252916D01*
X379224D01*
X379061Y253161D01*
X378340Y253642D01*
X377490Y253811D01*
X376641Y253642D01*
X375920Y253161D01*
X375439Y252440D01*
X375270Y251591D01*
X375439Y250741D01*
X375920Y250020D01*
X376641Y249539D01*
X377490Y249370D01*
X378340Y249539D01*
X379061Y250020D01*
X379224Y250265D01*
X393702D01*
Y249216D01*
X402388D01*
Y253965D01*
D02*
G37*
G36*
X446813Y256230D02*
X445232D01*
Y252680D01*
X446813D01*
Y256230D01*
D02*
G37*
G36*
X444432D02*
X442851D01*
Y252680D01*
X444432D01*
Y256230D01*
D02*
G37*
G36*
X468290Y257504D02*
X464642D01*
Y252183D01*
X468290D01*
Y257504D01*
D02*
G37*
G36*
X463842D02*
X460194D01*
Y252183D01*
X463842D01*
Y257504D01*
D02*
G37*
G36*
X436833Y274198D02*
X435983Y274028D01*
X435263Y273547D01*
X434781Y272827D01*
X434612Y271977D01*
X434781Y271127D01*
X435263Y270407D01*
X435507Y270243D01*
Y261109D01*
X434978Y260580D01*
X432851D01*
Y256523D01*
X430420Y254092D01*
X429947Y253965D01*
Y253965D01*
X429947Y253965D01*
X421261D01*
Y249216D01*
X429947D01*
Y250296D01*
X430300Y250366D01*
X430730Y250653D01*
X432481Y252404D01*
X432851Y252680D01*
Y252680D01*
X432851Y252680D01*
X436813D01*
Y258666D01*
X437770Y259622D01*
X438057Y260052D01*
X438158Y260560D01*
Y270243D01*
X438403Y270407D01*
X438884Y271127D01*
X439053Y271977D01*
X438884Y272827D01*
X438403Y273547D01*
X437683Y274028D01*
X436833Y274198D01*
D02*
G37*
G36*
X468290Y251383D02*
X464642D01*
Y246062D01*
X468290D01*
Y251383D01*
D02*
G37*
G36*
X463842D02*
X460194D01*
Y246062D01*
X463842D01*
Y251383D01*
D02*
G37*
G36*
X429947Y243965D02*
X421261D01*
Y242916D01*
X402388D01*
Y243965D01*
X393702D01*
Y239216D01*
X402388D01*
Y240265D01*
X421261D01*
Y239216D01*
X429947D01*
Y243965D01*
D02*
G37*
G36*
X522067Y244450D02*
Y240522D01*
X525995D01*
X525899Y241256D01*
X525461Y242313D01*
X524765Y243220D01*
X523857Y243916D01*
X522801Y244354D01*
X522067Y244450D01*
D02*
G37*
G36*
X521267D02*
X520533Y244354D01*
X519476Y243916D01*
X518569Y243220D01*
X517873Y242313D01*
X517435Y241256D01*
X517339Y240522D01*
X521267D01*
Y244450D01*
D02*
G37*
G36*
X376567D02*
Y240522D01*
X380495D01*
X380399Y241256D01*
X379961Y242313D01*
X379265Y243220D01*
X378357Y243916D01*
X377301Y244354D01*
X376567Y244450D01*
D02*
G37*
G36*
X375767D02*
X375033Y244354D01*
X373976Y243916D01*
X373069Y243220D01*
X372373Y242313D01*
X371935Y241256D01*
X371839Y240522D01*
X375767D01*
Y244450D01*
D02*
G37*
G36*
X356567D02*
Y240522D01*
X360495D01*
X360399Y241256D01*
X359961Y242313D01*
X359265Y243220D01*
X358357Y243916D01*
X357301Y244354D01*
X356567Y244450D01*
D02*
G37*
G36*
X355767D02*
X355033Y244354D01*
X353976Y243916D01*
X353069Y243220D01*
X352373Y242313D01*
X351935Y241256D01*
X351839Y240522D01*
X355767D01*
Y244450D01*
D02*
G37*
G36*
X525995Y239722D02*
X522067D01*
Y235794D01*
X522801Y235890D01*
X523857Y236328D01*
X524765Y237024D01*
X525461Y237932D01*
X525899Y238988D01*
X525995Y239722D01*
D02*
G37*
G36*
X521267D02*
X517339D01*
X517435Y238988D01*
X517873Y237932D01*
X518569Y237024D01*
X519476Y236328D01*
X520533Y235890D01*
X521267Y235794D01*
Y239722D01*
D02*
G37*
G36*
X380495D02*
X376567D01*
Y235794D01*
X377301Y235890D01*
X378357Y236328D01*
X379265Y237024D01*
X379961Y237932D01*
X380399Y238988D01*
X380495Y239722D01*
D02*
G37*
G36*
X375767D02*
X371839D01*
X371935Y238988D01*
X372373Y237932D01*
X373069Y237024D01*
X373976Y236328D01*
X375033Y235890D01*
X375767Y235794D01*
Y239722D01*
D02*
G37*
G36*
X360495D02*
X356567D01*
Y235794D01*
X357301Y235890D01*
X358357Y236328D01*
X359265Y237024D01*
X359961Y237932D01*
X360399Y238988D01*
X360495Y239722D01*
D02*
G37*
G36*
X355767D02*
X351839D01*
X351935Y238988D01*
X352373Y237932D01*
X353069Y237024D01*
X353976Y236328D01*
X355033Y235890D01*
X355767Y235794D01*
Y239722D01*
D02*
G37*
G36*
X460287Y269087D02*
X459437Y268918D01*
X458717Y268436D01*
X458235Y267716D01*
X458066Y266866D01*
X458235Y266016D01*
X458717Y265296D01*
X459437Y264815D01*
X460287Y264646D01*
X461137Y264815D01*
X461857Y265296D01*
X462021Y265541D01*
X474374D01*
X497793Y242121D01*
X497435Y241256D01*
X497286Y240122D01*
X497435Y238988D01*
X497873Y237932D01*
X498569Y237024D01*
X499476Y236328D01*
X500533Y235890D01*
X501667Y235741D01*
X502801Y235890D01*
X503857Y236328D01*
X504765Y237024D01*
X505461Y237932D01*
X505899Y238988D01*
X506048Y240122D01*
X505899Y241256D01*
X505461Y242313D01*
X504765Y243220D01*
X503857Y243916D01*
X502801Y244354D01*
X501667Y244503D01*
X500533Y244354D01*
X499668Y243995D01*
X475860Y267803D01*
X475430Y268091D01*
X474923Y268192D01*
X462021D01*
X461857Y268436D01*
X461137Y268918D01*
X460287Y269087D01*
D02*
G37*
G36*
X336167Y244503D02*
X335033Y244354D01*
X333976Y243916D01*
X333069Y243220D01*
X332373Y242313D01*
X331935Y241256D01*
X331786Y240122D01*
X331935Y238988D01*
X332294Y238123D01*
X330431Y236260D01*
X330143Y235830D01*
X330042Y235323D01*
Y227187D01*
X327418D01*
Y212988D01*
X335317D01*
Y227187D01*
X332693D01*
Y234774D01*
X334168Y236249D01*
X335033Y235890D01*
X336167Y235741D01*
X337301Y235890D01*
X338357Y236328D01*
X339265Y237024D01*
X339961Y237932D01*
X340399Y238988D01*
X340548Y240122D01*
X340399Y241256D01*
X339961Y242313D01*
X339265Y243220D01*
X338357Y243916D01*
X337301Y244354D01*
X336167Y244503D01*
D02*
G37*
G36*
X357266Y233906D02*
X355095D01*
Y231636D01*
X357266D01*
Y233906D01*
D02*
G37*
G36*
X354294D02*
X352123D01*
Y231636D01*
X354294D01*
Y233906D01*
D02*
G37*
G36*
X446813Y234989D02*
X445232D01*
Y231439D01*
X446813D01*
Y234989D01*
D02*
G37*
G36*
X444432D02*
X442851D01*
Y231439D01*
X444432D01*
Y234989D01*
D02*
G37*
G36*
X357266Y230836D02*
X355095D01*
Y228566D01*
X357266D01*
Y230836D01*
D02*
G37*
G36*
X354294D02*
X352123D01*
Y228566D01*
X354294D01*
Y230836D01*
D02*
G37*
G36*
X446813Y230639D02*
X445232D01*
Y227090D01*
X446813D01*
Y230639D01*
D02*
G37*
G36*
X444432D02*
X442851D01*
Y227090D01*
X444432D01*
Y230639D01*
D02*
G37*
G36*
X431269Y237975D02*
X415521D01*
X415014Y237874D01*
X414584Y237587D01*
X404249Y227252D01*
X403962Y226822D01*
X403861Y226315D01*
Y169683D01*
X403616Y169519D01*
X403135Y168799D01*
X402966Y167949D01*
X403135Y167099D01*
X403616Y166379D01*
X404337Y165897D01*
X405187Y165728D01*
X406036Y165897D01*
X406757Y166379D01*
X407238Y167099D01*
X407407Y167949D01*
X407238Y168799D01*
X406757Y169519D01*
X406512Y169683D01*
Y225766D01*
X416070Y235324D01*
X430720D01*
X432851Y233193D01*
Y227090D01*
X436813D01*
Y234989D01*
X434804D01*
X432206Y237587D01*
X431777Y237874D01*
X431269Y237975D01*
D02*
G37*
G36*
X437384Y224359D02*
X435803D01*
Y222089D01*
X437384D01*
Y224359D01*
D02*
G37*
G36*
X435003D02*
X433422D01*
Y222089D01*
X435003D01*
Y224359D01*
D02*
G37*
G36*
X410050Y225288D02*
X409201Y225118D01*
X408480Y224637D01*
X407999Y223917D01*
X407830Y223067D01*
X407999Y222217D01*
X408480Y221497D01*
X409201Y221015D01*
X410050Y220846D01*
X410900Y221015D01*
X411621Y221497D01*
X411784Y221742D01*
X414174D01*
Y221480D01*
X418924D01*
Y224654D01*
X414174D01*
Y224392D01*
X411784D01*
X411621Y224637D01*
X410900Y225118D01*
X410050Y225288D01*
D02*
G37*
G36*
X437384Y221289D02*
X435803D01*
Y219019D01*
X437384D01*
Y221289D01*
D02*
G37*
G36*
X435003D02*
X433422D01*
Y219019D01*
X435003D01*
Y221289D01*
D02*
G37*
G36*
X448014Y219536D02*
X445744D01*
Y217365D01*
X448014D01*
Y219536D01*
D02*
G37*
G36*
X444944D02*
X442674D01*
Y217365D01*
X444944D01*
Y219536D01*
D02*
G37*
G36*
X369569Y218146D02*
X365607D01*
Y216801D01*
X364807D01*
X364643Y217046D01*
X363923Y217527D01*
X363073Y217696D01*
X362223Y217527D01*
X361503Y217046D01*
X361022Y216325D01*
X360853Y215476D01*
X361022Y214626D01*
X361503Y213905D01*
X362223Y213424D01*
X363073Y213255D01*
X363923Y213424D01*
X364643Y213905D01*
X364807Y214150D01*
X365607D01*
Y212806D01*
X369569D01*
Y218146D01*
D02*
G37*
G36*
X363172Y227804D02*
X357241D01*
Y222468D01*
X355037Y220264D01*
X354749Y219834D01*
X354648Y219327D01*
Y218146D01*
X353993D01*
Y212806D01*
X357955D01*
Y218146D01*
X357299D01*
Y218778D01*
X357836Y219314D01*
X363172D01*
Y222234D01*
X372046D01*
X375056Y219224D01*
Y215857D01*
X380199D01*
Y221197D01*
X376832D01*
X373533Y224496D01*
X373102Y224784D01*
X372595Y224885D01*
X363172D01*
Y227804D01*
D02*
G37*
G36*
X448014Y216565D02*
X445744D01*
Y214393D01*
X448014D01*
Y216565D01*
D02*
G37*
G36*
X444944D02*
X442674D01*
Y214393D01*
X444944D01*
Y216565D01*
D02*
G37*
G36*
X481667Y244503D02*
X480533Y244354D01*
X479476Y243916D01*
X478569Y243220D01*
X477873Y242313D01*
X477435Y241256D01*
X477286Y240122D01*
X477435Y238988D01*
X477873Y237932D01*
X478569Y237024D01*
X479476Y236328D01*
X480533Y235890D01*
X481667Y235741D01*
X482801Y235890D01*
X483666Y236249D01*
X492050Y227864D01*
Y226118D01*
X489426D01*
Y213494D01*
X497325D01*
Y226118D01*
X494701D01*
Y228413D01*
X494600Y228921D01*
X494313Y229351D01*
X485540Y238123D01*
X485899Y238988D01*
X486048Y240122D01*
X485899Y241256D01*
X485461Y242313D01*
X484765Y243220D01*
X483857Y243916D01*
X482801Y244354D01*
X481667Y244503D01*
D02*
G37*
G36*
X433907Y284872D02*
X432915Y284742D01*
X431991Y284359D01*
X431197Y283750D01*
X430588Y282956D01*
X430205Y282031D01*
X430074Y281039D01*
X430205Y280047D01*
X430588Y279123D01*
X431197Y278329D01*
X431991Y277720D01*
X432915Y277337D01*
X433907Y277207D01*
X434899Y277337D01*
X435823Y277720D01*
X436617Y278329D01*
X437132Y279000D01*
X438243D01*
X451474Y265769D01*
Y246394D01*
X451629Y245613D01*
X452072Y244952D01*
X460194Y236830D01*
Y231298D01*
X462203D01*
Y229758D01*
X460292D01*
Y221593D01*
X451600Y212901D01*
X448014D01*
Y213434D01*
X442674D01*
Y212901D01*
X441124D01*
Y213532D01*
X437162D01*
Y211154D01*
X437104Y210862D01*
X437162Y210570D01*
Y208192D01*
X441124D01*
Y208823D01*
X442674D01*
Y208291D01*
X448014D01*
Y208823D01*
X450490D01*
Y193709D01*
X429444D01*
Y196013D01*
X422568D01*
Y187326D01*
X429444D01*
Y189630D01*
X450490D01*
Y172055D01*
X428833D01*
X428053Y171900D01*
X427391Y171458D01*
X424094Y168161D01*
X419768D01*
Y162230D01*
X428258D01*
Y166557D01*
X429678Y167977D01*
X450991D01*
X451534Y167614D01*
X452529Y167416D01*
X453524Y167614D01*
X454368Y168177D01*
X454931Y169021D01*
X455129Y170016D01*
X454931Y171011D01*
X454568Y171554D01*
Y189630D01*
X461191D01*
X461483Y189688D01*
X464845D01*
Y193650D01*
X461483D01*
X461191Y193709D01*
X454568D01*
Y210102D01*
X459852Y215385D01*
X460292Y215560D01*
Y215560D01*
X460292Y215560D01*
X468191D01*
Y229758D01*
X466281D01*
Y231298D01*
X468290D01*
Y242740D01*
X460194D01*
X460194Y242740D01*
Y242740D01*
X459803Y242988D01*
X455553Y247238D01*
Y266614D01*
X455397Y267394D01*
X454955Y268056D01*
X440530Y282481D01*
X439868Y282923D01*
X439088Y283079D01*
X437132D01*
X436617Y283750D01*
X435823Y284359D01*
X434899Y284742D01*
X433907Y284872D01*
D02*
G37*
G36*
X380199Y215094D02*
X378028D01*
Y212824D01*
X380199D01*
Y215094D01*
D02*
G37*
G36*
X377227D02*
X375056D01*
Y212824D01*
X377227D01*
Y215094D01*
D02*
G37*
G36*
X422030Y213539D02*
X419858D01*
Y211269D01*
X422030D01*
Y213539D01*
D02*
G37*
G36*
X419058D02*
X416887D01*
Y211269D01*
X419058D01*
Y213539D01*
D02*
G37*
G36*
X380199Y212024D02*
X378028D01*
Y209754D01*
X380199D01*
Y212024D01*
D02*
G37*
G36*
X377227D02*
X375056D01*
Y209754D01*
X377227D01*
Y212024D01*
D02*
G37*
G36*
X422030Y210469D02*
X419858D01*
Y208198D01*
X422030D01*
Y210469D01*
D02*
G37*
G36*
X419058D02*
X416887D01*
Y208198D01*
X419058D01*
Y210469D01*
D02*
G37*
G36*
X429947Y233965D02*
X421261D01*
Y229216D01*
X423565D01*
Y224654D01*
X423229D01*
Y221480D01*
X423522D01*
Y213539D01*
X422989D01*
Y208198D01*
X428132D01*
Y208823D01*
X429682D01*
Y208192D01*
X433644D01*
Y210570D01*
X433702Y210862D01*
X433644Y211154D01*
Y213532D01*
X429682D01*
Y212901D01*
X428132D01*
Y213539D01*
X427600D01*
Y221480D01*
X427979D01*
Y224654D01*
X427643D01*
Y229216D01*
X429947D01*
Y233965D01*
D02*
G37*
G36*
X380199Y208992D02*
X375056D01*
Y207549D01*
X373309D01*
Y208894D01*
X369347D01*
Y203554D01*
X373309D01*
Y204898D01*
X375056D01*
Y203652D01*
X376302D01*
Y184076D01*
X373678D01*
Y169878D01*
X381577D01*
Y184076D01*
X378953D01*
Y203652D01*
X380199D01*
Y208992D01*
D02*
G37*
G36*
X365829Y208894D02*
X361867D01*
Y207549D01*
X354215D01*
Y208894D01*
X350253D01*
Y203554D01*
X354215D01*
Y204898D01*
X361867D01*
Y203554D01*
X363108D01*
Y202791D01*
X362654D01*
Y197648D01*
X367994D01*
Y198894D01*
X368757D01*
Y194302D01*
X374687D01*
Y202791D01*
X368757D01*
Y201545D01*
X367994D01*
Y202791D01*
X365759D01*
Y203554D01*
X365829D01*
Y208894D01*
D02*
G37*
G36*
X523900Y214199D02*
X520350D01*
Y207500D01*
X523900D01*
Y214199D01*
D02*
G37*
G36*
X519550D02*
X516001D01*
Y207500D01*
X519550D01*
Y214199D01*
D02*
G37*
G36*
X386301Y221197D02*
X381158D01*
Y215857D01*
X382404D01*
Y215094D01*
X381158D01*
Y209754D01*
X382404D01*
Y208992D01*
X381158D01*
Y203652D01*
X386301D01*
Y208992D01*
X385055D01*
Y209754D01*
X386301D01*
Y215094D01*
X385055D01*
Y215857D01*
X386301D01*
Y221197D01*
D02*
G37*
G36*
X468191Y209905D02*
X464642D01*
Y203205D01*
X468191D01*
Y209905D01*
D02*
G37*
G36*
X463842D02*
X460292D01*
Y203205D01*
X463842D01*
Y209905D01*
D02*
G37*
G36*
X350475Y218146D02*
X346513D01*
Y215369D01*
X341422Y210278D01*
X341134Y209848D01*
X341034Y209341D01*
Y201559D01*
X335317D01*
Y207333D01*
X327418D01*
Y193135D01*
X335317D01*
Y198908D01*
X345627D01*
Y197648D01*
X350967D01*
Y198894D01*
X351729D01*
Y197648D01*
X357069D01*
Y202791D01*
X351729D01*
Y201545D01*
X350967D01*
Y202791D01*
X345627D01*
Y201559D01*
X343684D01*
Y208792D01*
X347698Y212806D01*
X350475D01*
Y218146D01*
D02*
G37*
G36*
X523900Y206700D02*
X520350D01*
Y200001D01*
X523900D01*
Y206700D01*
D02*
G37*
G36*
X519550D02*
X516001D01*
Y200001D01*
X519550D01*
Y206700D01*
D02*
G37*
G36*
X468191Y202406D02*
X464642D01*
Y195706D01*
X468191D01*
Y202406D01*
D02*
G37*
G36*
X463842D02*
X460292D01*
Y195706D01*
X463842D01*
Y202406D01*
D02*
G37*
G36*
X367994Y196689D02*
X362654D01*
Y195443D01*
X361632D01*
X361469Y195688D01*
X360748Y196169D01*
X359898Y196338D01*
X359049Y196169D01*
X358328Y195688D01*
X358165Y195443D01*
X357069D01*
Y196689D01*
X351729D01*
Y191546D01*
X353074D01*
Y182220D01*
X347005D01*
Y169597D01*
X354904D01*
Y180137D01*
X355336Y180569D01*
X355624Y180999D01*
X355725Y181506D01*
Y191546D01*
X357069D01*
Y192792D01*
X358165D01*
X358328Y192547D01*
X359049Y192066D01*
X359898Y191897D01*
X360748Y192066D01*
X361469Y192547D01*
X361632Y192792D01*
X362654D01*
Y191546D01*
X366021D01*
X368757Y188811D01*
Y185050D01*
X374687D01*
Y193539D01*
X368757D01*
Y193343D01*
X368288Y193138D01*
X367994Y193375D01*
Y196689D01*
D02*
G37*
G36*
X350967D02*
X348697D01*
Y194517D01*
X350967D01*
Y196689D01*
D02*
G37*
G36*
X347897D02*
X345627D01*
Y194517D01*
X347897D01*
Y196689D01*
D02*
G37*
G36*
X350967Y193717D02*
X348697D01*
Y191546D01*
X350967D01*
Y193717D01*
D02*
G37*
G36*
X347897D02*
X345627D01*
Y191546D01*
X347897D01*
Y193717D01*
D02*
G37*
G36*
X504024Y189917D02*
X501853D01*
Y187646D01*
X504024D01*
Y189917D01*
D02*
G37*
G36*
X501053D02*
X498881D01*
Y187646D01*
X501053D01*
Y189917D01*
D02*
G37*
G36*
X464845Y188650D02*
X457536D01*
Y184688D01*
X464845D01*
Y188650D01*
D02*
G37*
G36*
X504024Y186846D02*
X501853D01*
Y184576D01*
X504024D01*
Y186846D01*
D02*
G37*
G36*
X501053D02*
X498881D01*
Y184576D01*
X501053D01*
Y186846D01*
D02*
G37*
G36*
X443388Y183650D02*
X440134D01*
Y182069D01*
X443388D01*
Y183650D01*
D02*
G37*
G36*
X439334D02*
X436080D01*
Y182069D01*
X439334D01*
Y183650D01*
D02*
G37*
G36*
X515029Y194570D02*
X499281D01*
X498774Y194469D01*
X498344Y194181D01*
X494413Y190251D01*
X494190Y189917D01*
X492779D01*
Y184576D01*
X494019D01*
Y183906D01*
X493363D01*
Y178566D01*
X497325D01*
Y183906D01*
X496670D01*
Y184576D01*
X497922D01*
Y189917D01*
X497922Y189917D01*
X497922D01*
X498200Y190288D01*
X499830Y191919D01*
X514480D01*
X516001Y190398D01*
Y180147D01*
X523900D01*
Y194346D01*
X516001D01*
X516001Y194346D01*
Y194346D01*
X516001Y194346D01*
X515536Y194469D01*
X515532Y194469D01*
X515029Y194570D01*
D02*
G37*
G36*
X464845Y183650D02*
X457536D01*
Y179688D01*
X464845D01*
Y183650D01*
D02*
G37*
G36*
X443388Y181269D02*
X440134D01*
Y179688D01*
X443388D01*
Y181269D01*
D02*
G37*
G36*
X439334D02*
X436080D01*
Y179688D01*
X439334D01*
Y181269D01*
D02*
G37*
G36*
X464845Y178650D02*
X461591D01*
Y177069D01*
X464845D01*
Y178650D01*
D02*
G37*
G36*
X460791D02*
X457536D01*
Y177069D01*
X460791D01*
Y178650D01*
D02*
G37*
G36*
X464845Y176269D02*
X461591D01*
Y174688D01*
X464845D01*
Y176269D01*
D02*
G37*
G36*
X460791D02*
X457536D01*
Y174688D01*
X460791D01*
Y176269D01*
D02*
G37*
G36*
X443388Y178650D02*
X436080D01*
Y174688D01*
X443388D01*
Y178650D01*
D02*
G37*
G36*
X504806Y183906D02*
X500843D01*
Y178566D01*
X503620D01*
X504866Y177321D01*
X504738Y176677D01*
X504907Y175827D01*
X505388Y175107D01*
X506109Y174625D01*
X506958Y174456D01*
X507808Y174625D01*
X508529Y175107D01*
X509010Y175827D01*
X509179Y176677D01*
X509010Y177527D01*
X508529Y178247D01*
X507808Y178728D01*
X507057Y178878D01*
X504806Y181130D01*
Y183906D01*
D02*
G37*
G36*
X439734Y188708D02*
X434832D01*
X434052Y188553D01*
X433390Y188111D01*
X427222Y181943D01*
X427076Y181724D01*
X422942D01*
Y173825D01*
X434385D01*
Y181724D01*
X433424D01*
X433233Y182186D01*
X435677Y184630D01*
X439734D01*
X440026Y184688D01*
X443388D01*
Y188650D01*
X440026D01*
X439734Y188708D01*
D02*
G37*
G36*
X402388Y233965D02*
X393702D01*
Y229216D01*
X396719D01*
Y225288D01*
X396820Y224780D01*
X397108Y224350D01*
X398102Y223356D01*
X398045Y223067D01*
X398214Y222217D01*
X398695Y221497D01*
X398940Y221333D01*
Y174505D01*
X398695Y174342D01*
X398214Y173621D01*
X398045Y172772D01*
X398214Y171922D01*
X398695Y171202D01*
X399416Y170720D01*
X400266Y170551D01*
X401115Y170720D01*
X401836Y171202D01*
X402317Y171922D01*
X402486Y172772D01*
X402317Y173621D01*
X401836Y174342D01*
X401591Y174505D01*
Y221333D01*
X401836Y221497D01*
X402317Y222217D01*
X402486Y223067D01*
X402317Y223917D01*
X401836Y224637D01*
X401115Y225118D01*
X400266Y225288D01*
X399977Y225230D01*
X399370Y225837D01*
Y229216D01*
X402388D01*
Y233965D01*
D02*
G37*
G36*
X506958Y169284D02*
X506109Y169115D01*
X505388Y168633D01*
X504907Y167913D01*
X504786Y167306D01*
X503723D01*
Y168650D01*
X498580D01*
Y163315D01*
X497852Y162587D01*
X497760Y162450D01*
X495824D01*
Y153960D01*
X497464D01*
Y153204D01*
X495824D01*
Y144714D01*
X501754D01*
Y153204D01*
X500114D01*
Y153960D01*
X501754D01*
Y162450D01*
X501754Y162450D01*
X501754D01*
X501910Y162896D01*
X502088Y163075D01*
X502246Y163310D01*
X503723D01*
Y164655D01*
X505974D01*
X506481Y164756D01*
X506691Y164896D01*
X506958Y164842D01*
X507808Y165011D01*
X508529Y165493D01*
X509010Y166213D01*
X509179Y167063D01*
X509010Y167913D01*
X508529Y168633D01*
X507808Y169115D01*
X506958Y169284D01*
D02*
G37*
G36*
X497620Y168650D02*
X495449D01*
Y166380D01*
X497620D01*
Y168650D01*
D02*
G37*
G36*
X494649D02*
X492477D01*
Y166380D01*
X494649D01*
Y168650D01*
D02*
G37*
G36*
X497325Y209214D02*
X489426D01*
Y198396D01*
X486238Y195207D01*
X485950Y194777D01*
X485849Y194270D01*
Y180855D01*
X482930D01*
Y174924D01*
X488266D01*
X492143Y171047D01*
X492573Y170760D01*
X493080Y170659D01*
X497103D01*
Y169314D01*
X501065D01*
Y170659D01*
X516001D01*
Y164871D01*
X523900D01*
Y179069D01*
X516001D01*
Y173310D01*
X501065D01*
Y174654D01*
X497103D01*
Y173310D01*
X493629D01*
X491420Y175519D01*
Y180855D01*
X488500D01*
Y193721D01*
X491370Y196591D01*
X497325D01*
Y209214D01*
D02*
G37*
G36*
X497620Y165580D02*
X495449D01*
Y163310D01*
X497620D01*
Y165580D01*
D02*
G37*
G36*
X494649D02*
X492477D01*
Y163310D01*
X494649D01*
Y165580D01*
D02*
G37*
G36*
X418184Y196013D02*
X411308D01*
Y187326D01*
X412707D01*
Y181724D01*
X408991D01*
Y173825D01*
X412673D01*
Y168279D01*
X410369D01*
Y161404D01*
X419056D01*
Y168279D01*
X416752D01*
Y173825D01*
X420434D01*
Y181724D01*
X416785D01*
Y187326D01*
X418184D01*
Y196013D01*
D02*
G37*
G36*
X434412Y162253D02*
X432142D01*
Y160081D01*
X434412D01*
Y162253D01*
D02*
G37*
G36*
X431342D02*
X429072D01*
Y160081D01*
X431342D01*
Y162253D01*
D02*
G37*
G36*
X381577Y164223D02*
X378028D01*
Y157524D01*
X381577D01*
Y164223D01*
D02*
G37*
G36*
X377227D02*
X373678D01*
Y157524D01*
X377227D01*
Y164223D01*
D02*
G37*
G36*
X434412Y159281D02*
X432142D01*
Y157109D01*
X434412D01*
Y159281D01*
D02*
G37*
G36*
X431342D02*
X429072D01*
Y157109D01*
X431342D01*
Y159281D01*
D02*
G37*
G36*
X354904Y165317D02*
X347005D01*
Y152693D01*
X354904D01*
Y157667D01*
X356209D01*
X356372Y157422D01*
X357093Y156941D01*
X357943Y156772D01*
X358792Y156941D01*
X359513Y157422D01*
X359994Y158142D01*
X360163Y158992D01*
X359994Y159842D01*
X359513Y160562D01*
X358792Y161044D01*
X357943Y161213D01*
X357093Y161044D01*
X356372Y160562D01*
X356209Y160318D01*
X354904D01*
Y165317D01*
D02*
G37*
G36*
X469836Y157528D02*
X463137D01*
Y153979D01*
X469836D01*
Y157528D01*
D02*
G37*
G36*
X462337D02*
X455638D01*
Y153979D01*
X462337D01*
Y157528D01*
D02*
G37*
G36*
X386301Y202791D02*
X380371D01*
Y194302D01*
X381297D01*
Y193539D01*
X380371D01*
Y185050D01*
X384697D01*
X389466Y180281D01*
Y173165D01*
X389621Y172385D01*
X390064Y171723D01*
X409648Y152140D01*
X410309Y151698D01*
X410369Y151686D01*
Y150144D01*
X419056D01*
Y151542D01*
X419768D01*
Y150616D01*
X428258D01*
Y151542D01*
X429072D01*
Y151007D01*
X434412D01*
Y151540D01*
X435784D01*
Y149629D01*
X449983D01*
Y154645D01*
X459575Y164236D01*
X482930D01*
Y163310D01*
X485136D01*
Y162450D01*
X484209D01*
Y153960D01*
X490140D01*
Y162450D01*
X489214D01*
Y163310D01*
X491420D01*
Y169241D01*
X482930D01*
Y168315D01*
X458730D01*
X457949Y168160D01*
X457288Y167718D01*
X447099Y157528D01*
X435784D01*
Y155618D01*
X434412D01*
Y156150D01*
X429072D01*
Y155621D01*
X428258D01*
Y156547D01*
X419768D01*
Y155621D01*
X419056D01*
Y157019D01*
X410535D01*
X393545Y174010D01*
Y181125D01*
X393390Y181906D01*
X392947Y182567D01*
X392947Y182567D01*
X386302Y189213D01*
Y193539D01*
X385375D01*
Y194302D01*
X386301D01*
Y202791D01*
D02*
G37*
G36*
X381577Y156724D02*
X378028D01*
Y150024D01*
X381577D01*
Y156724D01*
D02*
G37*
G36*
X377227D02*
X373678D01*
Y150024D01*
X377227D01*
Y156724D01*
D02*
G37*
G36*
X469836Y153179D02*
X463137D01*
Y149629D01*
X469836D01*
Y153179D01*
D02*
G37*
G36*
X462337D02*
X455638D01*
Y149629D01*
X462337D01*
Y153179D01*
D02*
G37*
G36*
X379805Y148670D02*
X374662D01*
Y147326D01*
X373357D01*
X373194Y147570D01*
X372473Y148052D01*
X371623Y148221D01*
X370774Y148052D01*
X370053Y147570D01*
X369572Y146850D01*
X369403Y146000D01*
X369572Y145150D01*
X370053Y144430D01*
X370774Y143948D01*
X371623Y143779D01*
X372473Y143948D01*
X373194Y144430D01*
X373357Y144675D01*
X374662D01*
Y143330D01*
X379805D01*
Y148670D01*
D02*
G37*
G36*
X490140Y153204D02*
X484209D01*
Y144714D01*
X485849D01*
Y143946D01*
X484603D01*
Y142601D01*
X482352D01*
X481845Y142500D01*
X481415Y142213D01*
X478161Y138959D01*
X401503D01*
X393525Y146937D01*
X393095Y147225D01*
X392588Y147326D01*
X385908D01*
Y148670D01*
X380765D01*
Y143330D01*
X385908D01*
Y144675D01*
X392039D01*
X400017Y136697D01*
X400447Y136409D01*
X400954Y136308D01*
X478710D01*
X479217Y136409D01*
X479647Y136697D01*
X482901Y139950D01*
X484603D01*
Y138605D01*
X489747D01*
Y143946D01*
X488500D01*
Y144714D01*
X490140D01*
Y153204D01*
D02*
G37*
G36*
X365812Y146144D02*
X355088D01*
X354581Y146044D01*
X354151Y145756D01*
X349533Y141138D01*
X345331D01*
Y132649D01*
X345666D01*
X345857Y132187D01*
X338166Y124495D01*
X337301Y124854D01*
X336167Y125003D01*
X335033Y124854D01*
X333976Y124416D01*
X333069Y123720D01*
X332373Y122813D01*
X331935Y121756D01*
X331786Y120622D01*
X331935Y119488D01*
X332373Y118432D01*
X333069Y117524D01*
X333976Y116828D01*
X335033Y116390D01*
X336167Y116241D01*
X337301Y116390D01*
X338357Y116828D01*
X339265Y117524D01*
X339961Y118432D01*
X340399Y119488D01*
X340548Y120622D01*
X340399Y121756D01*
X340040Y122621D01*
X349234Y131815D01*
X349521Y132245D01*
X349602Y132649D01*
X351262D01*
Y139118D01*
X355637Y143493D01*
X365263D01*
X369796Y138960D01*
X370226Y138673D01*
X370733Y138572D01*
X374662D01*
Y137228D01*
X379805D01*
Y142568D01*
X374662D01*
Y141223D01*
X371282D01*
X366749Y145756D01*
X366319Y146044D01*
X365812Y146144D01*
D02*
G37*
G36*
X385908Y142568D02*
X380765D01*
Y137228D01*
X385908D01*
Y138671D01*
X386425D01*
X386589Y138426D01*
X387309Y137944D01*
X388159Y137776D01*
X388448Y137833D01*
X397852Y128429D01*
X398282Y128142D01*
X398789Y128041D01*
X481368D01*
X481875Y128142D01*
X482305Y128429D01*
X486379Y132503D01*
X489747D01*
Y137843D01*
X484603D01*
Y134476D01*
X480819Y130692D01*
X399338D01*
X390322Y139707D01*
X390380Y139996D01*
X390211Y140846D01*
X389729Y141566D01*
X389009Y142048D01*
X388159Y142217D01*
X387309Y142048D01*
X386589Y141566D01*
X386425Y141322D01*
X385908D01*
Y142568D01*
D02*
G37*
G36*
X495849Y137843D02*
X490706D01*
Y132503D01*
X491952D01*
Y128340D01*
X486061Y122450D01*
X485571Y122547D01*
X485461Y122813D01*
X484765Y123720D01*
X483857Y124416D01*
X482801Y124854D01*
X481667Y125003D01*
X480533Y124854D01*
X479476Y124416D01*
X478569Y123720D01*
X477873Y122813D01*
X477435Y121756D01*
X477286Y120622D01*
X477435Y119488D01*
X477873Y118432D01*
X478569Y117524D01*
X479476Y116828D01*
X480533Y116390D01*
X481667Y116241D01*
X482801Y116390D01*
X483857Y116828D01*
X484765Y117524D01*
X485461Y118432D01*
X485819Y119297D01*
X486108D01*
X486615Y119397D01*
X487045Y119685D01*
X494214Y126854D01*
X494502Y127284D01*
X494603Y127791D01*
Y132503D01*
X495849D01*
Y137843D01*
D02*
G37*
G36*
X524239D02*
X519095D01*
Y132503D01*
X520341D01*
Y124774D01*
X519476Y124416D01*
X518569Y123720D01*
X517873Y122813D01*
X517435Y121756D01*
X517286Y120622D01*
X517435Y119488D01*
X517873Y118432D01*
X518569Y117524D01*
X519476Y116828D01*
X520533Y116390D01*
X521667Y116241D01*
X522801Y116390D01*
X523857Y116828D01*
X524765Y117524D01*
X525461Y118432D01*
X525899Y119488D01*
X526048Y120622D01*
X525899Y121756D01*
X525461Y122813D01*
X524765Y123720D01*
X523857Y124416D01*
X522992Y124774D01*
Y132503D01*
X524239D01*
Y137843D01*
D02*
G37*
G36*
X495849Y143946D02*
X490706D01*
Y138605D01*
X495849D01*
X495849Y138605D01*
Y138605D01*
X496220Y138328D01*
X500342Y134207D01*
Y124774D01*
X499476Y124416D01*
X498569Y123720D01*
X497873Y122813D01*
X497435Y121756D01*
X497286Y120622D01*
X497435Y119488D01*
X497873Y118432D01*
X498569Y117524D01*
X499476Y116828D01*
X500533Y116390D01*
X501667Y116241D01*
X502801Y116390D01*
X503857Y116828D01*
X504765Y117524D01*
X505461Y118432D01*
X505899Y119488D01*
X506048Y120622D01*
X505899Y121756D01*
X505461Y122813D01*
X504765Y123720D01*
X503857Y124416D01*
X502992Y124774D01*
Y134756D01*
X502891Y135263D01*
X502604Y135693D01*
X496084Y142213D01*
X495849Y142370D01*
Y143946D01*
D02*
G37*
G36*
X362876Y141138D02*
X356946D01*
Y132649D01*
X362876D01*
Y132667D01*
X374662D01*
Y131125D01*
X375908D01*
Y128439D01*
X375230Y127760D01*
X374942Y127330D01*
X374841Y126823D01*
Y124774D01*
X373976Y124416D01*
X373069Y123720D01*
X372373Y122813D01*
X371935Y121756D01*
X371786Y120622D01*
X371935Y119488D01*
X372373Y118432D01*
X373069Y117524D01*
X373976Y116828D01*
X375033Y116390D01*
X376167Y116241D01*
X377301Y116390D01*
X378357Y116828D01*
X379265Y117524D01*
X379961Y118432D01*
X380399Y119488D01*
X380548Y120622D01*
X380399Y121756D01*
X379961Y122813D01*
X379265Y123720D01*
X378357Y124416D01*
X377492Y124774D01*
Y126274D01*
X378171Y126952D01*
X378458Y127383D01*
X378559Y127890D01*
Y131125D01*
X379805D01*
Y136465D01*
X374662D01*
Y135318D01*
X362876D01*
Y141138D01*
D02*
G37*
G36*
X356167Y125003D02*
X355033Y124854D01*
X353976Y124416D01*
X353069Y123720D01*
X352373Y122813D01*
X351935Y121756D01*
X351786Y120622D01*
X351935Y119488D01*
X352373Y118432D01*
X353069Y117524D01*
X353976Y116828D01*
X355033Y116390D01*
X356167Y116241D01*
X357301Y116390D01*
X358357Y116828D01*
X359265Y117524D01*
X359961Y118432D01*
X360399Y119488D01*
X360548Y120622D01*
X360399Y121756D01*
X359961Y122813D01*
X359265Y123720D01*
X358357Y124416D01*
X357301Y124854D01*
X356167Y125003D01*
D02*
G37*
G36*
X523900Y159216D02*
X516001D01*
Y146878D01*
X514627Y145504D01*
X514340Y145074D01*
X514239Y144567D01*
Y137843D01*
X512993D01*
Y132503D01*
X514239D01*
Y124742D01*
X504047Y114550D01*
X476602D01*
X469805Y121347D01*
X469375Y121634D01*
X468868Y121735D01*
X397271D01*
X385908Y133098D01*
Y136465D01*
X380765D01*
Y131125D01*
X384132D01*
X395785Y119472D01*
X396215Y119185D01*
X396722Y119084D01*
X468319D01*
X475115Y112287D01*
X475546Y112000D01*
X476053Y111899D01*
X504596D01*
X505103Y112000D01*
X505533Y112287D01*
X516502Y123256D01*
X516789Y123686D01*
X516890Y124193D01*
Y132503D01*
X518136D01*
Y137843D01*
X516890D01*
Y144018D01*
X517889Y145017D01*
X523900D01*
Y159216D01*
D02*
G37*
G36*
X457857Y111834D02*
X454307D01*
Y106513D01*
X457857D01*
Y111834D01*
D02*
G37*
G36*
X453507D02*
X449958D01*
Y106513D01*
X453507D01*
Y111834D01*
D02*
G37*
G36*
X390718Y116725D02*
X389868Y116556D01*
X389148Y116074D01*
X388667Y115354D01*
X388497Y114504D01*
X388667Y113654D01*
X389148Y112934D01*
X389393Y112770D01*
Y111268D01*
X388836D01*
Y106125D01*
X392601D01*
Y111268D01*
X392044D01*
Y112770D01*
X392288Y112934D01*
X392770Y113654D01*
X392939Y114504D01*
X392770Y115354D01*
X392288Y116074D01*
X391568Y116556D01*
X390718Y116725D01*
D02*
G37*
G36*
X478132Y105658D02*
X476551D01*
Y103388D01*
X478132D01*
Y105658D01*
D02*
G37*
G36*
X475751D02*
X474170D01*
Y103388D01*
X475751D01*
Y105658D01*
D02*
G37*
G36*
X400364Y114652D02*
X399514Y114483D01*
X398794Y114002D01*
X398312Y113281D01*
X398143Y112432D01*
X398312Y111582D01*
X398794Y110861D01*
X399038Y110698D01*
Y108414D01*
X397792D01*
Y103074D01*
X402935D01*
Y108414D01*
X401689D01*
Y110698D01*
X401934Y110861D01*
X402415Y111582D01*
X402584Y112432D01*
X402415Y113281D01*
X401934Y114002D01*
X401214Y114483D01*
X400364Y114652D01*
D02*
G37*
G36*
X457857Y105713D02*
X454307D01*
Y100391D01*
X457857D01*
Y105713D01*
D02*
G37*
G36*
X453507D02*
X449958D01*
Y100391D01*
X453507D01*
Y105713D01*
D02*
G37*
G36*
X478132Y102588D02*
X476551D01*
Y100318D01*
X478132D01*
Y102588D01*
D02*
G37*
G36*
X475751D02*
X474170D01*
Y100318D01*
X475751D01*
Y102588D01*
D02*
G37*
G36*
X395160Y102410D02*
X393677D01*
Y100239D01*
X395160D01*
Y102410D01*
D02*
G37*
G36*
X392877D02*
X391394D01*
Y100239D01*
X392877D01*
Y102410D01*
D02*
G37*
G36*
X488676Y100835D02*
X486406D01*
Y98664D01*
X488676D01*
Y100835D01*
D02*
G37*
G36*
X468979D02*
X466709D01*
Y98664D01*
X468979D01*
Y100835D01*
D02*
G37*
G36*
X465909D02*
X463639D01*
Y98664D01*
X465909D01*
Y100835D01*
D02*
G37*
G36*
X485606D02*
X483336D01*
Y98664D01*
X485606D01*
Y100835D01*
D02*
G37*
G36*
X515902Y102213D02*
X510581D01*
Y98664D01*
X515902D01*
Y102213D01*
D02*
G37*
G36*
X509781D02*
X504460D01*
Y98664D01*
X509781D01*
Y102213D01*
D02*
G37*
G36*
X510181Y98264D02*
D01*
D01*
D01*
D02*
G37*
G36*
X395160Y99439D02*
X393677D01*
Y97267D01*
X395160D01*
Y99439D01*
D02*
G37*
G36*
X392877D02*
X391394D01*
Y97267D01*
X392877D01*
Y99439D01*
D02*
G37*
G36*
X488676Y97864D02*
X486406D01*
Y95692D01*
X488676D01*
Y97864D01*
D02*
G37*
G36*
X485606D02*
X483336D01*
Y95692D01*
X485606D01*
Y97864D01*
D02*
G37*
G36*
X468979D02*
X466709D01*
Y95692D01*
X468979D01*
Y97864D01*
D02*
G37*
G36*
X465909D02*
X463639D01*
Y95692D01*
X465909D01*
Y97864D01*
D02*
G37*
G36*
X515902Y97864D02*
X510581D01*
Y94314D01*
X515902D01*
Y97864D01*
D02*
G37*
G36*
X509781D02*
X504460D01*
Y94314D01*
X509781D01*
Y97864D01*
D02*
G37*
G36*
X495194Y108935D02*
X494199Y108737D01*
X493356Y108173D01*
X492792Y107330D01*
X492594Y106335D01*
X492792Y105340D01*
X493155Y104797D01*
Y102213D01*
X490509D01*
Y96792D01*
X488450Y94733D01*
X483336D01*
Y94201D01*
X481872D01*
Y94832D01*
X477910D01*
Y92453D01*
X477852Y92161D01*
X477910Y91869D01*
Y89491D01*
X481872D01*
Y90122D01*
X483336D01*
Y89590D01*
X488676D01*
Y90122D01*
X488762D01*
X489543Y90277D01*
X490204Y90719D01*
X493799Y94314D01*
X501951D01*
Y102213D01*
X497233D01*
Y104797D01*
X497596Y105340D01*
X497794Y106335D01*
X497596Y107330D01*
X497033Y108173D01*
X496189Y108737D01*
X495194Y108935D01*
D02*
G37*
G36*
X440829Y94851D02*
X438559D01*
Y92680D01*
X440829D01*
Y94851D01*
D02*
G37*
G36*
X437759D02*
X435489D01*
Y92680D01*
X437759D01*
Y94851D01*
D02*
G37*
G36*
X409038Y108414D02*
X403895D01*
Y103074D01*
X409038D01*
Y104419D01*
X410445D01*
X421503Y93360D01*
X414978Y86834D01*
X414690Y86404D01*
X414590Y85897D01*
Y71352D01*
X409437Y66200D01*
X409150Y65770D01*
X409049Y65263D01*
Y59928D01*
X408307Y59621D01*
X407450Y58964D01*
X406793Y58107D01*
X406380Y57110D01*
X406239Y56039D01*
X406380Y54969D01*
X406793Y53972D01*
X407450Y53115D01*
X408307Y52458D01*
X409304Y52045D01*
X410375Y51904D01*
X411445Y52045D01*
X412442Y52458D01*
X413299Y53115D01*
X413956Y53972D01*
X414369Y54969D01*
X414510Y56039D01*
X414369Y57110D01*
X413956Y58107D01*
X413299Y58964D01*
X412442Y59621D01*
X411700Y59928D01*
Y64714D01*
X416852Y69866D01*
X417139Y70296D01*
X417240Y70803D01*
Y85348D01*
X423949Y92056D01*
X426040D01*
Y91401D01*
X434727D01*
Y95363D01*
X426040D01*
Y94707D01*
X423905D01*
X411931Y106681D01*
X411501Y106969D01*
X410994Y107070D01*
X409038D01*
Y108414D01*
D02*
G37*
G36*
X396833Y96052D02*
X391690D01*
Y90712D01*
X396833D01*
Y92056D01*
X397694D01*
Y91401D01*
X406380D01*
Y95363D01*
X397694D01*
Y94707D01*
X396833D01*
Y96052D01*
D02*
G37*
G36*
X390042Y102410D02*
X386276D01*
Y97267D01*
X386834D01*
Y96052D01*
X385587D01*
Y90712D01*
X390731D01*
Y96052D01*
X389485D01*
Y97267D01*
X390042D01*
Y102410D01*
D02*
G37*
G36*
X440829Y91879D02*
X438559D01*
Y89708D01*
X440829D01*
Y91879D01*
D02*
G37*
G36*
X437759D02*
X435489D01*
Y89708D01*
X437759D01*
Y91879D01*
D02*
G37*
G36*
X440829Y100953D02*
X435489D01*
Y100421D01*
X430383D01*
X430091Y100363D01*
X426040D01*
Y96401D01*
X430091D01*
X430383Y96343D01*
X435489D01*
Y95810D01*
X440829D01*
Y96343D01*
X445464D01*
X449958Y91849D01*
Y86440D01*
X457857D01*
Y90122D01*
X463639D01*
Y89590D01*
X468979D01*
Y90122D01*
X470430D01*
Y89491D01*
X474392D01*
Y91869D01*
X474450Y92161D01*
X474392Y92453D01*
Y94832D01*
X470430D01*
Y94201D01*
X468979D01*
Y94733D01*
X463639D01*
Y94201D01*
X457857D01*
Y97883D01*
X449958D01*
X449958Y97883D01*
Y97883D01*
X449520Y98054D01*
X447751Y99824D01*
X447089Y100266D01*
X446309Y100421D01*
X440829D01*
Y100953D01*
D02*
G37*
G36*
X406380Y90363D02*
X397694D01*
Y89707D01*
X360659D01*
X360152Y89606D01*
X359722Y89319D01*
X341356Y70953D01*
X341068Y70523D01*
X340967Y70016D01*
Y63836D01*
X340376Y63591D01*
X339583Y62982D01*
X338974Y62188D01*
X338591Y61264D01*
X338460Y60272D01*
X338591Y59280D01*
X338974Y58355D01*
X339583Y57561D01*
X340376Y56952D01*
X341301Y56569D01*
X342293Y56439D01*
X343285Y56569D01*
X344209Y56952D01*
X345003Y57561D01*
X345612Y58355D01*
X345995Y59280D01*
X346126Y60272D01*
X345995Y61264D01*
X345612Y62188D01*
X345003Y62982D01*
X344209Y63591D01*
X343618Y63836D01*
Y69467D01*
X361208Y87056D01*
X397694D01*
Y86401D01*
X406380D01*
Y90363D01*
D02*
G37*
G36*
Y85363D02*
X402437D01*
Y83782D01*
X406380D01*
Y85363D01*
D02*
G37*
G36*
X401637D02*
X397694D01*
Y83782D01*
X401637D01*
Y85363D01*
D02*
G37*
G36*
X406380Y82982D02*
X402437D01*
Y81401D01*
X406380D01*
Y82982D01*
D02*
G37*
G36*
X401637D02*
X397694D01*
Y81401D01*
X401637D01*
Y82982D01*
D02*
G37*
G36*
X434727Y90363D02*
X426040D01*
Y89706D01*
X425538Y89606D01*
X425108Y89319D01*
X419437Y83648D01*
X419150Y83218D01*
X419049Y82711D01*
Y59928D01*
X418307Y59621D01*
X417450Y58964D01*
X416793Y58107D01*
X416380Y57110D01*
X416239Y56039D01*
X416380Y54969D01*
X416793Y53972D01*
X417450Y53115D01*
X418307Y52458D01*
X419304Y52045D01*
X420375Y51904D01*
X421445Y52045D01*
X422442Y52458D01*
X423299Y53115D01*
X423956Y53972D01*
X424369Y54969D01*
X424510Y56039D01*
X424369Y57110D01*
X423956Y58107D01*
X423299Y58964D01*
X422442Y59621D01*
X421700Y59928D01*
Y82162D01*
X425667Y86129D01*
X426040Y86401D01*
Y86401D01*
X426040Y86401D01*
X434727D01*
X435091Y86072D01*
X440455Y80708D01*
X440312Y80363D01*
X440312D01*
Y71873D01*
X446243D01*
Y80363D01*
X444438D01*
X444214Y80697D01*
X436224Y88688D01*
X435794Y88975D01*
X435287Y89076D01*
X434727D01*
Y90363D01*
D02*
G37*
G36*
X457857Y80363D02*
X451926D01*
Y71873D01*
X457857D01*
Y74793D01*
X484397D01*
X493103Y66087D01*
Y61637D01*
X499427D01*
Y67961D01*
X494977D01*
X485883Y77055D01*
X485453Y77343D01*
X484946Y77444D01*
X457857D01*
Y80363D01*
D02*
G37*
G36*
X521420Y64249D02*
Y60869D01*
X524800D01*
X524722Y61461D01*
X524339Y62385D01*
X523730Y63179D01*
X522936Y63788D01*
X522012Y64171D01*
X521420Y64249D01*
D02*
G37*
G36*
X520620D02*
X520028Y64171D01*
X519103Y63788D01*
X518309Y63179D01*
X517700Y62385D01*
X517317Y61461D01*
X517240Y60869D01*
X520620D01*
Y64249D01*
D02*
G37*
G36*
X352693Y64052D02*
Y60672D01*
X356073D01*
X355995Y61264D01*
X355612Y62188D01*
X355003Y62982D01*
X354209Y63591D01*
X353285Y63974D01*
X352693Y64052D01*
D02*
G37*
G36*
X351893D02*
X351301Y63974D01*
X350377Y63591D01*
X349583Y62982D01*
X348974Y62188D01*
X348591Y61264D01*
X348513Y60672D01*
X351893D01*
Y64052D01*
D02*
G37*
G36*
X524800Y60069D02*
X521420D01*
Y56688D01*
X522012Y56766D01*
X522936Y57149D01*
X523730Y57758D01*
X524339Y58552D01*
X524722Y59477D01*
X524800Y60069D01*
D02*
G37*
G36*
X520620D02*
X517240D01*
X517317Y59477D01*
X517700Y58552D01*
X518309Y57758D01*
X519103Y57149D01*
X520028Y56766D01*
X520620Y56688D01*
Y60069D01*
D02*
G37*
G36*
X476264Y67989D02*
X475439Y67880D01*
X474670Y67561D01*
X474009Y67054D01*
X473502Y66394D01*
X473184Y65625D01*
X473075Y64799D01*
X473184Y63974D01*
X473502Y63205D01*
X474009Y62544D01*
X474670Y62037D01*
X475439Y61719D01*
X476264Y61610D01*
X477090Y61719D01*
X477359Y61830D01*
X483295Y55894D01*
X483184Y55625D01*
X483075Y54799D01*
X483184Y53974D01*
X483502Y53205D01*
X484009Y52544D01*
X484670Y52037D01*
X485439Y51719D01*
X486265Y51610D01*
X487090Y51719D01*
X487859Y52037D01*
X488520Y52544D01*
X489026Y53205D01*
X489138Y53474D01*
X505350D01*
X505858Y53575D01*
X506288Y53862D01*
X509437Y57011D01*
X510028Y56766D01*
X511020Y56636D01*
X512012Y56766D01*
X512936Y57149D01*
X513730Y57758D01*
X514339Y58552D01*
X514722Y59477D01*
X514853Y60469D01*
X514722Y61461D01*
X514339Y62385D01*
X513730Y63179D01*
X512936Y63788D01*
X512012Y64171D01*
X511020Y64301D01*
X510028Y64171D01*
X509103Y63788D01*
X508310Y63179D01*
X507700Y62385D01*
X507317Y61461D01*
X507187Y60469D01*
X507317Y59477D01*
X507562Y58886D01*
X504801Y56125D01*
X489138D01*
X489026Y56394D01*
X488520Y57054D01*
X487859Y57561D01*
X487090Y57880D01*
X486265Y57989D01*
X485439Y57880D01*
X485170Y57768D01*
X479234Y63705D01*
X479345Y63974D01*
X479454Y64799D01*
X479345Y65625D01*
X479027Y66394D01*
X478520Y67054D01*
X477859Y67561D01*
X477090Y67880D01*
X476264Y67989D01*
D02*
G37*
G36*
X356073Y59872D02*
X352693D01*
Y56492D01*
X353285Y56569D01*
X354209Y56952D01*
X355003Y57561D01*
X355612Y58355D01*
X355995Y59280D01*
X356073Y59872D01*
D02*
G37*
G36*
X351893D02*
X348513D01*
X348591Y59280D01*
X348974Y58355D01*
X349583Y57561D01*
X350377Y56952D01*
X351301Y56569D01*
X351893Y56492D01*
Y59872D01*
D02*
G37*
G36*
X453008Y60024D02*
Y56341D01*
X456691D01*
X456602Y57011D01*
X456189Y58009D01*
X455532Y58865D01*
X454676Y59522D01*
X453678Y59935D01*
X453008Y60024D01*
D02*
G37*
G36*
X452208D02*
X451538Y59935D01*
X450540Y59522D01*
X449684Y58865D01*
X449026Y58009D01*
X448613Y57011D01*
X448525Y56341D01*
X452208D01*
Y60024D01*
D02*
G37*
G36*
X406380Y100363D02*
X397694D01*
Y96401D01*
X406356D01*
X409176Y93581D01*
Y75978D01*
X399437Y66239D01*
X399150Y65809D01*
X399049Y65302D01*
Y59928D01*
X398307Y59621D01*
X397450Y58964D01*
X396793Y58107D01*
X396380Y57110D01*
X396239Y56039D01*
X396380Y54969D01*
X396793Y53972D01*
X397450Y53115D01*
X398307Y52458D01*
X399304Y52045D01*
X400375Y51904D01*
X401445Y52045D01*
X402442Y52458D01*
X403299Y53115D01*
X403956Y53972D01*
X404369Y54969D01*
X404510Y56039D01*
X404369Y57110D01*
X403956Y58107D01*
X403299Y58964D01*
X402442Y59621D01*
X401700Y59928D01*
Y64753D01*
X411439Y74492D01*
X411726Y74922D01*
X411827Y75429D01*
Y94130D01*
X411726Y94637D01*
X411439Y95067D01*
X407187Y99319D01*
X406757Y99607D01*
X406380Y99681D01*
Y100363D01*
D02*
G37*
G36*
X456691Y55541D02*
X453008D01*
Y51858D01*
X453678Y51947D01*
X454676Y52360D01*
X455532Y53017D01*
X456189Y53873D01*
X456602Y54871D01*
X456691Y55541D01*
D02*
G37*
G36*
X452208D02*
X448525D01*
X448613Y54871D01*
X449026Y53873D01*
X449684Y53017D01*
X450540Y52360D01*
X451538Y51947D01*
X452208Y51858D01*
Y55541D01*
D02*
G37*
G36*
X434727Y85363D02*
X426040D01*
Y81401D01*
X429058D01*
Y59932D01*
X428307Y59621D01*
X427450Y58964D01*
X426793Y58107D01*
X426380Y57110D01*
X426239Y56039D01*
X426380Y54969D01*
X426793Y53972D01*
X427450Y53115D01*
X428307Y52458D01*
X429304Y52045D01*
X430375Y51904D01*
X431445Y52045D01*
X432442Y52458D01*
X433299Y53115D01*
X433956Y53972D01*
X434263Y54714D01*
X438678D01*
X439026Y53873D01*
X439684Y53017D01*
X440540Y52360D01*
X441538Y51947D01*
X442608Y51806D01*
X443678Y51947D01*
X444676Y52360D01*
X445532Y53017D01*
X446189Y53873D01*
X446602Y54871D01*
X446743Y55941D01*
X446602Y57011D01*
X446189Y58009D01*
X445532Y58865D01*
X444676Y59522D01*
X443678Y59935D01*
X442608Y60076D01*
X441538Y59935D01*
X440540Y59522D01*
X439684Y58865D01*
X439026Y58009D01*
X438760Y57365D01*
X434263D01*
X433956Y58107D01*
X433299Y58964D01*
X432442Y59621D01*
X431709Y59925D01*
Y81401D01*
X434727D01*
Y85363D01*
D02*
G37*
G36*
X180108Y341646D02*
Y337122D01*
X184632D01*
X184515Y338010D01*
X184018Y339210D01*
X183227Y340241D01*
X182196Y341032D01*
X180996Y341529D01*
X180108Y341646D01*
D02*
G37*
G36*
X70889D02*
Y337122D01*
X75413D01*
X75296Y338010D01*
X74799Y339210D01*
X74008Y340241D01*
X72977Y341032D01*
X71777Y341529D01*
X70889Y341646D01*
D02*
G37*
G36*
X179308D02*
X178420Y341529D01*
X177219Y341032D01*
X176189Y340241D01*
X175398Y339210D01*
X174901Y338010D01*
X174784Y337122D01*
X179308D01*
Y341646D01*
D02*
G37*
G36*
X184632Y336322D02*
X180108D01*
Y331798D01*
X180996Y331915D01*
X182196Y332412D01*
X183227Y333203D01*
X184018Y334234D01*
X184515Y335434D01*
X184632Y336322D01*
D02*
G37*
G36*
X75413D02*
X70889D01*
Y331798D01*
X71777Y331915D01*
X72977Y332412D01*
X74008Y333203D01*
X74799Y334234D01*
X75296Y335434D01*
X75413Y336322D01*
D02*
G37*
G36*
X179308D02*
X174784D01*
X174901Y335434D01*
X175398Y334234D01*
X176189Y333203D01*
X177219Y332412D01*
X178420Y331915D01*
X179308Y331798D01*
Y336322D01*
D02*
G37*
G36*
X134387Y341699D02*
X133099Y341529D01*
X131898Y341032D01*
X130868Y340241D01*
X130077Y339210D01*
X129580Y338010D01*
X129410Y336722D01*
X129580Y335434D01*
X130077Y334234D01*
X130868Y333203D01*
X131898Y332412D01*
X133099Y331915D01*
X134387Y331746D01*
X135675Y331915D01*
X136875Y332412D01*
X137906Y333203D01*
X138697Y334234D01*
X139194Y335434D01*
X139363Y336722D01*
X139194Y338010D01*
X138697Y339210D01*
X137906Y340241D01*
X136875Y341032D01*
X135675Y341529D01*
X134387Y341699D01*
D02*
G37*
G36*
X243606Y316699D02*
X242318Y316529D01*
X241118Y316032D01*
X240087Y315241D01*
X239296Y314210D01*
X238799Y313010D01*
X238629Y311722D01*
X238799Y310434D01*
X239296Y309234D01*
X240087Y308203D01*
X241118Y307412D01*
X242318Y306915D01*
X243606Y306746D01*
X244894Y306915D01*
X246094Y307412D01*
X247125Y308203D01*
X247916Y309234D01*
X248413Y310434D01*
X248582Y311722D01*
X248413Y313010D01*
X247916Y314210D01*
X247125Y315241D01*
X246094Y316032D01*
X244894Y316529D01*
X243606Y316699D01*
D02*
G37*
G36*
X179708D02*
X178420Y316529D01*
X177219Y316032D01*
X176189Y315241D01*
X175398Y314210D01*
X174901Y313010D01*
X174731Y311722D01*
X174901Y310434D01*
X175398Y309234D01*
X176189Y308203D01*
X177219Y307412D01*
X178420Y306915D01*
X179708Y306746D01*
X180996Y306915D01*
X182196Y307412D01*
X183227Y308203D01*
X184018Y309234D01*
X184515Y310434D01*
X184684Y311722D01*
X184515Y313010D01*
X184018Y314210D01*
X183227Y315241D01*
X182196Y316032D01*
X180996Y316529D01*
X179708Y316699D01*
D02*
G37*
G36*
X134387D02*
X133099Y316529D01*
X131898Y316032D01*
X130868Y315241D01*
X130077Y314210D01*
X129580Y313010D01*
X129410Y311722D01*
X129580Y310434D01*
X130077Y309234D01*
X130868Y308203D01*
X131898Y307412D01*
X133099Y306915D01*
X134387Y306746D01*
X135675Y306915D01*
X136875Y307412D01*
X137906Y308203D01*
X138697Y309234D01*
X139194Y310434D01*
X139363Y311722D01*
X139194Y313010D01*
X138697Y314210D01*
X137906Y315241D01*
X136875Y316032D01*
X135675Y316529D01*
X134387Y316699D01*
D02*
G37*
G36*
X70489D02*
X69201Y316529D01*
X68001Y316032D01*
X66970Y315241D01*
X66179Y314210D01*
X65682Y313010D01*
X65512Y311722D01*
X65682Y310434D01*
X66179Y309234D01*
X66970Y308203D01*
X68001Y307412D01*
X69201Y306915D01*
X70489Y306746D01*
X71777Y306915D01*
X72977Y307412D01*
X74008Y308203D01*
X74799Y309234D01*
X75296Y310434D01*
X75465Y311722D01*
X75296Y313010D01*
X74799Y314210D01*
X74008Y315241D01*
X72977Y316032D01*
X71777Y316529D01*
X70489Y316699D01*
D02*
G37*
G36*
X153237Y284655D02*
Y282239D01*
X155653D01*
X155356Y282956D01*
X154747Y283750D01*
X153953Y284359D01*
X153237Y284655D01*
D02*
G37*
G36*
X150837D02*
X150121Y284359D01*
X149327Y283750D01*
X148718Y282956D01*
X148421Y282239D01*
X150837D01*
Y284655D01*
D02*
G37*
G36*
X243606Y291699D02*
X242318Y291529D01*
X241118Y291032D01*
X240087Y290241D01*
X239296Y289210D01*
X238799Y288010D01*
X238629Y286722D01*
X238799Y285434D01*
X239296Y284234D01*
X240087Y283203D01*
X241118Y282412D01*
X242318Y281915D01*
X243606Y281746D01*
X244894Y281915D01*
X246094Y282412D01*
X247125Y283203D01*
X247916Y284234D01*
X248413Y285434D01*
X248582Y286722D01*
X248413Y288010D01*
X247916Y289210D01*
X247125Y290241D01*
X246094Y291032D01*
X244894Y291529D01*
X243606Y291699D01*
D02*
G37*
G36*
X179708D02*
X178420Y291529D01*
X177219Y291032D01*
X176189Y290241D01*
X175398Y289210D01*
X174901Y288010D01*
X174731Y286722D01*
X174901Y285434D01*
X175398Y284234D01*
X176189Y283203D01*
X177219Y282412D01*
X178420Y281915D01*
X179708Y281746D01*
X180996Y281915D01*
X182196Y282412D01*
X183227Y283203D01*
X184018Y284234D01*
X184515Y285434D01*
X184684Y286722D01*
X184515Y288010D01*
X184018Y289210D01*
X183227Y290241D01*
X182196Y291032D01*
X180996Y291529D01*
X179708Y291699D01*
D02*
G37*
G36*
X134387D02*
X133099Y291529D01*
X131898Y291032D01*
X130868Y290241D01*
X130077Y289210D01*
X129580Y288010D01*
X129410Y286722D01*
X129580Y285434D01*
X130077Y284234D01*
X130868Y283203D01*
X131898Y282412D01*
X133099Y281915D01*
X134387Y281746D01*
X135675Y281915D01*
X136875Y282412D01*
X137906Y283203D01*
X138697Y284234D01*
X139194Y285434D01*
X139363Y286722D01*
X139194Y288010D01*
X138697Y289210D01*
X137906Y290241D01*
X136875Y291032D01*
X135675Y291529D01*
X134387Y291699D01*
D02*
G37*
G36*
X70489D02*
X69201Y291529D01*
X68001Y291032D01*
X66970Y290241D01*
X66179Y289210D01*
X65682Y288010D01*
X65512Y286722D01*
X65682Y285434D01*
X66179Y284234D01*
X66970Y283203D01*
X68001Y282412D01*
X69201Y281915D01*
X70489Y281746D01*
X71777Y281915D01*
X72977Y282412D01*
X74008Y283203D01*
X74799Y284234D01*
X75296Y285434D01*
X75465Y286722D01*
X75296Y288010D01*
X74799Y289210D01*
X74008Y290241D01*
X72977Y291032D01*
X71777Y291529D01*
X70489Y291699D01*
D02*
G37*
G36*
X155653Y279839D02*
X153237D01*
Y277423D01*
X153953Y277720D01*
X154747Y278329D01*
X155356Y279123D01*
X155653Y279839D01*
D02*
G37*
G36*
X150837D02*
X148421D01*
X148718Y279123D01*
X149327Y278329D01*
X150121Y277720D01*
X150837Y277423D01*
Y279839D01*
D02*
G37*
G36*
X159990Y269087D02*
X159140Y268918D01*
X158420Y268436D01*
X157938Y267716D01*
X157769Y266866D01*
X157826Y266578D01*
X155215Y263965D01*
X149390D01*
Y259216D01*
X158077D01*
Y263079D01*
X159701Y264703D01*
X159990Y264646D01*
X160839Y264815D01*
X161560Y265296D01*
X162041Y266016D01*
X162210Y266866D01*
X162041Y267716D01*
X161560Y268436D01*
X160839Y268918D01*
X159990Y269087D01*
D02*
G37*
G36*
X130518Y263965D02*
X121832D01*
Y262916D01*
X94183D01*
X93675Y262815D01*
X93245Y262528D01*
X75785Y245067D01*
X75498Y244637D01*
X75397Y244130D01*
Y233906D01*
X74150D01*
Y228566D01*
X75397D01*
Y227804D01*
X73757D01*
Y219314D01*
X79687D01*
Y227804D01*
X78048D01*
Y228566D01*
X79294D01*
Y233906D01*
X78048D01*
Y243581D01*
X94732Y260265D01*
X121832D01*
Y259216D01*
X130518D01*
Y263965D01*
D02*
G37*
G36*
X174943Y260580D02*
X173362D01*
Y257030D01*
X174943D01*
Y260580D01*
D02*
G37*
G36*
X172562D02*
X170981D01*
Y257030D01*
X172562D01*
Y260580D01*
D02*
G37*
G36*
X130518Y253965D02*
X121832D01*
Y252916D01*
X107354D01*
X107191Y253161D01*
X106470Y253642D01*
X105620Y253811D01*
X104771Y253642D01*
X104050Y253161D01*
X103569Y252440D01*
X103400Y251591D01*
X103569Y250741D01*
X104050Y250020D01*
X104771Y249539D01*
X105620Y249370D01*
X106470Y249539D01*
X107191Y250020D01*
X107354Y250265D01*
X121832D01*
Y249216D01*
X130518D01*
Y253965D01*
D02*
G37*
G36*
X174943Y256230D02*
X173362D01*
Y252680D01*
X174943D01*
Y256230D01*
D02*
G37*
G36*
X172562D02*
X170981D01*
Y252680D01*
X172562D01*
Y256230D01*
D02*
G37*
G36*
X196420Y257504D02*
X192772D01*
Y252183D01*
X196420D01*
Y257504D01*
D02*
G37*
G36*
X191972D02*
X188324D01*
Y252183D01*
X191972D01*
Y257504D01*
D02*
G37*
G36*
X192372Y251783D02*
D01*
D01*
D01*
D02*
G37*
G36*
X164963Y274198D02*
X164113Y274028D01*
X163392Y273547D01*
X162911Y272827D01*
X162742Y271977D01*
X162911Y271127D01*
X163392Y270407D01*
X163637Y270243D01*
Y261109D01*
X163108Y260580D01*
X160981D01*
Y256523D01*
X158550Y254092D01*
X158077Y253965D01*
Y253965D01*
X158077Y253965D01*
X149390D01*
Y249216D01*
X158077D01*
Y250296D01*
X158430Y250366D01*
X158860Y250653D01*
X160610Y252404D01*
X160981Y252680D01*
Y252680D01*
X160981Y252680D01*
X164943D01*
Y258666D01*
X165900Y259622D01*
X166187Y260052D01*
X166288Y260560D01*
Y270243D01*
X166533Y270407D01*
X167014Y271127D01*
X167183Y271977D01*
X167014Y272827D01*
X166533Y273547D01*
X165813Y274028D01*
X164963Y274198D01*
D02*
G37*
G36*
X196420Y251383D02*
X192772D01*
Y246062D01*
X196420D01*
Y251383D01*
D02*
G37*
G36*
X191972D02*
X188324D01*
Y246062D01*
X191972D01*
Y251383D01*
D02*
G37*
G36*
X158077Y243965D02*
X149390D01*
Y242916D01*
X130518D01*
Y243965D01*
X121832D01*
Y239216D01*
X130518D01*
Y240265D01*
X149390D01*
Y239216D01*
X158077D01*
Y243965D01*
D02*
G37*
G36*
X250197Y244450D02*
Y240522D01*
X254125D01*
X254029Y241256D01*
X253591Y242313D01*
X252895Y243220D01*
X251987Y243916D01*
X250931Y244354D01*
X250197Y244450D01*
D02*
G37*
G36*
X249397D02*
X248663Y244354D01*
X247606Y243916D01*
X246699Y243220D01*
X246003Y242313D01*
X245565Y241256D01*
X245468Y240522D01*
X249397D01*
Y244450D01*
D02*
G37*
G36*
X104697D02*
Y240522D01*
X108625D01*
X108528Y241256D01*
X108091Y242313D01*
X107395Y243220D01*
X106487Y243916D01*
X105431Y244354D01*
X104697Y244450D01*
D02*
G37*
G36*
X103897D02*
X103163Y244354D01*
X102106Y243916D01*
X101199Y243220D01*
X100503Y242313D01*
X100065Y241256D01*
X99968Y240522D01*
X103897D01*
Y244450D01*
D02*
G37*
G36*
X84697D02*
Y240522D01*
X88625D01*
X88529Y241256D01*
X88091Y242313D01*
X87395Y243220D01*
X86487Y243916D01*
X85431Y244354D01*
X84697Y244450D01*
D02*
G37*
G36*
X83897D02*
X83163Y244354D01*
X82106Y243916D01*
X81199Y243220D01*
X80503Y242313D01*
X80065Y241256D01*
X79969Y240522D01*
X83897D01*
Y244450D01*
D02*
G37*
G36*
X254125Y239722D02*
X250197D01*
Y235794D01*
X250931Y235890D01*
X251987Y236328D01*
X252895Y237024D01*
X253591Y237932D01*
X254029Y238988D01*
X254125Y239722D01*
D02*
G37*
G36*
X249397D02*
X245468D01*
X245565Y238988D01*
X246003Y237932D01*
X246699Y237024D01*
X247606Y236328D01*
X248663Y235890D01*
X249397Y235794D01*
Y239722D01*
D02*
G37*
G36*
X108625D02*
X104697D01*
Y235794D01*
X105431Y235890D01*
X106487Y236328D01*
X107395Y237024D01*
X108091Y237932D01*
X108528Y238988D01*
X108625Y239722D01*
D02*
G37*
G36*
X103897D02*
X99968D01*
X100065Y238988D01*
X100503Y237932D01*
X101199Y237024D01*
X102106Y236328D01*
X103163Y235890D01*
X103897Y235794D01*
Y239722D01*
D02*
G37*
G36*
X88625D02*
X84697D01*
Y235794D01*
X85431Y235890D01*
X86487Y236328D01*
X87395Y237024D01*
X88091Y237932D01*
X88529Y238988D01*
X88625Y239722D01*
D02*
G37*
G36*
X83897D02*
X79969D01*
X80065Y238988D01*
X80503Y237932D01*
X81199Y237024D01*
X82106Y236328D01*
X83163Y235890D01*
X83897Y235794D01*
Y239722D01*
D02*
G37*
G36*
X188417Y269087D02*
X187567Y268918D01*
X186847Y268436D01*
X186365Y267716D01*
X186196Y266866D01*
X186365Y266016D01*
X186847Y265296D01*
X187567Y264815D01*
X188417Y264646D01*
X189267Y264815D01*
X189987Y265296D01*
X190150Y265541D01*
X202504D01*
X225923Y242121D01*
X225565Y241256D01*
X225416Y240122D01*
X225565Y238988D01*
X226003Y237932D01*
X226699Y237024D01*
X227606Y236328D01*
X228663Y235890D01*
X229797Y235741D01*
X230931Y235890D01*
X231987Y236328D01*
X232895Y237024D01*
X233591Y237932D01*
X234029Y238988D01*
X234178Y240122D01*
X234029Y241256D01*
X233591Y242313D01*
X232895Y243220D01*
X231987Y243916D01*
X230931Y244354D01*
X229797Y244503D01*
X228663Y244354D01*
X227798Y243995D01*
X203990Y267803D01*
X203560Y268091D01*
X203053Y268192D01*
X190150D01*
X189987Y268436D01*
X189267Y268918D01*
X188417Y269087D01*
D02*
G37*
G36*
X64297Y244503D02*
X63163Y244354D01*
X62106Y243916D01*
X61199Y243220D01*
X60503Y242313D01*
X60065Y241256D01*
X59916Y240122D01*
X60065Y238988D01*
X60423Y238123D01*
X58560Y236260D01*
X58273Y235830D01*
X58172Y235323D01*
Y227187D01*
X55548D01*
Y212988D01*
X63447D01*
Y227187D01*
X60823D01*
Y234774D01*
X62298Y236249D01*
X63163Y235890D01*
X64297Y235741D01*
X65431Y235890D01*
X66487Y236328D01*
X67395Y237024D01*
X68091Y237932D01*
X68528Y238988D01*
X68678Y240122D01*
X68528Y241256D01*
X68091Y242313D01*
X67395Y243220D01*
X66487Y243916D01*
X65431Y244354D01*
X64297Y244503D01*
D02*
G37*
G36*
X85396Y233906D02*
X83224D01*
Y231636D01*
X85396D01*
Y233906D01*
D02*
G37*
G36*
X82424D02*
X80253D01*
Y231636D01*
X82424D01*
Y233906D01*
D02*
G37*
G36*
X174943Y234989D02*
X173362D01*
Y231439D01*
X174943D01*
Y234989D01*
D02*
G37*
G36*
X172562D02*
X170981D01*
Y231439D01*
X172562D01*
Y234989D01*
D02*
G37*
G36*
X85396Y230836D02*
X83224D01*
Y228566D01*
X85396D01*
Y230836D01*
D02*
G37*
G36*
X82424D02*
X80253D01*
Y228566D01*
X82424D01*
Y230836D01*
D02*
G37*
G36*
X174943Y230639D02*
X173362D01*
Y227090D01*
X174943D01*
Y230639D01*
D02*
G37*
G36*
X172562D02*
X170981D01*
Y227090D01*
X172562D01*
Y230639D01*
D02*
G37*
G36*
X159399Y237975D02*
X143651D01*
X143144Y237874D01*
X142714Y237587D01*
X132379Y227252D01*
X132092Y226822D01*
X131991Y226315D01*
Y169683D01*
X131746Y169519D01*
X131265Y168799D01*
X131096Y167949D01*
X131265Y167099D01*
X131746Y166379D01*
X132467Y165897D01*
X133317Y165728D01*
X134166Y165897D01*
X134887Y166379D01*
X135368Y167099D01*
X135537Y167949D01*
X135368Y168799D01*
X134887Y169519D01*
X134642Y169683D01*
Y225766D01*
X144200Y235324D01*
X158850D01*
X160981Y233193D01*
Y227090D01*
X164943D01*
Y234989D01*
X162934D01*
X160336Y237587D01*
X159906Y237874D01*
X159399Y237975D01*
D02*
G37*
G36*
X165514Y224359D02*
X163933D01*
Y222089D01*
X165514D01*
Y224359D01*
D02*
G37*
G36*
X163133D02*
X161552D01*
Y222089D01*
X163133D01*
Y224359D01*
D02*
G37*
G36*
X138180Y225288D02*
X137331Y225118D01*
X136610Y224637D01*
X136129Y223917D01*
X135960Y223067D01*
X136129Y222217D01*
X136610Y221497D01*
X137331Y221015D01*
X138180Y220846D01*
X139030Y221015D01*
X139751Y221497D01*
X139914Y221742D01*
X142304D01*
Y221480D01*
X147054D01*
Y224654D01*
X142304D01*
Y224392D01*
X139914D01*
X139751Y224637D01*
X139030Y225118D01*
X138180Y225288D01*
D02*
G37*
G36*
X165514Y221289D02*
X163933D01*
Y219019D01*
X165514D01*
Y221289D01*
D02*
G37*
G36*
X163133D02*
X161552D01*
Y219019D01*
X163133D01*
Y221289D01*
D02*
G37*
G36*
X176144Y219536D02*
X173874D01*
Y217365D01*
X176144D01*
Y219536D01*
D02*
G37*
G36*
X173074D02*
X170804D01*
Y217365D01*
X173074D01*
Y219536D01*
D02*
G37*
G36*
X97699Y218146D02*
X93737D01*
Y216801D01*
X92937D01*
X92773Y217046D01*
X92053Y217527D01*
X91203Y217696D01*
X90353Y217527D01*
X89633Y217046D01*
X89152Y216325D01*
X88982Y215476D01*
X89152Y214626D01*
X89633Y213905D01*
X90353Y213424D01*
X91203Y213255D01*
X92053Y213424D01*
X92773Y213905D01*
X92937Y214150D01*
X93737D01*
Y212806D01*
X97699D01*
Y218146D01*
D02*
G37*
G36*
X91302Y227804D02*
X85371D01*
Y222468D01*
X83167Y220264D01*
X82879Y219834D01*
X82778Y219327D01*
Y218146D01*
X82123D01*
Y212806D01*
X86085D01*
Y218146D01*
X85429D01*
Y218778D01*
X85966Y219314D01*
X91302D01*
Y222234D01*
X100176D01*
X103186Y219224D01*
Y215857D01*
X108329D01*
Y221197D01*
X104962D01*
X101662Y224496D01*
X101232Y224784D01*
X100725Y224885D01*
X91302D01*
Y227804D01*
D02*
G37*
G36*
X176144Y216565D02*
X173874D01*
Y214393D01*
X176144D01*
Y216565D01*
D02*
G37*
G36*
X173074D02*
X170804D01*
Y214393D01*
X173074D01*
Y216565D01*
D02*
G37*
G36*
X209797Y244503D02*
X208663Y244354D01*
X207606Y243916D01*
X206699Y243220D01*
X206003Y242313D01*
X205565Y241256D01*
X205416Y240122D01*
X205565Y238988D01*
X206003Y237932D01*
X206699Y237024D01*
X207606Y236328D01*
X208663Y235890D01*
X209797Y235741D01*
X210931Y235890D01*
X211796Y236249D01*
X220180Y227864D01*
Y226118D01*
X217556D01*
Y213494D01*
X225455D01*
Y226118D01*
X222831D01*
Y228413D01*
X222730Y228921D01*
X222443Y229351D01*
X213670Y238123D01*
X214029Y238988D01*
X214178Y240122D01*
X214029Y241256D01*
X213591Y242313D01*
X212895Y243220D01*
X211987Y243916D01*
X210931Y244354D01*
X209797Y244503D01*
D02*
G37*
G36*
X162037Y284872D02*
X161045Y284742D01*
X160121Y284359D01*
X159327Y283750D01*
X158718Y282956D01*
X158335Y282031D01*
X158204Y281039D01*
X158335Y280047D01*
X158718Y279123D01*
X159327Y278329D01*
X160121Y277720D01*
X161045Y277337D01*
X162037Y277207D01*
X163029Y277337D01*
X163953Y277720D01*
X164747Y278329D01*
X165262Y279000D01*
X166373D01*
X179604Y265769D01*
Y246394D01*
X179759Y245613D01*
X180201Y244952D01*
X188324Y236830D01*
Y231298D01*
X190332D01*
Y229758D01*
X188422D01*
Y221593D01*
X179730Y212901D01*
X176144D01*
Y213434D01*
X170804D01*
Y212901D01*
X169254D01*
Y213532D01*
X165292D01*
Y211154D01*
X165234Y210862D01*
X165292Y210570D01*
Y208192D01*
X169254D01*
Y208823D01*
X170804D01*
Y208291D01*
X176144D01*
Y208823D01*
X178620D01*
Y193709D01*
X157574D01*
Y196013D01*
X150698D01*
Y187326D01*
X157574D01*
Y189630D01*
X178620D01*
Y172055D01*
X156963D01*
X156183Y171900D01*
X155521Y171458D01*
X152224Y168161D01*
X147898D01*
Y162230D01*
X156388D01*
Y166557D01*
X157808Y167977D01*
X179121D01*
X179664Y167614D01*
X180659Y167416D01*
X181654Y167614D01*
X182498Y168177D01*
X183061Y169021D01*
X183259Y170016D01*
X183061Y171011D01*
X182698Y171554D01*
Y189630D01*
X189321D01*
X189612Y189688D01*
X192975D01*
Y193650D01*
X189612D01*
X189321Y193709D01*
X182698D01*
Y210102D01*
X187982Y215385D01*
X188422Y215560D01*
Y215560D01*
X188422Y215560D01*
X196321D01*
Y229758D01*
X194411D01*
Y231298D01*
X196420D01*
Y242740D01*
X188324D01*
X188324Y242740D01*
Y242740D01*
X187933Y242988D01*
X183683Y247238D01*
Y266614D01*
X183527Y267394D01*
X183085Y268056D01*
X168659Y282481D01*
X167998Y282923D01*
X167218Y283079D01*
X165262D01*
X164747Y283750D01*
X163953Y284359D01*
X163029Y284742D01*
X162037Y284872D01*
D02*
G37*
G36*
X108329Y215094D02*
X106157D01*
Y212824D01*
X108329D01*
Y215094D01*
D02*
G37*
G36*
X105357D02*
X103186D01*
Y212824D01*
X105357D01*
Y215094D01*
D02*
G37*
G36*
X150160Y213539D02*
X147988D01*
Y211269D01*
X150160D01*
Y213539D01*
D02*
G37*
G36*
X147188D02*
X145017D01*
Y211269D01*
X147188D01*
Y213539D01*
D02*
G37*
G36*
X108329Y212024D02*
X106157D01*
Y209754D01*
X108329D01*
Y212024D01*
D02*
G37*
G36*
X105357D02*
X103186D01*
Y209754D01*
X105357D01*
Y212024D01*
D02*
G37*
G36*
X150160Y210469D02*
X147988D01*
Y208198D01*
X150160D01*
Y210469D01*
D02*
G37*
G36*
X147188D02*
X145017D01*
Y208198D01*
X147188D01*
Y210469D01*
D02*
G37*
G36*
X158077Y233965D02*
X149390D01*
Y229216D01*
X151695D01*
Y224654D01*
X151359D01*
Y221480D01*
X151651D01*
Y213539D01*
X151119D01*
Y208198D01*
X156262D01*
Y208823D01*
X157812D01*
Y208192D01*
X161774D01*
Y210570D01*
X161832Y210862D01*
X161774Y211154D01*
Y213532D01*
X157812D01*
Y212901D01*
X156262D01*
Y213539D01*
X155730D01*
Y221480D01*
X156109D01*
Y224654D01*
X155773D01*
Y229216D01*
X158077D01*
Y233965D01*
D02*
G37*
G36*
X108329Y208992D02*
X103186D01*
Y207549D01*
X101439D01*
Y208894D01*
X97477D01*
Y203554D01*
X101439D01*
Y204898D01*
X103186D01*
Y203652D01*
X104432D01*
Y184076D01*
X101808D01*
Y169878D01*
X109707D01*
Y184076D01*
X107083D01*
Y203652D01*
X108329D01*
Y208992D01*
D02*
G37*
G36*
X93959Y208894D02*
X89997D01*
Y207549D01*
X82345D01*
Y208894D01*
X78383D01*
Y203554D01*
X82345D01*
Y204898D01*
X89997D01*
Y203554D01*
X91238D01*
Y202791D01*
X90784D01*
Y197648D01*
X96124D01*
Y198894D01*
X96886D01*
Y194302D01*
X102817D01*
Y202791D01*
X96886D01*
Y201545D01*
X96124D01*
Y202791D01*
X93889D01*
Y203554D01*
X93959D01*
Y208894D01*
D02*
G37*
G36*
X252030Y214199D02*
X248480D01*
Y207500D01*
X252030D01*
Y214199D01*
D02*
G37*
G36*
X247680D02*
X244131D01*
Y207500D01*
X247680D01*
Y214199D01*
D02*
G37*
G36*
X114431Y221197D02*
X109288D01*
Y215857D01*
X110534D01*
Y215094D01*
X109288D01*
Y209754D01*
X110534D01*
Y208992D01*
X109288D01*
Y203652D01*
X114431D01*
Y208992D01*
X113185D01*
Y209754D01*
X114431D01*
Y215094D01*
X113185D01*
Y215857D01*
X114431D01*
Y221197D01*
D02*
G37*
G36*
X196321Y209905D02*
X192772D01*
Y203205D01*
X196321D01*
Y209905D01*
D02*
G37*
G36*
X191972D02*
X188422D01*
Y203205D01*
X191972D01*
Y209905D01*
D02*
G37*
G36*
X78605Y218146D02*
X74642D01*
Y215369D01*
X69552Y210278D01*
X69264Y209848D01*
X69163Y209341D01*
Y201559D01*
X63447D01*
Y207333D01*
X55548D01*
Y193135D01*
X63447D01*
Y198908D01*
X73757D01*
Y197648D01*
X79097D01*
Y198894D01*
X79859D01*
Y197648D01*
X85199D01*
Y202791D01*
X79859D01*
Y201545D01*
X79097D01*
Y202791D01*
X73757D01*
Y201559D01*
X71814D01*
Y208792D01*
X75828Y212806D01*
X78605D01*
Y218146D01*
D02*
G37*
G36*
X252030Y206700D02*
X248480D01*
Y200001D01*
X252030D01*
Y206700D01*
D02*
G37*
G36*
X247680D02*
X244131D01*
Y200001D01*
X247680D01*
Y206700D01*
D02*
G37*
G36*
X196321Y202406D02*
X192772D01*
Y195706D01*
X196321D01*
Y202406D01*
D02*
G37*
G36*
X191972D02*
X188422D01*
Y195706D01*
X191972D01*
Y202406D01*
D02*
G37*
G36*
X96124Y196689D02*
X90784D01*
Y195443D01*
X89762D01*
X89599Y195688D01*
X88878Y196169D01*
X88028Y196338D01*
X87179Y196169D01*
X86458Y195688D01*
X86295Y195443D01*
X85199D01*
Y196689D01*
X79859D01*
Y191546D01*
X81204D01*
Y182220D01*
X75135D01*
Y169597D01*
X83034D01*
Y180137D01*
X83466Y180569D01*
X83754Y180999D01*
X83855Y181506D01*
Y191546D01*
X85199D01*
Y192792D01*
X86295D01*
X86458Y192547D01*
X87179Y192066D01*
X88028Y191897D01*
X88878Y192066D01*
X89599Y192547D01*
X89762Y192792D01*
X90784D01*
Y191546D01*
X94151D01*
X96887Y188811D01*
Y185050D01*
X102817D01*
Y193539D01*
X96887D01*
Y193343D01*
X96417Y193138D01*
X96124Y193375D01*
Y196689D01*
D02*
G37*
G36*
X79097D02*
X76827D01*
Y194517D01*
X79097D01*
Y196689D01*
D02*
G37*
G36*
X76027D02*
X73757D01*
Y194517D01*
X76027D01*
Y196689D01*
D02*
G37*
G36*
X79097Y193717D02*
X76827D01*
Y191546D01*
X79097D01*
Y193717D01*
D02*
G37*
G36*
X76027D02*
X73757D01*
Y191546D01*
X76027D01*
Y193717D01*
D02*
G37*
G36*
X232154Y189917D02*
X229983D01*
Y187646D01*
X232154D01*
Y189917D01*
D02*
G37*
G36*
X229183D02*
X227011D01*
Y187646D01*
X229183D01*
Y189917D01*
D02*
G37*
G36*
X192975Y188650D02*
X185666D01*
Y184688D01*
X192975D01*
Y188650D01*
D02*
G37*
G36*
X232154Y186846D02*
X229983D01*
Y184576D01*
X232154D01*
Y186846D01*
D02*
G37*
G36*
X229183D02*
X227011D01*
Y184576D01*
X229183D01*
Y186846D01*
D02*
G37*
G36*
X171518Y183650D02*
X168264D01*
Y182069D01*
X171518D01*
Y183650D01*
D02*
G37*
G36*
X167464D02*
X164209D01*
Y182069D01*
X167464D01*
Y183650D01*
D02*
G37*
G36*
X243159Y194570D02*
X227411D01*
X226904Y194469D01*
X226474Y194181D01*
X222543Y190251D01*
X222320Y189917D01*
X220909D01*
Y184576D01*
X222148D01*
Y183906D01*
X221493D01*
Y178566D01*
X225455D01*
Y183906D01*
X224799D01*
Y184576D01*
X226052D01*
Y189917D01*
X226052Y189917D01*
X226052D01*
X226330Y190288D01*
X227960Y191919D01*
X242610D01*
X244131Y190398D01*
Y180147D01*
X252030D01*
Y194346D01*
X244131D01*
X244131Y194346D01*
Y194346D01*
X244131Y194346D01*
X243666Y194469D01*
X243662Y194469D01*
X243159Y194570D01*
D02*
G37*
G36*
X192975Y183650D02*
X185666D01*
Y179688D01*
X192975D01*
Y183650D01*
D02*
G37*
G36*
X171518Y181269D02*
X168264D01*
Y179688D01*
X171518D01*
Y181269D01*
D02*
G37*
G36*
X167464D02*
X164209D01*
Y179688D01*
X167464D01*
Y181269D01*
D02*
G37*
G36*
X192975Y178650D02*
X189720D01*
Y177069D01*
X192975D01*
Y178650D01*
D02*
G37*
G36*
X188920D02*
X185666D01*
Y177069D01*
X188920D01*
Y178650D01*
D02*
G37*
G36*
X192975Y176269D02*
X189720D01*
Y174688D01*
X192975D01*
Y176269D01*
D02*
G37*
G36*
X188920D02*
X185666D01*
Y174688D01*
X188920D01*
Y176269D01*
D02*
G37*
G36*
X171518Y178650D02*
X164209D01*
Y174688D01*
X171518D01*
Y178650D01*
D02*
G37*
G36*
X232935Y183906D02*
X228973D01*
Y178566D01*
X231750D01*
X232996Y177321D01*
X232868Y176677D01*
X233037Y175827D01*
X233518Y175107D01*
X234238Y174625D01*
X235088Y174456D01*
X235938Y174625D01*
X236658Y175107D01*
X237140Y175827D01*
X237309Y176677D01*
X237140Y177527D01*
X236658Y178247D01*
X235938Y178728D01*
X235187Y178878D01*
X232935Y181130D01*
Y183906D01*
D02*
G37*
G36*
X167864Y188708D02*
X162962D01*
X162182Y188553D01*
X161520Y188111D01*
X155352Y181943D01*
X155206Y181724D01*
X151072D01*
Y173825D01*
X162515D01*
Y181724D01*
X161554D01*
X161363Y182186D01*
X163807Y184630D01*
X167864D01*
X168156Y184688D01*
X171518D01*
Y188650D01*
X168156D01*
X167864Y188708D01*
D02*
G37*
G36*
X130518Y233965D02*
X121832D01*
Y229216D01*
X124849D01*
Y225288D01*
X124950Y224780D01*
X125238Y224350D01*
X126232Y223356D01*
X126175Y223067D01*
X126344Y222217D01*
X126825Y221497D01*
X127070Y221333D01*
Y174505D01*
X126825Y174342D01*
X126344Y173621D01*
X126175Y172772D01*
X126344Y171922D01*
X126825Y171202D01*
X127546Y170720D01*
X128395Y170551D01*
X129245Y170720D01*
X129966Y171202D01*
X130447Y171922D01*
X130616Y172772D01*
X130447Y173621D01*
X129966Y174342D01*
X129721Y174505D01*
Y221333D01*
X129966Y221497D01*
X130447Y222217D01*
X130616Y223067D01*
X130447Y223917D01*
X129966Y224637D01*
X129245Y225118D01*
X128395Y225288D01*
X128107Y225230D01*
X127500Y225837D01*
Y229216D01*
X130518D01*
Y233965D01*
D02*
G37*
G36*
X235088Y169284D02*
X234238Y169115D01*
X233518Y168633D01*
X233037Y167913D01*
X232916Y167306D01*
X231853D01*
Y168650D01*
X226710D01*
Y163315D01*
X225982Y162587D01*
X225890Y162450D01*
X223954D01*
Y153960D01*
X225593D01*
Y153204D01*
X223954D01*
Y144714D01*
X229884D01*
Y153204D01*
X228244D01*
Y153960D01*
X229884D01*
Y162450D01*
X229884Y162450D01*
X229884D01*
X230040Y162896D01*
X230218Y163075D01*
X230376Y163310D01*
X231853D01*
Y164655D01*
X234104D01*
X234611Y164756D01*
X234821Y164896D01*
X235088Y164842D01*
X235938Y165011D01*
X236658Y165493D01*
X237140Y166213D01*
X237309Y167063D01*
X237140Y167913D01*
X236658Y168633D01*
X235938Y169115D01*
X235088Y169284D01*
D02*
G37*
G36*
X225750Y168650D02*
X223579D01*
Y166380D01*
X225750D01*
Y168650D01*
D02*
G37*
G36*
X222779D02*
X220607D01*
Y166380D01*
X222779D01*
Y168650D01*
D02*
G37*
G36*
X225455Y209214D02*
X217556D01*
Y198396D01*
X214368Y195207D01*
X214080Y194777D01*
X213979Y194270D01*
Y180855D01*
X211060D01*
Y174924D01*
X216396D01*
X220273Y171047D01*
X220703Y170760D01*
X221210Y170659D01*
X225233D01*
Y169314D01*
X229195D01*
Y170659D01*
X244131D01*
Y164871D01*
X252030D01*
Y179069D01*
X244131D01*
Y173310D01*
X229195D01*
Y174654D01*
X225233D01*
Y173310D01*
X221759D01*
X219550Y175519D01*
Y180855D01*
X216630D01*
Y193721D01*
X219500Y196591D01*
X225455D01*
Y209214D01*
D02*
G37*
G36*
X225750Y165580D02*
X223579D01*
Y163310D01*
X225750D01*
Y165580D01*
D02*
G37*
G36*
X222779D02*
X220607D01*
Y163310D01*
X222779D01*
Y165580D01*
D02*
G37*
G36*
X146314Y196013D02*
X139438D01*
Y187326D01*
X140837D01*
Y181724D01*
X137121D01*
Y173825D01*
X140803D01*
Y168279D01*
X138499D01*
Y161404D01*
X147186D01*
Y168279D01*
X144881D01*
Y173825D01*
X148564D01*
Y181724D01*
X144915D01*
Y187326D01*
X146314D01*
Y196013D01*
D02*
G37*
G36*
X162542Y162253D02*
X160272D01*
Y160081D01*
X162542D01*
Y162253D01*
D02*
G37*
G36*
X159472D02*
X157202D01*
Y160081D01*
X159472D01*
Y162253D01*
D02*
G37*
G36*
X109707Y164223D02*
X106157D01*
Y157524D01*
X109707D01*
Y164223D01*
D02*
G37*
G36*
X105357D02*
X101808D01*
Y157524D01*
X105357D01*
Y164223D01*
D02*
G37*
G36*
X162542Y159281D02*
X160272D01*
Y157109D01*
X162542D01*
Y159281D01*
D02*
G37*
G36*
X159472D02*
X157202D01*
Y157109D01*
X159472D01*
Y159281D01*
D02*
G37*
G36*
X83034Y165317D02*
X75135D01*
Y152693D01*
X83034D01*
Y157667D01*
X84339D01*
X84502Y157422D01*
X85223Y156941D01*
X86072Y156772D01*
X86922Y156941D01*
X87643Y157422D01*
X88124Y158142D01*
X88293Y158992D01*
X88124Y159842D01*
X87643Y160562D01*
X86922Y161044D01*
X86072Y161213D01*
X85223Y161044D01*
X84502Y160562D01*
X84339Y160318D01*
X83034D01*
Y165317D01*
D02*
G37*
G36*
X197966Y157528D02*
X191267D01*
Y153979D01*
X197966D01*
Y157528D01*
D02*
G37*
G36*
X190467D02*
X183768D01*
Y153979D01*
X190467D01*
Y157528D01*
D02*
G37*
G36*
X114431Y202791D02*
X108501D01*
Y194302D01*
X109427D01*
Y193539D01*
X108501D01*
Y185050D01*
X112827D01*
X117596Y180281D01*
Y173165D01*
X117751Y172385D01*
X118193Y171723D01*
X137777Y152140D01*
X138439Y151698D01*
X138499Y151686D01*
Y150144D01*
X147186D01*
Y151542D01*
X147898D01*
Y150616D01*
X156388D01*
Y151542D01*
X157202D01*
Y151007D01*
X162542D01*
Y151540D01*
X163914D01*
Y149629D01*
X178113D01*
Y154645D01*
X187705Y164236D01*
X211060D01*
Y163310D01*
X213266D01*
Y162450D01*
X212339D01*
Y153960D01*
X218270D01*
Y162450D01*
X217344D01*
Y163310D01*
X219550D01*
Y169241D01*
X211060D01*
Y168315D01*
X186860D01*
X186079Y168160D01*
X185418Y167718D01*
X175229Y157528D01*
X163914D01*
Y155618D01*
X162542D01*
Y156150D01*
X157202D01*
Y155621D01*
X156388D01*
Y156547D01*
X147898D01*
Y155621D01*
X147186D01*
Y157019D01*
X138665D01*
X121675Y174010D01*
Y181125D01*
X121519Y181906D01*
X121077Y182567D01*
X121077Y182567D01*
X114432Y189213D01*
Y193539D01*
X113505D01*
Y194302D01*
X114431D01*
Y202791D01*
D02*
G37*
G36*
X109707Y156724D02*
X106157D01*
Y150024D01*
X109707D01*
Y156724D01*
D02*
G37*
G36*
X105357D02*
X101808D01*
Y150024D01*
X105357D01*
Y156724D01*
D02*
G37*
G36*
X197966Y153179D02*
X191267D01*
Y149629D01*
X197966D01*
Y153179D01*
D02*
G37*
G36*
X190467D02*
X183768D01*
Y149629D01*
X190467D01*
Y153179D01*
D02*
G37*
G36*
X107935Y148670D02*
X102792D01*
Y147326D01*
X101487D01*
X101324Y147570D01*
X100603Y148052D01*
X99753Y148221D01*
X98904Y148052D01*
X98183Y147570D01*
X97702Y146850D01*
X97533Y146000D01*
X97702Y145150D01*
X98183Y144430D01*
X98904Y143948D01*
X99753Y143779D01*
X100603Y143948D01*
X101324Y144430D01*
X101487Y144675D01*
X102792D01*
Y143330D01*
X107935D01*
Y148670D01*
D02*
G37*
G36*
X218270Y153204D02*
X212339D01*
Y144714D01*
X213979D01*
Y143946D01*
X212733D01*
Y142601D01*
X210482D01*
X209975Y142500D01*
X209545Y142213D01*
X206291Y138959D01*
X129633D01*
X121655Y146937D01*
X121225Y147225D01*
X120718Y147326D01*
X114038D01*
Y148670D01*
X108894D01*
Y143330D01*
X114038D01*
Y144675D01*
X120169D01*
X128147Y136697D01*
X128577Y136409D01*
X129084Y136308D01*
X206840D01*
X207347Y136409D01*
X207777Y136697D01*
X211031Y139950D01*
X212733D01*
Y138605D01*
X217876D01*
Y143946D01*
X216630D01*
Y144714D01*
X218270D01*
Y153204D01*
D02*
G37*
G36*
X93942Y146144D02*
X83218D01*
X82711Y146044D01*
X82281Y145756D01*
X77663Y141138D01*
X73461D01*
Y132649D01*
X73796D01*
X73987Y132187D01*
X66296Y124495D01*
X65431Y124854D01*
X64297Y125003D01*
X63163Y124854D01*
X62106Y124416D01*
X61199Y123720D01*
X60503Y122813D01*
X60065Y121756D01*
X59916Y120622D01*
X60065Y119488D01*
X60503Y118432D01*
X61199Y117524D01*
X62106Y116828D01*
X63163Y116390D01*
X64297Y116241D01*
X65431Y116390D01*
X66487Y116828D01*
X67395Y117524D01*
X68091Y118432D01*
X68528Y119488D01*
X68678Y120622D01*
X68528Y121756D01*
X68170Y122621D01*
X77364Y131815D01*
X77651Y132245D01*
X77732Y132649D01*
X79392D01*
Y139118D01*
X83767Y143493D01*
X93393D01*
X97926Y138960D01*
X98356Y138673D01*
X98863Y138572D01*
X102792D01*
Y137228D01*
X107935D01*
Y142568D01*
X102792D01*
Y141223D01*
X99412D01*
X94879Y145756D01*
X94449Y146044D01*
X93942Y146144D01*
D02*
G37*
G36*
X114038Y142568D02*
X108894D01*
Y137228D01*
X114038D01*
Y138671D01*
X114555D01*
X114719Y138426D01*
X115439Y137944D01*
X116289Y137776D01*
X116578Y137833D01*
X125982Y128429D01*
X126412Y128142D01*
X126919Y128041D01*
X209498D01*
X210005Y128142D01*
X210435Y128429D01*
X214509Y132503D01*
X217876D01*
Y137843D01*
X212733D01*
Y134476D01*
X208949Y130692D01*
X127468D01*
X118452Y139707D01*
X118510Y139996D01*
X118341Y140846D01*
X117859Y141566D01*
X117139Y142048D01*
X116289Y142217D01*
X115439Y142048D01*
X114719Y141566D01*
X114555Y141322D01*
X114038D01*
Y142568D01*
D02*
G37*
G36*
X223979Y137843D02*
X218835D01*
Y132503D01*
X220082D01*
Y128340D01*
X214191Y122450D01*
X213701Y122547D01*
X213591Y122813D01*
X212895Y123720D01*
X211987Y124416D01*
X210931Y124854D01*
X209797Y125003D01*
X208663Y124854D01*
X207606Y124416D01*
X206699Y123720D01*
X206003Y122813D01*
X205565Y121756D01*
X205416Y120622D01*
X205565Y119488D01*
X206003Y118432D01*
X206699Y117524D01*
X207606Y116828D01*
X208663Y116390D01*
X209797Y116241D01*
X210931Y116390D01*
X211987Y116828D01*
X212895Y117524D01*
X213591Y118432D01*
X213949Y119297D01*
X214238D01*
X214745Y119397D01*
X215175Y119685D01*
X222344Y126854D01*
X222632Y127284D01*
X222733Y127791D01*
Y132503D01*
X223979D01*
Y137843D01*
D02*
G37*
G36*
X252368D02*
X247225D01*
Y132503D01*
X248471D01*
Y124774D01*
X247606Y124416D01*
X246699Y123720D01*
X246003Y122813D01*
X245565Y121756D01*
X245416Y120622D01*
X245565Y119488D01*
X246003Y118432D01*
X246699Y117524D01*
X247606Y116828D01*
X248663Y116390D01*
X249797Y116241D01*
X250931Y116390D01*
X251987Y116828D01*
X252895Y117524D01*
X253591Y118432D01*
X254029Y119488D01*
X254178Y120622D01*
X254029Y121756D01*
X253591Y122813D01*
X252895Y123720D01*
X251987Y124416D01*
X251122Y124774D01*
Y132503D01*
X252368D01*
Y137843D01*
D02*
G37*
G36*
X223979Y143946D02*
X218835D01*
Y138605D01*
X223979D01*
X223979Y138605D01*
Y138605D01*
X224350Y138328D01*
X228471Y134207D01*
Y124774D01*
X227606Y124416D01*
X226699Y123720D01*
X226003Y122813D01*
X225565Y121756D01*
X225416Y120622D01*
X225565Y119488D01*
X226003Y118432D01*
X226699Y117524D01*
X227606Y116828D01*
X228663Y116390D01*
X229797Y116241D01*
X230931Y116390D01*
X231987Y116828D01*
X232895Y117524D01*
X233591Y118432D01*
X234029Y119488D01*
X234178Y120622D01*
X234029Y121756D01*
X233591Y122813D01*
X232895Y123720D01*
X231987Y124416D01*
X231122Y124774D01*
Y134756D01*
X231021Y135263D01*
X230734Y135693D01*
X224214Y142213D01*
X223979Y142370D01*
Y143946D01*
D02*
G37*
G36*
X91006Y141138D02*
X85075D01*
Y132649D01*
X91006D01*
Y132667D01*
X102792D01*
Y131125D01*
X104038D01*
Y128439D01*
X103360Y127760D01*
X103072Y127330D01*
X102971Y126823D01*
Y124774D01*
X102106Y124416D01*
X101199Y123720D01*
X100503Y122813D01*
X100065Y121756D01*
X99916Y120622D01*
X100065Y119488D01*
X100503Y118432D01*
X101199Y117524D01*
X102106Y116828D01*
X103163Y116390D01*
X104297Y116241D01*
X105431Y116390D01*
X106487Y116828D01*
X107395Y117524D01*
X108091Y118432D01*
X108528Y119488D01*
X108678Y120622D01*
X108528Y121756D01*
X108091Y122813D01*
X107395Y123720D01*
X106487Y124416D01*
X105622Y124774D01*
Y126274D01*
X106301Y126952D01*
X106588Y127383D01*
X106689Y127890D01*
Y131125D01*
X107935D01*
Y136465D01*
X102792D01*
Y135318D01*
X91006D01*
Y141138D01*
D02*
G37*
G36*
X84297Y125003D02*
X83163Y124854D01*
X82106Y124416D01*
X81199Y123720D01*
X80503Y122813D01*
X80065Y121756D01*
X79916Y120622D01*
X80065Y119488D01*
X80503Y118432D01*
X81199Y117524D01*
X82106Y116828D01*
X83163Y116390D01*
X84297Y116241D01*
X85431Y116390D01*
X86487Y116828D01*
X87395Y117524D01*
X88091Y118432D01*
X88529Y119488D01*
X88678Y120622D01*
X88529Y121756D01*
X88091Y122813D01*
X87395Y123720D01*
X86487Y124416D01*
X85431Y124854D01*
X84297Y125003D01*
D02*
G37*
G36*
X252030Y159216D02*
X244131D01*
Y146878D01*
X242757Y145504D01*
X242470Y145074D01*
X242369Y144567D01*
Y137843D01*
X241123D01*
Y132503D01*
X242369D01*
Y124742D01*
X232177Y114550D01*
X204732D01*
X197935Y121347D01*
X197505Y121634D01*
X196998Y121735D01*
X125401D01*
X114038Y133098D01*
Y136465D01*
X108894D01*
Y131125D01*
X112262D01*
X123915Y119472D01*
X124345Y119185D01*
X124852Y119084D01*
X196449D01*
X203245Y112287D01*
X203675Y112000D01*
X204183Y111899D01*
X232726D01*
X233233Y112000D01*
X233663Y112287D01*
X244632Y123256D01*
X244919Y123686D01*
X245020Y124193D01*
Y132503D01*
X246266D01*
Y137843D01*
X245020D01*
Y144018D01*
X246019Y145017D01*
X252030D01*
Y159216D01*
D02*
G37*
G36*
X185987Y111834D02*
X182437D01*
Y106513D01*
X185987D01*
Y111834D01*
D02*
G37*
G36*
X181637D02*
X178087D01*
Y106513D01*
X181637D01*
Y111834D01*
D02*
G37*
G36*
X118848Y116725D02*
X117998Y116556D01*
X117278Y116074D01*
X116796Y115354D01*
X116627Y114504D01*
X116796Y113654D01*
X117278Y112934D01*
X117523Y112770D01*
Y111268D01*
X116965D01*
Y106125D01*
X120731D01*
Y111268D01*
X120174D01*
Y112770D01*
X120418Y112934D01*
X120900Y113654D01*
X121069Y114504D01*
X120900Y115354D01*
X120418Y116074D01*
X119698Y116556D01*
X118848Y116725D01*
D02*
G37*
G36*
X206262Y105658D02*
X204681D01*
Y103388D01*
X206262D01*
Y105658D01*
D02*
G37*
G36*
X203881D02*
X202300D01*
Y103388D01*
X203881D01*
Y105658D01*
D02*
G37*
G36*
X128494Y114652D02*
X127644Y114483D01*
X126924Y114002D01*
X126442Y113281D01*
X126273Y112432D01*
X126442Y111582D01*
X126924Y110861D01*
X127168Y110698D01*
Y108414D01*
X125922D01*
Y103074D01*
X131065D01*
Y108414D01*
X129819D01*
Y110698D01*
X130064Y110861D01*
X130545Y111582D01*
X130714Y112432D01*
X130545Y113281D01*
X130064Y114002D01*
X129343Y114483D01*
X128494Y114652D01*
D02*
G37*
G36*
X185987Y105713D02*
X182437D01*
Y100391D01*
X185987D01*
Y105713D01*
D02*
G37*
G36*
X181637D02*
X178087D01*
Y100391D01*
X181637D01*
Y105713D01*
D02*
G37*
G36*
X206262Y102588D02*
X204681D01*
Y100318D01*
X206262D01*
Y102588D01*
D02*
G37*
G36*
X203881D02*
X202300D01*
Y100318D01*
X203881D01*
Y102588D01*
D02*
G37*
G36*
X123290Y102410D02*
X121807D01*
Y100239D01*
X123290D01*
Y102410D01*
D02*
G37*
G36*
X121007D02*
X119524D01*
Y100239D01*
X121007D01*
Y102410D01*
D02*
G37*
G36*
X216806Y100835D02*
X214536D01*
Y98664D01*
X216806D01*
Y100835D01*
D02*
G37*
G36*
X197109D02*
X194839D01*
Y98664D01*
X197109D01*
Y100835D01*
D02*
G37*
G36*
X194039D02*
X191769D01*
Y98664D01*
X194039D01*
Y100835D01*
D02*
G37*
G36*
X213736D02*
X211466D01*
Y98664D01*
X213736D01*
Y100835D01*
D02*
G37*
G36*
X244032Y102213D02*
X238711D01*
Y98664D01*
X244032D01*
Y102213D01*
D02*
G37*
G36*
X237911D02*
X232590D01*
Y98664D01*
X237911D01*
Y102213D01*
D02*
G37*
G36*
X238311Y98264D02*
D01*
D01*
D01*
D02*
G37*
G36*
X123290Y99439D02*
X121807D01*
Y97267D01*
X123290D01*
Y99439D01*
D02*
G37*
G36*
X121007D02*
X119524D01*
Y97267D01*
X121007D01*
Y99439D01*
D02*
G37*
G36*
X216806Y97864D02*
X214536D01*
Y95692D01*
X216806D01*
Y97864D01*
D02*
G37*
G36*
X213736D02*
X211466D01*
Y95692D01*
X213736D01*
Y97864D01*
D02*
G37*
G36*
X197109D02*
X194839D01*
Y95692D01*
X197109D01*
Y97864D01*
D02*
G37*
G36*
X194039D02*
X191769D01*
Y95692D01*
X194039D01*
Y97864D01*
D02*
G37*
G36*
X244032Y97864D02*
X238711D01*
Y94314D01*
X244032D01*
Y97864D01*
D02*
G37*
G36*
X237911D02*
X232590D01*
Y94314D01*
X237911D01*
Y97864D01*
D02*
G37*
G36*
X223324Y108935D02*
X222329Y108737D01*
X221486Y108173D01*
X220922Y107330D01*
X220724Y106335D01*
X220922Y105340D01*
X221285Y104797D01*
Y102213D01*
X218638D01*
Y96792D01*
X216580Y94733D01*
X211466D01*
Y94201D01*
X210002D01*
Y94832D01*
X206040D01*
Y92453D01*
X205982Y92161D01*
X206040Y91869D01*
Y89491D01*
X210002D01*
Y90122D01*
X211466D01*
Y89590D01*
X216806D01*
Y90122D01*
X216892D01*
X217672Y90277D01*
X218334Y90719D01*
X221929Y94314D01*
X230081D01*
Y102213D01*
X225363D01*
Y104797D01*
X225726Y105340D01*
X225924Y106335D01*
X225726Y107330D01*
X225163Y108173D01*
X224319Y108737D01*
X223324Y108935D01*
D02*
G37*
G36*
X168959Y94851D02*
X166689D01*
Y92680D01*
X168959D01*
Y94851D01*
D02*
G37*
G36*
X165889D02*
X163619D01*
Y92680D01*
X165889D01*
Y94851D01*
D02*
G37*
G36*
X137168Y108414D02*
X132024D01*
Y103074D01*
X137168D01*
Y104419D01*
X138575D01*
X149633Y93360D01*
X143108Y86834D01*
X142820Y86404D01*
X142719Y85897D01*
Y71352D01*
X137567Y66200D01*
X137280Y65770D01*
X137179Y65263D01*
Y59928D01*
X136437Y59621D01*
X135580Y58964D01*
X134923Y58107D01*
X134510Y57110D01*
X134369Y56039D01*
X134510Y54969D01*
X134923Y53972D01*
X135580Y53115D01*
X136437Y52458D01*
X137434Y52045D01*
X138505Y51904D01*
X139575Y52045D01*
X140572Y52458D01*
X141429Y53115D01*
X142086Y53972D01*
X142499Y54969D01*
X142640Y56039D01*
X142499Y57110D01*
X142086Y58107D01*
X141429Y58964D01*
X140572Y59621D01*
X139830Y59928D01*
Y64714D01*
X144982Y69866D01*
X145269Y70296D01*
X145370Y70803D01*
Y85348D01*
X152079Y92056D01*
X154170D01*
Y91401D01*
X162857D01*
Y95363D01*
X154170D01*
Y94707D01*
X152035D01*
X140061Y106681D01*
X139631Y106969D01*
X139124Y107070D01*
X137168D01*
Y108414D01*
D02*
G37*
G36*
X124963Y96052D02*
X119820D01*
Y90712D01*
X124963D01*
Y92056D01*
X125824D01*
Y91401D01*
X134510D01*
Y95363D01*
X125824D01*
Y94707D01*
X124963D01*
Y96052D01*
D02*
G37*
G36*
X118172Y102410D02*
X114406D01*
Y97267D01*
X114963D01*
Y96052D01*
X113717D01*
Y90712D01*
X118861D01*
Y96052D01*
X117614D01*
Y97267D01*
X118172D01*
Y102410D01*
D02*
G37*
G36*
X168959Y91879D02*
X166689D01*
Y89708D01*
X168959D01*
Y91879D01*
D02*
G37*
G36*
X165889D02*
X163619D01*
Y89708D01*
X165889D01*
Y91879D01*
D02*
G37*
G36*
X168959Y100953D02*
X163619D01*
Y100421D01*
X158513D01*
X158221Y100363D01*
X154170D01*
Y96401D01*
X158221D01*
X158513Y96343D01*
X163619D01*
Y95810D01*
X168959D01*
Y96343D01*
X173594D01*
X178087Y91849D01*
Y86440D01*
X185987D01*
Y90122D01*
X191769D01*
Y89590D01*
X197109D01*
Y90122D01*
X198560D01*
Y89491D01*
X202522D01*
Y91869D01*
X202580Y92161D01*
X202522Y92453D01*
Y94832D01*
X198560D01*
Y94201D01*
X197109D01*
Y94733D01*
X191769D01*
Y94201D01*
X185987D01*
Y97883D01*
X178087D01*
X178087Y97883D01*
Y97883D01*
X177650Y98054D01*
X175881Y99824D01*
X175219Y100266D01*
X174439Y100421D01*
X168959D01*
Y100953D01*
D02*
G37*
G36*
X134510Y90363D02*
X125824D01*
Y89707D01*
X88789D01*
X88282Y89606D01*
X87852Y89319D01*
X69486Y70953D01*
X69198Y70523D01*
X69097Y70016D01*
Y63836D01*
X68506Y63591D01*
X67713Y62982D01*
X67103Y62188D01*
X66721Y61264D01*
X66590Y60272D01*
X66721Y59280D01*
X67103Y58355D01*
X67713Y57561D01*
X68506Y56952D01*
X69431Y56569D01*
X70423Y56439D01*
X71415Y56569D01*
X72339Y56952D01*
X73133Y57561D01*
X73742Y58355D01*
X74125Y59280D01*
X74256Y60272D01*
X74125Y61264D01*
X73742Y62188D01*
X73133Y62982D01*
X72339Y63591D01*
X71748Y63836D01*
Y69467D01*
X89338Y87056D01*
X125824D01*
Y86401D01*
X134510D01*
Y90363D01*
D02*
G37*
G36*
Y85363D02*
X130567D01*
Y83782D01*
X134510D01*
Y85363D01*
D02*
G37*
G36*
X129767D02*
X125824D01*
Y83782D01*
X129767D01*
Y85363D01*
D02*
G37*
G36*
X134510Y82982D02*
X130567D01*
Y81401D01*
X134510D01*
Y82982D01*
D02*
G37*
G36*
X129767D02*
X125824D01*
Y81401D01*
X129767D01*
Y82982D01*
D02*
G37*
G36*
X162857Y90363D02*
X154170D01*
Y89706D01*
X153668Y89606D01*
X153238Y89319D01*
X147567Y83648D01*
X147280Y83218D01*
X147179Y82711D01*
Y59928D01*
X146437Y59621D01*
X145580Y58964D01*
X144923Y58107D01*
X144510Y57110D01*
X144369Y56039D01*
X144510Y54969D01*
X144923Y53972D01*
X145580Y53115D01*
X146437Y52458D01*
X147434Y52045D01*
X148504Y51904D01*
X149575Y52045D01*
X150572Y52458D01*
X151429Y53115D01*
X152086Y53972D01*
X152499Y54969D01*
X152640Y56039D01*
X152499Y57110D01*
X152086Y58107D01*
X151429Y58964D01*
X150572Y59621D01*
X149830Y59928D01*
Y82162D01*
X153797Y86129D01*
X154170Y86401D01*
Y86401D01*
X154170Y86401D01*
X162857D01*
X163221Y86072D01*
X168585Y80708D01*
X168442Y80363D01*
X168442D01*
Y71873D01*
X174372D01*
Y80363D01*
X172568D01*
X172344Y80697D01*
X164354Y88688D01*
X163924Y88975D01*
X163417Y89076D01*
X162857D01*
Y90363D01*
D02*
G37*
G36*
X185987Y80363D02*
X180056D01*
Y71873D01*
X185987D01*
Y74793D01*
X212526D01*
X221232Y66087D01*
Y61637D01*
X227556D01*
Y67961D01*
X223107D01*
X214013Y77055D01*
X213583Y77343D01*
X213075Y77444D01*
X185987D01*
Y80363D01*
D02*
G37*
G36*
X249550Y64249D02*
Y60869D01*
X252930D01*
X252852Y61461D01*
X252469Y62385D01*
X251860Y63179D01*
X251066Y63788D01*
X250142Y64171D01*
X249550Y64249D01*
D02*
G37*
G36*
X248750D02*
X248158Y64171D01*
X247233Y63788D01*
X246439Y63179D01*
X245830Y62385D01*
X245447Y61461D01*
X245369Y60869D01*
X248750D01*
Y64249D01*
D02*
G37*
G36*
X80823Y64052D02*
Y60672D01*
X84203D01*
X84125Y61264D01*
X83742Y62188D01*
X83133Y62982D01*
X82339Y63591D01*
X81415Y63974D01*
X80823Y64052D01*
D02*
G37*
G36*
X80023D02*
X79431Y63974D01*
X78506Y63591D01*
X77713Y62982D01*
X77104Y62188D01*
X76721Y61264D01*
X76643Y60672D01*
X80023D01*
Y64052D01*
D02*
G37*
G36*
X252930Y60069D02*
X249550D01*
Y56688D01*
X250142Y56766D01*
X251066Y57149D01*
X251860Y57758D01*
X252469Y58552D01*
X252852Y59477D01*
X252930Y60069D01*
D02*
G37*
G36*
X248750D02*
X245369D01*
X245447Y59477D01*
X245830Y58552D01*
X246439Y57758D01*
X247233Y57149D01*
X248158Y56766D01*
X248750Y56688D01*
Y60069D01*
D02*
G37*
G36*
X204394Y67989D02*
X203569Y67880D01*
X202800Y67561D01*
X202139Y67054D01*
X201632Y66394D01*
X201314Y65625D01*
X201205Y64799D01*
X201314Y63974D01*
X201632Y63205D01*
X202139Y62544D01*
X202800Y62037D01*
X203569Y61719D01*
X204394Y61610D01*
X205220Y61719D01*
X205489Y61830D01*
X211425Y55894D01*
X211314Y55625D01*
X211205Y54799D01*
X211314Y53974D01*
X211632Y53205D01*
X212139Y52544D01*
X212800Y52037D01*
X213569Y51719D01*
X214394Y51610D01*
X215220Y51719D01*
X215989Y52037D01*
X216650Y52544D01*
X217156Y53205D01*
X217268Y53474D01*
X233480D01*
X233987Y53575D01*
X234418Y53862D01*
X237567Y57011D01*
X238158Y56766D01*
X239150Y56636D01*
X240142Y56766D01*
X241066Y57149D01*
X241860Y57758D01*
X242469Y58552D01*
X242852Y59477D01*
X242982Y60469D01*
X242852Y61461D01*
X242469Y62385D01*
X241860Y63179D01*
X241066Y63788D01*
X240142Y64171D01*
X239150Y64301D01*
X238158Y64171D01*
X237233Y63788D01*
X236439Y63179D01*
X235830Y62385D01*
X235447Y61461D01*
X235317Y60469D01*
X235447Y59477D01*
X235692Y58886D01*
X232931Y56125D01*
X217268D01*
X217156Y56394D01*
X216650Y57054D01*
X215989Y57561D01*
X215220Y57880D01*
X214394Y57989D01*
X213569Y57880D01*
X213300Y57768D01*
X207364Y63705D01*
X207475Y63974D01*
X207584Y64799D01*
X207475Y65625D01*
X207156Y66394D01*
X206649Y67054D01*
X205989Y67561D01*
X205220Y67880D01*
X204394Y67989D01*
D02*
G37*
G36*
X84203Y59872D02*
X80823D01*
Y56492D01*
X81415Y56569D01*
X82339Y56952D01*
X83133Y57561D01*
X83742Y58355D01*
X84125Y59280D01*
X84203Y59872D01*
D02*
G37*
G36*
X80023D02*
X76643D01*
X76721Y59280D01*
X77104Y58355D01*
X77713Y57561D01*
X78506Y56952D01*
X79431Y56569D01*
X80023Y56492D01*
Y59872D01*
D02*
G37*
G36*
X181138Y60024D02*
Y56341D01*
X184820D01*
X184732Y57011D01*
X184319Y58009D01*
X183662Y58865D01*
X182806Y59522D01*
X181808Y59935D01*
X181138Y60024D01*
D02*
G37*
G36*
X180338D02*
X179667Y59935D01*
X178670Y59522D01*
X177814Y58865D01*
X177156Y58009D01*
X176743Y57011D01*
X176655Y56341D01*
X180338D01*
Y60024D01*
D02*
G37*
G36*
X134510Y100363D02*
X125824D01*
Y96401D01*
X134486D01*
X137306Y93581D01*
Y75978D01*
X127567Y66239D01*
X127280Y65809D01*
X127179Y65302D01*
Y59928D01*
X126437Y59621D01*
X125580Y58964D01*
X124923Y58107D01*
X124510Y57110D01*
X124369Y56039D01*
X124510Y54969D01*
X124923Y53972D01*
X125580Y53115D01*
X126437Y52458D01*
X127434Y52045D01*
X128505Y51904D01*
X129575Y52045D01*
X130572Y52458D01*
X131429Y53115D01*
X132086Y53972D01*
X132499Y54969D01*
X132640Y56039D01*
X132499Y57110D01*
X132086Y58107D01*
X131429Y58964D01*
X130572Y59621D01*
X129830Y59928D01*
Y64753D01*
X139569Y74492D01*
X139856Y74922D01*
X139957Y75429D01*
Y94130D01*
X139856Y94637D01*
X139569Y95067D01*
X135317Y99319D01*
X134887Y99607D01*
X134510Y99681D01*
Y100363D01*
D02*
G37*
G36*
X184820Y55541D02*
X181138D01*
Y51858D01*
X181808Y51947D01*
X182806Y52360D01*
X183662Y53017D01*
X184319Y53873D01*
X184732Y54871D01*
X184820Y55541D01*
D02*
G37*
G36*
X180338D02*
X176655D01*
X176743Y54871D01*
X177156Y53873D01*
X177814Y53017D01*
X178670Y52360D01*
X179667Y51947D01*
X180338Y51858D01*
Y55541D01*
D02*
G37*
G36*
X162857Y85363D02*
X154170D01*
Y81401D01*
X157188D01*
Y59932D01*
X156437Y59621D01*
X155580Y58964D01*
X154923Y58107D01*
X154510Y57110D01*
X154369Y56039D01*
X154510Y54969D01*
X154923Y53972D01*
X155580Y53115D01*
X156437Y52458D01*
X157434Y52045D01*
X158504Y51904D01*
X159575Y52045D01*
X160572Y52458D01*
X161429Y53115D01*
X162086Y53972D01*
X162393Y54714D01*
X166808D01*
X167156Y53873D01*
X167814Y53017D01*
X168670Y52360D01*
X169667Y51947D01*
X170738Y51806D01*
X171808Y51947D01*
X172806Y52360D01*
X173662Y53017D01*
X174319Y53873D01*
X174732Y54871D01*
X174873Y55941D01*
X174732Y57011D01*
X174319Y58009D01*
X173662Y58865D01*
X172806Y59522D01*
X171808Y59935D01*
X170738Y60076D01*
X169667Y59935D01*
X168670Y59522D01*
X167814Y58865D01*
X167156Y58009D01*
X166890Y57365D01*
X162393D01*
X162086Y58107D01*
X161429Y58964D01*
X160572Y59621D01*
X159839Y59925D01*
Y81401D01*
X162857D01*
Y85363D01*
D02*
G37*
%LPD*%
D10*
X11811Y11811D02*
D03*
X578740Y11811D02*
D03*
Y381890D02*
D03*
X11811Y381890D02*
D03*
Y11811D02*
D03*
X578740D02*
D03*
Y381890D02*
D03*
X11811Y381890D02*
D03*
D11*
X118848Y108697D02*
D03*
X121407Y99839D02*
D03*
X116289D02*
D03*
X390718Y108697D02*
D03*
X393277Y99839D02*
D03*
X388159D02*
D03*
D12*
X152143Y153582D02*
D03*
Y165196D02*
D03*
X215305Y177890D02*
D03*
Y166276D02*
D03*
X424013Y153582D02*
D03*
Y165196D02*
D03*
X487175Y177890D02*
D03*
Y166276D02*
D03*
D13*
X76722Y231236D02*
D03*
X82824D02*
D03*
X223179Y165980D02*
D03*
X229281D02*
D03*
X134596Y105744D02*
D03*
X128494D02*
D03*
X122391Y93382D02*
D03*
X116289D02*
D03*
X223480Y187247D02*
D03*
X229583D02*
D03*
X221407Y141276D02*
D03*
X215305D02*
D03*
X221407Y135173D02*
D03*
X215305D02*
D03*
X243694D02*
D03*
X249797D02*
D03*
X153691Y210869D02*
D03*
X147588D02*
D03*
X111466Y146000D02*
D03*
X105364D02*
D03*
X111466Y139898D02*
D03*
X105364D02*
D03*
X111466Y133795D02*
D03*
X105364D02*
D03*
X111860Y218527D02*
D03*
X105757D02*
D03*
X111860Y212424D02*
D03*
X105757D02*
D03*
X111860Y206322D02*
D03*
X105757D02*
D03*
X348592Y231236D02*
D03*
X354695D02*
D03*
X495049Y165980D02*
D03*
X501151D02*
D03*
X406466Y105744D02*
D03*
X400364D02*
D03*
X394262Y93382D02*
D03*
X388159D02*
D03*
X495350Y187247D02*
D03*
X501453D02*
D03*
X493277Y141276D02*
D03*
X487175D02*
D03*
X493277Y135173D02*
D03*
X487175D02*
D03*
X515565D02*
D03*
X521667D02*
D03*
X425561Y210869D02*
D03*
X419458D02*
D03*
X383336Y146000D02*
D03*
X377234D02*
D03*
X383336Y139898D02*
D03*
X377234D02*
D03*
X383336Y133795D02*
D03*
X377234D02*
D03*
X383730Y218527D02*
D03*
X377627D02*
D03*
X383730Y212424D02*
D03*
X377627D02*
D03*
X383730Y206322D02*
D03*
X377627D02*
D03*
D14*
X142876Y191669D02*
D03*
X154136D02*
D03*
X414746D02*
D03*
X426006D02*
D03*
D15*
X142842Y153582D02*
D03*
Y164841D02*
D03*
X414712Y153582D02*
D03*
Y164841D02*
D03*
D16*
X156793Y177774D02*
D03*
X142842D02*
D03*
X238311Y98264D02*
D03*
X224360D02*
D03*
X428664Y177774D02*
D03*
X414712D02*
D03*
X510181Y98264D02*
D03*
X496230D02*
D03*
D17*
X214136Y92161D02*
D03*
Y98264D02*
D03*
X194439Y92161D02*
D03*
Y98264D02*
D03*
X166289Y98382D02*
D03*
Y92279D02*
D03*
X173474Y216965D02*
D03*
Y210862D02*
D03*
X159872Y159681D02*
D03*
Y153579D02*
D03*
X93454Y200220D02*
D03*
Y194117D02*
D03*
X82529Y200220D02*
D03*
Y194117D02*
D03*
X76427Y200220D02*
D03*
Y194117D02*
D03*
X486006Y92161D02*
D03*
Y98264D02*
D03*
X466309Y92161D02*
D03*
Y98264D02*
D03*
X438159Y98382D02*
D03*
Y92279D02*
D03*
X445344Y216965D02*
D03*
Y210862D02*
D03*
X431742Y159681D02*
D03*
Y153579D02*
D03*
X365324Y200220D02*
D03*
Y194117D02*
D03*
X354399Y200220D02*
D03*
Y194117D02*
D03*
X348297Y200220D02*
D03*
Y194117D02*
D03*
D18*
X204281Y102988D02*
D03*
X208021Y92161D02*
D03*
X200541D02*
D03*
X223474Y181236D02*
D03*
X230954D02*
D03*
X227214Y171984D02*
D03*
X163533Y221689D02*
D03*
X159793Y210862D02*
D03*
X167273D02*
D03*
X76623Y215476D02*
D03*
X84104D02*
D03*
X80364Y206224D02*
D03*
X95718Y215476D02*
D03*
X91978Y206224D02*
D03*
X99458D02*
D03*
X476151Y102988D02*
D03*
X479891Y92161D02*
D03*
X472411D02*
D03*
X495344Y181236D02*
D03*
X502824D02*
D03*
X499084Y171984D02*
D03*
X435403Y221689D02*
D03*
X431663Y210862D02*
D03*
X439143D02*
D03*
X348494Y215476D02*
D03*
X355974D02*
D03*
X352234Y206224D02*
D03*
X367588Y215476D02*
D03*
X363848Y206224D02*
D03*
X371328D02*
D03*
D19*
X171407Y76118D02*
D03*
X183021D02*
D03*
X226919Y158205D02*
D03*
X215305D02*
D03*
X226919Y148959D02*
D03*
X215305D02*
D03*
X88041Y136893D02*
D03*
X76427D02*
D03*
X88336Y223559D02*
D03*
X76722D02*
D03*
X111466Y198547D02*
D03*
X99852D02*
D03*
X111466Y189295D02*
D03*
X99852D02*
D03*
X443277Y76118D02*
D03*
X454891D02*
D03*
X498789Y158205D02*
D03*
X487175D02*
D03*
X498789Y148959D02*
D03*
X487175D02*
D03*
X359911Y136893D02*
D03*
X348297D02*
D03*
X360206Y223559D02*
D03*
X348592D02*
D03*
X383336Y198547D02*
D03*
X371722D02*
D03*
X383336Y189295D02*
D03*
X371722D02*
D03*
D20*
X182037Y106113D02*
D03*
Y92161D02*
D03*
X453907Y106113D02*
D03*
Y92161D02*
D03*
D21*
X130167Y98382D02*
D03*
Y93382D02*
D03*
Y88382D02*
D03*
Y83382D02*
D03*
X158513Y98382D02*
D03*
Y93382D02*
D03*
Y88382D02*
D03*
Y83382D02*
D03*
X402037Y98382D02*
D03*
Y93382D02*
D03*
Y88382D02*
D03*
Y83382D02*
D03*
X430383Y98382D02*
D03*
Y93382D02*
D03*
Y88382D02*
D03*
Y83382D02*
D03*
D22*
X248080Y171970D02*
D03*
Y152117D02*
D03*
Y187247D02*
D03*
Y207100D02*
D03*
X192372Y222659D02*
D03*
Y202805D02*
D03*
X105757Y176977D02*
D03*
Y157124D02*
D03*
X59498Y220087D02*
D03*
Y200234D02*
D03*
X519950Y171970D02*
D03*
Y152117D02*
D03*
Y187247D02*
D03*
Y207100D02*
D03*
X464242Y222659D02*
D03*
Y202805D02*
D03*
X377627Y176977D02*
D03*
Y157124D02*
D03*
X331368Y220087D02*
D03*
Y200234D02*
D03*
D23*
X221505Y219806D02*
D03*
Y202902D02*
D03*
X79084Y175909D02*
D03*
Y159005D02*
D03*
X493376Y219806D02*
D03*
Y202902D02*
D03*
X350954Y175909D02*
D03*
Y159005D02*
D03*
D24*
X153734Y251591D02*
D03*
Y261591D02*
D03*
Y241591D02*
D03*
Y231591D02*
D03*
X126175Y261591D02*
D03*
Y251591D02*
D03*
Y241591D02*
D03*
Y231591D02*
D03*
X425604Y251591D02*
D03*
Y261591D02*
D03*
Y241591D02*
D03*
Y231591D02*
D03*
X398045Y261591D02*
D03*
Y251591D02*
D03*
Y241591D02*
D03*
Y231591D02*
D03*
D25*
X172962Y256630D02*
D03*
X162962D02*
D03*
Y231039D02*
D03*
X172962D02*
D03*
X444832Y256630D02*
D03*
X434832D02*
D03*
Y231039D02*
D03*
X444832D02*
D03*
D26*
X192372Y251783D02*
D03*
Y237019D02*
D03*
X464242Y251783D02*
D03*
Y237019D02*
D03*
D27*
X167864Y181669D02*
D03*
Y176669D02*
D03*
Y186669D02*
D03*
Y191669D02*
D03*
X189321Y176669D02*
D03*
Y186669D02*
D03*
Y181669D02*
D03*
Y191669D02*
D03*
X439734Y181669D02*
D03*
Y176669D02*
D03*
Y186669D02*
D03*
Y191669D02*
D03*
X461191Y176669D02*
D03*
Y186669D02*
D03*
Y181669D02*
D03*
Y191669D02*
D03*
D28*
X153734Y223067D02*
D03*
X144679D02*
D03*
X425604D02*
D03*
X416549D02*
D03*
D29*
X190867Y153579D02*
D03*
X171013D02*
D03*
X462737D02*
D03*
X442883D02*
D03*
D30*
X180659Y191669D02*
Y210946D01*
Y170016D02*
Y191669D01*
X189321D01*
X180575Y210862D02*
X180659Y210946D01*
X223324Y98264D02*
Y106335D01*
X111466Y198547D02*
X111466Y198547D01*
Y189295D02*
Y198547D01*
Y189295D02*
X111466Y189295D01*
X119635Y181125D01*
Y173165D02*
Y181125D01*
Y173165D02*
X139219Y153582D01*
X142842Y164841D02*
Y177774D01*
X142876Y177808D01*
Y191669D01*
X139219Y153582D02*
X142842D01*
X215305Y158205D02*
X215305Y158205D01*
Y166276D01*
X186860D02*
X215305D01*
X174163Y153579D02*
X186860Y166276D01*
X171013Y153579D02*
X174163D01*
X159872D02*
X171013D01*
X159869Y153582D02*
X159872Y153579D01*
X152143Y153582D02*
X159869D01*
X142842D02*
X152143D01*
X162962Y186669D02*
X167864D01*
X156793Y180501D02*
X162962Y186669D01*
X156793Y177774D02*
Y180501D01*
X154136Y191669D02*
X167864D01*
X156963Y170016D02*
X180659D01*
X152143Y165196D02*
X156963Y170016D01*
X167864Y191669D02*
X180659D01*
X162037Y281039D02*
X167218D01*
X216892Y92161D02*
X222994Y98264D01*
X214136Y92161D02*
X216892D01*
X173474Y210862D02*
X180575D01*
X180659Y210946D02*
X192372Y222659D01*
X174439Y98382D02*
X180659Y92161D01*
X166289Y98382D02*
X174439D01*
X180659Y92161D02*
X182037D01*
X181643Y246394D02*
Y266614D01*
X167218Y281039D02*
X181643Y266614D01*
X191018Y237019D02*
X192372D01*
X181643Y246394D02*
X191018Y237019D01*
X158513Y98382D02*
X166289D01*
X182037Y92161D02*
X194439D01*
X200541D01*
X208021D02*
X214136D01*
X153734Y223067D02*
Y231591D01*
X153691Y223024D02*
X153734Y223067D01*
X153691Y210869D02*
Y223024D01*
Y210869D02*
X153697Y210862D01*
X159793D01*
X192372Y222659D02*
Y237019D01*
X173474Y210862D02*
X173474Y210862D01*
X167273Y210862D02*
X173474D01*
X452529Y191669D02*
Y210946D01*
Y170016D02*
Y191669D01*
X461191D01*
X452445Y210862D02*
X452529Y210946D01*
X495194Y98264D02*
Y106335D01*
X383336Y198547D02*
X383336Y198547D01*
Y189295D02*
Y198547D01*
Y189295D02*
X383336Y189295D01*
X391506Y181125D01*
Y173165D02*
Y181125D01*
Y173165D02*
X411089Y153582D01*
X414712Y164841D02*
Y177774D01*
X414746Y177808D01*
Y191669D01*
X411089Y153582D02*
X414712D01*
X487175Y158205D02*
X487175Y158205D01*
Y166276D01*
X458730D02*
X487175D01*
X446033Y153579D02*
X458730Y166276D01*
X442883Y153579D02*
X446033D01*
X431742D02*
X442883D01*
X431739Y153582D02*
X431742Y153579D01*
X424013Y153582D02*
X431739D01*
X414712D02*
X424013D01*
X434832Y186669D02*
X439734D01*
X428664Y180501D02*
X434832Y186669D01*
X428664Y177774D02*
Y180501D01*
X426006Y191669D02*
X439734D01*
X428833Y170016D02*
X452529D01*
X424013Y165196D02*
X428833Y170016D01*
X439734Y191669D02*
X452529D01*
X433907Y281039D02*
X439088D01*
X488762Y92161D02*
X494865Y98264D01*
X486006Y92161D02*
X488762D01*
X445344Y210862D02*
X452445D01*
X452529Y210946D02*
X464242Y222659D01*
X446309Y98382D02*
X452529Y92161D01*
X438159Y98382D02*
X446309D01*
X452529Y92161D02*
X453907D01*
X453513Y246394D02*
Y266614D01*
X439088Y281039D02*
X453513Y266614D01*
X462888Y237019D02*
X464242D01*
X453513Y246394D02*
X462888Y237019D01*
X430383Y98382D02*
X438159D01*
X453907Y92161D02*
X466309D01*
X472411D01*
X479891D02*
X486006D01*
X425604Y223067D02*
Y231591D01*
X425561Y223024D02*
X425604Y223067D01*
X425561Y210869D02*
Y223024D01*
Y210869D02*
X425567Y210862D01*
X431663D01*
X464242Y222659D02*
Y237019D01*
X445344Y210862D02*
X445344Y210862D01*
X439143Y210862D02*
X445344D01*
D31*
X70489Y209341D02*
X76623Y215476D01*
X70489Y200234D02*
X76314D01*
X59498D02*
X70489D01*
Y209341D01*
X213075Y76118D02*
X224394Y64799D01*
X183021Y76118D02*
X213075D01*
X233480Y54799D02*
X239150Y60469D01*
X214394Y54799D02*
X233480D01*
X204394Y64799D02*
X214394Y54799D01*
X170639Y56039D02*
X170738Y55941D01*
X158504Y56039D02*
X170639D01*
X158504D02*
X158513Y56048D01*
Y83382D01*
X148504Y56039D02*
Y82711D01*
X138505Y56039D02*
Y65263D01*
X128505Y56039D02*
Y65302D01*
X70423Y60272D02*
Y70016D01*
X104297Y126823D02*
X105364Y127890D01*
Y133795D01*
X104297Y120622D02*
Y126823D01*
X221407Y127791D02*
Y135173D01*
X214238Y120622D02*
X221407Y127791D01*
X209797Y120622D02*
X214238D01*
X105620Y251591D02*
X126175D01*
X76427Y132752D02*
Y136893D01*
X64297Y120622D02*
X76427Y132752D01*
X124852Y120410D02*
X196998D01*
X112836Y132425D02*
X124852Y120410D01*
X112738Y132425D02*
X112836D01*
X111466Y133697D02*
X112738Y132425D01*
X111466Y133697D02*
Y133795D01*
X116289Y139996D02*
X126919Y129366D01*
X120718Y146000D02*
X129084Y137634D01*
X105757Y176977D02*
X105757Y176977D01*
Y206322D01*
X79084Y175909D02*
Y178271D01*
X81734Y180921D01*
X81943D01*
X82529Y181506D01*
Y194117D01*
X94183Y261591D02*
X126175D01*
X76722Y244130D02*
X94183Y261591D01*
X76722Y231236D02*
Y244130D01*
X59498Y235323D02*
X64297Y240122D01*
X59498Y220087D02*
Y235323D01*
X76722Y231236D02*
X76722Y231236D01*
X76722Y223559D02*
Y231236D01*
X84104Y219327D02*
X88336Y223559D01*
X84104Y215476D02*
Y219327D01*
X88336Y223559D02*
X100725D01*
X104387Y219897D01*
X104486D01*
X105757Y218625D01*
Y218527D02*
Y218625D01*
X111860Y212424D02*
Y218527D01*
X88789Y88382D02*
X130167D01*
X116289Y93382D02*
X116289Y93382D01*
X116289Y93382D02*
Y99839D01*
X128395Y172772D02*
Y223067D01*
X128494Y105766D02*
X128505Y105755D01*
X118848Y108894D02*
Y114504D01*
Y108894D02*
X118848Y108894D01*
X128494Y105766D02*
Y112432D01*
Y105744D02*
X128505Y105755D01*
X234104Y165980D02*
X235187Y167063D01*
X229281Y165980D02*
X234104D01*
X235088Y176677D02*
Y177102D01*
X230954Y181236D02*
X235088Y177102D01*
X209498Y129366D02*
X213935Y133803D01*
X126919Y129366D02*
X209498D01*
X206840Y137634D02*
X210482Y141276D01*
X129084Y137634D02*
X206840D01*
X210482Y141276D02*
X215305D01*
X213935Y133803D02*
X214033D01*
X215305Y177890D02*
Y194270D01*
X221505Y200471D01*
X111565Y139996D02*
X116289D01*
X111466Y146000D02*
X120718D01*
X188417Y266866D02*
X203053D01*
X221505Y219806D02*
Y228413D01*
X209797Y240122D02*
X221505Y228413D01*
Y200471D02*
Y202902D01*
X227411Y193244D02*
X243159D01*
X223480Y189313D02*
X227411Y193244D01*
X223480Y187247D02*
Y189313D01*
X248080Y187247D02*
Y188323D01*
X243159Y193244D02*
X248080Y188323D01*
X223474Y187240D02*
X223480Y187247D01*
X223474Y181236D02*
Y187240D01*
X221210Y171984D02*
X227214D01*
X215305Y177890D02*
X221210Y171984D01*
X248066D02*
X248080Y171970D01*
X227214Y171984D02*
X248066D01*
X229281Y164012D02*
Y165980D01*
X226919Y161650D02*
X229281Y164012D01*
X226919Y158205D02*
Y161650D01*
Y148959D02*
Y158205D01*
X214033Y133803D02*
X215305Y135075D01*
Y135173D01*
X215305Y148959D02*
X215305Y148959D01*
Y141276D02*
Y148959D01*
X248080Y148953D02*
Y152117D01*
X243694Y144567D02*
X248080Y148953D01*
X243694Y135173D02*
Y144567D01*
X249797Y120622D02*
Y135173D01*
X243694Y124193D02*
Y135173D01*
X232726Y113224D02*
X243694Y124193D01*
X204183Y113224D02*
X232726D01*
X229797Y120622D02*
Y134756D01*
X223277Y141276D02*
X229797Y134756D01*
X221407Y141276D02*
X223277D01*
X93454Y194117D02*
X98277Y189295D01*
X99852D01*
X91978Y206224D02*
X92564Y205638D01*
Y201012D02*
Y205638D01*
Y201012D02*
X93356Y200220D01*
X157923Y251591D02*
X162962Y256630D01*
X153734Y251591D02*
X157923D01*
X162962Y231039D02*
Y233087D01*
X159399Y236650D02*
X162962Y233087D01*
X143651Y236650D02*
X159399D01*
X133317Y226315D02*
X143651Y236650D01*
X133317Y167949D02*
Y226315D01*
X126175Y225288D02*
Y231591D01*
Y225288D02*
X128395Y223067D01*
X138180D02*
X144679D01*
X70423Y70016D02*
X88789Y88382D01*
X196998Y120410D02*
X204183Y113224D01*
X89812Y133992D02*
X105364D01*
X88041Y135764D02*
X89812Y133992D01*
X88041Y135764D02*
Y136893D01*
X93356Y200220D02*
X93454D01*
X151508Y93360D02*
X151530Y93382D01*
X144045Y85897D02*
X151508Y93360D01*
X139124Y105744D02*
X151508Y93360D01*
X134596Y105744D02*
X139124D01*
X151530Y93382D02*
X158513D01*
X144045Y70803D02*
Y85897D01*
X203053Y266866D02*
X229797Y240122D01*
X164963Y260560D02*
Y271977D01*
X163683Y259280D02*
X164963Y260560D01*
X163643Y259280D02*
X163683D01*
X162962Y258598D02*
X163643Y259280D01*
X162962Y256630D02*
Y258598D01*
X154714Y261591D02*
X159990Y266866D01*
X153734Y261591D02*
X154714D01*
X154175Y88382D02*
X158513D01*
X148504Y82711D02*
X154175Y88382D01*
X171407Y79268D02*
Y79760D01*
X163417Y87750D02*
X171407Y79760D01*
X138631Y75429D02*
Y94130D01*
X134379Y98382D02*
X138631Y94130D01*
X130167Y98382D02*
X134379D01*
X83218Y144819D02*
X93942D01*
X76427Y138028D02*
X83218Y144819D01*
X76427Y136893D02*
Y138028D01*
X93942Y144819D02*
X98863Y139898D01*
X105364D01*
X209797Y239783D02*
Y240122D01*
X99753Y146000D02*
X105364D01*
X105364Y146000D01*
X116289Y93382D02*
Y93480D01*
X122391Y93382D02*
X130167D01*
X159145Y87750D02*
X163417D01*
X158513Y88382D02*
X159145Y87750D01*
X128505Y65302D02*
X138631Y75429D01*
X138505Y65263D02*
X144045Y70803D01*
X158504Y83373D02*
X158513Y83382D01*
X79084Y159005D02*
X79097Y158992D01*
X86072D01*
X111466Y139898D02*
X111565Y139996D01*
X126175Y241591D02*
X153734D01*
X76427Y200220D02*
X82529D01*
X76314Y200234D02*
X76328Y200220D01*
X91203Y215476D02*
X95718D01*
X88028Y194117D02*
X93454D01*
X82529D02*
X88028D01*
X111860Y206322D02*
Y212424D01*
X99458Y206224D02*
X105659D01*
X99852Y198547D02*
Y198554D01*
X98186Y200220D02*
X99852Y198554D01*
X93454Y200220D02*
X98186D01*
X91978Y206224D02*
X91978Y206224D01*
X80364Y206224D02*
X91978D01*
X76328Y200220D02*
X76427D01*
X342359Y209341D02*
X348494Y215476D01*
X342359Y200234D02*
X348184D01*
X331368D02*
X342359D01*
Y209341D01*
X484946Y76118D02*
X496265Y64799D01*
X454891Y76118D02*
X484946D01*
X505350Y54799D02*
X511020Y60469D01*
X486265Y54799D02*
X505350D01*
X476264Y64799D02*
X486265Y54799D01*
X442510Y56039D02*
X442608Y55941D01*
X430375Y56039D02*
X442510D01*
X430375D02*
X430383Y56048D01*
Y83382D01*
X420375Y56039D02*
Y82711D01*
X410375Y56039D02*
Y65263D01*
X400375Y56039D02*
Y65302D01*
X342293Y60272D02*
Y70016D01*
X376167Y126823D02*
X377234Y127890D01*
Y133795D01*
X376167Y120622D02*
Y126823D01*
X493277Y127791D02*
Y135173D01*
X486108Y120622D02*
X493277Y127791D01*
X481667Y120622D02*
X486108D01*
X377490Y251591D02*
X398045D01*
X348297Y132752D02*
Y136893D01*
X336167Y120622D02*
X348297Y132752D01*
X396722Y120410D02*
X468868D01*
X384706Y132425D02*
X396722Y120410D01*
X384608Y132425D02*
X384706D01*
X383336Y133697D02*
X384608Y132425D01*
X383336Y133697D02*
Y133795D01*
X388159Y139996D02*
X398789Y129366D01*
X392588Y146000D02*
X400954Y137634D01*
X377627Y176977D02*
X377627Y176977D01*
Y206322D01*
X350954Y175909D02*
Y178271D01*
X353604Y180921D01*
X353813D01*
X354399Y181506D01*
Y194117D01*
X366053Y261591D02*
X398045D01*
X348592Y244130D02*
X366053Y261591D01*
X348592Y231236D02*
Y244130D01*
X331368Y235323D02*
X336167Y240122D01*
X331368Y220087D02*
Y235323D01*
X348592Y231236D02*
X348592Y231236D01*
X348592Y223559D02*
Y231236D01*
X355974Y219327D02*
X360206Y223559D01*
X355974Y215476D02*
Y219327D01*
X360206Y223559D02*
X372595D01*
X376257Y219897D01*
X376356D01*
X377627Y218625D01*
Y218527D02*
Y218625D01*
X383730Y212424D02*
Y218527D01*
X360659Y88382D02*
X402037D01*
X388159Y93382D02*
X388159Y93382D01*
X388159Y93382D02*
Y99839D01*
X400266Y172772D02*
Y223067D01*
X400364Y105766D02*
X400375Y105755D01*
X390718Y108894D02*
Y114504D01*
Y108894D02*
X390718Y108894D01*
X400364Y105766D02*
Y112432D01*
Y105744D02*
X400375Y105755D01*
X505974Y165980D02*
X507057Y167063D01*
X501151Y165980D02*
X505974D01*
X506958Y176677D02*
Y177102D01*
X502824Y181236D02*
X506958Y177102D01*
X481368Y129366D02*
X485805Y133803D01*
X398789Y129366D02*
X481368D01*
X478710Y137634D02*
X482352Y141276D01*
X400954Y137634D02*
X478710D01*
X482352Y141276D02*
X487175D01*
X485805Y133803D02*
X485903D01*
X487175Y177890D02*
Y194270D01*
X493376Y200471D01*
X383435Y139996D02*
X388159D01*
X383336Y146000D02*
X392588D01*
X460287Y266866D02*
X474923D01*
X493376Y219806D02*
Y228413D01*
X481667Y240122D02*
X493376Y228413D01*
Y200471D02*
Y202902D01*
X499281Y193244D02*
X515029D01*
X495350Y189313D02*
X499281Y193244D01*
X495350Y187247D02*
Y189313D01*
X519950Y187247D02*
Y188323D01*
X515029Y193244D02*
X519950Y188323D01*
X495344Y187240D02*
X495350Y187247D01*
X495344Y181236D02*
Y187240D01*
X493080Y171984D02*
X499084D01*
X487175Y177890D02*
X493080Y171984D01*
X519936D02*
X519950Y171970D01*
X499084Y171984D02*
X519936D01*
X501151Y164012D02*
Y165980D01*
X498789Y161650D02*
X501151Y164012D01*
X498789Y158205D02*
Y161650D01*
Y148959D02*
Y158205D01*
X485903Y133803D02*
X487175Y135075D01*
Y135173D01*
X487175Y148959D02*
X487175Y148959D01*
Y141276D02*
Y148959D01*
X519950Y148953D02*
Y152117D01*
X515565Y144567D02*
X519950Y148953D01*
X515565Y135173D02*
Y144567D01*
X521667Y120622D02*
Y135173D01*
X515565Y124193D02*
Y135173D01*
X504596Y113224D02*
X515565Y124193D01*
X476053Y113224D02*
X504596D01*
X501667Y120622D02*
Y134756D01*
X495147Y141276D02*
X501667Y134756D01*
X493277Y141276D02*
X495147D01*
X365324Y194117D02*
X370147Y189295D01*
X371722D01*
X363848Y206224D02*
X364434Y205638D01*
Y201012D02*
Y205638D01*
Y201012D02*
X365226Y200220D01*
X429793Y251591D02*
X434832Y256630D01*
X425604Y251591D02*
X429793D01*
X434832Y231039D02*
Y233087D01*
X431269Y236650D02*
X434832Y233087D01*
X415521Y236650D02*
X431269D01*
X405187Y226315D02*
X415521Y236650D01*
X405187Y167949D02*
Y226315D01*
X398045Y225288D02*
Y231591D01*
Y225288D02*
X400266Y223067D01*
X410050D02*
X416549D01*
X342293Y70016D02*
X360659Y88382D01*
X468868Y120410D02*
X476053Y113224D01*
X361683Y133992D02*
X377234D01*
X359911Y135764D02*
X361683Y133992D01*
X359911Y135764D02*
Y136893D01*
X365226Y200220D02*
X365324D01*
X423378Y93360D02*
X423400Y93382D01*
X415915Y85897D02*
X423378Y93360D01*
X410994Y105744D02*
X423378Y93360D01*
X406466Y105744D02*
X410994D01*
X423400Y93382D02*
X430383D01*
X415915Y70803D02*
Y85897D01*
X474923Y266866D02*
X501667Y240122D01*
X436833Y260560D02*
Y271977D01*
X435553Y259280D02*
X436833Y260560D01*
X435513Y259280D02*
X435553D01*
X434832Y258598D02*
X435513Y259280D01*
X434832Y256630D02*
Y258598D01*
X426584Y261591D02*
X431860Y266866D01*
X425604Y261591D02*
X426584D01*
X426045Y88382D02*
X430383D01*
X420375Y82711D02*
X426045Y88382D01*
X443277Y79268D02*
Y79760D01*
X435287Y87750D02*
X443277Y79760D01*
X410502Y75429D02*
Y94130D01*
X406250Y98382D02*
X410502Y94130D01*
X402037Y98382D02*
X406250D01*
X355088Y144819D02*
X365812D01*
X348297Y138028D02*
X355088Y144819D01*
X348297Y136893D02*
Y138028D01*
X365812Y144819D02*
X370733Y139898D01*
X377234D01*
X481667Y239783D02*
Y240122D01*
X371623Y146000D02*
X377234D01*
X377234Y146000D01*
X388159Y93382D02*
Y93480D01*
X394262Y93382D02*
X402037D01*
X431015Y87750D02*
X435287D01*
X430383Y88382D02*
X431015Y87750D01*
X400375Y65302D02*
X410502Y75429D01*
X410375Y65263D02*
X415915Y70803D01*
X430375Y83373D02*
X430383Y83382D01*
X350954Y159005D02*
X350967Y158992D01*
X357943D01*
X383336Y139898D02*
X383435Y139996D01*
X398045Y241591D02*
X425604D01*
X348297Y200220D02*
X354399D01*
X348184Y200234D02*
X348198Y200220D01*
X363073Y215476D02*
X367588D01*
X359898Y194117D02*
X365324D01*
X354399D02*
X359898D01*
X383730Y206322D02*
Y212424D01*
X371328Y206224D02*
X377529D01*
X371722Y198547D02*
Y198554D01*
X370057Y200220D02*
X371722Y198554D01*
X365324Y200220D02*
X370057D01*
X363848Y206224D02*
X363848Y206224D01*
X352234Y206224D02*
X363848D01*
X348198Y200220D02*
X348297D01*
D32*
X312106Y295374D02*
D03*
Y291437D02*
D03*
Y287500D02*
D03*
Y279626D02*
D03*
Y283563D02*
D03*
Y84449D02*
D03*
Y80511D02*
D03*
Y88386D02*
D03*
Y92323D02*
D03*
Y96260D02*
D03*
X545669Y283563D02*
D03*
Y279626D02*
D03*
Y287500D02*
D03*
Y291437D02*
D03*
Y295374D02*
D03*
Y84449D02*
D03*
Y80511D02*
D03*
Y88386D02*
D03*
Y92323D02*
D03*
Y96260D02*
D03*
X273819D02*
D03*
Y92323D02*
D03*
Y88386D02*
D03*
Y80511D02*
D03*
Y84449D02*
D03*
Y295374D02*
D03*
Y291437D02*
D03*
Y287500D02*
D03*
Y279626D02*
D03*
Y283563D02*
D03*
X40256Y96260D02*
D03*
Y92323D02*
D03*
Y88386D02*
D03*
Y80511D02*
D03*
Y84449D02*
D03*
Y283563D02*
D03*
Y279626D02*
D03*
Y287500D02*
D03*
Y291437D02*
D03*
Y295374D02*
D03*
D33*
X152037Y281039D02*
D03*
X162037D02*
D03*
X70423Y60272D02*
D03*
X80423D02*
D03*
X249150Y60469D02*
D03*
X239150D02*
D03*
X423907Y281039D02*
D03*
X433907D02*
D03*
X342293Y60272D02*
D03*
X352293D02*
D03*
X521020Y60469D02*
D03*
X511020D02*
D03*
D34*
X148504Y56039D02*
D03*
X158504D02*
D03*
X128505D02*
D03*
X138505D02*
D03*
X180738Y55941D02*
D03*
X170738D02*
D03*
X420375Y56039D02*
D03*
X430375D02*
D03*
X400375D02*
D03*
X410375D02*
D03*
X452608Y55941D02*
D03*
X442608D02*
D03*
D35*
X224394Y64799D02*
D03*
X496265D02*
D03*
D36*
X214394Y54799D02*
D03*
X204394Y64799D02*
D03*
X486265Y54799D02*
D03*
X476264Y64799D02*
D03*
D37*
X249797Y240122D02*
D03*
X229797D02*
D03*
X209797D02*
D03*
X249797Y120622D02*
D03*
X229797D02*
D03*
X209797D02*
D03*
X104297Y240122D02*
D03*
X84297D02*
D03*
X64297D02*
D03*
X104297Y120622D02*
D03*
X84297D02*
D03*
X64297D02*
D03*
X521667Y240122D02*
D03*
X501667D02*
D03*
X481667D02*
D03*
X521667Y120622D02*
D03*
X501667D02*
D03*
X481667D02*
D03*
X376167Y240122D02*
D03*
X356167D02*
D03*
X336167D02*
D03*
X376167Y120622D02*
D03*
X356167D02*
D03*
X336167D02*
D03*
D38*
X179708Y311722D02*
D03*
X243606D02*
D03*
X179708Y336722D02*
D03*
X243606D02*
D03*
X179708Y286722D02*
D03*
X243606D02*
D03*
X70489Y311722D02*
D03*
X134387D02*
D03*
X70489Y336722D02*
D03*
X134387D02*
D03*
X70489Y286722D02*
D03*
X134387D02*
D03*
X451578Y311722D02*
D03*
X515476D02*
D03*
X451578Y336722D02*
D03*
X515476D02*
D03*
X451578Y286722D02*
D03*
X515476D02*
D03*
X342359Y311722D02*
D03*
X406257D02*
D03*
X342359Y336722D02*
D03*
X406257D02*
D03*
X342359Y286722D02*
D03*
X406257D02*
D03*
D39*
X171309Y284878D02*
D03*
X178198Y278087D02*
D03*
X198376Y231039D02*
D03*
X69824Y196591D02*
D03*
X124458Y161453D02*
D03*
X159793Y272035D02*
D03*
X194324Y64857D02*
D03*
X66092Y204522D02*
D03*
X82234Y223715D02*
D03*
X75246Y206195D02*
D03*
X88028Y189352D02*
D03*
X186269Y170902D02*
D03*
X248080Y141276D02*
D03*
X194439Y124740D02*
D03*
X227214Y176874D02*
D03*
X124458Y114504D02*
D03*
Y126236D02*
D03*
Y136992D02*
D03*
Y147772D02*
D03*
X192372Y212031D02*
D03*
X221998Y235665D02*
D03*
X214813Y228413D02*
D03*
Y198756D02*
D03*
X234104Y197083D02*
D03*
Y187247D02*
D03*
X124458Y175446D02*
D03*
X137647Y200471D02*
D03*
X124458D02*
D03*
X173474Y164251D02*
D03*
X161269Y262831D02*
D03*
X170324Y270606D02*
D03*
X114813Y256630D02*
D03*
X134387Y236650D02*
D03*
X204183Y82711D02*
D03*
X214394Y64799D02*
D03*
X121407Y103972D02*
D03*
X153781Y65302D02*
D03*
X134379Y64799D02*
D03*
X144045Y93382D02*
D03*
X130167Y79268D02*
D03*
X222096Y161453D02*
D03*
X194324Y116669D02*
D03*
X176328Y106113D02*
D03*
X187943D02*
D03*
X182037Y113618D02*
D03*
X163533Y217161D02*
D03*
X142876Y210869D02*
D03*
X143848Y229465D02*
D03*
X147588Y158992D02*
D03*
X149852Y183795D02*
D03*
Y170902D02*
D03*
X137647D02*
D03*
X101033Y212424D02*
D03*
X171132Y92279D02*
D03*
X194439Y102988D02*
D03*
X204281Y98461D02*
D03*
X214136Y102988D02*
D03*
X238311Y92279D02*
D03*
X246013Y98264D02*
D03*
X238311Y104268D02*
D03*
X169424Y124740D02*
D03*
X144524D02*
D03*
X169424Y116669D02*
D03*
X144524D02*
D03*
X116781Y122378D02*
D03*
X194324Y141276D02*
D03*
X169424D02*
D03*
X144524D02*
D03*
X95915Y137484D02*
D03*
X76722Y125646D02*
D03*
X218750Y183795D02*
D03*
X214813Y171787D02*
D03*
X239937Y175446D02*
D03*
Y150546D02*
D03*
X242175Y116669D02*
D03*
X219537Y116965D02*
D03*
X236565Y129563D02*
D03*
X225639D02*
D03*
X215895D02*
D03*
X194324Y133795D02*
D03*
X169424D02*
D03*
X144524D02*
D03*
X114813Y175446D02*
D03*
X190867Y147772D02*
D03*
X199950Y153579D02*
D03*
X190867Y159386D02*
D03*
X159872Y164251D02*
D03*
X195029Y176669D02*
D03*
X173454Y181669D02*
D03*
X253986Y207100D02*
D03*
X248080Y216177D02*
D03*
X242175Y207100D02*
D03*
X186466Y202902D02*
D03*
X198179Y202805D02*
D03*
X186269Y251783D02*
D03*
X198376D02*
D03*
X192372Y259386D02*
D03*
X172962Y262437D02*
D03*
X169031Y256630D02*
D03*
X172962Y250933D02*
D03*
X176821Y256630D02*
D03*
X172962Y236822D02*
D03*
X176821Y231039D02*
D03*
X169031D02*
D03*
X173474Y221689D02*
D03*
X111466Y157124D02*
D03*
X105757Y165980D02*
D03*
X76427Y189491D02*
D03*
X87253Y231236D02*
D03*
X269024Y324846D02*
D03*
Y299946D02*
D03*
Y275046D02*
D03*
Y250146D02*
D03*
Y225246D02*
D03*
Y200346D02*
D03*
Y175446D02*
D03*
Y150546D02*
D03*
Y125646D02*
D03*
Y100746D02*
D03*
Y75846D02*
D03*
Y50946D02*
D03*
X244124Y349746D02*
D03*
Y324846D02*
D03*
Y299946D02*
D03*
Y275046D02*
D03*
Y250146D02*
D03*
Y225246D02*
D03*
Y75846D02*
D03*
Y50946D02*
D03*
X219224Y349746D02*
D03*
Y324846D02*
D03*
Y299946D02*
D03*
Y275046D02*
D03*
Y50946D02*
D03*
X194324Y349746D02*
D03*
Y324846D02*
D03*
Y299946D02*
D03*
Y275046D02*
D03*
Y50946D02*
D03*
X169424Y349746D02*
D03*
Y324846D02*
D03*
Y299946D02*
D03*
Y200346D02*
D03*
X144524Y349746D02*
D03*
Y324846D02*
D03*
Y299946D02*
D03*
Y275046D02*
D03*
Y250146D02*
D03*
Y50946D02*
D03*
X119624Y349746D02*
D03*
Y324846D02*
D03*
Y299946D02*
D03*
Y275046D02*
D03*
Y225246D02*
D03*
Y50946D02*
D03*
X94724Y349746D02*
D03*
Y324846D02*
D03*
Y299946D02*
D03*
Y275046D02*
D03*
Y250146D02*
D03*
Y175446D02*
D03*
Y150546D02*
D03*
Y125646D02*
D03*
Y100746D02*
D03*
Y75846D02*
D03*
Y50946D02*
D03*
X69824Y349746D02*
D03*
Y324846D02*
D03*
Y299946D02*
D03*
Y275046D02*
D03*
Y250146D02*
D03*
Y225246D02*
D03*
Y175446D02*
D03*
Y150546D02*
D03*
Y100746D02*
D03*
Y75846D02*
D03*
Y50946D02*
D03*
X44924Y324846D02*
D03*
Y299946D02*
D03*
Y275046D02*
D03*
Y250146D02*
D03*
Y225246D02*
D03*
Y200346D02*
D03*
Y175446D02*
D03*
Y150546D02*
D03*
Y125646D02*
D03*
Y100746D02*
D03*
Y75846D02*
D03*
Y50946D02*
D03*
X105620Y251591D02*
D03*
X128395Y172772D02*
D03*
X118848Y114504D02*
D03*
X128494Y112432D02*
D03*
X133317Y167949D02*
D03*
X116289Y139996D02*
D03*
X99753Y146000D02*
D03*
X235088Y167063D02*
D03*
X235088Y176677D02*
D03*
X188417Y266866D02*
D03*
X128395Y223067D02*
D03*
X138180D02*
D03*
X164963Y271977D02*
D03*
X159990Y266866D02*
D03*
X86072Y158992D02*
D03*
X91203Y215476D02*
D03*
X88028Y194117D02*
D03*
X443179Y284878D02*
D03*
X450069Y278087D02*
D03*
X470246Y231039D02*
D03*
X341694Y196591D02*
D03*
X396328Y161453D02*
D03*
X431663Y272035D02*
D03*
X466194Y64857D02*
D03*
X337962Y204522D02*
D03*
X354104Y223715D02*
D03*
X347116Y206195D02*
D03*
X359898Y189352D02*
D03*
X458139Y170902D02*
D03*
X519950Y141276D02*
D03*
X466309Y124740D02*
D03*
X499084Y176874D02*
D03*
X396328Y114504D02*
D03*
Y126236D02*
D03*
Y136992D02*
D03*
Y147772D02*
D03*
X464242Y212031D02*
D03*
X493868Y235665D02*
D03*
X486683Y228413D02*
D03*
Y198756D02*
D03*
X505974Y197083D02*
D03*
Y187247D02*
D03*
X396328Y175446D02*
D03*
X409517Y200471D02*
D03*
X396328D02*
D03*
X445344Y164251D02*
D03*
X433139Y262831D02*
D03*
X442195Y270606D02*
D03*
X386683Y256630D02*
D03*
X406257Y236650D02*
D03*
X476053Y82711D02*
D03*
X486265Y64799D02*
D03*
X393277Y103972D02*
D03*
X425652Y65302D02*
D03*
X406250Y64799D02*
D03*
X415915Y93382D02*
D03*
X402037Y79268D02*
D03*
X493966Y161453D02*
D03*
X466194Y116669D02*
D03*
X448198Y106113D02*
D03*
X459813D02*
D03*
X453907Y113618D02*
D03*
X435403Y217161D02*
D03*
X414746Y210869D02*
D03*
X415718Y229465D02*
D03*
X419458Y158992D02*
D03*
X421722Y183795D02*
D03*
Y170902D02*
D03*
X409517D02*
D03*
X372903Y212424D02*
D03*
X443002Y92279D02*
D03*
X466309Y102988D02*
D03*
X476151Y98461D02*
D03*
X486006Y102988D02*
D03*
X510181Y92279D02*
D03*
X517883Y98264D02*
D03*
X510181Y104268D02*
D03*
X441294Y124740D02*
D03*
X416395D02*
D03*
X441294Y116669D02*
D03*
X416395D02*
D03*
X388651Y122378D02*
D03*
X466194Y141276D02*
D03*
X441294D02*
D03*
X416395D02*
D03*
X367785Y137484D02*
D03*
X348592Y125646D02*
D03*
X490620Y183795D02*
D03*
X486683Y171787D02*
D03*
X511807Y175446D02*
D03*
Y150546D02*
D03*
X514045Y116669D02*
D03*
X491407Y116965D02*
D03*
X508435Y129563D02*
D03*
X497509D02*
D03*
X487765D02*
D03*
X466194Y133795D02*
D03*
X441294D02*
D03*
X416395D02*
D03*
X386683Y175446D02*
D03*
X462737Y147772D02*
D03*
X471820Y153579D02*
D03*
X462737Y159386D02*
D03*
X431742Y164251D02*
D03*
X466899Y176669D02*
D03*
X445324Y181669D02*
D03*
X525856Y207100D02*
D03*
X519950Y216177D02*
D03*
X514045Y207100D02*
D03*
X458336Y202902D02*
D03*
X470049Y202805D02*
D03*
X458139Y251783D02*
D03*
X470246D02*
D03*
X464242Y259386D02*
D03*
X444832Y262437D02*
D03*
X440901Y256630D02*
D03*
X444832Y250933D02*
D03*
X448691Y256630D02*
D03*
X444832Y236822D02*
D03*
X448691Y231039D02*
D03*
X440901D02*
D03*
X445344Y221689D02*
D03*
X383336Y157124D02*
D03*
X377628Y165980D02*
D03*
X348297Y189491D02*
D03*
X359124Y231236D02*
D03*
X540895Y324846D02*
D03*
Y299946D02*
D03*
Y275046D02*
D03*
Y250146D02*
D03*
Y225246D02*
D03*
Y200346D02*
D03*
Y175446D02*
D03*
Y150546D02*
D03*
Y125646D02*
D03*
Y100746D02*
D03*
Y75846D02*
D03*
Y50946D02*
D03*
X515995Y349746D02*
D03*
Y324846D02*
D03*
Y299946D02*
D03*
Y275046D02*
D03*
Y250146D02*
D03*
Y225246D02*
D03*
Y75846D02*
D03*
Y50946D02*
D03*
X491094Y349746D02*
D03*
Y324846D02*
D03*
Y299946D02*
D03*
Y275046D02*
D03*
Y50946D02*
D03*
X466194Y349746D02*
D03*
Y324846D02*
D03*
Y299946D02*
D03*
Y275046D02*
D03*
Y50946D02*
D03*
X441294Y349746D02*
D03*
Y324846D02*
D03*
Y299946D02*
D03*
Y200346D02*
D03*
X416395Y349746D02*
D03*
Y324846D02*
D03*
Y299946D02*
D03*
Y275046D02*
D03*
Y250146D02*
D03*
Y50946D02*
D03*
X391494Y349746D02*
D03*
Y324846D02*
D03*
Y299946D02*
D03*
Y275046D02*
D03*
Y225246D02*
D03*
Y50946D02*
D03*
X366595Y349746D02*
D03*
Y324846D02*
D03*
Y299946D02*
D03*
Y275046D02*
D03*
Y250146D02*
D03*
Y175446D02*
D03*
Y150546D02*
D03*
Y125646D02*
D03*
Y100746D02*
D03*
Y75846D02*
D03*
Y50946D02*
D03*
X341694Y349746D02*
D03*
Y324846D02*
D03*
Y299946D02*
D03*
Y275046D02*
D03*
Y250146D02*
D03*
Y225246D02*
D03*
Y175446D02*
D03*
Y150546D02*
D03*
Y100746D02*
D03*
Y75846D02*
D03*
Y50946D02*
D03*
X316794Y324846D02*
D03*
Y299946D02*
D03*
Y275046D02*
D03*
Y250146D02*
D03*
Y225246D02*
D03*
Y200346D02*
D03*
Y175446D02*
D03*
Y150546D02*
D03*
Y125646D02*
D03*
Y100746D02*
D03*
Y75846D02*
D03*
Y50946D02*
D03*
X377490Y251591D02*
D03*
X400266Y172772D02*
D03*
X390718Y114504D02*
D03*
X400364Y112432D02*
D03*
X405187Y167949D02*
D03*
X388159Y139996D02*
D03*
X371623Y146000D02*
D03*
X506958Y167063D02*
D03*
X506958Y176677D02*
D03*
X460287Y266866D02*
D03*
X400266Y223067D02*
D03*
X410050D02*
D03*
X436833Y271977D02*
D03*
X431860Y266866D02*
D03*
X357943Y158992D02*
D03*
X363073Y215476D02*
D03*
X359898Y194117D02*
D03*
D40*
X180659Y170016D02*
D03*
X223324Y106335D02*
D03*
X452529Y170016D02*
D03*
X495194Y106335D02*
D03*
M02*
