G04*
G04 #@! TF.GenerationSoftware,Altium Limited,Altium Designer,19.1.6 (110)*
G04*
G04 Layer_Color=8388736*
%FSLAX25Y25*%
%MOIN*%
G70*
G01*
G75*
%ADD10C,0.11811*%
%ADD32C,0.01968*%
%ADD49C,0.12402*%
%ADD50R,0.02756X0.04134*%
%ADD51R,0.07480X0.04921*%
%ADD52R,0.04134X0.04331*%
%ADD53R,0.05866X0.07677*%
%ADD54R,0.07677X0.05866*%
%ADD55R,0.10433X0.06890*%
%ADD56R,0.04331X0.04134*%
%ADD57R,0.02953X0.04331*%
%ADD58R,0.04921X0.07480*%
%ADD59R,0.06890X0.10433*%
%ADD60R,0.07677X0.02953*%
%ADD61R,0.06890X0.13189*%
%ADD62R,0.06890X0.11614*%
%ADD63R,0.07677X0.03740*%
%ADD64R,0.02953X0.06890*%
%ADD65R,0.07087X0.10433*%
%ADD66R,0.06299X0.02953*%
%ADD67R,0.03740X0.02165*%
%ADD68R,0.13189X0.06890*%
%ADD69C,0.06591*%
%ADD70C,0.07191*%
%ADD71R,0.05315X0.05315*%
%ADD72C,0.05315*%
%ADD73C,0.07678*%
%ADD74C,0.08859*%
%ADD75C,0.03347*%
%ADD76C,0.04091*%
D10*
X11811Y11811D02*
D03*
X578740D02*
D03*
Y381890D02*
D03*
X11811Y381890D02*
D03*
D32*
X312106Y295374D02*
D03*
Y291437D02*
D03*
Y287500D02*
D03*
Y279626D02*
D03*
Y283563D02*
D03*
Y84449D02*
D03*
Y80511D02*
D03*
Y88386D02*
D03*
Y92323D02*
D03*
Y96260D02*
D03*
X545669Y283563D02*
D03*
Y279626D02*
D03*
Y287500D02*
D03*
Y291437D02*
D03*
Y295374D02*
D03*
Y84449D02*
D03*
Y80511D02*
D03*
Y88386D02*
D03*
Y92323D02*
D03*
Y96260D02*
D03*
X273819D02*
D03*
Y92323D02*
D03*
Y88386D02*
D03*
Y80511D02*
D03*
Y84449D02*
D03*
Y295374D02*
D03*
Y291437D02*
D03*
Y287500D02*
D03*
Y279626D02*
D03*
Y283563D02*
D03*
X40256Y96260D02*
D03*
Y92323D02*
D03*
Y88386D02*
D03*
Y80511D02*
D03*
Y84449D02*
D03*
Y283563D02*
D03*
Y279626D02*
D03*
Y287500D02*
D03*
Y291437D02*
D03*
Y295374D02*
D03*
D49*
X11811Y11811D02*
D03*
X578740Y11811D02*
D03*
Y381890D02*
D03*
X11811Y381890D02*
D03*
D50*
X118848Y108697D02*
D03*
X121407Y99839D02*
D03*
X116289D02*
D03*
X390718Y108697D02*
D03*
X393277Y99839D02*
D03*
X388159D02*
D03*
D51*
X152143Y153582D02*
D03*
Y165196D02*
D03*
X215305Y177890D02*
D03*
Y166276D02*
D03*
X424013Y153582D02*
D03*
Y165196D02*
D03*
X487175Y177890D02*
D03*
Y166276D02*
D03*
D52*
X76722Y231236D02*
D03*
X82824D02*
D03*
X223179Y165980D02*
D03*
X229281D02*
D03*
X134596Y105744D02*
D03*
X128494D02*
D03*
X122391Y93382D02*
D03*
X116289D02*
D03*
X223480Y187247D02*
D03*
X229583D02*
D03*
X221407Y141276D02*
D03*
X215305D02*
D03*
X221407Y135173D02*
D03*
X215305D02*
D03*
X243694D02*
D03*
X249797D02*
D03*
X153691Y210869D02*
D03*
X147588D02*
D03*
X111466Y146000D02*
D03*
X105364D02*
D03*
X111466Y139898D02*
D03*
X105364D02*
D03*
X111466Y133795D02*
D03*
X105364D02*
D03*
X111860Y218527D02*
D03*
X105757D02*
D03*
X111860Y212424D02*
D03*
X105757D02*
D03*
X111860Y206322D02*
D03*
X105757D02*
D03*
X348592Y231236D02*
D03*
X354695D02*
D03*
X495049Y165980D02*
D03*
X501151D02*
D03*
X406466Y105744D02*
D03*
X400364D02*
D03*
X394262Y93382D02*
D03*
X388159D02*
D03*
X495350Y187247D02*
D03*
X501453D02*
D03*
X493277Y141276D02*
D03*
X487175D02*
D03*
X493277Y135173D02*
D03*
X487175D02*
D03*
X515565D02*
D03*
X521667D02*
D03*
X425561Y210869D02*
D03*
X419458D02*
D03*
X383336Y146000D02*
D03*
X377234D02*
D03*
X383336Y139898D02*
D03*
X377234D02*
D03*
X383336Y133795D02*
D03*
X377234D02*
D03*
X383730Y218527D02*
D03*
X377627D02*
D03*
X383730Y212424D02*
D03*
X377627D02*
D03*
X383730Y206322D02*
D03*
X377627D02*
D03*
D53*
X142876Y191669D02*
D03*
X154136D02*
D03*
X414746D02*
D03*
X426006D02*
D03*
D54*
X142842Y153582D02*
D03*
Y164841D02*
D03*
X414712Y153582D02*
D03*
Y164841D02*
D03*
D55*
X156793Y177774D02*
D03*
X142842D02*
D03*
X238311Y98264D02*
D03*
X224360D02*
D03*
X428664Y177774D02*
D03*
X414712D02*
D03*
X510181Y98264D02*
D03*
X496230D02*
D03*
D56*
X214136Y92161D02*
D03*
Y98264D02*
D03*
X194439Y92161D02*
D03*
Y98264D02*
D03*
X166289Y98382D02*
D03*
Y92279D02*
D03*
X173474Y216965D02*
D03*
Y210862D02*
D03*
X159872Y159681D02*
D03*
Y153579D02*
D03*
X93454Y200220D02*
D03*
Y194117D02*
D03*
X82529Y200220D02*
D03*
Y194117D02*
D03*
X76427Y200220D02*
D03*
Y194117D02*
D03*
X486006Y92161D02*
D03*
Y98264D02*
D03*
X466309Y92161D02*
D03*
Y98264D02*
D03*
X438159Y98382D02*
D03*
Y92279D02*
D03*
X445344Y216965D02*
D03*
Y210862D02*
D03*
X431742Y159681D02*
D03*
Y153579D02*
D03*
X365324Y200220D02*
D03*
Y194117D02*
D03*
X354399Y200220D02*
D03*
Y194117D02*
D03*
X348297Y200220D02*
D03*
Y194117D02*
D03*
D57*
X204281Y102988D02*
D03*
X208021Y92161D02*
D03*
X200541D02*
D03*
X223474Y181236D02*
D03*
X230954D02*
D03*
X227214Y171984D02*
D03*
X163533Y221689D02*
D03*
X159793Y210862D02*
D03*
X167273D02*
D03*
X76623Y215476D02*
D03*
X84104D02*
D03*
X80364Y206224D02*
D03*
X95718Y215476D02*
D03*
X91978Y206224D02*
D03*
X99458D02*
D03*
X476151Y102988D02*
D03*
X479891Y92161D02*
D03*
X472411D02*
D03*
X495344Y181236D02*
D03*
X502824D02*
D03*
X499084Y171984D02*
D03*
X435403Y221689D02*
D03*
X431663Y210862D02*
D03*
X439143D02*
D03*
X348494Y215476D02*
D03*
X355974D02*
D03*
X352234Y206224D02*
D03*
X367588Y215476D02*
D03*
X363848Y206224D02*
D03*
X371328D02*
D03*
D58*
X171407Y76118D02*
D03*
X183021D02*
D03*
X226919Y158205D02*
D03*
X215305D02*
D03*
X226919Y148959D02*
D03*
X215305D02*
D03*
X88041Y136893D02*
D03*
X76427D02*
D03*
X88336Y223559D02*
D03*
X76722D02*
D03*
X111466Y198547D02*
D03*
X99852D02*
D03*
X111466Y189295D02*
D03*
X99852D02*
D03*
X443277Y76118D02*
D03*
X454891D02*
D03*
X498789Y158205D02*
D03*
X487175D02*
D03*
X498789Y148959D02*
D03*
X487175D02*
D03*
X359911Y136893D02*
D03*
X348297D02*
D03*
X360206Y223559D02*
D03*
X348592D02*
D03*
X383336Y198547D02*
D03*
X371722D02*
D03*
X383336Y189295D02*
D03*
X371722D02*
D03*
D59*
X182037Y106113D02*
D03*
Y92161D02*
D03*
X453907Y106113D02*
D03*
Y92161D02*
D03*
D60*
X130167Y98382D02*
D03*
Y93382D02*
D03*
Y88382D02*
D03*
Y83382D02*
D03*
X158513Y98382D02*
D03*
Y93382D02*
D03*
Y88382D02*
D03*
Y83382D02*
D03*
X402037Y98382D02*
D03*
Y93382D02*
D03*
Y88382D02*
D03*
Y83382D02*
D03*
X430383Y98382D02*
D03*
Y93382D02*
D03*
Y88382D02*
D03*
Y83382D02*
D03*
D61*
X248080Y171970D02*
D03*
Y152117D02*
D03*
Y187247D02*
D03*
Y207100D02*
D03*
X192372Y222659D02*
D03*
Y202805D02*
D03*
X105757Y176977D02*
D03*
Y157124D02*
D03*
X59498Y220087D02*
D03*
Y200234D02*
D03*
X519950Y171970D02*
D03*
Y152117D02*
D03*
Y187247D02*
D03*
Y207100D02*
D03*
X464242Y222659D02*
D03*
Y202805D02*
D03*
X377627Y176977D02*
D03*
Y157124D02*
D03*
X331368Y220087D02*
D03*
Y200234D02*
D03*
D62*
X221505Y219806D02*
D03*
Y202902D02*
D03*
X79084Y175909D02*
D03*
Y159005D02*
D03*
X493376Y219806D02*
D03*
Y202902D02*
D03*
X350954Y175909D02*
D03*
Y159005D02*
D03*
D63*
X153734Y251591D02*
D03*
Y261591D02*
D03*
Y241591D02*
D03*
Y231591D02*
D03*
X126175Y261591D02*
D03*
Y251591D02*
D03*
Y241591D02*
D03*
Y231591D02*
D03*
X425604Y251591D02*
D03*
Y261591D02*
D03*
Y241591D02*
D03*
Y231591D02*
D03*
X398045Y261591D02*
D03*
Y251591D02*
D03*
Y241591D02*
D03*
Y231591D02*
D03*
D64*
X172962Y256630D02*
D03*
X162962D02*
D03*
Y231039D02*
D03*
X172962D02*
D03*
X444832Y256630D02*
D03*
X434832D02*
D03*
Y231039D02*
D03*
X444832D02*
D03*
D65*
X192372Y251783D02*
D03*
Y237019D02*
D03*
X464242Y251783D02*
D03*
Y237019D02*
D03*
D66*
X167864Y181669D02*
D03*
Y176669D02*
D03*
Y186669D02*
D03*
Y191669D02*
D03*
X189321Y176669D02*
D03*
Y186669D02*
D03*
Y181669D02*
D03*
Y191669D02*
D03*
X439734Y181669D02*
D03*
Y176669D02*
D03*
Y186669D02*
D03*
Y191669D02*
D03*
X461191Y176669D02*
D03*
Y186669D02*
D03*
Y181669D02*
D03*
Y191669D02*
D03*
D67*
X153734Y223067D02*
D03*
X144679D02*
D03*
X425604D02*
D03*
X416549D02*
D03*
D68*
X190867Y153579D02*
D03*
X171013D02*
D03*
X462737D02*
D03*
X442883D02*
D03*
D69*
X152037Y281039D02*
D03*
X162037D02*
D03*
X70423Y60272D02*
D03*
X80423D02*
D03*
X249150Y60469D02*
D03*
X239150D02*
D03*
X423907Y281039D02*
D03*
X433907D02*
D03*
X342293Y60272D02*
D03*
X352293D02*
D03*
X521020Y60469D02*
D03*
X511020D02*
D03*
D70*
X148504Y56039D02*
D03*
X158504D02*
D03*
X128505D02*
D03*
X138505D02*
D03*
X180738Y55941D02*
D03*
X170738D02*
D03*
X420375Y56039D02*
D03*
X430375D02*
D03*
X400375D02*
D03*
X410375D02*
D03*
X452608Y55941D02*
D03*
X442608D02*
D03*
D71*
X224394Y64799D02*
D03*
X496265D02*
D03*
D72*
X214394Y54799D02*
D03*
X204394Y64799D02*
D03*
X486265Y54799D02*
D03*
X476264Y64799D02*
D03*
D73*
X249797Y240122D02*
D03*
X229797D02*
D03*
X209797D02*
D03*
X249797Y120622D02*
D03*
X229797D02*
D03*
X209797D02*
D03*
X104297Y240122D02*
D03*
X84297D02*
D03*
X64297D02*
D03*
X104297Y120622D02*
D03*
X84297D02*
D03*
X64297D02*
D03*
X521667Y240122D02*
D03*
X501667D02*
D03*
X481667D02*
D03*
X521667Y120622D02*
D03*
X501667D02*
D03*
X481667D02*
D03*
X376167Y240122D02*
D03*
X356167D02*
D03*
X336167D02*
D03*
X376167Y120622D02*
D03*
X356167D02*
D03*
X336167D02*
D03*
D74*
X179708Y311722D02*
D03*
X243606D02*
D03*
X179708Y336722D02*
D03*
X243606D02*
D03*
X179708Y286722D02*
D03*
X243606D02*
D03*
X70489Y311722D02*
D03*
X134387D02*
D03*
X70489Y336722D02*
D03*
X134387D02*
D03*
X70489Y286722D02*
D03*
X134387D02*
D03*
X451578Y311722D02*
D03*
X515476D02*
D03*
X451578Y336722D02*
D03*
X515476D02*
D03*
X451578Y286722D02*
D03*
X515476D02*
D03*
X342359Y311722D02*
D03*
X406257D02*
D03*
X342359Y336722D02*
D03*
X406257D02*
D03*
X342359Y286722D02*
D03*
X406257D02*
D03*
D75*
X269024Y324846D02*
D03*
Y299946D02*
D03*
Y275046D02*
D03*
Y250146D02*
D03*
Y225246D02*
D03*
Y200346D02*
D03*
Y175446D02*
D03*
Y150546D02*
D03*
Y125646D02*
D03*
Y100746D02*
D03*
Y75846D02*
D03*
Y50946D02*
D03*
X244124Y349746D02*
D03*
Y324846D02*
D03*
Y50946D02*
D03*
X219224Y349746D02*
D03*
Y50946D02*
D03*
X194324Y349746D02*
D03*
Y50946D02*
D03*
X169424Y349746D02*
D03*
X144524D02*
D03*
Y50946D02*
D03*
X119624Y349746D02*
D03*
Y50946D02*
D03*
X94724Y349746D02*
D03*
Y50946D02*
D03*
X69824Y349746D02*
D03*
Y324846D02*
D03*
Y50946D02*
D03*
X44924Y324846D02*
D03*
Y299946D02*
D03*
Y275046D02*
D03*
Y250146D02*
D03*
Y225246D02*
D03*
Y200346D02*
D03*
Y175446D02*
D03*
Y150546D02*
D03*
Y125646D02*
D03*
Y100746D02*
D03*
Y75846D02*
D03*
Y50946D02*
D03*
X128395Y172772D02*
D03*
X118848Y114504D02*
D03*
X128494Y112432D02*
D03*
X133317Y167949D02*
D03*
X116289Y139996D02*
D03*
X99753Y146000D02*
D03*
X235088Y167063D02*
D03*
X235088Y176677D02*
D03*
X188417Y266866D02*
D03*
X128395Y223067D02*
D03*
X138180D02*
D03*
X164963Y271977D02*
D03*
X159990Y266866D02*
D03*
X86072Y158992D02*
D03*
X91203Y215476D02*
D03*
X88028Y194117D02*
D03*
X540895Y324846D02*
D03*
Y299946D02*
D03*
Y275046D02*
D03*
Y250146D02*
D03*
Y225246D02*
D03*
Y200346D02*
D03*
Y175446D02*
D03*
Y150546D02*
D03*
Y125646D02*
D03*
Y100746D02*
D03*
Y75846D02*
D03*
Y50946D02*
D03*
X515995Y349746D02*
D03*
Y324846D02*
D03*
Y50946D02*
D03*
X491094Y349746D02*
D03*
Y50946D02*
D03*
X466194Y349746D02*
D03*
Y50946D02*
D03*
X441294Y349746D02*
D03*
X416395D02*
D03*
Y50946D02*
D03*
X391494Y349746D02*
D03*
Y50946D02*
D03*
X366595Y349746D02*
D03*
Y50946D02*
D03*
X341694Y349746D02*
D03*
Y324846D02*
D03*
Y50946D02*
D03*
X316794Y324846D02*
D03*
Y299946D02*
D03*
Y275046D02*
D03*
Y250146D02*
D03*
Y225246D02*
D03*
Y200346D02*
D03*
Y175446D02*
D03*
Y150546D02*
D03*
Y125646D02*
D03*
Y100746D02*
D03*
Y75846D02*
D03*
Y50946D02*
D03*
X400266Y172772D02*
D03*
X390718Y114504D02*
D03*
X400364Y112432D02*
D03*
X405187Y167949D02*
D03*
X388159Y139996D02*
D03*
X371623Y146000D02*
D03*
X506958Y167063D02*
D03*
X506958Y176677D02*
D03*
X460287Y266866D02*
D03*
X400266Y223067D02*
D03*
X410050D02*
D03*
X436833Y271977D02*
D03*
X431860Y266866D02*
D03*
X357943Y158992D02*
D03*
X363073Y215476D02*
D03*
X359898Y194117D02*
D03*
D76*
X180659Y170016D02*
D03*
X223324Y106335D02*
D03*
X452529Y170016D02*
D03*
X495194Y106335D02*
D03*
M02*
