G04*
G04 #@! TF.GenerationSoftware,Altium Limited,Altium Designer,19.1.6 (110)*
G04*
G04 Layer_Color=16711935*
%FSLAX25Y25*%
%MOIN*%
G70*
G01*
G75*
%ADD10C,0.11811*%
%ADD32C,0.01968*%
%ADD69C,0.06591*%
%ADD70C,0.07191*%
%ADD71R,0.05315X0.05315*%
%ADD72C,0.05315*%
%ADD73C,0.07678*%
%ADD74C,0.08859*%
%ADD75C,0.03347*%
%ADD76C,0.04091*%
D10*
X11811Y11811D02*
D03*
X578740D02*
D03*
Y381890D02*
D03*
X11811Y381890D02*
D03*
D32*
X312106Y295374D02*
D03*
Y291437D02*
D03*
Y287500D02*
D03*
Y279626D02*
D03*
Y283563D02*
D03*
Y84449D02*
D03*
Y80511D02*
D03*
Y88386D02*
D03*
Y92323D02*
D03*
Y96260D02*
D03*
X545669Y283563D02*
D03*
Y279626D02*
D03*
Y287500D02*
D03*
Y291437D02*
D03*
Y295374D02*
D03*
Y84449D02*
D03*
Y80511D02*
D03*
Y88386D02*
D03*
Y92323D02*
D03*
Y96260D02*
D03*
X273819D02*
D03*
Y92323D02*
D03*
Y88386D02*
D03*
Y80511D02*
D03*
Y84449D02*
D03*
Y295374D02*
D03*
Y291437D02*
D03*
Y287500D02*
D03*
Y279626D02*
D03*
Y283563D02*
D03*
X40256Y96260D02*
D03*
Y92323D02*
D03*
Y88386D02*
D03*
Y80511D02*
D03*
Y84449D02*
D03*
Y283563D02*
D03*
Y279626D02*
D03*
Y287500D02*
D03*
Y291437D02*
D03*
Y295374D02*
D03*
D69*
X152037Y281039D02*
D03*
X162037D02*
D03*
X70423Y60272D02*
D03*
X80423D02*
D03*
X249150Y60469D02*
D03*
X239150D02*
D03*
X423907Y281039D02*
D03*
X433907D02*
D03*
X342293Y60272D02*
D03*
X352293D02*
D03*
X521020Y60469D02*
D03*
X511020D02*
D03*
D70*
X148504Y56039D02*
D03*
X158504D02*
D03*
X128505D02*
D03*
X138505D02*
D03*
X180738Y55941D02*
D03*
X170738D02*
D03*
X420375Y56039D02*
D03*
X430375D02*
D03*
X400375D02*
D03*
X410375D02*
D03*
X452608Y55941D02*
D03*
X442608D02*
D03*
D71*
X224394Y64799D02*
D03*
X496265D02*
D03*
D72*
X214394Y54799D02*
D03*
X204394Y64799D02*
D03*
X486265Y54799D02*
D03*
X476264Y64799D02*
D03*
D73*
X249797Y240122D02*
D03*
X229797D02*
D03*
X209797D02*
D03*
X249797Y120622D02*
D03*
X229797D02*
D03*
X209797D02*
D03*
X104297Y240122D02*
D03*
X84297D02*
D03*
X64297D02*
D03*
X104297Y120622D02*
D03*
X84297D02*
D03*
X64297D02*
D03*
X521667Y240122D02*
D03*
X501667D02*
D03*
X481667D02*
D03*
X521667Y120622D02*
D03*
X501667D02*
D03*
X481667D02*
D03*
X376167Y240122D02*
D03*
X356167D02*
D03*
X336167D02*
D03*
X376167Y120622D02*
D03*
X356167D02*
D03*
X336167D02*
D03*
D74*
X179708Y311722D02*
D03*
X243606D02*
D03*
X179708Y336722D02*
D03*
X243606D02*
D03*
X179708Y286722D02*
D03*
X243606D02*
D03*
X70489Y311722D02*
D03*
X134387D02*
D03*
X70489Y336722D02*
D03*
X134387D02*
D03*
X70489Y286722D02*
D03*
X134387D02*
D03*
X451578Y311722D02*
D03*
X515476D02*
D03*
X451578Y336722D02*
D03*
X515476D02*
D03*
X451578Y286722D02*
D03*
X515476D02*
D03*
X342359Y311722D02*
D03*
X406257D02*
D03*
X342359Y336722D02*
D03*
X406257D02*
D03*
X342359Y286722D02*
D03*
X406257D02*
D03*
D75*
X269024Y324846D02*
D03*
Y299946D02*
D03*
Y275046D02*
D03*
Y250146D02*
D03*
Y225246D02*
D03*
Y200346D02*
D03*
Y175446D02*
D03*
Y150546D02*
D03*
Y125646D02*
D03*
Y100746D02*
D03*
Y75846D02*
D03*
Y50946D02*
D03*
X244124Y349746D02*
D03*
Y324846D02*
D03*
Y50946D02*
D03*
X219224Y349746D02*
D03*
Y50946D02*
D03*
X194324Y349746D02*
D03*
Y50946D02*
D03*
X169424Y349746D02*
D03*
X144524D02*
D03*
Y50946D02*
D03*
X119624Y349746D02*
D03*
Y50946D02*
D03*
X94724Y349746D02*
D03*
Y50946D02*
D03*
X69824Y349746D02*
D03*
Y324846D02*
D03*
Y50946D02*
D03*
X44924Y324846D02*
D03*
Y299946D02*
D03*
Y275046D02*
D03*
Y250146D02*
D03*
Y225246D02*
D03*
Y200346D02*
D03*
Y175446D02*
D03*
Y150546D02*
D03*
Y125646D02*
D03*
Y100746D02*
D03*
Y75846D02*
D03*
Y50946D02*
D03*
X128395Y172772D02*
D03*
X118848Y114504D02*
D03*
X128494Y112432D02*
D03*
X133317Y167949D02*
D03*
X116289Y139996D02*
D03*
X99753Y146000D02*
D03*
X235088Y167063D02*
D03*
X235088Y176677D02*
D03*
X188417Y266866D02*
D03*
X128395Y223067D02*
D03*
X138180D02*
D03*
X164963Y271977D02*
D03*
X159990Y266866D02*
D03*
X86072Y158992D02*
D03*
X91203Y215476D02*
D03*
X88028Y194117D02*
D03*
X540895Y324846D02*
D03*
Y299946D02*
D03*
Y275046D02*
D03*
Y250146D02*
D03*
Y225246D02*
D03*
Y200346D02*
D03*
Y175446D02*
D03*
Y150546D02*
D03*
Y125646D02*
D03*
Y100746D02*
D03*
Y75846D02*
D03*
Y50946D02*
D03*
X515995Y349746D02*
D03*
Y324846D02*
D03*
Y50946D02*
D03*
X491094Y349746D02*
D03*
Y50946D02*
D03*
X466194Y349746D02*
D03*
Y50946D02*
D03*
X441294Y349746D02*
D03*
X416395D02*
D03*
Y50946D02*
D03*
X391494Y349746D02*
D03*
Y50946D02*
D03*
X366595Y349746D02*
D03*
Y50946D02*
D03*
X341694Y349746D02*
D03*
Y324846D02*
D03*
Y50946D02*
D03*
X316794Y324846D02*
D03*
Y299946D02*
D03*
Y275046D02*
D03*
Y250146D02*
D03*
Y225246D02*
D03*
Y200346D02*
D03*
Y175446D02*
D03*
Y150546D02*
D03*
Y125646D02*
D03*
Y100746D02*
D03*
Y75846D02*
D03*
Y50946D02*
D03*
X400266Y172772D02*
D03*
X390718Y114504D02*
D03*
X400364Y112432D02*
D03*
X405187Y167949D02*
D03*
X388159Y139996D02*
D03*
X371623Y146000D02*
D03*
X506958Y167063D02*
D03*
X506958Y176677D02*
D03*
X460287Y266866D02*
D03*
X400266Y223067D02*
D03*
X410050D02*
D03*
X436833Y271977D02*
D03*
X431860Y266866D02*
D03*
X357943Y158992D02*
D03*
X363073Y215476D02*
D03*
X359898Y194117D02*
D03*
D76*
X180659Y170016D02*
D03*
X223324Y106335D02*
D03*
X452529Y170016D02*
D03*
X495194Y106335D02*
D03*
M02*
