G04*
G04 #@! TF.GenerationSoftware,Altium Limited,Altium Designer,19.1.6 (110)*
G04*
G04 Layer_Color=65535*
%FSLAX25Y25*%
%MOIN*%
G70*
G01*
G75*
%ADD31C,0.01000*%
%ADD41C,0.00394*%
%ADD42C,0.00787*%
%ADD43C,0.00500*%
%ADD44C,0.00591*%
%ADD45C,0.00591*%
%ADD46C,0.00787*%
%ADD47R,0.11417X0.02118*%
%ADD48R,0.02067X0.05315*%
G36*
X326591Y128533D02*
X326709D01*
Y128416D01*
X326826D01*
Y128299D01*
X326943D01*
Y128416D01*
X327060D01*
Y128299D01*
X327177D01*
Y128182D01*
X327294D01*
Y128064D01*
X327412D01*
Y127947D01*
X327529D01*
Y127830D01*
X327646D01*
Y127713D01*
X327763D01*
Y127361D01*
X327880D01*
Y127244D01*
X327997D01*
Y127010D01*
X328115D01*
Y126776D01*
X328232D01*
Y126424D01*
X328349D01*
Y126307D01*
X328232D01*
Y126190D01*
X328349D01*
Y125838D01*
X328466D01*
Y125721D01*
X328349D01*
Y125604D01*
X328466D01*
Y125487D01*
X328349D01*
Y125370D01*
X328466D01*
Y125253D01*
X328349D01*
Y125135D01*
X328466D01*
Y125018D01*
X328349D01*
Y124901D01*
X328466D01*
Y124550D01*
X328349D01*
Y124433D01*
X328466D01*
Y124315D01*
X328349D01*
Y123964D01*
X328232D01*
Y123847D01*
X328349D01*
Y123730D01*
X328232D01*
Y123378D01*
X328115D01*
Y123261D01*
X327997D01*
Y122909D01*
X327880D01*
Y122792D01*
X327763D01*
Y122675D01*
X328115D01*
Y122558D01*
X328232D01*
Y122441D01*
X328115D01*
Y122324D01*
X328232D01*
Y122206D01*
X328115D01*
Y122089D01*
X328232D01*
Y121972D01*
X328115D01*
Y121855D01*
X328232D01*
Y121738D01*
X328115D01*
Y121621D01*
X328232D01*
Y121504D01*
X328115D01*
Y121386D01*
X328232D01*
Y121269D01*
X328115D01*
Y121152D01*
X325889D01*
Y121269D01*
X325771D01*
Y121386D01*
X325654D01*
Y121504D01*
X325771D01*
Y121621D01*
X325654D01*
Y121738D01*
X325771D01*
Y121855D01*
X325654D01*
Y121972D01*
X325771D01*
Y122089D01*
X325654D01*
Y122206D01*
X325771D01*
Y122324D01*
X325654D01*
Y122441D01*
X325537D01*
Y122324D01*
X325420D01*
Y121972D01*
X325303D01*
Y121855D01*
X325186D01*
Y121504D01*
X325068D01*
Y121386D01*
X324951D01*
Y121269D01*
X324717D01*
Y121035D01*
X324600D01*
Y121152D01*
X324483D01*
Y121035D01*
X324365D01*
Y120918D01*
X324014D01*
Y120801D01*
X323897D01*
Y120918D01*
X323780D01*
Y120801D01*
X323194D01*
Y120918D01*
X323077D01*
Y120801D01*
X322960D01*
Y120918D01*
X322843D01*
Y120801D01*
X322725D01*
Y120684D01*
X322843D01*
Y120332D01*
X322960D01*
Y120215D01*
X323780D01*
Y120098D01*
X323897D01*
Y120215D01*
X324248D01*
Y120098D01*
X324365D01*
Y120215D01*
X324717D01*
Y120098D01*
X324834D01*
Y120215D01*
X325186D01*
Y120098D01*
X325303D01*
Y120215D01*
X325654D01*
Y120098D01*
X325771D01*
Y120215D01*
X326123D01*
Y120098D01*
X326240D01*
Y120215D01*
X326591D01*
Y120098D01*
X326709D01*
Y120215D01*
X327060D01*
Y120098D01*
X327177D01*
Y120215D01*
X327529D01*
Y120098D01*
X327646D01*
Y120215D01*
X327997D01*
Y120098D01*
X328115D01*
Y120215D01*
X328466D01*
Y120098D01*
X328583D01*
Y120215D01*
X329169D01*
Y120332D01*
X329286D01*
Y120684D01*
X329403D01*
Y120801D01*
X329286D01*
Y121152D01*
X329403D01*
Y121269D01*
X329286D01*
Y121386D01*
X329638D01*
Y121504D01*
X329989D01*
Y121386D01*
X330106D01*
Y121504D01*
X330458D01*
Y121386D01*
X330575D01*
Y121504D01*
X330809D01*
Y121386D01*
X331044D01*
Y121269D01*
X330926D01*
Y121152D01*
X331044D01*
Y121035D01*
X330926D01*
Y120918D01*
X331044D01*
Y120801D01*
X330926D01*
Y120684D01*
X331044D01*
Y120566D01*
X330926D01*
Y120449D01*
X331044D01*
Y120332D01*
X330926D01*
Y120215D01*
X331044D01*
Y120098D01*
X330926D01*
Y119981D01*
X331044D01*
Y119863D01*
X330926D01*
Y119746D01*
X331044D01*
Y119629D01*
X330926D01*
Y119512D01*
X331044D01*
Y119395D01*
X330926D01*
Y119278D01*
X331044D01*
Y119160D01*
X330926D01*
Y119043D01*
X331044D01*
Y118926D01*
X330926D01*
Y118809D01*
X331044D01*
Y118692D01*
X330926D01*
Y118575D01*
X331044D01*
Y118457D01*
X330926D01*
Y118340D01*
X331044D01*
Y118223D01*
X330926D01*
Y118106D01*
X331044D01*
Y117989D01*
X330926D01*
Y117872D01*
X331044D01*
Y117754D01*
X330926D01*
Y117637D01*
X331044D01*
Y117520D01*
X330926D01*
Y117403D01*
X331044D01*
Y117286D01*
X330926D01*
Y117169D01*
X330809D01*
Y117052D01*
X330692D01*
Y117169D01*
X330575D01*
Y117052D01*
X330458D01*
Y117169D01*
X330341D01*
Y117052D01*
X330223D01*
Y117169D01*
X330106D01*
Y117052D01*
X329989D01*
Y117169D01*
X329872D01*
Y117052D01*
X329755D01*
Y117169D01*
X329638D01*
Y117052D01*
X329521D01*
Y117169D01*
X329403D01*
Y117052D01*
X329286D01*
Y117169D01*
X329169D01*
Y117052D01*
X329052D01*
Y117169D01*
X328935D01*
Y117052D01*
X328818D01*
Y117169D01*
X328700D01*
Y117052D01*
X328583D01*
Y117169D01*
X328466D01*
Y117052D01*
X328349D01*
Y117169D01*
X328232D01*
Y117052D01*
X328115D01*
Y117169D01*
X327997D01*
Y117052D01*
X327880D01*
Y117169D01*
X327763D01*
Y117052D01*
X327646D01*
Y117169D01*
X327529D01*
Y117052D01*
X327646D01*
Y116934D01*
X327763D01*
Y116817D01*
X327880D01*
Y116583D01*
X327997D01*
Y116349D01*
X328115D01*
Y115997D01*
X328232D01*
Y115411D01*
X328349D01*
Y115294D01*
X328232D01*
Y115177D01*
X328349D01*
Y115060D01*
X328232D01*
Y114943D01*
X328349D01*
Y114826D01*
X328232D01*
Y114708D01*
X328349D01*
Y114591D01*
X328232D01*
Y114474D01*
X328349D01*
Y114357D01*
X328232D01*
Y114005D01*
X328115D01*
Y113888D01*
X328232D01*
Y113771D01*
X328115D01*
Y113654D01*
X327997D01*
Y113303D01*
X327880D01*
Y113185D01*
X327763D01*
Y112834D01*
X327529D01*
Y112600D01*
X327177D01*
Y112482D01*
X327060D01*
Y112365D01*
X326709D01*
Y112248D01*
X326591D01*
Y112131D01*
X326474D01*
Y112248D01*
X326357D01*
Y112131D01*
X326240D01*
Y112248D01*
X326123D01*
Y112131D01*
X326006D01*
Y112248D01*
X325889D01*
Y112131D01*
X325771D01*
Y112248D01*
X325654D01*
Y112131D01*
X325537D01*
Y112248D01*
X325420D01*
Y112131D01*
X325303D01*
Y112248D01*
X325186D01*
Y112131D01*
X325068D01*
Y112248D01*
X324951D01*
Y112131D01*
X324834D01*
Y112248D01*
X324717D01*
Y112131D01*
X324600D01*
Y112248D01*
X324483D01*
Y112131D01*
X324365D01*
Y112248D01*
X324248D01*
Y112131D01*
X324131D01*
Y112248D01*
X324014D01*
Y112131D01*
X323897D01*
Y112248D01*
X323780D01*
Y112131D01*
X323663D01*
Y112248D01*
X323545D01*
Y112131D01*
X323428D01*
Y112248D01*
X323311D01*
Y112131D01*
X323194D01*
Y112248D01*
X323077D01*
Y112131D01*
X322960D01*
Y112248D01*
X322843D01*
Y111897D01*
X322725D01*
Y111779D01*
X322843D01*
Y111428D01*
X322725D01*
Y111311D01*
X322843D01*
Y110959D01*
X322960D01*
Y110842D01*
X326357D01*
Y110959D01*
X326474D01*
Y111076D01*
X326357D01*
Y111194D01*
X326474D01*
Y111311D01*
X326357D01*
Y111428D01*
X326474D01*
Y111545D01*
X326357D01*
Y111662D01*
X326474D01*
Y111779D01*
X326357D01*
Y111897D01*
X326474D01*
Y112014D01*
X326826D01*
Y112131D01*
X326943D01*
Y112014D01*
X327294D01*
Y112131D01*
X327412D01*
Y112014D01*
X327763D01*
Y112131D01*
X327880D01*
Y112014D01*
X327997D01*
Y111897D01*
X328115D01*
Y111779D01*
X328232D01*
Y111662D01*
X328115D01*
Y111545D01*
X328232D01*
Y111428D01*
X328115D01*
Y111311D01*
X328232D01*
Y111194D01*
X328115D01*
Y111076D01*
X328232D01*
Y110959D01*
X328115D01*
Y110842D01*
X328232D01*
Y110725D01*
X328115D01*
Y110608D01*
X328232D01*
Y110491D01*
X328115D01*
Y110374D01*
X328232D01*
Y110256D01*
X328115D01*
Y110139D01*
X328232D01*
Y110022D01*
X328115D01*
Y109905D01*
X328232D01*
Y109788D01*
X328115D01*
Y109671D01*
X328232D01*
Y109554D01*
X328115D01*
Y109436D01*
X328232D01*
Y109319D01*
X328115D01*
Y109202D01*
X328232D01*
Y109085D01*
X328115D01*
Y108968D01*
X328232D01*
Y108851D01*
X328115D01*
Y108733D01*
X328232D01*
Y108616D01*
X328115D01*
Y108499D01*
X328232D01*
Y108382D01*
X328115D01*
Y108265D01*
X328232D01*
Y108148D01*
X328115D01*
Y108030D01*
X328232D01*
Y107913D01*
X328115D01*
Y107796D01*
X327997D01*
Y107679D01*
X327880D01*
Y107796D01*
X327763D01*
Y107679D01*
X327646D01*
Y107796D01*
X327529D01*
Y107679D01*
X327412D01*
Y107796D01*
X327294D01*
Y107679D01*
X327177D01*
Y107796D01*
X327060D01*
Y107679D01*
X326943D01*
Y107796D01*
X326826D01*
Y107679D01*
X326709D01*
Y107796D01*
X326591D01*
Y107679D01*
X326474D01*
Y107796D01*
X326357D01*
Y107679D01*
X326240D01*
Y107796D01*
X326123D01*
Y107679D01*
X326006D01*
Y107796D01*
X325889D01*
Y107679D01*
X325771D01*
Y107796D01*
X325654D01*
Y107679D01*
X325537D01*
Y107796D01*
X325420D01*
Y107679D01*
X325303D01*
Y107796D01*
X325186D01*
Y107679D01*
X325068D01*
Y107796D01*
X324951D01*
Y107679D01*
X324834D01*
Y107796D01*
X324717D01*
Y107679D01*
X324600D01*
Y107796D01*
X324483D01*
Y107679D01*
X324365D01*
Y107796D01*
X324248D01*
Y107679D01*
X324131D01*
Y107796D01*
X324014D01*
Y107679D01*
X323897D01*
Y107796D01*
X323780D01*
Y107679D01*
X323663D01*
Y107796D01*
X323545D01*
Y107679D01*
X323428D01*
Y107796D01*
X323311D01*
Y107679D01*
X323194D01*
Y107796D01*
X323077D01*
Y107679D01*
X322843D01*
Y107210D01*
X322725D01*
Y107093D01*
X322843D01*
Y106742D01*
X322725D01*
Y106624D01*
X322843D01*
Y106273D01*
X322960D01*
Y106156D01*
X326357D01*
Y106273D01*
X326474D01*
Y106390D01*
X326357D01*
Y106507D01*
X326474D01*
Y106624D01*
X326357D01*
Y106742D01*
X326474D01*
Y106859D01*
X326357D01*
Y106976D01*
X326474D01*
Y107093D01*
X326357D01*
Y107210D01*
X326474D01*
Y107327D01*
X326826D01*
Y107445D01*
X326943D01*
Y107327D01*
X327294D01*
Y107445D01*
X327412D01*
Y107327D01*
X327763D01*
Y107445D01*
X327880D01*
Y107327D01*
X327997D01*
Y107210D01*
X328115D01*
Y107093D01*
X328232D01*
Y106976D01*
X328115D01*
Y106859D01*
X328232D01*
Y106742D01*
X328115D01*
Y106624D01*
X328232D01*
Y106507D01*
X328115D01*
Y106390D01*
X328232D01*
Y106273D01*
X328115D01*
Y106156D01*
X328232D01*
Y106039D01*
X328115D01*
Y105922D01*
X328232D01*
Y105804D01*
X328115D01*
Y105687D01*
X328232D01*
Y105570D01*
X328115D01*
Y105453D01*
X328232D01*
Y105336D01*
X328115D01*
Y105219D01*
X328232D01*
Y105102D01*
X328115D01*
Y104984D01*
X328232D01*
Y104867D01*
X328115D01*
Y104750D01*
X328232D01*
Y104633D01*
X328115D01*
Y104516D01*
X328232D01*
Y104399D01*
X328115D01*
Y104281D01*
X328232D01*
Y104164D01*
X328115D01*
Y104047D01*
X328232D01*
Y103930D01*
X328115D01*
Y103813D01*
X328232D01*
Y103696D01*
X328115D01*
Y103578D01*
X328232D01*
Y103461D01*
X328115D01*
Y103344D01*
X327997D01*
Y103110D01*
X327763D01*
Y103227D01*
X327646D01*
Y103110D01*
X327529D01*
Y102993D01*
X327646D01*
Y102875D01*
X327529D01*
Y102758D01*
X327763D01*
Y102524D01*
X327880D01*
Y102407D01*
X327997D01*
Y102055D01*
X328115D01*
Y101938D01*
X327997D01*
Y101821D01*
X328115D01*
Y101470D01*
X328232D01*
Y101353D01*
X328115D01*
Y101235D01*
X328232D01*
Y101118D01*
X328115D01*
Y101001D01*
X328232D01*
Y100884D01*
X328115D01*
Y100767D01*
X328232D01*
Y100649D01*
X328115D01*
Y100532D01*
X328232D01*
Y100415D01*
X328115D01*
Y100298D01*
X328232D01*
Y100181D01*
X328115D01*
Y99595D01*
X327997D01*
Y99244D01*
X327880D01*
Y99126D01*
X327997D01*
Y99009D01*
X327880D01*
Y98892D01*
X327763D01*
Y98775D01*
X327646D01*
Y98658D01*
X327529D01*
Y98541D01*
X327412D01*
Y98423D01*
X327294D01*
Y98306D01*
X327177D01*
Y98423D01*
X327060D01*
Y98306D01*
X326943D01*
Y98189D01*
X326591D01*
Y98072D01*
X326474D01*
Y98189D01*
X326357D01*
Y98072D01*
X326240D01*
Y98189D01*
X326123D01*
Y98072D01*
X326006D01*
Y98189D01*
X325889D01*
Y98072D01*
X325771D01*
Y98189D01*
X325654D01*
Y98072D01*
X325537D01*
Y98189D01*
X325420D01*
Y98072D01*
X325303D01*
Y98189D01*
X325186D01*
Y98072D01*
X325068D01*
Y98189D01*
X324951D01*
Y98072D01*
X324834D01*
Y98189D01*
X324717D01*
Y98072D01*
X324600D01*
Y98189D01*
X324483D01*
Y98072D01*
X324365D01*
Y98189D01*
X324248D01*
Y98072D01*
X324131D01*
Y98189D01*
X324014D01*
Y98072D01*
X323897D01*
Y98189D01*
X323780D01*
Y98072D01*
X323663D01*
Y98189D01*
X323545D01*
Y98072D01*
X323428D01*
Y98189D01*
X323311D01*
Y98072D01*
X323194D01*
Y98189D01*
X323077D01*
Y98072D01*
X322960D01*
Y98189D01*
X322843D01*
Y97838D01*
X322725D01*
Y97721D01*
X322843D01*
Y97369D01*
X322725D01*
Y97252D01*
X322843D01*
Y96666D01*
X326240D01*
Y96783D01*
X326357D01*
Y96900D01*
X326474D01*
Y97018D01*
X326357D01*
Y97135D01*
X326474D01*
Y97252D01*
X326357D01*
Y97369D01*
X326474D01*
Y97486D01*
X326357D01*
Y97603D01*
X326474D01*
Y97838D01*
X326709D01*
Y97955D01*
X326826D01*
Y97838D01*
X326943D01*
Y97955D01*
X327060D01*
Y97838D01*
X327177D01*
Y97955D01*
X327294D01*
Y97838D01*
X327412D01*
Y97955D01*
X327529D01*
Y97838D01*
X327646D01*
Y97955D01*
X327763D01*
Y97838D01*
X327880D01*
Y97955D01*
X327997D01*
Y97838D01*
X328115D01*
Y97721D01*
X328232D01*
Y97603D01*
X328115D01*
Y97486D01*
X328232D01*
Y97369D01*
X328115D01*
Y97252D01*
X328232D01*
Y97135D01*
X328115D01*
Y97018D01*
X328232D01*
Y96900D01*
X328115D01*
Y96783D01*
X328232D01*
Y96666D01*
X328115D01*
Y96549D01*
X328232D01*
Y96432D01*
X328115D01*
Y96315D01*
X328232D01*
Y96197D01*
X328115D01*
Y96080D01*
X328232D01*
Y95963D01*
X328115D01*
Y95846D01*
X328232D01*
Y95729D01*
X328115D01*
Y95612D01*
X328232D01*
Y95495D01*
X328115D01*
Y95377D01*
X328232D01*
Y95260D01*
X328115D01*
Y95143D01*
X328232D01*
Y95026D01*
X328115D01*
Y94909D01*
X328232D01*
Y94792D01*
X328115D01*
Y94674D01*
X328232D01*
Y94557D01*
X328115D01*
Y94440D01*
X328232D01*
Y94323D01*
X328115D01*
Y94206D01*
X328232D01*
Y94089D01*
X328115D01*
Y93972D01*
X328232D01*
Y93854D01*
X328115D01*
Y93737D01*
X328232D01*
Y93620D01*
X327880D01*
Y93503D01*
X327529D01*
Y93620D01*
X327412D01*
Y93503D01*
X327060D01*
Y93620D01*
X326943D01*
Y93503D01*
X326591D01*
Y93620D01*
X326474D01*
Y93503D01*
X326123D01*
Y93620D01*
X326006D01*
Y93503D01*
X325654D01*
Y93620D01*
X325537D01*
Y93503D01*
X325186D01*
Y93620D01*
X325068D01*
Y93503D01*
X324717D01*
Y93620D01*
X324600D01*
Y93503D01*
X324248D01*
Y93620D01*
X324131D01*
Y93503D01*
X323780D01*
Y93620D01*
X323663D01*
Y93503D01*
X323311D01*
Y93620D01*
X323194D01*
Y93503D01*
X322843D01*
Y93151D01*
X322725D01*
Y93034D01*
X322843D01*
Y92683D01*
X322725D01*
Y92566D01*
X322843D01*
Y91980D01*
X323194D01*
Y92097D01*
X323311D01*
Y91980D01*
X323663D01*
Y92097D01*
X323780D01*
Y91980D01*
X324131D01*
Y92097D01*
X324248D01*
Y91980D01*
X324600D01*
Y92097D01*
X324717D01*
Y91980D01*
X325068D01*
Y92097D01*
X325186D01*
Y91980D01*
X325537D01*
Y92097D01*
X325654D01*
Y91980D01*
X326006D01*
Y92097D01*
X326123D01*
Y91980D01*
X326240D01*
Y92097D01*
X326357D01*
Y92214D01*
X326474D01*
Y92331D01*
X326357D01*
Y92449D01*
X326474D01*
Y92566D01*
X326357D01*
Y92683D01*
X326474D01*
Y92800D01*
X326357D01*
Y92917D01*
X326474D01*
Y93151D01*
X326709D01*
Y93269D01*
X326826D01*
Y93151D01*
X326943D01*
Y93269D01*
X327060D01*
Y93151D01*
X327177D01*
Y93269D01*
X327294D01*
Y93151D01*
X327412D01*
Y93269D01*
X327529D01*
Y93151D01*
X327646D01*
Y93269D01*
X327763D01*
Y93151D01*
X327880D01*
Y93269D01*
X327997D01*
Y93151D01*
X328115D01*
Y93034D01*
X328232D01*
Y92917D01*
X328115D01*
Y92800D01*
X328232D01*
Y92683D01*
X328115D01*
Y92566D01*
X328232D01*
Y92449D01*
X328115D01*
Y92331D01*
X328232D01*
Y92214D01*
X328115D01*
Y92097D01*
X328232D01*
Y91980D01*
X328115D01*
Y91863D01*
X328232D01*
Y91746D01*
X328115D01*
Y91628D01*
X328232D01*
Y91511D01*
X328115D01*
Y91394D01*
X328232D01*
Y91277D01*
X328115D01*
Y91160D01*
X328232D01*
Y91043D01*
X328115D01*
Y90925D01*
X328232D01*
Y90808D01*
X328115D01*
Y90691D01*
X328232D01*
Y90574D01*
X328115D01*
Y90457D01*
X328232D01*
Y90340D01*
X328115D01*
Y90223D01*
X328232D01*
Y90105D01*
X328115D01*
Y89988D01*
X328232D01*
Y89871D01*
X328115D01*
Y89754D01*
X328232D01*
Y89637D01*
X328115D01*
Y89520D01*
X328232D01*
Y89402D01*
X328115D01*
Y89285D01*
X328232D01*
Y89168D01*
X328115D01*
Y89051D01*
X327997D01*
Y88934D01*
X327880D01*
Y89051D01*
X327763D01*
Y88934D01*
X327646D01*
Y89051D01*
X327529D01*
Y88699D01*
X327646D01*
Y88582D01*
X327763D01*
Y88465D01*
X327880D01*
Y88348D01*
X327997D01*
Y87762D01*
X328115D01*
Y87411D01*
X328232D01*
Y87293D01*
X328115D01*
Y87176D01*
X328232D01*
Y87059D01*
X328115D01*
Y86942D01*
X328232D01*
Y86825D01*
X328115D01*
Y86708D01*
X328232D01*
Y86591D01*
X328115D01*
Y86473D01*
X328232D01*
Y86356D01*
X328115D01*
Y86239D01*
X328232D01*
Y86122D01*
X328115D01*
Y86005D01*
X328232D01*
Y85888D01*
X328115D01*
Y85536D01*
X327997D01*
Y85419D01*
X328115D01*
Y85302D01*
X327997D01*
Y84950D01*
X327880D01*
Y84833D01*
X327763D01*
Y84599D01*
X327529D01*
Y84365D01*
X327294D01*
Y84247D01*
X327177D01*
Y84130D01*
X327060D01*
Y84013D01*
X326943D01*
Y84130D01*
X326826D01*
Y84013D01*
X326474D01*
Y83896D01*
X326357D01*
Y84013D01*
X326240D01*
Y83896D01*
X322843D01*
Y83779D01*
X322725D01*
Y83662D01*
X322843D01*
Y83310D01*
X322960D01*
Y83193D01*
X323077D01*
Y83076D01*
X323194D01*
Y82959D01*
X323311D01*
Y82841D01*
X323428D01*
Y82490D01*
X323545D01*
Y82607D01*
X323663D01*
Y82724D01*
X323780D01*
Y82841D01*
X323897D01*
Y82959D01*
X324014D01*
Y83076D01*
X324131D01*
Y83193D01*
X324248D01*
Y83076D01*
X324365D01*
Y83193D01*
X324483D01*
Y83310D01*
X325068D01*
Y83427D01*
X325186D01*
Y83310D01*
X325303D01*
Y83427D01*
X325420D01*
Y83310D01*
X325537D01*
Y83427D01*
X325654D01*
Y83310D01*
X326006D01*
Y83193D01*
X326123D01*
Y83310D01*
X326240D01*
Y83193D01*
X326357D01*
Y83076D01*
X326474D01*
Y83193D01*
X326591D01*
Y83076D01*
X326709D01*
Y82959D01*
X326826D01*
Y82841D01*
X326943D01*
Y82724D01*
X327060D01*
Y82607D01*
X327177D01*
Y82490D01*
X327294D01*
Y82373D01*
X327412D01*
Y82256D01*
X327529D01*
Y82139D01*
X327646D01*
Y82021D01*
X327763D01*
Y81670D01*
X327880D01*
Y81318D01*
X327997D01*
Y80967D01*
X328115D01*
Y80850D01*
X327997D01*
Y80733D01*
X328115D01*
Y80616D01*
X328232D01*
Y80498D01*
X328115D01*
Y80381D01*
X328232D01*
Y80264D01*
X328115D01*
Y80147D01*
X328232D01*
Y80030D01*
X328115D01*
Y79913D01*
X328232D01*
Y79795D01*
X328115D01*
Y79678D01*
X328232D01*
Y79561D01*
X328115D01*
Y79444D01*
X328232D01*
Y79327D01*
X328115D01*
Y79210D01*
X328232D01*
Y79093D01*
X328115D01*
Y78741D01*
X327997D01*
Y78624D01*
X328115D01*
Y78507D01*
X327997D01*
Y77921D01*
X327880D01*
Y77804D01*
X327763D01*
Y77452D01*
X327646D01*
Y77101D01*
X327763D01*
Y76749D01*
X327880D01*
Y76632D01*
X327997D01*
Y76281D01*
X328115D01*
Y76164D01*
X327997D01*
Y76046D01*
X328115D01*
Y75929D01*
X328232D01*
Y75812D01*
X328115D01*
Y75695D01*
X328232D01*
Y75578D01*
X328115D01*
Y75461D01*
X328232D01*
Y75344D01*
X328115D01*
Y75226D01*
X328232D01*
Y75109D01*
X328115D01*
Y74992D01*
X328232D01*
Y74875D01*
X328115D01*
Y74758D01*
X328232D01*
Y74641D01*
X328115D01*
Y74523D01*
X328232D01*
Y74406D01*
X328115D01*
Y74289D01*
X328232D01*
Y74172D01*
X328115D01*
Y74055D01*
X328232D01*
Y73938D01*
X328115D01*
Y73820D01*
X328232D01*
Y73703D01*
X328115D01*
Y73586D01*
X328232D01*
Y73469D01*
X328115D01*
Y73352D01*
X328232D01*
Y73235D01*
X328115D01*
Y73118D01*
X328232D01*
Y73000D01*
X328115D01*
Y72883D01*
X328232D01*
Y72766D01*
X328115D01*
Y72649D01*
X328232D01*
Y72532D01*
X328115D01*
Y72414D01*
X328232D01*
Y72297D01*
X328115D01*
Y72180D01*
X328232D01*
Y72063D01*
X328115D01*
Y71946D01*
X328232D01*
Y71829D01*
X328115D01*
Y71712D01*
X328232D01*
Y71594D01*
X328115D01*
Y71477D01*
X328232D01*
Y71360D01*
X328115D01*
Y71243D01*
X328232D01*
Y71126D01*
X328115D01*
Y71009D01*
X327997D01*
Y70891D01*
X327880D01*
Y71009D01*
X327763D01*
Y70891D01*
X327646D01*
Y71009D01*
X327529D01*
Y70891D01*
X327646D01*
Y70774D01*
X327763D01*
Y70657D01*
X327880D01*
Y70306D01*
X327997D01*
Y69954D01*
X328115D01*
Y69837D01*
X327997D01*
Y69720D01*
X328115D01*
Y69368D01*
X328232D01*
Y69251D01*
X328115D01*
Y69134D01*
X328232D01*
Y69017D01*
X328115D01*
Y68900D01*
X328232D01*
Y68783D01*
X328115D01*
Y68665D01*
X328232D01*
Y68548D01*
X328115D01*
Y68431D01*
X328232D01*
Y68314D01*
X328115D01*
Y68197D01*
X327997D01*
Y68080D01*
X328115D01*
Y67962D01*
X327997D01*
Y67611D01*
X327880D01*
Y67494D01*
X327763D01*
Y67377D01*
X327880D01*
Y67260D01*
X327763D01*
Y67142D01*
X327646D01*
Y67025D01*
X327529D01*
Y66674D01*
X327294D01*
Y66439D01*
X327060D01*
Y66205D01*
X327177D01*
Y66322D01*
X327294D01*
Y66205D01*
X327412D01*
Y66322D01*
X327529D01*
Y66205D01*
X327646D01*
Y66322D01*
X327763D01*
Y66205D01*
X327880D01*
Y66322D01*
X327997D01*
Y66205D01*
X328115D01*
Y66088D01*
X328232D01*
Y65971D01*
X328115D01*
Y65854D01*
X328232D01*
Y65737D01*
X328115D01*
Y65619D01*
X328232D01*
Y65502D01*
X328115D01*
Y65385D01*
X328232D01*
Y65268D01*
X328115D01*
Y65151D01*
X328232D01*
Y65034D01*
X328115D01*
Y64916D01*
X328232D01*
Y64799D01*
X328115D01*
Y64682D01*
X328232D01*
Y64565D01*
X328115D01*
Y64448D01*
X328232D01*
Y64331D01*
X328115D01*
Y64214D01*
X328232D01*
Y64096D01*
X328115D01*
Y63979D01*
X328232D01*
Y63862D01*
X328115D01*
Y63745D01*
X328232D01*
Y63628D01*
X328115D01*
Y63511D01*
X328232D01*
Y63393D01*
X328115D01*
Y63276D01*
X328232D01*
Y63159D01*
X328115D01*
Y63042D01*
X328232D01*
Y62925D01*
X328115D01*
Y62808D01*
X328232D01*
Y62690D01*
X328115D01*
Y62573D01*
X328232D01*
Y62456D01*
X328115D01*
Y62339D01*
X328232D01*
Y62222D01*
X328115D01*
Y62105D01*
X327997D01*
Y61870D01*
X327763D01*
Y61988D01*
X327646D01*
Y61870D01*
X327294D01*
Y61988D01*
X327177D01*
Y61870D01*
X326826D01*
Y61988D01*
X326709D01*
Y61870D01*
X326357D01*
Y61988D01*
X326240D01*
Y61870D01*
X325889D01*
Y61988D01*
X325771D01*
Y61870D01*
X325420D01*
Y61988D01*
X325303D01*
Y61870D01*
X324951D01*
Y61988D01*
X324834D01*
Y61870D01*
X324483D01*
Y61988D01*
X324365D01*
Y61870D01*
X324014D01*
Y61988D01*
X323897D01*
Y61870D01*
X323545D01*
Y61988D01*
X323428D01*
Y61870D01*
X323077D01*
Y61988D01*
X322960D01*
Y61870D01*
X322843D01*
Y61753D01*
X322725D01*
Y61636D01*
X322843D01*
Y61285D01*
X322960D01*
Y61167D01*
X323077D01*
Y61050D01*
X323194D01*
Y60933D01*
X323311D01*
Y60816D01*
X323428D01*
Y60699D01*
X323311D01*
Y60582D01*
X323428D01*
Y60464D01*
X323545D01*
Y60582D01*
X323663D01*
Y60699D01*
X323780D01*
Y60816D01*
X323897D01*
Y60933D01*
X324014D01*
Y61050D01*
X324131D01*
Y61167D01*
X324248D01*
Y61050D01*
X324365D01*
Y61167D01*
X324483D01*
Y61285D01*
X324834D01*
Y61402D01*
X324951D01*
Y61285D01*
X325068D01*
Y61402D01*
X325186D01*
Y61285D01*
X325303D01*
Y61402D01*
X325420D01*
Y61285D01*
X325537D01*
Y61402D01*
X325654D01*
Y61285D01*
X326006D01*
Y61167D01*
X326357D01*
Y61050D01*
X326474D01*
Y61167D01*
X326591D01*
Y61050D01*
X326709D01*
Y60933D01*
X326826D01*
Y60816D01*
X326943D01*
Y60699D01*
X327060D01*
Y60582D01*
X327177D01*
Y60464D01*
X327294D01*
Y60347D01*
X327412D01*
Y60230D01*
X327529D01*
Y59996D01*
X327646D01*
Y59879D01*
X327763D01*
Y59644D01*
X327880D01*
Y59293D01*
X327997D01*
Y58941D01*
X328115D01*
Y58824D01*
X327997D01*
Y58707D01*
X328115D01*
Y58356D01*
X328232D01*
Y58239D01*
X328115D01*
Y58121D01*
X328232D01*
Y58004D01*
X328115D01*
Y57887D01*
X328232D01*
Y57770D01*
X328115D01*
Y57653D01*
X328232D01*
Y57535D01*
X328115D01*
Y57418D01*
X328232D01*
Y57301D01*
X328115D01*
Y57184D01*
X328232D01*
Y57067D01*
X328115D01*
Y56715D01*
X327997D01*
Y56598D01*
X328115D01*
Y56481D01*
X327997D01*
Y55895D01*
X327880D01*
Y55778D01*
X327763D01*
Y55427D01*
X327646D01*
Y55075D01*
X327763D01*
Y54724D01*
X327880D01*
Y54607D01*
X327997D01*
Y54255D01*
X328115D01*
Y54138D01*
X327997D01*
Y54021D01*
X328115D01*
Y53904D01*
X328232D01*
Y53786D01*
X328115D01*
Y53669D01*
X328232D01*
Y53552D01*
X328115D01*
Y53435D01*
X328232D01*
Y53318D01*
X328115D01*
Y53201D01*
X328232D01*
Y53083D01*
X328115D01*
Y52732D01*
X327997D01*
Y52381D01*
X327880D01*
Y52263D01*
X327763D01*
Y52146D01*
X327646D01*
Y52029D01*
X327529D01*
Y51912D01*
X327177D01*
Y51795D01*
X326357D01*
Y51912D01*
X326006D01*
Y52029D01*
X325889D01*
Y52146D01*
X325771D01*
Y52263D01*
X325654D01*
Y52498D01*
X325537D01*
Y53435D01*
X325654D01*
Y53552D01*
X325771D01*
Y53786D01*
X326006D01*
Y53904D01*
X326123D01*
Y54021D01*
X326240D01*
Y54138D01*
X325889D01*
Y54021D01*
X325771D01*
Y54138D01*
X325654D01*
Y54021D01*
X325537D01*
Y54138D01*
X325420D01*
Y54021D01*
X325303D01*
Y54138D01*
X325186D01*
Y54021D01*
X325068D01*
Y54138D01*
X324717D01*
Y54255D01*
X324365D01*
Y54372D01*
X324248D01*
Y54489D01*
X324131D01*
Y54607D01*
X323897D01*
Y54724D01*
X323663D01*
Y54958D01*
X323545D01*
Y55075D01*
X323428D01*
Y55309D01*
X323311D01*
Y55427D01*
X323194D01*
Y55778D01*
X323077D01*
Y55895D01*
X322960D01*
Y56012D01*
X323077D01*
Y56130D01*
X322960D01*
Y56481D01*
X322843D01*
Y56598D01*
X322960D01*
Y56715D01*
X322843D01*
Y56833D01*
X322725D01*
Y56950D01*
X322843D01*
Y57067D01*
X322725D01*
Y57184D01*
X322843D01*
Y57301D01*
X322725D01*
Y57418D01*
X322843D01*
Y57535D01*
X322725D01*
Y57887D01*
X322843D01*
Y58004D01*
X322725D01*
Y58121D01*
X322843D01*
Y58239D01*
X322725D01*
Y58356D01*
X322843D01*
Y58473D01*
X322725D01*
Y58590D01*
X322843D01*
Y58941D01*
X322960D01*
Y59527D01*
X322608D01*
Y59176D01*
X322491D01*
Y58824D01*
X322374D01*
Y58707D01*
X322491D01*
Y58590D01*
X322374D01*
Y58473D01*
X322491D01*
Y58356D01*
X322374D01*
Y58239D01*
X322491D01*
Y58121D01*
X322374D01*
Y58004D01*
X322491D01*
Y57887D01*
X322374D01*
Y57770D01*
X322491D01*
Y57653D01*
X322608D01*
Y57535D01*
X322491D01*
Y57418D01*
X322608D01*
Y57301D01*
X322491D01*
Y57184D01*
X322608D01*
Y57067D01*
X322491D01*
Y56950D01*
X322608D01*
Y56833D01*
X322491D01*
Y56715D01*
X322608D01*
Y56598D01*
X322491D01*
Y56481D01*
X322608D01*
Y56364D01*
X322491D01*
Y56247D01*
X322608D01*
Y56130D01*
X322491D01*
Y56012D01*
X322608D01*
Y55895D01*
X322491D01*
Y55778D01*
X322608D01*
Y55661D01*
X322491D01*
Y55544D01*
X322608D01*
Y55427D01*
X322491D01*
Y55309D01*
X322608D01*
Y55192D01*
X322491D01*
Y54841D01*
X322374D01*
Y54724D01*
X322491D01*
Y54607D01*
X322374D01*
Y54255D01*
X322257D01*
Y54138D01*
X322374D01*
Y54021D01*
X322257D01*
Y53904D01*
X322140D01*
Y53786D01*
X322022D01*
Y53669D01*
X321905D01*
Y53435D01*
X321671D01*
Y53318D01*
X321554D01*
Y53201D01*
X321437D01*
Y53083D01*
X321085D01*
Y52966D01*
X320734D01*
Y52849D01*
X320617D01*
Y52966D01*
X320499D01*
Y52849D01*
X320382D01*
Y52966D01*
X320265D01*
Y52849D01*
X320148D01*
Y52966D01*
X319796D01*
Y53083D01*
X319679D01*
Y53201D01*
X319562D01*
Y53083D01*
X319445D01*
Y53201D01*
X319328D01*
Y53318D01*
X319211D01*
Y53435D01*
X318976D01*
Y53669D01*
X318859D01*
Y53786D01*
X318742D01*
Y53904D01*
X318625D01*
Y54021D01*
X318508D01*
Y54372D01*
X318390D01*
Y54724D01*
X318273D01*
Y55075D01*
X318156D01*
Y55192D01*
X318273D01*
Y55309D01*
X318156D01*
Y55427D01*
X318039D01*
Y55544D01*
X318156D01*
Y55661D01*
X318039D01*
Y56715D01*
X317922D01*
Y56833D01*
X318039D01*
Y56950D01*
X317922D01*
Y57067D01*
X318039D01*
Y57184D01*
X317922D01*
Y57301D01*
X318039D01*
Y57418D01*
X317922D01*
Y57535D01*
X318039D01*
Y57653D01*
X317922D01*
Y57770D01*
X318039D01*
Y57887D01*
X317922D01*
Y58004D01*
X318039D01*
Y58121D01*
X317922D01*
Y58239D01*
X318039D01*
Y59293D01*
X318156D01*
Y59410D01*
X318039D01*
Y59527D01*
X318156D01*
Y59644D01*
X318039D01*
Y59762D01*
X318156D01*
Y59879D01*
X318273D01*
Y59996D01*
X318156D01*
Y60113D01*
X318273D01*
Y60464D01*
X318390D01*
Y60816D01*
X318508D01*
Y61167D01*
X318625D01*
Y61285D01*
X318742D01*
Y61402D01*
X318859D01*
Y61519D01*
X318976D01*
Y61636D01*
X319211D01*
Y61753D01*
X319445D01*
Y61870D01*
X319562D01*
Y61753D01*
X319679D01*
Y61870D01*
X319796D01*
Y61753D01*
X319914D01*
Y61870D01*
X320031D01*
Y61753D01*
X320148D01*
Y61636D01*
X320499D01*
Y61402D01*
X320734D01*
Y61050D01*
X320851D01*
Y60933D01*
X320968D01*
Y61050D01*
X321085D01*
Y61167D01*
X321202D01*
Y61285D01*
X321085D01*
Y61402D01*
X321202D01*
Y61519D01*
X321085D01*
Y61636D01*
X321202D01*
Y61753D01*
X321085D01*
Y61870D01*
X321202D01*
Y61988D01*
X321085D01*
Y62105D01*
X321202D01*
Y62222D01*
X321085D01*
Y62339D01*
X321202D01*
Y62456D01*
X321085D01*
Y62573D01*
X321202D01*
Y62690D01*
X321085D01*
Y62808D01*
X321202D01*
Y62925D01*
X321085D01*
Y63042D01*
X321202D01*
Y63159D01*
X321085D01*
Y63276D01*
X321202D01*
Y63393D01*
X321085D01*
Y63511D01*
X321202D01*
Y63628D01*
X321085D01*
Y63745D01*
X321202D01*
Y63862D01*
X321085D01*
Y63979D01*
X321202D01*
Y64096D01*
X321085D01*
Y64214D01*
X321202D01*
Y64331D01*
X321085D01*
Y64448D01*
X321202D01*
Y64565D01*
X321085D01*
Y64682D01*
X321202D01*
Y64799D01*
X321085D01*
Y64916D01*
X321202D01*
Y65034D01*
X321085D01*
Y65151D01*
X321202D01*
Y65268D01*
X321085D01*
Y65385D01*
X321202D01*
Y65502D01*
X321085D01*
Y65619D01*
X321202D01*
Y65737D01*
X321085D01*
Y65854D01*
X321202D01*
Y65971D01*
X321085D01*
Y66088D01*
X321202D01*
Y66205D01*
X321320D01*
Y66322D01*
X321437D01*
Y66205D01*
X321554D01*
Y66322D01*
X321671D01*
Y66205D01*
X321788D01*
Y66322D01*
X321905D01*
Y66205D01*
X322022D01*
Y66322D01*
X322140D01*
Y66205D01*
X322257D01*
Y66322D01*
X322140D01*
Y66439D01*
X322022D01*
Y66557D01*
X321905D01*
Y66674D01*
X321788D01*
Y66791D01*
X321671D01*
Y66908D01*
X321554D01*
Y67260D01*
X321437D01*
Y67377D01*
X321320D01*
Y67494D01*
X321202D01*
Y67611D01*
X321320D01*
Y67728D01*
X321202D01*
Y67845D01*
X321085D01*
Y67962D01*
X321202D01*
Y68080D01*
X321085D01*
Y68665D01*
X320968D01*
Y68783D01*
X321085D01*
Y68900D01*
X320968D01*
Y69017D01*
X321085D01*
Y69134D01*
X320968D01*
Y69251D01*
X321085D01*
Y70071D01*
X321202D01*
Y70188D01*
X321320D01*
Y70540D01*
X321437D01*
Y70657D01*
X321554D01*
Y70891D01*
X320148D01*
Y70774D01*
X320031D01*
Y70657D01*
X319914D01*
Y70540D01*
X320031D01*
Y70188D01*
X319914D01*
Y70071D01*
X320031D01*
Y69720D01*
X319796D01*
Y69603D01*
X318508D01*
Y69720D01*
X318273D01*
Y69837D01*
X318390D01*
Y69954D01*
X318273D01*
Y70071D01*
X318390D01*
Y70188D01*
X318273D01*
Y70306D01*
X318390D01*
Y70423D01*
X318273D01*
Y70540D01*
X318390D01*
Y70657D01*
X318273D01*
Y70774D01*
X318390D01*
Y70891D01*
X318273D01*
Y71009D01*
X318390D01*
Y71126D01*
X318273D01*
Y71243D01*
X318390D01*
Y71360D01*
X318273D01*
Y71477D01*
X318390D01*
Y71594D01*
X318273D01*
Y71712D01*
X318390D01*
Y71829D01*
X318273D01*
Y71946D01*
X318390D01*
Y72063D01*
X318273D01*
Y72180D01*
X318390D01*
Y72297D01*
X318273D01*
Y72414D01*
X318390D01*
Y72532D01*
X318273D01*
Y72649D01*
X318390D01*
Y72766D01*
X318273D01*
Y72883D01*
X318390D01*
Y73000D01*
X318273D01*
Y73118D01*
X318390D01*
Y73235D01*
X318273D01*
Y73352D01*
X318390D01*
Y73469D01*
X318273D01*
Y73586D01*
X318390D01*
Y73703D01*
X318273D01*
Y73820D01*
X318390D01*
Y73938D01*
X318273D01*
Y74055D01*
X318390D01*
Y74172D01*
X318273D01*
Y74289D01*
X318390D01*
Y74406D01*
X318273D01*
Y74523D01*
X318390D01*
Y74641D01*
X318273D01*
Y74758D01*
X318390D01*
Y74875D01*
X318273D01*
Y74992D01*
X318390D01*
Y75109D01*
X318508D01*
Y75226D01*
X318625D01*
Y75109D01*
X318742D01*
Y75226D01*
X318859D01*
Y75109D01*
X318976D01*
Y75226D01*
X319093D01*
Y75109D01*
X319211D01*
Y75226D01*
X319328D01*
Y75109D01*
X319445D01*
Y75226D01*
X319328D01*
Y75344D01*
X319211D01*
Y75461D01*
X318976D01*
Y75695D01*
X318859D01*
Y75812D01*
X318742D01*
Y75929D01*
X318625D01*
Y76046D01*
X318508D01*
Y76398D01*
X318390D01*
Y76749D01*
X318273D01*
Y77101D01*
X318156D01*
Y77218D01*
X318273D01*
Y77335D01*
X318156D01*
Y77452D01*
X318039D01*
Y77570D01*
X318156D01*
Y77687D01*
X318039D01*
Y78741D01*
X317922D01*
Y78858D01*
X318039D01*
Y78975D01*
X317922D01*
Y79093D01*
X318039D01*
Y79210D01*
X317922D01*
Y79327D01*
X318039D01*
Y79444D01*
X317922D01*
Y79561D01*
X318039D01*
Y79678D01*
X317922D01*
Y79795D01*
X318039D01*
Y79913D01*
X317922D01*
Y80030D01*
X318039D01*
Y80147D01*
X317922D01*
Y80264D01*
X318039D01*
Y81318D01*
X318156D01*
Y81436D01*
X318039D01*
Y81553D01*
X318156D01*
Y81670D01*
X318039D01*
Y81787D01*
X318156D01*
Y81904D01*
X318273D01*
Y82021D01*
X318156D01*
Y82139D01*
X318273D01*
Y82490D01*
X318390D01*
Y82841D01*
X318508D01*
Y83193D01*
X318625D01*
Y83076D01*
X318742D01*
Y83193D01*
X318625D01*
Y83310D01*
X318742D01*
Y83427D01*
X318859D01*
Y83544D01*
X318976D01*
Y83662D01*
X319211D01*
Y83779D01*
X319445D01*
Y83896D01*
X319562D01*
Y83779D01*
X319679D01*
Y83896D01*
X319796D01*
Y83779D01*
X319914D01*
Y83896D01*
X320031D01*
Y83779D01*
X320148D01*
Y83662D01*
X320499D01*
Y83427D01*
X320734D01*
Y83076D01*
X320851D01*
Y82959D01*
X320968D01*
Y83076D01*
X321085D01*
Y83193D01*
X321202D01*
Y83310D01*
X321085D01*
Y83427D01*
X321202D01*
Y83544D01*
X321085D01*
Y83662D01*
X321202D01*
Y83779D01*
X321085D01*
Y83896D01*
X321202D01*
Y84013D01*
X321085D01*
Y84130D01*
X321202D01*
Y84247D01*
X321085D01*
Y84365D01*
X321202D01*
Y84482D01*
X321085D01*
Y84599D01*
X321202D01*
Y84716D01*
X321085D01*
Y84833D01*
X321202D01*
Y84950D01*
X321085D01*
Y85068D01*
X321202D01*
Y85185D01*
X321085D01*
Y85302D01*
X321202D01*
Y85419D01*
X321085D01*
Y85536D01*
X321202D01*
Y85653D01*
X321085D01*
Y85770D01*
X321202D01*
Y85888D01*
X321085D01*
Y86005D01*
X321202D01*
Y86122D01*
X321085D01*
Y86239D01*
X321202D01*
Y86356D01*
X321085D01*
Y86473D01*
X321202D01*
Y86591D01*
X321085D01*
Y86708D01*
X321202D01*
Y86825D01*
X321085D01*
Y86942D01*
X321202D01*
Y87059D01*
X321085D01*
Y87176D01*
X321202D01*
Y87293D01*
X321085D01*
Y87411D01*
X321202D01*
Y87528D01*
X321085D01*
Y87645D01*
X321202D01*
Y87762D01*
X321320D01*
Y87879D01*
X321437D01*
Y87762D01*
X321788D01*
Y87879D01*
X321905D01*
Y87762D01*
X322257D01*
Y87879D01*
X322374D01*
Y87762D01*
X322725D01*
Y87645D01*
X322843D01*
Y87528D01*
X322725D01*
Y87411D01*
X322843D01*
Y87059D01*
X325537D01*
Y87176D01*
X325654D01*
Y87059D01*
X325771D01*
Y87176D01*
X325889D01*
Y87293D01*
X326006D01*
Y87411D01*
X326123D01*
Y87528D01*
X326240D01*
Y87645D01*
X326123D01*
Y87762D01*
X326240D01*
Y87879D01*
X326123D01*
Y88231D01*
X326006D01*
Y88582D01*
X325771D01*
Y88699D01*
X325537D01*
Y88817D01*
X325186D01*
Y88934D01*
X325068D01*
Y88817D01*
X324951D01*
Y88934D01*
X324834D01*
Y88817D01*
X324717D01*
Y88934D01*
X324600D01*
Y88817D01*
X324483D01*
Y88934D01*
X324365D01*
Y88817D01*
X324248D01*
Y88934D01*
X324131D01*
Y88817D01*
X324014D01*
Y88934D01*
X323897D01*
Y88817D01*
X323780D01*
Y88934D01*
X323663D01*
Y88817D01*
X323545D01*
Y88934D01*
X323428D01*
Y88817D01*
X323311D01*
Y88934D01*
X323194D01*
Y88817D01*
X323077D01*
Y88934D01*
X322960D01*
Y88817D01*
X322843D01*
Y88465D01*
X322725D01*
Y88348D01*
X322843D01*
Y88231D01*
X322725D01*
Y88114D01*
X322608D01*
Y87997D01*
X322491D01*
Y88114D01*
X322374D01*
Y87997D01*
X322257D01*
Y88114D01*
X322140D01*
Y87997D01*
X322022D01*
Y88114D01*
X321905D01*
Y87997D01*
X321788D01*
Y88114D01*
X321671D01*
Y87997D01*
X321554D01*
Y88114D01*
X321437D01*
Y87997D01*
X321320D01*
Y88114D01*
X321202D01*
Y88231D01*
X321085D01*
Y88348D01*
X321202D01*
Y88465D01*
X321085D01*
Y88582D01*
X321202D01*
Y88699D01*
X321085D01*
Y88817D01*
X321202D01*
Y88934D01*
X321085D01*
Y89051D01*
X321202D01*
Y89168D01*
X321085D01*
Y89285D01*
X321202D01*
Y89402D01*
X321085D01*
Y89520D01*
X321202D01*
Y89637D01*
X321085D01*
Y89754D01*
X321202D01*
Y89871D01*
X321085D01*
Y89988D01*
X321202D01*
Y90105D01*
X321085D01*
Y90223D01*
X321202D01*
Y90340D01*
X321085D01*
Y90457D01*
X321202D01*
Y90574D01*
X321085D01*
Y90691D01*
X321202D01*
Y90808D01*
X321085D01*
Y90925D01*
X321202D01*
Y91043D01*
X321085D01*
Y91160D01*
X321202D01*
Y91277D01*
X321085D01*
Y91394D01*
X321202D01*
Y91511D01*
X321085D01*
Y91628D01*
X321202D01*
Y91746D01*
X321085D01*
Y91863D01*
X321202D01*
Y91980D01*
X321085D01*
Y92097D01*
X321202D01*
Y92214D01*
X321085D01*
Y92331D01*
X321202D01*
Y92449D01*
X321085D01*
Y92566D01*
X321202D01*
Y92683D01*
X321085D01*
Y92800D01*
X321202D01*
Y92917D01*
X321085D01*
Y93034D01*
X321202D01*
Y93151D01*
X321085D01*
Y93269D01*
X321202D01*
Y93386D01*
X321085D01*
Y93503D01*
X321202D01*
Y93620D01*
X321085D01*
Y93737D01*
X321202D01*
Y93854D01*
X321085D01*
Y93972D01*
X321202D01*
Y94089D01*
X321085D01*
Y94206D01*
X321202D01*
Y94323D01*
X321085D01*
Y94440D01*
X321202D01*
Y94557D01*
X321085D01*
Y94674D01*
X321202D01*
Y94792D01*
X321085D01*
Y94909D01*
X321202D01*
Y95026D01*
X321085D01*
Y95143D01*
X321202D01*
Y95260D01*
X321085D01*
Y95377D01*
X321202D01*
Y95495D01*
X321085D01*
Y95612D01*
X321202D01*
Y95729D01*
X321085D01*
Y95846D01*
X321202D01*
Y95963D01*
X321085D01*
Y96080D01*
X321202D01*
Y96197D01*
X321085D01*
Y96315D01*
X321202D01*
Y96432D01*
X321085D01*
Y96549D01*
X321202D01*
Y96666D01*
X321085D01*
Y96783D01*
X321202D01*
Y96900D01*
X321085D01*
Y97018D01*
X321202D01*
Y97135D01*
X321085D01*
Y97252D01*
X321202D01*
Y97369D01*
X321085D01*
Y97486D01*
X321202D01*
Y97603D01*
X321085D01*
Y97721D01*
X321202D01*
Y97838D01*
X321085D01*
Y97955D01*
X321202D01*
Y98072D01*
X321085D01*
Y98189D01*
X321202D01*
Y98306D01*
X321085D01*
Y98423D01*
X321202D01*
Y98541D01*
X321085D01*
Y98658D01*
X321202D01*
Y98775D01*
X321085D01*
Y98892D01*
X321202D01*
Y99009D01*
X321085D01*
Y99126D01*
X321202D01*
Y99244D01*
X321085D01*
Y99361D01*
X321202D01*
Y99478D01*
X321085D01*
Y99595D01*
X321202D01*
Y99712D01*
X321085D01*
Y99829D01*
X321202D01*
Y99947D01*
X321085D01*
Y100064D01*
X321202D01*
Y100181D01*
X321085D01*
Y100298D01*
X321202D01*
Y100415D01*
X321085D01*
Y100532D01*
X321202D01*
Y100649D01*
X321085D01*
Y100767D01*
X321202D01*
Y100884D01*
X321085D01*
Y101001D01*
X321202D01*
Y101118D01*
X321085D01*
Y101235D01*
X321202D01*
Y101353D01*
X321085D01*
Y101470D01*
X321202D01*
Y101587D01*
X321085D01*
Y101704D01*
X321202D01*
Y101821D01*
X321320D01*
Y101938D01*
X322608D01*
Y101821D01*
X322725D01*
Y101704D01*
X322843D01*
Y101587D01*
X322725D01*
Y101470D01*
X322843D01*
Y101235D01*
X323077D01*
Y101118D01*
X323194D01*
Y101235D01*
X323311D01*
Y101118D01*
X323428D01*
Y101235D01*
X323545D01*
Y101118D01*
X323663D01*
Y101235D01*
X323780D01*
Y101118D01*
X323897D01*
Y101235D01*
X324014D01*
Y101118D01*
X324131D01*
Y101235D01*
X324248D01*
Y101118D01*
X324365D01*
Y101235D01*
X324483D01*
Y101118D01*
X324600D01*
Y101235D01*
X324717D01*
Y101118D01*
X324834D01*
Y101235D01*
X324951D01*
Y101118D01*
X325068D01*
Y101235D01*
X325654D01*
Y101353D01*
X326006D01*
Y101470D01*
X326123D01*
Y101821D01*
X326240D01*
Y101938D01*
X326123D01*
Y102055D01*
X326240D01*
Y102173D01*
X326123D01*
Y102290D01*
X326006D01*
Y102407D01*
X326123D01*
Y102524D01*
X326006D01*
Y102641D01*
X325889D01*
Y102758D01*
X325771D01*
Y102875D01*
X325654D01*
Y102993D01*
X325303D01*
Y103110D01*
X325186D01*
Y102993D01*
X325068D01*
Y103110D01*
X324951D01*
Y102993D01*
X324834D01*
Y103110D01*
X324717D01*
Y102993D01*
X324600D01*
Y103110D01*
X324483D01*
Y102993D01*
X324365D01*
Y103110D01*
X324248D01*
Y102993D01*
X324131D01*
Y103110D01*
X324014D01*
Y102993D01*
X323897D01*
Y103110D01*
X323780D01*
Y102993D01*
X323663D01*
Y103110D01*
X323545D01*
Y102993D01*
X323428D01*
Y103110D01*
X323311D01*
Y102993D01*
X323194D01*
Y103110D01*
X323077D01*
Y102993D01*
X322960D01*
Y103110D01*
X322843D01*
Y102993D01*
X322725D01*
Y102875D01*
X322843D01*
Y102524D01*
X322725D01*
Y102407D01*
X322843D01*
Y102290D01*
X322491D01*
Y102173D01*
X322140D01*
Y102290D01*
X322022D01*
Y102173D01*
X321671D01*
Y102290D01*
X321554D01*
Y102173D01*
X321320D01*
Y102290D01*
X321202D01*
Y102524D01*
X321085D01*
Y102641D01*
X321202D01*
Y102758D01*
X321085D01*
Y102875D01*
X321202D01*
Y102993D01*
X321085D01*
Y103110D01*
X321202D01*
Y103227D01*
X321085D01*
Y103344D01*
X321202D01*
Y103461D01*
X321085D01*
Y103578D01*
X321202D01*
Y103696D01*
X321085D01*
Y103813D01*
X321202D01*
Y103930D01*
X321085D01*
Y104047D01*
X321202D01*
Y104164D01*
X321085D01*
Y104281D01*
X321202D01*
Y104399D01*
X321085D01*
Y104516D01*
X321202D01*
Y104633D01*
X321085D01*
Y104750D01*
X321202D01*
Y104867D01*
X321085D01*
Y104984D01*
X321202D01*
Y105102D01*
X321085D01*
Y105219D01*
X321202D01*
Y105336D01*
X321085D01*
Y105453D01*
X321202D01*
Y105570D01*
X321085D01*
Y105687D01*
X321202D01*
Y105804D01*
X321085D01*
Y105922D01*
X321202D01*
Y106039D01*
X321085D01*
Y106156D01*
X321202D01*
Y106273D01*
X321085D01*
Y106390D01*
X321202D01*
Y106507D01*
X321085D01*
Y106624D01*
X321202D01*
Y106742D01*
X321085D01*
Y106859D01*
X321202D01*
Y106976D01*
X321085D01*
Y107093D01*
X321202D01*
Y107210D01*
X321085D01*
Y107327D01*
X321202D01*
Y107445D01*
X321085D01*
Y107562D01*
X321202D01*
Y107679D01*
X321085D01*
Y107796D01*
X321202D01*
Y107913D01*
X321085D01*
Y108030D01*
X321202D01*
Y108148D01*
X321085D01*
Y108265D01*
X321202D01*
Y108382D01*
X321085D01*
Y108499D01*
X321202D01*
Y108616D01*
X321085D01*
Y108733D01*
X321202D01*
Y108851D01*
X321085D01*
Y108968D01*
X321202D01*
Y109085D01*
X321085D01*
Y109202D01*
X321202D01*
Y109319D01*
X321085D01*
Y109436D01*
X321202D01*
Y109554D01*
X321085D01*
Y109671D01*
X321202D01*
Y109788D01*
X321085D01*
Y109905D01*
X321202D01*
Y110022D01*
X321085D01*
Y110139D01*
X321202D01*
Y110256D01*
X321085D01*
Y110374D01*
X321202D01*
Y110491D01*
X321085D01*
Y110608D01*
X321202D01*
Y110725D01*
X321085D01*
Y110842D01*
X321202D01*
Y110959D01*
X321085D01*
Y111076D01*
X321202D01*
Y111194D01*
X321085D01*
Y111311D01*
X321202D01*
Y111428D01*
X321085D01*
Y111545D01*
X321202D01*
Y111662D01*
X321085D01*
Y111779D01*
X321202D01*
Y111897D01*
X321085D01*
Y112014D01*
X321202D01*
Y112131D01*
X321085D01*
Y112248D01*
X321202D01*
Y112365D01*
X321085D01*
Y112482D01*
X321202D01*
Y112600D01*
X321085D01*
Y112717D01*
X321202D01*
Y112834D01*
X321085D01*
Y112951D01*
X321202D01*
Y113068D01*
X321085D01*
Y113185D01*
X321202D01*
Y113303D01*
X321085D01*
Y113420D01*
X321202D01*
Y113537D01*
X321085D01*
Y113654D01*
X321202D01*
Y113771D01*
X321085D01*
Y113888D01*
X321202D01*
Y114005D01*
X321085D01*
Y114123D01*
X321202D01*
Y114240D01*
X321085D01*
Y114357D01*
X321202D01*
Y114474D01*
X321085D01*
Y114591D01*
X321202D01*
Y114708D01*
X321085D01*
Y114826D01*
X321202D01*
Y114943D01*
X321085D01*
Y115060D01*
X321202D01*
Y115177D01*
X321085D01*
Y115294D01*
X321202D01*
Y115411D01*
X321085D01*
Y115529D01*
X321202D01*
Y115646D01*
X321085D01*
Y115763D01*
X321202D01*
Y115880D01*
X321085D01*
Y115997D01*
X321202D01*
Y116114D01*
X321320D01*
Y116349D01*
X321202D01*
Y116583D01*
X321085D01*
Y116700D01*
X321202D01*
Y116817D01*
X321085D01*
Y116934D01*
X321202D01*
Y117052D01*
X321085D01*
Y117169D01*
X321202D01*
Y117286D01*
X321085D01*
Y117403D01*
X321202D01*
Y117520D01*
X321085D01*
Y117637D01*
X321202D01*
Y117754D01*
X321085D01*
Y117872D01*
X321202D01*
Y117989D01*
X321085D01*
Y118106D01*
X321202D01*
Y118223D01*
X321085D01*
Y118340D01*
X321202D01*
Y118457D01*
X321085D01*
Y118575D01*
X321202D01*
Y118692D01*
X321085D01*
Y118809D01*
X321202D01*
Y118926D01*
X321085D01*
Y119043D01*
X321202D01*
Y119160D01*
X321085D01*
Y119278D01*
X321202D01*
Y119395D01*
X321085D01*
Y119512D01*
X321202D01*
Y119629D01*
X321085D01*
Y119746D01*
X321202D01*
Y119863D01*
X321085D01*
Y119981D01*
X321202D01*
Y120098D01*
X321085D01*
Y120215D01*
X321202D01*
Y120332D01*
X321085D01*
Y120449D01*
X321202D01*
Y120566D01*
X321085D01*
Y120684D01*
X321202D01*
Y120801D01*
X321085D01*
Y120918D01*
X321202D01*
Y121035D01*
X321085D01*
Y121152D01*
X321202D01*
Y121269D01*
X321085D01*
Y121386D01*
X321202D01*
Y121504D01*
X321788D01*
Y121855D01*
X321671D01*
Y121972D01*
X321554D01*
Y122089D01*
X321437D01*
Y122441D01*
X321320D01*
Y122792D01*
X321202D01*
Y123144D01*
X321085D01*
Y123964D01*
X320968D01*
Y124081D01*
X321085D01*
Y124198D01*
X320968D01*
Y124315D01*
X321085D01*
Y124433D01*
X320968D01*
Y124550D01*
X321085D01*
Y124667D01*
X320968D01*
Y124784D01*
X321085D01*
Y124901D01*
X320968D01*
Y125018D01*
X321085D01*
Y125604D01*
X321202D01*
Y125721D01*
X321085D01*
Y125838D01*
X321202D01*
Y125956D01*
X321320D01*
Y126073D01*
X321202D01*
Y126190D01*
X321320D01*
Y126541D01*
X321437D01*
Y126658D01*
X321554D01*
Y126776D01*
X321437D01*
Y126893D01*
X321320D01*
Y127010D01*
X321202D01*
Y127127D01*
X321085D01*
Y127244D01*
X321202D01*
Y127361D01*
X321085D01*
Y127479D01*
X321202D01*
Y127596D01*
X321085D01*
Y127713D01*
X321202D01*
Y127830D01*
X321085D01*
Y127947D01*
X321202D01*
Y128064D01*
X321085D01*
Y128182D01*
X321202D01*
Y128299D01*
X321320D01*
Y128416D01*
X321671D01*
Y128533D01*
X321788D01*
Y128416D01*
X322140D01*
Y128533D01*
X322257D01*
Y128416D01*
X322608D01*
Y128533D01*
X322725D01*
Y128416D01*
X323077D01*
Y128533D01*
X323194D01*
Y128416D01*
X323545D01*
Y128533D01*
X323663D01*
Y128416D01*
X323780D01*
Y128299D01*
X323897D01*
Y128182D01*
X323780D01*
Y128064D01*
X323897D01*
Y127947D01*
X323780D01*
Y127830D01*
X323897D01*
Y127713D01*
X323780D01*
Y127596D01*
X323897D01*
Y127479D01*
X323780D01*
Y127361D01*
X323897D01*
Y127244D01*
X323780D01*
Y127127D01*
X323897D01*
Y127010D01*
X324014D01*
Y127244D01*
X324131D01*
Y127479D01*
X324248D01*
Y127596D01*
X324131D01*
Y127713D01*
X324248D01*
Y127596D01*
X324365D01*
Y127713D01*
X324248D01*
Y127830D01*
X324365D01*
Y127947D01*
X324483D01*
Y128064D01*
X324600D01*
Y128182D01*
X324717D01*
Y128299D01*
X324834D01*
Y128416D01*
X325068D01*
Y128533D01*
X325537D01*
Y128650D01*
X325654D01*
Y128533D01*
X325771D01*
Y128650D01*
X325889D01*
Y128533D01*
X326006D01*
Y128650D01*
X326123D01*
Y128533D01*
X326240D01*
Y128650D01*
X326357D01*
Y128533D01*
X326474D01*
Y128650D01*
X326591D01*
Y128533D01*
D02*
G37*
G36*
X54721D02*
X54839D01*
Y128416D01*
X54956D01*
Y128299D01*
X55073D01*
Y128416D01*
X55190D01*
Y128299D01*
X55307D01*
Y128182D01*
X55424D01*
Y128064D01*
X55541D01*
Y127947D01*
X55659D01*
Y127830D01*
X55776D01*
Y127713D01*
X55893D01*
Y127361D01*
X56010D01*
Y127244D01*
X56127D01*
Y127010D01*
X56244D01*
Y126776D01*
X56362D01*
Y126424D01*
X56479D01*
Y126307D01*
X56362D01*
Y126190D01*
X56479D01*
Y125838D01*
X56596D01*
Y125721D01*
X56479D01*
Y125604D01*
X56596D01*
Y125487D01*
X56479D01*
Y125370D01*
X56596D01*
Y125253D01*
X56479D01*
Y125135D01*
X56596D01*
Y125018D01*
X56479D01*
Y124901D01*
X56596D01*
Y124550D01*
X56479D01*
Y124433D01*
X56596D01*
Y124315D01*
X56479D01*
Y123964D01*
X56362D01*
Y123847D01*
X56479D01*
Y123730D01*
X56362D01*
Y123378D01*
X56244D01*
Y123261D01*
X56127D01*
Y122909D01*
X56010D01*
Y122792D01*
X55893D01*
Y122675D01*
X56244D01*
Y122558D01*
X56362D01*
Y122441D01*
X56244D01*
Y122324D01*
X56362D01*
Y122206D01*
X56244D01*
Y122089D01*
X56362D01*
Y121972D01*
X56244D01*
Y121855D01*
X56362D01*
Y121738D01*
X56244D01*
Y121621D01*
X56362D01*
Y121504D01*
X56244D01*
Y121386D01*
X56362D01*
Y121269D01*
X56244D01*
Y121152D01*
X54018D01*
Y121269D01*
X53901D01*
Y121386D01*
X53784D01*
Y121504D01*
X53901D01*
Y121621D01*
X53784D01*
Y121738D01*
X53901D01*
Y121855D01*
X53784D01*
Y121972D01*
X53901D01*
Y122089D01*
X53784D01*
Y122206D01*
X53901D01*
Y122324D01*
X53784D01*
Y122441D01*
X53667D01*
Y122324D01*
X53550D01*
Y121972D01*
X53433D01*
Y121855D01*
X53316D01*
Y121504D01*
X53198D01*
Y121386D01*
X53081D01*
Y121269D01*
X52847D01*
Y121035D01*
X52730D01*
Y121152D01*
X52613D01*
Y121035D01*
X52495D01*
Y120918D01*
X52144D01*
Y120801D01*
X52027D01*
Y120918D01*
X51910D01*
Y120801D01*
X51324D01*
Y120918D01*
X51207D01*
Y120801D01*
X51090D01*
Y120918D01*
X50972D01*
Y120801D01*
X50855D01*
Y120684D01*
X50972D01*
Y120332D01*
X51090D01*
Y120215D01*
X51910D01*
Y120098D01*
X52027D01*
Y120215D01*
X52378D01*
Y120098D01*
X52495D01*
Y120215D01*
X52847D01*
Y120098D01*
X52964D01*
Y120215D01*
X53316D01*
Y120098D01*
X53433D01*
Y120215D01*
X53784D01*
Y120098D01*
X53901D01*
Y120215D01*
X54253D01*
Y120098D01*
X54370D01*
Y120215D01*
X54721D01*
Y120098D01*
X54839D01*
Y120215D01*
X55190D01*
Y120098D01*
X55307D01*
Y120215D01*
X55659D01*
Y120098D01*
X55776D01*
Y120215D01*
X56127D01*
Y120098D01*
X56244D01*
Y120215D01*
X56596D01*
Y120098D01*
X56713D01*
Y120215D01*
X57299D01*
Y120332D01*
X57416D01*
Y120684D01*
X57533D01*
Y120801D01*
X57416D01*
Y121152D01*
X57533D01*
Y121269D01*
X57416D01*
Y121386D01*
X57768D01*
Y121504D01*
X58119D01*
Y121386D01*
X58236D01*
Y121504D01*
X58588D01*
Y121386D01*
X58705D01*
Y121504D01*
X58939D01*
Y121386D01*
X59173D01*
Y121269D01*
X59056D01*
Y121152D01*
X59173D01*
Y121035D01*
X59056D01*
Y120918D01*
X59173D01*
Y120801D01*
X59056D01*
Y120684D01*
X59173D01*
Y120566D01*
X59056D01*
Y120449D01*
X59173D01*
Y120332D01*
X59056D01*
Y120215D01*
X59173D01*
Y120098D01*
X59056D01*
Y119981D01*
X59173D01*
Y119863D01*
X59056D01*
Y119746D01*
X59173D01*
Y119629D01*
X59056D01*
Y119512D01*
X59173D01*
Y119395D01*
X59056D01*
Y119278D01*
X59173D01*
Y119160D01*
X59056D01*
Y119043D01*
X59173D01*
Y118926D01*
X59056D01*
Y118809D01*
X59173D01*
Y118692D01*
X59056D01*
Y118575D01*
X59173D01*
Y118457D01*
X59056D01*
Y118340D01*
X59173D01*
Y118223D01*
X59056D01*
Y118106D01*
X59173D01*
Y117989D01*
X59056D01*
Y117872D01*
X59173D01*
Y117754D01*
X59056D01*
Y117637D01*
X59173D01*
Y117520D01*
X59056D01*
Y117403D01*
X59173D01*
Y117286D01*
X59056D01*
Y117169D01*
X58939D01*
Y117052D01*
X58822D01*
Y117169D01*
X58705D01*
Y117052D01*
X58588D01*
Y117169D01*
X58470D01*
Y117052D01*
X58353D01*
Y117169D01*
X58236D01*
Y117052D01*
X58119D01*
Y117169D01*
X58002D01*
Y117052D01*
X57885D01*
Y117169D01*
X57768D01*
Y117052D01*
X57650D01*
Y117169D01*
X57533D01*
Y117052D01*
X57416D01*
Y117169D01*
X57299D01*
Y117052D01*
X57182D01*
Y117169D01*
X57065D01*
Y117052D01*
X56947D01*
Y117169D01*
X56830D01*
Y117052D01*
X56713D01*
Y117169D01*
X56596D01*
Y117052D01*
X56479D01*
Y117169D01*
X56362D01*
Y117052D01*
X56244D01*
Y117169D01*
X56127D01*
Y117052D01*
X56010D01*
Y117169D01*
X55893D01*
Y117052D01*
X55776D01*
Y117169D01*
X55659D01*
Y117052D01*
X55776D01*
Y116934D01*
X55893D01*
Y116817D01*
X56010D01*
Y116583D01*
X56127D01*
Y116349D01*
X56244D01*
Y115997D01*
X56362D01*
Y115411D01*
X56479D01*
Y115294D01*
X56362D01*
Y115177D01*
X56479D01*
Y115060D01*
X56362D01*
Y114943D01*
X56479D01*
Y114826D01*
X56362D01*
Y114708D01*
X56479D01*
Y114591D01*
X56362D01*
Y114474D01*
X56479D01*
Y114357D01*
X56362D01*
Y114005D01*
X56244D01*
Y113888D01*
X56362D01*
Y113771D01*
X56244D01*
Y113654D01*
X56127D01*
Y113303D01*
X56010D01*
Y113185D01*
X55893D01*
Y112834D01*
X55659D01*
Y112600D01*
X55307D01*
Y112482D01*
X55190D01*
Y112365D01*
X54839D01*
Y112248D01*
X54721D01*
Y112131D01*
X54604D01*
Y112248D01*
X54487D01*
Y112131D01*
X54370D01*
Y112248D01*
X54253D01*
Y112131D01*
X54136D01*
Y112248D01*
X54018D01*
Y112131D01*
X53901D01*
Y112248D01*
X53784D01*
Y112131D01*
X53667D01*
Y112248D01*
X53550D01*
Y112131D01*
X53433D01*
Y112248D01*
X53316D01*
Y112131D01*
X53198D01*
Y112248D01*
X53081D01*
Y112131D01*
X52964D01*
Y112248D01*
X52847D01*
Y112131D01*
X52730D01*
Y112248D01*
X52613D01*
Y112131D01*
X52495D01*
Y112248D01*
X52378D01*
Y112131D01*
X52261D01*
Y112248D01*
X52144D01*
Y112131D01*
X52027D01*
Y112248D01*
X51910D01*
Y112131D01*
X51793D01*
Y112248D01*
X51675D01*
Y112131D01*
X51558D01*
Y112248D01*
X51441D01*
Y112131D01*
X51324D01*
Y112248D01*
X51207D01*
Y112131D01*
X51090D01*
Y112248D01*
X50972D01*
Y111897D01*
X50855D01*
Y111779D01*
X50972D01*
Y111428D01*
X50855D01*
Y111311D01*
X50972D01*
Y110959D01*
X51090D01*
Y110842D01*
X54487D01*
Y110959D01*
X54604D01*
Y111076D01*
X54487D01*
Y111194D01*
X54604D01*
Y111311D01*
X54487D01*
Y111428D01*
X54604D01*
Y111545D01*
X54487D01*
Y111662D01*
X54604D01*
Y111779D01*
X54487D01*
Y111897D01*
X54604D01*
Y112014D01*
X54956D01*
Y112131D01*
X55073D01*
Y112014D01*
X55424D01*
Y112131D01*
X55541D01*
Y112014D01*
X55893D01*
Y112131D01*
X56010D01*
Y112014D01*
X56127D01*
Y111897D01*
X56244D01*
Y111779D01*
X56362D01*
Y111662D01*
X56244D01*
Y111545D01*
X56362D01*
Y111428D01*
X56244D01*
Y111311D01*
X56362D01*
Y111194D01*
X56244D01*
Y111076D01*
X56362D01*
Y110959D01*
X56244D01*
Y110842D01*
X56362D01*
Y110725D01*
X56244D01*
Y110608D01*
X56362D01*
Y110491D01*
X56244D01*
Y110374D01*
X56362D01*
Y110256D01*
X56244D01*
Y110139D01*
X56362D01*
Y110022D01*
X56244D01*
Y109905D01*
X56362D01*
Y109788D01*
X56244D01*
Y109671D01*
X56362D01*
Y109554D01*
X56244D01*
Y109436D01*
X56362D01*
Y109319D01*
X56244D01*
Y109202D01*
X56362D01*
Y109085D01*
X56244D01*
Y108968D01*
X56362D01*
Y108851D01*
X56244D01*
Y108733D01*
X56362D01*
Y108616D01*
X56244D01*
Y108499D01*
X56362D01*
Y108382D01*
X56244D01*
Y108265D01*
X56362D01*
Y108148D01*
X56244D01*
Y108030D01*
X56362D01*
Y107913D01*
X56244D01*
Y107796D01*
X56127D01*
Y107679D01*
X56010D01*
Y107796D01*
X55893D01*
Y107679D01*
X55776D01*
Y107796D01*
X55659D01*
Y107679D01*
X55541D01*
Y107796D01*
X55424D01*
Y107679D01*
X55307D01*
Y107796D01*
X55190D01*
Y107679D01*
X55073D01*
Y107796D01*
X54956D01*
Y107679D01*
X54839D01*
Y107796D01*
X54721D01*
Y107679D01*
X54604D01*
Y107796D01*
X54487D01*
Y107679D01*
X54370D01*
Y107796D01*
X54253D01*
Y107679D01*
X54136D01*
Y107796D01*
X54018D01*
Y107679D01*
X53901D01*
Y107796D01*
X53784D01*
Y107679D01*
X53667D01*
Y107796D01*
X53550D01*
Y107679D01*
X53433D01*
Y107796D01*
X53316D01*
Y107679D01*
X53198D01*
Y107796D01*
X53081D01*
Y107679D01*
X52964D01*
Y107796D01*
X52847D01*
Y107679D01*
X52730D01*
Y107796D01*
X52613D01*
Y107679D01*
X52495D01*
Y107796D01*
X52378D01*
Y107679D01*
X52261D01*
Y107796D01*
X52144D01*
Y107679D01*
X52027D01*
Y107796D01*
X51910D01*
Y107679D01*
X51793D01*
Y107796D01*
X51675D01*
Y107679D01*
X51558D01*
Y107796D01*
X51441D01*
Y107679D01*
X51324D01*
Y107796D01*
X51207D01*
Y107679D01*
X50972D01*
Y107210D01*
X50855D01*
Y107093D01*
X50972D01*
Y106742D01*
X50855D01*
Y106624D01*
X50972D01*
Y106273D01*
X51090D01*
Y106156D01*
X54487D01*
Y106273D01*
X54604D01*
Y106390D01*
X54487D01*
Y106507D01*
X54604D01*
Y106624D01*
X54487D01*
Y106742D01*
X54604D01*
Y106859D01*
X54487D01*
Y106976D01*
X54604D01*
Y107093D01*
X54487D01*
Y107210D01*
X54604D01*
Y107327D01*
X54956D01*
Y107445D01*
X55073D01*
Y107327D01*
X55424D01*
Y107445D01*
X55541D01*
Y107327D01*
X55893D01*
Y107445D01*
X56010D01*
Y107327D01*
X56127D01*
Y107210D01*
X56244D01*
Y107093D01*
X56362D01*
Y106976D01*
X56244D01*
Y106859D01*
X56362D01*
Y106742D01*
X56244D01*
Y106624D01*
X56362D01*
Y106507D01*
X56244D01*
Y106390D01*
X56362D01*
Y106273D01*
X56244D01*
Y106156D01*
X56362D01*
Y106039D01*
X56244D01*
Y105922D01*
X56362D01*
Y105804D01*
X56244D01*
Y105687D01*
X56362D01*
Y105570D01*
X56244D01*
Y105453D01*
X56362D01*
Y105336D01*
X56244D01*
Y105219D01*
X56362D01*
Y105102D01*
X56244D01*
Y104984D01*
X56362D01*
Y104867D01*
X56244D01*
Y104750D01*
X56362D01*
Y104633D01*
X56244D01*
Y104516D01*
X56362D01*
Y104399D01*
X56244D01*
Y104281D01*
X56362D01*
Y104164D01*
X56244D01*
Y104047D01*
X56362D01*
Y103930D01*
X56244D01*
Y103813D01*
X56362D01*
Y103696D01*
X56244D01*
Y103578D01*
X56362D01*
Y103461D01*
X56244D01*
Y103344D01*
X56127D01*
Y103110D01*
X55893D01*
Y103227D01*
X55776D01*
Y103110D01*
X55659D01*
Y102993D01*
X55776D01*
Y102875D01*
X55659D01*
Y102758D01*
X55893D01*
Y102524D01*
X56010D01*
Y102407D01*
X56127D01*
Y102055D01*
X56244D01*
Y101938D01*
X56127D01*
Y101821D01*
X56244D01*
Y101470D01*
X56362D01*
Y101353D01*
X56244D01*
Y101235D01*
X56362D01*
Y101118D01*
X56244D01*
Y101001D01*
X56362D01*
Y100884D01*
X56244D01*
Y100767D01*
X56362D01*
Y100649D01*
X56244D01*
Y100532D01*
X56362D01*
Y100415D01*
X56244D01*
Y100298D01*
X56362D01*
Y100181D01*
X56244D01*
Y99595D01*
X56127D01*
Y99244D01*
X56010D01*
Y99126D01*
X56127D01*
Y99009D01*
X56010D01*
Y98892D01*
X55893D01*
Y98775D01*
X55776D01*
Y98658D01*
X55659D01*
Y98541D01*
X55541D01*
Y98423D01*
X55424D01*
Y98306D01*
X55307D01*
Y98423D01*
X55190D01*
Y98306D01*
X55073D01*
Y98189D01*
X54721D01*
Y98072D01*
X54604D01*
Y98189D01*
X54487D01*
Y98072D01*
X54370D01*
Y98189D01*
X54253D01*
Y98072D01*
X54136D01*
Y98189D01*
X54018D01*
Y98072D01*
X53901D01*
Y98189D01*
X53784D01*
Y98072D01*
X53667D01*
Y98189D01*
X53550D01*
Y98072D01*
X53433D01*
Y98189D01*
X53316D01*
Y98072D01*
X53198D01*
Y98189D01*
X53081D01*
Y98072D01*
X52964D01*
Y98189D01*
X52847D01*
Y98072D01*
X52730D01*
Y98189D01*
X52613D01*
Y98072D01*
X52495D01*
Y98189D01*
X52378D01*
Y98072D01*
X52261D01*
Y98189D01*
X52144D01*
Y98072D01*
X52027D01*
Y98189D01*
X51910D01*
Y98072D01*
X51793D01*
Y98189D01*
X51675D01*
Y98072D01*
X51558D01*
Y98189D01*
X51441D01*
Y98072D01*
X51324D01*
Y98189D01*
X51207D01*
Y98072D01*
X51090D01*
Y98189D01*
X50972D01*
Y97838D01*
X50855D01*
Y97721D01*
X50972D01*
Y97369D01*
X50855D01*
Y97252D01*
X50972D01*
Y96666D01*
X54370D01*
Y96783D01*
X54487D01*
Y96900D01*
X54604D01*
Y97018D01*
X54487D01*
Y97135D01*
X54604D01*
Y97252D01*
X54487D01*
Y97369D01*
X54604D01*
Y97486D01*
X54487D01*
Y97603D01*
X54604D01*
Y97838D01*
X54839D01*
Y97955D01*
X54956D01*
Y97838D01*
X55073D01*
Y97955D01*
X55190D01*
Y97838D01*
X55307D01*
Y97955D01*
X55424D01*
Y97838D01*
X55541D01*
Y97955D01*
X55659D01*
Y97838D01*
X55776D01*
Y97955D01*
X55893D01*
Y97838D01*
X56010D01*
Y97955D01*
X56127D01*
Y97838D01*
X56244D01*
Y97721D01*
X56362D01*
Y97603D01*
X56244D01*
Y97486D01*
X56362D01*
Y97369D01*
X56244D01*
Y97252D01*
X56362D01*
Y97135D01*
X56244D01*
Y97018D01*
X56362D01*
Y96900D01*
X56244D01*
Y96783D01*
X56362D01*
Y96666D01*
X56244D01*
Y96549D01*
X56362D01*
Y96432D01*
X56244D01*
Y96315D01*
X56362D01*
Y96197D01*
X56244D01*
Y96080D01*
X56362D01*
Y95963D01*
X56244D01*
Y95846D01*
X56362D01*
Y95729D01*
X56244D01*
Y95612D01*
X56362D01*
Y95495D01*
X56244D01*
Y95377D01*
X56362D01*
Y95260D01*
X56244D01*
Y95143D01*
X56362D01*
Y95026D01*
X56244D01*
Y94909D01*
X56362D01*
Y94792D01*
X56244D01*
Y94674D01*
X56362D01*
Y94557D01*
X56244D01*
Y94440D01*
X56362D01*
Y94323D01*
X56244D01*
Y94206D01*
X56362D01*
Y94089D01*
X56244D01*
Y93972D01*
X56362D01*
Y93854D01*
X56244D01*
Y93737D01*
X56362D01*
Y93620D01*
X56010D01*
Y93503D01*
X55659D01*
Y93620D01*
X55541D01*
Y93503D01*
X55190D01*
Y93620D01*
X55073D01*
Y93503D01*
X54721D01*
Y93620D01*
X54604D01*
Y93503D01*
X54253D01*
Y93620D01*
X54136D01*
Y93503D01*
X53784D01*
Y93620D01*
X53667D01*
Y93503D01*
X53316D01*
Y93620D01*
X53198D01*
Y93503D01*
X52847D01*
Y93620D01*
X52730D01*
Y93503D01*
X52378D01*
Y93620D01*
X52261D01*
Y93503D01*
X51910D01*
Y93620D01*
X51793D01*
Y93503D01*
X51441D01*
Y93620D01*
X51324D01*
Y93503D01*
X50972D01*
Y93151D01*
X50855D01*
Y93034D01*
X50972D01*
Y92683D01*
X50855D01*
Y92566D01*
X50972D01*
Y91980D01*
X51324D01*
Y92097D01*
X51441D01*
Y91980D01*
X51793D01*
Y92097D01*
X51910D01*
Y91980D01*
X52261D01*
Y92097D01*
X52378D01*
Y91980D01*
X52730D01*
Y92097D01*
X52847D01*
Y91980D01*
X53198D01*
Y92097D01*
X53316D01*
Y91980D01*
X53667D01*
Y92097D01*
X53784D01*
Y91980D01*
X54136D01*
Y92097D01*
X54253D01*
Y91980D01*
X54370D01*
Y92097D01*
X54487D01*
Y92214D01*
X54604D01*
Y92331D01*
X54487D01*
Y92449D01*
X54604D01*
Y92566D01*
X54487D01*
Y92683D01*
X54604D01*
Y92800D01*
X54487D01*
Y92917D01*
X54604D01*
Y93151D01*
X54839D01*
Y93269D01*
X54956D01*
Y93151D01*
X55073D01*
Y93269D01*
X55190D01*
Y93151D01*
X55307D01*
Y93269D01*
X55424D01*
Y93151D01*
X55541D01*
Y93269D01*
X55659D01*
Y93151D01*
X55776D01*
Y93269D01*
X55893D01*
Y93151D01*
X56010D01*
Y93269D01*
X56127D01*
Y93151D01*
X56244D01*
Y93034D01*
X56362D01*
Y92917D01*
X56244D01*
Y92800D01*
X56362D01*
Y92683D01*
X56244D01*
Y92566D01*
X56362D01*
Y92449D01*
X56244D01*
Y92331D01*
X56362D01*
Y92214D01*
X56244D01*
Y92097D01*
X56362D01*
Y91980D01*
X56244D01*
Y91863D01*
X56362D01*
Y91746D01*
X56244D01*
Y91628D01*
X56362D01*
Y91511D01*
X56244D01*
Y91394D01*
X56362D01*
Y91277D01*
X56244D01*
Y91160D01*
X56362D01*
Y91043D01*
X56244D01*
Y90925D01*
X56362D01*
Y90808D01*
X56244D01*
Y90691D01*
X56362D01*
Y90574D01*
X56244D01*
Y90457D01*
X56362D01*
Y90340D01*
X56244D01*
Y90223D01*
X56362D01*
Y90105D01*
X56244D01*
Y89988D01*
X56362D01*
Y89871D01*
X56244D01*
Y89754D01*
X56362D01*
Y89637D01*
X56244D01*
Y89520D01*
X56362D01*
Y89402D01*
X56244D01*
Y89285D01*
X56362D01*
Y89168D01*
X56244D01*
Y89051D01*
X56127D01*
Y88934D01*
X56010D01*
Y89051D01*
X55893D01*
Y88934D01*
X55776D01*
Y89051D01*
X55659D01*
Y88699D01*
X55776D01*
Y88582D01*
X55893D01*
Y88465D01*
X56010D01*
Y88348D01*
X56127D01*
Y87762D01*
X56244D01*
Y87411D01*
X56362D01*
Y87293D01*
X56244D01*
Y87176D01*
X56362D01*
Y87059D01*
X56244D01*
Y86942D01*
X56362D01*
Y86825D01*
X56244D01*
Y86708D01*
X56362D01*
Y86591D01*
X56244D01*
Y86473D01*
X56362D01*
Y86356D01*
X56244D01*
Y86239D01*
X56362D01*
Y86122D01*
X56244D01*
Y86005D01*
X56362D01*
Y85888D01*
X56244D01*
Y85536D01*
X56127D01*
Y85419D01*
X56244D01*
Y85302D01*
X56127D01*
Y84950D01*
X56010D01*
Y84833D01*
X55893D01*
Y84599D01*
X55659D01*
Y84365D01*
X55424D01*
Y84247D01*
X55307D01*
Y84130D01*
X55190D01*
Y84013D01*
X55073D01*
Y84130D01*
X54956D01*
Y84013D01*
X54604D01*
Y83896D01*
X54487D01*
Y84013D01*
X54370D01*
Y83896D01*
X50972D01*
Y83779D01*
X50855D01*
Y83662D01*
X50972D01*
Y83310D01*
X51090D01*
Y83193D01*
X51207D01*
Y83076D01*
X51324D01*
Y82959D01*
X51441D01*
Y82841D01*
X51558D01*
Y82490D01*
X51675D01*
Y82607D01*
X51793D01*
Y82724D01*
X51910D01*
Y82841D01*
X52027D01*
Y82959D01*
X52144D01*
Y83076D01*
X52261D01*
Y83193D01*
X52378D01*
Y83076D01*
X52495D01*
Y83193D01*
X52613D01*
Y83310D01*
X53198D01*
Y83427D01*
X53316D01*
Y83310D01*
X53433D01*
Y83427D01*
X53550D01*
Y83310D01*
X53667D01*
Y83427D01*
X53784D01*
Y83310D01*
X54136D01*
Y83193D01*
X54253D01*
Y83310D01*
X54370D01*
Y83193D01*
X54487D01*
Y83076D01*
X54604D01*
Y83193D01*
X54721D01*
Y83076D01*
X54839D01*
Y82959D01*
X54956D01*
Y82841D01*
X55073D01*
Y82724D01*
X55190D01*
Y82607D01*
X55307D01*
Y82490D01*
X55424D01*
Y82373D01*
X55541D01*
Y82256D01*
X55659D01*
Y82139D01*
X55776D01*
Y82021D01*
X55893D01*
Y81670D01*
X56010D01*
Y81318D01*
X56127D01*
Y80967D01*
X56244D01*
Y80850D01*
X56127D01*
Y80733D01*
X56244D01*
Y80616D01*
X56362D01*
Y80498D01*
X56244D01*
Y80381D01*
X56362D01*
Y80264D01*
X56244D01*
Y80147D01*
X56362D01*
Y80030D01*
X56244D01*
Y79913D01*
X56362D01*
Y79795D01*
X56244D01*
Y79678D01*
X56362D01*
Y79561D01*
X56244D01*
Y79444D01*
X56362D01*
Y79327D01*
X56244D01*
Y79210D01*
X56362D01*
Y79093D01*
X56244D01*
Y78741D01*
X56127D01*
Y78624D01*
X56244D01*
Y78507D01*
X56127D01*
Y77921D01*
X56010D01*
Y77804D01*
X55893D01*
Y77452D01*
X55776D01*
Y77101D01*
X55893D01*
Y76749D01*
X56010D01*
Y76632D01*
X56127D01*
Y76281D01*
X56244D01*
Y76164D01*
X56127D01*
Y76046D01*
X56244D01*
Y75929D01*
X56362D01*
Y75812D01*
X56244D01*
Y75695D01*
X56362D01*
Y75578D01*
X56244D01*
Y75461D01*
X56362D01*
Y75344D01*
X56244D01*
Y75226D01*
X56362D01*
Y75109D01*
X56244D01*
Y74992D01*
X56362D01*
Y74875D01*
X56244D01*
Y74758D01*
X56362D01*
Y74641D01*
X56244D01*
Y74523D01*
X56362D01*
Y74406D01*
X56244D01*
Y74289D01*
X56362D01*
Y74172D01*
X56244D01*
Y74055D01*
X56362D01*
Y73938D01*
X56244D01*
Y73820D01*
X56362D01*
Y73703D01*
X56244D01*
Y73586D01*
X56362D01*
Y73469D01*
X56244D01*
Y73352D01*
X56362D01*
Y73235D01*
X56244D01*
Y73118D01*
X56362D01*
Y73000D01*
X56244D01*
Y72883D01*
X56362D01*
Y72766D01*
X56244D01*
Y72649D01*
X56362D01*
Y72532D01*
X56244D01*
Y72414D01*
X56362D01*
Y72297D01*
X56244D01*
Y72180D01*
X56362D01*
Y72063D01*
X56244D01*
Y71946D01*
X56362D01*
Y71829D01*
X56244D01*
Y71712D01*
X56362D01*
Y71594D01*
X56244D01*
Y71477D01*
X56362D01*
Y71360D01*
X56244D01*
Y71243D01*
X56362D01*
Y71126D01*
X56244D01*
Y71009D01*
X56127D01*
Y70891D01*
X56010D01*
Y71009D01*
X55893D01*
Y70891D01*
X55776D01*
Y71009D01*
X55659D01*
Y70891D01*
X55776D01*
Y70774D01*
X55893D01*
Y70657D01*
X56010D01*
Y70306D01*
X56127D01*
Y69954D01*
X56244D01*
Y69837D01*
X56127D01*
Y69720D01*
X56244D01*
Y69368D01*
X56362D01*
Y69251D01*
X56244D01*
Y69134D01*
X56362D01*
Y69017D01*
X56244D01*
Y68900D01*
X56362D01*
Y68783D01*
X56244D01*
Y68665D01*
X56362D01*
Y68548D01*
X56244D01*
Y68431D01*
X56362D01*
Y68314D01*
X56244D01*
Y68197D01*
X56127D01*
Y68080D01*
X56244D01*
Y67962D01*
X56127D01*
Y67611D01*
X56010D01*
Y67494D01*
X55893D01*
Y67377D01*
X56010D01*
Y67260D01*
X55893D01*
Y67142D01*
X55776D01*
Y67025D01*
X55659D01*
Y66674D01*
X55424D01*
Y66439D01*
X55190D01*
Y66205D01*
X55307D01*
Y66322D01*
X55424D01*
Y66205D01*
X55541D01*
Y66322D01*
X55659D01*
Y66205D01*
X55776D01*
Y66322D01*
X55893D01*
Y66205D01*
X56010D01*
Y66322D01*
X56127D01*
Y66205D01*
X56244D01*
Y66088D01*
X56362D01*
Y65971D01*
X56244D01*
Y65854D01*
X56362D01*
Y65737D01*
X56244D01*
Y65619D01*
X56362D01*
Y65502D01*
X56244D01*
Y65385D01*
X56362D01*
Y65268D01*
X56244D01*
Y65151D01*
X56362D01*
Y65034D01*
X56244D01*
Y64916D01*
X56362D01*
Y64799D01*
X56244D01*
Y64682D01*
X56362D01*
Y64565D01*
X56244D01*
Y64448D01*
X56362D01*
Y64331D01*
X56244D01*
Y64214D01*
X56362D01*
Y64096D01*
X56244D01*
Y63979D01*
X56362D01*
Y63862D01*
X56244D01*
Y63745D01*
X56362D01*
Y63628D01*
X56244D01*
Y63511D01*
X56362D01*
Y63393D01*
X56244D01*
Y63276D01*
X56362D01*
Y63159D01*
X56244D01*
Y63042D01*
X56362D01*
Y62925D01*
X56244D01*
Y62808D01*
X56362D01*
Y62690D01*
X56244D01*
Y62573D01*
X56362D01*
Y62456D01*
X56244D01*
Y62339D01*
X56362D01*
Y62222D01*
X56244D01*
Y62105D01*
X56127D01*
Y61870D01*
X55893D01*
Y61988D01*
X55776D01*
Y61870D01*
X55424D01*
Y61988D01*
X55307D01*
Y61870D01*
X54956D01*
Y61988D01*
X54839D01*
Y61870D01*
X54487D01*
Y61988D01*
X54370D01*
Y61870D01*
X54018D01*
Y61988D01*
X53901D01*
Y61870D01*
X53550D01*
Y61988D01*
X53433D01*
Y61870D01*
X53081D01*
Y61988D01*
X52964D01*
Y61870D01*
X52613D01*
Y61988D01*
X52495D01*
Y61870D01*
X52144D01*
Y61988D01*
X52027D01*
Y61870D01*
X51675D01*
Y61988D01*
X51558D01*
Y61870D01*
X51207D01*
Y61988D01*
X51090D01*
Y61870D01*
X50972D01*
Y61753D01*
X50855D01*
Y61636D01*
X50972D01*
Y61285D01*
X51090D01*
Y61167D01*
X51207D01*
Y61050D01*
X51324D01*
Y60933D01*
X51441D01*
Y60816D01*
X51558D01*
Y60699D01*
X51441D01*
Y60582D01*
X51558D01*
Y60464D01*
X51675D01*
Y60582D01*
X51793D01*
Y60699D01*
X51910D01*
Y60816D01*
X52027D01*
Y60933D01*
X52144D01*
Y61050D01*
X52261D01*
Y61167D01*
X52378D01*
Y61050D01*
X52495D01*
Y61167D01*
X52613D01*
Y61285D01*
X52964D01*
Y61402D01*
X53081D01*
Y61285D01*
X53198D01*
Y61402D01*
X53316D01*
Y61285D01*
X53433D01*
Y61402D01*
X53550D01*
Y61285D01*
X53667D01*
Y61402D01*
X53784D01*
Y61285D01*
X54136D01*
Y61167D01*
X54487D01*
Y61050D01*
X54604D01*
Y61167D01*
X54721D01*
Y61050D01*
X54839D01*
Y60933D01*
X54956D01*
Y60816D01*
X55073D01*
Y60699D01*
X55190D01*
Y60582D01*
X55307D01*
Y60464D01*
X55424D01*
Y60347D01*
X55541D01*
Y60230D01*
X55659D01*
Y59996D01*
X55776D01*
Y59879D01*
X55893D01*
Y59644D01*
X56010D01*
Y59293D01*
X56127D01*
Y58941D01*
X56244D01*
Y58824D01*
X56127D01*
Y58707D01*
X56244D01*
Y58356D01*
X56362D01*
Y58239D01*
X56244D01*
Y58121D01*
X56362D01*
Y58004D01*
X56244D01*
Y57887D01*
X56362D01*
Y57770D01*
X56244D01*
Y57653D01*
X56362D01*
Y57535D01*
X56244D01*
Y57418D01*
X56362D01*
Y57301D01*
X56244D01*
Y57184D01*
X56362D01*
Y57067D01*
X56244D01*
Y56715D01*
X56127D01*
Y56598D01*
X56244D01*
Y56481D01*
X56127D01*
Y55895D01*
X56010D01*
Y55778D01*
X55893D01*
Y55427D01*
X55776D01*
Y55075D01*
X55893D01*
Y54724D01*
X56010D01*
Y54607D01*
X56127D01*
Y54255D01*
X56244D01*
Y54138D01*
X56127D01*
Y54021D01*
X56244D01*
Y53904D01*
X56362D01*
Y53786D01*
X56244D01*
Y53669D01*
X56362D01*
Y53552D01*
X56244D01*
Y53435D01*
X56362D01*
Y53318D01*
X56244D01*
Y53201D01*
X56362D01*
Y53083D01*
X56244D01*
Y52732D01*
X56127D01*
Y52381D01*
X56010D01*
Y52263D01*
X55893D01*
Y52146D01*
X55776D01*
Y52029D01*
X55659D01*
Y51912D01*
X55307D01*
Y51795D01*
X54487D01*
Y51912D01*
X54136D01*
Y52029D01*
X54018D01*
Y52146D01*
X53901D01*
Y52263D01*
X53784D01*
Y52498D01*
X53667D01*
Y53435D01*
X53784D01*
Y53552D01*
X53901D01*
Y53786D01*
X54136D01*
Y53904D01*
X54253D01*
Y54021D01*
X54370D01*
Y54138D01*
X54018D01*
Y54021D01*
X53901D01*
Y54138D01*
X53784D01*
Y54021D01*
X53667D01*
Y54138D01*
X53550D01*
Y54021D01*
X53433D01*
Y54138D01*
X53316D01*
Y54021D01*
X53198D01*
Y54138D01*
X52847D01*
Y54255D01*
X52495D01*
Y54372D01*
X52378D01*
Y54489D01*
X52261D01*
Y54607D01*
X52027D01*
Y54724D01*
X51793D01*
Y54958D01*
X51675D01*
Y55075D01*
X51558D01*
Y55309D01*
X51441D01*
Y55427D01*
X51324D01*
Y55778D01*
X51207D01*
Y55895D01*
X51090D01*
Y56012D01*
X51207D01*
Y56130D01*
X51090D01*
Y56481D01*
X50972D01*
Y56598D01*
X51090D01*
Y56715D01*
X50972D01*
Y56833D01*
X50855D01*
Y56950D01*
X50972D01*
Y57067D01*
X50855D01*
Y57184D01*
X50972D01*
Y57301D01*
X50855D01*
Y57418D01*
X50972D01*
Y57535D01*
X50855D01*
Y57887D01*
X50972D01*
Y58004D01*
X50855D01*
Y58121D01*
X50972D01*
Y58239D01*
X50855D01*
Y58356D01*
X50972D01*
Y58473D01*
X50855D01*
Y58590D01*
X50972D01*
Y58941D01*
X51090D01*
Y59527D01*
X50738D01*
Y59176D01*
X50621D01*
Y58824D01*
X50504D01*
Y58707D01*
X50621D01*
Y58590D01*
X50504D01*
Y58473D01*
X50621D01*
Y58356D01*
X50504D01*
Y58239D01*
X50621D01*
Y58121D01*
X50504D01*
Y58004D01*
X50621D01*
Y57887D01*
X50504D01*
Y57770D01*
X50621D01*
Y57653D01*
X50738D01*
Y57535D01*
X50621D01*
Y57418D01*
X50738D01*
Y57301D01*
X50621D01*
Y57184D01*
X50738D01*
Y57067D01*
X50621D01*
Y56950D01*
X50738D01*
Y56833D01*
X50621D01*
Y56715D01*
X50738D01*
Y56598D01*
X50621D01*
Y56481D01*
X50738D01*
Y56364D01*
X50621D01*
Y56247D01*
X50738D01*
Y56130D01*
X50621D01*
Y56012D01*
X50738D01*
Y55895D01*
X50621D01*
Y55778D01*
X50738D01*
Y55661D01*
X50621D01*
Y55544D01*
X50738D01*
Y55427D01*
X50621D01*
Y55309D01*
X50738D01*
Y55192D01*
X50621D01*
Y54841D01*
X50504D01*
Y54724D01*
X50621D01*
Y54607D01*
X50504D01*
Y54255D01*
X50387D01*
Y54138D01*
X50504D01*
Y54021D01*
X50387D01*
Y53904D01*
X50270D01*
Y53786D01*
X50152D01*
Y53669D01*
X50035D01*
Y53435D01*
X49801D01*
Y53318D01*
X49684D01*
Y53201D01*
X49567D01*
Y53083D01*
X49215D01*
Y52966D01*
X48864D01*
Y52849D01*
X48746D01*
Y52966D01*
X48629D01*
Y52849D01*
X48512D01*
Y52966D01*
X48395D01*
Y52849D01*
X48278D01*
Y52966D01*
X47926D01*
Y53083D01*
X47809D01*
Y53201D01*
X47692D01*
Y53083D01*
X47575D01*
Y53201D01*
X47458D01*
Y53318D01*
X47341D01*
Y53435D01*
X47106D01*
Y53669D01*
X46989D01*
Y53786D01*
X46872D01*
Y53904D01*
X46755D01*
Y54021D01*
X46638D01*
Y54372D01*
X46520D01*
Y54724D01*
X46403D01*
Y55075D01*
X46286D01*
Y55192D01*
X46403D01*
Y55309D01*
X46286D01*
Y55427D01*
X46169D01*
Y55544D01*
X46286D01*
Y55661D01*
X46169D01*
Y56715D01*
X46052D01*
Y56833D01*
X46169D01*
Y56950D01*
X46052D01*
Y57067D01*
X46169D01*
Y57184D01*
X46052D01*
Y57301D01*
X46169D01*
Y57418D01*
X46052D01*
Y57535D01*
X46169D01*
Y57653D01*
X46052D01*
Y57770D01*
X46169D01*
Y57887D01*
X46052D01*
Y58004D01*
X46169D01*
Y58121D01*
X46052D01*
Y58239D01*
X46169D01*
Y59293D01*
X46286D01*
Y59410D01*
X46169D01*
Y59527D01*
X46286D01*
Y59644D01*
X46169D01*
Y59762D01*
X46286D01*
Y59879D01*
X46403D01*
Y59996D01*
X46286D01*
Y60113D01*
X46403D01*
Y60464D01*
X46520D01*
Y60816D01*
X46638D01*
Y61167D01*
X46755D01*
Y61285D01*
X46872D01*
Y61402D01*
X46989D01*
Y61519D01*
X47106D01*
Y61636D01*
X47341D01*
Y61753D01*
X47575D01*
Y61870D01*
X47692D01*
Y61753D01*
X47809D01*
Y61870D01*
X47926D01*
Y61753D01*
X48044D01*
Y61870D01*
X48161D01*
Y61753D01*
X48278D01*
Y61636D01*
X48629D01*
Y61402D01*
X48864D01*
Y61050D01*
X48981D01*
Y60933D01*
X49098D01*
Y61050D01*
X49215D01*
Y61167D01*
X49332D01*
Y61285D01*
X49215D01*
Y61402D01*
X49332D01*
Y61519D01*
X49215D01*
Y61636D01*
X49332D01*
Y61753D01*
X49215D01*
Y61870D01*
X49332D01*
Y61988D01*
X49215D01*
Y62105D01*
X49332D01*
Y62222D01*
X49215D01*
Y62339D01*
X49332D01*
Y62456D01*
X49215D01*
Y62573D01*
X49332D01*
Y62690D01*
X49215D01*
Y62808D01*
X49332D01*
Y62925D01*
X49215D01*
Y63042D01*
X49332D01*
Y63159D01*
X49215D01*
Y63276D01*
X49332D01*
Y63393D01*
X49215D01*
Y63511D01*
X49332D01*
Y63628D01*
X49215D01*
Y63745D01*
X49332D01*
Y63862D01*
X49215D01*
Y63979D01*
X49332D01*
Y64096D01*
X49215D01*
Y64214D01*
X49332D01*
Y64331D01*
X49215D01*
Y64448D01*
X49332D01*
Y64565D01*
X49215D01*
Y64682D01*
X49332D01*
Y64799D01*
X49215D01*
Y64916D01*
X49332D01*
Y65034D01*
X49215D01*
Y65151D01*
X49332D01*
Y65268D01*
X49215D01*
Y65385D01*
X49332D01*
Y65502D01*
X49215D01*
Y65619D01*
X49332D01*
Y65737D01*
X49215D01*
Y65854D01*
X49332D01*
Y65971D01*
X49215D01*
Y66088D01*
X49332D01*
Y66205D01*
X49449D01*
Y66322D01*
X49567D01*
Y66205D01*
X49684D01*
Y66322D01*
X49801D01*
Y66205D01*
X49918D01*
Y66322D01*
X50035D01*
Y66205D01*
X50152D01*
Y66322D01*
X50270D01*
Y66205D01*
X50387D01*
Y66322D01*
X50270D01*
Y66439D01*
X50152D01*
Y66557D01*
X50035D01*
Y66674D01*
X49918D01*
Y66791D01*
X49801D01*
Y66908D01*
X49684D01*
Y67260D01*
X49567D01*
Y67377D01*
X49449D01*
Y67494D01*
X49332D01*
Y67611D01*
X49449D01*
Y67728D01*
X49332D01*
Y67845D01*
X49215D01*
Y67962D01*
X49332D01*
Y68080D01*
X49215D01*
Y68665D01*
X49098D01*
Y68783D01*
X49215D01*
Y68900D01*
X49098D01*
Y69017D01*
X49215D01*
Y69134D01*
X49098D01*
Y69251D01*
X49215D01*
Y70071D01*
X49332D01*
Y70188D01*
X49449D01*
Y70540D01*
X49567D01*
Y70657D01*
X49684D01*
Y70891D01*
X48278D01*
Y70774D01*
X48161D01*
Y70657D01*
X48044D01*
Y70540D01*
X48161D01*
Y70188D01*
X48044D01*
Y70071D01*
X48161D01*
Y69720D01*
X47926D01*
Y69603D01*
X46638D01*
Y69720D01*
X46403D01*
Y69837D01*
X46520D01*
Y69954D01*
X46403D01*
Y70071D01*
X46520D01*
Y70188D01*
X46403D01*
Y70306D01*
X46520D01*
Y70423D01*
X46403D01*
Y70540D01*
X46520D01*
Y70657D01*
X46403D01*
Y70774D01*
X46520D01*
Y70891D01*
X46403D01*
Y71009D01*
X46520D01*
Y71126D01*
X46403D01*
Y71243D01*
X46520D01*
Y71360D01*
X46403D01*
Y71477D01*
X46520D01*
Y71594D01*
X46403D01*
Y71712D01*
X46520D01*
Y71829D01*
X46403D01*
Y71946D01*
X46520D01*
Y72063D01*
X46403D01*
Y72180D01*
X46520D01*
Y72297D01*
X46403D01*
Y72414D01*
X46520D01*
Y72532D01*
X46403D01*
Y72649D01*
X46520D01*
Y72766D01*
X46403D01*
Y72883D01*
X46520D01*
Y73000D01*
X46403D01*
Y73118D01*
X46520D01*
Y73235D01*
X46403D01*
Y73352D01*
X46520D01*
Y73469D01*
X46403D01*
Y73586D01*
X46520D01*
Y73703D01*
X46403D01*
Y73820D01*
X46520D01*
Y73938D01*
X46403D01*
Y74055D01*
X46520D01*
Y74172D01*
X46403D01*
Y74289D01*
X46520D01*
Y74406D01*
X46403D01*
Y74523D01*
X46520D01*
Y74641D01*
X46403D01*
Y74758D01*
X46520D01*
Y74875D01*
X46403D01*
Y74992D01*
X46520D01*
Y75109D01*
X46638D01*
Y75226D01*
X46755D01*
Y75109D01*
X46872D01*
Y75226D01*
X46989D01*
Y75109D01*
X47106D01*
Y75226D01*
X47223D01*
Y75109D01*
X47341D01*
Y75226D01*
X47458D01*
Y75109D01*
X47575D01*
Y75226D01*
X47458D01*
Y75344D01*
X47341D01*
Y75461D01*
X47106D01*
Y75695D01*
X46989D01*
Y75812D01*
X46872D01*
Y75929D01*
X46755D01*
Y76046D01*
X46638D01*
Y76398D01*
X46520D01*
Y76749D01*
X46403D01*
Y77101D01*
X46286D01*
Y77218D01*
X46403D01*
Y77335D01*
X46286D01*
Y77452D01*
X46169D01*
Y77570D01*
X46286D01*
Y77687D01*
X46169D01*
Y78741D01*
X46052D01*
Y78858D01*
X46169D01*
Y78975D01*
X46052D01*
Y79093D01*
X46169D01*
Y79210D01*
X46052D01*
Y79327D01*
X46169D01*
Y79444D01*
X46052D01*
Y79561D01*
X46169D01*
Y79678D01*
X46052D01*
Y79795D01*
X46169D01*
Y79913D01*
X46052D01*
Y80030D01*
X46169D01*
Y80147D01*
X46052D01*
Y80264D01*
X46169D01*
Y81318D01*
X46286D01*
Y81436D01*
X46169D01*
Y81553D01*
X46286D01*
Y81670D01*
X46169D01*
Y81787D01*
X46286D01*
Y81904D01*
X46403D01*
Y82021D01*
X46286D01*
Y82139D01*
X46403D01*
Y82490D01*
X46520D01*
Y82841D01*
X46638D01*
Y83193D01*
X46755D01*
Y83076D01*
X46872D01*
Y83193D01*
X46755D01*
Y83310D01*
X46872D01*
Y83427D01*
X46989D01*
Y83544D01*
X47106D01*
Y83662D01*
X47341D01*
Y83779D01*
X47575D01*
Y83896D01*
X47692D01*
Y83779D01*
X47809D01*
Y83896D01*
X47926D01*
Y83779D01*
X48044D01*
Y83896D01*
X48161D01*
Y83779D01*
X48278D01*
Y83662D01*
X48629D01*
Y83427D01*
X48864D01*
Y83076D01*
X48981D01*
Y82959D01*
X49098D01*
Y83076D01*
X49215D01*
Y83193D01*
X49332D01*
Y83310D01*
X49215D01*
Y83427D01*
X49332D01*
Y83544D01*
X49215D01*
Y83662D01*
X49332D01*
Y83779D01*
X49215D01*
Y83896D01*
X49332D01*
Y84013D01*
X49215D01*
Y84130D01*
X49332D01*
Y84247D01*
X49215D01*
Y84365D01*
X49332D01*
Y84482D01*
X49215D01*
Y84599D01*
X49332D01*
Y84716D01*
X49215D01*
Y84833D01*
X49332D01*
Y84950D01*
X49215D01*
Y85068D01*
X49332D01*
Y85185D01*
X49215D01*
Y85302D01*
X49332D01*
Y85419D01*
X49215D01*
Y85536D01*
X49332D01*
Y85653D01*
X49215D01*
Y85770D01*
X49332D01*
Y85888D01*
X49215D01*
Y86005D01*
X49332D01*
Y86122D01*
X49215D01*
Y86239D01*
X49332D01*
Y86356D01*
X49215D01*
Y86473D01*
X49332D01*
Y86591D01*
X49215D01*
Y86708D01*
X49332D01*
Y86825D01*
X49215D01*
Y86942D01*
X49332D01*
Y87059D01*
X49215D01*
Y87176D01*
X49332D01*
Y87293D01*
X49215D01*
Y87411D01*
X49332D01*
Y87528D01*
X49215D01*
Y87645D01*
X49332D01*
Y87762D01*
X49449D01*
Y87879D01*
X49567D01*
Y87762D01*
X49918D01*
Y87879D01*
X50035D01*
Y87762D01*
X50387D01*
Y87879D01*
X50504D01*
Y87762D01*
X50855D01*
Y87645D01*
X50972D01*
Y87528D01*
X50855D01*
Y87411D01*
X50972D01*
Y87059D01*
X53667D01*
Y87176D01*
X53784D01*
Y87059D01*
X53901D01*
Y87176D01*
X54018D01*
Y87293D01*
X54136D01*
Y87411D01*
X54253D01*
Y87528D01*
X54370D01*
Y87645D01*
X54253D01*
Y87762D01*
X54370D01*
Y87879D01*
X54253D01*
Y88231D01*
X54136D01*
Y88582D01*
X53901D01*
Y88699D01*
X53667D01*
Y88817D01*
X53316D01*
Y88934D01*
X53198D01*
Y88817D01*
X53081D01*
Y88934D01*
X52964D01*
Y88817D01*
X52847D01*
Y88934D01*
X52730D01*
Y88817D01*
X52613D01*
Y88934D01*
X52495D01*
Y88817D01*
X52378D01*
Y88934D01*
X52261D01*
Y88817D01*
X52144D01*
Y88934D01*
X52027D01*
Y88817D01*
X51910D01*
Y88934D01*
X51793D01*
Y88817D01*
X51675D01*
Y88934D01*
X51558D01*
Y88817D01*
X51441D01*
Y88934D01*
X51324D01*
Y88817D01*
X51207D01*
Y88934D01*
X51090D01*
Y88817D01*
X50972D01*
Y88465D01*
X50855D01*
Y88348D01*
X50972D01*
Y88231D01*
X50855D01*
Y88114D01*
X50738D01*
Y87997D01*
X50621D01*
Y88114D01*
X50504D01*
Y87997D01*
X50387D01*
Y88114D01*
X50270D01*
Y87997D01*
X50152D01*
Y88114D01*
X50035D01*
Y87997D01*
X49918D01*
Y88114D01*
X49801D01*
Y87997D01*
X49684D01*
Y88114D01*
X49567D01*
Y87997D01*
X49449D01*
Y88114D01*
X49332D01*
Y88231D01*
X49215D01*
Y88348D01*
X49332D01*
Y88465D01*
X49215D01*
Y88582D01*
X49332D01*
Y88699D01*
X49215D01*
Y88817D01*
X49332D01*
Y88934D01*
X49215D01*
Y89051D01*
X49332D01*
Y89168D01*
X49215D01*
Y89285D01*
X49332D01*
Y89402D01*
X49215D01*
Y89520D01*
X49332D01*
Y89637D01*
X49215D01*
Y89754D01*
X49332D01*
Y89871D01*
X49215D01*
Y89988D01*
X49332D01*
Y90105D01*
X49215D01*
Y90223D01*
X49332D01*
Y90340D01*
X49215D01*
Y90457D01*
X49332D01*
Y90574D01*
X49215D01*
Y90691D01*
X49332D01*
Y90808D01*
X49215D01*
Y90925D01*
X49332D01*
Y91043D01*
X49215D01*
Y91160D01*
X49332D01*
Y91277D01*
X49215D01*
Y91394D01*
X49332D01*
Y91511D01*
X49215D01*
Y91628D01*
X49332D01*
Y91746D01*
X49215D01*
Y91863D01*
X49332D01*
Y91980D01*
X49215D01*
Y92097D01*
X49332D01*
Y92214D01*
X49215D01*
Y92331D01*
X49332D01*
Y92449D01*
X49215D01*
Y92566D01*
X49332D01*
Y92683D01*
X49215D01*
Y92800D01*
X49332D01*
Y92917D01*
X49215D01*
Y93034D01*
X49332D01*
Y93151D01*
X49215D01*
Y93269D01*
X49332D01*
Y93386D01*
X49215D01*
Y93503D01*
X49332D01*
Y93620D01*
X49215D01*
Y93737D01*
X49332D01*
Y93854D01*
X49215D01*
Y93972D01*
X49332D01*
Y94089D01*
X49215D01*
Y94206D01*
X49332D01*
Y94323D01*
X49215D01*
Y94440D01*
X49332D01*
Y94557D01*
X49215D01*
Y94674D01*
X49332D01*
Y94792D01*
X49215D01*
Y94909D01*
X49332D01*
Y95026D01*
X49215D01*
Y95143D01*
X49332D01*
Y95260D01*
X49215D01*
Y95377D01*
X49332D01*
Y95495D01*
X49215D01*
Y95612D01*
X49332D01*
Y95729D01*
X49215D01*
Y95846D01*
X49332D01*
Y95963D01*
X49215D01*
Y96080D01*
X49332D01*
Y96197D01*
X49215D01*
Y96315D01*
X49332D01*
Y96432D01*
X49215D01*
Y96549D01*
X49332D01*
Y96666D01*
X49215D01*
Y96783D01*
X49332D01*
Y96900D01*
X49215D01*
Y97018D01*
X49332D01*
Y97135D01*
X49215D01*
Y97252D01*
X49332D01*
Y97369D01*
X49215D01*
Y97486D01*
X49332D01*
Y97603D01*
X49215D01*
Y97721D01*
X49332D01*
Y97838D01*
X49215D01*
Y97955D01*
X49332D01*
Y98072D01*
X49215D01*
Y98189D01*
X49332D01*
Y98306D01*
X49215D01*
Y98423D01*
X49332D01*
Y98541D01*
X49215D01*
Y98658D01*
X49332D01*
Y98775D01*
X49215D01*
Y98892D01*
X49332D01*
Y99009D01*
X49215D01*
Y99126D01*
X49332D01*
Y99244D01*
X49215D01*
Y99361D01*
X49332D01*
Y99478D01*
X49215D01*
Y99595D01*
X49332D01*
Y99712D01*
X49215D01*
Y99829D01*
X49332D01*
Y99947D01*
X49215D01*
Y100064D01*
X49332D01*
Y100181D01*
X49215D01*
Y100298D01*
X49332D01*
Y100415D01*
X49215D01*
Y100532D01*
X49332D01*
Y100649D01*
X49215D01*
Y100767D01*
X49332D01*
Y100884D01*
X49215D01*
Y101001D01*
X49332D01*
Y101118D01*
X49215D01*
Y101235D01*
X49332D01*
Y101353D01*
X49215D01*
Y101470D01*
X49332D01*
Y101587D01*
X49215D01*
Y101704D01*
X49332D01*
Y101821D01*
X49449D01*
Y101938D01*
X50738D01*
Y101821D01*
X50855D01*
Y101704D01*
X50972D01*
Y101587D01*
X50855D01*
Y101470D01*
X50972D01*
Y101235D01*
X51207D01*
Y101118D01*
X51324D01*
Y101235D01*
X51441D01*
Y101118D01*
X51558D01*
Y101235D01*
X51675D01*
Y101118D01*
X51793D01*
Y101235D01*
X51910D01*
Y101118D01*
X52027D01*
Y101235D01*
X52144D01*
Y101118D01*
X52261D01*
Y101235D01*
X52378D01*
Y101118D01*
X52495D01*
Y101235D01*
X52613D01*
Y101118D01*
X52730D01*
Y101235D01*
X52847D01*
Y101118D01*
X52964D01*
Y101235D01*
X53081D01*
Y101118D01*
X53198D01*
Y101235D01*
X53784D01*
Y101353D01*
X54136D01*
Y101470D01*
X54253D01*
Y101821D01*
X54370D01*
Y101938D01*
X54253D01*
Y102055D01*
X54370D01*
Y102173D01*
X54253D01*
Y102290D01*
X54136D01*
Y102407D01*
X54253D01*
Y102524D01*
X54136D01*
Y102641D01*
X54018D01*
Y102758D01*
X53901D01*
Y102875D01*
X53784D01*
Y102993D01*
X53433D01*
Y103110D01*
X53316D01*
Y102993D01*
X53198D01*
Y103110D01*
X53081D01*
Y102993D01*
X52964D01*
Y103110D01*
X52847D01*
Y102993D01*
X52730D01*
Y103110D01*
X52613D01*
Y102993D01*
X52495D01*
Y103110D01*
X52378D01*
Y102993D01*
X52261D01*
Y103110D01*
X52144D01*
Y102993D01*
X52027D01*
Y103110D01*
X51910D01*
Y102993D01*
X51793D01*
Y103110D01*
X51675D01*
Y102993D01*
X51558D01*
Y103110D01*
X51441D01*
Y102993D01*
X51324D01*
Y103110D01*
X51207D01*
Y102993D01*
X51090D01*
Y103110D01*
X50972D01*
Y102993D01*
X50855D01*
Y102875D01*
X50972D01*
Y102524D01*
X50855D01*
Y102407D01*
X50972D01*
Y102290D01*
X50621D01*
Y102173D01*
X50270D01*
Y102290D01*
X50152D01*
Y102173D01*
X49801D01*
Y102290D01*
X49684D01*
Y102173D01*
X49449D01*
Y102290D01*
X49332D01*
Y102524D01*
X49215D01*
Y102641D01*
X49332D01*
Y102758D01*
X49215D01*
Y102875D01*
X49332D01*
Y102993D01*
X49215D01*
Y103110D01*
X49332D01*
Y103227D01*
X49215D01*
Y103344D01*
X49332D01*
Y103461D01*
X49215D01*
Y103578D01*
X49332D01*
Y103696D01*
X49215D01*
Y103813D01*
X49332D01*
Y103930D01*
X49215D01*
Y104047D01*
X49332D01*
Y104164D01*
X49215D01*
Y104281D01*
X49332D01*
Y104399D01*
X49215D01*
Y104516D01*
X49332D01*
Y104633D01*
X49215D01*
Y104750D01*
X49332D01*
Y104867D01*
X49215D01*
Y104984D01*
X49332D01*
Y105102D01*
X49215D01*
Y105219D01*
X49332D01*
Y105336D01*
X49215D01*
Y105453D01*
X49332D01*
Y105570D01*
X49215D01*
Y105687D01*
X49332D01*
Y105804D01*
X49215D01*
Y105922D01*
X49332D01*
Y106039D01*
X49215D01*
Y106156D01*
X49332D01*
Y106273D01*
X49215D01*
Y106390D01*
X49332D01*
Y106507D01*
X49215D01*
Y106624D01*
X49332D01*
Y106742D01*
X49215D01*
Y106859D01*
X49332D01*
Y106976D01*
X49215D01*
Y107093D01*
X49332D01*
Y107210D01*
X49215D01*
Y107327D01*
X49332D01*
Y107445D01*
X49215D01*
Y107562D01*
X49332D01*
Y107679D01*
X49215D01*
Y107796D01*
X49332D01*
Y107913D01*
X49215D01*
Y108030D01*
X49332D01*
Y108148D01*
X49215D01*
Y108265D01*
X49332D01*
Y108382D01*
X49215D01*
Y108499D01*
X49332D01*
Y108616D01*
X49215D01*
Y108733D01*
X49332D01*
Y108851D01*
X49215D01*
Y108968D01*
X49332D01*
Y109085D01*
X49215D01*
Y109202D01*
X49332D01*
Y109319D01*
X49215D01*
Y109436D01*
X49332D01*
Y109554D01*
X49215D01*
Y109671D01*
X49332D01*
Y109788D01*
X49215D01*
Y109905D01*
X49332D01*
Y110022D01*
X49215D01*
Y110139D01*
X49332D01*
Y110256D01*
X49215D01*
Y110374D01*
X49332D01*
Y110491D01*
X49215D01*
Y110608D01*
X49332D01*
Y110725D01*
X49215D01*
Y110842D01*
X49332D01*
Y110959D01*
X49215D01*
Y111076D01*
X49332D01*
Y111194D01*
X49215D01*
Y111311D01*
X49332D01*
Y111428D01*
X49215D01*
Y111545D01*
X49332D01*
Y111662D01*
X49215D01*
Y111779D01*
X49332D01*
Y111897D01*
X49215D01*
Y112014D01*
X49332D01*
Y112131D01*
X49215D01*
Y112248D01*
X49332D01*
Y112365D01*
X49215D01*
Y112482D01*
X49332D01*
Y112600D01*
X49215D01*
Y112717D01*
X49332D01*
Y112834D01*
X49215D01*
Y112951D01*
X49332D01*
Y113068D01*
X49215D01*
Y113185D01*
X49332D01*
Y113303D01*
X49215D01*
Y113420D01*
X49332D01*
Y113537D01*
X49215D01*
Y113654D01*
X49332D01*
Y113771D01*
X49215D01*
Y113888D01*
X49332D01*
Y114005D01*
X49215D01*
Y114123D01*
X49332D01*
Y114240D01*
X49215D01*
Y114357D01*
X49332D01*
Y114474D01*
X49215D01*
Y114591D01*
X49332D01*
Y114708D01*
X49215D01*
Y114826D01*
X49332D01*
Y114943D01*
X49215D01*
Y115060D01*
X49332D01*
Y115177D01*
X49215D01*
Y115294D01*
X49332D01*
Y115411D01*
X49215D01*
Y115529D01*
X49332D01*
Y115646D01*
X49215D01*
Y115763D01*
X49332D01*
Y115880D01*
X49215D01*
Y115997D01*
X49332D01*
Y116114D01*
X49449D01*
Y116349D01*
X49332D01*
Y116583D01*
X49215D01*
Y116700D01*
X49332D01*
Y116817D01*
X49215D01*
Y116934D01*
X49332D01*
Y117052D01*
X49215D01*
Y117169D01*
X49332D01*
Y117286D01*
X49215D01*
Y117403D01*
X49332D01*
Y117520D01*
X49215D01*
Y117637D01*
X49332D01*
Y117754D01*
X49215D01*
Y117872D01*
X49332D01*
Y117989D01*
X49215D01*
Y118106D01*
X49332D01*
Y118223D01*
X49215D01*
Y118340D01*
X49332D01*
Y118457D01*
X49215D01*
Y118575D01*
X49332D01*
Y118692D01*
X49215D01*
Y118809D01*
X49332D01*
Y118926D01*
X49215D01*
Y119043D01*
X49332D01*
Y119160D01*
X49215D01*
Y119278D01*
X49332D01*
Y119395D01*
X49215D01*
Y119512D01*
X49332D01*
Y119629D01*
X49215D01*
Y119746D01*
X49332D01*
Y119863D01*
X49215D01*
Y119981D01*
X49332D01*
Y120098D01*
X49215D01*
Y120215D01*
X49332D01*
Y120332D01*
X49215D01*
Y120449D01*
X49332D01*
Y120566D01*
X49215D01*
Y120684D01*
X49332D01*
Y120801D01*
X49215D01*
Y120918D01*
X49332D01*
Y121035D01*
X49215D01*
Y121152D01*
X49332D01*
Y121269D01*
X49215D01*
Y121386D01*
X49332D01*
Y121504D01*
X49918D01*
Y121855D01*
X49801D01*
Y121972D01*
X49684D01*
Y122089D01*
X49567D01*
Y122441D01*
X49449D01*
Y122792D01*
X49332D01*
Y123144D01*
X49215D01*
Y123964D01*
X49098D01*
Y124081D01*
X49215D01*
Y124198D01*
X49098D01*
Y124315D01*
X49215D01*
Y124433D01*
X49098D01*
Y124550D01*
X49215D01*
Y124667D01*
X49098D01*
Y124784D01*
X49215D01*
Y124901D01*
X49098D01*
Y125018D01*
X49215D01*
Y125604D01*
X49332D01*
Y125721D01*
X49215D01*
Y125838D01*
X49332D01*
Y125956D01*
X49449D01*
Y126073D01*
X49332D01*
Y126190D01*
X49449D01*
Y126541D01*
X49567D01*
Y126658D01*
X49684D01*
Y126776D01*
X49567D01*
Y126893D01*
X49449D01*
Y127010D01*
X49332D01*
Y127127D01*
X49215D01*
Y127244D01*
X49332D01*
Y127361D01*
X49215D01*
Y127479D01*
X49332D01*
Y127596D01*
X49215D01*
Y127713D01*
X49332D01*
Y127830D01*
X49215D01*
Y127947D01*
X49332D01*
Y128064D01*
X49215D01*
Y128182D01*
X49332D01*
Y128299D01*
X49449D01*
Y128416D01*
X49801D01*
Y128533D01*
X49918D01*
Y128416D01*
X50270D01*
Y128533D01*
X50387D01*
Y128416D01*
X50738D01*
Y128533D01*
X50855D01*
Y128416D01*
X51207D01*
Y128533D01*
X51324D01*
Y128416D01*
X51675D01*
Y128533D01*
X51793D01*
Y128416D01*
X51910D01*
Y128299D01*
X52027D01*
Y128182D01*
X51910D01*
Y128064D01*
X52027D01*
Y127947D01*
X51910D01*
Y127830D01*
X52027D01*
Y127713D01*
X51910D01*
Y127596D01*
X52027D01*
Y127479D01*
X51910D01*
Y127361D01*
X52027D01*
Y127244D01*
X51910D01*
Y127127D01*
X52027D01*
Y127010D01*
X52144D01*
Y127244D01*
X52261D01*
Y127479D01*
X52378D01*
Y127596D01*
X52261D01*
Y127713D01*
X52378D01*
Y127596D01*
X52495D01*
Y127713D01*
X52378D01*
Y127830D01*
X52495D01*
Y127947D01*
X52613D01*
Y128064D01*
X52730D01*
Y128182D01*
X52847D01*
Y128299D01*
X52964D01*
Y128416D01*
X53198D01*
Y128533D01*
X53667D01*
Y128650D01*
X53784D01*
Y128533D01*
X53901D01*
Y128650D01*
X54018D01*
Y128533D01*
X54136D01*
Y128650D01*
X54253D01*
Y128533D01*
X54370D01*
Y128650D01*
X54487D01*
Y128533D01*
X54604D01*
Y128650D01*
X54721D01*
Y128533D01*
D02*
G37*
G36*
X321202Y126893D02*
X321085D01*
Y127010D01*
X321202D01*
Y126893D01*
D02*
G37*
G36*
X49332D02*
X49215D01*
Y127010D01*
X49332D01*
Y126893D01*
D02*
G37*
G36*
X330223Y110842D02*
X330341D01*
Y110725D01*
X330692D01*
Y110608D01*
X330809D01*
Y110491D01*
X330926D01*
Y110374D01*
X330809D01*
Y110256D01*
X330926D01*
Y110139D01*
X331044D01*
Y110022D01*
X331161D01*
Y109905D01*
X331278D01*
Y109788D01*
X331161D01*
Y109671D01*
X331278D01*
Y109554D01*
X331161D01*
Y109436D01*
X331278D01*
Y109319D01*
X331161D01*
Y109202D01*
X331278D01*
Y109085D01*
X331161D01*
Y108968D01*
X331278D01*
Y108851D01*
X331161D01*
Y108733D01*
X331044D01*
Y108382D01*
X330926D01*
Y108265D01*
X330809D01*
Y108030D01*
X330575D01*
Y107913D01*
X330458D01*
Y107796D01*
X330341D01*
Y107679D01*
X329989D01*
Y107562D01*
X329872D01*
Y107679D01*
X329286D01*
Y107796D01*
X329169D01*
Y107913D01*
X329052D01*
Y108030D01*
X328818D01*
Y108265D01*
X328700D01*
Y108382D01*
X328583D01*
Y108733D01*
X328466D01*
Y108851D01*
X328349D01*
Y108968D01*
X328466D01*
Y109085D01*
X328349D01*
Y109202D01*
X328466D01*
Y109319D01*
X328349D01*
Y109436D01*
X328466D01*
Y109554D01*
X328349D01*
Y109671D01*
X328466D01*
Y109788D01*
X328349D01*
Y109905D01*
X328466D01*
Y109788D01*
X328583D01*
Y109905D01*
X328466D01*
Y110022D01*
X328583D01*
Y110374D01*
X328700D01*
Y110491D01*
X328818D01*
Y110608D01*
X328935D01*
Y110725D01*
X329052D01*
Y110842D01*
X329403D01*
Y110959D01*
X330223D01*
Y110842D01*
D02*
G37*
G36*
X58353D02*
X58470D01*
Y110725D01*
X58822D01*
Y110608D01*
X58939D01*
Y110491D01*
X59056D01*
Y110374D01*
X58939D01*
Y110256D01*
X59056D01*
Y110139D01*
X59173D01*
Y110022D01*
X59291D01*
Y109905D01*
X59408D01*
Y109788D01*
X59291D01*
Y109671D01*
X59408D01*
Y109554D01*
X59291D01*
Y109436D01*
X59408D01*
Y109319D01*
X59291D01*
Y109202D01*
X59408D01*
Y109085D01*
X59291D01*
Y108968D01*
X59408D01*
Y108851D01*
X59291D01*
Y108733D01*
X59173D01*
Y108382D01*
X59056D01*
Y108265D01*
X58939D01*
Y108030D01*
X58705D01*
Y107913D01*
X58588D01*
Y107796D01*
X58470D01*
Y107679D01*
X58119D01*
Y107562D01*
X58002D01*
Y107679D01*
X57416D01*
Y107796D01*
X57299D01*
Y107913D01*
X57182D01*
Y108030D01*
X56947D01*
Y108265D01*
X56830D01*
Y108382D01*
X56713D01*
Y108733D01*
X56596D01*
Y108851D01*
X56479D01*
Y108968D01*
X56596D01*
Y109085D01*
X56479D01*
Y109202D01*
X56596D01*
Y109319D01*
X56479D01*
Y109436D01*
X56596D01*
Y109554D01*
X56479D01*
Y109671D01*
X56596D01*
Y109788D01*
X56479D01*
Y109905D01*
X56596D01*
Y109788D01*
X56713D01*
Y109905D01*
X56596D01*
Y110022D01*
X56713D01*
Y110374D01*
X56830D01*
Y110491D01*
X56947D01*
Y110608D01*
X57065D01*
Y110725D01*
X57182D01*
Y110842D01*
X57533D01*
Y110959D01*
X58353D01*
Y110842D01*
D02*
G37*
G36*
X330341Y96666D02*
X330458D01*
Y96549D01*
X330575D01*
Y96432D01*
X330692D01*
Y96315D01*
X330809D01*
Y96197D01*
X330926D01*
Y96080D01*
X331044D01*
Y95729D01*
X331161D01*
Y95612D01*
X331278D01*
Y95495D01*
X331161D01*
Y95377D01*
X331278D01*
Y95026D01*
X331161D01*
Y94909D01*
X331278D01*
Y94792D01*
X331161D01*
Y94440D01*
X331044D01*
Y94089D01*
X330926D01*
Y93972D01*
X330809D01*
Y93854D01*
X330692D01*
Y93737D01*
X330575D01*
Y93620D01*
X330341D01*
Y93503D01*
X330106D01*
Y93386D01*
X329989D01*
Y93503D01*
X329872D01*
Y93386D01*
X329755D01*
Y93503D01*
X329403D01*
Y93620D01*
X329052D01*
Y93737D01*
X328935D01*
Y93854D01*
X328818D01*
Y93972D01*
X328700D01*
Y94089D01*
X328583D01*
Y94440D01*
X328466D01*
Y94792D01*
X328349D01*
Y94909D01*
X328466D01*
Y95026D01*
X328349D01*
Y95143D01*
X328466D01*
Y95260D01*
X328349D01*
Y95377D01*
X328466D01*
Y95495D01*
X328349D01*
Y95612D01*
X328466D01*
Y95729D01*
X328583D01*
Y96080D01*
X328700D01*
Y96197D01*
X328818D01*
Y96432D01*
X329052D01*
Y96549D01*
X329169D01*
Y96666D01*
X329286D01*
Y96783D01*
X329403D01*
Y96666D01*
X329521D01*
Y96783D01*
X330106D01*
Y96666D01*
X330223D01*
Y96783D01*
X330341D01*
Y96666D01*
D02*
G37*
G36*
X58470D02*
X58588D01*
Y96549D01*
X58705D01*
Y96432D01*
X58822D01*
Y96315D01*
X58939D01*
Y96197D01*
X59056D01*
Y96080D01*
X59173D01*
Y95729D01*
X59291D01*
Y95612D01*
X59408D01*
Y95495D01*
X59291D01*
Y95377D01*
X59408D01*
Y95026D01*
X59291D01*
Y94909D01*
X59408D01*
Y94792D01*
X59291D01*
Y94440D01*
X59173D01*
Y94089D01*
X59056D01*
Y93972D01*
X58939D01*
Y93854D01*
X58822D01*
Y93737D01*
X58705D01*
Y93620D01*
X58470D01*
Y93503D01*
X58236D01*
Y93386D01*
X58119D01*
Y93503D01*
X58002D01*
Y93386D01*
X57885D01*
Y93503D01*
X57533D01*
Y93620D01*
X57182D01*
Y93737D01*
X57065D01*
Y93854D01*
X56947D01*
Y93972D01*
X56830D01*
Y94089D01*
X56713D01*
Y94440D01*
X56596D01*
Y94792D01*
X56479D01*
Y94909D01*
X56596D01*
Y95026D01*
X56479D01*
Y95143D01*
X56596D01*
Y95260D01*
X56479D01*
Y95377D01*
X56596D01*
Y95495D01*
X56479D01*
Y95612D01*
X56596D01*
Y95729D01*
X56713D01*
Y96080D01*
X56830D01*
Y96197D01*
X56947D01*
Y96432D01*
X57182D01*
Y96549D01*
X57299D01*
Y96666D01*
X57416D01*
Y96783D01*
X57533D01*
Y96666D01*
X57650D01*
Y96783D01*
X58236D01*
Y96666D01*
X58353D01*
Y96783D01*
X58470D01*
Y96666D01*
D02*
G37*
G36*
X330341Y65034D02*
X330458D01*
Y64916D01*
X330575D01*
Y64799D01*
X330692D01*
Y64682D01*
X330809D01*
Y64565D01*
X330926D01*
Y64448D01*
X331044D01*
Y64096D01*
X331161D01*
Y63979D01*
X331278D01*
Y63862D01*
X331161D01*
Y63745D01*
X331278D01*
Y63628D01*
X331161D01*
Y63511D01*
X331278D01*
Y63393D01*
X331161D01*
Y63276D01*
X331278D01*
Y63159D01*
X331161D01*
Y63042D01*
X331278D01*
Y62925D01*
X331161D01*
Y62808D01*
X331044D01*
Y62573D01*
X330926D01*
Y62339D01*
X330809D01*
Y62222D01*
X330692D01*
Y62105D01*
X330575D01*
Y61988D01*
X330341D01*
Y61870D01*
X330106D01*
Y61753D01*
X329989D01*
Y61870D01*
X329872D01*
Y61753D01*
X329755D01*
Y61870D01*
X329638D01*
Y61753D01*
X329521D01*
Y61870D01*
X329286D01*
Y61988D01*
X329052D01*
Y62105D01*
X328935D01*
Y62222D01*
X328818D01*
Y62339D01*
X328700D01*
Y62456D01*
X328583D01*
Y62808D01*
X328466D01*
Y62925D01*
X328349D01*
Y63042D01*
X328466D01*
Y62925D01*
X328583D01*
Y63042D01*
X328466D01*
Y63159D01*
X328349D01*
Y63276D01*
X328466D01*
Y63393D01*
X328349D01*
Y63511D01*
X328466D01*
Y63628D01*
X328349D01*
Y63745D01*
X328466D01*
Y63862D01*
X328349D01*
Y63979D01*
X328466D01*
Y64096D01*
X328583D01*
Y64448D01*
X328700D01*
Y64565D01*
X328818D01*
Y64799D01*
X329052D01*
Y64916D01*
X329169D01*
Y65034D01*
X329286D01*
Y65151D01*
X329403D01*
Y65034D01*
X329521D01*
Y65151D01*
X330106D01*
Y65034D01*
X330223D01*
Y65151D01*
X330341D01*
Y65034D01*
D02*
G37*
G36*
X58470D02*
X58588D01*
Y64916D01*
X58705D01*
Y64799D01*
X58822D01*
Y64682D01*
X58939D01*
Y64565D01*
X59056D01*
Y64448D01*
X59173D01*
Y64096D01*
X59291D01*
Y63979D01*
X59408D01*
Y63862D01*
X59291D01*
Y63745D01*
X59408D01*
Y63628D01*
X59291D01*
Y63511D01*
X59408D01*
Y63393D01*
X59291D01*
Y63276D01*
X59408D01*
Y63159D01*
X59291D01*
Y63042D01*
X59408D01*
Y62925D01*
X59291D01*
Y62808D01*
X59173D01*
Y62573D01*
X59056D01*
Y62339D01*
X58939D01*
Y62222D01*
X58822D01*
Y62105D01*
X58705D01*
Y61988D01*
X58470D01*
Y61870D01*
X58236D01*
Y61753D01*
X58119D01*
Y61870D01*
X58002D01*
Y61753D01*
X57885D01*
Y61870D01*
X57768D01*
Y61753D01*
X57650D01*
Y61870D01*
X57416D01*
Y61988D01*
X57182D01*
Y62105D01*
X57065D01*
Y62222D01*
X56947D01*
Y62339D01*
X56830D01*
Y62456D01*
X56713D01*
Y62808D01*
X56596D01*
Y62925D01*
X56479D01*
Y63042D01*
X56596D01*
Y62925D01*
X56713D01*
Y63042D01*
X56596D01*
Y63159D01*
X56479D01*
Y63276D01*
X56596D01*
Y63393D01*
X56479D01*
Y63511D01*
X56596D01*
Y63628D01*
X56479D01*
Y63745D01*
X56596D01*
Y63862D01*
X56479D01*
Y63979D01*
X56596D01*
Y64096D01*
X56713D01*
Y64448D01*
X56830D01*
Y64565D01*
X56947D01*
Y64799D01*
X57182D01*
Y64916D01*
X57299D01*
Y65034D01*
X57416D01*
Y65151D01*
X57533D01*
Y65034D01*
X57650D01*
Y65151D01*
X58236D01*
Y65034D01*
X58353D01*
Y65151D01*
X58470D01*
Y65034D01*
D02*
G37*
%LPC*%
G36*
X323897Y127010D02*
X323780D01*
Y126893D01*
X323663D01*
Y126776D01*
X323545D01*
Y126658D01*
X323311D01*
Y126424D01*
X323194D01*
Y126307D01*
X323077D01*
Y126190D01*
X322960D01*
Y126073D01*
X322843D01*
Y125721D01*
X322725D01*
Y125370D01*
X322608D01*
Y124784D01*
X322491D01*
Y124667D01*
X322608D01*
Y124081D01*
X322725D01*
Y123964D01*
X322843D01*
Y123847D01*
X322960D01*
Y123964D01*
X323194D01*
Y124198D01*
X323311D01*
Y124315D01*
X323194D01*
Y124433D01*
X323311D01*
Y124550D01*
X323428D01*
Y125135D01*
X323545D01*
Y125487D01*
X323663D01*
Y125604D01*
X323545D01*
Y125721D01*
X323663D01*
Y126307D01*
X323780D01*
Y126658D01*
X323897D01*
Y127010D01*
D02*
G37*
G36*
X326591Y125487D02*
X326357D01*
Y125370D01*
X326240D01*
Y125135D01*
X326123D01*
Y124550D01*
X326006D01*
Y124198D01*
X325889D01*
Y124081D01*
X326006D01*
Y123964D01*
X325889D01*
Y123378D01*
X325771D01*
Y123261D01*
X325889D01*
Y123144D01*
X325771D01*
Y123027D01*
X325654D01*
Y122675D01*
X325771D01*
Y122792D01*
X325889D01*
Y122675D01*
X326006D01*
Y122909D01*
X326240D01*
Y123027D01*
X326357D01*
Y123144D01*
X326474D01*
Y123261D01*
X326591D01*
Y123378D01*
X326709D01*
Y123730D01*
X326826D01*
Y124081D01*
X326943D01*
Y124198D01*
X326826D01*
Y124315D01*
X326943D01*
Y124433D01*
X326826D01*
Y124550D01*
X326943D01*
Y124667D01*
X326826D01*
Y124784D01*
X326943D01*
Y124901D01*
X326826D01*
Y125253D01*
X326709D01*
Y125370D01*
X326591D01*
Y125487D01*
D02*
G37*
G36*
X325771Y122558D02*
X325654D01*
Y122441D01*
X325771D01*
Y122558D01*
D02*
G37*
G36*
X322022Y121621D02*
X321905D01*
Y121504D01*
X322022D01*
Y121621D01*
D02*
G37*
G36*
X325303Y117169D02*
X325186D01*
Y117052D01*
X325068D01*
Y117169D01*
X324951D01*
Y117052D01*
X324834D01*
Y117169D01*
X324717D01*
Y117052D01*
X324600D01*
Y117169D01*
X324483D01*
Y117052D01*
X324365D01*
Y117169D01*
X324248D01*
Y117052D01*
X324131D01*
Y117169D01*
X324014D01*
Y117052D01*
X323897D01*
Y117169D01*
X323780D01*
Y117052D01*
X323663D01*
Y117169D01*
X323545D01*
Y117052D01*
X323428D01*
Y117169D01*
X323311D01*
Y117052D01*
X323194D01*
Y117169D01*
X323077D01*
Y117052D01*
X322960D01*
Y117169D01*
X322843D01*
Y117052D01*
X322725D01*
Y116934D01*
X322843D01*
Y116583D01*
X322725D01*
Y116466D01*
X322843D01*
Y116349D01*
X322491D01*
Y116232D01*
X322608D01*
Y116114D01*
X322725D01*
Y115997D01*
X322843D01*
Y115646D01*
X322725D01*
Y115529D01*
X322843D01*
Y115294D01*
X323077D01*
Y115177D01*
X323194D01*
Y115294D01*
X323545D01*
Y115177D01*
X323663D01*
Y115294D01*
X324014D01*
Y115177D01*
X324131D01*
Y115294D01*
X324483D01*
Y115177D01*
X324600D01*
Y115294D01*
X324951D01*
Y115177D01*
X325068D01*
Y115294D01*
X325889D01*
Y115411D01*
X326006D01*
Y115529D01*
X326123D01*
Y115411D01*
X326240D01*
Y115763D01*
X326357D01*
Y115880D01*
X326240D01*
Y116466D01*
X326123D01*
Y116583D01*
X326006D01*
Y116700D01*
X325889D01*
Y116817D01*
X325771D01*
Y116934D01*
X325654D01*
Y117052D01*
X325303D01*
Y117169D01*
D02*
G37*
G36*
X322491Y116232D02*
X322374D01*
Y116114D01*
X322491D01*
Y116232D01*
D02*
G37*
G36*
X322140Y116349D02*
X322022D01*
Y116232D01*
X322140D01*
Y116114D01*
X322257D01*
Y116232D01*
X322140D01*
Y116349D01*
D02*
G37*
G36*
X322022Y116232D02*
X321905D01*
Y116114D01*
X322022D01*
Y116232D01*
D02*
G37*
G36*
X321671Y116349D02*
X321554D01*
Y116232D01*
X321671D01*
Y116114D01*
X321788D01*
Y116232D01*
X321671D01*
Y116349D01*
D02*
G37*
G36*
X321554Y116232D02*
X321437D01*
Y116114D01*
X321554D01*
Y116232D01*
D02*
G37*
G36*
X326123Y80498D02*
X326006D01*
Y80381D01*
X325889D01*
Y80498D01*
X325771D01*
Y80381D01*
X325654D01*
Y80498D01*
X325068D01*
Y80381D01*
X324951D01*
Y80498D01*
X324834D01*
Y80381D01*
X324717D01*
Y80264D01*
X324600D01*
Y80381D01*
X324483D01*
Y80264D01*
X324365D01*
Y80147D01*
X324248D01*
Y80030D01*
X324131D01*
Y79913D01*
X324248D01*
Y79795D01*
X324131D01*
Y79678D01*
X324248D01*
Y79561D01*
X324131D01*
Y79444D01*
X324248D01*
Y79327D01*
X324365D01*
Y79210D01*
X324483D01*
Y79093D01*
X324834D01*
Y78975D01*
X326123D01*
Y79093D01*
X326474D01*
Y79210D01*
X326591D01*
Y79327D01*
X326709D01*
Y79678D01*
X326826D01*
Y79795D01*
X326709D01*
Y80147D01*
X326591D01*
Y80264D01*
X326474D01*
Y80381D01*
X326123D01*
Y80498D01*
D02*
G37*
G36*
X320031Y81436D02*
X319914D01*
Y81318D01*
X319796D01*
Y81201D01*
X319679D01*
Y80850D01*
X319562D01*
Y80030D01*
X319445D01*
Y79913D01*
X319562D01*
Y79561D01*
X319445D01*
Y79444D01*
X319562D01*
Y79093D01*
X319445D01*
Y78975D01*
X319562D01*
Y77921D01*
X319679D01*
Y77804D01*
X319562D01*
Y77687D01*
X319679D01*
Y77570D01*
X319796D01*
Y77335D01*
X320031D01*
Y77452D01*
X320148D01*
Y77804D01*
X320265D01*
Y77921D01*
X320148D01*
Y78038D01*
X320265D01*
Y78155D01*
X320148D01*
Y78272D01*
X320265D01*
Y78624D01*
X320382D01*
Y78741D01*
X320265D01*
Y78858D01*
X320382D01*
Y78975D01*
X320265D01*
Y79093D01*
X320382D01*
Y79210D01*
X320265D01*
Y79327D01*
X320382D01*
Y79444D01*
X320265D01*
Y79561D01*
X320382D01*
Y79678D01*
X320265D01*
Y79795D01*
X320382D01*
Y79913D01*
X320265D01*
Y80030D01*
X320382D01*
Y80147D01*
X320265D01*
Y80264D01*
X320382D01*
Y80381D01*
X320265D01*
Y80498D01*
X320382D01*
Y80616D01*
X320265D01*
Y80733D01*
X320382D01*
Y80850D01*
X320265D01*
Y81201D01*
X320148D01*
Y81318D01*
X320031D01*
Y81436D01*
D02*
G37*
G36*
X326826Y76281D02*
X326240D01*
Y76164D01*
X326357D01*
Y76046D01*
X326474D01*
Y76164D01*
X326591D01*
Y76046D01*
X326709D01*
Y76164D01*
X326826D01*
Y76281D01*
D02*
G37*
G36*
X322960Y81553D02*
X322608D01*
Y81201D01*
X322491D01*
Y80850D01*
X322374D01*
Y80733D01*
X322491D01*
Y80616D01*
X322374D01*
Y80498D01*
X322491D01*
Y80381D01*
X322374D01*
Y80264D01*
X322491D01*
Y80147D01*
X322374D01*
Y80030D01*
X322491D01*
Y79913D01*
X322374D01*
Y79795D01*
X322491D01*
Y79678D01*
X322608D01*
Y79561D01*
X322491D01*
Y79444D01*
X322608D01*
Y79327D01*
X322491D01*
Y79210D01*
X322608D01*
Y79093D01*
X322491D01*
Y78975D01*
X322608D01*
Y78858D01*
X322491D01*
Y78741D01*
X322608D01*
Y78624D01*
X322491D01*
Y78507D01*
X322608D01*
Y78390D01*
X322491D01*
Y78272D01*
X322608D01*
Y78155D01*
X322491D01*
Y78038D01*
X322608D01*
Y77921D01*
X322491D01*
Y77804D01*
X322608D01*
Y77687D01*
X322491D01*
Y77570D01*
X322608D01*
Y77452D01*
X322491D01*
Y77335D01*
X322608D01*
Y77218D01*
X322491D01*
Y77101D01*
X322608D01*
Y76984D01*
X322491D01*
Y76867D01*
X322374D01*
Y76749D01*
X322491D01*
Y76632D01*
X322374D01*
Y76281D01*
X322257D01*
Y76164D01*
X322374D01*
Y76046D01*
X322257D01*
Y75929D01*
X322140D01*
Y75812D01*
X322022D01*
Y75695D01*
X321905D01*
Y75578D01*
X321788D01*
Y75461D01*
X321671D01*
Y75344D01*
X321554D01*
Y75226D01*
X321437D01*
Y75109D01*
X321085D01*
Y74992D01*
X320734D01*
Y74875D01*
X320617D01*
Y74992D01*
X320499D01*
Y74875D01*
X320382D01*
Y74992D01*
X320265D01*
Y74875D01*
X320148D01*
Y74992D01*
X320031D01*
Y74875D01*
X319914D01*
Y74758D01*
X320031D01*
Y74406D01*
X319914D01*
Y74289D01*
X320031D01*
Y74055D01*
X320265D01*
Y73938D01*
X320382D01*
Y74055D01*
X320499D01*
Y73938D01*
X320617D01*
Y74055D01*
X320734D01*
Y73938D01*
X320851D01*
Y74055D01*
X320968D01*
Y73938D01*
X321085D01*
Y74055D01*
X321202D01*
Y73938D01*
X321320D01*
Y74055D01*
X321437D01*
Y73938D01*
X321554D01*
Y74055D01*
X321671D01*
Y73938D01*
X321788D01*
Y74055D01*
X321905D01*
Y73938D01*
X322022D01*
Y74055D01*
X322140D01*
Y73938D01*
X322257D01*
Y74055D01*
X322374D01*
Y73938D01*
X322491D01*
Y74055D01*
X322608D01*
Y73938D01*
X322725D01*
Y74055D01*
X322843D01*
Y73938D01*
X322960D01*
Y74055D01*
X323077D01*
Y73938D01*
X323194D01*
Y74055D01*
X323311D01*
Y73938D01*
X323428D01*
Y74055D01*
X323545D01*
Y73938D01*
X323663D01*
Y74055D01*
X323780D01*
Y73938D01*
X323897D01*
Y74055D01*
X324014D01*
Y73938D01*
X324131D01*
Y74055D01*
X324248D01*
Y73938D01*
X324365D01*
Y74055D01*
X324483D01*
Y73938D01*
X324600D01*
Y74055D01*
X324717D01*
Y73938D01*
X324834D01*
Y74055D01*
X324951D01*
Y73938D01*
X325068D01*
Y74055D01*
X325186D01*
Y73938D01*
X325303D01*
Y74055D01*
X325420D01*
Y73938D01*
X325537D01*
Y74055D01*
X325654D01*
Y73938D01*
X325771D01*
Y74055D01*
X325889D01*
Y73938D01*
X326006D01*
Y74055D01*
X325889D01*
Y74172D01*
X325771D01*
Y74289D01*
X325654D01*
Y74641D01*
X325537D01*
Y75461D01*
X325654D01*
Y75578D01*
X325771D01*
Y75812D01*
X326006D01*
Y75929D01*
X326123D01*
Y76046D01*
X326240D01*
Y76164D01*
X325889D01*
Y76046D01*
X325771D01*
Y76164D01*
X325654D01*
Y76046D01*
X325537D01*
Y76164D01*
X325420D01*
Y76046D01*
X325303D01*
Y76164D01*
X325186D01*
Y76046D01*
X325068D01*
Y76164D01*
X324717D01*
Y76281D01*
X324600D01*
Y76398D01*
X324483D01*
Y76281D01*
X324365D01*
Y76398D01*
X324248D01*
Y76515D01*
X324131D01*
Y76632D01*
X323897D01*
Y76749D01*
X323663D01*
Y76984D01*
X323545D01*
Y77101D01*
X323428D01*
Y77335D01*
X323311D01*
Y77452D01*
X323194D01*
Y77804D01*
X323077D01*
Y77921D01*
X322960D01*
Y78038D01*
X323077D01*
Y78155D01*
X322960D01*
Y78507D01*
X322843D01*
Y78624D01*
X322960D01*
Y78741D01*
X322843D01*
Y78858D01*
X322725D01*
Y78975D01*
X322843D01*
Y79093D01*
X322725D01*
Y79210D01*
X322843D01*
Y79327D01*
X322725D01*
Y79444D01*
X322843D01*
Y79561D01*
X322725D01*
Y79913D01*
X322843D01*
Y80030D01*
X322725D01*
Y80147D01*
X322843D01*
Y80264D01*
X322725D01*
Y80381D01*
X322843D01*
Y80498D01*
X322725D01*
Y80616D01*
X322843D01*
Y80733D01*
X322960D01*
Y80850D01*
X322843D01*
Y80967D01*
X322960D01*
Y81084D01*
X322843D01*
Y81201D01*
X322960D01*
Y81553D01*
D02*
G37*
G36*
X325420Y70891D02*
X323780D01*
Y70774D01*
X323545D01*
Y70657D01*
X323428D01*
Y70774D01*
X323311D01*
Y70657D01*
X323194D01*
Y70540D01*
X323077D01*
Y70423D01*
X322960D01*
Y70071D01*
X322843D01*
Y69954D01*
X322960D01*
Y69837D01*
X322843D01*
Y69720D01*
X322960D01*
Y69603D01*
X322843D01*
Y69486D01*
X322960D01*
Y69368D01*
X323077D01*
Y69134D01*
X323311D01*
Y69017D01*
X323428D01*
Y68900D01*
X323780D01*
Y68783D01*
X323897D01*
Y68900D01*
X324014D01*
Y68783D01*
X325303D01*
Y68900D01*
X325420D01*
Y68783D01*
X325537D01*
Y68900D01*
X325889D01*
Y69017D01*
X326006D01*
Y69134D01*
X326123D01*
Y69251D01*
X326240D01*
Y69368D01*
X326357D01*
Y69720D01*
X326474D01*
Y69837D01*
X326357D01*
Y69954D01*
X326474D01*
Y70071D01*
X326357D01*
Y70188D01*
X326240D01*
Y70540D01*
X326006D01*
Y70657D01*
X325771D01*
Y70774D01*
X325420D01*
Y70891D01*
D02*
G37*
G36*
X326357Y65971D02*
X326240D01*
Y65854D01*
X326123D01*
Y65737D01*
X326006D01*
Y65854D01*
X325889D01*
Y65737D01*
X325771D01*
Y65854D01*
X325654D01*
Y65737D01*
X325537D01*
Y65619D01*
X325420D01*
Y65737D01*
X325303D01*
Y65619D01*
X323780D01*
Y65737D01*
X323428D01*
Y65854D01*
X323311D01*
Y65737D01*
X323194D01*
Y65854D01*
X322960D01*
Y65971D01*
X322725D01*
Y65854D01*
X322843D01*
Y65502D01*
X322725D01*
Y65385D01*
X322843D01*
Y65034D01*
X322960D01*
Y65151D01*
X323077D01*
Y65034D01*
X326240D01*
Y65151D01*
X326357D01*
Y65268D01*
X326474D01*
Y65385D01*
X326357D01*
Y65502D01*
X326474D01*
Y65619D01*
X326357D01*
Y65737D01*
X326474D01*
Y65854D01*
X326357D01*
Y65971D01*
D02*
G37*
G36*
X325889Y58473D02*
X325771D01*
Y58356D01*
X325654D01*
Y58473D01*
X325068D01*
Y58356D01*
X324717D01*
Y58239D01*
X324600D01*
Y58356D01*
X324483D01*
Y58239D01*
X324365D01*
Y58121D01*
X324248D01*
Y58004D01*
X324131D01*
Y57887D01*
X324248D01*
Y57770D01*
X324131D01*
Y57653D01*
X324248D01*
Y57535D01*
X324131D01*
Y57418D01*
X324248D01*
Y57301D01*
X324365D01*
Y57184D01*
X324483D01*
Y57067D01*
X324834D01*
Y56950D01*
X326123D01*
Y57067D01*
X326474D01*
Y57184D01*
X326591D01*
Y57301D01*
X326709D01*
Y57653D01*
X326826D01*
Y57770D01*
X326709D01*
Y58121D01*
X326591D01*
Y58239D01*
X326474D01*
Y58356D01*
X325889D01*
Y58473D01*
D02*
G37*
G36*
X320031Y59410D02*
X319914D01*
Y59293D01*
X319796D01*
Y59176D01*
X319679D01*
Y58824D01*
X319562D01*
Y58004D01*
X319445D01*
Y57887D01*
X319562D01*
Y57535D01*
X319445D01*
Y57418D01*
X319562D01*
Y57067D01*
X319445D01*
Y56950D01*
X319562D01*
Y55895D01*
X319679D01*
Y55778D01*
X319562D01*
Y55661D01*
X319679D01*
Y55544D01*
X319796D01*
Y55309D01*
X320031D01*
Y55427D01*
X320148D01*
Y55778D01*
X320265D01*
Y55895D01*
X320148D01*
Y56012D01*
X320265D01*
Y56130D01*
X320148D01*
Y56247D01*
X320265D01*
Y56598D01*
X320382D01*
Y56715D01*
X320265D01*
Y56833D01*
X320382D01*
Y56950D01*
X320265D01*
Y57067D01*
X320382D01*
Y57184D01*
X320265D01*
Y57301D01*
X320382D01*
Y57418D01*
X320265D01*
Y57535D01*
X320382D01*
Y57653D01*
X320265D01*
Y57770D01*
X320382D01*
Y57887D01*
X320265D01*
Y58004D01*
X320382D01*
Y58121D01*
X320265D01*
Y58239D01*
X320382D01*
Y58356D01*
X320265D01*
Y58473D01*
X320382D01*
Y58590D01*
X320265D01*
Y59176D01*
X320148D01*
Y59293D01*
X320031D01*
Y59410D01*
D02*
G37*
G36*
X326826Y54255D02*
X326240D01*
Y54138D01*
X326357D01*
Y54021D01*
X326474D01*
Y54138D01*
X326591D01*
Y54021D01*
X326709D01*
Y54138D01*
X326826D01*
Y54255D01*
D02*
G37*
G36*
X52027Y127010D02*
X51910D01*
Y126893D01*
X51793D01*
Y126776D01*
X51675D01*
Y126658D01*
X51441D01*
Y126424D01*
X51324D01*
Y126307D01*
X51207D01*
Y126190D01*
X51090D01*
Y126073D01*
X50972D01*
Y125721D01*
X50855D01*
Y125370D01*
X50738D01*
Y124784D01*
X50621D01*
Y124667D01*
X50738D01*
Y124081D01*
X50855D01*
Y123964D01*
X50972D01*
Y123847D01*
X51090D01*
Y123964D01*
X51324D01*
Y124198D01*
X51441D01*
Y124315D01*
X51324D01*
Y124433D01*
X51441D01*
Y124550D01*
X51558D01*
Y125135D01*
X51675D01*
Y125487D01*
X51793D01*
Y125604D01*
X51675D01*
Y125721D01*
X51793D01*
Y126307D01*
X51910D01*
Y126658D01*
X52027D01*
Y127010D01*
D02*
G37*
G36*
X54721Y125487D02*
X54487D01*
Y125370D01*
X54370D01*
Y125135D01*
X54253D01*
Y124550D01*
X54136D01*
Y124198D01*
X54018D01*
Y124081D01*
X54136D01*
Y123964D01*
X54018D01*
Y123378D01*
X53901D01*
Y123261D01*
X54018D01*
Y123144D01*
X53901D01*
Y123027D01*
X53784D01*
Y122675D01*
X53901D01*
Y122792D01*
X54018D01*
Y122675D01*
X54136D01*
Y122909D01*
X54370D01*
Y123027D01*
X54487D01*
Y123144D01*
X54604D01*
Y123261D01*
X54721D01*
Y123378D01*
X54839D01*
Y123730D01*
X54956D01*
Y124081D01*
X55073D01*
Y124198D01*
X54956D01*
Y124315D01*
X55073D01*
Y124433D01*
X54956D01*
Y124550D01*
X55073D01*
Y124667D01*
X54956D01*
Y124784D01*
X55073D01*
Y124901D01*
X54956D01*
Y125253D01*
X54839D01*
Y125370D01*
X54721D01*
Y125487D01*
D02*
G37*
G36*
X53901Y122558D02*
X53784D01*
Y122441D01*
X53901D01*
Y122558D01*
D02*
G37*
G36*
X50152Y121621D02*
X50035D01*
Y121504D01*
X50152D01*
Y121621D01*
D02*
G37*
G36*
X53433Y117169D02*
X53316D01*
Y117052D01*
X53198D01*
Y117169D01*
X53081D01*
Y117052D01*
X52964D01*
Y117169D01*
X52847D01*
Y117052D01*
X52730D01*
Y117169D01*
X52613D01*
Y117052D01*
X52495D01*
Y117169D01*
X52378D01*
Y117052D01*
X52261D01*
Y117169D01*
X52144D01*
Y117052D01*
X52027D01*
Y117169D01*
X51910D01*
Y117052D01*
X51793D01*
Y117169D01*
X51675D01*
Y117052D01*
X51558D01*
Y117169D01*
X51441D01*
Y117052D01*
X51324D01*
Y117169D01*
X51207D01*
Y117052D01*
X51090D01*
Y117169D01*
X50972D01*
Y117052D01*
X50855D01*
Y116934D01*
X50972D01*
Y116583D01*
X50855D01*
Y116466D01*
X50972D01*
Y116349D01*
X50621D01*
Y116232D01*
X50738D01*
Y116114D01*
X50855D01*
Y115997D01*
X50972D01*
Y115646D01*
X50855D01*
Y115529D01*
X50972D01*
Y115294D01*
X51207D01*
Y115177D01*
X51324D01*
Y115294D01*
X51675D01*
Y115177D01*
X51793D01*
Y115294D01*
X52144D01*
Y115177D01*
X52261D01*
Y115294D01*
X52613D01*
Y115177D01*
X52730D01*
Y115294D01*
X53081D01*
Y115177D01*
X53198D01*
Y115294D01*
X54018D01*
Y115411D01*
X54136D01*
Y115529D01*
X54253D01*
Y115411D01*
X54370D01*
Y115763D01*
X54487D01*
Y115880D01*
X54370D01*
Y116466D01*
X54253D01*
Y116583D01*
X54136D01*
Y116700D01*
X54018D01*
Y116817D01*
X53901D01*
Y116934D01*
X53784D01*
Y117052D01*
X53433D01*
Y117169D01*
D02*
G37*
G36*
X50621Y116232D02*
X50504D01*
Y116114D01*
X50621D01*
Y116232D01*
D02*
G37*
G36*
X50270Y116349D02*
X50152D01*
Y116232D01*
X50270D01*
Y116114D01*
X50387D01*
Y116232D01*
X50270D01*
Y116349D01*
D02*
G37*
G36*
X50152Y116232D02*
X50035D01*
Y116114D01*
X50152D01*
Y116232D01*
D02*
G37*
G36*
X49801Y116349D02*
X49684D01*
Y116232D01*
X49801D01*
Y116114D01*
X49918D01*
Y116232D01*
X49801D01*
Y116349D01*
D02*
G37*
G36*
X49684Y116232D02*
X49567D01*
Y116114D01*
X49684D01*
Y116232D01*
D02*
G37*
G36*
X54253Y80498D02*
X54136D01*
Y80381D01*
X54018D01*
Y80498D01*
X53901D01*
Y80381D01*
X53784D01*
Y80498D01*
X53198D01*
Y80381D01*
X53081D01*
Y80498D01*
X52964D01*
Y80381D01*
X52847D01*
Y80264D01*
X52730D01*
Y80381D01*
X52613D01*
Y80264D01*
X52495D01*
Y80147D01*
X52378D01*
Y80030D01*
X52261D01*
Y79913D01*
X52378D01*
Y79795D01*
X52261D01*
Y79678D01*
X52378D01*
Y79561D01*
X52261D01*
Y79444D01*
X52378D01*
Y79327D01*
X52495D01*
Y79210D01*
X52613D01*
Y79093D01*
X52964D01*
Y78975D01*
X54253D01*
Y79093D01*
X54604D01*
Y79210D01*
X54721D01*
Y79327D01*
X54839D01*
Y79678D01*
X54956D01*
Y79795D01*
X54839D01*
Y80147D01*
X54721D01*
Y80264D01*
X54604D01*
Y80381D01*
X54253D01*
Y80498D01*
D02*
G37*
G36*
X48161Y81436D02*
X48044D01*
Y81318D01*
X47926D01*
Y81201D01*
X47809D01*
Y80850D01*
X47692D01*
Y80030D01*
X47575D01*
Y79913D01*
X47692D01*
Y79561D01*
X47575D01*
Y79444D01*
X47692D01*
Y79093D01*
X47575D01*
Y78975D01*
X47692D01*
Y77921D01*
X47809D01*
Y77804D01*
X47692D01*
Y77687D01*
X47809D01*
Y77570D01*
X47926D01*
Y77335D01*
X48161D01*
Y77452D01*
X48278D01*
Y77804D01*
X48395D01*
Y77921D01*
X48278D01*
Y78038D01*
X48395D01*
Y78155D01*
X48278D01*
Y78272D01*
X48395D01*
Y78624D01*
X48512D01*
Y78741D01*
X48395D01*
Y78858D01*
X48512D01*
Y78975D01*
X48395D01*
Y79093D01*
X48512D01*
Y79210D01*
X48395D01*
Y79327D01*
X48512D01*
Y79444D01*
X48395D01*
Y79561D01*
X48512D01*
Y79678D01*
X48395D01*
Y79795D01*
X48512D01*
Y79913D01*
X48395D01*
Y80030D01*
X48512D01*
Y80147D01*
X48395D01*
Y80264D01*
X48512D01*
Y80381D01*
X48395D01*
Y80498D01*
X48512D01*
Y80616D01*
X48395D01*
Y80733D01*
X48512D01*
Y80850D01*
X48395D01*
Y81201D01*
X48278D01*
Y81318D01*
X48161D01*
Y81436D01*
D02*
G37*
G36*
X54956Y76281D02*
X54370D01*
Y76164D01*
X54487D01*
Y76046D01*
X54604D01*
Y76164D01*
X54721D01*
Y76046D01*
X54839D01*
Y76164D01*
X54956D01*
Y76281D01*
D02*
G37*
G36*
X51090Y81553D02*
X50738D01*
Y81201D01*
X50621D01*
Y80850D01*
X50504D01*
Y80733D01*
X50621D01*
Y80616D01*
X50504D01*
Y80498D01*
X50621D01*
Y80381D01*
X50504D01*
Y80264D01*
X50621D01*
Y80147D01*
X50504D01*
Y80030D01*
X50621D01*
Y79913D01*
X50504D01*
Y79795D01*
X50621D01*
Y79678D01*
X50738D01*
Y79561D01*
X50621D01*
Y79444D01*
X50738D01*
Y79327D01*
X50621D01*
Y79210D01*
X50738D01*
Y79093D01*
X50621D01*
Y78975D01*
X50738D01*
Y78858D01*
X50621D01*
Y78741D01*
X50738D01*
Y78624D01*
X50621D01*
Y78507D01*
X50738D01*
Y78390D01*
X50621D01*
Y78272D01*
X50738D01*
Y78155D01*
X50621D01*
Y78038D01*
X50738D01*
Y77921D01*
X50621D01*
Y77804D01*
X50738D01*
Y77687D01*
X50621D01*
Y77570D01*
X50738D01*
Y77452D01*
X50621D01*
Y77335D01*
X50738D01*
Y77218D01*
X50621D01*
Y77101D01*
X50738D01*
Y76984D01*
X50621D01*
Y76867D01*
X50504D01*
Y76749D01*
X50621D01*
Y76632D01*
X50504D01*
Y76281D01*
X50387D01*
Y76164D01*
X50504D01*
Y76046D01*
X50387D01*
Y75929D01*
X50270D01*
Y75812D01*
X50152D01*
Y75695D01*
X50035D01*
Y75578D01*
X49918D01*
Y75461D01*
X49801D01*
Y75344D01*
X49684D01*
Y75226D01*
X49567D01*
Y75109D01*
X49215D01*
Y74992D01*
X48864D01*
Y74875D01*
X48746D01*
Y74992D01*
X48629D01*
Y74875D01*
X48512D01*
Y74992D01*
X48395D01*
Y74875D01*
X48278D01*
Y74992D01*
X48161D01*
Y74875D01*
X48044D01*
Y74758D01*
X48161D01*
Y74406D01*
X48044D01*
Y74289D01*
X48161D01*
Y74055D01*
X48395D01*
Y73938D01*
X48512D01*
Y74055D01*
X48629D01*
Y73938D01*
X48746D01*
Y74055D01*
X48864D01*
Y73938D01*
X48981D01*
Y74055D01*
X49098D01*
Y73938D01*
X49215D01*
Y74055D01*
X49332D01*
Y73938D01*
X49449D01*
Y74055D01*
X49567D01*
Y73938D01*
X49684D01*
Y74055D01*
X49801D01*
Y73938D01*
X49918D01*
Y74055D01*
X50035D01*
Y73938D01*
X50152D01*
Y74055D01*
X50270D01*
Y73938D01*
X50387D01*
Y74055D01*
X50504D01*
Y73938D01*
X50621D01*
Y74055D01*
X50738D01*
Y73938D01*
X50855D01*
Y74055D01*
X50972D01*
Y73938D01*
X51090D01*
Y74055D01*
X51207D01*
Y73938D01*
X51324D01*
Y74055D01*
X51441D01*
Y73938D01*
X51558D01*
Y74055D01*
X51675D01*
Y73938D01*
X51793D01*
Y74055D01*
X51910D01*
Y73938D01*
X52027D01*
Y74055D01*
X52144D01*
Y73938D01*
X52261D01*
Y74055D01*
X52378D01*
Y73938D01*
X52495D01*
Y74055D01*
X52613D01*
Y73938D01*
X52730D01*
Y74055D01*
X52847D01*
Y73938D01*
X52964D01*
Y74055D01*
X53081D01*
Y73938D01*
X53198D01*
Y74055D01*
X53316D01*
Y73938D01*
X53433D01*
Y74055D01*
X53550D01*
Y73938D01*
X53667D01*
Y74055D01*
X53784D01*
Y73938D01*
X53901D01*
Y74055D01*
X54018D01*
Y73938D01*
X54136D01*
Y74055D01*
X54018D01*
Y74172D01*
X53901D01*
Y74289D01*
X53784D01*
Y74641D01*
X53667D01*
Y75461D01*
X53784D01*
Y75578D01*
X53901D01*
Y75812D01*
X54136D01*
Y75929D01*
X54253D01*
Y76046D01*
X54370D01*
Y76164D01*
X54018D01*
Y76046D01*
X53901D01*
Y76164D01*
X53784D01*
Y76046D01*
X53667D01*
Y76164D01*
X53550D01*
Y76046D01*
X53433D01*
Y76164D01*
X53316D01*
Y76046D01*
X53198D01*
Y76164D01*
X52847D01*
Y76281D01*
X52730D01*
Y76398D01*
X52613D01*
Y76281D01*
X52495D01*
Y76398D01*
X52378D01*
Y76515D01*
X52261D01*
Y76632D01*
X52027D01*
Y76749D01*
X51793D01*
Y76984D01*
X51675D01*
Y77101D01*
X51558D01*
Y77335D01*
X51441D01*
Y77452D01*
X51324D01*
Y77804D01*
X51207D01*
Y77921D01*
X51090D01*
Y78038D01*
X51207D01*
Y78155D01*
X51090D01*
Y78507D01*
X50972D01*
Y78624D01*
X51090D01*
Y78741D01*
X50972D01*
Y78858D01*
X50855D01*
Y78975D01*
X50972D01*
Y79093D01*
X50855D01*
Y79210D01*
X50972D01*
Y79327D01*
X50855D01*
Y79444D01*
X50972D01*
Y79561D01*
X50855D01*
Y79913D01*
X50972D01*
Y80030D01*
X50855D01*
Y80147D01*
X50972D01*
Y80264D01*
X50855D01*
Y80381D01*
X50972D01*
Y80498D01*
X50855D01*
Y80616D01*
X50972D01*
Y80733D01*
X51090D01*
Y80850D01*
X50972D01*
Y80967D01*
X51090D01*
Y81084D01*
X50972D01*
Y81201D01*
X51090D01*
Y81553D01*
D02*
G37*
G36*
X53550Y70891D02*
X51910D01*
Y70774D01*
X51675D01*
Y70657D01*
X51558D01*
Y70774D01*
X51441D01*
Y70657D01*
X51324D01*
Y70540D01*
X51207D01*
Y70423D01*
X51090D01*
Y70071D01*
X50972D01*
Y69954D01*
X51090D01*
Y69837D01*
X50972D01*
Y69720D01*
X51090D01*
Y69603D01*
X50972D01*
Y69486D01*
X51090D01*
Y69368D01*
X51207D01*
Y69134D01*
X51441D01*
Y69017D01*
X51558D01*
Y68900D01*
X51910D01*
Y68783D01*
X52027D01*
Y68900D01*
X52144D01*
Y68783D01*
X53433D01*
Y68900D01*
X53550D01*
Y68783D01*
X53667D01*
Y68900D01*
X54018D01*
Y69017D01*
X54136D01*
Y69134D01*
X54253D01*
Y69251D01*
X54370D01*
Y69368D01*
X54487D01*
Y69720D01*
X54604D01*
Y69837D01*
X54487D01*
Y69954D01*
X54604D01*
Y70071D01*
X54487D01*
Y70188D01*
X54370D01*
Y70540D01*
X54136D01*
Y70657D01*
X53901D01*
Y70774D01*
X53550D01*
Y70891D01*
D02*
G37*
G36*
X54487Y65971D02*
X54370D01*
Y65854D01*
X54253D01*
Y65737D01*
X54136D01*
Y65854D01*
X54018D01*
Y65737D01*
X53901D01*
Y65854D01*
X53784D01*
Y65737D01*
X53667D01*
Y65619D01*
X53550D01*
Y65737D01*
X53433D01*
Y65619D01*
X51910D01*
Y65737D01*
X51558D01*
Y65854D01*
X51441D01*
Y65737D01*
X51324D01*
Y65854D01*
X51090D01*
Y65971D01*
X50855D01*
Y65854D01*
X50972D01*
Y65502D01*
X50855D01*
Y65385D01*
X50972D01*
Y65034D01*
X51090D01*
Y65151D01*
X51207D01*
Y65034D01*
X54370D01*
Y65151D01*
X54487D01*
Y65268D01*
X54604D01*
Y65385D01*
X54487D01*
Y65502D01*
X54604D01*
Y65619D01*
X54487D01*
Y65737D01*
X54604D01*
Y65854D01*
X54487D01*
Y65971D01*
D02*
G37*
G36*
X54018Y58473D02*
X53901D01*
Y58356D01*
X53784D01*
Y58473D01*
X53198D01*
Y58356D01*
X52847D01*
Y58239D01*
X52730D01*
Y58356D01*
X52613D01*
Y58239D01*
X52495D01*
Y58121D01*
X52378D01*
Y58004D01*
X52261D01*
Y57887D01*
X52378D01*
Y57770D01*
X52261D01*
Y57653D01*
X52378D01*
Y57535D01*
X52261D01*
Y57418D01*
X52378D01*
Y57301D01*
X52495D01*
Y57184D01*
X52613D01*
Y57067D01*
X52964D01*
Y56950D01*
X54253D01*
Y57067D01*
X54604D01*
Y57184D01*
X54721D01*
Y57301D01*
X54839D01*
Y57653D01*
X54956D01*
Y57770D01*
X54839D01*
Y58121D01*
X54721D01*
Y58239D01*
X54604D01*
Y58356D01*
X54018D01*
Y58473D01*
D02*
G37*
G36*
X48161Y59410D02*
X48044D01*
Y59293D01*
X47926D01*
Y59176D01*
X47809D01*
Y58824D01*
X47692D01*
Y58004D01*
X47575D01*
Y57887D01*
X47692D01*
Y57535D01*
X47575D01*
Y57418D01*
X47692D01*
Y57067D01*
X47575D01*
Y56950D01*
X47692D01*
Y55895D01*
X47809D01*
Y55778D01*
X47692D01*
Y55661D01*
X47809D01*
Y55544D01*
X47926D01*
Y55309D01*
X48161D01*
Y55427D01*
X48278D01*
Y55778D01*
X48395D01*
Y55895D01*
X48278D01*
Y56012D01*
X48395D01*
Y56130D01*
X48278D01*
Y56247D01*
X48395D01*
Y56598D01*
X48512D01*
Y56715D01*
X48395D01*
Y56833D01*
X48512D01*
Y56950D01*
X48395D01*
Y57067D01*
X48512D01*
Y57184D01*
X48395D01*
Y57301D01*
X48512D01*
Y57418D01*
X48395D01*
Y57535D01*
X48512D01*
Y57653D01*
X48395D01*
Y57770D01*
X48512D01*
Y57887D01*
X48395D01*
Y58004D01*
X48512D01*
Y58121D01*
X48395D01*
Y58239D01*
X48512D01*
Y58356D01*
X48395D01*
Y58473D01*
X48512D01*
Y58590D01*
X48395D01*
Y59176D01*
X48278D01*
Y59293D01*
X48161D01*
Y59410D01*
D02*
G37*
G36*
X54956Y54255D02*
X54370D01*
Y54138D01*
X54487D01*
Y54021D01*
X54604D01*
Y54138D01*
X54721D01*
Y54021D01*
X54839D01*
Y54138D01*
X54956D01*
Y54255D01*
D02*
G37*
%LPD*%
D31*
X144569Y197378D02*
G03*
X144569Y197378I-492J0D01*
G01*
X137626Y154782D02*
G03*
X137626Y154782I-492J0D01*
G01*
X60856Y50990D02*
Y73628D01*
Y50990D02*
X89990D01*
X60856Y73628D02*
X89990D01*
Y50990D02*
Y73628D01*
X227619Y51040D02*
Y78599D01*
X201241D02*
X227619D01*
X201241Y51040D02*
Y78599D01*
Y51040D02*
X227619D01*
X258717Y51187D02*
Y73825D01*
X229583D02*
X258717D01*
X229583Y51187D02*
X258717D01*
X229583D02*
Y73825D01*
X172657Y352470D02*
X189216D01*
Y364084D01*
Y352470D02*
X234098D01*
X189216Y364084D02*
X234098D01*
Y352470D02*
Y364084D01*
Y352470D02*
X250657D01*
Y271368D02*
Y352470D01*
X228389Y271368D02*
X250657D01*
X194925D02*
X228389D01*
Y259557D02*
Y271368D01*
X194925Y259557D02*
X228389D01*
X194925D02*
Y271368D01*
X172657D02*
X194925D01*
X172657D02*
Y352470D01*
X63438D02*
X79997D01*
Y364084D01*
Y352470D02*
X124879D01*
X79997Y364084D02*
X124879D01*
Y352470D02*
Y364084D01*
Y352470D02*
X141438D01*
Y271368D02*
Y352470D01*
X119170Y271368D02*
X141438D01*
X85706D02*
X119170D01*
Y259557D02*
Y271368D01*
X85706Y259557D02*
X119170D01*
X85706D02*
Y271368D01*
X63438D02*
X85706D01*
X63438D02*
Y352470D01*
X416439Y197378D02*
G03*
X416439Y197378I-492J0D01*
G01*
X409496Y154782D02*
G03*
X409496Y154782I-492J0D01*
G01*
X332726Y50990D02*
Y73628D01*
Y50990D02*
X361860D01*
X332726Y73628D02*
X361860D01*
Y50990D02*
Y73628D01*
X499489Y51040D02*
Y78599D01*
X473111D02*
X499489D01*
X473111Y51040D02*
Y78599D01*
Y51040D02*
X499489D01*
X530587Y51187D02*
Y73825D01*
X501453D02*
X530587D01*
X501453Y51187D02*
X530587D01*
X501453D02*
Y73825D01*
X444527Y352470D02*
X461086D01*
Y364084D01*
Y352470D02*
X505968D01*
X461086Y364084D02*
X505968D01*
Y352470D02*
Y364084D01*
Y352470D02*
X522527D01*
Y271368D02*
Y352470D01*
X500259Y271368D02*
X522527D01*
X466795D02*
X500259D01*
Y259557D02*
Y271368D01*
X466795Y259557D02*
X500259D01*
X466795D02*
Y271368D01*
X444527D02*
X466795D01*
X444527D02*
Y352470D01*
X335308D02*
X351867D01*
Y364084D01*
Y352470D02*
X396749D01*
X351867Y364084D02*
X396749D01*
Y352470D02*
Y364084D01*
Y352470D02*
X413308D01*
Y271368D02*
Y352470D01*
X391040Y271368D02*
X413308D01*
X357576D02*
X391040D01*
Y259557D02*
Y271368D01*
X357576Y259557D02*
X391040D01*
X357576D02*
Y271368D01*
X335308D02*
X357576D01*
X335308D02*
Y352470D01*
D41*
X139222Y97969D02*
G03*
X139222Y97969I-1969J0D01*
G01*
X165600Y237929D02*
G03*
X165600Y237929I-1969J0D01*
G01*
X176230Y190469D02*
G03*
X176230Y190469I-1969J0D01*
G01*
X123179Y101512D02*
Y106925D01*
X114517Y101512D02*
Y106925D01*
X121309D02*
X123179D01*
X114517D02*
X121309D01*
X114517Y101512D02*
X123179D01*
X148993Y153089D02*
Y165688D01*
X155292Y153089D02*
Y165688D01*
X148993Y153089D02*
X155292D01*
X148993Y165688D02*
X155292D01*
X76624Y229661D02*
X82923D01*
X76624D02*
Y232811D01*
X82923Y229661D02*
Y232811D01*
X76624D02*
X82923D01*
X142601Y195508D02*
X154412D01*
X142601Y187831D02*
Y195508D01*
Y187831D02*
X154412D01*
Y195508D01*
X139004Y153306D02*
Y165117D01*
Y153306D02*
X146681D01*
Y165117D01*
X139004D02*
X146681D01*
X144700Y186239D02*
X158282D01*
X141353Y182893D02*
X144700Y186239D01*
X141353Y181318D02*
Y182893D01*
X158282Y181318D02*
Y186239D01*
Y169310D02*
Y174231D01*
X141353Y172656D02*
Y174231D01*
X144700Y169310D02*
X158282D01*
X141353Y172656D02*
X144700Y169310D01*
X223080Y164406D02*
X229380D01*
X223080Y167555D02*
X229380D01*
X223080Y164406D02*
Y167555D01*
X229380Y164406D02*
Y167555D01*
X226217Y106728D02*
X239800D01*
X222871Y103382D02*
X226217Y106728D01*
X222871Y101807D02*
Y103382D01*
X239800Y101807D02*
Y106728D01*
Y89799D02*
Y94721D01*
X222871Y93146D02*
Y94721D01*
X226217Y89799D02*
X239800D01*
X222871Y93146D02*
X226217Y89799D01*
X215711Y92063D02*
Y98362D01*
X212561Y92063D02*
Y98362D01*
Y92063D02*
X215711D01*
X212561Y98362D02*
X215711D01*
X198572Y94032D02*
Y101118D01*
X209990Y94032D02*
Y101118D01*
X198572D02*
X209990D01*
X198572Y94032D02*
X209990D01*
X196013Y92063D02*
Y98362D01*
X192864Y92063D02*
Y98362D01*
Y92063D02*
X196013D01*
X192864Y98362D02*
X196013D01*
X170915Y72969D02*
Y79268D01*
X183513Y72969D02*
Y79268D01*
X170915D02*
X183513D01*
X170915Y72969D02*
X183513D01*
X173572Y94019D02*
Y107602D01*
Y94019D02*
X176919Y90672D01*
X178494D01*
X173572Y107602D02*
X178494D01*
X185580D02*
X190501D01*
X185580Y90672D02*
X187155D01*
X190501Y94019D02*
Y107602D01*
X187155Y90672D02*
X190501Y94019D01*
X164714Y92181D02*
Y98480D01*
X167864Y92181D02*
Y98480D01*
X164714D02*
X167864D01*
X164714Y92181D02*
X167864D01*
X128395Y107319D02*
X134695D01*
X128395Y104169D02*
X134695D01*
Y107319D01*
X128395Y104169D02*
Y107319D01*
X133710Y80252D02*
Y101512D01*
X154970Y80252D02*
Y101512D01*
X133710Y80252D02*
X154970D01*
X133710Y101512D02*
X154970D01*
X116191Y94957D02*
X122490D01*
X116191Y91807D02*
X122490D01*
Y94957D01*
X116191Y91807D02*
Y94957D01*
X223382Y185672D02*
X229681D01*
X223382D02*
Y188821D01*
X229681Y185672D02*
Y188821D01*
X223382D02*
X229681D01*
X233120Y173854D02*
Y179366D01*
X221309D02*
X233120D01*
X221309Y173854D02*
X233120D01*
X221309D02*
Y179366D01*
X218454Y165784D02*
Y178382D01*
X212155D02*
X218454D01*
X212155Y165784D02*
X218454D01*
X212155D02*
Y178382D01*
X227411Y155055D02*
Y161354D01*
X214813D02*
X227411D01*
X214813Y155055D02*
Y161354D01*
Y155055D02*
X227411D01*
Y145809D02*
Y152109D01*
X214813D02*
X227411D01*
X214813Y145809D02*
Y152109D01*
Y145809D02*
X227411D01*
X221505Y139701D02*
Y142850D01*
X215206Y139701D02*
Y142850D01*
Y139701D02*
X221505D01*
X215206Y142850D02*
X221505D01*
Y133598D02*
Y136748D01*
X215206Y133598D02*
Y136748D01*
Y133598D02*
X221505D01*
X215206Y136748D02*
X221505D01*
X243596Y133598D02*
Y136748D01*
X249895D01*
X243596Y133598D02*
X249895D01*
Y136748D01*
X251580Y175036D02*
X256348D01*
X261072Y170311D01*
Y149051D02*
Y170311D01*
X251580Y149051D02*
X261072D01*
X239813Y175036D02*
X244580D01*
X235088Y170311D02*
X239813Y175036D01*
X235088Y149051D02*
X244580D01*
X235088D02*
Y170311D01*
X239813Y184181D02*
X244580D01*
X235088Y188906D02*
X239813Y184181D01*
X235088Y188906D02*
Y210165D01*
X244580D01*
X251580Y184181D02*
X256348D01*
X261072Y188906D01*
X251580Y210165D02*
X261072D01*
Y188906D02*
Y210165D01*
X225006Y222181D02*
X232332D01*
Y204465D02*
Y222181D01*
X228395Y200528D02*
X232332Y204465D01*
X225049Y200528D02*
X228395D01*
X210679Y222181D02*
X218005D01*
X214616Y200528D02*
X218005D01*
X210679Y204465D02*
Y222181D01*
Y204465D02*
X214616Y200528D01*
X152805Y226905D02*
Y266276D01*
X127214Y226905D02*
Y266276D01*
Y226905D02*
X152805D01*
X127214Y266276D02*
X152805D01*
X175836Y234386D02*
Y253284D01*
X160088D02*
X175836D01*
X160088Y234386D02*
Y253284D01*
Y234386D02*
X175836D01*
X198080Y236527D02*
Y252275D01*
X186663D02*
X198080D01*
X186663Y236527D02*
X198080D01*
X186663D02*
Y252275D01*
X195872Y225724D02*
X200639D01*
X205364Y221000D01*
Y199740D02*
Y221000D01*
X195872Y199740D02*
X205364D01*
X184104Y225724D02*
X188872D01*
X179379Y221000D02*
X184104Y225724D01*
X179379Y199740D02*
X188872D01*
X179379D02*
Y221000D01*
X175049Y210764D02*
Y217063D01*
X171899D02*
X175049D01*
X171899Y210764D02*
Y217063D01*
Y210764D02*
X175049D01*
X170718Y174327D02*
Y194012D01*
X186466Y174327D02*
Y194012D01*
X170718D02*
X186466D01*
X170718Y174327D02*
X186466D01*
X169242Y212732D02*
Y219819D01*
X157824Y212732D02*
Y219819D01*
X169242D01*
X157824Y212732D02*
X169242D01*
X145663Y225724D02*
X152750D01*
Y220409D02*
Y225724D01*
X145663Y220409D02*
Y225724D01*
Y220409D02*
X152750D01*
X153789Y209294D02*
Y212443D01*
X147490Y209294D02*
Y212443D01*
Y209294D02*
X153789D01*
X147490Y212443D02*
X153789D01*
X158297Y153480D02*
Y159780D01*
X161446D01*
X158297Y153480D02*
X161446D01*
Y159780D01*
X172672Y166571D02*
X193932D01*
Y157079D02*
Y166571D01*
Y140587D02*
Y150079D01*
X172672Y140587D02*
X193932D01*
X167948Y161846D02*
X172672Y166571D01*
X167948Y157079D02*
Y161846D01*
Y145311D02*
Y150079D01*
Y145311D02*
X172672Y140587D01*
X111565Y144425D02*
Y147575D01*
X105265Y144425D02*
Y147575D01*
Y144425D02*
X111565D01*
X105265Y147575D02*
X111565D01*
X111565Y138323D02*
Y141472D01*
X105265Y138323D02*
Y141472D01*
Y138323D02*
X111565D01*
X105265Y141472D02*
X111565D01*
X105265Y135370D02*
X111565D01*
Y132220D02*
Y135370D01*
X105265Y132220D02*
Y135370D01*
Y132220D02*
X111565D01*
X88533Y133744D02*
Y140043D01*
X75935D02*
X88533D01*
X75935Y133744D02*
Y140043D01*
Y133744D02*
X88533D01*
X85974Y178284D02*
X89911Y174346D01*
X82584Y178284D02*
X85974D01*
X89911Y156630D02*
Y174346D01*
X82584Y156630D02*
X89911D01*
X72194Y178284D02*
X75541D01*
X68257Y156630D02*
X75584D01*
X68257Y174346D02*
X72194Y178284D01*
X68257Y156630D02*
Y174346D01*
X86269Y208094D02*
Y213605D01*
X74458D02*
X86269D01*
X74458Y208094D02*
X86269D01*
X74458D02*
Y213605D01*
X101624Y208094D02*
Y213606D01*
X89812Y208094D02*
Y213606D01*
X101624D01*
X89812Y208094D02*
X101624D01*
X88828Y220409D02*
Y226709D01*
X76230D02*
X88828D01*
X76230Y220409D02*
Y226709D01*
Y220409D02*
X88828D01*
X105659Y220102D02*
X111958D01*
Y216952D02*
Y220102D01*
X105659Y216952D02*
Y220102D01*
Y216952D02*
X111958D01*
X105659Y213999D02*
X111958D01*
Y210850D02*
Y213999D01*
X105659Y210850D02*
Y213999D01*
Y210850D02*
X111958D01*
Y204747D02*
Y207897D01*
X105659Y204747D02*
Y207897D01*
Y204747D02*
X111958D01*
X105659Y207897D02*
X111958D01*
X95029Y194019D02*
Y200318D01*
X91879D02*
X95029D01*
X91879Y194019D02*
Y200318D01*
Y194019D02*
X95029D01*
X99360Y201696D02*
X111958D01*
Y195397D02*
Y201696D01*
X99360Y195397D02*
X111958D01*
X99360D02*
Y201696D01*
X99360Y192444D02*
X111958D01*
Y186145D02*
Y192444D01*
X99360Y186145D02*
X111958D01*
X99360D02*
Y192444D01*
X109257Y180043D02*
X114025D01*
X118749Y175318D01*
Y154058D02*
Y175318D01*
X109257Y154058D02*
X118749D01*
X97490Y180043D02*
X102257D01*
X92765Y175318D02*
X97490Y180043D01*
X92765Y154058D02*
X102257D01*
X92765D02*
Y175318D01*
X80954Y200318D02*
X84104D01*
Y194019D02*
Y200318D01*
X80954Y194019D02*
Y200318D01*
Y194019D02*
X84104D01*
X78001D02*
Y200318D01*
X74852D02*
X78001D01*
X74852Y194019D02*
Y200318D01*
Y194019D02*
X78001D01*
X62998Y223153D02*
X72490D01*
Y201893D02*
Y223153D01*
X67765Y197169D02*
X72490Y201893D01*
X62998Y197169D02*
X67765D01*
X46505Y223153D02*
X55998D01*
X46505Y201893D02*
Y223153D01*
X51230Y197169D02*
X55998D01*
X46505Y201893D02*
X51230Y197169D01*
X411092Y97969D02*
G03*
X411092Y97969I-1969J0D01*
G01*
X437470Y237929D02*
G03*
X437470Y237929I-1969J0D01*
G01*
X448100Y190469D02*
G03*
X448100Y190469I-1969J0D01*
G01*
X395049Y101512D02*
Y106925D01*
X386387Y101512D02*
Y106925D01*
X393179D02*
X395049D01*
X386387D02*
X393179D01*
X386387Y101512D02*
X395049D01*
X420863Y153089D02*
Y165688D01*
X427163Y153089D02*
Y165688D01*
X420863Y153089D02*
X427163D01*
X420863Y165688D02*
X427163D01*
X348494Y229661D02*
X354793D01*
X348494D02*
Y232811D01*
X354793Y229661D02*
Y232811D01*
X348494D02*
X354793D01*
X414471Y195508D02*
X426282D01*
X414471Y187831D02*
Y195508D01*
Y187831D02*
X426282D01*
Y195508D01*
X410874Y153306D02*
Y165117D01*
Y153306D02*
X418551D01*
Y165117D01*
X410874D02*
X418551D01*
X416570Y186239D02*
X430153D01*
X413223Y182893D02*
X416570Y186239D01*
X413223Y181318D02*
Y182893D01*
X430153Y181318D02*
Y186239D01*
Y169310D02*
Y174231D01*
X413223Y172656D02*
Y174231D01*
X416570Y169310D02*
X430153D01*
X413223Y172656D02*
X416570Y169310D01*
X494950Y164406D02*
X501250D01*
X494950Y167555D02*
X501250D01*
X494950Y164406D02*
Y167555D01*
X501250Y164406D02*
Y167555D01*
X498087Y106728D02*
X511670D01*
X494741Y103382D02*
X498087Y106728D01*
X494741Y101807D02*
Y103382D01*
X511670Y101807D02*
Y106728D01*
Y89799D02*
Y94721D01*
X494741Y93146D02*
Y94721D01*
X498087Y89799D02*
X511670D01*
X494741Y93146D02*
X498087Y89799D01*
X487581Y92063D02*
Y98362D01*
X484432Y92063D02*
Y98362D01*
Y92063D02*
X487581D01*
X484432Y98362D02*
X487581D01*
X470442Y94032D02*
Y101118D01*
X481860Y94032D02*
Y101118D01*
X470442D02*
X481860D01*
X470442Y94032D02*
X481860D01*
X467883Y92063D02*
Y98362D01*
X464734Y92063D02*
Y98362D01*
Y92063D02*
X467883D01*
X464734Y98362D02*
X467883D01*
X442785Y72969D02*
Y79268D01*
X455383Y72969D02*
Y79268D01*
X442785D02*
X455383D01*
X442785Y72969D02*
X455383D01*
X445442Y94019D02*
Y107602D01*
Y94019D02*
X448789Y90672D01*
X450364D01*
X445442Y107602D02*
X450364D01*
X457450D02*
X462372D01*
X457450Y90672D02*
X459025D01*
X462372Y94019D02*
Y107602D01*
X459025Y90672D02*
X462372Y94019D01*
X436584Y92181D02*
Y98480D01*
X439734Y92181D02*
Y98480D01*
X436584D02*
X439734D01*
X436584Y92181D02*
X439734D01*
X400265Y107319D02*
X406565D01*
X400265Y104169D02*
X406565D01*
Y107319D01*
X400265Y104169D02*
Y107319D01*
X405580Y80252D02*
Y101512D01*
X426840Y80252D02*
Y101512D01*
X405580Y80252D02*
X426840D01*
X405580Y101512D02*
X426840D01*
X388061Y94957D02*
X394360D01*
X388061Y91807D02*
X394360D01*
Y94957D01*
X388061Y91807D02*
Y94957D01*
X495252Y185672D02*
X501551D01*
X495252D02*
Y188821D01*
X501551Y185672D02*
Y188821D01*
X495252D02*
X501551D01*
X504990Y173854D02*
Y179366D01*
X493179D02*
X504990D01*
X493179Y173854D02*
X504990D01*
X493179D02*
Y179366D01*
X490324Y165784D02*
Y178382D01*
X484025D02*
X490324D01*
X484025Y165784D02*
X490324D01*
X484025D02*
Y178382D01*
X499281Y155055D02*
Y161354D01*
X486683D02*
X499281D01*
X486683Y155055D02*
Y161354D01*
Y155055D02*
X499281D01*
Y145809D02*
Y152109D01*
X486683D02*
X499281D01*
X486683Y145809D02*
Y152109D01*
Y145809D02*
X499281D01*
X493376Y139701D02*
Y142850D01*
X487076Y139701D02*
Y142850D01*
Y139701D02*
X493376D01*
X487076Y142850D02*
X493376D01*
Y133598D02*
Y136748D01*
X487076Y133598D02*
Y136748D01*
Y133598D02*
X493376D01*
X487076Y136748D02*
X493376D01*
X515466Y133598D02*
Y136748D01*
X521765D01*
X515466Y133598D02*
X521765D01*
Y136748D01*
X523450Y175036D02*
X528218D01*
X532943Y170311D01*
Y149051D02*
Y170311D01*
X523450Y149051D02*
X532943D01*
X511683Y175036D02*
X516450D01*
X506958Y170311D02*
X511683Y175036D01*
X506958Y149051D02*
X516450D01*
X506958D02*
Y170311D01*
X511683Y184181D02*
X516450D01*
X506958Y188906D02*
X511683Y184181D01*
X506958Y188906D02*
Y210165D01*
X516450D01*
X523450Y184181D02*
X528218D01*
X532942Y188906D01*
X523450Y210165D02*
X532942D01*
Y188906D02*
Y210165D01*
X496876Y222181D02*
X504202D01*
Y204465D02*
Y222181D01*
X500265Y200528D02*
X504202Y204465D01*
X496919Y200528D02*
X500265D01*
X482549Y222181D02*
X489876D01*
X486486Y200528D02*
X489876D01*
X482549Y204465D02*
Y222181D01*
Y204465D02*
X486486Y200528D01*
X424675Y226905D02*
Y266276D01*
X399084Y226905D02*
Y266276D01*
Y226905D02*
X424675D01*
X399084Y266276D02*
X424675D01*
X447706Y234386D02*
Y253284D01*
X431958D02*
X447706D01*
X431958Y234386D02*
Y253284D01*
Y234386D02*
X447706D01*
X469950Y236527D02*
Y252275D01*
X458533D02*
X469950D01*
X458533Y236527D02*
X469950D01*
X458533D02*
Y252275D01*
X467742Y225724D02*
X472509D01*
X477234Y221000D01*
Y199740D02*
Y221000D01*
X467742Y199740D02*
X477234D01*
X455974Y225724D02*
X460742D01*
X451250Y221000D02*
X455974Y225724D01*
X451250Y199740D02*
X460742D01*
X451250D02*
Y221000D01*
X446919Y210764D02*
Y217063D01*
X443769D02*
X446919D01*
X443769Y210764D02*
Y217063D01*
Y210764D02*
X446919D01*
X442588Y174327D02*
Y194012D01*
X458336Y174327D02*
Y194012D01*
X442588D02*
X458336D01*
X442588Y174327D02*
X458336D01*
X441112Y212732D02*
Y219819D01*
X429695Y212732D02*
Y219819D01*
X441112D01*
X429695Y212732D02*
X441112D01*
X417533Y225724D02*
X424620D01*
Y220409D02*
Y225724D01*
X417533Y220409D02*
Y225724D01*
Y220409D02*
X424620D01*
X425659Y209294D02*
Y212443D01*
X419360Y209294D02*
Y212443D01*
Y209294D02*
X425659D01*
X419360Y212443D02*
X425659D01*
X430167Y153480D02*
Y159780D01*
X433317D01*
X430167Y153480D02*
X433317D01*
Y159780D01*
X444543Y166571D02*
X465802D01*
Y157079D02*
Y166571D01*
Y140587D02*
Y150079D01*
X444543Y140587D02*
X465802D01*
X439818Y161846D02*
X444543Y166571D01*
X439818Y157079D02*
Y161846D01*
Y145311D02*
Y150079D01*
Y145311D02*
X444543Y140587D01*
X383435Y144425D02*
Y147575D01*
X377135Y144425D02*
Y147575D01*
Y144425D02*
X383435D01*
X377135Y147575D02*
X383435D01*
X383435Y138323D02*
Y141472D01*
X377135Y138323D02*
Y141472D01*
Y138323D02*
X383435D01*
X377135Y141472D02*
X383435D01*
X377135Y135370D02*
X383435D01*
Y132220D02*
Y135370D01*
X377135Y132220D02*
Y135370D01*
Y132220D02*
X383435D01*
X360403Y133744D02*
Y140043D01*
X347805D02*
X360403D01*
X347805Y133744D02*
Y140043D01*
Y133744D02*
X360403D01*
X357844Y178284D02*
X361781Y174346D01*
X354454Y178284D02*
X357844D01*
X361781Y156630D02*
Y174346D01*
X354454Y156630D02*
X361781D01*
X344065Y178284D02*
X347411D01*
X340128Y156630D02*
X347454D01*
X340128Y174346D02*
X344065Y178284D01*
X340128Y156630D02*
Y174346D01*
X358139Y208094D02*
Y213605D01*
X346328D02*
X358139D01*
X346328Y208094D02*
X358139D01*
X346328D02*
Y213605D01*
X373494Y208094D02*
Y213606D01*
X361683Y208094D02*
Y213606D01*
X373494D01*
X361683Y208094D02*
X373494D01*
X360698Y220409D02*
Y226709D01*
X348100D02*
X360698D01*
X348100Y220409D02*
Y226709D01*
Y220409D02*
X360698D01*
X377529Y220102D02*
X383828D01*
Y216952D02*
Y220102D01*
X377529Y216952D02*
Y220102D01*
Y216952D02*
X383828D01*
X377529Y213999D02*
X383828D01*
Y210850D02*
Y213999D01*
X377529Y210850D02*
Y213999D01*
Y210850D02*
X383828D01*
Y204747D02*
Y207897D01*
X377529Y204747D02*
Y207897D01*
Y204747D02*
X383828D01*
X377529Y207897D02*
X383828D01*
X366899Y194019D02*
Y200318D01*
X363750D02*
X366899D01*
X363750Y194019D02*
Y200318D01*
Y194019D02*
X366899D01*
X371230Y201696D02*
X383828D01*
Y195397D02*
Y201696D01*
X371230Y195397D02*
X383828D01*
X371230D02*
Y201696D01*
X371230Y192444D02*
X383828D01*
Y186145D02*
Y192444D01*
X371230Y186145D02*
X383828D01*
X371230D02*
Y192444D01*
X381128Y180043D02*
X385895D01*
X390620Y175318D01*
Y154058D02*
Y175318D01*
X381128Y154058D02*
X390620D01*
X369360Y180043D02*
X374128D01*
X364635Y175318D02*
X369360Y180043D01*
X364635Y154058D02*
X374128D01*
X364635D02*
Y175318D01*
X352824Y200318D02*
X355974D01*
Y194019D02*
Y200318D01*
X352824Y194019D02*
Y200318D01*
Y194019D02*
X355974D01*
X349872D02*
Y200318D01*
X346722D02*
X349872D01*
X346722Y194019D02*
Y200318D01*
Y194019D02*
X349872D01*
X334868Y223153D02*
X344360D01*
Y201893D02*
Y223153D01*
X339635Y197169D02*
X344360Y201893D01*
X334868Y197169D02*
X339635D01*
X318376Y223153D02*
X327868D01*
X318376Y201893D02*
Y223153D01*
X323100Y197169D02*
X327868D01*
X318376Y201893D02*
X323100Y197169D01*
D42*
X70305Y51217D02*
Y53185D01*
X80541D01*
Y51217D02*
Y53185D01*
X239032Y53382D02*
X249268D01*
Y51414D02*
Y53382D01*
X239032Y51414D02*
Y53382D01*
X342175Y51217D02*
Y53185D01*
X352411D01*
Y51217D02*
Y53185D01*
X510902Y53382D02*
X521138D01*
Y51414D02*
Y53382D01*
X510902Y51414D02*
Y53382D01*
D43*
X163505Y51039D02*
Y61039D01*
X123504D02*
X163505D01*
X123504Y51039D02*
Y61039D01*
Y51039D02*
X163505D01*
X173238Y50941D02*
X175738Y53441D01*
Y58441D02*
X178238Y60941D01*
X183238D02*
X185738Y58441D01*
X173238Y60941D02*
X175738Y58441D01*
X183238Y50941D02*
X185738Y53441D01*
X175738D02*
X178238Y50941D01*
X165738Y58441D02*
X168238Y60941D01*
X165738Y53441D02*
X168238Y50941D01*
X185738Y53441D02*
Y58441D01*
X165738Y53441D02*
Y58441D01*
X178238Y60941D02*
X183238D01*
X178238Y50941D02*
X183238D01*
X168238Y60941D02*
X173238D01*
X168238Y50941D02*
X173238D01*
X435375Y51039D02*
Y61039D01*
X395375D02*
X435375D01*
X395375Y51039D02*
Y61039D01*
Y51039D02*
X435375D01*
X445108Y50941D02*
X447608Y53441D01*
Y58441D02*
X450108Y60941D01*
X455108D02*
X457608Y58441D01*
X445108Y60941D02*
X447608Y58441D01*
X455108Y50941D02*
X457608Y53441D01*
X447608D02*
X450108Y50941D01*
X437608Y58441D02*
X440108Y60941D01*
X437608Y53441D02*
X440108Y50941D01*
X457608Y53441D02*
Y58441D01*
X437608Y53441D02*
Y58441D01*
X450108Y60941D02*
X455108D01*
X450108Y50941D02*
X455108D01*
X440108Y60941D02*
X445108D01*
X440108Y50941D02*
X445108D01*
D44*
X265205Y81650D02*
X264681D01*
X263631Y80601D01*
X264681Y79551D01*
X265205D01*
X263631Y80601D02*
X262057D01*
X264681Y76403D02*
X265205Y76928D01*
Y77977D01*
X264681Y78502D01*
X262581D01*
X262057Y77977D01*
Y76928D01*
X262581Y76403D01*
X263631D01*
Y77452D01*
X262057Y75353D02*
X265205D01*
X262057Y73254D01*
X265205D01*
X263631Y69056D02*
Y66957D01*
X264156Y62759D02*
X262057Y61709D01*
X264156Y60660D01*
X262057Y57511D02*
Y59610D01*
X264156Y57511D01*
X264681D01*
X265205Y58036D01*
Y59086D01*
X264681Y59610D01*
X262057Y56462D02*
X262581D01*
Y55937D01*
X262057D01*
Y56462D01*
X264681Y53838D02*
X265205Y53313D01*
Y52264D01*
X264681Y51739D01*
X262581D01*
X262057Y52264D01*
Y53313D01*
X262581Y53838D01*
X264681D01*
X537075Y81650D02*
X536551D01*
X535501Y80601D01*
X536551Y79551D01*
X537075D01*
X535501Y80601D02*
X533927D01*
X536551Y76403D02*
X537075Y76928D01*
Y77977D01*
X536551Y78502D01*
X534452D01*
X533927Y77977D01*
Y76928D01*
X534452Y76403D01*
X535501D01*
Y77452D01*
X533927Y75353D02*
X537075D01*
X533927Y73254D01*
X537075D01*
X535501Y69056D02*
Y66957D01*
X536026Y62759D02*
X533927Y61709D01*
X536026Y60660D01*
X533927Y57511D02*
Y59610D01*
X536026Y57511D01*
X536551D01*
X537075Y58036D01*
Y59086D01*
X536551Y59610D01*
X533927Y56462D02*
X534452D01*
Y55937D01*
X533927D01*
Y56462D01*
X536551Y53838D02*
X537075Y53313D01*
Y52264D01*
X536551Y51739D01*
X534452D01*
X533927Y52264D01*
Y53313D01*
X534452Y53838D01*
X536551D01*
D45*
X150443Y149543D02*
X153591D01*
Y147969D01*
X153066Y147444D01*
X152017D01*
X151492Y147969D01*
Y149543D01*
Y148494D02*
X150443Y147444D01*
Y146395D02*
Y145345D01*
Y145870D01*
X153591D01*
X153066Y146395D01*
X255101Y214372D02*
X254576Y214897D01*
X253526D01*
X253001Y214372D01*
Y212273D01*
X253526Y211748D01*
X254576D01*
X255101Y212273D01*
X258249Y211748D02*
X256150D01*
X258249Y213847D01*
Y214372D01*
X257724Y214897D01*
X256675D01*
X256150Y214372D01*
X261398Y211748D02*
X259299D01*
X261398Y213847D01*
Y214372D01*
X260873Y214897D01*
X259823D01*
X259299Y214372D01*
X175443Y184818D02*
X176492D01*
X175967D01*
Y181669D01*
X175443D01*
X176492D01*
X180165Y184293D02*
X179641Y184818D01*
X178591D01*
X178066Y184293D01*
Y182194D01*
X178591Y181669D01*
X179641D01*
X180165Y182194D01*
X181215Y181669D02*
X182264D01*
X181740D01*
Y184818D01*
X181215Y184293D01*
X141978Y92062D02*
Y89438D01*
X142503Y88913D01*
X143552D01*
X144077Y89438D01*
Y92062D01*
X145126Y88913D02*
X146176D01*
X145651D01*
Y92062D01*
X145126Y91537D01*
X211466Y185468D02*
Y188617D01*
X213040D01*
X213565Y188092D01*
Y187043D01*
X213040Y186518D01*
X211466D01*
X212516D02*
X213565Y185468D01*
X216714D02*
X214615D01*
X216714Y187568D01*
Y188092D01*
X216189Y188617D01*
X215140D01*
X214615Y188092D01*
X217763D02*
X218288Y188617D01*
X219338D01*
X219862Y188092D01*
Y185993D01*
X219338Y185468D01*
X218288D01*
X217763Y185993D01*
Y188092D01*
X202017Y164110D02*
Y167259D01*
X203592D01*
X204116Y166734D01*
Y165684D01*
X203592Y165160D01*
X202017D01*
X203067D02*
X204116Y164110D01*
X205166D02*
X206215D01*
X205691D01*
Y167259D01*
X205166Y166734D01*
X207790Y164635D02*
X208314Y164110D01*
X209364D01*
X209889Y164635D01*
Y166734D01*
X209364Y167259D01*
X208314D01*
X207790Y166734D01*
Y166209D01*
X208314Y165684D01*
X209889D01*
X206348Y178776D02*
X209497D01*
Y177201D01*
X208972Y176677D01*
X207922D01*
X207398Y177201D01*
Y178776D01*
Y177726D02*
X206348Y176677D01*
Y175627D02*
Y174577D01*
Y175102D01*
X209497D01*
X208972Y175627D01*
Y173003D02*
X209497Y172478D01*
Y171429D01*
X208972Y170904D01*
X208447D01*
X207922Y171429D01*
X207398Y170904D01*
X206873D01*
X206348Y171429D01*
Y172478D01*
X206873Y173003D01*
X207398D01*
X207922Y172478D01*
X208447Y173003D01*
X208972D01*
X207922Y172478D02*
Y171429D01*
X203592Y156433D02*
Y159582D01*
X205166D01*
X205691Y159057D01*
Y158007D01*
X205166Y157483D01*
X203592D01*
X204642D02*
X205691Y156433D01*
X206741D02*
X207790D01*
X207265D01*
Y159582D01*
X206741Y159057D01*
X209365Y159582D02*
X211464D01*
Y159057D01*
X209365Y156958D01*
Y156433D01*
X203494Y139898D02*
Y143046D01*
X205068D01*
X205593Y142522D01*
Y141472D01*
X205068Y140947D01*
X203494D01*
X204543D02*
X205593Y139898D01*
X206642D02*
X207692D01*
X207167D01*
Y143046D01*
X206642Y142522D01*
X211365Y143046D02*
X210316Y142522D01*
X209266Y141472D01*
Y140422D01*
X209791Y139898D01*
X210840D01*
X211365Y140422D01*
Y140947D01*
X210840Y141472D01*
X209266D01*
X115009Y144327D02*
Y147475D01*
X116584D01*
X117108Y146951D01*
Y145901D01*
X116584Y145376D01*
X115009D01*
X116059D02*
X117108Y144327D01*
X118158D02*
X119208D01*
X118683D01*
Y147475D01*
X118158Y146951D01*
X122881Y147475D02*
X120782D01*
Y145901D01*
X121831Y146426D01*
X122356D01*
X122881Y145901D01*
Y144852D01*
X122356Y144327D01*
X121307D01*
X120782Y144852D01*
X115108Y132024D02*
Y135172D01*
X116682D01*
X117207Y134648D01*
Y133598D01*
X116682Y133073D01*
X115108D01*
X116157D02*
X117207Y132024D01*
X118256D02*
X119306D01*
X118781D01*
Y135172D01*
X118256Y134648D01*
X122455Y132024D02*
Y135172D01*
X120880Y133598D01*
X122979D01*
X93749Y138224D02*
Y141373D01*
X95324D01*
X95849Y140848D01*
Y139799D01*
X95324Y139274D01*
X93749D01*
X94799D02*
X95849Y138224D01*
X96898D02*
X97948D01*
X97423D01*
Y141373D01*
X96898Y140848D01*
X99522D02*
X100047Y141373D01*
X101096D01*
X101621Y140848D01*
Y140323D01*
X101096Y139799D01*
X100571D01*
X101096D01*
X101621Y139274D01*
Y138749D01*
X101096Y138224D01*
X100047D01*
X99522Y138749D01*
X115206Y187634D02*
Y190782D01*
X116781D01*
X117305Y190258D01*
Y189208D01*
X116781Y188683D01*
X115206D01*
X116256D02*
X117305Y187634D01*
X118355D02*
X119404D01*
X118880D01*
Y190782D01*
X118355Y190258D01*
X123078Y187634D02*
X120979D01*
X123078Y189733D01*
Y190258D01*
X122553Y190782D01*
X121503D01*
X120979Y190258D01*
X115206Y210764D02*
Y213912D01*
X116781D01*
X117305Y213388D01*
Y212338D01*
X116781Y211813D01*
X115206D01*
X116256D02*
X117305Y210764D01*
X118355D02*
X119404D01*
X118880D01*
Y213912D01*
X118355Y213388D01*
X120979Y210764D02*
X122028D01*
X121503D01*
Y213912D01*
X120979Y213388D01*
X115206Y216965D02*
Y220113D01*
X116781D01*
X117305Y219588D01*
Y218539D01*
X116781Y218014D01*
X115206D01*
X116256D02*
X117305Y216965D01*
X118355D02*
X119404D01*
X118880D01*
Y220113D01*
X118355Y219588D01*
X120979D02*
X121503Y220113D01*
X122553D01*
X123078Y219588D01*
Y217489D01*
X122553Y216965D01*
X121503D01*
X120979Y217489D01*
Y219588D01*
X115206Y204465D02*
Y207613D01*
X116781D01*
X117305Y207088D01*
Y206039D01*
X116781Y205514D01*
X115206D01*
X116256D02*
X117305Y204465D01*
X118355Y204989D02*
X118880Y204465D01*
X119929D01*
X120454Y204989D01*
Y207088D01*
X119929Y207613D01*
X118880D01*
X118355Y207088D01*
Y206564D01*
X118880Y206039D01*
X120454D01*
X80757Y190685D02*
X83906D01*
Y189111D01*
X83381Y188586D01*
X82332D01*
X81807Y189111D01*
Y190685D01*
Y189636D02*
X80757Y188586D01*
X83381Y187537D02*
X83906Y187012D01*
Y185962D01*
X83381Y185437D01*
X82857D01*
X82332Y185962D01*
X81807Y185437D01*
X81282D01*
X80757Y185962D01*
Y187012D01*
X81282Y187537D01*
X81807D01*
X82332Y187012D01*
X82857Y187537D01*
X83381D01*
X82332Y187012D02*
Y185962D01*
X115206Y196394D02*
Y199542D01*
X116781D01*
X117305Y199018D01*
Y197968D01*
X116781Y197443D01*
X115206D01*
X116256D02*
X117305Y196394D01*
X118355Y199542D02*
X120454D01*
Y199018D01*
X118355Y196918D01*
Y196394D01*
X74852Y190784D02*
X78000D01*
Y189209D01*
X77476Y188684D01*
X76426D01*
X75902Y189209D01*
Y190784D01*
Y189734D02*
X74852Y188684D01*
X78000Y185536D02*
X77476Y186585D01*
X76426Y187635D01*
X75377D01*
X74852Y187110D01*
Y186061D01*
X75377Y185536D01*
X75902D01*
X76426Y186061D01*
Y187635D01*
X86466Y229366D02*
Y232515D01*
X88040D01*
X88565Y231990D01*
Y230941D01*
X88040Y230416D01*
X86466D01*
X87516D02*
X88565Y229366D01*
X91714Y232515D02*
X89615D01*
Y230941D01*
X90664Y231465D01*
X91189D01*
X91714Y230941D01*
Y229891D01*
X91189Y229366D01*
X90140D01*
X89615Y229891D01*
X138505Y103776D02*
Y106924D01*
X140079D01*
X140603Y106399D01*
Y105350D01*
X140079Y104825D01*
X138505D01*
X139554D02*
X140603Y103776D01*
X143227D02*
Y106924D01*
X141653Y105350D01*
X143752D01*
X107332Y91374D02*
Y94523D01*
X108906D01*
X109431Y93998D01*
Y92948D01*
X108906Y92424D01*
X107332D01*
X108382D02*
X109431Y91374D01*
X110481Y93998D02*
X111006Y94523D01*
X112055D01*
X112580Y93998D01*
Y93473D01*
X112055Y92948D01*
X111530D01*
X112055D01*
X112580Y92424D01*
Y91899D01*
X112055Y91374D01*
X111006D01*
X110481Y91899D01*
X162253Y71886D02*
Y75034D01*
X163828D01*
X164353Y74510D01*
Y73460D01*
X163828Y72935D01*
X162253D01*
X163303D02*
X164353Y71886D01*
X167501D02*
X165402D01*
X167501Y73985D01*
Y74510D01*
X166976Y75034D01*
X165927D01*
X165402Y74510D01*
X113959Y108533D02*
Y110632D01*
X113434Y111156D01*
X112385D01*
X111860Y110632D01*
Y108533D01*
X112385Y108008D01*
X113434D01*
X112909Y109057D02*
X113959Y108008D01*
X113434D02*
X113959Y108533D01*
X115008Y108008D02*
X116058D01*
X115533D01*
Y111156D01*
X115008Y110632D01*
X146702Y219030D02*
Y215882D01*
X148277D01*
X148801Y216407D01*
Y218506D01*
X148277Y219030D01*
X146702D01*
X151425Y215882D02*
Y219030D01*
X149851Y217456D01*
X151950D01*
X133120Y193243D02*
Y190094D01*
X134694D01*
X135219Y190619D01*
Y192718D01*
X134694Y193243D01*
X133120D01*
X136268Y192718D02*
X136793Y193243D01*
X137843D01*
X138367Y192718D01*
Y192194D01*
X137843Y191669D01*
X137318D01*
X137843D01*
X138367Y191144D01*
Y190619D01*
X137843Y190094D01*
X136793D01*
X136268Y190619D01*
X144438Y149543D02*
X141289D01*
Y147969D01*
X141814Y147444D01*
X143913D01*
X144438Y147969D01*
Y149543D01*
X141289Y144296D02*
Y146395D01*
X143388Y144296D01*
X143913D01*
X144438Y144820D01*
Y145870D01*
X143913Y146395D01*
X202902Y246000D02*
X199753D01*
Y244426D01*
X200278Y243901D01*
X202377D01*
X202902Y244426D01*
Y246000D01*
X199753Y242851D02*
Y241802D01*
Y242327D01*
X202902D01*
X202377Y242851D01*
X227738Y225986D02*
X227214Y226511D01*
X226164D01*
X225639Y225986D01*
Y223887D01*
X226164Y223362D01*
X227214D01*
X227738Y223887D01*
X230887Y223362D02*
X228788D01*
X230887Y225461D01*
Y225986D01*
X230362Y226511D01*
X229313D01*
X228788Y225986D01*
X231937D02*
X232461Y226511D01*
X233511D01*
X234036Y225986D01*
Y225461D01*
X233511Y224937D01*
X232986D01*
X233511D01*
X234036Y224412D01*
Y223887D01*
X233511Y223362D01*
X232461D01*
X231937Y223887D01*
X254805Y147246D02*
X254281Y147771D01*
X253231D01*
X252706Y147246D01*
Y145147D01*
X253231Y144622D01*
X254281D01*
X254805Y145147D01*
X257954Y144622D02*
X255855D01*
X257954Y146721D01*
Y147246D01*
X257429Y147771D01*
X256380D01*
X255855Y147246D01*
X259003Y144622D02*
X260053D01*
X259528D01*
Y147771D01*
X259003Y147246D01*
X233742Y136321D02*
X233218Y136846D01*
X232168D01*
X231643Y136321D01*
Y134222D01*
X232168Y133697D01*
X233218D01*
X233742Y134222D01*
X236891Y133697D02*
X234792D01*
X236891Y135796D01*
Y136321D01*
X236366Y136846D01*
X235317D01*
X234792Y136321D01*
X237941D02*
X238465Y136846D01*
X239515D01*
X240039Y136321D01*
Y134222D01*
X239515Y133697D01*
X238465D01*
X237941Y134222D01*
Y136321D01*
X205593Y136419D02*
X205068Y136944D01*
X204018D01*
X203494Y136419D01*
Y134320D01*
X204018Y133795D01*
X205068D01*
X205593Y134320D01*
X206642Y133795D02*
X207692D01*
X207167D01*
Y136944D01*
X206642Y136419D01*
X209266Y134320D02*
X209791Y133795D01*
X210840D01*
X211365Y134320D01*
Y136419D01*
X210840Y136944D01*
X209791D01*
X209266Y136419D01*
Y135894D01*
X209791Y135370D01*
X211365D01*
X205593Y149903D02*
X205068Y150428D01*
X204018D01*
X203494Y149903D01*
Y147804D01*
X204018Y147280D01*
X205068D01*
X205593Y147804D01*
X206642Y147280D02*
X207692D01*
X207167D01*
Y150428D01*
X206642Y149903D01*
X209266D02*
X209791Y150428D01*
X210840D01*
X211365Y149903D01*
Y149379D01*
X210840Y148854D01*
X211365Y148329D01*
Y147804D01*
X210840Y147280D01*
X209791D01*
X209266Y147804D01*
Y148329D01*
X209791Y148854D01*
X209266Y149379D01*
Y149903D01*
X209791Y148854D02*
X210840D01*
X66715Y137746D02*
X66190Y138270D01*
X65140D01*
X64616Y137746D01*
Y135647D01*
X65140Y135122D01*
X66190D01*
X66715Y135647D01*
X67764Y135122D02*
X68814D01*
X68289D01*
Y138270D01*
X67764Y137746D01*
X70388Y138270D02*
X72487D01*
Y137746D01*
X70388Y135647D01*
Y135122D01*
X85416Y155120D02*
X84891Y155645D01*
X83841D01*
X83316Y155120D01*
Y153021D01*
X83841Y152496D01*
X84891D01*
X85416Y153021D01*
X86465Y152496D02*
X87515D01*
X86990D01*
Y155645D01*
X86465Y155120D01*
X91188Y155645D02*
X90138Y155120D01*
X89089Y154070D01*
Y153021D01*
X89614Y152496D01*
X90663D01*
X91188Y153021D01*
Y153546D01*
X90663Y154070D01*
X89089D01*
X94503Y188684D02*
X95028Y189209D01*
Y190259D01*
X94503Y190784D01*
X92404D01*
X91879Y190259D01*
Y189209D01*
X92404Y188684D01*
X91879Y187635D02*
Y186585D01*
Y187110D01*
X95028D01*
X94503Y187635D01*
X95028Y182912D02*
Y185011D01*
X93454D01*
X93979Y183962D01*
Y183437D01*
X93454Y182912D01*
X92404D01*
X91879Y183437D01*
Y184486D01*
X92404Y185011D01*
X112581Y152561D02*
X112056Y153086D01*
X111007D01*
X110482Y152561D01*
Y150462D01*
X111007Y149937D01*
X112056D01*
X112581Y150462D01*
X113630Y149937D02*
X114680D01*
X114155D01*
Y153086D01*
X113630Y152561D01*
X117829Y149937D02*
Y153086D01*
X116254Y151511D01*
X118353D01*
X49392Y226796D02*
X48867Y227321D01*
X47818D01*
X47293Y226796D01*
Y224697D01*
X47818Y224172D01*
X48867D01*
X49392Y224697D01*
X50441Y224172D02*
X51491D01*
X50966D01*
Y227321D01*
X50441Y226796D01*
X53065D02*
X53590Y227321D01*
X54640D01*
X55164Y226796D01*
Y226272D01*
X54640Y225747D01*
X54115D01*
X54640D01*
X55164Y225222D01*
Y224697D01*
X54640Y224172D01*
X53590D01*
X53065Y224697D01*
X94372Y224805D02*
X93848Y225330D01*
X92798D01*
X92273Y224805D01*
Y222706D01*
X92798Y222181D01*
X93848D01*
X94372Y222706D01*
X95422Y222181D02*
X96471D01*
X95947D01*
Y225330D01*
X95422Y224805D01*
X100145Y222181D02*
X98046D01*
X100145Y224280D01*
Y224805D01*
X99620Y225330D01*
X98570D01*
X98046Y224805D01*
X139353Y211997D02*
X138828Y212522D01*
X137778D01*
X137253Y211997D01*
Y209898D01*
X137778Y209373D01*
X138828D01*
X139353Y209898D01*
X140402Y209373D02*
X141452D01*
X140927D01*
Y212522D01*
X140402Y211997D01*
X143026Y209373D02*
X144076D01*
X143551D01*
Y212522D01*
X143026Y211997D01*
X174326Y205318D02*
X174851Y205843D01*
Y206893D01*
X174326Y207417D01*
X172227D01*
X171702Y206893D01*
Y205843D01*
X172227Y205318D01*
X171702Y204269D02*
Y203219D01*
Y203744D01*
X174851D01*
X174326Y204269D01*
Y201645D02*
X174851Y201120D01*
Y200071D01*
X174326Y199546D01*
X172227D01*
X171702Y200071D01*
Y201120D01*
X172227Y201645D01*
X174326D01*
X167338Y105318D02*
X167863Y105843D01*
Y106893D01*
X167338Y107417D01*
X165239D01*
X164714Y106893D01*
Y105843D01*
X165239Y105318D01*
Y104269D02*
X164714Y103744D01*
Y102694D01*
X165239Y102170D01*
X167338D01*
X167863Y102694D01*
Y103744D01*
X167338Y104269D01*
X166813D01*
X166288Y103744D01*
Y102170D01*
X174293Y111165D02*
X173769Y111689D01*
X172719D01*
X172195Y111165D01*
Y109066D01*
X172719Y108541D01*
X173769D01*
X174293Y109066D01*
X175343Y111165D02*
X175868Y111689D01*
X176917D01*
X177442Y111165D01*
Y110640D01*
X176917Y110115D01*
X177442Y109590D01*
Y109066D01*
X176917Y108541D01*
X175868D01*
X175343Y109066D01*
Y109590D01*
X175868Y110115D01*
X175343Y110640D01*
Y111165D01*
X175868Y110115D02*
X176917D01*
X194995Y105417D02*
X195520Y105941D01*
Y106991D01*
X194995Y107516D01*
X192896D01*
X192372Y106991D01*
Y105941D01*
X192896Y105417D01*
X195520Y104367D02*
Y102268D01*
X194995D01*
X192896Y104367D01*
X192372D01*
X215518Y105220D02*
X216043Y105745D01*
Y106794D01*
X215518Y107319D01*
X213419D01*
X212895Y106794D01*
Y105745D01*
X213419Y105220D01*
X216043Y102071D02*
X215518Y103121D01*
X214469Y104170D01*
X213419D01*
X212895Y103646D01*
Y102596D01*
X213419Y102071D01*
X213944D01*
X214469Y102596D01*
Y104170D01*
X243519Y106204D02*
X244044Y106729D01*
Y107778D01*
X243519Y108303D01*
X241420D01*
X240895Y107778D01*
Y106729D01*
X241420Y106204D01*
X244044Y103056D02*
Y105155D01*
X242470D01*
X242994Y104105D01*
Y103580D01*
X242470Y103056D01*
X241420D01*
X240895Y103580D01*
Y104630D01*
X241420Y105155D01*
X197540Y161716D02*
X198065Y162241D01*
Y163290D01*
X197540Y163815D01*
X195441D01*
X194917Y163290D01*
Y162241D01*
X195441Y161716D01*
X194917Y159092D02*
X198065D01*
X196491Y160666D01*
Y158567D01*
X160940Y147838D02*
X161465Y148363D01*
Y149412D01*
X160940Y149937D01*
X158841D01*
X158317Y149412D01*
Y148363D01*
X158841Y147838D01*
X160940Y146789D02*
X161465Y146264D01*
Y145214D01*
X160940Y144689D01*
X160416D01*
X159891Y145214D01*
Y145739D01*
Y145214D01*
X159366Y144689D01*
X158841D01*
X158317Y145214D01*
Y146264D01*
X158841Y146789D01*
X161890Y185222D02*
X162415Y185747D01*
Y186797D01*
X161890Y187322D01*
X159792D01*
X159267Y186797D01*
Y185747D01*
X159792Y185222D01*
X159267Y182074D02*
Y184173D01*
X161366Y182074D01*
X161890D01*
X162415Y182599D01*
Y183648D01*
X161890Y184173D01*
X200672Y197836D02*
X200147Y198361D01*
X199097D01*
X198572Y197836D01*
Y195737D01*
X199097Y195213D01*
X200147D01*
X200672Y195737D01*
X201721Y195213D02*
X202770D01*
X202246D01*
Y198361D01*
X201721Y197836D01*
X196731Y346871D02*
X195682D01*
X195157Y346346D01*
Y344247D01*
X195682Y343722D01*
X196731D01*
X197256Y344247D01*
Y346346D01*
X196731Y346871D01*
X198305D02*
Y344247D01*
X198830Y343722D01*
X199880D01*
X200405Y344247D01*
Y346871D01*
X201454D02*
X203553D01*
X202503D01*
Y343722D01*
X204603D02*
Y346871D01*
X206177D01*
X206702Y346346D01*
Y345296D01*
X206177Y344772D01*
X204603D01*
X207751Y346871D02*
Y344247D01*
X208276Y343722D01*
X209325D01*
X209850Y344247D01*
Y346871D01*
X210900D02*
X212999D01*
X211949D01*
Y343722D01*
X88438Y346871D02*
X89487D01*
X88963D01*
Y343722D01*
X88438D01*
X89487D01*
X91062D02*
Y346871D01*
X93161Y343722D01*
Y346871D01*
X94210Y343722D02*
Y346871D01*
X95784D01*
X96309Y346346D01*
Y345296D01*
X95784Y344772D01*
X94210D01*
X97359Y346871D02*
Y344247D01*
X97884Y343722D01*
X98933D01*
X99458Y344247D01*
Y346871D01*
X100507D02*
X102606D01*
X101557D01*
Y343722D01*
X422313Y149543D02*
X425461D01*
Y147969D01*
X424936Y147444D01*
X423887D01*
X423362Y147969D01*
Y149543D01*
Y148494D02*
X422313Y147444D01*
Y146395D02*
Y145345D01*
Y145870D01*
X425461D01*
X424936Y146395D01*
X526971Y214372D02*
X526446Y214897D01*
X525396D01*
X524872Y214372D01*
Y212273D01*
X525396Y211748D01*
X526446D01*
X526971Y212273D01*
X530119Y211748D02*
X528020D01*
X530119Y213847D01*
Y214372D01*
X529595Y214897D01*
X528545D01*
X528020Y214372D01*
X533268Y211748D02*
X531169D01*
X533268Y213847D01*
Y214372D01*
X532743Y214897D01*
X531694D01*
X531169Y214372D01*
X447313Y184818D02*
X448362D01*
X447837D01*
Y181669D01*
X447313D01*
X448362D01*
X452036Y184293D02*
X451511Y184818D01*
X450461D01*
X449936Y184293D01*
Y182194D01*
X450461Y181669D01*
X451511D01*
X452036Y182194D01*
X453085Y181669D02*
X454135D01*
X453610D01*
Y184818D01*
X453085Y184293D01*
X413848Y92062D02*
Y89438D01*
X414373Y88913D01*
X415422D01*
X415947Y89438D01*
Y92062D01*
X416997Y88913D02*
X418046D01*
X417521D01*
Y92062D01*
X416997Y91537D01*
X483336Y185468D02*
Y188617D01*
X484910D01*
X485435Y188092D01*
Y187043D01*
X484910Y186518D01*
X483336D01*
X484386D02*
X485435Y185468D01*
X488584D02*
X486485D01*
X488584Y187568D01*
Y188092D01*
X488059Y188617D01*
X487010D01*
X486485Y188092D01*
X489633D02*
X490158Y188617D01*
X491208D01*
X491732Y188092D01*
Y185993D01*
X491208Y185468D01*
X490158D01*
X489633Y185993D01*
Y188092D01*
X473887Y164110D02*
Y167259D01*
X475462D01*
X475986Y166734D01*
Y165684D01*
X475462Y165160D01*
X473887D01*
X474937D02*
X475986Y164110D01*
X477036D02*
X478086D01*
X477561D01*
Y167259D01*
X477036Y166734D01*
X479660Y164635D02*
X480185Y164110D01*
X481234D01*
X481759Y164635D01*
Y166734D01*
X481234Y167259D01*
X480185D01*
X479660Y166734D01*
Y166209D01*
X480185Y165684D01*
X481759D01*
X478218Y178776D02*
X481367D01*
Y177201D01*
X480842Y176677D01*
X479792D01*
X479268Y177201D01*
Y178776D01*
Y177726D02*
X478218Y176677D01*
Y175627D02*
Y174577D01*
Y175102D01*
X481367D01*
X480842Y175627D01*
Y173003D02*
X481367Y172478D01*
Y171429D01*
X480842Y170904D01*
X480317D01*
X479792Y171429D01*
X479268Y170904D01*
X478743D01*
X478218Y171429D01*
Y172478D01*
X478743Y173003D01*
X479268D01*
X479792Y172478D01*
X480317Y173003D01*
X480842D01*
X479792Y172478D02*
Y171429D01*
X475462Y156433D02*
Y159582D01*
X477037D01*
X477561Y159057D01*
Y158007D01*
X477037Y157483D01*
X475462D01*
X476512D02*
X477561Y156433D01*
X478611D02*
X479660D01*
X479136D01*
Y159582D01*
X478611Y159057D01*
X481235Y159582D02*
X483334D01*
Y159057D01*
X481235Y156958D01*
Y156433D01*
X475364Y139898D02*
Y143046D01*
X476938D01*
X477463Y142522D01*
Y141472D01*
X476938Y140947D01*
X475364D01*
X476413D02*
X477463Y139898D01*
X478512D02*
X479562D01*
X479037D01*
Y143046D01*
X478512Y142522D01*
X483235Y143046D02*
X482186Y142522D01*
X481136Y141472D01*
Y140422D01*
X481661Y139898D01*
X482711D01*
X483235Y140422D01*
Y140947D01*
X482711Y141472D01*
X481136D01*
X386879Y144327D02*
Y147475D01*
X388454D01*
X388979Y146951D01*
Y145901D01*
X388454Y145376D01*
X386879D01*
X387929D02*
X388979Y144327D01*
X390028D02*
X391078D01*
X390553D01*
Y147475D01*
X390028Y146951D01*
X394751Y147475D02*
X392652D01*
Y145901D01*
X393701Y146426D01*
X394226D01*
X394751Y145901D01*
Y144852D01*
X394226Y144327D01*
X393177D01*
X392652Y144852D01*
X386978Y132024D02*
Y135172D01*
X388552D01*
X389077Y134648D01*
Y133598D01*
X388552Y133073D01*
X386978D01*
X388027D02*
X389077Y132024D01*
X390126D02*
X391176D01*
X390651D01*
Y135172D01*
X390126Y134648D01*
X394325Y132024D02*
Y135172D01*
X392750Y133598D01*
X394849D01*
X365620Y138224D02*
Y141373D01*
X367194D01*
X367719Y140848D01*
Y139799D01*
X367194Y139274D01*
X365620D01*
X366669D02*
X367719Y138224D01*
X368768D02*
X369818D01*
X369293D01*
Y141373D01*
X368768Y140848D01*
X371392D02*
X371917Y141373D01*
X372966D01*
X373491Y140848D01*
Y140323D01*
X372966Y139799D01*
X372442D01*
X372966D01*
X373491Y139274D01*
Y138749D01*
X372966Y138224D01*
X371917D01*
X371392Y138749D01*
X387076Y187634D02*
Y190782D01*
X388651D01*
X389175Y190258D01*
Y189208D01*
X388651Y188683D01*
X387076D01*
X388126D02*
X389175Y187634D01*
X390225D02*
X391274D01*
X390750D01*
Y190782D01*
X390225Y190258D01*
X394948Y187634D02*
X392849D01*
X394948Y189733D01*
Y190258D01*
X394423Y190782D01*
X393373D01*
X392849Y190258D01*
X387076Y210764D02*
Y213912D01*
X388651D01*
X389175Y213388D01*
Y212338D01*
X388651Y211813D01*
X387076D01*
X388126D02*
X389175Y210764D01*
X390225D02*
X391274D01*
X390750D01*
Y213912D01*
X390225Y213388D01*
X392849Y210764D02*
X393898D01*
X393373D01*
Y213912D01*
X392849Y213388D01*
X387076Y216965D02*
Y220113D01*
X388651D01*
X389175Y219588D01*
Y218539D01*
X388651Y218014D01*
X387076D01*
X388126D02*
X389175Y216965D01*
X390225D02*
X391274D01*
X390750D01*
Y220113D01*
X390225Y219588D01*
X392849D02*
X393373Y220113D01*
X394423D01*
X394948Y219588D01*
Y217489D01*
X394423Y216965D01*
X393373D01*
X392849Y217489D01*
Y219588D01*
X387076Y204465D02*
Y207613D01*
X388651D01*
X389175Y207088D01*
Y206039D01*
X388651Y205514D01*
X387076D01*
X388126D02*
X389175Y204465D01*
X390225Y204989D02*
X390750Y204465D01*
X391799D01*
X392324Y204989D01*
Y207088D01*
X391799Y207613D01*
X390750D01*
X390225Y207088D01*
Y206564D01*
X390750Y206039D01*
X392324D01*
X352628Y190685D02*
X355776D01*
Y189111D01*
X355251Y188586D01*
X354202D01*
X353677Y189111D01*
Y190685D01*
Y189636D02*
X352628Y188586D01*
X355251Y187537D02*
X355776Y187012D01*
Y185962D01*
X355251Y185437D01*
X354727D01*
X354202Y185962D01*
X353677Y185437D01*
X353152D01*
X352628Y185962D01*
Y187012D01*
X353152Y187537D01*
X353677D01*
X354202Y187012D01*
X354727Y187537D01*
X355251D01*
X354202Y187012D02*
Y185962D01*
X387076Y196394D02*
Y199542D01*
X388651D01*
X389175Y199018D01*
Y197968D01*
X388651Y197443D01*
X387076D01*
X388126D02*
X389175Y196394D01*
X390225Y199542D02*
X392324D01*
Y199018D01*
X390225Y196918D01*
Y196394D01*
X346722Y190784D02*
X349871D01*
Y189209D01*
X349346Y188684D01*
X348296D01*
X347772Y189209D01*
Y190784D01*
Y189734D02*
X346722Y188684D01*
X349871Y185536D02*
X349346Y186585D01*
X348296Y187635D01*
X347247D01*
X346722Y187110D01*
Y186061D01*
X347247Y185536D01*
X347772D01*
X348296Y186061D01*
Y187635D01*
X358336Y229366D02*
Y232515D01*
X359910D01*
X360435Y231990D01*
Y230941D01*
X359910Y230416D01*
X358336D01*
X359386D02*
X360435Y229366D01*
X363584Y232515D02*
X361485D01*
Y230941D01*
X362534Y231465D01*
X363059D01*
X363584Y230941D01*
Y229891D01*
X363059Y229366D01*
X362010D01*
X361485Y229891D01*
X410375Y103776D02*
Y106924D01*
X411949D01*
X412474Y106399D01*
Y105350D01*
X411949Y104825D01*
X410375D01*
X411424D02*
X412474Y103776D01*
X415097D02*
Y106924D01*
X413523Y105350D01*
X415622D01*
X379202Y91374D02*
Y94523D01*
X380777D01*
X381301Y93998D01*
Y92948D01*
X380777Y92424D01*
X379202D01*
X380252D02*
X381301Y91374D01*
X382351Y93998D02*
X382876Y94523D01*
X383925D01*
X384450Y93998D01*
Y93473D01*
X383925Y92948D01*
X383401D01*
X383925D01*
X384450Y92424D01*
Y91899D01*
X383925Y91374D01*
X382876D01*
X382351Y91899D01*
X434124Y71886D02*
Y75034D01*
X435698D01*
X436223Y74510D01*
Y73460D01*
X435698Y72935D01*
X434124D01*
X435173D02*
X436223Y71886D01*
X439371D02*
X437272D01*
X439371Y73985D01*
Y74510D01*
X438846Y75034D01*
X437797D01*
X437272Y74510D01*
X385829Y108533D02*
Y110632D01*
X385304Y111156D01*
X384255D01*
X383730Y110632D01*
Y108533D01*
X384255Y108008D01*
X385304D01*
X384780Y109057D02*
X385829Y108008D01*
X385304D02*
X385829Y108533D01*
X386878Y108008D02*
X387928D01*
X387403D01*
Y111156D01*
X386878Y110632D01*
X418572Y219030D02*
Y215882D01*
X420147D01*
X420672Y216407D01*
Y218506D01*
X420147Y219030D01*
X418572D01*
X423295Y215882D02*
Y219030D01*
X421721Y217456D01*
X423820D01*
X404990Y193243D02*
Y190094D01*
X406564D01*
X407089Y190619D01*
Y192718D01*
X406564Y193243D01*
X404990D01*
X408138Y192718D02*
X408663Y193243D01*
X409713D01*
X410237Y192718D01*
Y192194D01*
X409713Y191669D01*
X409188D01*
X409713D01*
X410237Y191144D01*
Y190619D01*
X409713Y190094D01*
X408663D01*
X408138Y190619D01*
X416308Y149543D02*
X413159D01*
Y147969D01*
X413684Y147444D01*
X415783D01*
X416308Y147969D01*
Y149543D01*
X413159Y144296D02*
Y146395D01*
X415258Y144296D01*
X415783D01*
X416308Y144820D01*
Y145870D01*
X415783Y146395D01*
X474772Y246000D02*
X471624D01*
Y244426D01*
X472148Y243901D01*
X474247D01*
X474772Y244426D01*
Y246000D01*
X471624Y242851D02*
Y241802D01*
Y242327D01*
X474772D01*
X474247Y242851D01*
X499609Y225986D02*
X499084Y226511D01*
X498034D01*
X497509Y225986D01*
Y223887D01*
X498034Y223362D01*
X499084D01*
X499609Y223887D01*
X502757Y223362D02*
X500658D01*
X502757Y225461D01*
Y225986D01*
X502232Y226511D01*
X501183D01*
X500658Y225986D01*
X503807D02*
X504331Y226511D01*
X505381D01*
X505906Y225986D01*
Y225461D01*
X505381Y224937D01*
X504856D01*
X505381D01*
X505906Y224412D01*
Y223887D01*
X505381Y223362D01*
X504331D01*
X503807Y223887D01*
X526676Y147246D02*
X526151Y147771D01*
X525101D01*
X524576Y147246D01*
Y145147D01*
X525101Y144622D01*
X526151D01*
X526676Y145147D01*
X529824Y144622D02*
X527725D01*
X529824Y146721D01*
Y147246D01*
X529299Y147771D01*
X528250D01*
X527725Y147246D01*
X530874Y144622D02*
X531923D01*
X531398D01*
Y147771D01*
X530874Y147246D01*
X505612Y136321D02*
X505088Y136846D01*
X504038D01*
X503513Y136321D01*
Y134222D01*
X504038Y133697D01*
X505088D01*
X505612Y134222D01*
X508761Y133697D02*
X506662D01*
X508761Y135796D01*
Y136321D01*
X508236Y136846D01*
X507187D01*
X506662Y136321D01*
X509810D02*
X510335Y136846D01*
X511385D01*
X511910Y136321D01*
Y134222D01*
X511385Y133697D01*
X510335D01*
X509810Y134222D01*
Y136321D01*
X477463Y136419D02*
X476938Y136944D01*
X475888D01*
X475364Y136419D01*
Y134320D01*
X475888Y133795D01*
X476938D01*
X477463Y134320D01*
X478512Y133795D02*
X479562D01*
X479037D01*
Y136944D01*
X478512Y136419D01*
X481136Y134320D02*
X481661Y133795D01*
X482711D01*
X483235Y134320D01*
Y136419D01*
X482711Y136944D01*
X481661D01*
X481136Y136419D01*
Y135894D01*
X481661Y135370D01*
X483235D01*
X477463Y149903D02*
X476938Y150428D01*
X475889D01*
X475364Y149903D01*
Y147804D01*
X475889Y147280D01*
X476938D01*
X477463Y147804D01*
X478512Y147280D02*
X479562D01*
X479037D01*
Y150428D01*
X478512Y149903D01*
X481136D02*
X481661Y150428D01*
X482711D01*
X483235Y149903D01*
Y149379D01*
X482711Y148854D01*
X483235Y148329D01*
Y147804D01*
X482711Y147280D01*
X481661D01*
X481136Y147804D01*
Y148329D01*
X481661Y148854D01*
X481136Y149379D01*
Y149903D01*
X481661Y148854D02*
X482711D01*
X338585Y137746D02*
X338060Y138270D01*
X337011D01*
X336486Y137746D01*
Y135647D01*
X337011Y135122D01*
X338060D01*
X338585Y135647D01*
X339634Y135122D02*
X340684D01*
X340159D01*
Y138270D01*
X339634Y137746D01*
X342258Y138270D02*
X344357D01*
Y137746D01*
X342258Y135647D01*
Y135122D01*
X357286Y155120D02*
X356761Y155645D01*
X355711D01*
X355187Y155120D01*
Y153021D01*
X355711Y152496D01*
X356761D01*
X357286Y153021D01*
X358335Y152496D02*
X359385D01*
X358860D01*
Y155645D01*
X358335Y155120D01*
X363058Y155645D02*
X362009Y155120D01*
X360959Y154070D01*
Y153021D01*
X361484Y152496D01*
X362533D01*
X363058Y153021D01*
Y153546D01*
X362533Y154070D01*
X360959D01*
X366373Y188684D02*
X366898Y189209D01*
Y190259D01*
X366373Y190784D01*
X364274D01*
X363750Y190259D01*
Y189209D01*
X364274Y188684D01*
X363750Y187635D02*
Y186585D01*
Y187110D01*
X366898D01*
X366373Y187635D01*
X366898Y182912D02*
Y185011D01*
X365324D01*
X365849Y183962D01*
Y183437D01*
X365324Y182912D01*
X364274D01*
X363750Y183437D01*
Y184486D01*
X364274Y185011D01*
X384451Y152561D02*
X383926Y153086D01*
X382877D01*
X382352Y152561D01*
Y150462D01*
X382877Y149937D01*
X383926D01*
X384451Y150462D01*
X385501Y149937D02*
X386550D01*
X386025D01*
Y153086D01*
X385501Y152561D01*
X389699Y149937D02*
Y153086D01*
X388124Y151511D01*
X390223D01*
X321262Y226796D02*
X320737Y227321D01*
X319688D01*
X319163Y226796D01*
Y224697D01*
X319688Y224172D01*
X320737D01*
X321262Y224697D01*
X322312Y224172D02*
X323361D01*
X322836D01*
Y227321D01*
X322312Y226796D01*
X324935D02*
X325460Y227321D01*
X326510D01*
X327034Y226796D01*
Y226272D01*
X326510Y225747D01*
X325985D01*
X326510D01*
X327034Y225222D01*
Y224697D01*
X326510Y224172D01*
X325460D01*
X324935Y224697D01*
X366242Y224805D02*
X365718Y225330D01*
X364668D01*
X364143Y224805D01*
Y222706D01*
X364668Y222181D01*
X365718D01*
X366242Y222706D01*
X367292Y222181D02*
X368341D01*
X367817D01*
Y225330D01*
X367292Y224805D01*
X372015Y222181D02*
X369916D01*
X372015Y224280D01*
Y224805D01*
X371490Y225330D01*
X370441D01*
X369916Y224805D01*
X411223Y211997D02*
X410698Y212522D01*
X409648D01*
X409124Y211997D01*
Y209898D01*
X409648Y209373D01*
X410698D01*
X411223Y209898D01*
X412272Y209373D02*
X413322D01*
X412797D01*
Y212522D01*
X412272Y211997D01*
X414896Y209373D02*
X415946D01*
X415421D01*
Y212522D01*
X414896Y211997D01*
X446196Y205318D02*
X446721Y205843D01*
Y206893D01*
X446196Y207417D01*
X444097D01*
X443572Y206893D01*
Y205843D01*
X444097Y205318D01*
X443572Y204269D02*
Y203219D01*
Y203744D01*
X446721D01*
X446196Y204269D01*
Y201645D02*
X446721Y201120D01*
Y200071D01*
X446196Y199546D01*
X444097D01*
X443572Y200071D01*
Y201120D01*
X444097Y201645D01*
X446196D01*
X439208Y105318D02*
X439733Y105843D01*
Y106893D01*
X439208Y107417D01*
X437109D01*
X436584Y106893D01*
Y105843D01*
X437109Y105318D01*
Y104269D02*
X436584Y103744D01*
Y102694D01*
X437109Y102170D01*
X439208D01*
X439733Y102694D01*
Y103744D01*
X439208Y104269D01*
X438683D01*
X438159Y103744D01*
Y102170D01*
X446164Y111165D02*
X445639Y111689D01*
X444589D01*
X444065Y111165D01*
Y109066D01*
X444589Y108541D01*
X445639D01*
X446164Y109066D01*
X447213Y111165D02*
X447738Y111689D01*
X448787D01*
X449312Y111165D01*
Y110640D01*
X448787Y110115D01*
X449312Y109590D01*
Y109066D01*
X448787Y108541D01*
X447738D01*
X447213Y109066D01*
Y109590D01*
X447738Y110115D01*
X447213Y110640D01*
Y111165D01*
X447738Y110115D02*
X448787D01*
X466865Y105417D02*
X467390Y105941D01*
Y106991D01*
X466865Y107516D01*
X464767D01*
X464242Y106991D01*
Y105941D01*
X464767Y105417D01*
X467390Y104367D02*
Y102268D01*
X466865D01*
X464767Y104367D01*
X464242D01*
X487389Y105220D02*
X487913Y105745D01*
Y106794D01*
X487389Y107319D01*
X485289D01*
X484765Y106794D01*
Y105745D01*
X485289Y105220D01*
X487913Y102071D02*
X487389Y103121D01*
X486339Y104170D01*
X485289D01*
X484765Y103646D01*
Y102596D01*
X485289Y102071D01*
X485814D01*
X486339Y102596D01*
Y104170D01*
X515389Y106204D02*
X515914Y106729D01*
Y107778D01*
X515389Y108303D01*
X513290D01*
X512765Y107778D01*
Y106729D01*
X513290Y106204D01*
X515914Y103056D02*
Y105155D01*
X514340D01*
X514864Y104105D01*
Y103580D01*
X514340Y103056D01*
X513290D01*
X512765Y103580D01*
Y104630D01*
X513290Y105155D01*
X469411Y161716D02*
X469935Y162241D01*
Y163290D01*
X469411Y163815D01*
X467311D01*
X466787Y163290D01*
Y162241D01*
X467311Y161716D01*
X466787Y159092D02*
X469935D01*
X468361Y160666D01*
Y158567D01*
X432810Y147838D02*
X433335Y148363D01*
Y149412D01*
X432810Y149937D01*
X430711D01*
X430187Y149412D01*
Y148363D01*
X430711Y147838D01*
X432810Y146789D02*
X433335Y146264D01*
Y145214D01*
X432810Y144689D01*
X432286D01*
X431761Y145214D01*
Y145739D01*
Y145214D01*
X431236Y144689D01*
X430711D01*
X430187Y145214D01*
Y146264D01*
X430711Y146789D01*
X433761Y185222D02*
X434285Y185747D01*
Y186797D01*
X433761Y187322D01*
X431662D01*
X431137Y186797D01*
Y185747D01*
X431662Y185222D01*
X431137Y182074D02*
Y184173D01*
X433236Y182074D01*
X433761D01*
X434285Y182599D01*
Y183648D01*
X433761Y184173D01*
X472542Y197836D02*
X472017Y198361D01*
X470967D01*
X470442Y197836D01*
Y195737D01*
X470967Y195213D01*
X472017D01*
X472542Y195737D01*
X473591Y195213D02*
X474641D01*
X474116D01*
Y198361D01*
X473591Y197836D01*
X468601Y346871D02*
X467552D01*
X467027Y346346D01*
Y344247D01*
X467552Y343722D01*
X468601D01*
X469126Y344247D01*
Y346346D01*
X468601Y346871D01*
X470176D02*
Y344247D01*
X470700Y343722D01*
X471750D01*
X472275Y344247D01*
Y346871D01*
X473324D02*
X475423D01*
X474374D01*
Y343722D01*
X476473D02*
Y346871D01*
X478047D01*
X478572Y346346D01*
Y345296D01*
X478047Y344772D01*
X476473D01*
X479621Y346871D02*
Y344247D01*
X480146Y343722D01*
X481195D01*
X481720Y344247D01*
Y346871D01*
X482770D02*
X484869D01*
X483819D01*
Y343722D01*
X360308Y346871D02*
X361357D01*
X360833D01*
Y343722D01*
X360308D01*
X361357D01*
X362932D02*
Y346871D01*
X365031Y343722D01*
Y346871D01*
X366080Y343722D02*
Y346871D01*
X367655D01*
X368179Y346346D01*
Y345296D01*
X367655Y344772D01*
X366080D01*
X369229Y346871D02*
Y344247D01*
X369754Y343722D01*
X370803D01*
X371328Y344247D01*
Y346871D01*
X372377D02*
X374477D01*
X373427D01*
Y343722D01*
D46*
X168651Y62536D02*
Y66471D01*
X169963Y65159D01*
X171275Y66471D01*
Y62536D01*
X174555Y66471D02*
X173243D01*
X172587Y65815D01*
Y63191D01*
X173243Y62536D01*
X174555D01*
X175211Y63191D01*
Y65815D01*
X174555Y66471D01*
X176523D02*
Y62536D01*
X178490D01*
X179147Y63191D01*
Y65815D01*
X178490Y66471D01*
X176523D01*
X183082D02*
X180458D01*
Y62536D01*
X183082D01*
X180458Y64503D02*
X181770D01*
X204394Y84168D02*
Y80232D01*
X206362D01*
X207018Y80888D01*
Y81544D01*
X206362Y82200D01*
X204394D01*
X206362D01*
X207018Y82856D01*
Y83512D01*
X206362Y84168D01*
X204394D01*
X208330Y80232D02*
Y84168D01*
X210298D01*
X210954Y83512D01*
Y82200D01*
X210298Y81544D01*
X208330D01*
X209642D02*
X210954Y80232D01*
X212266Y84168D02*
X213578D01*
X212922D01*
Y80232D01*
X212266D01*
X213578D01*
X218169Y83512D02*
X217513Y84168D01*
X216202D01*
X215546Y83512D01*
Y80888D01*
X216202Y80232D01*
X217513D01*
X218169Y80888D01*
Y82200D01*
X216858D01*
X219481Y84168D02*
Y80232D01*
Y82200D01*
X222105D01*
Y84168D01*
Y80232D01*
X223417Y84168D02*
X226041D01*
X224729D01*
Y80232D01*
X440521Y62536D02*
Y66471D01*
X441833Y65159D01*
X443145Y66471D01*
Y62536D01*
X446425Y66471D02*
X445113D01*
X444457Y65815D01*
Y63191D01*
X445113Y62536D01*
X446425D01*
X447081Y63191D01*
Y65815D01*
X446425Y66471D01*
X448393D02*
Y62536D01*
X450361D01*
X451017Y63191D01*
Y65815D01*
X450361Y66471D01*
X448393D01*
X454952D02*
X452328D01*
Y62536D01*
X454952D01*
X452328Y64503D02*
X453640D01*
X476264Y84168D02*
Y80232D01*
X478232D01*
X478888Y80888D01*
Y81544D01*
X478232Y82200D01*
X476264D01*
X478232D01*
X478888Y82856D01*
Y83512D01*
X478232Y84168D01*
X476264D01*
X480200Y80232D02*
Y84168D01*
X482168D01*
X482824Y83512D01*
Y82200D01*
X482168Y81544D01*
X480200D01*
X481512D02*
X482824Y80232D01*
X484136Y84168D02*
X485448D01*
X484792D01*
Y80232D01*
X484136D01*
X485448D01*
X490039Y83512D02*
X489384Y84168D01*
X488072D01*
X487416Y83512D01*
Y80888D01*
X488072Y80232D01*
X489384D01*
X490039Y80888D01*
Y82200D01*
X488728D01*
X491352Y84168D02*
Y80232D01*
Y82200D01*
X493975D01*
Y84168D01*
Y80232D01*
X495287Y84168D02*
X497911D01*
X496599D01*
Y80232D01*
D47*
X192372Y237586D02*
D03*
X464242D02*
D03*
D48*
X151716Y223067D02*
D03*
X423586D02*
D03*
M02*
