M48
;Layer_Color=9474304
;FILE_FORMAT=2:5
INCH,TZ
;TYPE=PLATED
T1F00S00C0.01378
T2F00S00C0.01969
T3F00S00C0.02000
T4F00S00C0.03543
T5F00S00C0.04000
T6F00S00C0.04331
T7F00S00C0.05512
;TYPE=NON_PLATED
T8F00S00C0.01968
T9F00S00C0.11811
%
T01
X44924Y50946
X69824
X94724
X119624
X144524
X153781Y65302
X134379Y64799
X130167Y79268
X144045Y93382
X144524Y116669
Y124740
Y133795
Y141276
X124458Y136992
Y126236
X116781Y122378
X118848Y114504
X124458
X128494Y112432
X121407Y103972
X94724Y100746
Y125646
X95915Y137484
X99753Y146000
X94724Y150546
X69824
X44924
Y125646
Y100746
X69824
Y75846
X94724
X44924
X76722Y125646
X116289Y139996
X124458Y147772
X169424Y141276
Y133795
Y124740
Y116669
X182037Y113618
X176328Y106113
X187943
X194439Y102988
X194324Y116669
X194439Y124740
X194324Y133795
Y141276
X190867Y147772
X199950Y153579
X215895Y129563
X225639
X236565
X242175Y116669
X238311Y104268
Y92279
X246013Y98264
X244124Y75846
X269024
Y100746
Y125646
Y150546
X239937
X248080Y141276
X219537Y116965
X214136Y102988
X204281Y98461
X204183Y82711
X194324Y64857
Y50946
X219224
X214394Y64799
X244124Y50946
X269024
X171132Y92279
X316794Y100746
X341694
X366595
Y125646
X367785Y137484
X371623Y146000
X366595Y150546
X341694
X316794
Y125646
X348592
X388651Y122378
X390718Y114504
X396328
X400364Y112432
X393277Y103972
X396328Y126236
Y136992
Y147772
X388159Y139996
X416395Y141276
Y133795
Y124740
Y116669
X415915Y93382
X402037Y79268
X406250Y64799
X425652Y65302
X416395Y50946
X391494
X366595
Y75846
X341694
Y50946
X316794
Y75846
X443002Y92279
X448198Y106113
X459813
X466309Y102988
X466194Y116669
X466309Y124740
X466194Y133795
Y141276
X462737Y147772
X441294Y141276
Y133795
Y124740
Y116669
X453907Y113618
X466194Y64857
Y50946
X491094
X486265Y64799
X476053Y82711
X476151Y98461
X486006Y102988
X491407Y116965
X487765Y129563
X497509
X508435
X514045Y116669
X510181Y104268
Y92279
X517883Y98264
X515995Y75846
X540895
Y100746
Y125646
Y150546
X511807
X519950Y141276
X471820Y153579
X515995Y50946
X540895
Y175446
Y200346
X525856Y207100
X514045
X519950Y216177
X515995Y225246
X540895
Y250146
Y275046
Y299946
X515995
Y275046
Y250146
X493868Y235665
X486683Y228413
X470246Y231039
Y251783
X491094Y275046
Y299946
X486683Y198756
X490620Y183795
X499084Y176874
X506958Y176677
X511807Y175446
X506958Y167063
X493966Y161453
X486683Y171787
X505974Y187247
Y197083
X470049Y202805
X458336Y202902
X464242Y212031
X445344Y221689
X448691Y231039
X440901
X444832Y236822
Y250933
X448691Y256630
X440901
X444832Y262437
X442195Y270606
X436833Y271977
X431663Y272035
X431860Y266866
X433139Y262831
X416395Y275046
Y299946
X441294
X443179Y284878
X450069Y278087
X466194Y275046
X460287Y266866
X464242Y259386
X458139Y251783
X416395Y250146
X415718Y229465
X410050Y223067
X400266
X391494Y225246
X406257Y236650
X414746Y210869
X409517Y200471
X396328
Y175446
X400266Y172772
X405187Y167949
X409517Y170902
X421722
Y183795
X445324Y181669
X445344Y164251
X431742
X419458Y158992
X396328Y161453
X383336Y157124
X377628Y165980
X386683Y175446
X366595
X359898Y189352
Y194117
X348297Y189491
X341694Y196591
X337962Y204522
X347116Y206195
X341694Y225246
X354104Y223715
X359124Y231236
X363073Y215476
X372903Y212424
X377490Y251591
X366595Y250146
Y275046
X391494
X386683Y256630
X391494Y299946
X366595
X341694
Y275046
Y250146
X316794
Y275046
Y299946
Y225246
Y200346
Y175446
X341694
X357943Y158992
X462737Y159386
X458139Y170902
X466899Y176669
X441294Y200346
X435403Y217161
X466194Y299946
X269024
Y275046
Y250146
Y225246
Y200346
X253986Y207100
X242175
X248080Y216177
X244124Y225246
Y250146
Y275046
Y299946
X219224
Y275046
X194324
X188417Y266866
X192372Y259386
X198376Y251783
X186269
X172962Y250933
X176821Y256630
X169031
X172962Y262437
X170324Y270606
X164963Y271977
X159793Y272035
X159990Y266866
X161269Y262831
X171309Y284878
X178198Y278087
X169424Y299946
X194324
X198376Y231039
X214813Y228413
X221998Y235665
X214813Y198756
X218750Y183795
X227214Y176874
X235088Y176677
X239937Y175446
X235088Y167063
X222096Y161453
X214813Y171787
X195029Y176669
X186269Y170902
X190867Y159386
X173474Y164251
X159872
X173454Y181669
X169424Y200346
X186466Y202902
X198179Y202805
X192372Y212031
X173474Y221689
X176821Y231039
X169031
X172962Y236822
X163533Y217161
X234104Y197083
Y187247
X269024Y175446
X149852Y170902
X137647
X133317Y167949
X128395Y172772
X124458Y175446
X114813
X105757Y165980
X111466Y157124
X124458Y161453
X147588Y158992
X149852Y183795
X137647Y200471
X124458
X128395Y223067
X138180
X143848Y229465
X134387Y236650
X144524Y250146
Y275046
Y299946
X119624
Y275046
X114813Y256630
X105620Y251591
X94724Y250146
Y275046
Y299946
X69824
Y275046
Y250146
Y225246
X82234Y223715
X87253Y231236
X91203Y215476
X101033Y212424
X88028Y194117
Y189352
X76427Y189491
X69824Y196591
X66092Y204522
X75246Y206195
X69824Y175446
X94724
X86072Y158992
X44924Y175446
Y200346
Y225246
Y250146
Y275046
Y299946
X119624Y225246
X142876Y210869
X144524Y324846
Y349746
X119624
Y324846
X94724
Y349746
X69824
Y324846
X44924
X169424
X194324
X219224
X244124
X269024
X244124Y349746
X219224
X194324
X169424
X341694
X366595
X391494
X416395
X441294
X466194
Y324846
X441294
X416395
X391494
X366595
X341694
X316794
X491094
X515995
X540895
X515995Y349746
X491094
T02
X214394Y54799
X224394Y64799
X204394
X476264
X496265
X486265Y54799
T03
X223324Y106335
X495194
X452529Y170016
X180659
T04
X128505Y56039
X138505
X148504
X158504
X170738Y55941
X180738
X400375Y56039
X410375
X420375
X430375
X442608Y55941
X452608
T05
X70423Y60272
X80423
X239150Y60469
X249150
X342293Y60272
X352293
X511020Y60469
X521020
X433907Y281039
X423907
X162037
X152037
T06
X64297Y120622
X84297
X104297
X209797
X229797
X249797
X336167
X356167
X376167
X481667
X501667
X521667
Y240122
X501667
X481667
X376167
X356167
X336167
X249797
X229797
X209797
X104297
X84297
X64297
T07
X515476Y286722
Y311722
X451578
Y286722
X406257
Y311722
X342359
Y286722
X243606
Y311722
X179708
Y286722
X134387
Y311722
X70489
Y286722
Y336722
X134387
X179708
X243606
X342359
X406257
X451578
X515476
T08
X40256Y80511
Y84449
Y88386
Y92323
Y96260
X273819
Y92323
Y88386
Y84449
Y80511
X312106
Y84449
Y88386
Y92323
Y96260
X545669
Y92323
Y88386
Y84449
Y80511
Y279626
Y283563
Y287500
Y291437
Y295374
X312106
Y291437
Y287500
Y283563
Y279626
X273819
Y283563
Y287500
Y291437
Y295374
X40256
Y291437
Y287500
Y283563
Y279626
T09
X11811Y11811
X578740
X11811Y381890
X578740Y381890
M30
