G04*
G04 #@! TF.GenerationSoftware,Altium Limited,Altium Designer,19.1.6 (110)*
G04*
G04 Layer_Physical_Order=2*
G04 Layer_Color=16711680*
%FSLAX25Y25*%
%MOIN*%
G70*
G01*
G75*
%ADD10C,0.11811*%
%ADD30C,0.02400*%
%ADD31C,0.01000*%
%ADD32C,0.01968*%
%ADD33C,0.06000*%
%ADD34C,0.06600*%
%ADD35R,0.04724X0.04724*%
%ADD36C,0.04724*%
%ADD37C,0.07087*%
%ADD38C,0.08268*%
%ADD39C,0.02756*%
%ADD40C,0.03500*%
G36*
X520638Y338460D02*
X520138Y338361D01*
X519786Y339210D01*
X518995Y340241D01*
X517964Y341032D01*
X516764Y341529D01*
X515476Y341699D01*
X514188Y341529D01*
X512988Y341032D01*
X511957Y340241D01*
X511166Y339210D01*
X510669Y338010D01*
X510499Y336722D01*
X510669Y335434D01*
X511166Y334234D01*
X511957Y333203D01*
X512988Y332412D01*
X514188Y331915D01*
X515476Y331746D01*
X516764Y331915D01*
X517964Y332412D01*
X518995Y333203D01*
X519786Y334234D01*
X520138Y335083D01*
X520638Y334984D01*
Y329622D01*
X520754Y329037D01*
X521086Y328541D01*
X521582Y328209D01*
X522167Y328093D01*
X543638D01*
Y48317D01*
X314196D01*
Y328093D01*
X335667D01*
X336252Y328209D01*
X336748Y328541D01*
X337080Y329037D01*
X337196Y329622D01*
Y334986D01*
X337696Y335086D01*
X338049Y334234D01*
X338840Y333203D01*
X339871Y332412D01*
X341071Y331915D01*
X341959Y331798D01*
Y336722D01*
Y341646D01*
X341071Y341529D01*
X339871Y341032D01*
X338840Y340241D01*
X338049Y339210D01*
X337696Y338359D01*
X337196Y338458D01*
Y355593D01*
X520638D01*
Y338460D01*
D02*
G37*
G36*
X248767D02*
X248268Y338361D01*
X247916Y339210D01*
X247125Y340241D01*
X246094Y341032D01*
X244894Y341529D01*
X243606Y341699D01*
X242318Y341529D01*
X241118Y341032D01*
X240087Y340241D01*
X239296Y339210D01*
X238799Y338010D01*
X238629Y336722D01*
X238799Y335434D01*
X239296Y334234D01*
X240087Y333203D01*
X241118Y332412D01*
X242318Y331915D01*
X243606Y331746D01*
X244894Y331915D01*
X246094Y332412D01*
X247125Y333203D01*
X247916Y334234D01*
X248268Y335083D01*
X248767Y334984D01*
Y329622D01*
X248884Y329037D01*
X249215Y328541D01*
X249712Y328209D01*
X250297Y328093D01*
X271767D01*
Y48317D01*
X42326D01*
Y328093D01*
X63797D01*
X64382Y328209D01*
X64878Y328541D01*
X65210Y329037D01*
X65326Y329622D01*
Y334986D01*
X65826Y335086D01*
X66179Y334234D01*
X66970Y333203D01*
X68001Y332412D01*
X69201Y331915D01*
X70089Y331798D01*
Y336722D01*
Y341646D01*
X69201Y341529D01*
X68001Y341032D01*
X66970Y340241D01*
X66179Y339210D01*
X65826Y338359D01*
X65326Y338458D01*
Y355593D01*
X248767D01*
Y338460D01*
D02*
G37*
%LPC*%
G36*
X451978Y341646D02*
Y337122D01*
X456502D01*
X456385Y338010D01*
X455888Y339210D01*
X455097Y340241D01*
X454066Y341032D01*
X452866Y341529D01*
X451978Y341646D01*
D02*
G37*
G36*
X342759D02*
Y337122D01*
X347283D01*
X347166Y338010D01*
X346669Y339210D01*
X345878Y340241D01*
X344847Y341032D01*
X343647Y341529D01*
X342759Y341646D01*
D02*
G37*
G36*
X451178D02*
X450290Y341529D01*
X449090Y341032D01*
X448059Y340241D01*
X447268Y339210D01*
X446771Y338010D01*
X446654Y337122D01*
X451178D01*
Y341646D01*
D02*
G37*
G36*
X456502Y336322D02*
X451978D01*
Y331798D01*
X452866Y331915D01*
X454066Y332412D01*
X455097Y333203D01*
X455888Y334234D01*
X456385Y335434D01*
X456502Y336322D01*
D02*
G37*
G36*
X347283D02*
X342759D01*
Y331798D01*
X343647Y331915D01*
X344847Y332412D01*
X345878Y333203D01*
X346669Y334234D01*
X347166Y335434D01*
X347283Y336322D01*
D02*
G37*
G36*
X451178D02*
X446654D01*
X446771Y335434D01*
X447268Y334234D01*
X448059Y333203D01*
X449090Y332412D01*
X450290Y331915D01*
X451178Y331798D01*
Y336322D01*
D02*
G37*
G36*
X406257Y341699D02*
X404969Y341529D01*
X403769Y341032D01*
X402738Y340241D01*
X401947Y339210D01*
X401450Y338010D01*
X401280Y336722D01*
X401450Y335434D01*
X401947Y334234D01*
X402738Y333203D01*
X403769Y332412D01*
X404969Y331915D01*
X406257Y331746D01*
X407545Y331915D01*
X408745Y332412D01*
X409776Y333203D01*
X410567Y334234D01*
X411064Y335434D01*
X411234Y336722D01*
X411064Y338010D01*
X410567Y339210D01*
X409776Y340241D01*
X408745Y341032D01*
X407545Y341529D01*
X406257Y341699D01*
D02*
G37*
G36*
X515476Y316699D02*
X514188Y316529D01*
X512988Y316032D01*
X511957Y315241D01*
X511166Y314210D01*
X510669Y313010D01*
X510499Y311722D01*
X510669Y310434D01*
X511166Y309234D01*
X511957Y308203D01*
X512988Y307412D01*
X514188Y306915D01*
X515476Y306746D01*
X516764Y306915D01*
X517964Y307412D01*
X518995Y308203D01*
X519786Y309234D01*
X520283Y310434D01*
X520452Y311722D01*
X520283Y313010D01*
X519786Y314210D01*
X518995Y315241D01*
X517964Y316032D01*
X516764Y316529D01*
X515476Y316699D01*
D02*
G37*
G36*
X451578D02*
X450290Y316529D01*
X449090Y316032D01*
X448059Y315241D01*
X447268Y314210D01*
X446771Y313010D01*
X446601Y311722D01*
X446771Y310434D01*
X447268Y309234D01*
X448059Y308203D01*
X449090Y307412D01*
X450290Y306915D01*
X451578Y306746D01*
X452866Y306915D01*
X454066Y307412D01*
X455097Y308203D01*
X455888Y309234D01*
X456385Y310434D01*
X456555Y311722D01*
X456385Y313010D01*
X455888Y314210D01*
X455097Y315241D01*
X454066Y316032D01*
X452866Y316529D01*
X451578Y316699D01*
D02*
G37*
G36*
X406257D02*
X404969Y316529D01*
X403769Y316032D01*
X402738Y315241D01*
X401947Y314210D01*
X401450Y313010D01*
X401280Y311722D01*
X401450Y310434D01*
X401947Y309234D01*
X402738Y308203D01*
X403769Y307412D01*
X404969Y306915D01*
X406257Y306746D01*
X407545Y306915D01*
X408745Y307412D01*
X409776Y308203D01*
X410567Y309234D01*
X411064Y310434D01*
X411234Y311722D01*
X411064Y313010D01*
X410567Y314210D01*
X409776Y315241D01*
X408745Y316032D01*
X407545Y316529D01*
X406257Y316699D01*
D02*
G37*
G36*
X342359D02*
X341071Y316529D01*
X339871Y316032D01*
X338840Y315241D01*
X338049Y314210D01*
X337552Y313010D01*
X337382Y311722D01*
X337552Y310434D01*
X338049Y309234D01*
X338840Y308203D01*
X339871Y307412D01*
X341071Y306915D01*
X342359Y306746D01*
X343647Y306915D01*
X344847Y307412D01*
X345878Y308203D01*
X346669Y309234D01*
X347166Y310434D01*
X347336Y311722D01*
X347166Y313010D01*
X346669Y314210D01*
X345878Y315241D01*
X344847Y316032D01*
X343647Y316529D01*
X342359Y316699D01*
D02*
G37*
G36*
X425107Y284655D02*
Y282239D01*
X427523D01*
X427226Y282956D01*
X426617Y283750D01*
X425823Y284359D01*
X425107Y284655D01*
D02*
G37*
G36*
X422707D02*
X421991Y284359D01*
X421197Y283750D01*
X420588Y282956D01*
X420291Y282239D01*
X422707D01*
Y284655D01*
D02*
G37*
G36*
X515476Y291699D02*
X514188Y291529D01*
X512988Y291032D01*
X511957Y290241D01*
X511166Y289210D01*
X510669Y288010D01*
X510499Y286722D01*
X510669Y285434D01*
X511166Y284234D01*
X511957Y283203D01*
X512988Y282412D01*
X514188Y281915D01*
X515476Y281746D01*
X516764Y281915D01*
X517964Y282412D01*
X518995Y283203D01*
X519786Y284234D01*
X520283Y285434D01*
X520452Y286722D01*
X520283Y288010D01*
X519786Y289210D01*
X518995Y290241D01*
X517964Y291032D01*
X516764Y291529D01*
X515476Y291699D01*
D02*
G37*
G36*
X451578D02*
X450290Y291529D01*
X449090Y291032D01*
X448059Y290241D01*
X447268Y289210D01*
X446771Y288010D01*
X446601Y286722D01*
X446771Y285434D01*
X447253Y284271D01*
X437121Y274140D01*
X436833Y274198D01*
X435983Y274028D01*
X435263Y273547D01*
X434781Y272827D01*
X434612Y271977D01*
X434781Y271127D01*
X435263Y270407D01*
X435983Y269925D01*
X436833Y269756D01*
X437683Y269925D01*
X438403Y270407D01*
X438884Y271127D01*
X439053Y271977D01*
X438996Y272266D01*
X449127Y282397D01*
X450290Y281915D01*
X451578Y281746D01*
X452866Y281915D01*
X454066Y282412D01*
X455097Y283203D01*
X455888Y284234D01*
X456385Y285434D01*
X456555Y286722D01*
X456385Y288010D01*
X455888Y289210D01*
X455097Y290241D01*
X454066Y291032D01*
X452866Y291529D01*
X451578Y291699D01*
D02*
G37*
G36*
X406257D02*
X404969Y291529D01*
X403769Y291032D01*
X402738Y290241D01*
X401947Y289210D01*
X401450Y288010D01*
X401280Y286722D01*
X401450Y285434D01*
X401947Y284234D01*
X402738Y283203D01*
X403769Y282412D01*
X404969Y281915D01*
X406257Y281746D01*
X407545Y281915D01*
X408745Y282412D01*
X409776Y283203D01*
X410567Y284234D01*
X411064Y285434D01*
X411234Y286722D01*
X411064Y288010D01*
X410567Y289210D01*
X409776Y290241D01*
X408745Y291032D01*
X407545Y291529D01*
X406257Y291699D01*
D02*
G37*
G36*
X427523Y279839D02*
X425107D01*
Y277423D01*
X425823Y277720D01*
X426617Y278329D01*
X427226Y279123D01*
X427523Y279839D01*
D02*
G37*
G36*
X422707D02*
X420291D01*
X420588Y279123D01*
X421197Y278329D01*
X421991Y277720D01*
X422707Y277423D01*
Y279839D01*
D02*
G37*
G36*
X433907Y284872D02*
X432915Y284742D01*
X431991Y284359D01*
X431197Y283750D01*
X430588Y282956D01*
X430205Y282031D01*
X430074Y281039D01*
X430205Y280047D01*
X430588Y279123D01*
X431197Y278329D01*
X431991Y277720D01*
X432915Y277337D01*
X433907Y277207D01*
X434899Y277337D01*
X435823Y277720D01*
X436617Y278329D01*
X437226Y279123D01*
X437609Y280047D01*
X437740Y281039D01*
X437609Y282031D01*
X437226Y282956D01*
X436617Y283750D01*
X435823Y284359D01*
X434899Y284742D01*
X433907Y284872D01*
D02*
G37*
G36*
X460287Y269087D02*
X459437Y268918D01*
X458717Y268436D01*
X458553Y268192D01*
X433594D01*
X433430Y268436D01*
X432710Y268918D01*
X431860Y269087D01*
X431010Y268918D01*
X430290Y268436D01*
X429808Y267716D01*
X429639Y266866D01*
X429808Y266016D01*
X430290Y265296D01*
X431010Y264815D01*
X431860Y264646D01*
X432710Y264815D01*
X433430Y265296D01*
X433594Y265541D01*
X458553D01*
X458717Y265296D01*
X459437Y264815D01*
X460287Y264646D01*
X461137Y264815D01*
X461857Y265296D01*
X462338Y266016D01*
X462507Y266866D01*
X462338Y267716D01*
X461857Y268436D01*
X461137Y268918D01*
X460287Y269087D01*
D02*
G37*
G36*
X342359Y291699D02*
X341071Y291529D01*
X339871Y291032D01*
X338840Y290241D01*
X338049Y289210D01*
X337552Y288010D01*
X337382Y286722D01*
X337552Y285434D01*
X338049Y284234D01*
X338840Y283203D01*
X339871Y282412D01*
X341071Y281915D01*
X342359Y281746D01*
X343647Y281915D01*
X344810Y282397D01*
X375327Y251879D01*
X375270Y251591D01*
X375439Y250741D01*
X375920Y250020D01*
X376641Y249539D01*
X377490Y249370D01*
X378340Y249539D01*
X379061Y250020D01*
X379542Y250741D01*
X379711Y251591D01*
X379542Y252440D01*
X379061Y253161D01*
X378340Y253642D01*
X377490Y253811D01*
X377202Y253754D01*
X346684Y284271D01*
X347166Y285434D01*
X347336Y286722D01*
X347166Y288010D01*
X346669Y289210D01*
X345878Y290241D01*
X344847Y291032D01*
X343647Y291529D01*
X342359Y291699D01*
D02*
G37*
G36*
X522067Y244450D02*
Y240522D01*
X525995D01*
X525899Y241256D01*
X525461Y242313D01*
X524765Y243220D01*
X523857Y243916D01*
X522801Y244354D01*
X522067Y244450D01*
D02*
G37*
G36*
X521267D02*
X520533Y244354D01*
X519476Y243916D01*
X518569Y243220D01*
X517873Y242313D01*
X517435Y241256D01*
X517339Y240522D01*
X521267D01*
Y244450D01*
D02*
G37*
G36*
X376567D02*
Y240522D01*
X380495D01*
X380399Y241256D01*
X379961Y242313D01*
X379265Y243220D01*
X378357Y243916D01*
X377301Y244354D01*
X376567Y244450D01*
D02*
G37*
G36*
X375767D02*
X375033Y244354D01*
X373976Y243916D01*
X373069Y243220D01*
X372373Y242313D01*
X371935Y241256D01*
X371839Y240522D01*
X375767D01*
Y244450D01*
D02*
G37*
G36*
X356567D02*
Y240522D01*
X360495D01*
X360399Y241256D01*
X359961Y242313D01*
X359265Y243220D01*
X358357Y243916D01*
X357301Y244354D01*
X356567Y244450D01*
D02*
G37*
G36*
X355767D02*
X355033Y244354D01*
X353976Y243916D01*
X353069Y243220D01*
X352373Y242313D01*
X351935Y241256D01*
X351839Y240522D01*
X355767D01*
Y244450D01*
D02*
G37*
G36*
X525995Y239722D02*
X522067D01*
Y235794D01*
X522801Y235890D01*
X523857Y236328D01*
X524765Y237024D01*
X525461Y237932D01*
X525899Y238988D01*
X525995Y239722D01*
D02*
G37*
G36*
X521267D02*
X517339D01*
X517435Y238988D01*
X517873Y237932D01*
X518569Y237024D01*
X519476Y236328D01*
X520533Y235890D01*
X521267Y235794D01*
Y239722D01*
D02*
G37*
G36*
X380495D02*
X376567D01*
Y235794D01*
X377301Y235890D01*
X378357Y236328D01*
X379265Y237024D01*
X379961Y237932D01*
X380399Y238988D01*
X380495Y239722D01*
D02*
G37*
G36*
X375767D02*
X371839D01*
X371935Y238988D01*
X372373Y237932D01*
X373069Y237024D01*
X373976Y236328D01*
X375033Y235890D01*
X375767Y235794D01*
Y239722D01*
D02*
G37*
G36*
X360495D02*
X356567D01*
Y235794D01*
X357301Y235890D01*
X358357Y236328D01*
X359265Y237024D01*
X359961Y237932D01*
X360399Y238988D01*
X360495Y239722D01*
D02*
G37*
G36*
X355767D02*
X351839D01*
X351935Y238988D01*
X352373Y237932D01*
X353069Y237024D01*
X353976Y236328D01*
X355033Y235890D01*
X355767Y235794D01*
Y239722D01*
D02*
G37*
G36*
X501667Y244503D02*
X500533Y244354D01*
X499476Y243916D01*
X498569Y243220D01*
X497873Y242313D01*
X497435Y241256D01*
X497286Y240122D01*
X497435Y238988D01*
X497873Y237932D01*
X498569Y237024D01*
X499476Y236328D01*
X500533Y235890D01*
X501667Y235741D01*
X502801Y235890D01*
X503857Y236328D01*
X504765Y237024D01*
X505461Y237932D01*
X505899Y238988D01*
X506048Y240122D01*
X505899Y241256D01*
X505461Y242313D01*
X504765Y243220D01*
X503857Y243916D01*
X502801Y244354D01*
X501667Y244503D01*
D02*
G37*
G36*
X481667D02*
X480533Y244354D01*
X479476Y243916D01*
X478569Y243220D01*
X477873Y242313D01*
X477435Y241256D01*
X477286Y240122D01*
X477435Y238988D01*
X477873Y237932D01*
X478569Y237024D01*
X479476Y236328D01*
X480533Y235890D01*
X481667Y235741D01*
X482801Y235890D01*
X483857Y236328D01*
X484765Y237024D01*
X485461Y237932D01*
X485899Y238988D01*
X486048Y240122D01*
X485899Y241256D01*
X485461Y242313D01*
X484765Y243220D01*
X483857Y243916D01*
X482801Y244354D01*
X481667Y244503D01*
D02*
G37*
G36*
X336167D02*
X335033Y244354D01*
X333976Y243916D01*
X333069Y243220D01*
X332373Y242313D01*
X331935Y241256D01*
X331786Y240122D01*
X331935Y238988D01*
X332373Y237932D01*
X333069Y237024D01*
X333976Y236328D01*
X335033Y235890D01*
X336167Y235741D01*
X337301Y235890D01*
X338357Y236328D01*
X339265Y237024D01*
X339961Y237932D01*
X340399Y238988D01*
X340548Y240122D01*
X340399Y241256D01*
X339961Y242313D01*
X339265Y243220D01*
X338357Y243916D01*
X337301Y244354D01*
X336167Y244503D01*
D02*
G37*
G36*
X410050Y225288D02*
X409201Y225118D01*
X408480Y224637D01*
X408317Y224392D01*
X401999D01*
X401836Y224637D01*
X401115Y225118D01*
X400266Y225288D01*
X399416Y225118D01*
X398695Y224637D01*
X398214Y223917D01*
X398045Y223067D01*
X398214Y222217D01*
X398695Y221497D01*
X399416Y221015D01*
X400266Y220846D01*
X401115Y221015D01*
X401836Y221497D01*
X401999Y221742D01*
X408317D01*
X408480Y221497D01*
X409201Y221015D01*
X410050Y220846D01*
X410900Y221015D01*
X411621Y221497D01*
X412102Y222217D01*
X412271Y223067D01*
X412102Y223917D01*
X411621Y224637D01*
X410900Y225118D01*
X410050Y225288D01*
D02*
G37*
G36*
X363073Y217696D02*
X362223Y217527D01*
X361503Y217046D01*
X361022Y216325D01*
X360853Y215476D01*
X360910Y215187D01*
X358961Y213238D01*
X358674Y212808D01*
X358573Y212301D01*
Y195851D01*
X358328Y195688D01*
X357847Y194967D01*
X357678Y194117D01*
X357847Y193268D01*
X358328Y192547D01*
X359049Y192066D01*
X359898Y191897D01*
X360748Y192066D01*
X361469Y192547D01*
X361950Y193268D01*
X362119Y194117D01*
X361950Y194967D01*
X361469Y195688D01*
X361224Y195851D01*
Y211752D01*
X362785Y213312D01*
X363073Y213255D01*
X363923Y213424D01*
X364643Y213905D01*
X365125Y214626D01*
X365294Y215476D01*
X365125Y216325D01*
X364643Y217046D01*
X363923Y217527D01*
X363073Y217696D01*
D02*
G37*
G36*
X506958Y178898D02*
X506109Y178728D01*
X505388Y178247D01*
X504907Y177527D01*
X504738Y176677D01*
X504907Y175827D01*
X505388Y175107D01*
X505633Y174943D01*
Y168797D01*
X505388Y168633D01*
X504907Y167913D01*
X504738Y167063D01*
X504907Y166213D01*
X505388Y165493D01*
X506109Y165011D01*
X506958Y164842D01*
X507808Y165011D01*
X508529Y165493D01*
X509010Y166213D01*
X509179Y167063D01*
X509010Y167913D01*
X508529Y168633D01*
X508284Y168797D01*
Y174943D01*
X508529Y175107D01*
X509010Y175827D01*
X509179Y176677D01*
X509010Y177527D01*
X508529Y178247D01*
X507808Y178728D01*
X506958Y178898D01*
D02*
G37*
G36*
X371623Y148221D02*
X370774Y148052D01*
X370053Y147570D01*
X369572Y146850D01*
X369403Y146000D01*
X369460Y145711D01*
X355230Y131481D01*
X354942Y131051D01*
X354841Y130543D01*
Y124774D01*
X353976Y124416D01*
X353069Y123720D01*
X352373Y122813D01*
X351935Y121756D01*
X351786Y120622D01*
X351935Y119488D01*
X352373Y118432D01*
X353069Y117524D01*
X353976Y116828D01*
X355033Y116390D01*
X356167Y116241D01*
X357301Y116390D01*
X358357Y116828D01*
X359265Y117524D01*
X359961Y118432D01*
X360399Y119488D01*
X360548Y120622D01*
X360399Y121756D01*
X359961Y122813D01*
X359265Y123720D01*
X358357Y124416D01*
X357492Y124774D01*
Y129994D01*
X371335Y143837D01*
X371623Y143779D01*
X372473Y143948D01*
X373194Y144430D01*
X373675Y145150D01*
X373844Y146000D01*
X373675Y146850D01*
X373194Y147570D01*
X372473Y148052D01*
X371623Y148221D01*
D02*
G37*
G36*
X357943Y161213D02*
X357093Y161044D01*
X356372Y160562D01*
X355891Y159842D01*
X355722Y158992D01*
X355891Y158142D01*
X356372Y157422D01*
X357093Y156941D01*
X357943Y156772D01*
X358792Y156941D01*
X359513Y157422D01*
X359676Y157667D01*
X374341D01*
X386834Y145174D01*
Y141730D01*
X386589Y141566D01*
X386107Y140846D01*
X385939Y139996D01*
X386107Y139146D01*
X386589Y138426D01*
X387309Y137944D01*
X388159Y137776D01*
X389009Y137944D01*
X389729Y138426D01*
X390211Y139146D01*
X390380Y139996D01*
X390211Y140846D01*
X389729Y141566D01*
X389485Y141730D01*
Y145723D01*
X389384Y146230D01*
X389096Y146660D01*
X375827Y159929D01*
X375397Y160217D01*
X374890Y160318D01*
X359676D01*
X359513Y160562D01*
X358792Y161044D01*
X357943Y161213D01*
D02*
G37*
G36*
X400266Y174992D02*
X399416Y174823D01*
X398695Y174342D01*
X398214Y173621D01*
X398045Y172772D01*
X398214Y171922D01*
X398695Y171202D01*
X398940Y171038D01*
Y124600D01*
X391007Y116667D01*
X390718Y116725D01*
X389868Y116556D01*
X389148Y116074D01*
X388667Y115354D01*
X388497Y114504D01*
X388667Y113654D01*
X389148Y112934D01*
X389868Y112452D01*
X390718Y112283D01*
X391568Y112452D01*
X392288Y112934D01*
X392770Y113654D01*
X392939Y114504D01*
X392881Y114793D01*
X401203Y123114D01*
X401490Y123544D01*
X401591Y124051D01*
Y171038D01*
X401836Y171202D01*
X402317Y171922D01*
X402486Y172772D01*
X402317Y173621D01*
X401836Y174342D01*
X401115Y174823D01*
X400266Y174992D01*
D02*
G37*
G36*
X521667Y125003D02*
X520533Y124854D01*
X519476Y124416D01*
X518569Y123720D01*
X517873Y122813D01*
X517435Y121756D01*
X517286Y120622D01*
X517435Y119488D01*
X517873Y118432D01*
X518569Y117524D01*
X519476Y116828D01*
X520533Y116390D01*
X521667Y116241D01*
X522801Y116390D01*
X523857Y116828D01*
X524765Y117524D01*
X525461Y118432D01*
X525899Y119488D01*
X526048Y120622D01*
X525899Y121756D01*
X525461Y122813D01*
X524765Y123720D01*
X523857Y124416D01*
X522801Y124854D01*
X521667Y125003D01*
D02*
G37*
G36*
X501667D02*
X500533Y124854D01*
X499476Y124416D01*
X498569Y123720D01*
X497873Y122813D01*
X497435Y121756D01*
X497286Y120622D01*
X497435Y119488D01*
X497873Y118432D01*
X498569Y117524D01*
X499476Y116828D01*
X500533Y116390D01*
X501667Y116241D01*
X502801Y116390D01*
X503857Y116828D01*
X504765Y117524D01*
X505461Y118432D01*
X505899Y119488D01*
X506048Y120622D01*
X505899Y121756D01*
X505461Y122813D01*
X504765Y123720D01*
X503857Y124416D01*
X502801Y124854D01*
X501667Y125003D01*
D02*
G37*
G36*
X481667D02*
X480533Y124854D01*
X479476Y124416D01*
X478569Y123720D01*
X477873Y122813D01*
X477435Y121756D01*
X477286Y120622D01*
X477435Y119488D01*
X477873Y118432D01*
X478569Y117524D01*
X479476Y116828D01*
X480533Y116390D01*
X481667Y116241D01*
X482801Y116390D01*
X483857Y116828D01*
X484765Y117524D01*
X485461Y118432D01*
X485899Y119488D01*
X486048Y120622D01*
X485899Y121756D01*
X485461Y122813D01*
X484765Y123720D01*
X483857Y124416D01*
X482801Y124854D01*
X481667Y125003D01*
D02*
G37*
G36*
X376167D02*
X375033Y124854D01*
X373976Y124416D01*
X373069Y123720D01*
X372373Y122813D01*
X371935Y121756D01*
X371786Y120622D01*
X371935Y119488D01*
X372373Y118432D01*
X373069Y117524D01*
X373976Y116828D01*
X375033Y116390D01*
X376167Y116241D01*
X377301Y116390D01*
X378357Y116828D01*
X379265Y117524D01*
X379961Y118432D01*
X380399Y119488D01*
X380548Y120622D01*
X380399Y121756D01*
X379961Y122813D01*
X379265Y123720D01*
X378357Y124416D01*
X377301Y124854D01*
X376167Y125003D01*
D02*
G37*
G36*
X336167D02*
X335033Y124854D01*
X333976Y124416D01*
X333069Y123720D01*
X332373Y122813D01*
X331935Y121756D01*
X331786Y120622D01*
X331935Y119488D01*
X332373Y118432D01*
X333069Y117524D01*
X333976Y116828D01*
X335033Y116390D01*
X336167Y116241D01*
X337301Y116390D01*
X338357Y116828D01*
X339265Y117524D01*
X339961Y118432D01*
X340399Y119488D01*
X340548Y120622D01*
X340399Y121756D01*
X339961Y122813D01*
X339265Y123720D01*
X338357Y124416D01*
X337301Y124854D01*
X336167Y125003D01*
D02*
G37*
G36*
X405187Y170169D02*
X404337Y170000D01*
X403616Y169519D01*
X403135Y168799D01*
X402966Y167949D01*
X403135Y167099D01*
X403616Y166379D01*
X403861Y166215D01*
Y122927D01*
X399427Y118492D01*
X399139Y118062D01*
X399038Y117555D01*
Y114165D01*
X398794Y114002D01*
X398312Y113281D01*
X398143Y112432D01*
X398312Y111582D01*
X398794Y110861D01*
X399514Y110380D01*
X400364Y110211D01*
X401214Y110380D01*
X401934Y110861D01*
X402415Y111582D01*
X402584Y112432D01*
X402415Y113281D01*
X401934Y114002D01*
X401689Y114165D01*
Y117006D01*
X406124Y121441D01*
X406411Y121871D01*
X406512Y122378D01*
Y166215D01*
X406757Y166379D01*
X407238Y167099D01*
X407407Y167949D01*
X407238Y168799D01*
X406757Y169519D01*
X406036Y170000D01*
X405187Y170169D01*
D02*
G37*
G36*
X452529Y172616D02*
X451534Y172418D01*
X450691Y171854D01*
X450127Y171011D01*
X449929Y170016D01*
X450127Y169021D01*
X450490Y168478D01*
Y123165D01*
X450645Y122385D01*
X451087Y121723D01*
X465064Y107747D01*
X465725Y107305D01*
X466505Y107150D01*
X491495D01*
X492665Y105980D01*
X492792Y105340D01*
X493356Y104496D01*
X494199Y103933D01*
X495194Y103735D01*
X496189Y103933D01*
X497033Y104496D01*
X497596Y105340D01*
X497794Y106335D01*
X497596Y107330D01*
X497033Y108173D01*
X496189Y108737D01*
X495549Y108864D01*
X493782Y110631D01*
X493120Y111073D01*
X492340Y111228D01*
X467350D01*
X454568Y124010D01*
Y168478D01*
X454931Y169021D01*
X455129Y170016D01*
X454931Y171011D01*
X454368Y171854D01*
X453524Y172418D01*
X452529Y172616D01*
D02*
G37*
G36*
X499427Y67961D02*
X493103D01*
Y61637D01*
X499427D01*
Y67961D01*
D02*
G37*
G36*
X476264Y67989D02*
X475439Y67880D01*
X474670Y67561D01*
X474009Y67054D01*
X473502Y66394D01*
X473184Y65625D01*
X473075Y64799D01*
X473184Y63974D01*
X473502Y63205D01*
X474009Y62544D01*
X474670Y62037D01*
X475439Y61719D01*
X476264Y61610D01*
X477090Y61719D01*
X477859Y62037D01*
X478520Y62544D01*
X479027Y63205D01*
X479345Y63974D01*
X479454Y64799D01*
X479345Y65625D01*
X479027Y66394D01*
X478520Y67054D01*
X477859Y67561D01*
X477090Y67880D01*
X476264Y67989D01*
D02*
G37*
G36*
X521420Y64249D02*
Y60869D01*
X524800D01*
X524722Y61461D01*
X524339Y62385D01*
X523730Y63179D01*
X522936Y63788D01*
X522012Y64171D01*
X521420Y64249D01*
D02*
G37*
G36*
X520620D02*
X520028Y64171D01*
X519103Y63788D01*
X518309Y63179D01*
X517700Y62385D01*
X517317Y61461D01*
X517240Y60869D01*
X520620D01*
Y64249D01*
D02*
G37*
G36*
X352693Y64052D02*
Y60672D01*
X356073D01*
X355995Y61264D01*
X355612Y62188D01*
X355003Y62982D01*
X354209Y63591D01*
X353285Y63974D01*
X352693Y64052D01*
D02*
G37*
G36*
X351893D02*
X351301Y63974D01*
X350377Y63591D01*
X349583Y62982D01*
X348974Y62188D01*
X348591Y61264D01*
X348513Y60672D01*
X351893D01*
Y64052D01*
D02*
G37*
G36*
X524800Y60069D02*
X521420D01*
Y56688D01*
X522012Y56766D01*
X522936Y57149D01*
X523730Y57758D01*
X524339Y58552D01*
X524722Y59477D01*
X524800Y60069D01*
D02*
G37*
G36*
X520620D02*
X517240D01*
X517317Y59477D01*
X517700Y58552D01*
X518309Y57758D01*
X519103Y57149D01*
X520028Y56766D01*
X520620Y56688D01*
Y60069D01*
D02*
G37*
G36*
X511020Y64301D02*
X510028Y64171D01*
X509103Y63788D01*
X508310Y63179D01*
X507700Y62385D01*
X507317Y61461D01*
X507187Y60469D01*
X507317Y59477D01*
X507700Y58552D01*
X508310Y57758D01*
X509103Y57149D01*
X510028Y56766D01*
X511020Y56636D01*
X512012Y56766D01*
X512936Y57149D01*
X513730Y57758D01*
X514339Y58552D01*
X514722Y59477D01*
X514853Y60469D01*
X514722Y61461D01*
X514339Y62385D01*
X513730Y63179D01*
X512936Y63788D01*
X512012Y64171D01*
X511020Y64301D01*
D02*
G37*
G36*
X356073Y59872D02*
X352693D01*
Y56492D01*
X353285Y56569D01*
X354209Y56952D01*
X355003Y57561D01*
X355612Y58355D01*
X355995Y59280D01*
X356073Y59872D01*
D02*
G37*
G36*
X351893D02*
X348513D01*
X348591Y59280D01*
X348974Y58355D01*
X349583Y57561D01*
X350377Y56952D01*
X351301Y56569D01*
X351893Y56492D01*
Y59872D01*
D02*
G37*
G36*
X342293Y64104D02*
X341301Y63974D01*
X340376Y63591D01*
X339583Y62982D01*
X338974Y62188D01*
X338591Y61264D01*
X338460Y60272D01*
X338591Y59280D01*
X338974Y58355D01*
X339583Y57561D01*
X340376Y56952D01*
X341301Y56569D01*
X342293Y56439D01*
X343285Y56569D01*
X344209Y56952D01*
X345003Y57561D01*
X345612Y58355D01*
X345995Y59280D01*
X346126Y60272D01*
X345995Y61264D01*
X345612Y62188D01*
X345003Y62982D01*
X344209Y63591D01*
X343285Y63974D01*
X342293Y64104D01*
D02*
G37*
G36*
X453008Y60024D02*
Y56341D01*
X456691D01*
X456602Y57011D01*
X456189Y58009D01*
X455532Y58865D01*
X454676Y59522D01*
X453678Y59935D01*
X453008Y60024D01*
D02*
G37*
G36*
X452208D02*
X451538Y59935D01*
X450540Y59522D01*
X449684Y58865D01*
X449026Y58009D01*
X448613Y57011D01*
X448525Y56341D01*
X452208D01*
Y60024D01*
D02*
G37*
G36*
X430375Y60175D02*
X429304Y60034D01*
X428307Y59621D01*
X427450Y58964D01*
X426793Y58107D01*
X426380Y57110D01*
X426239Y56039D01*
X426380Y54969D01*
X426793Y53972D01*
X427450Y53115D01*
X428307Y52458D01*
X429304Y52045D01*
X430375Y51904D01*
X431445Y52045D01*
X432442Y52458D01*
X433299Y53115D01*
X433956Y53972D01*
X434369Y54969D01*
X434510Y56039D01*
X434369Y57110D01*
X433956Y58107D01*
X433299Y58964D01*
X432442Y59621D01*
X431445Y60034D01*
X430375Y60175D01*
D02*
G37*
G36*
X420375D02*
X419304Y60034D01*
X418307Y59621D01*
X417450Y58964D01*
X416793Y58107D01*
X416380Y57110D01*
X416239Y56039D01*
X416380Y54969D01*
X416793Y53972D01*
X417450Y53115D01*
X418307Y52458D01*
X419304Y52045D01*
X420375Y51904D01*
X421445Y52045D01*
X422442Y52458D01*
X423299Y53115D01*
X423956Y53972D01*
X424369Y54969D01*
X424510Y56039D01*
X424369Y57110D01*
X423956Y58107D01*
X423299Y58964D01*
X422442Y59621D01*
X421445Y60034D01*
X420375Y60175D01*
D02*
G37*
G36*
X410375D02*
X409304Y60034D01*
X408307Y59621D01*
X407450Y58964D01*
X406793Y58107D01*
X406380Y57110D01*
X406239Y56039D01*
X406380Y54969D01*
X406793Y53972D01*
X407450Y53115D01*
X408307Y52458D01*
X409304Y52045D01*
X410375Y51904D01*
X411445Y52045D01*
X412442Y52458D01*
X413299Y53115D01*
X413956Y53972D01*
X414369Y54969D01*
X414510Y56039D01*
X414369Y57110D01*
X413956Y58107D01*
X413299Y58964D01*
X412442Y59621D01*
X411445Y60034D01*
X410375Y60175D01*
D02*
G37*
G36*
X400375D02*
X399304Y60034D01*
X398307Y59621D01*
X397450Y58964D01*
X396793Y58107D01*
X396380Y57110D01*
X396239Y56039D01*
X396380Y54969D01*
X396793Y53972D01*
X397450Y53115D01*
X398307Y52458D01*
X399304Y52045D01*
X400375Y51904D01*
X401445Y52045D01*
X402442Y52458D01*
X403299Y53115D01*
X403956Y53972D01*
X404369Y54969D01*
X404510Y56039D01*
X404369Y57110D01*
X403956Y58107D01*
X403299Y58964D01*
X402442Y59621D01*
X401445Y60034D01*
X400375Y60175D01*
D02*
G37*
G36*
X456691Y55541D02*
X453008D01*
Y51858D01*
X453678Y51947D01*
X454676Y52360D01*
X455532Y53017D01*
X456189Y53873D01*
X456602Y54871D01*
X456691Y55541D01*
D02*
G37*
G36*
X452208D02*
X448525D01*
X448613Y54871D01*
X449026Y53873D01*
X449684Y53017D01*
X450540Y52360D01*
X451538Y51947D01*
X452208Y51858D01*
Y55541D01*
D02*
G37*
G36*
X442608Y60076D02*
X441538Y59935D01*
X440540Y59522D01*
X439684Y58865D01*
X439026Y58009D01*
X438613Y57011D01*
X438473Y55941D01*
X438613Y54871D01*
X439026Y53873D01*
X439684Y53017D01*
X440540Y52360D01*
X441538Y51947D01*
X442608Y51806D01*
X443678Y51947D01*
X444676Y52360D01*
X445532Y53017D01*
X446189Y53873D01*
X446602Y54871D01*
X446743Y55941D01*
X446602Y57011D01*
X446189Y58009D01*
X445532Y58865D01*
X444676Y59522D01*
X443678Y59935D01*
X442608Y60076D01*
D02*
G37*
G36*
X486265Y57989D02*
X485439Y57880D01*
X484670Y57561D01*
X484009Y57054D01*
X483502Y56394D01*
X483184Y55625D01*
X483075Y54799D01*
X483184Y53974D01*
X483502Y53205D01*
X484009Y52544D01*
X484670Y52037D01*
X485439Y51719D01*
X486265Y51610D01*
X487090Y51719D01*
X487859Y52037D01*
X488520Y52544D01*
X489026Y53205D01*
X489345Y53974D01*
X489454Y54799D01*
X489345Y55625D01*
X489026Y56394D01*
X488520Y57054D01*
X487859Y57561D01*
X487090Y57880D01*
X486265Y57989D01*
D02*
G37*
G36*
X180108Y341646D02*
Y337122D01*
X184632D01*
X184515Y338010D01*
X184018Y339210D01*
X183227Y340241D01*
X182196Y341032D01*
X180996Y341529D01*
X180108Y341646D01*
D02*
G37*
G36*
X70889D02*
Y337122D01*
X75413D01*
X75296Y338010D01*
X74799Y339210D01*
X74008Y340241D01*
X72977Y341032D01*
X71777Y341529D01*
X70889Y341646D01*
D02*
G37*
G36*
X179308D02*
X178420Y341529D01*
X177219Y341032D01*
X176189Y340241D01*
X175398Y339210D01*
X174901Y338010D01*
X174784Y337122D01*
X179308D01*
Y341646D01*
D02*
G37*
G36*
X184632Y336322D02*
X180108D01*
Y331798D01*
X180996Y331915D01*
X182196Y332412D01*
X183227Y333203D01*
X184018Y334234D01*
X184515Y335434D01*
X184632Y336322D01*
D02*
G37*
G36*
X75413D02*
X70889D01*
Y331798D01*
X71777Y331915D01*
X72977Y332412D01*
X74008Y333203D01*
X74799Y334234D01*
X75296Y335434D01*
X75413Y336322D01*
D02*
G37*
G36*
X179308D02*
X174784D01*
X174901Y335434D01*
X175398Y334234D01*
X176189Y333203D01*
X177219Y332412D01*
X178420Y331915D01*
X179308Y331798D01*
Y336322D01*
D02*
G37*
G36*
X134387Y341699D02*
X133099Y341529D01*
X131898Y341032D01*
X130868Y340241D01*
X130077Y339210D01*
X129580Y338010D01*
X129410Y336722D01*
X129580Y335434D01*
X130077Y334234D01*
X130868Y333203D01*
X131898Y332412D01*
X133099Y331915D01*
X134387Y331746D01*
X135675Y331915D01*
X136875Y332412D01*
X137906Y333203D01*
X138697Y334234D01*
X139194Y335434D01*
X139363Y336722D01*
X139194Y338010D01*
X138697Y339210D01*
X137906Y340241D01*
X136875Y341032D01*
X135675Y341529D01*
X134387Y341699D01*
D02*
G37*
G36*
X243606Y316699D02*
X242318Y316529D01*
X241118Y316032D01*
X240087Y315241D01*
X239296Y314210D01*
X238799Y313010D01*
X238629Y311722D01*
X238799Y310434D01*
X239296Y309234D01*
X240087Y308203D01*
X241118Y307412D01*
X242318Y306915D01*
X243606Y306746D01*
X244894Y306915D01*
X246094Y307412D01*
X247125Y308203D01*
X247916Y309234D01*
X248413Y310434D01*
X248582Y311722D01*
X248413Y313010D01*
X247916Y314210D01*
X247125Y315241D01*
X246094Y316032D01*
X244894Y316529D01*
X243606Y316699D01*
D02*
G37*
G36*
X179708D02*
X178420Y316529D01*
X177219Y316032D01*
X176189Y315241D01*
X175398Y314210D01*
X174901Y313010D01*
X174731Y311722D01*
X174901Y310434D01*
X175398Y309234D01*
X176189Y308203D01*
X177219Y307412D01*
X178420Y306915D01*
X179708Y306746D01*
X180996Y306915D01*
X182196Y307412D01*
X183227Y308203D01*
X184018Y309234D01*
X184515Y310434D01*
X184684Y311722D01*
X184515Y313010D01*
X184018Y314210D01*
X183227Y315241D01*
X182196Y316032D01*
X180996Y316529D01*
X179708Y316699D01*
D02*
G37*
G36*
X134387D02*
X133099Y316529D01*
X131898Y316032D01*
X130868Y315241D01*
X130077Y314210D01*
X129580Y313010D01*
X129410Y311722D01*
X129580Y310434D01*
X130077Y309234D01*
X130868Y308203D01*
X131898Y307412D01*
X133099Y306915D01*
X134387Y306746D01*
X135675Y306915D01*
X136875Y307412D01*
X137906Y308203D01*
X138697Y309234D01*
X139194Y310434D01*
X139363Y311722D01*
X139194Y313010D01*
X138697Y314210D01*
X137906Y315241D01*
X136875Y316032D01*
X135675Y316529D01*
X134387Y316699D01*
D02*
G37*
G36*
X70489D02*
X69201Y316529D01*
X68001Y316032D01*
X66970Y315241D01*
X66179Y314210D01*
X65682Y313010D01*
X65512Y311722D01*
X65682Y310434D01*
X66179Y309234D01*
X66970Y308203D01*
X68001Y307412D01*
X69201Y306915D01*
X70489Y306746D01*
X71777Y306915D01*
X72977Y307412D01*
X74008Y308203D01*
X74799Y309234D01*
X75296Y310434D01*
X75465Y311722D01*
X75296Y313010D01*
X74799Y314210D01*
X74008Y315241D01*
X72977Y316032D01*
X71777Y316529D01*
X70489Y316699D01*
D02*
G37*
G36*
X153237Y284655D02*
Y282239D01*
X155653D01*
X155356Y282956D01*
X154747Y283750D01*
X153953Y284359D01*
X153237Y284655D01*
D02*
G37*
G36*
X150837D02*
X150121Y284359D01*
X149327Y283750D01*
X148718Y282956D01*
X148421Y282239D01*
X150837D01*
Y284655D01*
D02*
G37*
G36*
X243606Y291699D02*
X242318Y291529D01*
X241118Y291032D01*
X240087Y290241D01*
X239296Y289210D01*
X238799Y288010D01*
X238629Y286722D01*
X238799Y285434D01*
X239296Y284234D01*
X240087Y283203D01*
X241118Y282412D01*
X242318Y281915D01*
X243606Y281746D01*
X244894Y281915D01*
X246094Y282412D01*
X247125Y283203D01*
X247916Y284234D01*
X248413Y285434D01*
X248582Y286722D01*
X248413Y288010D01*
X247916Y289210D01*
X247125Y290241D01*
X246094Y291032D01*
X244894Y291529D01*
X243606Y291699D01*
D02*
G37*
G36*
X179708D02*
X178420Y291529D01*
X177219Y291032D01*
X176189Y290241D01*
X175398Y289210D01*
X174901Y288010D01*
X174731Y286722D01*
X174901Y285434D01*
X175382Y284271D01*
X165251Y274140D01*
X164963Y274198D01*
X164113Y274028D01*
X163392Y273547D01*
X162911Y272827D01*
X162742Y271977D01*
X162911Y271127D01*
X163392Y270407D01*
X164113Y269925D01*
X164963Y269756D01*
X165813Y269925D01*
X166533Y270407D01*
X167014Y271127D01*
X167183Y271977D01*
X167126Y272266D01*
X177257Y282397D01*
X178420Y281915D01*
X179708Y281746D01*
X180996Y281915D01*
X182196Y282412D01*
X183227Y283203D01*
X184018Y284234D01*
X184515Y285434D01*
X184684Y286722D01*
X184515Y288010D01*
X184018Y289210D01*
X183227Y290241D01*
X182196Y291032D01*
X180996Y291529D01*
X179708Y291699D01*
D02*
G37*
G36*
X134387D02*
X133099Y291529D01*
X131898Y291032D01*
X130868Y290241D01*
X130077Y289210D01*
X129580Y288010D01*
X129410Y286722D01*
X129580Y285434D01*
X130077Y284234D01*
X130868Y283203D01*
X131898Y282412D01*
X133099Y281915D01*
X134387Y281746D01*
X135675Y281915D01*
X136875Y282412D01*
X137906Y283203D01*
X138697Y284234D01*
X139194Y285434D01*
X139363Y286722D01*
X139194Y288010D01*
X138697Y289210D01*
X137906Y290241D01*
X136875Y291032D01*
X135675Y291529D01*
X134387Y291699D01*
D02*
G37*
G36*
X155653Y279839D02*
X153237D01*
Y277423D01*
X153953Y277720D01*
X154747Y278329D01*
X155356Y279123D01*
X155653Y279839D01*
D02*
G37*
G36*
X150837D02*
X148421D01*
X148718Y279123D01*
X149327Y278329D01*
X150121Y277720D01*
X150837Y277423D01*
Y279839D01*
D02*
G37*
G36*
X162037Y284872D02*
X161045Y284742D01*
X160121Y284359D01*
X159327Y283750D01*
X158718Y282956D01*
X158335Y282031D01*
X158204Y281039D01*
X158335Y280047D01*
X158718Y279123D01*
X159327Y278329D01*
X160121Y277720D01*
X161045Y277337D01*
X162037Y277207D01*
X163029Y277337D01*
X163953Y277720D01*
X164747Y278329D01*
X165356Y279123D01*
X165739Y280047D01*
X165870Y281039D01*
X165739Y282031D01*
X165356Y282956D01*
X164747Y283750D01*
X163953Y284359D01*
X163029Y284742D01*
X162037Y284872D01*
D02*
G37*
G36*
X188417Y269087D02*
X187567Y268918D01*
X186847Y268436D01*
X186683Y268192D01*
X161723D01*
X161560Y268436D01*
X160839Y268918D01*
X159990Y269087D01*
X159140Y268918D01*
X158420Y268436D01*
X157938Y267716D01*
X157769Y266866D01*
X157938Y266016D01*
X158420Y265296D01*
X159140Y264815D01*
X159990Y264646D01*
X160839Y264815D01*
X161560Y265296D01*
X161723Y265541D01*
X186683D01*
X186847Y265296D01*
X187567Y264815D01*
X188417Y264646D01*
X189267Y264815D01*
X189987Y265296D01*
X190468Y266016D01*
X190637Y266866D01*
X190468Y267716D01*
X189987Y268436D01*
X189267Y268918D01*
X188417Y269087D01*
D02*
G37*
G36*
X70489Y291699D02*
X69201Y291529D01*
X68001Y291032D01*
X66970Y290241D01*
X66179Y289210D01*
X65682Y288010D01*
X65512Y286722D01*
X65682Y285434D01*
X66179Y284234D01*
X66970Y283203D01*
X68001Y282412D01*
X69201Y281915D01*
X70489Y281746D01*
X71777Y281915D01*
X72940Y282397D01*
X103457Y251879D01*
X103400Y251591D01*
X103569Y250741D01*
X104050Y250020D01*
X104771Y249539D01*
X105620Y249370D01*
X106470Y249539D01*
X107191Y250020D01*
X107672Y250741D01*
X107841Y251591D01*
X107672Y252440D01*
X107191Y253161D01*
X106470Y253642D01*
X105620Y253811D01*
X105332Y253754D01*
X74814Y284271D01*
X75296Y285434D01*
X75465Y286722D01*
X75296Y288010D01*
X74799Y289210D01*
X74008Y290241D01*
X72977Y291032D01*
X71777Y291529D01*
X70489Y291699D01*
D02*
G37*
G36*
X250197Y244450D02*
Y240522D01*
X254125D01*
X254029Y241256D01*
X253591Y242313D01*
X252895Y243220D01*
X251987Y243916D01*
X250931Y244354D01*
X250197Y244450D01*
D02*
G37*
G36*
X249397D02*
X248663Y244354D01*
X247606Y243916D01*
X246699Y243220D01*
X246003Y242313D01*
X245565Y241256D01*
X245468Y240522D01*
X249397D01*
Y244450D01*
D02*
G37*
G36*
X104697D02*
Y240522D01*
X108625D01*
X108528Y241256D01*
X108091Y242313D01*
X107395Y243220D01*
X106487Y243916D01*
X105431Y244354D01*
X104697Y244450D01*
D02*
G37*
G36*
X103897D02*
X103163Y244354D01*
X102106Y243916D01*
X101199Y243220D01*
X100503Y242313D01*
X100065Y241256D01*
X99968Y240522D01*
X103897D01*
Y244450D01*
D02*
G37*
G36*
X84697D02*
Y240522D01*
X88625D01*
X88529Y241256D01*
X88091Y242313D01*
X87395Y243220D01*
X86487Y243916D01*
X85431Y244354D01*
X84697Y244450D01*
D02*
G37*
G36*
X83897D02*
X83163Y244354D01*
X82106Y243916D01*
X81199Y243220D01*
X80503Y242313D01*
X80065Y241256D01*
X79969Y240522D01*
X83897D01*
Y244450D01*
D02*
G37*
G36*
X254125Y239722D02*
X250197D01*
Y235794D01*
X250931Y235890D01*
X251987Y236328D01*
X252895Y237024D01*
X253591Y237932D01*
X254029Y238988D01*
X254125Y239722D01*
D02*
G37*
G36*
X249397D02*
X245468D01*
X245565Y238988D01*
X246003Y237932D01*
X246699Y237024D01*
X247606Y236328D01*
X248663Y235890D01*
X249397Y235794D01*
Y239722D01*
D02*
G37*
G36*
X108625D02*
X104697D01*
Y235794D01*
X105431Y235890D01*
X106487Y236328D01*
X107395Y237024D01*
X108091Y237932D01*
X108528Y238988D01*
X108625Y239722D01*
D02*
G37*
G36*
X103897D02*
X99968D01*
X100065Y238988D01*
X100503Y237932D01*
X101199Y237024D01*
X102106Y236328D01*
X103163Y235890D01*
X103897Y235794D01*
Y239722D01*
D02*
G37*
G36*
X88625D02*
X84697D01*
Y235794D01*
X85431Y235890D01*
X86487Y236328D01*
X87395Y237024D01*
X88091Y237932D01*
X88529Y238988D01*
X88625Y239722D01*
D02*
G37*
G36*
X83897D02*
X79969D01*
X80065Y238988D01*
X80503Y237932D01*
X81199Y237024D01*
X82106Y236328D01*
X83163Y235890D01*
X83897Y235794D01*
Y239722D01*
D02*
G37*
G36*
X229797Y244503D02*
X228663Y244354D01*
X227606Y243916D01*
X226699Y243220D01*
X226003Y242313D01*
X225565Y241256D01*
X225416Y240122D01*
X225565Y238988D01*
X226003Y237932D01*
X226699Y237024D01*
X227606Y236328D01*
X228663Y235890D01*
X229797Y235741D01*
X230931Y235890D01*
X231987Y236328D01*
X232895Y237024D01*
X233591Y237932D01*
X234029Y238988D01*
X234178Y240122D01*
X234029Y241256D01*
X233591Y242313D01*
X232895Y243220D01*
X231987Y243916D01*
X230931Y244354D01*
X229797Y244503D01*
D02*
G37*
G36*
X209797D02*
X208663Y244354D01*
X207606Y243916D01*
X206699Y243220D01*
X206003Y242313D01*
X205565Y241256D01*
X205416Y240122D01*
X205565Y238988D01*
X206003Y237932D01*
X206699Y237024D01*
X207606Y236328D01*
X208663Y235890D01*
X209797Y235741D01*
X210931Y235890D01*
X211987Y236328D01*
X212895Y237024D01*
X213591Y237932D01*
X214029Y238988D01*
X214178Y240122D01*
X214029Y241256D01*
X213591Y242313D01*
X212895Y243220D01*
X211987Y243916D01*
X210931Y244354D01*
X209797Y244503D01*
D02*
G37*
G36*
X64297D02*
X63163Y244354D01*
X62106Y243916D01*
X61199Y243220D01*
X60503Y242313D01*
X60065Y241256D01*
X59916Y240122D01*
X60065Y238988D01*
X60503Y237932D01*
X61199Y237024D01*
X62106Y236328D01*
X63163Y235890D01*
X64297Y235741D01*
X65431Y235890D01*
X66487Y236328D01*
X67395Y237024D01*
X68091Y237932D01*
X68528Y238988D01*
X68678Y240122D01*
X68528Y241256D01*
X68091Y242313D01*
X67395Y243220D01*
X66487Y243916D01*
X65431Y244354D01*
X64297Y244503D01*
D02*
G37*
G36*
X138180Y225288D02*
X137331Y225118D01*
X136610Y224637D01*
X136447Y224392D01*
X130129D01*
X129966Y224637D01*
X129245Y225118D01*
X128395Y225288D01*
X127546Y225118D01*
X126825Y224637D01*
X126344Y223917D01*
X126175Y223067D01*
X126344Y222217D01*
X126825Y221497D01*
X127546Y221015D01*
X128395Y220846D01*
X129245Y221015D01*
X129966Y221497D01*
X130129Y221742D01*
X136447D01*
X136610Y221497D01*
X137331Y221015D01*
X138180Y220846D01*
X139030Y221015D01*
X139751Y221497D01*
X140232Y222217D01*
X140401Y223067D01*
X140232Y223917D01*
X139751Y224637D01*
X139030Y225118D01*
X138180Y225288D01*
D02*
G37*
G36*
X91203Y217696D02*
X90353Y217527D01*
X89633Y217046D01*
X89152Y216325D01*
X88982Y215476D01*
X89040Y215187D01*
X87091Y213238D01*
X86804Y212808D01*
X86703Y212301D01*
Y195851D01*
X86458Y195688D01*
X85977Y194967D01*
X85808Y194117D01*
X85977Y193268D01*
X86458Y192547D01*
X87179Y192066D01*
X88028Y191897D01*
X88878Y192066D01*
X89599Y192547D01*
X90080Y193268D01*
X90249Y194117D01*
X90080Y194967D01*
X89599Y195688D01*
X89354Y195851D01*
Y211752D01*
X90914Y213312D01*
X91203Y213255D01*
X92053Y213424D01*
X92773Y213905D01*
X93255Y214626D01*
X93424Y215476D01*
X93255Y216325D01*
X92773Y217046D01*
X92053Y217527D01*
X91203Y217696D01*
D02*
G37*
G36*
X235088Y178898D02*
X234238Y178728D01*
X233518Y178247D01*
X233037Y177527D01*
X232868Y176677D01*
X233037Y175827D01*
X233518Y175107D01*
X233763Y174943D01*
Y168797D01*
X233518Y168633D01*
X233037Y167913D01*
X232868Y167063D01*
X233037Y166213D01*
X233518Y165493D01*
X234238Y165011D01*
X235088Y164842D01*
X235938Y165011D01*
X236658Y165493D01*
X237140Y166213D01*
X237309Y167063D01*
X237140Y167913D01*
X236658Y168633D01*
X236414Y168797D01*
Y174943D01*
X236658Y175107D01*
X237140Y175827D01*
X237309Y176677D01*
X237140Y177527D01*
X236658Y178247D01*
X235938Y178728D01*
X235088Y178898D01*
D02*
G37*
G36*
X99753Y148221D02*
X98904Y148052D01*
X98183Y147570D01*
X97702Y146850D01*
X97533Y146000D01*
X97590Y145711D01*
X83360Y131481D01*
X83072Y131051D01*
X82971Y130543D01*
Y124774D01*
X82106Y124416D01*
X81199Y123720D01*
X80503Y122813D01*
X80065Y121756D01*
X79916Y120622D01*
X80065Y119488D01*
X80503Y118432D01*
X81199Y117524D01*
X82106Y116828D01*
X83163Y116390D01*
X84297Y116241D01*
X85431Y116390D01*
X86487Y116828D01*
X87395Y117524D01*
X88091Y118432D01*
X88529Y119488D01*
X88678Y120622D01*
X88529Y121756D01*
X88091Y122813D01*
X87395Y123720D01*
X86487Y124416D01*
X85622Y124774D01*
Y129994D01*
X99465Y143837D01*
X99753Y143779D01*
X100603Y143948D01*
X101324Y144430D01*
X101805Y145150D01*
X101974Y146000D01*
X101805Y146850D01*
X101324Y147570D01*
X100603Y148052D01*
X99753Y148221D01*
D02*
G37*
G36*
X86072Y161213D02*
X85223Y161044D01*
X84502Y160562D01*
X84021Y159842D01*
X83852Y158992D01*
X84021Y158142D01*
X84502Y157422D01*
X85223Y156941D01*
X86072Y156772D01*
X86922Y156941D01*
X87643Y157422D01*
X87806Y157667D01*
X102471D01*
X114963Y145174D01*
Y141730D01*
X114719Y141566D01*
X114237Y140846D01*
X114068Y139996D01*
X114237Y139146D01*
X114719Y138426D01*
X115439Y137944D01*
X116289Y137776D01*
X117139Y137944D01*
X117859Y138426D01*
X118341Y139146D01*
X118510Y139996D01*
X118341Y140846D01*
X117859Y141566D01*
X117614Y141730D01*
Y145723D01*
X117514Y146230D01*
X117226Y146660D01*
X103957Y159929D01*
X103527Y160217D01*
X103020Y160318D01*
X87806D01*
X87643Y160562D01*
X86922Y161044D01*
X86072Y161213D01*
D02*
G37*
G36*
X128395Y174992D02*
X127546Y174823D01*
X126825Y174342D01*
X126344Y173621D01*
X126175Y172772D01*
X126344Y171922D01*
X126825Y171202D01*
X127070Y171038D01*
Y124600D01*
X119137Y116667D01*
X118848Y116725D01*
X117998Y116556D01*
X117278Y116074D01*
X116796Y115354D01*
X116627Y114504D01*
X116796Y113654D01*
X117278Y112934D01*
X117998Y112452D01*
X118848Y112283D01*
X119698Y112452D01*
X120418Y112934D01*
X120900Y113654D01*
X121069Y114504D01*
X121011Y114793D01*
X129333Y123114D01*
X129620Y123544D01*
X129721Y124051D01*
Y171038D01*
X129966Y171202D01*
X130447Y171922D01*
X130616Y172772D01*
X130447Y173621D01*
X129966Y174342D01*
X129245Y174823D01*
X128395Y174992D01*
D02*
G37*
G36*
X249797Y125003D02*
X248663Y124854D01*
X247606Y124416D01*
X246699Y123720D01*
X246003Y122813D01*
X245565Y121756D01*
X245416Y120622D01*
X245565Y119488D01*
X246003Y118432D01*
X246699Y117524D01*
X247606Y116828D01*
X248663Y116390D01*
X249797Y116241D01*
X250931Y116390D01*
X251987Y116828D01*
X252895Y117524D01*
X253591Y118432D01*
X254029Y119488D01*
X254178Y120622D01*
X254029Y121756D01*
X253591Y122813D01*
X252895Y123720D01*
X251987Y124416D01*
X250931Y124854D01*
X249797Y125003D01*
D02*
G37*
G36*
X229797D02*
X228663Y124854D01*
X227606Y124416D01*
X226699Y123720D01*
X226003Y122813D01*
X225565Y121756D01*
X225416Y120622D01*
X225565Y119488D01*
X226003Y118432D01*
X226699Y117524D01*
X227606Y116828D01*
X228663Y116390D01*
X229797Y116241D01*
X230931Y116390D01*
X231987Y116828D01*
X232895Y117524D01*
X233591Y118432D01*
X234029Y119488D01*
X234178Y120622D01*
X234029Y121756D01*
X233591Y122813D01*
X232895Y123720D01*
X231987Y124416D01*
X230931Y124854D01*
X229797Y125003D01*
D02*
G37*
G36*
X209797D02*
X208663Y124854D01*
X207606Y124416D01*
X206699Y123720D01*
X206003Y122813D01*
X205565Y121756D01*
X205416Y120622D01*
X205565Y119488D01*
X206003Y118432D01*
X206699Y117524D01*
X207606Y116828D01*
X208663Y116390D01*
X209797Y116241D01*
X210931Y116390D01*
X211987Y116828D01*
X212895Y117524D01*
X213591Y118432D01*
X214029Y119488D01*
X214178Y120622D01*
X214029Y121756D01*
X213591Y122813D01*
X212895Y123720D01*
X211987Y124416D01*
X210931Y124854D01*
X209797Y125003D01*
D02*
G37*
G36*
X104297D02*
X103163Y124854D01*
X102106Y124416D01*
X101199Y123720D01*
X100503Y122813D01*
X100065Y121756D01*
X99916Y120622D01*
X100065Y119488D01*
X100503Y118432D01*
X101199Y117524D01*
X102106Y116828D01*
X103163Y116390D01*
X104297Y116241D01*
X105431Y116390D01*
X106487Y116828D01*
X107395Y117524D01*
X108091Y118432D01*
X108528Y119488D01*
X108678Y120622D01*
X108528Y121756D01*
X108091Y122813D01*
X107395Y123720D01*
X106487Y124416D01*
X105431Y124854D01*
X104297Y125003D01*
D02*
G37*
G36*
X64297D02*
X63163Y124854D01*
X62106Y124416D01*
X61199Y123720D01*
X60503Y122813D01*
X60065Y121756D01*
X59916Y120622D01*
X60065Y119488D01*
X60503Y118432D01*
X61199Y117524D01*
X62106Y116828D01*
X63163Y116390D01*
X64297Y116241D01*
X65431Y116390D01*
X66487Y116828D01*
X67395Y117524D01*
X68091Y118432D01*
X68528Y119488D01*
X68678Y120622D01*
X68528Y121756D01*
X68091Y122813D01*
X67395Y123720D01*
X66487Y124416D01*
X65431Y124854D01*
X64297Y125003D01*
D02*
G37*
G36*
X133317Y170169D02*
X132467Y170000D01*
X131746Y169519D01*
X131265Y168799D01*
X131096Y167949D01*
X131265Y167099D01*
X131746Y166379D01*
X131991Y166215D01*
Y122927D01*
X127556Y118492D01*
X127269Y118062D01*
X127168Y117555D01*
Y114165D01*
X126924Y114002D01*
X126442Y113281D01*
X126273Y112432D01*
X126442Y111582D01*
X126924Y110861D01*
X127644Y110380D01*
X128494Y110211D01*
X129343Y110380D01*
X130064Y110861D01*
X130545Y111582D01*
X130714Y112432D01*
X130545Y113281D01*
X130064Y114002D01*
X129819Y114165D01*
Y117006D01*
X134254Y121441D01*
X134541Y121871D01*
X134642Y122378D01*
Y166215D01*
X134887Y166379D01*
X135368Y167099D01*
X135537Y167949D01*
X135368Y168799D01*
X134887Y169519D01*
X134166Y170000D01*
X133317Y170169D01*
D02*
G37*
G36*
X180659Y172616D02*
X179664Y172418D01*
X178821Y171854D01*
X178257Y171011D01*
X178059Y170016D01*
X178257Y169021D01*
X178620Y168478D01*
Y123165D01*
X178775Y122385D01*
X179217Y121723D01*
X193193Y107747D01*
X193855Y107305D01*
X194635Y107150D01*
X219625D01*
X220795Y105980D01*
X220922Y105340D01*
X221486Y104496D01*
X222329Y103933D01*
X223324Y103735D01*
X224319Y103933D01*
X225163Y104496D01*
X225726Y105340D01*
X225924Y106335D01*
X225726Y107330D01*
X225163Y108173D01*
X224319Y108737D01*
X223678Y108864D01*
X221912Y110631D01*
X221250Y111073D01*
X220470Y111228D01*
X195480D01*
X182698Y124010D01*
Y168478D01*
X183061Y169021D01*
X183259Y170016D01*
X183061Y171011D01*
X182498Y171854D01*
X181654Y172418D01*
X180659Y172616D01*
D02*
G37*
G36*
X227556Y67961D02*
X221232D01*
Y61637D01*
X227556D01*
Y67961D01*
D02*
G37*
G36*
X204394Y67989D02*
X203569Y67880D01*
X202800Y67561D01*
X202139Y67054D01*
X201632Y66394D01*
X201314Y65625D01*
X201205Y64799D01*
X201314Y63974D01*
X201632Y63205D01*
X202139Y62544D01*
X202800Y62037D01*
X203569Y61719D01*
X204394Y61610D01*
X205220Y61719D01*
X205989Y62037D01*
X206649Y62544D01*
X207156Y63205D01*
X207475Y63974D01*
X207584Y64799D01*
X207475Y65625D01*
X207156Y66394D01*
X206649Y67054D01*
X205989Y67561D01*
X205220Y67880D01*
X204394Y67989D01*
D02*
G37*
G36*
X249550Y64249D02*
Y60869D01*
X252930D01*
X252852Y61461D01*
X252469Y62385D01*
X251860Y63179D01*
X251066Y63788D01*
X250142Y64171D01*
X249550Y64249D01*
D02*
G37*
G36*
X248750D02*
X248158Y64171D01*
X247233Y63788D01*
X246439Y63179D01*
X245830Y62385D01*
X245447Y61461D01*
X245369Y60869D01*
X248750D01*
Y64249D01*
D02*
G37*
G36*
X80823Y64052D02*
Y60672D01*
X84203D01*
X84125Y61264D01*
X83742Y62188D01*
X83133Y62982D01*
X82339Y63591D01*
X81415Y63974D01*
X80823Y64052D01*
D02*
G37*
G36*
X80023D02*
X79431Y63974D01*
X78506Y63591D01*
X77713Y62982D01*
X77104Y62188D01*
X76721Y61264D01*
X76643Y60672D01*
X80023D01*
Y64052D01*
D02*
G37*
G36*
X252930Y60069D02*
X249550D01*
Y56688D01*
X250142Y56766D01*
X251066Y57149D01*
X251860Y57758D01*
X252469Y58552D01*
X252852Y59477D01*
X252930Y60069D01*
D02*
G37*
G36*
X248750D02*
X245369D01*
X245447Y59477D01*
X245830Y58552D01*
X246439Y57758D01*
X247233Y57149D01*
X248158Y56766D01*
X248750Y56688D01*
Y60069D01*
D02*
G37*
G36*
X239150Y64301D02*
X238158Y64171D01*
X237233Y63788D01*
X236439Y63179D01*
X235830Y62385D01*
X235447Y61461D01*
X235317Y60469D01*
X235447Y59477D01*
X235830Y58552D01*
X236439Y57758D01*
X237233Y57149D01*
X238158Y56766D01*
X239150Y56636D01*
X240142Y56766D01*
X241066Y57149D01*
X241860Y57758D01*
X242469Y58552D01*
X242852Y59477D01*
X242982Y60469D01*
X242852Y61461D01*
X242469Y62385D01*
X241860Y63179D01*
X241066Y63788D01*
X240142Y64171D01*
X239150Y64301D01*
D02*
G37*
G36*
X84203Y59872D02*
X80823D01*
Y56492D01*
X81415Y56569D01*
X82339Y56952D01*
X83133Y57561D01*
X83742Y58355D01*
X84125Y59280D01*
X84203Y59872D01*
D02*
G37*
G36*
X80023D02*
X76643D01*
X76721Y59280D01*
X77104Y58355D01*
X77713Y57561D01*
X78506Y56952D01*
X79431Y56569D01*
X80023Y56492D01*
Y59872D01*
D02*
G37*
G36*
X70423Y64104D02*
X69431Y63974D01*
X68506Y63591D01*
X67713Y62982D01*
X67103Y62188D01*
X66721Y61264D01*
X66590Y60272D01*
X66721Y59280D01*
X67103Y58355D01*
X67713Y57561D01*
X68506Y56952D01*
X69431Y56569D01*
X70423Y56439D01*
X71415Y56569D01*
X72339Y56952D01*
X73133Y57561D01*
X73742Y58355D01*
X74125Y59280D01*
X74256Y60272D01*
X74125Y61264D01*
X73742Y62188D01*
X73133Y62982D01*
X72339Y63591D01*
X71415Y63974D01*
X70423Y64104D01*
D02*
G37*
G36*
X181138Y60024D02*
Y56341D01*
X184820D01*
X184732Y57011D01*
X184319Y58009D01*
X183662Y58865D01*
X182806Y59522D01*
X181808Y59935D01*
X181138Y60024D01*
D02*
G37*
G36*
X180338D02*
X179667Y59935D01*
X178670Y59522D01*
X177814Y58865D01*
X177156Y58009D01*
X176743Y57011D01*
X176655Y56341D01*
X180338D01*
Y60024D01*
D02*
G37*
G36*
X158504Y60175D02*
X157434Y60034D01*
X156437Y59621D01*
X155580Y58964D01*
X154923Y58107D01*
X154510Y57110D01*
X154369Y56039D01*
X154510Y54969D01*
X154923Y53972D01*
X155580Y53115D01*
X156437Y52458D01*
X157434Y52045D01*
X158504Y51904D01*
X159575Y52045D01*
X160572Y52458D01*
X161429Y53115D01*
X162086Y53972D01*
X162499Y54969D01*
X162640Y56039D01*
X162499Y57110D01*
X162086Y58107D01*
X161429Y58964D01*
X160572Y59621D01*
X159575Y60034D01*
X158504Y60175D01*
D02*
G37*
G36*
X148504D02*
X147434Y60034D01*
X146437Y59621D01*
X145580Y58964D01*
X144923Y58107D01*
X144510Y57110D01*
X144369Y56039D01*
X144510Y54969D01*
X144923Y53972D01*
X145580Y53115D01*
X146437Y52458D01*
X147434Y52045D01*
X148504Y51904D01*
X149575Y52045D01*
X150572Y52458D01*
X151429Y53115D01*
X152086Y53972D01*
X152499Y54969D01*
X152640Y56039D01*
X152499Y57110D01*
X152086Y58107D01*
X151429Y58964D01*
X150572Y59621D01*
X149575Y60034D01*
X148504Y60175D01*
D02*
G37*
G36*
X138505D02*
X137434Y60034D01*
X136437Y59621D01*
X135580Y58964D01*
X134923Y58107D01*
X134510Y57110D01*
X134369Y56039D01*
X134510Y54969D01*
X134923Y53972D01*
X135580Y53115D01*
X136437Y52458D01*
X137434Y52045D01*
X138505Y51904D01*
X139575Y52045D01*
X140572Y52458D01*
X141429Y53115D01*
X142086Y53972D01*
X142499Y54969D01*
X142640Y56039D01*
X142499Y57110D01*
X142086Y58107D01*
X141429Y58964D01*
X140572Y59621D01*
X139575Y60034D01*
X138505Y60175D01*
D02*
G37*
G36*
X128505D02*
X127434Y60034D01*
X126437Y59621D01*
X125580Y58964D01*
X124923Y58107D01*
X124510Y57110D01*
X124369Y56039D01*
X124510Y54969D01*
X124923Y53972D01*
X125580Y53115D01*
X126437Y52458D01*
X127434Y52045D01*
X128505Y51904D01*
X129575Y52045D01*
X130572Y52458D01*
X131429Y53115D01*
X132086Y53972D01*
X132499Y54969D01*
X132640Y56039D01*
X132499Y57110D01*
X132086Y58107D01*
X131429Y58964D01*
X130572Y59621D01*
X129575Y60034D01*
X128505Y60175D01*
D02*
G37*
G36*
X184820Y55541D02*
X181138D01*
Y51858D01*
X181808Y51947D01*
X182806Y52360D01*
X183662Y53017D01*
X184319Y53873D01*
X184732Y54871D01*
X184820Y55541D01*
D02*
G37*
G36*
X180338D02*
X176655D01*
X176743Y54871D01*
X177156Y53873D01*
X177814Y53017D01*
X178670Y52360D01*
X179667Y51947D01*
X180338Y51858D01*
Y55541D01*
D02*
G37*
G36*
X170738Y60076D02*
X169667Y59935D01*
X168670Y59522D01*
X167814Y58865D01*
X167156Y58009D01*
X166743Y57011D01*
X166602Y55941D01*
X166743Y54871D01*
X167156Y53873D01*
X167814Y53017D01*
X168670Y52360D01*
X169667Y51947D01*
X170738Y51806D01*
X171808Y51947D01*
X172806Y52360D01*
X173662Y53017D01*
X174319Y53873D01*
X174732Y54871D01*
X174873Y55941D01*
X174732Y57011D01*
X174319Y58009D01*
X173662Y58865D01*
X172806Y59522D01*
X171808Y59935D01*
X170738Y60076D01*
D02*
G37*
G36*
X214394Y57989D02*
X213569Y57880D01*
X212800Y57561D01*
X212139Y57054D01*
X211632Y56394D01*
X211314Y55625D01*
X211205Y54799D01*
X211314Y53974D01*
X211632Y53205D01*
X212139Y52544D01*
X212800Y52037D01*
X213569Y51719D01*
X214394Y51610D01*
X215220Y51719D01*
X215989Y52037D01*
X216650Y52544D01*
X217156Y53205D01*
X217475Y53974D01*
X217584Y54799D01*
X217475Y55625D01*
X217156Y56394D01*
X216650Y57054D01*
X215989Y57561D01*
X215220Y57880D01*
X214394Y57989D01*
D02*
G37*
%LPD*%
D10*
X11811Y11811D02*
D03*
X578740D02*
D03*
Y381890D02*
D03*
X11811Y381890D02*
D03*
D30*
X220470Y109189D02*
X223324Y106335D01*
X194635Y109189D02*
X220470D01*
X180659Y123165D02*
X194635Y109189D01*
X180659Y123165D02*
Y170016D01*
X492340Y109189D02*
X495194Y106335D01*
X466505Y109189D02*
X492340D01*
X452529Y123165D02*
X466505Y109189D01*
X452529Y123165D02*
Y170016D01*
D31*
X128395Y124051D02*
Y172772D01*
X118848Y114504D02*
X128395Y124051D01*
X116289Y139996D02*
Y145723D01*
X103020Y158992D02*
X116289Y145723D01*
X86072Y158992D02*
X103020D01*
X70489Y286722D02*
X105620Y251591D01*
X84297Y130543D02*
X99753Y146000D01*
X84297Y120622D02*
Y130543D01*
X133317Y122378D02*
Y167949D01*
X128494Y117555D02*
X133317Y122378D01*
X128494Y112432D02*
Y117555D01*
X235088Y167161D02*
X235187Y167063D01*
X235088Y167161D02*
Y176677D01*
X159990Y266866D02*
X188417D01*
X128395Y223067D02*
X138180D01*
X164963Y271977D02*
X179708Y286722D01*
X88028Y212301D02*
X91203Y215476D01*
X88028Y194117D02*
Y212301D01*
X400266Y124051D02*
Y172772D01*
X390718Y114504D02*
X400266Y124051D01*
X388159Y139996D02*
Y145723D01*
X374890Y158992D02*
X388159Y145723D01*
X357943Y158992D02*
X374890D01*
X342359Y286722D02*
X377490Y251591D01*
X356167Y130543D02*
X371623Y146000D01*
X356167Y120622D02*
Y130543D01*
X405187Y122378D02*
Y167949D01*
X400364Y117555D02*
X405187Y122378D01*
X400364Y112432D02*
Y117555D01*
X506958Y167161D02*
X507057Y167063D01*
X506958Y167161D02*
Y176677D01*
X431860Y266866D02*
X460287D01*
X400266Y223067D02*
X410050D01*
X436833Y271977D02*
X451578Y286722D01*
X359898Y212301D02*
X363073Y215476D01*
X359898Y194117D02*
Y212301D01*
D32*
X312106Y295374D02*
D03*
Y291437D02*
D03*
Y287500D02*
D03*
Y279626D02*
D03*
Y283563D02*
D03*
Y84449D02*
D03*
Y80511D02*
D03*
Y88386D02*
D03*
Y92323D02*
D03*
Y96260D02*
D03*
X545669Y283563D02*
D03*
Y279626D02*
D03*
Y287500D02*
D03*
Y291437D02*
D03*
Y295374D02*
D03*
Y84449D02*
D03*
Y80511D02*
D03*
Y88386D02*
D03*
Y92323D02*
D03*
Y96260D02*
D03*
X273819D02*
D03*
Y92323D02*
D03*
Y88386D02*
D03*
Y80511D02*
D03*
Y84449D02*
D03*
Y295374D02*
D03*
Y291437D02*
D03*
Y287500D02*
D03*
Y279626D02*
D03*
Y283563D02*
D03*
X40256Y96260D02*
D03*
Y92323D02*
D03*
Y88386D02*
D03*
Y80511D02*
D03*
Y84449D02*
D03*
Y283563D02*
D03*
Y279626D02*
D03*
Y287500D02*
D03*
Y291437D02*
D03*
Y295374D02*
D03*
D33*
X152037Y281039D02*
D03*
X162037D02*
D03*
X70423Y60272D02*
D03*
X80423D02*
D03*
X249150Y60469D02*
D03*
X239150D02*
D03*
X423907Y281039D02*
D03*
X433907D02*
D03*
X342293Y60272D02*
D03*
X352293D02*
D03*
X521020Y60469D02*
D03*
X511020D02*
D03*
D34*
X148504Y56039D02*
D03*
X158504D02*
D03*
X128505D02*
D03*
X138505D02*
D03*
X180738Y55941D02*
D03*
X170738D02*
D03*
X420375Y56039D02*
D03*
X430375D02*
D03*
X400375D02*
D03*
X410375D02*
D03*
X452608Y55941D02*
D03*
X442608D02*
D03*
D35*
X224394Y64799D02*
D03*
X496265D02*
D03*
D36*
X214394Y54799D02*
D03*
X204394Y64799D02*
D03*
X486265Y54799D02*
D03*
X476264Y64799D02*
D03*
D37*
X249797Y240122D02*
D03*
X229797D02*
D03*
X209797D02*
D03*
X249797Y120622D02*
D03*
X229797D02*
D03*
X209797D02*
D03*
X104297Y240122D02*
D03*
X84297D02*
D03*
X64297D02*
D03*
X104297Y120622D02*
D03*
X84297D02*
D03*
X64297D02*
D03*
X521667Y240122D02*
D03*
X501667D02*
D03*
X481667D02*
D03*
X521667Y120622D02*
D03*
X501667D02*
D03*
X481667D02*
D03*
X376167Y240122D02*
D03*
X356167D02*
D03*
X336167D02*
D03*
X376167Y120622D02*
D03*
X356167D02*
D03*
X336167D02*
D03*
D38*
X179708Y311722D02*
D03*
X243606D02*
D03*
X179708Y336722D02*
D03*
X243606D02*
D03*
X179708Y286722D02*
D03*
X243606D02*
D03*
X70489Y311722D02*
D03*
X134387D02*
D03*
X70489Y336722D02*
D03*
X134387D02*
D03*
X70489Y286722D02*
D03*
X134387D02*
D03*
X451578Y311722D02*
D03*
X515476D02*
D03*
X451578Y336722D02*
D03*
X515476D02*
D03*
X451578Y286722D02*
D03*
X515476D02*
D03*
X342359Y311722D02*
D03*
X406257D02*
D03*
X342359Y336722D02*
D03*
X406257D02*
D03*
X342359Y286722D02*
D03*
X406257D02*
D03*
D39*
X171309Y284878D02*
D03*
X178198Y278087D02*
D03*
X198376Y231039D02*
D03*
X69824Y196591D02*
D03*
X124458Y161453D02*
D03*
X159793Y272035D02*
D03*
X194324Y64857D02*
D03*
X66092Y204522D02*
D03*
X82234Y223715D02*
D03*
X75246Y206195D02*
D03*
X88028Y189352D02*
D03*
X186269Y170902D02*
D03*
X248080Y141276D02*
D03*
X194439Y124740D02*
D03*
X227214Y176874D02*
D03*
X124458Y114504D02*
D03*
Y126236D02*
D03*
Y136992D02*
D03*
Y147772D02*
D03*
X192372Y212031D02*
D03*
X221998Y235665D02*
D03*
X214813Y228413D02*
D03*
Y198756D02*
D03*
X234104Y197083D02*
D03*
Y187247D02*
D03*
X124458Y175446D02*
D03*
X137647Y200471D02*
D03*
X124458D02*
D03*
X173474Y164251D02*
D03*
X161269Y262831D02*
D03*
X170324Y270606D02*
D03*
X114813Y256630D02*
D03*
X134387Y236650D02*
D03*
X204183Y82711D02*
D03*
X214394Y64799D02*
D03*
X121407Y103972D02*
D03*
X153781Y65302D02*
D03*
X134379Y64799D02*
D03*
X144045Y93382D02*
D03*
X130167Y79268D02*
D03*
X222096Y161453D02*
D03*
X194324Y116669D02*
D03*
X176328Y106113D02*
D03*
X187943D02*
D03*
X182037Y113618D02*
D03*
X163533Y217161D02*
D03*
X142876Y210869D02*
D03*
X143848Y229465D02*
D03*
X147588Y158992D02*
D03*
X149852Y183795D02*
D03*
Y170902D02*
D03*
X137647D02*
D03*
X101033Y212424D02*
D03*
X171132Y92279D02*
D03*
X194439Y102988D02*
D03*
X204281Y98461D02*
D03*
X214136Y102988D02*
D03*
X238311Y92279D02*
D03*
X246013Y98264D02*
D03*
X238311Y104268D02*
D03*
X169424Y124740D02*
D03*
X144524D02*
D03*
X169424Y116669D02*
D03*
X144524D02*
D03*
X116781Y122378D02*
D03*
X194324Y141276D02*
D03*
X169424D02*
D03*
X144524D02*
D03*
X95915Y137484D02*
D03*
X76722Y125646D02*
D03*
X218750Y183795D02*
D03*
X214813Y171787D02*
D03*
X239937Y175446D02*
D03*
Y150546D02*
D03*
X242175Y116669D02*
D03*
X219537Y116965D02*
D03*
X236565Y129563D02*
D03*
X225639D02*
D03*
X215895D02*
D03*
X194324Y133795D02*
D03*
X169424D02*
D03*
X144524D02*
D03*
X114813Y175446D02*
D03*
X190867Y147772D02*
D03*
X199950Y153579D02*
D03*
X190867Y159386D02*
D03*
X159872Y164251D02*
D03*
X195029Y176669D02*
D03*
X173454Y181669D02*
D03*
X253986Y207100D02*
D03*
X248080Y216177D02*
D03*
X242175Y207100D02*
D03*
X186466Y202902D02*
D03*
X198179Y202805D02*
D03*
X186269Y251783D02*
D03*
X198376D02*
D03*
X192372Y259386D02*
D03*
X172962Y262437D02*
D03*
X169031Y256630D02*
D03*
X172962Y250933D02*
D03*
X176821Y256630D02*
D03*
X172962Y236822D02*
D03*
X176821Y231039D02*
D03*
X169031D02*
D03*
X173474Y221689D02*
D03*
X111466Y157124D02*
D03*
X105757Y165980D02*
D03*
X76427Y189491D02*
D03*
X87253Y231236D02*
D03*
X269024Y324846D02*
D03*
Y299946D02*
D03*
Y275046D02*
D03*
Y250146D02*
D03*
Y225246D02*
D03*
Y200346D02*
D03*
Y175446D02*
D03*
Y150546D02*
D03*
Y125646D02*
D03*
Y100746D02*
D03*
Y75846D02*
D03*
Y50946D02*
D03*
X244124Y349746D02*
D03*
Y324846D02*
D03*
Y299946D02*
D03*
Y275046D02*
D03*
Y250146D02*
D03*
Y225246D02*
D03*
Y75846D02*
D03*
Y50946D02*
D03*
X219224Y349746D02*
D03*
Y324846D02*
D03*
Y299946D02*
D03*
Y275046D02*
D03*
Y50946D02*
D03*
X194324Y349746D02*
D03*
Y324846D02*
D03*
Y299946D02*
D03*
Y275046D02*
D03*
Y50946D02*
D03*
X169424Y349746D02*
D03*
Y324846D02*
D03*
Y299946D02*
D03*
Y200346D02*
D03*
X144524Y349746D02*
D03*
Y324846D02*
D03*
Y299946D02*
D03*
Y275046D02*
D03*
Y250146D02*
D03*
Y50946D02*
D03*
X119624Y349746D02*
D03*
Y324846D02*
D03*
Y299946D02*
D03*
Y275046D02*
D03*
Y225246D02*
D03*
Y50946D02*
D03*
X94724Y349746D02*
D03*
Y324846D02*
D03*
Y299946D02*
D03*
Y275046D02*
D03*
Y250146D02*
D03*
Y175446D02*
D03*
Y150546D02*
D03*
Y125646D02*
D03*
Y100746D02*
D03*
Y75846D02*
D03*
Y50946D02*
D03*
X69824Y349746D02*
D03*
Y324846D02*
D03*
Y299946D02*
D03*
Y275046D02*
D03*
Y250146D02*
D03*
Y225246D02*
D03*
Y175446D02*
D03*
Y150546D02*
D03*
Y100746D02*
D03*
Y75846D02*
D03*
Y50946D02*
D03*
X44924Y324846D02*
D03*
Y299946D02*
D03*
Y275046D02*
D03*
Y250146D02*
D03*
Y225246D02*
D03*
Y200346D02*
D03*
Y175446D02*
D03*
Y150546D02*
D03*
Y125646D02*
D03*
Y100746D02*
D03*
Y75846D02*
D03*
Y50946D02*
D03*
X105620Y251591D02*
D03*
X128395Y172772D02*
D03*
X118848Y114504D02*
D03*
X128494Y112432D02*
D03*
X133317Y167949D02*
D03*
X116289Y139996D02*
D03*
X99753Y146000D02*
D03*
X235088Y167063D02*
D03*
X235088Y176677D02*
D03*
X188417Y266866D02*
D03*
X128395Y223067D02*
D03*
X138180D02*
D03*
X164963Y271977D02*
D03*
X159990Y266866D02*
D03*
X86072Y158992D02*
D03*
X91203Y215476D02*
D03*
X88028Y194117D02*
D03*
X443179Y284878D02*
D03*
X450069Y278087D02*
D03*
X470246Y231039D02*
D03*
X341694Y196591D02*
D03*
X396328Y161453D02*
D03*
X431663Y272035D02*
D03*
X466194Y64857D02*
D03*
X337962Y204522D02*
D03*
X354104Y223715D02*
D03*
X347116Y206195D02*
D03*
X359898Y189352D02*
D03*
X458139Y170902D02*
D03*
X519950Y141276D02*
D03*
X466309Y124740D02*
D03*
X499084Y176874D02*
D03*
X396328Y114504D02*
D03*
Y126236D02*
D03*
Y136992D02*
D03*
Y147772D02*
D03*
X464242Y212031D02*
D03*
X493868Y235665D02*
D03*
X486683Y228413D02*
D03*
Y198756D02*
D03*
X505974Y197083D02*
D03*
Y187247D02*
D03*
X396328Y175446D02*
D03*
X409517Y200471D02*
D03*
X396328D02*
D03*
X445344Y164251D02*
D03*
X433139Y262831D02*
D03*
X442195Y270606D02*
D03*
X386683Y256630D02*
D03*
X406257Y236650D02*
D03*
X476053Y82711D02*
D03*
X486265Y64799D02*
D03*
X393277Y103972D02*
D03*
X425652Y65302D02*
D03*
X406250Y64799D02*
D03*
X415915Y93382D02*
D03*
X402037Y79268D02*
D03*
X493966Y161453D02*
D03*
X466194Y116669D02*
D03*
X448198Y106113D02*
D03*
X459813D02*
D03*
X453907Y113618D02*
D03*
X435403Y217161D02*
D03*
X414746Y210869D02*
D03*
X415718Y229465D02*
D03*
X419458Y158992D02*
D03*
X421722Y183795D02*
D03*
Y170902D02*
D03*
X409517D02*
D03*
X372903Y212424D02*
D03*
X443002Y92279D02*
D03*
X466309Y102988D02*
D03*
X476151Y98461D02*
D03*
X486006Y102988D02*
D03*
X510181Y92279D02*
D03*
X517883Y98264D02*
D03*
X510181Y104268D02*
D03*
X441294Y124740D02*
D03*
X416395D02*
D03*
X441294Y116669D02*
D03*
X416395D02*
D03*
X388651Y122378D02*
D03*
X466194Y141276D02*
D03*
X441294D02*
D03*
X416395D02*
D03*
X367785Y137484D02*
D03*
X348592Y125646D02*
D03*
X490620Y183795D02*
D03*
X486683Y171787D02*
D03*
X511807Y175446D02*
D03*
Y150546D02*
D03*
X514045Y116669D02*
D03*
X491407Y116965D02*
D03*
X508435Y129563D02*
D03*
X497509D02*
D03*
X487765D02*
D03*
X466194Y133795D02*
D03*
X441294D02*
D03*
X416395D02*
D03*
X386683Y175446D02*
D03*
X462737Y147772D02*
D03*
X471820Y153579D02*
D03*
X462737Y159386D02*
D03*
X431742Y164251D02*
D03*
X466899Y176669D02*
D03*
X445324Y181669D02*
D03*
X525856Y207100D02*
D03*
X519950Y216177D02*
D03*
X514045Y207100D02*
D03*
X458336Y202902D02*
D03*
X470049Y202805D02*
D03*
X458139Y251783D02*
D03*
X470246D02*
D03*
X464242Y259386D02*
D03*
X444832Y262437D02*
D03*
X440901Y256630D02*
D03*
X444832Y250933D02*
D03*
X448691Y256630D02*
D03*
X444832Y236822D02*
D03*
X448691Y231039D02*
D03*
X440901D02*
D03*
X445344Y221689D02*
D03*
X383336Y157124D02*
D03*
X377628Y165980D02*
D03*
X348297Y189491D02*
D03*
X359124Y231236D02*
D03*
X540895Y324846D02*
D03*
Y299946D02*
D03*
Y275046D02*
D03*
Y250146D02*
D03*
Y225246D02*
D03*
Y200346D02*
D03*
Y175446D02*
D03*
Y150546D02*
D03*
Y125646D02*
D03*
Y100746D02*
D03*
Y75846D02*
D03*
Y50946D02*
D03*
X515995Y349746D02*
D03*
Y324846D02*
D03*
Y299946D02*
D03*
Y275046D02*
D03*
Y250146D02*
D03*
Y225246D02*
D03*
Y75846D02*
D03*
Y50946D02*
D03*
X491094Y349746D02*
D03*
Y324846D02*
D03*
Y299946D02*
D03*
Y275046D02*
D03*
Y50946D02*
D03*
X466194Y349746D02*
D03*
Y324846D02*
D03*
Y299946D02*
D03*
Y275046D02*
D03*
Y50946D02*
D03*
X441294Y349746D02*
D03*
Y324846D02*
D03*
Y299946D02*
D03*
Y200346D02*
D03*
X416395Y349746D02*
D03*
Y324846D02*
D03*
Y299946D02*
D03*
Y275046D02*
D03*
Y250146D02*
D03*
Y50946D02*
D03*
X391494Y349746D02*
D03*
Y324846D02*
D03*
Y299946D02*
D03*
Y275046D02*
D03*
Y225246D02*
D03*
Y50946D02*
D03*
X366595Y349746D02*
D03*
Y324846D02*
D03*
Y299946D02*
D03*
Y275046D02*
D03*
Y250146D02*
D03*
Y175446D02*
D03*
Y150546D02*
D03*
Y125646D02*
D03*
Y100746D02*
D03*
Y75846D02*
D03*
Y50946D02*
D03*
X341694Y349746D02*
D03*
Y324846D02*
D03*
Y299946D02*
D03*
Y275046D02*
D03*
Y250146D02*
D03*
Y225246D02*
D03*
Y175446D02*
D03*
Y150546D02*
D03*
Y100746D02*
D03*
Y75846D02*
D03*
Y50946D02*
D03*
X316794Y324846D02*
D03*
Y299946D02*
D03*
Y275046D02*
D03*
Y250146D02*
D03*
Y225246D02*
D03*
Y200346D02*
D03*
Y175446D02*
D03*
Y150546D02*
D03*
Y125646D02*
D03*
Y100746D02*
D03*
Y75846D02*
D03*
Y50946D02*
D03*
X377490Y251591D02*
D03*
X400266Y172772D02*
D03*
X390718Y114504D02*
D03*
X400364Y112432D02*
D03*
X405187Y167949D02*
D03*
X388159Y139996D02*
D03*
X371623Y146000D02*
D03*
X506958Y167063D02*
D03*
X506958Y176677D02*
D03*
X460287Y266866D02*
D03*
X400266Y223067D02*
D03*
X410050D02*
D03*
X436833Y271977D02*
D03*
X431860Y266866D02*
D03*
X357943Y158992D02*
D03*
X363073Y215476D02*
D03*
X359898Y194117D02*
D03*
D40*
X180659Y170016D02*
D03*
X223324Y106335D02*
D03*
X452529Y170016D02*
D03*
X495194Y106335D02*
D03*
M02*
