G04*
G04 #@! TF.GenerationSoftware,Altium Limited,Altium Designer,19.1.6 (110)*
G04*
G04 Layer_Color=8421504*
%FSLAX25Y25*%
%MOIN*%
G70*
G01*
G75*
%ADD10C,0.11811*%
%ADD11R,0.02165X0.03543*%
%ADD12R,0.06890X0.04331*%
%ADD13R,0.03543X0.03740*%
%ADD14R,0.05276X0.07087*%
%ADD15R,0.07087X0.05276*%
%ADD16R,0.09843X0.06299*%
%ADD17R,0.03740X0.03543*%
%ADD18R,0.02362X0.03740*%
%ADD19R,0.04331X0.06890*%
%ADD20R,0.06299X0.09843*%
%ADD21R,0.07087X0.02362*%
%ADD22R,0.06299X0.12598*%
%ADD23R,0.06299X0.11024*%
%ADD24R,0.07087X0.03150*%
%ADD25R,0.02362X0.06299*%
%ADD26R,0.06496X0.09843*%
%ADD27R,0.05709X0.02362*%
%ADD28R,0.03150X0.01575*%
%ADD29R,0.12598X0.06299*%
D10*
X11811Y11811D02*
D03*
X578740Y11811D02*
D03*
Y381890D02*
D03*
X11811Y381890D02*
D03*
D11*
X118848Y108697D02*
D03*
X121407Y99839D02*
D03*
X116289D02*
D03*
X390718Y108697D02*
D03*
X393277Y99839D02*
D03*
X388159D02*
D03*
D12*
X152143Y153582D02*
D03*
Y165196D02*
D03*
X215305Y177890D02*
D03*
Y166276D02*
D03*
X424013Y153582D02*
D03*
Y165196D02*
D03*
X487175Y177890D02*
D03*
Y166276D02*
D03*
D13*
X76722Y231236D02*
D03*
X82824D02*
D03*
X223179Y165980D02*
D03*
X229281D02*
D03*
X134596Y105744D02*
D03*
X128494D02*
D03*
X122391Y93382D02*
D03*
X116289D02*
D03*
X223480Y187247D02*
D03*
X229583D02*
D03*
X221407Y141276D02*
D03*
X215305D02*
D03*
X221407Y135173D02*
D03*
X215305D02*
D03*
X243694D02*
D03*
X249797D02*
D03*
X153691Y210869D02*
D03*
X147588D02*
D03*
X111466Y146000D02*
D03*
X105364D02*
D03*
X111466Y139898D02*
D03*
X105364D02*
D03*
X111466Y133795D02*
D03*
X105364D02*
D03*
X111860Y218527D02*
D03*
X105757D02*
D03*
X111860Y212424D02*
D03*
X105757D02*
D03*
X111860Y206322D02*
D03*
X105757D02*
D03*
X348592Y231236D02*
D03*
X354695D02*
D03*
X495049Y165980D02*
D03*
X501151D02*
D03*
X406466Y105744D02*
D03*
X400364D02*
D03*
X394262Y93382D02*
D03*
X388159D02*
D03*
X495350Y187247D02*
D03*
X501453D02*
D03*
X493277Y141276D02*
D03*
X487175D02*
D03*
X493277Y135173D02*
D03*
X487175D02*
D03*
X515565D02*
D03*
X521667D02*
D03*
X425561Y210869D02*
D03*
X419458D02*
D03*
X383336Y146000D02*
D03*
X377234D02*
D03*
X383336Y139898D02*
D03*
X377234D02*
D03*
X383336Y133795D02*
D03*
X377234D02*
D03*
X383730Y218527D02*
D03*
X377627D02*
D03*
X383730Y212424D02*
D03*
X377627D02*
D03*
X383730Y206322D02*
D03*
X377627D02*
D03*
D14*
X142876Y191669D02*
D03*
X154136D02*
D03*
X414746D02*
D03*
X426006D02*
D03*
D15*
X142842Y153582D02*
D03*
Y164841D02*
D03*
X414712Y153582D02*
D03*
Y164841D02*
D03*
D16*
X156793Y177774D02*
D03*
X142842D02*
D03*
X238311Y98264D02*
D03*
X224360D02*
D03*
X428664Y177774D02*
D03*
X414712D02*
D03*
X510181Y98264D02*
D03*
X496230D02*
D03*
D17*
X214136Y92161D02*
D03*
Y98264D02*
D03*
X194439Y92161D02*
D03*
Y98264D02*
D03*
X166289Y98382D02*
D03*
Y92279D02*
D03*
X173474Y216965D02*
D03*
Y210862D02*
D03*
X159872Y159681D02*
D03*
Y153579D02*
D03*
X93454Y200220D02*
D03*
Y194117D02*
D03*
X82529Y200220D02*
D03*
Y194117D02*
D03*
X76427Y200220D02*
D03*
Y194117D02*
D03*
X486006Y92161D02*
D03*
Y98264D02*
D03*
X466309Y92161D02*
D03*
Y98264D02*
D03*
X438159Y98382D02*
D03*
Y92279D02*
D03*
X445344Y216965D02*
D03*
Y210862D02*
D03*
X431742Y159681D02*
D03*
Y153579D02*
D03*
X365324Y200220D02*
D03*
Y194117D02*
D03*
X354399Y200220D02*
D03*
Y194117D02*
D03*
X348297Y200220D02*
D03*
Y194117D02*
D03*
D18*
X204281Y102988D02*
D03*
X208021Y92161D02*
D03*
X200541D02*
D03*
X223474Y181236D02*
D03*
X230954D02*
D03*
X227214Y171984D02*
D03*
X163533Y221689D02*
D03*
X159793Y210862D02*
D03*
X167273D02*
D03*
X76623Y215476D02*
D03*
X84104D02*
D03*
X80364Y206224D02*
D03*
X95718Y215476D02*
D03*
X91978Y206224D02*
D03*
X99458D02*
D03*
X476151Y102988D02*
D03*
X479891Y92161D02*
D03*
X472411D02*
D03*
X495344Y181236D02*
D03*
X502824D02*
D03*
X499084Y171984D02*
D03*
X435403Y221689D02*
D03*
X431663Y210862D02*
D03*
X439143D02*
D03*
X348494Y215476D02*
D03*
X355974D02*
D03*
X352234Y206224D02*
D03*
X367588Y215476D02*
D03*
X363848Y206224D02*
D03*
X371328D02*
D03*
D19*
X171407Y76118D02*
D03*
X183021D02*
D03*
X226919Y158205D02*
D03*
X215305D02*
D03*
X226919Y148959D02*
D03*
X215305D02*
D03*
X88041Y136893D02*
D03*
X76427D02*
D03*
X88336Y223559D02*
D03*
X76722D02*
D03*
X111466Y198547D02*
D03*
X99852D02*
D03*
X111466Y189295D02*
D03*
X99852D02*
D03*
X443277Y76118D02*
D03*
X454891D02*
D03*
X498789Y158205D02*
D03*
X487175D02*
D03*
X498789Y148959D02*
D03*
X487175D02*
D03*
X359911Y136893D02*
D03*
X348297D02*
D03*
X360206Y223559D02*
D03*
X348592D02*
D03*
X383336Y198547D02*
D03*
X371722D02*
D03*
X383336Y189295D02*
D03*
X371722D02*
D03*
D20*
X182037Y106113D02*
D03*
Y92161D02*
D03*
X453907Y106113D02*
D03*
Y92161D02*
D03*
D21*
X130167Y98382D02*
D03*
Y93382D02*
D03*
Y88382D02*
D03*
Y83382D02*
D03*
X158513Y98382D02*
D03*
Y93382D02*
D03*
Y88382D02*
D03*
Y83382D02*
D03*
X402037Y98382D02*
D03*
Y93382D02*
D03*
Y88382D02*
D03*
Y83382D02*
D03*
X430383Y98382D02*
D03*
Y93382D02*
D03*
Y88382D02*
D03*
Y83382D02*
D03*
D22*
X248080Y171970D02*
D03*
Y152117D02*
D03*
Y187247D02*
D03*
Y207100D02*
D03*
X192372Y222659D02*
D03*
Y202805D02*
D03*
X105757Y176977D02*
D03*
Y157124D02*
D03*
X59498Y220087D02*
D03*
Y200234D02*
D03*
X519950Y171970D02*
D03*
Y152117D02*
D03*
Y187247D02*
D03*
Y207100D02*
D03*
X464242Y222659D02*
D03*
Y202805D02*
D03*
X377627Y176977D02*
D03*
Y157124D02*
D03*
X331368Y220087D02*
D03*
Y200234D02*
D03*
D23*
X221505Y219806D02*
D03*
Y202902D02*
D03*
X79084Y175909D02*
D03*
Y159005D02*
D03*
X493376Y219806D02*
D03*
Y202902D02*
D03*
X350954Y175909D02*
D03*
Y159005D02*
D03*
D24*
X153734Y251591D02*
D03*
Y261591D02*
D03*
Y241591D02*
D03*
Y231591D02*
D03*
X126175Y261591D02*
D03*
Y251591D02*
D03*
Y241591D02*
D03*
Y231591D02*
D03*
X425604Y251591D02*
D03*
Y261591D02*
D03*
Y241591D02*
D03*
Y231591D02*
D03*
X398045Y261591D02*
D03*
Y251591D02*
D03*
Y241591D02*
D03*
Y231591D02*
D03*
D25*
X172962Y256630D02*
D03*
X162962D02*
D03*
Y231039D02*
D03*
X172962D02*
D03*
X444832Y256630D02*
D03*
X434832D02*
D03*
Y231039D02*
D03*
X444832D02*
D03*
D26*
X192372Y251783D02*
D03*
Y237019D02*
D03*
X464242Y251783D02*
D03*
Y237019D02*
D03*
D27*
X167864Y181669D02*
D03*
Y176669D02*
D03*
Y186669D02*
D03*
Y191669D02*
D03*
X189321Y176669D02*
D03*
Y186669D02*
D03*
Y181669D02*
D03*
Y191669D02*
D03*
X439734Y181669D02*
D03*
Y176669D02*
D03*
Y186669D02*
D03*
Y191669D02*
D03*
X461191Y176669D02*
D03*
Y186669D02*
D03*
Y181669D02*
D03*
Y191669D02*
D03*
D28*
X153734Y223067D02*
D03*
X144679D02*
D03*
X425604D02*
D03*
X416549D02*
D03*
D29*
X190867Y153579D02*
D03*
X171013D02*
D03*
X462737D02*
D03*
X442883D02*
D03*
M02*
