G04*
G04 #@! TF.GenerationSoftware,Altium Limited,Altium Designer,19.1.6 (110)*
G04*
G04 Layer_Color=32768*
%FSLAX25Y25*%
%MOIN*%
G70*
G01*
G75*
%ADD78C,0.00100*%
%ADD79C,0.07874*%
D78*
Y3937D01*
Y393701D01*
X590551D01*
X590551Y0D01*
X0D02*
X590551D01*
D79*
X40797Y333559D02*
G03*
X36860Y329622I0J-3937D01*
G01*
X40797Y333559D02*
G03*
X36860Y329622I0J-3937D01*
G01*
Y46787D02*
G03*
X40797Y42850I3937J0D01*
G01*
X36860Y46787D02*
G03*
X40797Y42850I3937J0D01*
G01*
X277234Y329622D02*
G03*
X273297Y333559I-3937J0D01*
G01*
X277234Y329622D02*
G03*
X273297Y333559I-3937J0D01*
G01*
Y42850D02*
G03*
X277234Y46787I0J3937D01*
G01*
X273297Y42850D02*
G03*
X277234Y46787I0J3937D01*
G01*
X254234Y357122D02*
G03*
X250297Y361059I-3937J0D01*
G01*
X254234Y357122D02*
G03*
X250297Y361059I-3937J0D01*
G01*
X63797D02*
G03*
X59860Y357122I0J-3937D01*
G01*
X63797Y361059D02*
G03*
X59860Y357122I0J-3937D01*
G01*
X63797Y361059D02*
X250297D01*
X40797Y42850D02*
X273297D01*
X36860Y100722D02*
Y275022D01*
X254234Y333559D02*
X273297D01*
X40797D02*
X59860D01*
X277234Y275022D02*
X277234Y100722D01*
X277234Y299942D02*
Y329622D01*
Y46787D02*
Y75803D01*
X254234Y333559D02*
Y357122D01*
X59860Y333559D02*
Y357122D01*
X36860Y299922D02*
Y329622D01*
Y46787D02*
Y75823D01*
X312667Y333559D02*
G03*
X308730Y329622I0J-3937D01*
G01*
X312667Y333559D02*
G03*
X308730Y329622I0J-3937D01*
G01*
Y46787D02*
G03*
X312667Y42850I3937J0D01*
G01*
X308730Y46787D02*
G03*
X312667Y42850I3937J0D01*
G01*
X549104Y329622D02*
G03*
X545167Y333559I-3937J0D01*
G01*
X549104Y329622D02*
G03*
X545167Y333559I-3937J0D01*
G01*
Y42850D02*
G03*
X549104Y46787I0J3937D01*
G01*
X545167Y42850D02*
G03*
X549104Y46787I0J3937D01*
G01*
X526104Y357122D02*
G03*
X522167Y361059I-3937J0D01*
G01*
X526104Y357122D02*
G03*
X522167Y361059I-3937J0D01*
G01*
X335667D02*
G03*
X331730Y357122I0J-3937D01*
G01*
X335667Y361059D02*
G03*
X331730Y357122I0J-3937D01*
G01*
X335667Y361059D02*
X522167D01*
X312667Y42850D02*
X545167D01*
X308730Y100722D02*
Y275022D01*
X526104Y333559D02*
X545167D01*
X312667D02*
X331730D01*
X549104Y275022D02*
X549104Y100722D01*
X549104Y299942D02*
Y329622D01*
Y46787D02*
Y75803D01*
X526104Y333559D02*
Y357122D01*
X331730Y333559D02*
Y357122D01*
X308730Y299922D02*
Y329622D01*
Y46787D02*
Y75823D01*
M02*
