M48
;Layer_Color=9474304
;FILE_FORMAT=2:5
INCH,TZ
;TYPE=PLATED
T1F00S00C0.01575
T2F00S00C0.01800
T3F00S00C0.01969
T4F00S00C0.02362
T5F00S00C0.02756
T6F00S00C0.03150
T7F00S00C0.03200
T8F00S00C0.03543
T9F00S00C0.04000
T10F00S00C0.04331
T11F00S00C0.05512
T12F00S00C0.09843
%
T01
X79900Y30731
X89900
Y60731
X79900
X73500Y95000
Y105000
Y115000
X73900Y156500
X74000Y166500
Y176500
X104000Y172990
Y162990
X150402Y165000
X150400Y175000
X150500Y155000
Y135000
X180500
Y155000
X180402Y165000
X180400Y175000
X153873Y60569
Y52689
X133989Y76100
X126109
X43500Y95000
Y105000
Y115000
X43900Y156500
X44000Y166500
Y176500
Y186500
Y196500
Y206521
Y226500
Y236500
X74000
Y226500
Y206521
Y196500
Y186500
X104095Y186602
X134095
X150402Y185000
X148500Y208875
X158500
X180402Y185000
T02
X3750Y3800
X28750
X53750
X78750
X79100Y22500
X102000
X103750Y3800
X128750
X126618Y22500
X178750Y3800
X203750
X228750
Y28800
Y53800
Y78800
Y103800
Y128800
Y153800
Y178800
X203750
X186810Y179000
X186951Y170500
X186810Y160000
Y150000
X203750Y153800
X198500Y128682
X201100Y111200
X178750Y109000
Y100000
Y78800
X203750
Y53800
X178750
Y28800
X203750
X153750
X115000Y43127
X94700Y45700
Y55500
X84500Y49600
X91300Y84200
X77600
X80000Y100000
Y109993
X92800Y109700
X94300Y100100
X109000
Y109993
Y128191
X92600Y128200
X78750Y128800
X80687Y152885
X93000Y152903
X109000Y152600
X109500Y180500
X93200Y179581
X80000Y179697
X129200Y180500
X139000
X139500Y152885
X163000Y152903
X157500Y169991
X166000Y176633
X153750Y128800
X139000Y128682
X129085
X128900Y111000
Y100000
X129158Y84200
X139100
X139400Y68100
X148907Y97000
X139000Y107900
Y118200
X110100Y84200
X59000Y109993
X50500
X53750Y128800
X33700
X39500Y152903
X50000Y152885
X32500Y160875
X28750Y178800
X3750
Y153800
Y128800
Y103800
Y78800
X28750
Y103800
Y53800
Y28800
X53750
Y53800
Y78800
X3750Y53800
Y28800
X53750Y178800
X39119Y191500
X37587Y201200
Y211500
X37700Y231000
X28750Y253800
X3750
Y228800
Y203800
X24200Y191507
X50000Y204000
X53750Y253800
Y278800
Y303800
Y328800
X28750
X3750
Y303800
Y278800
X28750
Y303800
X78750
Y328800
X103750
Y303800
Y278800
X78750
X97000Y243500
Y234245
X98000Y224800
X89400Y213566
X97000Y203311
X79913Y203419
X61066Y204000
X68500Y191507
X57500Y224700
X124169
X129000Y203530
X138900Y203419
X143600Y215200
X153300Y215100
X153500Y237800
X143400
X143395Y254000
X153391
X175200Y253800
X203750
Y278800
Y303800
Y328800
X178750
X153750
Y303800
Y278800
X178750
Y303800
X128750Y253800
X178750Y203800
X203750
Y228800
X228750
Y253800
Y278800
Y303800
Y328800
Y203800
X203750Y353800
X178750
X153750
X128750
X103750
X78750
X53750
X28750
T03
X63900Y10728
Y20728
X218311Y165000
X208311
X193000
Y155000
X192932Y145000
Y135000
X193000Y175000
X162463Y76100
X152463
X142463
X99900
X89900
X79900
X63900Y30728
X68000Y136000
Y146000
X44000
Y136000
X20500Y166500
Y176500
Y186500
X30000Y196500
Y206500
Y216500
Y226500
Y236500
X85000Y209000
X105000
X113989Y208896
X123989
X133989
X193000Y195000
Y185000
T04
X139966Y40731
Y60731
X149000Y104000
Y115128
X169000
Y104000
X170500Y145000
X150500
X123292Y154902
Y174902
X34500Y166500
X33500Y115128
Y95127
X34500Y186500
X44000Y216500
X64000
X114011Y224400
X134011
T05
X148500Y229285
X176500
T06
X85000Y218500
Y238500
Y248500
Y258500
X105000
Y248500
Y238500
Y218500
T07
X99946Y30728
Y40728
Y50728
Y60728
X129946
Y50728
Y40728
Y30728
X125674Y238500
X115674
Y268500
X125674
T08
X155917Y7500
Y17500
T09
X89752Y10000
X99752
X122497Y10065
X132497
T10
X63500Y126000
X169000
X189000
X209000
X43500
X23500
Y245500
X43500
X63500
X169000
X189000
X209000
T11
X29692Y292100
Y317100
X93590
Y292100
X138911
Y317100
X202809
Y292100
Y342100
X138911
X93590
X29692
T12
X116250Y308278
Y331900
M30
