G04*
G04 #@! TF.GenerationSoftware,Altium Limited,Altium Designer,19.0.9 (268)*
G04*
G04 Layer_Physical_Order=2*
G04 Layer_Color=16711680*
%FSLAX25Y25*%
%MOIN*%
G70*
G01*
G75*
%ADD11C,0.01000*%
%ADD36C,0.03200*%
%ADD37R,0.04724X0.04724*%
%ADD38C,0.04724*%
%ADD39C,0.04331*%
%ADD40R,0.04331X0.04331*%
%ADD41C,0.05118*%
%ADD42R,0.07087X0.07087*%
%ADD43C,0.07087*%
%ADD44C,0.08268*%
%ADD45C,0.14765*%
%ADD46R,0.04724X0.04724*%
%ADD47R,0.05512X0.05512*%
%ADD48C,0.05512*%
%ADD49R,0.04331X0.04331*%
%ADD50C,0.06000*%
%ADD51C,0.06600*%
%ADD52R,0.06600X0.06600*%
%ADD53C,0.04725*%
%ADD54C,0.05000*%
%ADD55C,0.03000*%
%ADD56C,0.01500*%
G36*
X207971Y343838D02*
X207471Y343739D01*
X207119Y344588D01*
X206328Y345619D01*
X205297Y346410D01*
X204097Y346907D01*
X202809Y347077D01*
X201521Y346907D01*
X200321Y346410D01*
X199290Y345619D01*
X198499Y344588D01*
X198002Y343388D01*
X197832Y342100D01*
X198002Y340812D01*
X198499Y339612D01*
X199290Y338581D01*
X200321Y337790D01*
X201521Y337293D01*
X202809Y337123D01*
X204097Y337293D01*
X205297Y337790D01*
X206328Y338581D01*
X207119Y339612D01*
X207471Y340461D01*
X207971Y340362D01*
Y335000D01*
X208087Y334415D01*
X208419Y333919D01*
X208915Y333587D01*
X209500Y333471D01*
X230971D01*
Y1529D01*
X1529D01*
Y333471D01*
X23000D01*
X23585Y333587D01*
X24081Y333919D01*
X24413Y334415D01*
X24529Y335000D01*
Y341215D01*
X25029Y341248D01*
X25080Y340864D01*
X25557Y339713D01*
X26316Y338724D01*
X27305Y337965D01*
X28456Y337488D01*
X29292Y337378D01*
Y342100D01*
Y346822D01*
X28456Y346712D01*
X27305Y346235D01*
X26316Y345476D01*
X25557Y344487D01*
X25080Y343336D01*
X25029Y342952D01*
X24529Y342985D01*
Y360971D01*
X207971D01*
Y343838D01*
D02*
G37*
%LPC*%
G36*
X139311Y346822D02*
Y342500D01*
X143633D01*
X143523Y343336D01*
X143046Y344487D01*
X142287Y345476D01*
X141298Y346235D01*
X140147Y346712D01*
X139311Y346822D01*
D02*
G37*
G36*
X30092D02*
Y342500D01*
X34414D01*
X34304Y343336D01*
X33827Y344487D01*
X33068Y345476D01*
X32079Y346235D01*
X30928Y346712D01*
X30092Y346822D01*
D02*
G37*
G36*
X138511D02*
X137675Y346712D01*
X136524Y346235D01*
X135535Y345476D01*
X134776Y344487D01*
X134299Y343336D01*
X134189Y342500D01*
X138511D01*
Y346822D01*
D02*
G37*
G36*
X143633Y341700D02*
X139311D01*
Y337378D01*
X140147Y337488D01*
X141298Y337965D01*
X142287Y338724D01*
X143046Y339713D01*
X143523Y340864D01*
X143633Y341700D01*
D02*
G37*
G36*
X34414D02*
X30092D01*
Y337378D01*
X30928Y337488D01*
X32079Y337965D01*
X33068Y338724D01*
X33827Y339713D01*
X34304Y340864D01*
X34414Y341700D01*
D02*
G37*
G36*
X138511D02*
X134189D01*
X134299Y340864D01*
X134776Y339713D01*
X135535Y338724D01*
X136524Y337965D01*
X137675Y337488D01*
X138511Y337378D01*
Y341700D01*
D02*
G37*
G36*
X93590Y347077D02*
X92302Y346907D01*
X91102Y346410D01*
X90071Y345619D01*
X89280Y344588D01*
X88783Y343388D01*
X88613Y342100D01*
X88783Y340812D01*
X89280Y339612D01*
X90071Y338581D01*
X91102Y337790D01*
X92302Y337293D01*
X93590Y337123D01*
X94878Y337293D01*
X96078Y337790D01*
X97109Y338581D01*
X97900Y339612D01*
X98397Y340812D01*
X98567Y342100D01*
X98397Y343388D01*
X97900Y344588D01*
X97109Y345619D01*
X96078Y346410D01*
X94878Y346907D01*
X93590Y347077D01*
D02*
G37*
G36*
X116250Y340122D02*
X114646Y339964D01*
X113104Y339496D01*
X111682Y338736D01*
X110436Y337714D01*
X109414Y336468D01*
X108654Y335046D01*
X108186Y333504D01*
X108028Y331900D01*
X108186Y330296D01*
X108654Y328754D01*
X109414Y327332D01*
X110436Y326086D01*
X111682Y325064D01*
X113104Y324304D01*
X114646Y323836D01*
X116250Y323678D01*
X117854Y323836D01*
X119396Y324304D01*
X120818Y325064D01*
X122064Y326086D01*
X123086Y327332D01*
X123846Y328754D01*
X124314Y330296D01*
X124472Y331900D01*
X124314Y333504D01*
X123846Y335046D01*
X123086Y336468D01*
X122064Y337714D01*
X120818Y338736D01*
X119396Y339496D01*
X117854Y339964D01*
X116250Y340122D01*
D02*
G37*
G36*
X202809Y322077D02*
X201521Y321907D01*
X200321Y321410D01*
X199290Y320619D01*
X198499Y319588D01*
X198002Y318388D01*
X197832Y317100D01*
X198002Y315812D01*
X198499Y314612D01*
X199290Y313581D01*
X200321Y312790D01*
X201521Y312293D01*
X202809Y312123D01*
X204097Y312293D01*
X205297Y312790D01*
X206328Y313581D01*
X207119Y314612D01*
X207616Y315812D01*
X207786Y317100D01*
X207616Y318388D01*
X207119Y319588D01*
X206328Y320619D01*
X205297Y321410D01*
X204097Y321907D01*
X202809Y322077D01*
D02*
G37*
G36*
X138911D02*
X137623Y321907D01*
X136423Y321410D01*
X135392Y320619D01*
X134601Y319588D01*
X134104Y318388D01*
X133934Y317100D01*
X134104Y315812D01*
X134601Y314612D01*
X135392Y313581D01*
X136423Y312790D01*
X137623Y312293D01*
X138911Y312123D01*
X140199Y312293D01*
X141399Y312790D01*
X142430Y313581D01*
X143221Y314612D01*
X143718Y315812D01*
X143888Y317100D01*
X143718Y318388D01*
X143221Y319588D01*
X142430Y320619D01*
X141399Y321410D01*
X140199Y321907D01*
X138911Y322077D01*
D02*
G37*
G36*
X93590D02*
X92302Y321907D01*
X91102Y321410D01*
X90071Y320619D01*
X89280Y319588D01*
X88783Y318388D01*
X88613Y317100D01*
X88783Y315812D01*
X89280Y314612D01*
X90071Y313581D01*
X91102Y312790D01*
X92302Y312293D01*
X93590Y312123D01*
X94878Y312293D01*
X96078Y312790D01*
X97109Y313581D01*
X97900Y314612D01*
X98397Y315812D01*
X98567Y317100D01*
X98397Y318388D01*
X97900Y319588D01*
X97109Y320619D01*
X96078Y321410D01*
X94878Y321907D01*
X93590Y322077D01*
D02*
G37*
G36*
X29692D02*
X28404Y321907D01*
X27204Y321410D01*
X26173Y320619D01*
X25382Y319588D01*
X24885Y318388D01*
X24715Y317100D01*
X24885Y315812D01*
X25382Y314612D01*
X26173Y313581D01*
X27204Y312790D01*
X28404Y312293D01*
X29692Y312123D01*
X30980Y312293D01*
X32180Y312790D01*
X33211Y313581D01*
X34002Y314612D01*
X34499Y315812D01*
X34669Y317100D01*
X34499Y318388D01*
X34002Y319588D01*
X33211Y320619D01*
X32180Y321410D01*
X30980Y321907D01*
X29692Y322077D01*
D02*
G37*
G36*
X116650Y316260D02*
Y308678D01*
X124232D01*
X124117Y309843D01*
X123660Y311347D01*
X122919Y312734D01*
X121922Y313950D01*
X120706Y314947D01*
X119319Y315688D01*
X117815Y316145D01*
X116650Y316260D01*
D02*
G37*
G36*
X115850D02*
X114685Y316145D01*
X113180Y315688D01*
X111794Y314947D01*
X110578Y313950D01*
X109581Y312734D01*
X108840Y311347D01*
X108383Y309843D01*
X108268Y308678D01*
X115850D01*
Y316260D01*
D02*
G37*
G36*
X124232Y307878D02*
X116650D01*
Y300296D01*
X117815Y300411D01*
X119319Y300868D01*
X120706Y301609D01*
X121922Y302606D01*
X122919Y303822D01*
X123660Y305209D01*
X124117Y306713D01*
X124232Y307878D01*
D02*
G37*
G36*
X115850D02*
X108268D01*
X108383Y306713D01*
X108840Y305209D01*
X109581Y303822D01*
X110578Y302606D01*
X111794Y301609D01*
X113180Y300868D01*
X114685Y300411D01*
X115850Y300296D01*
Y307878D01*
D02*
G37*
G36*
X202809Y297077D02*
X201521Y296907D01*
X200321Y296410D01*
X199290Y295619D01*
X198499Y294588D01*
X198002Y293388D01*
X197832Y292100D01*
X198002Y290812D01*
X198499Y289612D01*
X199290Y288581D01*
X200321Y287790D01*
X201521Y287293D01*
X202809Y287123D01*
X204097Y287293D01*
X205297Y287790D01*
X206328Y288581D01*
X207119Y289612D01*
X207616Y290812D01*
X207786Y292100D01*
X207616Y293388D01*
X207119Y294588D01*
X206328Y295619D01*
X205297Y296410D01*
X204097Y296907D01*
X202809Y297077D01*
D02*
G37*
G36*
X138911D02*
X137623Y296907D01*
X136423Y296410D01*
X135392Y295619D01*
X134601Y294588D01*
X134104Y293388D01*
X133964Y292325D01*
X133858D01*
X133351Y292225D01*
X132921Y291937D01*
X114563Y273579D01*
X114275Y273149D01*
X114174Y272642D01*
Y271451D01*
X114010Y271382D01*
X113321Y270854D01*
X112792Y270164D01*
X112460Y269361D01*
X112346Y268500D01*
X112460Y267638D01*
X112792Y266836D01*
X113321Y266146D01*
X114010Y265617D01*
X114813Y265285D01*
X115674Y265172D01*
X116536Y265285D01*
X117339Y265617D01*
X118028Y266146D01*
X118557Y266836D01*
X118890Y267638D01*
X119003Y268500D01*
X118890Y269361D01*
X118557Y270164D01*
X118028Y270854D01*
X117339Y271382D01*
X116825Y271595D01*
Y272093D01*
X134146Y289413D01*
X134195Y289435D01*
X134783Y289375D01*
X135392Y288581D01*
X136423Y287790D01*
X137623Y287293D01*
X138911Y287123D01*
X140199Y287293D01*
X141399Y287790D01*
X142430Y288581D01*
X143221Y289612D01*
X143718Y290812D01*
X143888Y292100D01*
X143718Y293388D01*
X143221Y294588D01*
X142430Y295619D01*
X141399Y296410D01*
X140199Y296907D01*
X138911Y297077D01*
D02*
G37*
G36*
X93590D02*
X92302Y296907D01*
X91102Y296410D01*
X90071Y295619D01*
X89280Y294588D01*
X88783Y293388D01*
X88613Y292100D01*
X88783Y290812D01*
X89280Y289612D01*
X90071Y288581D01*
X91102Y287790D01*
X92302Y287293D01*
X93590Y287123D01*
X94878Y287293D01*
X96078Y287790D01*
X97109Y288581D01*
X97900Y289612D01*
X98397Y290812D01*
X98567Y292100D01*
X98397Y293388D01*
X97900Y294588D01*
X97109Y295619D01*
X96078Y296410D01*
X94878Y296907D01*
X93590Y297077D01*
D02*
G37*
G36*
X29692D02*
X28404Y296907D01*
X27204Y296410D01*
X26173Y295619D01*
X25382Y294588D01*
X24885Y293388D01*
X24715Y292100D01*
X24885Y290812D01*
X25382Y289612D01*
X26173Y288581D01*
X27204Y287790D01*
X28404Y287293D01*
X29692Y287123D01*
X30980Y287293D01*
X32180Y287790D01*
X33211Y288581D01*
X34002Y289612D01*
X34499Y290812D01*
X34669Y292100D01*
X34499Y293388D01*
X34002Y294588D01*
X33211Y295619D01*
X32180Y296410D01*
X30980Y296907D01*
X29692Y297077D01*
D02*
G37*
G36*
X126075Y271574D02*
Y268900D01*
X128749D01*
X128695Y269309D01*
X128382Y270063D01*
X127885Y270711D01*
X127238Y271208D01*
X126484Y271520D01*
X126075Y271574D01*
D02*
G37*
G36*
X125275D02*
X124865Y271520D01*
X124111Y271208D01*
X123464Y270711D01*
X122967Y270063D01*
X122654Y269309D01*
X122600Y268900D01*
X125275D01*
Y271574D01*
D02*
G37*
G36*
X128749Y268100D02*
X126075D01*
Y265426D01*
X126484Y265480D01*
X127238Y265792D01*
X127885Y266289D01*
X128382Y266937D01*
X128695Y267691D01*
X128749Y268100D01*
D02*
G37*
G36*
X125275D02*
X122600D01*
X122654Y267691D01*
X122967Y266937D01*
X123464Y266289D01*
X124111Y265792D01*
X124865Y265480D01*
X125275Y265426D01*
Y268100D01*
D02*
G37*
G36*
X85000Y261690D02*
X84174Y261581D01*
X83405Y261262D01*
X82744Y260755D01*
X82238Y260095D01*
X81919Y259326D01*
X81810Y258500D01*
X81919Y257674D01*
X82030Y257405D01*
X73591Y248966D01*
X73549Y248937D01*
X72963Y248352D01*
X72675Y247921D01*
X72575Y247414D01*
Y239119D01*
X72505Y239090D01*
X71885Y238615D01*
X71410Y237996D01*
X71111Y237274D01*
X71009Y236500D01*
X71111Y235726D01*
X71181Y235556D01*
X63063Y227437D01*
X62775Y227007D01*
X62674Y226500D01*
Y219587D01*
X62306Y219434D01*
X61604Y218896D01*
X61066Y218194D01*
X60728Y217377D01*
X60612Y216500D01*
X60728Y215623D01*
X61066Y214806D01*
X61604Y214104D01*
X62306Y213566D01*
X63123Y213228D01*
X64000Y213112D01*
X64877Y213228D01*
X65694Y213566D01*
X66396Y214104D01*
X66934Y214806D01*
X67273Y215623D01*
X67388Y216500D01*
X67273Y217377D01*
X66934Y218194D01*
X66396Y218896D01*
X65694Y219434D01*
X65325Y219587D01*
Y225951D01*
X73056Y233681D01*
X73226Y233611D01*
X74000Y233509D01*
X74774Y233611D01*
X75495Y233910D01*
X76115Y234385D01*
X76590Y235004D01*
X76889Y235726D01*
X76991Y236500D01*
X76889Y237274D01*
X76590Y237996D01*
X76115Y238615D01*
X75495Y239090D01*
X75226Y239202D01*
Y246865D01*
X75394Y247034D01*
X75437Y247063D01*
X83905Y255531D01*
X84174Y255419D01*
X85000Y255310D01*
X85826Y255419D01*
X86595Y255738D01*
X87256Y256244D01*
X87762Y256905D01*
X88081Y257674D01*
X88190Y258500D01*
X88081Y259326D01*
X87762Y260095D01*
X87256Y260755D01*
X86595Y261262D01*
X85826Y261581D01*
X85000Y261690D01*
D02*
G37*
G36*
X213143Y249643D02*
X209400D01*
Y245900D01*
X213143D01*
Y249643D01*
D02*
G37*
G36*
X208600D02*
X204856D01*
Y245900D01*
X208600D01*
Y249643D01*
D02*
G37*
G36*
X67643D02*
X63900D01*
Y245900D01*
X67643D01*
Y249643D01*
D02*
G37*
G36*
X63100D02*
X59356D01*
Y245900D01*
X63100D01*
Y249643D01*
D02*
G37*
G36*
X43900Y249627D02*
Y245900D01*
X47627D01*
X47537Y246582D01*
X47119Y247590D01*
X46455Y248455D01*
X45590Y249119D01*
X44582Y249537D01*
X43900Y249627D01*
D02*
G37*
G36*
X43100D02*
X42418Y249537D01*
X41410Y249119D01*
X40545Y248455D01*
X39881Y247590D01*
X39463Y246582D01*
X39373Y245900D01*
X43100D01*
Y249627D01*
D02*
G37*
G36*
X105000Y251690D02*
X104174Y251581D01*
X103405Y251262D01*
X102744Y250756D01*
X102238Y250095D01*
X101919Y249326D01*
X101810Y248500D01*
X101919Y247674D01*
X102238Y246905D01*
X102744Y246245D01*
X103405Y245738D01*
X104174Y245419D01*
X105000Y245310D01*
X105826Y245419D01*
X106595Y245738D01*
X107255Y246245D01*
X107762Y246905D01*
X108081Y247674D01*
X108190Y248500D01*
X108081Y249326D01*
X107762Y250095D01*
X107255Y250756D01*
X106595Y251262D01*
X105826Y251581D01*
X105000Y251690D01*
D02*
G37*
G36*
X85000D02*
X84174Y251581D01*
X83405Y251262D01*
X82744Y250756D01*
X82238Y250095D01*
X81919Y249326D01*
X81810Y248500D01*
X81919Y247674D01*
X82238Y246905D01*
X82744Y246245D01*
X83405Y245738D01*
X84174Y245419D01*
X85000Y245310D01*
X85826Y245419D01*
X86595Y245738D01*
X87256Y246245D01*
X87762Y246905D01*
X88081Y247674D01*
X88190Y248500D01*
X88081Y249326D01*
X87762Y250095D01*
X87256Y250756D01*
X86595Y251262D01*
X85826Y251581D01*
X85000Y251690D01*
D02*
G37*
G36*
X47627Y245100D02*
X43900D01*
Y241373D01*
X44582Y241463D01*
X45590Y241881D01*
X46455Y242545D01*
X47119Y243410D01*
X47537Y244418D01*
X47627Y245100D01*
D02*
G37*
G36*
X43100D02*
X39373D01*
X39463Y244418D01*
X39881Y243410D01*
X40545Y242545D01*
X41410Y241881D01*
X42418Y241463D01*
X43100Y241373D01*
Y245100D01*
D02*
G37*
G36*
X213143D02*
X209400D01*
Y241356D01*
X213143D01*
Y245100D01*
D02*
G37*
G36*
X208600D02*
X204856D01*
Y241356D01*
X208600D01*
Y245100D01*
D02*
G37*
G36*
X67643D02*
X63900D01*
Y241356D01*
X67643D01*
Y245100D01*
D02*
G37*
G36*
X63100D02*
X59356D01*
Y241356D01*
X63100D01*
Y245100D01*
D02*
G37*
G36*
X105000Y261690D02*
X104174Y261581D01*
X103405Y261262D01*
X102744Y260755D01*
X102238Y260095D01*
X101919Y259326D01*
X101810Y258500D01*
X101919Y257674D01*
X102238Y256905D01*
X102744Y256244D01*
X103405Y255738D01*
X104174Y255419D01*
X105000Y255310D01*
X105826Y255419D01*
X106595Y255738D01*
X107255Y256244D01*
X107762Y256905D01*
X107874Y257174D01*
X175451D01*
X185127Y247499D01*
X184768Y246634D01*
X184619Y245500D01*
X184768Y244366D01*
X185206Y243309D01*
X185902Y242402D01*
X186810Y241706D01*
X187866Y241268D01*
X189000Y241119D01*
X190134Y241268D01*
X191191Y241706D01*
X192098Y242402D01*
X192794Y243309D01*
X193232Y244366D01*
X193381Y245500D01*
X193232Y246634D01*
X192794Y247691D01*
X192098Y248598D01*
X191191Y249294D01*
X190134Y249732D01*
X189000Y249881D01*
X187866Y249732D01*
X187001Y249373D01*
X176937Y259437D01*
X176507Y259725D01*
X176000Y259825D01*
X107874D01*
X107762Y260095D01*
X107255Y260755D01*
X106595Y261262D01*
X105826Y261581D01*
X105000Y261690D01*
D02*
G37*
G36*
Y241690D02*
X104174Y241581D01*
X103405Y241262D01*
X102744Y240756D01*
X102238Y240095D01*
X102126Y239826D01*
X87874D01*
X87762Y240095D01*
X87256Y240756D01*
X86595Y241262D01*
X85826Y241581D01*
X85000Y241690D01*
X84174Y241581D01*
X83405Y241262D01*
X82744Y240756D01*
X82238Y240095D01*
X81919Y239326D01*
X81810Y238500D01*
X81919Y237674D01*
X82238Y236905D01*
X82744Y236245D01*
X83405Y235738D01*
X84174Y235419D01*
X85000Y235310D01*
X85826Y235419D01*
X86595Y235738D01*
X87256Y236245D01*
X87762Y236905D01*
X87874Y237175D01*
X102126D01*
X102238Y236905D01*
X102744Y236245D01*
X103405Y235738D01*
X104174Y235419D01*
X105000Y235310D01*
X105826Y235419D01*
X106595Y235738D01*
X107255Y236245D01*
X107762Y236905D01*
X108081Y237674D01*
X108190Y238500D01*
X108081Y239326D01*
X107762Y240095D01*
X107255Y240756D01*
X106595Y241262D01*
X105826Y241581D01*
X105000Y241690D01*
D02*
G37*
G36*
X126075Y241574D02*
Y238900D01*
X128749D01*
X128695Y239309D01*
X128382Y240063D01*
X127885Y240711D01*
X127238Y241208D01*
X126484Y241520D01*
X126075Y241574D01*
D02*
G37*
G36*
X125275D02*
X124865Y241520D01*
X124111Y241208D01*
X123464Y240711D01*
X122967Y240063D01*
X122654Y239309D01*
X122600Y238900D01*
X125275D01*
Y241574D01*
D02*
G37*
G36*
X44400Y239237D02*
Y236900D01*
X46737D01*
X46694Y237222D01*
X46416Y237895D01*
X45972Y238472D01*
X45395Y238916D01*
X44722Y239194D01*
X44400Y239237D01*
D02*
G37*
G36*
X43600D02*
X43278Y239194D01*
X42605Y238916D01*
X42028Y238472D01*
X41584Y237895D01*
X41306Y237222D01*
X41263Y236900D01*
X43600D01*
Y239237D01*
D02*
G37*
G36*
X128749Y238100D02*
X126075D01*
Y235426D01*
X126484Y235480D01*
X127238Y235792D01*
X127885Y236289D01*
X128382Y236937D01*
X128695Y237691D01*
X128749Y238100D01*
D02*
G37*
G36*
X125275D02*
X122600D01*
X122654Y237691D01*
X122967Y236937D01*
X123464Y236289D01*
X124111Y235792D01*
X124865Y235480D01*
X125275Y235426D01*
Y238100D01*
D02*
G37*
G36*
X115674Y241828D02*
X114813Y241715D01*
X114010Y241383D01*
X113321Y240854D01*
X112792Y240164D01*
X112460Y239362D01*
X112346Y238500D01*
X112460Y237638D01*
X112792Y236836D01*
X113321Y236146D01*
X114010Y235617D01*
X114813Y235285D01*
X115674Y235172D01*
X116536Y235285D01*
X117339Y235617D01*
X118028Y236146D01*
X118557Y236836D01*
X118890Y237638D01*
X119003Y238500D01*
X118890Y239362D01*
X118557Y240164D01*
X118028Y240854D01*
X117339Y241383D01*
X116536Y241715D01*
X115674Y241828D01*
D02*
G37*
G36*
X46737Y236100D02*
X44400D01*
Y233763D01*
X44722Y233806D01*
X45395Y234084D01*
X45972Y234528D01*
X46416Y235105D01*
X46694Y235778D01*
X46737Y236100D01*
D02*
G37*
G36*
X43600D02*
X41263D01*
X41306Y235778D01*
X41584Y235105D01*
X42028Y234528D01*
X42605Y234084D01*
X43278Y233806D01*
X43600Y233763D01*
Y236100D01*
D02*
G37*
G36*
X23500Y249881D02*
X22366Y249732D01*
X21309Y249294D01*
X20402Y248598D01*
X19706Y247691D01*
X19268Y246634D01*
X19119Y245500D01*
X19268Y244366D01*
X19706Y243309D01*
X20402Y242402D01*
X21309Y241706D01*
X22174Y241348D01*
Y241119D01*
X22275Y240612D01*
X22563Y240182D01*
X26469Y236275D01*
X26876Y236003D01*
X26919Y235675D01*
X27238Y234905D01*
X27745Y234245D01*
X28405Y233738D01*
X29175Y233419D01*
X30000Y233311D01*
X30825Y233419D01*
X31595Y233738D01*
X32255Y234245D01*
X32762Y234905D01*
X33081Y235675D01*
X33189Y236500D01*
X33081Y237326D01*
X32762Y238095D01*
X32255Y238755D01*
X31595Y239262D01*
X30825Y239581D01*
X30000Y239689D01*
X29175Y239581D01*
X28405Y239262D01*
X27745Y238755D01*
X27739Y238755D01*
X25370Y241123D01*
X25468Y241614D01*
X25690Y241706D01*
X26598Y242402D01*
X27294Y243309D01*
X27732Y244366D01*
X27881Y245500D01*
X27732Y246634D01*
X27294Y247691D01*
X26598Y248598D01*
X25690Y249294D01*
X24634Y249732D01*
X23500Y249881D01*
D02*
G37*
G36*
X176900Y232617D02*
Y229685D01*
X179832D01*
X179770Y230161D01*
X179431Y230977D01*
X178893Y231678D01*
X178192Y232216D01*
X177376Y232555D01*
X176900Y232617D01*
D02*
G37*
G36*
X176100D02*
X175624Y232555D01*
X174808Y232216D01*
X174107Y231678D01*
X173568Y230977D01*
X173230Y230161D01*
X173168Y229685D01*
X176100D01*
Y232617D01*
D02*
G37*
G36*
X74400Y229237D02*
Y226900D01*
X76737D01*
X76694Y227222D01*
X76416Y227895D01*
X75972Y228472D01*
X75395Y228916D01*
X74722Y229194D01*
X74400Y229237D01*
D02*
G37*
G36*
X73600D02*
X73278Y229194D01*
X72605Y228916D01*
X72028Y228472D01*
X71584Y227895D01*
X71306Y227222D01*
X71263Y226900D01*
X73600D01*
Y229237D01*
D02*
G37*
G36*
X179832Y228885D02*
X176900D01*
Y225953D01*
X177376Y226015D01*
X178192Y226353D01*
X178893Y226891D01*
X179431Y227592D01*
X179770Y228409D01*
X179832Y228885D01*
D02*
G37*
G36*
X176100D02*
X173168D01*
X173230Y228409D01*
X173568Y227592D01*
X174107Y226891D01*
X174808Y226353D01*
X175624Y226015D01*
X176100Y225953D01*
Y228885D01*
D02*
G37*
G36*
X152056Y232841D02*
X144944D01*
Y225729D01*
X152056D01*
Y232841D01*
D02*
G37*
G36*
X134411Y227534D02*
Y224800D01*
X137145D01*
X137089Y225225D01*
X136770Y225993D01*
X136264Y226653D01*
X135604Y227159D01*
X134836Y227478D01*
X134411Y227534D01*
D02*
G37*
G36*
X133611D02*
X133186Y227478D01*
X132418Y227159D01*
X131758Y226653D01*
X131252Y225993D01*
X130933Y225225D01*
X130877Y224800D01*
X133611D01*
Y227534D01*
D02*
G37*
G36*
X76737Y226100D02*
X74400D01*
Y223763D01*
X74722Y223806D01*
X75395Y224084D01*
X75972Y224528D01*
X76416Y225105D01*
X76694Y225778D01*
X76737Y226100D01*
D02*
G37*
G36*
X73600D02*
X71263D01*
X71306Y225778D01*
X71584Y225105D01*
X72028Y224528D01*
X72605Y224084D01*
X73278Y223806D01*
X73600Y223763D01*
Y226100D01*
D02*
G37*
G36*
X137145Y224000D02*
X134411D01*
Y221266D01*
X134836Y221322D01*
X135604Y221641D01*
X136264Y222147D01*
X136770Y222807D01*
X137089Y223575D01*
X137145Y224000D01*
D02*
G37*
G36*
X133611D02*
X130877D01*
X130933Y223575D01*
X131252Y222807D01*
X131758Y222147D01*
X132418Y221641D01*
X133186Y221322D01*
X133611Y221266D01*
Y224000D01*
D02*
G37*
G36*
X85000Y221690D02*
X84174Y221581D01*
X83405Y221262D01*
X82744Y220756D01*
X82238Y220095D01*
X81919Y219326D01*
X81810Y218500D01*
X81919Y217674D01*
X82238Y216905D01*
X82744Y216245D01*
X83405Y215738D01*
X84174Y215419D01*
X85000Y215310D01*
X85826Y215419D01*
X86595Y215738D01*
X87256Y216245D01*
X87762Y216905D01*
X88081Y217674D01*
X88190Y218500D01*
X88081Y219326D01*
X87762Y220095D01*
X87256Y220756D01*
X86595Y221262D01*
X85826Y221581D01*
X85000Y221690D01*
D02*
G37*
G36*
X114011Y227788D02*
X113134Y227673D01*
X112317Y227334D01*
X111615Y226796D01*
X111077Y226094D01*
X110738Y225277D01*
X110623Y224400D01*
X110738Y223523D01*
X111077Y222706D01*
X111542Y222099D01*
Y211447D01*
X108162D01*
Y212162D01*
X107447D01*
Y216494D01*
X107762Y216905D01*
X108081Y217674D01*
X108190Y218500D01*
X108081Y219326D01*
X107762Y220095D01*
X107255Y220756D01*
X106595Y221262D01*
X105826Y221581D01*
X105000Y221690D01*
X104174Y221581D01*
X103405Y221262D01*
X102744Y220756D01*
X102238Y220095D01*
X101919Y219326D01*
X101810Y218500D01*
X101919Y217674D01*
X102238Y216905D01*
X102553Y216494D01*
Y212162D01*
X101838D01*
Y205838D01*
X108162D01*
Y206553D01*
X111848D01*
X112395Y206134D01*
X113164Y205815D01*
X113989Y205706D01*
X114815Y205815D01*
X115584Y206134D01*
X116244Y206641D01*
X116751Y207301D01*
X117070Y208070D01*
X117179Y208896D01*
X117070Y209721D01*
X116751Y210490D01*
X116436Y210901D01*
Y222043D01*
X116945Y222706D01*
X117283Y223523D01*
X117399Y224400D01*
X117283Y225277D01*
X116945Y226094D01*
X116407Y226796D01*
X115705Y227334D01*
X114888Y227673D01*
X114011Y227788D01*
D02*
G37*
G36*
X124389Y211831D02*
Y209296D01*
X126924D01*
X126875Y209669D01*
X126577Y210389D01*
X126102Y211008D01*
X125483Y211483D01*
X124762Y211781D01*
X124389Y211831D01*
D02*
G37*
G36*
X123589D02*
X123216Y211781D01*
X122495Y211483D01*
X121877Y211008D01*
X121402Y210389D01*
X121104Y209669D01*
X121054Y209296D01*
X123589D01*
Y211831D01*
D02*
G37*
G36*
X158900Y211611D02*
Y209275D01*
X161237D01*
X161194Y209596D01*
X160916Y210269D01*
X160472Y210847D01*
X159895Y211290D01*
X159222Y211569D01*
X158900Y211611D01*
D02*
G37*
G36*
X158100D02*
X157778Y211569D01*
X157105Y211290D01*
X156528Y210847D01*
X156084Y210269D01*
X155806Y209596D01*
X155763Y209275D01*
X158100D01*
Y211611D01*
D02*
G37*
G36*
X44000Y219888D02*
X43123Y219773D01*
X42306Y219434D01*
X41604Y218896D01*
X41066Y218194D01*
X40727Y217377D01*
X40612Y216500D01*
X40727Y215623D01*
X41066Y214806D01*
X41604Y214104D01*
X42306Y213566D01*
X42674Y213413D01*
Y209182D01*
X42505Y209111D01*
X41885Y208636D01*
X41410Y208016D01*
X41331Y207825D01*
X32873D01*
X32762Y208095D01*
X32255Y208755D01*
X31595Y209262D01*
X30825Y209581D01*
X30000Y209689D01*
X29175Y209581D01*
X28405Y209262D01*
X27745Y208755D01*
X27238Y208095D01*
X26919Y207326D01*
X26811Y206500D01*
X26919Y205675D01*
X27238Y204905D01*
X27745Y204245D01*
X28405Y203738D01*
X29175Y203419D01*
X30000Y203311D01*
X30825Y203419D01*
X31595Y203738D01*
X32255Y204245D01*
X32762Y204905D01*
X32873Y205174D01*
X41348D01*
X41410Y205026D01*
X41885Y204406D01*
X42505Y203931D01*
X43226Y203632D01*
X44000Y203530D01*
X44774Y203632D01*
X45496Y203931D01*
X46115Y204406D01*
X46590Y205026D01*
X46889Y205747D01*
X46991Y206521D01*
X46889Y207295D01*
X46590Y208016D01*
X46115Y208636D01*
X45496Y209111D01*
X45325Y209182D01*
Y213413D01*
X45694Y213566D01*
X46396Y214104D01*
X46934Y214806D01*
X47273Y215623D01*
X47388Y216500D01*
X47273Y217377D01*
X46934Y218194D01*
X46396Y218896D01*
X45694Y219434D01*
X44877Y219773D01*
X44000Y219888D01*
D02*
G37*
G36*
X161237Y208474D02*
X158900D01*
Y206138D01*
X159222Y206180D01*
X159895Y206459D01*
X160472Y206902D01*
X160916Y207480D01*
X161194Y208153D01*
X161237Y208474D01*
D02*
G37*
G36*
X158100D02*
X155763D01*
X155806Y208153D01*
X156084Y207480D01*
X156528Y206902D01*
X157105Y206459D01*
X157778Y206180D01*
X158100Y206138D01*
Y208474D01*
D02*
G37*
G36*
X126924Y208496D02*
X124389D01*
Y205961D01*
X124762Y206010D01*
X125483Y206308D01*
X126102Y206783D01*
X126577Y207402D01*
X126875Y208122D01*
X126924Y208496D01*
D02*
G37*
G36*
X123589D02*
X121054D01*
X121104Y208122D01*
X121402Y207402D01*
X121877Y206783D01*
X122495Y206308D01*
X123216Y206010D01*
X123589Y205961D01*
Y208496D01*
D02*
G37*
G36*
X151465Y211840D02*
X145535D01*
Y205909D01*
X151465D01*
Y211840D01*
D02*
G37*
G36*
X85000Y212189D02*
X84175Y212081D01*
X83405Y211762D01*
X82745Y211255D01*
X82238Y210595D01*
X81919Y209825D01*
X81811Y209000D01*
X81919Y208174D01*
X82238Y207405D01*
X82745Y206745D01*
X83405Y206238D01*
X84175Y205919D01*
X85000Y205811D01*
X85826Y205919D01*
X86595Y206238D01*
X87255Y206745D01*
X87762Y207405D01*
X88081Y208174D01*
X88189Y209000D01*
X88081Y209825D01*
X87762Y210595D01*
X87255Y211255D01*
X86595Y211762D01*
X85826Y212081D01*
X85000Y212189D01*
D02*
G37*
G36*
X133989Y212085D02*
X133164Y211976D01*
X132395Y211658D01*
X131734Y211151D01*
X131227Y210490D01*
X130909Y209721D01*
X130800Y208896D01*
X130909Y208070D01*
X131227Y207301D01*
X131734Y206641D01*
X132395Y206134D01*
X133164Y205815D01*
X133989Y205706D01*
X134815Y205815D01*
X135584Y206134D01*
X136244Y206641D01*
X136751Y207301D01*
X137070Y208070D01*
X137179Y208896D01*
X137070Y209721D01*
X136751Y210490D01*
X136244Y211151D01*
X135584Y211658D01*
X134815Y211976D01*
X133989Y212085D01*
D02*
G37*
G36*
X74000Y209512D02*
X73226Y209410D01*
X72505Y209111D01*
X71885Y208636D01*
X71410Y208016D01*
X71111Y207295D01*
X71009Y206521D01*
X71111Y205747D01*
X71181Y205577D01*
X63063Y197458D01*
X62775Y197028D01*
X62674Y196521D01*
Y186112D01*
X62775Y185605D01*
X63063Y185175D01*
X71094Y177144D01*
X71009Y176500D01*
X71111Y175726D01*
X71410Y175004D01*
X71885Y174385D01*
X72505Y173910D01*
X73226Y173611D01*
X74000Y173509D01*
X74774Y173611D01*
X74944Y173681D01*
X79183Y169442D01*
Y163658D01*
X74844Y159319D01*
X74674Y159389D01*
X73900Y159491D01*
X73126Y159389D01*
X72404Y159090D01*
X71785Y158615D01*
X71310Y157995D01*
X71011Y157274D01*
X70909Y156500D01*
X71011Y155726D01*
X71310Y155005D01*
X71785Y154385D01*
X72404Y153910D01*
X73126Y153611D01*
X73900Y153509D01*
X74674Y153611D01*
X75396Y153910D01*
X76015Y154385D01*
X76490Y155005D01*
X76789Y155726D01*
X76891Y156500D01*
X76789Y157274D01*
X76719Y157444D01*
X81446Y162172D01*
X81734Y162602D01*
X81834Y163109D01*
Y169991D01*
X81734Y170498D01*
X81446Y170928D01*
X76819Y175556D01*
X76889Y175726D01*
X76991Y176500D01*
X76889Y177274D01*
X76590Y177996D01*
X76115Y178615D01*
X75495Y179090D01*
X74774Y179389D01*
X74000Y179491D01*
X73226Y179389D01*
X72781Y179205D01*
X65325Y186661D01*
Y195972D01*
X73056Y203702D01*
X73226Y203632D01*
X74000Y203530D01*
X74774Y203632D01*
X75495Y203931D01*
X76115Y204406D01*
X76590Y205026D01*
X76889Y205747D01*
X76991Y206521D01*
X76889Y207295D01*
X76590Y208016D01*
X76115Y208636D01*
X75495Y209111D01*
X74774Y209410D01*
X74000Y209512D01*
D02*
G37*
G36*
X30000Y199689D02*
X29175Y199581D01*
X28405Y199262D01*
X27745Y198755D01*
X27238Y198095D01*
X27127Y197826D01*
X18000D01*
X17493Y197725D01*
X17063Y197437D01*
X11563Y191937D01*
X11275Y191507D01*
X11174Y191000D01*
Y184500D01*
X11275Y183993D01*
X11563Y183563D01*
X17531Y177595D01*
X17419Y177325D01*
X17311Y176500D01*
X17419Y175674D01*
X17738Y174905D01*
X18245Y174245D01*
X18905Y173738D01*
X19674Y173419D01*
X20500Y173311D01*
X21326Y173419D01*
X21595Y173531D01*
X29563Y165563D01*
X29993Y165275D01*
X30500Y165174D01*
X31413D01*
X31566Y164806D01*
X32104Y164104D01*
X32806Y163566D01*
X33623Y163227D01*
X34500Y163112D01*
X35377Y163227D01*
X36194Y163566D01*
X36896Y164104D01*
X37434Y164806D01*
X37773Y165623D01*
X37888Y166500D01*
X37773Y167377D01*
X37434Y168194D01*
X36896Y168896D01*
X36194Y169434D01*
X35377Y169773D01*
X34500Y169888D01*
X33623Y169773D01*
X32806Y169434D01*
X32104Y168896D01*
X31566Y168194D01*
X31481Y167989D01*
X30951Y167923D01*
X23469Y175405D01*
X23581Y175674D01*
X23689Y176500D01*
X23581Y177325D01*
X23262Y178095D01*
X22755Y178755D01*
X22095Y179262D01*
X21326Y179581D01*
X20500Y179689D01*
X19674Y179581D01*
X19405Y179469D01*
X13826Y185049D01*
Y190451D01*
X18549Y195175D01*
X27127D01*
X27238Y194905D01*
X27745Y194245D01*
X28405Y193738D01*
X29175Y193419D01*
X30000Y193311D01*
X30825Y193419D01*
X31595Y193738D01*
X32255Y194245D01*
X32762Y194905D01*
X32873Y195175D01*
X41339D01*
X41410Y195004D01*
X41885Y194385D01*
X42505Y193910D01*
X43226Y193611D01*
X44000Y193509D01*
X44774Y193611D01*
X45496Y193910D01*
X46115Y194385D01*
X46590Y195004D01*
X46889Y195726D01*
X46991Y196500D01*
X46889Y197274D01*
X46590Y197995D01*
X46115Y198615D01*
X45496Y199090D01*
X44774Y199389D01*
X44000Y199491D01*
X43226Y199389D01*
X42505Y199090D01*
X41885Y198615D01*
X41410Y197995D01*
X41339Y197826D01*
X32873D01*
X32762Y198095D01*
X32255Y198755D01*
X31595Y199262D01*
X30825Y199581D01*
X30000Y199689D01*
D02*
G37*
G36*
X169000Y249881D02*
X167866Y249732D01*
X166809Y249294D01*
X165902Y248598D01*
X165206Y247691D01*
X164768Y246634D01*
X164619Y245500D01*
X164768Y244366D01*
X165206Y243309D01*
X165902Y242402D01*
X166809Y241706D01*
X167866Y241268D01*
X169000Y241119D01*
X170134Y241268D01*
X171191Y241706D01*
X172098Y242402D01*
X172794Y243309D01*
X173152Y244175D01*
X175189D01*
X191674Y227689D01*
Y197873D01*
X191405Y197762D01*
X190745Y197255D01*
X190238Y196595D01*
X189919Y195826D01*
X189811Y195000D01*
X189919Y194175D01*
X190238Y193405D01*
X190745Y192745D01*
X191405Y192238D01*
X192174Y191919D01*
X193000Y191811D01*
X193825Y191919D01*
X194595Y192238D01*
X195255Y192745D01*
X195762Y193405D01*
X196081Y194175D01*
X196189Y195000D01*
X196081Y195826D01*
X195762Y196595D01*
X195255Y197255D01*
X194595Y197762D01*
X194325Y197873D01*
Y228238D01*
X194225Y228745D01*
X193937Y229175D01*
X176675Y246437D01*
X176245Y246725D01*
X175738Y246826D01*
X173152D01*
X172794Y247691D01*
X172098Y248598D01*
X171191Y249294D01*
X170134Y249732D01*
X169000Y249881D01*
D02*
G37*
G36*
X34500Y189888D02*
X33623Y189772D01*
X32806Y189434D01*
X32104Y188896D01*
X31566Y188194D01*
X31413Y187826D01*
X23373D01*
X23262Y188095D01*
X22755Y188755D01*
X22095Y189262D01*
X21326Y189581D01*
X20500Y189689D01*
X19674Y189581D01*
X18905Y189262D01*
X18245Y188755D01*
X17738Y188095D01*
X17419Y187326D01*
X17311Y186500D01*
X17419Y185675D01*
X17738Y184905D01*
X18245Y184245D01*
X18905Y183738D01*
X19674Y183419D01*
X20500Y183311D01*
X21326Y183419D01*
X22095Y183738D01*
X22755Y184245D01*
X23262Y184905D01*
X23373Y185175D01*
X31413D01*
X31566Y184806D01*
X32104Y184104D01*
X32806Y183566D01*
X33174Y183413D01*
Y176000D01*
X33275Y175493D01*
X33563Y175063D01*
X41181Y167444D01*
X41111Y167274D01*
X41009Y166500D01*
X41111Y165726D01*
X41410Y165005D01*
X41885Y164385D01*
X42505Y163910D01*
X43226Y163611D01*
X44000Y163509D01*
X44774Y163611D01*
X44944Y163681D01*
X63563Y145063D01*
X63993Y144775D01*
X64500Y144675D01*
X64838D01*
Y142838D01*
X71162D01*
Y149162D01*
X64838D01*
Y148190D01*
X64376Y147998D01*
X46819Y165556D01*
X46889Y165726D01*
X46991Y166500D01*
X46889Y167274D01*
X46590Y167996D01*
X46115Y168615D01*
X45496Y169090D01*
X44774Y169389D01*
X44000Y169491D01*
X43226Y169389D01*
X43056Y169319D01*
X35825Y176549D01*
Y183413D01*
X36194Y183566D01*
X36896Y184104D01*
X37434Y184806D01*
X37587Y185175D01*
X41339D01*
X41410Y185004D01*
X41885Y184385D01*
X42505Y183910D01*
X43226Y183611D01*
X44000Y183509D01*
X44774Y183611D01*
X45496Y183910D01*
X46115Y184385D01*
X46590Y185004D01*
X46889Y185726D01*
X46991Y186500D01*
X46889Y187274D01*
X46590Y187996D01*
X46115Y188615D01*
X45496Y189090D01*
X44774Y189389D01*
X44000Y189491D01*
X43226Y189389D01*
X42505Y189090D01*
X41885Y188615D01*
X41410Y187996D01*
X41339Y187826D01*
X37587D01*
X37434Y188194D01*
X36896Y188896D01*
X36194Y189434D01*
X35377Y189772D01*
X34500Y189888D01*
D02*
G37*
G36*
X180802Y187737D02*
Y185400D01*
X183139D01*
X183096Y185722D01*
X182818Y186395D01*
X182374Y186972D01*
X181797Y187416D01*
X181124Y187694D01*
X180802Y187737D01*
D02*
G37*
G36*
X180002D02*
X179680Y187694D01*
X179007Y187416D01*
X178430Y186972D01*
X177986Y186395D01*
X177708Y185722D01*
X177665Y185400D01*
X180002D01*
Y187737D01*
D02*
G37*
G36*
X134095Y189593D02*
X133321Y189491D01*
X132599Y189192D01*
X131980Y188717D01*
X131504Y188098D01*
X131206Y187376D01*
X131104Y186602D01*
X131206Y185828D01*
X131504Y185106D01*
X131980Y184487D01*
X132599Y184012D01*
X133321Y183713D01*
X134095Y183611D01*
X134869Y183713D01*
X135590Y184012D01*
X136210Y184487D01*
X136685Y185106D01*
X136984Y185828D01*
X137086Y186602D01*
X136984Y187376D01*
X136685Y188098D01*
X136210Y188717D01*
X135590Y189192D01*
X134869Y189491D01*
X134095Y189593D01*
D02*
G37*
G36*
X183139Y184600D02*
X180802D01*
Y182263D01*
X181124Y182306D01*
X181797Y182584D01*
X182374Y183028D01*
X182818Y183605D01*
X183096Y184278D01*
X183139Y184600D01*
D02*
G37*
G36*
X180002D02*
X177665D01*
X177708Y184278D01*
X177986Y183605D01*
X178430Y183028D01*
X179007Y182584D01*
X179680Y182306D01*
X180002Y182263D01*
Y184600D01*
D02*
G37*
G36*
X44400Y179237D02*
Y176900D01*
X46737D01*
X46694Y177222D01*
X46416Y177895D01*
X45972Y178472D01*
X45395Y178916D01*
X44722Y179194D01*
X44400Y179237D01*
D02*
G37*
G36*
X43600D02*
X43278Y179194D01*
X42605Y178916D01*
X42028Y178472D01*
X41584Y177895D01*
X41306Y177222D01*
X41263Y176900D01*
X43600D01*
Y179237D01*
D02*
G37*
G36*
X196162Y188162D02*
X189838D01*
Y181838D01*
X191674D01*
Y177874D01*
X191405Y177762D01*
X190745Y177255D01*
X190238Y176595D01*
X190127Y176326D01*
X183061D01*
X182990Y176496D01*
X182515Y177115D01*
X181895Y177590D01*
X181174Y177889D01*
X180400Y177991D01*
X179626Y177889D01*
X178904Y177590D01*
X178285Y177115D01*
X177810Y176496D01*
X177511Y175774D01*
X177409Y175000D01*
X177511Y174226D01*
X177810Y173504D01*
X178285Y172885D01*
X178904Y172410D01*
X179626Y172111D01*
X180400Y172009D01*
X181174Y172111D01*
X181895Y172410D01*
X182515Y172885D01*
X182990Y173504D01*
X183061Y173674D01*
X190127D01*
X190238Y173405D01*
X190745Y172745D01*
X191405Y172238D01*
X192174Y171919D01*
X193000Y171811D01*
X193825Y171919D01*
X194095Y172031D01*
X202063Y164063D01*
X202493Y163775D01*
X203000Y163674D01*
X205149D01*
Y161838D01*
X211473D01*
Y168162D01*
X205149D01*
Y166325D01*
X203549D01*
X195969Y173905D01*
X196081Y174174D01*
X196189Y175000D01*
X196081Y175826D01*
X195762Y176595D01*
X195255Y177255D01*
X194595Y177762D01*
X194325Y177874D01*
Y181838D01*
X196162D01*
Y188162D01*
D02*
G37*
G36*
X46737Y176100D02*
X44400D01*
Y173763D01*
X44722Y173806D01*
X45395Y174084D01*
X45972Y174528D01*
X46416Y175105D01*
X46694Y175778D01*
X46737Y176100D01*
D02*
G37*
G36*
X43600D02*
X41263D01*
X41306Y175778D01*
X41584Y175105D01*
X42028Y174528D01*
X42605Y174084D01*
X43278Y173806D01*
X43600Y173763D01*
Y176100D01*
D02*
G37*
G36*
X33162Y229662D02*
X26838D01*
Y223338D01*
X28675D01*
Y219373D01*
X28405Y219262D01*
X27745Y218755D01*
X27238Y218095D01*
X26919Y217325D01*
X26811Y216500D01*
X26919Y215674D01*
X27238Y214905D01*
X27745Y214245D01*
X28405Y213738D01*
X29175Y213419D01*
X30000Y213311D01*
X30825Y213419D01*
X31595Y213738D01*
X32255Y214245D01*
X32762Y214905D01*
X33081Y215674D01*
X33189Y216500D01*
X33081Y217325D01*
X32762Y218095D01*
X32255Y218755D01*
X31595Y219262D01*
X31326Y219373D01*
Y223338D01*
X33162D01*
Y225174D01*
X41339D01*
X41410Y225005D01*
X41885Y224385D01*
X42505Y223910D01*
X43226Y223611D01*
X44000Y223509D01*
X44774Y223611D01*
X44944Y223681D01*
X53902Y214724D01*
Y185273D01*
X54003Y184765D01*
X54290Y184335D01*
X71181Y167444D01*
X71111Y167274D01*
X71009Y166500D01*
X71111Y165726D01*
X71410Y165005D01*
X71885Y164385D01*
X72505Y163910D01*
X73226Y163611D01*
X74000Y163509D01*
X74774Y163611D01*
X75495Y163910D01*
X76115Y164385D01*
X76590Y165005D01*
X76889Y165726D01*
X76991Y166500D01*
X76889Y167274D01*
X76590Y167996D01*
X76115Y168615D01*
X75495Y169090D01*
X74774Y169389D01*
X74000Y169491D01*
X73226Y169389D01*
X73056Y169319D01*
X56553Y185822D01*
Y215273D01*
X56452Y215780D01*
X56165Y216210D01*
X46819Y225556D01*
X46889Y225726D01*
X46991Y226500D01*
X46889Y227274D01*
X46590Y227995D01*
X46115Y228615D01*
X45496Y229090D01*
X44774Y229389D01*
X44000Y229491D01*
X43226Y229389D01*
X42505Y229090D01*
X41885Y228615D01*
X41410Y227995D01*
X41339Y227825D01*
X33162D01*
Y229662D01*
D02*
G37*
G36*
X104400Y165727D02*
Y163390D01*
X106737D01*
X106694Y163712D01*
X106416Y164385D01*
X105972Y164962D01*
X105395Y165406D01*
X104722Y165684D01*
X104400Y165727D01*
D02*
G37*
G36*
X103600D02*
X103278Y165684D01*
X102605Y165406D01*
X102028Y164962D01*
X101584Y164385D01*
X101306Y163712D01*
X101263Y163390D01*
X103600D01*
Y165727D01*
D02*
G37*
G36*
X74000Y199491D02*
X73226Y199389D01*
X72505Y199090D01*
X71885Y198615D01*
X71410Y197995D01*
X71111Y197274D01*
X71009Y196500D01*
X71111Y195726D01*
X71410Y195004D01*
X71553Y194818D01*
Y188182D01*
X71410Y187996D01*
X71111Y187274D01*
X71009Y186500D01*
X71111Y185726D01*
X71410Y185004D01*
X71885Y184385D01*
X72505Y183910D01*
X73226Y183611D01*
X74000Y183509D01*
X74774Y183611D01*
X75495Y183910D01*
X75682Y184053D01*
X101648D01*
Y175955D01*
X101034D01*
Y170024D01*
X106965D01*
Y170543D01*
X120861D01*
X121797Y170729D01*
X122591Y171260D01*
X122898Y171566D01*
X123292Y171514D01*
X124169Y171630D01*
X124986Y171968D01*
X125621Y172455D01*
X147953D01*
Y166680D01*
X147812Y166496D01*
X147513Y165774D01*
X147411Y165000D01*
X147513Y164226D01*
X147812Y163505D01*
X148287Y162885D01*
X148907Y162410D01*
X149628Y162111D01*
X150402Y162009D01*
X151176Y162111D01*
X151898Y162410D01*
X152517Y162885D01*
X152992Y163505D01*
X153291Y164226D01*
X153393Y165000D01*
X153291Y165774D01*
X152992Y166496D01*
X152847Y166685D01*
Y173318D01*
X152990Y173504D01*
X153289Y174226D01*
X153391Y175000D01*
X153289Y175774D01*
X152990Y176496D01*
X152515Y177115D01*
X151895Y177590D01*
X151174Y177889D01*
X150400Y177991D01*
X149626Y177889D01*
X148905Y177590D01*
X148590Y177349D01*
X125621D01*
X124986Y177836D01*
X124169Y178174D01*
X123292Y178290D01*
X122415Y178174D01*
X121598Y177836D01*
X120896Y177298D01*
X120358Y176596D01*
X120019Y175779D01*
X119994Y175583D01*
X119847Y175437D01*
X106965D01*
Y175955D01*
X106542D01*
Y184920D01*
X106685Y185106D01*
X106984Y185828D01*
X107086Y186602D01*
X106984Y187376D01*
X106685Y188098D01*
X106210Y188717D01*
X105590Y189192D01*
X104869Y189491D01*
X104095Y189593D01*
X103321Y189491D01*
X102599Y189192D01*
X102280Y188947D01*
X76447D01*
Y194818D01*
X76590Y195004D01*
X76889Y195726D01*
X76991Y196500D01*
X76889Y197274D01*
X76590Y197995D01*
X76115Y198615D01*
X75495Y199090D01*
X74774Y199389D01*
X74000Y199491D01*
D02*
G37*
G36*
X150402Y187991D02*
X149628Y187889D01*
X148907Y187590D01*
X148287Y187115D01*
X147812Y186495D01*
X147513Y185774D01*
X147411Y185000D01*
X147513Y184226D01*
X147812Y183504D01*
X148287Y182885D01*
X148907Y182410D01*
X149628Y182111D01*
X150402Y182009D01*
X151176Y182111D01*
X151346Y182181D01*
X169175Y164353D01*
Y148087D01*
X168806Y147934D01*
X168104Y147396D01*
X167566Y146694D01*
X167227Y145877D01*
X167112Y145000D01*
X167227Y144123D01*
X167566Y143306D01*
X168104Y142604D01*
X168806Y142066D01*
X169623Y141727D01*
X170500Y141612D01*
X171377Y141727D01*
X172194Y142066D01*
X172896Y142604D01*
X173434Y143306D01*
X173773Y144123D01*
X173888Y145000D01*
X173773Y145877D01*
X173434Y146694D01*
X172896Y147396D01*
X172194Y147934D01*
X171826Y148087D01*
Y163674D01*
X177741D01*
X177812Y163505D01*
X178287Y162885D01*
X178907Y162410D01*
X179628Y162111D01*
X180402Y162009D01*
X181176Y162111D01*
X181897Y162410D01*
X182517Y162885D01*
X182992Y163505D01*
X183063Y163674D01*
X190127D01*
X190238Y163405D01*
X190745Y162745D01*
X191405Y162238D01*
X192174Y161919D01*
X193000Y161811D01*
X193825Y161919D01*
X194595Y162238D01*
X195255Y162745D01*
X195762Y163405D01*
X196081Y164174D01*
X196189Y165000D01*
X196081Y165825D01*
X195762Y166595D01*
X195255Y167255D01*
X194595Y167762D01*
X193825Y168081D01*
X193000Y168189D01*
X192174Y168081D01*
X191405Y167762D01*
X190745Y167255D01*
X190238Y166595D01*
X190127Y166325D01*
X183063D01*
X182992Y166496D01*
X182517Y167115D01*
X181897Y167590D01*
X181176Y167889D01*
X180402Y167991D01*
X179628Y167889D01*
X178907Y167590D01*
X178287Y167115D01*
X177812Y166496D01*
X177741Y166325D01*
X170951D01*
X153221Y184056D01*
X153291Y184226D01*
X153393Y185000D01*
X153291Y185774D01*
X152992Y186495D01*
X152517Y187115D01*
X151898Y187590D01*
X151176Y187889D01*
X150402Y187991D01*
D02*
G37*
G36*
X106737Y162590D02*
X104400D01*
Y160253D01*
X104722Y160296D01*
X105395Y160574D01*
X105972Y161018D01*
X106416Y161595D01*
X106694Y162268D01*
X106737Y162590D01*
D02*
G37*
G36*
X103600D02*
X101263D01*
X101306Y162268D01*
X101584Y161595D01*
X102028Y161018D01*
X102605Y160574D01*
X103278Y160296D01*
X103600Y160253D01*
Y162590D01*
D02*
G37*
G36*
X193000Y158189D02*
X192174Y158081D01*
X191405Y157762D01*
X190745Y157255D01*
X190238Y156595D01*
X190127Y156325D01*
X183161D01*
X183090Y156495D01*
X182615Y157115D01*
X181995Y157590D01*
X181274Y157889D01*
X180500Y157991D01*
X179726Y157889D01*
X179005Y157590D01*
X178385Y157115D01*
X177910Y156495D01*
X177611Y155774D01*
X177509Y155000D01*
X177611Y154226D01*
X177910Y153505D01*
X178385Y152885D01*
X179005Y152410D01*
X179726Y152111D01*
X180500Y152009D01*
X181274Y152111D01*
X181995Y152410D01*
X182615Y152885D01*
X183090Y153505D01*
X183161Y153674D01*
X190127D01*
X190238Y153405D01*
X190745Y152745D01*
X191405Y152238D01*
X191606Y152155D01*
Y148162D01*
X189770D01*
Y141838D01*
X196094D01*
Y148162D01*
X194257D01*
Y152098D01*
X194595Y152238D01*
X195255Y152745D01*
X195762Y153405D01*
X196081Y154174D01*
X196189Y155000D01*
X196081Y155825D01*
X195762Y156595D01*
X195255Y157255D01*
X194595Y157762D01*
X193825Y158081D01*
X193000Y158189D01*
D02*
G37*
G36*
X150900Y157737D02*
Y155400D01*
X153237D01*
X153194Y155722D01*
X152916Y156395D01*
X152472Y156972D01*
X151895Y157416D01*
X151222Y157694D01*
X150900Y157737D01*
D02*
G37*
G36*
X150100D02*
X149778Y157694D01*
X149105Y157416D01*
X148528Y156972D01*
X148084Y156395D01*
X147806Y155722D01*
X147763Y155400D01*
X150100D01*
Y157737D01*
D02*
G37*
G36*
X123692Y158036D02*
Y155302D01*
X126426D01*
X126370Y155727D01*
X126051Y156495D01*
X125545Y157155D01*
X124885Y157661D01*
X124117Y157980D01*
X123692Y158036D01*
D02*
G37*
G36*
X122892D02*
X122467Y157980D01*
X121699Y157661D01*
X121039Y157155D01*
X120533Y156495D01*
X120214Y155727D01*
X120158Y155302D01*
X122892D01*
Y158036D01*
D02*
G37*
G36*
X153237Y154600D02*
X150900D01*
Y152263D01*
X151222Y152306D01*
X151895Y152584D01*
X152472Y153028D01*
X152916Y153605D01*
X153194Y154278D01*
X153237Y154600D01*
D02*
G37*
G36*
X150100D02*
X147763D01*
X147806Y154278D01*
X148084Y153605D01*
X148528Y153028D01*
X149105Y152584D01*
X149778Y152306D01*
X150100Y152263D01*
Y154600D01*
D02*
G37*
G36*
X126426Y154502D02*
X123692D01*
Y151768D01*
X124117Y151824D01*
X124885Y152143D01*
X125545Y152649D01*
X126051Y153309D01*
X126370Y154077D01*
X126426Y154502D01*
D02*
G37*
G36*
X122892D02*
X120158D01*
X120214Y154077D01*
X120533Y153309D01*
X121039Y152649D01*
X121699Y152143D01*
X122467Y151824D01*
X122892Y151768D01*
Y154502D01*
D02*
G37*
G36*
X20500Y169689D02*
X19674Y169581D01*
X18905Y169262D01*
X18245Y168755D01*
X17738Y168095D01*
X17419Y167325D01*
X17311Y166500D01*
X17419Y165674D01*
X17738Y164905D01*
X18245Y164245D01*
X18905Y163738D01*
X19674Y163419D01*
X20500Y163311D01*
X21326Y163419D01*
X21595Y163531D01*
X29563Y155563D01*
X29993Y155275D01*
X30500Y155175D01*
X41239D01*
X41310Y155005D01*
X41785Y154385D01*
X42404Y153910D01*
X42575Y153839D01*
Y149162D01*
X40838D01*
Y142838D01*
X47162D01*
Y149162D01*
X45226D01*
Y153839D01*
X45395Y153910D01*
X46015Y154385D01*
X46490Y155005D01*
X46789Y155726D01*
X46891Y156500D01*
X46789Y157274D01*
X46490Y157995D01*
X46015Y158615D01*
X45395Y159090D01*
X44674Y159389D01*
X43900Y159491D01*
X43126Y159389D01*
X42404Y159090D01*
X41785Y158615D01*
X41310Y157995D01*
X41239Y157826D01*
X31049D01*
X23469Y165405D01*
X23581Y165674D01*
X23689Y166500D01*
X23581Y167325D01*
X23262Y168095D01*
X22755Y168755D01*
X22095Y169262D01*
X21326Y169581D01*
X20500Y169689D01*
D02*
G37*
G36*
X44400Y138935D02*
Y136400D01*
X46935D01*
X46886Y136773D01*
X46587Y137494D01*
X46112Y138112D01*
X45494Y138587D01*
X44773Y138886D01*
X44400Y138935D01*
D02*
G37*
G36*
X43600D02*
X43227Y138886D01*
X42506Y138587D01*
X41888Y138112D01*
X41413Y137494D01*
X41114Y136773D01*
X41065Y136400D01*
X43600D01*
Y138935D01*
D02*
G37*
G36*
X193332Y137935D02*
Y135400D01*
X195867D01*
X195817Y135773D01*
X195519Y136494D01*
X195044Y137112D01*
X194425Y137587D01*
X193705Y137886D01*
X193332Y137935D01*
D02*
G37*
G36*
X192532D02*
X192158Y137886D01*
X191438Y137587D01*
X190819Y137112D01*
X190344Y136494D01*
X190046Y135773D01*
X189997Y135400D01*
X192532D01*
Y137935D01*
D02*
G37*
G36*
X46935Y135600D02*
X44400D01*
Y133065D01*
X44773Y133114D01*
X45494Y133413D01*
X46112Y133888D01*
X46587Y134506D01*
X46886Y135227D01*
X46935Y135600D01*
D02*
G37*
G36*
X43600D02*
X41065D01*
X41114Y135227D01*
X41413Y134506D01*
X41888Y133888D01*
X42506Y133413D01*
X43227Y133114D01*
X43600Y133065D01*
Y135600D01*
D02*
G37*
G36*
X195867Y134600D02*
X193332D01*
Y132065D01*
X193705Y132114D01*
X194425Y132413D01*
X195044Y132887D01*
X195519Y133506D01*
X195817Y134227D01*
X195867Y134600D01*
D02*
G37*
G36*
X192532D02*
X189997D01*
X190046Y134227D01*
X190344Y133506D01*
X190819Y132887D01*
X191438Y132413D01*
X192158Y132114D01*
X192532Y132065D01*
Y134600D01*
D02*
G37*
G36*
X150500Y148388D02*
X149623Y148273D01*
X148806Y147934D01*
X148104Y147396D01*
X147566Y146694D01*
X147228Y145877D01*
X147112Y145000D01*
X147228Y144123D01*
X147566Y143306D01*
X148104Y142604D01*
X148806Y142066D01*
X149174Y141913D01*
Y137661D01*
X149004Y137590D01*
X148385Y137115D01*
X147910Y136495D01*
X147611Y135774D01*
X147509Y135000D01*
X147611Y134226D01*
X147681Y134056D01*
X129951Y116325D01*
X76161D01*
X76090Y116496D01*
X75615Y117115D01*
X74995Y117590D01*
X74274Y117889D01*
X73500Y117991D01*
X72726Y117889D01*
X72004Y117590D01*
X71385Y117115D01*
X70910Y116496D01*
X70611Y115774D01*
X70509Y115000D01*
X70611Y114226D01*
X70910Y113505D01*
X71385Y112885D01*
X72004Y112410D01*
X72726Y112111D01*
X73500Y112009D01*
X74274Y112111D01*
X74995Y112410D01*
X75615Y112885D01*
X76090Y113505D01*
X76161Y113674D01*
X130500D01*
X131007Y113775D01*
X131437Y114063D01*
X149556Y132181D01*
X149726Y132111D01*
X150500Y132009D01*
X151274Y132111D01*
X151996Y132410D01*
X152615Y132885D01*
X153090Y133504D01*
X153389Y134226D01*
X153491Y135000D01*
X153389Y135774D01*
X153090Y136495D01*
X152615Y137115D01*
X151996Y137590D01*
X151825Y137661D01*
Y141913D01*
X152194Y142066D01*
X152896Y142604D01*
X153434Y143306D01*
X153772Y144123D01*
X153888Y145000D01*
X153772Y145877D01*
X153434Y146694D01*
X152896Y147396D01*
X152194Y147934D01*
X151377Y148273D01*
X150500Y148388D01*
D02*
G37*
G36*
X180500Y137991D02*
X179726Y137889D01*
X179005Y137590D01*
X178385Y137115D01*
X177910Y136495D01*
X177611Y135774D01*
X177509Y135000D01*
X177611Y134226D01*
X177910Y133504D01*
X178385Y132885D01*
X179005Y132410D01*
X179726Y132111D01*
X180500Y132009D01*
X181045Y132081D01*
X185127Y127999D01*
X184768Y127134D01*
X184619Y126000D01*
X184768Y124866D01*
X185206Y123810D01*
X185902Y122902D01*
X186810Y122206D01*
X187866Y121768D01*
X189000Y121619D01*
X190134Y121768D01*
X191191Y122206D01*
X192098Y122902D01*
X192794Y123810D01*
X193232Y124866D01*
X193381Y126000D01*
X193232Y127134D01*
X192794Y128191D01*
X192098Y129098D01*
X191191Y129794D01*
X190134Y130232D01*
X189000Y130381D01*
X187866Y130232D01*
X187001Y129873D01*
X183172Y133702D01*
X183389Y134226D01*
X183491Y135000D01*
X183389Y135774D01*
X183090Y136495D01*
X182615Y137115D01*
X181995Y137590D01*
X181274Y137889D01*
X180500Y137991D01*
D02*
G37*
G36*
X43500Y130381D02*
X42366Y130232D01*
X41309Y129794D01*
X40402Y129098D01*
X39706Y128191D01*
X39268Y127134D01*
X39119Y126000D01*
X39268Y124866D01*
X39706Y123810D01*
X40402Y122902D01*
X41309Y122206D01*
X42175Y121848D01*
Y117661D01*
X42004Y117590D01*
X41385Y117115D01*
X40910Y116496D01*
X40611Y115774D01*
X40509Y115000D01*
X40611Y114226D01*
X40910Y113505D01*
X41385Y112885D01*
X42004Y112410D01*
X42726Y112111D01*
X43500Y112009D01*
X44274Y112111D01*
X44995Y112410D01*
X45615Y112885D01*
X46090Y113505D01*
X46389Y114226D01*
X46491Y115000D01*
X46389Y115774D01*
X46090Y116496D01*
X45615Y117115D01*
X44995Y117590D01*
X44826Y117661D01*
Y121848D01*
X45691Y122206D01*
X46598Y122902D01*
X47294Y123810D01*
X47732Y124866D01*
X47881Y126000D01*
X47732Y127134D01*
X47294Y128191D01*
X46598Y129098D01*
X45691Y129794D01*
X44634Y130232D01*
X43500Y130381D01*
D02*
G37*
G36*
X169000D02*
X167866Y130232D01*
X166809Y129794D01*
X165902Y129098D01*
X165206Y128191D01*
X164768Y127134D01*
X164619Y126000D01*
X164768Y124866D01*
X165206Y123810D01*
X165902Y122902D01*
X166809Y122206D01*
X167675Y121848D01*
Y118214D01*
X167306Y118061D01*
X166604Y117523D01*
X166066Y116822D01*
X165727Y116004D01*
X165612Y115128D01*
X165727Y114251D01*
X166066Y113434D01*
X166604Y112732D01*
X167306Y112193D01*
X168123Y111855D01*
X169000Y111740D01*
X169877Y111855D01*
X170694Y112193D01*
X171396Y112732D01*
X171934Y113434D01*
X172273Y114251D01*
X172388Y115128D01*
X172273Y116004D01*
X171934Y116822D01*
X171396Y117523D01*
X170694Y118061D01*
X170326Y118214D01*
Y121848D01*
X171191Y122206D01*
X172098Y122902D01*
X172794Y123810D01*
X173232Y124866D01*
X173381Y126000D01*
X173232Y127134D01*
X172794Y128191D01*
X172098Y129098D01*
X171191Y129794D01*
X170134Y130232D01*
X169000Y130381D01*
D02*
G37*
G36*
X68000Y139189D02*
X67175Y139081D01*
X66405Y138762D01*
X65745Y138255D01*
X65238Y137595D01*
X64919Y136826D01*
X64811Y136000D01*
X64919Y135175D01*
X65238Y134405D01*
X65745Y133745D01*
X66405Y133238D01*
X67175Y132919D01*
X68000Y132811D01*
X68826Y132919D01*
X69095Y133031D01*
X69984Y132141D01*
Y122049D01*
X67063Y119128D01*
X66775Y118698D01*
X66675Y118190D01*
Y110500D01*
X66775Y109993D01*
X67063Y109563D01*
X70681Y105944D01*
X70611Y105774D01*
X70509Y105000D01*
X70611Y104226D01*
X70910Y103505D01*
X71385Y102885D01*
X72004Y102410D01*
X72726Y102111D01*
X73500Y102009D01*
X74274Y102111D01*
X74995Y102410D01*
X75615Y102885D01*
X76090Y103505D01*
X76161Y103674D01*
X130590D01*
X131098Y103775D01*
X131528Y104063D01*
X141267Y113802D01*
X145913D01*
X146066Y113434D01*
X146604Y112732D01*
X147306Y112193D01*
X148123Y111855D01*
X149000Y111740D01*
X149877Y111855D01*
X150694Y112193D01*
X151396Y112732D01*
X151934Y113434D01*
X152272Y114251D01*
X152388Y115128D01*
X152272Y116004D01*
X151934Y116822D01*
X151396Y117523D01*
X150694Y118061D01*
X149877Y118400D01*
X149000Y118515D01*
X148123Y118400D01*
X147306Y118061D01*
X146604Y117523D01*
X146066Y116822D01*
X145913Y116453D01*
X140718D01*
X140211Y116352D01*
X139781Y116065D01*
X130041Y106325D01*
X76161D01*
X76090Y106495D01*
X75615Y107115D01*
X74995Y107590D01*
X74274Y107889D01*
X73500Y107991D01*
X72726Y107889D01*
X72556Y107819D01*
X69326Y111049D01*
Y117641D01*
X72247Y120563D01*
X72534Y120993D01*
X72635Y121500D01*
Y132690D01*
X72534Y133198D01*
X72247Y133628D01*
X70969Y134905D01*
X71081Y135175D01*
X71189Y136000D01*
X71081Y136826D01*
X70762Y137595D01*
X70255Y138255D01*
X69595Y138762D01*
X68826Y139081D01*
X68000Y139189D01*
D02*
G37*
G36*
X213344Y130343D02*
X204657D01*
Y123531D01*
X186451Y105325D01*
X172087D01*
X171934Y105694D01*
X171396Y106396D01*
X170694Y106934D01*
X169877Y107273D01*
X169000Y107388D01*
X168123Y107273D01*
X167306Y106934D01*
X166604Y106396D01*
X166066Y105694D01*
X165727Y104877D01*
X165612Y104000D01*
X165727Y103123D01*
X166066Y102306D01*
X166604Y101604D01*
X167306Y101066D01*
X168123Y100727D01*
X169000Y100612D01*
X169877Y100727D01*
X170694Y101066D01*
X171396Y101604D01*
X171934Y102306D01*
X172087Y102674D01*
X187000D01*
X187507Y102775D01*
X187937Y103063D01*
X206531Y121657D01*
X213344D01*
Y130343D01*
D02*
G37*
G36*
X23500Y130381D02*
X22366Y130232D01*
X21309Y129794D01*
X20402Y129098D01*
X19706Y128191D01*
X19268Y127134D01*
X19119Y126000D01*
X19268Y124866D01*
X19706Y123810D01*
X20402Y122902D01*
X21309Y122206D01*
X22366Y121768D01*
X23500Y121619D01*
X24634Y121768D01*
X24882Y121871D01*
X30380Y116373D01*
X30228Y116004D01*
X30112Y115128D01*
X30228Y114251D01*
X30566Y113434D01*
X31104Y112732D01*
X31806Y112193D01*
X32623Y111855D01*
X33500Y111740D01*
X34377Y111855D01*
X34745Y112008D01*
X40719Y106034D01*
X40611Y105774D01*
X40509Y105000D01*
X40611Y104226D01*
X40910Y103505D01*
X41385Y102885D01*
X42004Y102410D01*
X42726Y102111D01*
X43500Y102009D01*
X44274Y102111D01*
X44995Y102410D01*
X45615Y102885D01*
X46090Y103505D01*
X46389Y104226D01*
X46491Y105000D01*
X46389Y105774D01*
X46090Y106495D01*
X45615Y107115D01*
X44995Y107590D01*
X44274Y107889D01*
X43500Y107991D01*
X42726Y107889D01*
X42646Y107856D01*
X36620Y113882D01*
X36773Y114251D01*
X36888Y115128D01*
X36773Y116004D01*
X36434Y116822D01*
X35896Y117523D01*
X35194Y118061D01*
X34377Y118400D01*
X33500Y118515D01*
X32623Y118400D01*
X32255Y118247D01*
X27033Y123469D01*
X27294Y123810D01*
X27732Y124866D01*
X27881Y126000D01*
X27732Y127134D01*
X27294Y128191D01*
X26598Y129098D01*
X25690Y129794D01*
X24634Y130232D01*
X23500Y130381D01*
D02*
G37*
G36*
X218311Y168189D02*
X217485Y168081D01*
X216716Y167762D01*
X216056Y167255D01*
X215549Y166595D01*
X215230Y165825D01*
X215121Y165000D01*
X215230Y164174D01*
X215549Y163405D01*
X216056Y162745D01*
X216716Y162238D01*
X216985Y162127D01*
Y120360D01*
X192951Y96325D01*
X165549D01*
X156937Y104937D01*
X156507Y105225D01*
X156000Y105325D01*
X152087D01*
X151934Y105694D01*
X151396Y106396D01*
X150694Y106934D01*
X149877Y107273D01*
X149000Y107388D01*
X148123Y107273D01*
X147306Y106934D01*
X146604Y106396D01*
X146066Y105694D01*
X145913Y105325D01*
X139597D01*
X139090Y105225D01*
X138660Y104937D01*
X130048Y96325D01*
X76161D01*
X76090Y96495D01*
X75615Y97115D01*
X74995Y97590D01*
X74274Y97889D01*
X73500Y97991D01*
X72726Y97889D01*
X72004Y97590D01*
X71385Y97115D01*
X70910Y96495D01*
X70611Y95774D01*
X70509Y95000D01*
X70611Y94226D01*
X70910Y93505D01*
X71385Y92885D01*
X72004Y92410D01*
X72726Y92111D01*
X73500Y92009D01*
X74274Y92111D01*
X74995Y92410D01*
X75615Y92885D01*
X76090Y93505D01*
X76161Y93674D01*
X130597D01*
X131105Y93775D01*
X131535Y94063D01*
X140147Y102674D01*
X145913D01*
X146066Y102306D01*
X146604Y101604D01*
X147306Y101066D01*
X148123Y100727D01*
X149000Y100612D01*
X149877Y100727D01*
X150694Y101066D01*
X151396Y101604D01*
X151934Y102306D01*
X152087Y102674D01*
X155451D01*
X164063Y94063D01*
X164493Y93775D01*
X165000Y93674D01*
X193500D01*
X194007Y93775D01*
X194437Y94063D01*
X219248Y118874D01*
X219535Y119304D01*
X219636Y119811D01*
Y162127D01*
X219905Y162238D01*
X220566Y162745D01*
X221073Y163405D01*
X221391Y164174D01*
X221500Y165000D01*
X221391Y165825D01*
X221073Y166595D01*
X220566Y167255D01*
X219905Y167762D01*
X219136Y168081D01*
X218311Y168189D01*
D02*
G37*
G36*
X67844Y130343D02*
X59157D01*
Y123531D01*
X53710Y118085D01*
X53423Y117655D01*
X53322Y117147D01*
Y102344D01*
X47304Y96325D01*
X46161D01*
X46090Y96495D01*
X45615Y97115D01*
X44995Y97590D01*
X44274Y97889D01*
X43500Y97991D01*
X42726Y97889D01*
X42004Y97590D01*
X41385Y97115D01*
X40910Y96495D01*
X40892Y96453D01*
X36587D01*
X36434Y96821D01*
X35896Y97523D01*
X35194Y98062D01*
X34377Y98400D01*
X33500Y98515D01*
X32623Y98400D01*
X31806Y98062D01*
X31104Y97523D01*
X30566Y96821D01*
X30228Y96004D01*
X30112Y95127D01*
X30228Y94251D01*
X30566Y93433D01*
X31104Y92732D01*
X31806Y92193D01*
X32623Y91855D01*
X33500Y91739D01*
X34377Y91855D01*
X35194Y92193D01*
X35896Y92732D01*
X36434Y93433D01*
X36587Y93802D01*
X40786D01*
X40910Y93505D01*
X41385Y92885D01*
X42004Y92410D01*
X42726Y92111D01*
X43500Y92009D01*
X44274Y92111D01*
X44995Y92410D01*
X45615Y92885D01*
X46090Y93505D01*
X46161Y93674D01*
X47853D01*
X48360Y93775D01*
X48790Y94063D01*
X55585Y100858D01*
X55872Y101288D01*
X55973Y101795D01*
Y116598D01*
X61031Y121657D01*
X67844D01*
Y130343D01*
D02*
G37*
G36*
X142463Y79289D02*
X141638Y79181D01*
X140869Y78862D01*
X140458Y78547D01*
X136955D01*
Y79066D01*
X131024D01*
Y73134D01*
X136955D01*
Y73653D01*
X140458D01*
X140869Y73338D01*
X141638Y73019D01*
X142463Y72911D01*
X143289Y73019D01*
X144058Y73338D01*
X144719Y73845D01*
X145225Y74505D01*
X145544Y75274D01*
X145653Y76100D01*
X145544Y76925D01*
X145225Y77695D01*
X144719Y78355D01*
X144058Y78862D01*
X143289Y79181D01*
X142463Y79289D01*
D02*
G37*
G36*
X126509Y78837D02*
Y76500D01*
X128846D01*
X128804Y76822D01*
X128525Y77495D01*
X128082Y78072D01*
X127504Y78516D01*
X126831Y78794D01*
X126509Y78837D01*
D02*
G37*
G36*
X152863Y79035D02*
Y76500D01*
X155398D01*
X155349Y76873D01*
X155051Y77594D01*
X154576Y78212D01*
X153957Y78687D01*
X153236Y78986D01*
X152863Y79035D01*
D02*
G37*
G36*
X100300D02*
Y76500D01*
X102835D01*
X102786Y76873D01*
X102487Y77594D01*
X102013Y78212D01*
X101394Y78687D01*
X100673Y78986D01*
X100300Y79035D01*
D02*
G37*
G36*
X125709Y78837D02*
X125387Y78794D01*
X124715Y78516D01*
X124137Y78072D01*
X123694Y77495D01*
X123415Y76822D01*
X123373Y76500D01*
X125709D01*
Y78837D01*
D02*
G37*
G36*
X152063Y79035D02*
X151690Y78986D01*
X150970Y78687D01*
X150351Y78212D01*
X149876Y77594D01*
X149577Y76873D01*
X149528Y76500D01*
X152063D01*
Y79035D01*
D02*
G37*
G36*
X99500D02*
X99127Y78986D01*
X98406Y78687D01*
X97787Y78212D01*
X97313Y77594D01*
X97014Y76873D01*
X96965Y76500D01*
X99500D01*
Y79035D01*
D02*
G37*
G36*
X128846Y75700D02*
X126509D01*
Y73363D01*
X126831Y73406D01*
X127504Y73684D01*
X128082Y74128D01*
X128525Y74705D01*
X128804Y75378D01*
X128846Y75700D01*
D02*
G37*
G36*
X125709D02*
X123373D01*
X123415Y75378D01*
X123694Y74705D01*
X124137Y74128D01*
X124715Y73684D01*
X125387Y73406D01*
X125709Y73363D01*
Y75700D01*
D02*
G37*
G36*
X155398D02*
X152863D01*
Y73165D01*
X153236Y73214D01*
X153957Y73513D01*
X154576Y73988D01*
X155051Y74606D01*
X155349Y75327D01*
X155398Y75700D01*
D02*
G37*
G36*
X102835D02*
X100300D01*
Y73165D01*
X100673Y73214D01*
X101394Y73513D01*
X102013Y73988D01*
X102487Y74606D01*
X102786Y75327D01*
X102835Y75700D01*
D02*
G37*
G36*
X152063D02*
X149528D01*
X149577Y75327D01*
X149876Y74606D01*
X150351Y73988D01*
X150970Y73513D01*
X151690Y73214D01*
X152063Y73165D01*
Y75700D01*
D02*
G37*
G36*
X99500D02*
X96965D01*
X97014Y75327D01*
X97313Y74606D01*
X97787Y73988D01*
X98406Y73513D01*
X99127Y73214D01*
X99500Y73165D01*
Y75700D01*
D02*
G37*
G36*
X79900Y79289D02*
X79075Y79181D01*
X78305Y78862D01*
X77645Y78355D01*
X77138Y77695D01*
X76819Y76925D01*
X76711Y76100D01*
X76819Y75274D01*
X77138Y74505D01*
X77645Y73845D01*
X78305Y73338D01*
X79075Y73019D01*
X79900Y72911D01*
X80726Y73019D01*
X81495Y73338D01*
X82155Y73845D01*
X82662Y74505D01*
X82981Y75274D01*
X83089Y76100D01*
X82981Y76925D01*
X82662Y77695D01*
X82155Y78355D01*
X81495Y78862D01*
X80726Y79181D01*
X79900Y79289D01*
D02*
G37*
G36*
X162463D02*
X161638Y79181D01*
X160869Y78862D01*
X160208Y78355D01*
X159701Y77695D01*
X159383Y76925D01*
X159274Y76100D01*
X159383Y75274D01*
X159701Y74505D01*
X160016Y74095D01*
Y70173D01*
X153378Y63535D01*
X150908D01*
Y63178D01*
X142295D01*
X141660Y63665D01*
X140843Y64004D01*
X139966Y64119D01*
X139089Y64004D01*
X138272Y63665D01*
X137633Y63175D01*
X132178D01*
X131611Y63610D01*
X130808Y63943D01*
X129946Y64056D01*
X129085Y63943D01*
X128282Y63610D01*
X127593Y63081D01*
X127064Y62392D01*
X126731Y61589D01*
X126618Y60728D01*
X126731Y59866D01*
X127064Y59064D01*
X127593Y58374D01*
X128282Y57845D01*
X129085Y57513D01*
X129946Y57399D01*
X130808Y57513D01*
X131611Y57845D01*
X132178Y58281D01*
X137642D01*
X138272Y57797D01*
X139089Y57459D01*
X139966Y57343D01*
X140843Y57459D01*
X141660Y57797D01*
X142295Y58284D01*
X150908D01*
Y57604D01*
X156839D01*
Y60074D01*
X164194Y67429D01*
X164724Y68223D01*
X164910Y69159D01*
Y74095D01*
X165225Y74505D01*
X165544Y75274D01*
X165653Y76100D01*
X165544Y76925D01*
X165225Y77695D01*
X164718Y78355D01*
X164058Y78862D01*
X163289Y79181D01*
X162463Y79289D01*
D02*
G37*
G36*
X89900D02*
X89074Y79181D01*
X88305Y78862D01*
X87645Y78355D01*
X87138Y77695D01*
X86819Y76925D01*
X86711Y76100D01*
X86819Y75274D01*
X87138Y74505D01*
X87645Y73845D01*
X88305Y73338D01*
X88574Y73226D01*
Y63392D01*
X88405Y63322D01*
X87785Y62846D01*
X87310Y62227D01*
X87011Y61505D01*
X86909Y60731D01*
X87011Y59957D01*
X87310Y59236D01*
X87785Y58616D01*
X88405Y58141D01*
X89126Y57842D01*
X89900Y57740D01*
X90674Y57842D01*
X91395Y58141D01*
X92015Y58616D01*
X92490Y59236D01*
X92789Y59957D01*
X92891Y60731D01*
X92789Y61505D01*
X92490Y62227D01*
X92015Y62846D01*
X91395Y63322D01*
X91225Y63392D01*
Y73226D01*
X91495Y73338D01*
X92155Y73845D01*
X92662Y74505D01*
X92981Y75274D01*
X93089Y76100D01*
X92981Y76925D01*
X92662Y77695D01*
X92155Y78355D01*
X91495Y78862D01*
X90725Y79181D01*
X89900Y79289D01*
D02*
G37*
G36*
X99946Y64056D02*
X99085Y63943D01*
X98282Y63610D01*
X97593Y63081D01*
X97064Y62392D01*
X96731Y61589D01*
X96618Y60728D01*
X96731Y59866D01*
X97064Y59064D01*
X97593Y58374D01*
X98282Y57845D01*
X99085Y57513D01*
X99946Y57399D01*
X100808Y57513D01*
X101611Y57845D01*
X102300Y58374D01*
X102829Y59064D01*
X103162Y59866D01*
X103275Y60728D01*
X103162Y61589D01*
X102829Y62392D01*
X102300Y63081D01*
X101611Y63610D01*
X100808Y63943D01*
X99946Y64056D01*
D02*
G37*
G36*
X154273Y55426D02*
Y53089D01*
X156610D01*
X156567Y53411D01*
X156289Y54084D01*
X155845Y54662D01*
X155268Y55105D01*
X154595Y55383D01*
X154273Y55426D01*
D02*
G37*
G36*
X153473D02*
X153151Y55383D01*
X152478Y55105D01*
X151901Y54662D01*
X151457Y54084D01*
X151179Y53411D01*
X151136Y53089D01*
X153473D01*
Y55426D01*
D02*
G37*
G36*
X156610Y52289D02*
X154273D01*
Y49953D01*
X154595Y49995D01*
X155268Y50274D01*
X155845Y50717D01*
X156289Y51294D01*
X156567Y51967D01*
X156610Y52289D01*
D02*
G37*
G36*
X153473D02*
X151136D01*
X151179Y51967D01*
X151457Y51294D01*
X151901Y50717D01*
X152478Y50274D01*
X153151Y49995D01*
X153473Y49953D01*
Y52289D01*
D02*
G37*
G36*
X129946Y54056D02*
X129085Y53943D01*
X128282Y53610D01*
X127593Y53081D01*
X127064Y52392D01*
X126731Y51589D01*
X126618Y50728D01*
X126731Y49866D01*
X127064Y49064D01*
X127593Y48374D01*
X128282Y47845D01*
X129085Y47513D01*
X129946Y47399D01*
X130808Y47513D01*
X131611Y47845D01*
X132300Y48374D01*
X132829Y49064D01*
X133161Y49866D01*
X133275Y50728D01*
X133161Y51589D01*
X132829Y52392D01*
X132300Y53081D01*
X131611Y53610D01*
X130808Y53943D01*
X129946Y54056D01*
D02*
G37*
G36*
X79900Y63722D02*
X79126Y63620D01*
X78404Y63322D01*
X77785Y62846D01*
X77310Y62227D01*
X77011Y61505D01*
X76909Y60731D01*
X77011Y59957D01*
X77310Y59236D01*
X77785Y58616D01*
X78404Y58141D01*
X79126Y57842D01*
X79900Y57740D01*
X80674Y57842D01*
X80844Y57912D01*
X88574Y50182D01*
Y33392D01*
X88405Y33322D01*
X87785Y32846D01*
X87310Y32227D01*
X87011Y31505D01*
X86909Y30731D01*
X87011Y29957D01*
X87310Y29236D01*
X87785Y28616D01*
X88405Y28141D01*
X89126Y27842D01*
X89900Y27740D01*
X90674Y27842D01*
X91395Y28141D01*
X92015Y28616D01*
X92490Y29236D01*
X92789Y29957D01*
X92891Y30731D01*
X92789Y31505D01*
X92490Y32227D01*
X92015Y32846D01*
X91395Y33322D01*
X91225Y33392D01*
Y49275D01*
X96976D01*
X97064Y49064D01*
X97593Y48374D01*
X98282Y47845D01*
X99085Y47513D01*
X99946Y47399D01*
X100808Y47513D01*
X101611Y47845D01*
X102300Y48374D01*
X102829Y49064D01*
X103162Y49866D01*
X103275Y50728D01*
X103162Y51589D01*
X102829Y52392D01*
X102300Y53081D01*
X101611Y53610D01*
X100808Y53943D01*
X99946Y54056D01*
X99085Y53943D01*
X98282Y53610D01*
X97593Y53081D01*
X97064Y52392D01*
X96871Y51925D01*
X90580D01*
X82719Y59787D01*
X82789Y59957D01*
X82891Y60731D01*
X82789Y61505D01*
X82490Y62227D01*
X82015Y62846D01*
X81396Y63322D01*
X80674Y63620D01*
X79900Y63722D01*
D02*
G37*
G36*
X140366Y43865D02*
Y41131D01*
X143099D01*
X143044Y41556D01*
X142725Y42324D01*
X142219Y42984D01*
X141559Y43491D01*
X140791Y43809D01*
X140366Y43865D01*
D02*
G37*
G36*
X139566D02*
X139141Y43809D01*
X138373Y43491D01*
X137713Y42984D01*
X137206Y42324D01*
X136888Y41556D01*
X136832Y41131D01*
X139566D01*
Y43865D01*
D02*
G37*
G36*
X143099Y40331D02*
X140366D01*
Y37598D01*
X140791Y37654D01*
X141559Y37972D01*
X142219Y38478D01*
X142725Y39138D01*
X143044Y39907D01*
X143099Y40331D01*
D02*
G37*
G36*
X139566D02*
X136832D01*
X136888Y39907D01*
X137206Y39138D01*
X137713Y38478D01*
X138373Y37972D01*
X139141Y37654D01*
X139566Y37598D01*
Y40331D01*
D02*
G37*
G36*
X129946Y44056D02*
X129085Y43943D01*
X128282Y43610D01*
X127593Y43081D01*
X127064Y42392D01*
X126731Y41589D01*
X126618Y40728D01*
X126731Y39866D01*
X127064Y39064D01*
X127593Y38374D01*
X128282Y37845D01*
X129085Y37513D01*
X129946Y37399D01*
X130808Y37513D01*
X131611Y37845D01*
X132300Y38374D01*
X132829Y39064D01*
X133161Y39866D01*
X133275Y40728D01*
X133161Y41589D01*
X132829Y42392D01*
X132300Y43081D01*
X131611Y43610D01*
X130808Y43943D01*
X129946Y44056D01*
D02*
G37*
G36*
X100346Y33802D02*
Y31128D01*
X103021D01*
X102967Y31537D01*
X102654Y32291D01*
X102157Y32939D01*
X101510Y33435D01*
X100756Y33748D01*
X100346Y33802D01*
D02*
G37*
G36*
X99546D02*
X99137Y33748D01*
X98383Y33435D01*
X97736Y32939D01*
X97239Y32291D01*
X96926Y31537D01*
X96872Y31128D01*
X99546D01*
Y33802D01*
D02*
G37*
G36*
X67062Y33890D02*
X60738D01*
Y27566D01*
X67062D01*
Y29402D01*
X77241D01*
X77310Y29236D01*
X77785Y28616D01*
X78404Y28141D01*
X79126Y27842D01*
X79900Y27740D01*
X80674Y27842D01*
X81396Y28141D01*
X82015Y28616D01*
X82490Y29236D01*
X82789Y29957D01*
X82891Y30731D01*
X82789Y31505D01*
X82490Y32227D01*
X82015Y32846D01*
X81396Y33322D01*
X80674Y33620D01*
X79900Y33722D01*
X79126Y33620D01*
X78404Y33322D01*
X77785Y32846D01*
X77310Y32227D01*
X77238Y32053D01*
X67062D01*
Y33890D01*
D02*
G37*
G36*
X103021Y30328D02*
X100346D01*
Y27654D01*
X100756Y27707D01*
X101510Y28020D01*
X102157Y28517D01*
X102654Y29164D01*
X102967Y29918D01*
X103021Y30328D01*
D02*
G37*
G36*
X99546D02*
X96872D01*
X96926Y29918D01*
X97239Y29164D01*
X97736Y28517D01*
X98383Y28020D01*
X99137Y27707D01*
X99546Y27654D01*
Y30328D01*
D02*
G37*
G36*
X129946Y34056D02*
X129085Y33943D01*
X128282Y33610D01*
X127593Y33081D01*
X127064Y32392D01*
X126731Y31589D01*
X126618Y30728D01*
X126731Y29866D01*
X127064Y29063D01*
X127593Y28374D01*
X128282Y27845D01*
X129085Y27513D01*
X129946Y27399D01*
X130808Y27513D01*
X131611Y27845D01*
X132300Y28374D01*
X132829Y29063D01*
X132969Y29402D01*
X142140D01*
X152229Y19312D01*
X151922Y18570D01*
X151781Y17500D01*
X151922Y16430D01*
X152335Y15432D01*
X152992Y14576D01*
X153849Y13919D01*
X154846Y13506D01*
X155917Y13365D01*
X156987Y13506D01*
X157984Y13919D01*
X158841Y14576D01*
X159498Y15432D01*
X159911Y16430D01*
X160052Y17500D01*
X159911Y18570D01*
X159498Y19568D01*
X158841Y20424D01*
X157984Y21081D01*
X156987Y21495D01*
X155917Y21635D01*
X154846Y21495D01*
X154104Y21187D01*
X143626Y31665D01*
X143196Y31952D01*
X142689Y32053D01*
X132969D01*
X132829Y32392D01*
X132300Y33081D01*
X131611Y33610D01*
X130808Y33943D01*
X129946Y34056D01*
D02*
G37*
G36*
X132897Y13644D02*
Y10465D01*
X136076D01*
X136005Y11005D01*
X135642Y11881D01*
X135065Y12633D01*
X134313Y13210D01*
X133437Y13573D01*
X132897Y13644D01*
D02*
G37*
G36*
X132097D02*
X131558Y13573D01*
X130682Y13210D01*
X129930Y12633D01*
X129353Y11881D01*
X128990Y11005D01*
X128919Y10465D01*
X132097D01*
Y13644D01*
D02*
G37*
G36*
X100152Y13578D02*
Y10400D01*
X103330D01*
X103259Y10940D01*
X102896Y11816D01*
X102319Y12567D01*
X101567Y13145D01*
X100691Y13507D01*
X100152Y13578D01*
D02*
G37*
G36*
X99352D02*
X98812Y13507D01*
X97936Y13145D01*
X97184Y12567D01*
X96607Y11816D01*
X96244Y10940D01*
X96173Y10400D01*
X99352D01*
Y13578D01*
D02*
G37*
G36*
X159817Y11400D02*
X156317D01*
Y7900D01*
X159817D01*
Y11400D01*
D02*
G37*
G36*
X155517D02*
X152017D01*
Y7900D01*
X155517D01*
Y11400D01*
D02*
G37*
G36*
X136076Y9665D02*
X132897D01*
Y6487D01*
X133437Y6558D01*
X134313Y6921D01*
X135065Y7498D01*
X135642Y8250D01*
X136005Y9126D01*
X136076Y9665D01*
D02*
G37*
G36*
X132097D02*
X128919D01*
X128990Y9126D01*
X129353Y8250D01*
X129930Y7498D01*
X130682Y6921D01*
X131558Y6558D01*
X132097Y6487D01*
Y9665D01*
D02*
G37*
G36*
X103330Y9600D02*
X100152D01*
Y6422D01*
X100691Y6493D01*
X101567Y6855D01*
X102319Y7433D01*
X102896Y8185D01*
X103259Y9060D01*
X103330Y9600D01*
D02*
G37*
G36*
X99352D02*
X96173D01*
X96244Y9060D01*
X96607Y8185D01*
X97184Y7433D01*
X97936Y6855D01*
X98812Y6493D01*
X99352Y6422D01*
Y9600D01*
D02*
G37*
G36*
X99946Y44056D02*
X99085Y43943D01*
X98282Y43610D01*
X97593Y43081D01*
X97064Y42392D01*
X96731Y41589D01*
X96618Y40728D01*
X96731Y39866D01*
X97064Y39064D01*
X97593Y38374D01*
X98282Y37845D01*
X99085Y37513D01*
X99946Y37399D01*
X100808Y37513D01*
X101147Y37653D01*
X121172Y17628D01*
Y13630D01*
X120581Y13385D01*
X119787Y12776D01*
X119178Y11982D01*
X118795Y11057D01*
X118665Y10065D01*
X118795Y9074D01*
X119178Y8149D01*
X119787Y7355D01*
X120581Y6746D01*
X121505Y6363D01*
X122497Y6233D01*
X123489Y6363D01*
X124414Y6746D01*
X125207Y7355D01*
X125817Y8149D01*
X126199Y9074D01*
X126330Y10065D01*
X126199Y11057D01*
X125817Y11982D01*
X125207Y12776D01*
X124414Y13385D01*
X123823Y13630D01*
Y18177D01*
X123722Y18684D01*
X123434Y19114D01*
X103021Y39527D01*
X103162Y39866D01*
X103275Y40728D01*
X103162Y41589D01*
X102829Y42392D01*
X102300Y43081D01*
X101611Y43610D01*
X100808Y43943D01*
X99946Y44056D01*
D02*
G37*
G36*
X63900Y23917D02*
X63074Y23808D01*
X62305Y23490D01*
X61645Y22983D01*
X61138Y22322D01*
X60819Y21553D01*
X60711Y20728D01*
X60819Y19902D01*
X61138Y19133D01*
X61645Y18473D01*
X62305Y17966D01*
X62574Y17854D01*
Y13601D01*
X62305Y13490D01*
X61645Y12983D01*
X61138Y12322D01*
X60819Y11553D01*
X60711Y10728D01*
X60819Y9902D01*
X61138Y9133D01*
X61645Y8472D01*
X62305Y7966D01*
X63074Y7647D01*
X63900Y7538D01*
X64726Y7647D01*
X65495Y7966D01*
X66155Y8472D01*
X66310Y8675D01*
X86188D01*
X86432Y8084D01*
X87041Y7290D01*
X87835Y6681D01*
X88760Y6298D01*
X89752Y6167D01*
X90744Y6298D01*
X91668Y6681D01*
X92462Y7290D01*
X93071Y8084D01*
X93454Y9008D01*
X93585Y10000D01*
X93454Y10992D01*
X93071Y11916D01*
X92462Y12710D01*
X91668Y13319D01*
X90744Y13702D01*
X89752Y13833D01*
X88760Y13702D01*
X87835Y13319D01*
X87041Y12710D01*
X86432Y11916D01*
X86188Y11326D01*
X67011D01*
X66981Y11553D01*
X66662Y12322D01*
X66155Y12983D01*
X65495Y13490D01*
X65225Y13601D01*
Y17854D01*
X65495Y17966D01*
X66155Y18473D01*
X66662Y19133D01*
X66981Y19902D01*
X67089Y20728D01*
X66981Y21553D01*
X66662Y22322D01*
X66155Y22983D01*
X65495Y23490D01*
X64726Y23808D01*
X63900Y23917D01*
D02*
G37*
G36*
X159817Y7100D02*
X156317D01*
Y3600D01*
X159817D01*
Y7100D01*
D02*
G37*
G36*
X155517D02*
X152017D01*
Y3600D01*
X155517D01*
Y7100D01*
D02*
G37*
%LPD*%
D11*
X63900Y10728D02*
Y20728D01*
Y10728D02*
X64908D01*
X65635Y10000D01*
X89752D01*
X79896Y30728D02*
X79900Y30731D01*
X63900Y30728D02*
X79896D01*
X89900Y60731D02*
Y76100D01*
Y50469D02*
X90031Y50600D01*
X89900Y30731D02*
Y50469D01*
X79900Y60731D02*
X90031Y50600D01*
X99819D01*
X99946Y50728D01*
X169000Y115128D02*
Y126000D01*
X180500Y134500D02*
X189000Y126000D01*
X180500Y134500D02*
Y135000D01*
X187000Y104000D02*
X209000Y126000D01*
X169000Y104000D02*
X187000D01*
X54647Y101795D02*
Y117147D01*
X63500Y126000D01*
X43500Y115000D02*
Y126000D01*
X23500Y125127D02*
Y126000D01*
Y125127D02*
X33500Y115128D01*
X23500Y241119D02*
Y245500D01*
Y241119D02*
X27406Y237213D01*
X29287D01*
X30000Y236500D01*
X139597Y104000D02*
X149000D01*
X130597Y95000D02*
X139597Y104000D01*
X73500Y95000D02*
X130597D01*
X140718Y115128D02*
X149000D01*
X130590Y105000D02*
X140718Y115128D01*
X73500Y105000D02*
X130590D01*
X142689Y30728D02*
X155917Y17500D01*
X129946Y30728D02*
X142689D01*
X30500Y156500D02*
X43900D01*
X20500Y166500D02*
X30500Y156500D01*
X122497Y10065D02*
Y18177D01*
X99946Y40728D02*
X122497Y18177D01*
X133858Y291000D02*
X139551D01*
X115500Y268674D02*
Y272642D01*
Y268674D02*
X115674Y268500D01*
X115500Y272642D02*
X133858Y291000D01*
X176000Y258500D02*
X189000Y245500D01*
X105000Y258500D02*
X176000D01*
X169000Y245500D02*
X175738D01*
X193000Y228238D01*
Y195000D02*
Y228238D01*
X85000Y238500D02*
X105000D01*
X193000Y175000D02*
Y185000D01*
X218311Y119811D02*
Y165000D01*
X193500Y95000D02*
X218311Y119811D01*
X165000Y95000D02*
X193500D01*
X203000Y165000D02*
X208311D01*
X47853Y95000D02*
X54647Y101795D01*
X43500Y95000D02*
X47853D01*
X68000Y118190D02*
X71310Y121500D01*
X68000Y110500D02*
Y118190D01*
Y110500D02*
X73500Y105000D01*
X71310Y121500D02*
Y132690D01*
X68000Y136000D02*
X71310Y132690D01*
X130500Y115000D02*
X150500Y135000D01*
X73500Y115000D02*
X130500D01*
X156000Y104000D02*
X165000Y95000D01*
X149000Y104000D02*
X156000D01*
X43372Y95127D02*
X43500Y95000D01*
X33500Y95127D02*
X43372D01*
X33500Y115128D02*
X43500Y105128D01*
Y105000D02*
Y105128D01*
Y103500D02*
Y103727D01*
X180500Y155000D02*
X193000D01*
X192932Y154932D02*
X193000Y155000D01*
X192932Y145000D02*
Y154932D01*
X193000Y175000D02*
X203000Y165000D01*
X180400Y175000D02*
X193000D01*
X170402Y165000D02*
X170500Y164902D01*
Y145000D02*
Y164902D01*
X150402Y185000D02*
X170402Y165000D01*
X180402D02*
X193000D01*
X170402D02*
X180402D01*
X150402Y185000D02*
X151190D01*
X150500Y135000D02*
Y145000D01*
X43900Y146100D02*
X44000Y146000D01*
X43900Y146100D02*
Y156500D01*
X34500Y186500D02*
X44000D01*
X20500D02*
X34500D01*
Y176000D02*
Y186500D01*
Y176000D02*
X44000Y166500D01*
Y226500D02*
X55227Y215273D01*
Y185273D02*
Y215273D01*
Y185273D02*
X74000Y166500D01*
X44000D02*
X64500Y146000D01*
X68000D01*
X18000Y196500D02*
X30000D01*
X12500Y191000D02*
X18000Y196500D01*
X12500Y184500D02*
Y191000D01*
Y184500D02*
X20500Y176500D01*
X30500Y166500D02*
X34500D01*
X20500Y176500D02*
X30500Y166500D01*
X30000Y196500D02*
X44000D01*
X64000Y196521D02*
X74000Y206521D01*
X64000Y186112D02*
Y196521D01*
Y186112D02*
X73612Y176500D01*
X74000D01*
X80509Y163109D02*
Y169991D01*
X74000Y176500D02*
X80509Y169991D01*
X73900Y156500D02*
X80509Y163109D01*
X44000Y206521D02*
Y216500D01*
X43979Y206500D02*
X44000Y206521D01*
X30000Y206500D02*
X43979D01*
X30000Y226500D02*
X44000D01*
X30000Y216500D02*
Y226500D01*
X64000Y216500D02*
Y226500D01*
X74000Y236500D01*
X74486Y248000D02*
X74500D01*
X73900Y247414D02*
X74486Y248000D01*
X73900Y236600D02*
Y247414D01*
Y236600D02*
X74000Y236500D01*
X74500Y248000D02*
X85000Y258500D01*
D36*
X153873Y60569D02*
X162463Y69159D01*
Y76100D01*
X133989D02*
X142463D01*
X153711Y60731D02*
X153873Y60569D01*
X139966Y60731D02*
X153711D01*
X139877Y60820D02*
X139966Y60731D01*
X113989Y224378D02*
X114011Y224400D01*
X113989Y208896D02*
Y224378D01*
X105000Y209000D02*
X113585D01*
X113689Y208896D01*
X105000Y209000D02*
Y218500D01*
X139962Y60728D02*
X139966Y60731D01*
X129946Y60728D02*
X139962D01*
X150302Y174902D02*
X150400Y175000D01*
X123292Y174902D02*
X150302D01*
X122773D02*
X123292D01*
X120861Y172990D02*
X122773Y174902D01*
X104000Y172990D02*
X120861D01*
X104000D02*
X104095Y173085D01*
Y186602D01*
X103993Y186500D02*
X104095Y186602D01*
X74000Y186500D02*
X103993D01*
X150400Y165002D02*
X150402Y165000D01*
X150400Y165002D02*
Y175000D01*
X74000Y186500D02*
Y196500D01*
D37*
X63900Y30728D02*
D03*
X208311Y165000D02*
D03*
X105000Y209000D02*
D03*
D38*
X63900Y20728D02*
D03*
Y10728D02*
D03*
X193000Y195000D02*
D03*
Y155000D02*
D03*
Y165000D02*
D03*
Y175000D02*
D03*
X218311Y165000D02*
D03*
X192932Y135000D02*
D03*
X113989Y208896D02*
D03*
X123989D02*
D03*
X133989D02*
D03*
X20500Y166500D02*
D03*
Y176500D02*
D03*
Y186500D02*
D03*
X30000Y236500D02*
D03*
Y216500D02*
D03*
Y206500D02*
D03*
Y196500D02*
D03*
X68000Y136000D02*
D03*
X44000D02*
D03*
X79900Y76100D02*
D03*
X99900D02*
D03*
X89900D02*
D03*
X142463D02*
D03*
X152463D02*
D03*
X162463D02*
D03*
X85000Y209000D02*
D03*
D39*
X79900Y60731D02*
D03*
Y30731D02*
D03*
X126109Y76100D02*
D03*
X89900Y60731D02*
D03*
Y30731D02*
D03*
X180402Y185000D02*
D03*
X150402D02*
D03*
X180400Y175000D02*
D03*
X150400D02*
D03*
X180402Y165000D02*
D03*
X150402D02*
D03*
X180500Y155000D02*
D03*
X150500D02*
D03*
X180500Y135000D02*
D03*
X150500D02*
D03*
X158500Y208875D02*
D03*
X104095Y186602D02*
D03*
X134095D02*
D03*
X104000Y162990D02*
D03*
X44000Y236500D02*
D03*
X74000D02*
D03*
X44000Y226500D02*
D03*
X74000D02*
D03*
Y206521D02*
D03*
X44000D02*
D03*
X74000Y196500D02*
D03*
X44000D02*
D03*
Y186500D02*
D03*
X74000D02*
D03*
X44000Y176500D02*
D03*
X74000D02*
D03*
Y166500D02*
D03*
X44000D02*
D03*
X73900Y156500D02*
D03*
X43900D02*
D03*
X43500Y115000D02*
D03*
X73500D02*
D03*
X43500Y105000D02*
D03*
X73500D02*
D03*
Y95000D02*
D03*
X43500D02*
D03*
X153873Y52689D02*
D03*
D40*
X133989Y76100D02*
D03*
X148500Y208875D02*
D03*
D41*
X114011Y224400D02*
D03*
X134011D02*
D03*
X170500Y145000D02*
D03*
X150500D02*
D03*
X169000Y115128D02*
D03*
X149000D02*
D03*
Y104000D02*
D03*
X169000D02*
D03*
X123292Y154902D02*
D03*
Y174902D02*
D03*
X34500Y166500D02*
D03*
Y186500D02*
D03*
X44000Y216500D02*
D03*
X64000D02*
D03*
X33500Y95127D02*
D03*
Y115128D02*
D03*
X139966Y40731D02*
D03*
Y60731D02*
D03*
D42*
X209000Y245500D02*
D03*
Y126000D02*
D03*
X63500Y245500D02*
D03*
Y126000D02*
D03*
D43*
X189000Y245500D02*
D03*
X169000D02*
D03*
X189000Y126000D02*
D03*
X169000D02*
D03*
X43500Y245500D02*
D03*
X23500D02*
D03*
X43500Y126000D02*
D03*
X23500D02*
D03*
D44*
X138911Y317100D02*
D03*
X202809D02*
D03*
X138911Y342100D02*
D03*
X202809D02*
D03*
X138911Y292100D02*
D03*
X202809D02*
D03*
X29692Y317100D02*
D03*
X93590D02*
D03*
X29692Y342100D02*
D03*
X93590D02*
D03*
X29692Y292100D02*
D03*
X93590D02*
D03*
D45*
X116250Y331900D02*
D03*
Y308278D02*
D03*
D46*
X193000Y185000D02*
D03*
X192932Y145000D02*
D03*
X30000Y226500D02*
D03*
X68000Y146000D02*
D03*
X44000D02*
D03*
D47*
X148500Y229285D02*
D03*
D48*
X176500D02*
D03*
D49*
X104000Y172990D02*
D03*
X153873Y60569D02*
D03*
D50*
X89752Y10000D02*
D03*
X99752D02*
D03*
X132497Y10065D02*
D03*
X122497D02*
D03*
D51*
X155917Y17500D02*
D03*
D52*
Y7500D02*
D03*
D53*
X85000Y218500D02*
D03*
Y238500D02*
D03*
Y248500D02*
D03*
Y258500D02*
D03*
X105000D02*
D03*
Y248500D02*
D03*
Y238500D02*
D03*
Y218500D02*
D03*
D54*
X115674Y238500D02*
D03*
X125674D02*
D03*
Y268500D02*
D03*
X115674D02*
D03*
X129946Y30728D02*
D03*
Y40728D02*
D03*
Y60728D02*
D03*
Y50728D02*
D03*
X99946Y30728D02*
D03*
Y40728D02*
D03*
Y50728D02*
D03*
Y60728D02*
D03*
D55*
X77600Y84200D02*
D03*
X139100D02*
D03*
X129158D02*
D03*
X109000Y100100D02*
D03*
X124169Y224700D02*
D03*
X3750Y153800D02*
D03*
X92800Y109700D02*
D03*
X92600Y128200D02*
D03*
X129085Y128682D02*
D03*
X138900Y203419D02*
D03*
X78750Y353800D02*
D03*
X128900Y100000D02*
D03*
X28750Y3800D02*
D03*
X3750Y178800D02*
D03*
X53750Y3800D02*
D03*
X78750D02*
D03*
X109000Y128191D02*
D03*
X97000Y203311D02*
D03*
X53750Y28800D02*
D03*
X3750Y3800D02*
D03*
X39500Y152903D02*
D03*
X39119Y191500D02*
D03*
X115000Y43127D02*
D03*
X153750Y278800D02*
D03*
X103750Y353800D02*
D03*
X186810Y179000D02*
D03*
X28750Y78800D02*
D03*
X126618Y22500D02*
D03*
X203750Y328800D02*
D03*
Y53800D02*
D03*
X28750Y353800D02*
D03*
X228750Y178800D02*
D03*
X3750Y78800D02*
D03*
X97000Y243500D02*
D03*
X143600Y215200D02*
D03*
X68500Y191507D02*
D03*
X203750Y78800D02*
D03*
Y153800D02*
D03*
X28750Y103800D02*
D03*
X163000Y152903D02*
D03*
X203750Y253800D02*
D03*
X128900Y111000D02*
D03*
X93200Y179581D02*
D03*
X28750Y28800D02*
D03*
X53750Y53800D02*
D03*
X109500Y180500D02*
D03*
X166000Y176633D02*
D03*
X103750Y3800D02*
D03*
X203750D02*
D03*
Y303800D02*
D03*
X128750Y353800D02*
D03*
X3750Y253800D02*
D03*
X153500Y237800D02*
D03*
X228750Y53800D02*
D03*
X102000Y22500D02*
D03*
X128750Y3800D02*
D03*
X139000Y107900D02*
D03*
X186951Y170500D02*
D03*
X37700Y231000D02*
D03*
X53750Y353800D02*
D03*
X178750Y28800D02*
D03*
X128750Y253800D02*
D03*
X91300Y84200D02*
D03*
X201100Y111200D02*
D03*
X109000Y109993D02*
D03*
X153750Y128800D02*
D03*
X198500Y128682D02*
D03*
X153391Y254000D02*
D03*
X53750Y278800D02*
D03*
X3750Y103800D02*
D03*
X50000Y204000D02*
D03*
X178750Y100000D02*
D03*
X153750Y328800D02*
D03*
X37587Y211500D02*
D03*
X3750Y228800D02*
D03*
X153750Y303800D02*
D03*
X59000Y109993D02*
D03*
X178750Y53800D02*
D03*
Y3800D02*
D03*
X33700Y128800D02*
D03*
X28750Y53800D02*
D03*
X186810Y160000D02*
D03*
X153750Y353800D02*
D03*
X228750Y3800D02*
D03*
X28750Y253800D02*
D03*
X203750Y353800D02*
D03*
X50000Y152885D02*
D03*
X203750Y28800D02*
D03*
X228750Y78800D02*
D03*
X129000Y203530D02*
D03*
X178750Y353800D02*
D03*
X80000Y109993D02*
D03*
X109000Y152600D02*
D03*
X78750Y128800D02*
D03*
X37587Y201200D02*
D03*
X129200Y180500D02*
D03*
X143395Y254000D02*
D03*
X53750Y303800D02*
D03*
X28750Y328800D02*
D03*
X3750Y53800D02*
D03*
Y303800D02*
D03*
X89400Y213566D02*
D03*
X50500Y109993D02*
D03*
X94300Y100100D02*
D03*
X3750Y128800D02*
D03*
X24200Y191507D02*
D03*
X53750Y328800D02*
D03*
X228750D02*
D03*
X32500Y160875D02*
D03*
X228750Y303800D02*
D03*
X203750Y278800D02*
D03*
X175200Y253800D02*
D03*
X78750Y328800D02*
D03*
X228750Y153800D02*
D03*
X139500Y152885D02*
D03*
X153750Y28800D02*
D03*
X178750Y78800D02*
D03*
X80000Y179697D02*
D03*
X148907Y97000D02*
D03*
X28750Y278800D02*
D03*
X157500Y169991D02*
D03*
X79913Y203419D02*
D03*
X228750Y278800D02*
D03*
Y253800D02*
D03*
X98000Y224800D02*
D03*
X3750Y28800D02*
D03*
Y203800D02*
D03*
X78750Y303800D02*
D03*
X57500Y224700D02*
D03*
X228750Y228800D02*
D03*
X93000Y152903D02*
D03*
X178750Y303800D02*
D03*
X80687Y152885D02*
D03*
X97000Y234245D02*
D03*
X186810Y150000D02*
D03*
X178750Y203800D02*
D03*
X53750Y78800D02*
D03*
X78750Y278800D02*
D03*
X153300Y215100D02*
D03*
X139000Y128682D02*
D03*
X3750Y328800D02*
D03*
X53750Y128800D02*
D03*
X28750Y178800D02*
D03*
X103750Y303800D02*
D03*
X3750Y278800D02*
D03*
X139000Y118200D02*
D03*
X178750Y278800D02*
D03*
X139000Y180500D02*
D03*
X61066Y204000D02*
D03*
X203750Y203800D02*
D03*
Y228800D02*
D03*
X228750Y103800D02*
D03*
X178750Y109000D02*
D03*
X228750Y128800D02*
D03*
X80000Y100000D02*
D03*
X228750Y28800D02*
D03*
X103750Y278800D02*
D03*
X53750Y253800D02*
D03*
Y178800D02*
D03*
X103750Y328800D02*
D03*
X203750Y178800D02*
D03*
X143400Y237800D02*
D03*
X28750Y303800D02*
D03*
X228750Y203800D02*
D03*
X178750Y328800D02*
D03*
X110100Y84200D02*
D03*
X139400Y68100D02*
D03*
X79100Y22500D02*
D03*
X94700Y45700D02*
D03*
Y55500D02*
D03*
X84500Y49600D02*
D03*
D56*
X43500Y245500D02*
X43525Y245526D01*
M02*
