G04*
G04 #@! TF.GenerationSoftware,Altium Limited,Altium Designer,19.1.6 (110)*
G04*
G04 Layer_Color=8388736*
%FSLAX25Y25*%
%MOIN*%
G70*
G01*
G75*
%ADD10C,0.11811*%
%ADD31C,0.01968*%
%ADD53C,0.12402*%
%ADD54R,0.02756X0.04134*%
%ADD55R,0.04331X0.04134*%
%ADD56R,0.07677X0.02953*%
%ADD57R,0.10433X0.06890*%
%ADD58R,0.06890X0.10433*%
%ADD59R,0.04921X0.07480*%
%ADD60R,0.04134X0.04331*%
%ADD61R,0.07480X0.04921*%
%ADD62R,0.06299X0.02953*%
%ADD63R,0.03740X0.02165*%
%ADD64R,0.07087X0.10433*%
%ADD65R,0.06890X0.13189*%
%ADD66R,0.13189X0.06890*%
%ADD67R,0.06102X0.04528*%
%ADD68R,0.02953X0.06299*%
%ADD69R,0.02953X0.04331*%
%ADD70R,0.02953X0.06890*%
%ADD71R,0.07677X0.03740*%
%ADD72C,0.06890*%
%ADD73C,0.06591*%
%ADD74R,0.05315X0.05315*%
%ADD75C,0.05315*%
%ADD76C,0.07191*%
%ADD77C,0.07678*%
%ADD78C,0.06497*%
%ADD79R,0.06497X0.06497*%
%ADD80C,0.08859*%
%ADD81C,0.03347*%
%ADD82C,0.04091*%
D10*
X11811Y11811D02*
D03*
X578740D02*
D03*
Y381890D02*
D03*
X11811Y381890D02*
D03*
D31*
X312205Y267027D02*
D03*
Y263090D02*
D03*
Y259153D02*
D03*
Y251279D02*
D03*
Y255216D02*
D03*
X312106Y81004D02*
D03*
Y77067D02*
D03*
Y84941D02*
D03*
Y88878D02*
D03*
Y92815D02*
D03*
X545571Y255216D02*
D03*
Y251279D02*
D03*
Y259153D02*
D03*
Y263090D02*
D03*
Y267027D02*
D03*
X545571Y81004D02*
D03*
Y77067D02*
D03*
Y84941D02*
D03*
Y88878D02*
D03*
Y92815D02*
D03*
X273622Y92815D02*
D03*
Y88878D02*
D03*
Y84941D02*
D03*
Y77067D02*
D03*
Y81004D02*
D03*
X273622Y267028D02*
D03*
Y263091D02*
D03*
Y259154D02*
D03*
Y251279D02*
D03*
Y255216D02*
D03*
X40157Y92815D02*
D03*
Y88878D02*
D03*
Y84941D02*
D03*
Y77067D02*
D03*
Y81004D02*
D03*
X40256Y255216D02*
D03*
Y251279D02*
D03*
Y259154D02*
D03*
Y263091D02*
D03*
Y267028D02*
D03*
D53*
X11811Y11811D02*
D03*
X578740Y11811D02*
D03*
Y381890D02*
D03*
X11811Y381890D02*
D03*
D54*
X108167Y101945D02*
D03*
X110725Y93087D02*
D03*
X105607D02*
D03*
X380037Y101945D02*
D03*
X382596Y93087D02*
D03*
X377478D02*
D03*
D55*
X120067Y93480D02*
D03*
Y99583D02*
D03*
X99817Y81079D02*
D03*
Y87181D02*
D03*
X189043Y86086D02*
D03*
Y92188D02*
D03*
X169161Y86086D02*
D03*
Y92188D02*
D03*
X143578Y86086D02*
D03*
Y79984D02*
D03*
X256742Y178776D02*
D03*
Y184878D02*
D03*
X250639Y178776D02*
D03*
Y184878D02*
D03*
X256742Y172806D02*
D03*
Y166703D02*
D03*
X250639D02*
D03*
Y172806D02*
D03*
X258021Y139676D02*
D03*
Y145778D02*
D03*
X233286Y139676D02*
D03*
Y145778D02*
D03*
X215009Y171664D02*
D03*
Y177766D02*
D03*
X208907D02*
D03*
Y171664D02*
D03*
X202805Y177766D02*
D03*
Y171664D02*
D03*
X174163Y207024D02*
D03*
Y213126D02*
D03*
X109891Y137228D02*
D03*
Y131125D02*
D03*
X72533Y197378D02*
D03*
Y203480D02*
D03*
X112981Y218835D02*
D03*
Y212732D02*
D03*
X106828Y218835D02*
D03*
Y212732D02*
D03*
X100720D02*
D03*
Y218835D02*
D03*
X66431Y203480D02*
D03*
Y197378D02*
D03*
X60328D02*
D03*
Y203480D02*
D03*
X72599Y218835D02*
D03*
Y212732D02*
D03*
X391937Y93480D02*
D03*
Y99583D02*
D03*
X371688Y81079D02*
D03*
Y87181D02*
D03*
X460914Y86086D02*
D03*
Y92188D02*
D03*
X441032Y86086D02*
D03*
Y92188D02*
D03*
X415448Y86086D02*
D03*
Y79984D02*
D03*
X528612Y178776D02*
D03*
Y184878D02*
D03*
X522509Y178776D02*
D03*
Y184878D02*
D03*
X528612Y172806D02*
D03*
Y166703D02*
D03*
X522509D02*
D03*
Y172806D02*
D03*
X529891Y139676D02*
D03*
Y145778D02*
D03*
X505156Y139676D02*
D03*
Y145778D02*
D03*
X486880Y171664D02*
D03*
Y177766D02*
D03*
X480777D02*
D03*
Y171664D02*
D03*
X474675Y177766D02*
D03*
Y171664D02*
D03*
X446033Y207024D02*
D03*
Y213126D02*
D03*
X381761Y137228D02*
D03*
Y131125D02*
D03*
X344403Y197378D02*
D03*
Y203480D02*
D03*
X384851Y218835D02*
D03*
Y212732D02*
D03*
X378698Y218835D02*
D03*
Y212732D02*
D03*
X372590D02*
D03*
Y218835D02*
D03*
X338301Y203480D02*
D03*
Y197378D02*
D03*
X332198D02*
D03*
Y203480D02*
D03*
X344469Y218835D02*
D03*
Y212732D02*
D03*
D56*
X107529Y86079D02*
D03*
Y81079D02*
D03*
Y76079D02*
D03*
Y71079D02*
D03*
X135876Y86079D02*
D03*
Y81079D02*
D03*
Y76079D02*
D03*
Y71079D02*
D03*
X379399Y86079D02*
D03*
Y81079D02*
D03*
Y76079D02*
D03*
Y71079D02*
D03*
X407746Y86079D02*
D03*
Y81079D02*
D03*
Y76079D02*
D03*
Y71079D02*
D03*
D57*
X199477Y94354D02*
D03*
X213428D02*
D03*
X229698Y222181D02*
D03*
X215747D02*
D03*
X471347Y94354D02*
D03*
X485298D02*
D03*
X501569Y222181D02*
D03*
X487617D02*
D03*
D58*
X156458Y86086D02*
D03*
Y100037D02*
D03*
X245620Y145778D02*
D03*
Y131827D02*
D03*
X428328Y86086D02*
D03*
Y100037D02*
D03*
X517490Y145778D02*
D03*
Y131827D02*
D03*
D59*
X151252Y70705D02*
D03*
X162866D02*
D03*
X221672Y131999D02*
D03*
X233286D02*
D03*
X79131Y187964D02*
D03*
X67517D02*
D03*
X423122Y70705D02*
D03*
X434736D02*
D03*
X493542Y131999D02*
D03*
X505156D02*
D03*
X351001Y187964D02*
D03*
X339387D02*
D03*
D60*
X243651Y183672D02*
D03*
X237549D02*
D03*
X221112Y139676D02*
D03*
X227214D02*
D03*
Y145778D02*
D03*
X221112D02*
D03*
X209005Y165587D02*
D03*
X215108D02*
D03*
X209005Y159484D02*
D03*
X215108D02*
D03*
X221850Y209780D02*
D03*
X215747D02*
D03*
X154423Y207024D02*
D03*
X148320D02*
D03*
X96210Y137031D02*
D03*
X90108D02*
D03*
Y130928D02*
D03*
X96210D02*
D03*
X101195Y225909D02*
D03*
X95092D02*
D03*
X113226Y225921D02*
D03*
X107123D02*
D03*
X83029Y225909D02*
D03*
X89131D02*
D03*
X60389Y190193D02*
D03*
X54286D02*
D03*
Y184091D02*
D03*
X60389D02*
D03*
X515521Y183672D02*
D03*
X509419D02*
D03*
X492982Y139676D02*
D03*
X499084D02*
D03*
Y145778D02*
D03*
X492982D02*
D03*
X480876Y165587D02*
D03*
X486978D02*
D03*
X480876Y159484D02*
D03*
X486978D02*
D03*
X493720Y209780D02*
D03*
X487617D02*
D03*
X426293Y207024D02*
D03*
X420191D02*
D03*
X368080Y137031D02*
D03*
X361978D02*
D03*
Y130928D02*
D03*
X368080D02*
D03*
X373065Y225909D02*
D03*
X366962D02*
D03*
X385096Y225921D02*
D03*
X378993D02*
D03*
X354899Y225909D02*
D03*
X361001D02*
D03*
X332259Y190193D02*
D03*
X326156D02*
D03*
Y184091D02*
D03*
X332259D02*
D03*
D61*
X213533Y134164D02*
D03*
Y145778D02*
D03*
X167950Y156938D02*
D03*
Y168552D02*
D03*
X158501Y168552D02*
D03*
Y156938D02*
D03*
X149052Y168552D02*
D03*
Y156938D02*
D03*
X52608Y208992D02*
D03*
Y197378D02*
D03*
X485403Y134164D02*
D03*
Y145778D02*
D03*
X439820Y156938D02*
D03*
Y168552D02*
D03*
X430371Y168552D02*
D03*
Y156938D02*
D03*
X420922Y168552D02*
D03*
Y156938D02*
D03*
X324478Y208992D02*
D03*
Y197378D02*
D03*
D62*
X243553Y161703D02*
D03*
Y166703D02*
D03*
Y171703D02*
D03*
Y176703D02*
D03*
X222096Y161703D02*
D03*
Y166703D02*
D03*
Y171703D02*
D03*
Y176703D02*
D03*
X515423Y161703D02*
D03*
Y166703D02*
D03*
Y171703D02*
D03*
Y176703D02*
D03*
X493966Y161703D02*
D03*
Y166703D02*
D03*
Y171703D02*
D03*
Y176703D02*
D03*
D63*
X145368Y219032D02*
D03*
X154423D02*
D03*
X417238D02*
D03*
X426293D02*
D03*
D64*
X191486Y231827D02*
D03*
Y246591D02*
D03*
X463356Y231827D02*
D03*
Y246591D02*
D03*
D65*
X191486Y217246D02*
D03*
Y197392D02*
D03*
X463356Y217246D02*
D03*
Y197392D02*
D03*
D66*
X148488Y185665D02*
D03*
X168342D02*
D03*
X167948Y139602D02*
D03*
X148094D02*
D03*
X420358Y185665D02*
D03*
X440212D02*
D03*
X439818Y139602D02*
D03*
X419965D02*
D03*
D67*
X103002Y129747D02*
D03*
Y137031D02*
D03*
X83316Y137031D02*
D03*
Y129747D02*
D03*
X374872Y129747D02*
D03*
Y137031D02*
D03*
X355187Y137031D02*
D03*
Y129747D02*
D03*
D68*
X94131Y218835D02*
D03*
X89131D02*
D03*
X84131D02*
D03*
X79131D02*
D03*
X94131Y197378D02*
D03*
X89131D02*
D03*
X84131D02*
D03*
X79131D02*
D03*
X366001Y218835D02*
D03*
X361001D02*
D03*
X356001D02*
D03*
X351001D02*
D03*
X366001Y197378D02*
D03*
X361001D02*
D03*
X356001D02*
D03*
X351001D02*
D03*
D69*
X175362Y86086D02*
D03*
X182843D02*
D03*
X179102Y96913D02*
D03*
X160580Y207024D02*
D03*
X168061D02*
D03*
X164321Y217850D02*
D03*
X447232Y86086D02*
D03*
X454713D02*
D03*
X450973Y96913D02*
D03*
X432450Y207024D02*
D03*
X439931D02*
D03*
X436191Y217850D02*
D03*
D70*
X174439Y252398D02*
D03*
X164439D02*
D03*
X174439Y226807D02*
D03*
X164439D02*
D03*
X446309Y252398D02*
D03*
X436309D02*
D03*
X446309Y226807D02*
D03*
X436309D02*
D03*
D71*
X154423Y227752D02*
D03*
Y237752D02*
D03*
Y257752D02*
D03*
Y247752D02*
D03*
X126864D02*
D03*
Y257752D02*
D03*
Y237752D02*
D03*
Y227752D02*
D03*
X426293D02*
D03*
Y237752D02*
D03*
Y257752D02*
D03*
Y247752D02*
D03*
X398734D02*
D03*
Y257752D02*
D03*
Y237752D02*
D03*
Y227752D02*
D03*
D72*
X99557Y162793D02*
D03*
Y152950D02*
D03*
Y172635D02*
D03*
X112155D02*
D03*
Y152950D02*
D03*
Y162793D02*
D03*
X251132Y211059D02*
D03*
X241289D02*
D03*
X260974D02*
D03*
Y198461D02*
D03*
X241289D02*
D03*
X251132D02*
D03*
X371427Y162793D02*
D03*
Y152950D02*
D03*
Y172635D02*
D03*
X384025D02*
D03*
Y152950D02*
D03*
Y162793D02*
D03*
X523002Y211059D02*
D03*
X513159D02*
D03*
X532844D02*
D03*
Y198461D02*
D03*
X513159D02*
D03*
X523002D02*
D03*
D73*
X151939Y277594D02*
D03*
X161939D02*
D03*
X233495Y58065D02*
D03*
X243495D02*
D03*
X69898Y57418D02*
D03*
X79898D02*
D03*
X423809Y277594D02*
D03*
X433809D02*
D03*
X505365Y58065D02*
D03*
X515365D02*
D03*
X341769Y57418D02*
D03*
X351768D02*
D03*
D74*
X195698Y62462D02*
D03*
X88887Y148620D02*
D03*
X68887Y157773D02*
D03*
X467568Y62462D02*
D03*
X360757Y148620D02*
D03*
X340757Y157773D02*
D03*
D75*
X205698Y72462D02*
D03*
X215698Y62462D02*
D03*
X68887Y148620D02*
D03*
X88887Y157773D02*
D03*
X477568Y72462D02*
D03*
X487569Y62462D02*
D03*
X340757Y148620D02*
D03*
X360757Y157773D02*
D03*
D76*
X135876Y55154D02*
D03*
X125876D02*
D03*
X105876D02*
D03*
X115876D02*
D03*
X151252D02*
D03*
X161252D02*
D03*
X407746D02*
D03*
X397746D02*
D03*
X377746D02*
D03*
X387746D02*
D03*
X423122D02*
D03*
X433122D02*
D03*
D77*
X249698Y236662D02*
D03*
X229698D02*
D03*
X209698D02*
D03*
X177198Y117161D02*
D03*
X157198D02*
D03*
X137198D02*
D03*
X104198Y236662D02*
D03*
X84198D02*
D03*
X64198D02*
D03*
X249698Y117161D02*
D03*
X229698D02*
D03*
X209698D02*
D03*
X104198D02*
D03*
X84198D02*
D03*
X64198D02*
D03*
X521568Y236662D02*
D03*
X501569D02*
D03*
X481568D02*
D03*
X449068Y117161D02*
D03*
X429069D02*
D03*
X409068D02*
D03*
X376068Y236662D02*
D03*
X356068D02*
D03*
X336069D02*
D03*
X521568Y117161D02*
D03*
X501569D02*
D03*
X481568D02*
D03*
X376068D02*
D03*
X356068D02*
D03*
X336069D02*
D03*
D78*
X71505Y166750D02*
D03*
X86663Y176750D02*
D03*
X343376Y166750D02*
D03*
X358533Y176750D02*
D03*
D79*
X71505D02*
D03*
X86663Y166750D02*
D03*
X343376Y176750D02*
D03*
X358533Y166750D02*
D03*
D80*
X179609Y308261D02*
D03*
X243507D02*
D03*
X179609Y333261D02*
D03*
X243507D02*
D03*
X179609Y283261D02*
D03*
X243507D02*
D03*
X70390Y308261D02*
D03*
X134288D02*
D03*
X70390Y333261D02*
D03*
X134288D02*
D03*
X70390Y283261D02*
D03*
X134288D02*
D03*
X451479Y308261D02*
D03*
X515378D02*
D03*
X451479Y333261D02*
D03*
X515378D02*
D03*
X451479Y283261D02*
D03*
X515378D02*
D03*
X342261Y308261D02*
D03*
X406158D02*
D03*
X342261Y333261D02*
D03*
X406158D02*
D03*
X342261Y283261D02*
D03*
X406158D02*
D03*
D81*
X189517Y263323D02*
D03*
X215305Y125473D02*
D03*
X206459Y145778D02*
D03*
X265107Y184485D02*
D03*
X269119Y271587D02*
D03*
X144611Y47472D02*
D03*
X45005Y246685D02*
D03*
X194414Y47472D02*
D03*
X45005Y122177D02*
D03*
X244217Y321390D02*
D03*
X269119Y221783D02*
D03*
X244217Y47472D02*
D03*
X45005Y147079D02*
D03*
X169513Y346291D02*
D03*
X45005Y321390D02*
D03*
Y47472D02*
D03*
X244217Y346291D02*
D03*
X269119Y147079D02*
D03*
X194414Y346291D02*
D03*
X119709D02*
D03*
Y47472D02*
D03*
X269119D02*
D03*
X45005Y97276D02*
D03*
Y72374D02*
D03*
Y296488D02*
D03*
X94808Y47472D02*
D03*
X269119Y246685D02*
D03*
Y122177D02*
D03*
X169513Y47472D02*
D03*
X45005Y221783D02*
D03*
X69906Y47472D02*
D03*
X144611Y346291D02*
D03*
X94808D02*
D03*
X69906D02*
D03*
X269119Y296488D02*
D03*
Y321390D02*
D03*
Y97276D02*
D03*
Y196882D02*
D03*
Y72374D02*
D03*
Y171980D02*
D03*
X219316Y47472D02*
D03*
X69906Y321390D02*
D03*
X45005Y271587D02*
D03*
Y171980D02*
D03*
X219316Y346291D02*
D03*
X45005Y196882D02*
D03*
X165052Y267867D02*
D03*
X140305Y223461D02*
D03*
X120067Y104624D02*
D03*
X114616Y104268D02*
D03*
X135584Y219032D02*
D03*
X90108Y124248D02*
D03*
X110922D02*
D03*
X202903Y160468D02*
D03*
X159891Y263221D02*
D03*
X225836Y183681D02*
D03*
Y196197D02*
D03*
X230462Y161650D02*
D03*
X461387Y263323D02*
D03*
X487175Y125473D02*
D03*
X478329Y145778D02*
D03*
X536977Y184485D02*
D03*
X540989Y271587D02*
D03*
X416481Y47472D02*
D03*
X316875Y246685D02*
D03*
X466284Y47472D02*
D03*
X316875Y122177D02*
D03*
X516087Y321390D02*
D03*
X540989Y221783D02*
D03*
X516087Y47472D02*
D03*
X316875Y147079D02*
D03*
X441383Y346291D02*
D03*
X316875Y321390D02*
D03*
Y47472D02*
D03*
X516087Y346291D02*
D03*
X540989Y147079D02*
D03*
X466284Y346291D02*
D03*
X391580D02*
D03*
Y47472D02*
D03*
X540989D02*
D03*
X316875Y97276D02*
D03*
Y72374D02*
D03*
Y296488D02*
D03*
X366678Y47472D02*
D03*
X540989Y246685D02*
D03*
Y122177D02*
D03*
X441383Y47472D02*
D03*
X316875Y221783D02*
D03*
X341776Y47472D02*
D03*
X416481Y346291D02*
D03*
X366678D02*
D03*
X341776D02*
D03*
X540989Y296488D02*
D03*
Y321390D02*
D03*
Y97276D02*
D03*
Y196882D02*
D03*
Y72374D02*
D03*
Y171980D02*
D03*
X491186Y47472D02*
D03*
X341776Y321390D02*
D03*
X316875Y271587D02*
D03*
Y171980D02*
D03*
X491186Y346291D02*
D03*
X316875Y196882D02*
D03*
X436922Y267867D02*
D03*
X412175Y223461D02*
D03*
X391937Y104624D02*
D03*
X386486Y104268D02*
D03*
X407454Y219032D02*
D03*
X361978Y124248D02*
D03*
X382792D02*
D03*
X474773Y160468D02*
D03*
X431761Y263221D02*
D03*
X497706Y183681D02*
D03*
Y196197D02*
D03*
X502332Y161650D02*
D03*
D82*
X79131Y212685D02*
D03*
X115108Y203776D02*
D03*
X182726Y133183D02*
D03*
Y156934D02*
D03*
Y180055D02*
D03*
X195324Y174664D02*
D03*
X351001Y212685D02*
D03*
X386978Y203776D02*
D03*
X454596Y133183D02*
D03*
Y156934D02*
D03*
Y180055D02*
D03*
X467195Y174664D02*
D03*
M02*
