G04*
G04 #@! TF.GenerationSoftware,Altium Limited,Altium Designer,19.1.6 (110)*
G04*
G04 Layer_Color=32896*
%FSLAX25Y25*%
%MOIN*%
G70*
G01*
G75*
%ADD29C,0.01000*%
%ADD44C,0.00500*%
%ADD46C,0.00787*%
%ADD48C,0.00591*%
%ADD83C,0.00800*%
D29*
X142372Y290950D02*
X171506D01*
Y268313D02*
Y290950D01*
X142372Y268313D02*
X171506D01*
X142372D02*
Y290950D01*
X414242D02*
X443376D01*
Y268313D02*
Y290950D01*
X414242Y268313D02*
X443376D01*
X414242D02*
Y290950D01*
D44*
X194698Y298098D02*
G03*
X229698Y263099I35000J0D01*
G01*
Y333099D02*
G03*
X194698Y298099I-0J-35000D01*
G01*
X229698Y333099D02*
G03*
X194698Y298099I-0J-35000D01*
G01*
Y298098D02*
G03*
X229698Y263099I35000J0D01*
G01*
D02*
G03*
X264698Y298098I0J35000D01*
G01*
Y298099D02*
G03*
X229698Y333099I-35000J0D01*
G01*
X264698Y298099D02*
G03*
X229698Y333099I-35000J0D01*
G01*
Y263099D02*
G03*
X264698Y298098I0J35000D01*
G01*
X233233D02*
G03*
X233233Y298098I-3535J0D01*
G01*
D02*
G03*
X233233Y298098I-3535J0D01*
G01*
X122198Y178598D02*
G03*
X157198Y143598I35000J0D01*
G01*
Y213598D02*
G03*
X122198Y178599I-0J-35000D01*
G01*
X157198Y213598D02*
G03*
X122198Y178599I-0J-35000D01*
G01*
Y178598D02*
G03*
X157198Y143598I35000J0D01*
G01*
D02*
G03*
X192198Y178598I0J35000D01*
G01*
Y178599D02*
G03*
X157198Y213598I-35000J0D01*
G01*
X192198Y178599D02*
G03*
X157198Y213598I-35000J0D01*
G01*
Y143598D02*
G03*
X192198Y178598I0J35000D01*
G01*
X160733D02*
G03*
X160733Y178598I-3535J0D01*
G01*
D02*
G03*
X160733Y178598I-3535J0D01*
G01*
X49198Y298098D02*
G03*
X84198Y263099I35000J0D01*
G01*
Y333099D02*
G03*
X49198Y298099I-0J-35000D01*
G01*
X84198Y333099D02*
G03*
X49198Y298099I-0J-35000D01*
G01*
Y298098D02*
G03*
X84198Y263099I35000J0D01*
G01*
D02*
G03*
X119198Y298098I0J35000D01*
G01*
Y298099D02*
G03*
X84198Y333099I-35000J0D01*
G01*
X119198Y298099D02*
G03*
X84198Y333099I-35000J0D01*
G01*
Y263099D02*
G03*
X119198Y298098I0J35000D01*
G01*
X87733D02*
G03*
X87733Y298098I-3535J0D01*
G01*
D02*
G03*
X87733Y298098I-3535J0D01*
G01*
X194698Y178598D02*
G03*
X229698Y143598I35000J0D01*
G01*
Y213598D02*
G03*
X194698Y178599I-0J-35000D01*
G01*
X229698Y213598D02*
G03*
X194698Y178599I-0J-35000D01*
G01*
Y178598D02*
G03*
X229698Y143598I35000J0D01*
G01*
D02*
G03*
X264698Y178598I0J35000D01*
G01*
Y178599D02*
G03*
X229698Y213598I-35000J0D01*
G01*
X264698Y178599D02*
G03*
X229698Y213598I-35000J0D01*
G01*
Y143598D02*
G03*
X264698Y178598I0J35000D01*
G01*
X233233D02*
G03*
X233233Y178598I-3535J0D01*
G01*
D02*
G03*
X233233Y178598I-3535J0D01*
G01*
X49198D02*
G03*
X84198Y143598I35000J0D01*
G01*
Y213598D02*
G03*
X49198Y178599I-0J-35000D01*
G01*
X84198Y213598D02*
G03*
X49198Y178599I-0J-35000D01*
G01*
Y178598D02*
G03*
X84198Y143598I35000J0D01*
G01*
D02*
G03*
X119198Y178598I0J35000D01*
G01*
Y178599D02*
G03*
X84198Y213598I-35000J0D01*
G01*
X119198Y178599D02*
G03*
X84198Y213598I-35000J0D01*
G01*
Y143598D02*
G03*
X119198Y178598I0J35000D01*
G01*
X87733D02*
G03*
X87733Y178598I-3535J0D01*
G01*
D02*
G03*
X87733Y178598I-3535J0D01*
G01*
X194698Y298098D02*
X264698D01*
X194698D02*
X264698D01*
X199698Y243162D02*
X259698D01*
X199698D02*
X259698D01*
X229698Y263099D02*
Y333099D01*
Y263099D02*
Y333099D01*
X199698Y243162D02*
Y280598D01*
Y243162D02*
Y280598D01*
X259698Y243162D02*
Y280598D01*
Y243162D02*
Y280598D01*
X122198Y178598D02*
X192198D01*
X122198D02*
X192198D01*
X127198Y123661D02*
X187198D01*
X127198D02*
X187198D01*
X157198Y143598D02*
Y213598D01*
Y143598D02*
Y213598D01*
X127198Y123661D02*
Y161099D01*
Y123661D02*
Y161099D01*
X187198Y123661D02*
Y161099D01*
Y123661D02*
Y161099D01*
X49198Y298098D02*
X119198D01*
X49198D02*
X119198D01*
X54198Y243162D02*
X114198D01*
X54198D02*
X114198D01*
X84198Y263099D02*
Y333099D01*
Y263099D02*
Y333099D01*
X54198Y243162D02*
Y280598D01*
Y243162D02*
Y280598D01*
X114198Y243162D02*
Y280598D01*
Y243162D02*
Y280598D01*
X194698Y178598D02*
X264698D01*
X194698D02*
X264698D01*
X199698Y123661D02*
X259698D01*
X199698D02*
X259698D01*
X229698Y143598D02*
Y213598D01*
Y143598D02*
Y213598D01*
X199698Y123661D02*
Y161099D01*
Y123661D02*
Y161099D01*
X259698Y123661D02*
Y161099D01*
Y123661D02*
Y161099D01*
X49198Y178598D02*
X119198D01*
X49198D02*
X119198D01*
X54198Y123661D02*
X114198D01*
X54198D02*
X114198D01*
X84198Y143598D02*
Y213598D01*
Y143598D02*
Y213598D01*
X54198Y123661D02*
Y161099D01*
Y123661D02*
Y161099D01*
X114198Y123661D02*
Y161099D01*
Y123661D02*
Y161099D01*
X466569Y298098D02*
G03*
X501569Y263099I35000J0D01*
G01*
Y333099D02*
G03*
X466569Y298099I-0J-35000D01*
G01*
X501569Y333099D02*
G03*
X466569Y298099I-0J-35000D01*
G01*
Y298098D02*
G03*
X501569Y263099I35000J0D01*
G01*
D02*
G03*
X536568Y298098I0J35000D01*
G01*
Y298099D02*
G03*
X501569Y333099I-35000J0D01*
G01*
X536568Y298099D02*
G03*
X501569Y333099I-35000J0D01*
G01*
Y263099D02*
G03*
X536568Y298098I0J35000D01*
G01*
X505103D02*
G03*
X505103Y298098I-3535J0D01*
G01*
D02*
G03*
X505103Y298098I-3535J0D01*
G01*
X394069Y178598D02*
G03*
X429069Y143598I35000J0D01*
G01*
Y213598D02*
G03*
X394069Y178599I-0J-35000D01*
G01*
X429069Y213598D02*
G03*
X394069Y178599I-0J-35000D01*
G01*
Y178598D02*
G03*
X429069Y143598I35000J0D01*
G01*
D02*
G03*
X464069Y178598I0J35000D01*
G01*
Y178599D02*
G03*
X429069Y213598I-35000J0D01*
G01*
X464069Y178599D02*
G03*
X429069Y213598I-35000J0D01*
G01*
Y143598D02*
G03*
X464069Y178598I0J35000D01*
G01*
X432604D02*
G03*
X432604Y178598I-3535J0D01*
G01*
D02*
G03*
X432604Y178598I-3535J0D01*
G01*
X321069Y298098D02*
G03*
X356068Y263099I35000J0D01*
G01*
Y333099D02*
G03*
X321069Y298099I-0J-35000D01*
G01*
X356068Y333099D02*
G03*
X321069Y298099I-0J-35000D01*
G01*
Y298098D02*
G03*
X356068Y263099I35000J0D01*
G01*
D02*
G03*
X391069Y298098I0J35000D01*
G01*
Y298099D02*
G03*
X356068Y333099I-35000J0D01*
G01*
X391069Y298099D02*
G03*
X356068Y333099I-35000J0D01*
G01*
Y263099D02*
G03*
X391069Y298098I0J35000D01*
G01*
X359604D02*
G03*
X359604Y298098I-3535J0D01*
G01*
D02*
G03*
X359604Y298098I-3535J0D01*
G01*
X466569Y178598D02*
G03*
X501569Y143598I35000J0D01*
G01*
Y213598D02*
G03*
X466569Y178599I-0J-35000D01*
G01*
X501569Y213598D02*
G03*
X466569Y178599I-0J-35000D01*
G01*
Y178598D02*
G03*
X501569Y143598I35000J0D01*
G01*
D02*
G03*
X536568Y178598I0J35000D01*
G01*
Y178599D02*
G03*
X501569Y213598I-35000J0D01*
G01*
X536568Y178599D02*
G03*
X501569Y213598I-35000J0D01*
G01*
Y143598D02*
G03*
X536568Y178598I0J35000D01*
G01*
X505103D02*
G03*
X505103Y178598I-3535J0D01*
G01*
D02*
G03*
X505103Y178598I-3535J0D01*
G01*
X321069D02*
G03*
X356068Y143598I35000J0D01*
G01*
Y213598D02*
G03*
X321069Y178599I-0J-35000D01*
G01*
X356068Y213598D02*
G03*
X321069Y178599I-0J-35000D01*
G01*
Y178598D02*
G03*
X356068Y143598I35000J0D01*
G01*
D02*
G03*
X391069Y178598I0J35000D01*
G01*
Y178599D02*
G03*
X356068Y213598I-35000J0D01*
G01*
X391069Y178599D02*
G03*
X356068Y213598I-35000J0D01*
G01*
Y143598D02*
G03*
X391069Y178598I0J35000D01*
G01*
X359604D02*
G03*
X359604Y178598I-3535J0D01*
G01*
D02*
G03*
X359604Y178598I-3535J0D01*
G01*
X466569Y298098D02*
X536568D01*
X466569D02*
X536568D01*
X471568Y243162D02*
X531568D01*
X471568D02*
X531568D01*
X501569Y263099D02*
Y333099D01*
Y263099D02*
Y333099D01*
X471568Y243162D02*
Y280598D01*
Y243162D02*
Y280598D01*
X531568Y243162D02*
Y280598D01*
Y243162D02*
Y280598D01*
X394069Y178598D02*
X464069D01*
X394069D02*
X464069D01*
X399068Y123661D02*
X459068D01*
X399068D02*
X459068D01*
X429069Y143598D02*
Y213598D01*
Y143598D02*
Y213598D01*
X399068Y123661D02*
Y161099D01*
Y123661D02*
Y161099D01*
X459068Y123661D02*
Y161099D01*
Y123661D02*
Y161099D01*
X321069Y298098D02*
X391069D01*
X321069D02*
X391069D01*
X326068Y243162D02*
X386069D01*
X326068D02*
X386069D01*
X356068Y263099D02*
Y333099D01*
Y263099D02*
Y333099D01*
X326068Y243162D02*
Y280598D01*
Y243162D02*
Y280598D01*
X386069Y243162D02*
Y280598D01*
Y243162D02*
Y280598D01*
X466569Y178598D02*
X536568D01*
X466569D02*
X536568D01*
X471568Y123661D02*
X531568D01*
X471568D02*
X531568D01*
X501569Y143598D02*
Y213598D01*
Y143598D02*
Y213598D01*
X471568Y123661D02*
Y161099D01*
Y123661D02*
Y161099D01*
X531568Y123661D02*
Y161099D01*
Y123661D02*
Y161099D01*
X321069Y178598D02*
X391069D01*
X321069D02*
X391069D01*
X326068Y123661D02*
X386069D01*
X326068D02*
X386069D01*
X356068Y143598D02*
Y213598D01*
Y143598D02*
Y213598D01*
X326068Y123661D02*
Y161099D01*
Y123661D02*
Y161099D01*
X386069Y123661D02*
Y161099D01*
Y123661D02*
Y161099D01*
D46*
X151821Y268540D02*
Y270508D01*
X162057D01*
Y268540D02*
Y270508D01*
X423691Y268540D02*
Y270508D01*
X433927D01*
Y268540D02*
Y270508D01*
D48*
X242537Y128785D02*
X243061Y129310D01*
X244111D01*
X244636Y128785D01*
Y126686D01*
X244111Y126161D01*
X243061D01*
X242537Y126686D01*
X239913Y129310D02*
X240962D01*
X241487Y128785D01*
Y126686D01*
X240962Y126161D01*
X239913D01*
X239388Y126686D01*
Y128785D01*
X239913Y129310D01*
X238338Y126161D02*
Y129310D01*
X236240Y126161D01*
Y129310D01*
X235190D02*
X233091D01*
X234140D01*
Y126161D01*
X230467Y129310D02*
X231517D01*
X232041Y128785D01*
Y126686D01*
X231517Y126161D01*
X230467D01*
X229942Y126686D01*
Y128785D01*
X230467Y129310D01*
X228893D02*
Y126686D01*
X228368Y126161D01*
X227319D01*
X226794Y126686D01*
Y129310D01*
X225744Y126161D02*
Y129310D01*
X224170D01*
X223645Y128785D01*
Y127736D01*
X224170Y127211D01*
X225744D01*
X224695D02*
X223645Y126161D01*
X91119Y128373D02*
Y125224D01*
X89544D01*
X89020Y125749D01*
Y126274D01*
X89544Y126798D01*
X91119D01*
X89544D01*
X89020Y127323D01*
Y127848D01*
X89544Y128373D01*
X91119D01*
X87970Y125224D02*
Y127323D01*
X86921Y128373D01*
X85871Y127323D01*
Y125224D01*
Y126798D01*
X87970D01*
X82723Y127848D02*
X83247Y128373D01*
X84297D01*
X84822Y127848D01*
Y127323D01*
X84297Y126798D01*
X83247D01*
X82723Y126274D01*
Y125749D01*
X83247Y125224D01*
X84297D01*
X84822Y125749D01*
X79574Y127848D02*
X80099Y128373D01*
X81148D01*
X81673Y127848D01*
Y127323D01*
X81148Y126798D01*
X80099D01*
X79574Y126274D01*
Y125749D01*
X80099Y125224D01*
X81148D01*
X81673Y125749D01*
X164135Y134310D02*
X162036D01*
X163085D01*
Y131161D01*
X160986D02*
Y134310D01*
X159412D01*
X158887Y133785D01*
Y132736D01*
X159412Y132211D01*
X160986D01*
X159937D02*
X158887Y131161D01*
X155739Y134310D02*
X157838D01*
Y131161D01*
X155739D01*
X157838Y132736D02*
X156788D01*
X154689Y134310D02*
Y131161D01*
X153115D01*
X152590Y131686D01*
Y132211D01*
X153115Y132736D01*
X154689D01*
X153115D01*
X152590Y133261D01*
Y133785D01*
X153115Y134310D01*
X154689D01*
X151541D02*
Y131161D01*
X149442D01*
X146293Y134310D02*
X148392D01*
Y131161D01*
X146293D01*
X148392Y132736D02*
X147343D01*
X239198Y248310D02*
Y246211D01*
X238149Y245162D01*
X237099Y246211D01*
Y248310D01*
X234476D02*
X235525D01*
X236050Y247785D01*
Y245686D01*
X235525Y245162D01*
X234476D01*
X233951Y245686D01*
Y247785D01*
X234476Y248310D01*
X232901D02*
Y245162D01*
X230802D01*
X94599Y247785D02*
X95124Y248310D01*
X96174D01*
X96698Y247785D01*
Y245686D01*
X96174Y245162D01*
X95124D01*
X94599Y245686D01*
Y246736D01*
X95649D01*
X93550Y245162D02*
Y247260D01*
X92500Y248310D01*
X91451Y247260D01*
Y245162D01*
Y246736D01*
X93550D01*
X90401Y248310D02*
X89352D01*
X89877D01*
Y245162D01*
X90401D01*
X89352D01*
X87777D02*
Y248310D01*
X85678Y245162D01*
Y248310D01*
X514407Y128785D02*
X514931Y129310D01*
X515981D01*
X516506Y128785D01*
Y126686D01*
X515981Y126161D01*
X514931D01*
X514407Y126686D01*
X511783Y129310D02*
X512832D01*
X513357Y128785D01*
Y126686D01*
X512832Y126161D01*
X511783D01*
X511258Y126686D01*
Y128785D01*
X511783Y129310D01*
X510209Y126161D02*
Y129310D01*
X508110Y126161D01*
Y129310D01*
X507060D02*
X504961D01*
X506010D01*
Y126161D01*
X502337Y129310D02*
X503387D01*
X503911Y128785D01*
Y126686D01*
X503387Y126161D01*
X502337D01*
X501812Y126686D01*
Y128785D01*
X502337Y129310D01*
X500763D02*
Y126686D01*
X500238Y126161D01*
X499189D01*
X498664Y126686D01*
Y129310D01*
X497614Y126161D02*
Y129310D01*
X496040D01*
X495515Y128785D01*
Y127736D01*
X496040Y127211D01*
X497614D01*
X496565D02*
X495515Y126161D01*
X362989Y128373D02*
Y125224D01*
X361415D01*
X360890Y125749D01*
Y126274D01*
X361415Y126798D01*
X362989D01*
X361415D01*
X360890Y127323D01*
Y127848D01*
X361415Y128373D01*
X362989D01*
X359840Y125224D02*
Y127323D01*
X358791Y128373D01*
X357741Y127323D01*
Y125224D01*
Y126798D01*
X359840D01*
X354593Y127848D02*
X355117Y128373D01*
X356167D01*
X356692Y127848D01*
Y127323D01*
X356167Y126798D01*
X355117D01*
X354593Y126274D01*
Y125749D01*
X355117Y125224D01*
X356167D01*
X356692Y125749D01*
X351444Y127848D02*
X351969Y128373D01*
X353018D01*
X353543Y127848D01*
Y127323D01*
X353018Y126798D01*
X351969D01*
X351444Y126274D01*
Y125749D01*
X351969Y125224D01*
X353018D01*
X353543Y125749D01*
X436005Y134310D02*
X433906D01*
X434956D01*
Y131161D01*
X432857D02*
Y134310D01*
X431282D01*
X430758Y133785D01*
Y132736D01*
X431282Y132211D01*
X432857D01*
X431807D02*
X430758Y131161D01*
X427609Y134310D02*
X429708D01*
Y131161D01*
X427609D01*
X429708Y132736D02*
X428658D01*
X426559Y134310D02*
Y131161D01*
X424985D01*
X424460Y131686D01*
Y132211D01*
X424985Y132736D01*
X426559D01*
X424985D01*
X424460Y133261D01*
Y133785D01*
X424985Y134310D01*
X426559D01*
X423411D02*
Y131161D01*
X421312D01*
X418163Y134310D02*
X420262D01*
Y131161D01*
X418163D01*
X420262Y132736D02*
X419213D01*
X511068Y248310D02*
Y246211D01*
X510019Y245162D01*
X508969Y246211D01*
Y248310D01*
X506346D02*
X507395D01*
X507920Y247785D01*
Y245686D01*
X507395Y245162D01*
X506346D01*
X505821Y245686D01*
Y247785D01*
X506346Y248310D01*
X504771D02*
Y245162D01*
X502672D01*
X366470Y247785D02*
X366994Y248310D01*
X368044D01*
X368568Y247785D01*
Y245686D01*
X368044Y245162D01*
X366994D01*
X366470Y245686D01*
Y246736D01*
X367519D01*
X365420Y245162D02*
Y247260D01*
X364370Y248310D01*
X363321Y247260D01*
Y245162D01*
Y246736D01*
X365420D01*
X362271Y248310D02*
X361222D01*
X361747D01*
Y245162D01*
X362271D01*
X361222D01*
X359648D02*
Y248310D01*
X357548Y245162D01*
Y248310D01*
D83*
X149366Y298286D02*
Y294287D01*
X147367D01*
X146700Y294954D01*
Y297620D01*
X147367Y298286D01*
X149366D01*
X142702Y297620D02*
X143368Y298286D01*
X144701D01*
X145368Y297620D01*
Y294954D01*
X144701Y294287D01*
X143368D01*
X142702Y294954D01*
X421236Y298286D02*
Y294287D01*
X419237D01*
X418571Y294954D01*
Y297620D01*
X419237Y298286D01*
X421236D01*
X414572Y297620D02*
X415238Y298286D01*
X416571D01*
X417238Y297620D01*
Y294954D01*
X416571Y294287D01*
X415238D01*
X414572Y294954D01*
M02*
