M48
;Layer_Color=9474304
;FILE_FORMAT=2:5
INCH,TZ
;TYPE=PLATED
T1F00S00C0.01378
T2F00S00C0.01969
T3F00S00C0.02000
T4F00S00C0.03150
T5F00S00C0.03543
T6F00S00C0.04000
T7F00S00C0.04331
T8F00S00C0.05512
;TYPE=NON_PLATED
T9F00S00C0.01968
T10F00S00C0.11811
%
T01
X45005Y47472
Y72374
Y97276
Y122177
X69906
X84198Y124248
X90108
X94808Y119160
X110922
Y124248
X121195Y119456
X128382Y114971
X127608Y130646
X135199
X138828Y139602
X148080Y133402
Y146098
Y119160
X150246Y100037
X148376Y79984
X126171Y75783
X120067Y81079
X114616Y93087
Y104268
X120067Y104624
X130659Y97276
Y64209
X107529Y66768
X94808Y72374
Y97276
X69906
Y72374
Y47472
X94808
X119709
X144611
X119931Y130646
X119709Y147079
X127608Y152890
X109891Y142260
X94808Y148620
X81250Y144327
X64198Y152950
X45005Y147079
X169513
X186761Y146886
X195915Y152398
X199458Y139602
X206459Y145778
X207529Y127398
X215305Y125473
X220521Y115784
X221180Y94354
X213428Y88224
Y100528
X197195Y106532
X189043Y96913
X179102Y101807
X169161Y96913
X162571Y100037
X156458Y107811
X167273Y119130
X182726Y122177
X194414
X190502Y133008
X176525
X227214Y131999
X238927Y138717
Y149543
X252313Y145606
X269119Y147079
Y122177
Y97276
X244217
Y72374
X219316
X194414
Y47472
X169513
Y72374
X219316Y47472
X244217
X269119
Y72374
X238927Y120606
X316875Y122177
X341776
X356068Y124248
X361978
X366678Y119160
X382792
Y124248
X393066Y119456
X400252Y114971
X399478Y130646
X407070
X410698Y139602
X419950Y133402
Y146098
X441383Y147079
X458632Y146886
X467785Y152398
X462372Y133008
X448395
X454596Y122177
X466284
X439143Y119130
X419950Y119160
X428328Y107811
X434441Y100037
X441032Y96913
X450973Y101807
X460914Y96913
X466284Y72374
Y47472
X441383
X416481
X391580
X366678
Y72374
X379399Y66768
X402529Y64209
X398041Y75783
X391937Y81079
X386486Y93087
Y104268
X391937Y104624
X402529Y97276
X422116Y100037
X420246Y79984
X441383Y72374
X366678Y97276
X341776
X316875
Y72374
Y47472
X341776
Y72374
X353120Y144327
X366678Y148620
X381761Y142260
X391580Y147079
X399478Y152890
X391801Y130646
X336069Y152950
X316875Y147079
X471328Y139602
X478329Y145778
X479399Y127398
X487175Y125473
X492391Y115784
X493050Y94354
X485298Y88224
Y100528
X469065Y106532
X499084Y131999
X510797Y138717
Y149543
X524183Y145606
X540989Y147079
Y122177
Y97276
X516087
Y72374
X491186
Y47472
X516087
X540989
Y72374
X510797Y120606
X508041Y161650
X502332Y161650
X493966Y157516
X474773Y160468
X483730Y184370
X497706Y183681
X504467Y183672
X506466Y194622
X497706Y196197
X498887Y201217
X491702Y194819
X482549Y205350
X493720Y214799
X495541Y228874
X483238
X472116Y222181
X470246Y246591
X483238Y250232
X491186Y271587
X516087
X540989
Y246685
X516087
X509419Y228874
X540989Y221783
Y196882
X536977Y184485
X533533Y179366
X540989Y171980
X524183Y161650
X524281Y192358
X500462Y173756
X469458Y197378
X491186Y296488
X516087
X540989
X466284
X441383
X442687Y281532
X449773Y274839
X442195Y267457
X436922Y267867
X433238Y271587
X431761Y263221
X433238Y258598
X446328Y258303
X442490Y252398
X450167
X446328Y246591
Y232811
X442293Y226807
X450364
X446033Y217654
X436191Y213421
X440226Y191965
Y179465
X449576Y185764
X463356Y188126
Y206630
X460797Y167949
X448395Y162831
X413159Y163618
X406565Y156938
X391506Y158697
X391580Y171980
X399478Y171886
Y192654
X391580Y196882
Y209091
X397214Y219524
X407454Y219032
X405876Y212437
X406958Y202693
X415423Y207024
X412175Y223461
X418966Y225626
X411387Y233008
X416481Y246685
X399478Y252890
X391580Y271587
X366678
Y246685
X341776
X316875
Y221783
X337864Y221787
X344458Y208106
X363750Y209091
X370344Y197378
Y183697
X366678Y176750
X358828Y184189
X345158Y187964
X334025Y177398
X350659Y171749
X350758Y161773
X377628Y157773
Y167555
X382549Y183598
Y192260
X406958Y186945
X420935Y191965
Y173854
X385096Y230744
X391580Y296488
X366678
X341776
Y271587
X316875
Y296488
X416481
Y271587
X466284
X461387Y263323
X463356Y254366
X316875Y196882
Y171980
X269119
X261663Y179366
X265107Y184485
X269119Y196882
X252411Y192358
X234596Y194622
X225836Y196197
X227017Y201217
X219832Y194819
X225836Y183681
X232597Y183672
X228592Y173756
X230462Y161650
X236171Y161650
X252313
X222096Y157516
X202903Y160468
X188927Y167949
X176525Y162831
X177706Y185764
X168356Y191965
Y179465
X191486Y188126
X197588Y197378
X191486Y206630
X210679Y205350
X221850Y214799
X223671Y228874
X211368
X200246Y222181
X198376Y246591
X191486Y254366
X189517Y263323
X194414Y271587
X177903Y274839
X170817Y281532
X170324Y267457
X165052Y267867
X161368Y271587
X159891Y263221
X161368Y258598
X174458Y258303
X170620Y252398
X178297
X174458Y246591
Y232811
X170423Y226807
X178494
X174163Y217654
X164321Y213421
X211860Y184370
X211368Y250232
X219316Y271587
X244217
X269119
Y246685
X244217
X237549Y228874
X269119Y221783
Y296488
X244217
X219316
X194414
X169513
X144611
X119709
Y271587
X94808
Y246685
X69906
X45005
Y221783
X65994Y221787
X72588Y208106
X91879Y209091
X98474Y197378
Y183697
X94808Y176750
X86958Y184189
X73288Y187964
X62155Y177398
X78789Y171749
X78887Y161773
X105757Y157773
Y167555
X119709Y171980
X127608Y171886
Y192654
X119709Y196882
Y209091
X125344Y219524
X135584Y219032
X134005Y212437
X135088Y202693
X143553Y207024
X140305Y223461
X147096Y225626
X139517Y233008
X144611Y246685
X127608Y252890
X144611Y271587
X113226Y230744
X110679Y192260
Y183598
X135088Y186945
X149065Y191965
Y173854
X141289Y163618
X134695Y156938
X119635Y158697
X45005Y171980
Y196882
Y271587
X69906
Y296488
X45005
X94808
Y321390
Y346291
X119709
X144611
Y321390
X119709
X69906
X45005
X69906Y346291
X169513
X194414
Y321390
X169513
X219316
X244217
Y346291
X219316
X269119Y321390
X316875
X341776
X366678
Y346291
X391580
X416481
Y321390
X441383
Y346291
X466284
Y321390
X391580
X341776Y346291
X491186
X516087
Y321390
X540989
X491186
T02
X68887Y148620
X88887
X195698Y62462
X205698Y72462
X215698Y62462
X340757Y148620
X360757
X467568Y62462
X477568Y72462
X487569Y62462
X360757Y157773
X340757
X88887
X68887
T03
X182726Y133183
X454596
Y156934
Y180055
X467195Y174664
X386978Y203776
X351001Y212685
X195324Y174664
X182726Y180055
Y156934
X115108Y203776
X79131Y212685
T04
X99557Y152950
X112155
X371427
X384025
X513159Y198461
X523002
X532844
Y211059
X523002
X513159
X384025Y172635
Y162793
X371427
Y172635
X358533Y176750
Y166750
X343376
Y176750
X260974Y198461
X251132
X241289
Y211059
X251132
X260974
X112155Y172635
Y162793
X99557
Y172635
X86663Y176750
Y166750
X71505
Y176750
T05
X105876Y55154
X115876
X125876
X135876
X151252
X161252
X377746
X387746
X397746
X407746
X423122
X433122
T06
X69898Y57418
X79898
X233495Y58065
X243495
X341769Y57418
X351768
X505365Y58065
X515365
X433809Y277594
X423809
X161939
X151939
T07
X64198Y117161
X84198
X104198
X137198
X157198
X177198
X209698
X229698
X249698
X336069
X356068
X376068
X409068
X429069
X449068
X481568
X501569
X521568
Y236662
X501569
X481568
X376068
X356068
X336069
X249698
X229698
X209698
X104198
X84198
X64198
T08
X515378Y283261
Y308261
X451479
Y283261
X406158
Y308261
X342261
Y283261
X243507
Y308261
X179609
Y283261
X134288
Y308261
X70390
Y283261
Y333261
X134288
X179609
X243507
X342261
X406158
X451479
X515378
T09
X40157Y77067
Y81004
Y84941
Y88878
Y92815
X273622
Y88878
Y84941
Y81004
Y77067
X312106Y77067
Y81004
Y84941
Y88878
Y92815
X545571
Y88878
Y84941
Y81004
Y77067
X545571Y251279
Y255216
Y259153
Y263090
Y267027
X312205
Y263090
Y259153
Y255216
Y251279
X273622Y251279
Y255216
Y259154
Y263091
Y267028
X40256
Y263091
Y259154
Y255216
Y251279
T10
X11811Y11811
X578740
X11811Y381890
X578740Y381890
M30
