G04*
G04 #@! TF.GenerationSoftware,Altium Limited,Altium Designer,19.1.6 (110)*
G04*
G04 Layer_Physical_Order=2*
G04 Layer_Color=16711680*
%FSLAX25Y25*%
%MOIN*%
G70*
G01*
G75*
%ADD10C,0.11811*%
%ADD29C,0.01000*%
%ADD30C,0.02400*%
%ADD31C,0.01968*%
%ADD32C,0.06299*%
%ADD33C,0.06000*%
%ADD34R,0.04724X0.04724*%
%ADD35C,0.04724*%
%ADD36C,0.06600*%
%ADD37C,0.07087*%
%ADD38C,0.05906*%
%ADD39R,0.05906X0.05906*%
%ADD40C,0.08268*%
%ADD41C,0.02756*%
%ADD42C,0.03500*%
G36*
X520504Y335084D02*
X520004Y334985D01*
X519687Y335750D01*
X518896Y336780D01*
X517866Y337571D01*
X516666Y338069D01*
X515378Y338238D01*
X514089Y338069D01*
X512889Y337571D01*
X511859Y336780D01*
X511068Y335750D01*
X510570Y334549D01*
X510401Y333261D01*
X510570Y331973D01*
X511068Y330773D01*
X511859Y329743D01*
X512889Y328952D01*
X514089Y328454D01*
X515378Y328285D01*
X516666Y328454D01*
X517866Y328952D01*
X518896Y329743D01*
X519687Y330773D01*
X520004Y331538D01*
X520504Y331439D01*
Y326162D01*
X520621Y325576D01*
X520952Y325080D01*
X521448Y324748D01*
X522034Y324632D01*
X543539D01*
X543539Y44281D01*
X314098D01*
X314098Y324632D01*
X335598D01*
X336184Y324748D01*
X336680Y325080D01*
X337012Y325576D01*
X337128Y326162D01*
Y331453D01*
X337628Y331553D01*
X337951Y330773D01*
X338742Y329743D01*
X339772Y328952D01*
X340972Y328454D01*
X341861Y328338D01*
Y333261D01*
Y338185D01*
X340972Y338069D01*
X339772Y337571D01*
X338742Y336780D01*
X337951Y335750D01*
X337628Y334970D01*
X337128Y335070D01*
Y352132D01*
X520504D01*
Y335084D01*
D02*
G37*
G36*
X248634D02*
X248134Y334985D01*
X247817Y335750D01*
X247026Y336780D01*
X245996Y337571D01*
X244795Y338069D01*
X243507Y338238D01*
X242219Y338069D01*
X241019Y337571D01*
X239988Y336780D01*
X239198Y335750D01*
X238700Y334549D01*
X238531Y333261D01*
X238700Y331973D01*
X239198Y330773D01*
X239988Y329743D01*
X241019Y328952D01*
X242219Y328454D01*
X243507Y328285D01*
X244795Y328454D01*
X245996Y328952D01*
X247026Y329743D01*
X247817Y330773D01*
X248134Y331538D01*
X248634Y331439D01*
Y326162D01*
X248750Y325576D01*
X249082Y325080D01*
X249578Y324748D01*
X250164Y324632D01*
X271669D01*
X271669Y44281D01*
X42228D01*
X42228Y324632D01*
X63728D01*
X64314Y324748D01*
X64810Y325080D01*
X65141Y325576D01*
X65258Y326162D01*
Y331453D01*
X65758Y331553D01*
X66081Y330773D01*
X66872Y329743D01*
X67902Y328952D01*
X69102Y328454D01*
X69990Y328338D01*
Y333261D01*
Y338185D01*
X69102Y338069D01*
X67902Y337571D01*
X66872Y336780D01*
X66081Y335750D01*
X65758Y334970D01*
X65258Y335070D01*
Y352132D01*
X248634D01*
Y335084D01*
D02*
G37*
%LPC*%
G36*
X451880Y338185D02*
Y333662D01*
X456403D01*
X456286Y334549D01*
X455789Y335750D01*
X454998Y336780D01*
X453968Y337571D01*
X452768Y338069D01*
X451880Y338185D01*
D02*
G37*
G36*
X342660D02*
Y333662D01*
X347184D01*
X347067Y334549D01*
X346570Y335750D01*
X345779Y336780D01*
X344749Y337571D01*
X343549Y338069D01*
X342660Y338185D01*
D02*
G37*
G36*
X451080D02*
X450191Y338069D01*
X448991Y337571D01*
X447961Y336780D01*
X447170Y335750D01*
X446672Y334549D01*
X446556Y333662D01*
X451080D01*
Y338185D01*
D02*
G37*
G36*
X456403Y332861D02*
X451880D01*
Y328338D01*
X452768Y328454D01*
X453968Y328952D01*
X454998Y329743D01*
X455789Y330773D01*
X456286Y331973D01*
X456403Y332861D01*
D02*
G37*
G36*
X347184D02*
X342660D01*
Y328338D01*
X343549Y328454D01*
X344749Y328952D01*
X345779Y329743D01*
X346570Y330773D01*
X347067Y331973D01*
X347184Y332861D01*
D02*
G37*
G36*
X451080D02*
X446556D01*
X446672Y331973D01*
X447170Y330773D01*
X447961Y329743D01*
X448991Y328952D01*
X450191Y328454D01*
X451080Y328338D01*
Y332861D01*
D02*
G37*
G36*
X406158Y338238D02*
X404871Y338069D01*
X403670Y337571D01*
X402640Y336780D01*
X401849Y335750D01*
X401351Y334549D01*
X401182Y333261D01*
X401351Y331973D01*
X401849Y330773D01*
X402640Y329743D01*
X403670Y328952D01*
X404871Y328454D01*
X406158Y328285D01*
X407447Y328454D01*
X408647Y328952D01*
X409678Y329743D01*
X410468Y330773D01*
X410965Y331973D01*
X411135Y333261D01*
X410965Y334549D01*
X410468Y335750D01*
X409678Y336780D01*
X408647Y337571D01*
X407447Y338069D01*
X406158Y338238D01*
D02*
G37*
G36*
X515378Y313238D02*
X514089Y313069D01*
X512889Y312571D01*
X511859Y311780D01*
X511068Y310750D01*
X510570Y309549D01*
X510401Y308261D01*
X510570Y306973D01*
X511068Y305773D01*
X511859Y304743D01*
X512889Y303952D01*
X514089Y303454D01*
X515378Y303285D01*
X516666Y303454D01*
X517866Y303952D01*
X518896Y304743D01*
X519687Y305773D01*
X520185Y306973D01*
X520354Y308261D01*
X520185Y309549D01*
X519687Y310750D01*
X518896Y311780D01*
X517866Y312571D01*
X516666Y313069D01*
X515378Y313238D01*
D02*
G37*
G36*
X451479D02*
X450191Y313069D01*
X448991Y312571D01*
X447961Y311780D01*
X447170Y310750D01*
X446672Y309549D01*
X446503Y308261D01*
X446672Y306973D01*
X447170Y305773D01*
X447961Y304743D01*
X448991Y303952D01*
X450191Y303454D01*
X451479Y303285D01*
X452768Y303454D01*
X453968Y303952D01*
X454998Y304743D01*
X455789Y305773D01*
X456286Y306973D01*
X456456Y308261D01*
X456286Y309549D01*
X455789Y310750D01*
X454998Y311780D01*
X453968Y312571D01*
X452768Y313069D01*
X451479Y313238D01*
D02*
G37*
G36*
X406158D02*
X404871Y313069D01*
X403670Y312571D01*
X402640Y311780D01*
X401849Y310750D01*
X401351Y309549D01*
X401182Y308261D01*
X401351Y306973D01*
X401849Y305773D01*
X402640Y304743D01*
X403670Y303952D01*
X404871Y303454D01*
X406158Y303285D01*
X407447Y303454D01*
X408647Y303952D01*
X409678Y304743D01*
X410468Y305773D01*
X410965Y306973D01*
X411135Y308261D01*
X410965Y309549D01*
X410468Y310750D01*
X409678Y311780D01*
X408647Y312571D01*
X407447Y313069D01*
X406158Y313238D01*
D02*
G37*
G36*
X342261D02*
X340972Y313069D01*
X339772Y312571D01*
X338742Y311780D01*
X337951Y310750D01*
X337454Y309549D01*
X337284Y308261D01*
X337454Y306973D01*
X337951Y305773D01*
X338742Y304743D01*
X339772Y303952D01*
X340972Y303454D01*
X342261Y303285D01*
X343549Y303454D01*
X344749Y303952D01*
X345779Y304743D01*
X346570Y305773D01*
X347067Y306973D01*
X347237Y308261D01*
X347067Y309549D01*
X346570Y310750D01*
X345779Y311780D01*
X344749Y312571D01*
X343549Y313069D01*
X342261Y313238D01*
D02*
G37*
G36*
X425009Y281211D02*
Y278795D01*
X427425D01*
X427128Y279511D01*
X426519Y280305D01*
X425725Y280914D01*
X425009Y281211D01*
D02*
G37*
G36*
X422609Y281211D02*
X421892Y280914D01*
X421099Y280305D01*
X420489Y279511D01*
X420193Y278795D01*
X422609D01*
Y281211D01*
D02*
G37*
G36*
X515378Y288238D02*
X514089Y288069D01*
X512889Y287571D01*
X511859Y286780D01*
X511068Y285750D01*
X510570Y284549D01*
X510401Y283261D01*
X510570Y281973D01*
X511068Y280773D01*
X511859Y279743D01*
X512889Y278952D01*
X514089Y278454D01*
X515378Y278285D01*
X516666Y278454D01*
X517866Y278952D01*
X518896Y279743D01*
X519687Y280773D01*
X520185Y281973D01*
X520354Y283261D01*
X520185Y284549D01*
X519687Y285750D01*
X518896Y286780D01*
X517866Y287571D01*
X516666Y288069D01*
X515378Y288238D01*
D02*
G37*
G36*
X451479D02*
X450191Y288069D01*
X448991Y287571D01*
X447961Y286780D01*
X447170Y285750D01*
X446672Y284549D01*
X446503Y283261D01*
X446672Y281973D01*
X447154Y280811D01*
X436309Y269965D01*
X436072Y269918D01*
X435352Y269437D01*
X434871Y268717D01*
X434702Y267867D01*
X434871Y267017D01*
X435352Y266297D01*
X436072Y265815D01*
X436922Y265646D01*
X437772Y265815D01*
X438492Y266297D01*
X438974Y267017D01*
X439143Y267867D01*
X438974Y268717D01*
X438908Y268815D01*
X449029Y278936D01*
X450191Y278454D01*
X451479Y278285D01*
X452768Y278454D01*
X453968Y278952D01*
X454998Y279743D01*
X455789Y280773D01*
X456286Y281973D01*
X456456Y283261D01*
X456286Y284549D01*
X455789Y285750D01*
X454998Y286780D01*
X453968Y287571D01*
X452768Y288069D01*
X451479Y288238D01*
D02*
G37*
G36*
X406158D02*
X404871Y288069D01*
X403670Y287571D01*
X402640Y286780D01*
X401849Y285750D01*
X401351Y284549D01*
X401182Y283261D01*
X401351Y281973D01*
X401849Y280773D01*
X402640Y279743D01*
X403670Y278952D01*
X404871Y278454D01*
X406158Y278285D01*
X407447Y278454D01*
X408647Y278952D01*
X409678Y279743D01*
X410468Y280773D01*
X410965Y281973D01*
X411135Y283261D01*
X410965Y284549D01*
X410468Y285750D01*
X409678Y286780D01*
X408647Y287571D01*
X407447Y288069D01*
X406158Y288238D01*
D02*
G37*
G36*
X342261D02*
X340972Y288069D01*
X339772Y287571D01*
X338742Y286780D01*
X337951Y285750D01*
X337454Y284549D01*
X337284Y283261D01*
X337454Y281973D01*
X337951Y280773D01*
X338742Y279743D01*
X339772Y278952D01*
X340972Y278454D01*
X342261Y278285D01*
X343549Y278454D01*
X344749Y278952D01*
X345779Y279743D01*
X346570Y280773D01*
X347067Y281973D01*
X347237Y283261D01*
X347067Y284549D01*
X346570Y285750D01*
X345779Y286780D01*
X344749Y287571D01*
X343549Y288069D01*
X342261Y288238D01*
D02*
G37*
G36*
X427425Y276395D02*
X425009D01*
Y273978D01*
X425725Y274275D01*
X426519Y274884D01*
X427128Y275678D01*
X427425Y276395D01*
D02*
G37*
G36*
X422609D02*
X420193D01*
X420489Y275678D01*
X421099Y274884D01*
X421892Y274275D01*
X422609Y273978D01*
Y276395D01*
D02*
G37*
G36*
X433809Y281427D02*
X432817Y281297D01*
X431892Y280914D01*
X431099Y280305D01*
X430489Y279511D01*
X430106Y278587D01*
X429976Y277594D01*
X430106Y276603D01*
X430489Y275678D01*
X431099Y274884D01*
X431892Y274275D01*
X432817Y273892D01*
X433809Y273762D01*
X434801Y273892D01*
X435725Y274275D01*
X436519Y274884D01*
X437128Y275678D01*
X437511Y276603D01*
X437641Y277594D01*
X437511Y278587D01*
X437128Y279511D01*
X436519Y280305D01*
X435725Y280914D01*
X434801Y281297D01*
X433809Y281427D01*
D02*
G37*
G36*
X461387Y265544D02*
X460538Y265374D01*
X459817Y264893D01*
X459654Y264648D01*
X433427D01*
X433332Y264791D01*
X432611Y265272D01*
X431761Y265441D01*
X430912Y265272D01*
X430191Y264791D01*
X429710Y264070D01*
X429541Y263221D01*
X429710Y262371D01*
X430191Y261650D01*
X430912Y261169D01*
X431761Y261000D01*
X432611Y261169D01*
X433332Y261650D01*
X433564Y261997D01*
X459654D01*
X459817Y261753D01*
X460538Y261271D01*
X461387Y261102D01*
X462237Y261271D01*
X462958Y261753D01*
X463439Y262473D01*
X463608Y263323D01*
X463439Y264173D01*
X462958Y264893D01*
X462237Y265374D01*
X461387Y265544D01*
D02*
G37*
G36*
X501569Y241042D02*
X500435Y240893D01*
X499378Y240456D01*
X498471Y239759D01*
X497775Y238852D01*
X497337Y237795D01*
X497188Y236662D01*
X497337Y235528D01*
X497775Y234471D01*
X498471Y233564D01*
X499378Y232867D01*
X500435Y232430D01*
X501569Y232280D01*
X502702Y232430D01*
X503759Y232867D01*
X504666Y233564D01*
X505363Y234471D01*
X505800Y235528D01*
X505949Y236662D01*
X505800Y237795D01*
X505363Y238852D01*
X504666Y239759D01*
X503759Y240456D01*
X502702Y240893D01*
X501569Y241042D01*
D02*
G37*
G36*
X481568D02*
X480435Y240893D01*
X479378Y240456D01*
X478471Y239759D01*
X477774Y238852D01*
X477337Y237795D01*
X477188Y236662D01*
X477337Y235528D01*
X477774Y234471D01*
X478471Y233564D01*
X479378Y232867D01*
X480435Y232430D01*
X481568Y232280D01*
X482702Y232430D01*
X483759Y232867D01*
X484666Y233564D01*
X485363Y234471D01*
X485800Y235528D01*
X485950Y236662D01*
X485800Y237795D01*
X485363Y238852D01*
X484666Y239759D01*
X483759Y240456D01*
X482702Y240893D01*
X481568Y241042D01*
D02*
G37*
G36*
X376068D02*
X374935Y240893D01*
X373878Y240456D01*
X372971Y239759D01*
X372274Y238852D01*
X371837Y237795D01*
X371688Y236662D01*
X371837Y235528D01*
X372274Y234471D01*
X372971Y233564D01*
X373878Y232867D01*
X374935Y232430D01*
X376068Y232280D01*
X377202Y232430D01*
X378259Y232867D01*
X379166Y233564D01*
X379863Y234471D01*
X380300Y235528D01*
X380450Y236662D01*
X380300Y237795D01*
X379863Y238852D01*
X379166Y239759D01*
X378259Y240456D01*
X377202Y240893D01*
X376068Y241042D01*
D02*
G37*
G36*
X356068D02*
X354935Y240893D01*
X353878Y240456D01*
X352971Y239759D01*
X352274Y238852D01*
X351837Y237795D01*
X351688Y236662D01*
X351837Y235528D01*
X352274Y234471D01*
X352971Y233564D01*
X353878Y232867D01*
X354935Y232430D01*
X356068Y232280D01*
X357202Y232430D01*
X358259Y232867D01*
X359166Y233564D01*
X359863Y234471D01*
X360300Y235528D01*
X360450Y236662D01*
X360300Y237795D01*
X359863Y238852D01*
X359166Y239759D01*
X358259Y240456D01*
X357202Y240893D01*
X356068Y241042D01*
D02*
G37*
G36*
X336069D02*
X334935Y240893D01*
X333878Y240456D01*
X332971Y239759D01*
X332275Y238852D01*
X331837Y237795D01*
X331688Y236662D01*
X331837Y235528D01*
X332275Y234471D01*
X332971Y233564D01*
X333878Y232867D01*
X334935Y232430D01*
X336069Y232280D01*
X337202Y232430D01*
X338259Y232867D01*
X339166Y233564D01*
X339863Y234471D01*
X340300Y235528D01*
X340450Y236662D01*
X340300Y237795D01*
X339863Y238852D01*
X339166Y239759D01*
X338259Y240456D01*
X337202Y240893D01*
X336069Y241042D01*
D02*
G37*
G36*
X407454Y221252D02*
X406605Y221083D01*
X405884Y220602D01*
X405403Y219881D01*
X405234Y219032D01*
X405291Y218743D01*
X394899Y208351D01*
X394612Y207921D01*
X394511Y207413D01*
Y127848D01*
X385549Y118886D01*
X385261Y118456D01*
X385160Y117949D01*
Y106001D01*
X384916Y105838D01*
X384434Y105117D01*
X384265Y104268D01*
X384434Y103418D01*
X384916Y102698D01*
X385636Y102216D01*
X386486Y102047D01*
X387336Y102216D01*
X388056Y102698D01*
X388537Y103418D01*
X388706Y104268D01*
X388537Y105117D01*
X388056Y105838D01*
X387811Y106001D01*
Y117400D01*
X396774Y126362D01*
X397061Y126792D01*
X397162Y127299D01*
Y206864D01*
X407166Y216868D01*
X407454Y216811D01*
X408304Y216980D01*
X409025Y217461D01*
X409506Y218182D01*
X409675Y219032D01*
X409506Y219881D01*
X409025Y220602D01*
X408304Y221083D01*
X407454Y221252D01*
D02*
G37*
G36*
X523402Y214990D02*
Y211459D01*
X526932D01*
X526849Y212090D01*
X526451Y213051D01*
X525818Y213876D01*
X524993Y214509D01*
X524033Y214907D01*
X523402Y214990D01*
D02*
G37*
G36*
X513559D02*
Y211459D01*
X517090D01*
X517007Y212090D01*
X516609Y213051D01*
X515976Y213876D01*
X515151Y214509D01*
X514190Y214907D01*
X513559Y214990D01*
D02*
G37*
G36*
X533244D02*
Y211459D01*
X536775D01*
X536692Y212090D01*
X536294Y213051D01*
X535661Y213876D01*
X534836Y214509D01*
X533875Y214907D01*
X533244Y214990D01*
D02*
G37*
G36*
X532444D02*
X531813Y214907D01*
X530852Y214509D01*
X530027Y213876D01*
X529394Y213051D01*
X528996Y212090D01*
X528913Y211459D01*
X532444D01*
Y214990D01*
D02*
G37*
G36*
X512759D02*
X512128Y214907D01*
X511167Y214509D01*
X510342Y213876D01*
X509709Y213051D01*
X509311Y212090D01*
X509228Y211459D01*
X512759D01*
Y214990D01*
D02*
G37*
G36*
X522602D02*
X521971Y214907D01*
X521010Y214509D01*
X520185Y213876D01*
X519552Y213051D01*
X519154Y212090D01*
X519071Y211459D01*
X522602D01*
Y214990D01*
D02*
G37*
G36*
X526932Y210659D02*
X523402D01*
Y207128D01*
X524033Y207211D01*
X524993Y207609D01*
X525818Y208242D01*
X526451Y209067D01*
X526849Y210028D01*
X526932Y210659D01*
D02*
G37*
G36*
X517090D02*
X513559D01*
Y207128D01*
X514190Y207211D01*
X515151Y207609D01*
X515976Y208242D01*
X516609Y209067D01*
X517007Y210028D01*
X517090Y210659D01*
D02*
G37*
G36*
X536775D02*
X533244D01*
Y207128D01*
X533875Y207211D01*
X534836Y207609D01*
X535661Y208242D01*
X536294Y209067D01*
X536692Y210028D01*
X536775Y210659D01*
D02*
G37*
G36*
X532444D02*
X528913D01*
X528996Y210028D01*
X529394Y209067D01*
X530027Y208242D01*
X530852Y207609D01*
X531813Y207211D01*
X532444Y207128D01*
Y210659D01*
D02*
G37*
G36*
X522602D02*
X519071D01*
X519154Y210028D01*
X519552Y209067D01*
X520185Y208242D01*
X521010Y207609D01*
X521971Y207211D01*
X522602Y207128D01*
Y210659D01*
D02*
G37*
G36*
X512759D02*
X509228D01*
X509311Y210028D01*
X509709Y209067D01*
X510342Y208242D01*
X511167Y207609D01*
X512128Y207211D01*
X512759Y207128D01*
Y210659D01*
D02*
G37*
G36*
X351001Y215285D02*
X350006Y215087D01*
X349163Y214524D01*
X348599Y213680D01*
X348401Y212685D01*
X348599Y211690D01*
X349163Y210847D01*
X350006Y210283D01*
X350647Y210156D01*
X358469Y202334D01*
X359131Y201892D01*
X359911Y201736D01*
X385440D01*
X385983Y201374D01*
X386978Y201176D01*
X387973Y201374D01*
X388816Y201937D01*
X389380Y202781D01*
X389578Y203776D01*
X389380Y204771D01*
X388816Y205614D01*
X387973Y206178D01*
X386978Y206376D01*
X385983Y206178D01*
X385440Y205815D01*
X360756D01*
X353531Y213040D01*
X353403Y213680D01*
X352840Y214524D01*
X351996Y215087D01*
X351001Y215285D01*
D02*
G37*
G36*
X532844Y202444D02*
X531813Y202309D01*
X530852Y201910D01*
X530027Y201277D01*
X529394Y200452D01*
X528996Y199492D01*
X528861Y198461D01*
X528996Y197430D01*
X529394Y196469D01*
X530027Y195644D01*
X530852Y195011D01*
X531813Y194613D01*
X532844Y194477D01*
X533875Y194613D01*
X534836Y195011D01*
X535661Y195644D01*
X536294Y196469D01*
X536692Y197430D01*
X536828Y198461D01*
X536692Y199492D01*
X536294Y200452D01*
X535661Y201277D01*
X534836Y201910D01*
X533875Y202309D01*
X532844Y202444D01*
D02*
G37*
G36*
X513159D02*
X512128Y202309D01*
X511167Y201910D01*
X510342Y201277D01*
X509709Y200452D01*
X509311Y199492D01*
X509175Y198461D01*
X509311Y197430D01*
X509709Y196469D01*
X510342Y195644D01*
X511167Y195011D01*
X512128Y194613D01*
X513159Y194477D01*
X514190Y194613D01*
X515151Y195011D01*
X515976Y195644D01*
X516609Y196469D01*
X517007Y197430D01*
X517143Y198461D01*
X517007Y199492D01*
X516609Y200452D01*
X515976Y201277D01*
X515151Y201910D01*
X514190Y202309D01*
X513159Y202444D01*
D02*
G37*
G36*
X523002D02*
X521971Y202309D01*
X521010Y201910D01*
X520185Y201277D01*
X519552Y200452D01*
X519154Y199492D01*
X519018Y198461D01*
X519154Y197430D01*
X519552Y196469D01*
X520185Y195644D01*
X521010Y195011D01*
X521971Y194613D01*
X523002Y194477D01*
X524033Y194613D01*
X524699Y194889D01*
X534814Y184774D01*
X534757Y184485D01*
X534926Y183635D01*
X535407Y182915D01*
X536128Y182433D01*
X536977Y182264D01*
X537827Y182433D01*
X538548Y182915D01*
X539029Y183635D01*
X539198Y184485D01*
X539029Y185335D01*
X538548Y186055D01*
X537827Y186536D01*
X536977Y186705D01*
X536689Y186648D01*
X526573Y196763D01*
X526849Y197430D01*
X526985Y198461D01*
X526849Y199492D01*
X526451Y200452D01*
X525818Y201277D01*
X524993Y201910D01*
X524033Y202309D01*
X523002Y202444D01*
D02*
G37*
G36*
X497706Y198417D02*
X496856Y198249D01*
X496136Y197767D01*
X495655Y197047D01*
X495486Y196197D01*
X495655Y195347D01*
X496136Y194627D01*
X496381Y194463D01*
Y185415D01*
X496136Y185252D01*
X495655Y184531D01*
X495486Y183681D01*
X495655Y182832D01*
X496136Y182111D01*
X496856Y181630D01*
X497706Y181461D01*
X498556Y181630D01*
X499277Y182111D01*
X499758Y182832D01*
X499927Y183681D01*
X499758Y184531D01*
X499277Y185252D01*
X499032Y185415D01*
Y194463D01*
X499277Y194627D01*
X499758Y195347D01*
X499927Y196197D01*
X499758Y197047D01*
X499277Y197767D01*
X498556Y198249D01*
X497706Y198417D01*
D02*
G37*
G36*
X371827Y176566D02*
Y173035D01*
X375358D01*
X375275Y173666D01*
X374877Y174627D01*
X374244Y175452D01*
X373419Y176085D01*
X372458Y176483D01*
X371827Y176566D01*
D02*
G37*
G36*
X371027D02*
X370396Y176483D01*
X369435Y176085D01*
X368610Y175452D01*
X367977Y174627D01*
X367579Y173666D01*
X367496Y173035D01*
X371027D01*
Y176566D01*
D02*
G37*
G36*
X347129Y180502D02*
X339623D01*
Y172996D01*
X347129D01*
Y180502D01*
D02*
G37*
G36*
X358533Y180535D02*
X357553Y180406D01*
X356640Y180028D01*
X355856Y179426D01*
X355255Y178642D01*
X354877Y177729D01*
X354748Y176750D01*
X354877Y175770D01*
X355255Y174857D01*
X355856Y174073D01*
X356640Y173471D01*
X357553Y173093D01*
X358533Y172964D01*
X359513Y173093D01*
X360426Y173471D01*
X361210Y174073D01*
X361811Y174857D01*
X362190Y175770D01*
X362318Y176750D01*
X362190Y177729D01*
X361811Y178642D01*
X361210Y179426D01*
X360426Y180028D01*
X359513Y180406D01*
X358533Y180535D01*
D02*
G37*
G36*
X521568Y241042D02*
X520435Y240893D01*
X519378Y240456D01*
X518471Y239759D01*
X517774Y238852D01*
X517337Y237795D01*
X517188Y236662D01*
X517337Y235528D01*
X517774Y234471D01*
X518471Y233564D01*
X519378Y232867D01*
X519391Y232862D01*
X519453Y232343D01*
X465753Y178643D01*
X465310Y177981D01*
X465155Y177201D01*
Y176202D01*
X464792Y175659D01*
X464595Y174664D01*
X464792Y173669D01*
X465356Y172826D01*
X466199Y172262D01*
X467195Y172064D01*
X468189Y172262D01*
X469033Y172826D01*
X469597Y173669D01*
X469795Y174664D01*
X469597Y175659D01*
X469234Y176202D01*
Y176356D01*
X523010Y230133D01*
X523453Y230795D01*
X523608Y231575D01*
X523608Y231575D01*
Y232805D01*
X523759Y232867D01*
X524666Y233564D01*
X525363Y234471D01*
X525800Y235528D01*
X525949Y236662D01*
X525800Y237795D01*
X525363Y238852D01*
X524666Y239759D01*
X523759Y240456D01*
X522702Y240893D01*
X521568Y241042D01*
D02*
G37*
G36*
X375358Y172235D02*
X371827D01*
Y168704D01*
X372458Y168788D01*
X373419Y169185D01*
X374244Y169819D01*
X374877Y170644D01*
X375275Y171604D01*
X375358Y172235D01*
D02*
G37*
G36*
X371027D02*
X367496D01*
X367579Y171604D01*
X367977Y170644D01*
X368610Y169819D01*
X369435Y169185D01*
X370396Y168788D01*
X371027Y168704D01*
Y172235D01*
D02*
G37*
G36*
X384025Y176619D02*
X382994Y176483D01*
X382033Y176085D01*
X381208Y175452D01*
X380575Y174627D01*
X380177Y173666D01*
X380042Y172635D01*
X380177Y171604D01*
X380575Y170644D01*
X381208Y169819D01*
X382033Y169185D01*
X382994Y168788D01*
X384025Y168652D01*
X385056Y168788D01*
X386017Y169185D01*
X386842Y169819D01*
X387475Y170644D01*
X387873Y171604D01*
X388009Y172635D01*
X387873Y173666D01*
X387475Y174627D01*
X386842Y175452D01*
X386017Y176085D01*
X385056Y176483D01*
X384025Y176619D01*
D02*
G37*
G36*
X371827Y166724D02*
Y163193D01*
X375358D01*
X375275Y163824D01*
X374877Y164785D01*
X374244Y165610D01*
X373419Y166243D01*
X372458Y166641D01*
X371827Y166724D01*
D02*
G37*
G36*
X371027D02*
X370396Y166641D01*
X369435Y166243D01*
X368610Y165610D01*
X367977Y164785D01*
X367579Y163824D01*
X367496Y163193D01*
X371027D01*
Y166724D01*
D02*
G37*
G36*
X362286Y170502D02*
X354780D01*
Y162996D01*
X362286D01*
Y170502D01*
D02*
G37*
G36*
X343376Y170535D02*
X342396Y170406D01*
X341483Y170028D01*
X340699Y169426D01*
X340097Y168642D01*
X339719Y167729D01*
X339590Y166750D01*
X339719Y165770D01*
X340097Y164857D01*
X340699Y164073D01*
X341483Y163471D01*
X342396Y163093D01*
X343376Y162964D01*
X344355Y163093D01*
X345268Y163471D01*
X346052Y164073D01*
X346654Y164857D01*
X347032Y165770D01*
X347161Y166750D01*
X347032Y167729D01*
X346654Y168642D01*
X346052Y169426D01*
X345268Y170028D01*
X344355Y170406D01*
X343376Y170535D01*
D02*
G37*
G36*
X371027Y162393D02*
X367496D01*
X367579Y161762D01*
X367977Y160801D01*
X368610Y159976D01*
X369435Y159343D01*
X370396Y158945D01*
X371027Y158862D01*
Y162393D01*
D02*
G37*
G36*
X375358D02*
X371827D01*
Y158862D01*
X372458Y158945D01*
X373419Y159343D01*
X374244Y159976D01*
X374877Y160801D01*
X375275Y161762D01*
X375358Y162393D01*
D02*
G37*
G36*
X384025Y166776D02*
X382994Y166641D01*
X382033Y166243D01*
X381208Y165610D01*
X380575Y164785D01*
X380177Y163824D01*
X380042Y162793D01*
X380177Y161762D01*
X380575Y160801D01*
X381208Y159976D01*
X382033Y159343D01*
X382994Y158945D01*
X384025Y158809D01*
X385056Y158945D01*
X386017Y159343D01*
X386842Y159976D01*
X387475Y160801D01*
X387873Y161762D01*
X388009Y162793D01*
X387873Y163824D01*
X387475Y164785D01*
X386842Y165610D01*
X386017Y166243D01*
X385056Y166641D01*
X384025Y166776D01*
D02*
G37*
G36*
X343919Y160935D02*
X337596D01*
Y154611D01*
X343919D01*
Y160935D01*
D02*
G37*
G36*
X360757Y160962D02*
X359932Y160854D01*
X359163Y160535D01*
X358502Y160028D01*
X357996Y159368D01*
X357677Y158599D01*
X357568Y157773D01*
X357677Y156948D01*
X357996Y156178D01*
X358502Y155518D01*
X359163Y155011D01*
X359932Y154693D01*
X360757Y154584D01*
X361583Y154693D01*
X362352Y155011D01*
X363013Y155518D01*
X363520Y156178D01*
X363838Y156948D01*
X363947Y157773D01*
X363838Y158599D01*
X363520Y159368D01*
X363013Y160028D01*
X362352Y160535D01*
X361583Y160854D01*
X360757Y160962D01*
D02*
G37*
G36*
X371827Y156881D02*
Y153350D01*
X375358D01*
X375275Y153981D01*
X374877Y154942D01*
X374244Y155767D01*
X373419Y156400D01*
X372458Y156798D01*
X371827Y156881D01*
D02*
G37*
G36*
X371027D02*
X370396Y156798D01*
X369435Y156400D01*
X368610Y155767D01*
X367977Y154942D01*
X367579Y153981D01*
X367496Y153350D01*
X371027D01*
Y156881D01*
D02*
G37*
G36*
Y152550D02*
X367496D01*
X367579Y151919D01*
X367977Y150959D01*
X368610Y150134D01*
X369435Y149500D01*
X370396Y149102D01*
X371027Y149019D01*
Y152550D01*
D02*
G37*
G36*
X375358D02*
X371827D01*
Y149019D01*
X372458Y149102D01*
X373419Y149500D01*
X374244Y150134D01*
X374877Y150959D01*
X375275Y151919D01*
X375358Y152550D01*
D02*
G37*
G36*
X384025Y156934D02*
X382994Y156798D01*
X382033Y156400D01*
X381208Y155767D01*
X380575Y154942D01*
X380177Y153981D01*
X380042Y152950D01*
X380177Y151919D01*
X380575Y150959D01*
X381208Y150134D01*
X382033Y149500D01*
X382994Y149102D01*
X384025Y148967D01*
X385056Y149102D01*
X386017Y149500D01*
X386842Y150134D01*
X387475Y150959D01*
X387873Y151919D01*
X388009Y152950D01*
X387873Y153981D01*
X387475Y154942D01*
X386842Y155767D01*
X386017Y156400D01*
X385056Y156798D01*
X384025Y156934D01*
D02*
G37*
G36*
X363919Y151782D02*
X357595D01*
Y145458D01*
X363919D01*
Y151782D01*
D02*
G37*
G36*
X340757Y151809D02*
X339932Y151700D01*
X339163Y151382D01*
X338502Y150875D01*
X337996Y150214D01*
X337677Y149445D01*
X337568Y148620D01*
X337677Y147794D01*
X337996Y147025D01*
X338502Y146364D01*
X339163Y145858D01*
X339932Y145539D01*
X340757Y145430D01*
X341583Y145539D01*
X342352Y145858D01*
X343013Y146364D01*
X343519Y147025D01*
X343838Y147794D01*
X343947Y148620D01*
X343838Y149445D01*
X343519Y150214D01*
X343013Y150875D01*
X342352Y151382D01*
X341583Y151700D01*
X340757Y151809D01*
D02*
G37*
G36*
X474773Y162689D02*
X473923Y162520D01*
X473203Y162039D01*
X472722Y161318D01*
X472553Y160468D01*
X472722Y159619D01*
X473203Y158898D01*
X473448Y158735D01*
Y149334D01*
X473549Y148827D01*
X473836Y148397D01*
X476166Y146067D01*
X476109Y145778D01*
X476278Y144928D01*
X476759Y144208D01*
X477479Y143726D01*
X478329Y143557D01*
X479179Y143726D01*
X479899Y144208D01*
X480381Y144928D01*
X480550Y145778D01*
X480381Y146628D01*
X479899Y147348D01*
X479179Y147830D01*
X478329Y147999D01*
X478041Y147941D01*
X476099Y149883D01*
Y158735D01*
X476343Y158898D01*
X476825Y159619D01*
X476994Y160468D01*
X476825Y161318D01*
X476343Y162039D01*
X475623Y162520D01*
X474773Y162689D01*
D02*
G37*
G36*
X454596Y182655D02*
X453601Y182457D01*
X452758Y181894D01*
X452194Y181050D01*
X451996Y180055D01*
X452194Y179060D01*
X452557Y178517D01*
Y158473D01*
X452194Y157929D01*
X451996Y156934D01*
X452194Y155939D01*
X452557Y155396D01*
Y134721D01*
X452194Y134178D01*
X451996Y133183D01*
X452194Y132188D01*
X452758Y131344D01*
X453601Y130781D01*
X454596Y130583D01*
X455591Y130781D01*
X456434Y131344D01*
X456998Y132188D01*
X457196Y133183D01*
X456998Y134178D01*
X456635Y134721D01*
Y155396D01*
X456998Y155939D01*
X457196Y156934D01*
X456998Y157929D01*
X456635Y158473D01*
Y178517D01*
X456998Y179060D01*
X457196Y180055D01*
X456998Y181050D01*
X456434Y181894D01*
X455591Y182457D01*
X454596Y182655D01*
D02*
G37*
G36*
X382792Y126469D02*
X381943Y126300D01*
X381222Y125818D01*
X381059Y125574D01*
X363712D01*
X363548Y125818D01*
X362828Y126300D01*
X361978Y126469D01*
X361128Y126300D01*
X360408Y125818D01*
X359926Y125098D01*
X359757Y124248D01*
X359926Y123398D01*
X360408Y122678D01*
X361128Y122196D01*
X361978Y122027D01*
X362828Y122196D01*
X363548Y122678D01*
X363712Y122923D01*
X381059D01*
X381222Y122678D01*
X381943Y122196D01*
X382792Y122027D01*
X383642Y122196D01*
X384363Y122678D01*
X384844Y123398D01*
X385013Y124248D01*
X384844Y125098D01*
X384363Y125818D01*
X383642Y126300D01*
X382792Y126469D01*
D02*
G37*
G36*
X502332Y163870D02*
X501482Y163701D01*
X500762Y163220D01*
X500281Y162499D01*
X500112Y161650D01*
X500281Y160800D01*
X500762Y160079D01*
X501007Y159916D01*
Y157735D01*
X471888Y128617D01*
X439198D01*
X438691Y128516D01*
X438261Y128228D01*
X431067Y121035D01*
X430202Y121393D01*
X429069Y121542D01*
X427935Y121393D01*
X426878Y120956D01*
X425971Y120259D01*
X425275Y119352D01*
X424837Y118295D01*
X424688Y117161D01*
X424837Y116028D01*
X425275Y114971D01*
X425971Y114064D01*
X426878Y113367D01*
X427935Y112930D01*
X429069Y112780D01*
X430202Y112930D01*
X431259Y113367D01*
X432166Y114064D01*
X432863Y114971D01*
X433300Y116028D01*
X433450Y117161D01*
X433300Y118295D01*
X432942Y119160D01*
X439747Y125966D01*
X472437D01*
X472945Y126067D01*
X473375Y126354D01*
X503270Y156249D01*
X503557Y156679D01*
X503658Y157186D01*
Y159916D01*
X503902Y160079D01*
X504384Y160800D01*
X504553Y161650D01*
X504384Y162499D01*
X503902Y163220D01*
X503182Y163701D01*
X502332Y163870D01*
D02*
G37*
G36*
X356068Y121542D02*
X354935Y121393D01*
X353878Y120956D01*
X352971Y120259D01*
X352274Y119352D01*
X351916Y118487D01*
X340221D01*
X339863Y119352D01*
X339166Y120259D01*
X338259Y120956D01*
X337202Y121393D01*
X336069Y121542D01*
X334935Y121393D01*
X333878Y120956D01*
X332971Y120259D01*
X332275Y119352D01*
X331837Y118295D01*
X331688Y117161D01*
X331837Y116028D01*
X332275Y114971D01*
X332971Y114064D01*
X333878Y113367D01*
X334935Y112930D01*
X336069Y112780D01*
X337202Y112930D01*
X338259Y113367D01*
X339166Y114064D01*
X339863Y114971D01*
X340221Y115836D01*
X351916D01*
X352274Y114971D01*
X352971Y114064D01*
X353878Y113367D01*
X354935Y112930D01*
X356068Y112780D01*
X357202Y112930D01*
X358259Y113367D01*
X359166Y114064D01*
X359863Y114971D01*
X360300Y116028D01*
X360450Y117161D01*
X360300Y118295D01*
X359863Y119352D01*
X359166Y120259D01*
X358259Y120956D01*
X357202Y121393D01*
X356068Y121542D01*
D02*
G37*
G36*
X487175Y127693D02*
X486325Y127524D01*
X485605Y127043D01*
X485123Y126322D01*
X484954Y125473D01*
X485123Y124623D01*
X485605Y123902D01*
X486325Y123421D01*
X487175Y123252D01*
X488025Y123421D01*
X488745Y123902D01*
X488908Y124147D01*
X512708D01*
X517695Y119160D01*
X517337Y118295D01*
X517188Y117161D01*
X517337Y116028D01*
X517774Y114971D01*
X518471Y114064D01*
X519378Y113367D01*
X520435Y112930D01*
X521568Y112780D01*
X522702Y112930D01*
X523759Y113367D01*
X524666Y114064D01*
X525363Y114971D01*
X525800Y116028D01*
X525949Y117161D01*
X525800Y118295D01*
X525363Y119352D01*
X524666Y120259D01*
X523759Y120956D01*
X522702Y121393D01*
X521568Y121542D01*
X520435Y121393D01*
X519570Y121035D01*
X514195Y126410D01*
X513765Y126697D01*
X513257Y126798D01*
X488908D01*
X488745Y127043D01*
X488025Y127524D01*
X487175Y127693D01*
D02*
G37*
G36*
X501569Y121542D02*
X500435Y121393D01*
X499378Y120956D01*
X498471Y120259D01*
X497775Y119352D01*
X497337Y118295D01*
X497188Y117161D01*
X497337Y116028D01*
X497775Y114971D01*
X498471Y114064D01*
X499378Y113367D01*
X500435Y112930D01*
X501569Y112780D01*
X502702Y112930D01*
X503759Y113367D01*
X504666Y114064D01*
X505363Y114971D01*
X505800Y116028D01*
X505949Y117161D01*
X505800Y118295D01*
X505363Y119352D01*
X504666Y120259D01*
X503759Y120956D01*
X502702Y121393D01*
X501569Y121542D01*
D02*
G37*
G36*
X481568D02*
X480435Y121393D01*
X479378Y120956D01*
X478471Y120259D01*
X477774Y119352D01*
X477337Y118295D01*
X477188Y117161D01*
X477337Y116028D01*
X477774Y114971D01*
X478471Y114064D01*
X479378Y113367D01*
X480435Y112930D01*
X481568Y112780D01*
X482702Y112930D01*
X483759Y113367D01*
X484666Y114064D01*
X485363Y114971D01*
X485800Y116028D01*
X485950Y117161D01*
X485800Y118295D01*
X485363Y119352D01*
X484666Y120259D01*
X483759Y120956D01*
X482702Y121393D01*
X481568Y121542D01*
D02*
G37*
G36*
X449068D02*
X447935Y121393D01*
X446878Y120956D01*
X445971Y120259D01*
X445274Y119352D01*
X444837Y118295D01*
X444688Y117161D01*
X444837Y116028D01*
X445274Y114971D01*
X445971Y114064D01*
X446878Y113367D01*
X447935Y112930D01*
X449068Y112780D01*
X450202Y112930D01*
X451259Y113367D01*
X452166Y114064D01*
X452863Y114971D01*
X453300Y116028D01*
X453449Y117161D01*
X453300Y118295D01*
X452863Y119352D01*
X452166Y120259D01*
X451259Y120956D01*
X450202Y121393D01*
X449068Y121542D01*
D02*
G37*
G36*
X409068D02*
X407935Y121393D01*
X406878Y120956D01*
X405971Y120259D01*
X405274Y119352D01*
X404837Y118295D01*
X404688Y117161D01*
X404837Y116028D01*
X405274Y114971D01*
X405971Y114064D01*
X406878Y113367D01*
X407935Y112930D01*
X409068Y112780D01*
X410202Y112930D01*
X411259Y113367D01*
X412166Y114064D01*
X412863Y114971D01*
X413300Y116028D01*
X413449Y117161D01*
X413300Y118295D01*
X412863Y119352D01*
X412166Y120259D01*
X411259Y120956D01*
X410202Y121393D01*
X409068Y121542D01*
D02*
G37*
G36*
X376068D02*
X374935Y121393D01*
X373878Y120956D01*
X372971Y120259D01*
X372274Y119352D01*
X371837Y118295D01*
X371688Y117161D01*
X371837Y116028D01*
X372274Y114971D01*
X372971Y114064D01*
X373878Y113367D01*
X374935Y112930D01*
X376068Y112780D01*
X377202Y112930D01*
X378259Y113367D01*
X379166Y114064D01*
X379863Y114971D01*
X380300Y116028D01*
X380450Y117161D01*
X380300Y118295D01*
X379863Y119352D01*
X379166Y120259D01*
X378259Y120956D01*
X377202Y121393D01*
X376068Y121542D01*
D02*
G37*
G36*
X412175Y225681D02*
X411325Y225512D01*
X410605Y225031D01*
X410123Y224310D01*
X409954Y223461D01*
X410123Y222611D01*
X410605Y221890D01*
X410849Y221727D01*
Y214364D01*
X402281Y205796D01*
X401994Y205365D01*
X401893Y204858D01*
Y124797D01*
X391000Y113904D01*
X390712Y113474D01*
X390612Y112967D01*
Y106357D01*
X390367Y106194D01*
X389885Y105473D01*
X389716Y104624D01*
X389885Y103774D01*
X390367Y103053D01*
X391087Y102572D01*
X391937Y102403D01*
X392787Y102572D01*
X393507Y103053D01*
X393989Y103774D01*
X394158Y104624D01*
X393989Y105473D01*
X393507Y106194D01*
X393263Y106357D01*
Y112418D01*
X404155Y123311D01*
X404443Y123741D01*
X404544Y124248D01*
Y204309D01*
X413112Y212878D01*
X413399Y213308D01*
X413500Y213815D01*
Y221727D01*
X413745Y221890D01*
X414226Y222611D01*
X414395Y223461D01*
X414226Y224310D01*
X413745Y225031D01*
X413025Y225512D01*
X412175Y225681D01*
D02*
G37*
G36*
X477568Y75651D02*
X476743Y75542D01*
X475974Y75224D01*
X475313Y74717D01*
X474806Y74057D01*
X474488Y73287D01*
X474379Y72462D01*
X474488Y71636D01*
X474806Y70867D01*
X475313Y70207D01*
X475974Y69700D01*
X476743Y69381D01*
X477568Y69273D01*
X478394Y69381D01*
X479163Y69700D01*
X479824Y70207D01*
X480331Y70867D01*
X480649Y71636D01*
X480758Y72462D01*
X480649Y73287D01*
X480331Y74057D01*
X479824Y74717D01*
X479163Y75224D01*
X478394Y75542D01*
X477568Y75651D01*
D02*
G37*
G36*
X470730Y65624D02*
X464406D01*
Y59300D01*
X470730D01*
Y65624D01*
D02*
G37*
G36*
X487569Y65651D02*
X486743Y65543D01*
X485974Y65224D01*
X485313Y64717D01*
X484806Y64056D01*
X484488Y63287D01*
X484379Y62462D01*
X484488Y61636D01*
X484806Y60867D01*
X485313Y60207D01*
X485974Y59700D01*
X486743Y59381D01*
X487569Y59273D01*
X488394Y59381D01*
X489163Y59700D01*
X489824Y60207D01*
X490331Y60867D01*
X490649Y61636D01*
X490758Y62462D01*
X490649Y63287D01*
X490331Y64056D01*
X489824Y64717D01*
X489163Y65224D01*
X488394Y65543D01*
X487569Y65651D01*
D02*
G37*
G36*
X515765Y61845D02*
Y58464D01*
X519145D01*
X519067Y59057D01*
X518684Y59981D01*
X518075Y60775D01*
X517282Y61384D01*
X516357Y61767D01*
X515765Y61845D01*
D02*
G37*
G36*
X514965D02*
X514373Y61767D01*
X513449Y61384D01*
X512655Y60775D01*
X512046Y59981D01*
X511663Y59057D01*
X511585Y58464D01*
X514965D01*
Y61845D01*
D02*
G37*
G36*
X352168Y61198D02*
Y57818D01*
X355549D01*
X355471Y58410D01*
X355088Y59334D01*
X354479Y60128D01*
X353685Y60737D01*
X352761Y61120D01*
X352168Y61198D01*
D02*
G37*
G36*
X351368D02*
X350777Y61120D01*
X349852Y60737D01*
X349058Y60128D01*
X348449Y59334D01*
X348066Y58410D01*
X347988Y57818D01*
X351368D01*
Y61198D01*
D02*
G37*
G36*
X433522Y59236D02*
Y55554D01*
X437205D01*
X437116Y56224D01*
X436703Y57221D01*
X436046Y58078D01*
X435190Y58735D01*
X434192Y59148D01*
X433522Y59236D01*
D02*
G37*
G36*
X432722D02*
X432052Y59148D01*
X431054Y58735D01*
X430198Y58078D01*
X429540Y57221D01*
X429127Y56224D01*
X429039Y55554D01*
X432722D01*
Y59236D01*
D02*
G37*
G36*
X514965Y57665D02*
X511585D01*
X511663Y57073D01*
X512046Y56148D01*
X512655Y55354D01*
X513449Y54745D01*
X514373Y54362D01*
X514965Y54284D01*
Y57665D01*
D02*
G37*
G36*
X519145D02*
X515765D01*
Y54284D01*
X516357Y54362D01*
X517282Y54745D01*
X518075Y55354D01*
X518684Y56148D01*
X519067Y57073D01*
X519145Y57665D01*
D02*
G37*
G36*
X505365Y61897D02*
X504373Y61767D01*
X503449Y61384D01*
X502655Y60775D01*
X502046Y59981D01*
X501663Y59057D01*
X501532Y58065D01*
X501663Y57073D01*
X502046Y56148D01*
X502655Y55354D01*
X503449Y54745D01*
X504373Y54362D01*
X505365Y54232D01*
X506357Y54362D01*
X507282Y54745D01*
X508075Y55354D01*
X508684Y56148D01*
X509067Y57073D01*
X509198Y58065D01*
X509067Y59057D01*
X508684Y59981D01*
X508075Y60775D01*
X507282Y61384D01*
X506357Y61767D01*
X505365Y61897D01*
D02*
G37*
G36*
X355549Y57018D02*
X352168D01*
Y53638D01*
X352761Y53716D01*
X353685Y54099D01*
X354479Y54708D01*
X355088Y55502D01*
X355471Y56426D01*
X355549Y57018D01*
D02*
G37*
G36*
X351368D02*
X347988D01*
X348066Y56426D01*
X348449Y55502D01*
X349058Y54708D01*
X349852Y54099D01*
X350777Y53716D01*
X351368Y53638D01*
Y57018D01*
D02*
G37*
G36*
X341769Y61251D02*
X340776Y61120D01*
X339852Y60737D01*
X339058Y60128D01*
X338449Y59334D01*
X338066Y58410D01*
X337936Y57418D01*
X338066Y56426D01*
X338449Y55502D01*
X339058Y54708D01*
X339852Y54099D01*
X340776Y53716D01*
X341769Y53585D01*
X342760Y53716D01*
X343685Y54099D01*
X344479Y54708D01*
X345088Y55502D01*
X345471Y56426D01*
X345601Y57418D01*
X345471Y58410D01*
X345088Y59334D01*
X344479Y60128D01*
X343685Y60737D01*
X342760Y61120D01*
X341769Y61251D01*
D02*
G37*
G36*
X437205Y54754D02*
X433522D01*
Y51071D01*
X434192Y51159D01*
X435190Y51572D01*
X436046Y52229D01*
X436703Y53086D01*
X437116Y54083D01*
X437205Y54754D01*
D02*
G37*
G36*
X432722D02*
X429039D01*
X429127Y54083D01*
X429540Y53086D01*
X430198Y52229D01*
X431054Y51572D01*
X432052Y51159D01*
X432722Y51071D01*
Y54754D01*
D02*
G37*
G36*
X423122Y59289D02*
X422052Y59148D01*
X421054Y58735D01*
X420198Y58078D01*
X419541Y57221D01*
X419127Y56224D01*
X418987Y55154D01*
X419127Y54083D01*
X419541Y53086D01*
X420198Y52229D01*
X421054Y51572D01*
X422052Y51159D01*
X423122Y51018D01*
X424192Y51159D01*
X425190Y51572D01*
X426046Y52229D01*
X426703Y53086D01*
X427116Y54083D01*
X427257Y55154D01*
X427116Y56224D01*
X426703Y57221D01*
X426046Y58078D01*
X425190Y58735D01*
X424192Y59148D01*
X423122Y59289D01*
D02*
G37*
G36*
X407746D02*
X406675Y59148D01*
X405678Y58735D01*
X404821Y58078D01*
X404164Y57221D01*
X403751Y56224D01*
X403610Y55154D01*
X403751Y54083D01*
X404164Y53086D01*
X404821Y52229D01*
X405678Y51572D01*
X406675Y51159D01*
X407746Y51018D01*
X408816Y51159D01*
X409813Y51572D01*
X410670Y52229D01*
X411327Y53086D01*
X411740Y54083D01*
X411881Y55154D01*
X411740Y56224D01*
X411327Y57221D01*
X410670Y58078D01*
X409813Y58735D01*
X408816Y59148D01*
X407746Y59289D01*
D02*
G37*
G36*
X397746D02*
X396675Y59148D01*
X395678Y58735D01*
X394822Y58078D01*
X394164Y57221D01*
X393751Y56224D01*
X393610Y55154D01*
X393751Y54083D01*
X394164Y53086D01*
X394822Y52229D01*
X395678Y51572D01*
X396675Y51159D01*
X397746Y51018D01*
X398816Y51159D01*
X399813Y51572D01*
X400670Y52229D01*
X401327Y53086D01*
X401740Y54083D01*
X401881Y55154D01*
X401740Y56224D01*
X401327Y57221D01*
X400670Y58078D01*
X399813Y58735D01*
X398816Y59148D01*
X397746Y59289D01*
D02*
G37*
G36*
X387746D02*
X386675Y59148D01*
X385678Y58735D01*
X384822Y58078D01*
X384164Y57221D01*
X383751Y56224D01*
X383610Y55154D01*
X383751Y54083D01*
X384164Y53086D01*
X384822Y52229D01*
X385678Y51572D01*
X386675Y51159D01*
X387746Y51018D01*
X388816Y51159D01*
X389813Y51572D01*
X390670Y52229D01*
X391327Y53086D01*
X391740Y54083D01*
X391881Y55154D01*
X391740Y56224D01*
X391327Y57221D01*
X390670Y58078D01*
X389813Y58735D01*
X388816Y59148D01*
X387746Y59289D01*
D02*
G37*
G36*
X377746D02*
X376675Y59148D01*
X375678Y58735D01*
X374821Y58078D01*
X374164Y57221D01*
X373751Y56224D01*
X373610Y55154D01*
X373751Y54083D01*
X374164Y53086D01*
X374821Y52229D01*
X375678Y51572D01*
X376675Y51159D01*
X377746Y51018D01*
X378816Y51159D01*
X379813Y51572D01*
X380670Y52229D01*
X381327Y53086D01*
X381740Y54083D01*
X381881Y55154D01*
X381740Y56224D01*
X381327Y57221D01*
X380670Y58078D01*
X379813Y58735D01*
X378816Y59148D01*
X377746Y59289D01*
D02*
G37*
G36*
X180009Y338185D02*
Y333662D01*
X184533D01*
X184416Y334549D01*
X183919Y335750D01*
X183128Y336780D01*
X182098Y337571D01*
X180897Y338069D01*
X180009Y338185D01*
D02*
G37*
G36*
X70790D02*
Y333662D01*
X75314D01*
X75197Y334549D01*
X74700Y335750D01*
X73909Y336780D01*
X72879Y337571D01*
X71679Y338069D01*
X70790Y338185D01*
D02*
G37*
G36*
X179209D02*
X178321Y338069D01*
X177121Y337571D01*
X176091Y336780D01*
X175300Y335750D01*
X174802Y334549D01*
X174686Y333662D01*
X179209D01*
Y338185D01*
D02*
G37*
G36*
X184533Y332861D02*
X180009D01*
Y328338D01*
X180897Y328454D01*
X182098Y328952D01*
X183128Y329743D01*
X183919Y330773D01*
X184416Y331973D01*
X184533Y332861D01*
D02*
G37*
G36*
X75314D02*
X70790D01*
Y328338D01*
X71679Y328454D01*
X72879Y328952D01*
X73909Y329743D01*
X74700Y330773D01*
X75197Y331973D01*
X75314Y332861D01*
D02*
G37*
G36*
X179209D02*
X174686D01*
X174802Y331973D01*
X175300Y330773D01*
X176091Y329743D01*
X177121Y328952D01*
X178321Y328454D01*
X179209Y328338D01*
Y332861D01*
D02*
G37*
G36*
X134288Y338238D02*
X133000Y338069D01*
X131800Y337571D01*
X130770Y336780D01*
X129979Y335750D01*
X129481Y334549D01*
X129312Y333261D01*
X129481Y331973D01*
X129979Y330773D01*
X130770Y329743D01*
X131800Y328952D01*
X133000Y328454D01*
X134288Y328285D01*
X135576Y328454D01*
X136777Y328952D01*
X137807Y329743D01*
X138598Y330773D01*
X139095Y331973D01*
X139265Y333261D01*
X139095Y334549D01*
X138598Y335750D01*
X137807Y336780D01*
X136777Y337571D01*
X135576Y338069D01*
X134288Y338238D01*
D02*
G37*
G36*
X243507Y313238D02*
X242219Y313069D01*
X241019Y312571D01*
X239988Y311780D01*
X239198Y310750D01*
X238700Y309549D01*
X238531Y308261D01*
X238700Y306973D01*
X239198Y305773D01*
X239988Y304743D01*
X241019Y303952D01*
X242219Y303454D01*
X243507Y303285D01*
X244795Y303454D01*
X245996Y303952D01*
X247026Y304743D01*
X247817Y305773D01*
X248314Y306973D01*
X248484Y308261D01*
X248314Y309549D01*
X247817Y310750D01*
X247026Y311780D01*
X245996Y312571D01*
X244795Y313069D01*
X243507Y313238D01*
D02*
G37*
G36*
X179609D02*
X178321Y313069D01*
X177121Y312571D01*
X176091Y311780D01*
X175300Y310750D01*
X174802Y309549D01*
X174633Y308261D01*
X174802Y306973D01*
X175300Y305773D01*
X176091Y304743D01*
X177121Y303952D01*
X178321Y303454D01*
X179609Y303285D01*
X180897Y303454D01*
X182098Y303952D01*
X183128Y304743D01*
X183919Y305773D01*
X184416Y306973D01*
X184586Y308261D01*
X184416Y309549D01*
X183919Y310750D01*
X183128Y311780D01*
X182098Y312571D01*
X180897Y313069D01*
X179609Y313238D01*
D02*
G37*
G36*
X134288D02*
X133000Y313069D01*
X131800Y312571D01*
X130770Y311780D01*
X129979Y310750D01*
X129481Y309549D01*
X129312Y308261D01*
X129481Y306973D01*
X129979Y305773D01*
X130770Y304743D01*
X131800Y303952D01*
X133000Y303454D01*
X134288Y303285D01*
X135576Y303454D01*
X136777Y303952D01*
X137807Y304743D01*
X138598Y305773D01*
X139095Y306973D01*
X139265Y308261D01*
X139095Y309549D01*
X138598Y310750D01*
X137807Y311780D01*
X136777Y312571D01*
X135576Y313069D01*
X134288Y313238D01*
D02*
G37*
G36*
X70390D02*
X69102Y313069D01*
X67902Y312571D01*
X66872Y311780D01*
X66081Y310750D01*
X65583Y309549D01*
X65414Y308261D01*
X65583Y306973D01*
X66081Y305773D01*
X66872Y304743D01*
X67902Y303952D01*
X69102Y303454D01*
X70390Y303285D01*
X71679Y303454D01*
X72879Y303952D01*
X73909Y304743D01*
X74700Y305773D01*
X75197Y306973D01*
X75367Y308261D01*
X75197Y309549D01*
X74700Y310750D01*
X73909Y311780D01*
X72879Y312571D01*
X71679Y313069D01*
X70390Y313238D01*
D02*
G37*
G36*
X153139Y281211D02*
Y278795D01*
X155555D01*
X155258Y279511D01*
X154649Y280305D01*
X153855Y280914D01*
X153139Y281211D01*
D02*
G37*
G36*
X150739Y281211D02*
X150022Y280914D01*
X149228Y280305D01*
X148619Y279511D01*
X148323Y278795D01*
X150739D01*
Y281211D01*
D02*
G37*
G36*
X243507Y288238D02*
X242219Y288069D01*
X241019Y287571D01*
X239988Y286780D01*
X239198Y285750D01*
X238700Y284549D01*
X238531Y283261D01*
X238700Y281973D01*
X239198Y280773D01*
X239988Y279743D01*
X241019Y278952D01*
X242219Y278454D01*
X243507Y278285D01*
X244795Y278454D01*
X245996Y278952D01*
X247026Y279743D01*
X247817Y280773D01*
X248314Y281973D01*
X248484Y283261D01*
X248314Y284549D01*
X247817Y285750D01*
X247026Y286780D01*
X245996Y287571D01*
X244795Y288069D01*
X243507Y288238D01*
D02*
G37*
G36*
X179609D02*
X178321Y288069D01*
X177121Y287571D01*
X176091Y286780D01*
X175300Y285750D01*
X174802Y284549D01*
X174633Y283261D01*
X174802Y281973D01*
X175284Y280811D01*
X164439Y269965D01*
X164202Y269918D01*
X163482Y269437D01*
X163001Y268717D01*
X162831Y267867D01*
X163001Y267017D01*
X163482Y266297D01*
X164202Y265815D01*
X165052Y265646D01*
X165902Y265815D01*
X166622Y266297D01*
X167104Y267017D01*
X167273Y267867D01*
X167104Y268717D01*
X167038Y268815D01*
X177159Y278936D01*
X178321Y278454D01*
X179609Y278285D01*
X180897Y278454D01*
X182098Y278952D01*
X183128Y279743D01*
X183919Y280773D01*
X184416Y281973D01*
X184586Y283261D01*
X184416Y284549D01*
X183919Y285750D01*
X183128Y286780D01*
X182098Y287571D01*
X180897Y288069D01*
X179609Y288238D01*
D02*
G37*
G36*
X134288D02*
X133000Y288069D01*
X131800Y287571D01*
X130770Y286780D01*
X129979Y285750D01*
X129481Y284549D01*
X129312Y283261D01*
X129481Y281973D01*
X129979Y280773D01*
X130770Y279743D01*
X131800Y278952D01*
X133000Y278454D01*
X134288Y278285D01*
X135576Y278454D01*
X136777Y278952D01*
X137807Y279743D01*
X138598Y280773D01*
X139095Y281973D01*
X139265Y283261D01*
X139095Y284549D01*
X138598Y285750D01*
X137807Y286780D01*
X136777Y287571D01*
X135576Y288069D01*
X134288Y288238D01*
D02*
G37*
G36*
X70390D02*
X69102Y288069D01*
X67902Y287571D01*
X66872Y286780D01*
X66081Y285750D01*
X65583Y284549D01*
X65414Y283261D01*
X65583Y281973D01*
X66081Y280773D01*
X66872Y279743D01*
X67902Y278952D01*
X69102Y278454D01*
X70390Y278285D01*
X71679Y278454D01*
X72879Y278952D01*
X73909Y279743D01*
X74700Y280773D01*
X75197Y281973D01*
X75367Y283261D01*
X75197Y284549D01*
X74700Y285750D01*
X73909Y286780D01*
X72879Y287571D01*
X71679Y288069D01*
X70390Y288238D01*
D02*
G37*
G36*
X155555Y276395D02*
X153139D01*
Y273978D01*
X153855Y274275D01*
X154649Y274884D01*
X155258Y275678D01*
X155555Y276395D01*
D02*
G37*
G36*
X150739D02*
X148323D01*
X148619Y275678D01*
X149228Y274884D01*
X150022Y274275D01*
X150739Y273978D01*
Y276395D01*
D02*
G37*
G36*
X161939Y281427D02*
X160947Y281297D01*
X160022Y280914D01*
X159228Y280305D01*
X158619Y279511D01*
X158236Y278587D01*
X158106Y277594D01*
X158236Y276603D01*
X158619Y275678D01*
X159228Y274884D01*
X160022Y274275D01*
X160947Y273892D01*
X161939Y273762D01*
X162931Y273892D01*
X163855Y274275D01*
X164649Y274884D01*
X165258Y275678D01*
X165641Y276603D01*
X165771Y277594D01*
X165641Y278587D01*
X165258Y279511D01*
X164649Y280305D01*
X163855Y280914D01*
X162931Y281297D01*
X161939Y281427D01*
D02*
G37*
G36*
X189517Y265544D02*
X188668Y265374D01*
X187947Y264893D01*
X187784Y264648D01*
X161557D01*
X161462Y264791D01*
X160741Y265272D01*
X159891Y265441D01*
X159042Y265272D01*
X158321Y264791D01*
X157840Y264070D01*
X157671Y263221D01*
X157840Y262371D01*
X158321Y261650D01*
X159042Y261169D01*
X159891Y261000D01*
X160741Y261169D01*
X161462Y261650D01*
X161694Y261997D01*
X187784D01*
X187947Y261753D01*
X188668Y261271D01*
X189517Y261102D01*
X190367Y261271D01*
X191087Y261753D01*
X191569Y262473D01*
X191738Y263323D01*
X191569Y264173D01*
X191087Y264893D01*
X190367Y265374D01*
X189517Y265544D01*
D02*
G37*
G36*
X229698Y241042D02*
X228565Y240893D01*
X227508Y240456D01*
X226601Y239759D01*
X225904Y238852D01*
X225467Y237795D01*
X225318Y236662D01*
X225467Y235528D01*
X225904Y234471D01*
X226601Y233564D01*
X227508Y232867D01*
X228565Y232430D01*
X229698Y232280D01*
X230832Y232430D01*
X231889Y232867D01*
X232796Y233564D01*
X233492Y234471D01*
X233930Y235528D01*
X234079Y236662D01*
X233930Y237795D01*
X233492Y238852D01*
X232796Y239759D01*
X231889Y240456D01*
X230832Y240893D01*
X229698Y241042D01*
D02*
G37*
G36*
X209698D02*
X208565Y240893D01*
X207508Y240456D01*
X206601Y239759D01*
X205904Y238852D01*
X205467Y237795D01*
X205317Y236662D01*
X205467Y235528D01*
X205904Y234471D01*
X206601Y233564D01*
X207508Y232867D01*
X208565Y232430D01*
X209698Y232280D01*
X210832Y232430D01*
X211889Y232867D01*
X212796Y233564D01*
X213492Y234471D01*
X213930Y235528D01*
X214079Y236662D01*
X213930Y237795D01*
X213492Y238852D01*
X212796Y239759D01*
X211889Y240456D01*
X210832Y240893D01*
X209698Y241042D01*
D02*
G37*
G36*
X104198D02*
X103065Y240893D01*
X102008Y240456D01*
X101101Y239759D01*
X100404Y238852D01*
X99967Y237795D01*
X99817Y236662D01*
X99967Y235528D01*
X100404Y234471D01*
X101101Y233564D01*
X102008Y232867D01*
X103065Y232430D01*
X104198Y232280D01*
X105332Y232430D01*
X106389Y232867D01*
X107296Y233564D01*
X107992Y234471D01*
X108430Y235528D01*
X108579Y236662D01*
X108430Y237795D01*
X107992Y238852D01*
X107296Y239759D01*
X106389Y240456D01*
X105332Y240893D01*
X104198Y241042D01*
D02*
G37*
G36*
X84198D02*
X83065Y240893D01*
X82008Y240456D01*
X81101Y239759D01*
X80404Y238852D01*
X79967Y237795D01*
X79817Y236662D01*
X79967Y235528D01*
X80404Y234471D01*
X81101Y233564D01*
X82008Y232867D01*
X83065Y232430D01*
X84198Y232280D01*
X85332Y232430D01*
X86389Y232867D01*
X87296Y233564D01*
X87993Y234471D01*
X88430Y235528D01*
X88579Y236662D01*
X88430Y237795D01*
X87993Y238852D01*
X87296Y239759D01*
X86389Y240456D01*
X85332Y240893D01*
X84198Y241042D01*
D02*
G37*
G36*
X64198D02*
X63064Y240893D01*
X62008Y240456D01*
X61101Y239759D01*
X60404Y238852D01*
X59967Y237795D01*
X59817Y236662D01*
X59967Y235528D01*
X60404Y234471D01*
X61101Y233564D01*
X62008Y232867D01*
X63064Y232430D01*
X64198Y232280D01*
X65332Y232430D01*
X66389Y232867D01*
X67296Y233564D01*
X67993Y234471D01*
X68430Y235528D01*
X68579Y236662D01*
X68430Y237795D01*
X67993Y238852D01*
X67296Y239759D01*
X66389Y240456D01*
X65332Y240893D01*
X64198Y241042D01*
D02*
G37*
G36*
X135584Y221252D02*
X134734Y221083D01*
X134014Y220602D01*
X133533Y219881D01*
X133364Y219032D01*
X133421Y218743D01*
X123029Y208351D01*
X122742Y207921D01*
X122641Y207413D01*
Y127848D01*
X113679Y118886D01*
X113391Y118456D01*
X113290Y117949D01*
Y106001D01*
X113046Y105838D01*
X112564Y105117D01*
X112395Y104268D01*
X112564Y103418D01*
X113046Y102698D01*
X113766Y102216D01*
X114616Y102047D01*
X115465Y102216D01*
X116186Y102698D01*
X116667Y103418D01*
X116836Y104268D01*
X116667Y105117D01*
X116186Y105838D01*
X115941Y106001D01*
Y117400D01*
X124903Y126362D01*
X125191Y126792D01*
X125292Y127299D01*
Y206864D01*
X135296Y216868D01*
X135584Y216811D01*
X136434Y216980D01*
X137154Y217461D01*
X137636Y218182D01*
X137805Y219032D01*
X137636Y219881D01*
X137154Y220602D01*
X136434Y221083D01*
X135584Y221252D01*
D02*
G37*
G36*
X251532Y214990D02*
Y211459D01*
X255062D01*
X254979Y212090D01*
X254581Y213051D01*
X253948Y213876D01*
X253123Y214509D01*
X252163Y214907D01*
X251532Y214990D01*
D02*
G37*
G36*
X241689D02*
Y211459D01*
X245220D01*
X245137Y212090D01*
X244739Y213051D01*
X244106Y213876D01*
X243281Y214509D01*
X242320Y214907D01*
X241689Y214990D01*
D02*
G37*
G36*
X261374D02*
Y211459D01*
X264905D01*
X264822Y212090D01*
X264424Y213051D01*
X263791Y213876D01*
X262966Y214509D01*
X262005Y214907D01*
X261374Y214990D01*
D02*
G37*
G36*
X260574D02*
X259943Y214907D01*
X258982Y214509D01*
X258157Y213876D01*
X257524Y213051D01*
X257126Y212090D01*
X257043Y211459D01*
X260574D01*
Y214990D01*
D02*
G37*
G36*
X240889D02*
X240258Y214907D01*
X239297Y214509D01*
X238472Y213876D01*
X237839Y213051D01*
X237441Y212090D01*
X237358Y211459D01*
X240889D01*
Y214990D01*
D02*
G37*
G36*
X250731D02*
X250100Y214907D01*
X249140Y214509D01*
X248315Y213876D01*
X247682Y213051D01*
X247284Y212090D01*
X247201Y211459D01*
X250731D01*
Y214990D01*
D02*
G37*
G36*
X255062Y210659D02*
X251532D01*
Y207128D01*
X252163Y207211D01*
X253123Y207609D01*
X253948Y208242D01*
X254581Y209067D01*
X254979Y210028D01*
X255062Y210659D01*
D02*
G37*
G36*
X245220D02*
X241689D01*
Y207128D01*
X242320Y207211D01*
X243281Y207609D01*
X244106Y208242D01*
X244739Y209067D01*
X245137Y210028D01*
X245220Y210659D01*
D02*
G37*
G36*
X264905D02*
X261374D01*
Y207128D01*
X262005Y207211D01*
X262966Y207609D01*
X263791Y208242D01*
X264424Y209067D01*
X264822Y210028D01*
X264905Y210659D01*
D02*
G37*
G36*
X260574D02*
X257043D01*
X257126Y210028D01*
X257524Y209067D01*
X258157Y208242D01*
X258982Y207609D01*
X259943Y207211D01*
X260574Y207128D01*
Y210659D01*
D02*
G37*
G36*
X250731D02*
X247201D01*
X247284Y210028D01*
X247682Y209067D01*
X248315Y208242D01*
X249140Y207609D01*
X250100Y207211D01*
X250731Y207128D01*
Y210659D01*
D02*
G37*
G36*
X240889D02*
X237358D01*
X237441Y210028D01*
X237839Y209067D01*
X238472Y208242D01*
X239297Y207609D01*
X240258Y207211D01*
X240889Y207128D01*
Y210659D01*
D02*
G37*
G36*
X79131Y215285D02*
X78136Y215087D01*
X77293Y214524D01*
X76729Y213680D01*
X76531Y212685D01*
X76729Y211690D01*
X77293Y210847D01*
X78136Y210283D01*
X78777Y210156D01*
X86599Y202334D01*
X87261Y201892D01*
X88041Y201736D01*
X113570D01*
X114113Y201374D01*
X115108Y201176D01*
X116103Y201374D01*
X116946Y201937D01*
X117510Y202781D01*
X117708Y203776D01*
X117510Y204771D01*
X116946Y205614D01*
X116103Y206178D01*
X115108Y206376D01*
X114113Y206178D01*
X113570Y205815D01*
X88886D01*
X81661Y213040D01*
X81533Y213680D01*
X80970Y214524D01*
X80126Y215087D01*
X79131Y215285D01*
D02*
G37*
G36*
X260974Y202444D02*
X259943Y202309D01*
X258982Y201910D01*
X258157Y201277D01*
X257524Y200452D01*
X257126Y199492D01*
X256991Y198461D01*
X257126Y197430D01*
X257524Y196469D01*
X258157Y195644D01*
X258982Y195011D01*
X259943Y194613D01*
X260974Y194477D01*
X262005Y194613D01*
X262966Y195011D01*
X263791Y195644D01*
X264424Y196469D01*
X264822Y197430D01*
X264958Y198461D01*
X264822Y199492D01*
X264424Y200452D01*
X263791Y201277D01*
X262966Y201910D01*
X262005Y202309D01*
X260974Y202444D01*
D02*
G37*
G36*
X241289D02*
X240258Y202309D01*
X239297Y201910D01*
X238472Y201277D01*
X237839Y200452D01*
X237441Y199492D01*
X237305Y198461D01*
X237441Y197430D01*
X237839Y196469D01*
X238472Y195644D01*
X239297Y195011D01*
X240258Y194613D01*
X241289Y194477D01*
X242320Y194613D01*
X243281Y195011D01*
X244106Y195644D01*
X244739Y196469D01*
X245137Y197430D01*
X245273Y198461D01*
X245137Y199492D01*
X244739Y200452D01*
X244106Y201277D01*
X243281Y201910D01*
X242320Y202309D01*
X241289Y202444D01*
D02*
G37*
G36*
X251132D02*
X250100Y202309D01*
X249140Y201910D01*
X248315Y201277D01*
X247682Y200452D01*
X247284Y199492D01*
X247148Y198461D01*
X247284Y197430D01*
X247682Y196469D01*
X248315Y195644D01*
X249140Y195011D01*
X250100Y194613D01*
X251132Y194477D01*
X252163Y194613D01*
X252829Y194889D01*
X262944Y184774D01*
X262887Y184485D01*
X263056Y183635D01*
X263537Y182915D01*
X264258Y182433D01*
X265107Y182264D01*
X265957Y182433D01*
X266678Y182915D01*
X267159Y183635D01*
X267328Y184485D01*
X267159Y185335D01*
X266678Y186055D01*
X265957Y186536D01*
X265107Y186705D01*
X264819Y186648D01*
X254703Y196763D01*
X254979Y197430D01*
X255115Y198461D01*
X254979Y199492D01*
X254581Y200452D01*
X253948Y201277D01*
X253123Y201910D01*
X252163Y202309D01*
X251132Y202444D01*
D02*
G37*
G36*
X225836Y198417D02*
X224986Y198249D01*
X224266Y197767D01*
X223785Y197047D01*
X223616Y196197D01*
X223785Y195347D01*
X224266Y194627D01*
X224511Y194463D01*
Y185415D01*
X224266Y185252D01*
X223785Y184531D01*
X223616Y183681D01*
X223785Y182832D01*
X224266Y182111D01*
X224986Y181630D01*
X225836Y181461D01*
X226686Y181630D01*
X227406Y182111D01*
X227888Y182832D01*
X228057Y183681D01*
X227888Y184531D01*
X227406Y185252D01*
X227162Y185415D01*
Y194463D01*
X227406Y194627D01*
X227888Y195347D01*
X228057Y196197D01*
X227888Y197047D01*
X227406Y197767D01*
X226686Y198249D01*
X225836Y198417D01*
D02*
G37*
G36*
X99957Y176566D02*
Y173035D01*
X103488D01*
X103404Y173666D01*
X103007Y174627D01*
X102374Y175452D01*
X101549Y176085D01*
X100588Y176483D01*
X99957Y176566D01*
D02*
G37*
G36*
X99157D02*
X98526Y176483D01*
X97565Y176085D01*
X96740Y175452D01*
X96107Y174627D01*
X95709Y173666D01*
X95626Y173035D01*
X99157D01*
Y176566D01*
D02*
G37*
G36*
X75258Y180502D02*
X67752D01*
Y172996D01*
X75258D01*
Y180502D01*
D02*
G37*
G36*
X86663Y180535D02*
X85683Y180406D01*
X84770Y180028D01*
X83986Y179426D01*
X83385Y178642D01*
X83007Y177729D01*
X82878Y176750D01*
X83007Y175770D01*
X83385Y174857D01*
X83986Y174073D01*
X84770Y173471D01*
X85683Y173093D01*
X86663Y172964D01*
X87643Y173093D01*
X88556Y173471D01*
X89340Y174073D01*
X89941Y174857D01*
X90319Y175770D01*
X90448Y176750D01*
X90319Y177729D01*
X89941Y178642D01*
X89340Y179426D01*
X88556Y180028D01*
X87643Y180406D01*
X86663Y180535D01*
D02*
G37*
G36*
X249698Y241042D02*
X248565Y240893D01*
X247508Y240456D01*
X246601Y239759D01*
X245904Y238852D01*
X245467Y237795D01*
X245318Y236662D01*
X245467Y235528D01*
X245904Y234471D01*
X246601Y233564D01*
X247508Y232867D01*
X247521Y232862D01*
X247583Y232343D01*
X193883Y178643D01*
X193440Y177981D01*
X193285Y177201D01*
Y176202D01*
X192922Y175659D01*
X192725Y174664D01*
X192922Y173669D01*
X193486Y172826D01*
X194329Y172262D01*
X195324Y172064D01*
X196319Y172262D01*
X197163Y172826D01*
X197727Y173669D01*
X197924Y174664D01*
X197727Y175659D01*
X197364Y176202D01*
Y176356D01*
X251140Y230133D01*
X251582Y230795D01*
X251738Y231575D01*
X251738Y231575D01*
Y232805D01*
X251889Y232867D01*
X252796Y233564D01*
X253492Y234471D01*
X253930Y235528D01*
X254079Y236662D01*
X253930Y237795D01*
X253492Y238852D01*
X252796Y239759D01*
X251889Y240456D01*
X250832Y240893D01*
X249698Y241042D01*
D02*
G37*
G36*
X103488Y172235D02*
X99957D01*
Y168704D01*
X100588Y168788D01*
X101549Y169185D01*
X102374Y169819D01*
X103007Y170644D01*
X103404Y171604D01*
X103488Y172235D01*
D02*
G37*
G36*
X99157D02*
X95626D01*
X95709Y171604D01*
X96107Y170644D01*
X96740Y169819D01*
X97565Y169185D01*
X98526Y168788D01*
X99157Y168704D01*
Y172235D01*
D02*
G37*
G36*
X112155Y176619D02*
X111124Y176483D01*
X110163Y176085D01*
X109338Y175452D01*
X108705Y174627D01*
X108307Y173666D01*
X108172Y172635D01*
X108307Y171604D01*
X108705Y170644D01*
X109338Y169819D01*
X110163Y169185D01*
X111124Y168788D01*
X112155Y168652D01*
X113186Y168788D01*
X114147Y169185D01*
X114972Y169819D01*
X115605Y170644D01*
X116003Y171604D01*
X116139Y172635D01*
X116003Y173666D01*
X115605Y174627D01*
X114972Y175452D01*
X114147Y176085D01*
X113186Y176483D01*
X112155Y176619D01*
D02*
G37*
G36*
X99957Y166724D02*
Y163193D01*
X103488D01*
X103404Y163824D01*
X103007Y164785D01*
X102374Y165610D01*
X101549Y166243D01*
X100588Y166641D01*
X99957Y166724D01*
D02*
G37*
G36*
X99157D02*
X98526Y166641D01*
X97565Y166243D01*
X96740Y165610D01*
X96107Y164785D01*
X95709Y163824D01*
X95626Y163193D01*
X99157D01*
Y166724D01*
D02*
G37*
G36*
X90416Y170502D02*
X82910D01*
Y162996D01*
X90416D01*
Y170502D01*
D02*
G37*
G36*
X71505Y170535D02*
X70526Y170406D01*
X69613Y170028D01*
X68829Y169426D01*
X68227Y168642D01*
X67849Y167729D01*
X67720Y166750D01*
X67849Y165770D01*
X68227Y164857D01*
X68829Y164073D01*
X69613Y163471D01*
X70526Y163093D01*
X71505Y162964D01*
X72485Y163093D01*
X73398Y163471D01*
X74182Y164073D01*
X74784Y164857D01*
X75162Y165770D01*
X75291Y166750D01*
X75162Y167729D01*
X74784Y168642D01*
X74182Y169426D01*
X73398Y170028D01*
X72485Y170406D01*
X71505Y170535D01*
D02*
G37*
G36*
X99157Y162393D02*
X95626D01*
X95709Y161762D01*
X96107Y160801D01*
X96740Y159976D01*
X97565Y159343D01*
X98526Y158945D01*
X99157Y158862D01*
Y162393D01*
D02*
G37*
G36*
X103488D02*
X99957D01*
Y158862D01*
X100588Y158945D01*
X101549Y159343D01*
X102374Y159976D01*
X103007Y160801D01*
X103404Y161762D01*
X103488Y162393D01*
D02*
G37*
G36*
X112155Y166776D02*
X111124Y166641D01*
X110163Y166243D01*
X109338Y165610D01*
X108705Y164785D01*
X108307Y163824D01*
X108172Y162793D01*
X108307Y161762D01*
X108705Y160801D01*
X109338Y159976D01*
X110163Y159343D01*
X111124Y158945D01*
X112155Y158809D01*
X113186Y158945D01*
X114147Y159343D01*
X114972Y159976D01*
X115605Y160801D01*
X116003Y161762D01*
X116139Y162793D01*
X116003Y163824D01*
X115605Y164785D01*
X114972Y165610D01*
X114147Y166243D01*
X113186Y166641D01*
X112155Y166776D01*
D02*
G37*
G36*
X72049Y160935D02*
X65725D01*
Y154611D01*
X72049D01*
Y160935D01*
D02*
G37*
G36*
X88887Y160962D02*
X88062Y160854D01*
X87293Y160535D01*
X86632Y160028D01*
X86125Y159368D01*
X85807Y158599D01*
X85698Y157773D01*
X85807Y156948D01*
X86125Y156178D01*
X86632Y155518D01*
X87293Y155011D01*
X88062Y154693D01*
X88887Y154584D01*
X89713Y154693D01*
X90482Y155011D01*
X91143Y155518D01*
X91649Y156178D01*
X91968Y156948D01*
X92077Y157773D01*
X91968Y158599D01*
X91649Y159368D01*
X91143Y160028D01*
X90482Y160535D01*
X89713Y160854D01*
X88887Y160962D01*
D02*
G37*
G36*
X99957Y156881D02*
Y153350D01*
X103488D01*
X103404Y153981D01*
X103007Y154942D01*
X102374Y155767D01*
X101549Y156400D01*
X100588Y156798D01*
X99957Y156881D01*
D02*
G37*
G36*
X99157D02*
X98526Y156798D01*
X97565Y156400D01*
X96740Y155767D01*
X96107Y154942D01*
X95709Y153981D01*
X95626Y153350D01*
X99157D01*
Y156881D01*
D02*
G37*
G36*
Y152550D02*
X95626D01*
X95709Y151919D01*
X96107Y150959D01*
X96740Y150134D01*
X97565Y149500D01*
X98526Y149102D01*
X99157Y149019D01*
Y152550D01*
D02*
G37*
G36*
X103488D02*
X99957D01*
Y149019D01*
X100588Y149102D01*
X101549Y149500D01*
X102374Y150134D01*
X103007Y150959D01*
X103404Y151919D01*
X103488Y152550D01*
D02*
G37*
G36*
X112155Y156934D02*
X111124Y156798D01*
X110163Y156400D01*
X109338Y155767D01*
X108705Y154942D01*
X108307Y153981D01*
X108172Y152950D01*
X108307Y151919D01*
X108705Y150959D01*
X109338Y150134D01*
X110163Y149500D01*
X111124Y149102D01*
X112155Y148967D01*
X113186Y149102D01*
X114147Y149500D01*
X114972Y150134D01*
X115605Y150959D01*
X116003Y151919D01*
X116139Y152950D01*
X116003Y153981D01*
X115605Y154942D01*
X114972Y155767D01*
X114147Y156400D01*
X113186Y156798D01*
X112155Y156934D01*
D02*
G37*
G36*
X92049Y151782D02*
X85725D01*
Y145458D01*
X92049D01*
Y151782D01*
D02*
G37*
G36*
X68887Y151809D02*
X68062Y151700D01*
X67293Y151382D01*
X66632Y150875D01*
X66125Y150214D01*
X65807Y149445D01*
X65698Y148620D01*
X65807Y147794D01*
X66125Y147025D01*
X66632Y146364D01*
X67293Y145858D01*
X68062Y145539D01*
X68887Y145430D01*
X69713Y145539D01*
X70482Y145858D01*
X71143Y146364D01*
X71649Y147025D01*
X71968Y147794D01*
X72077Y148620D01*
X71968Y149445D01*
X71649Y150214D01*
X71143Y150875D01*
X70482Y151382D01*
X69713Y151700D01*
X68887Y151809D01*
D02*
G37*
G36*
X202903Y162689D02*
X202053Y162520D01*
X201333Y162039D01*
X200852Y161318D01*
X200682Y160468D01*
X200852Y159619D01*
X201333Y158898D01*
X201578Y158735D01*
Y149334D01*
X201679Y148827D01*
X201966Y148397D01*
X204296Y146067D01*
X204238Y145778D01*
X204408Y144928D01*
X204889Y144208D01*
X205609Y143726D01*
X206459Y143557D01*
X207309Y143726D01*
X208029Y144208D01*
X208511Y144928D01*
X208680Y145778D01*
X208511Y146628D01*
X208029Y147348D01*
X207309Y147830D01*
X206459Y147999D01*
X206170Y147941D01*
X204229Y149883D01*
Y158735D01*
X204473Y158898D01*
X204955Y159619D01*
X205124Y160468D01*
X204955Y161318D01*
X204473Y162039D01*
X203753Y162520D01*
X202903Y162689D01*
D02*
G37*
G36*
X182726Y182655D02*
X181731Y182457D01*
X180887Y181894D01*
X180324Y181050D01*
X180126Y180055D01*
X180324Y179060D01*
X180687Y178517D01*
Y158473D01*
X180324Y157929D01*
X180126Y156934D01*
X180324Y155939D01*
X180687Y155396D01*
Y134721D01*
X180324Y134178D01*
X180126Y133183D01*
X180324Y132188D01*
X180887Y131344D01*
X181731Y130781D01*
X182726Y130583D01*
X183721Y130781D01*
X184564Y131344D01*
X185128Y132188D01*
X185326Y133183D01*
X185128Y134178D01*
X184765Y134721D01*
Y155396D01*
X185128Y155939D01*
X185326Y156934D01*
X185128Y157929D01*
X184765Y158473D01*
Y178517D01*
X185128Y179060D01*
X185326Y180055D01*
X185128Y181050D01*
X184564Y181894D01*
X183721Y182457D01*
X182726Y182655D01*
D02*
G37*
G36*
X110922Y126469D02*
X110073Y126300D01*
X109352Y125818D01*
X109189Y125574D01*
X91842D01*
X91678Y125818D01*
X90958Y126300D01*
X90108Y126469D01*
X89258Y126300D01*
X88538Y125818D01*
X88056Y125098D01*
X87887Y124248D01*
X88056Y123398D01*
X88538Y122678D01*
X89258Y122196D01*
X90108Y122027D01*
X90958Y122196D01*
X91678Y122678D01*
X91842Y122923D01*
X109189D01*
X109352Y122678D01*
X110073Y122196D01*
X110922Y122027D01*
X111772Y122196D01*
X112493Y122678D01*
X112974Y123398D01*
X113143Y124248D01*
X112974Y125098D01*
X112493Y125818D01*
X111772Y126300D01*
X110922Y126469D01*
D02*
G37*
G36*
X230462Y163870D02*
X229612Y163701D01*
X228892Y163220D01*
X228411Y162499D01*
X228242Y161650D01*
X228411Y160800D01*
X228892Y160079D01*
X229137Y159916D01*
Y157735D01*
X200018Y128617D01*
X167328D01*
X166821Y128516D01*
X166391Y128228D01*
X159197Y121035D01*
X158332Y121393D01*
X157198Y121542D01*
X156065Y121393D01*
X155008Y120956D01*
X154101Y120259D01*
X153404Y119352D01*
X152967Y118295D01*
X152817Y117161D01*
X152967Y116028D01*
X153404Y114971D01*
X154101Y114064D01*
X155008Y113367D01*
X156065Y112930D01*
X157198Y112780D01*
X158332Y112930D01*
X159389Y113367D01*
X160296Y114064D01*
X160993Y114971D01*
X161430Y116028D01*
X161579Y117161D01*
X161430Y118295D01*
X161072Y119160D01*
X167877Y125966D01*
X200567D01*
X201075Y126067D01*
X201505Y126354D01*
X231399Y156249D01*
X231687Y156679D01*
X231788Y157186D01*
Y159916D01*
X232032Y160079D01*
X232514Y160800D01*
X232683Y161650D01*
X232514Y162499D01*
X232032Y163220D01*
X231312Y163701D01*
X230462Y163870D01*
D02*
G37*
G36*
X84198Y121542D02*
X83065Y121393D01*
X82008Y120956D01*
X81101Y120259D01*
X80404Y119352D01*
X80046Y118487D01*
X68351D01*
X67993Y119352D01*
X67296Y120259D01*
X66389Y120956D01*
X65332Y121393D01*
X64198Y121542D01*
X63064Y121393D01*
X62008Y120956D01*
X61101Y120259D01*
X60404Y119352D01*
X59967Y118295D01*
X59817Y117161D01*
X59967Y116028D01*
X60404Y114971D01*
X61101Y114064D01*
X62008Y113367D01*
X63064Y112930D01*
X64198Y112780D01*
X65332Y112930D01*
X66389Y113367D01*
X67296Y114064D01*
X67993Y114971D01*
X68351Y115836D01*
X80046D01*
X80404Y114971D01*
X81101Y114064D01*
X82008Y113367D01*
X83065Y112930D01*
X84198Y112780D01*
X85332Y112930D01*
X86389Y113367D01*
X87296Y114064D01*
X87993Y114971D01*
X88430Y116028D01*
X88579Y117161D01*
X88430Y118295D01*
X87993Y119352D01*
X87296Y120259D01*
X86389Y120956D01*
X85332Y121393D01*
X84198Y121542D01*
D02*
G37*
G36*
X215305Y127693D02*
X214455Y127524D01*
X213735Y127043D01*
X213253Y126322D01*
X213084Y125473D01*
X213253Y124623D01*
X213735Y123902D01*
X214455Y123421D01*
X215305Y123252D01*
X216155Y123421D01*
X216875Y123902D01*
X217038Y124147D01*
X240838D01*
X245825Y119160D01*
X245467Y118295D01*
X245318Y117161D01*
X245467Y116028D01*
X245904Y114971D01*
X246601Y114064D01*
X247508Y113367D01*
X248565Y112930D01*
X249698Y112780D01*
X250832Y112930D01*
X251889Y113367D01*
X252796Y114064D01*
X253492Y114971D01*
X253930Y116028D01*
X254079Y117161D01*
X253930Y118295D01*
X253492Y119352D01*
X252796Y120259D01*
X251889Y120956D01*
X250832Y121393D01*
X249698Y121542D01*
X248565Y121393D01*
X247699Y121035D01*
X242324Y126410D01*
X241895Y126697D01*
X241387Y126798D01*
X217038D01*
X216875Y127043D01*
X216155Y127524D01*
X215305Y127693D01*
D02*
G37*
G36*
X229698Y121542D02*
X228565Y121393D01*
X227508Y120956D01*
X226601Y120259D01*
X225904Y119352D01*
X225467Y118295D01*
X225318Y117161D01*
X225467Y116028D01*
X225904Y114971D01*
X226601Y114064D01*
X227508Y113367D01*
X228565Y112930D01*
X229698Y112780D01*
X230832Y112930D01*
X231889Y113367D01*
X232796Y114064D01*
X233492Y114971D01*
X233930Y116028D01*
X234079Y117161D01*
X233930Y118295D01*
X233492Y119352D01*
X232796Y120259D01*
X231889Y120956D01*
X230832Y121393D01*
X229698Y121542D01*
D02*
G37*
G36*
X209698D02*
X208565Y121393D01*
X207508Y120956D01*
X206601Y120259D01*
X205904Y119352D01*
X205467Y118295D01*
X205317Y117161D01*
X205467Y116028D01*
X205904Y114971D01*
X206601Y114064D01*
X207508Y113367D01*
X208565Y112930D01*
X209698Y112780D01*
X210832Y112930D01*
X211889Y113367D01*
X212796Y114064D01*
X213492Y114971D01*
X213930Y116028D01*
X214079Y117161D01*
X213930Y118295D01*
X213492Y119352D01*
X212796Y120259D01*
X211889Y120956D01*
X210832Y121393D01*
X209698Y121542D01*
D02*
G37*
G36*
X177198D02*
X176065Y121393D01*
X175008Y120956D01*
X174101Y120259D01*
X173404Y119352D01*
X172967Y118295D01*
X172818Y117161D01*
X172967Y116028D01*
X173404Y114971D01*
X174101Y114064D01*
X175008Y113367D01*
X176065Y112930D01*
X177198Y112780D01*
X178332Y112930D01*
X179389Y113367D01*
X180296Y114064D01*
X180992Y114971D01*
X181430Y116028D01*
X181579Y117161D01*
X181430Y118295D01*
X180992Y119352D01*
X180296Y120259D01*
X179389Y120956D01*
X178332Y121393D01*
X177198Y121542D01*
D02*
G37*
G36*
X137198D02*
X136065Y121393D01*
X135008Y120956D01*
X134101Y120259D01*
X133404Y119352D01*
X132967Y118295D01*
X132817Y117161D01*
X132967Y116028D01*
X133404Y114971D01*
X134101Y114064D01*
X135008Y113367D01*
X136065Y112930D01*
X137198Y112780D01*
X138332Y112930D01*
X139389Y113367D01*
X140296Y114064D01*
X140992Y114971D01*
X141430Y116028D01*
X141579Y117161D01*
X141430Y118295D01*
X140992Y119352D01*
X140296Y120259D01*
X139389Y120956D01*
X138332Y121393D01*
X137198Y121542D01*
D02*
G37*
G36*
X104198D02*
X103065Y121393D01*
X102008Y120956D01*
X101101Y120259D01*
X100404Y119352D01*
X99967Y118295D01*
X99817Y117161D01*
X99967Y116028D01*
X100404Y114971D01*
X101101Y114064D01*
X102008Y113367D01*
X103065Y112930D01*
X104198Y112780D01*
X105332Y112930D01*
X106389Y113367D01*
X107296Y114064D01*
X107992Y114971D01*
X108430Y116028D01*
X108579Y117161D01*
X108430Y118295D01*
X107992Y119352D01*
X107296Y120259D01*
X106389Y120956D01*
X105332Y121393D01*
X104198Y121542D01*
D02*
G37*
G36*
X140305Y225681D02*
X139455Y225512D01*
X138734Y225031D01*
X138253Y224310D01*
X138084Y223461D01*
X138253Y222611D01*
X138734Y221890D01*
X138979Y221727D01*
Y214364D01*
X130411Y205796D01*
X130123Y205365D01*
X130023Y204858D01*
Y124797D01*
X119130Y113904D01*
X118842Y113474D01*
X118742Y112967D01*
Y106357D01*
X118497Y106194D01*
X118015Y105473D01*
X117846Y104624D01*
X118015Y103774D01*
X118497Y103053D01*
X119217Y102572D01*
X120067Y102403D01*
X120917Y102572D01*
X121637Y103053D01*
X122118Y103774D01*
X122287Y104624D01*
X122118Y105473D01*
X121637Y106194D01*
X121392Y106357D01*
Y112418D01*
X132285Y123311D01*
X132573Y123741D01*
X132674Y124248D01*
Y204309D01*
X141242Y212878D01*
X141529Y213308D01*
X141630Y213815D01*
Y221727D01*
X141875Y221890D01*
X142356Y222611D01*
X142525Y223461D01*
X142356Y224310D01*
X141875Y225031D01*
X141155Y225512D01*
X140305Y225681D01*
D02*
G37*
G36*
X205698Y75651D02*
X204873Y75542D01*
X204104Y75224D01*
X203443Y74717D01*
X202936Y74057D01*
X202618Y73287D01*
X202509Y72462D01*
X202618Y71636D01*
X202936Y70867D01*
X203443Y70207D01*
X204104Y69700D01*
X204873Y69381D01*
X205698Y69273D01*
X206524Y69381D01*
X207293Y69700D01*
X207954Y70207D01*
X208460Y70867D01*
X208779Y71636D01*
X208888Y72462D01*
X208779Y73287D01*
X208460Y74057D01*
X207954Y74717D01*
X207293Y75224D01*
X206524Y75542D01*
X205698Y75651D01*
D02*
G37*
G36*
X198860Y65624D02*
X192536D01*
Y59300D01*
X198860D01*
Y65624D01*
D02*
G37*
G36*
X215698Y65651D02*
X214873Y65543D01*
X214104Y65224D01*
X213443Y64717D01*
X212936Y64056D01*
X212618Y63287D01*
X212509Y62462D01*
X212618Y61636D01*
X212936Y60867D01*
X213443Y60207D01*
X214104Y59700D01*
X214873Y59381D01*
X215698Y59273D01*
X216524Y59381D01*
X217293Y59700D01*
X217954Y60207D01*
X218460Y60867D01*
X218779Y61636D01*
X218888Y62462D01*
X218779Y63287D01*
X218460Y64056D01*
X217954Y64717D01*
X217293Y65224D01*
X216524Y65543D01*
X215698Y65651D01*
D02*
G37*
G36*
X243895Y61845D02*
Y58464D01*
X247275D01*
X247197Y59057D01*
X246814Y59981D01*
X246205Y60775D01*
X245411Y61384D01*
X244487Y61767D01*
X243895Y61845D01*
D02*
G37*
G36*
X243095D02*
X242503Y61767D01*
X241579Y61384D01*
X240785Y60775D01*
X240176Y59981D01*
X239793Y59057D01*
X239715Y58464D01*
X243095D01*
Y61845D01*
D02*
G37*
G36*
X80298Y61198D02*
Y57818D01*
X83679D01*
X83601Y58410D01*
X83218Y59334D01*
X82609Y60128D01*
X81815Y60737D01*
X80890Y61120D01*
X80298Y61198D01*
D02*
G37*
G36*
X79498D02*
X78906Y61120D01*
X77982Y60737D01*
X77188Y60128D01*
X76579Y59334D01*
X76196Y58410D01*
X76118Y57818D01*
X79498D01*
Y61198D01*
D02*
G37*
G36*
X161652Y59236D02*
Y55554D01*
X165334D01*
X165246Y56224D01*
X164833Y57221D01*
X164176Y58078D01*
X163320Y58735D01*
X162322Y59148D01*
X161652Y59236D01*
D02*
G37*
G36*
X160852D02*
X160181Y59148D01*
X159184Y58735D01*
X158328Y58078D01*
X157670Y57221D01*
X157257Y56224D01*
X157169Y55554D01*
X160852D01*
Y59236D01*
D02*
G37*
G36*
X243095Y57665D02*
X239715D01*
X239793Y57073D01*
X240176Y56148D01*
X240785Y55354D01*
X241579Y54745D01*
X242503Y54362D01*
X243095Y54284D01*
Y57665D01*
D02*
G37*
G36*
X247275D02*
X243895D01*
Y54284D01*
X244487Y54362D01*
X245411Y54745D01*
X246205Y55354D01*
X246814Y56148D01*
X247197Y57073D01*
X247275Y57665D01*
D02*
G37*
G36*
X233495Y61897D02*
X232503Y61767D01*
X231579Y61384D01*
X230785Y60775D01*
X230176Y59981D01*
X229793Y59057D01*
X229662Y58065D01*
X229793Y57073D01*
X230176Y56148D01*
X230785Y55354D01*
X231579Y54745D01*
X232503Y54362D01*
X233495Y54232D01*
X234487Y54362D01*
X235412Y54745D01*
X236205Y55354D01*
X236814Y56148D01*
X237197Y57073D01*
X237328Y58065D01*
X237197Y59057D01*
X236814Y59981D01*
X236205Y60775D01*
X235412Y61384D01*
X234487Y61767D01*
X233495Y61897D01*
D02*
G37*
G36*
X83679Y57018D02*
X80298D01*
Y53638D01*
X80890Y53716D01*
X81815Y54099D01*
X82609Y54708D01*
X83218Y55502D01*
X83601Y56426D01*
X83679Y57018D01*
D02*
G37*
G36*
X79498D02*
X76118D01*
X76196Y56426D01*
X76579Y55502D01*
X77188Y54708D01*
X77982Y54099D01*
X78906Y53716D01*
X79498Y53638D01*
Y57018D01*
D02*
G37*
G36*
X69898Y61251D02*
X68906Y61120D01*
X67982Y60737D01*
X67188Y60128D01*
X66579Y59334D01*
X66196Y58410D01*
X66066Y57418D01*
X66196Y56426D01*
X66579Y55502D01*
X67188Y54708D01*
X67982Y54099D01*
X68906Y53716D01*
X69898Y53585D01*
X70890Y53716D01*
X71815Y54099D01*
X72609Y54708D01*
X73218Y55502D01*
X73601Y56426D01*
X73731Y57418D01*
X73601Y58410D01*
X73218Y59334D01*
X72609Y60128D01*
X71815Y60737D01*
X70890Y61120D01*
X69898Y61251D01*
D02*
G37*
G36*
X165334Y54754D02*
X161652D01*
Y51071D01*
X162322Y51159D01*
X163320Y51572D01*
X164176Y52229D01*
X164833Y53086D01*
X165246Y54083D01*
X165334Y54754D01*
D02*
G37*
G36*
X160852D02*
X157169D01*
X157257Y54083D01*
X157670Y53086D01*
X158328Y52229D01*
X159184Y51572D01*
X160181Y51159D01*
X160852Y51071D01*
Y54754D01*
D02*
G37*
G36*
X151252Y59289D02*
X150181Y59148D01*
X149184Y58735D01*
X148328Y58078D01*
X147670Y57221D01*
X147257Y56224D01*
X147116Y55154D01*
X147257Y54083D01*
X147670Y53086D01*
X148328Y52229D01*
X149184Y51572D01*
X150181Y51159D01*
X151252Y51018D01*
X152322Y51159D01*
X153320Y51572D01*
X154176Y52229D01*
X154833Y53086D01*
X155246Y54083D01*
X155387Y55154D01*
X155246Y56224D01*
X154833Y57221D01*
X154176Y58078D01*
X153320Y58735D01*
X152322Y59148D01*
X151252Y59289D01*
D02*
G37*
G36*
X135876D02*
X134805Y59148D01*
X133808Y58735D01*
X132951Y58078D01*
X132294Y57221D01*
X131881Y56224D01*
X131740Y55154D01*
X131881Y54083D01*
X132294Y53086D01*
X132951Y52229D01*
X133808Y51572D01*
X134805Y51159D01*
X135876Y51018D01*
X136946Y51159D01*
X137943Y51572D01*
X138800Y52229D01*
X139457Y53086D01*
X139870Y54083D01*
X140011Y55154D01*
X139870Y56224D01*
X139457Y57221D01*
X138800Y58078D01*
X137943Y58735D01*
X136946Y59148D01*
X135876Y59289D01*
D02*
G37*
G36*
X125876D02*
X124805Y59148D01*
X123808Y58735D01*
X122951Y58078D01*
X122294Y57221D01*
X121881Y56224D01*
X121740Y55154D01*
X121881Y54083D01*
X122294Y53086D01*
X122951Y52229D01*
X123808Y51572D01*
X124805Y51159D01*
X125876Y51018D01*
X126946Y51159D01*
X127943Y51572D01*
X128800Y52229D01*
X129457Y53086D01*
X129870Y54083D01*
X130011Y55154D01*
X129870Y56224D01*
X129457Y57221D01*
X128800Y58078D01*
X127943Y58735D01*
X126946Y59148D01*
X125876Y59289D01*
D02*
G37*
G36*
X115876D02*
X114805Y59148D01*
X113808Y58735D01*
X112951Y58078D01*
X112294Y57221D01*
X111881Y56224D01*
X111740Y55154D01*
X111881Y54083D01*
X112294Y53086D01*
X112951Y52229D01*
X113808Y51572D01*
X114805Y51159D01*
X115876Y51018D01*
X116946Y51159D01*
X117943Y51572D01*
X118800Y52229D01*
X119457Y53086D01*
X119870Y54083D01*
X120011Y55154D01*
X119870Y56224D01*
X119457Y57221D01*
X118800Y58078D01*
X117943Y58735D01*
X116946Y59148D01*
X115876Y59289D01*
D02*
G37*
G36*
X105876D02*
X104805Y59148D01*
X103808Y58735D01*
X102951Y58078D01*
X102294Y57221D01*
X101881Y56224D01*
X101740Y55154D01*
X101881Y54083D01*
X102294Y53086D01*
X102951Y52229D01*
X103808Y51572D01*
X104805Y51159D01*
X105876Y51018D01*
X106946Y51159D01*
X107943Y51572D01*
X108800Y52229D01*
X109457Y53086D01*
X109870Y54083D01*
X110011Y55154D01*
X109870Y56224D01*
X109457Y57221D01*
X108800Y58078D01*
X107943Y58735D01*
X106946Y59148D01*
X105876Y59289D01*
D02*
G37*
%LPD*%
D10*
X11811Y11811D02*
D03*
X578740D02*
D03*
Y381890D02*
D03*
X11811Y381890D02*
D03*
D29*
X159994Y263323D02*
X189517D01*
X159891Y263221D02*
X159994Y263323D01*
X215305Y125473D02*
X241387D01*
X249698Y117161D01*
X202903Y149334D02*
X206459Y145778D01*
X202903Y149334D02*
Y160468D01*
X265107Y184485D02*
X265107D01*
X251132Y198461D02*
X265107Y184485D01*
X165052Y268704D02*
X179609Y283261D01*
X165052Y267867D02*
Y268704D01*
X123966Y127299D02*
Y207413D01*
X114616Y117949D02*
X123966Y127299D01*
X114616Y104268D02*
Y117949D01*
X123966Y207413D02*
X135584Y219032D01*
X140305Y213815D02*
Y223461D01*
X131348Y204858D02*
X140305Y213815D01*
X131348Y124248D02*
Y204858D01*
X120067Y112967D02*
X131348Y124248D01*
X120067Y104624D02*
Y112967D01*
X90108Y124248D02*
X110922D01*
X64198Y117161D02*
X84198D01*
X200567Y127291D02*
X230462Y157186D01*
X167328Y127291D02*
X200567D01*
X157198Y117161D02*
X167328Y127291D01*
X230462Y157186D02*
Y161650D01*
X225836Y183681D02*
Y196197D01*
X431864Y263323D02*
X461387D01*
X431761Y263221D02*
X431864Y263323D01*
X487175Y125473D02*
X513257D01*
X521568Y117161D01*
X474773Y149334D02*
X478329Y145778D01*
X474773Y149334D02*
Y160468D01*
X536977Y184485D02*
X536977D01*
X523002Y198461D02*
X536977Y184485D01*
X436922Y268704D02*
X451479Y283261D01*
X436922Y267867D02*
Y268704D01*
X395836Y127299D02*
Y207413D01*
X386486Y117949D02*
X395836Y127299D01*
X386486Y104268D02*
Y117949D01*
X395836Y207413D02*
X407454Y219032D01*
X412175Y213815D02*
Y223461D01*
X403218Y204858D02*
X412175Y213815D01*
X403218Y124248D02*
Y204858D01*
X391937Y112967D02*
X403218Y124248D01*
X391937Y104624D02*
Y112967D01*
X361978Y124248D02*
X382792D01*
X336069Y117161D02*
X356068D01*
X472437Y127291D02*
X502332Y157186D01*
X439198Y127291D02*
X472437D01*
X429069Y117161D02*
X439198Y127291D01*
X502332Y157186D02*
Y161650D01*
X497706Y183681D02*
Y196197D01*
D30*
X79131Y212685D02*
X88041Y203776D01*
X115108D01*
X182726Y133183D02*
Y156934D01*
Y180055D01*
X249698Y231575D02*
Y236662D01*
X195324Y177201D02*
X249698Y231575D01*
X195324Y174937D02*
Y177201D01*
X351001Y212685D02*
X359911Y203776D01*
X386978D01*
X454596Y133183D02*
Y156934D01*
Y180055D01*
X521568Y231575D02*
Y236662D01*
X467195Y177201D02*
X521568Y231575D01*
X467195Y174937D02*
Y177201D01*
D31*
X312205Y267027D02*
D03*
Y263090D02*
D03*
Y259153D02*
D03*
Y251279D02*
D03*
Y255216D02*
D03*
X312106Y81004D02*
D03*
Y77067D02*
D03*
Y84941D02*
D03*
Y88878D02*
D03*
Y92815D02*
D03*
X545571Y255216D02*
D03*
Y251279D02*
D03*
Y259153D02*
D03*
Y263090D02*
D03*
Y267027D02*
D03*
X545571Y81004D02*
D03*
Y77067D02*
D03*
Y84941D02*
D03*
Y88878D02*
D03*
Y92815D02*
D03*
X273622Y92815D02*
D03*
Y88878D02*
D03*
Y84941D02*
D03*
Y77067D02*
D03*
Y81004D02*
D03*
X273622Y267028D02*
D03*
Y263091D02*
D03*
Y259154D02*
D03*
Y251279D02*
D03*
Y255216D02*
D03*
X40157Y92815D02*
D03*
Y88878D02*
D03*
Y84941D02*
D03*
Y77067D02*
D03*
Y81004D02*
D03*
X40256Y255216D02*
D03*
Y251279D02*
D03*
Y259154D02*
D03*
Y263091D02*
D03*
Y267028D02*
D03*
D32*
X99557Y162793D02*
D03*
Y152950D02*
D03*
Y172635D02*
D03*
X112155D02*
D03*
Y152950D02*
D03*
Y162793D02*
D03*
X251132Y211059D02*
D03*
X241289D02*
D03*
X260974D02*
D03*
Y198461D02*
D03*
X241289D02*
D03*
X251132D02*
D03*
X371427Y162793D02*
D03*
Y152950D02*
D03*
Y172635D02*
D03*
X384025D02*
D03*
Y152950D02*
D03*
Y162793D02*
D03*
X523002Y211059D02*
D03*
X513159D02*
D03*
X532844D02*
D03*
Y198461D02*
D03*
X513159D02*
D03*
X523002D02*
D03*
D33*
X151939Y277594D02*
D03*
X161939D02*
D03*
X233495Y58065D02*
D03*
X243495D02*
D03*
X69898Y57418D02*
D03*
X79898D02*
D03*
X423809Y277594D02*
D03*
X433809D02*
D03*
X505365Y58065D02*
D03*
X515365D02*
D03*
X341769Y57418D02*
D03*
X351768D02*
D03*
D34*
X195698Y62462D02*
D03*
X88887Y148620D02*
D03*
X68887Y157773D02*
D03*
X467568Y62462D02*
D03*
X360757Y148620D02*
D03*
X340757Y157773D02*
D03*
D35*
X205698Y72462D02*
D03*
X215698Y62462D02*
D03*
X68887Y148620D02*
D03*
X88887Y157773D02*
D03*
X477568Y72462D02*
D03*
X487569Y62462D02*
D03*
X340757Y148620D02*
D03*
X360757Y157773D02*
D03*
D36*
X135876Y55154D02*
D03*
X125876D02*
D03*
X105876D02*
D03*
X115876D02*
D03*
X151252D02*
D03*
X161252D02*
D03*
X407746D02*
D03*
X397746D02*
D03*
X377746D02*
D03*
X387746D02*
D03*
X423122D02*
D03*
X433122D02*
D03*
D37*
X249698Y236662D02*
D03*
X229698D02*
D03*
X209698D02*
D03*
X177198Y117161D02*
D03*
X157198D02*
D03*
X137198D02*
D03*
X104198Y236662D02*
D03*
X84198D02*
D03*
X64198D02*
D03*
X249698Y117161D02*
D03*
X229698D02*
D03*
X209698D02*
D03*
X104198D02*
D03*
X84198D02*
D03*
X64198D02*
D03*
X521568Y236662D02*
D03*
X501569D02*
D03*
X481568D02*
D03*
X449068Y117161D02*
D03*
X429069D02*
D03*
X409068D02*
D03*
X376068Y236662D02*
D03*
X356068D02*
D03*
X336069D02*
D03*
X521568Y117161D02*
D03*
X501569D02*
D03*
X481568D02*
D03*
X376068D02*
D03*
X356068D02*
D03*
X336069D02*
D03*
D38*
X71505Y166750D02*
D03*
X86663Y176750D02*
D03*
X343376Y166750D02*
D03*
X358533Y176750D02*
D03*
D39*
X71505D02*
D03*
X86663Y166750D02*
D03*
X343376Y176750D02*
D03*
X358533Y166750D02*
D03*
D40*
X179609Y308261D02*
D03*
X243507D02*
D03*
X179609Y333261D02*
D03*
X243507D02*
D03*
X179609Y283261D02*
D03*
X243507D02*
D03*
X70390Y308261D02*
D03*
X134288D02*
D03*
X70390Y333261D02*
D03*
X134288D02*
D03*
X70390Y283261D02*
D03*
X134288D02*
D03*
X451479Y308261D02*
D03*
X515378D02*
D03*
X451479Y333261D02*
D03*
X515378D02*
D03*
X451479Y283261D02*
D03*
X515378D02*
D03*
X342261Y308261D02*
D03*
X406158D02*
D03*
X342261Y333261D02*
D03*
X406158D02*
D03*
X342261Y283261D02*
D03*
X406158D02*
D03*
D41*
X170817Y281532D02*
D03*
X130659Y97276D02*
D03*
X114616Y93087D02*
D03*
X197195Y106532D02*
D03*
X234596Y194622D02*
D03*
X210679Y205350D02*
D03*
X189517Y263323D02*
D03*
X215305Y125473D02*
D03*
X200246Y222181D02*
D03*
X149065Y191965D02*
D03*
X135088Y202693D02*
D03*
X119709Y209091D02*
D03*
X169513Y296488D02*
D03*
X161368Y271587D02*
D03*
X177903Y274839D02*
D03*
X211368Y250232D02*
D03*
X94808Y176750D02*
D03*
Y148620D02*
D03*
X105757Y157773D02*
D03*
Y167555D02*
D03*
X109891Y142260D02*
D03*
X62155Y177398D02*
D03*
X98474Y183697D02*
D03*
X113226Y230744D02*
D03*
X206459Y145778D02*
D03*
X238927Y120606D02*
D03*
X220521Y115784D02*
D03*
X73288Y187964D02*
D03*
X261663Y179366D02*
D03*
X265107Y184485D02*
D03*
X252411Y192358D02*
D03*
X252313Y161650D02*
D03*
X238927Y149543D02*
D03*
X252313Y145606D02*
D03*
X227214Y131999D02*
D03*
X238927Y138717D02*
D03*
X148080Y119160D02*
D03*
X167273Y119130D02*
D03*
X182726Y122177D02*
D03*
X176525Y133008D02*
D03*
X207529Y127398D02*
D03*
X199458Y139602D02*
D03*
X190502Y133008D02*
D03*
X176525Y162831D02*
D03*
X195915Y152398D02*
D03*
X186761Y146886D02*
D03*
X188927Y167949D02*
D03*
X211860Y184370D02*
D03*
X228592Y173756D02*
D03*
X236171Y161650D02*
D03*
X94808Y72374D02*
D03*
X219316Y271587D02*
D03*
X148080Y133402D02*
D03*
X177706Y185764D02*
D03*
X269119Y271587D02*
D03*
X221180Y94354D02*
D03*
X148376Y79984D02*
D03*
X211368Y228874D02*
D03*
X194414Y122177D02*
D03*
X168356Y191965D02*
D03*
X144611Y47472D02*
D03*
X84198Y124248D02*
D03*
X237549Y228874D02*
D03*
X148080Y146098D02*
D03*
X219316Y72374D02*
D03*
X119709Y147079D02*
D03*
X45005Y246685D02*
D03*
X130659Y64209D02*
D03*
X119709Y171980D02*
D03*
X174163Y217654D02*
D03*
X232597Y183672D02*
D03*
X194414Y47472D02*
D03*
X197588Y197378D02*
D03*
X127608Y252890D02*
D03*
X244217Y246685D02*
D03*
X139517Y233008D02*
D03*
X244217Y271587D02*
D03*
X45005Y122177D02*
D03*
X174458Y258303D02*
D03*
X69906Y97276D02*
D03*
X244217Y321390D02*
D03*
X125344Y219524D02*
D03*
X94808Y246685D02*
D03*
X110922Y119160D02*
D03*
X219832Y194819D02*
D03*
X170423Y226807D02*
D03*
X269119Y221783D02*
D03*
X72588Y208106D02*
D03*
X213428Y100528D02*
D03*
X69906Y122177D02*
D03*
X244217Y47472D02*
D03*
X144611Y321390D02*
D03*
X127608Y171886D02*
D03*
X45005Y147079D02*
D03*
X213428Y88224D02*
D03*
X169513Y346291D02*
D03*
X45005Y321390D02*
D03*
X69906Y296488D02*
D03*
X169161Y96913D02*
D03*
X45005Y47472D02*
D03*
X121195Y119456D02*
D03*
X94808Y97276D02*
D03*
X168356Y179465D02*
D03*
X244217Y346291D02*
D03*
X107529Y66768D02*
D03*
X191486Y206630D02*
D03*
X126171Y75783D02*
D03*
X127608Y192654D02*
D03*
Y152890D02*
D03*
X269119Y147079D02*
D03*
X194414Y346291D02*
D03*
Y72374D02*
D03*
X119709Y196882D02*
D03*
X169513Y147079D02*
D03*
X174458Y232811D02*
D03*
X119709Y346291D02*
D03*
X191486Y254366D02*
D03*
X127608Y130646D02*
D03*
X119709Y271587D02*
D03*
X194414Y321390D02*
D03*
X179102Y101807D02*
D03*
X69906Y271587D02*
D03*
X223671Y228874D02*
D03*
X119709Y47472D02*
D03*
X227017Y201217D02*
D03*
X222096Y157516D02*
D03*
X269119Y47472D02*
D03*
X94808Y119160D02*
D03*
X120067Y81079D02*
D03*
X144611Y246685D02*
D03*
X94808Y271587D02*
D03*
X45005Y97276D02*
D03*
Y72374D02*
D03*
Y296488D02*
D03*
X143553Y207024D02*
D03*
X147096Y225626D02*
D03*
X78887Y161773D02*
D03*
X94808Y47472D02*
D03*
X269119Y246685D02*
D03*
Y122177D02*
D03*
X119709Y296488D02*
D03*
X219316D02*
D03*
X169513Y321390D02*
D03*
X244217Y97276D02*
D03*
X169513Y47472D02*
D03*
X94808Y321390D02*
D03*
X45005Y221783D02*
D03*
X98474Y197378D02*
D03*
X170324Y267457D02*
D03*
X149065Y173854D02*
D03*
X135199Y130646D02*
D03*
X162571Y100037D02*
D03*
X69906Y47472D02*
D03*
X144611Y346291D02*
D03*
X138828Y139602D02*
D03*
X164321Y213421D02*
D03*
X244217Y72374D02*
D03*
X119931Y130646D02*
D03*
X94808Y346291D02*
D03*
X69906D02*
D03*
X119709Y321390D02*
D03*
X269119Y296488D02*
D03*
X134005Y212437D02*
D03*
X269119Y321390D02*
D03*
X86958Y184189D02*
D03*
X156458Y107811D02*
D03*
X269119Y97276D02*
D03*
X94808Y296488D02*
D03*
X110679Y192260D02*
D03*
X269119Y196882D02*
D03*
X64198Y152950D02*
D03*
X269119Y72374D02*
D03*
X219316Y321390D02*
D03*
X65994Y221787D02*
D03*
X169513Y72374D02*
D03*
X189043Y96913D02*
D03*
X110679Y183598D02*
D03*
X178494Y226807D02*
D03*
X144611Y271587D02*
D03*
X221850Y214799D02*
D03*
X119635Y158697D02*
D03*
X91879Y209091D02*
D03*
X135088Y186945D02*
D03*
X78789Y171749D02*
D03*
X144611Y296488D02*
D03*
X174458Y246591D02*
D03*
X269119Y171980D02*
D03*
X141289Y163618D02*
D03*
X194414Y296488D02*
D03*
X219316Y47472D02*
D03*
X194414Y271587D02*
D03*
X191486Y188126D02*
D03*
X69906Y246685D02*
D03*
X161368Y258598D02*
D03*
X69906Y321390D02*
D03*
X45005Y271587D02*
D03*
X81250Y144327D02*
D03*
X150246Y100037D02*
D03*
X244217Y296488D02*
D03*
X178297Y252398D02*
D03*
X45005Y171980D02*
D03*
X170620Y252398D02*
D03*
X134695Y156938D02*
D03*
X219316Y346291D02*
D03*
X45005Y196882D02*
D03*
X128382Y114971D02*
D03*
X69906Y72374D02*
D03*
X198376Y246591D02*
D03*
X165052Y267867D02*
D03*
X140305Y223461D02*
D03*
X120067Y104624D02*
D03*
X114616Y104268D02*
D03*
X135584Y219032D02*
D03*
X90108Y124248D02*
D03*
X110922D02*
D03*
X202903Y160468D02*
D03*
X159891Y263221D02*
D03*
X225836Y183681D02*
D03*
Y196197D02*
D03*
X230462Y161650D02*
D03*
X442687Y281532D02*
D03*
X402529Y97276D02*
D03*
X386486Y93087D02*
D03*
X469065Y106532D02*
D03*
X506466Y194622D02*
D03*
X482549Y205350D02*
D03*
X461387Y263323D02*
D03*
X487175Y125473D02*
D03*
X472116Y222181D02*
D03*
X420935Y191965D02*
D03*
X406958Y202693D02*
D03*
X391580Y209091D02*
D03*
X441383Y296488D02*
D03*
X433238Y271587D02*
D03*
X449773Y274839D02*
D03*
X483238Y250232D02*
D03*
X366678Y176750D02*
D03*
Y148620D02*
D03*
X377628Y157773D02*
D03*
Y167555D02*
D03*
X381761Y142260D02*
D03*
X334025Y177398D02*
D03*
X370344Y183697D02*
D03*
X385096Y230744D02*
D03*
X478329Y145778D02*
D03*
X510797Y120606D02*
D03*
X492391Y115784D02*
D03*
X345158Y187964D02*
D03*
X533533Y179366D02*
D03*
X536977Y184485D02*
D03*
X524281Y192358D02*
D03*
X524183Y161650D02*
D03*
X510797Y149543D02*
D03*
X524183Y145606D02*
D03*
X499084Y131999D02*
D03*
X510797Y138717D02*
D03*
X419950Y119160D02*
D03*
X439143Y119130D02*
D03*
X454596Y122177D02*
D03*
X448395Y133008D02*
D03*
X479399Y127398D02*
D03*
X471328Y139602D02*
D03*
X462372Y133008D02*
D03*
X448395Y162831D02*
D03*
X467785Y152398D02*
D03*
X458632Y146886D02*
D03*
X460797Y167949D02*
D03*
X483730Y184370D02*
D03*
X500462Y173756D02*
D03*
X508041Y161650D02*
D03*
X366678Y72374D02*
D03*
X491186Y271587D02*
D03*
X419950Y133402D02*
D03*
X449576Y185764D02*
D03*
X540989Y271587D02*
D03*
X493050Y94354D02*
D03*
X420246Y79984D02*
D03*
X483238Y228874D02*
D03*
X466284Y122177D02*
D03*
X440226Y191965D02*
D03*
X416481Y47472D02*
D03*
X356068Y124248D02*
D03*
X509419Y228874D02*
D03*
X419950Y146098D02*
D03*
X491186Y72374D02*
D03*
X391580Y147079D02*
D03*
X316875Y246685D02*
D03*
X402529Y64209D02*
D03*
X391580Y171980D02*
D03*
X446033Y217654D02*
D03*
X504467Y183672D02*
D03*
X466284Y47472D02*
D03*
X469458Y197378D02*
D03*
X399478Y252890D02*
D03*
X516087Y246685D02*
D03*
X411387Y233008D02*
D03*
X516087Y271587D02*
D03*
X316875Y122177D02*
D03*
X446328Y258303D02*
D03*
X341776Y97276D02*
D03*
X516087Y321390D02*
D03*
X397214Y219524D02*
D03*
X366678Y246685D02*
D03*
X382792Y119160D02*
D03*
X491702Y194819D02*
D03*
X442293Y226807D02*
D03*
X540989Y221783D02*
D03*
X344458Y208106D02*
D03*
X485298Y100528D02*
D03*
X341776Y122177D02*
D03*
X516087Y47472D02*
D03*
X416481Y321390D02*
D03*
X399478Y171886D02*
D03*
X316875Y147079D02*
D03*
X485298Y88224D02*
D03*
X441383Y346291D02*
D03*
X316875Y321390D02*
D03*
X341776Y296488D02*
D03*
X441032Y96913D02*
D03*
X316875Y47472D02*
D03*
X393066Y119456D02*
D03*
X366678Y97276D02*
D03*
X440226Y179465D02*
D03*
X516087Y346291D02*
D03*
X379399Y66768D02*
D03*
X463356Y206630D02*
D03*
X398041Y75783D02*
D03*
X399478Y192654D02*
D03*
Y152890D02*
D03*
X540989Y147079D02*
D03*
X466284Y346291D02*
D03*
Y72374D02*
D03*
X391580Y196882D02*
D03*
X441383Y147079D02*
D03*
X446328Y232811D02*
D03*
X391580Y346291D02*
D03*
X463356Y254366D02*
D03*
X399478Y130646D02*
D03*
X391580Y271587D02*
D03*
X466284Y321390D02*
D03*
X450973Y101807D02*
D03*
X341776Y271587D02*
D03*
X495541Y228874D02*
D03*
X391580Y47472D02*
D03*
X498887Y201217D02*
D03*
X493966Y157516D02*
D03*
X540989Y47472D02*
D03*
X366678Y119160D02*
D03*
X391937Y81079D02*
D03*
X416481Y246685D02*
D03*
X366678Y271587D02*
D03*
X316875Y97276D02*
D03*
Y72374D02*
D03*
Y296488D02*
D03*
X415423Y207024D02*
D03*
X418966Y225626D02*
D03*
X350758Y161773D02*
D03*
X366678Y47472D02*
D03*
X540989Y246685D02*
D03*
Y122177D02*
D03*
X391580Y296488D02*
D03*
X491186D02*
D03*
X441383Y321390D02*
D03*
X516087Y97276D02*
D03*
X441383Y47472D02*
D03*
X366678Y321390D02*
D03*
X316875Y221783D02*
D03*
X370344Y197378D02*
D03*
X442195Y267457D02*
D03*
X420935Y173854D02*
D03*
X407070Y130646D02*
D03*
X434441Y100037D02*
D03*
X341776Y47472D02*
D03*
X416481Y346291D02*
D03*
X410698Y139602D02*
D03*
X436191Y213421D02*
D03*
X516087Y72374D02*
D03*
X391801Y130646D02*
D03*
X366678Y346291D02*
D03*
X341776D02*
D03*
X391580Y321390D02*
D03*
X540989Y296488D02*
D03*
X405876Y212437D02*
D03*
X540989Y321390D02*
D03*
X358828Y184189D02*
D03*
X428328Y107811D02*
D03*
X540989Y97276D02*
D03*
X366678Y296488D02*
D03*
X382549Y192260D02*
D03*
X540989Y196882D02*
D03*
X336069Y152950D02*
D03*
X540989Y72374D02*
D03*
X491186Y321390D02*
D03*
X337864Y221787D02*
D03*
X441383Y72374D02*
D03*
X460914Y96913D02*
D03*
X382549Y183598D02*
D03*
X450364Y226807D02*
D03*
X416481Y271587D02*
D03*
X493720Y214799D02*
D03*
X391506Y158697D02*
D03*
X363750Y209091D02*
D03*
X406958Y186945D02*
D03*
X350659Y171749D02*
D03*
X416481Y296488D02*
D03*
X446328Y246591D02*
D03*
X540989Y171980D02*
D03*
X413159Y163618D02*
D03*
X466284Y296488D02*
D03*
X491186Y47472D02*
D03*
X466284Y271587D02*
D03*
X463356Y188126D02*
D03*
X341776Y246685D02*
D03*
X433238Y258598D02*
D03*
X341776Y321390D02*
D03*
X316875Y271587D02*
D03*
X353120Y144327D02*
D03*
X422116Y100037D02*
D03*
X516087Y296488D02*
D03*
X450167Y252398D02*
D03*
X316875Y171980D02*
D03*
X442490Y252398D02*
D03*
X406565Y156938D02*
D03*
X491186Y346291D02*
D03*
X316875Y196882D02*
D03*
X400252Y114971D02*
D03*
X341776Y72374D02*
D03*
X470246Y246591D02*
D03*
X436922Y267867D02*
D03*
X412175Y223461D02*
D03*
X391937Y104624D02*
D03*
X386486Y104268D02*
D03*
X407454Y219032D02*
D03*
X361978Y124248D02*
D03*
X382792D02*
D03*
X474773Y160468D02*
D03*
X431761Y263221D02*
D03*
X497706Y183681D02*
D03*
Y196197D02*
D03*
X502332Y161650D02*
D03*
D42*
X79131Y212685D02*
D03*
X115108Y203776D02*
D03*
X182726Y133183D02*
D03*
Y156934D02*
D03*
Y180055D02*
D03*
X195324Y174664D02*
D03*
X351001Y212685D02*
D03*
X386978Y203776D02*
D03*
X454596Y133183D02*
D03*
Y156934D02*
D03*
Y180055D02*
D03*
X467195Y174664D02*
D03*
M02*
