G04*
G04 #@! TF.GenerationSoftware,Altium Limited,Altium Designer,19.1.6 (110)*
G04*
G04 Layer_Physical_Order=1*
G04 Layer_Color=255*
%FSLAX25Y25*%
%MOIN*%
G70*
G01*
G75*
%ADD10C,0.11811*%
%ADD11R,0.02165X0.03543*%
%ADD12R,0.03740X0.03543*%
%ADD13R,0.07087X0.02362*%
%ADD14R,0.09843X0.06299*%
%ADD15R,0.06299X0.09843*%
%ADD16R,0.04331X0.06890*%
%ADD17R,0.03543X0.03740*%
%ADD18R,0.06890X0.04331*%
%ADD19R,0.05709X0.02362*%
%ADD20R,0.03150X0.01575*%
%ADD21R,0.06496X0.09843*%
%ADD22R,0.06299X0.12598*%
%ADD23R,0.12598X0.06299*%
%ADD24R,0.05512X0.03937*%
%ADD25R,0.02362X0.05709*%
%ADD26R,0.02362X0.03740*%
%ADD27R,0.02362X0.06299*%
%ADD28R,0.07087X0.03150*%
%ADD29C,0.01000*%
%ADD30C,0.02400*%
%ADD31C,0.01968*%
%ADD32C,0.06299*%
%ADD33C,0.06000*%
%ADD34R,0.04724X0.04724*%
%ADD35C,0.04724*%
%ADD36C,0.06600*%
%ADD37C,0.07087*%
%ADD38C,0.05906*%
%ADD39R,0.05906X0.05906*%
%ADD40C,0.08268*%
%ADD41C,0.02756*%
%ADD42C,0.03500*%
G36*
X520504Y335084D02*
X520004Y334985D01*
X519687Y335750D01*
X518896Y336780D01*
X517866Y337571D01*
X516666Y338069D01*
X515378Y338238D01*
X514089Y338069D01*
X512889Y337571D01*
X511859Y336780D01*
X511068Y335750D01*
X510570Y334549D01*
X510401Y333261D01*
X510570Y331973D01*
X511068Y330773D01*
X511859Y329743D01*
X512889Y328952D01*
X514089Y328454D01*
X515378Y328285D01*
X516666Y328454D01*
X517866Y328952D01*
X518896Y329743D01*
X519687Y330773D01*
X520004Y331538D01*
X520504Y331439D01*
Y326162D01*
X520621Y325576D01*
X520952Y325080D01*
X521448Y324748D01*
X522034Y324632D01*
X543539D01*
X543539Y44281D01*
X314098D01*
X314098Y324632D01*
X335598D01*
X336184Y324748D01*
X336680Y325080D01*
X337012Y325576D01*
X337128Y326162D01*
Y331453D01*
X337628Y331553D01*
X337951Y330773D01*
X338742Y329743D01*
X339772Y328952D01*
X340972Y328454D01*
X341861Y328338D01*
Y333261D01*
Y338185D01*
X340972Y338069D01*
X339772Y337571D01*
X338742Y336780D01*
X337951Y335750D01*
X337628Y334970D01*
X337128Y335070D01*
Y352132D01*
X520504D01*
Y335084D01*
D02*
G37*
G36*
X248634D02*
X248134Y334985D01*
X247817Y335750D01*
X247026Y336780D01*
X245996Y337571D01*
X244795Y338069D01*
X243507Y338238D01*
X242219Y338069D01*
X241019Y337571D01*
X239988Y336780D01*
X239198Y335750D01*
X238700Y334549D01*
X238531Y333261D01*
X238700Y331973D01*
X239198Y330773D01*
X239988Y329743D01*
X241019Y328952D01*
X242219Y328454D01*
X243507Y328285D01*
X244795Y328454D01*
X245996Y328952D01*
X247026Y329743D01*
X247817Y330773D01*
X248134Y331538D01*
X248634Y331439D01*
Y326162D01*
X248750Y325576D01*
X249082Y325080D01*
X249578Y324748D01*
X250164Y324632D01*
X271669D01*
X271669Y44281D01*
X42228D01*
X42228Y324632D01*
X63728D01*
X64314Y324748D01*
X64810Y325080D01*
X65141Y325576D01*
X65258Y326162D01*
Y331453D01*
X65758Y331553D01*
X66081Y330773D01*
X66872Y329743D01*
X67902Y328952D01*
X69102Y328454D01*
X69990Y328338D01*
Y333261D01*
Y338185D01*
X69102Y338069D01*
X67902Y337571D01*
X66872Y336780D01*
X66081Y335750D01*
X65758Y334970D01*
X65258Y335070D01*
Y352132D01*
X248634D01*
Y335084D01*
D02*
G37*
%LPC*%
G36*
X451880Y338185D02*
Y333662D01*
X456403D01*
X456286Y334549D01*
X455789Y335750D01*
X454998Y336780D01*
X453968Y337571D01*
X452768Y338069D01*
X451880Y338185D01*
D02*
G37*
G36*
X342660D02*
Y333662D01*
X347184D01*
X347067Y334549D01*
X346570Y335750D01*
X345779Y336780D01*
X344749Y337571D01*
X343549Y338069D01*
X342660Y338185D01*
D02*
G37*
G36*
X451080D02*
X450191Y338069D01*
X448991Y337571D01*
X447961Y336780D01*
X447170Y335750D01*
X446672Y334549D01*
X446556Y333662D01*
X451080D01*
Y338185D01*
D02*
G37*
G36*
X456403Y332861D02*
X451880D01*
Y328338D01*
X452768Y328454D01*
X453968Y328952D01*
X454998Y329743D01*
X455789Y330773D01*
X456286Y331973D01*
X456403Y332861D01*
D02*
G37*
G36*
X347184D02*
X342660D01*
Y328338D01*
X343549Y328454D01*
X344749Y328952D01*
X345779Y329743D01*
X346570Y330773D01*
X347067Y331973D01*
X347184Y332861D01*
D02*
G37*
G36*
X451080D02*
X446556D01*
X446672Y331973D01*
X447170Y330773D01*
X447961Y329743D01*
X448991Y328952D01*
X450191Y328454D01*
X451080Y328338D01*
Y332861D01*
D02*
G37*
G36*
X406158Y338238D02*
X404871Y338069D01*
X403670Y337571D01*
X402640Y336780D01*
X401849Y335750D01*
X401351Y334549D01*
X401182Y333261D01*
X401351Y331973D01*
X401849Y330773D01*
X402640Y329743D01*
X403670Y328952D01*
X404871Y328454D01*
X406158Y328285D01*
X407447Y328454D01*
X408647Y328952D01*
X409678Y329743D01*
X410468Y330773D01*
X410965Y331973D01*
X411135Y333261D01*
X410965Y334549D01*
X410468Y335750D01*
X409678Y336780D01*
X408647Y337571D01*
X407447Y338069D01*
X406158Y338238D01*
D02*
G37*
G36*
X515378Y313238D02*
X514089Y313069D01*
X512889Y312571D01*
X511859Y311780D01*
X511068Y310750D01*
X510570Y309549D01*
X510401Y308261D01*
X510570Y306973D01*
X511068Y305773D01*
X511859Y304743D01*
X512889Y303952D01*
X514089Y303454D01*
X515378Y303285D01*
X516666Y303454D01*
X517866Y303952D01*
X518896Y304743D01*
X519687Y305773D01*
X520185Y306973D01*
X520354Y308261D01*
X520185Y309549D01*
X519687Y310750D01*
X518896Y311780D01*
X517866Y312571D01*
X516666Y313069D01*
X515378Y313238D01*
D02*
G37*
G36*
X451479D02*
X450191Y313069D01*
X448991Y312571D01*
X447961Y311780D01*
X447170Y310750D01*
X446672Y309549D01*
X446503Y308261D01*
X446672Y306973D01*
X447170Y305773D01*
X447961Y304743D01*
X448991Y303952D01*
X450191Y303454D01*
X451479Y303285D01*
X452768Y303454D01*
X453968Y303952D01*
X454998Y304743D01*
X455789Y305773D01*
X456286Y306973D01*
X456456Y308261D01*
X456286Y309549D01*
X455789Y310750D01*
X454998Y311780D01*
X453968Y312571D01*
X452768Y313069D01*
X451479Y313238D01*
D02*
G37*
G36*
X406158D02*
X404871Y313069D01*
X403670Y312571D01*
X402640Y311780D01*
X401849Y310750D01*
X401351Y309549D01*
X401182Y308261D01*
X401351Y306973D01*
X401849Y305773D01*
X402640Y304743D01*
X403670Y303952D01*
X404871Y303454D01*
X406158Y303285D01*
X407447Y303454D01*
X408647Y303952D01*
X409678Y304743D01*
X410468Y305773D01*
X410965Y306973D01*
X411135Y308261D01*
X410965Y309549D01*
X410468Y310750D01*
X409678Y311780D01*
X408647Y312571D01*
X407447Y313069D01*
X406158Y313238D01*
D02*
G37*
G36*
X342261D02*
X340972Y313069D01*
X339772Y312571D01*
X338742Y311780D01*
X337951Y310750D01*
X337454Y309549D01*
X337284Y308261D01*
X337454Y306973D01*
X337951Y305773D01*
X338742Y304743D01*
X339772Y303952D01*
X340972Y303454D01*
X342261Y303285D01*
X343549Y303454D01*
X344749Y303952D01*
X345779Y304743D01*
X346570Y305773D01*
X347067Y306973D01*
X347237Y308261D01*
X347067Y309549D01*
X346570Y310750D01*
X345779Y311780D01*
X344749Y312571D01*
X343549Y313069D01*
X342261Y313238D01*
D02*
G37*
G36*
X425009Y281211D02*
Y278795D01*
X427425D01*
X427128Y279511D01*
X426519Y280305D01*
X425725Y280914D01*
X425009Y281211D01*
D02*
G37*
G36*
X422609Y281211D02*
X421892Y280914D01*
X421099Y280305D01*
X420489Y279511D01*
X420193Y278795D01*
X422609D01*
Y281211D01*
D02*
G37*
G36*
X515378Y288238D02*
X514089Y288069D01*
X512889Y287571D01*
X511859Y286780D01*
X511068Y285750D01*
X510570Y284549D01*
X510401Y283261D01*
X510570Y281973D01*
X511068Y280773D01*
X511859Y279743D01*
X512889Y278952D01*
X514089Y278454D01*
X515378Y278285D01*
X516666Y278454D01*
X517866Y278952D01*
X518896Y279743D01*
X519687Y280773D01*
X520185Y281973D01*
X520354Y283261D01*
X520185Y284549D01*
X519687Y285750D01*
X518896Y286780D01*
X517866Y287571D01*
X516666Y288069D01*
X515378Y288238D01*
D02*
G37*
G36*
X451479D02*
X450191Y288069D01*
X448991Y287571D01*
X447961Y286780D01*
X447170Y285750D01*
X446672Y284549D01*
X446503Y283261D01*
X446672Y281973D01*
X447170Y280773D01*
X447961Y279743D01*
X448991Y278952D01*
X450191Y278454D01*
X451479Y278285D01*
X452768Y278454D01*
X453968Y278952D01*
X454998Y279743D01*
X455789Y280773D01*
X456286Y281973D01*
X456456Y283261D01*
X456286Y284549D01*
X455789Y285750D01*
X454998Y286780D01*
X453968Y287571D01*
X452768Y288069D01*
X451479Y288238D01*
D02*
G37*
G36*
X406158D02*
X404871Y288069D01*
X403670Y287571D01*
X402640Y286780D01*
X401849Y285750D01*
X401351Y284549D01*
X401182Y283261D01*
X401351Y281973D01*
X401849Y280773D01*
X402640Y279743D01*
X403670Y278952D01*
X404871Y278454D01*
X406158Y278285D01*
X407447Y278454D01*
X408647Y278952D01*
X409678Y279743D01*
X410468Y280773D01*
X410965Y281973D01*
X411135Y283261D01*
X410965Y284549D01*
X410468Y285750D01*
X409678Y286780D01*
X408647Y287571D01*
X407447Y288069D01*
X406158Y288238D01*
D02*
G37*
G36*
X427425Y276395D02*
X425009D01*
Y273978D01*
X425725Y274275D01*
X426519Y274884D01*
X427128Y275678D01*
X427425Y276395D01*
D02*
G37*
G36*
X422609D02*
X420193D01*
X420489Y275678D01*
X421099Y274884D01*
X421892Y274275D01*
X422609Y273978D01*
Y276395D01*
D02*
G37*
G36*
X431761Y265441D02*
X430912Y265272D01*
X430191Y264791D01*
X429710Y264070D01*
X429541Y263221D01*
X429598Y262932D01*
X427845Y261178D01*
X427557Y260748D01*
X427457Y260241D01*
Y260127D01*
X421950D01*
Y255377D01*
X430636D01*
Y260127D01*
X430636Y260127D01*
X430636D01*
X430914Y260498D01*
X431473Y261057D01*
X431761Y261000D01*
X432611Y261169D01*
X433332Y261650D01*
X433813Y262371D01*
X433982Y263221D01*
X433813Y264070D01*
X433332Y264791D01*
X432611Y265272D01*
X431761Y265441D01*
D02*
G37*
G36*
X448290Y256347D02*
X446709D01*
Y252798D01*
X448290D01*
Y256347D01*
D02*
G37*
G36*
X445909D02*
X444328D01*
Y252798D01*
X445909D01*
Y256347D01*
D02*
G37*
G36*
X436922Y270087D02*
X436072Y269918D01*
X435352Y269437D01*
X434871Y268717D01*
X434702Y267867D01*
X434871Y267017D01*
X435352Y266297D01*
X435597Y266133D01*
Y256347D01*
X434328D01*
Y250877D01*
X432528Y249078D01*
X430636D01*
Y250127D01*
X421950D01*
Y245377D01*
X430636D01*
Y246427D01*
X433077D01*
X433584Y246527D01*
X434015Y246815D01*
X435648Y248448D01*
X438290D01*
Y256347D01*
X438248D01*
Y266133D01*
X438492Y266297D01*
X438974Y267017D01*
X439143Y267867D01*
X438974Y268717D01*
X438492Y269437D01*
X437772Y269918D01*
X436922Y270087D01*
D02*
G37*
G36*
X448290Y251998D02*
X446709D01*
Y248448D01*
X448290D01*
Y251998D01*
D02*
G37*
G36*
X445909D02*
X444328D01*
Y248448D01*
X445909D01*
Y251998D01*
D02*
G37*
G36*
X467404Y252312D02*
X463756D01*
Y246991D01*
X467404D01*
Y252312D01*
D02*
G37*
G36*
X462956D02*
X459308D01*
Y246991D01*
X462956D01*
Y252312D01*
D02*
G37*
G36*
X342261Y288238D02*
X340972Y288069D01*
X339772Y287571D01*
X338742Y286780D01*
X337951Y285750D01*
X337454Y284549D01*
X337284Y283261D01*
X337454Y281973D01*
X337951Y280773D01*
X338742Y279743D01*
X339772Y278952D01*
X340972Y278454D01*
X342261Y278285D01*
X343549Y278454D01*
X344749Y278952D01*
X345779Y279743D01*
X346570Y280773D01*
X347052Y281936D01*
X385290D01*
X406223Y261002D01*
Y253636D01*
X402714Y250127D01*
X394391D01*
Y245377D01*
X403077D01*
Y246765D01*
X403152Y246815D01*
X408486Y252149D01*
X408773Y252579D01*
X408874Y253087D01*
Y261551D01*
X408773Y262058D01*
X408486Y262489D01*
X386776Y284199D01*
X386346Y284486D01*
X385839Y284587D01*
X347052D01*
X346570Y285750D01*
X345779Y286780D01*
X344749Y287571D01*
X343549Y288069D01*
X342261Y288238D01*
D02*
G37*
G36*
X467404Y246191D02*
X463756D01*
Y240869D01*
X467404D01*
Y246191D01*
D02*
G37*
G36*
X462956D02*
X459308D01*
Y240869D01*
X462956D01*
Y246191D01*
D02*
G37*
G36*
X430636Y240127D02*
X421950D01*
Y239077D01*
X403077D01*
Y240127D01*
X394391D01*
Y235377D01*
X403077D01*
Y236426D01*
X421950D01*
Y235377D01*
X430636D01*
Y240127D01*
D02*
G37*
G36*
X521568Y241042D02*
X520435Y240893D01*
X519378Y240456D01*
X518471Y239759D01*
X517774Y238852D01*
X517337Y237795D01*
X517188Y236662D01*
X517337Y235528D01*
X517774Y234471D01*
X518471Y233564D01*
X519378Y232867D01*
X520435Y232430D01*
X521568Y232280D01*
X522702Y232430D01*
X523759Y232867D01*
X524666Y233564D01*
X525363Y234471D01*
X525800Y235528D01*
X525949Y236662D01*
X525800Y237795D01*
X525363Y238852D01*
X524666Y239759D01*
X523759Y240456D01*
X522702Y240893D01*
X521568Y241042D01*
D02*
G37*
G36*
X481568D02*
X480435Y240893D01*
X479378Y240456D01*
X478471Y239759D01*
X477774Y238852D01*
X477337Y237795D01*
X477188Y236662D01*
X477337Y235528D01*
X477695Y234663D01*
X476986Y233953D01*
X476698Y233523D01*
X476597Y233016D01*
Y204862D01*
X476698Y204355D01*
X476986Y203925D01*
X481419Y199492D01*
X481849Y199205D01*
X482356Y199104D01*
X492925D01*
X495543Y196486D01*
X495486Y196197D01*
X495655Y195347D01*
X496136Y194627D01*
X496856Y194145D01*
X497706Y193976D01*
X498556Y194145D01*
X499277Y194627D01*
X499758Y195347D01*
X499927Y196197D01*
X499758Y197047D01*
X499277Y197767D01*
X498556Y198249D01*
X497706Y198417D01*
X497418Y198360D01*
X494411Y201366D01*
X493981Y201654D01*
X493474Y201755D01*
X482905D01*
X479248Y205411D01*
Y232456D01*
X479625Y232765D01*
X480435Y232430D01*
X481568Y232280D01*
X482702Y232430D01*
X483759Y232867D01*
X484666Y233564D01*
X485363Y234471D01*
X485800Y235528D01*
X485950Y236662D01*
X485800Y237795D01*
X485363Y238852D01*
X484666Y239759D01*
X483759Y240456D01*
X482702Y240893D01*
X481568Y241042D01*
D02*
G37*
G36*
X376068D02*
X374935Y240893D01*
X373878Y240456D01*
X372971Y239759D01*
X372274Y238852D01*
X371837Y237795D01*
X371688Y236662D01*
X371837Y235528D01*
X372050Y235013D01*
X366025Y228989D01*
X365751Y228579D01*
X364391D01*
Y227234D01*
X363573D01*
Y228579D01*
X358430D01*
Y223239D01*
X359676D01*
Y222489D01*
X359020D01*
Y215180D01*
X362982D01*
Y222489D01*
X362327D01*
Y223239D01*
X363573D01*
Y224583D01*
X364391D01*
Y223239D01*
X369534D01*
Y228579D01*
X369534Y228579D01*
X369534D01*
X369765Y228979D01*
X373751Y232965D01*
X373878Y232867D01*
X374935Y232430D01*
X376068Y232280D01*
X377202Y232430D01*
X378259Y232867D01*
X379166Y233564D01*
X379863Y234471D01*
X380300Y235528D01*
X380450Y236662D01*
X380300Y237795D01*
X379863Y238852D01*
X379166Y239759D01*
X378259Y240456D01*
X377202Y240893D01*
X376068Y241042D01*
D02*
G37*
G36*
X336069D02*
X334935Y240893D01*
X333878Y240456D01*
X332971Y239759D01*
X332275Y238852D01*
X331837Y237795D01*
X331688Y236662D01*
X331837Y235528D01*
X332195Y234663D01*
X323541Y226008D01*
X323253Y225578D01*
X323152Y225071D01*
Y211958D01*
X320233D01*
Y206027D01*
X328723D01*
Y211958D01*
X325803D01*
Y224522D01*
X334070Y232788D01*
X334935Y232430D01*
X336069Y232280D01*
X337202Y232430D01*
X338259Y232867D01*
X339166Y233564D01*
X339863Y234471D01*
X340300Y235528D01*
X340450Y236662D01*
X340300Y237795D01*
X339863Y238852D01*
X339166Y239759D01*
X338259Y240456D01*
X337202Y240893D01*
X336069Y241042D01*
D02*
G37*
G36*
X381565Y228591D02*
X376422D01*
Y227234D01*
X375636D01*
Y228579D01*
X370493D01*
Y223239D01*
X375636D01*
Y224583D01*
X376422D01*
Y223251D01*
X381565D01*
Y228591D01*
D02*
G37*
G36*
X448290Y230757D02*
X446709D01*
Y227207D01*
X448290D01*
Y230757D01*
D02*
G37*
G36*
X445909D02*
X444328D01*
Y227207D01*
X445909D01*
Y230757D01*
D02*
G37*
G36*
X387667Y228591D02*
X385496D01*
Y226321D01*
X387667D01*
Y228591D01*
D02*
G37*
G36*
X384696D02*
X382524D01*
Y226321D01*
X384696D01*
Y228591D01*
D02*
G37*
G36*
X387667Y225521D02*
X385496D01*
Y223251D01*
X387667D01*
Y225521D01*
D02*
G37*
G36*
X384696D02*
X382524D01*
Y223251D01*
X384696D01*
Y225521D01*
D02*
G37*
G36*
X448290Y226407D02*
X446709D01*
Y222857D01*
X448290D01*
Y226407D01*
D02*
G37*
G36*
X445909D02*
X444328D01*
Y222857D01*
X445909D01*
Y226407D01*
D02*
G37*
G36*
X431368Y234432D02*
X419754D01*
X419246Y234331D01*
X418816Y234044D01*
X411239Y226466D01*
X410952Y226036D01*
X410851Y225529D01*
Y225196D01*
X410605Y225031D01*
X410123Y224310D01*
X409954Y223461D01*
X410123Y222611D01*
X410605Y221890D01*
X411325Y221409D01*
X412175Y221240D01*
X413025Y221409D01*
X413745Y221890D01*
X414226Y222611D01*
X414395Y223461D01*
X414226Y224310D01*
X413745Y225031D01*
X413728Y225206D01*
X420303Y231781D01*
X430819D01*
X434328Y228272D01*
Y222857D01*
X438290D01*
Y230757D01*
X435592D01*
X432305Y234044D01*
X431875Y234331D01*
X431368Y234432D01*
D02*
G37*
G36*
X352982Y222489D02*
X349020D01*
Y220874D01*
X347139D01*
Y221406D01*
X341799D01*
Y216263D01*
X347139D01*
Y216795D01*
X348962D01*
Y214223D01*
X348599Y213680D01*
X348401Y212685D01*
X348599Y211690D01*
X349163Y210847D01*
X350006Y210283D01*
X351001Y210085D01*
X351996Y210283D01*
X352840Y210847D01*
X353403Y211690D01*
X353601Y212685D01*
X353403Y213680D01*
X353041Y214223D01*
Y218835D01*
X352982Y219127D01*
Y222489D01*
D02*
G37*
G36*
X387521Y221406D02*
X385251D01*
Y219235D01*
X387521D01*
Y221406D01*
D02*
G37*
G36*
X384451D02*
X382181D01*
Y219235D01*
X384451D01*
Y221406D01*
D02*
G37*
G36*
X438172Y220520D02*
X436591D01*
Y218250D01*
X438172D01*
Y220520D01*
D02*
G37*
G36*
X435791D02*
X434209D01*
Y218250D01*
X435791D01*
Y220520D01*
D02*
G37*
G36*
X501569Y241042D02*
X500435Y240893D01*
X499378Y240456D01*
X498471Y239759D01*
X497775Y238852D01*
X497337Y237795D01*
X497188Y236662D01*
X497337Y235528D01*
X497775Y234471D01*
X498471Y233564D01*
X499378Y232867D01*
X500243Y232509D01*
Y226131D01*
X495847D01*
Y218232D01*
X507290D01*
Y226131D01*
X502894D01*
Y232509D01*
X503759Y232867D01*
X504666Y233564D01*
X505363Y234471D01*
X505800Y235528D01*
X505949Y236662D01*
X505800Y237795D01*
X505363Y238852D01*
X504666Y239759D01*
X503759Y240456D01*
X502702Y240893D01*
X501569Y241042D01*
D02*
G37*
G36*
X403077Y230127D02*
X394391D01*
Y225377D01*
X399234D01*
X405291Y219320D01*
X405234Y219032D01*
X405403Y218182D01*
X405884Y217461D01*
X406605Y216980D01*
X407454Y216811D01*
X408304Y216980D01*
X409025Y217461D01*
X409188Y217706D01*
X414863D01*
Y217444D01*
X419613D01*
Y220619D01*
X414863D01*
Y220357D01*
X409188D01*
X409025Y220602D01*
X408304Y221083D01*
X407454Y221252D01*
X407166Y221195D01*
X403354Y225007D01*
X403077Y225377D01*
X403077D01*
X403077Y225377D01*
Y230127D01*
D02*
G37*
G36*
X387521Y218435D02*
X385251D01*
Y216263D01*
X387521D01*
Y218435D01*
D02*
G37*
G36*
X384451D02*
X382181D01*
Y216263D01*
X384451D01*
Y218435D01*
D02*
G37*
G36*
X367982Y222489D02*
X364020D01*
Y215180D01*
X367982D01*
Y217509D01*
X369920D01*
Y216263D01*
X375260D01*
Y217509D01*
X376028D01*
Y216263D01*
X381368D01*
Y221406D01*
X376028D01*
Y220160D01*
X375260D01*
Y221406D01*
X369920D01*
Y220160D01*
X367982D01*
Y222489D01*
D02*
G37*
G36*
X356068Y241042D02*
X354935Y240893D01*
X353878Y240456D01*
X352971Y239759D01*
X352274Y238852D01*
X351837Y237795D01*
X351688Y236662D01*
X351837Y235528D01*
X352274Y234471D01*
X352971Y233564D01*
X353573Y233101D01*
Y228579D01*
X352327D01*
Y223239D01*
X354676D01*
Y222489D01*
X354020D01*
Y215180D01*
X357982D01*
Y222489D01*
X357327D01*
Y223239D01*
X357471D01*
Y228579D01*
X356224D01*
Y232301D01*
X357202Y232430D01*
X358259Y232867D01*
X359166Y233564D01*
X359863Y234471D01*
X360300Y235528D01*
X360450Y236662D01*
X360300Y237795D01*
X359863Y238852D01*
X359166Y239759D01*
X358259Y240456D01*
X357202Y240893D01*
X356068Y241042D01*
D02*
G37*
G36*
X438172Y217450D02*
X436591D01*
Y215180D01*
X438172D01*
Y217450D01*
D02*
G37*
G36*
X435791D02*
X434209D01*
Y215180D01*
X435791D01*
Y217450D01*
D02*
G37*
G36*
X403077Y260127D02*
X394391D01*
Y256697D01*
X390175Y252481D01*
X389887Y252051D01*
X389786Y251544D01*
Y217498D01*
X387882Y215594D01*
X387521Y215304D01*
Y215304D01*
X387521Y215304D01*
X382181D01*
Y214058D01*
X381368D01*
Y215304D01*
X376028D01*
Y210161D01*
X381368D01*
Y211407D01*
X382181D01*
Y210161D01*
X387521D01*
Y211588D01*
X387832Y211795D01*
X392049Y216012D01*
X392336Y216442D01*
X392437Y216950D01*
Y250995D01*
X396819Y255377D01*
X403077D01*
Y260127D01*
D02*
G37*
G36*
X448703Y215698D02*
X446433D01*
Y213526D01*
X448703D01*
Y215698D01*
D02*
G37*
G36*
X445633D02*
X443363D01*
Y213526D01*
X445633D01*
Y215698D01*
D02*
G37*
G36*
X347139Y215304D02*
X344869D01*
Y213132D01*
X347139D01*
Y215304D01*
D02*
G37*
G36*
X344069D02*
X341799D01*
Y213132D01*
X344069D01*
Y215304D01*
D02*
G37*
G36*
X523402Y214990D02*
Y211459D01*
X526932D01*
X526849Y212090D01*
X526451Y213051D01*
X525818Y213876D01*
X524993Y214509D01*
X524033Y214907D01*
X523402Y214990D01*
D02*
G37*
G36*
X513559D02*
Y211459D01*
X517090D01*
X517007Y212090D01*
X516609Y213051D01*
X515976Y213876D01*
X515151Y214509D01*
X514190Y214907D01*
X513559Y214990D01*
D02*
G37*
G36*
X533244D02*
Y211459D01*
X536775D01*
X536692Y212090D01*
X536294Y213051D01*
X535661Y213876D01*
X534836Y214509D01*
X533875Y214907D01*
X533244Y214990D01*
D02*
G37*
G36*
X532444D02*
X531813Y214907D01*
X530852Y214509D01*
X530027Y213876D01*
X529394Y213051D01*
X528996Y212090D01*
X528913Y211459D01*
X532444D01*
Y214990D01*
D02*
G37*
G36*
X512759D02*
X512128Y214907D01*
X511167Y214509D01*
X510342Y213876D01*
X509709Y213051D01*
X509311Y212090D01*
X509228Y211459D01*
X512759D01*
Y214990D01*
D02*
G37*
G36*
X522602D02*
X521971Y214907D01*
X521010Y214509D01*
X520185Y213876D01*
X519552Y213051D01*
X519154Y212090D01*
X519071Y211459D01*
X522602D01*
Y214990D01*
D02*
G37*
G36*
X448703Y212726D02*
X446433D01*
Y210554D01*
X448703D01*
Y212726D01*
D02*
G37*
G36*
X445633D02*
X443363D01*
Y210554D01*
X445633D01*
Y212726D01*
D02*
G37*
G36*
X496291Y212450D02*
X494120D01*
Y210180D01*
X496291D01*
Y212450D01*
D02*
G37*
G36*
X493320D02*
X491148D01*
Y210180D01*
X493320D01*
Y212450D01*
D02*
G37*
G36*
X347139Y212332D02*
X344869D01*
Y210161D01*
X347139D01*
Y212332D01*
D02*
G37*
G36*
X344069D02*
X341799D01*
Y210161D01*
X344069D01*
Y212332D01*
D02*
G37*
G36*
X433809Y281427D02*
X432817Y281297D01*
X431892Y280914D01*
X431099Y280305D01*
X430489Y279511D01*
X430106Y278587D01*
X429976Y277594D01*
X430106Y276603D01*
X430489Y275678D01*
X431099Y274884D01*
X431892Y274275D01*
X432817Y273892D01*
X433809Y273762D01*
X434801Y273892D01*
X435725Y274275D01*
X436519Y274884D01*
X437034Y275555D01*
X437905D01*
X452262Y261199D01*
Y240882D01*
X452417Y240102D01*
X452859Y239440D01*
X459308Y232991D01*
Y226105D01*
X461317D01*
Y224345D01*
X459406D01*
Y214718D01*
X453751Y209063D01*
X448703D01*
Y209595D01*
X443363D01*
Y209063D01*
X441912D01*
Y209694D01*
X437950D01*
Y207316D01*
X437892Y207024D01*
X437950Y206732D01*
Y204354D01*
X441912D01*
Y204984D01*
X443363D01*
Y204452D01*
X448703D01*
Y204984D01*
X452557D01*
Y181593D01*
X452194Y181050D01*
X451996Y180055D01*
X452194Y179060D01*
X452758Y178217D01*
X453601Y177653D01*
X454596Y177455D01*
X455591Y177653D01*
X456434Y178217D01*
X456998Y179060D01*
X457196Y180055D01*
X456998Y181050D01*
X456635Y181593D01*
Y206179D01*
X460603Y210146D01*
X467306D01*
Y224345D01*
X465395D01*
Y226105D01*
X467404D01*
Y237548D01*
X460519D01*
X456340Y241727D01*
Y262043D01*
X456185Y262824D01*
X455743Y263485D01*
X440192Y279036D01*
X439530Y279479D01*
X438750Y279634D01*
X437034D01*
X436519Y280305D01*
X435725Y280914D01*
X434801Y281297D01*
X433809Y281427D01*
D02*
G37*
G36*
X422762Y209694D02*
X420591D01*
Y207424D01*
X422762D01*
Y209694D01*
D02*
G37*
G36*
X419791D02*
X417619D01*
Y207424D01*
X419791D01*
Y209694D01*
D02*
G37*
G36*
X526932Y210659D02*
X523402D01*
Y207128D01*
X524033Y207211D01*
X524993Y207609D01*
X525818Y208242D01*
X526451Y209067D01*
X526849Y210028D01*
X526932Y210659D01*
D02*
G37*
G36*
X517090D02*
X513559D01*
Y207128D01*
X514190Y207211D01*
X515151Y207609D01*
X515976Y208242D01*
X516609Y209067D01*
X517007Y210028D01*
X517090Y210659D01*
D02*
G37*
G36*
X536775D02*
X533244D01*
Y207128D01*
X533875Y207211D01*
X534836Y207609D01*
X535661Y208242D01*
X536294Y209067D01*
X536692Y210028D01*
X536775Y210659D01*
D02*
G37*
G36*
X532444D02*
X528913D01*
X528996Y210028D01*
X529394Y209067D01*
X530027Y208242D01*
X530852Y207609D01*
X531813Y207211D01*
X532444Y207128D01*
Y210659D01*
D02*
G37*
G36*
X522602D02*
X519071D01*
X519154Y210028D01*
X519552Y209067D01*
X520185Y208242D01*
X521010Y207609D01*
X521971Y207211D01*
X522602Y207128D01*
Y210659D01*
D02*
G37*
G36*
X512759D02*
X509228D01*
X509311Y210028D01*
X509709Y209067D01*
X510342Y208242D01*
X511167Y207609D01*
X512128Y207211D01*
X512759Y207128D01*
Y210659D01*
D02*
G37*
G36*
X496291Y209380D02*
X494120D01*
Y207109D01*
X496291D01*
Y209380D01*
D02*
G37*
G36*
X493320D02*
X491148D01*
Y207109D01*
X493320D01*
Y209380D01*
D02*
G37*
G36*
X461387Y265544D02*
X460538Y265374D01*
X459817Y264893D01*
X459336Y264173D01*
X459167Y263323D01*
X459336Y262473D01*
X459817Y261753D01*
X460538Y261271D01*
X461387Y261102D01*
X462237Y261271D01*
X462958Y261753D01*
X463121Y261997D01*
X476193D01*
X488323Y249868D01*
Y226131D01*
X481896D01*
Y218232D01*
X486292D01*
Y212450D01*
X485046D01*
Y207109D01*
X490189D01*
Y212450D01*
X488943D01*
Y218232D01*
X493339D01*
Y226131D01*
X490974D01*
Y250416D01*
X490974Y250416D01*
X490873Y250924D01*
X490585Y251354D01*
X477679Y264260D01*
X477249Y264547D01*
X476742Y264648D01*
X463121D01*
X462958Y264893D01*
X462237Y265374D01*
X461387Y265544D01*
D02*
G37*
G36*
X347073Y206052D02*
X341733D01*
Y204806D01*
X340971D01*
Y206052D01*
X335631D01*
Y204806D01*
X334868D01*
Y206052D01*
X329528D01*
Y200909D01*
X334868D01*
Y202155D01*
X335631D01*
Y200909D01*
X340971D01*
Y202155D01*
X341733D01*
Y200909D01*
X347073D01*
Y202155D01*
X352653D01*
X354020Y200788D01*
Y193724D01*
X357982D01*
Y201032D01*
X357257D01*
X357226Y201188D01*
X356939Y201618D01*
X354139Y204418D01*
X353709Y204705D01*
X353202Y204806D01*
X347073D01*
Y206052D01*
D02*
G37*
G36*
X430636Y230127D02*
X421950D01*
Y225377D01*
X424254D01*
Y220619D01*
X423918D01*
Y217444D01*
X424254D01*
Y209694D01*
X423721D01*
Y204354D01*
X428865D01*
Y204984D01*
X430469D01*
Y204354D01*
X434432D01*
Y206732D01*
X434490Y207024D01*
X434432Y207316D01*
Y209694D01*
X430469D01*
Y209063D01*
X428865D01*
Y209694D01*
X428332D01*
Y217444D01*
X428668D01*
Y220619D01*
X428332D01*
Y225377D01*
X430636D01*
Y230127D01*
D02*
G37*
G36*
X422762Y206624D02*
X420591D01*
Y204354D01*
X422762D01*
Y206624D01*
D02*
G37*
G36*
X419791D02*
X417619D01*
Y204354D01*
X419791D01*
Y206624D01*
D02*
G37*
G36*
X352982Y201032D02*
X349020D01*
Y198704D01*
X347073D01*
Y199950D01*
X341733D01*
Y198704D01*
X340971D01*
Y199950D01*
X335631D01*
Y194806D01*
X340971D01*
Y196053D01*
X341733D01*
Y194806D01*
X347073D01*
Y196053D01*
X349020D01*
Y193724D01*
X349676D01*
Y192209D01*
X348036D01*
Y183719D01*
X353967D01*
Y192209D01*
X352327D01*
Y193724D01*
X352982D01*
Y201032D01*
D02*
G37*
G36*
X467306Y204491D02*
X463756D01*
Y197792D01*
X467306D01*
Y204491D01*
D02*
G37*
G36*
X462956D02*
X459406D01*
Y197792D01*
X462956D01*
Y204491D01*
D02*
G37*
G36*
X367982Y201032D02*
X366401D01*
Y197778D01*
X367982D01*
Y201032D01*
D02*
G37*
G36*
X365601D02*
X364020D01*
Y197778D01*
X365601D01*
Y201032D01*
D02*
G37*
G36*
X328723Y200343D02*
X320233D01*
Y194413D01*
X328723D01*
Y196053D01*
X329528D01*
Y194806D01*
X334868D01*
Y199950D01*
X329528D01*
Y198704D01*
X328723D01*
Y200343D01*
D02*
G37*
G36*
X532844Y202444D02*
X531813Y202309D01*
X530852Y201910D01*
X530027Y201277D01*
X529394Y200452D01*
X528996Y199492D01*
X528861Y198461D01*
X528996Y197430D01*
X529272Y196763D01*
X527675Y195166D01*
X527387Y194736D01*
X527286Y194228D01*
Y187450D01*
X525942D01*
Y182306D01*
X531282D01*
Y187450D01*
X529937D01*
Y193679D01*
X531147Y194889D01*
X531813Y194613D01*
X532844Y194477D01*
X533875Y194613D01*
X534836Y195011D01*
X535661Y195644D01*
X536294Y196469D01*
X536692Y197430D01*
X536828Y198461D01*
X536692Y199492D01*
X536294Y200452D01*
X535661Y201277D01*
X534836Y201910D01*
X533875Y202309D01*
X532844Y202444D01*
D02*
G37*
G36*
X523002D02*
X521971Y202309D01*
X521010Y201910D01*
X520185Y201277D01*
X519552Y200452D01*
X519154Y199492D01*
X519018Y198461D01*
X519154Y197430D01*
X519552Y196469D01*
X520185Y195644D01*
X521010Y195011D01*
X521971Y194613D01*
X523002Y194477D01*
X524033Y194613D01*
X524993Y195011D01*
X525818Y195644D01*
X526451Y196469D01*
X526849Y197430D01*
X526985Y198461D01*
X526849Y199492D01*
X526451Y200452D01*
X525818Y201277D01*
X524993Y201910D01*
X524033Y202309D01*
X523002Y202444D01*
D02*
G37*
G36*
X367982Y196978D02*
X366401D01*
Y193724D01*
X367982D01*
Y196978D01*
D02*
G37*
G36*
X365601D02*
X364020D01*
Y193724D01*
X365601D01*
Y196978D01*
D02*
G37*
G36*
X467306Y196992D02*
X463756D01*
Y190293D01*
X467306D01*
Y196992D01*
D02*
G37*
G36*
X462956D02*
X459406D01*
Y190293D01*
X462956D01*
Y196992D01*
D02*
G37*
G36*
X375260Y215304D02*
X369920D01*
Y210161D01*
X370550D01*
Y208963D01*
X370706Y208182D01*
X371148Y207521D01*
X388238Y190430D01*
X388047Y189968D01*
X366563D01*
X363040Y193491D01*
Y197378D01*
X362982Y197670D01*
Y201032D01*
X359020D01*
Y197670D01*
X358962Y197378D01*
Y192646D01*
X359117Y191866D01*
X359559Y191204D01*
X364276Y186487D01*
X364938Y186045D01*
X365718Y185890D01*
X392778D01*
X404806Y173863D01*
Y164832D01*
X387439D01*
X386842Y165610D01*
X386017Y166243D01*
X385056Y166641D01*
X384025Y166776D01*
X382994Y166641D01*
X382033Y166243D01*
X381208Y165610D01*
X380575Y164785D01*
X380177Y163824D01*
X380042Y162793D01*
X380177Y161762D01*
X380575Y160801D01*
X381208Y159976D01*
X382033Y159343D01*
X382994Y158945D01*
X384025Y158809D01*
X385056Y158945D01*
X386017Y159343D01*
X386842Y159976D01*
X387439Y160754D01*
X406000D01*
X409816Y156938D01*
X392145Y139267D01*
X384432D01*
Y139799D01*
X379091D01*
Y134656D01*
X384432D01*
Y135188D01*
X392990D01*
X393770Y135344D01*
X394432Y135786D01*
X413545Y154899D01*
X416677D01*
Y153972D01*
X425167D01*
Y154899D01*
X426126D01*
Y153972D01*
X428332D01*
Y146129D01*
X428487Y145349D01*
X428929Y144687D01*
X432719Y140897D01*
Y135653D01*
X446917D01*
Y137563D01*
X462019D01*
X469307Y130275D01*
Y114092D01*
X469463Y113312D01*
X469905Y112650D01*
X475890Y106664D01*
X476552Y106222D01*
X477332Y106067D01*
X492513D01*
X493294Y106222D01*
X493955Y106664D01*
X500283Y112992D01*
X500435Y112930D01*
X501569Y112780D01*
X502702Y112930D01*
X503759Y113367D01*
X504666Y114064D01*
X505363Y114971D01*
X505800Y116028D01*
X505949Y117161D01*
X505800Y118295D01*
X505363Y119352D01*
X504666Y120259D01*
X503759Y120956D01*
X502702Y121393D01*
X501569Y121542D01*
X500435Y121393D01*
X499378Y120956D01*
X498471Y120259D01*
X497775Y119352D01*
X497337Y118295D01*
X497188Y117161D01*
X497337Y116028D01*
X497400Y115876D01*
X491669Y110145D01*
X478177D01*
X473386Y114937D01*
Y131120D01*
X473231Y131900D01*
X472788Y132562D01*
X465748Y139602D01*
X477488Y151343D01*
X508717D01*
X509498Y151498D01*
X510159Y151940D01*
X516855Y158636D01*
X517297Y159297D01*
X517381Y159722D01*
X519077D01*
Y163684D01*
X515715D01*
X515423Y163742D01*
X515131Y163684D01*
X511768D01*
Y159722D01*
X511768D01*
X511887Y159436D01*
X507873Y155421D01*
X482915D01*
Y156814D01*
X483447D01*
Y162154D01*
X478304D01*
Y156814D01*
X478836D01*
Y155421D01*
X476643D01*
X475863Y155266D01*
X475201Y154824D01*
X465365Y144987D01*
X464903Y145179D01*
Y159329D01*
X468636Y163062D01*
X469078Y163724D01*
X469234Y164504D01*
Y173126D01*
X469597Y173669D01*
X469795Y174664D01*
X469597Y175659D01*
X469033Y176502D01*
X468189Y177066D01*
X467195Y177264D01*
X466199Y177066D01*
X465356Y176502D01*
X464792Y175659D01*
X464595Y174664D01*
X464792Y173669D01*
X465155Y173126D01*
Y165349D01*
X461422Y161615D01*
X460980Y160954D01*
X460825Y160173D01*
Y141642D01*
X446917D01*
Y143552D01*
X435832D01*
X432410Y146974D01*
Y153972D01*
X434616D01*
Y159903D01*
X426126D01*
Y158977D01*
X425167D01*
Y159903D01*
X416677D01*
Y158977D01*
X413545D01*
X408884Y163637D01*
Y174707D01*
X408729Y175488D01*
X408287Y176149D01*
X395065Y189371D01*
X395065Y189371D01*
X374776Y209661D01*
X374983Y210161D01*
X375260D01*
Y215304D01*
D02*
G37*
G36*
X447311Y189615D02*
X440612D01*
Y186065D01*
X447311D01*
Y189615D01*
D02*
G37*
G36*
X439812D02*
X433113D01*
Y186065D01*
X439812D01*
Y189615D01*
D02*
G37*
G36*
X511991Y186342D02*
X509819D01*
Y184072D01*
X511991D01*
Y186342D01*
D02*
G37*
G36*
X509019D02*
X506847D01*
Y184072D01*
X509019D01*
Y186342D01*
D02*
G37*
G36*
X334830Y192863D02*
X329687D01*
Y187523D01*
X334830D01*
Y188867D01*
X336422D01*
Y183719D01*
X342353D01*
Y192209D01*
X336422D01*
Y191518D01*
X334830D01*
Y192863D01*
D02*
G37*
G36*
X513159Y202444D02*
X512128Y202309D01*
X511167Y201910D01*
X510342Y201277D01*
X509709Y200452D01*
X509311Y199492D01*
X509175Y198461D01*
X509311Y197430D01*
X509709Y196469D01*
X510342Y195644D01*
X511167Y195011D01*
X512128Y194613D01*
X513159Y194477D01*
X514190Y194613D01*
X514856Y194889D01*
X521184Y188561D01*
Y187450D01*
X519839D01*
Y182306D01*
X525180D01*
Y187450D01*
X523835D01*
Y189110D01*
X523734Y189618D01*
X523447Y190048D01*
X516731Y196763D01*
X517007Y197430D01*
X517143Y198461D01*
X517007Y199492D01*
X516609Y200452D01*
X515976Y201277D01*
X515151Y201910D01*
X514190Y202309D01*
X513159Y202444D01*
D02*
G37*
G36*
X447311Y185265D02*
X440612D01*
Y181716D01*
X447311D01*
Y185265D01*
D02*
G37*
G36*
X439812D02*
X433113D01*
Y181716D01*
X439812D01*
Y185265D01*
D02*
G37*
G36*
X511991Y183272D02*
X509819D01*
Y181002D01*
X511991D01*
Y183272D01*
D02*
G37*
G36*
X509019D02*
X506847D01*
Y181002D01*
X509019D01*
Y183272D01*
D02*
G37*
G36*
X477345Y180338D02*
X472005D01*
Y175195D01*
X477345D01*
Y176441D01*
X478107D01*
Y175195D01*
X483447D01*
Y176441D01*
X484209D01*
Y175195D01*
X489550D01*
Y175378D01*
X490312D01*
Y174722D01*
X497620D01*
Y178684D01*
X490312D01*
Y178029D01*
X489550D01*
Y180338D01*
X484209D01*
Y179092D01*
X483447D01*
Y180338D01*
X478107D01*
Y179092D01*
X477345D01*
Y180338D01*
D02*
G37*
G36*
X386978Y206376D02*
X385983Y206178D01*
X385139Y205614D01*
X384576Y204771D01*
X384378Y203776D01*
X384576Y202781D01*
X385139Y201937D01*
X385983Y201374D01*
X386978Y201176D01*
X387973Y201374D01*
X388516Y201736D01*
X398254D01*
X413259Y186731D01*
Y181716D01*
X424344D01*
X428332Y177728D01*
Y171517D01*
X426126D01*
Y165587D01*
X434616D01*
Y166513D01*
X435575D01*
Y165587D01*
X444065D01*
Y166513D01*
X452542D01*
X453322Y166668D01*
X453984Y167110D01*
X474830Y187957D01*
X511133D01*
X512950Y186141D01*
Y181002D01*
X513482D01*
Y178684D01*
X511768D01*
Y174722D01*
X515131D01*
X515423Y174664D01*
X515502D01*
X515794Y174722D01*
X519077D01*
Y178684D01*
X517560D01*
Y181002D01*
X518093D01*
Y186342D01*
X517560D01*
Y186453D01*
X517405Y187233D01*
X516963Y187895D01*
X513420Y191438D01*
X512758Y191880D01*
X511978Y192035D01*
X473986D01*
X473206Y191880D01*
X472544Y191438D01*
X451697Y170591D01*
X444065D01*
Y171517D01*
X435575D01*
Y170591D01*
X434616D01*
Y171517D01*
X432410D01*
Y178573D01*
X432410Y178573D01*
X432255Y179353D01*
X431813Y180015D01*
X431813Y180015D01*
X427458Y184370D01*
Y189615D01*
X416143D01*
X400540Y205218D01*
X399879Y205660D01*
X399098Y205815D01*
X388516D01*
X387973Y206178D01*
X386978Y206376D01*
D02*
G37*
G36*
X371827Y176566D02*
Y173035D01*
X375358D01*
X375275Y173666D01*
X374877Y174627D01*
X374244Y175452D01*
X373419Y176085D01*
X372458Y176483D01*
X371827Y176566D01*
D02*
G37*
G36*
X371027D02*
X370396Y176483D01*
X369435Y176085D01*
X368610Y175452D01*
X367977Y174627D01*
X367579Y173666D01*
X367496Y173035D01*
X371027D01*
Y176566D01*
D02*
G37*
G36*
X489550Y174235D02*
X484209D01*
Y172989D01*
X483447D01*
Y174235D01*
X478107D01*
Y169092D01*
X479550D01*
Y168257D01*
X478304D01*
Y162917D01*
X483447D01*
Y168257D01*
X482201D01*
Y169092D01*
X483447D01*
Y170338D01*
X484209D01*
Y169092D01*
X489550D01*
Y170338D01*
X490312D01*
Y169722D01*
X497620D01*
Y173684D01*
X490312D01*
Y172989D01*
X489550D01*
Y174235D01*
D02*
G37*
G36*
X497706Y185902D02*
X496856Y185733D01*
X496136Y185252D01*
X495655Y184531D01*
X495486Y183681D01*
X495655Y182832D01*
X496136Y182111D01*
X496856Y181630D01*
X497706Y181461D01*
X497995Y181518D01*
X508747Y170766D01*
X509177Y170479D01*
X509685Y170378D01*
X511768D01*
Y169722D01*
X519077D01*
Y170378D01*
X519839D01*
Y170234D01*
X525180D01*
Y171480D01*
X525942D01*
Y170234D01*
X531282D01*
Y175377D01*
X529937D01*
Y176204D01*
X531282D01*
Y181347D01*
X525942D01*
Y176204D01*
X527286D01*
Y175377D01*
X525942D01*
Y174131D01*
X525180D01*
Y175377D01*
X523835D01*
Y176204D01*
X525180D01*
Y181347D01*
X519839D01*
Y176204D01*
X521184D01*
Y175377D01*
X519839D01*
Y173029D01*
X519077D01*
Y173684D01*
X511768D01*
Y173029D01*
X510234D01*
X499869Y183393D01*
X499927Y183681D01*
X499758Y184531D01*
X499277Y185252D01*
X498556Y185733D01*
X497706Y185902D01*
D02*
G37*
G36*
X425167Y171517D02*
X421322D01*
Y168952D01*
X425167D01*
Y171517D01*
D02*
G37*
G36*
X420522D02*
X416677D01*
Y168952D01*
X420522D01*
Y171517D01*
D02*
G37*
G36*
X375358Y172235D02*
X371827D01*
Y168704D01*
X372458Y168788D01*
X373419Y169185D01*
X374244Y169819D01*
X374877Y170644D01*
X375275Y171604D01*
X375358Y172235D01*
D02*
G37*
G36*
X371027D02*
X367496D01*
X367579Y171604D01*
X367977Y170644D01*
X368610Y169819D01*
X369435Y169185D01*
X370396Y168788D01*
X371027Y168704D01*
Y172235D01*
D02*
G37*
G36*
X334830Y186761D02*
X329687D01*
Y181421D01*
X333054D01*
X338571Y175904D01*
X339001Y175616D01*
X339508Y175515D01*
X339623D01*
Y172996D01*
X347129D01*
Y175424D01*
X355020D01*
X355255Y174857D01*
X355856Y174073D01*
X356640Y173471D01*
X357553Y173093D01*
X358533Y172964D01*
X359513Y173093D01*
X360426Y173471D01*
X361210Y174073D01*
X361811Y174857D01*
X362190Y175770D01*
X362318Y176750D01*
X362190Y177729D01*
X361955Y178296D01*
X362486Y178828D01*
X375958D01*
X380453Y174333D01*
X380177Y173666D01*
X380042Y172635D01*
X380177Y171604D01*
X380575Y170644D01*
X381208Y169819D01*
X382033Y169185D01*
X382994Y168788D01*
X384025Y168652D01*
X385056Y168788D01*
X386017Y169185D01*
X386842Y169819D01*
X387475Y170644D01*
X387873Y171604D01*
X388009Y172635D01*
X387873Y173666D01*
X387475Y174627D01*
X386842Y175452D01*
X386017Y176085D01*
X385056Y176483D01*
X384025Y176619D01*
X382994Y176483D01*
X382328Y176207D01*
X377444Y181091D01*
X377014Y181378D01*
X376507Y181479D01*
X361937D01*
X361430Y181378D01*
X361000Y181091D01*
X360080Y180171D01*
X359513Y180406D01*
X358533Y180535D01*
X357553Y180406D01*
X356640Y180028D01*
X355856Y179426D01*
X355255Y178642D01*
X355020Y178075D01*
X347129D01*
Y180502D01*
X339623D01*
Y179255D01*
X339161Y179063D01*
X334830Y183393D01*
Y186761D01*
D02*
G37*
G36*
X536977Y186705D02*
X536128Y186536D01*
X535407Y186055D01*
X534926Y185335D01*
X534757Y184485D01*
X534926Y183635D01*
X535407Y182915D01*
X535652Y182751D01*
Y173557D01*
X531650Y169554D01*
X531282Y169275D01*
Y169275D01*
X531282Y169275D01*
X525942D01*
Y168029D01*
X525180D01*
Y169275D01*
X519839D01*
Y168029D01*
X519077D01*
Y168684D01*
X511768D01*
Y164722D01*
X519077D01*
Y165378D01*
X519839D01*
Y164131D01*
X525180D01*
Y165378D01*
X525942D01*
Y164131D01*
X527294D01*
Y157447D01*
X527395Y156940D01*
X527682Y156510D01*
X528566Y155626D01*
Y148350D01*
X527221D01*
Y143206D01*
X532561D01*
Y148350D01*
X531217D01*
Y156175D01*
X531116Y156683D01*
X530829Y157113D01*
X529945Y157996D01*
Y164131D01*
X531282D01*
Y165546D01*
X531611Y165766D01*
X537915Y172070D01*
X538202Y172500D01*
X538303Y173008D01*
Y182751D01*
X538548Y182915D01*
X539029Y183635D01*
X539198Y184485D01*
X539029Y185335D01*
X538548Y186055D01*
X537827Y186536D01*
X536977Y186705D01*
D02*
G37*
G36*
X425167Y168152D02*
X421322D01*
Y165587D01*
X425167D01*
Y168152D01*
D02*
G37*
G36*
X420522D02*
X416677D01*
Y165587D01*
X420522D01*
Y168152D01*
D02*
G37*
G36*
X371827Y166724D02*
Y163193D01*
X375358D01*
X375275Y163824D01*
X374877Y164785D01*
X374244Y165610D01*
X373419Y166243D01*
X372458Y166641D01*
X371827Y166724D01*
D02*
G37*
G36*
X371027D02*
X370396Y166641D01*
X369435Y166243D01*
X368610Y165610D01*
X367977Y164785D01*
X367579Y163824D01*
X367496Y163193D01*
X371027D01*
Y166724D01*
D02*
G37*
G36*
X328728Y192863D02*
X323585D01*
Y187523D01*
X324831D01*
Y186761D01*
X323585D01*
Y181421D01*
X324831D01*
Y180307D01*
X324932Y179800D01*
X325219Y179370D01*
X338777Y165812D01*
X339207Y165525D01*
X339714Y165424D01*
X339862D01*
X340097Y164857D01*
X340699Y164073D01*
X341483Y163471D01*
X342050Y163236D01*
Y160940D01*
X342045Y160935D01*
X337596D01*
Y154611D01*
X339432D01*
Y151493D01*
X339163Y151382D01*
X338502Y150875D01*
X337996Y150214D01*
X337677Y149445D01*
X337568Y148620D01*
X337677Y147794D01*
X337996Y147025D01*
X338502Y146364D01*
X339163Y145858D01*
X339932Y145539D01*
X340757Y145430D01*
X341583Y145539D01*
X341852Y145650D01*
X351409Y136093D01*
X351631Y135945D01*
Y134262D01*
X358742D01*
Y135705D01*
X359406D01*
Y134361D01*
X364550D01*
Y139701D01*
X359406D01*
Y138356D01*
X358742D01*
Y139799D01*
X351631D01*
X351631Y139799D01*
Y139799D01*
X351227Y140025D01*
X343727Y147525D01*
X343838Y147794D01*
X343947Y148620D01*
X343838Y149445D01*
X343519Y150214D01*
X343013Y150875D01*
X342352Y151382D01*
X342083Y151493D01*
Y154611D01*
X343919D01*
Y159061D01*
X344313Y159454D01*
X344600Y159884D01*
X344701Y160391D01*
Y163236D01*
X345268Y163471D01*
X346052Y164073D01*
X346654Y164857D01*
X346889Y165424D01*
X354780D01*
Y162996D01*
X362286D01*
Y170502D01*
X354780D01*
Y168075D01*
X346889D01*
X346654Y168642D01*
X346052Y169426D01*
X345268Y170028D01*
X344355Y170406D01*
X343376Y170535D01*
X342396Y170406D01*
X341483Y170028D01*
X340699Y169426D01*
X340230Y168815D01*
X339635Y168703D01*
X327482Y180856D01*
Y181421D01*
X328728D01*
Y186761D01*
X327482D01*
Y187523D01*
X328728D01*
Y192863D01*
D02*
G37*
G36*
X497620Y163684D02*
X494366D01*
Y162103D01*
X497620D01*
Y163684D01*
D02*
G37*
G36*
X493566D02*
X490312D01*
Y162103D01*
X493566D01*
Y163684D01*
D02*
G37*
G36*
X497620Y161303D02*
X494366D01*
Y159722D01*
X497620D01*
Y161303D01*
D02*
G37*
G36*
X493566D02*
X490312D01*
Y159722D01*
X493566D01*
Y161303D01*
D02*
G37*
G36*
X497620Y168684D02*
X490312D01*
Y164722D01*
X497385D01*
X500169Y161938D01*
X500112Y161650D01*
X500281Y160800D01*
X500762Y160079D01*
X501482Y159598D01*
X502332Y159429D01*
X503182Y159598D01*
X503902Y160079D01*
X504384Y160800D01*
X504553Y161650D01*
X504384Y162499D01*
X503902Y163220D01*
X503182Y163701D01*
X502332Y163870D01*
X502044Y163813D01*
X498216Y167640D01*
X497786Y167928D01*
X497620Y167961D01*
Y168684D01*
D02*
G37*
G36*
X371027Y162393D02*
X367496D01*
X367579Y161762D01*
X367977Y160801D01*
X368610Y159976D01*
X369435Y159343D01*
X370396Y158945D01*
X371027Y158862D01*
Y162393D01*
D02*
G37*
G36*
X375358D02*
X371827D01*
Y158862D01*
X372458Y158945D01*
X373419Y159343D01*
X374244Y159976D01*
X374877Y160801D01*
X375275Y161762D01*
X375358Y162393D01*
D02*
G37*
G36*
X477345Y174235D02*
X472005D01*
Y169092D01*
X473448D01*
Y162202D01*
X473203Y162039D01*
X472722Y161318D01*
X472553Y160468D01*
X472722Y159619D01*
X473203Y158898D01*
X473923Y158417D01*
X474773Y158248D01*
X475623Y158417D01*
X476343Y158898D01*
X476825Y159619D01*
X476994Y160468D01*
X476825Y161318D01*
X476343Y162039D01*
X476099Y162202D01*
Y169092D01*
X477345D01*
Y174235D01*
D02*
G37*
G36*
X489550Y168257D02*
X484406D01*
Y162917D01*
X485652D01*
Y162154D01*
X484406D01*
Y156814D01*
X489550D01*
Y162154D01*
X488303D01*
Y162917D01*
X489550D01*
Y168257D01*
D02*
G37*
G36*
X444065Y159903D02*
X435575D01*
Y153972D01*
X444065D01*
Y154899D01*
X453053D01*
X453601Y154532D01*
X454596Y154334D01*
X455591Y154532D01*
X456434Y155096D01*
X456998Y155939D01*
X457196Y156934D01*
X456998Y157929D01*
X456434Y158773D01*
X455591Y159336D01*
X454596Y159534D01*
X453601Y159336D01*
X453063Y158977D01*
X444065D01*
Y159903D01*
D02*
G37*
G36*
X371827Y156881D02*
Y153350D01*
X375358D01*
X375275Y153981D01*
X374877Y154942D01*
X374244Y155767D01*
X373419Y156400D01*
X372458Y156798D01*
X371827Y156881D01*
D02*
G37*
G36*
X371027D02*
X370396Y156798D01*
X369435Y156400D01*
X368610Y155767D01*
X367977Y154942D01*
X367579Y153981D01*
X367496Y153350D01*
X371027D01*
Y156881D01*
D02*
G37*
G36*
Y152550D02*
X367496D01*
X367579Y151919D01*
X367977Y150959D01*
X368610Y150134D01*
X369435Y149500D01*
X370396Y149102D01*
X371027Y149019D01*
Y152550D01*
D02*
G37*
G36*
X375358D02*
X371827D01*
Y149019D01*
X372458Y149102D01*
X373419Y149500D01*
X374244Y150134D01*
X374877Y150959D01*
X375275Y151919D01*
X375358Y152550D01*
D02*
G37*
G36*
X360757Y160962D02*
X359932Y160854D01*
X359163Y160535D01*
X358502Y160028D01*
X357996Y159368D01*
X357677Y158599D01*
X357568Y157773D01*
X357677Y156948D01*
X357996Y156178D01*
X358502Y155518D01*
X359163Y155011D01*
X359432Y154900D01*
Y151782D01*
X357595D01*
Y145458D01*
X362045D01*
X363753Y143750D01*
X364183Y143463D01*
X364690Y143362D01*
X375762D01*
X376270Y143463D01*
X376699Y143750D01*
X382328Y149379D01*
X382994Y149102D01*
X384025Y148967D01*
X385056Y149102D01*
X386017Y149500D01*
X386842Y150134D01*
X387475Y150959D01*
X387873Y151919D01*
X388009Y152950D01*
X387873Y153981D01*
X387475Y154942D01*
X386842Y155767D01*
X386017Y156400D01*
X385056Y156798D01*
X384025Y156934D01*
X382994Y156798D01*
X382033Y156400D01*
X381208Y155767D01*
X380575Y154942D01*
X380177Y153981D01*
X380042Y152950D01*
X380177Y151919D01*
X380453Y151253D01*
X375213Y146013D01*
X365239D01*
X363919Y147332D01*
Y151782D01*
X362083D01*
Y154900D01*
X362352Y155011D01*
X363013Y155518D01*
X363520Y156178D01*
X363838Y156948D01*
X363947Y157773D01*
X363838Y158599D01*
X363520Y159368D01*
X363013Y160028D01*
X362352Y160535D01*
X361583Y160854D01*
X360757Y160962D01*
D02*
G37*
G36*
X489648Y148743D02*
X481158D01*
Y147104D01*
X480063D01*
X479899Y147348D01*
X479179Y147830D01*
X478329Y147999D01*
X477479Y147830D01*
X476759Y147348D01*
X476278Y146628D01*
X476109Y145778D01*
X476278Y144928D01*
X476759Y144208D01*
X477479Y143726D01*
X478329Y143557D01*
X479179Y143726D01*
X479899Y144208D01*
X480063Y144453D01*
X481158D01*
Y142813D01*
X489648D01*
Y144453D01*
X490410D01*
Y143108D01*
X491656D01*
Y142346D01*
X490410D01*
Y137005D01*
X495554D01*
Y142346D01*
X494307D01*
Y143108D01*
X495554D01*
Y148448D01*
X490410D01*
Y147104D01*
X489648D01*
Y148743D01*
D02*
G37*
G36*
X521439Y151499D02*
X513540D01*
Y147103D01*
X507827D01*
Y148350D01*
X502486D01*
Y147103D01*
X501656D01*
Y148448D01*
X496513D01*
Y143108D01*
X501656D01*
Y144453D01*
X502486D01*
Y143206D01*
X507827D01*
Y144453D01*
X513540D01*
Y140057D01*
X521439D01*
Y151499D01*
D02*
G37*
G36*
X427064Y143552D02*
X420365D01*
Y140002D01*
X427064D01*
Y143552D01*
D02*
G37*
G36*
X419565D02*
X412865D01*
Y140002D01*
X419565D01*
Y143552D01*
D02*
G37*
G36*
X378428Y139799D02*
X371316D01*
Y138356D01*
X370652D01*
Y139701D01*
X365509D01*
Y134361D01*
X366755D01*
Y133598D01*
X365509D01*
Y128258D01*
X370652D01*
Y133598D01*
X369406D01*
Y134361D01*
X370652D01*
Y135705D01*
X371316D01*
Y134262D01*
X378428D01*
Y139799D01*
D02*
G37*
G36*
X532561Y142247D02*
X527221D01*
Y137104D01*
X527221Y137104D01*
X527221D01*
X526928Y136742D01*
X523338Y133152D01*
X521439D01*
Y137548D01*
X513540D01*
Y126105D01*
X521439D01*
Y130501D01*
X523887D01*
X524395Y130602D01*
X524825Y130890D01*
X530788Y136853D01*
X530956Y137104D01*
X532561D01*
Y142247D01*
D02*
G37*
G36*
X427064Y139202D02*
X420365D01*
Y135653D01*
X427064D01*
Y139202D01*
D02*
G37*
G36*
X419565D02*
X412865D01*
Y135653D01*
X419565D01*
Y139202D01*
D02*
G37*
G36*
X384432Y133697D02*
X379091D01*
Y132451D01*
X378428D01*
Y132516D01*
X371316D01*
Y126979D01*
X374743D01*
Y121314D01*
X373878Y120956D01*
X372971Y120259D01*
X372274Y119352D01*
X371837Y118295D01*
X371688Y117161D01*
X371837Y116028D01*
X372274Y114971D01*
X372971Y114064D01*
X373878Y113367D01*
X374935Y112930D01*
X376068Y112780D01*
X377202Y112930D01*
X378259Y113367D01*
X379166Y114064D01*
X379863Y114971D01*
X380300Y116028D01*
X380450Y117161D01*
X380300Y118295D01*
X379863Y119352D01*
X379166Y120259D01*
X378259Y120956D01*
X377394Y121314D01*
Y126979D01*
X378428D01*
Y129800D01*
X379091D01*
Y128554D01*
X384432D01*
Y133697D01*
D02*
G37*
G36*
X501656Y142346D02*
X496513D01*
Y137005D01*
X501656D01*
Y138350D01*
X502486D01*
Y137104D01*
X503831D01*
Y136243D01*
X502191D01*
Y127754D01*
X508122D01*
Y136243D01*
X506482D01*
Y137104D01*
X507827D01*
Y142247D01*
X502486D01*
Y141001D01*
X501656D01*
Y142346D01*
D02*
G37*
G36*
X489648Y137129D02*
X481158D01*
Y131199D01*
X484078D01*
Y127244D01*
X484179Y126737D01*
X484466Y126307D01*
X485012Y125761D01*
X484954Y125473D01*
X485123Y124623D01*
X485605Y123902D01*
X486325Y123421D01*
X487175Y123252D01*
X488025Y123421D01*
X488745Y123902D01*
X489226Y124623D01*
X489395Y125473D01*
X489226Y126322D01*
X488745Y127043D01*
X488025Y127524D01*
X487175Y127693D01*
X486729Y128086D01*
Y131199D01*
X489648D01*
Y137129D01*
D02*
G37*
G36*
X364550Y133598D02*
X359406D01*
Y128258D01*
X360652D01*
Y125982D01*
X360408Y125818D01*
X359926Y125098D01*
X359757Y124248D01*
X359926Y123398D01*
X360128Y123096D01*
X358067Y121035D01*
X357202Y121393D01*
X356068Y121542D01*
X354935Y121393D01*
X353878Y120956D01*
X352971Y120259D01*
X352274Y119352D01*
X351837Y118295D01*
X351688Y117161D01*
X351837Y116028D01*
X352274Y114971D01*
X352971Y114064D01*
X353878Y113367D01*
X354935Y112930D01*
X356068Y112780D01*
X357202Y112930D01*
X358259Y113367D01*
X359166Y114064D01*
X359863Y114971D01*
X360300Y116028D01*
X360450Y117161D01*
X360300Y118295D01*
X359942Y119160D01*
X362915Y122134D01*
X363062Y122353D01*
X363548Y122678D01*
X364030Y123398D01*
X364199Y124248D01*
X364030Y125098D01*
X363548Y125818D01*
X363303Y125982D01*
Y128258D01*
X364550D01*
Y133598D01*
D02*
G37*
G36*
X496508Y136243D02*
X490577D01*
Y127754D01*
X492217D01*
Y123881D01*
X486823Y118487D01*
X485721D01*
X485363Y119352D01*
X484666Y120259D01*
X483759Y120956D01*
X482702Y121393D01*
X481568Y121542D01*
X480435Y121393D01*
X479378Y120956D01*
X478471Y120259D01*
X477774Y119352D01*
X477337Y118295D01*
X477188Y117161D01*
X477337Y116028D01*
X477774Y114971D01*
X478471Y114064D01*
X479378Y113367D01*
X480435Y112930D01*
X481568Y112780D01*
X482702Y112930D01*
X483759Y113367D01*
X484666Y114064D01*
X485363Y114971D01*
X485721Y115836D01*
X487372D01*
X487879Y115937D01*
X488309Y116224D01*
X494480Y122395D01*
X494767Y122825D01*
X494868Y123332D01*
Y127754D01*
X496508D01*
Y136243D01*
D02*
G37*
G36*
X521568Y121542D02*
X520435Y121393D01*
X519378Y120956D01*
X518471Y120259D01*
X517774Y119352D01*
X517337Y118295D01*
X517188Y117161D01*
X517337Y116028D01*
X517774Y114971D01*
X518471Y114064D01*
X519378Y113367D01*
X520435Y112930D01*
X521568Y112780D01*
X522702Y112930D01*
X523759Y113367D01*
X524666Y114064D01*
X525363Y114971D01*
X525800Y116028D01*
X525949Y117161D01*
X525800Y118295D01*
X525363Y119352D01*
X524666Y120259D01*
X523759Y120956D01*
X522702Y121393D01*
X521568Y121542D01*
D02*
G37*
G36*
X382792Y126469D02*
X381943Y126300D01*
X381222Y125818D01*
X380741Y125098D01*
X380572Y124248D01*
X380741Y123398D01*
X381222Y122678D01*
X381943Y122196D01*
X382792Y122027D01*
X383642Y122196D01*
X384363Y122678D01*
X384526Y122923D01*
X441433D01*
X445195Y119160D01*
X444837Y118295D01*
X444688Y117161D01*
X444837Y116028D01*
X445274Y114971D01*
X445971Y114064D01*
X446878Y113367D01*
X447935Y112930D01*
X449068Y112780D01*
X450202Y112930D01*
X451259Y113367D01*
X452166Y114064D01*
X452863Y114971D01*
X453300Y116028D01*
X453449Y117161D01*
X453300Y118295D01*
X452863Y119352D01*
X452166Y120259D01*
X451259Y120956D01*
X450202Y121393D01*
X449068Y121542D01*
X447935Y121393D01*
X447070Y121035D01*
X442919Y125185D01*
X442489Y125473D01*
X441982Y125574D01*
X384526D01*
X384363Y125818D01*
X383642Y126300D01*
X382792Y126469D01*
D02*
G37*
G36*
X429069Y121542D02*
X427935Y121393D01*
X426878Y120956D01*
X425971Y120259D01*
X425275Y119352D01*
X424837Y118295D01*
X424688Y117161D01*
X424837Y116028D01*
X425275Y114971D01*
X425971Y114064D01*
X426878Y113367D01*
X427935Y112930D01*
X429069Y112780D01*
X430202Y112930D01*
X431259Y113367D01*
X432166Y114064D01*
X432863Y114971D01*
X433300Y116028D01*
X433450Y117161D01*
X433300Y118295D01*
X432863Y119352D01*
X432166Y120259D01*
X431259Y120956D01*
X430202Y121393D01*
X429069Y121542D01*
D02*
G37*
G36*
X358742Y132516D02*
X351631D01*
Y128066D01*
X347655Y124090D01*
X347368Y123660D01*
X347267Y123153D01*
Y114012D01*
X347368Y113505D01*
X347655Y113075D01*
X351789Y108941D01*
X352219Y108653D01*
X352726Y108553D01*
X401785D01*
X402292Y108653D01*
X402722Y108941D01*
X407070Y113288D01*
X407935Y112930D01*
X409068Y112780D01*
X410202Y112930D01*
X411259Y113367D01*
X412166Y114064D01*
X412863Y114971D01*
X413300Y116028D01*
X413449Y117161D01*
X413300Y118295D01*
X412863Y119352D01*
X412166Y120259D01*
X411259Y120956D01*
X410202Y121393D01*
X409068Y121542D01*
X407935Y121393D01*
X406878Y120956D01*
X405971Y120259D01*
X405274Y119352D01*
X404837Y118295D01*
X404688Y117161D01*
X404837Y116028D01*
X405195Y115163D01*
X401236Y111203D01*
X353275D01*
X349918Y114561D01*
Y122604D01*
X354293Y126979D01*
X358742D01*
Y132516D01*
D02*
G37*
G36*
X336069Y121542D02*
X334935Y121393D01*
X333878Y120956D01*
X332971Y120259D01*
X332275Y119352D01*
X331837Y118295D01*
X331688Y117161D01*
X331837Y116028D01*
X332275Y114971D01*
X332971Y114064D01*
X333878Y113367D01*
X334935Y112930D01*
X336069Y112780D01*
X337202Y112930D01*
X338259Y113367D01*
X339166Y114064D01*
X339863Y114971D01*
X340300Y116028D01*
X340450Y117161D01*
X340300Y118295D01*
X339863Y119352D01*
X339166Y120259D01*
X338259Y120956D01*
X337202Y121393D01*
X336069Y121542D01*
D02*
G37*
G36*
X386486Y106488D02*
X385636Y106319D01*
X384916Y105838D01*
X384434Y105117D01*
X384265Y104268D01*
X384323Y103979D01*
X383614Y103270D01*
X381919D01*
Y104516D01*
X378154D01*
Y99373D01*
X381919D01*
Y100619D01*
X384163D01*
X384670Y100720D01*
X385100Y101008D01*
X386197Y102104D01*
X386486Y102047D01*
X387336Y102216D01*
X388056Y102698D01*
X388537Y103418D01*
X388706Y104268D01*
X388537Y105117D01*
X388056Y105838D01*
X387336Y106319D01*
X386486Y106488D01*
D02*
G37*
G36*
X432278Y105758D02*
X428728D01*
Y100437D01*
X432278D01*
Y105758D01*
D02*
G37*
G36*
X427928D02*
X424379D01*
Y100437D01*
X427928D01*
Y105758D01*
D02*
G37*
G36*
X452954Y99583D02*
X451372D01*
Y97313D01*
X452954D01*
Y99583D01*
D02*
G37*
G36*
X450572D02*
X448991D01*
Y97313D01*
X450572D01*
Y99583D01*
D02*
G37*
G36*
X391937Y106844D02*
X391087Y106675D01*
X390367Y106194D01*
X389885Y105473D01*
X389716Y104624D01*
X389885Y103774D01*
X390367Y103053D01*
X390612Y102890D01*
Y102154D01*
X389267D01*
Y97011D01*
X394607D01*
Y102154D01*
X393263D01*
Y102890D01*
X393507Y103053D01*
X393989Y103774D01*
X394158Y104624D01*
X393989Y105473D01*
X393507Y106194D01*
X392787Y106675D01*
X391937Y106844D01*
D02*
G37*
G36*
X491019Y98303D02*
X485698D01*
Y94754D01*
X491019D01*
Y98303D01*
D02*
G37*
G36*
X484898D02*
X479576D01*
Y94754D01*
X484898D01*
Y98303D01*
D02*
G37*
G36*
X432278Y99637D02*
X428728D01*
Y94316D01*
X432278D01*
Y99637D01*
D02*
G37*
G36*
X427928D02*
X424379D01*
Y94316D01*
X427928D01*
Y99637D01*
D02*
G37*
G36*
X452954Y96513D02*
X451372D01*
Y94243D01*
X452954D01*
Y96513D01*
D02*
G37*
G36*
X450572D02*
X448991D01*
Y94243D01*
X450572D01*
Y96513D01*
D02*
G37*
G36*
X384478Y95658D02*
X382996D01*
Y93487D01*
X384478D01*
Y95658D01*
D02*
G37*
G36*
X382196D02*
X380713D01*
Y93487D01*
X382196D01*
Y95658D01*
D02*
G37*
G36*
X443702Y94760D02*
X441432D01*
Y92588D01*
X443702D01*
Y94760D01*
D02*
G37*
G36*
X463584D02*
X461313D01*
Y92588D01*
X463584D01*
Y94760D01*
D02*
G37*
G36*
X460513D02*
X458243D01*
Y92588D01*
X460513D01*
Y94760D01*
D02*
G37*
G36*
X440632D02*
X438362D01*
Y92588D01*
X440632D01*
Y94760D01*
D02*
G37*
G36*
X384478Y92687D02*
X382996D01*
Y90515D01*
X384478D01*
Y92687D01*
D02*
G37*
G36*
X382196D02*
X380713D01*
Y90515D01*
X382196D01*
Y92687D01*
D02*
G37*
G36*
X491019Y93954D02*
X485698D01*
Y90404D01*
X491019D01*
Y93954D01*
D02*
G37*
G36*
X484898D02*
X479576D01*
Y90404D01*
X484898D01*
Y93954D01*
D02*
G37*
G36*
X463584Y91788D02*
X461313D01*
Y89617D01*
X463584D01*
Y91788D01*
D02*
G37*
G36*
X460513D02*
X458243D01*
Y89617D01*
X460513D01*
Y91788D01*
D02*
G37*
G36*
X443702D02*
X441432D01*
Y89617D01*
X443702D01*
Y91788D01*
D02*
G37*
G36*
X440632D02*
X438362D01*
Y89617D01*
X440632D01*
Y91788D01*
D02*
G37*
G36*
X454596Y135783D02*
X453601Y135585D01*
X452758Y135021D01*
X452194Y134178D01*
X451996Y133183D01*
X452194Y132188D01*
X452758Y131344D01*
X453601Y130781D01*
X454242Y130653D01*
X457183Y127712D01*
Y107713D01*
X457338Y106932D01*
X457780Y106271D01*
X465366Y98685D01*
X465625Y98303D01*
X465625D01*
X465625Y98303D01*
Y90425D01*
X464027Y88827D01*
X463584Y88657D01*
Y88657D01*
X463584Y88657D01*
X458243D01*
Y88125D01*
X456694D01*
Y88756D01*
X452732D01*
Y86378D01*
X452673Y86086D01*
X452732Y85794D01*
Y83416D01*
X456694D01*
Y84047D01*
X458243D01*
Y83514D01*
X463584D01*
Y84047D01*
X464170D01*
X464951Y84202D01*
X465612Y84644D01*
X469522Y88554D01*
X469964Y89216D01*
X470119Y89996D01*
X470403Y90404D01*
X477068D01*
Y98303D01*
X470119D01*
Y98854D01*
X470119Y98854D01*
X469964Y99635D01*
X469522Y100296D01*
X469522Y100296D01*
X461261Y108557D01*
Y128557D01*
X461106Y129337D01*
X460664Y129999D01*
X457126Y133537D01*
X456998Y134178D01*
X456434Y135021D01*
X455591Y135585D01*
X454596Y135783D01*
D02*
G37*
G36*
X432278Y91807D02*
X424379D01*
Y88125D01*
X418118D01*
Y88657D01*
X412778D01*
Y88125D01*
X407753D01*
X407425Y88060D01*
X403402D01*
Y84098D01*
X407454D01*
X407746Y84040D01*
X407781Y84047D01*
X412778D01*
Y83514D01*
X418118D01*
Y84047D01*
X424379D01*
Y80365D01*
X432278D01*
Y84047D01*
X438362D01*
Y83514D01*
X443702D01*
Y84047D01*
X445251D01*
Y83416D01*
X449214D01*
Y85794D01*
X449272Y86086D01*
X449214Y86378D01*
Y88756D01*
X445251D01*
Y88125D01*
X443702D01*
Y88657D01*
X438362D01*
Y88125D01*
X432278D01*
Y91807D01*
D02*
G37*
G36*
X379360Y95658D02*
X375595D01*
Y94313D01*
X375585Y94311D01*
X375155Y94024D01*
X370884Y89753D01*
X369018D01*
Y84610D01*
X374358D01*
Y89478D01*
X375181Y90301D01*
X375595Y90515D01*
Y90515D01*
X375595Y90515D01*
X379360D01*
Y95658D01*
D02*
G37*
G36*
X418118Y82555D02*
X415848D01*
Y80383D01*
X418118D01*
Y82555D01*
D02*
G37*
G36*
X415048D02*
X412778D01*
Y80383D01*
X415048D01*
Y82555D01*
D02*
G37*
G36*
X394607Y96052D02*
X389267D01*
Y90909D01*
X390612D01*
Y87281D01*
X390712Y86774D01*
X391000Y86344D01*
X396265Y81079D01*
X390631Y75445D01*
X390344Y75015D01*
X390243Y74508D01*
Y59526D01*
X389558Y58841D01*
X388816Y59148D01*
X387746Y59289D01*
X386675Y59148D01*
X385678Y58735D01*
X384822Y58078D01*
X384164Y57221D01*
X383751Y56224D01*
X383610Y55154D01*
X383751Y54083D01*
X384164Y53086D01*
X384822Y52229D01*
X385678Y51572D01*
X386675Y51159D01*
X387746Y51018D01*
X388816Y51159D01*
X389813Y51572D01*
X390670Y52229D01*
X391327Y53086D01*
X391740Y54083D01*
X391881Y55154D01*
X391740Y56224D01*
X391433Y56966D01*
X392506Y58039D01*
X392793Y58469D01*
X392894Y58976D01*
Y73959D01*
X398688Y79753D01*
X403402D01*
Y79098D01*
X412089D01*
Y83060D01*
X403402D01*
Y82404D01*
X398688D01*
X393263Y87830D01*
Y90909D01*
X394607D01*
Y96052D01*
D02*
G37*
G36*
X374358Y83650D02*
X369018D01*
Y78507D01*
X374358D01*
Y79753D01*
X375056D01*
Y79098D01*
X383742D01*
Y83060D01*
X375056D01*
Y82404D01*
X374358D01*
Y83650D01*
D02*
G37*
G36*
X418118Y79584D02*
X415848D01*
Y77412D01*
X418118D01*
Y79584D01*
D02*
G37*
G36*
X415048D02*
X412778D01*
Y77412D01*
X415048D01*
Y79584D01*
D02*
G37*
G36*
X383742Y78060D02*
X375056D01*
Y77404D01*
X360429D01*
X359922Y77303D01*
X359492Y77016D01*
X343352Y60875D01*
X342760Y61120D01*
X341769Y61251D01*
X340776Y61120D01*
X339852Y60737D01*
X339058Y60128D01*
X338449Y59334D01*
X338066Y58410D01*
X337936Y57418D01*
X338066Y56426D01*
X338449Y55502D01*
X339058Y54708D01*
X339852Y54099D01*
X340776Y53716D01*
X341769Y53585D01*
X342760Y53716D01*
X343685Y54099D01*
X344479Y54708D01*
X345088Y55502D01*
X345471Y56426D01*
X345601Y57418D01*
X345471Y58410D01*
X345226Y59001D01*
X360978Y74753D01*
X375056D01*
Y74098D01*
X383742D01*
Y78060D01*
D02*
G37*
G36*
Y73060D02*
X379799D01*
Y71479D01*
X383742D01*
Y73060D01*
D02*
G37*
G36*
X378999D02*
X375056D01*
Y71479D01*
X378999D01*
Y73060D01*
D02*
G37*
G36*
X383742Y70679D02*
X379799D01*
Y69098D01*
X383742D01*
Y70679D01*
D02*
G37*
G36*
X378999D02*
X375056D01*
Y69098D01*
X378999D01*
Y70679D01*
D02*
G37*
G36*
X412089Y78060D02*
X403402D01*
Y77351D01*
X403164Y77303D01*
X402734Y77016D01*
X396808Y71091D01*
X396521Y70661D01*
X396420Y70154D01*
Y59042D01*
X395678Y58735D01*
X394822Y58078D01*
X394164Y57221D01*
X393751Y56224D01*
X393610Y55154D01*
X393751Y54083D01*
X394164Y53086D01*
X394822Y52229D01*
X395678Y51572D01*
X396675Y51159D01*
X397746Y51018D01*
X398816Y51159D01*
X399813Y51572D01*
X400670Y52229D01*
X401327Y53086D01*
X401740Y54083D01*
X401881Y55154D01*
X401740Y56224D01*
X401327Y57221D01*
X400670Y58078D01*
X399813Y58735D01*
X399071Y59042D01*
Y69604D01*
X403564Y74098D01*
X412089D01*
X412482Y73838D01*
X416552Y69767D01*
X416983Y69480D01*
X417490Y69379D01*
X420156D01*
Y66460D01*
X426087D01*
Y74950D01*
X420156D01*
Y72030D01*
X418039D01*
X413683Y76386D01*
X413253Y76673D01*
X412746Y76774D01*
X412089D01*
Y78060D01*
D02*
G37*
G36*
X437701Y74950D02*
X431771D01*
Y66460D01*
X437106D01*
X442042Y61525D01*
X442472Y61237D01*
X442979Y61136D01*
X464406D01*
Y59300D01*
X470730D01*
Y65624D01*
X464406D01*
Y63787D01*
X443528D01*
X437701Y69614D01*
Y74950D01*
D02*
G37*
G36*
X383742Y88060D02*
X375056D01*
Y84098D01*
X383742D01*
X383742Y84098D01*
Y84098D01*
X384081Y83766D01*
X385350Y82497D01*
Y64632D01*
X379558Y58841D01*
X378816Y59148D01*
X377746Y59289D01*
X376675Y59148D01*
X375678Y58735D01*
X374821Y58078D01*
X374164Y57221D01*
X373751Y56224D01*
X373610Y55154D01*
X373751Y54083D01*
X374164Y53086D01*
X374821Y52229D01*
X375678Y51572D01*
X376675Y51159D01*
X377746Y51018D01*
X378816Y51159D01*
X379813Y51572D01*
X380670Y52229D01*
X381327Y53086D01*
X381740Y54083D01*
X381881Y55154D01*
X381740Y56224D01*
X381433Y56966D01*
X387613Y63146D01*
X387900Y63576D01*
X388001Y64083D01*
Y83046D01*
X387900Y83553D01*
X387613Y83983D01*
X384579Y87016D01*
X384150Y87303D01*
X383742Y87384D01*
Y88060D01*
D02*
G37*
G36*
X515765Y61845D02*
Y58464D01*
X519145D01*
X519067Y59057D01*
X518684Y59981D01*
X518075Y60775D01*
X517282Y61384D01*
X516357Y61767D01*
X515765Y61845D01*
D02*
G37*
G36*
X514965D02*
X514373Y61767D01*
X513449Y61384D01*
X512655Y60775D01*
X512046Y59981D01*
X511663Y59057D01*
X511585Y58464D01*
X514965D01*
Y61845D01*
D02*
G37*
G36*
X352168Y61198D02*
Y57818D01*
X355549D01*
X355471Y58410D01*
X355088Y59334D01*
X354479Y60128D01*
X353685Y60737D01*
X352761Y61120D01*
X352168Y61198D01*
D02*
G37*
G36*
X351368D02*
X350777Y61120D01*
X349852Y60737D01*
X349058Y60128D01*
X348449Y59334D01*
X348066Y58410D01*
X347988Y57818D01*
X351368D01*
Y61198D01*
D02*
G37*
G36*
X433522Y59236D02*
Y55554D01*
X437205D01*
X437116Y56224D01*
X436703Y57221D01*
X436046Y58078D01*
X435190Y58735D01*
X434192Y59148D01*
X433522Y59236D01*
D02*
G37*
G36*
X432722D02*
X432052Y59148D01*
X431054Y58735D01*
X430198Y58078D01*
X429540Y57221D01*
X429127Y56224D01*
X429039Y55554D01*
X432722D01*
Y59236D01*
D02*
G37*
G36*
X514965Y57665D02*
X511585D01*
X511663Y57073D01*
X512046Y56148D01*
X512655Y55354D01*
X513449Y54745D01*
X514373Y54362D01*
X514965Y54284D01*
Y57665D01*
D02*
G37*
G36*
X519145D02*
X515765D01*
Y54284D01*
X516357Y54362D01*
X517282Y54745D01*
X518075Y55354D01*
X518684Y56148D01*
X519067Y57073D01*
X519145Y57665D01*
D02*
G37*
G36*
X477568Y75651D02*
X476743Y75542D01*
X475974Y75224D01*
X475313Y74717D01*
X474806Y74057D01*
X474488Y73287D01*
X474379Y72462D01*
X474488Y71636D01*
X474806Y70867D01*
X475313Y70207D01*
X475974Y69700D01*
X476743Y69381D01*
X477568Y69273D01*
X478394Y69381D01*
X478663Y69493D01*
X484599Y63556D01*
X484488Y63287D01*
X484379Y62462D01*
X484488Y61636D01*
X484806Y60867D01*
X485313Y60207D01*
X485974Y59700D01*
X486743Y59381D01*
X487569Y59273D01*
X488394Y59381D01*
X488663Y59493D01*
X491029Y57127D01*
X491459Y56840D01*
X491966Y56739D01*
X501801D01*
X502046Y56148D01*
X502655Y55354D01*
X503449Y54745D01*
X504373Y54362D01*
X505365Y54232D01*
X506357Y54362D01*
X507282Y54745D01*
X508075Y55354D01*
X508684Y56148D01*
X509067Y57073D01*
X509198Y58065D01*
X509067Y59057D01*
X508684Y59981D01*
X508075Y60775D01*
X507282Y61384D01*
X506357Y61767D01*
X505365Y61897D01*
X504373Y61767D01*
X503449Y61384D01*
X502655Y60775D01*
X502046Y59981D01*
X501801Y59390D01*
X492515D01*
X490538Y61367D01*
X490649Y61636D01*
X490758Y62462D01*
X490649Y63287D01*
X490331Y64056D01*
X489824Y64717D01*
X489163Y65224D01*
X488394Y65543D01*
X487569Y65651D01*
X486743Y65543D01*
X486474Y65431D01*
X480538Y71367D01*
X480649Y71636D01*
X480758Y72462D01*
X480649Y73287D01*
X480331Y74057D01*
X479824Y74717D01*
X479163Y75224D01*
X478394Y75542D01*
X477568Y75651D01*
D02*
G37*
G36*
X355549Y57018D02*
X352168D01*
Y53638D01*
X352761Y53716D01*
X353685Y54099D01*
X354479Y54708D01*
X355088Y55502D01*
X355471Y56426D01*
X355549Y57018D01*
D02*
G37*
G36*
X351368D02*
X347988D01*
X348066Y56426D01*
X348449Y55502D01*
X349058Y54708D01*
X349852Y54099D01*
X350777Y53716D01*
X351368Y53638D01*
Y57018D01*
D02*
G37*
G36*
X437205Y54754D02*
X433522D01*
Y51071D01*
X434192Y51159D01*
X435190Y51572D01*
X436046Y52229D01*
X436703Y53086D01*
X437116Y54083D01*
X437205Y54754D01*
D02*
G37*
G36*
X432722D02*
X429039D01*
X429127Y54083D01*
X429540Y53086D01*
X430198Y52229D01*
X431054Y51572D01*
X432052Y51159D01*
X432722Y51071D01*
Y54754D01*
D02*
G37*
G36*
X412089Y73060D02*
X403402D01*
Y69098D01*
X406420D01*
Y59042D01*
X405678Y58735D01*
X404821Y58078D01*
X404164Y57221D01*
X403751Y56224D01*
X403610Y55154D01*
X403751Y54083D01*
X404164Y53086D01*
X404821Y52229D01*
X405678Y51572D01*
X406675Y51159D01*
X407746Y51018D01*
X408816Y51159D01*
X409813Y51572D01*
X410670Y52229D01*
X411327Y53086D01*
X411634Y53828D01*
X419233D01*
X419541Y53086D01*
X420198Y52229D01*
X421054Y51572D01*
X422052Y51159D01*
X423122Y51018D01*
X424192Y51159D01*
X425190Y51572D01*
X426046Y52229D01*
X426703Y53086D01*
X427116Y54083D01*
X427257Y55154D01*
X427116Y56224D01*
X426703Y57221D01*
X426046Y58078D01*
X425190Y58735D01*
X424192Y59148D01*
X423122Y59289D01*
X422052Y59148D01*
X421054Y58735D01*
X420198Y58078D01*
X419541Y57221D01*
X419233Y56479D01*
X411634D01*
X411327Y57221D01*
X410670Y58078D01*
X409813Y58735D01*
X409071Y59042D01*
Y69098D01*
X412089D01*
Y73060D01*
D02*
G37*
G36*
X180009Y338185D02*
Y333662D01*
X184533D01*
X184416Y334549D01*
X183919Y335750D01*
X183128Y336780D01*
X182098Y337571D01*
X180897Y338069D01*
X180009Y338185D01*
D02*
G37*
G36*
X70790D02*
Y333662D01*
X75314D01*
X75197Y334549D01*
X74700Y335750D01*
X73909Y336780D01*
X72879Y337571D01*
X71679Y338069D01*
X70790Y338185D01*
D02*
G37*
G36*
X179209D02*
X178321Y338069D01*
X177121Y337571D01*
X176091Y336780D01*
X175300Y335750D01*
X174802Y334549D01*
X174686Y333662D01*
X179209D01*
Y338185D01*
D02*
G37*
G36*
X184533Y332861D02*
X180009D01*
Y328338D01*
X180897Y328454D01*
X182098Y328952D01*
X183128Y329743D01*
X183919Y330773D01*
X184416Y331973D01*
X184533Y332861D01*
D02*
G37*
G36*
X75314D02*
X70790D01*
Y328338D01*
X71679Y328454D01*
X72879Y328952D01*
X73909Y329743D01*
X74700Y330773D01*
X75197Y331973D01*
X75314Y332861D01*
D02*
G37*
G36*
X179209D02*
X174686D01*
X174802Y331973D01*
X175300Y330773D01*
X176091Y329743D01*
X177121Y328952D01*
X178321Y328454D01*
X179209Y328338D01*
Y332861D01*
D02*
G37*
G36*
X134288Y338238D02*
X133000Y338069D01*
X131800Y337571D01*
X130770Y336780D01*
X129979Y335750D01*
X129481Y334549D01*
X129312Y333261D01*
X129481Y331973D01*
X129979Y330773D01*
X130770Y329743D01*
X131800Y328952D01*
X133000Y328454D01*
X134288Y328285D01*
X135576Y328454D01*
X136777Y328952D01*
X137807Y329743D01*
X138598Y330773D01*
X139095Y331973D01*
X139265Y333261D01*
X139095Y334549D01*
X138598Y335750D01*
X137807Y336780D01*
X136777Y337571D01*
X135576Y338069D01*
X134288Y338238D01*
D02*
G37*
G36*
X243507Y313238D02*
X242219Y313069D01*
X241019Y312571D01*
X239988Y311780D01*
X239198Y310750D01*
X238700Y309549D01*
X238531Y308261D01*
X238700Y306973D01*
X239198Y305773D01*
X239988Y304743D01*
X241019Y303952D01*
X242219Y303454D01*
X243507Y303285D01*
X244795Y303454D01*
X245996Y303952D01*
X247026Y304743D01*
X247817Y305773D01*
X248314Y306973D01*
X248484Y308261D01*
X248314Y309549D01*
X247817Y310750D01*
X247026Y311780D01*
X245996Y312571D01*
X244795Y313069D01*
X243507Y313238D01*
D02*
G37*
G36*
X179609D02*
X178321Y313069D01*
X177121Y312571D01*
X176091Y311780D01*
X175300Y310750D01*
X174802Y309549D01*
X174633Y308261D01*
X174802Y306973D01*
X175300Y305773D01*
X176091Y304743D01*
X177121Y303952D01*
X178321Y303454D01*
X179609Y303285D01*
X180897Y303454D01*
X182098Y303952D01*
X183128Y304743D01*
X183919Y305773D01*
X184416Y306973D01*
X184586Y308261D01*
X184416Y309549D01*
X183919Y310750D01*
X183128Y311780D01*
X182098Y312571D01*
X180897Y313069D01*
X179609Y313238D01*
D02*
G37*
G36*
X134288D02*
X133000Y313069D01*
X131800Y312571D01*
X130770Y311780D01*
X129979Y310750D01*
X129481Y309549D01*
X129312Y308261D01*
X129481Y306973D01*
X129979Y305773D01*
X130770Y304743D01*
X131800Y303952D01*
X133000Y303454D01*
X134288Y303285D01*
X135576Y303454D01*
X136777Y303952D01*
X137807Y304743D01*
X138598Y305773D01*
X139095Y306973D01*
X139265Y308261D01*
X139095Y309549D01*
X138598Y310750D01*
X137807Y311780D01*
X136777Y312571D01*
X135576Y313069D01*
X134288Y313238D01*
D02*
G37*
G36*
X70390D02*
X69102Y313069D01*
X67902Y312571D01*
X66872Y311780D01*
X66081Y310750D01*
X65583Y309549D01*
X65414Y308261D01*
X65583Y306973D01*
X66081Y305773D01*
X66872Y304743D01*
X67902Y303952D01*
X69102Y303454D01*
X70390Y303285D01*
X71679Y303454D01*
X72879Y303952D01*
X73909Y304743D01*
X74700Y305773D01*
X75197Y306973D01*
X75367Y308261D01*
X75197Y309549D01*
X74700Y310750D01*
X73909Y311780D01*
X72879Y312571D01*
X71679Y313069D01*
X70390Y313238D01*
D02*
G37*
G36*
X153139Y281211D02*
Y278795D01*
X155555D01*
X155258Y279511D01*
X154649Y280305D01*
X153855Y280914D01*
X153139Y281211D01*
D02*
G37*
G36*
X150739Y281211D02*
X150022Y280914D01*
X149228Y280305D01*
X148619Y279511D01*
X148323Y278795D01*
X150739D01*
Y281211D01*
D02*
G37*
G36*
X243507Y288238D02*
X242219Y288069D01*
X241019Y287571D01*
X239988Y286780D01*
X239198Y285750D01*
X238700Y284549D01*
X238531Y283261D01*
X238700Y281973D01*
X239198Y280773D01*
X239988Y279743D01*
X241019Y278952D01*
X242219Y278454D01*
X243507Y278285D01*
X244795Y278454D01*
X245996Y278952D01*
X247026Y279743D01*
X247817Y280773D01*
X248314Y281973D01*
X248484Y283261D01*
X248314Y284549D01*
X247817Y285750D01*
X247026Y286780D01*
X245996Y287571D01*
X244795Y288069D01*
X243507Y288238D01*
D02*
G37*
G36*
X179609D02*
X178321Y288069D01*
X177121Y287571D01*
X176091Y286780D01*
X175300Y285750D01*
X174802Y284549D01*
X174633Y283261D01*
X174802Y281973D01*
X175300Y280773D01*
X176091Y279743D01*
X177121Y278952D01*
X178321Y278454D01*
X179609Y278285D01*
X180897Y278454D01*
X182098Y278952D01*
X183128Y279743D01*
X183919Y280773D01*
X184416Y281973D01*
X184586Y283261D01*
X184416Y284549D01*
X183919Y285750D01*
X183128Y286780D01*
X182098Y287571D01*
X180897Y288069D01*
X179609Y288238D01*
D02*
G37*
G36*
X134288D02*
X133000Y288069D01*
X131800Y287571D01*
X130770Y286780D01*
X129979Y285750D01*
X129481Y284549D01*
X129312Y283261D01*
X129481Y281973D01*
X129979Y280773D01*
X130770Y279743D01*
X131800Y278952D01*
X133000Y278454D01*
X134288Y278285D01*
X135576Y278454D01*
X136777Y278952D01*
X137807Y279743D01*
X138598Y280773D01*
X139095Y281973D01*
X139265Y283261D01*
X139095Y284549D01*
X138598Y285750D01*
X137807Y286780D01*
X136777Y287571D01*
X135576Y288069D01*
X134288Y288238D01*
D02*
G37*
G36*
X155555Y276395D02*
X153139D01*
Y273978D01*
X153855Y274275D01*
X154649Y274884D01*
X155258Y275678D01*
X155555Y276395D01*
D02*
G37*
G36*
X150739D02*
X148323D01*
X148619Y275678D01*
X149228Y274884D01*
X150022Y274275D01*
X150739Y273978D01*
Y276395D01*
D02*
G37*
G36*
X159891Y265441D02*
X159042Y265272D01*
X158321Y264791D01*
X157840Y264070D01*
X157671Y263221D01*
X157728Y262932D01*
X155975Y261178D01*
X155687Y260748D01*
X155586Y260241D01*
Y260127D01*
X150080D01*
Y255377D01*
X158766D01*
Y260127D01*
X158766Y260127D01*
X158766D01*
X159044Y260498D01*
X159603Y261057D01*
X159891Y261000D01*
X160741Y261169D01*
X161462Y261650D01*
X161943Y262371D01*
X162112Y263221D01*
X161943Y264070D01*
X161462Y264791D01*
X160741Y265272D01*
X159891Y265441D01*
D02*
G37*
G36*
X176420Y256347D02*
X174839D01*
Y252798D01*
X176420D01*
Y256347D01*
D02*
G37*
G36*
X174039D02*
X172458D01*
Y252798D01*
X174039D01*
Y256347D01*
D02*
G37*
G36*
X165052Y270087D02*
X164202Y269918D01*
X163482Y269437D01*
X163001Y268717D01*
X162831Y267867D01*
X163001Y267017D01*
X163482Y266297D01*
X163727Y266133D01*
Y256347D01*
X162458D01*
Y250877D01*
X160658Y249078D01*
X158766D01*
Y250127D01*
X150080D01*
Y245377D01*
X158766D01*
Y246427D01*
X161207D01*
X161714Y246527D01*
X162144Y246815D01*
X163778Y248448D01*
X166420D01*
Y256347D01*
X166377D01*
Y266133D01*
X166622Y266297D01*
X167104Y267017D01*
X167273Y267867D01*
X167104Y268717D01*
X166622Y269437D01*
X165902Y269918D01*
X165052Y270087D01*
D02*
G37*
G36*
X176420Y251998D02*
X174839D01*
Y248448D01*
X176420D01*
Y251998D01*
D02*
G37*
G36*
X174039D02*
X172458D01*
Y248448D01*
X174039D01*
Y251998D01*
D02*
G37*
G36*
X195534Y252312D02*
X191886D01*
Y246991D01*
X195534D01*
Y252312D01*
D02*
G37*
G36*
X191086D02*
X187438D01*
Y246991D01*
X191086D01*
Y252312D01*
D02*
G37*
G36*
X70390Y288238D02*
X69102Y288069D01*
X67902Y287571D01*
X66872Y286780D01*
X66081Y285750D01*
X65583Y284549D01*
X65414Y283261D01*
X65583Y281973D01*
X66081Y280773D01*
X66872Y279743D01*
X67902Y278952D01*
X69102Y278454D01*
X70390Y278285D01*
X71679Y278454D01*
X72879Y278952D01*
X73909Y279743D01*
X74700Y280773D01*
X75182Y281936D01*
X113419D01*
X134353Y261002D01*
Y253636D01*
X130844Y250127D01*
X122520D01*
Y245377D01*
X131207D01*
Y246765D01*
X131281Y246815D01*
X136616Y252149D01*
X136903Y252579D01*
X137004Y253087D01*
Y261551D01*
X136903Y262058D01*
X136616Y262489D01*
X114906Y284199D01*
X114476Y284486D01*
X113969Y284587D01*
X75182D01*
X74700Y285750D01*
X73909Y286780D01*
X72879Y287571D01*
X71679Y288069D01*
X70390Y288238D01*
D02*
G37*
G36*
X195534Y246191D02*
X191886D01*
Y240869D01*
X195534D01*
Y246191D01*
D02*
G37*
G36*
X191086D02*
X187438D01*
Y240869D01*
X191086D01*
Y246191D01*
D02*
G37*
G36*
X158766Y240127D02*
X150080D01*
Y239077D01*
X131207D01*
Y240127D01*
X122520D01*
Y235377D01*
X131207D01*
Y236426D01*
X150080D01*
Y235377D01*
X158766D01*
Y240127D01*
D02*
G37*
G36*
X249698Y241042D02*
X248565Y240893D01*
X247508Y240456D01*
X246601Y239759D01*
X245904Y238852D01*
X245467Y237795D01*
X245318Y236662D01*
X245467Y235528D01*
X245904Y234471D01*
X246601Y233564D01*
X247508Y232867D01*
X248565Y232430D01*
X249698Y232280D01*
X250832Y232430D01*
X251889Y232867D01*
X252796Y233564D01*
X253492Y234471D01*
X253930Y235528D01*
X254079Y236662D01*
X253930Y237795D01*
X253492Y238852D01*
X252796Y239759D01*
X251889Y240456D01*
X250832Y240893D01*
X249698Y241042D01*
D02*
G37*
G36*
X209698D02*
X208565Y240893D01*
X207508Y240456D01*
X206601Y239759D01*
X205904Y238852D01*
X205467Y237795D01*
X205317Y236662D01*
X205467Y235528D01*
X205825Y234663D01*
X205116Y233953D01*
X204828Y233523D01*
X204727Y233016D01*
Y204862D01*
X204828Y204355D01*
X205116Y203925D01*
X209549Y199492D01*
X209979Y199205D01*
X210486Y199104D01*
X221055D01*
X223673Y196486D01*
X223616Y196197D01*
X223785Y195347D01*
X224266Y194627D01*
X224986Y194145D01*
X225836Y193976D01*
X226686Y194145D01*
X227406Y194627D01*
X227888Y195347D01*
X228057Y196197D01*
X227888Y197047D01*
X227406Y197767D01*
X226686Y198249D01*
X225836Y198417D01*
X225548Y198360D01*
X222541Y201366D01*
X222111Y201654D01*
X221604Y201755D01*
X211035D01*
X207378Y205411D01*
Y232456D01*
X207755Y232765D01*
X208565Y232430D01*
X209698Y232280D01*
X210832Y232430D01*
X211889Y232867D01*
X212796Y233564D01*
X213492Y234471D01*
X213930Y235528D01*
X214079Y236662D01*
X213930Y237795D01*
X213492Y238852D01*
X212796Y239759D01*
X211889Y240456D01*
X210832Y240893D01*
X209698Y241042D01*
D02*
G37*
G36*
X104198D02*
X103065Y240893D01*
X102008Y240456D01*
X101101Y239759D01*
X100404Y238852D01*
X99967Y237795D01*
X99817Y236662D01*
X99967Y235528D01*
X100180Y235013D01*
X94155Y228989D01*
X93881Y228579D01*
X92520D01*
Y227234D01*
X91703D01*
Y228579D01*
X86560D01*
Y223239D01*
X87806D01*
Y222489D01*
X87150D01*
Y215180D01*
X91112D01*
Y222489D01*
X90457D01*
Y223239D01*
X91703D01*
Y224583D01*
X92520D01*
Y223239D01*
X97664D01*
Y228579D01*
X97664Y228579D01*
X97664D01*
X97895Y228979D01*
X101881Y232965D01*
X102008Y232867D01*
X103065Y232430D01*
X104198Y232280D01*
X105332Y232430D01*
X106389Y232867D01*
X107296Y233564D01*
X107992Y234471D01*
X108430Y235528D01*
X108579Y236662D01*
X108430Y237795D01*
X107992Y238852D01*
X107296Y239759D01*
X106389Y240456D01*
X105332Y240893D01*
X104198Y241042D01*
D02*
G37*
G36*
X64198D02*
X63064Y240893D01*
X62008Y240456D01*
X61101Y239759D01*
X60404Y238852D01*
X59967Y237795D01*
X59817Y236662D01*
X59967Y235528D01*
X60325Y234663D01*
X51671Y226008D01*
X51383Y225578D01*
X51282Y225071D01*
Y211958D01*
X48363D01*
Y206027D01*
X56853D01*
Y211958D01*
X53933D01*
Y224522D01*
X62199Y232788D01*
X63064Y232430D01*
X64198Y232280D01*
X65332Y232430D01*
X66389Y232867D01*
X67296Y233564D01*
X67993Y234471D01*
X68430Y235528D01*
X68579Y236662D01*
X68430Y237795D01*
X67993Y238852D01*
X67296Y239759D01*
X66389Y240456D01*
X65332Y240893D01*
X64198Y241042D01*
D02*
G37*
G36*
X109695Y228591D02*
X104552D01*
Y227234D01*
X103766D01*
Y228579D01*
X98623D01*
Y223239D01*
X103766D01*
Y224583D01*
X104552D01*
Y223251D01*
X109695D01*
Y228591D01*
D02*
G37*
G36*
X176420Y230757D02*
X174839D01*
Y227207D01*
X176420D01*
Y230757D01*
D02*
G37*
G36*
X174039D02*
X172458D01*
Y227207D01*
X174039D01*
Y230757D01*
D02*
G37*
G36*
X115797Y228591D02*
X113626D01*
Y226321D01*
X115797D01*
Y228591D01*
D02*
G37*
G36*
X112826D02*
X110654D01*
Y226321D01*
X112826D01*
Y228591D01*
D02*
G37*
G36*
X115797Y225521D02*
X113626D01*
Y223251D01*
X115797D01*
Y225521D01*
D02*
G37*
G36*
X112826D02*
X110654D01*
Y223251D01*
X112826D01*
Y225521D01*
D02*
G37*
G36*
X176420Y226407D02*
X174839D01*
Y222857D01*
X176420D01*
Y226407D01*
D02*
G37*
G36*
X174039D02*
X172458D01*
Y222857D01*
X174039D01*
Y226407D01*
D02*
G37*
G36*
X159498Y234432D02*
X147883D01*
X147376Y234331D01*
X146946Y234044D01*
X139369Y226466D01*
X139082Y226036D01*
X138981Y225529D01*
Y225196D01*
X138734Y225031D01*
X138253Y224310D01*
X138084Y223461D01*
X138253Y222611D01*
X138734Y221890D01*
X139455Y221409D01*
X140305Y221240D01*
X141155Y221409D01*
X141875Y221890D01*
X142356Y222611D01*
X142525Y223461D01*
X142356Y224310D01*
X141875Y225031D01*
X141858Y225206D01*
X148433Y231781D01*
X158949D01*
X162458Y228272D01*
Y222857D01*
X166420D01*
Y230757D01*
X163722D01*
X160435Y234044D01*
X160005Y234331D01*
X159498Y234432D01*
D02*
G37*
G36*
X81112Y222489D02*
X77150D01*
Y220874D01*
X75269D01*
Y221406D01*
X69929D01*
Y216263D01*
X75269D01*
Y216795D01*
X77092D01*
Y214223D01*
X76729Y213680D01*
X76531Y212685D01*
X76729Y211690D01*
X77293Y210847D01*
X78136Y210283D01*
X79131Y210085D01*
X80126Y210283D01*
X80970Y210847D01*
X81533Y211690D01*
X81731Y212685D01*
X81533Y213680D01*
X81170Y214223D01*
Y218835D01*
X81112Y219127D01*
Y222489D01*
D02*
G37*
G36*
X115651Y221406D02*
X113381D01*
Y219235D01*
X115651D01*
Y221406D01*
D02*
G37*
G36*
X112581D02*
X110311D01*
Y219235D01*
X112581D01*
Y221406D01*
D02*
G37*
G36*
X166302Y220520D02*
X164720D01*
Y218250D01*
X166302D01*
Y220520D01*
D02*
G37*
G36*
X163920D02*
X162339D01*
Y218250D01*
X163920D01*
Y220520D01*
D02*
G37*
G36*
X229698Y241042D02*
X228565Y240893D01*
X227508Y240456D01*
X226601Y239759D01*
X225904Y238852D01*
X225467Y237795D01*
X225318Y236662D01*
X225467Y235528D01*
X225904Y234471D01*
X226601Y233564D01*
X227508Y232867D01*
X228373Y232509D01*
Y226131D01*
X223977D01*
Y218232D01*
X235420D01*
Y226131D01*
X231024D01*
Y232509D01*
X231889Y232867D01*
X232796Y233564D01*
X233492Y234471D01*
X233930Y235528D01*
X234079Y236662D01*
X233930Y237795D01*
X233492Y238852D01*
X232796Y239759D01*
X231889Y240456D01*
X230832Y240893D01*
X229698Y241042D01*
D02*
G37*
G36*
X131207Y230127D02*
X122520D01*
Y225377D01*
X127364D01*
X133421Y219320D01*
X133364Y219032D01*
X133533Y218182D01*
X134014Y217461D01*
X134734Y216980D01*
X135584Y216811D01*
X136434Y216980D01*
X137154Y217461D01*
X137318Y217706D01*
X142993D01*
Y217444D01*
X147742D01*
Y220619D01*
X142993D01*
Y220357D01*
X137318D01*
X137154Y220602D01*
X136434Y221083D01*
X135584Y221252D01*
X135296Y221195D01*
X131484Y225007D01*
X131207Y225377D01*
X131207D01*
X131207Y225377D01*
Y230127D01*
D02*
G37*
G36*
X115651Y218435D02*
X113381D01*
Y216263D01*
X115651D01*
Y218435D01*
D02*
G37*
G36*
X112581D02*
X110311D01*
Y216263D01*
X112581D01*
Y218435D01*
D02*
G37*
G36*
X96112Y222489D02*
X92150D01*
Y215180D01*
X96112D01*
Y217509D01*
X98049D01*
Y216263D01*
X103390D01*
Y217509D01*
X104158D01*
Y216263D01*
X109498D01*
Y221406D01*
X104158D01*
Y220160D01*
X103390D01*
Y221406D01*
X98049D01*
Y220160D01*
X96112D01*
Y222489D01*
D02*
G37*
G36*
X84198Y241042D02*
X83065Y240893D01*
X82008Y240456D01*
X81101Y239759D01*
X80404Y238852D01*
X79967Y237795D01*
X79817Y236662D01*
X79967Y235528D01*
X80404Y234471D01*
X81101Y233564D01*
X81703Y233101D01*
Y228579D01*
X80457D01*
Y223239D01*
X82806D01*
Y222489D01*
X82150D01*
Y215180D01*
X86112D01*
Y222489D01*
X85457D01*
Y223239D01*
X85601D01*
Y228579D01*
X84354D01*
Y232301D01*
X85332Y232430D01*
X86389Y232867D01*
X87296Y233564D01*
X87993Y234471D01*
X88430Y235528D01*
X88579Y236662D01*
X88430Y237795D01*
X87993Y238852D01*
X87296Y239759D01*
X86389Y240456D01*
X85332Y240893D01*
X84198Y241042D01*
D02*
G37*
G36*
X166302Y217450D02*
X164720D01*
Y215180D01*
X166302D01*
Y217450D01*
D02*
G37*
G36*
X163920D02*
X162339D01*
Y215180D01*
X163920D01*
Y217450D01*
D02*
G37*
G36*
X131207Y260127D02*
X122520D01*
Y256697D01*
X118305Y252481D01*
X118017Y252051D01*
X117916Y251544D01*
Y217498D01*
X116012Y215594D01*
X115651Y215304D01*
Y215304D01*
X115651Y215304D01*
X110311D01*
Y214058D01*
X109498D01*
Y215304D01*
X104158D01*
Y210161D01*
X109498D01*
Y211407D01*
X110311D01*
Y210161D01*
X115651D01*
Y211588D01*
X115962Y211795D01*
X120179Y216012D01*
X120466Y216442D01*
X120567Y216950D01*
Y250995D01*
X124949Y255377D01*
X131207D01*
Y260127D01*
D02*
G37*
G36*
X176833Y215698D02*
X174563D01*
Y213526D01*
X176833D01*
Y215698D01*
D02*
G37*
G36*
X173763D02*
X171493D01*
Y213526D01*
X173763D01*
Y215698D01*
D02*
G37*
G36*
X75269Y215304D02*
X72999D01*
Y213132D01*
X75269D01*
Y215304D01*
D02*
G37*
G36*
X72199D02*
X69929D01*
Y213132D01*
X72199D01*
Y215304D01*
D02*
G37*
G36*
X251532Y214990D02*
Y211459D01*
X255062D01*
X254979Y212090D01*
X254581Y213051D01*
X253948Y213876D01*
X253123Y214509D01*
X252163Y214907D01*
X251532Y214990D01*
D02*
G37*
G36*
X241689D02*
Y211459D01*
X245220D01*
X245137Y212090D01*
X244739Y213051D01*
X244106Y213876D01*
X243281Y214509D01*
X242320Y214907D01*
X241689Y214990D01*
D02*
G37*
G36*
X261374D02*
Y211459D01*
X264905D01*
X264822Y212090D01*
X264424Y213051D01*
X263791Y213876D01*
X262966Y214509D01*
X262005Y214907D01*
X261374Y214990D01*
D02*
G37*
G36*
X260574D02*
X259943Y214907D01*
X258982Y214509D01*
X258157Y213876D01*
X257524Y213051D01*
X257126Y212090D01*
X257043Y211459D01*
X260574D01*
Y214990D01*
D02*
G37*
G36*
X240889D02*
X240258Y214907D01*
X239297Y214509D01*
X238472Y213876D01*
X237839Y213051D01*
X237441Y212090D01*
X237358Y211459D01*
X240889D01*
Y214990D01*
D02*
G37*
G36*
X250731D02*
X250100Y214907D01*
X249140Y214509D01*
X248315Y213876D01*
X247682Y213051D01*
X247284Y212090D01*
X247201Y211459D01*
X250731D01*
Y214990D01*
D02*
G37*
G36*
X176833Y212726D02*
X174563D01*
Y210554D01*
X176833D01*
Y212726D01*
D02*
G37*
G36*
X173763D02*
X171493D01*
Y210554D01*
X173763D01*
Y212726D01*
D02*
G37*
G36*
X224421Y212450D02*
X222250D01*
Y210180D01*
X224421D01*
Y212450D01*
D02*
G37*
G36*
X221450D02*
X219278D01*
Y210180D01*
X221450D01*
Y212450D01*
D02*
G37*
G36*
X75269Y212332D02*
X72999D01*
Y210161D01*
X75269D01*
Y212332D01*
D02*
G37*
G36*
X72199D02*
X69929D01*
Y210161D01*
X72199D01*
Y212332D01*
D02*
G37*
G36*
X161939Y281427D02*
X160947Y281297D01*
X160022Y280914D01*
X159228Y280305D01*
X158619Y279511D01*
X158236Y278587D01*
X158106Y277594D01*
X158236Y276603D01*
X158619Y275678D01*
X159228Y274884D01*
X160022Y274275D01*
X160947Y273892D01*
X161939Y273762D01*
X162931Y273892D01*
X163855Y274275D01*
X164649Y274884D01*
X165164Y275555D01*
X166035D01*
X180392Y261199D01*
Y240882D01*
X180547Y240102D01*
X180989Y239440D01*
X187438Y232991D01*
Y226105D01*
X189447D01*
Y224345D01*
X187536D01*
Y214718D01*
X181881Y209063D01*
X176833D01*
Y209595D01*
X171493D01*
Y209063D01*
X170042D01*
Y209694D01*
X166079D01*
Y207316D01*
X166022Y207024D01*
X166079Y206732D01*
Y204354D01*
X170042D01*
Y204984D01*
X171493D01*
Y204452D01*
X176833D01*
Y204984D01*
X180687D01*
Y181593D01*
X180324Y181050D01*
X180126Y180055D01*
X180324Y179060D01*
X180887Y178217D01*
X181731Y177653D01*
X182726Y177455D01*
X183721Y177653D01*
X184564Y178217D01*
X185128Y179060D01*
X185326Y180055D01*
X185128Y181050D01*
X184765Y181593D01*
Y206179D01*
X188733Y210146D01*
X195435D01*
Y224345D01*
X193525D01*
Y226105D01*
X195534D01*
Y237548D01*
X188648D01*
X184470Y241727D01*
Y262043D01*
X184315Y262824D01*
X183873Y263485D01*
X168321Y279036D01*
X167660Y279479D01*
X166879Y279634D01*
X165164D01*
X164649Y280305D01*
X163855Y280914D01*
X162931Y281297D01*
X161939Y281427D01*
D02*
G37*
G36*
X150892Y209694D02*
X148721D01*
Y207424D01*
X150892D01*
Y209694D01*
D02*
G37*
G36*
X147921D02*
X145749D01*
Y207424D01*
X147921D01*
Y209694D01*
D02*
G37*
G36*
X255062Y210659D02*
X251532D01*
Y207128D01*
X252163Y207211D01*
X253123Y207609D01*
X253948Y208242D01*
X254581Y209067D01*
X254979Y210028D01*
X255062Y210659D01*
D02*
G37*
G36*
X245220D02*
X241689D01*
Y207128D01*
X242320Y207211D01*
X243281Y207609D01*
X244106Y208242D01*
X244739Y209067D01*
X245137Y210028D01*
X245220Y210659D01*
D02*
G37*
G36*
X264905D02*
X261374D01*
Y207128D01*
X262005Y207211D01*
X262966Y207609D01*
X263791Y208242D01*
X264424Y209067D01*
X264822Y210028D01*
X264905Y210659D01*
D02*
G37*
G36*
X260574D02*
X257043D01*
X257126Y210028D01*
X257524Y209067D01*
X258157Y208242D01*
X258982Y207609D01*
X259943Y207211D01*
X260574Y207128D01*
Y210659D01*
D02*
G37*
G36*
X250731D02*
X247201D01*
X247284Y210028D01*
X247682Y209067D01*
X248315Y208242D01*
X249140Y207609D01*
X250100Y207211D01*
X250731Y207128D01*
Y210659D01*
D02*
G37*
G36*
X240889D02*
X237358D01*
X237441Y210028D01*
X237839Y209067D01*
X238472Y208242D01*
X239297Y207609D01*
X240258Y207211D01*
X240889Y207128D01*
Y210659D01*
D02*
G37*
G36*
X224421Y209380D02*
X222250D01*
Y207109D01*
X224421D01*
Y209380D01*
D02*
G37*
G36*
X221450D02*
X219278D01*
Y207109D01*
X221450D01*
Y209380D01*
D02*
G37*
G36*
X189517Y265544D02*
X188668Y265374D01*
X187947Y264893D01*
X187466Y264173D01*
X187297Y263323D01*
X187466Y262473D01*
X187947Y261753D01*
X188668Y261271D01*
X189517Y261102D01*
X190367Y261271D01*
X191087Y261753D01*
X191251Y261997D01*
X204323D01*
X216453Y249868D01*
Y226131D01*
X210026D01*
Y218232D01*
X214422D01*
Y212450D01*
X213176D01*
Y207109D01*
X218319D01*
Y212450D01*
X217073D01*
Y218232D01*
X221468D01*
Y226131D01*
X219104D01*
Y250416D01*
X219104Y250416D01*
X219003Y250924D01*
X218715Y251354D01*
X205809Y264260D01*
X205379Y264547D01*
X204872Y264648D01*
X191251D01*
X191087Y264893D01*
X190367Y265374D01*
X189517Y265544D01*
D02*
G37*
G36*
X75203Y206052D02*
X69863D01*
Y204806D01*
X69101D01*
Y206052D01*
X63761D01*
Y204806D01*
X62998D01*
Y206052D01*
X57658D01*
Y200909D01*
X62998D01*
Y202155D01*
X63761D01*
Y200909D01*
X69101D01*
Y202155D01*
X69863D01*
Y200909D01*
X75203D01*
Y202155D01*
X80783D01*
X82150Y200788D01*
Y193724D01*
X86112D01*
Y201032D01*
X85387D01*
X85356Y201188D01*
X85068Y201618D01*
X82269Y204418D01*
X81839Y204705D01*
X81332Y204806D01*
X75203D01*
Y206052D01*
D02*
G37*
G36*
X158766Y230127D02*
X150080D01*
Y225377D01*
X152384D01*
Y220619D01*
X152048D01*
Y217444D01*
X152384D01*
Y209694D01*
X151851D01*
Y204354D01*
X156994D01*
Y204984D01*
X158599D01*
Y204354D01*
X162561D01*
Y206732D01*
X162619Y207024D01*
X162561Y207316D01*
Y209694D01*
X158599D01*
Y209063D01*
X156994D01*
Y209694D01*
X156462D01*
Y217444D01*
X156798D01*
Y220619D01*
X156462D01*
Y225377D01*
X158766D01*
Y230127D01*
D02*
G37*
G36*
X150892Y206624D02*
X148721D01*
Y204354D01*
X150892D01*
Y206624D01*
D02*
G37*
G36*
X147921D02*
X145749D01*
Y204354D01*
X147921D01*
Y206624D01*
D02*
G37*
G36*
X81112Y201032D02*
X77150D01*
Y198704D01*
X75203D01*
Y199950D01*
X69863D01*
Y198704D01*
X69101D01*
Y199950D01*
X63761D01*
Y194806D01*
X69101D01*
Y196053D01*
X69863D01*
Y194806D01*
X75203D01*
Y196053D01*
X77150D01*
Y193724D01*
X77806D01*
Y192209D01*
X76166D01*
Y183719D01*
X82097D01*
Y192209D01*
X80457D01*
Y193724D01*
X81112D01*
Y201032D01*
D02*
G37*
G36*
X195435Y204491D02*
X191886D01*
Y197792D01*
X195435D01*
Y204491D01*
D02*
G37*
G36*
X191086D02*
X187536D01*
Y197792D01*
X191086D01*
Y204491D01*
D02*
G37*
G36*
X96112Y201032D02*
X94531D01*
Y197778D01*
X96112D01*
Y201032D01*
D02*
G37*
G36*
X93731D02*
X92150D01*
Y197778D01*
X93731D01*
Y201032D01*
D02*
G37*
G36*
X56853Y200343D02*
X48363D01*
Y194413D01*
X56853D01*
Y196053D01*
X57658D01*
Y194806D01*
X62998D01*
Y199950D01*
X57658D01*
Y198704D01*
X56853D01*
Y200343D01*
D02*
G37*
G36*
X260974Y202444D02*
X259943Y202309D01*
X258982Y201910D01*
X258157Y201277D01*
X257524Y200452D01*
X257126Y199492D01*
X256991Y198461D01*
X257126Y197430D01*
X257402Y196763D01*
X255804Y195166D01*
X255517Y194736D01*
X255416Y194228D01*
Y187450D01*
X254072D01*
Y182306D01*
X259412D01*
Y187450D01*
X258067D01*
Y193679D01*
X259277Y194889D01*
X259943Y194613D01*
X260974Y194477D01*
X262005Y194613D01*
X262966Y195011D01*
X263791Y195644D01*
X264424Y196469D01*
X264822Y197430D01*
X264958Y198461D01*
X264822Y199492D01*
X264424Y200452D01*
X263791Y201277D01*
X262966Y201910D01*
X262005Y202309D01*
X260974Y202444D01*
D02*
G37*
G36*
X251132D02*
X250100Y202309D01*
X249140Y201910D01*
X248315Y201277D01*
X247682Y200452D01*
X247284Y199492D01*
X247148Y198461D01*
X247284Y197430D01*
X247682Y196469D01*
X248315Y195644D01*
X249140Y195011D01*
X250100Y194613D01*
X251132Y194477D01*
X252163Y194613D01*
X253123Y195011D01*
X253948Y195644D01*
X254581Y196469D01*
X254979Y197430D01*
X255115Y198461D01*
X254979Y199492D01*
X254581Y200452D01*
X253948Y201277D01*
X253123Y201910D01*
X252163Y202309D01*
X251132Y202444D01*
D02*
G37*
G36*
X96112Y196978D02*
X94531D01*
Y193724D01*
X96112D01*
Y196978D01*
D02*
G37*
G36*
X93731D02*
X92150D01*
Y193724D01*
X93731D01*
Y196978D01*
D02*
G37*
G36*
X195435Y196992D02*
X191886D01*
Y190293D01*
X195435D01*
Y196992D01*
D02*
G37*
G36*
X191086D02*
X187536D01*
Y190293D01*
X191086D01*
Y196992D01*
D02*
G37*
G36*
X103390Y215304D02*
X98049D01*
Y210161D01*
X98680D01*
Y208963D01*
X98836Y208182D01*
X99278Y207521D01*
X116368Y190430D01*
X116177Y189968D01*
X94693D01*
X91170Y193491D01*
Y197378D01*
X91112Y197670D01*
Y201032D01*
X87150D01*
Y197670D01*
X87092Y197378D01*
Y192646D01*
X87247Y191866D01*
X87689Y191204D01*
X92406Y186487D01*
X93068Y186045D01*
X93848Y185890D01*
X120908D01*
X132936Y173863D01*
Y164832D01*
X115569D01*
X114972Y165610D01*
X114147Y166243D01*
X113186Y166641D01*
X112155Y166776D01*
X111124Y166641D01*
X110163Y166243D01*
X109338Y165610D01*
X108705Y164785D01*
X108307Y163824D01*
X108172Y162793D01*
X108307Y161762D01*
X108705Y160801D01*
X109338Y159976D01*
X110163Y159343D01*
X111124Y158945D01*
X112155Y158809D01*
X113186Y158945D01*
X114147Y159343D01*
X114972Y159976D01*
X115569Y160754D01*
X134130D01*
X137946Y156938D01*
X120275Y139267D01*
X112561D01*
Y139799D01*
X107221D01*
Y134656D01*
X112561D01*
Y135188D01*
X121120D01*
X121900Y135344D01*
X122562Y135786D01*
X141674Y154899D01*
X144807D01*
Y153972D01*
X153297D01*
Y154899D01*
X154256D01*
Y153972D01*
X156462D01*
Y146129D01*
X156617Y145349D01*
X157059Y144687D01*
X160849Y140897D01*
Y135653D01*
X175047D01*
Y137563D01*
X190149D01*
X197437Y130275D01*
Y114092D01*
X197592Y113312D01*
X198035Y112650D01*
X204020Y106664D01*
X204682Y106222D01*
X205462Y106067D01*
X220643D01*
X221424Y106222D01*
X222085Y106664D01*
X228413Y112992D01*
X228565Y112930D01*
X229698Y112780D01*
X230832Y112930D01*
X231889Y113367D01*
X232796Y114064D01*
X233492Y114971D01*
X233930Y116028D01*
X234079Y117161D01*
X233930Y118295D01*
X233492Y119352D01*
X232796Y120259D01*
X231889Y120956D01*
X230832Y121393D01*
X229698Y121542D01*
X228565Y121393D01*
X227508Y120956D01*
X226601Y120259D01*
X225904Y119352D01*
X225467Y118295D01*
X225318Y117161D01*
X225467Y116028D01*
X225529Y115876D01*
X219799Y110145D01*
X206307D01*
X201516Y114937D01*
Y131120D01*
X201360Y131900D01*
X200918Y132562D01*
X193877Y139602D01*
X205618Y151343D01*
X236847D01*
X237628Y151498D01*
X238289Y151940D01*
X244985Y158636D01*
X245427Y159297D01*
X245511Y159722D01*
X247207D01*
Y163684D01*
X243845D01*
X243553Y163742D01*
X243261Y163684D01*
X239898D01*
Y159722D01*
X239898D01*
X240017Y159436D01*
X236003Y155421D01*
X211045D01*
Y156814D01*
X211577D01*
Y162154D01*
X206434D01*
Y156814D01*
X206966D01*
Y155421D01*
X204773D01*
X203993Y155266D01*
X203331Y154824D01*
X193495Y144987D01*
X193033Y145179D01*
Y159329D01*
X196766Y163062D01*
X197208Y163724D01*
X197364Y164504D01*
Y173126D01*
X197727Y173669D01*
X197924Y174664D01*
X197727Y175659D01*
X197163Y176502D01*
X196319Y177066D01*
X195324Y177264D01*
X194329Y177066D01*
X193486Y176502D01*
X192922Y175659D01*
X192725Y174664D01*
X192922Y173669D01*
X193285Y173126D01*
Y165349D01*
X189552Y161615D01*
X189110Y160954D01*
X188954Y160173D01*
Y141642D01*
X175047D01*
Y143552D01*
X163962D01*
X160540Y146974D01*
Y153972D01*
X162746D01*
Y159903D01*
X154256D01*
Y158977D01*
X153297D01*
Y159903D01*
X144807D01*
Y158977D01*
X141674D01*
X137014Y163637D01*
Y174707D01*
X136859Y175488D01*
X136417Y176149D01*
X123195Y189371D01*
X123195Y189371D01*
X102905Y209661D01*
X103112Y210161D01*
X103390D01*
Y215304D01*
D02*
G37*
G36*
X175441Y189615D02*
X168742D01*
Y186065D01*
X175441D01*
Y189615D01*
D02*
G37*
G36*
X167942D02*
X161242D01*
Y186065D01*
X167942D01*
Y189615D01*
D02*
G37*
G36*
X240121Y186342D02*
X237949D01*
Y184072D01*
X240121D01*
Y186342D01*
D02*
G37*
G36*
X237149D02*
X234977D01*
Y184072D01*
X237149D01*
Y186342D01*
D02*
G37*
G36*
X62960Y192863D02*
X57817D01*
Y187523D01*
X62960D01*
Y188867D01*
X64552D01*
Y183719D01*
X70482D01*
Y192209D01*
X64552D01*
Y191518D01*
X62960D01*
Y192863D01*
D02*
G37*
G36*
X241289Y202444D02*
X240258Y202309D01*
X239297Y201910D01*
X238472Y201277D01*
X237839Y200452D01*
X237441Y199492D01*
X237305Y198461D01*
X237441Y197430D01*
X237839Y196469D01*
X238472Y195644D01*
X239297Y195011D01*
X240258Y194613D01*
X241289Y194477D01*
X242320Y194613D01*
X242986Y194889D01*
X249314Y188561D01*
Y187450D01*
X247969D01*
Y182306D01*
X253309D01*
Y187450D01*
X251965D01*
Y189110D01*
X251864Y189618D01*
X251577Y190048D01*
X244861Y196763D01*
X245137Y197430D01*
X245273Y198461D01*
X245137Y199492D01*
X244739Y200452D01*
X244106Y201277D01*
X243281Y201910D01*
X242320Y202309D01*
X241289Y202444D01*
D02*
G37*
G36*
X175441Y185265D02*
X168742D01*
Y181716D01*
X175441D01*
Y185265D01*
D02*
G37*
G36*
X167942D02*
X161242D01*
Y181716D01*
X167942D01*
Y185265D01*
D02*
G37*
G36*
X240121Y183272D02*
X237949D01*
Y181002D01*
X240121D01*
Y183272D01*
D02*
G37*
G36*
X237149D02*
X234977D01*
Y181002D01*
X237149D01*
Y183272D01*
D02*
G37*
G36*
X205475Y180338D02*
X200135D01*
Y175195D01*
X205475D01*
Y176441D01*
X206237D01*
Y175195D01*
X211577D01*
Y176441D01*
X212339D01*
Y175195D01*
X217680D01*
Y175378D01*
X218442D01*
Y174722D01*
X225750D01*
Y178684D01*
X218442D01*
Y178029D01*
X217680D01*
Y180338D01*
X212339D01*
Y179092D01*
X211577D01*
Y180338D01*
X206237D01*
Y179092D01*
X205475D01*
Y180338D01*
D02*
G37*
G36*
X115108Y206376D02*
X114113Y206178D01*
X113269Y205614D01*
X112706Y204771D01*
X112508Y203776D01*
X112706Y202781D01*
X113269Y201937D01*
X114113Y201374D01*
X115108Y201176D01*
X116103Y201374D01*
X116646Y201736D01*
X126384D01*
X141389Y186731D01*
Y181716D01*
X152474D01*
X156462Y177728D01*
Y171517D01*
X154256D01*
Y165587D01*
X162746D01*
Y166513D01*
X163705D01*
Y165587D01*
X172195D01*
Y166513D01*
X180672D01*
X181452Y166668D01*
X182114Y167110D01*
X202960Y187957D01*
X239263D01*
X241079Y186141D01*
Y181002D01*
X241612D01*
Y178684D01*
X239898D01*
Y174722D01*
X243261D01*
X243553Y174664D01*
X243632D01*
X243924Y174722D01*
X247207D01*
Y178684D01*
X245690D01*
Y181002D01*
X246223D01*
Y186342D01*
X245690D01*
Y186453D01*
X245535Y187233D01*
X245093Y187895D01*
X241550Y191438D01*
X240888Y191880D01*
X240108Y192035D01*
X202116D01*
X201335Y191880D01*
X200674Y191438D01*
X179827Y170591D01*
X172195D01*
Y171517D01*
X163705D01*
Y170591D01*
X162746D01*
Y171517D01*
X160540D01*
Y178573D01*
X160540Y178573D01*
X160385Y179353D01*
X159943Y180015D01*
X159943Y180015D01*
X155587Y184370D01*
Y189615D01*
X144273D01*
X128670Y205218D01*
X128009Y205660D01*
X127228Y205815D01*
X116646D01*
X116103Y206178D01*
X115108Y206376D01*
D02*
G37*
G36*
X99957Y176566D02*
Y173035D01*
X103488D01*
X103404Y173666D01*
X103007Y174627D01*
X102374Y175452D01*
X101549Y176085D01*
X100588Y176483D01*
X99957Y176566D01*
D02*
G37*
G36*
X99157D02*
X98526Y176483D01*
X97565Y176085D01*
X96740Y175452D01*
X96107Y174627D01*
X95709Y173666D01*
X95626Y173035D01*
X99157D01*
Y176566D01*
D02*
G37*
G36*
X217680Y174235D02*
X212339D01*
Y172989D01*
X211577D01*
Y174235D01*
X206237D01*
Y169092D01*
X207680D01*
Y168257D01*
X206434D01*
Y162917D01*
X211577D01*
Y168257D01*
X210331D01*
Y169092D01*
X211577D01*
Y170338D01*
X212339D01*
Y169092D01*
X217680D01*
Y170338D01*
X218442D01*
Y169722D01*
X225750D01*
Y173684D01*
X218442D01*
Y172989D01*
X217680D01*
Y174235D01*
D02*
G37*
G36*
X225836Y185902D02*
X224986Y185733D01*
X224266Y185252D01*
X223785Y184531D01*
X223616Y183681D01*
X223785Y182832D01*
X224266Y182111D01*
X224986Y181630D01*
X225836Y181461D01*
X226125Y181518D01*
X236877Y170766D01*
X237307Y170479D01*
X237814Y170378D01*
X239898D01*
Y169722D01*
X247207D01*
Y170378D01*
X247969D01*
Y170234D01*
X253309D01*
Y171480D01*
X254072D01*
Y170234D01*
X259412D01*
Y175377D01*
X258067D01*
Y176204D01*
X259412D01*
Y181347D01*
X254072D01*
Y176204D01*
X255416D01*
Y175377D01*
X254072D01*
Y174131D01*
X253309D01*
Y175377D01*
X251965D01*
Y176204D01*
X253309D01*
Y181347D01*
X247969D01*
Y176204D01*
X249314D01*
Y175377D01*
X247969D01*
Y173029D01*
X247207D01*
Y173684D01*
X239898D01*
Y173029D01*
X238364D01*
X227999Y183393D01*
X228057Y183681D01*
X227888Y184531D01*
X227406Y185252D01*
X226686Y185733D01*
X225836Y185902D01*
D02*
G37*
G36*
X153297Y171517D02*
X149452D01*
Y168952D01*
X153297D01*
Y171517D01*
D02*
G37*
G36*
X148652D02*
X144807D01*
Y168952D01*
X148652D01*
Y171517D01*
D02*
G37*
G36*
X103488Y172235D02*
X99957D01*
Y168704D01*
X100588Y168788D01*
X101549Y169185D01*
X102374Y169819D01*
X103007Y170644D01*
X103404Y171604D01*
X103488Y172235D01*
D02*
G37*
G36*
X99157D02*
X95626D01*
X95709Y171604D01*
X96107Y170644D01*
X96740Y169819D01*
X97565Y169185D01*
X98526Y168788D01*
X99157Y168704D01*
Y172235D01*
D02*
G37*
G36*
X62960Y186761D02*
X57817D01*
Y181421D01*
X61184D01*
X66701Y175904D01*
X67131Y175616D01*
X67638Y175515D01*
X67752D01*
Y172996D01*
X75258D01*
Y175424D01*
X83150D01*
X83385Y174857D01*
X83986Y174073D01*
X84770Y173471D01*
X85683Y173093D01*
X86663Y172964D01*
X87643Y173093D01*
X88556Y173471D01*
X89340Y174073D01*
X89941Y174857D01*
X90319Y175770D01*
X90448Y176750D01*
X90319Y177729D01*
X90084Y178296D01*
X90616Y178828D01*
X104088D01*
X108583Y174333D01*
X108307Y173666D01*
X108172Y172635D01*
X108307Y171604D01*
X108705Y170644D01*
X109338Y169819D01*
X110163Y169185D01*
X111124Y168788D01*
X112155Y168652D01*
X113186Y168788D01*
X114147Y169185D01*
X114972Y169819D01*
X115605Y170644D01*
X116003Y171604D01*
X116139Y172635D01*
X116003Y173666D01*
X115605Y174627D01*
X114972Y175452D01*
X114147Y176085D01*
X113186Y176483D01*
X112155Y176619D01*
X111124Y176483D01*
X110458Y176207D01*
X105574Y181091D01*
X105144Y181378D01*
X104637Y181479D01*
X90067D01*
X89560Y181378D01*
X89130Y181091D01*
X88210Y180171D01*
X87643Y180406D01*
X86663Y180535D01*
X85683Y180406D01*
X84770Y180028D01*
X83986Y179426D01*
X83385Y178642D01*
X83150Y178075D01*
X75258D01*
Y180502D01*
X67752D01*
Y179255D01*
X67291Y179063D01*
X62960Y183393D01*
Y186761D01*
D02*
G37*
G36*
X265107Y186705D02*
X264258Y186536D01*
X263537Y186055D01*
X263056Y185335D01*
X262887Y184485D01*
X263056Y183635D01*
X263537Y182915D01*
X263782Y182751D01*
Y173557D01*
X259780Y169554D01*
X259412Y169275D01*
Y169275D01*
X259412Y169275D01*
X254072D01*
Y168029D01*
X253309D01*
Y169275D01*
X247969D01*
Y168029D01*
X247207D01*
Y168684D01*
X239898D01*
Y164722D01*
X247207D01*
Y165378D01*
X247969D01*
Y164131D01*
X253309D01*
Y165378D01*
X254072D01*
Y164131D01*
X255424D01*
Y157447D01*
X255525Y156940D01*
X255812Y156510D01*
X256696Y155626D01*
Y148350D01*
X255351D01*
Y143206D01*
X260691D01*
Y148350D01*
X259347D01*
Y156175D01*
X259246Y156683D01*
X258959Y157113D01*
X258075Y157996D01*
Y164131D01*
X259412D01*
Y165546D01*
X259741Y165766D01*
X266045Y172070D01*
X266332Y172500D01*
X266433Y173008D01*
Y182751D01*
X266678Y182915D01*
X267159Y183635D01*
X267328Y184485D01*
X267159Y185335D01*
X266678Y186055D01*
X265957Y186536D01*
X265107Y186705D01*
D02*
G37*
G36*
X153297Y168152D02*
X149452D01*
Y165587D01*
X153297D01*
Y168152D01*
D02*
G37*
G36*
X148652D02*
X144807D01*
Y165587D01*
X148652D01*
Y168152D01*
D02*
G37*
G36*
X99957Y166724D02*
Y163193D01*
X103488D01*
X103404Y163824D01*
X103007Y164785D01*
X102374Y165610D01*
X101549Y166243D01*
X100588Y166641D01*
X99957Y166724D01*
D02*
G37*
G36*
X99157D02*
X98526Y166641D01*
X97565Y166243D01*
X96740Y165610D01*
X96107Y164785D01*
X95709Y163824D01*
X95626Y163193D01*
X99157D01*
Y166724D01*
D02*
G37*
G36*
X56858Y192863D02*
X51715D01*
Y187523D01*
X52961D01*
Y186761D01*
X51715D01*
Y181421D01*
X52961D01*
Y180307D01*
X53062Y179800D01*
X53349Y179370D01*
X66907Y165812D01*
X67337Y165525D01*
X67844Y165424D01*
X67992D01*
X68227Y164857D01*
X68829Y164073D01*
X69613Y163471D01*
X70180Y163236D01*
Y160940D01*
X70175Y160935D01*
X65725D01*
Y154611D01*
X67562D01*
Y151493D01*
X67293Y151382D01*
X66632Y150875D01*
X66125Y150214D01*
X65807Y149445D01*
X65698Y148620D01*
X65807Y147794D01*
X66125Y147025D01*
X66632Y146364D01*
X67293Y145858D01*
X68062Y145539D01*
X68887Y145430D01*
X69713Y145539D01*
X69982Y145650D01*
X79539Y136093D01*
X79761Y135945D01*
Y134262D01*
X86872D01*
Y135705D01*
X87536D01*
Y134361D01*
X92680D01*
Y139701D01*
X87536D01*
Y138356D01*
X86872D01*
Y139799D01*
X79761D01*
X79761Y139799D01*
Y139799D01*
X79357Y140025D01*
X71856Y147525D01*
X71968Y147794D01*
X72077Y148620D01*
X71968Y149445D01*
X71649Y150214D01*
X71143Y150875D01*
X70482Y151382D01*
X70213Y151493D01*
Y154611D01*
X72049D01*
Y159061D01*
X72443Y159454D01*
X72730Y159884D01*
X72831Y160391D01*
Y163236D01*
X73398Y163471D01*
X74182Y164073D01*
X74784Y164857D01*
X75019Y165424D01*
X82910D01*
Y162996D01*
X90416D01*
Y170502D01*
X82910D01*
Y168075D01*
X75019D01*
X74784Y168642D01*
X74182Y169426D01*
X73398Y170028D01*
X72485Y170406D01*
X71505Y170535D01*
X70526Y170406D01*
X69613Y170028D01*
X68829Y169426D01*
X68360Y168815D01*
X67765Y168703D01*
X55612Y180856D01*
Y181421D01*
X56858D01*
Y186761D01*
X55612D01*
Y187523D01*
X56858D01*
Y192863D01*
D02*
G37*
G36*
X225750Y163684D02*
X222496D01*
Y162103D01*
X225750D01*
Y163684D01*
D02*
G37*
G36*
X221696D02*
X218442D01*
Y162103D01*
X221696D01*
Y163684D01*
D02*
G37*
G36*
X225750Y161303D02*
X222496D01*
Y159722D01*
X225750D01*
Y161303D01*
D02*
G37*
G36*
X221696D02*
X218442D01*
Y159722D01*
X221696D01*
Y161303D01*
D02*
G37*
G36*
X225750Y168684D02*
X218442D01*
Y164722D01*
X225515D01*
X228299Y161938D01*
X228242Y161650D01*
X228411Y160800D01*
X228892Y160079D01*
X229612Y159598D01*
X230462Y159429D01*
X231312Y159598D01*
X232032Y160079D01*
X232514Y160800D01*
X232683Y161650D01*
X232514Y162499D01*
X232032Y163220D01*
X231312Y163701D01*
X230462Y163870D01*
X230173Y163813D01*
X226346Y167640D01*
X225916Y167928D01*
X225750Y167961D01*
Y168684D01*
D02*
G37*
G36*
X99157Y162393D02*
X95626D01*
X95709Y161762D01*
X96107Y160801D01*
X96740Y159976D01*
X97565Y159343D01*
X98526Y158945D01*
X99157Y158862D01*
Y162393D01*
D02*
G37*
G36*
X103488D02*
X99957D01*
Y158862D01*
X100588Y158945D01*
X101549Y159343D01*
X102374Y159976D01*
X103007Y160801D01*
X103404Y161762D01*
X103488Y162393D01*
D02*
G37*
G36*
X205475Y174235D02*
X200135D01*
Y169092D01*
X201578D01*
Y162202D01*
X201333Y162039D01*
X200852Y161318D01*
X200682Y160468D01*
X200852Y159619D01*
X201333Y158898D01*
X202053Y158417D01*
X202903Y158248D01*
X203753Y158417D01*
X204473Y158898D01*
X204955Y159619D01*
X205124Y160468D01*
X204955Y161318D01*
X204473Y162039D01*
X204229Y162202D01*
Y169092D01*
X205475D01*
Y174235D01*
D02*
G37*
G36*
X217680Y168257D02*
X212536D01*
Y162917D01*
X213782D01*
Y162154D01*
X212536D01*
Y156814D01*
X217680D01*
Y162154D01*
X216433D01*
Y162917D01*
X217680D01*
Y168257D01*
D02*
G37*
G36*
X172195Y159903D02*
X163705D01*
Y153972D01*
X172195D01*
Y154899D01*
X181183D01*
X181731Y154532D01*
X182726Y154334D01*
X183721Y154532D01*
X184564Y155096D01*
X185128Y155939D01*
X185326Y156934D01*
X185128Y157929D01*
X184564Y158773D01*
X183721Y159336D01*
X182726Y159534D01*
X181731Y159336D01*
X181193Y158977D01*
X172195D01*
Y159903D01*
D02*
G37*
G36*
X99957Y156881D02*
Y153350D01*
X103488D01*
X103404Y153981D01*
X103007Y154942D01*
X102374Y155767D01*
X101549Y156400D01*
X100588Y156798D01*
X99957Y156881D01*
D02*
G37*
G36*
X99157D02*
X98526Y156798D01*
X97565Y156400D01*
X96740Y155767D01*
X96107Y154942D01*
X95709Y153981D01*
X95626Y153350D01*
X99157D01*
Y156881D01*
D02*
G37*
G36*
Y152550D02*
X95626D01*
X95709Y151919D01*
X96107Y150959D01*
X96740Y150134D01*
X97565Y149500D01*
X98526Y149102D01*
X99157Y149019D01*
Y152550D01*
D02*
G37*
G36*
X103488D02*
X99957D01*
Y149019D01*
X100588Y149102D01*
X101549Y149500D01*
X102374Y150134D01*
X103007Y150959D01*
X103404Y151919D01*
X103488Y152550D01*
D02*
G37*
G36*
X88887Y160962D02*
X88062Y160854D01*
X87293Y160535D01*
X86632Y160028D01*
X86125Y159368D01*
X85807Y158599D01*
X85698Y157773D01*
X85807Y156948D01*
X86125Y156178D01*
X86632Y155518D01*
X87293Y155011D01*
X87562Y154900D01*
Y151782D01*
X85725D01*
Y145458D01*
X90175D01*
X91882Y143750D01*
X92313Y143463D01*
X92820Y143362D01*
X103892D01*
X104399Y143463D01*
X104829Y143750D01*
X110458Y149379D01*
X111124Y149102D01*
X112155Y148967D01*
X113186Y149102D01*
X114147Y149500D01*
X114972Y150134D01*
X115605Y150959D01*
X116003Y151919D01*
X116139Y152950D01*
X116003Y153981D01*
X115605Y154942D01*
X114972Y155767D01*
X114147Y156400D01*
X113186Y156798D01*
X112155Y156934D01*
X111124Y156798D01*
X110163Y156400D01*
X109338Y155767D01*
X108705Y154942D01*
X108307Y153981D01*
X108172Y152950D01*
X108307Y151919D01*
X108583Y151253D01*
X103343Y146013D01*
X93369D01*
X92049Y147332D01*
Y151782D01*
X90213D01*
Y154900D01*
X90482Y155011D01*
X91143Y155518D01*
X91649Y156178D01*
X91968Y156948D01*
X92077Y157773D01*
X91968Y158599D01*
X91649Y159368D01*
X91143Y160028D01*
X90482Y160535D01*
X89713Y160854D01*
X88887Y160962D01*
D02*
G37*
G36*
X217778Y148743D02*
X209288D01*
Y147104D01*
X208193D01*
X208029Y147348D01*
X207309Y147830D01*
X206459Y147999D01*
X205609Y147830D01*
X204889Y147348D01*
X204408Y146628D01*
X204238Y145778D01*
X204408Y144928D01*
X204889Y144208D01*
X205609Y143726D01*
X206459Y143557D01*
X207309Y143726D01*
X208029Y144208D01*
X208193Y144453D01*
X209288D01*
Y142813D01*
X217778D01*
Y144453D01*
X218540D01*
Y143108D01*
X219786D01*
Y142346D01*
X218540D01*
Y137005D01*
X223684D01*
Y142346D01*
X222437D01*
Y143108D01*
X223684D01*
Y148448D01*
X218540D01*
Y147104D01*
X217778D01*
Y148743D01*
D02*
G37*
G36*
X249569Y151499D02*
X241670D01*
Y147103D01*
X235956D01*
Y148350D01*
X230616D01*
Y147103D01*
X229786D01*
Y148448D01*
X224643D01*
Y143108D01*
X229786D01*
Y144453D01*
X230616D01*
Y143206D01*
X235956D01*
Y144453D01*
X241670D01*
Y140057D01*
X249569D01*
Y151499D01*
D02*
G37*
G36*
X155194Y143552D02*
X148495D01*
Y140002D01*
X155194D01*
Y143552D01*
D02*
G37*
G36*
X147695D02*
X140995D01*
Y140002D01*
X147695D01*
Y143552D01*
D02*
G37*
G36*
X106558Y139799D02*
X99446D01*
Y138356D01*
X98782D01*
Y139701D01*
X93639D01*
Y134361D01*
X94885D01*
Y133598D01*
X93639D01*
Y128258D01*
X98782D01*
Y133598D01*
X97536D01*
Y134361D01*
X98782D01*
Y135705D01*
X99446D01*
Y134262D01*
X106558D01*
Y139799D01*
D02*
G37*
G36*
X260691Y142247D02*
X255351D01*
Y137104D01*
X255351Y137104D01*
X255351D01*
X255058Y136742D01*
X251468Y133152D01*
X249569D01*
Y137548D01*
X241670D01*
Y126105D01*
X249569D01*
Y130501D01*
X252017D01*
X252525Y130602D01*
X252955Y130890D01*
X258917Y136853D01*
X259086Y137104D01*
X260691D01*
Y142247D01*
D02*
G37*
G36*
X155194Y139202D02*
X148495D01*
Y135653D01*
X155194D01*
Y139202D01*
D02*
G37*
G36*
X147695D02*
X140995D01*
Y135653D01*
X147695D01*
Y139202D01*
D02*
G37*
G36*
X112561Y133697D02*
X107221D01*
Y132451D01*
X106558D01*
Y132516D01*
X99446D01*
Y126979D01*
X102873D01*
Y121314D01*
X102008Y120956D01*
X101101Y120259D01*
X100404Y119352D01*
X99967Y118295D01*
X99817Y117161D01*
X99967Y116028D01*
X100404Y114971D01*
X101101Y114064D01*
X102008Y113367D01*
X103065Y112930D01*
X104198Y112780D01*
X105332Y112930D01*
X106389Y113367D01*
X107296Y114064D01*
X107992Y114971D01*
X108430Y116028D01*
X108579Y117161D01*
X108430Y118295D01*
X107992Y119352D01*
X107296Y120259D01*
X106389Y120956D01*
X105524Y121314D01*
Y126979D01*
X106558D01*
Y129800D01*
X107221D01*
Y128554D01*
X112561D01*
Y133697D01*
D02*
G37*
G36*
X229786Y142346D02*
X224643D01*
Y137005D01*
X229786D01*
Y138350D01*
X230616D01*
Y137104D01*
X231961D01*
Y136243D01*
X230321D01*
Y127754D01*
X236252D01*
Y136243D01*
X234612D01*
Y137104D01*
X235956D01*
Y142247D01*
X230616D01*
Y141001D01*
X229786D01*
Y142346D01*
D02*
G37*
G36*
X217778Y137129D02*
X209288D01*
Y131199D01*
X212208D01*
Y127244D01*
X212309Y126737D01*
X212596Y126307D01*
X213141Y125761D01*
X213084Y125473D01*
X213253Y124623D01*
X213735Y123902D01*
X214455Y123421D01*
X215305Y123252D01*
X216155Y123421D01*
X216875Y123902D01*
X217356Y124623D01*
X217525Y125473D01*
X217356Y126322D01*
X216875Y127043D01*
X216155Y127524D01*
X215305Y127693D01*
X214859Y128086D01*
Y131199D01*
X217778D01*
Y137129D01*
D02*
G37*
G36*
X92680Y133598D02*
X87536D01*
Y128258D01*
X88782D01*
Y125982D01*
X88538Y125818D01*
X88056Y125098D01*
X87887Y124248D01*
X88056Y123398D01*
X88258Y123096D01*
X86197Y121035D01*
X85332Y121393D01*
X84198Y121542D01*
X83065Y121393D01*
X82008Y120956D01*
X81101Y120259D01*
X80404Y119352D01*
X79967Y118295D01*
X79817Y117161D01*
X79967Y116028D01*
X80404Y114971D01*
X81101Y114064D01*
X82008Y113367D01*
X83065Y112930D01*
X84198Y112780D01*
X85332Y112930D01*
X86389Y113367D01*
X87296Y114064D01*
X87993Y114971D01*
X88430Y116028D01*
X88579Y117161D01*
X88430Y118295D01*
X88072Y119160D01*
X91045Y122134D01*
X91192Y122353D01*
X91678Y122678D01*
X92159Y123398D01*
X92329Y124248D01*
X92159Y125098D01*
X91678Y125818D01*
X91433Y125982D01*
Y128258D01*
X92680D01*
Y133598D01*
D02*
G37*
G36*
X224638Y136243D02*
X218707D01*
Y127754D01*
X220347D01*
Y123881D01*
X214953Y118487D01*
X213851D01*
X213492Y119352D01*
X212796Y120259D01*
X211889Y120956D01*
X210832Y121393D01*
X209698Y121542D01*
X208565Y121393D01*
X207508Y120956D01*
X206601Y120259D01*
X205904Y119352D01*
X205467Y118295D01*
X205317Y117161D01*
X205467Y116028D01*
X205904Y114971D01*
X206601Y114064D01*
X207508Y113367D01*
X208565Y112930D01*
X209698Y112780D01*
X210832Y112930D01*
X211889Y113367D01*
X212796Y114064D01*
X213492Y114971D01*
X213851Y115836D01*
X215502D01*
X216009Y115937D01*
X216439Y116224D01*
X222609Y122395D01*
X222897Y122825D01*
X222998Y123332D01*
Y127754D01*
X224638D01*
Y136243D01*
D02*
G37*
G36*
X249698Y121542D02*
X248565Y121393D01*
X247508Y120956D01*
X246601Y120259D01*
X245904Y119352D01*
X245467Y118295D01*
X245318Y117161D01*
X245467Y116028D01*
X245904Y114971D01*
X246601Y114064D01*
X247508Y113367D01*
X248565Y112930D01*
X249698Y112780D01*
X250832Y112930D01*
X251889Y113367D01*
X252796Y114064D01*
X253492Y114971D01*
X253930Y116028D01*
X254079Y117161D01*
X253930Y118295D01*
X253492Y119352D01*
X252796Y120259D01*
X251889Y120956D01*
X250832Y121393D01*
X249698Y121542D01*
D02*
G37*
G36*
X110922Y126469D02*
X110073Y126300D01*
X109352Y125818D01*
X108871Y125098D01*
X108702Y124248D01*
X108871Y123398D01*
X109352Y122678D01*
X110073Y122196D01*
X110922Y122027D01*
X111772Y122196D01*
X112493Y122678D01*
X112656Y122923D01*
X169563D01*
X173325Y119160D01*
X172967Y118295D01*
X172818Y117161D01*
X172967Y116028D01*
X173404Y114971D01*
X174101Y114064D01*
X175008Y113367D01*
X176065Y112930D01*
X177198Y112780D01*
X178332Y112930D01*
X179389Y113367D01*
X180296Y114064D01*
X180992Y114971D01*
X181430Y116028D01*
X181579Y117161D01*
X181430Y118295D01*
X180992Y119352D01*
X180296Y120259D01*
X179389Y120956D01*
X178332Y121393D01*
X177198Y121542D01*
X176065Y121393D01*
X175199Y121035D01*
X171049Y125185D01*
X170619Y125473D01*
X170112Y125574D01*
X112656D01*
X112493Y125818D01*
X111772Y126300D01*
X110922Y126469D01*
D02*
G37*
G36*
X157198Y121542D02*
X156065Y121393D01*
X155008Y120956D01*
X154101Y120259D01*
X153404Y119352D01*
X152967Y118295D01*
X152817Y117161D01*
X152967Y116028D01*
X153404Y114971D01*
X154101Y114064D01*
X155008Y113367D01*
X156065Y112930D01*
X157198Y112780D01*
X158332Y112930D01*
X159389Y113367D01*
X160296Y114064D01*
X160993Y114971D01*
X161430Y116028D01*
X161579Y117161D01*
X161430Y118295D01*
X160993Y119352D01*
X160296Y120259D01*
X159389Y120956D01*
X158332Y121393D01*
X157198Y121542D01*
D02*
G37*
G36*
X86872Y132516D02*
X79761D01*
Y128066D01*
X75785Y124090D01*
X75498Y123660D01*
X75397Y123153D01*
Y114012D01*
X75498Y113505D01*
X75785Y113075D01*
X79919Y108941D01*
X80349Y108653D01*
X80856Y108553D01*
X129915D01*
X130422Y108653D01*
X130852Y108941D01*
X135199Y113288D01*
X136065Y112930D01*
X137198Y112780D01*
X138332Y112930D01*
X139389Y113367D01*
X140296Y114064D01*
X140992Y114971D01*
X141430Y116028D01*
X141579Y117161D01*
X141430Y118295D01*
X140992Y119352D01*
X140296Y120259D01*
X139389Y120956D01*
X138332Y121393D01*
X137198Y121542D01*
X136065Y121393D01*
X135008Y120956D01*
X134101Y120259D01*
X133404Y119352D01*
X132967Y118295D01*
X132817Y117161D01*
X132967Y116028D01*
X133325Y115163D01*
X129366Y111203D01*
X81405D01*
X78048Y114561D01*
Y122604D01*
X82423Y126979D01*
X86872D01*
Y132516D01*
D02*
G37*
G36*
X64198Y121542D02*
X63064Y121393D01*
X62008Y120956D01*
X61101Y120259D01*
X60404Y119352D01*
X59967Y118295D01*
X59817Y117161D01*
X59967Y116028D01*
X60404Y114971D01*
X61101Y114064D01*
X62008Y113367D01*
X63064Y112930D01*
X64198Y112780D01*
X65332Y112930D01*
X66389Y113367D01*
X67296Y114064D01*
X67993Y114971D01*
X68430Y116028D01*
X68579Y117161D01*
X68430Y118295D01*
X67993Y119352D01*
X67296Y120259D01*
X66389Y120956D01*
X65332Y121393D01*
X64198Y121542D01*
D02*
G37*
G36*
X114616Y106488D02*
X113766Y106319D01*
X113046Y105838D01*
X112564Y105117D01*
X112395Y104268D01*
X112452Y103979D01*
X111744Y103270D01*
X110049D01*
Y104516D01*
X106284D01*
Y99373D01*
X110049D01*
Y100619D01*
X112293D01*
X112800Y100720D01*
X113230Y101008D01*
X114327Y102104D01*
X114616Y102047D01*
X115465Y102216D01*
X116186Y102698D01*
X116667Y103418D01*
X116836Y104268D01*
X116667Y105117D01*
X116186Y105838D01*
X115465Y106319D01*
X114616Y106488D01*
D02*
G37*
G36*
X160408Y105758D02*
X156858D01*
Y100437D01*
X160408D01*
Y105758D01*
D02*
G37*
G36*
X156058D02*
X152509D01*
Y100437D01*
X156058D01*
Y105758D01*
D02*
G37*
G36*
X181084Y99583D02*
X179502D01*
Y97313D01*
X181084D01*
Y99583D01*
D02*
G37*
G36*
X178702D02*
X177121D01*
Y97313D01*
X178702D01*
Y99583D01*
D02*
G37*
G36*
X120067Y106844D02*
X119217Y106675D01*
X118497Y106194D01*
X118015Y105473D01*
X117846Y104624D01*
X118015Y103774D01*
X118497Y103053D01*
X118742Y102890D01*
Y102154D01*
X117397D01*
Y97011D01*
X122737D01*
Y102154D01*
X121392D01*
Y102890D01*
X121637Y103053D01*
X122118Y103774D01*
X122287Y104624D01*
X122118Y105473D01*
X121637Y106194D01*
X120917Y106675D01*
X120067Y106844D01*
D02*
G37*
G36*
X219149Y98303D02*
X213828D01*
Y94754D01*
X219149D01*
Y98303D01*
D02*
G37*
G36*
X213028D02*
X207706D01*
Y94754D01*
X213028D01*
Y98303D01*
D02*
G37*
G36*
X160408Y99637D02*
X156858D01*
Y94316D01*
X160408D01*
Y99637D01*
D02*
G37*
G36*
X156058D02*
X152509D01*
Y94316D01*
X156058D01*
Y99637D01*
D02*
G37*
G36*
X181084Y96513D02*
X179502D01*
Y94243D01*
X181084D01*
Y96513D01*
D02*
G37*
G36*
X178702D02*
X177121D01*
Y94243D01*
X178702D01*
Y96513D01*
D02*
G37*
G36*
X112608Y95658D02*
X111126D01*
Y93487D01*
X112608D01*
Y95658D01*
D02*
G37*
G36*
X110326D02*
X108843D01*
Y93487D01*
X110326D01*
Y95658D01*
D02*
G37*
G36*
X171832Y94760D02*
X169562D01*
Y92588D01*
X171832D01*
Y94760D01*
D02*
G37*
G36*
X191713D02*
X189443D01*
Y92588D01*
X191713D01*
Y94760D01*
D02*
G37*
G36*
X188643D02*
X186373D01*
Y92588D01*
X188643D01*
Y94760D01*
D02*
G37*
G36*
X168762D02*
X166491D01*
Y92588D01*
X168762D01*
Y94760D01*
D02*
G37*
G36*
X112608Y92687D02*
X111126D01*
Y90515D01*
X112608D01*
Y92687D01*
D02*
G37*
G36*
X110326D02*
X108843D01*
Y90515D01*
X110326D01*
Y92687D01*
D02*
G37*
G36*
X219149Y93954D02*
X213828D01*
Y90404D01*
X219149D01*
Y93954D01*
D02*
G37*
G36*
X213028D02*
X207706D01*
Y90404D01*
X213028D01*
Y93954D01*
D02*
G37*
G36*
X191713Y91788D02*
X189443D01*
Y89617D01*
X191713D01*
Y91788D01*
D02*
G37*
G36*
X188643D02*
X186373D01*
Y89617D01*
X188643D01*
Y91788D01*
D02*
G37*
G36*
X171832D02*
X169562D01*
Y89617D01*
X171832D01*
Y91788D01*
D02*
G37*
G36*
X168762D02*
X166491D01*
Y89617D01*
X168762D01*
Y91788D01*
D02*
G37*
G36*
X182726Y135783D02*
X181731Y135585D01*
X180887Y135021D01*
X180324Y134178D01*
X180126Y133183D01*
X180324Y132188D01*
X180887Y131344D01*
X181731Y130781D01*
X182372Y130653D01*
X185313Y127712D01*
Y107713D01*
X185468Y106932D01*
X185910Y106271D01*
X193496Y98685D01*
X193755Y98303D01*
X193755D01*
X193755Y98303D01*
Y90425D01*
X192157Y88827D01*
X191713Y88657D01*
Y88657D01*
X191713Y88657D01*
X186373D01*
Y88125D01*
X184824D01*
Y88756D01*
X180861D01*
Y86378D01*
X180803Y86086D01*
X180861Y85794D01*
Y83416D01*
X184824D01*
Y84047D01*
X186373D01*
Y83514D01*
X191713D01*
Y84047D01*
X192300D01*
X193080Y84202D01*
X193742Y84644D01*
X197652Y88554D01*
X198094Y89216D01*
X198249Y89996D01*
X198532Y90404D01*
X205198D01*
Y98303D01*
X198249D01*
Y98854D01*
X198249Y98854D01*
X198094Y99635D01*
X197652Y100296D01*
X197652Y100296D01*
X189391Y108557D01*
Y128557D01*
X189236Y129337D01*
X188794Y129999D01*
X185256Y133537D01*
X185128Y134178D01*
X184564Y135021D01*
X183721Y135585D01*
X182726Y135783D01*
D02*
G37*
G36*
X160408Y91807D02*
X152509D01*
Y88125D01*
X146248D01*
Y88657D01*
X140908D01*
Y88125D01*
X135883D01*
X135555Y88060D01*
X131532D01*
Y84098D01*
X135584D01*
X135876Y84040D01*
X135911Y84047D01*
X140908D01*
Y83514D01*
X146248D01*
Y84047D01*
X152509D01*
Y80365D01*
X160408D01*
Y84047D01*
X166491D01*
Y83514D01*
X171832D01*
Y84047D01*
X173381D01*
Y83416D01*
X177343D01*
Y85794D01*
X177401Y86086D01*
X177343Y86378D01*
Y88756D01*
X173381D01*
Y88125D01*
X171832D01*
Y88657D01*
X166491D01*
Y88125D01*
X160408D01*
Y91807D01*
D02*
G37*
G36*
X107490Y95658D02*
X103725D01*
Y94313D01*
X103715Y94311D01*
X103285Y94024D01*
X99014Y89753D01*
X97147D01*
Y84610D01*
X102488D01*
Y89478D01*
X103311Y90301D01*
X103725Y90515D01*
Y90515D01*
X103725Y90515D01*
X107490D01*
Y95658D01*
D02*
G37*
G36*
X146248Y82555D02*
X143977D01*
Y80383D01*
X146248D01*
Y82555D01*
D02*
G37*
G36*
X143177D02*
X140908D01*
Y80383D01*
X143177D01*
Y82555D01*
D02*
G37*
G36*
X122737Y96052D02*
X117397D01*
Y90909D01*
X118742D01*
Y87281D01*
X118842Y86774D01*
X119130Y86344D01*
X124395Y81079D01*
X118761Y75445D01*
X118474Y75015D01*
X118373Y74508D01*
Y59526D01*
X117688Y58841D01*
X116946Y59148D01*
X115876Y59289D01*
X114805Y59148D01*
X113808Y58735D01*
X112951Y58078D01*
X112294Y57221D01*
X111881Y56224D01*
X111740Y55154D01*
X111881Y54083D01*
X112294Y53086D01*
X112951Y52229D01*
X113808Y51572D01*
X114805Y51159D01*
X115876Y51018D01*
X116946Y51159D01*
X117943Y51572D01*
X118800Y52229D01*
X119457Y53086D01*
X119870Y54083D01*
X120011Y55154D01*
X119870Y56224D01*
X119563Y56966D01*
X120636Y58039D01*
X120923Y58469D01*
X121024Y58976D01*
Y73959D01*
X126818Y79753D01*
X131532D01*
Y79098D01*
X140219D01*
Y83060D01*
X131532D01*
Y82404D01*
X126818D01*
X121392Y87830D01*
Y90909D01*
X122737D01*
Y96052D01*
D02*
G37*
G36*
X102488Y83650D02*
X97147D01*
Y78507D01*
X102488D01*
Y79753D01*
X103186D01*
Y79098D01*
X111872D01*
Y83060D01*
X103186D01*
Y82404D01*
X102488D01*
Y83650D01*
D02*
G37*
G36*
X146248Y79584D02*
X143977D01*
Y77412D01*
X146248D01*
Y79584D01*
D02*
G37*
G36*
X143177D02*
X140908D01*
Y77412D01*
X143177D01*
Y79584D01*
D02*
G37*
G36*
X111872Y78060D02*
X103186D01*
Y77404D01*
X88559D01*
X88052Y77303D01*
X87622Y77016D01*
X71481Y60875D01*
X70890Y61120D01*
X69898Y61251D01*
X68906Y61120D01*
X67982Y60737D01*
X67188Y60128D01*
X66579Y59334D01*
X66196Y58410D01*
X66066Y57418D01*
X66196Y56426D01*
X66579Y55502D01*
X67188Y54708D01*
X67982Y54099D01*
X68906Y53716D01*
X69898Y53585D01*
X70890Y53716D01*
X71815Y54099D01*
X72609Y54708D01*
X73218Y55502D01*
X73601Y56426D01*
X73731Y57418D01*
X73601Y58410D01*
X73356Y59001D01*
X89108Y74753D01*
X103186D01*
Y74098D01*
X111872D01*
Y78060D01*
D02*
G37*
G36*
Y73060D02*
X107929D01*
Y71479D01*
X111872D01*
Y73060D01*
D02*
G37*
G36*
X107129D02*
X103186D01*
Y71479D01*
X107129D01*
Y73060D01*
D02*
G37*
G36*
X111872Y70679D02*
X107929D01*
Y69098D01*
X111872D01*
Y70679D01*
D02*
G37*
G36*
X107129D02*
X103186D01*
Y69098D01*
X107129D01*
Y70679D01*
D02*
G37*
G36*
X140219Y78060D02*
X131532D01*
Y77351D01*
X131294Y77303D01*
X130863Y77016D01*
X124938Y71091D01*
X124651Y70661D01*
X124550Y70154D01*
Y59042D01*
X123808Y58735D01*
X122951Y58078D01*
X122294Y57221D01*
X121881Y56224D01*
X121740Y55154D01*
X121881Y54083D01*
X122294Y53086D01*
X122951Y52229D01*
X123808Y51572D01*
X124805Y51159D01*
X125876Y51018D01*
X126946Y51159D01*
X127943Y51572D01*
X128800Y52229D01*
X129457Y53086D01*
X129870Y54083D01*
X130011Y55154D01*
X129870Y56224D01*
X129457Y57221D01*
X128800Y58078D01*
X127943Y58735D01*
X127201Y59042D01*
Y69604D01*
X131694Y74098D01*
X140219D01*
X140612Y73838D01*
X144682Y69767D01*
X145113Y69480D01*
X145620Y69379D01*
X148286D01*
Y66460D01*
X154217D01*
Y74950D01*
X148286D01*
Y72030D01*
X146169D01*
X141813Y76386D01*
X141383Y76673D01*
X140876Y76774D01*
X140219D01*
Y78060D01*
D02*
G37*
G36*
X165831Y74950D02*
X159901D01*
Y66460D01*
X165236D01*
X170172Y61525D01*
X170602Y61237D01*
X171109Y61136D01*
X192536D01*
Y59300D01*
X198860D01*
Y65624D01*
X192536D01*
Y63787D01*
X171658D01*
X165831Y69614D01*
Y74950D01*
D02*
G37*
G36*
X111872Y88060D02*
X103186D01*
Y84098D01*
X111872D01*
X111872Y84098D01*
Y84098D01*
X112211Y83766D01*
X113480Y82497D01*
Y64632D01*
X107688Y58841D01*
X106946Y59148D01*
X105876Y59289D01*
X104805Y59148D01*
X103808Y58735D01*
X102951Y58078D01*
X102294Y57221D01*
X101881Y56224D01*
X101740Y55154D01*
X101881Y54083D01*
X102294Y53086D01*
X102951Y52229D01*
X103808Y51572D01*
X104805Y51159D01*
X105876Y51018D01*
X106946Y51159D01*
X107943Y51572D01*
X108800Y52229D01*
X109457Y53086D01*
X109870Y54083D01*
X110011Y55154D01*
X109870Y56224D01*
X109563Y56966D01*
X115743Y63146D01*
X116030Y63576D01*
X116131Y64083D01*
Y83046D01*
X116030Y83553D01*
X115743Y83983D01*
X112709Y87016D01*
X112279Y87303D01*
X111872Y87384D01*
Y88060D01*
D02*
G37*
G36*
X243895Y61845D02*
Y58464D01*
X247275D01*
X247197Y59057D01*
X246814Y59981D01*
X246205Y60775D01*
X245411Y61384D01*
X244487Y61767D01*
X243895Y61845D01*
D02*
G37*
G36*
X243095D02*
X242503Y61767D01*
X241579Y61384D01*
X240785Y60775D01*
X240176Y59981D01*
X239793Y59057D01*
X239715Y58464D01*
X243095D01*
Y61845D01*
D02*
G37*
G36*
X80298Y61198D02*
Y57818D01*
X83679D01*
X83601Y58410D01*
X83218Y59334D01*
X82609Y60128D01*
X81815Y60737D01*
X80890Y61120D01*
X80298Y61198D01*
D02*
G37*
G36*
X79498D02*
X78906Y61120D01*
X77982Y60737D01*
X77188Y60128D01*
X76579Y59334D01*
X76196Y58410D01*
X76118Y57818D01*
X79498D01*
Y61198D01*
D02*
G37*
G36*
X161652Y59236D02*
Y55554D01*
X165334D01*
X165246Y56224D01*
X164833Y57221D01*
X164176Y58078D01*
X163320Y58735D01*
X162322Y59148D01*
X161652Y59236D01*
D02*
G37*
G36*
X160852D02*
X160181Y59148D01*
X159184Y58735D01*
X158328Y58078D01*
X157670Y57221D01*
X157257Y56224D01*
X157169Y55554D01*
X160852D01*
Y59236D01*
D02*
G37*
G36*
X243095Y57665D02*
X239715D01*
X239793Y57073D01*
X240176Y56148D01*
X240785Y55354D01*
X241579Y54745D01*
X242503Y54362D01*
X243095Y54284D01*
Y57665D01*
D02*
G37*
G36*
X247275D02*
X243895D01*
Y54284D01*
X244487Y54362D01*
X245411Y54745D01*
X246205Y55354D01*
X246814Y56148D01*
X247197Y57073D01*
X247275Y57665D01*
D02*
G37*
G36*
X205698Y75651D02*
X204873Y75542D01*
X204104Y75224D01*
X203443Y74717D01*
X202936Y74057D01*
X202618Y73287D01*
X202509Y72462D01*
X202618Y71636D01*
X202936Y70867D01*
X203443Y70207D01*
X204104Y69700D01*
X204873Y69381D01*
X205698Y69273D01*
X206524Y69381D01*
X206793Y69493D01*
X212729Y63556D01*
X212618Y63287D01*
X212509Y62462D01*
X212618Y61636D01*
X212936Y60867D01*
X213443Y60207D01*
X214104Y59700D01*
X214873Y59381D01*
X215698Y59273D01*
X216524Y59381D01*
X216793Y59493D01*
X219159Y57127D01*
X219589Y56840D01*
X220096Y56739D01*
X229931D01*
X230176Y56148D01*
X230785Y55354D01*
X231579Y54745D01*
X232503Y54362D01*
X233495Y54232D01*
X234487Y54362D01*
X235412Y54745D01*
X236205Y55354D01*
X236814Y56148D01*
X237197Y57073D01*
X237328Y58065D01*
X237197Y59057D01*
X236814Y59981D01*
X236205Y60775D01*
X235412Y61384D01*
X234487Y61767D01*
X233495Y61897D01*
X232503Y61767D01*
X231579Y61384D01*
X230785Y60775D01*
X230176Y59981D01*
X229931Y59390D01*
X220645D01*
X218668Y61367D01*
X218779Y61636D01*
X218888Y62462D01*
X218779Y63287D01*
X218460Y64056D01*
X217954Y64717D01*
X217293Y65224D01*
X216524Y65543D01*
X215698Y65651D01*
X214873Y65543D01*
X214604Y65431D01*
X208668Y71367D01*
X208779Y71636D01*
X208888Y72462D01*
X208779Y73287D01*
X208460Y74057D01*
X207954Y74717D01*
X207293Y75224D01*
X206524Y75542D01*
X205698Y75651D01*
D02*
G37*
G36*
X83679Y57018D02*
X80298D01*
Y53638D01*
X80890Y53716D01*
X81815Y54099D01*
X82609Y54708D01*
X83218Y55502D01*
X83601Y56426D01*
X83679Y57018D01*
D02*
G37*
G36*
X79498D02*
X76118D01*
X76196Y56426D01*
X76579Y55502D01*
X77188Y54708D01*
X77982Y54099D01*
X78906Y53716D01*
X79498Y53638D01*
Y57018D01*
D02*
G37*
G36*
X165334Y54754D02*
X161652D01*
Y51071D01*
X162322Y51159D01*
X163320Y51572D01*
X164176Y52229D01*
X164833Y53086D01*
X165246Y54083D01*
X165334Y54754D01*
D02*
G37*
G36*
X160852D02*
X157169D01*
X157257Y54083D01*
X157670Y53086D01*
X158328Y52229D01*
X159184Y51572D01*
X160181Y51159D01*
X160852Y51071D01*
Y54754D01*
D02*
G37*
G36*
X140219Y73060D02*
X131532D01*
Y69098D01*
X134550D01*
Y59042D01*
X133808Y58735D01*
X132951Y58078D01*
X132294Y57221D01*
X131881Y56224D01*
X131740Y55154D01*
X131881Y54083D01*
X132294Y53086D01*
X132951Y52229D01*
X133808Y51572D01*
X134805Y51159D01*
X135876Y51018D01*
X136946Y51159D01*
X137943Y51572D01*
X138800Y52229D01*
X139457Y53086D01*
X139764Y53828D01*
X147363D01*
X147670Y53086D01*
X148328Y52229D01*
X149184Y51572D01*
X150181Y51159D01*
X151252Y51018D01*
X152322Y51159D01*
X153320Y51572D01*
X154176Y52229D01*
X154833Y53086D01*
X155246Y54083D01*
X155387Y55154D01*
X155246Y56224D01*
X154833Y57221D01*
X154176Y58078D01*
X153320Y58735D01*
X152322Y59148D01*
X151252Y59289D01*
X150181Y59148D01*
X149184Y58735D01*
X148328Y58078D01*
X147670Y57221D01*
X147363Y56479D01*
X139764D01*
X139457Y57221D01*
X138800Y58078D01*
X137943Y58735D01*
X137201Y59042D01*
Y69098D01*
X140219D01*
Y73060D01*
D02*
G37*
%LPD*%
D10*
X11811Y11811D02*
D03*
X578740Y11811D02*
D03*
Y381890D02*
D03*
X11811Y381890D02*
D03*
Y11811D02*
D03*
X578740D02*
D03*
Y381890D02*
D03*
X11811Y381890D02*
D03*
D11*
X108167Y101945D02*
D03*
X110725Y93087D02*
D03*
X105607D02*
D03*
X380037Y101945D02*
D03*
X382596Y93087D02*
D03*
X377478D02*
D03*
D12*
X120067Y93480D02*
D03*
Y99583D02*
D03*
X99817Y81079D02*
D03*
Y87181D02*
D03*
X189043Y86086D02*
D03*
Y92188D02*
D03*
X169161Y86086D02*
D03*
Y92188D02*
D03*
X143578Y86086D02*
D03*
Y79984D02*
D03*
X256742Y178776D02*
D03*
Y184878D02*
D03*
X250639Y178776D02*
D03*
Y184878D02*
D03*
X256742Y172806D02*
D03*
Y166703D02*
D03*
X250639D02*
D03*
Y172806D02*
D03*
X258021Y139676D02*
D03*
Y145778D02*
D03*
X233286Y139676D02*
D03*
Y145778D02*
D03*
X215009Y171664D02*
D03*
Y177766D02*
D03*
X208907D02*
D03*
Y171664D02*
D03*
X202805Y177766D02*
D03*
Y171664D02*
D03*
X174163Y207024D02*
D03*
Y213126D02*
D03*
X109891Y137228D02*
D03*
Y131125D02*
D03*
X72533Y197378D02*
D03*
Y203480D02*
D03*
X112981Y218835D02*
D03*
Y212732D02*
D03*
X106828Y218835D02*
D03*
Y212732D02*
D03*
X100720D02*
D03*
Y218835D02*
D03*
X66431Y203480D02*
D03*
Y197378D02*
D03*
X60328D02*
D03*
Y203480D02*
D03*
X72599Y218835D02*
D03*
Y212732D02*
D03*
X391937Y93480D02*
D03*
Y99583D02*
D03*
X371688Y81079D02*
D03*
Y87181D02*
D03*
X460914Y86086D02*
D03*
Y92188D02*
D03*
X441032Y86086D02*
D03*
Y92188D02*
D03*
X415448Y86086D02*
D03*
Y79984D02*
D03*
X528612Y178776D02*
D03*
Y184878D02*
D03*
X522509Y178776D02*
D03*
Y184878D02*
D03*
X528612Y172806D02*
D03*
Y166703D02*
D03*
X522509D02*
D03*
Y172806D02*
D03*
X529891Y139676D02*
D03*
Y145778D02*
D03*
X505156Y139676D02*
D03*
Y145778D02*
D03*
X486880Y171664D02*
D03*
Y177766D02*
D03*
X480777D02*
D03*
Y171664D02*
D03*
X474675Y177766D02*
D03*
Y171664D02*
D03*
X446033Y207024D02*
D03*
Y213126D02*
D03*
X381761Y137228D02*
D03*
Y131125D02*
D03*
X344403Y197378D02*
D03*
Y203480D02*
D03*
X384851Y218835D02*
D03*
Y212732D02*
D03*
X378698Y218835D02*
D03*
Y212732D02*
D03*
X372590D02*
D03*
Y218835D02*
D03*
X338301Y203480D02*
D03*
Y197378D02*
D03*
X332198D02*
D03*
Y203480D02*
D03*
X344469Y218835D02*
D03*
Y212732D02*
D03*
D13*
X107529Y86079D02*
D03*
Y81079D02*
D03*
Y76079D02*
D03*
Y71079D02*
D03*
X135876Y86079D02*
D03*
Y81079D02*
D03*
Y76079D02*
D03*
Y71079D02*
D03*
X379399Y86079D02*
D03*
Y81079D02*
D03*
Y76079D02*
D03*
Y71079D02*
D03*
X407746Y86079D02*
D03*
Y81079D02*
D03*
Y76079D02*
D03*
Y71079D02*
D03*
D14*
X199477Y94354D02*
D03*
X213428D02*
D03*
X229698Y222181D02*
D03*
X215747D02*
D03*
X471347Y94354D02*
D03*
X485298D02*
D03*
X501569Y222181D02*
D03*
X487617D02*
D03*
D15*
X156458Y86086D02*
D03*
Y100037D02*
D03*
X245620Y145778D02*
D03*
Y131827D02*
D03*
X428328Y86086D02*
D03*
Y100037D02*
D03*
X517490Y145778D02*
D03*
Y131827D02*
D03*
D16*
X151252Y70705D02*
D03*
X162866D02*
D03*
X221672Y131999D02*
D03*
X233286D02*
D03*
X79131Y187964D02*
D03*
X67517D02*
D03*
X423122Y70705D02*
D03*
X434736D02*
D03*
X493542Y131999D02*
D03*
X505156D02*
D03*
X351001Y187964D02*
D03*
X339387D02*
D03*
D17*
X243651Y183672D02*
D03*
X237549D02*
D03*
X221112Y139676D02*
D03*
X227214D02*
D03*
Y145778D02*
D03*
X221112D02*
D03*
X209005Y165587D02*
D03*
X215108D02*
D03*
X209005Y159484D02*
D03*
X215108D02*
D03*
X221850Y209780D02*
D03*
X215747D02*
D03*
X154423Y207024D02*
D03*
X148320D02*
D03*
X96210Y137031D02*
D03*
X90108D02*
D03*
Y130928D02*
D03*
X96210D02*
D03*
X101195Y225909D02*
D03*
X95092D02*
D03*
X113226Y225921D02*
D03*
X107123D02*
D03*
X83029Y225909D02*
D03*
X89131D02*
D03*
X60389Y190193D02*
D03*
X54286D02*
D03*
Y184091D02*
D03*
X60389D02*
D03*
X515521Y183672D02*
D03*
X509419D02*
D03*
X492982Y139676D02*
D03*
X499084D02*
D03*
Y145778D02*
D03*
X492982D02*
D03*
X480876Y165587D02*
D03*
X486978D02*
D03*
X480876Y159484D02*
D03*
X486978D02*
D03*
X493720Y209780D02*
D03*
X487617D02*
D03*
X426293Y207024D02*
D03*
X420191D02*
D03*
X368080Y137031D02*
D03*
X361978D02*
D03*
Y130928D02*
D03*
X368080D02*
D03*
X373065Y225909D02*
D03*
X366962D02*
D03*
X385096Y225921D02*
D03*
X378993D02*
D03*
X354899Y225909D02*
D03*
X361001D02*
D03*
X332259Y190193D02*
D03*
X326156D02*
D03*
Y184091D02*
D03*
X332259D02*
D03*
D18*
X213533Y134164D02*
D03*
Y145778D02*
D03*
X167950Y156938D02*
D03*
Y168552D02*
D03*
X158501Y168552D02*
D03*
Y156938D02*
D03*
X149052Y168552D02*
D03*
Y156938D02*
D03*
X52608Y208992D02*
D03*
Y197378D02*
D03*
X485403Y134164D02*
D03*
Y145778D02*
D03*
X439820Y156938D02*
D03*
Y168552D02*
D03*
X430371Y168552D02*
D03*
Y156938D02*
D03*
X420922Y168552D02*
D03*
Y156938D02*
D03*
X324478Y208992D02*
D03*
Y197378D02*
D03*
D19*
X243553Y161703D02*
D03*
Y166703D02*
D03*
Y171703D02*
D03*
Y176703D02*
D03*
X222096Y161703D02*
D03*
Y166703D02*
D03*
Y171703D02*
D03*
Y176703D02*
D03*
X515423Y161703D02*
D03*
Y166703D02*
D03*
Y171703D02*
D03*
Y176703D02*
D03*
X493966Y161703D02*
D03*
Y166703D02*
D03*
Y171703D02*
D03*
Y176703D02*
D03*
D20*
X145368Y219032D02*
D03*
X154423D02*
D03*
X417238D02*
D03*
X426293D02*
D03*
D21*
X191486Y231827D02*
D03*
Y246591D02*
D03*
X463356Y231827D02*
D03*
Y246591D02*
D03*
D22*
X191486Y217246D02*
D03*
Y197392D02*
D03*
X463356Y217246D02*
D03*
Y197392D02*
D03*
D23*
X148488Y185665D02*
D03*
X168342D02*
D03*
X167948Y139602D02*
D03*
X148094D02*
D03*
X420358Y185665D02*
D03*
X440212D02*
D03*
X439818Y139602D02*
D03*
X419965D02*
D03*
D24*
X103002Y129747D02*
D03*
Y137031D02*
D03*
X83316Y137031D02*
D03*
Y129747D02*
D03*
X374872Y129747D02*
D03*
Y137031D02*
D03*
X355187Y137031D02*
D03*
Y129747D02*
D03*
D25*
X94131Y218835D02*
D03*
X89131D02*
D03*
X84131D02*
D03*
X79131D02*
D03*
X94131Y197378D02*
D03*
X89131D02*
D03*
X84131D02*
D03*
X79131D02*
D03*
X366001Y218835D02*
D03*
X361001D02*
D03*
X356001D02*
D03*
X351001D02*
D03*
X366001Y197378D02*
D03*
X361001D02*
D03*
X356001D02*
D03*
X351001D02*
D03*
D26*
X175362Y86086D02*
D03*
X182843D02*
D03*
X179102Y96913D02*
D03*
X160580Y207024D02*
D03*
X168061D02*
D03*
X164321Y217850D02*
D03*
X447232Y86086D02*
D03*
X454713D02*
D03*
X450973Y96913D02*
D03*
X432450Y207024D02*
D03*
X439931D02*
D03*
X436191Y217850D02*
D03*
D27*
X174439Y252398D02*
D03*
X164439D02*
D03*
X174439Y226807D02*
D03*
X164439D02*
D03*
X446309Y252398D02*
D03*
X436309D02*
D03*
X446309Y226807D02*
D03*
X436309D02*
D03*
D28*
X154423Y227752D02*
D03*
Y237752D02*
D03*
Y257752D02*
D03*
Y247752D02*
D03*
X126864D02*
D03*
Y257752D02*
D03*
Y237752D02*
D03*
Y227752D02*
D03*
X426293D02*
D03*
Y237752D02*
D03*
Y257752D02*
D03*
Y247752D02*
D03*
X398734D02*
D03*
Y257752D02*
D03*
Y237752D02*
D03*
Y227752D02*
D03*
D29*
X112293Y101945D02*
X114616Y104268D01*
X108167Y101945D02*
X112293D01*
X104222Y93087D02*
X105607D01*
X99817Y88682D02*
X104222Y93087D01*
X99817Y87181D02*
Y88682D01*
Y87181D02*
X99916D01*
X210486Y200429D02*
X221604D01*
X206053Y204862D02*
X210486Y200429D01*
X206053Y204862D02*
Y233016D01*
X221604Y200429D02*
X225836Y196197D01*
X237814Y171703D02*
X243553D01*
X225836Y183681D02*
X237814Y171703D01*
X189517Y263323D02*
X204872D01*
X217778Y250416D01*
X213533Y127244D02*
X215305Y125473D01*
X213533Y127244D02*
Y134164D01*
X80856Y109878D02*
X129915D01*
X76722Y114012D02*
X80856Y109878D01*
X76722Y114012D02*
Y123153D01*
X129915Y109878D02*
X137198Y117161D01*
X67844Y166750D02*
X71505D01*
X54286Y180307D02*
X67844Y166750D01*
X54286Y180307D02*
Y184091D01*
X104637Y180154D02*
X112155Y172635D01*
X90067Y180154D02*
X104637D01*
X86663Y176750D02*
X90067Y180154D01*
X202903Y160468D02*
Y171664D01*
X206459Y145778D02*
X213533D01*
X265108Y173008D02*
Y184484D01*
X265107Y184485D02*
X265108Y184484D01*
X256750Y157447D02*
Y166703D01*
X258803D02*
X265108Y173008D01*
X126269Y81079D02*
X135876D01*
X120067Y87281D02*
X126269Y81079D01*
X120067Y87281D02*
Y93480D01*
X119698Y74508D02*
X126269Y81079D01*
X119698Y58976D02*
Y74508D01*
X165052Y253011D02*
Y267867D01*
X164439Y252398D02*
X165052Y253011D01*
X256742Y194228D02*
X260974Y198461D01*
X256742Y184878D02*
Y194228D01*
X250639Y184878D02*
Y189110D01*
X241289Y198461D02*
X250639Y189110D01*
X220096Y58065D02*
X233495D01*
X215698Y62462D02*
X220096Y58065D01*
X205698Y72462D02*
X215698Y62462D01*
X162866Y70705D02*
X171109Y62462D01*
X195698D01*
X145620Y70705D02*
X151252D01*
X140876Y75448D02*
X145620Y70705D01*
X136506Y75448D02*
X140876D01*
X135876Y76079D02*
X136506Y75448D01*
X119242Y216950D02*
Y251544D01*
X115025Y212732D02*
X119242Y216950D01*
X112981Y212732D02*
X115025D01*
X135679Y253087D02*
Y261551D01*
X130344Y247752D02*
X135679Y253087D01*
X126864Y247752D02*
X130344D01*
X113969Y283261D02*
X135679Y261551D01*
X70390Y283261D02*
X113969D01*
X119242Y251544D02*
X125450Y257752D01*
X126864D01*
X164439Y226807D02*
Y228165D01*
X159498Y233106D02*
X164439Y228165D01*
X147883Y233106D02*
X159498D01*
X140306Y225529D02*
X147883Y233106D01*
X140306Y223462D02*
Y225529D01*
X140305Y223461D02*
X140306Y223462D01*
X120067Y99583D02*
Y104624D01*
X135584Y219032D02*
X145368D01*
X126864Y227752D02*
X135584Y219032D01*
X107111Y225909D02*
X107123Y225921D01*
X101195Y225909D02*
X107111D01*
X54286Y184091D02*
Y190193D01*
X71414Y176841D02*
X71505Y176750D01*
X67638Y176841D02*
X71414D01*
X61759Y182720D02*
X67638Y176841D01*
X61660Y182720D02*
X61759D01*
X60389Y183992D02*
X61660Y182720D01*
X60389Y183992D02*
Y184091D01*
X103702Y236662D02*
X104198D01*
X95092Y228051D02*
X103702Y236662D01*
X95092Y225909D02*
Y228051D01*
X84198Y235014D02*
Y236662D01*
X83029Y233845D02*
X84198Y235014D01*
X83029Y225909D02*
Y233845D01*
X52608Y225071D02*
X64198Y236662D01*
X52608Y208992D02*
Y225071D01*
Y197378D02*
X60328D01*
Y203480D02*
X66431D01*
X106828Y212732D02*
X112981D01*
X100720Y218835D02*
X106828D01*
X94131D02*
X100720D01*
X83029Y225909D02*
X84131Y224806D01*
Y218835D02*
Y224806D01*
X89131Y225909D02*
X95092D01*
X89131Y218835D02*
Y225909D01*
X68887Y148620D02*
X80476Y137031D01*
X68887Y157773D02*
X71505Y160391D01*
Y166750D01*
X88887Y148620D02*
Y157773D01*
X68887Y148620D02*
Y157773D01*
X92820Y144687D02*
X103892D01*
X112155Y152950D01*
X88887Y148620D02*
X92820Y144687D01*
X71505Y166750D02*
X86663D01*
X71505Y176750D02*
X86663D01*
X67517Y187964D02*
Y188528D01*
X65852Y190193D02*
X67517Y188528D01*
X60389Y190193D02*
X65852D01*
X79131Y187964D02*
Y197378D01*
X79131Y197378D02*
X79131Y197378D01*
X72533Y197378D02*
X79131D01*
X66431D02*
X72533D01*
X81332Y203480D02*
X84131Y200681D01*
Y197378D02*
Y200681D01*
X72533Y203480D02*
X81332D01*
X66431D02*
X72533D01*
X88559Y76079D02*
X107529D01*
X69898Y57418D02*
X88559Y76079D01*
X111772Y86079D02*
X114805Y83046D01*
X107529Y86079D02*
X111772D01*
X114805Y64083D02*
Y83046D01*
X105876Y55154D02*
X114805Y64083D01*
X115876Y55154D02*
X119698Y58976D01*
X131801Y76079D02*
X135876D01*
X125876Y70154D02*
X131801Y76079D01*
X125876Y55154D02*
Y70154D01*
X135876Y55154D02*
X151252D01*
X135876D02*
X135876Y55154D01*
Y71079D01*
X99817Y81079D02*
X99818Y81079D01*
X107529D01*
X90108Y123071D02*
Y124248D01*
X84198Y117161D02*
X90108Y123071D01*
Y124248D02*
Y130928D01*
X105733Y131125D02*
X109891D01*
X104198Y129591D02*
X105733Y131125D01*
X104198Y117161D02*
Y129591D01*
X76722Y123153D02*
X83316Y129747D01*
X103001Y137031D02*
X103002Y137031D01*
X96210Y137031D02*
X103001D01*
X96210Y130928D02*
Y137031D01*
X80476Y137031D02*
X83316D01*
X83316Y137031D01*
X90108D01*
X256750Y166703D02*
X258803D01*
X258021Y145778D02*
Y156175D01*
X256750Y157447D02*
X258021Y156175D01*
X225409Y166703D02*
X230462Y161650D01*
X222096Y166703D02*
X225409D01*
X217778Y224212D02*
Y250416D01*
X215747Y222181D02*
X217778Y224212D01*
X156912Y260241D02*
X159891Y263221D01*
X156912Y258827D02*
Y260241D01*
X155837Y257752D02*
X156912Y258827D01*
X154423Y257752D02*
X155837D01*
X161207Y247752D02*
X164439Y250983D01*
X154423Y247752D02*
X161207D01*
X164439Y250983D02*
Y252398D01*
X126864Y237752D02*
X154423D01*
X215747Y209780D02*
Y222181D01*
X229698D02*
Y236662D01*
X206053Y233016D02*
X209698Y236662D01*
X258021Y145778D02*
X258021Y145778D01*
X256742Y166703D02*
X256750D01*
X243553D02*
X250639D01*
X249537Y171703D02*
X250639Y172806D01*
X243553Y171703D02*
X249537D01*
X250639Y172806D02*
Y178776D01*
Y166703D02*
X256742D01*
Y172806D02*
X256742Y172806D01*
Y178776D01*
X250639Y172806D02*
X256742D01*
X256742Y184878D02*
X256840D01*
X227214Y145778D02*
X233286D01*
X221672Y123332D02*
Y131999D01*
X215502Y117161D02*
X221672Y123332D01*
X209698Y117161D02*
X215502D01*
X170112Y124248D02*
X177198Y117161D01*
X110922Y124248D02*
X170112D01*
X208907Y171664D02*
X209005Y171565D01*
Y165587D02*
Y171565D01*
X215108Y159484D02*
Y165587D01*
X257980Y137790D02*
Y139635D01*
X252017Y131827D02*
X257980Y137790D01*
X245620Y131827D02*
X252017D01*
X257980Y139635D02*
X258021Y139676D01*
X233286Y145778D02*
X245620D01*
X233286Y131999D02*
Y139676D01*
X227214D02*
X233286D01*
X221112D02*
Y145778D01*
X221112Y145778D02*
X221112Y145778D01*
X213533Y145778D02*
X221112D01*
X216072Y176703D02*
X222096D01*
X215009Y177766D02*
X216072Y176703D01*
X208907Y177766D02*
X215009D01*
X208907Y177766D02*
X208907Y177766D01*
X202805Y177766D02*
X208907D01*
X222057Y171664D02*
X222096Y171703D01*
X215009Y171664D02*
X222057D01*
X208907D02*
X215009D01*
X384163Y101945D02*
X386486Y104268D01*
X380037Y101945D02*
X384163D01*
X376092Y93087D02*
X377478D01*
X371688Y88682D02*
X376092Y93087D01*
X371688Y87181D02*
Y88682D01*
Y87181D02*
X371786D01*
X482356Y200429D02*
X493474D01*
X477923Y204862D02*
X482356Y200429D01*
X477923Y204862D02*
Y233016D01*
X493474Y200429D02*
X497706Y196197D01*
X509685Y171703D02*
X515423D01*
X497706Y183681D02*
X509685Y171703D01*
X461387Y263323D02*
X476742D01*
X489648Y250416D01*
X485403Y127244D02*
X487175Y125473D01*
X485403Y127244D02*
Y134164D01*
X352726Y109878D02*
X401785D01*
X348592Y114012D02*
X352726Y109878D01*
X348592Y114012D02*
Y123153D01*
X401785Y109878D02*
X409068Y117161D01*
X339714Y166750D02*
X343376D01*
X326156Y180307D02*
X339714Y166750D01*
X326156Y180307D02*
Y184091D01*
X376507Y180154D02*
X384025Y172635D01*
X361937Y180154D02*
X376507D01*
X358533Y176750D02*
X361937Y180154D01*
X474773Y160468D02*
Y171664D01*
X478329Y145778D02*
X485403D01*
X536978Y173008D02*
Y184484D01*
X536977Y184485D02*
X536978Y184484D01*
X528620Y157447D02*
Y166703D01*
X530674D02*
X536978Y173008D01*
X398139Y81079D02*
X407746D01*
X391937Y87281D02*
X398139Y81079D01*
X391937Y87281D02*
Y93480D01*
X391568Y74508D02*
X398139Y81079D01*
X391568Y58976D02*
Y74508D01*
X436922Y253011D02*
Y267867D01*
X436309Y252398D02*
X436922Y253011D01*
X528612Y194228D02*
X532844Y198461D01*
X528612Y184878D02*
Y194228D01*
X522509Y184878D02*
Y189110D01*
X513159Y198461D02*
X522509Y189110D01*
X491966Y58065D02*
X505365D01*
X487569Y62462D02*
X491966Y58065D01*
X477568Y72462D02*
X487569Y62462D01*
X434736Y70705D02*
X442979Y62462D01*
X467568D01*
X417490Y70705D02*
X423122D01*
X412746Y75448D02*
X417490Y70705D01*
X408376Y75448D02*
X412746D01*
X407746Y76079D02*
X408376Y75448D01*
X391112Y216950D02*
Y251544D01*
X386895Y212732D02*
X391112Y216950D01*
X384851Y212732D02*
X386895D01*
X407549Y253087D02*
Y261551D01*
X402214Y247752D02*
X407549Y253087D01*
X398734Y247752D02*
X402214D01*
X385839Y283261D02*
X407549Y261551D01*
X342261Y283261D02*
X385839D01*
X391112Y251544D02*
X397320Y257752D01*
X398734D01*
X436309Y226807D02*
Y228165D01*
X431368Y233106D02*
X436309Y228165D01*
X419754Y233106D02*
X431368D01*
X412176Y225529D02*
X419754Y233106D01*
X412176Y223462D02*
Y225529D01*
X412175Y223461D02*
X412176Y223462D01*
X391937Y99583D02*
Y104624D01*
X407454Y219032D02*
X417238D01*
X398734Y227752D02*
X407454Y219032D01*
X378981Y225909D02*
X378993Y225921D01*
X373065Y225909D02*
X378981D01*
X326156Y184091D02*
Y190193D01*
X343284Y176841D02*
X343376Y176750D01*
X339508Y176841D02*
X343284D01*
X333629Y182720D02*
X339508Y176841D01*
X333530Y182720D02*
X333629D01*
X332259Y183992D02*
X333530Y182720D01*
X332259Y183992D02*
Y184091D01*
X375572Y236662D02*
X376068D01*
X366962Y228051D02*
X375572Y236662D01*
X366962Y225909D02*
Y228051D01*
X356068Y235014D02*
Y236662D01*
X354899Y233845D02*
X356068Y235014D01*
X354899Y225909D02*
Y233845D01*
X324478Y225071D02*
X336069Y236662D01*
X324478Y208992D02*
Y225071D01*
Y197378D02*
X332198D01*
Y203480D02*
X338301D01*
X378698Y212732D02*
X384851D01*
X372590Y218835D02*
X378698D01*
X366001D02*
X372590D01*
X354899Y225909D02*
X356001Y224806D01*
Y218835D02*
Y224806D01*
X361001Y225909D02*
X366962D01*
X361001Y218835D02*
Y225909D01*
X340757Y148620D02*
X352346Y137031D01*
X340757Y157773D02*
X343376Y160391D01*
Y166750D01*
X360757Y148620D02*
Y157773D01*
X340757Y148620D02*
Y157773D01*
X364690Y144687D02*
X375762D01*
X384025Y152950D01*
X360757Y148620D02*
X364690Y144687D01*
X343376Y166750D02*
X358533D01*
X343376Y176750D02*
X358533D01*
X339387Y187964D02*
Y188528D01*
X337722Y190193D02*
X339387Y188528D01*
X332259Y190193D02*
X337722D01*
X351001Y187964D02*
Y197378D01*
X351001Y197378D02*
X351001Y197378D01*
X344403Y197378D02*
X351001D01*
X338301D02*
X344403D01*
X353202Y203480D02*
X356001Y200681D01*
Y197378D02*
Y200681D01*
X344403Y203480D02*
X353202D01*
X338301D02*
X344403D01*
X360429Y76079D02*
X379399D01*
X341769Y57418D02*
X360429Y76079D01*
X383642Y86079D02*
X386675Y83046D01*
X379399Y86079D02*
X383642D01*
X386675Y64083D02*
Y83046D01*
X377746Y55154D02*
X386675Y64083D01*
X387746Y55154D02*
X391568Y58976D01*
X403671Y76079D02*
X407746D01*
X397746Y70154D02*
X403671Y76079D01*
X397746Y55154D02*
Y70154D01*
X407746Y55154D02*
X423122D01*
X407746D02*
X407746Y55154D01*
Y71079D01*
X371688Y81079D02*
X371688Y81079D01*
X379399D01*
X361978Y123071D02*
Y124248D01*
X356068Y117161D02*
X361978Y123071D01*
Y124248D02*
Y130928D01*
X377603Y131125D02*
X381761D01*
X376068Y129591D02*
X377603Y131125D01*
X376068Y117161D02*
Y129591D01*
X348592Y123153D02*
X355187Y129747D01*
X374872Y137031D02*
X374872Y137031D01*
X368080Y137031D02*
X374872D01*
X368080Y130928D02*
Y137031D01*
X352346Y137031D02*
X355187D01*
X355187Y137031D01*
X361978D01*
X528620Y166703D02*
X530674D01*
X529891Y145778D02*
Y156175D01*
X528620Y157447D02*
X529891Y156175D01*
X497279Y166703D02*
X502332Y161650D01*
X493966Y166703D02*
X497279D01*
X489648Y224212D02*
Y250416D01*
X487617Y222181D02*
X489648Y224212D01*
X428782Y260241D02*
X431761Y263221D01*
X428782Y258827D02*
Y260241D01*
X427707Y257752D02*
X428782Y258827D01*
X426293Y257752D02*
X427707D01*
X433077Y247752D02*
X436309Y250983D01*
X426293Y247752D02*
X433077D01*
X436309Y250983D02*
Y252398D01*
X398734Y237752D02*
X426293D01*
X487617Y209780D02*
Y222181D01*
X501569D02*
Y236662D01*
X477923Y233016D02*
X481568Y236662D01*
X529891Y145778D02*
X529891Y145778D01*
X528612Y166703D02*
X528620D01*
X515423D02*
X522509D01*
X521407Y171703D02*
X522509Y172806D01*
X515423Y171703D02*
X521407D01*
X522509Y172806D02*
Y178776D01*
Y166703D02*
X528612D01*
Y172806D02*
X528612Y172806D01*
Y178776D01*
X522509Y172806D02*
X528612D01*
X528612Y184878D02*
X528710D01*
X499084Y145778D02*
X505156D01*
X493542Y123332D02*
Y131999D01*
X487372Y117161D02*
X493542Y123332D01*
X481568Y117161D02*
X487372D01*
X441982Y124248D02*
X449068Y117161D01*
X382792Y124248D02*
X441982D01*
X480777Y171664D02*
X480876Y171565D01*
Y165587D02*
Y171565D01*
X486978Y159484D02*
Y165587D01*
X529850Y137790D02*
Y139635D01*
X523887Y131827D02*
X529850Y137790D01*
X517490Y131827D02*
X523887D01*
X529850Y139635D02*
X529891Y139676D01*
X505156Y145778D02*
X517490D01*
X505156Y131999D02*
Y139676D01*
X499084D02*
X505156D01*
X492982D02*
Y145778D01*
X492982Y145778D02*
X492982Y145778D01*
X485403Y145778D02*
X492982D01*
X487943Y176703D02*
X493966D01*
X486880Y177766D02*
X487943Y176703D01*
X480777Y177766D02*
X486880D01*
X480777Y177766D02*
X480777Y177766D01*
X474675Y177766D02*
X480777D01*
X493927Y171664D02*
X493966Y171703D01*
X486880Y171664D02*
X493927D01*
X480777D02*
X486880D01*
D30*
X205462Y108106D02*
X220643D01*
X199477Y114092D02*
X205462Y108106D01*
X199477Y114092D02*
Y131120D01*
X190994Y139602D02*
X199477Y131120D01*
X196210Y94354D02*
Y98854D01*
Y89996D02*
Y94354D01*
X187352Y107713D02*
X196210Y98854D01*
X187352Y107713D02*
Y128557D01*
X182726Y133183D02*
X187352Y128557D01*
X196210Y94354D02*
X199477D01*
X192300Y86086D02*
X196210Y89996D01*
X189043Y86086D02*
X192300D01*
X166879Y277594D02*
X182431Y262043D01*
X161939Y277594D02*
X166879D01*
X190994Y139602D02*
Y160173D01*
X167948Y139602D02*
X190994D01*
Y160173D02*
X195324Y164504D01*
Y174664D01*
X190994Y139602D02*
X204773Y153382D01*
X134975Y162793D02*
Y174707D01*
Y162793D02*
X140830Y156938D01*
X112155Y162793D02*
X134975D01*
X72599Y218835D02*
X79131D01*
Y212685D02*
Y218835D01*
X115108Y203776D02*
X127228D01*
X100720Y208963D02*
Y212732D01*
Y208963D02*
X121753Y187929D01*
X89131Y192646D02*
X93848Y187929D01*
X89131Y192646D02*
Y197378D01*
X93848Y187929D02*
X121753D01*
X135876Y86079D02*
X135883Y86086D01*
X143578D01*
X156458D01*
X127228Y203776D02*
X145339Y185665D01*
X121120Y137228D02*
X140830Y156938D01*
X109891Y137228D02*
X121120D01*
X121753Y187929D02*
X134975Y174707D01*
X140830Y156938D02*
X149052D01*
X156458Y86086D02*
X169161D01*
X175362D01*
X182843D02*
X189043D01*
X182723Y156938D02*
X182726Y156934D01*
X167950Y156938D02*
X182723D01*
X182726Y180055D02*
Y207024D01*
X204773Y153382D02*
X209005D01*
X236847D01*
X209005D02*
Y159484D01*
X243543Y160078D02*
Y161693D01*
X243553Y161703D01*
X236847Y153382D02*
X243543Y160078D01*
X154423Y219032D02*
Y227752D01*
Y207024D02*
Y219032D01*
Y207024D02*
X160580D01*
X168061D02*
X168061Y207024D01*
X174163D01*
X191486Y215784D02*
Y217246D01*
X182726Y207024D02*
X191486Y215784D01*
X174163Y207024D02*
X182726D01*
X191486Y217246D02*
Y231827D01*
X182431Y240882D02*
X191486Y231827D01*
X182431Y240882D02*
Y262043D01*
X240108Y189996D02*
X243651Y186453D01*
X202116Y189996D02*
X240108D01*
X180672Y168552D02*
X202116Y189996D01*
X243651Y183672D02*
Y186453D01*
X167950Y168552D02*
X180672D01*
X220643Y108106D02*
X229698Y117161D01*
X145339Y185665D02*
X148488D01*
X158501Y168552D02*
Y178573D01*
Y146129D02*
Y156938D01*
Y146129D02*
X165028Y139602D01*
X167948D01*
X151409Y185665D02*
X158501Y178573D01*
X148488Y185665D02*
X151409D01*
X167950Y168552D02*
X167950Y168552D01*
X158501Y168552D02*
X167950D01*
X149052Y156938D02*
X158501D01*
X243553Y176703D02*
X243632D01*
X243651Y176722D01*
Y183672D01*
X477332Y108106D02*
X492513D01*
X471347Y114092D02*
X477332Y108106D01*
X471347Y114092D02*
Y131120D01*
X462864Y139602D02*
X471347Y131120D01*
X468080Y94354D02*
Y98854D01*
Y89996D02*
Y94354D01*
X459222Y107713D02*
X468080Y98854D01*
X459222Y107713D02*
Y128557D01*
X454596Y133183D02*
X459222Y128557D01*
X468080Y94354D02*
X471347D01*
X464170Y86086D02*
X468080Y89996D01*
X460914Y86086D02*
X464170D01*
X438750Y277594D02*
X454301Y262043D01*
X433809Y277594D02*
X438750D01*
X462864Y139602D02*
Y160173D01*
X439818Y139602D02*
X462864D01*
Y160173D02*
X467195Y164504D01*
Y174664D01*
X462864Y139602D02*
X476643Y153382D01*
X406845Y162793D02*
Y174707D01*
Y162793D02*
X412700Y156938D01*
X384025Y162793D02*
X406845D01*
X344469Y218835D02*
X351001D01*
Y212685D02*
Y218835D01*
X386978Y203776D02*
X399098D01*
X372590Y208963D02*
Y212732D01*
Y208963D02*
X393623Y187929D01*
X361001Y192646D02*
X365718Y187929D01*
X361001Y192646D02*
Y197378D01*
X365718Y187929D02*
X393623D01*
X407746Y86079D02*
X407753Y86086D01*
X415448D01*
X428328D01*
X399098Y203776D02*
X417209Y185665D01*
X392990Y137228D02*
X412700Y156938D01*
X381761Y137228D02*
X392990D01*
X393623Y187929D02*
X406845Y174707D01*
X412700Y156938D02*
X420922D01*
X428328Y86086D02*
X441032D01*
X447232D01*
X454713D02*
X460914D01*
X454593Y156938D02*
X454596Y156934D01*
X439820Y156938D02*
X454593D01*
X454596Y180055D02*
Y207024D01*
X476643Y153382D02*
X480876D01*
X508717D01*
X480876D02*
Y159484D01*
X515413Y160078D02*
Y161693D01*
X515423Y161703D01*
X508717Y153382D02*
X515413Y160078D01*
X426293Y219032D02*
Y227752D01*
Y207024D02*
Y219032D01*
Y207024D02*
X432450D01*
X439931D02*
X439931Y207024D01*
X446033D01*
X463356Y215784D02*
Y217246D01*
X454596Y207024D02*
X463356Y215784D01*
X446033Y207024D02*
X454596D01*
X463356Y217246D02*
Y231827D01*
X454301Y240882D02*
X463356Y231827D01*
X454301Y240882D02*
Y262043D01*
X511978Y189996D02*
X515521Y186453D01*
X473986Y189996D02*
X511978D01*
X452542Y168552D02*
X473986Y189996D01*
X515521Y183672D02*
Y186453D01*
X439820Y168552D02*
X452542D01*
X492513Y108106D02*
X501569Y117161D01*
X417209Y185665D02*
X420358D01*
X430371Y168552D02*
Y178573D01*
Y146129D02*
Y156938D01*
Y146129D02*
X436898Y139602D01*
X439818D01*
X423279Y185665D02*
X430371Y178573D01*
X420358Y185665D02*
X423279D01*
X439820Y168552D02*
X439820Y168552D01*
X430371Y168552D02*
X439820D01*
X420922Y156938D02*
X430371D01*
X515423Y176703D02*
X515502D01*
X515521Y176722D01*
Y183672D01*
D31*
X312205Y267027D02*
D03*
Y263090D02*
D03*
Y259153D02*
D03*
Y251279D02*
D03*
Y255216D02*
D03*
X312106Y81004D02*
D03*
Y77067D02*
D03*
Y84941D02*
D03*
Y88878D02*
D03*
Y92815D02*
D03*
X545571Y255216D02*
D03*
Y251279D02*
D03*
Y259153D02*
D03*
Y263090D02*
D03*
Y267027D02*
D03*
X545571Y81004D02*
D03*
Y77067D02*
D03*
Y84941D02*
D03*
Y88878D02*
D03*
Y92815D02*
D03*
X273622Y92815D02*
D03*
Y88878D02*
D03*
Y84941D02*
D03*
Y77067D02*
D03*
Y81004D02*
D03*
X273622Y267028D02*
D03*
Y263091D02*
D03*
Y259154D02*
D03*
Y251279D02*
D03*
Y255216D02*
D03*
X40157Y92815D02*
D03*
Y88878D02*
D03*
Y84941D02*
D03*
Y77067D02*
D03*
Y81004D02*
D03*
X40256Y255216D02*
D03*
Y251279D02*
D03*
Y259154D02*
D03*
Y263091D02*
D03*
Y267028D02*
D03*
D32*
X99557Y162793D02*
D03*
Y152950D02*
D03*
Y172635D02*
D03*
X112155D02*
D03*
Y152950D02*
D03*
Y162793D02*
D03*
X251132Y211059D02*
D03*
X241289D02*
D03*
X260974D02*
D03*
Y198461D02*
D03*
X241289D02*
D03*
X251132D02*
D03*
X371427Y162793D02*
D03*
Y152950D02*
D03*
Y172635D02*
D03*
X384025D02*
D03*
Y152950D02*
D03*
Y162793D02*
D03*
X523002Y211059D02*
D03*
X513159D02*
D03*
X532844D02*
D03*
Y198461D02*
D03*
X513159D02*
D03*
X523002D02*
D03*
D33*
X151939Y277594D02*
D03*
X161939D02*
D03*
X233495Y58065D02*
D03*
X243495D02*
D03*
X69898Y57418D02*
D03*
X79898D02*
D03*
X423809Y277594D02*
D03*
X433809D02*
D03*
X505365Y58065D02*
D03*
X515365D02*
D03*
X341769Y57418D02*
D03*
X351768D02*
D03*
D34*
X195698Y62462D02*
D03*
X88887Y148620D02*
D03*
X68887Y157773D02*
D03*
X467568Y62462D02*
D03*
X360757Y148620D02*
D03*
X340757Y157773D02*
D03*
D35*
X205698Y72462D02*
D03*
X215698Y62462D02*
D03*
X68887Y148620D02*
D03*
X88887Y157773D02*
D03*
X477568Y72462D02*
D03*
X487569Y62462D02*
D03*
X340757Y148620D02*
D03*
X360757Y157773D02*
D03*
D36*
X135876Y55154D02*
D03*
X125876D02*
D03*
X105876D02*
D03*
X115876D02*
D03*
X151252D02*
D03*
X161252D02*
D03*
X407746D02*
D03*
X397746D02*
D03*
X377746D02*
D03*
X387746D02*
D03*
X423122D02*
D03*
X433122D02*
D03*
D37*
X249698Y236662D02*
D03*
X229698D02*
D03*
X209698D02*
D03*
X177198Y117161D02*
D03*
X157198D02*
D03*
X137198D02*
D03*
X104198Y236662D02*
D03*
X84198D02*
D03*
X64198D02*
D03*
X249698Y117161D02*
D03*
X229698D02*
D03*
X209698D02*
D03*
X104198D02*
D03*
X84198D02*
D03*
X64198D02*
D03*
X521568Y236662D02*
D03*
X501569D02*
D03*
X481568D02*
D03*
X449068Y117161D02*
D03*
X429069D02*
D03*
X409068D02*
D03*
X376068Y236662D02*
D03*
X356068D02*
D03*
X336069D02*
D03*
X521568Y117161D02*
D03*
X501569D02*
D03*
X481568D02*
D03*
X376068D02*
D03*
X356068D02*
D03*
X336069D02*
D03*
D38*
X71505Y166750D02*
D03*
X86663Y176750D02*
D03*
X343376Y166750D02*
D03*
X358533Y176750D02*
D03*
D39*
X71505D02*
D03*
X86663Y166750D02*
D03*
X343376Y176750D02*
D03*
X358533Y166750D02*
D03*
D40*
X179609Y308261D02*
D03*
X243507D02*
D03*
X179609Y333261D02*
D03*
X243507D02*
D03*
X179609Y283261D02*
D03*
X243507D02*
D03*
X70390Y308261D02*
D03*
X134288D02*
D03*
X70390Y333261D02*
D03*
X134288D02*
D03*
X70390Y283261D02*
D03*
X134288D02*
D03*
X451479Y308261D02*
D03*
X515378D02*
D03*
X451479Y333261D02*
D03*
X515378D02*
D03*
X451479Y283261D02*
D03*
X515378D02*
D03*
X342261Y308261D02*
D03*
X406158D02*
D03*
X342261Y333261D02*
D03*
X406158D02*
D03*
X342261Y283261D02*
D03*
X406158D02*
D03*
D41*
X170817Y281532D02*
D03*
X130659Y97276D02*
D03*
X114616Y93087D02*
D03*
X197195Y106532D02*
D03*
X234596Y194622D02*
D03*
X210679Y205350D02*
D03*
X189517Y263323D02*
D03*
X215305Y125473D02*
D03*
X200246Y222181D02*
D03*
X149065Y191965D02*
D03*
X135088Y202693D02*
D03*
X119709Y209091D02*
D03*
X169513Y296488D02*
D03*
X161368Y271587D02*
D03*
X177903Y274839D02*
D03*
X211368Y250232D02*
D03*
X94808Y176750D02*
D03*
Y148620D02*
D03*
X105757Y157773D02*
D03*
Y167555D02*
D03*
X109891Y142260D02*
D03*
X62155Y177398D02*
D03*
X98474Y183697D02*
D03*
X113226Y230744D02*
D03*
X206459Y145778D02*
D03*
X238927Y120606D02*
D03*
X220521Y115784D02*
D03*
X73288Y187964D02*
D03*
X261663Y179366D02*
D03*
X265107Y184485D02*
D03*
X252411Y192358D02*
D03*
X252313Y161650D02*
D03*
X238927Y149543D02*
D03*
X252313Y145606D02*
D03*
X227214Y131999D02*
D03*
X238927Y138717D02*
D03*
X148080Y119160D02*
D03*
X167273Y119130D02*
D03*
X182726Y122177D02*
D03*
X176525Y133008D02*
D03*
X207529Y127398D02*
D03*
X199458Y139602D02*
D03*
X190502Y133008D02*
D03*
X176525Y162831D02*
D03*
X195915Y152398D02*
D03*
X186761Y146886D02*
D03*
X188927Y167949D02*
D03*
X211860Y184370D02*
D03*
X228592Y173756D02*
D03*
X236171Y161650D02*
D03*
X94808Y72374D02*
D03*
X219316Y271587D02*
D03*
X148080Y133402D02*
D03*
X177706Y185764D02*
D03*
X269119Y271587D02*
D03*
X221180Y94354D02*
D03*
X148376Y79984D02*
D03*
X211368Y228874D02*
D03*
X194414Y122177D02*
D03*
X168356Y191965D02*
D03*
X144611Y47472D02*
D03*
X84198Y124248D02*
D03*
X237549Y228874D02*
D03*
X148080Y146098D02*
D03*
X219316Y72374D02*
D03*
X119709Y147079D02*
D03*
X45005Y246685D02*
D03*
X130659Y64209D02*
D03*
X119709Y171980D02*
D03*
X174163Y217654D02*
D03*
X232597Y183672D02*
D03*
X194414Y47472D02*
D03*
X197588Y197378D02*
D03*
X127608Y252890D02*
D03*
X244217Y246685D02*
D03*
X139517Y233008D02*
D03*
X244217Y271587D02*
D03*
X45005Y122177D02*
D03*
X174458Y258303D02*
D03*
X69906Y97276D02*
D03*
X244217Y321390D02*
D03*
X125344Y219524D02*
D03*
X94808Y246685D02*
D03*
X110922Y119160D02*
D03*
X219832Y194819D02*
D03*
X170423Y226807D02*
D03*
X269119Y221783D02*
D03*
X72588Y208106D02*
D03*
X213428Y100528D02*
D03*
X69906Y122177D02*
D03*
X244217Y47472D02*
D03*
X144611Y321390D02*
D03*
X127608Y171886D02*
D03*
X45005Y147079D02*
D03*
X213428Y88224D02*
D03*
X169513Y346291D02*
D03*
X45005Y321390D02*
D03*
X69906Y296488D02*
D03*
X169161Y96913D02*
D03*
X45005Y47472D02*
D03*
X121195Y119456D02*
D03*
X94808Y97276D02*
D03*
X168356Y179465D02*
D03*
X244217Y346291D02*
D03*
X107529Y66768D02*
D03*
X191486Y206630D02*
D03*
X126171Y75783D02*
D03*
X127608Y192654D02*
D03*
Y152890D02*
D03*
X269119Y147079D02*
D03*
X194414Y346291D02*
D03*
Y72374D02*
D03*
X119709Y196882D02*
D03*
X169513Y147079D02*
D03*
X174458Y232811D02*
D03*
X119709Y346291D02*
D03*
X191486Y254366D02*
D03*
X127608Y130646D02*
D03*
X119709Y271587D02*
D03*
X194414Y321390D02*
D03*
X179102Y101807D02*
D03*
X69906Y271587D02*
D03*
X223671Y228874D02*
D03*
X119709Y47472D02*
D03*
X227017Y201217D02*
D03*
X222096Y157516D02*
D03*
X269119Y47472D02*
D03*
X94808Y119160D02*
D03*
X120067Y81079D02*
D03*
X144611Y246685D02*
D03*
X94808Y271587D02*
D03*
X45005Y97276D02*
D03*
Y72374D02*
D03*
Y296488D02*
D03*
X143553Y207024D02*
D03*
X147096Y225626D02*
D03*
X78887Y161773D02*
D03*
X94808Y47472D02*
D03*
X269119Y246685D02*
D03*
Y122177D02*
D03*
X119709Y296488D02*
D03*
X219316D02*
D03*
X169513Y321390D02*
D03*
X244217Y97276D02*
D03*
X169513Y47472D02*
D03*
X94808Y321390D02*
D03*
X45005Y221783D02*
D03*
X98474Y197378D02*
D03*
X170324Y267457D02*
D03*
X149065Y173854D02*
D03*
X135199Y130646D02*
D03*
X162571Y100037D02*
D03*
X69906Y47472D02*
D03*
X144611Y346291D02*
D03*
X138828Y139602D02*
D03*
X164321Y213421D02*
D03*
X244217Y72374D02*
D03*
X119931Y130646D02*
D03*
X94808Y346291D02*
D03*
X69906D02*
D03*
X119709Y321390D02*
D03*
X269119Y296488D02*
D03*
X134005Y212437D02*
D03*
X269119Y321390D02*
D03*
X86958Y184189D02*
D03*
X156458Y107811D02*
D03*
X269119Y97276D02*
D03*
X94808Y296488D02*
D03*
X110679Y192260D02*
D03*
X269119Y196882D02*
D03*
X64198Y152950D02*
D03*
X269119Y72374D02*
D03*
X219316Y321390D02*
D03*
X65994Y221787D02*
D03*
X169513Y72374D02*
D03*
X189043Y96913D02*
D03*
X110679Y183598D02*
D03*
X178494Y226807D02*
D03*
X144611Y271587D02*
D03*
X221850Y214799D02*
D03*
X119635Y158697D02*
D03*
X91879Y209091D02*
D03*
X135088Y186945D02*
D03*
X78789Y171749D02*
D03*
X144611Y296488D02*
D03*
X174458Y246591D02*
D03*
X269119Y171980D02*
D03*
X141289Y163618D02*
D03*
X194414Y296488D02*
D03*
X219316Y47472D02*
D03*
X194414Y271587D02*
D03*
X191486Y188126D02*
D03*
X69906Y246685D02*
D03*
X161368Y258598D02*
D03*
X69906Y321390D02*
D03*
X45005Y271587D02*
D03*
X81250Y144327D02*
D03*
X150246Y100037D02*
D03*
X244217Y296488D02*
D03*
X178297Y252398D02*
D03*
X45005Y171980D02*
D03*
X170620Y252398D02*
D03*
X134695Y156938D02*
D03*
X219316Y346291D02*
D03*
X45005Y196882D02*
D03*
X128382Y114971D02*
D03*
X69906Y72374D02*
D03*
X198376Y246591D02*
D03*
X165052Y267867D02*
D03*
X140305Y223461D02*
D03*
X120067Y104624D02*
D03*
X114616Y104268D02*
D03*
X135584Y219032D02*
D03*
X90108Y124248D02*
D03*
X110922D02*
D03*
X202903Y160468D02*
D03*
X159891Y263221D02*
D03*
X225836Y183681D02*
D03*
Y196197D02*
D03*
X230462Y161650D02*
D03*
X442687Y281532D02*
D03*
X402529Y97276D02*
D03*
X386486Y93087D02*
D03*
X469065Y106532D02*
D03*
X506466Y194622D02*
D03*
X482549Y205350D02*
D03*
X461387Y263323D02*
D03*
X487175Y125473D02*
D03*
X472116Y222181D02*
D03*
X420935Y191965D02*
D03*
X406958Y202693D02*
D03*
X391580Y209091D02*
D03*
X441383Y296488D02*
D03*
X433238Y271587D02*
D03*
X449773Y274839D02*
D03*
X483238Y250232D02*
D03*
X366678Y176750D02*
D03*
Y148620D02*
D03*
X377628Y157773D02*
D03*
Y167555D02*
D03*
X381761Y142260D02*
D03*
X334025Y177398D02*
D03*
X370344Y183697D02*
D03*
X385096Y230744D02*
D03*
X478329Y145778D02*
D03*
X510797Y120606D02*
D03*
X492391Y115784D02*
D03*
X345158Y187964D02*
D03*
X533533Y179366D02*
D03*
X536977Y184485D02*
D03*
X524281Y192358D02*
D03*
X524183Y161650D02*
D03*
X510797Y149543D02*
D03*
X524183Y145606D02*
D03*
X499084Y131999D02*
D03*
X510797Y138717D02*
D03*
X419950Y119160D02*
D03*
X439143Y119130D02*
D03*
X454596Y122177D02*
D03*
X448395Y133008D02*
D03*
X479399Y127398D02*
D03*
X471328Y139602D02*
D03*
X462372Y133008D02*
D03*
X448395Y162831D02*
D03*
X467785Y152398D02*
D03*
X458632Y146886D02*
D03*
X460797Y167949D02*
D03*
X483730Y184370D02*
D03*
X500462Y173756D02*
D03*
X508041Y161650D02*
D03*
X366678Y72374D02*
D03*
X491186Y271587D02*
D03*
X419950Y133402D02*
D03*
X449576Y185764D02*
D03*
X540989Y271587D02*
D03*
X493050Y94354D02*
D03*
X420246Y79984D02*
D03*
X483238Y228874D02*
D03*
X466284Y122177D02*
D03*
X440226Y191965D02*
D03*
X416481Y47472D02*
D03*
X356068Y124248D02*
D03*
X509419Y228874D02*
D03*
X419950Y146098D02*
D03*
X491186Y72374D02*
D03*
X391580Y147079D02*
D03*
X316875Y246685D02*
D03*
X402529Y64209D02*
D03*
X391580Y171980D02*
D03*
X446033Y217654D02*
D03*
X504467Y183672D02*
D03*
X466284Y47472D02*
D03*
X469458Y197378D02*
D03*
X399478Y252890D02*
D03*
X516087Y246685D02*
D03*
X411387Y233008D02*
D03*
X516087Y271587D02*
D03*
X316875Y122177D02*
D03*
X446328Y258303D02*
D03*
X341776Y97276D02*
D03*
X516087Y321390D02*
D03*
X397214Y219524D02*
D03*
X366678Y246685D02*
D03*
X382792Y119160D02*
D03*
X491702Y194819D02*
D03*
X442293Y226807D02*
D03*
X540989Y221783D02*
D03*
X344458Y208106D02*
D03*
X485298Y100528D02*
D03*
X341776Y122177D02*
D03*
X516087Y47472D02*
D03*
X416481Y321390D02*
D03*
X399478Y171886D02*
D03*
X316875Y147079D02*
D03*
X485298Y88224D02*
D03*
X441383Y346291D02*
D03*
X316875Y321390D02*
D03*
X341776Y296488D02*
D03*
X441032Y96913D02*
D03*
X316875Y47472D02*
D03*
X393066Y119456D02*
D03*
X366678Y97276D02*
D03*
X440226Y179465D02*
D03*
X516087Y346291D02*
D03*
X379399Y66768D02*
D03*
X463356Y206630D02*
D03*
X398041Y75783D02*
D03*
X399478Y192654D02*
D03*
Y152890D02*
D03*
X540989Y147079D02*
D03*
X466284Y346291D02*
D03*
Y72374D02*
D03*
X391580Y196882D02*
D03*
X441383Y147079D02*
D03*
X446328Y232811D02*
D03*
X391580Y346291D02*
D03*
X463356Y254366D02*
D03*
X399478Y130646D02*
D03*
X391580Y271587D02*
D03*
X466284Y321390D02*
D03*
X450973Y101807D02*
D03*
X341776Y271587D02*
D03*
X495541Y228874D02*
D03*
X391580Y47472D02*
D03*
X498887Y201217D02*
D03*
X493966Y157516D02*
D03*
X540989Y47472D02*
D03*
X366678Y119160D02*
D03*
X391937Y81079D02*
D03*
X416481Y246685D02*
D03*
X366678Y271587D02*
D03*
X316875Y97276D02*
D03*
Y72374D02*
D03*
Y296488D02*
D03*
X415423Y207024D02*
D03*
X418966Y225626D02*
D03*
X350758Y161773D02*
D03*
X366678Y47472D02*
D03*
X540989Y246685D02*
D03*
Y122177D02*
D03*
X391580Y296488D02*
D03*
X491186D02*
D03*
X441383Y321390D02*
D03*
X516087Y97276D02*
D03*
X441383Y47472D02*
D03*
X366678Y321390D02*
D03*
X316875Y221783D02*
D03*
X370344Y197378D02*
D03*
X442195Y267457D02*
D03*
X420935Y173854D02*
D03*
X407070Y130646D02*
D03*
X434441Y100037D02*
D03*
X341776Y47472D02*
D03*
X416481Y346291D02*
D03*
X410698Y139602D02*
D03*
X436191Y213421D02*
D03*
X516087Y72374D02*
D03*
X391801Y130646D02*
D03*
X366678Y346291D02*
D03*
X341776D02*
D03*
X391580Y321390D02*
D03*
X540989Y296488D02*
D03*
X405876Y212437D02*
D03*
X540989Y321390D02*
D03*
X358828Y184189D02*
D03*
X428328Y107811D02*
D03*
X540989Y97276D02*
D03*
X366678Y296488D02*
D03*
X382549Y192260D02*
D03*
X540989Y196882D02*
D03*
X336069Y152950D02*
D03*
X540989Y72374D02*
D03*
X491186Y321390D02*
D03*
X337864Y221787D02*
D03*
X441383Y72374D02*
D03*
X460914Y96913D02*
D03*
X382549Y183598D02*
D03*
X450364Y226807D02*
D03*
X416481Y271587D02*
D03*
X493720Y214799D02*
D03*
X391506Y158697D02*
D03*
X363750Y209091D02*
D03*
X406958Y186945D02*
D03*
X350659Y171749D02*
D03*
X416481Y296488D02*
D03*
X446328Y246591D02*
D03*
X540989Y171980D02*
D03*
X413159Y163618D02*
D03*
X466284Y296488D02*
D03*
X491186Y47472D02*
D03*
X466284Y271587D02*
D03*
X463356Y188126D02*
D03*
X341776Y246685D02*
D03*
X433238Y258598D02*
D03*
X341776Y321390D02*
D03*
X316875Y271587D02*
D03*
X353120Y144327D02*
D03*
X422116Y100037D02*
D03*
X516087Y296488D02*
D03*
X450167Y252398D02*
D03*
X316875Y171980D02*
D03*
X442490Y252398D02*
D03*
X406565Y156938D02*
D03*
X491186Y346291D02*
D03*
X316875Y196882D02*
D03*
X400252Y114971D02*
D03*
X341776Y72374D02*
D03*
X470246Y246591D02*
D03*
X436922Y267867D02*
D03*
X412175Y223461D02*
D03*
X391937Y104624D02*
D03*
X386486Y104268D02*
D03*
X407454Y219032D02*
D03*
X361978Y124248D02*
D03*
X382792D02*
D03*
X474773Y160468D02*
D03*
X431761Y263221D02*
D03*
X497706Y183681D02*
D03*
Y196197D02*
D03*
X502332Y161650D02*
D03*
D42*
X79131Y212685D02*
D03*
X115108Y203776D02*
D03*
X182726Y133183D02*
D03*
Y156934D02*
D03*
Y180055D02*
D03*
X195324Y174664D02*
D03*
X351001Y212685D02*
D03*
X386978Y203776D02*
D03*
X454596Y133183D02*
D03*
Y156934D02*
D03*
Y180055D02*
D03*
X467195Y174664D02*
D03*
M02*
