G04*
G04 #@! TF.GenerationSoftware,Altium Limited,Altium Designer,19.1.6 (110)*
G04*
G04 Layer_Color=8421504*
%FSLAX25Y25*%
%MOIN*%
G70*
G01*
G75*
%ADD10C,0.11811*%
%ADD11R,0.02165X0.03543*%
%ADD12R,0.03740X0.03543*%
%ADD13R,0.07087X0.02362*%
%ADD14R,0.09843X0.06299*%
%ADD15R,0.06299X0.09843*%
%ADD16R,0.04331X0.06890*%
%ADD17R,0.03543X0.03740*%
%ADD18R,0.06890X0.04331*%
%ADD19R,0.05709X0.02362*%
%ADD20R,0.03150X0.01575*%
%ADD21R,0.06496X0.09843*%
%ADD22R,0.06299X0.12598*%
%ADD23R,0.12598X0.06299*%
%ADD24R,0.05512X0.03937*%
%ADD25R,0.02362X0.05709*%
%ADD26R,0.02362X0.03740*%
%ADD27R,0.02362X0.06299*%
%ADD28R,0.07087X0.03150*%
D10*
X11811Y11811D02*
D03*
X578740Y11811D02*
D03*
Y381890D02*
D03*
X11811Y381890D02*
D03*
D11*
X108167Y101945D02*
D03*
X110725Y93087D02*
D03*
X105607D02*
D03*
X380037Y101945D02*
D03*
X382596Y93087D02*
D03*
X377478D02*
D03*
D12*
X120067Y93480D02*
D03*
Y99583D02*
D03*
X99817Y81079D02*
D03*
Y87181D02*
D03*
X189043Y86086D02*
D03*
Y92188D02*
D03*
X169161Y86086D02*
D03*
Y92188D02*
D03*
X143578Y86086D02*
D03*
Y79984D02*
D03*
X256742Y178776D02*
D03*
Y184878D02*
D03*
X250639Y178776D02*
D03*
Y184878D02*
D03*
X256742Y172806D02*
D03*
Y166703D02*
D03*
X250639D02*
D03*
Y172806D02*
D03*
X258021Y139676D02*
D03*
Y145778D02*
D03*
X233286Y139676D02*
D03*
Y145778D02*
D03*
X215009Y171664D02*
D03*
Y177766D02*
D03*
X208907D02*
D03*
Y171664D02*
D03*
X202805Y177766D02*
D03*
Y171664D02*
D03*
X174163Y207024D02*
D03*
Y213126D02*
D03*
X109891Y137228D02*
D03*
Y131125D02*
D03*
X72533Y197378D02*
D03*
Y203480D02*
D03*
X112981Y218835D02*
D03*
Y212732D02*
D03*
X106828Y218835D02*
D03*
Y212732D02*
D03*
X100720D02*
D03*
Y218835D02*
D03*
X66431Y203480D02*
D03*
Y197378D02*
D03*
X60328D02*
D03*
Y203480D02*
D03*
X72599Y218835D02*
D03*
Y212732D02*
D03*
X391937Y93480D02*
D03*
Y99583D02*
D03*
X371688Y81079D02*
D03*
Y87181D02*
D03*
X460914Y86086D02*
D03*
Y92188D02*
D03*
X441032Y86086D02*
D03*
Y92188D02*
D03*
X415448Y86086D02*
D03*
Y79984D02*
D03*
X528612Y178776D02*
D03*
Y184878D02*
D03*
X522509Y178776D02*
D03*
Y184878D02*
D03*
X528612Y172806D02*
D03*
Y166703D02*
D03*
X522509D02*
D03*
Y172806D02*
D03*
X529891Y139676D02*
D03*
Y145778D02*
D03*
X505156Y139676D02*
D03*
Y145778D02*
D03*
X486880Y171664D02*
D03*
Y177766D02*
D03*
X480777D02*
D03*
Y171664D02*
D03*
X474675Y177766D02*
D03*
Y171664D02*
D03*
X446033Y207024D02*
D03*
Y213126D02*
D03*
X381761Y137228D02*
D03*
Y131125D02*
D03*
X344403Y197378D02*
D03*
Y203480D02*
D03*
X384851Y218835D02*
D03*
Y212732D02*
D03*
X378698Y218835D02*
D03*
Y212732D02*
D03*
X372590D02*
D03*
Y218835D02*
D03*
X338301Y203480D02*
D03*
Y197378D02*
D03*
X332198D02*
D03*
Y203480D02*
D03*
X344469Y218835D02*
D03*
Y212732D02*
D03*
D13*
X107529Y86079D02*
D03*
Y81079D02*
D03*
Y76079D02*
D03*
Y71079D02*
D03*
X135876Y86079D02*
D03*
Y81079D02*
D03*
Y76079D02*
D03*
Y71079D02*
D03*
X379399Y86079D02*
D03*
Y81079D02*
D03*
Y76079D02*
D03*
Y71079D02*
D03*
X407746Y86079D02*
D03*
Y81079D02*
D03*
Y76079D02*
D03*
Y71079D02*
D03*
D14*
X199477Y94354D02*
D03*
X213428D02*
D03*
X229698Y222181D02*
D03*
X215747D02*
D03*
X471347Y94354D02*
D03*
X485298D02*
D03*
X501569Y222181D02*
D03*
X487617D02*
D03*
D15*
X156458Y86086D02*
D03*
Y100037D02*
D03*
X245620Y145778D02*
D03*
Y131827D02*
D03*
X428328Y86086D02*
D03*
Y100037D02*
D03*
X517490Y145778D02*
D03*
Y131827D02*
D03*
D16*
X151252Y70705D02*
D03*
X162866D02*
D03*
X221672Y131999D02*
D03*
X233286D02*
D03*
X79131Y187964D02*
D03*
X67517D02*
D03*
X423122Y70705D02*
D03*
X434736D02*
D03*
X493542Y131999D02*
D03*
X505156D02*
D03*
X351001Y187964D02*
D03*
X339387D02*
D03*
D17*
X243651Y183672D02*
D03*
X237549D02*
D03*
X221112Y139676D02*
D03*
X227214D02*
D03*
Y145778D02*
D03*
X221112D02*
D03*
X209005Y165587D02*
D03*
X215108D02*
D03*
X209005Y159484D02*
D03*
X215108D02*
D03*
X221850Y209780D02*
D03*
X215747D02*
D03*
X154423Y207024D02*
D03*
X148320D02*
D03*
X96210Y137031D02*
D03*
X90108D02*
D03*
Y130928D02*
D03*
X96210D02*
D03*
X101195Y225909D02*
D03*
X95092D02*
D03*
X113226Y225921D02*
D03*
X107123D02*
D03*
X83029Y225909D02*
D03*
X89131D02*
D03*
X60389Y190193D02*
D03*
X54286D02*
D03*
Y184091D02*
D03*
X60389D02*
D03*
X515521Y183672D02*
D03*
X509419D02*
D03*
X492982Y139676D02*
D03*
X499084D02*
D03*
Y145778D02*
D03*
X492982D02*
D03*
X480876Y165587D02*
D03*
X486978D02*
D03*
X480876Y159484D02*
D03*
X486978D02*
D03*
X493720Y209780D02*
D03*
X487617D02*
D03*
X426293Y207024D02*
D03*
X420191D02*
D03*
X368080Y137031D02*
D03*
X361978D02*
D03*
Y130928D02*
D03*
X368080D02*
D03*
X373065Y225909D02*
D03*
X366962D02*
D03*
X385096Y225921D02*
D03*
X378993D02*
D03*
X354899Y225909D02*
D03*
X361001D02*
D03*
X332259Y190193D02*
D03*
X326156D02*
D03*
Y184091D02*
D03*
X332259D02*
D03*
D18*
X213533Y134164D02*
D03*
Y145778D02*
D03*
X167950Y156938D02*
D03*
Y168552D02*
D03*
X158501Y168552D02*
D03*
Y156938D02*
D03*
X149052Y168552D02*
D03*
Y156938D02*
D03*
X52608Y208992D02*
D03*
Y197378D02*
D03*
X485403Y134164D02*
D03*
Y145778D02*
D03*
X439820Y156938D02*
D03*
Y168552D02*
D03*
X430371Y168552D02*
D03*
Y156938D02*
D03*
X420922Y168552D02*
D03*
Y156938D02*
D03*
X324478Y208992D02*
D03*
Y197378D02*
D03*
D19*
X243553Y161703D02*
D03*
Y166703D02*
D03*
Y171703D02*
D03*
Y176703D02*
D03*
X222096Y161703D02*
D03*
Y166703D02*
D03*
Y171703D02*
D03*
Y176703D02*
D03*
X515423Y161703D02*
D03*
Y166703D02*
D03*
Y171703D02*
D03*
Y176703D02*
D03*
X493966Y161703D02*
D03*
Y166703D02*
D03*
Y171703D02*
D03*
Y176703D02*
D03*
D20*
X145368Y219032D02*
D03*
X154423D02*
D03*
X417238D02*
D03*
X426293D02*
D03*
D21*
X191486Y231827D02*
D03*
Y246591D02*
D03*
X463356Y231827D02*
D03*
Y246591D02*
D03*
D22*
X191486Y217246D02*
D03*
Y197392D02*
D03*
X463356Y217246D02*
D03*
Y197392D02*
D03*
D23*
X148488Y185665D02*
D03*
X168342D02*
D03*
X167948Y139602D02*
D03*
X148094D02*
D03*
X420358Y185665D02*
D03*
X440212D02*
D03*
X439818Y139602D02*
D03*
X419965D02*
D03*
D24*
X103002Y129747D02*
D03*
Y137031D02*
D03*
X83316Y137031D02*
D03*
Y129747D02*
D03*
X374872Y129747D02*
D03*
Y137031D02*
D03*
X355187Y137031D02*
D03*
Y129747D02*
D03*
D25*
X94131Y218835D02*
D03*
X89131D02*
D03*
X84131D02*
D03*
X79131D02*
D03*
X94131Y197378D02*
D03*
X89131D02*
D03*
X84131D02*
D03*
X79131D02*
D03*
X366001Y218835D02*
D03*
X361001D02*
D03*
X356001D02*
D03*
X351001D02*
D03*
X366001Y197378D02*
D03*
X361001D02*
D03*
X356001D02*
D03*
X351001D02*
D03*
D26*
X175362Y86086D02*
D03*
X182843D02*
D03*
X179102Y96913D02*
D03*
X160580Y207024D02*
D03*
X168061D02*
D03*
X164321Y217850D02*
D03*
X447232Y86086D02*
D03*
X454713D02*
D03*
X450973Y96913D02*
D03*
X432450Y207024D02*
D03*
X439931D02*
D03*
X436191Y217850D02*
D03*
D27*
X174439Y252398D02*
D03*
X164439D02*
D03*
X174439Y226807D02*
D03*
X164439D02*
D03*
X446309Y252398D02*
D03*
X436309D02*
D03*
X446309Y226807D02*
D03*
X436309D02*
D03*
D28*
X154423Y227752D02*
D03*
Y237752D02*
D03*
Y257752D02*
D03*
Y247752D02*
D03*
X126864D02*
D03*
Y257752D02*
D03*
Y237752D02*
D03*
Y227752D02*
D03*
X426293D02*
D03*
Y237752D02*
D03*
Y257752D02*
D03*
Y247752D02*
D03*
X398734D02*
D03*
Y257752D02*
D03*
Y237752D02*
D03*
Y227752D02*
D03*
M02*
