G04*
G04 #@! TF.GenerationSoftware,Altium Limited,Altium Designer,19.1.6 (110)*
G04*
G04 Layer_Color=32896*
%FSLAX25Y25*%
%MOIN*%
G70*
G01*
G75*
%ADD85C,0.07874*%
D85*
X36761Y42752D02*
G03*
X40698Y38815I3937J0D01*
G01*
X36761Y42752D02*
G03*
X40698Y38815I3937J0D01*
G01*
X40698Y330099D02*
G03*
X36761Y326162I0J-3937D01*
G01*
X40698Y330099D02*
G03*
X36761Y326162I0J-3937D01*
G01*
X63728Y357599D02*
G03*
X59791Y353661I0J-3937D01*
G01*
X63728Y357599D02*
G03*
X59791Y353661I0J-3937D01*
G01*
X273198Y38815D02*
G03*
X277135Y42752I0J3937D01*
G01*
X273198Y38815D02*
G03*
X277135Y42752I0J3937D01*
G01*
X277135Y326162D02*
G03*
X273198Y330099I-3937J0D01*
G01*
X277135Y326162D02*
G03*
X273198Y330099I-3937J0D01*
G01*
X254100Y353661D02*
G03*
X250163Y357599I-3937J0D01*
G01*
X254100Y353661D02*
G03*
X250163Y357599I-3937J0D01*
G01*
X36761Y271587D02*
X36761Y326162D01*
X40698Y38815D02*
X273198D01*
X40698Y330099D02*
X59791D01*
Y353661D01*
X63728Y357599D02*
X250163D01*
X277135Y271587D02*
X277135Y326162D01*
X254100Y330099D02*
X273198D01*
X254100D02*
Y353661D01*
X36761Y246685D02*
X36761Y97276D01*
X36761Y42752D02*
X36762Y72374D01*
X277135Y97276D02*
X277135Y246685D01*
X277135Y44283D02*
X277135Y72374D01*
X308631Y42752D02*
G03*
X312568Y38815I3937J0D01*
G01*
X308631Y42752D02*
G03*
X312568Y38815I3937J0D01*
G01*
X312568Y330099D02*
G03*
X308631Y326162I0J-3937D01*
G01*
X312568Y330099D02*
G03*
X308631Y326162I0J-3937D01*
G01*
X335598Y357599D02*
G03*
X331661Y353661I0J-3937D01*
G01*
X335598Y357599D02*
G03*
X331661Y353661I0J-3937D01*
G01*
X545069Y38815D02*
G03*
X549006Y42752I0J3937D01*
G01*
X545069Y38815D02*
G03*
X549006Y42752I0J3937D01*
G01*
X549006Y326162D02*
G03*
X545069Y330099I-3937J0D01*
G01*
X549006Y326162D02*
G03*
X545069Y330099I-3937J0D01*
G01*
X525971Y353661D02*
G03*
X522034Y357599I-3937J0D01*
G01*
X525971Y353661D02*
G03*
X522034Y357599I-3937J0D01*
G01*
X308631Y271587D02*
X308631Y326162D01*
X312568Y38815D02*
X545069D01*
X312568Y330099D02*
X331661D01*
Y353661D01*
X335598Y357599D02*
X522034D01*
X549006Y271587D02*
X549006Y326162D01*
X525971Y330099D02*
X545069D01*
X525971D02*
Y353661D01*
X308631Y246685D02*
X308631Y97276D01*
X308631Y42752D02*
X308632Y72374D01*
X549006Y97276D02*
X549006Y246685D01*
X549006Y44283D02*
X549006Y72374D01*
M02*
