G04*
G04 #@! TF.GenerationSoftware,Altium Limited,Altium Designer,19.0.9 (268)*
G04*
G04 Layer_Color=65535*
%FSLAX25Y25*%
%MOIN*%
G70*
G01*
G75*
%ADD10C,0.00600*%
%ADD11C,0.01000*%
%ADD12C,0.00500*%
%ADD13C,0.00787*%
%ADD14C,0.00800*%
%ADD15R,0.02000X0.08000*%
%ADD16R,0.08000X0.02000*%
%ADD17R,0.02000X0.10000*%
D10*
X84500Y37737D02*
G03*
X85500Y36737I1000J0D01*
G01*
X91500D02*
G03*
X92500Y37737I0J1000D01*
G01*
Y57863D02*
G03*
X91500Y58863I-1000J0D01*
G01*
X85500D02*
G03*
X84500Y57863I0J-1000D01*
G01*
X146606Y82072D02*
G03*
X146606Y82072I-7906J0D01*
G01*
X119032Y248800D02*
G03*
X114032Y243800I0J-5000D01*
G01*
D02*
G03*
X119032Y238800I5000J0D01*
G01*
X129032D02*
G03*
X134032Y243800I0J5000D01*
G01*
D02*
G03*
X129032Y248800I-5000J0D01*
G01*
X37420Y187720D02*
G03*
X38420Y186720I1000J0D01*
G01*
Y194720D02*
G03*
X37420Y193720I0J-1000D01*
G01*
X59546D02*
G03*
X58546Y194720I-1000J0D01*
G01*
Y186720D02*
G03*
X59546Y187720I0J1000D01*
G01*
X110000Y270500D02*
G03*
X110000Y278500I0J4000D01*
G01*
X120185Y237200D02*
G03*
X117579Y221500I3816J-8700D01*
G01*
X127816Y237200D02*
G03*
X120184Y237200I-3816J-8701D01*
G01*
X130421Y221500D02*
G03*
X127815Y237200I-6422J7000D01*
G01*
X128543Y127500D02*
G03*
X128543Y127500I-9843J0D01*
G01*
X102000Y112503D02*
G03*
X107000Y117503I0J5000D01*
G01*
X97000D02*
G03*
X102000Y112503I5000J0D01*
G01*
Y132503D02*
G03*
X97000Y127503I0J-5000D01*
G01*
X107000D02*
G03*
X102000Y132503I-5000J0D01*
G01*
X97577Y68606D02*
G03*
X100183Y84306I-3816J8700D01*
G01*
X89946Y68606D02*
G03*
X97578Y68606I3816J8701D01*
G01*
X87341Y84306D02*
G03*
X89947Y68606I6422J-7000D01*
G01*
X101500Y36743D02*
G03*
X102500Y37743I0J1000D01*
G01*
X94500D02*
G03*
X95500Y36743I1000J0D01*
G01*
Y58869D02*
G03*
X94500Y57869I0J-1000D01*
G01*
X102500D02*
G03*
X101500Y58869I-1000J0D01*
G01*
X103000Y231500D02*
G03*
X102000Y232500I-1000J0D01*
G01*
Y224500D02*
G03*
X103000Y225500I0J1000D01*
G01*
X85000D02*
G03*
X86000Y224500I1000J0D01*
G01*
Y232500D02*
G03*
X85000Y231500I0J-1000D01*
G01*
X190916Y162920D02*
G03*
X191916Y161920I1000J0D01*
G01*
X197915D02*
G03*
X198916Y162920I0J1000D01*
G01*
Y178920D02*
G03*
X197915Y179920I-1000J0D01*
G01*
X191916D02*
G03*
X190916Y178920I0J-1000D01*
G01*
X18275Y154813D02*
G03*
X13275Y159813I-5000J0D01*
G01*
D02*
G03*
X8275Y154813I0J-5000D01*
G01*
Y144813D02*
G03*
X13275Y139813I5000J0D01*
G01*
D02*
G03*
X18275Y144813I0J5000D01*
G01*
X37437Y76769D02*
G03*
X38437Y75769I1000J0D01*
G01*
Y83769D02*
G03*
X37437Y82769I0J-1000D01*
G01*
X59563D02*
G03*
X58563Y83769I-1000J0D01*
G01*
Y75769D02*
G03*
X59563Y76769I0J1000D01*
G01*
X38437Y93768D02*
G03*
X37437Y92768I0J-1000D01*
G01*
X59563D02*
G03*
X58563Y93768I-1000J0D01*
G01*
X37437Y86768D02*
G03*
X38437Y85768I1000J0D01*
G01*
X58563D02*
G03*
X59563Y86768I0J1000D01*
G01*
X153266Y85184D02*
G03*
X155871Y69484I6422J-7000D01*
G01*
X155870Y69484D02*
G03*
X163503Y69484I3816J8701D01*
G01*
X163502Y69484D02*
G03*
X166107Y85184I-3816J8700D01*
G01*
X119462Y67806D02*
G03*
X127462Y67806I4000J0D01*
G01*
X170868Y58746D02*
G03*
X170868Y58746I-7906J0D01*
G01*
X143462Y47806D02*
G03*
X148462Y42806I5000J0D01*
G01*
D02*
G03*
X153462Y47806I0J5000D01*
G01*
Y57806D02*
G03*
X148462Y62806I-5000J0D01*
G01*
D02*
G03*
X143462Y57806I0J-5000D01*
G01*
X68343Y64110D02*
G03*
X68343Y64110I-9843J0D01*
G01*
X78520Y134769D02*
G03*
X73520Y139769I-5000J0D01*
G01*
Y119769D02*
G03*
X78520Y124769I0J5000D01*
G01*
X73520Y139769D02*
G03*
X68520Y134769I0J-5000D01*
G01*
Y124769D02*
G03*
X73520Y119769I5000J0D01*
G01*
X131000Y133863D02*
G03*
X130000Y132863I0J-1000D01*
G01*
X138000D02*
G03*
X137000Y133863I-1000J0D01*
G01*
X130000Y112737D02*
G03*
X131000Y111737I1000J0D01*
G01*
X137000D02*
G03*
X138000Y112737I0J1000D01*
G01*
X58637Y95766D02*
G03*
X59637Y96766I0J1000D01*
G01*
Y102766D02*
G03*
X58637Y103766I-1000J0D01*
G01*
X38511D02*
G03*
X37511Y102766I0J-1000D01*
G01*
Y96766D02*
G03*
X38511Y95766I1000J0D01*
G01*
X208189Y179077D02*
G03*
X207189Y180077I-1000J0D01*
G01*
X201189D02*
G03*
X200189Y179077I0J-1000D01*
G01*
Y163077D02*
G03*
X201189Y162077I1000J0D01*
G01*
X207189D02*
G03*
X208189Y163077I0J1000D01*
G01*
X163402Y239366D02*
G03*
X163402Y239366I-12402J0D01*
G01*
X106640Y177351D02*
G03*
X106640Y177351I-12402J0D01*
G01*
X44517Y144769D02*
G03*
X52517Y144769I4000J0D01*
G01*
X170519Y161800D02*
G03*
X171519Y162800I0J1000D01*
G01*
X163519D02*
G03*
X164519Y161800I1000J0D01*
G01*
Y179800D02*
G03*
X163519Y178800I0J-1000D01*
G01*
X171519D02*
G03*
X170519Y179800I-1000J0D01*
G01*
X188917Y161920D02*
G03*
X189917Y162920I0J1000D01*
G01*
X181917D02*
G03*
X182917Y161920I1000J0D01*
G01*
Y179920D02*
G03*
X181917Y178920I0J-1000D01*
G01*
X189917D02*
G03*
X188917Y179920I-1000J0D01*
G01*
X173788Y179820D02*
G03*
X172788Y178820I0J-1000D01*
G01*
X180788D02*
G03*
X179788Y179820I-1000J0D01*
G01*
Y161820D02*
G03*
X180788Y162820I0J1000D01*
G01*
X172788D02*
G03*
X173788Y161820I1000J0D01*
G01*
X210576Y180077D02*
G03*
X209576Y179077I0J-1000D01*
G01*
X217576D02*
G03*
X216576Y180077I-1000J0D01*
G01*
Y162077D02*
G03*
X217576Y163077I0J1000D01*
G01*
X209576D02*
G03*
X210576Y162077I1000J0D01*
G01*
X26519Y103706D02*
G03*
X27519Y104706I0J1000D01*
G01*
X19519D02*
G03*
X20519Y103706I1000J0D01*
G01*
Y125832D02*
G03*
X19519Y124832I0J-1000D01*
G01*
X27519D02*
G03*
X26519Y125832I-1000J0D01*
G01*
X16275Y103706D02*
G03*
X17275Y104706I0J1000D01*
G01*
X9275D02*
G03*
X10275Y103706I1000J0D01*
G01*
Y125832D02*
G03*
X9275Y124832I0J-1000D01*
G01*
X17275D02*
G03*
X16275Y125832I-1000J0D01*
G01*
X157000Y111737D02*
G03*
X158000Y112737I0J1000D01*
G01*
X150000D02*
G03*
X151000Y111737I1000J0D01*
G01*
Y133863D02*
G03*
X150000Y132863I0J-1000D01*
G01*
X158000D02*
G03*
X157000Y133863I-1000J0D01*
G01*
X124854Y198449D02*
G03*
X123854Y197449I0J-1000D01*
G01*
X131854D02*
G03*
X130854Y198449I-1000J0D01*
G01*
Y176323D02*
G03*
X131854Y177323I0J1000D01*
G01*
X123854D02*
G03*
X124854Y176323I1000J0D01*
G01*
X147000Y111706D02*
G03*
X148000Y112706I0J1000D01*
G01*
X140000D02*
G03*
X141000Y111706I1000J0D01*
G01*
Y133832D02*
G03*
X140000Y132832I0J-1000D01*
G01*
X148000D02*
G03*
X147000Y133832I-1000J0D01*
G01*
X26519Y143707D02*
G03*
X27519Y144707I0J1000D01*
G01*
X19519D02*
G03*
X20519Y143707I1000J0D01*
G01*
Y165833D02*
G03*
X19519Y164833I0J-1000D01*
G01*
X27519D02*
G03*
X26519Y165833I-1000J0D01*
G01*
X37437Y157740D02*
G03*
X38437Y156740I1000J0D01*
G01*
Y164740D02*
G03*
X37437Y163740I0J-1000D01*
G01*
X59563D02*
G03*
X58563Y164740I-1000J0D01*
G01*
Y156740D02*
G03*
X59563Y157740I0J1000D01*
G01*
X37437Y177720D02*
G03*
X38437Y176720I1000J0D01*
G01*
Y184720D02*
G03*
X37437Y183720I0J-1000D01*
G01*
X59563D02*
G03*
X58563Y184720I-1000J0D01*
G01*
Y176720D02*
G03*
X59563Y177720I0J1000D01*
G01*
X109238Y198468D02*
G03*
X108238Y197468I0J-1000D01*
G01*
X116238D02*
G03*
X115238Y198468I-1000J0D01*
G01*
Y176342D02*
G03*
X116238Y177342I0J1000D01*
G01*
X108238D02*
G03*
X109238Y176342I1000J0D01*
G01*
X84500Y53863D02*
X85000Y53363D01*
X92000D02*
X92500Y53863D01*
X84500Y41737D02*
X85000Y42237D01*
X92000D02*
X92500Y41737D01*
X84500Y53863D02*
Y57863D01*
X92500Y53863D02*
Y57863D01*
X84500Y37737D02*
Y41737D01*
X92500Y37737D02*
Y41737D01*
X85000Y42237D02*
Y53363D01*
X92000Y42237D02*
Y53363D01*
X85500Y58863D02*
X91500D01*
X85500Y36737D02*
X91500D01*
X133900Y80203D02*
X133928Y77738D01*
X132642Y78987D02*
X135142D01*
X119032Y248800D02*
X129032D01*
X119032Y238800D02*
X126532D01*
X129032D01*
X59546Y187720D02*
Y193720D01*
X37420Y187720D02*
Y193720D01*
X42920Y194220D02*
X54046D01*
X42920Y187220D02*
X54046D01*
X54546Y194720D02*
X58546D01*
X54546Y186720D02*
X58546D01*
X38420Y194720D02*
X42420D01*
X38420Y186720D02*
X42420D01*
X54046Y194220D02*
X54546Y194720D01*
X54046Y187220D02*
X54546Y186720D01*
X42420Y194720D02*
X42920Y194220D01*
X42420Y186720D02*
X42920Y187220D01*
X110000Y286000D02*
X130000D01*
X110000Y263000D02*
X130000D01*
Y286000D01*
X110000Y263000D02*
Y270500D01*
Y278500D02*
Y286000D01*
X117579Y221500D02*
X130421D01*
X124100Y130700D02*
Y133300D01*
X122800Y132000D02*
X125300D01*
X97000Y117503D02*
Y120003D01*
Y127503D01*
X107000Y117503D02*
Y127503D01*
X87341Y84306D02*
X100183D01*
X95500Y58869D02*
X101500D01*
X95500Y36743D02*
X101500D01*
X95000Y42243D02*
Y53369D01*
X102000Y42243D02*
Y53369D01*
X94500Y53869D02*
Y57869D01*
X102500Y53869D02*
Y57869D01*
X94500Y37743D02*
Y41743D01*
X102500Y37743D02*
Y41743D01*
X94500Y53869D02*
X95000Y53369D01*
X102000D02*
X102500Y53869D01*
X94500Y41743D02*
X95000Y42243D01*
X102000D02*
X102500Y41743D01*
X103000Y225500D02*
Y231500D01*
X86000Y224500D02*
X102000D01*
X86000Y232500D02*
X102000D01*
X85000Y225500D02*
Y231500D01*
X191916Y161920D02*
X197915D01*
X190916Y162920D02*
Y178920D01*
X198916Y162920D02*
Y178920D01*
X191916Y179920D02*
X197915D01*
X18275Y144813D02*
Y154813D01*
X8275Y147313D02*
Y154813D01*
Y144813D02*
Y147313D01*
X59563Y76769D02*
Y82769D01*
X37437Y76769D02*
Y82769D01*
X42937Y83269D02*
X54063D01*
X42937Y76269D02*
X54063D01*
X54563Y83769D02*
X58563D01*
X54563Y75769D02*
X58563D01*
X38437Y83769D02*
X42437D01*
X38437Y75769D02*
X42437D01*
X54063Y83269D02*
X54563Y83769D01*
X54063Y76269D02*
X54563Y75769D01*
X42437Y83769D02*
X42937Y83269D01*
X42437Y75769D02*
X42937Y76269D01*
X38437Y93768D02*
X42437D01*
X42937Y93268D01*
X54063D01*
X54563Y93768D02*
X58563D01*
X54063Y93268D02*
X54563Y93768D01*
X59563Y86768D02*
Y92768D01*
X37437Y86768D02*
Y92768D01*
X38437Y85768D02*
X42437D01*
X42937Y86268D01*
X54063D01*
X54563Y85768D01*
X58563D01*
X153266Y85184D02*
X166107D01*
X134962Y27806D02*
Y67806D01*
X127462D02*
X134962D01*
X111962D02*
X119462D01*
X111962Y27806D02*
Y67806D01*
Y27806D02*
X134962D01*
X166520Y61831D02*
X169020D01*
X167734Y63079D02*
X167762Y60614D01*
X143462Y47806D02*
Y57806D01*
X153462Y47806D02*
Y55306D01*
Y57806D01*
X63000Y57510D02*
Y60010D01*
X61700Y58710D02*
X64300D01*
X78520Y124769D02*
Y134769D01*
X68520Y127269D02*
Y134769D01*
Y124769D02*
Y127269D01*
X131000Y133863D02*
X137000D01*
X130000Y128863D02*
Y132863D01*
Y128863D02*
X130500Y128363D01*
Y117237D02*
Y128363D01*
X138000Y128863D02*
Y132863D01*
X137500Y117237D02*
Y128363D01*
X138000Y128863D01*
X130000Y112737D02*
Y116737D01*
X130500Y117237D01*
X137500D02*
X138000Y116737D01*
Y112737D02*
Y116737D01*
X131000Y111737D02*
X137000D01*
X42511Y95766D02*
X43011Y96266D01*
X42511Y103766D02*
X43011Y103266D01*
X54137Y96266D02*
X54637Y95766D01*
X54137Y103266D02*
X54637Y103766D01*
X38511Y95766D02*
X42511D01*
X38511Y103766D02*
X42511D01*
X54637Y95766D02*
X58637D01*
X54637Y103766D02*
X58637D01*
X43011Y96266D02*
X54137D01*
X43011Y103266D02*
X54137D01*
X37511Y96766D02*
Y102766D01*
X59637Y96766D02*
Y102766D01*
X201189Y180077D02*
X207189D01*
X208189Y163077D02*
Y179077D01*
X200189Y163077D02*
Y179077D01*
X201189Y162077D02*
X207189D01*
X145200Y244766D02*
X147800D01*
X146500Y243466D02*
Y245966D01*
X88838Y171552D02*
Y174152D01*
X87638Y172852D02*
X90138D01*
X150669Y263000D02*
X154669D01*
X154069D02*
X170019D01*
X150669Y253000D02*
Y263000D01*
X170019Y253000D02*
Y263000D01*
X150719Y253000D02*
X170019D01*
X37017Y104769D02*
X60017D01*
X37017D02*
Y144769D01*
X44517D01*
X52517D02*
X60017D01*
Y104769D02*
Y144769D01*
X164519Y161800D02*
X170519D01*
X163519Y162800D02*
Y178800D01*
X171519Y162800D02*
Y178800D01*
X164519Y179800D02*
X170519D01*
X182917Y161920D02*
X188917D01*
X181917Y162920D02*
Y178920D01*
X189917Y162920D02*
Y178920D01*
X182917Y179920D02*
X188917D01*
X173788Y179820D02*
X179788D01*
X180788Y162820D02*
Y178820D01*
X172788Y162820D02*
Y178820D01*
X173788Y161820D02*
X179788D01*
X210576Y180077D02*
X216576D01*
X217576Y163077D02*
Y179077D01*
X209576Y163077D02*
Y179077D01*
X210576Y162077D02*
X216576D01*
X8393Y65664D02*
X18157D01*
X8393D02*
Y93876D01*
X18157D01*
Y65664D02*
Y93876D01*
X18637Y65664D02*
X28401D01*
X18637D02*
Y93876D01*
X28401D01*
Y65664D02*
Y93876D01*
X151931Y207469D02*
Y217233D01*
X123720Y207469D02*
X151931D01*
X123720D02*
Y217233D01*
X151931D01*
X123720Y157524D02*
Y167288D01*
X151931D01*
Y157524D02*
Y167288D01*
X123720Y157524D02*
X151931D01*
X62606Y165840D02*
Y175604D01*
X34394Y165840D02*
X62606D01*
X34394D02*
Y175604D01*
X62606D01*
X62605Y145748D02*
Y155512D01*
X34393Y145748D02*
X62605D01*
X34393D02*
Y155512D01*
X62605D01*
X20519Y125832D02*
X26519D01*
X20519Y103706D02*
X26519D01*
X20019Y109206D02*
Y120332D01*
X27019Y109206D02*
Y120332D01*
X19519Y120832D02*
Y124832D01*
X27519Y120832D02*
Y124832D01*
X19519Y104706D02*
Y108706D01*
X27519Y104706D02*
Y108706D01*
X19519Y120832D02*
X20019Y120332D01*
X27019D02*
X27519Y120832D01*
X19519Y108706D02*
X20019Y109206D01*
X27019D02*
X27519Y108706D01*
X10275Y125832D02*
X16275D01*
X10275Y103706D02*
X16275D01*
X9775Y109206D02*
Y120332D01*
X16775Y109206D02*
Y120332D01*
X9275Y120832D02*
Y124832D01*
X17275Y120832D02*
Y124832D01*
X9275Y104706D02*
Y108706D01*
X17275Y104706D02*
Y108706D01*
X9275Y120832D02*
X9775Y120332D01*
X16775D02*
X17275Y120832D01*
X9275Y108706D02*
X9775Y109206D01*
X16775D02*
X17275Y108706D01*
X151000Y133863D02*
X157000D01*
X151000Y111737D02*
X157000D01*
X150500Y117237D02*
Y128363D01*
X157500Y117237D02*
Y128363D01*
X150000Y128863D02*
Y132863D01*
X158000Y128863D02*
Y132863D01*
X150000Y112737D02*
Y116737D01*
X158000Y112737D02*
Y116737D01*
X150000Y128863D02*
X150500Y128363D01*
X157500D02*
X158000Y128863D01*
X150000Y116737D02*
X150500Y117237D01*
X157500D02*
X158000Y116737D01*
X124854Y176323D02*
X130854D01*
X124854Y198449D02*
X130854D01*
X131354Y181823D02*
Y192949D01*
X124354Y181823D02*
Y192949D01*
X131854Y177323D02*
Y181323D01*
X123854Y177323D02*
Y181323D01*
X131854Y193449D02*
Y197449D01*
X123854Y193449D02*
Y197449D01*
X131354Y181823D02*
X131854Y181323D01*
X123854D02*
X124354Y181823D01*
X131354Y192949D02*
X131854Y193449D01*
X123854D02*
X124354Y192949D01*
X141000Y133832D02*
X147000D01*
X141000Y111706D02*
X147000D01*
X140500Y117206D02*
Y128332D01*
X147500Y117206D02*
Y128332D01*
X140000Y128832D02*
Y132832D01*
X148000Y128832D02*
Y132832D01*
X140000Y112706D02*
Y116706D01*
X148000Y112706D02*
Y116706D01*
X140000Y128832D02*
X140500Y128332D01*
X147500D02*
X148000Y128832D01*
X140000Y116706D02*
X140500Y117206D01*
X147500D02*
X148000Y116706D01*
X20519Y165833D02*
X26519D01*
X20519Y143707D02*
X26519D01*
X20019Y149207D02*
Y160333D01*
X27019Y149207D02*
Y160333D01*
X19519Y160833D02*
Y164833D01*
X27519Y160833D02*
Y164833D01*
X19519Y144707D02*
Y148707D01*
X27519Y144707D02*
Y148707D01*
X19519Y160833D02*
X20019Y160333D01*
X27019D02*
X27519Y160833D01*
X19519Y148707D02*
X20019Y149207D01*
X27019D02*
X27519Y148707D01*
X59563Y157740D02*
Y163740D01*
X37437Y157740D02*
Y163740D01*
X42937Y164240D02*
X54063D01*
X42937Y157240D02*
X54063D01*
X54563Y164740D02*
X58563D01*
X54563Y156740D02*
X58563D01*
X38437Y164740D02*
X42437D01*
X38437Y156740D02*
X42437D01*
X54063Y164240D02*
X54563Y164740D01*
X54063Y157240D02*
X54563Y156740D01*
X42437Y164740D02*
X42937Y164240D01*
X42437Y156740D02*
X42937Y157240D01*
X59563Y177720D02*
Y183720D01*
X37437Y177720D02*
Y183720D01*
X42937Y184220D02*
X54063D01*
X42937Y177220D02*
X54063D01*
X54563Y184720D02*
X58563D01*
X54563Y176720D02*
X58563D01*
X38437Y184720D02*
X42437D01*
X38437Y176720D02*
X42437D01*
X54063Y184220D02*
X54563Y184720D01*
X54063Y177220D02*
X54563Y176720D01*
X42437Y184720D02*
X42937Y184220D01*
X42437Y176720D02*
X42937Y177220D01*
X109238Y176342D02*
X115238D01*
X109238Y198468D02*
X115238D01*
X115738Y181842D02*
Y192968D01*
X108738Y181842D02*
Y192968D01*
X116238Y177342D02*
Y181342D01*
X108238Y177342D02*
Y181342D01*
X116238Y193468D02*
Y197468D01*
X108238Y193468D02*
Y197468D01*
X115738Y181842D02*
X116238Y181342D01*
X108238D02*
X108738Y181842D01*
X115738Y192968D02*
X116238Y193468D01*
X108238D02*
X108738Y192968D01*
X144366Y82567D02*
X144699Y82900D01*
Y83567D01*
X144366Y83900D01*
X143033D01*
X142700Y83567D01*
Y82900D01*
X143033Y82567D01*
X144699Y80568D02*
Y81901D01*
X143700D01*
X144033Y81234D01*
Y80901D01*
X143700Y80568D01*
X143033D01*
X142700Y80901D01*
Y81567D01*
X143033Y81901D01*
X93799Y70833D02*
Y72166D01*
X93466Y72499D01*
X92799D01*
X92466Y72166D01*
Y70833D01*
X92799Y70500D01*
X93466D01*
X93133Y71166D02*
X93799Y70500D01*
X93466D02*
X93799Y70833D01*
X94466Y70500D02*
X95132D01*
X94799D01*
Y72499D01*
X94466Y72166D01*
X120762Y233095D02*
Y235094D01*
X121762D01*
X122095Y234761D01*
Y234094D01*
X121762Y233761D01*
X120762D01*
X121428D02*
X122095Y233095D01*
X124094Y235094D02*
X122761D01*
Y233095D01*
X124094D01*
X122761Y234094D02*
X123428D01*
X126094Y234761D02*
X125760Y235094D01*
X125094D01*
X124761Y234761D01*
Y233428D01*
X125094Y233095D01*
X125760D01*
X126094Y233428D01*
Y234094D01*
X125427D01*
X128093Y233095D02*
X126760D01*
X128093Y234427D01*
Y234761D01*
X127760Y235094D01*
X127093D01*
X126760Y234761D01*
X113685Y128667D02*
X114018Y129000D01*
Y129667D01*
X113685Y130000D01*
X112352D01*
X112019Y129667D01*
Y129000D01*
X112352Y128667D01*
X112019Y128001D02*
Y127334D01*
Y127667D01*
X114018D01*
X113685Y128001D01*
X114018Y125002D02*
Y126335D01*
X113019D01*
X113352Y125668D01*
Y125335D01*
X113019Y125002D01*
X112352D01*
X112019Y125335D01*
Y126001D01*
X112352Y126335D01*
X156576Y71378D02*
Y73377D01*
X157576D01*
X157909Y73044D01*
Y72377D01*
X157576Y72044D01*
X156576D01*
X157243D02*
X157909Y71378D01*
X159908Y73377D02*
X158576D01*
Y71378D01*
X159908D01*
X158576Y72377D02*
X159242D01*
X161908Y73044D02*
X161575Y73377D01*
X160908D01*
X160575Y73044D01*
Y71711D01*
X160908Y71378D01*
X161575D01*
X161908Y71711D01*
Y72377D01*
X161241D01*
X162574Y71378D02*
X163241D01*
X162908D01*
Y73377D01*
X162574Y73044D01*
X158628Y59473D02*
X158961Y59806D01*
Y60473D01*
X158628Y60806D01*
X157295D01*
X156962Y60473D01*
Y59806D01*
X157295Y59473D01*
X158961Y57474D02*
X158628Y58140D01*
X157962Y58807D01*
X157295D01*
X156962Y58473D01*
Y57807D01*
X157295Y57474D01*
X157628D01*
X157962Y57807D01*
Y58807D01*
D11*
X80458Y4493D02*
Y41107D01*
X62742D02*
X80458D01*
X62742Y4493D02*
Y41107D01*
Y4493D02*
X80458D01*
X149819Y2318D02*
Y24956D01*
X120685Y2318D02*
X149819D01*
X120685D02*
Y24956D01*
X149819D01*
X118067Y2318D02*
Y24956D01*
X88933Y2318D02*
X118067D01*
X88933D02*
Y24956D01*
X118067D01*
X151983Y169099D02*
Y205713D01*
X134267D02*
X151983D01*
X134267Y169099D02*
Y205713D01*
Y169099D02*
X151983D01*
X131860Y381848D02*
X148419D01*
Y393462D01*
Y381848D02*
X193301D01*
X148419Y393462D02*
X193301D01*
Y381848D02*
Y393462D01*
Y381848D02*
X209860D01*
Y300746D02*
Y381848D01*
X187592Y300746D02*
X209860D01*
X154128D02*
X187592D01*
Y288935D02*
Y300746D01*
X154128Y288935D02*
X187592D01*
X154128D02*
Y300746D01*
X131860D02*
X154128D01*
X131860D02*
Y381848D01*
X22641D02*
X39200D01*
Y393462D01*
Y381848D02*
X84082D01*
X39200Y393462D02*
X84082D01*
Y381848D02*
Y393462D01*
Y381848D02*
X100641D01*
Y300746D02*
Y381848D01*
X78373Y300746D02*
X100641D01*
X44909D02*
X78373D01*
Y288935D02*
Y300746D01*
X44909Y288935D02*
X78373D01*
X44909D02*
Y300746D01*
X22641D02*
X44909D01*
X22641D02*
Y381848D01*
X157359Y379098D02*
X155360D01*
X154360Y378098D01*
Y374100D01*
X155360Y373100D01*
X157359D01*
X158359Y374100D01*
Y378098D01*
X157359Y379098D01*
X160358D02*
Y374100D01*
X161358Y373100D01*
X163357D01*
X164357Y374100D01*
Y379098D01*
X166356D02*
X170355D01*
X168356D01*
Y373100D01*
X172354D02*
Y379098D01*
X175353D01*
X176353Y378098D01*
Y376099D01*
X175353Y375099D01*
X172354D01*
X178352Y379098D02*
Y374100D01*
X179352Y373100D01*
X181351D01*
X182351Y374100D01*
Y379098D01*
X184350D02*
X188349D01*
X186350D01*
Y373100D01*
X47641Y379098D02*
X49640D01*
X48641D01*
Y373100D01*
X47641D01*
X49640D01*
X52639D02*
Y379098D01*
X56638Y373100D01*
Y379098D01*
X58637Y373100D02*
Y379098D01*
X61637D01*
X62636Y378098D01*
Y376099D01*
X61637Y375099D01*
X58637D01*
X64635Y379098D02*
Y374100D01*
X65635Y373100D01*
X67634D01*
X68634Y374100D01*
Y379098D01*
X70634D02*
X74632D01*
X72633D01*
Y373100D01*
X45519Y118769D02*
Y120768D01*
Y119769D01*
X51517D01*
Y118769D01*
Y120768D01*
X46519Y127766D02*
X45519Y126766D01*
Y124767D01*
X46519Y123767D01*
X50517D01*
X51517Y124767D01*
Y126766D01*
X50517Y127766D01*
X51517Y129765D02*
Y131765D01*
Y130765D01*
X45519D01*
X46519Y129765D01*
D12*
X158847Y16000D02*
Y21000D01*
X168847Y16000D02*
Y21000D01*
X158847Y6000D02*
Y11000D01*
X168847Y6000D02*
Y11000D01*
X161347Y23500D02*
X166347D01*
X161347Y3500D02*
X166347D01*
X158847Y21000D02*
X161347Y23500D01*
X166347D02*
X168847Y21000D01*
X158847Y11000D02*
X161347Y13500D01*
X158847Y6000D02*
X161347Y3500D01*
X166347Y13500D02*
X168847Y16000D01*
X166347Y3500D02*
X168847Y6000D01*
X166347Y13500D02*
X168847Y11000D01*
X158847Y16000D02*
X161347Y13500D01*
D13*
X130134Y2545D02*
Y4513D01*
X140370D01*
Y2545D02*
Y4513D01*
X98382Y2545D02*
Y4513D01*
X108618D01*
Y2545D02*
Y4513D01*
D14*
X79827Y235350D02*
Y293224D01*
Y235350D02*
X108173D01*
Y293224D01*
X79827D02*
X108173D01*
X60899Y26600D02*
X56900D01*
Y24601D01*
X57566Y23934D01*
X58233D01*
X58899Y24601D01*
Y26600D01*
Y24601D01*
X59566Y23934D01*
X60232D01*
X60899Y24601D01*
Y26600D01*
X56900Y22601D02*
X60899D01*
Y20602D01*
X60232Y19936D01*
X58899D01*
X58233Y20602D01*
Y22601D01*
Y21268D02*
X56900Y19936D01*
X60899Y18603D02*
Y17270D01*
Y17936D01*
X56900D01*
Y18603D01*
Y17270D01*
X60232Y12605D02*
X60899Y13271D01*
Y14604D01*
X60232Y15270D01*
X57566D01*
X56900Y14604D01*
Y13271D01*
X57566Y12605D01*
X58899D01*
Y13937D01*
X60899Y11272D02*
X56900D01*
X58899D01*
Y8606D01*
X60899D01*
X56900D01*
X60899Y7273D02*
Y4607D01*
Y5940D01*
X56900D01*
X122960Y245332D02*
X122293Y245999D01*
X120960D01*
X120294Y245332D01*
Y242666D01*
X120960Y242000D01*
X122293D01*
X122960Y242666D01*
X124293Y245332D02*
X124959Y245999D01*
X126292D01*
X126959Y245332D01*
Y244666D01*
X126292Y243999D01*
X126959Y243333D01*
Y242666D01*
X126292Y242000D01*
X124959D01*
X124293Y242666D01*
Y243333D01*
X124959Y243999D01*
X124293Y244666D01*
Y245332D01*
X124959Y243999D02*
X126292D01*
X96549Y51500D02*
X100548D01*
Y49501D01*
X99881Y48834D01*
X98548D01*
X97882Y49501D01*
Y51500D01*
Y50167D02*
X96549Y48834D01*
X100548Y44835D02*
Y47501D01*
X98548D01*
X99215Y46168D01*
Y45502D01*
X98548Y44835D01*
X97215D01*
X96549Y45502D01*
Y46835D01*
X97215Y47501D01*
X118599Y275899D02*
X117266D01*
X116600Y275232D01*
Y272566D01*
X117266Y271900D01*
X118599D01*
X119266Y272566D01*
Y275232D01*
X118599Y275899D01*
X120599D02*
Y271900D01*
Y273233D01*
X123265Y275899D01*
X121265Y273899D01*
X123265Y271900D01*
X124597D02*
X125930D01*
X125264D01*
Y275899D01*
X124597Y275232D01*
X170847Y20568D02*
X174846D01*
X173513Y19235D01*
X174846Y17902D01*
X170847D01*
X174846Y14570D02*
Y15902D01*
X174179Y16569D01*
X171513D01*
X170847Y15902D01*
Y14570D01*
X171513Y13903D01*
X174179D01*
X174846Y14570D01*
Y12570D02*
X170847D01*
Y10571D01*
X171513Y9905D01*
X174179D01*
X174846Y10571D01*
Y12570D01*
Y5906D02*
Y8572D01*
X170847D01*
Y5906D01*
X172846Y8572D02*
Y7239D01*
X88900Y230399D02*
Y226400D01*
X90899D01*
X91566Y227066D01*
Y229732D01*
X90899Y230399D01*
X88900D01*
X95565Y226400D02*
X92899D01*
X95565Y229066D01*
Y229732D01*
X94898Y230399D01*
X93565D01*
X92899Y229732D01*
X86412Y51494D02*
X90411D01*
Y49495D01*
X89744Y48828D01*
X88411D01*
X87745Y49495D01*
Y51494D01*
Y50161D02*
X86412Y48828D01*
Y45496D02*
X90411D01*
X88411Y47495D01*
Y44829D01*
X86499Y18000D02*
X82500D01*
Y15334D01*
X86499Y11336D02*
Y14001D01*
X82500D01*
Y11336D01*
X84499Y14001D02*
Y12668D01*
X86499Y10003D02*
X82500D01*
Y8003D01*
X83166Y7337D01*
X85832D01*
X86499Y8003D01*
Y10003D01*
X155838Y15834D02*
Y18500D01*
X153838D01*
Y17167D01*
Y18500D01*
X151839D01*
X155171Y11835D02*
X155838Y12502D01*
Y13835D01*
X155171Y14501D01*
X154505D01*
X153838Y13835D01*
Y12502D01*
X153172Y11835D01*
X152505D01*
X151839Y12502D01*
Y13835D01*
X152505Y14501D01*
X155838Y10503D02*
X151839D01*
X153172Y9170D01*
X151839Y7837D01*
X155838D01*
X103414Y124834D02*
X104080Y125501D01*
Y126833D01*
X103414Y127500D01*
X100748D01*
X100081Y126833D01*
Y125501D01*
X100748Y124834D01*
X100081Y123501D02*
Y122168D01*
Y122835D01*
X104080D01*
X103414Y123501D01*
X100081Y118170D02*
X104080D01*
X102081Y120169D01*
Y117503D01*
X44200Y188800D02*
Y192799D01*
X46199D01*
X46866Y192132D01*
Y190799D01*
X46199Y190133D01*
X44200D01*
X45533D02*
X46866Y188800D01*
X48199D02*
X49532D01*
X48865D01*
Y192799D01*
X48199Y192132D01*
X54197Y192799D02*
X52864Y192132D01*
X51531Y190799D01*
Y189467D01*
X52197Y188800D01*
X53530D01*
X54197Y189467D01*
Y190133D01*
X53530Y190799D01*
X51531D01*
X154800Y193800D02*
X158799D01*
Y191801D01*
X158132Y191134D01*
X156799D01*
X156133Y191801D01*
Y193800D01*
X154800Y189801D02*
X158799D01*
Y187802D01*
X158132Y187136D01*
X156799D01*
X156133Y187802D01*
Y189801D01*
Y188468D02*
X154800Y187136D01*
X158799Y183137D02*
Y185803D01*
X154800D01*
Y183137D01*
X156799Y185803D02*
Y184470D01*
X158132Y179138D02*
X158799Y179805D01*
Y181137D01*
X158132Y181804D01*
X157466D01*
X156799Y181137D01*
Y179805D01*
X156133Y179138D01*
X155466D01*
X154800Y179805D01*
Y181137D01*
X155466Y181804D01*
X11743Y149151D02*
X11076Y148484D01*
Y147151D01*
X11743Y146485D01*
X14409D01*
X15075Y147151D01*
Y148484D01*
X14409Y149151D01*
X15075Y150484D02*
Y151816D01*
Y151150D01*
X11076D01*
X11743Y150484D01*
Y153816D02*
X11076Y154482D01*
Y155815D01*
X11743Y156482D01*
X14409D01*
X15075Y155815D01*
Y154482D01*
X14409Y153816D01*
X11743D01*
X51500Y81769D02*
Y77770D01*
X49501D01*
X48834Y78437D01*
Y79770D01*
X49501Y80436D01*
X51500D01*
X50167D02*
X48834Y81769D01*
X47501Y78437D02*
X46835Y77770D01*
X45502D01*
X44835Y78437D01*
Y79103D01*
X45502Y79770D01*
X46168D01*
X45502D01*
X44835Y80436D01*
Y81103D01*
X45502Y81769D01*
X46835D01*
X47501Y81103D01*
X91750Y250365D02*
Y246366D01*
Y247699D01*
X94416Y250365D01*
X92416Y248365D01*
X94416Y246366D01*
X95749D02*
X97082D01*
X96415D01*
Y250365D01*
X95749Y249698D01*
X51500Y91768D02*
Y87769D01*
X49501D01*
X48834Y88436D01*
Y89769D01*
X49501Y90435D01*
X51500D01*
X50167D02*
X48834Y91768D01*
X44835D02*
X47501D01*
X44835Y89102D01*
Y88436D01*
X45502Y87769D01*
X46835D01*
X47501Y88436D01*
X45074Y97766D02*
Y101765D01*
X47073D01*
X47740Y101099D01*
Y99766D01*
X47073Y99099D01*
X45074D01*
X46407D02*
X47740Y97766D01*
X49073Y101765D02*
X51739D01*
Y101099D01*
X49073Y98433D01*
Y97766D01*
X74832Y130013D02*
X75499Y130679D01*
Y132012D01*
X74832Y132679D01*
X72166D01*
X71500Y132012D01*
Y130679D01*
X72166Y130013D01*
X71500Y126681D02*
X75499D01*
X73499Y128680D01*
Y126014D01*
X202190Y170077D02*
X206189D01*
Y172076D01*
X205523Y172742D01*
X202857D01*
X202190Y172076D01*
Y170077D01*
Y174075D02*
Y176741D01*
X202857D01*
X205523Y174075D01*
X206189D01*
X151666Y234698D02*
X150999Y235365D01*
X149667D01*
X149000Y234698D01*
Y232033D01*
X149667Y231366D01*
X150999D01*
X151666Y232033D01*
X152999Y231366D02*
X154332D01*
X153665D01*
Y235365D01*
X152999Y234698D01*
X159500Y259999D02*
Y256000D01*
X161499D01*
X162166Y256666D01*
Y259332D01*
X161499Y259999D01*
X159500D01*
X163499Y256000D02*
X164832D01*
X164165D01*
Y259999D01*
X163499Y259332D01*
X183918Y169920D02*
X187917D01*
Y171919D01*
X187250Y172585D01*
X184585D01*
X183918Y171919D01*
Y169920D01*
X187917Y175918D02*
X183918D01*
X185917Y173918D01*
Y176584D01*
X120600Y49200D02*
Y45868D01*
X121266Y45202D01*
X122599D01*
X123266Y45868D01*
Y49200D01*
X124599Y45202D02*
X125932D01*
X125265D01*
Y49200D01*
X124599Y48534D01*
X21519Y119320D02*
X25518D01*
Y117321D01*
X24851Y116654D01*
X23518D01*
X22852Y117321D01*
Y119320D01*
Y117987D02*
X21519Y116654D01*
Y115321D02*
Y113988D01*
Y114655D01*
X25518D01*
X24851Y115321D01*
Y111989D02*
X25518Y111322D01*
Y109990D01*
X24851Y109323D01*
X22185D01*
X21519Y109990D01*
Y111322D01*
X22185Y111989D01*
X24851D01*
X11275Y119269D02*
X15274D01*
Y117270D01*
X14607Y116603D01*
X13274D01*
X12608Y117270D01*
Y119269D01*
Y117936D02*
X11275Y116603D01*
X11942Y115270D02*
X11275Y114604D01*
Y113271D01*
X11942Y112604D01*
X14607D01*
X15274Y113271D01*
Y114604D01*
X14607Y115270D01*
X13941D01*
X13274Y114604D01*
Y112604D01*
X152000Y127800D02*
X155999D01*
Y125801D01*
X155332Y125134D01*
X153999D01*
X153333Y125801D01*
Y127800D01*
Y126467D02*
X152000Y125134D01*
Y123801D02*
Y122468D01*
Y123135D01*
X155999D01*
X155332Y123801D01*
Y120469D02*
X155999Y119803D01*
Y118470D01*
X155332Y117803D01*
X154666D01*
X153999Y118470D01*
Y119136D01*
Y118470D01*
X153333Y117803D01*
X152666D01*
X152000Y118470D01*
Y119803D01*
X152666Y120469D01*
X125800Y192400D02*
X129799D01*
Y190401D01*
X129132Y189734D01*
X127799D01*
X127133Y190401D01*
Y192400D01*
Y191067D02*
X125800Y189734D01*
Y188401D02*
Y187068D01*
Y187735D01*
X129799D01*
X129132Y188401D01*
X129799Y182403D02*
Y185069D01*
X127799D01*
X128466Y183736D01*
Y183070D01*
X127799Y182403D01*
X126467D01*
X125800Y183070D01*
Y184403D01*
X126467Y185069D01*
X142000Y127500D02*
X145999D01*
Y125501D01*
X145332Y124834D01*
X143999D01*
X143333Y125501D01*
Y127500D01*
Y126167D02*
X142000Y124834D01*
Y123501D02*
Y122168D01*
Y122835D01*
X145999D01*
X145332Y123501D01*
X142000Y117503D02*
Y120169D01*
X144666Y117503D01*
X145332D01*
X145999Y118170D01*
Y119503D01*
X145332Y120169D01*
X25519Y151270D02*
X21520D01*
Y153269D01*
X22187Y153936D01*
X23520D01*
X24186Y153269D01*
Y151270D01*
Y152603D02*
X25519Y153936D01*
X22187Y155269D02*
X21520Y155935D01*
Y157268D01*
X22187Y157934D01*
X22853D01*
X23520Y157268D01*
X24186Y157934D01*
X24852D01*
X25519Y157268D01*
Y155935D01*
X24852Y155269D01*
X24186D01*
X23520Y155935D01*
X22853Y155269D01*
X22187D01*
X23520Y155935D02*
Y157268D01*
X45000Y158740D02*
Y162739D01*
X46999D01*
X47666Y162072D01*
Y160740D01*
X46999Y160073D01*
X45000D01*
X46333D02*
X47666Y158740D01*
X51665Y162739D02*
X50332Y162072D01*
X48999Y160740D01*
Y159407D01*
X49665Y158740D01*
X50998D01*
X51665Y159407D01*
Y160073D01*
X50998Y160740D01*
X48999D01*
X131885Y127500D02*
X135884D01*
Y125501D01*
X135217Y124834D01*
X133884D01*
X133218Y125501D01*
Y127500D01*
Y126167D02*
X131885Y124834D01*
Y123501D02*
Y122168D01*
Y122835D01*
X135884D01*
X135217Y123501D01*
X131885Y118170D02*
X135884D01*
X133884Y120169D01*
Y117503D01*
X44500Y178720D02*
Y182719D01*
X46499D01*
X47166Y182053D01*
Y180720D01*
X46499Y180053D01*
X44500D01*
X45833D02*
X47166Y178720D01*
X48499D02*
X49832D01*
X49165D01*
Y182719D01*
X48499Y182053D01*
X51831Y178720D02*
X53164D01*
X52497D01*
Y182719D01*
X51831Y182053D01*
X110123Y189865D02*
X114121D01*
Y187866D01*
X113455Y187199D01*
X112122D01*
X111455Y187866D01*
Y189865D01*
Y188532D02*
X110123Y187199D01*
Y185866D02*
Y184533D01*
Y185200D01*
X114121D01*
X113455Y185866D01*
X192917Y165920D02*
X196915D01*
Y167919D01*
X196249Y168585D01*
X193583D01*
X192917Y167919D01*
Y165920D01*
Y172584D02*
X193583Y171251D01*
X194916Y169918D01*
X196249D01*
X196915Y170585D01*
Y171918D01*
X196249Y172584D01*
X195583D01*
X194916Y171918D01*
Y169918D01*
X169518Y175800D02*
X165519D01*
Y173801D01*
X166185Y173134D01*
X168851D01*
X169518Y173801D01*
Y175800D01*
Y169135D02*
Y171801D01*
X167518D01*
X168185Y170468D01*
Y169802D01*
X167518Y169135D01*
X166185D01*
X165519Y169802D01*
Y171135D01*
X166185Y171801D01*
X178786Y171820D02*
X174788D01*
Y169820D01*
X175454Y169154D01*
X178120D01*
X178786Y169820D01*
Y171820D01*
X178120Y167821D02*
X178786Y167154D01*
Y165822D01*
X178120Y165155D01*
X177453D01*
X176787Y165822D01*
Y166488D01*
Y165822D01*
X176120Y165155D01*
X175454D01*
X174788Y165822D01*
Y167154D01*
X175454Y167821D01*
X211578Y166077D02*
X215576D01*
Y168076D01*
X214910Y168743D01*
X212244D01*
X211578Y168076D01*
Y166077D01*
X212244Y170076D02*
X211578Y170742D01*
Y172075D01*
X212244Y172741D01*
X212911D01*
X213577Y172075D01*
X214244Y172741D01*
X214910D01*
X215576Y172075D01*
Y170742D01*
X214910Y170076D01*
X214244D01*
X213577Y170742D01*
X212911Y170076D01*
X212244D01*
X213577Y170742D02*
Y172075D01*
X14607Y82104D02*
X15274Y82771D01*
Y84104D01*
X14607Y84770D01*
X11942D01*
X11275Y84104D01*
Y82771D01*
X11942Y82104D01*
X11275Y80771D02*
Y79438D01*
Y80105D01*
X15274D01*
X14607Y80771D01*
X11275Y74773D02*
Y77439D01*
X13941Y74773D01*
X14607D01*
X15274Y75440D01*
Y76773D01*
X14607Y77439D01*
X24832Y80334D02*
X25499Y81001D01*
Y82334D01*
X24832Y83000D01*
X22166D01*
X21500Y82334D01*
Y81001D01*
X22166Y80334D01*
X21500Y79001D02*
Y77668D01*
Y78335D01*
X25499D01*
X24832Y79001D01*
X21500Y75669D02*
Y74336D01*
Y75003D01*
X25499D01*
X24832Y75669D01*
X135491Y213683D02*
X134825Y214349D01*
X133492D01*
X132826Y213683D01*
Y211017D01*
X133492Y210351D01*
X134825D01*
X135491Y211017D01*
X136824Y210351D02*
X138157D01*
X137491D01*
Y214349D01*
X136824Y213683D01*
X140156Y214349D02*
X142822D01*
Y213683D01*
X140156Y211017D01*
Y210351D01*
X135170Y163832D02*
X134504Y164499D01*
X133171D01*
X132504Y163832D01*
Y161167D01*
X133171Y160500D01*
X134504D01*
X135170Y161167D01*
X136503Y160500D02*
X137836D01*
X137170D01*
Y164499D01*
X136503Y163832D01*
X142501Y164499D02*
X141168Y163832D01*
X139835Y162499D01*
Y161167D01*
X140502Y160500D01*
X141835D01*
X142501Y161167D01*
Y161833D01*
X141835Y162499D01*
X139835D01*
X47066Y171732D02*
X46399Y172399D01*
X45066D01*
X44400Y171732D01*
Y169067D01*
X45066Y168400D01*
X46399D01*
X47066Y169067D01*
X48399Y168400D02*
X49732D01*
X49065D01*
Y172399D01*
X48399Y171732D01*
X51731D02*
X52397Y172399D01*
X53730D01*
X54397Y171732D01*
Y171066D01*
X53730Y170399D01*
X53064D01*
X53730D01*
X54397Y169733D01*
Y169067D01*
X53730Y168400D01*
X52397D01*
X51731Y169067D01*
X47664Y151962D02*
X46998Y152629D01*
X45665D01*
X44999Y151962D01*
Y149297D01*
X45665Y148630D01*
X46998D01*
X47664Y149297D01*
X48997D02*
X49664Y148630D01*
X50997D01*
X51663Y149297D01*
Y151962D01*
X50997Y152629D01*
X49664D01*
X48997Y151962D01*
Y151296D01*
X49664Y150629D01*
X51663D01*
X57766Y71042D02*
X57099Y71709D01*
X55766D01*
X55100Y71042D01*
Y68376D01*
X55766Y67710D01*
X57099D01*
X57766Y68376D01*
X59099Y71042D02*
X59765Y71709D01*
X61098D01*
X61765Y71042D01*
Y70376D01*
X61098Y69709D01*
X60432D01*
X61098D01*
X61765Y69043D01*
Y68376D01*
X61098Y67710D01*
X59765D01*
X59099Y68376D01*
X102398Y178034D02*
X103065Y178701D01*
Y180034D01*
X102398Y180700D01*
X99732D01*
X99066Y180034D01*
Y178701D01*
X99732Y178034D01*
X99066Y174036D02*
Y176701D01*
X101732Y174036D01*
X102398D01*
X103065Y174702D01*
Y176035D01*
X102398Y176701D01*
X149794Y53140D02*
X150461Y53807D01*
Y55140D01*
X149794Y55806D01*
X147128D01*
X146462Y55140D01*
Y53807D01*
X147128Y53140D01*
X150461Y51807D02*
Y49141D01*
X149794D01*
X147128Y51807D01*
X146462D01*
D15*
X98500Y228500D02*
D03*
D16*
X194917Y175419D02*
D03*
X204189Y166575D02*
D03*
X167519Y166298D02*
D03*
X185917Y166418D02*
D03*
X176787Y175320D02*
D03*
X213576Y175576D02*
D03*
D17*
X153169Y258000D02*
D03*
M02*
