G04*
G04 #@! TF.GenerationSoftware,Altium Limited,Altium Designer,19.0.9 (268)*
G04*
G04 Layer_Color=32896*
%FSLAX25Y25*%
%MOIN*%
G70*
G01*
G75*
%ADD10C,0.00600*%
%ADD11C,0.01000*%
%ADD12C,0.00500*%
%ADD14C,0.00800*%
D10*
X68500Y197500D02*
Y225500D01*
X18500D02*
X68500D01*
X18500Y197500D02*
Y225500D01*
Y197500D02*
X68500D01*
D11*
X119700Y164098D02*
X115701D01*
X117701D01*
Y158100D01*
X110703Y164098D02*
X112702D01*
X113702Y163098D01*
Y159100D01*
X112702Y158100D01*
X110703D01*
X109703Y159100D01*
Y163098D01*
X110703Y164098D01*
X107704Y158100D02*
Y164098D01*
X103705Y158100D01*
Y164098D01*
X97707D02*
X101706D01*
Y158100D01*
X97707D01*
X101706Y161099D02*
X99707D01*
X115951Y381998D02*
X117951D01*
X116951D01*
Y377000D01*
X117951Y376000D01*
X118950D01*
X119950Y377000D01*
X113952Y376000D02*
X111953D01*
X112952D01*
Y381998D01*
X113952Y380998D01*
X198500Y283998D02*
Y279999D01*
X196501Y278000D01*
X194501Y279999D01*
Y283998D01*
X189503D02*
X191502D01*
X192502Y282998D01*
Y279000D01*
X191502Y278000D01*
X189503D01*
X188503Y279000D01*
Y282998D01*
X189503Y283998D01*
X186504D02*
Y278000D01*
X182505D01*
X192001Y233198D02*
X193001Y234198D01*
X195000D01*
X196000Y233198D01*
Y232199D01*
X195000Y231199D01*
X193001D01*
X192001Y230199D01*
Y229200D01*
X193001Y228200D01*
X195000D01*
X196000Y229200D01*
X190002Y234198D02*
Y228200D01*
X188003Y230199D01*
X186003Y228200D01*
Y234198D01*
X184004Y228200D02*
X182004D01*
X183004D01*
Y234198D01*
X184004Y233198D01*
X52001Y282998D02*
X53001Y283998D01*
X55000D01*
X56000Y282998D01*
Y279000D01*
X55000Y278000D01*
X53001D01*
X52001Y279000D01*
Y280999D01*
X54001D01*
X50002Y278000D02*
Y281999D01*
X48003Y283998D01*
X46003Y281999D01*
Y278000D01*
Y280999D01*
X50002D01*
X44004Y283998D02*
X42004D01*
X43004D01*
Y278000D01*
X44004D01*
X42004D01*
X39006D02*
Y283998D01*
X35007Y278000D01*
Y283998D01*
D12*
X154000Y330937D02*
G03*
X189000Y295937I35000J0D01*
G01*
Y365937D02*
G03*
X154000Y330937I-0J-35000D01*
G01*
X189000Y365937D02*
G03*
X154000Y330937I-0J-35000D01*
G01*
Y330937D02*
G03*
X189000Y295937I35000J0D01*
G01*
D02*
G03*
X224000Y330937I0J35000D01*
G01*
Y330937D02*
G03*
X189000Y365937I-35000J0D01*
G01*
X224000Y330937D02*
G03*
X189000Y365937I-35000J0D01*
G01*
Y295937D02*
G03*
X224000Y330937I0J35000D01*
G01*
X192535D02*
G03*
X192535Y330937I-3535J0D01*
G01*
D02*
G03*
X192535Y330937I-3535J0D01*
G01*
X81500Y211437D02*
G03*
X116500Y176437I35000J0D01*
G01*
Y246437D02*
G03*
X81500Y211437I-0J-35000D01*
G01*
X116500Y246437D02*
G03*
X81500Y211437I-0J-35000D01*
G01*
Y211437D02*
G03*
X116500Y176437I35000J0D01*
G01*
D02*
G03*
X151500Y211437I0J35000D01*
G01*
Y211437D02*
G03*
X116500Y246437I-35000J0D01*
G01*
X151500Y211437D02*
G03*
X116500Y246437I-35000J0D01*
G01*
Y176437D02*
G03*
X151500Y211437I0J35000D01*
G01*
X120035D02*
G03*
X120035Y211437I-3535J0D01*
G01*
D02*
G03*
X120035Y211437I-3535J0D01*
G01*
X8500Y330937D02*
G03*
X43500Y295937I35000J0D01*
G01*
Y365937D02*
G03*
X8500Y330937I-0J-35000D01*
G01*
X43500Y365937D02*
G03*
X8500Y330937I-0J-35000D01*
G01*
Y330937D02*
G03*
X43500Y295937I35000J0D01*
G01*
D02*
G03*
X78500Y330937I0J35000D01*
G01*
Y330937D02*
G03*
X43500Y365937I-35000J0D01*
G01*
X78500Y330937D02*
G03*
X43500Y365937I-35000J0D01*
G01*
Y295937D02*
G03*
X78500Y330937I0J35000D01*
G01*
X47035D02*
G03*
X47035Y330937I-3535J0D01*
G01*
D02*
G03*
X47035Y330937I-3535J0D01*
G01*
X154000D02*
X224000D01*
X154000D02*
X224000D01*
X159000Y276000D02*
X219000D01*
X159000D02*
X219000D01*
X189000Y295937D02*
Y365937D01*
Y295937D02*
Y365937D01*
X159000Y276000D02*
Y313437D01*
Y276000D02*
Y313437D01*
X219000Y276000D02*
Y313437D01*
Y276000D02*
Y313437D01*
X81500Y211437D02*
X151500D01*
X81500D02*
X151500D01*
X86500Y156500D02*
X146500D01*
X86500D02*
X146500D01*
X116500Y176437D02*
Y246437D01*
Y176437D02*
Y246437D01*
X86500Y156500D02*
Y193937D01*
Y156500D02*
Y193937D01*
X146500Y156500D02*
Y193937D01*
Y156500D02*
Y193937D01*
X8500Y330937D02*
X78500D01*
X8500D02*
X78500D01*
X13500Y276000D02*
X73500D01*
X13500D02*
X73500D01*
X43500Y295937D02*
Y365937D01*
Y295937D02*
Y365937D01*
X13500Y276000D02*
Y313437D01*
Y276000D02*
Y313437D01*
X73500Y276000D02*
Y313437D01*
Y276000D02*
Y313437D01*
X163252Y236190D02*
X214183D01*
X163252Y186977D02*
Y236190D01*
X214183Y186977D02*
Y236190D01*
X163252Y186977D02*
X214183D01*
D14*
X98533Y332278D02*
X106801D01*
X125699D02*
X133967D01*
Y335034D01*
X133950Y335015D02*
Y354390D01*
X98533Y332278D02*
Y385215D01*
X133967Y353538D02*
Y385215D01*
X98533D02*
X133967D01*
X45834Y222832D02*
X46501Y223499D01*
X47834D01*
X48500Y222832D01*
Y222166D01*
X47834Y221499D01*
X46501D01*
X45834Y220833D01*
Y220166D01*
X46501Y219500D01*
X47834D01*
X48500Y220166D01*
X44501Y223499D02*
Y219500D01*
X43168Y220833D01*
X41835Y219500D01*
Y223499D01*
X37837Y219500D02*
X40503D01*
X37837Y222166D01*
Y222832D01*
X38503Y223499D01*
X39836D01*
X40503Y222832D01*
M02*
