G04*
G04 #@! TF.GenerationSoftware,Altium Limited,Altium Designer,19.0.9 (268)*
G04*
G04 Layer_Physical_Order=1*
G04 Layer_Color=255*
%FSLAX25Y25*%
%MOIN*%
G70*
G01*
G75*
%ADD11C,0.01000*%
%ADD41C,0.03200*%
%ADD42R,0.04724X0.04724*%
%ADD43C,0.04724*%
%ADD44C,0.04331*%
%ADD45R,0.04331X0.04331*%
%ADD46C,0.05118*%
%ADD47C,0.05000*%
%ADD48R,0.07087X0.07087*%
%ADD49C,0.07087*%
%ADD50C,0.11417*%
%ADD51R,0.11417X0.11417*%
%ADD52C,0.14765*%
%ADD53R,0.04724X0.04724*%
%ADD54C,0.06600*%
%ADD55R,0.06600X0.06600*%
%ADD56C,0.06000*%
%ADD57C,0.08268*%
%ADD58C,0.04725*%
%ADD59R,0.10630X0.10630*%
%ADD60C,0.10630*%
%ADD61R,0.04331X0.04331*%
%ADD62R,0.05512X0.05512*%
%ADD63C,0.05512*%
%ADD64C,0.03000*%
G36*
X207936Y367923D02*
X207436Y367823D01*
X207119Y368588D01*
X206328Y369619D01*
X205297Y370410D01*
X204097Y370907D01*
X202809Y371077D01*
X201521Y370907D01*
X200321Y370410D01*
X199290Y369619D01*
X198499Y368588D01*
X198002Y367388D01*
X197832Y366100D01*
X198002Y364812D01*
X198499Y363612D01*
X199290Y362581D01*
X200321Y361790D01*
X201521Y361293D01*
X202809Y361123D01*
X204097Y361293D01*
X205297Y361790D01*
X206328Y362581D01*
X207119Y363612D01*
X207436Y364377D01*
X207936Y364277D01*
Y359000D01*
X208052Y358415D01*
X208384Y357919D01*
X208880Y357587D01*
X209465Y357471D01*
X230971D01*
Y1529D01*
X1529D01*
Y357471D01*
X23030D01*
X23615Y357587D01*
X24111Y357919D01*
X24443Y358415D01*
X24559Y359000D01*
Y364987D01*
X25059Y365020D01*
X25080Y364864D01*
X25557Y363713D01*
X26316Y362724D01*
X27305Y361965D01*
X28456Y361488D01*
X29292Y361378D01*
Y366100D01*
Y370822D01*
X28456Y370712D01*
X27305Y370235D01*
X26316Y369476D01*
X25557Y368487D01*
X25080Y367336D01*
X25059Y367180D01*
X24559Y367213D01*
Y384971D01*
X207936D01*
Y367923D01*
D02*
G37*
%LPC*%
G36*
X139311Y370822D02*
Y366500D01*
X143633D01*
X143523Y367336D01*
X143046Y368487D01*
X142287Y369476D01*
X141298Y370235D01*
X140147Y370712D01*
X139311Y370822D01*
D02*
G37*
G36*
X30092D02*
Y366500D01*
X34414D01*
X34304Y367336D01*
X33827Y368487D01*
X33068Y369476D01*
X32079Y370235D01*
X30928Y370712D01*
X30092Y370822D01*
D02*
G37*
G36*
X138511D02*
X137675Y370712D01*
X136524Y370235D01*
X135535Y369476D01*
X134776Y368487D01*
X134299Y367336D01*
X134189Y366500D01*
X138511D01*
Y370822D01*
D02*
G37*
G36*
X143633Y365700D02*
X139311D01*
Y361378D01*
X140147Y361488D01*
X141298Y361965D01*
X142287Y362724D01*
X143046Y363713D01*
X143523Y364864D01*
X143633Y365700D01*
D02*
G37*
G36*
X34414D02*
X30092D01*
Y361378D01*
X30928Y361488D01*
X32079Y361965D01*
X33068Y362724D01*
X33827Y363713D01*
X34304Y364864D01*
X34414Y365700D01*
D02*
G37*
G36*
X138511D02*
X134189D01*
X134299Y364864D01*
X134776Y363713D01*
X135535Y362724D01*
X136524Y361965D01*
X137675Y361488D01*
X138511Y361378D01*
Y365700D01*
D02*
G37*
G36*
X93590Y371077D02*
X92302Y370907D01*
X91102Y370410D01*
X90071Y369619D01*
X89280Y368588D01*
X88783Y367388D01*
X88613Y366100D01*
X88783Y364812D01*
X89280Y363612D01*
X90071Y362581D01*
X91102Y361790D01*
X92302Y361293D01*
X93590Y361123D01*
X94878Y361293D01*
X96078Y361790D01*
X97109Y362581D01*
X97900Y363612D01*
X98397Y364812D01*
X98567Y366100D01*
X98397Y367388D01*
X97900Y368588D01*
X97109Y369619D01*
X96078Y370410D01*
X94878Y370907D01*
X93590Y371077D01*
D02*
G37*
G36*
X202809Y346077D02*
X201521Y345907D01*
X200321Y345410D01*
X199290Y344619D01*
X198499Y343588D01*
X198002Y342388D01*
X197832Y341100D01*
X198002Y339812D01*
X198499Y338612D01*
X199290Y337581D01*
X200321Y336790D01*
X201521Y336293D01*
X202809Y336123D01*
X204097Y336293D01*
X205297Y336790D01*
X206328Y337581D01*
X207119Y338612D01*
X207616Y339812D01*
X207786Y341100D01*
X207616Y342388D01*
X207119Y343588D01*
X206328Y344619D01*
X205297Y345410D01*
X204097Y345907D01*
X202809Y346077D01*
D02*
G37*
G36*
X138911D02*
X137623Y345907D01*
X136423Y345410D01*
X135392Y344619D01*
X134601Y343588D01*
X134104Y342388D01*
X133934Y341100D01*
X134104Y339812D01*
X134601Y338612D01*
X135392Y337581D01*
X136423Y336790D01*
X137623Y336293D01*
X138911Y336123D01*
X140199Y336293D01*
X141399Y336790D01*
X142430Y337581D01*
X143221Y338612D01*
X143718Y339812D01*
X143888Y341100D01*
X143718Y342388D01*
X143221Y343588D01*
X142430Y344619D01*
X141399Y345410D01*
X140199Y345907D01*
X138911Y346077D01*
D02*
G37*
G36*
X93590D02*
X92302Y345907D01*
X91102Y345410D01*
X90071Y344619D01*
X89280Y343588D01*
X88783Y342388D01*
X88613Y341100D01*
X88783Y339812D01*
X89280Y338612D01*
X90071Y337581D01*
X91102Y336790D01*
X92302Y336293D01*
X93590Y336123D01*
X94878Y336293D01*
X96078Y336790D01*
X97109Y337581D01*
X97900Y338612D01*
X98397Y339812D01*
X98567Y341100D01*
X98397Y342388D01*
X97900Y343588D01*
X97109Y344619D01*
X96078Y345410D01*
X94878Y345907D01*
X93590Y346077D01*
D02*
G37*
G36*
X29692D02*
X28404Y345907D01*
X27204Y345410D01*
X26173Y344619D01*
X25382Y343588D01*
X24885Y342388D01*
X24715Y341100D01*
X24885Y339812D01*
X25382Y338612D01*
X26173Y337581D01*
X27204Y336790D01*
X28404Y336293D01*
X29692Y336123D01*
X30980Y336293D01*
X32180Y336790D01*
X33211Y337581D01*
X34002Y338612D01*
X34499Y339812D01*
X34669Y341100D01*
X34499Y342388D01*
X34002Y343588D01*
X33211Y344619D01*
X32180Y345410D01*
X30980Y345907D01*
X29692Y346077D01*
D02*
G37*
G36*
X116650Y340260D02*
Y332678D01*
X124232D01*
X124117Y333843D01*
X123660Y335347D01*
X122919Y336734D01*
X121922Y337950D01*
X120706Y338947D01*
X119319Y339688D01*
X117815Y340145D01*
X116650Y340260D01*
D02*
G37*
G36*
X115850D02*
X114685Y340145D01*
X113180Y339688D01*
X111794Y338947D01*
X110578Y337950D01*
X109581Y336734D01*
X108840Y335347D01*
X108383Y333843D01*
X108268Y332678D01*
X115850D01*
Y340260D01*
D02*
G37*
G36*
X124232Y331878D02*
X116650D01*
Y324296D01*
X117815Y324411D01*
X119319Y324868D01*
X120706Y325609D01*
X121922Y326606D01*
X122919Y327822D01*
X123660Y329209D01*
X124117Y330713D01*
X124232Y331878D01*
D02*
G37*
G36*
X115850D02*
X108268D01*
X108383Y330713D01*
X108840Y329209D01*
X109581Y327822D01*
X110578Y326606D01*
X111794Y325609D01*
X113180Y324868D01*
X114685Y324411D01*
X115850Y324296D01*
Y331878D01*
D02*
G37*
G36*
X202809Y321077D02*
X201521Y320907D01*
X200321Y320410D01*
X199290Y319619D01*
X198499Y318588D01*
X198002Y317388D01*
X197832Y316100D01*
X198002Y314812D01*
X198499Y313612D01*
X199290Y312581D01*
X200321Y311790D01*
X201521Y311293D01*
X202809Y311123D01*
X204097Y311293D01*
X205297Y311790D01*
X206328Y312581D01*
X207119Y313612D01*
X207616Y314812D01*
X207786Y316100D01*
X207616Y317388D01*
X207119Y318588D01*
X206328Y319619D01*
X205297Y320410D01*
X204097Y320907D01*
X202809Y321077D01*
D02*
G37*
G36*
X138911D02*
X137623Y320907D01*
X136423Y320410D01*
X135392Y319619D01*
X134601Y318588D01*
X134104Y317388D01*
X133934Y316100D01*
X134104Y314812D01*
X134601Y313612D01*
X135392Y312581D01*
X136423Y311790D01*
X137623Y311293D01*
X138911Y311123D01*
X140199Y311293D01*
X141399Y311790D01*
X142430Y312581D01*
X143221Y313612D01*
X143718Y314812D01*
X143888Y316100D01*
X143718Y317388D01*
X143221Y318588D01*
X142430Y319619D01*
X141399Y320410D01*
X140199Y320907D01*
X138911Y321077D01*
D02*
G37*
G36*
X93590D02*
X92302Y320907D01*
X91102Y320410D01*
X90071Y319619D01*
X89280Y318588D01*
X88783Y317388D01*
X88613Y316100D01*
X88783Y314812D01*
X89280Y313612D01*
X90071Y312581D01*
X91102Y311790D01*
X92302Y311293D01*
X93590Y311123D01*
X94878Y311293D01*
X96078Y311790D01*
X97109Y312581D01*
X97900Y313612D01*
X98397Y314812D01*
X98567Y316100D01*
X98397Y317388D01*
X97900Y318588D01*
X97109Y319619D01*
X96078Y320410D01*
X94878Y320907D01*
X93590Y321077D01*
D02*
G37*
G36*
X125400Y292574D02*
Y289900D01*
X128074D01*
X128020Y290309D01*
X127708Y291063D01*
X127211Y291711D01*
X126563Y292208D01*
X125809Y292520D01*
X125400Y292574D01*
D02*
G37*
G36*
X124600D02*
X124191Y292520D01*
X123437Y292208D01*
X122789Y291711D01*
X122292Y291063D01*
X121980Y290309D01*
X121926Y289900D01*
X124600D01*
Y292574D01*
D02*
G37*
G36*
X128074Y289100D02*
X125400D01*
Y286426D01*
X125809Y286480D01*
X126563Y286792D01*
X127211Y287289D01*
X127708Y287937D01*
X128020Y288691D01*
X128074Y289100D01*
D02*
G37*
G36*
X124600D02*
X121926D01*
X121980Y288691D01*
X122292Y287937D01*
X122789Y287289D01*
X123437Y286792D01*
X124191Y286480D01*
X124600Y286426D01*
Y289100D01*
D02*
G37*
G36*
X104000Y282556D02*
X103174Y282447D01*
X102405Y282129D01*
X101744Y281622D01*
X101238Y280961D01*
X100919Y280192D01*
X100810Y279366D01*
X100919Y278540D01*
X101238Y277771D01*
X101744Y277111D01*
X102405Y276604D01*
X103174Y276285D01*
X104000Y276176D01*
X104826Y276285D01*
X105595Y276604D01*
X106255Y277111D01*
X106762Y277771D01*
X107081Y278540D01*
X107190Y279366D01*
X107081Y280192D01*
X106762Y280961D01*
X106255Y281622D01*
X105595Y282129D01*
X104826Y282447D01*
X104000Y282556D01*
D02*
G37*
G36*
X84000D02*
X83174Y282447D01*
X82405Y282129D01*
X81744Y281622D01*
X81238Y280961D01*
X80919Y280192D01*
X80810Y279366D01*
X80919Y278540D01*
X81238Y277771D01*
X81744Y277111D01*
X82405Y276604D01*
X83174Y276285D01*
X84000Y276176D01*
X84826Y276285D01*
X85595Y276604D01*
X86256Y277111D01*
X86762Y277771D01*
X87081Y278540D01*
X87190Y279366D01*
X87081Y280192D01*
X86762Y280961D01*
X86256Y281622D01*
X85595Y282129D01*
X84826Y282447D01*
X84000Y282556D01*
D02*
G37*
G36*
X115000Y292828D02*
X114138Y292715D01*
X113336Y292383D01*
X112646Y291854D01*
X112118Y291164D01*
X111785Y290361D01*
X111671Y289500D01*
X111785Y288638D01*
X112118Y287836D01*
X112646Y287146D01*
X113336Y286617D01*
X113674Y286477D01*
Y280915D01*
X105095Y272336D01*
X104826Y272447D01*
X104000Y272556D01*
X103174Y272447D01*
X102405Y272129D01*
X101744Y271622D01*
X101238Y270961D01*
X100919Y270192D01*
X100810Y269366D01*
X100919Y268541D01*
X101238Y267771D01*
X101744Y267111D01*
X102405Y266604D01*
X103174Y266285D01*
X104000Y266176D01*
X104826Y266285D01*
X105595Y266604D01*
X106255Y267111D01*
X106762Y267771D01*
X107081Y268541D01*
X107190Y269366D01*
X107081Y270192D01*
X106969Y270461D01*
X115937Y279429D01*
X116225Y279859D01*
X116325Y280366D01*
Y286477D01*
X116664Y286617D01*
X117354Y287146D01*
X117883Y287836D01*
X118215Y288638D01*
X118328Y289500D01*
X118215Y290361D01*
X117883Y291164D01*
X117354Y291854D01*
X116664Y292383D01*
X115861Y292715D01*
X115000Y292828D01*
D02*
G37*
G36*
X213143Y273643D02*
X209400D01*
Y269900D01*
X213143D01*
Y273643D01*
D02*
G37*
G36*
X208600D02*
X204856D01*
Y269900D01*
X208600D01*
Y273643D01*
D02*
G37*
G36*
X29692Y321077D02*
X28404Y320907D01*
X27204Y320410D01*
X26173Y319619D01*
X25382Y318588D01*
X24885Y317388D01*
X24715Y316100D01*
X24885Y314812D01*
X25382Y313612D01*
X26173Y312581D01*
X27204Y311790D01*
X28404Y311293D01*
X29692Y311123D01*
X30980Y311293D01*
X32180Y311790D01*
X33211Y312581D01*
X33593Y313079D01*
X34092Y313112D01*
X78775Y268429D01*
X79205Y268142D01*
X79712Y268041D01*
X81126D01*
X81238Y267771D01*
X81744Y267111D01*
X82405Y266604D01*
X83174Y266285D01*
X84000Y266176D01*
X84826Y266285D01*
X85595Y266604D01*
X86256Y267111D01*
X86762Y267771D01*
X87081Y268541D01*
X87190Y269366D01*
X87081Y270192D01*
X86762Y270961D01*
X86256Y271622D01*
X85595Y272129D01*
X84826Y272447D01*
X84000Y272556D01*
X83174Y272447D01*
X82405Y272129D01*
X81744Y271622D01*
X81238Y270961D01*
X81126Y270692D01*
X80261D01*
X35016Y315937D01*
X34659Y316176D01*
X34499Y317388D01*
X34002Y318588D01*
X33211Y319619D01*
X32180Y320410D01*
X30980Y320907D01*
X29692Y321077D01*
D02*
G37*
G36*
X213143Y269100D02*
X209400D01*
Y265356D01*
X213143D01*
Y269100D01*
D02*
G37*
G36*
X208600D02*
X204856D01*
Y265356D01*
X208600D01*
Y269100D01*
D02*
G37*
G36*
X67844Y273844D02*
X59157D01*
Y265157D01*
X67844D01*
Y273844D01*
D02*
G37*
G36*
X189000Y273881D02*
X187866Y273732D01*
X186810Y273294D01*
X185902Y272598D01*
X185206Y271691D01*
X184768Y270634D01*
X184619Y269500D01*
X184768Y268366D01*
X185206Y267309D01*
X185902Y266402D01*
X186810Y265706D01*
X187866Y265268D01*
X189000Y265119D01*
X190134Y265268D01*
X191191Y265706D01*
X192098Y266402D01*
X192794Y267309D01*
X193232Y268366D01*
X193381Y269500D01*
X193232Y270634D01*
X192794Y271691D01*
X192098Y272598D01*
X191191Y273294D01*
X190134Y273732D01*
X189000Y273881D01*
D02*
G37*
G36*
X169000D02*
X167866Y273732D01*
X166809Y273294D01*
X165902Y272598D01*
X165206Y271691D01*
X164768Y270634D01*
X164619Y269500D01*
X164768Y268366D01*
X165206Y267309D01*
X165902Y266402D01*
X166809Y265706D01*
X167866Y265268D01*
X169000Y265119D01*
X170134Y265268D01*
X171191Y265706D01*
X172098Y266402D01*
X172794Y267309D01*
X173232Y268366D01*
X173381Y269500D01*
X173232Y270634D01*
X172794Y271691D01*
X172098Y272598D01*
X171191Y273294D01*
X170134Y273732D01*
X169000Y273881D01*
D02*
G37*
G36*
X43500D02*
X42366Y273732D01*
X41309Y273294D01*
X40402Y272598D01*
X39706Y271691D01*
X39268Y270634D01*
X39119Y269500D01*
X39268Y268366D01*
X39627Y267501D01*
X12338Y240212D01*
X12050Y239782D01*
X11949Y239275D01*
Y162900D01*
X11581Y162747D01*
X10879Y162209D01*
X10341Y161507D01*
X10002Y160690D01*
X9887Y159813D01*
X10002Y158936D01*
X10341Y158119D01*
X10879Y157418D01*
X11581Y156879D01*
X12398Y156541D01*
X13275Y156425D01*
X14152Y156541D01*
X14969Y156879D01*
X15671Y157418D01*
X16209Y158119D01*
X16547Y158936D01*
X16663Y159813D01*
X16547Y160690D01*
X16209Y161507D01*
X15671Y162209D01*
X14969Y162747D01*
X14601Y162900D01*
Y238726D01*
X41501Y265627D01*
X42366Y265268D01*
X43500Y265119D01*
X44634Y265268D01*
X45691Y265706D01*
X46598Y266402D01*
X47294Y267309D01*
X47732Y268366D01*
X47881Y269500D01*
X47732Y270634D01*
X47294Y271691D01*
X46598Y272598D01*
X45691Y273294D01*
X44634Y273732D01*
X43500Y273881D01*
D02*
G37*
G36*
X23500D02*
X22366Y273732D01*
X21309Y273294D01*
X20402Y272598D01*
X19706Y271691D01*
X19268Y270634D01*
X19119Y269500D01*
X19268Y268366D01*
X19706Y267309D01*
X20402Y266402D01*
X21309Y265706D01*
X22366Y265268D01*
X23500Y265119D01*
X24634Y265268D01*
X25690Y265706D01*
X26598Y266402D01*
X27294Y267309D01*
X27732Y268366D01*
X27881Y269500D01*
X27732Y270634D01*
X27294Y271691D01*
X26598Y272598D01*
X25690Y273294D01*
X24634Y273732D01*
X23500Y273881D01*
D02*
G37*
G36*
X125400Y262574D02*
Y259900D01*
X128074D01*
X128020Y260309D01*
X127708Y261063D01*
X127211Y261711D01*
X126563Y262208D01*
X125809Y262520D01*
X125400Y262574D01*
D02*
G37*
G36*
X124600D02*
X124191Y262520D01*
X123437Y262208D01*
X122789Y261711D01*
X122292Y261063D01*
X121980Y260309D01*
X121926Y259900D01*
X124600D01*
Y262574D01*
D02*
G37*
G36*
X174419Y261332D02*
Y258400D01*
X177351D01*
X177289Y258876D01*
X176951Y259693D01*
X176413Y260394D01*
X175712Y260931D01*
X174895Y261270D01*
X174419Y261332D01*
D02*
G37*
G36*
X173619D02*
X173143Y261270D01*
X172327Y260931D01*
X171625Y260394D01*
X171088Y259693D01*
X170749Y258876D01*
X170687Y258400D01*
X173619D01*
Y261332D01*
D02*
G37*
G36*
X128074Y259100D02*
X125400D01*
Y256426D01*
X125809Y256480D01*
X126563Y256792D01*
X127211Y257289D01*
X127708Y257937D01*
X128020Y258691D01*
X128074Y259100D01*
D02*
G37*
G36*
X124600D02*
X121926D01*
X121980Y258691D01*
X122292Y257937D01*
X122789Y257289D01*
X123437Y256792D01*
X124191Y256480D01*
X124600Y256426D01*
Y259100D01*
D02*
G37*
G36*
X104000Y262556D02*
X103174Y262447D01*
X102405Y262129D01*
X101744Y261622D01*
X101238Y260961D01*
X100919Y260192D01*
X100810Y259366D01*
X100919Y258541D01*
X101238Y257771D01*
X101744Y257111D01*
X102405Y256604D01*
X103174Y256285D01*
X104000Y256176D01*
X104826Y256285D01*
X105595Y256604D01*
X106255Y257111D01*
X106762Y257771D01*
X107081Y258541D01*
X107190Y259366D01*
X107081Y260192D01*
X106762Y260961D01*
X106255Y261622D01*
X105595Y262129D01*
X104826Y262447D01*
X104000Y262556D01*
D02*
G37*
G36*
X84000D02*
X83174Y262447D01*
X82405Y262129D01*
X81744Y261622D01*
X81238Y260961D01*
X80919Y260192D01*
X80810Y259366D01*
X80919Y258541D01*
X81238Y257771D01*
X81744Y257111D01*
X82405Y256604D01*
X83174Y256285D01*
X84000Y256176D01*
X84826Y256285D01*
X85595Y256604D01*
X86256Y257111D01*
X86762Y257771D01*
X87081Y258541D01*
X87190Y259366D01*
X87081Y260192D01*
X86762Y260961D01*
X86256Y261622D01*
X85595Y262129D01*
X84826Y262447D01*
X84000Y262556D01*
D02*
G37*
G36*
X177351Y257600D02*
X174419D01*
Y254668D01*
X174895Y254730D01*
X175712Y255068D01*
X176413Y255607D01*
X176951Y256308D01*
X177289Y257124D01*
X177351Y257600D01*
D02*
G37*
G36*
X173619D02*
X170687D01*
X170749Y257124D01*
X171088Y256308D01*
X171625Y255607D01*
X172327Y255068D01*
X173143Y254730D01*
X173619Y254668D01*
Y257600D01*
D02*
G37*
G36*
X134432Y246934D02*
Y244200D01*
X137165D01*
X137109Y244625D01*
X136791Y245393D01*
X136285Y246053D01*
X135625Y246559D01*
X134856Y246878D01*
X134432Y246934D01*
D02*
G37*
G36*
X133632D02*
X133207Y246878D01*
X132439Y246559D01*
X131779Y246053D01*
X131272Y245393D01*
X130954Y244625D01*
X130898Y244200D01*
X133632D01*
Y246934D01*
D02*
G37*
G36*
X137165Y243400D02*
X134432D01*
Y240666D01*
X134856Y240722D01*
X135625Y241041D01*
X136285Y241547D01*
X136791Y242207D01*
X137109Y242975D01*
X137165Y243400D01*
D02*
G37*
G36*
X133632D02*
X130898D01*
X130954Y242975D01*
X131272Y242207D01*
X131779Y241547D01*
X132439Y241041D01*
X133207Y240722D01*
X133632Y240666D01*
Y243400D01*
D02*
G37*
G36*
X114032Y247188D02*
X113155Y247073D01*
X112338Y246734D01*
X111636Y246196D01*
X111098Y245494D01*
X110759Y244677D01*
X110644Y243800D01*
X110759Y242923D01*
X111098Y242106D01*
X111636Y241404D01*
X112338Y240866D01*
X113155Y240528D01*
X114032Y240412D01*
X114909Y240528D01*
X115726Y240866D01*
X116427Y241404D01*
X116966Y242106D01*
X117304Y242923D01*
X117420Y243800D01*
X117304Y244677D01*
X116966Y245494D01*
X116427Y246196D01*
X115726Y246734D01*
X114909Y247073D01*
X114032Y247188D01*
D02*
G37*
G36*
X156400Y242103D02*
Y239766D01*
X158737D01*
X158694Y240088D01*
X158416Y240761D01*
X157972Y241338D01*
X157395Y241782D01*
X156722Y242060D01*
X156400Y242103D01*
D02*
G37*
G36*
X155600D02*
X155278Y242060D01*
X154605Y241782D01*
X154028Y241338D01*
X153584Y240761D01*
X153306Y240088D01*
X153263Y239766D01*
X155600D01*
Y242103D01*
D02*
G37*
G36*
X158737Y238966D02*
X156400D01*
Y236629D01*
X156722Y236672D01*
X157395Y236950D01*
X157972Y237394D01*
X158416Y237971D01*
X158694Y238644D01*
X158737Y238966D01*
D02*
G37*
G36*
X155600D02*
X153263D01*
X153306Y238644D01*
X153584Y237971D01*
X154028Y237394D01*
X154605Y236950D01*
X155278Y236672D01*
X155600Y236629D01*
Y238966D01*
D02*
G37*
G36*
X104000Y242556D02*
X103174Y242447D01*
X102405Y242129D01*
X101744Y241622D01*
X101238Y240961D01*
X100919Y240192D01*
X100810Y239366D01*
X100919Y238541D01*
X101238Y237771D01*
X101744Y237111D01*
X102405Y236604D01*
X103174Y236285D01*
X104000Y236176D01*
X104826Y236285D01*
X105595Y236604D01*
X106255Y237111D01*
X106762Y237771D01*
X107081Y238541D01*
X107190Y239366D01*
X107081Y240192D01*
X106762Y240961D01*
X106255Y241622D01*
X105595Y242129D01*
X104826Y242447D01*
X104000Y242556D01*
D02*
G37*
G36*
X124400Y231435D02*
Y228900D01*
X126935D01*
X126886Y229273D01*
X126587Y229994D01*
X126112Y230612D01*
X125494Y231087D01*
X124773Y231386D01*
X124400Y231435D01*
D02*
G37*
G36*
X123600D02*
X123227Y231386D01*
X122506Y231087D01*
X121888Y230612D01*
X121413Y229994D01*
X121114Y229273D01*
X121065Y228900D01*
X123600D01*
Y231435D01*
D02*
G37*
G36*
X126935Y228100D02*
X124400D01*
Y225565D01*
X124773Y225614D01*
X125494Y225913D01*
X126112Y226388D01*
X126587Y227006D01*
X126886Y227727D01*
X126935Y228100D01*
D02*
G37*
G36*
X123600D02*
X121065D01*
X121114Y227727D01*
X121413Y227006D01*
X121888Y226388D01*
X122506Y225913D01*
X123227Y225614D01*
X123600Y225565D01*
Y228100D01*
D02*
G37*
G36*
X107162Y231662D02*
X100838D01*
Y225338D01*
X107162D01*
Y231662D01*
D02*
G37*
G36*
X134000Y231689D02*
X133175Y231581D01*
X132405Y231262D01*
X131745Y230755D01*
X131238Y230095D01*
X130919Y229326D01*
X130811Y228500D01*
X130919Y227675D01*
X131238Y226905D01*
X131745Y226245D01*
X132405Y225738D01*
X133175Y225419D01*
X134000Y225311D01*
X134826Y225419D01*
X135595Y225738D01*
X136255Y226245D01*
X136762Y226905D01*
X137081Y227675D01*
X137189Y228500D01*
X137081Y229326D01*
X136762Y230095D01*
X136255Y230755D01*
X135595Y231262D01*
X134826Y231581D01*
X134000Y231689D01*
D02*
G37*
G36*
X114000D02*
X113174Y231581D01*
X112405Y231262D01*
X111745Y230755D01*
X111238Y230095D01*
X110919Y229326D01*
X110811Y228500D01*
X110919Y227675D01*
X111238Y226905D01*
X111745Y226245D01*
X112405Y225738D01*
X113174Y225419D01*
X114000Y225311D01*
X114825Y225419D01*
X115595Y225738D01*
X116255Y226245D01*
X116762Y226905D01*
X117081Y227675D01*
X117189Y228500D01*
X117081Y229326D01*
X116762Y230095D01*
X116255Y230755D01*
X115595Y231262D01*
X114825Y231581D01*
X114000Y231689D01*
D02*
G37*
G36*
X189400Y227366D02*
Y221862D01*
X194904D01*
X194829Y222621D01*
X194491Y223737D01*
X193942Y224764D01*
X193203Y225665D01*
X192302Y226404D01*
X191274Y226953D01*
X190159Y227291D01*
X189400Y227366D01*
D02*
G37*
G36*
X188600D02*
X187840Y227291D01*
X186725Y226953D01*
X185698Y226404D01*
X184797Y225665D01*
X184058Y224764D01*
X183509Y223737D01*
X183171Y222621D01*
X183096Y221862D01*
X188600D01*
Y227366D01*
D02*
G37*
G36*
X194904Y221062D02*
X189400D01*
Y215558D01*
X190159Y215633D01*
X191274Y215971D01*
X192302Y216520D01*
X193203Y217259D01*
X193942Y218160D01*
X194491Y219187D01*
X194829Y220303D01*
X194904Y221062D01*
D02*
G37*
G36*
X188600D02*
X183096D01*
X183171Y220303D01*
X183509Y219187D01*
X184058Y218160D01*
X184797Y217259D01*
X185698Y216520D01*
X186725Y215971D01*
X187840Y215633D01*
X188600Y215558D01*
Y221062D01*
D02*
G37*
G36*
X175115Y227577D02*
X162885D01*
Y215347D01*
X175115D01*
Y227577D01*
D02*
G37*
G36*
X209000Y227607D02*
X207801Y227488D01*
X206649Y227139D01*
X205586Y226571D01*
X204655Y225807D01*
X203891Y224876D01*
X203323Y223813D01*
X202974Y222661D01*
X202855Y221462D01*
X202974Y220263D01*
X203323Y219111D01*
X203891Y218048D01*
X204655Y217117D01*
X205586Y216353D01*
X206649Y215785D01*
X207801Y215436D01*
X209000Y215317D01*
X210199Y215436D01*
X211351Y215785D01*
X212414Y216353D01*
X213345Y217117D01*
X214109Y218048D01*
X214677Y219111D01*
X215026Y220263D01*
X215145Y221462D01*
X215026Y222661D01*
X214677Y223813D01*
X214109Y224876D01*
X213345Y225807D01*
X212414Y226571D01*
X211351Y227139D01*
X210199Y227488D01*
X209000Y227607D01*
D02*
G37*
G36*
X128226Y215484D02*
Y212751D01*
X130959D01*
X130903Y213175D01*
X130585Y213944D01*
X130078Y214604D01*
X129419Y215110D01*
X128650Y215428D01*
X128226Y215484D01*
D02*
G37*
G36*
X127426D02*
X127001Y215428D01*
X126232Y215110D01*
X125572Y214604D01*
X125066Y213944D01*
X124748Y213175D01*
X124692Y212751D01*
X127426D01*
Y215484D01*
D02*
G37*
G36*
X130959Y211951D02*
X128226D01*
Y209217D01*
X128650Y209273D01*
X129419Y209591D01*
X130078Y210098D01*
X130585Y210758D01*
X130903Y211526D01*
X130959Y211951D01*
D02*
G37*
G36*
X127426D02*
X124692D01*
X124748Y211526D01*
X125066Y210758D01*
X125572Y210098D01*
X126232Y209591D01*
X127001Y209273D01*
X127426Y209217D01*
Y211951D01*
D02*
G37*
G36*
X147826Y215739D02*
X146949Y215623D01*
X146132Y215285D01*
X145430Y214746D01*
X144891Y214045D01*
X144553Y213228D01*
X144438Y212351D01*
X144553Y211474D01*
X144891Y210657D01*
X145430Y209955D01*
X146132Y209417D01*
X146949Y209078D01*
X147826Y208963D01*
X148702Y209078D01*
X149519Y209417D01*
X150221Y209955D01*
X150759Y210657D01*
X151098Y211474D01*
X151213Y212351D01*
X151098Y213228D01*
X150759Y214045D01*
X150221Y214746D01*
X149519Y215285D01*
X148702Y215623D01*
X147826Y215739D01*
D02*
G37*
G36*
X70008Y218008D02*
X56991D01*
Y204992D01*
X70008D01*
Y218008D01*
D02*
G37*
G36*
X43500Y218040D02*
X42224Y217914D01*
X40997Y217542D01*
X39867Y216938D01*
X38875Y216125D01*
X38062Y215133D01*
X37458Y214003D01*
X37086Y212776D01*
X36960Y211500D01*
X37086Y210224D01*
X37458Y208997D01*
X38062Y207867D01*
X38875Y206875D01*
X39867Y206062D01*
X40997Y205458D01*
X42224Y205086D01*
X43500Y204960D01*
X44776Y205086D01*
X46003Y205458D01*
X47133Y206062D01*
X48125Y206875D01*
X48938Y207867D01*
X49542Y208997D01*
X49914Y210224D01*
X50040Y211500D01*
X49914Y212776D01*
X49542Y214003D01*
X48938Y215133D01*
X48125Y216125D01*
X47133Y216938D01*
X46003Y217542D01*
X44776Y217914D01*
X43500Y218040D01*
D02*
G37*
G36*
X23500D02*
X22224Y217914D01*
X20997Y217542D01*
X19867Y216938D01*
X18876Y216125D01*
X18062Y215133D01*
X17458Y214003D01*
X17086Y212776D01*
X16960Y211500D01*
X17086Y210224D01*
X17458Y208997D01*
X18062Y207867D01*
X18876Y206875D01*
X19867Y206062D01*
X20997Y205458D01*
X22224Y205086D01*
X23500Y204960D01*
X24776Y205086D01*
X26003Y205458D01*
X27133Y206062D01*
X28124Y206875D01*
X28938Y207867D01*
X29542Y208997D01*
X29914Y210224D01*
X30040Y211500D01*
X29914Y212776D01*
X29542Y214003D01*
X28938Y215133D01*
X28124Y216125D01*
X27133Y216938D01*
X26003Y217542D01*
X24776Y217914D01*
X23500Y218040D01*
D02*
G37*
G36*
X112238Y205396D02*
X111463Y205294D01*
X110742Y204995D01*
X110123Y204520D01*
X109647Y203901D01*
X109348Y203179D01*
X109247Y202405D01*
X109348Y201631D01*
X109647Y200910D01*
X110123Y200290D01*
X110742Y199815D01*
X111463Y199516D01*
X112238Y199414D01*
X113012Y199516D01*
X113733Y199815D01*
X114353Y200290D01*
X114828Y200910D01*
X115127Y201631D01*
X115229Y202405D01*
X115127Y203179D01*
X114828Y203901D01*
X114353Y204520D01*
X113733Y204995D01*
X113012Y205294D01*
X112238Y205396D01*
D02*
G37*
G36*
X127854Y205377D02*
X127080Y205275D01*
X126358Y204976D01*
X125739Y204501D01*
X125264Y203882D01*
X124965Y203160D01*
X124863Y202386D01*
X124965Y201612D01*
X125264Y200890D01*
X125739Y200271D01*
X126358Y199796D01*
X127080Y199497D01*
X127854Y199395D01*
X128628Y199497D01*
X129350Y199796D01*
X129969Y200271D01*
X130444Y200890D01*
X130743Y201612D01*
X130845Y202386D01*
X130743Y203160D01*
X130444Y203882D01*
X129969Y204501D01*
X129350Y204976D01*
X128628Y205275D01*
X127854Y205377D01*
D02*
G37*
G36*
X209000Y207607D02*
X207801Y207488D01*
X206649Y207139D01*
X205586Y206571D01*
X204655Y205807D01*
X203891Y204876D01*
X203323Y203813D01*
X202974Y202661D01*
X202855Y201462D01*
X202974Y200263D01*
X203323Y199111D01*
X203891Y198048D01*
X204655Y197117D01*
X205586Y196353D01*
X206649Y195785D01*
X207801Y195436D01*
X209000Y195317D01*
X210199Y195436D01*
X211351Y195785D01*
X212414Y196353D01*
X213345Y197117D01*
X214109Y198048D01*
X214677Y199111D01*
X215026Y200263D01*
X215145Y201462D01*
X215026Y202661D01*
X214677Y203813D01*
X214109Y204876D01*
X213345Y205807D01*
X212414Y206571D01*
X211351Y207139D01*
X210199Y207488D01*
X209000Y207607D01*
D02*
G37*
G36*
X189000D02*
X187801Y207488D01*
X186649Y207139D01*
X185586Y206571D01*
X184655Y205807D01*
X183891Y204876D01*
X183323Y203813D01*
X182974Y202661D01*
X182855Y201462D01*
X182974Y200263D01*
X183323Y199111D01*
X183891Y198048D01*
X184655Y197117D01*
X185586Y196353D01*
X186649Y195785D01*
X187801Y195436D01*
X189000Y195317D01*
X190199Y195436D01*
X191351Y195785D01*
X192414Y196353D01*
X193345Y197117D01*
X194109Y198048D01*
X194677Y199111D01*
X195027Y200263D01*
X195145Y201462D01*
X195027Y202661D01*
X194677Y203813D01*
X194109Y204876D01*
X193345Y205807D01*
X192414Y206571D01*
X191351Y207139D01*
X190199Y207488D01*
X189000Y207607D01*
D02*
G37*
G36*
X146287Y200568D02*
X139963D01*
Y194244D01*
X146287D01*
Y200568D01*
D02*
G37*
G36*
X63483Y193711D02*
X62709Y193609D01*
X61987Y193310D01*
X61368Y192835D01*
X60892Y192216D01*
X60594Y191494D01*
X60492Y190720D01*
X60594Y189946D01*
X60892Y189225D01*
X61368Y188605D01*
X61987Y188130D01*
X62709Y187831D01*
X63483Y187729D01*
X64257Y187831D01*
X64978Y188130D01*
X65598Y188605D01*
X66073Y189225D01*
X66372Y189946D01*
X66474Y190720D01*
X66372Y191494D01*
X66073Y192216D01*
X65598Y192835D01*
X64978Y193310D01*
X64257Y193609D01*
X63483Y193711D01*
D02*
G37*
G36*
X33483D02*
X32709Y193609D01*
X31987Y193310D01*
X31368Y192835D01*
X30893Y192216D01*
X30594Y191494D01*
X30492Y190720D01*
X30594Y189946D01*
X30893Y189225D01*
X31368Y188605D01*
X31987Y188130D01*
X32709Y187831D01*
X33483Y187729D01*
X34257Y187831D01*
X34978Y188130D01*
X35598Y188605D01*
X36073Y189225D01*
X36372Y189946D01*
X36474Y190720D01*
X36372Y191494D01*
X36073Y192216D01*
X35598Y192835D01*
X34978Y193310D01*
X34257Y193609D01*
X33483Y193711D01*
D02*
G37*
G36*
X143125Y190595D02*
X142300Y190487D01*
X141531Y190168D01*
X140870Y189661D01*
X140363Y189001D01*
X140045Y188232D01*
X139936Y187406D01*
X140045Y186581D01*
X140363Y185812D01*
X140870Y185151D01*
X141531Y184644D01*
X142300Y184326D01*
X143125Y184217D01*
X143951Y184326D01*
X144720Y184644D01*
X145381Y185151D01*
X145887Y185812D01*
X146206Y186581D01*
X146315Y187406D01*
X146206Y188232D01*
X145887Y189001D01*
X145381Y189661D01*
X144720Y190168D01*
X143951Y190487D01*
X143125Y190595D01*
D02*
G37*
G36*
X94638Y185088D02*
Y182752D01*
X96974D01*
X96932Y183073D01*
X96653Y183746D01*
X96210Y184324D01*
X95632Y184767D01*
X94959Y185046D01*
X94638Y185088D01*
D02*
G37*
G36*
X93838D02*
X93516Y185046D01*
X92843Y184767D01*
X92265Y184324D01*
X91822Y183746D01*
X91543Y183073D01*
X91501Y182752D01*
X93838D01*
Y185088D01*
D02*
G37*
G36*
X96974Y181951D02*
X94638D01*
Y179615D01*
X94959Y179657D01*
X95632Y179936D01*
X96210Y180379D01*
X96653Y180957D01*
X96932Y181630D01*
X96974Y181951D01*
D02*
G37*
G36*
X93838D02*
X91501D01*
X91543Y181630D01*
X91822Y180957D01*
X92265Y180379D01*
X92843Y179936D01*
X93516Y179657D01*
X93838Y179615D01*
Y181951D01*
D02*
G37*
G36*
X216738Y184239D02*
X210414D01*
Y177915D01*
X216738D01*
Y184239D01*
D02*
G37*
G36*
X204189Y184266D02*
X203364Y184157D01*
X202594Y183839D01*
X201934Y183332D01*
X201427Y182671D01*
X201109Y181902D01*
X201000Y181077D01*
X201109Y180251D01*
X201427Y179482D01*
X201934Y178822D01*
X202594Y178315D01*
X203364Y177996D01*
X204189Y177887D01*
X205015Y177996D01*
X205784Y178315D01*
X206444Y178822D01*
X206951Y179482D01*
X207270Y180251D01*
X207378Y181077D01*
X207270Y181902D01*
X206951Y182671D01*
X206444Y183332D01*
X205784Y183839D01*
X205015Y184157D01*
X204189Y184266D01*
D02*
G37*
G36*
X198077Y184082D02*
X191753D01*
Y177758D01*
X198077D01*
Y184082D01*
D02*
G37*
G36*
X169000Y207607D02*
X167801Y207488D01*
X166649Y207139D01*
X165586Y206571D01*
X164655Y205807D01*
X163891Y204876D01*
X163323Y203813D01*
X162973Y202661D01*
X162855Y201462D01*
X162973Y200263D01*
X163323Y199111D01*
X163891Y198048D01*
X164655Y197117D01*
X165586Y196353D01*
X166649Y195785D01*
X167801Y195436D01*
X169000Y195317D01*
X170199Y195436D01*
X171351Y195785D01*
X172297Y196291D01*
X184352Y184235D01*
X184330Y183833D01*
X184260Y183633D01*
X183662Y183175D01*
X183155Y182514D01*
X182836Y181745D01*
X182728Y180920D01*
X182836Y180094D01*
X183155Y179325D01*
X183662Y178664D01*
X184322Y178158D01*
X185091Y177839D01*
X185917Y177730D01*
X186742Y177839D01*
X187512Y178158D01*
X188172Y178664D01*
X188679Y179325D01*
X188997Y180094D01*
X189106Y180920D01*
X188997Y181745D01*
X188679Y182514D01*
X188172Y183175D01*
X187512Y183682D01*
X187242Y183793D01*
Y184545D01*
X187141Y185052D01*
X186854Y185482D01*
X174171Y198165D01*
X174677Y199111D01*
X175027Y200263D01*
X175145Y201462D01*
X175027Y202661D01*
X174677Y203813D01*
X174109Y204876D01*
X173345Y205807D01*
X172414Y206571D01*
X171351Y207139D01*
X170199Y207488D01*
X169000Y207607D01*
D02*
G37*
G36*
X63500Y183712D02*
X62726Y183610D01*
X62005Y183311D01*
X61385Y182835D01*
X60910Y182216D01*
X60611Y181495D01*
X60509Y180720D01*
X60611Y179946D01*
X60910Y179225D01*
X61385Y178605D01*
X62005Y178130D01*
X62726Y177831D01*
X63500Y177729D01*
X64274Y177831D01*
X64995Y178130D01*
X65615Y178605D01*
X66090Y179225D01*
X66389Y179946D01*
X66491Y180720D01*
X66389Y181495D01*
X66090Y182216D01*
X65615Y182835D01*
X64995Y183311D01*
X64274Y183610D01*
X63500Y183712D01*
D02*
G37*
G36*
X33500D02*
X32726Y183610D01*
X32004Y183311D01*
X31385Y182835D01*
X30910Y182216D01*
X30611Y181495D01*
X30509Y180720D01*
X30611Y179946D01*
X30910Y179225D01*
X31385Y178605D01*
X32004Y178130D01*
X32726Y177831D01*
X33500Y177729D01*
X34274Y177831D01*
X34995Y178130D01*
X35615Y178605D01*
X36090Y179225D01*
X36389Y179946D01*
X36491Y180720D01*
X36389Y181495D01*
X36090Y182216D01*
X35615Y182835D01*
X34995Y183311D01*
X34274Y183610D01*
X33500Y183712D01*
D02*
G37*
G36*
X179950Y183982D02*
X173626D01*
Y177658D01*
X179950D01*
Y183982D01*
D02*
G37*
G36*
X167519Y183989D02*
X166694Y183881D01*
X165924Y183562D01*
X165264Y183055D01*
X164757Y182395D01*
X164438Y181625D01*
X164330Y180800D01*
X164438Y179974D01*
X164757Y179205D01*
X165264Y178545D01*
X165924Y178038D01*
X166694Y177719D01*
X167519Y177611D01*
X168344Y177719D01*
X169114Y178038D01*
X169774Y178545D01*
X170281Y179205D01*
X170600Y179974D01*
X170708Y180800D01*
X170600Y181625D01*
X170281Y182395D01*
X169774Y183055D01*
X169114Y183562D01*
X168344Y183881D01*
X167519Y183989D01*
D02*
G37*
G36*
X143125Y180596D02*
X142300Y180487D01*
X141531Y180168D01*
X140870Y179661D01*
X140363Y179001D01*
X140045Y178232D01*
X139936Y177406D01*
X140045Y176581D01*
X140363Y175812D01*
X140870Y175151D01*
X141531Y174644D01*
X142300Y174326D01*
X143125Y174217D01*
X143951Y174326D01*
X144720Y174644D01*
X145381Y175151D01*
X145887Y175812D01*
X146206Y176581D01*
X146315Y177406D01*
X146206Y178232D01*
X145887Y179001D01*
X145381Y179661D01*
X144720Y180168D01*
X143951Y180487D01*
X143125Y180596D01*
D02*
G37*
G36*
X112238Y175396D02*
X111463Y175294D01*
X110742Y174996D01*
X110123Y174520D01*
X109647Y173901D01*
X109348Y173179D01*
X109247Y172405D01*
X109348Y171631D01*
X109647Y170910D01*
X110123Y170290D01*
X110742Y169815D01*
X111463Y169516D01*
X112238Y169414D01*
X113012Y169516D01*
X113733Y169815D01*
X114353Y170290D01*
X114828Y170910D01*
X115127Y171631D01*
X115229Y172405D01*
X115127Y173179D01*
X114828Y173901D01*
X114353Y174520D01*
X113733Y174996D01*
X113012Y175294D01*
X112238Y175396D01*
D02*
G37*
G36*
X127854Y175377D02*
X127080Y175275D01*
X126358Y174976D01*
X125739Y174501D01*
X125264Y173881D01*
X124965Y173160D01*
X124863Y172386D01*
X124965Y171612D01*
X125264Y170890D01*
X125739Y170271D01*
X126358Y169796D01*
X127080Y169497D01*
X127854Y169395D01*
X128628Y169497D01*
X129350Y169796D01*
X129969Y170271D01*
X130444Y170890D01*
X130743Y171612D01*
X130845Y172386D01*
X130743Y173160D01*
X130444Y173881D01*
X129969Y174501D01*
X129350Y174976D01*
X128628Y175275D01*
X127854Y175377D01*
D02*
G37*
G36*
X97203Y175317D02*
X91272D01*
Y169386D01*
X97203D01*
Y175317D01*
D02*
G37*
G36*
X58500Y174110D02*
X57623Y173994D01*
X56806Y173656D01*
X56104Y173117D01*
X55566Y172416D01*
X55228Y171598D01*
X55112Y170722D01*
X55228Y169845D01*
X55566Y169028D01*
X56104Y168326D01*
X56806Y167788D01*
X57623Y167449D01*
X58500Y167334D01*
X59377Y167449D01*
X60194Y167788D01*
X60896Y168326D01*
X61434Y169028D01*
X61773Y169845D01*
X61888Y170722D01*
X61773Y171598D01*
X61434Y172416D01*
X60896Y173117D01*
X60194Y173656D01*
X59377Y173994D01*
X58500Y174110D01*
D02*
G37*
G36*
X38500D02*
X37623Y173994D01*
X36806Y173656D01*
X36104Y173117D01*
X35566Y172416D01*
X35228Y171598D01*
X35112Y170722D01*
X35228Y169845D01*
X35566Y169028D01*
X36104Y168326D01*
X36806Y167788D01*
X37623Y167449D01*
X38500Y167334D01*
X39377Y167449D01*
X40194Y167788D01*
X40896Y168326D01*
X41434Y169028D01*
X41772Y169845D01*
X41888Y170722D01*
X41772Y171598D01*
X41434Y172416D01*
X40896Y173117D01*
X40194Y173656D01*
X39377Y173994D01*
X38500Y174110D01*
D02*
G37*
G36*
X23519Y172761D02*
X22745Y172659D01*
X22023Y172360D01*
X21404Y171885D01*
X20929Y171265D01*
X20630Y170544D01*
X20528Y169770D01*
X20630Y168996D01*
X20929Y168274D01*
X21404Y167655D01*
X22023Y167180D01*
X22745Y166881D01*
X23519Y166779D01*
X24293Y166881D01*
X25014Y167180D01*
X25634Y167655D01*
X26109Y168274D01*
X26408Y168996D01*
X26510Y169770D01*
X26408Y170544D01*
X26109Y171265D01*
X25634Y171885D01*
X25014Y172360D01*
X24293Y172659D01*
X23519Y172761D01*
D02*
G37*
G36*
X128225Y165539D02*
Y162806D01*
X130959D01*
X130903Y163230D01*
X130585Y163999D01*
X130078Y164659D01*
X129419Y165165D01*
X128650Y165483D01*
X128225Y165539D01*
D02*
G37*
G36*
X127425D02*
X127001Y165483D01*
X126232Y165165D01*
X125572Y164659D01*
X125066Y163999D01*
X124748Y163230D01*
X124692Y162806D01*
X127425D01*
Y165539D01*
D02*
G37*
G36*
X33900Y163477D02*
Y161140D01*
X36237D01*
X36194Y161462D01*
X35916Y162135D01*
X35472Y162713D01*
X34895Y163156D01*
X34222Y163435D01*
X33900Y163477D01*
D02*
G37*
G36*
X33100D02*
X32778Y163435D01*
X32105Y163156D01*
X31528Y162713D01*
X31084Y162135D01*
X30806Y161462D01*
X30763Y161140D01*
X33100D01*
Y163477D01*
D02*
G37*
G36*
X127425Y162006D02*
X124692D01*
X124748Y161581D01*
X125066Y160812D01*
X125572Y160152D01*
X126232Y159646D01*
X127001Y159328D01*
X127425Y159272D01*
Y162006D01*
D02*
G37*
G36*
X130959D02*
X128225D01*
Y159272D01*
X128650Y159328D01*
X129419Y159646D01*
X130078Y160152D01*
X130585Y160812D01*
X130903Y161581D01*
X130959Y162006D01*
D02*
G37*
G36*
X147826Y165794D02*
X146949Y165678D01*
X146132Y165340D01*
X145430Y164801D01*
X144891Y164100D01*
X144553Y163282D01*
X144438Y162406D01*
X144553Y161529D01*
X144891Y160712D01*
X145430Y160010D01*
X146132Y159471D01*
X146949Y159133D01*
X147826Y159018D01*
X148702Y159133D01*
X149519Y159471D01*
X150221Y160010D01*
X150759Y160712D01*
X151098Y161529D01*
X151213Y162406D01*
X151098Y163282D01*
X150759Y164100D01*
X150221Y164801D01*
X149519Y165340D01*
X148702Y165678D01*
X147826Y165794D01*
D02*
G37*
G36*
X36237Y160340D02*
X33900D01*
Y158003D01*
X34222Y158046D01*
X34895Y158325D01*
X35472Y158768D01*
X35916Y159345D01*
X36194Y160018D01*
X36237Y160340D01*
D02*
G37*
G36*
X33100D02*
X30763D01*
X30806Y160018D01*
X31084Y159345D01*
X31528Y158768D01*
X32105Y158325D01*
X32778Y158046D01*
X33100Y158003D01*
Y160340D01*
D02*
G37*
G36*
X207351Y164239D02*
X201027D01*
Y157915D01*
X207351D01*
Y164239D01*
D02*
G37*
G36*
X213576Y164266D02*
X212751Y164157D01*
X211982Y163839D01*
X211321Y163332D01*
X210814Y162671D01*
X210496Y161902D01*
X210387Y161077D01*
X210496Y160251D01*
X210814Y159482D01*
X211321Y158822D01*
X211982Y158315D01*
X212751Y157996D01*
X213576Y157887D01*
X214402Y157996D01*
X215171Y158315D01*
X215831Y158822D01*
X216338Y159482D01*
X216657Y160251D01*
X216766Y161077D01*
X216657Y161902D01*
X216338Y162671D01*
X215831Y163332D01*
X215171Y163839D01*
X214402Y164157D01*
X213576Y164266D01*
D02*
G37*
G36*
X189079Y164082D02*
X182755D01*
Y157758D01*
X189079D01*
Y164082D01*
D02*
G37*
G36*
X63500Y163731D02*
X62726Y163629D01*
X62005Y163330D01*
X61385Y162855D01*
X60910Y162236D01*
X60611Y161514D01*
X60509Y160740D01*
X60611Y159966D01*
X60910Y159245D01*
X61385Y158625D01*
X62005Y158150D01*
X62726Y157851D01*
X63500Y157749D01*
X64274Y157851D01*
X64995Y158150D01*
X65615Y158625D01*
X66090Y159245D01*
X66389Y159966D01*
X66491Y160740D01*
X66389Y161514D01*
X66090Y162236D01*
X65615Y162855D01*
X64995Y163330D01*
X64274Y163629D01*
X63500Y163731D01*
D02*
G37*
G36*
X194915Y164109D02*
X194090Y164000D01*
X193321Y163682D01*
X192660Y163175D01*
X192154Y162514D01*
X191835Y161745D01*
X191726Y160920D01*
X191835Y160094D01*
X192154Y159325D01*
X192660Y158664D01*
X193321Y158158D01*
X194090Y157839D01*
X194915Y157730D01*
X195741Y157839D01*
X196510Y158158D01*
X197171Y158664D01*
X197678Y159325D01*
X197996Y160094D01*
X198105Y160920D01*
X197996Y161745D01*
X197678Y162514D01*
X197171Y163175D01*
X196510Y163682D01*
X195741Y164000D01*
X194915Y164109D01*
D02*
G37*
G36*
X170681Y163962D02*
X164357D01*
Y157638D01*
X170681D01*
Y163962D01*
D02*
G37*
G36*
X176788Y164009D02*
X175962Y163900D01*
X175193Y163582D01*
X174532Y163075D01*
X174026Y162414D01*
X173707Y161645D01*
X173598Y160820D01*
X173707Y159994D01*
X174026Y159225D01*
X174532Y158564D01*
X175193Y158058D01*
X175962Y157739D01*
X176788Y157630D01*
X177613Y157739D01*
X178382Y158058D01*
X179043Y158564D01*
X179550Y159225D01*
X179868Y159994D01*
X179977Y160820D01*
X179868Y161645D01*
X179550Y162414D01*
X179043Y163075D01*
X178382Y163582D01*
X177613Y163900D01*
X176788Y164009D01*
D02*
G37*
G36*
X58499Y154018D02*
X57622Y153903D01*
X56805Y153564D01*
X56103Y153026D01*
X55565Y152324D01*
X55226Y151507D01*
X55111Y150630D01*
X55226Y149753D01*
X55565Y148936D01*
X56103Y148234D01*
X56805Y147696D01*
X57622Y147358D01*
X58499Y147242D01*
X59376Y147358D01*
X60193Y147696D01*
X60894Y148234D01*
X61433Y148936D01*
X61771Y149753D01*
X61887Y150630D01*
X61771Y151507D01*
X61433Y152324D01*
X60894Y153026D01*
X60193Y153564D01*
X59376Y153903D01*
X58499Y154018D01*
D02*
G37*
G36*
X38499D02*
X37622Y153903D01*
X36805Y153564D01*
X36103Y153026D01*
X35565Y152324D01*
X35226Y151507D01*
X35111Y150630D01*
X35226Y149753D01*
X35565Y148936D01*
X36103Y148234D01*
X36805Y147696D01*
X37622Y147358D01*
X38499Y147242D01*
X39376Y147358D01*
X40193Y147696D01*
X40894Y148234D01*
X41433Y148936D01*
X41771Y149753D01*
X41887Y150630D01*
X41771Y151507D01*
X41433Y152324D01*
X40894Y153026D01*
X40193Y153564D01*
X39376Y153903D01*
X38499Y154018D01*
D02*
G37*
G36*
X140843Y154343D02*
X132157D01*
Y145657D01*
X140843D01*
Y154343D01*
D02*
G37*
G36*
X116500Y154381D02*
X115366Y154232D01*
X114310Y153794D01*
X113402Y153098D01*
X112706Y152190D01*
X112268Y151134D01*
X112119Y150000D01*
X112268Y148866D01*
X112706Y147810D01*
X113402Y146902D01*
X114310Y146206D01*
X115366Y145768D01*
X116500Y145619D01*
X117634Y145768D01*
X118691Y146206D01*
X119598Y146902D01*
X120294Y147810D01*
X120732Y148866D01*
X120881Y150000D01*
X120732Y151134D01*
X120294Y152190D01*
X119598Y153098D01*
X118691Y153794D01*
X117634Y154232D01*
X116500Y154381D01*
D02*
G37*
G36*
X96500D02*
X95366Y154232D01*
X94310Y153794D01*
X93402Y153098D01*
X92706Y152190D01*
X92268Y151134D01*
X92119Y150000D01*
X92268Y148866D01*
X92706Y147810D01*
X93402Y146902D01*
X94310Y146206D01*
X95366Y145768D01*
X96500Y145619D01*
X97634Y145768D01*
X98690Y146206D01*
X99598Y146902D01*
X100294Y147810D01*
X100732Y148866D01*
X100881Y150000D01*
X100732Y151134D01*
X100294Y152190D01*
X99598Y153098D01*
X98690Y153794D01*
X97634Y154232D01*
X96500Y154381D01*
D02*
G37*
G36*
X23519Y142761D02*
X22745Y142659D01*
X22023Y142360D01*
X21404Y141885D01*
X20929Y141265D01*
X20630Y140544D01*
X20528Y139770D01*
X20630Y138996D01*
X20929Y138274D01*
X21404Y137655D01*
X22023Y137180D01*
X22745Y136881D01*
X23519Y136779D01*
X24293Y136881D01*
X25014Y137180D01*
X25634Y137655D01*
X26109Y138274D01*
X26408Y138996D01*
X26510Y139770D01*
X26408Y140544D01*
X26109Y141265D01*
X25634Y141885D01*
X25014Y142360D01*
X24293Y142659D01*
X23519Y142761D01*
D02*
G37*
G36*
X63517Y143097D02*
X62656Y142984D01*
X61853Y142651D01*
X61285Y142216D01*
X55495D01*
X54558Y142030D01*
X53765Y141499D01*
X45770Y133504D01*
X45239Y132710D01*
X45053Y131774D01*
Y98190D01*
X39079Y92215D01*
X35182D01*
X34995Y92358D01*
X34274Y92657D01*
X33500Y92759D01*
X32726Y92657D01*
X32004Y92358D01*
X31385Y91883D01*
X30910Y91264D01*
X30611Y90542D01*
X30509Y89768D01*
X30611Y88994D01*
X30910Y88273D01*
X31385Y87653D01*
X32004Y87178D01*
X32726Y86879D01*
X33500Y86777D01*
X34274Y86879D01*
X34995Y87178D01*
X35182Y87321D01*
X40092D01*
X41028Y87507D01*
X41822Y88038D01*
X49230Y95446D01*
X49761Y96240D01*
X49947Y97176D01*
Y130760D01*
X56509Y137322D01*
X61285D01*
X61853Y136886D01*
X62656Y136554D01*
X63517Y136440D01*
X64378Y136554D01*
X65181Y136886D01*
X65871Y137415D01*
X66400Y138105D01*
X66732Y138907D01*
X66846Y139769D01*
X66732Y140630D01*
X66400Y141433D01*
X65871Y142122D01*
X65181Y142651D01*
X64378Y142984D01*
X63517Y143097D01*
D02*
G37*
G36*
X33517D02*
X32656Y142984D01*
X31853Y142651D01*
X31163Y142122D01*
X30634Y141433D01*
X30302Y140630D01*
X30189Y139769D01*
X30302Y138907D01*
X30634Y138105D01*
X31163Y137415D01*
X31853Y136886D01*
X32656Y136554D01*
X33517Y136440D01*
X34378Y136554D01*
X35181Y136886D01*
X35871Y137415D01*
X36400Y138105D01*
X36732Y138907D01*
X36845Y139769D01*
X36732Y140630D01*
X36400Y141433D01*
X35871Y142122D01*
X35181Y142651D01*
X34378Y142984D01*
X33517Y143097D01*
D02*
G37*
G36*
X13275Y143201D02*
X12398Y143086D01*
X11581Y142747D01*
X10879Y142209D01*
X10341Y141507D01*
X10002Y140690D01*
X9887Y139813D01*
X10002Y138936D01*
X10341Y138119D01*
X10879Y137418D01*
X11581Y136879D01*
X12398Y136541D01*
X13275Y136425D01*
X14152Y136541D01*
X14969Y136879D01*
X15671Y137418D01*
X16209Y138119D01*
X16547Y138936D01*
X16663Y139813D01*
X16547Y140690D01*
X16209Y141507D01*
X15671Y142209D01*
X14969Y142747D01*
X14152Y143086D01*
X13275Y143201D01*
D02*
G37*
G36*
X73520Y143157D02*
X72643Y143041D01*
X71826Y142703D01*
X71124Y142165D01*
X70586Y141463D01*
X70248Y140646D01*
X70132Y139769D01*
X70248Y138892D01*
X70586Y138075D01*
X71124Y137373D01*
X71826Y136835D01*
X72643Y136496D01*
X73520Y136381D01*
X74397Y136496D01*
X75214Y136835D01*
X75916Y137373D01*
X76454Y138075D01*
X76793Y138892D01*
X76908Y139769D01*
X76793Y140646D01*
X76454Y141463D01*
X75916Y142165D01*
X75214Y142703D01*
X74397Y143041D01*
X73520Y143157D01*
D02*
G37*
G36*
X154000Y140791D02*
X153226Y140689D01*
X152505Y140390D01*
X151885Y139915D01*
X151410Y139295D01*
X151111Y138574D01*
X151009Y137800D01*
X151111Y137026D01*
X151410Y136304D01*
X151885Y135685D01*
X152505Y135210D01*
X153226Y134911D01*
X154000Y134809D01*
X154774Y134911D01*
X155496Y135210D01*
X156115Y135685D01*
X156590Y136304D01*
X156889Y137026D01*
X156991Y137800D01*
X156889Y138574D01*
X156590Y139295D01*
X156115Y139915D01*
X155496Y140390D01*
X154774Y140689D01*
X154000Y140791D01*
D02*
G37*
G36*
X134000D02*
X133226Y140689D01*
X132504Y140390D01*
X131885Y139915D01*
X131410Y139295D01*
X131111Y138574D01*
X131009Y137800D01*
X131111Y137026D01*
X131410Y136304D01*
X131885Y135685D01*
X132504Y135210D01*
X133226Y134911D01*
X134000Y134809D01*
X134774Y134911D01*
X135495Y135210D01*
X136115Y135685D01*
X136590Y136304D01*
X136889Y137026D01*
X136991Y137800D01*
X136889Y138574D01*
X136590Y139295D01*
X136115Y139915D01*
X135495Y140390D01*
X134774Y140689D01*
X134000Y140791D01*
D02*
G37*
G36*
X144000Y140760D02*
X143226Y140658D01*
X142504Y140359D01*
X141885Y139884D01*
X141410Y139265D01*
X141111Y138543D01*
X141009Y137769D01*
X141111Y136995D01*
X141181Y136825D01*
X138182Y133826D01*
X121862D01*
Y135662D01*
X115538D01*
Y129338D01*
X121862D01*
Y131175D01*
X138731D01*
X139238Y131275D01*
X139668Y131563D01*
X143056Y134950D01*
X143226Y134880D01*
X144000Y134778D01*
X144774Y134880D01*
X145496Y135179D01*
X146115Y135654D01*
X146590Y136274D01*
X146889Y136995D01*
X146991Y137769D01*
X146889Y138543D01*
X146590Y139265D01*
X146115Y139884D01*
X145496Y140359D01*
X144774Y140658D01*
X144000Y140760D01*
D02*
G37*
G36*
X102000Y135891D02*
X101123Y135775D01*
X100306Y135437D01*
X99604Y134899D01*
X99066Y134197D01*
X98728Y133380D01*
X98612Y132503D01*
X98728Y131626D01*
X99066Y130809D01*
X99604Y130107D01*
X100306Y129569D01*
X101123Y129230D01*
X102000Y129115D01*
X102877Y129230D01*
X103694Y129569D01*
X104396Y130107D01*
X104934Y130809D01*
X105272Y131626D01*
X105388Y132503D01*
X105272Y133380D01*
X104934Y134197D01*
X104396Y134899D01*
X103694Y135437D01*
X102877Y135775D01*
X102000Y135891D01*
D02*
G37*
G36*
X23519Y132760D02*
X22745Y132658D01*
X22023Y132359D01*
X21404Y131884D01*
X20929Y131264D01*
X20630Y130543D01*
X20528Y129769D01*
X20630Y128995D01*
X20929Y128273D01*
X21404Y127654D01*
X22023Y127179D01*
X22745Y126880D01*
X23519Y126778D01*
X24293Y126880D01*
X25014Y127179D01*
X25634Y127654D01*
X26109Y128273D01*
X26408Y128995D01*
X26510Y129769D01*
X26408Y130543D01*
X26109Y131264D01*
X25634Y131884D01*
X25014Y132359D01*
X24293Y132658D01*
X23519Y132760D01*
D02*
G37*
G36*
X13275D02*
X12501Y132658D01*
X11779Y132359D01*
X11160Y131884D01*
X10685Y131264D01*
X10386Y130543D01*
X10284Y129769D01*
X10386Y128995D01*
X10685Y128273D01*
X11160Y127654D01*
X11779Y127179D01*
X12501Y126880D01*
X13275Y126778D01*
X14049Y126880D01*
X14771Y127179D01*
X15390Y127654D01*
X15865Y128273D01*
X16164Y128995D01*
X16266Y129769D01*
X16164Y130543D01*
X15865Y131264D01*
X15390Y131884D01*
X14771Y132359D01*
X14049Y132658D01*
X13275Y132760D01*
D02*
G37*
G36*
X63517Y133097D02*
X62656Y132984D01*
X61853Y132651D01*
X61163Y132122D01*
X60634Y131433D01*
X60302Y130630D01*
X60189Y129769D01*
X60302Y128907D01*
X60634Y128105D01*
X61163Y127415D01*
X61853Y126886D01*
X62656Y126554D01*
X63517Y126440D01*
X64378Y126554D01*
X65181Y126886D01*
X65871Y127415D01*
X66400Y128105D01*
X66732Y128907D01*
X66846Y129769D01*
X66732Y130630D01*
X66400Y131433D01*
X65871Y132122D01*
X65181Y132651D01*
X64378Y132984D01*
X63517Y133097D01*
D02*
G37*
G36*
X33517D02*
X32656Y132984D01*
X31853Y132651D01*
X31163Y132122D01*
X30634Y131433D01*
X30302Y130630D01*
X30189Y129769D01*
X30302Y128907D01*
X30634Y128105D01*
X31163Y127415D01*
X31853Y126886D01*
X32656Y126554D01*
X33517Y126440D01*
X34378Y126554D01*
X35181Y126886D01*
X35871Y127415D01*
X36400Y128105D01*
X36732Y128907D01*
X36845Y129769D01*
X36732Y130630D01*
X36400Y131433D01*
X35871Y132122D01*
X35181Y132651D01*
X34378Y132984D01*
X33517Y133097D01*
D02*
G37*
G36*
X73920Y122902D02*
Y120169D01*
X76654D01*
X76598Y120594D01*
X76279Y121362D01*
X75773Y122022D01*
X75113Y122528D01*
X74345Y122846D01*
X73920Y122902D01*
D02*
G37*
G36*
X73120D02*
X72695Y122846D01*
X71927Y122528D01*
X71267Y122022D01*
X70761Y121362D01*
X70442Y120594D01*
X70386Y120169D01*
X73120D01*
Y122902D01*
D02*
G37*
G36*
X118700Y125689D02*
X117875Y125581D01*
X117105Y125262D01*
X116445Y124755D01*
X115938Y124095D01*
X115619Y123326D01*
X115511Y122500D01*
X115619Y121675D01*
X115938Y120905D01*
X116445Y120245D01*
X117105Y119738D01*
X117875Y119419D01*
X118700Y119311D01*
X119526Y119419D01*
X120295Y119738D01*
X120955Y120245D01*
X121462Y120905D01*
X121781Y121675D01*
X121889Y122500D01*
X121781Y123326D01*
X121462Y124095D01*
X120955Y124755D01*
X120295Y125262D01*
X119526Y125581D01*
X118700Y125689D01*
D02*
G37*
G36*
X76654Y119369D02*
X73920D01*
Y116635D01*
X74345Y116691D01*
X75113Y117009D01*
X75773Y117516D01*
X76279Y118176D01*
X76598Y118944D01*
X76654Y119369D01*
D02*
G37*
G36*
X73120D02*
X70386D01*
X70442Y118944D01*
X70761Y118176D01*
X71267Y117516D01*
X71927Y117009D01*
X72695Y116691D01*
X73120Y116635D01*
Y119369D01*
D02*
G37*
G36*
X63517Y123097D02*
X62656Y122984D01*
X61853Y122651D01*
X61163Y122122D01*
X60634Y121433D01*
X60302Y120630D01*
X60189Y119769D01*
X60302Y118907D01*
X60634Y118105D01*
X61163Y117415D01*
X61853Y116886D01*
X62656Y116554D01*
X63517Y116440D01*
X64378Y116554D01*
X65181Y116886D01*
X65871Y117415D01*
X66400Y118105D01*
X66732Y118907D01*
X66846Y119769D01*
X66732Y120630D01*
X66400Y121433D01*
X65871Y122122D01*
X65181Y122651D01*
X64378Y122984D01*
X63517Y123097D01*
D02*
G37*
G36*
X33517D02*
X32656Y122984D01*
X31853Y122651D01*
X31163Y122122D01*
X30634Y121433D01*
X30302Y120630D01*
X30189Y119769D01*
X30302Y118907D01*
X30634Y118105D01*
X31163Y117415D01*
X31853Y116886D01*
X32656Y116554D01*
X33517Y116440D01*
X34378Y116554D01*
X35181Y116886D01*
X35871Y117415D01*
X36400Y118105D01*
X36732Y118907D01*
X36845Y119769D01*
X36732Y120630D01*
X36400Y121433D01*
X35871Y122122D01*
X35181Y122651D01*
X34378Y122984D01*
X33517Y123097D01*
D02*
G37*
G36*
X33917Y112843D02*
Y110169D01*
X36591D01*
X36537Y110578D01*
X36225Y111332D01*
X35728Y111980D01*
X35080Y112477D01*
X34326Y112789D01*
X33917Y112843D01*
D02*
G37*
G36*
X33117D02*
X32708Y112789D01*
X31954Y112477D01*
X31306Y111980D01*
X30809Y111332D01*
X30497Y110578D01*
X30443Y110169D01*
X33117D01*
Y112843D01*
D02*
G37*
G36*
X102000Y115891D02*
X101123Y115775D01*
X100306Y115437D01*
X99604Y114899D01*
X99066Y114197D01*
X98728Y113380D01*
X98612Y112503D01*
X98728Y111626D01*
X99066Y110809D01*
X99604Y110107D01*
X100306Y109569D01*
X101123Y109230D01*
X102000Y109115D01*
X102877Y109230D01*
X103694Y109569D01*
X104396Y110107D01*
X104934Y110809D01*
X105272Y111626D01*
X105388Y112503D01*
X105272Y113380D01*
X104934Y114197D01*
X104396Y114899D01*
X103694Y115437D01*
X102877Y115775D01*
X102000Y115891D01*
D02*
G37*
G36*
X36591Y109369D02*
X33917D01*
Y106695D01*
X34326Y106749D01*
X35080Y107061D01*
X35728Y107558D01*
X36225Y108205D01*
X36537Y108960D01*
X36591Y109369D01*
D02*
G37*
G36*
X33117D02*
X30443D01*
X30497Y108960D01*
X30809Y108205D01*
X31306Y107558D01*
X31954Y107061D01*
X32708Y106749D01*
X33117Y106695D01*
Y109369D01*
D02*
G37*
G36*
X63517Y113097D02*
X62656Y112984D01*
X61853Y112651D01*
X61163Y112122D01*
X60634Y111433D01*
X60302Y110630D01*
X60189Y109769D01*
X60302Y108907D01*
X60634Y108105D01*
X61163Y107415D01*
X61853Y106886D01*
X62656Y106554D01*
X63517Y106440D01*
X64378Y106554D01*
X65181Y106886D01*
X65871Y107415D01*
X66400Y108105D01*
X66732Y108907D01*
X66846Y109769D01*
X66732Y110630D01*
X66400Y111433D01*
X65871Y112122D01*
X65181Y112651D01*
X64378Y112984D01*
X63517Y113097D01*
D02*
G37*
G36*
X154000Y110791D02*
X153226Y110689D01*
X152505Y110390D01*
X151885Y109915D01*
X151410Y109295D01*
X151111Y108574D01*
X151009Y107800D01*
X151111Y107026D01*
X151410Y106305D01*
X151885Y105685D01*
X152505Y105210D01*
X153226Y104911D01*
X154000Y104809D01*
X154774Y104911D01*
X155496Y105210D01*
X156115Y105685D01*
X156590Y106305D01*
X156889Y107026D01*
X156991Y107800D01*
X156889Y108574D01*
X156590Y109295D01*
X156115Y109915D01*
X155496Y110390D01*
X154774Y110689D01*
X154000Y110791D01*
D02*
G37*
G36*
X134000D02*
X133226Y110689D01*
X132504Y110390D01*
X131885Y109915D01*
X131410Y109295D01*
X131111Y108574D01*
X131009Y107800D01*
X131111Y107026D01*
X131410Y106305D01*
X131885Y105685D01*
X132504Y105210D01*
X133226Y104911D01*
X134000Y104809D01*
X134774Y104911D01*
X135495Y105210D01*
X136115Y105685D01*
X136590Y106305D01*
X136889Y107026D01*
X136991Y107800D01*
X136889Y108574D01*
X136590Y109295D01*
X136115Y109915D01*
X135495Y110390D01*
X134774Y110689D01*
X134000Y110791D01*
D02*
G37*
G36*
X144000Y110760D02*
X143226Y110658D01*
X142504Y110359D01*
X141885Y109884D01*
X141410Y109265D01*
X141111Y108543D01*
X141009Y107769D01*
X141111Y106995D01*
X141410Y106273D01*
X141885Y105654D01*
X142504Y105179D01*
X143226Y104880D01*
X144000Y104778D01*
X144774Y104880D01*
X145496Y105179D01*
X146115Y105654D01*
X146590Y106273D01*
X146889Y106995D01*
X146991Y107769D01*
X146889Y108543D01*
X146590Y109265D01*
X146115Y109884D01*
X145496Y110359D01*
X144774Y110658D01*
X144000Y110760D01*
D02*
G37*
G36*
X23519Y102760D02*
X22745Y102658D01*
X22023Y102359D01*
X21404Y101884D01*
X20929Y101264D01*
X20630Y100543D01*
X20528Y99769D01*
X20630Y98995D01*
X20929Y98273D01*
X21404Y97654D01*
X22023Y97179D01*
X22745Y96880D01*
X23519Y96778D01*
X24293Y96880D01*
X25014Y97179D01*
X25634Y97654D01*
X26109Y98273D01*
X26408Y98995D01*
X26510Y99769D01*
X26408Y100543D01*
X26109Y101264D01*
X25634Y101884D01*
X25014Y102359D01*
X24293Y102658D01*
X23519Y102760D01*
D02*
G37*
G36*
X13275D02*
X12501Y102658D01*
X11779Y102359D01*
X11160Y101884D01*
X10685Y101264D01*
X10386Y100543D01*
X10284Y99769D01*
X10386Y98995D01*
X10685Y98273D01*
X11160Y97654D01*
X11779Y97179D01*
X12501Y96880D01*
X13275Y96778D01*
X14049Y96880D01*
X14771Y97179D01*
X15390Y97654D01*
X15865Y98273D01*
X16164Y98995D01*
X16266Y99769D01*
X16164Y100543D01*
X15865Y101264D01*
X15390Y101884D01*
X14771Y102359D01*
X14049Y102658D01*
X13275Y102760D01*
D02*
G37*
G36*
X63574Y102757D02*
X62800Y102655D01*
X62078Y102357D01*
X61459Y101881D01*
X60984Y101262D01*
X60685Y100540D01*
X60583Y99766D01*
X60685Y98992D01*
X60984Y98271D01*
X61459Y97651D01*
X62078Y97176D01*
X62800Y96877D01*
X63574Y96775D01*
X64348Y96877D01*
X65070Y97176D01*
X65689Y97651D01*
X66164Y98271D01*
X66463Y98992D01*
X66565Y99766D01*
X66463Y100540D01*
X66164Y101262D01*
X65689Y101881D01*
X65070Y102357D01*
X64348Y102655D01*
X63574Y102757D01*
D02*
G37*
G36*
X33574D02*
X32800Y102655D01*
X32078Y102357D01*
X31459Y101881D01*
X30984Y101262D01*
X30685Y100540D01*
X30583Y99766D01*
X30685Y98992D01*
X30984Y98271D01*
X31459Y97651D01*
X32078Y97176D01*
X32800Y96877D01*
X33574Y96775D01*
X34348Y96877D01*
X35070Y97176D01*
X35689Y97651D01*
X36164Y98271D01*
X36463Y98992D01*
X36565Y99766D01*
X36463Y100540D01*
X36164Y101262D01*
X35689Y101881D01*
X35070Y102357D01*
X34348Y102655D01*
X33574Y102757D01*
D02*
G37*
G36*
X63500Y92759D02*
X62726Y92657D01*
X62005Y92358D01*
X61385Y91883D01*
X60910Y91264D01*
X60611Y90542D01*
X60509Y89768D01*
X60611Y88994D01*
X60910Y88273D01*
X61385Y87653D01*
X62005Y87178D01*
X62726Y86879D01*
X63500Y86777D01*
X64274Y86879D01*
X64995Y87178D01*
X65615Y87653D01*
X66090Y88273D01*
X66389Y88994D01*
X66491Y89768D01*
X66389Y90542D01*
X66090Y91264D01*
X65615Y91883D01*
X64995Y92358D01*
X64274Y92657D01*
X63500Y92759D01*
D02*
G37*
G36*
X139100Y88748D02*
Y86411D01*
X141437D01*
X141394Y86733D01*
X141116Y87406D01*
X140672Y87984D01*
X140095Y88427D01*
X139422Y88706D01*
X139100Y88748D01*
D02*
G37*
G36*
X138300D02*
X137978Y88706D01*
X137305Y88427D01*
X136728Y87984D01*
X136284Y87406D01*
X136006Y86733D01*
X135963Y86411D01*
X138300D01*
Y88748D01*
D02*
G37*
G36*
X23519Y93158D02*
X22642Y93042D01*
X21825Y92704D01*
X21123Y92166D01*
X20585Y91464D01*
X20246Y90647D01*
X20131Y89770D01*
X20246Y88893D01*
X20585Y88076D01*
X21123Y87374D01*
X21825Y86836D01*
X22642Y86497D01*
X23519Y86382D01*
X24396Y86497D01*
X25213Y86836D01*
X25915Y87374D01*
X26453Y88076D01*
X26792Y88893D01*
X26907Y89770D01*
X26792Y90647D01*
X26453Y91464D01*
X25915Y92166D01*
X25213Y92704D01*
X24396Y93042D01*
X23519Y93158D01*
D02*
G37*
G36*
X13275D02*
X12398Y93042D01*
X11581Y92704D01*
X10879Y92166D01*
X10341Y91464D01*
X10002Y90647D01*
X9887Y89770D01*
X10002Y88893D01*
X10341Y88076D01*
X10879Y87374D01*
X11581Y86836D01*
X12398Y86497D01*
X13275Y86382D01*
X14152Y86497D01*
X14969Y86836D01*
X15671Y87374D01*
X16209Y88076D01*
X16547Y88893D01*
X16663Y89770D01*
X16547Y90647D01*
X16209Y91464D01*
X15671Y92166D01*
X14969Y92704D01*
X14152Y93042D01*
X13275Y93158D01*
D02*
G37*
G36*
X141437Y85611D02*
X139100D01*
Y83275D01*
X139422Y83317D01*
X140095Y83596D01*
X140672Y84039D01*
X141116Y84617D01*
X141394Y85290D01*
X141437Y85611D01*
D02*
G37*
G36*
X138300D02*
X135963D01*
X136006Y85290D01*
X136284Y84617D01*
X136728Y84039D01*
X137305Y83596D01*
X137978Y83317D01*
X138300Y83275D01*
Y85611D01*
D02*
G37*
G36*
X33900Y82506D02*
Y80169D01*
X36237D01*
X36194Y80491D01*
X35916Y81164D01*
X35472Y81741D01*
X34895Y82185D01*
X34222Y82463D01*
X33900Y82506D01*
D02*
G37*
G36*
X33100D02*
X32778Y82463D01*
X32105Y82185D01*
X31528Y81741D01*
X31084Y81164D01*
X30806Y80491D01*
X30763Y80169D01*
X33100D01*
Y82506D01*
D02*
G37*
G36*
X160087Y81119D02*
Y78584D01*
X162621D01*
X162572Y78957D01*
X162274Y79677D01*
X161799Y80296D01*
X161180Y80771D01*
X160460Y81069D01*
X160087Y81119D01*
D02*
G37*
G36*
X159286D02*
X158913Y81069D01*
X158193Y80771D01*
X157574Y80296D01*
X157099Y79677D01*
X156801Y78957D01*
X156752Y78584D01*
X159286D01*
Y81119D01*
D02*
G37*
G36*
X104162Y80241D02*
Y77706D01*
X106697D01*
X106648Y78079D01*
X106349Y78800D01*
X105875Y79418D01*
X105256Y79893D01*
X104535Y80192D01*
X104162Y80241D01*
D02*
G37*
G36*
X103362D02*
X102989Y80192D01*
X102268Y79893D01*
X101649Y79418D01*
X101175Y78800D01*
X100876Y78079D01*
X100827Y77706D01*
X103362D01*
Y80241D01*
D02*
G37*
G36*
X36237Y79369D02*
X33900D01*
Y77032D01*
X34222Y77075D01*
X34895Y77353D01*
X35472Y77797D01*
X35916Y78374D01*
X36194Y79047D01*
X36237Y79369D01*
D02*
G37*
G36*
X33100D02*
X30763D01*
X30806Y79047D01*
X31084Y78374D01*
X31528Y77797D01*
X32105Y77353D01*
X32778Y77075D01*
X33100Y77032D01*
Y79369D01*
D02*
G37*
G36*
X63500Y82760D02*
X62726Y82658D01*
X62005Y82359D01*
X61385Y81884D01*
X60910Y81265D01*
X60611Y80543D01*
X60509Y79769D01*
X60611Y78995D01*
X60910Y78273D01*
X61385Y77654D01*
X62005Y77179D01*
X62726Y76880D01*
X63500Y76778D01*
X64274Y76880D01*
X64995Y77179D01*
X65615Y77654D01*
X66090Y78273D01*
X66389Y78995D01*
X66491Y79769D01*
X66389Y80543D01*
X66090Y81265D01*
X65615Y81884D01*
X64995Y82359D01*
X64274Y82658D01*
X63500Y82760D01*
D02*
G37*
G36*
X162621Y77784D02*
X160087D01*
Y75249D01*
X160460Y75298D01*
X161180Y75596D01*
X161799Y76071D01*
X162274Y76690D01*
X162572Y77410D01*
X162621Y77784D01*
D02*
G37*
G36*
X159286D02*
X156752D01*
X156801Y77410D01*
X157099Y76690D01*
X157574Y76071D01*
X158193Y75596D01*
X158913Y75298D01*
X159286Y75249D01*
Y77784D01*
D02*
G37*
G36*
X141665Y81097D02*
X135734D01*
Y75166D01*
X141665D01*
Y81097D01*
D02*
G37*
G36*
X169686Y81373D02*
X168861Y81264D01*
X168092Y80946D01*
X167431Y80439D01*
X166925Y79778D01*
X166606Y79009D01*
X166497Y78184D01*
X166606Y77358D01*
X166925Y76589D01*
X167431Y75928D01*
X168092Y75422D01*
X168861Y75103D01*
X169686Y74994D01*
X170512Y75103D01*
X171281Y75422D01*
X171942Y75928D01*
X172449Y76589D01*
X172767Y77358D01*
X172876Y78184D01*
X172767Y79009D01*
X172449Y79778D01*
X171942Y80439D01*
X171281Y80946D01*
X170512Y81264D01*
X169686Y81373D01*
D02*
G37*
G36*
X116250Y364122D02*
X114646Y363964D01*
X113104Y363496D01*
X111682Y362736D01*
X110436Y361714D01*
X109414Y360468D01*
X108654Y359046D01*
X108186Y357504D01*
X108028Y355900D01*
X108186Y354296D01*
X108654Y352754D01*
X109414Y351332D01*
X110436Y350086D01*
X111682Y349064D01*
X113104Y348304D01*
X114646Y347836D01*
X116250Y347678D01*
X117854Y347836D01*
X119396Y348304D01*
X120818Y349064D01*
X122064Y350086D01*
X123086Y351332D01*
X123846Y352754D01*
X124033Y353371D01*
X124518Y353493D01*
X127553Y350458D01*
Y298887D01*
X127739Y297951D01*
X128270Y297157D01*
X143440Y281986D01*
Y261556D01*
X142463D01*
Y254444D01*
X143572D01*
Y242332D01*
X143035D01*
Y236401D01*
X143553D01*
Y228585D01*
X143739Y227649D01*
X144270Y226855D01*
X155053Y216072D01*
Y147500D01*
X155239Y146564D01*
X155770Y145770D01*
X161653Y139886D01*
Y99029D01*
X147956Y85333D01*
X147426Y84539D01*
X147239Y83602D01*
Y80189D01*
X146924Y79778D01*
X146606Y79009D01*
X146497Y78184D01*
X146606Y77358D01*
X146924Y76589D01*
X147431Y75928D01*
X148092Y75422D01*
X148861Y75103D01*
X149687Y74994D01*
X150512Y75103D01*
X151281Y75422D01*
X151942Y75928D01*
X152448Y76589D01*
X152767Y77358D01*
X152876Y78184D01*
X152767Y79009D01*
X152448Y79778D01*
X152134Y80189D01*
Y82589D01*
X165830Y96285D01*
X166361Y97079D01*
X166547Y98016D01*
Y140900D01*
X166361Y141836D01*
X165830Y142630D01*
X159947Y148514D01*
Y217085D01*
X159761Y218022D01*
X159230Y218815D01*
X148447Y229599D01*
Y236401D01*
X148966D01*
Y242332D01*
X148466D01*
Y254444D01*
X149575D01*
Y261556D01*
X148335D01*
Y283000D01*
X148148Y283936D01*
X147618Y284730D01*
X132447Y299901D01*
Y351472D01*
X132261Y352408D01*
X131730Y353202D01*
X126202Y358730D01*
X125408Y359261D01*
X124472Y359447D01*
X123632D01*
X123086Y360468D01*
X122064Y361714D01*
X120818Y362736D01*
X119396Y363496D01*
X117854Y363964D01*
X116250Y364122D01*
D02*
G37*
G36*
X106697Y76906D02*
X104162D01*
Y74371D01*
X104535Y74420D01*
X105256Y74719D01*
X105875Y75194D01*
X106349Y75812D01*
X106648Y76533D01*
X106697Y76906D01*
D02*
G37*
G36*
X103362D02*
X100827D01*
X100876Y76533D01*
X101175Y75812D01*
X101649Y75194D01*
X102268Y74719D01*
X102989Y74420D01*
X103362Y74371D01*
Y76906D01*
D02*
G37*
G36*
X93762Y80495D02*
X92936Y80387D01*
X92167Y80068D01*
X91507Y79561D01*
X91000Y78901D01*
X90681Y78132D01*
X90573Y77306D01*
X90681Y76481D01*
X91000Y75711D01*
X91507Y75051D01*
X92167Y74544D01*
X92936Y74225D01*
X93762Y74117D01*
X94587Y74225D01*
X95357Y74544D01*
X96017Y75051D01*
X96524Y75711D01*
X96843Y76481D01*
X96951Y77306D01*
X96843Y78132D01*
X96524Y78901D01*
X96017Y79561D01*
X95357Y80068D01*
X94587Y80387D01*
X93762Y80495D01*
D02*
G37*
G36*
X84000Y242556D02*
X83174Y242447D01*
X82405Y242129D01*
X81744Y241622D01*
X81238Y240961D01*
X80919Y240192D01*
X80810Y239366D01*
X80919Y238541D01*
X81238Y237771D01*
X81744Y237111D01*
X82405Y236604D01*
X82674Y236492D01*
Y231374D01*
X82405Y231262D01*
X81745Y230755D01*
X81238Y230095D01*
X80919Y229326D01*
X80811Y228500D01*
X80919Y227675D01*
X81238Y226905D01*
X81745Y226245D01*
X82405Y225738D01*
X82437Y225725D01*
Y80180D01*
X82167Y80068D01*
X81507Y79561D01*
X81000Y78901D01*
X80681Y78132D01*
X80573Y77306D01*
X80681Y76481D01*
X81000Y75711D01*
X81507Y75051D01*
X82167Y74544D01*
X82937Y74225D01*
X83762Y74117D01*
X84588Y74225D01*
X85357Y74544D01*
X86017Y75051D01*
X86524Y75711D01*
X86843Y76481D01*
X86951Y77306D01*
X86843Y78132D01*
X86524Y78901D01*
X86017Y79561D01*
X85357Y80068D01*
X85088Y80180D01*
Y225528D01*
X85595Y225738D01*
X86255Y226245D01*
X86762Y226905D01*
X87081Y227675D01*
X87189Y228500D01*
X87081Y229326D01*
X86762Y230095D01*
X86255Y230755D01*
X85595Y231262D01*
X85325Y231374D01*
Y236492D01*
X85595Y236604D01*
X86256Y237111D01*
X86762Y237771D01*
X87081Y238541D01*
X87190Y239366D01*
X87081Y240192D01*
X86762Y240961D01*
X86256Y241622D01*
X85595Y242129D01*
X84826Y242447D01*
X84000Y242556D01*
D02*
G37*
G36*
X13675Y72904D02*
Y70170D01*
X16409D01*
X16353Y70595D01*
X16034Y71363D01*
X15528Y72023D01*
X14868Y72529D01*
X14100Y72848D01*
X13675Y72904D01*
D02*
G37*
G36*
X12875D02*
X12450Y72848D01*
X11682Y72529D01*
X11022Y72023D01*
X10516Y71363D01*
X10197Y70595D01*
X10141Y70170D01*
X12875D01*
Y72904D01*
D02*
G37*
G36*
X16409Y69370D02*
X13675D01*
Y66636D01*
X14100Y66692D01*
X14868Y67011D01*
X15528Y67517D01*
X16034Y68177D01*
X16353Y68945D01*
X16409Y69370D01*
D02*
G37*
G36*
X12875D02*
X10141D01*
X10197Y68945D01*
X10516Y68177D01*
X11022Y67517D01*
X11682Y67011D01*
X12450Y66692D01*
X12875Y66636D01*
Y69370D01*
D02*
G37*
G36*
X23519Y73158D02*
X22642Y73043D01*
X21825Y72704D01*
X21123Y72166D01*
X20585Y71464D01*
X20246Y70647D01*
X20131Y69770D01*
X20246Y68893D01*
X20585Y68076D01*
X21123Y67374D01*
X21825Y66836D01*
X22642Y66497D01*
X23519Y66382D01*
X24396Y66497D01*
X25213Y66836D01*
X25915Y67374D01*
X26453Y68076D01*
X26792Y68893D01*
X26907Y69770D01*
X26792Y70647D01*
X26453Y71464D01*
X25915Y72166D01*
X25213Y72704D01*
X24396Y73043D01*
X23519Y73158D01*
D02*
G37*
G36*
X53900Y67045D02*
Y64510D01*
X56435D01*
X56386Y64883D01*
X56087Y65604D01*
X55612Y66222D01*
X54994Y66697D01*
X54273Y66996D01*
X53900Y67045D01*
D02*
G37*
G36*
X53100D02*
X52727Y66996D01*
X52006Y66697D01*
X51388Y66222D01*
X50913Y65604D01*
X50614Y64883D01*
X50565Y64510D01*
X53100D01*
Y67045D01*
D02*
G37*
G36*
X56435Y63710D02*
X53900D01*
Y61175D01*
X54273Y61224D01*
X54994Y61523D01*
X55612Y61997D01*
X56087Y62616D01*
X56386Y63337D01*
X56435Y63710D01*
D02*
G37*
G36*
X53100D02*
X50565D01*
X50614Y63337D01*
X50913Y62616D01*
X51388Y61997D01*
X52006Y61523D01*
X52727Y61224D01*
X53100Y61175D01*
Y63710D01*
D02*
G37*
G36*
X66662Y67272D02*
X60338D01*
Y60948D01*
X66662D01*
Y67272D01*
D02*
G37*
G36*
X98500Y65797D02*
X97726Y65695D01*
X97004Y65396D01*
X96385Y64921D01*
X95910Y64302D01*
X95611Y63580D01*
X95509Y62806D01*
X95611Y62032D01*
X95910Y61310D01*
X96385Y60691D01*
X97004Y60216D01*
X97726Y59917D01*
X98500Y59815D01*
X99274Y59917D01*
X99996Y60216D01*
X100615Y60691D01*
X101090Y61310D01*
X101389Y62032D01*
X101491Y62806D01*
X101389Y63580D01*
X101090Y64302D01*
X100615Y64921D01*
X99996Y65396D01*
X99274Y65695D01*
X98500Y65797D01*
D02*
G37*
G36*
X88500Y65791D02*
X87726Y65689D01*
X87005Y65390D01*
X86385Y64915D01*
X85910Y64296D01*
X85611Y63574D01*
X85509Y62800D01*
X85611Y62026D01*
X85910Y61304D01*
X86385Y60685D01*
X87005Y60210D01*
X87726Y59911D01*
X88500Y59809D01*
X89274Y59911D01*
X89995Y60210D01*
X90615Y60685D01*
X91090Y61304D01*
X91389Y62026D01*
X91491Y62800D01*
X91389Y63574D01*
X91090Y64296D01*
X90615Y64915D01*
X89995Y65390D01*
X89274Y65689D01*
X88500Y65791D01*
D02*
G37*
G36*
X165928Y65652D02*
X159996D01*
Y59720D01*
X165928D01*
Y65652D01*
D02*
G37*
G36*
X138462Y66135D02*
X137601Y66021D01*
X136798Y65689D01*
X136108Y65160D01*
X135579Y64470D01*
X135247Y63668D01*
X135134Y62806D01*
X135247Y61945D01*
X135579Y61142D01*
X136108Y60452D01*
X136798Y59923D01*
X137601Y59591D01*
X138462Y59478D01*
X139323Y59591D01*
X140126Y59923D01*
X140816Y60452D01*
X141345Y61142D01*
X141677Y61945D01*
X141790Y62806D01*
X141677Y63668D01*
X141345Y64470D01*
X140816Y65160D01*
X140126Y65689D01*
X139323Y66021D01*
X138462Y66135D01*
D02*
G37*
G36*
X108462D02*
X107600Y66021D01*
X106798Y65689D01*
X106108Y65160D01*
X105579Y64470D01*
X105247Y63668D01*
X105133Y62806D01*
X105247Y61945D01*
X105579Y61142D01*
X106108Y60452D01*
X106798Y59923D01*
X107600Y59591D01*
X108462Y59478D01*
X109324Y59591D01*
X110126Y59923D01*
X110816Y60452D01*
X111345Y61142D01*
X111677Y61945D01*
X111791Y62806D01*
X111677Y63668D01*
X111345Y64470D01*
X110816Y65160D01*
X110126Y65689D01*
X109324Y66021D01*
X108462Y66135D01*
D02*
G37*
G36*
X148462Y66194D02*
X147585Y66079D01*
X146768Y65740D01*
X146066Y65202D01*
X145528Y64500D01*
X145189Y63683D01*
X145074Y62806D01*
X145189Y61929D01*
X145528Y61112D01*
X146066Y60410D01*
X146768Y59872D01*
X147585Y59534D01*
X148462Y59418D01*
X149339Y59534D01*
X150156Y59872D01*
X150858Y60410D01*
X151396Y61112D01*
X151734Y61929D01*
X151850Y62806D01*
X151734Y63683D01*
X151396Y64500D01*
X150858Y65202D01*
X150156Y65740D01*
X149339Y66079D01*
X148462Y66194D01*
D02*
G37*
G36*
X163362Y57543D02*
Y55206D01*
X165699D01*
X165656Y55528D01*
X165378Y56201D01*
X164934Y56778D01*
X164357Y57222D01*
X163684Y57500D01*
X163362Y57543D01*
D02*
G37*
G36*
X162562D02*
X162240Y57500D01*
X161567Y57222D01*
X160990Y56778D01*
X160546Y56201D01*
X160268Y55528D01*
X160225Y55206D01*
X162562D01*
Y57543D01*
D02*
G37*
G36*
X165699Y54406D02*
X163362D01*
Y52069D01*
X163684Y52112D01*
X164357Y52390D01*
X164934Y52834D01*
X165378Y53411D01*
X165656Y54084D01*
X165699Y54406D01*
D02*
G37*
G36*
X162562D02*
X160225D01*
X160268Y54084D01*
X160546Y53411D01*
X160990Y52834D01*
X161567Y52390D01*
X162240Y52112D01*
X162562Y52069D01*
Y54406D01*
D02*
G37*
G36*
X115000Y262828D02*
X114138Y262715D01*
X113336Y262383D01*
X112646Y261854D01*
X112118Y261164D01*
X111785Y260362D01*
X111671Y259500D01*
X111785Y258639D01*
X112118Y257836D01*
X112646Y257146D01*
X113053Y256835D01*
X113122Y256196D01*
X109651Y252726D01*
X101625D01*
X101117Y252625D01*
X100687Y252337D01*
X94463Y246113D01*
X94175Y245683D01*
X94074Y245175D01*
Y227949D01*
X86863Y220737D01*
X86575Y220307D01*
X86475Y219800D01*
Y103468D01*
X86575Y102961D01*
X86863Y102531D01*
X135387Y54006D01*
X135247Y53667D01*
X135134Y52806D01*
X135247Y51945D01*
X135579Y51142D01*
X136108Y50452D01*
X136798Y49924D01*
X137601Y49591D01*
X138462Y49477D01*
X139323Y49591D01*
X140126Y49924D01*
X140816Y50452D01*
X141345Y51142D01*
X141677Y51945D01*
X141790Y52806D01*
X141677Y53667D01*
X141345Y54470D01*
X140816Y55160D01*
X140126Y55689D01*
X139323Y56021D01*
X138462Y56134D01*
X137601Y56021D01*
X137262Y55881D01*
X89126Y104017D01*
Y219251D01*
X96437Y226563D01*
X96725Y226993D01*
X96825Y227500D01*
X96725Y228003D01*
Y244626D01*
X102174Y250075D01*
X110200D01*
X110707Y250175D01*
X111137Y250463D01*
X115937Y255263D01*
X116225Y255693D01*
X116325Y256200D01*
X116325Y256200D01*
Y256477D01*
X116664Y256617D01*
X117354Y257146D01*
X117883Y257836D01*
X118215Y258639D01*
X118328Y259500D01*
X118215Y260362D01*
X117883Y261164D01*
X117354Y261854D01*
X116664Y262383D01*
X115861Y262715D01*
X115000Y262828D01*
D02*
G37*
G36*
X108462Y56134D02*
X107600Y56021D01*
X106798Y55689D01*
X106108Y55160D01*
X105579Y54470D01*
X105247Y53667D01*
X105133Y52806D01*
X105247Y51945D01*
X105579Y51142D01*
X106108Y50452D01*
X106798Y49924D01*
X107600Y49591D01*
X108462Y49477D01*
X109324Y49591D01*
X110126Y49924D01*
X110816Y50452D01*
X111345Y51142D01*
X111677Y51945D01*
X111791Y52806D01*
X111677Y53667D01*
X111345Y54470D01*
X110816Y55160D01*
X110126Y55689D01*
X109324Y56021D01*
X108462Y56134D01*
D02*
G37*
G36*
X148862Y45940D02*
Y43206D01*
X151596D01*
X151540Y43631D01*
X151221Y44399D01*
X150715Y45059D01*
X150055Y45565D01*
X149287Y45884D01*
X148862Y45940D01*
D02*
G37*
G36*
X148062D02*
X147637Y45884D01*
X146869Y45565D01*
X146209Y45059D01*
X145703Y44399D01*
X145384Y43631D01*
X145328Y43206D01*
X148062D01*
Y45940D01*
D02*
G37*
G36*
X151596Y42406D02*
X148862D01*
Y39672D01*
X149287Y39728D01*
X150055Y40047D01*
X150715Y40553D01*
X151221Y41213D01*
X151540Y41981D01*
X151596Y42406D01*
D02*
G37*
G36*
X148062D02*
X145328D01*
X145384Y41981D01*
X145703Y41213D01*
X146209Y40553D01*
X146869Y40047D01*
X147637Y39728D01*
X148062Y39672D01*
Y42406D01*
D02*
G37*
G36*
X138462Y46134D02*
X137601Y46021D01*
X136798Y45689D01*
X136108Y45160D01*
X135579Y44470D01*
X135247Y43668D01*
X135134Y42806D01*
X135247Y41945D01*
X135579Y41142D01*
X136108Y40452D01*
X136798Y39924D01*
X137601Y39591D01*
X138462Y39478D01*
X139323Y39591D01*
X140126Y39924D01*
X140816Y40452D01*
X141345Y41142D01*
X141677Y41945D01*
X141790Y42806D01*
X141677Y43668D01*
X141345Y44470D01*
X140816Y45160D01*
X140126Y45689D01*
X139323Y46021D01*
X138462Y46134D01*
D02*
G37*
G36*
X108462D02*
X107600Y46021D01*
X106798Y45689D01*
X106108Y45160D01*
X105579Y44470D01*
X105247Y43668D01*
X105133Y42806D01*
X105247Y41945D01*
X105579Y41142D01*
X106108Y40452D01*
X106798Y39924D01*
X107600Y39591D01*
X108462Y39478D01*
X109324Y39591D01*
X110126Y39924D01*
X110816Y40452D01*
X111345Y41142D01*
X111677Y41945D01*
X111791Y42806D01*
X111677Y43668D01*
X111345Y44470D01*
X110816Y45160D01*
X110126Y45689D01*
X109324Y46021D01*
X108462Y46134D01*
D02*
G37*
G36*
X108862Y35880D02*
Y33206D01*
X111536D01*
X111482Y33615D01*
X111170Y34369D01*
X110673Y35017D01*
X110025Y35514D01*
X109271Y35826D01*
X108862Y35880D01*
D02*
G37*
G36*
X108062D02*
X107653Y35826D01*
X106899Y35514D01*
X106251Y35017D01*
X105754Y34369D01*
X105442Y33615D01*
X105388Y33206D01*
X108062D01*
Y35880D01*
D02*
G37*
G36*
X98500Y35797D02*
X97726Y35695D01*
X97004Y35396D01*
X96385Y34921D01*
X95910Y34301D01*
X95611Y33580D01*
X95509Y32806D01*
X95611Y32032D01*
X95910Y31310D01*
X96385Y30691D01*
X97004Y30216D01*
X97726Y29917D01*
X98500Y29815D01*
X99274Y29917D01*
X99996Y30216D01*
X100615Y30691D01*
X101090Y31310D01*
X101389Y32032D01*
X101491Y32806D01*
X101389Y33580D01*
X101090Y34301D01*
X100615Y34921D01*
X99996Y35396D01*
X99274Y35695D01*
X98500Y35797D01*
D02*
G37*
G36*
X88500Y35791D02*
X87726Y35689D01*
X87005Y35390D01*
X86385Y34915D01*
X85910Y34295D01*
X85611Y33574D01*
X85509Y32800D01*
X85611Y32026D01*
X85910Y31304D01*
X86385Y30685D01*
X87005Y30210D01*
X87726Y29911D01*
X88500Y29809D01*
X89274Y29911D01*
X89995Y30210D01*
X90615Y30685D01*
X91090Y31304D01*
X91389Y32026D01*
X91491Y32800D01*
X91389Y33574D01*
X91090Y34295D01*
X90615Y34915D01*
X89995Y35390D01*
X89274Y35689D01*
X88500Y35791D01*
D02*
G37*
G36*
X111536Y32406D02*
X108862D01*
Y29732D01*
X109271Y29786D01*
X110025Y30098D01*
X110673Y30595D01*
X111170Y31243D01*
X111482Y31997D01*
X111536Y32406D01*
D02*
G37*
G36*
X108062D02*
X105388D01*
X105442Y31997D01*
X105754Y31243D01*
X106251Y30595D01*
X106899Y30098D01*
X107653Y29786D01*
X108062Y29732D01*
Y32406D01*
D02*
G37*
G36*
X74762Y35962D02*
X68438D01*
Y29638D01*
X74762D01*
Y35962D01*
D02*
G37*
G36*
X138462Y36134D02*
X137601Y36021D01*
X136798Y35689D01*
X136108Y35160D01*
X135579Y34470D01*
X135247Y33667D01*
X135134Y32806D01*
X135247Y31945D01*
X135579Y31142D01*
X136108Y30452D01*
X136798Y29923D01*
X137601Y29591D01*
X138462Y29478D01*
X139323Y29591D01*
X140126Y29923D01*
X140816Y30452D01*
X141345Y31142D01*
X141677Y31945D01*
X141790Y32806D01*
X141677Y33667D01*
X141345Y34470D01*
X140816Y35160D01*
X140126Y35689D01*
X139323Y36021D01*
X138462Y36134D01*
D02*
G37*
G36*
X71600Y25989D02*
X70775Y25881D01*
X70005Y25562D01*
X69345Y25055D01*
X68838Y24395D01*
X68519Y23626D01*
X68411Y22800D01*
X68519Y21974D01*
X68838Y21205D01*
X69345Y20545D01*
X70005Y20038D01*
X70775Y19719D01*
X71600Y19611D01*
X72426Y19719D01*
X73195Y20038D01*
X73855Y20545D01*
X74362Y21205D01*
X74681Y21974D01*
X74789Y22800D01*
X74681Y23626D01*
X74362Y24395D01*
X73855Y25055D01*
X73195Y25562D01*
X72426Y25881D01*
X71600Y25989D01*
D02*
G37*
G36*
X163847Y22635D02*
X162777Y22494D01*
X161779Y22081D01*
X160923Y21424D01*
X160266Y20568D01*
X159853Y19570D01*
X159712Y18500D01*
X159853Y17430D01*
X160266Y16432D01*
X160923Y15576D01*
X161779Y14919D01*
X162777Y14505D01*
X163847Y14365D01*
X164917Y14505D01*
X165915Y14919D01*
X166771Y15576D01*
X167428Y16432D01*
X167841Y17430D01*
X167982Y18500D01*
X167841Y19570D01*
X167428Y20568D01*
X166771Y21424D01*
X165915Y22081D01*
X164917Y22494D01*
X163847Y22635D01*
D02*
G37*
G36*
X140652Y15178D02*
Y12000D01*
X143830D01*
X143759Y12540D01*
X143396Y13416D01*
X142819Y14167D01*
X142067Y14745D01*
X141192Y15107D01*
X140652Y15178D01*
D02*
G37*
G36*
X139852D02*
X139312Y15107D01*
X138436Y14745D01*
X137684Y14167D01*
X137107Y13416D01*
X136744Y12540D01*
X136673Y12000D01*
X139852D01*
Y15178D01*
D02*
G37*
G36*
X108900D02*
Y12000D01*
X112078D01*
X112007Y12540D01*
X111645Y13416D01*
X111068Y14167D01*
X110316Y14745D01*
X109440Y15107D01*
X108900Y15178D01*
D02*
G37*
G36*
X108100D02*
X107560Y15107D01*
X106685Y14745D01*
X105932Y14167D01*
X105355Y13416D01*
X104993Y12540D01*
X104922Y12000D01*
X108100D01*
Y15178D01*
D02*
G37*
G36*
X71600Y15989D02*
X70775Y15881D01*
X70005Y15562D01*
X69345Y15055D01*
X68838Y14395D01*
X68519Y13625D01*
X68411Y12800D01*
X68519Y11975D01*
X68838Y11205D01*
X69345Y10545D01*
X70005Y10038D01*
X70775Y9719D01*
X71600Y9611D01*
X72426Y9719D01*
X73195Y10038D01*
X73855Y10545D01*
X74362Y11205D01*
X74681Y11975D01*
X74789Y12800D01*
X74681Y13625D01*
X74362Y14395D01*
X73855Y15055D01*
X73195Y15562D01*
X72426Y15881D01*
X71600Y15989D01*
D02*
G37*
G36*
X167747Y12400D02*
X164247D01*
Y8900D01*
X167747D01*
Y12400D01*
D02*
G37*
G36*
X163447D02*
X159947D01*
Y8900D01*
X163447D01*
Y12400D01*
D02*
G37*
G36*
X139852Y11200D02*
X136673D01*
X136744Y10660D01*
X137107Y9785D01*
X137684Y9032D01*
X138436Y8455D01*
X139312Y8093D01*
X139852Y8022D01*
Y11200D01*
D02*
G37*
G36*
X112078Y11200D02*
X108900D01*
Y8022D01*
X109440Y8093D01*
X110316Y8455D01*
X111068Y9032D01*
X111645Y9785D01*
X112007Y10660D01*
X112078Y11200D01*
D02*
G37*
G36*
X108100D02*
X104922D01*
X104993Y10660D01*
X105355Y9785D01*
X105932Y9032D01*
X106685Y8455D01*
X107560Y8093D01*
X108100Y8022D01*
Y11200D01*
D02*
G37*
G36*
X143830Y11200D02*
X140652D01*
Y8022D01*
X141192Y8093D01*
X142067Y8455D01*
X142819Y9032D01*
X143396Y9785D01*
X143759Y10660D01*
X143830Y11200D01*
D02*
G37*
G36*
X130252Y15433D02*
X129260Y15302D01*
X128335Y14919D01*
X127542Y14310D01*
X126933Y13516D01*
X126550Y12592D01*
X126419Y11600D01*
X126550Y10608D01*
X126933Y9684D01*
X127542Y8890D01*
X128335Y8281D01*
X129260Y7898D01*
X130252Y7767D01*
X131244Y7898D01*
X132168Y8281D01*
X132962Y8890D01*
X133571Y9684D01*
X133954Y10608D01*
X134085Y11600D01*
X133954Y12592D01*
X133571Y13516D01*
X132962Y14310D01*
X132168Y14919D01*
X131244Y15302D01*
X130252Y15433D01*
D02*
G37*
G36*
X98500D02*
X97508Y15302D01*
X96584Y14919D01*
X95790Y14310D01*
X95181Y13516D01*
X94798Y12592D01*
X94667Y11600D01*
X94798Y10608D01*
X95181Y9684D01*
X95790Y8890D01*
X96584Y8281D01*
X97508Y7898D01*
X98500Y7767D01*
X99492Y7898D01*
X100416Y8281D01*
X101210Y8890D01*
X101819Y9684D01*
X102202Y10608D01*
X102333Y11600D01*
X102202Y12592D01*
X101819Y13516D01*
X101210Y14310D01*
X100416Y14919D01*
X99492Y15302D01*
X98500Y15433D01*
D02*
G37*
G36*
X167747Y8100D02*
X164247D01*
Y4600D01*
X167747D01*
Y8100D01*
D02*
G37*
G36*
X163447D02*
X159947D01*
Y4600D01*
X163447D01*
Y8100D01*
D02*
G37*
%LPD*%
D11*
X115000Y256200D02*
Y259500D01*
X110200Y251400D02*
X115000Y256200D01*
X101625Y251400D02*
X110200D01*
X95400Y245175D02*
X101625Y251400D01*
X185917Y180920D02*
Y184545D01*
X169000Y201462D02*
X185917Y184545D01*
X13275Y159813D02*
Y239275D01*
X95400Y227600D02*
Y245175D01*
X13275Y239275D02*
X43500Y269500D01*
X87800Y103468D02*
Y219800D01*
Y103468D02*
X138462Y52806D01*
X83762Y228262D02*
X84000Y228500D01*
X83762Y77306D02*
Y228262D01*
X95400Y227600D02*
X95500Y227500D01*
X87800Y219800D02*
X95500Y227500D01*
X84000Y228500D02*
Y239366D01*
X138731Y132500D02*
X144000Y137769D01*
X118700Y132500D02*
X138731D01*
X104000Y269366D02*
X115000Y280366D01*
Y289500D01*
X29102Y315000D02*
X34079D01*
X79712Y269366D01*
X84000D01*
D41*
X116250Y357000D02*
X124472D01*
X164100Y98016D02*
Y140900D01*
X149687Y83602D02*
X164100Y98016D01*
X149687Y78184D02*
Y83602D01*
X157500Y147500D02*
X164100Y140900D01*
X157500Y147500D02*
Y217085D01*
X146000Y228585D02*
X157500Y217085D01*
X146000Y228585D02*
Y239366D01*
X146019Y239385D01*
Y258000D01*
X124472Y357000D02*
X130000Y351472D01*
Y298887D02*
Y351472D01*
Y298887D02*
X145887Y283000D01*
Y258132D02*
Y283000D01*
Y258132D02*
X146019Y258000D01*
X47500Y131774D02*
X55495Y139769D01*
X63517D01*
X47500Y97176D02*
Y131774D01*
X40092Y89768D02*
X47500Y97176D01*
X33500Y89768D02*
X40092D01*
D42*
X71600Y32800D02*
D03*
X104000Y228500D02*
D03*
X143125Y197406D02*
D03*
X63500Y64110D02*
D03*
D43*
X71600Y22800D02*
D03*
Y12800D02*
D03*
X114000Y228500D02*
D03*
X124000D02*
D03*
X134000D02*
D03*
X118700Y122500D02*
D03*
X103762Y77306D02*
D03*
X93762D02*
D03*
X83762D02*
D03*
X84000Y228500D02*
D03*
X143125Y187406D02*
D03*
Y177406D02*
D03*
X194915Y160920D02*
D03*
X149687Y78184D02*
D03*
X159687D02*
D03*
X169686D02*
D03*
X53500Y64110D02*
D03*
X204189Y181077D02*
D03*
X167519Y180800D02*
D03*
X185917Y180920D02*
D03*
X176788Y160820D02*
D03*
X213576Y161077D02*
D03*
D44*
X88500Y62800D02*
D03*
Y32800D02*
D03*
X138700Y86011D02*
D03*
X63483Y190720D02*
D03*
X33483D02*
D03*
X98500Y32806D02*
D03*
Y62806D02*
D03*
X33500Y79769D02*
D03*
X63500D02*
D03*
X33500Y89768D02*
D03*
X63500D02*
D03*
X162962Y54806D02*
D03*
X134000Y137800D02*
D03*
Y107800D02*
D03*
X63574Y99766D02*
D03*
X33574D02*
D03*
X156000Y239366D02*
D03*
X94238Y182352D02*
D03*
X23519Y129769D02*
D03*
Y99769D02*
D03*
X13275Y129769D02*
D03*
Y99769D02*
D03*
X154000Y107800D02*
D03*
Y137800D02*
D03*
X127854Y202386D02*
D03*
Y172386D02*
D03*
X144000Y137769D02*
D03*
Y107769D02*
D03*
X23519Y169770D02*
D03*
Y139770D02*
D03*
X33500Y160740D02*
D03*
X63500D02*
D03*
Y180720D02*
D03*
X33500D02*
D03*
X112238Y202405D02*
D03*
Y172405D02*
D03*
D45*
X138700Y78132D02*
D03*
X162962Y62686D02*
D03*
X94238Y172352D02*
D03*
D46*
X114032Y243800D02*
D03*
X134032D02*
D03*
X102000Y112503D02*
D03*
Y132503D02*
D03*
X13275Y159813D02*
D03*
Y139813D02*
D03*
X148462Y42806D02*
D03*
Y62806D02*
D03*
X73520Y139769D02*
D03*
Y119769D02*
D03*
X13275Y69770D02*
D03*
Y89770D02*
D03*
X23519Y69770D02*
D03*
Y89770D02*
D03*
X147826Y212351D02*
D03*
X127825D02*
D03*
Y162406D02*
D03*
X147826D02*
D03*
X58500Y170722D02*
D03*
X38500D02*
D03*
X58499Y150630D02*
D03*
X38499D02*
D03*
D47*
X115000Y289500D02*
D03*
X125000D02*
D03*
Y259500D02*
D03*
X115000D02*
D03*
X138462Y32806D02*
D03*
Y42806D02*
D03*
Y62806D02*
D03*
Y52806D02*
D03*
X108462Y32806D02*
D03*
Y42806D02*
D03*
Y52806D02*
D03*
Y62806D02*
D03*
X33517Y139769D02*
D03*
Y129769D02*
D03*
Y119769D02*
D03*
Y109769D02*
D03*
X63517Y129769D02*
D03*
Y139769D02*
D03*
Y119769D02*
D03*
Y109769D02*
D03*
D48*
X209000Y269500D02*
D03*
X136500Y150000D02*
D03*
X63500Y269500D02*
D03*
D49*
X189000D02*
D03*
X169000D02*
D03*
X116500Y150000D02*
D03*
X96500D02*
D03*
X43500Y269500D02*
D03*
X23500D02*
D03*
D50*
Y211500D02*
D03*
X43500D02*
D03*
D51*
X63500D02*
D03*
D52*
X116250Y355900D02*
D03*
Y332278D02*
D03*
D53*
X118700Y132500D02*
D03*
X194915Y180920D02*
D03*
X204189Y161077D02*
D03*
X167519Y160800D02*
D03*
X185917Y160920D02*
D03*
X176788Y180820D02*
D03*
X213576Y181077D02*
D03*
D54*
X163847Y18500D02*
D03*
D55*
Y8500D02*
D03*
D56*
X130252Y11600D02*
D03*
X140252D02*
D03*
X98500D02*
D03*
X108500D02*
D03*
D57*
X138911Y341100D02*
D03*
X202809D02*
D03*
X138911Y366100D02*
D03*
X202809D02*
D03*
X138911Y316100D02*
D03*
X202809D02*
D03*
X29692Y341100D02*
D03*
X93590D02*
D03*
X29692Y366100D02*
D03*
X93590D02*
D03*
X29692Y316100D02*
D03*
X93590D02*
D03*
D58*
X84000Y239366D02*
D03*
Y259366D02*
D03*
Y269366D02*
D03*
Y279366D02*
D03*
X104000D02*
D03*
Y269366D02*
D03*
Y259366D02*
D03*
Y239366D02*
D03*
D59*
X169000Y221462D02*
D03*
D60*
X189000D02*
D03*
X209000D02*
D03*
X169000Y201462D02*
D03*
X189000D02*
D03*
X209000D02*
D03*
D61*
X146000Y239366D02*
D03*
D62*
X146019Y258000D02*
D03*
D63*
X174019D02*
D03*
D64*
X109000Y223100D02*
D03*
X139900Y213800D02*
D03*
X120200D02*
D03*
X102877Y48400D02*
D03*
X102900Y57900D02*
D03*
X78850Y29000D02*
D03*
X164000Y211300D02*
D03*
X54500Y156400D02*
D03*
X171400Y186400D02*
D03*
X159400Y136200D02*
D03*
X95533Y250738D02*
D03*
X101133Y245564D02*
D03*
X165144Y147200D02*
D03*
X78700Y234200D02*
D03*
X92200Y204000D02*
D03*
X78850Y179000D02*
D03*
X148600Y103200D02*
D03*
X125600Y109230D02*
D03*
X189600Y171100D02*
D03*
Y186500D02*
D03*
X199800Y203900D02*
D03*
X68400Y185600D02*
D03*
X28000Y179000D02*
D03*
X18400D02*
D03*
X39600Y96800D02*
D03*
X18200Y94700D02*
D03*
X41800Y115775D02*
D03*
X21900Y121675D02*
D03*
X18100Y134800D02*
D03*
X28000Y135000D02*
D03*
X46000Y139900D02*
D03*
X53100Y123700D02*
D03*
X89567Y92700D02*
D03*
X79800Y120500D02*
D03*
X91800D02*
D03*
Y134200D02*
D03*
X68500Y134300D02*
D03*
Y144800D02*
D03*
X74700Y162200D02*
D03*
X91800Y165700D02*
D03*
X107037Y128000D02*
D03*
Y137800D02*
D03*
X127100D02*
D03*
X154657Y143500D02*
D03*
X150300Y153717D02*
D03*
Y169567D02*
D03*
X165264Y170000D02*
D03*
X152200Y187000D02*
D03*
X162432Y194600D02*
D03*
X152200Y202700D02*
D03*
X140870Y229000D02*
D03*
X3850Y4000D02*
D03*
X228850Y104000D02*
D03*
X203850Y304000D02*
D03*
Y354000D02*
D03*
X128850Y79000D02*
D03*
X228850D02*
D03*
Y329000D02*
D03*
X153850Y254000D02*
D03*
X28850Y379000D02*
D03*
X103850Y354000D02*
D03*
X53850Y4000D02*
D03*
X128850Y54000D02*
D03*
X3850Y279000D02*
D03*
X78850Y304000D02*
D03*
X178850D02*
D03*
X3850Y79000D02*
D03*
X228850Y154000D02*
D03*
X203850D02*
D03*
X228850Y4000D02*
D03*
X128850Y154000D02*
D03*
X178850Y79000D02*
D03*
X3850Y204000D02*
D03*
Y179000D02*
D03*
X78850Y4000D02*
D03*
X178850Y329000D02*
D03*
X3850Y104000D02*
D03*
X53850Y304000D02*
D03*
X203850Y29000D02*
D03*
X178850Y54000D02*
D03*
X228850Y129000D02*
D03*
X53850Y104000D02*
D03*
X128850Y254000D02*
D03*
X53850Y79000D02*
D03*
X3850Y29000D02*
D03*
X228850Y254000D02*
D03*
X78850Y379000D02*
D03*
Y354000D02*
D03*
X3850Y254000D02*
D03*
Y329000D02*
D03*
Y354000D02*
D03*
X103850Y379000D02*
D03*
X128850Y4000D02*
D03*
X28850Y54000D02*
D03*
X103850Y304000D02*
D03*
X3850D02*
D03*
X128850Y379000D02*
D03*
X203850Y4000D02*
D03*
X53850Y254000D02*
D03*
X203850Y54000D02*
D03*
X28850Y229000D02*
D03*
X228850Y54000D02*
D03*
X78850D02*
D03*
X153850D02*
D03*
Y4000D02*
D03*
X228850Y304000D02*
D03*
Y354000D02*
D03*
X153850D02*
D03*
Y329000D02*
D03*
X53850Y204000D02*
D03*
Y229000D02*
D03*
X78850Y254000D02*
D03*
X53850Y54000D02*
D03*
X178850Y129000D02*
D03*
X203850Y229000D02*
D03*
X53850Y329000D02*
D03*
X228850Y179000D02*
D03*
X203850Y329000D02*
D03*
X103850Y104000D02*
D03*
X178850Y379000D02*
D03*
X153850Y229000D02*
D03*
Y304000D02*
D03*
X28850Y29000D02*
D03*
X203850Y129000D02*
D03*
X178850Y204000D02*
D03*
Y29000D02*
D03*
X28850Y354000D02*
D03*
X78850Y104000D02*
D03*
X3850Y129000D02*
D03*
X103850Y29000D02*
D03*
X178850Y104000D02*
D03*
X53850Y179000D02*
D03*
X3850Y229000D02*
D03*
X53850Y379000D02*
D03*
X78850Y204000D02*
D03*
X28850Y4000D02*
D03*
X228850Y229000D02*
D03*
X178850Y154000D02*
D03*
X28850Y329000D02*
D03*
X53850Y354000D02*
D03*
X103850Y179000D02*
D03*
X3850Y154000D02*
D03*
X203850Y254000D02*
D03*
X28850Y204000D02*
D03*
X103850Y154000D02*
D03*
X228850Y29000D02*
D03*
X178850Y354000D02*
D03*
X203850Y379000D02*
D03*
X228850Y204000D02*
D03*
X178850Y229000D02*
D03*
X28850Y304000D02*
D03*
X153850Y379000D02*
D03*
X28850Y154000D02*
D03*
X203850Y279000D02*
D03*
X53850D02*
D03*
X28850D02*
D03*
X128850Y179000D02*
D03*
Y129000D02*
D03*
X78850Y329000D02*
D03*
X178850Y4000D02*
D03*
X228850Y279000D02*
D03*
X203850Y79000D02*
D03*
X103850Y4000D02*
D03*
X3850Y54000D02*
D03*
X153850Y129000D02*
D03*
X53850Y29000D02*
D03*
X203850Y104000D02*
D03*
X103850Y329000D02*
D03*
X140400Y274043D02*
D03*
X154300D02*
D03*
X176768D02*
D03*
X89700Y234200D02*
D03*
X94000Y279000D02*
D03*
M02*
