G04*
G04 #@! TF.GenerationSoftware,Altium Limited,Altium Designer,19.1.6 (110)*
G04*
G04 Layer_Color=65535*
%FSLAX25Y25*%
%MOIN*%
G70*
G01*
G75*
%ADD32C,0.01000*%
%ADD47C,0.00600*%
%ADD48C,0.00394*%
%ADD49C,0.00500*%
%ADD50C,0.00787*%
%ADD51C,0.00591*%
%ADD52C,0.00591*%
%ADD53C,0.00787*%
%ADD54R,0.02000X0.08000*%
%ADD55R,0.08000X0.02000*%
%ADD56R,0.11417X0.02118*%
%ADD57R,0.02067X0.05315*%
G36*
X339356Y96557D02*
X339509D01*
Y96405D01*
X340120D01*
Y96252D01*
Y96099D01*
X340272D01*
Y95946D01*
X340120D01*
Y95794D01*
X340272D01*
Y95641D01*
X340120D01*
Y95488D01*
X340272D01*
Y95335D01*
X340120D01*
Y95183D01*
X339967D01*
Y95030D01*
X340120D01*
Y94877D01*
X340272D01*
Y94724D01*
X340425D01*
Y94572D01*
X340883D01*
Y94419D01*
X341036D01*
Y94266D01*
X341189D01*
Y94113D01*
X341342D01*
Y93960D01*
X341494D01*
Y93808D01*
X341647D01*
Y93655D01*
X341953D01*
Y93502D01*
X342564D01*
Y93349D01*
X342716D01*
Y93197D01*
X342564D01*
Y93044D01*
X342716D01*
Y92891D01*
Y92738D01*
Y92586D01*
Y92433D01*
Y92280D01*
X342564D01*
Y92127D01*
X342411D01*
Y91975D01*
X342258D01*
Y91822D01*
X342105D01*
Y91669D01*
X341953D01*
Y91822D01*
X341800D01*
Y91975D01*
X341342D01*
Y92127D01*
X341189D01*
Y92280D01*
X340731D01*
Y92433D01*
X340578D01*
Y92586D01*
X340120D01*
Y92738D01*
X339967D01*
Y92891D01*
X339814D01*
Y93044D01*
X339661D01*
Y92891D01*
X339509D01*
Y92738D01*
Y92586D01*
X339356D01*
Y92433D01*
Y92280D01*
X339509D01*
Y92127D01*
X339356D01*
Y91975D01*
Y91822D01*
Y91669D01*
X339203D01*
Y91516D01*
Y91364D01*
X339050D01*
Y91211D01*
Y91058D01*
X338897D01*
Y90905D01*
X339050D01*
Y90753D01*
X338897D01*
Y90600D01*
X338745D01*
Y90447D01*
X338592D01*
Y90294D01*
X339356D01*
Y90141D01*
X339814D01*
Y89989D01*
X339967D01*
Y89836D01*
X340120D01*
Y89683D01*
X340578D01*
Y89530D01*
X340731D01*
Y89378D01*
X340883D01*
Y89225D01*
X341036D01*
Y89072D01*
X341494D01*
Y88919D01*
X341647D01*
Y88767D01*
X342105D01*
Y88614D01*
X342258D01*
Y88461D01*
X342411D01*
Y88308D01*
X342564D01*
Y88156D01*
X342716D01*
Y88003D01*
X342564D01*
Y87850D01*
X342716D01*
Y87697D01*
X342564D01*
Y87545D01*
X342411D01*
Y87392D01*
X342258D01*
Y87239D01*
X342105D01*
Y87086D01*
X341953D01*
Y87239D01*
X341800D01*
Y87392D01*
X341647D01*
Y87545D01*
X341494D01*
Y87392D01*
X341342D01*
Y87545D01*
X341189D01*
Y87697D01*
X340731D01*
Y87850D01*
X340578D01*
Y88003D01*
X340120D01*
Y88156D01*
X339967D01*
Y88308D01*
X339509D01*
Y88461D01*
Y88614D01*
X339203D01*
Y88767D01*
X339356D01*
Y88919D01*
X338286D01*
Y89072D01*
X338134D01*
Y89225D01*
X337981D01*
Y89378D01*
X337828D01*
Y89225D01*
X337675D01*
Y89072D01*
X337828D01*
Y88919D01*
X337675D01*
Y88767D01*
Y88614D01*
Y88461D01*
Y88308D01*
Y88156D01*
Y88003D01*
Y87850D01*
X337523D01*
Y87697D01*
Y87545D01*
Y87392D01*
X337370D01*
Y87239D01*
X337523D01*
Y87086D01*
X337370D01*
Y86933D01*
Y86781D01*
Y86628D01*
Y86475D01*
Y86322D01*
Y86170D01*
Y86017D01*
X337523D01*
Y85864D01*
X337675D01*
Y86017D01*
X338439D01*
Y85864D01*
X338592D01*
Y85711D01*
X339050D01*
Y85559D01*
X339203D01*
Y85406D01*
X339661D01*
Y85253D01*
X339814D01*
Y85100D01*
X340272D01*
Y84948D01*
X340425D01*
Y84795D01*
X340578D01*
Y84948D01*
X340731D01*
Y84795D01*
X340883D01*
Y84948D01*
X341036D01*
Y84795D01*
X341189D01*
Y84642D01*
X341342D01*
Y84489D01*
X341494D01*
Y84337D01*
Y84184D01*
X341647D01*
Y84031D01*
Y83878D01*
X341494D01*
Y83726D01*
X341342D01*
Y83573D01*
X341494D01*
Y83420D01*
X341342D01*
Y83267D01*
X341189D01*
Y83114D01*
X341036D01*
Y82962D01*
X340883D01*
Y83114D01*
X340731D01*
Y82962D01*
X340578D01*
Y83114D01*
X340120D01*
Y83267D01*
X339661D01*
Y83420D01*
X339203D01*
Y83573D01*
X339050D01*
Y83726D01*
X338897D01*
Y83573D01*
X339050D01*
Y83420D01*
X338897D01*
Y83573D01*
X338745D01*
Y83726D01*
X338286D01*
Y83878D01*
X338134D01*
Y84031D01*
X337675D01*
Y84184D01*
X337523D01*
Y84337D01*
X337064D01*
Y84184D01*
X336912D01*
Y84031D01*
Y83878D01*
Y83726D01*
Y83573D01*
Y83420D01*
X335231D01*
Y83573D01*
X335078D01*
Y83726D01*
X334926D01*
Y83878D01*
X335078D01*
Y84031D01*
X334926D01*
Y84184D01*
X335078D01*
Y84337D01*
Y84489D01*
Y84642D01*
X335231D01*
Y84795D01*
X335078D01*
Y84948D01*
X335231D01*
Y85100D01*
X335078D01*
Y85253D01*
X335231D01*
Y85406D01*
X335078D01*
Y85559D01*
X335231D01*
Y85711D01*
Y85864D01*
Y86017D01*
X335384D01*
Y86170D01*
X335231D01*
Y86322D01*
X335384D01*
Y86475D01*
Y86628D01*
Y86781D01*
X335537D01*
Y86933D01*
X335384D01*
Y87086D01*
X335537D01*
Y87239D01*
Y87392D01*
Y87545D01*
X335689D01*
Y87697D01*
X335537D01*
Y87850D01*
X335689D01*
Y88003D01*
X335537D01*
Y88156D01*
X335689D01*
Y88308D01*
Y88461D01*
Y88614D01*
X335842D01*
Y88767D01*
Y88919D01*
Y89072D01*
X335995D01*
Y89225D01*
X335842D01*
Y89378D01*
X335995D01*
Y89530D01*
X335842D01*
Y89683D01*
X335995D01*
Y89836D01*
X335842D01*
Y89989D01*
X335995D01*
Y90141D01*
X335842D01*
Y90294D01*
X335995D01*
Y90447D01*
Y90600D01*
Y90753D01*
Y90905D01*
Y91058D01*
Y91211D01*
Y91364D01*
Y91516D01*
X336148D01*
Y91669D01*
Y91822D01*
X336606D01*
Y91975D01*
X336759D01*
Y92127D01*
X336912D01*
Y92280D01*
Y92433D01*
Y92586D01*
X337064D01*
Y92738D01*
X337217D01*
Y92891D01*
X337064D01*
Y93044D01*
X337217D01*
Y93197D01*
X337064D01*
Y93349D01*
X337217D01*
Y93502D01*
X337370D01*
Y93655D01*
X337217D01*
Y93808D01*
X337370D01*
Y93960D01*
Y94113D01*
Y94266D01*
X337523D01*
Y94419D01*
Y94572D01*
Y94724D01*
X337370D01*
Y94877D01*
X337217D01*
Y95030D01*
X337064D01*
Y95183D01*
Y95335D01*
Y95488D01*
X337217D01*
Y95641D01*
X337370D01*
Y95794D01*
X337523D01*
Y95946D01*
X337675D01*
Y95794D01*
X338134D01*
Y95946D01*
X338286D01*
Y96099D01*
Y96252D01*
Y96405D01*
X338439D01*
Y96557D01*
X338592D01*
Y96710D01*
X339050D01*
Y96557D01*
X339203D01*
Y96710D01*
X339356D01*
Y96557D01*
D02*
G37*
G36*
X67486D02*
X67638D01*
Y96405D01*
X68249D01*
Y96252D01*
Y96099D01*
X68402D01*
Y95946D01*
X68249D01*
Y95794D01*
X68402D01*
Y95641D01*
X68249D01*
Y95488D01*
X68402D01*
Y95335D01*
X68249D01*
Y95183D01*
X68097D01*
Y95030D01*
X68249D01*
Y94877D01*
X68402D01*
Y94724D01*
X68555D01*
Y94572D01*
X69013D01*
Y94419D01*
X69166D01*
Y94266D01*
X69319D01*
Y94113D01*
X69472D01*
Y93960D01*
X69624D01*
Y93808D01*
X69777D01*
Y93655D01*
X70082D01*
Y93502D01*
X70694D01*
Y93349D01*
X70846D01*
Y93197D01*
X70694D01*
Y93044D01*
X70846D01*
Y92891D01*
Y92738D01*
Y92586D01*
Y92433D01*
Y92280D01*
X70694D01*
Y92127D01*
X70541D01*
Y91975D01*
X70388D01*
Y91822D01*
X70235D01*
Y91669D01*
X70082D01*
Y91822D01*
X69930D01*
Y91975D01*
X69472D01*
Y92127D01*
X69319D01*
Y92280D01*
X68861D01*
Y92433D01*
X68708D01*
Y92586D01*
X68249D01*
Y92738D01*
X68097D01*
Y92891D01*
X67944D01*
Y93044D01*
X67791D01*
Y92891D01*
X67638D01*
Y92738D01*
Y92586D01*
X67486D01*
Y92433D01*
Y92280D01*
X67638D01*
Y92127D01*
X67486D01*
Y91975D01*
Y91822D01*
Y91669D01*
X67333D01*
Y91516D01*
Y91364D01*
X67180D01*
Y91211D01*
Y91058D01*
X67027D01*
Y90905D01*
X67180D01*
Y90753D01*
X67027D01*
Y90600D01*
X66875D01*
Y90447D01*
X66722D01*
Y90294D01*
X67486D01*
Y90141D01*
X67944D01*
Y89989D01*
X68097D01*
Y89836D01*
X68249D01*
Y89683D01*
X68708D01*
Y89530D01*
X68861D01*
Y89378D01*
X69013D01*
Y89225D01*
X69166D01*
Y89072D01*
X69624D01*
Y88919D01*
X69777D01*
Y88767D01*
X70235D01*
Y88614D01*
X70388D01*
Y88461D01*
X70541D01*
Y88308D01*
X70694D01*
Y88156D01*
X70846D01*
Y88003D01*
X70694D01*
Y87850D01*
X70846D01*
Y87697D01*
X70694D01*
Y87545D01*
X70541D01*
Y87392D01*
X70388D01*
Y87239D01*
X70235D01*
Y87086D01*
X70082D01*
Y87239D01*
X69930D01*
Y87392D01*
X69777D01*
Y87545D01*
X69624D01*
Y87392D01*
X69472D01*
Y87545D01*
X69319D01*
Y87697D01*
X68861D01*
Y87850D01*
X68708D01*
Y88003D01*
X68249D01*
Y88156D01*
X68097D01*
Y88308D01*
X67638D01*
Y88461D01*
Y88614D01*
X67333D01*
Y88767D01*
X67486D01*
Y88919D01*
X66416D01*
Y89072D01*
X66264D01*
Y89225D01*
X66111D01*
Y89378D01*
X65958D01*
Y89225D01*
X65805D01*
Y89072D01*
X65958D01*
Y88919D01*
X65805D01*
Y88767D01*
Y88614D01*
Y88461D01*
Y88308D01*
Y88156D01*
Y88003D01*
Y87850D01*
X65653D01*
Y87697D01*
Y87545D01*
Y87392D01*
X65500D01*
Y87239D01*
X65653D01*
Y87086D01*
X65500D01*
Y86933D01*
Y86781D01*
Y86628D01*
Y86475D01*
Y86322D01*
Y86170D01*
Y86017D01*
X65653D01*
Y85864D01*
X65805D01*
Y86017D01*
X66569D01*
Y85864D01*
X66722D01*
Y85711D01*
X67180D01*
Y85559D01*
X67333D01*
Y85406D01*
X67791D01*
Y85253D01*
X67944D01*
Y85100D01*
X68402D01*
Y84948D01*
X68555D01*
Y84795D01*
X68708D01*
Y84948D01*
X68861D01*
Y84795D01*
X69013D01*
Y84948D01*
X69166D01*
Y84795D01*
X69319D01*
Y84642D01*
X69472D01*
Y84489D01*
X69624D01*
Y84337D01*
Y84184D01*
X69777D01*
Y84031D01*
Y83878D01*
X69624D01*
Y83726D01*
X69472D01*
Y83573D01*
X69624D01*
Y83420D01*
X69472D01*
Y83267D01*
X69319D01*
Y83114D01*
X69166D01*
Y82962D01*
X69013D01*
Y83114D01*
X68861D01*
Y82962D01*
X68708D01*
Y83114D01*
X68249D01*
Y83267D01*
X67791D01*
Y83420D01*
X67333D01*
Y83573D01*
X67180D01*
Y83726D01*
X67027D01*
Y83573D01*
X67180D01*
Y83420D01*
X67027D01*
Y83573D01*
X66875D01*
Y83726D01*
X66416D01*
Y83878D01*
X66264D01*
Y84031D01*
X65805D01*
Y84184D01*
X65653D01*
Y84337D01*
X65194D01*
Y84184D01*
X65042D01*
Y84031D01*
Y83878D01*
Y83726D01*
Y83573D01*
Y83420D01*
X63361D01*
Y83573D01*
X63208D01*
Y83726D01*
X63056D01*
Y83878D01*
X63208D01*
Y84031D01*
X63056D01*
Y84184D01*
X63208D01*
Y84337D01*
Y84489D01*
Y84642D01*
X63361D01*
Y84795D01*
X63208D01*
Y84948D01*
X63361D01*
Y85100D01*
X63208D01*
Y85253D01*
X63361D01*
Y85406D01*
X63208D01*
Y85559D01*
X63361D01*
Y85711D01*
Y85864D01*
Y86017D01*
X63514D01*
Y86170D01*
X63361D01*
Y86322D01*
X63514D01*
Y86475D01*
Y86628D01*
Y86781D01*
X63667D01*
Y86933D01*
X63514D01*
Y87086D01*
X63667D01*
Y87239D01*
Y87392D01*
Y87545D01*
X63819D01*
Y87697D01*
X63667D01*
Y87850D01*
X63819D01*
Y88003D01*
X63667D01*
Y88156D01*
X63819D01*
Y88308D01*
Y88461D01*
Y88614D01*
X63972D01*
Y88767D01*
Y88919D01*
Y89072D01*
X64125D01*
Y89225D01*
X63972D01*
Y89378D01*
X64125D01*
Y89530D01*
X63972D01*
Y89683D01*
X64125D01*
Y89836D01*
X63972D01*
Y89989D01*
X64125D01*
Y90141D01*
X63972D01*
Y90294D01*
X64125D01*
Y90447D01*
Y90600D01*
Y90753D01*
Y90905D01*
Y91058D01*
Y91211D01*
Y91364D01*
Y91516D01*
X64278D01*
Y91669D01*
Y91822D01*
X64736D01*
Y91975D01*
X64889D01*
Y92127D01*
X65042D01*
Y92280D01*
Y92433D01*
Y92586D01*
X65194D01*
Y92738D01*
X65347D01*
Y92891D01*
X65194D01*
Y93044D01*
X65347D01*
Y93197D01*
X65194D01*
Y93349D01*
X65347D01*
Y93502D01*
X65500D01*
Y93655D01*
X65347D01*
Y93808D01*
X65500D01*
Y93960D01*
Y94113D01*
Y94266D01*
X65653D01*
Y94419D01*
Y94572D01*
Y94724D01*
X65500D01*
Y94877D01*
X65347D01*
Y95030D01*
X65194D01*
Y95183D01*
Y95335D01*
Y95488D01*
X65347D01*
Y95641D01*
X65500D01*
Y95794D01*
X65653D01*
Y95946D01*
X65805D01*
Y95794D01*
X66264D01*
Y95946D01*
X66416D01*
Y96099D01*
Y96252D01*
Y96405D01*
X66569D01*
Y96557D01*
X66722D01*
Y96710D01*
X67180D01*
Y96557D01*
X67333D01*
Y96710D01*
X67486D01*
Y96557D01*
D02*
G37*
G36*
X333551Y94419D02*
X333704D01*
Y94266D01*
X333856D01*
Y94113D01*
X334009D01*
Y93960D01*
X334162D01*
Y93808D01*
X334315D01*
Y93655D01*
X334467D01*
Y93502D01*
Y93349D01*
Y93197D01*
Y93044D01*
Y92891D01*
Y92738D01*
Y92586D01*
X334315D01*
Y92433D01*
X334009D01*
Y92280D01*
X333704D01*
Y92127D01*
X333551D01*
Y92280D01*
X333398D01*
Y92127D01*
X333245D01*
Y91975D01*
X332482D01*
Y91822D01*
X332329D01*
Y91975D01*
X332176D01*
Y91822D01*
X332023D01*
Y91975D01*
X331871D01*
Y91822D01*
X331412D01*
Y91669D01*
X331259D01*
Y91822D01*
X331107D01*
Y91669D01*
X330954D01*
Y91822D01*
X330801D01*
Y91669D01*
X330648D01*
Y91822D01*
X330496D01*
Y91669D01*
X330190D01*
Y91516D01*
Y91364D01*
X330037D01*
Y91211D01*
X330190D01*
Y91058D01*
X330037D01*
Y90905D01*
X329885D01*
Y90753D01*
Y90600D01*
Y90447D01*
X329732D01*
Y90294D01*
X329885D01*
Y90141D01*
X330037D01*
Y89989D01*
X330190D01*
Y89836D01*
X330343D01*
Y89683D01*
X330496D01*
Y89530D01*
X330648D01*
Y89378D01*
X330801D01*
Y89225D01*
X330954D01*
Y89072D01*
X331412D01*
Y88919D01*
X331565D01*
Y88767D01*
X331718D01*
Y88919D01*
X331871D01*
Y88767D01*
X332329D01*
Y88614D01*
X332787D01*
Y88461D01*
X333245D01*
Y88308D01*
X333093D01*
Y88156D01*
X333245D01*
Y88003D01*
X333398D01*
Y87850D01*
Y87697D01*
Y87545D01*
X333551D01*
Y87392D01*
Y87239D01*
Y87086D01*
X333704D01*
Y86933D01*
X333551D01*
Y86781D01*
Y86628D01*
Y86475D01*
Y86322D01*
Y86170D01*
X333398D01*
Y86017D01*
X333551D01*
Y85864D01*
X333398D01*
Y85711D01*
X333245D01*
Y85559D01*
X333093D01*
Y85406D01*
Y85253D01*
X332940D01*
Y85100D01*
X332787D01*
Y84948D01*
X332482D01*
Y84795D01*
Y84642D01*
X332176D01*
Y84489D01*
X332023D01*
Y84337D01*
X331565D01*
Y84184D01*
X331412D01*
Y84031D01*
X330343D01*
Y84184D01*
X330190D01*
Y84031D01*
X330037D01*
Y84184D01*
X329885D01*
Y84031D01*
X329732D01*
Y84184D01*
X329579D01*
Y84337D01*
X329426D01*
Y84184D01*
X329274D01*
Y84337D01*
X328815D01*
Y84489D01*
X328357D01*
Y84642D01*
X327899D01*
Y84795D01*
X327746D01*
Y84948D01*
X327288D01*
Y85100D01*
X327135D01*
Y85253D01*
X326982D01*
Y85100D01*
X326829D01*
Y85253D01*
X326677D01*
Y85406D01*
X326524D01*
Y85559D01*
X326066D01*
Y85711D01*
X325913D01*
Y85864D01*
X325455D01*
Y86017D01*
X325607D01*
Y86170D01*
X325149D01*
Y86322D01*
X324996D01*
Y86475D01*
X324844D01*
Y86628D01*
X324691D01*
Y86781D01*
X324538D01*
Y86933D01*
Y87086D01*
Y87239D01*
Y87392D01*
Y87545D01*
X324691D01*
Y87697D01*
X324844D01*
Y87850D01*
X325302D01*
Y88003D01*
X325455D01*
Y88156D01*
X325607D01*
Y88003D01*
X325760D01*
Y88156D01*
X325913D01*
Y88003D01*
X326371D01*
Y87850D01*
X326524D01*
Y87697D01*
X326677D01*
Y87545D01*
X326829D01*
Y87392D01*
X326982D01*
Y87239D01*
X327441D01*
Y87086D01*
X327593D01*
Y86933D01*
X327746D01*
Y86781D01*
X327899D01*
Y86628D01*
X328051D01*
Y86781D01*
X328204D01*
Y86628D01*
X328357D01*
Y86475D01*
X328510D01*
Y86628D01*
X328662D01*
Y86475D01*
X328815D01*
Y86322D01*
X329579D01*
Y86170D01*
X329732D01*
Y86322D01*
X329885D01*
Y86170D01*
X330343D01*
Y86017D01*
X330496D01*
Y86170D01*
X330954D01*
Y86322D01*
X331412D01*
Y86475D01*
Y86628D01*
X331565D01*
Y86781D01*
Y86933D01*
X331412D01*
Y87086D01*
X330954D01*
Y87239D01*
X330801D01*
Y87392D01*
X330648D01*
Y87545D01*
X330190D01*
Y87697D01*
X330037D01*
Y87850D01*
X329885D01*
Y88003D01*
X329732D01*
Y87850D01*
X329885D01*
Y87697D01*
X329732D01*
Y87850D01*
X329579D01*
Y88003D01*
X329426D01*
Y88156D01*
X329274D01*
Y88003D01*
X329121D01*
Y88156D01*
X328968D01*
Y88308D01*
X328510D01*
Y88461D01*
Y88614D01*
X328357D01*
Y88767D01*
Y88919D01*
X328204D01*
Y89072D01*
Y89225D01*
Y89378D01*
X328051D01*
Y89530D01*
X327899D01*
Y89683D01*
X328051D01*
Y89836D01*
X327899D01*
Y89989D01*
Y90141D01*
X327746D01*
Y90294D01*
Y90447D01*
Y90600D01*
Y90753D01*
X327899D01*
Y90905D01*
Y91058D01*
Y91211D01*
Y91364D01*
Y91516D01*
X328051D01*
Y91669D01*
X327899D01*
Y91822D01*
X328051D01*
Y91975D01*
Y92127D01*
X328204D01*
Y92280D01*
Y92433D01*
X328357D01*
Y92586D01*
X328510D01*
Y92738D01*
X328662D01*
Y92891D01*
Y93044D01*
X328815D01*
Y93197D01*
X328968D01*
Y93349D01*
X329274D01*
Y93502D01*
X329426D01*
Y93655D01*
X329885D01*
Y93808D01*
X330037D01*
Y93960D01*
X330190D01*
Y93808D01*
X330343D01*
Y93960D01*
X330801D01*
Y94113D01*
X330954D01*
Y93960D01*
X331107D01*
Y94113D01*
X331259D01*
Y93960D01*
X331412D01*
Y94113D01*
X331871D01*
Y94266D01*
X332634D01*
Y94419D01*
X333093D01*
Y94572D01*
X333245D01*
Y94419D01*
X333398D01*
Y94572D01*
X333551D01*
Y94419D01*
D02*
G37*
G36*
X61681D02*
X61834D01*
Y94266D01*
X61986D01*
Y94113D01*
X62139D01*
Y93960D01*
X62292D01*
Y93808D01*
X62445D01*
Y93655D01*
X62597D01*
Y93502D01*
Y93349D01*
Y93197D01*
Y93044D01*
Y92891D01*
Y92738D01*
Y92586D01*
X62445D01*
Y92433D01*
X62139D01*
Y92280D01*
X61834D01*
Y92127D01*
X61681D01*
Y92280D01*
X61528D01*
Y92127D01*
X61375D01*
Y91975D01*
X60611D01*
Y91822D01*
X60459D01*
Y91975D01*
X60306D01*
Y91822D01*
X60153D01*
Y91975D01*
X60000D01*
Y91822D01*
X59542D01*
Y91669D01*
X59389D01*
Y91822D01*
X59237D01*
Y91669D01*
X59084D01*
Y91822D01*
X58931D01*
Y91669D01*
X58778D01*
Y91822D01*
X58626D01*
Y91669D01*
X58320D01*
Y91516D01*
Y91364D01*
X58167D01*
Y91211D01*
X58320D01*
Y91058D01*
X58167D01*
Y90905D01*
X58015D01*
Y90753D01*
Y90600D01*
Y90447D01*
X57862D01*
Y90294D01*
X58015D01*
Y90141D01*
X58167D01*
Y89989D01*
X58320D01*
Y89836D01*
X58473D01*
Y89683D01*
X58626D01*
Y89530D01*
X58778D01*
Y89378D01*
X58931D01*
Y89225D01*
X59084D01*
Y89072D01*
X59542D01*
Y88919D01*
X59695D01*
Y88767D01*
X59848D01*
Y88919D01*
X60000D01*
Y88767D01*
X60459D01*
Y88614D01*
X60917D01*
Y88461D01*
X61375D01*
Y88308D01*
X61222D01*
Y88156D01*
X61375D01*
Y88003D01*
X61528D01*
Y87850D01*
Y87697D01*
Y87545D01*
X61681D01*
Y87392D01*
Y87239D01*
Y87086D01*
X61834D01*
Y86933D01*
X61681D01*
Y86781D01*
Y86628D01*
Y86475D01*
Y86322D01*
Y86170D01*
X61528D01*
Y86017D01*
X61681D01*
Y85864D01*
X61528D01*
Y85711D01*
X61375D01*
Y85559D01*
X61222D01*
Y85406D01*
Y85253D01*
X61070D01*
Y85100D01*
X60917D01*
Y84948D01*
X60611D01*
Y84795D01*
Y84642D01*
X60306D01*
Y84489D01*
X60153D01*
Y84337D01*
X59695D01*
Y84184D01*
X59542D01*
Y84031D01*
X58473D01*
Y84184D01*
X58320D01*
Y84031D01*
X58167D01*
Y84184D01*
X58015D01*
Y84031D01*
X57862D01*
Y84184D01*
X57709D01*
Y84337D01*
X57556D01*
Y84184D01*
X57403D01*
Y84337D01*
X56945D01*
Y84489D01*
X56487D01*
Y84642D01*
X56029D01*
Y84795D01*
X55876D01*
Y84948D01*
X55418D01*
Y85100D01*
X55265D01*
Y85253D01*
X55112D01*
Y85100D01*
X54959D01*
Y85253D01*
X54807D01*
Y85406D01*
X54654D01*
Y85559D01*
X54195D01*
Y85711D01*
X54043D01*
Y85864D01*
X53584D01*
Y86017D01*
X53737D01*
Y86170D01*
X53279D01*
Y86322D01*
X53126D01*
Y86475D01*
X52973D01*
Y86628D01*
X52821D01*
Y86781D01*
X52668D01*
Y86933D01*
Y87086D01*
Y87239D01*
Y87392D01*
Y87545D01*
X52821D01*
Y87697D01*
X52973D01*
Y87850D01*
X53432D01*
Y88003D01*
X53584D01*
Y88156D01*
X53737D01*
Y88003D01*
X53890D01*
Y88156D01*
X54043D01*
Y88003D01*
X54501D01*
Y87850D01*
X54654D01*
Y87697D01*
X54807D01*
Y87545D01*
X54959D01*
Y87392D01*
X55112D01*
Y87239D01*
X55570D01*
Y87086D01*
X55723D01*
Y86933D01*
X55876D01*
Y86781D01*
X56029D01*
Y86628D01*
X56181D01*
Y86781D01*
X56334D01*
Y86628D01*
X56487D01*
Y86475D01*
X56640D01*
Y86628D01*
X56792D01*
Y86475D01*
X56945D01*
Y86322D01*
X57709D01*
Y86170D01*
X57862D01*
Y86322D01*
X58015D01*
Y86170D01*
X58473D01*
Y86017D01*
X58626D01*
Y86170D01*
X59084D01*
Y86322D01*
X59542D01*
Y86475D01*
Y86628D01*
X59695D01*
Y86781D01*
Y86933D01*
X59542D01*
Y87086D01*
X59084D01*
Y87239D01*
X58931D01*
Y87392D01*
X58778D01*
Y87545D01*
X58320D01*
Y87697D01*
X58167D01*
Y87850D01*
X58015D01*
Y88003D01*
X57862D01*
Y87850D01*
X58015D01*
Y87697D01*
X57862D01*
Y87850D01*
X57709D01*
Y88003D01*
X57556D01*
Y88156D01*
X57403D01*
Y88003D01*
X57251D01*
Y88156D01*
X57098D01*
Y88308D01*
X56640D01*
Y88461D01*
Y88614D01*
X56487D01*
Y88767D01*
Y88919D01*
X56334D01*
Y89072D01*
Y89225D01*
Y89378D01*
X56181D01*
Y89530D01*
X56029D01*
Y89683D01*
X56181D01*
Y89836D01*
X56029D01*
Y89989D01*
Y90141D01*
X55876D01*
Y90294D01*
Y90447D01*
Y90600D01*
Y90753D01*
X56029D01*
Y90905D01*
Y91058D01*
Y91211D01*
Y91364D01*
Y91516D01*
X56181D01*
Y91669D01*
X56029D01*
Y91822D01*
X56181D01*
Y91975D01*
Y92127D01*
X56334D01*
Y92280D01*
Y92433D01*
X56487D01*
Y92586D01*
X56640D01*
Y92738D01*
X56792D01*
Y92891D01*
Y93044D01*
X56945D01*
Y93197D01*
X57098D01*
Y93349D01*
X57403D01*
Y93502D01*
X57556D01*
Y93655D01*
X58015D01*
Y93808D01*
X58167D01*
Y93960D01*
X58320D01*
Y93808D01*
X58473D01*
Y93960D01*
X58931D01*
Y94113D01*
X59084D01*
Y93960D01*
X59237D01*
Y94113D01*
X59389D01*
Y93960D01*
X59542D01*
Y94113D01*
X60000D01*
Y94266D01*
X60764D01*
Y94419D01*
X61222D01*
Y94572D01*
X61375D01*
Y94419D01*
X61528D01*
Y94572D01*
X61681D01*
Y94419D01*
D02*
G37*
G36*
X357992Y96863D02*
X358145D01*
Y96710D01*
X358298D01*
Y96557D01*
Y96405D01*
Y96252D01*
X358145D01*
Y96099D01*
X358298D01*
Y95946D01*
X358145D01*
Y95794D01*
Y95641D01*
Y95488D01*
X357992D01*
Y95335D01*
X357840D01*
Y95183D01*
X357992D01*
Y95030D01*
X357840D01*
Y94877D01*
Y94724D01*
X357687D01*
Y94572D01*
Y94419D01*
X357534D01*
Y94266D01*
Y94113D01*
X357381D01*
Y93960D01*
Y93808D01*
X357229D01*
Y93655D01*
Y93502D01*
Y93349D01*
X357076D01*
Y93197D01*
X356923D01*
Y93044D01*
X357076D01*
Y92891D01*
X356923D01*
Y92738D01*
X356770D01*
Y92586D01*
X356618D01*
Y92433D01*
X356770D01*
Y92280D01*
X356618D01*
Y92127D01*
Y91975D01*
Y91822D01*
Y91669D01*
Y91516D01*
Y91364D01*
Y91211D01*
X356465D01*
Y91058D01*
X356618D01*
Y90905D01*
X356770D01*
Y90753D01*
X356923D01*
Y90600D01*
X357076D01*
Y90753D01*
X357229D01*
Y90600D01*
X357381D01*
Y90753D01*
X357534D01*
Y90905D01*
X357687D01*
Y90753D01*
X357840D01*
Y90905D01*
X358298D01*
Y91058D01*
X358756D01*
Y91211D01*
X358909D01*
Y91364D01*
X359062D01*
Y91516D01*
X359214D01*
Y91669D01*
X359367D01*
Y91822D01*
X359520D01*
Y91975D01*
X359673D01*
Y92127D01*
X359825D01*
Y92280D01*
X359673D01*
Y92433D01*
X359825D01*
Y92586D01*
X359978D01*
Y92738D01*
X360131D01*
Y92891D01*
Y93044D01*
X360284D01*
Y93197D01*
Y93349D01*
X360437D01*
Y93502D01*
X360589D01*
Y93655D01*
Y93808D01*
Y93960D01*
X360742D01*
Y94113D01*
X360895D01*
Y94266D01*
Y94419D01*
Y94572D01*
X361048D01*
Y94724D01*
X361200D01*
Y94877D01*
X361353D01*
Y94724D01*
X361506D01*
Y94572D01*
X361659D01*
Y94419D01*
X361811D01*
Y94266D01*
X361659D01*
Y94113D01*
Y93960D01*
Y93808D01*
X361811D01*
Y93655D01*
X361659D01*
Y93502D01*
Y93349D01*
Y93197D01*
X361506D01*
Y93044D01*
Y92891D01*
Y92738D01*
X361353D01*
Y92586D01*
Y92433D01*
Y92280D01*
Y92127D01*
Y91975D01*
X361200D01*
Y91822D01*
X361353D01*
Y91669D01*
X361200D01*
Y91516D01*
X361353D01*
Y91364D01*
X361200D01*
Y91211D01*
X365325D01*
Y91058D01*
X365478D01*
Y91211D01*
X365936D01*
Y91058D01*
X366089D01*
Y91211D01*
X366547D01*
Y91058D01*
X366700D01*
Y91211D01*
X366852D01*
Y91058D01*
X367005D01*
Y91211D01*
X367158D01*
Y91058D01*
X367616D01*
Y90905D01*
X368686D01*
Y90753D01*
X368838D01*
Y90905D01*
X368991D01*
Y90753D01*
X369144D01*
Y90905D01*
X369297D01*
Y90753D01*
X369449D01*
Y90600D01*
X369602D01*
Y90753D01*
X369755D01*
Y90600D01*
X369908D01*
Y90447D01*
X370060D01*
Y90294D01*
X370213D01*
Y90141D01*
Y89989D01*
Y89836D01*
X370060D01*
Y89683D01*
Y89530D01*
X369908D01*
Y89378D01*
Y89225D01*
X369449D01*
Y89378D01*
Y89530D01*
X369144D01*
Y89378D01*
X368991D01*
Y89530D01*
X368838D01*
Y89378D01*
X368686D01*
Y89530D01*
X368227D01*
Y89683D01*
X368075D01*
Y89836D01*
X367616D01*
Y89989D01*
X367463D01*
Y89836D01*
X367311D01*
Y89989D01*
X367158D01*
Y89836D01*
X367005D01*
Y89989D01*
X366852D01*
Y89836D01*
X366700D01*
Y89989D01*
X366547D01*
Y89836D01*
X366394D01*
Y89989D01*
X366241D01*
Y89836D01*
X366089D01*
Y89989D01*
X365630D01*
Y89836D01*
X365478D01*
Y89989D01*
X363797D01*
Y90141D01*
X363645D01*
Y89989D01*
X363186D01*
Y90141D01*
X363034D01*
Y89989D01*
X362575D01*
Y90141D01*
X362422D01*
Y89989D01*
X362270D01*
Y90141D01*
X362117D01*
Y89989D01*
X361964D01*
Y90141D01*
X361811D01*
Y89989D01*
X361353D01*
Y89836D01*
X360895D01*
Y89683D01*
X361048D01*
Y89530D01*
X360895D01*
Y89378D01*
Y89225D01*
Y89072D01*
X360742D01*
Y88919D01*
X360589D01*
Y88767D01*
X360742D01*
Y88614D01*
X360589D01*
Y88461D01*
X360742D01*
Y88308D01*
X360589D01*
Y88156D01*
Y88003D01*
Y87850D01*
X360437D01*
Y87697D01*
Y87545D01*
Y87392D01*
X360284D01*
Y87239D01*
X360437D01*
Y87086D01*
X360284D01*
Y86933D01*
X360437D01*
Y86781D01*
X360284D01*
Y86628D01*
Y86475D01*
Y86322D01*
Y86170D01*
Y86017D01*
X360131D01*
Y85864D01*
X360284D01*
Y85711D01*
X360131D01*
Y85559D01*
Y85406D01*
Y85253D01*
Y85100D01*
Y84948D01*
Y84795D01*
Y84642D01*
X359978D01*
Y84489D01*
X359825D01*
Y84337D01*
Y84184D01*
Y84031D01*
X359673D01*
Y83878D01*
X359825D01*
Y83726D01*
X359673D01*
Y83573D01*
Y83420D01*
Y83267D01*
X359520D01*
Y83114D01*
Y82962D01*
Y82809D01*
X359367D01*
Y82656D01*
X359520D01*
Y82503D01*
X359367D01*
Y82351D01*
X359214D01*
Y82198D01*
Y82045D01*
Y81892D01*
X359062D01*
Y81740D01*
X358909D01*
Y81587D01*
X358756D01*
Y81434D01*
Y81281D01*
X358451D01*
Y81129D01*
X358604D01*
Y80976D01*
X358451D01*
Y80823D01*
X358298D01*
Y80670D01*
X358145D01*
Y80518D01*
X357992D01*
Y80365D01*
X357534D01*
Y80212D01*
X357381D01*
Y80365D01*
X356618D01*
Y80518D01*
X356465D01*
Y80670D01*
X356312D01*
Y80823D01*
X356465D01*
Y80976D01*
X356312D01*
Y81129D01*
X356159D01*
Y81281D01*
Y81434D01*
Y81587D01*
X356007D01*
Y81740D01*
Y81892D01*
Y82045D01*
X355854D01*
Y82198D01*
Y82351D01*
Y82503D01*
X355701D01*
Y82656D01*
X355854D01*
Y82809D01*
X355701D01*
Y82962D01*
Y83114D01*
Y83267D01*
X355548D01*
Y83420D01*
Y83573D01*
Y83726D01*
X355701D01*
Y83878D01*
X355548D01*
Y84031D01*
X355701D01*
Y84184D01*
Y84337D01*
Y84489D01*
Y84642D01*
Y84795D01*
Y84948D01*
Y85100D01*
X355854D01*
Y85253D01*
X356007D01*
Y85406D01*
Y85559D01*
Y85711D01*
Y85864D01*
Y86017D01*
X356159D01*
Y86170D01*
X356007D01*
Y86322D01*
X356159D01*
Y86475D01*
X356007D01*
Y86628D01*
X356159D01*
Y86781D01*
X356007D01*
Y86933D01*
X356159D01*
Y87086D01*
X356007D01*
Y87239D01*
X356159D01*
Y87392D01*
X356312D01*
Y87545D01*
X356159D01*
Y87697D01*
X356312D01*
Y87850D01*
Y88003D01*
Y88156D01*
X356465D01*
Y88308D01*
Y88461D01*
Y88614D01*
X356618D01*
Y88767D01*
X356770D01*
Y88919D01*
X356618D01*
Y89072D01*
X356770D01*
Y89225D01*
X356007D01*
Y89378D01*
X355854D01*
Y89225D01*
X355701D01*
Y89378D01*
X355548D01*
Y89530D01*
Y89683D01*
Y89836D01*
X355396D01*
Y89989D01*
X355548D01*
Y90141D01*
X355396D01*
Y90294D01*
X355548D01*
Y90447D01*
X355396D01*
Y90600D01*
Y90753D01*
Y90905D01*
X355243D01*
Y91058D01*
X355090D01*
Y91211D01*
Y91364D01*
Y91516D01*
X354937D01*
Y91669D01*
X355090D01*
Y91822D01*
X354937D01*
Y91975D01*
Y92127D01*
X355090D01*
Y92280D01*
Y92433D01*
X355243D01*
Y92586D01*
X355396D01*
Y92738D01*
X355548D01*
Y92891D01*
X355396D01*
Y93044D01*
X355548D01*
Y93197D01*
X355701D01*
Y93349D01*
X355854D01*
Y93502D01*
X355701D01*
Y93655D01*
X355854D01*
Y93808D01*
X356007D01*
Y93960D01*
X356159D01*
Y94113D01*
X356007D01*
Y94266D01*
X356159D01*
Y94419D01*
X356312D01*
Y94572D01*
X356465D01*
Y94724D01*
Y94877D01*
Y95030D01*
X356618D01*
Y95183D01*
X356770D01*
Y95335D01*
Y95488D01*
Y95641D01*
X356923D01*
Y95794D01*
X357076D01*
Y95946D01*
Y96099D01*
Y96252D01*
X357229D01*
Y96405D01*
X357381D01*
Y96557D01*
X357534D01*
Y96710D01*
X357687D01*
Y96863D01*
X357840D01*
Y97016D01*
X357992D01*
Y96863D01*
D02*
G37*
G36*
X86122D02*
X86275D01*
Y96710D01*
X86428D01*
Y96557D01*
Y96405D01*
Y96252D01*
X86275D01*
Y96099D01*
X86428D01*
Y95946D01*
X86275D01*
Y95794D01*
Y95641D01*
Y95488D01*
X86122D01*
Y95335D01*
X85970D01*
Y95183D01*
X86122D01*
Y95030D01*
X85970D01*
Y94877D01*
Y94724D01*
X85817D01*
Y94572D01*
Y94419D01*
X85664D01*
Y94266D01*
Y94113D01*
X85511D01*
Y93960D01*
Y93808D01*
X85359D01*
Y93655D01*
Y93502D01*
Y93349D01*
X85206D01*
Y93197D01*
X85053D01*
Y93044D01*
X85206D01*
Y92891D01*
X85053D01*
Y92738D01*
X84900D01*
Y92586D01*
X84747D01*
Y92433D01*
X84900D01*
Y92280D01*
X84747D01*
Y92127D01*
Y91975D01*
Y91822D01*
Y91669D01*
Y91516D01*
Y91364D01*
Y91211D01*
X84595D01*
Y91058D01*
X84747D01*
Y90905D01*
X84900D01*
Y90753D01*
X85053D01*
Y90600D01*
X85206D01*
Y90753D01*
X85359D01*
Y90600D01*
X85511D01*
Y90753D01*
X85664D01*
Y90905D01*
X85817D01*
Y90753D01*
X85970D01*
Y90905D01*
X86428D01*
Y91058D01*
X86886D01*
Y91211D01*
X87039D01*
Y91364D01*
X87192D01*
Y91516D01*
X87344D01*
Y91669D01*
X87497D01*
Y91822D01*
X87650D01*
Y91975D01*
X87803D01*
Y92127D01*
X87955D01*
Y92280D01*
X87803D01*
Y92433D01*
X87955D01*
Y92586D01*
X88108D01*
Y92738D01*
X88261D01*
Y92891D01*
Y93044D01*
X88414D01*
Y93197D01*
Y93349D01*
X88566D01*
Y93502D01*
X88719D01*
Y93655D01*
Y93808D01*
Y93960D01*
X88872D01*
Y94113D01*
X89025D01*
Y94266D01*
Y94419D01*
Y94572D01*
X89178D01*
Y94724D01*
X89330D01*
Y94877D01*
X89483D01*
Y94724D01*
X89636D01*
Y94572D01*
X89789D01*
Y94419D01*
X89941D01*
Y94266D01*
X89789D01*
Y94113D01*
Y93960D01*
Y93808D01*
X89941D01*
Y93655D01*
X89789D01*
Y93502D01*
Y93349D01*
Y93197D01*
X89636D01*
Y93044D01*
Y92891D01*
Y92738D01*
X89483D01*
Y92586D01*
Y92433D01*
Y92280D01*
Y92127D01*
Y91975D01*
X89330D01*
Y91822D01*
X89483D01*
Y91669D01*
X89330D01*
Y91516D01*
X89483D01*
Y91364D01*
X89330D01*
Y91211D01*
X93455D01*
Y91058D01*
X93608D01*
Y91211D01*
X94066D01*
Y91058D01*
X94219D01*
Y91211D01*
X94677D01*
Y91058D01*
X94830D01*
Y91211D01*
X94982D01*
Y91058D01*
X95135D01*
Y91211D01*
X95288D01*
Y91058D01*
X95746D01*
Y90905D01*
X96816D01*
Y90753D01*
X96968D01*
Y90905D01*
X97121D01*
Y90753D01*
X97274D01*
Y90905D01*
X97426D01*
Y90753D01*
X97579D01*
Y90600D01*
X97732D01*
Y90753D01*
X97885D01*
Y90600D01*
X98038D01*
Y90447D01*
X98190D01*
Y90294D01*
X98343D01*
Y90141D01*
Y89989D01*
Y89836D01*
X98190D01*
Y89683D01*
Y89530D01*
X98038D01*
Y89378D01*
Y89225D01*
X97579D01*
Y89378D01*
Y89530D01*
X97274D01*
Y89378D01*
X97121D01*
Y89530D01*
X96968D01*
Y89378D01*
X96816D01*
Y89530D01*
X96357D01*
Y89683D01*
X96205D01*
Y89836D01*
X95746D01*
Y89989D01*
X95593D01*
Y89836D01*
X95441D01*
Y89989D01*
X95288D01*
Y89836D01*
X95135D01*
Y89989D01*
X94982D01*
Y89836D01*
X94830D01*
Y89989D01*
X94677D01*
Y89836D01*
X94524D01*
Y89989D01*
X94371D01*
Y89836D01*
X94219D01*
Y89989D01*
X93760D01*
Y89836D01*
X93608D01*
Y89989D01*
X91927D01*
Y90141D01*
X91774D01*
Y89989D01*
X91316D01*
Y90141D01*
X91163D01*
Y89989D01*
X90705D01*
Y90141D01*
X90552D01*
Y89989D01*
X90400D01*
Y90141D01*
X90247D01*
Y89989D01*
X90094D01*
Y90141D01*
X89941D01*
Y89989D01*
X89483D01*
Y89836D01*
X89025D01*
Y89683D01*
X89178D01*
Y89530D01*
X89025D01*
Y89378D01*
Y89225D01*
Y89072D01*
X88872D01*
Y88919D01*
X88719D01*
Y88767D01*
X88872D01*
Y88614D01*
X88719D01*
Y88461D01*
X88872D01*
Y88308D01*
X88719D01*
Y88156D01*
Y88003D01*
Y87850D01*
X88566D01*
Y87697D01*
Y87545D01*
Y87392D01*
X88414D01*
Y87239D01*
X88566D01*
Y87086D01*
X88414D01*
Y86933D01*
X88566D01*
Y86781D01*
X88414D01*
Y86628D01*
Y86475D01*
Y86322D01*
Y86170D01*
Y86017D01*
X88261D01*
Y85864D01*
X88414D01*
Y85711D01*
X88261D01*
Y85559D01*
Y85406D01*
Y85253D01*
Y85100D01*
Y84948D01*
Y84795D01*
Y84642D01*
X88108D01*
Y84489D01*
X87955D01*
Y84337D01*
Y84184D01*
Y84031D01*
X87803D01*
Y83878D01*
X87955D01*
Y83726D01*
X87803D01*
Y83573D01*
Y83420D01*
Y83267D01*
X87650D01*
Y83114D01*
Y82962D01*
Y82809D01*
X87497D01*
Y82656D01*
X87650D01*
Y82503D01*
X87497D01*
Y82351D01*
X87344D01*
Y82198D01*
Y82045D01*
Y81892D01*
X87192D01*
Y81740D01*
X87039D01*
Y81587D01*
X86886D01*
Y81434D01*
Y81281D01*
X86581D01*
Y81129D01*
X86733D01*
Y80976D01*
X86581D01*
Y80823D01*
X86428D01*
Y80670D01*
X86275D01*
Y80518D01*
X86122D01*
Y80365D01*
X85664D01*
Y80212D01*
X85511D01*
Y80365D01*
X84747D01*
Y80518D01*
X84595D01*
Y80670D01*
X84442D01*
Y80823D01*
X84595D01*
Y80976D01*
X84442D01*
Y81129D01*
X84289D01*
Y81281D01*
Y81434D01*
Y81587D01*
X84136D01*
Y81740D01*
Y81892D01*
Y82045D01*
X83984D01*
Y82198D01*
Y82351D01*
Y82503D01*
X83831D01*
Y82656D01*
X83984D01*
Y82809D01*
X83831D01*
Y82962D01*
Y83114D01*
Y83267D01*
X83678D01*
Y83420D01*
Y83573D01*
Y83726D01*
X83831D01*
Y83878D01*
X83678D01*
Y84031D01*
X83831D01*
Y84184D01*
Y84337D01*
Y84489D01*
Y84642D01*
Y84795D01*
Y84948D01*
Y85100D01*
X83984D01*
Y85253D01*
X84136D01*
Y85406D01*
Y85559D01*
Y85711D01*
Y85864D01*
Y86017D01*
X84289D01*
Y86170D01*
X84136D01*
Y86322D01*
X84289D01*
Y86475D01*
X84136D01*
Y86628D01*
X84289D01*
Y86781D01*
X84136D01*
Y86933D01*
X84289D01*
Y87086D01*
X84136D01*
Y87239D01*
X84289D01*
Y87392D01*
X84442D01*
Y87545D01*
X84289D01*
Y87697D01*
X84442D01*
Y87850D01*
Y88003D01*
Y88156D01*
X84595D01*
Y88308D01*
Y88461D01*
Y88614D01*
X84747D01*
Y88767D01*
X84900D01*
Y88919D01*
X84747D01*
Y89072D01*
X84900D01*
Y89225D01*
X84136D01*
Y89378D01*
X83984D01*
Y89225D01*
X83831D01*
Y89378D01*
X83678D01*
Y89530D01*
Y89683D01*
Y89836D01*
X83525D01*
Y89989D01*
X83678D01*
Y90141D01*
X83525D01*
Y90294D01*
X83678D01*
Y90447D01*
X83525D01*
Y90600D01*
Y90753D01*
Y90905D01*
X83373D01*
Y91058D01*
X83220D01*
Y91211D01*
Y91364D01*
Y91516D01*
X83067D01*
Y91669D01*
X83220D01*
Y91822D01*
X83067D01*
Y91975D01*
Y92127D01*
X83220D01*
Y92280D01*
Y92433D01*
X83373D01*
Y92586D01*
X83525D01*
Y92738D01*
X83678D01*
Y92891D01*
X83525D01*
Y93044D01*
X83678D01*
Y93197D01*
X83831D01*
Y93349D01*
X83984D01*
Y93502D01*
X83831D01*
Y93655D01*
X83984D01*
Y93808D01*
X84136D01*
Y93960D01*
X84289D01*
Y94113D01*
X84136D01*
Y94266D01*
X84289D01*
Y94419D01*
X84442D01*
Y94572D01*
X84595D01*
Y94724D01*
Y94877D01*
Y95030D01*
X84747D01*
Y95183D01*
X84900D01*
Y95335D01*
Y95488D01*
Y95641D01*
X85053D01*
Y95794D01*
X85206D01*
Y95946D01*
Y96099D01*
Y96252D01*
X85359D01*
Y96405D01*
X85511D01*
Y96557D01*
X85664D01*
Y96710D01*
X85817D01*
Y96863D01*
X85970D01*
Y97016D01*
X86122D01*
Y96863D01*
D02*
G37*
G36*
X348980Y96710D02*
X349285D01*
Y96557D01*
Y96405D01*
X349438D01*
Y96252D01*
Y96099D01*
Y95946D01*
Y95794D01*
Y95641D01*
X349591D01*
Y95488D01*
X349438D01*
Y95335D01*
X349591D01*
Y95183D01*
Y95030D01*
Y94877D01*
X349438D01*
Y94724D01*
X349591D01*
Y94572D01*
Y94419D01*
Y94266D01*
X349743D01*
Y94113D01*
X349591D01*
Y93960D01*
X349743D01*
Y93808D01*
X349591D01*
Y93655D01*
X349743D01*
Y93502D01*
X349591D01*
Y93349D01*
X349743D01*
Y93197D01*
X349591D01*
Y93044D01*
X349743D01*
Y92891D01*
X349591D01*
Y92738D01*
X349743D01*
Y92586D01*
X349591D01*
Y92433D01*
X349743D01*
Y92280D01*
X349591D01*
Y92127D01*
X349743D01*
Y91975D01*
X349591D01*
Y91822D01*
X349743D01*
Y91669D01*
X349591D01*
Y91516D01*
X349743D01*
Y91364D01*
X349591D01*
Y91211D01*
X349743D01*
Y91058D01*
X349896D01*
Y91211D01*
X350049D01*
Y91364D01*
Y91516D01*
X350202D01*
Y91669D01*
Y91822D01*
X350354D01*
Y91975D01*
X350507D01*
Y92127D01*
X350660D01*
Y92280D01*
X350813D01*
Y92433D01*
X350965D01*
Y92586D01*
X351118D01*
Y92738D01*
X351271D01*
Y92891D01*
X351424D01*
Y93044D01*
X351729D01*
Y93197D01*
Y93349D01*
X351882D01*
Y93502D01*
X351729D01*
Y93655D01*
X351882D01*
Y93808D01*
Y93960D01*
X352035D01*
Y94113D01*
X352187D01*
Y94266D01*
X352493D01*
Y94419D01*
X352646D01*
Y94266D01*
X353104D01*
Y94113D01*
X353257D01*
Y93960D01*
X353410D01*
Y93808D01*
Y93655D01*
Y93502D01*
X353562D01*
Y93349D01*
Y93197D01*
Y93044D01*
X353410D01*
Y92891D01*
X353257D01*
Y92738D01*
X353410D01*
Y92586D01*
X353257D01*
Y92433D01*
X353104D01*
Y92280D01*
X352951D01*
Y92127D01*
Y91975D01*
X352799D01*
Y91822D01*
Y91669D01*
X352646D01*
Y91516D01*
X352493D01*
Y91364D01*
X352340D01*
Y91211D01*
X352187D01*
Y91058D01*
X352035D01*
Y90905D01*
Y90753D01*
X351729D01*
Y90600D01*
Y90447D01*
X351576D01*
Y90294D01*
Y90141D01*
X351424D01*
Y89989D01*
X351271D01*
Y89836D01*
X351118D01*
Y89683D01*
X350965D01*
Y89530D01*
X350813D01*
Y89378D01*
X350660D01*
Y89225D01*
X350507D01*
Y89072D01*
X350354D01*
Y88919D01*
X350202D01*
Y88767D01*
Y88614D01*
X349896D01*
Y88461D01*
X350049D01*
Y88308D01*
X349896D01*
Y88461D01*
X349743D01*
Y88308D01*
X349591D01*
Y88156D01*
X349743D01*
Y88003D01*
X349591D01*
Y87850D01*
Y87697D01*
X349438D01*
Y87545D01*
Y87392D01*
X349285D01*
Y87239D01*
X349438D01*
Y87086D01*
X349285D01*
Y86933D01*
X349438D01*
Y86781D01*
X349285D01*
Y86628D01*
X349438D01*
Y86475D01*
X349285D01*
Y86322D01*
Y86170D01*
Y86017D01*
X349438D01*
Y85864D01*
X349285D01*
Y85711D01*
Y85559D01*
Y85406D01*
X349438D01*
Y85253D01*
X349285D01*
Y85100D01*
Y84948D01*
Y84795D01*
Y84642D01*
Y84489D01*
Y84337D01*
Y84184D01*
Y84031D01*
Y83878D01*
Y83726D01*
Y83573D01*
X349132D01*
Y83420D01*
X349285D01*
Y83267D01*
X349132D01*
Y83114D01*
Y82962D01*
Y82809D01*
Y82656D01*
Y82503D01*
X348980D01*
Y82351D01*
X348827D01*
Y82198D01*
X348369D01*
Y82045D01*
X347910D01*
Y82198D01*
X347758D01*
Y82351D01*
Y82503D01*
Y82656D01*
X347605D01*
Y82809D01*
Y82962D01*
Y83114D01*
Y83267D01*
Y83420D01*
Y83573D01*
Y83726D01*
Y83878D01*
Y84031D01*
X347452D01*
Y84184D01*
X347605D01*
Y84337D01*
Y84489D01*
Y84642D01*
X347452D01*
Y84795D01*
X347605D01*
Y84948D01*
Y85100D01*
Y85253D01*
Y85406D01*
Y85559D01*
X347452D01*
Y85711D01*
X347299D01*
Y85559D01*
X347147D01*
Y85406D01*
X346994D01*
Y85253D01*
X346841D01*
Y85100D01*
X346688D01*
Y84948D01*
X346535D01*
Y84795D01*
Y84642D01*
X346230D01*
Y84489D01*
X346077D01*
Y84337D01*
X345924D01*
Y84184D01*
Y84031D01*
X345619D01*
Y83878D01*
X345466D01*
Y83726D01*
X345313D01*
Y83573D01*
X345161D01*
Y83420D01*
X344397D01*
Y83573D01*
X344244D01*
Y83726D01*
X343938D01*
Y83878D01*
Y84031D01*
X343786D01*
Y84184D01*
X343938D01*
Y84337D01*
X343786D01*
Y84489D01*
X343938D01*
Y84642D01*
X344091D01*
Y84795D01*
X344244D01*
Y84948D01*
X344397D01*
Y85100D01*
X344549D01*
Y85253D01*
X344702D01*
Y85406D01*
X344855D01*
Y85559D01*
Y85711D01*
X345161D01*
Y85864D01*
X345008D01*
Y86017D01*
X345466D01*
Y86170D01*
Y86322D01*
X345772D01*
Y86475D01*
X345619D01*
Y86628D01*
X346077D01*
Y86781D01*
Y86933D01*
X346383D01*
Y87086D01*
X346230D01*
Y87239D01*
X346688D01*
Y87392D01*
X346841D01*
Y87545D01*
X346994D01*
Y87697D01*
X347147D01*
Y87850D01*
X347299D01*
Y88003D01*
X347452D01*
Y88156D01*
Y88308D01*
Y88461D01*
X347605D01*
Y88614D01*
X347452D01*
Y88767D01*
X347605D01*
Y88919D01*
X347452D01*
Y89072D01*
X347605D01*
Y89225D01*
X347452D01*
Y89378D01*
X347605D01*
Y89530D01*
X347452D01*
Y89683D01*
X347605D01*
Y89836D01*
Y89989D01*
Y90141D01*
Y90294D01*
Y90447D01*
Y90600D01*
Y90753D01*
Y90905D01*
Y91058D01*
X347758D01*
Y91211D01*
X347605D01*
Y91364D01*
X347758D01*
Y91516D01*
Y91669D01*
Y91822D01*
X347910D01*
Y91975D01*
X347758D01*
Y92127D01*
Y92280D01*
Y92433D01*
Y92586D01*
Y92738D01*
Y92891D01*
Y93044D01*
X347605D01*
Y93197D01*
X347758D01*
Y93349D01*
Y93502D01*
Y93655D01*
Y93808D01*
Y93960D01*
X347910D01*
Y94113D01*
X347758D01*
Y94266D01*
Y94419D01*
Y94572D01*
Y94724D01*
Y94877D01*
X347910D01*
Y95030D01*
X347758D01*
Y95183D01*
X347910D01*
Y95335D01*
X347758D01*
Y95488D01*
X347910D01*
Y95641D01*
Y95794D01*
Y95946D01*
X348063D01*
Y96099D01*
Y96252D01*
Y96405D01*
X348369D01*
Y96557D01*
Y96710D01*
X348827D01*
Y96863D01*
X348980D01*
Y96710D01*
D02*
G37*
G36*
X77109D02*
X77415D01*
Y96557D01*
Y96405D01*
X77568D01*
Y96252D01*
Y96099D01*
Y95946D01*
Y95794D01*
Y95641D01*
X77720D01*
Y95488D01*
X77568D01*
Y95335D01*
X77720D01*
Y95183D01*
Y95030D01*
Y94877D01*
X77568D01*
Y94724D01*
X77720D01*
Y94572D01*
Y94419D01*
Y94266D01*
X77873D01*
Y94113D01*
X77720D01*
Y93960D01*
X77873D01*
Y93808D01*
X77720D01*
Y93655D01*
X77873D01*
Y93502D01*
X77720D01*
Y93349D01*
X77873D01*
Y93197D01*
X77720D01*
Y93044D01*
X77873D01*
Y92891D01*
X77720D01*
Y92738D01*
X77873D01*
Y92586D01*
X77720D01*
Y92433D01*
X77873D01*
Y92280D01*
X77720D01*
Y92127D01*
X77873D01*
Y91975D01*
X77720D01*
Y91822D01*
X77873D01*
Y91669D01*
X77720D01*
Y91516D01*
X77873D01*
Y91364D01*
X77720D01*
Y91211D01*
X77873D01*
Y91058D01*
X78026D01*
Y91211D01*
X78179D01*
Y91364D01*
Y91516D01*
X78332D01*
Y91669D01*
Y91822D01*
X78484D01*
Y91975D01*
X78637D01*
Y92127D01*
X78790D01*
Y92280D01*
X78943D01*
Y92433D01*
X79095D01*
Y92586D01*
X79248D01*
Y92738D01*
X79401D01*
Y92891D01*
X79554D01*
Y93044D01*
X79859D01*
Y93197D01*
Y93349D01*
X80012D01*
Y93502D01*
X79859D01*
Y93655D01*
X80012D01*
Y93808D01*
Y93960D01*
X80165D01*
Y94113D01*
X80317D01*
Y94266D01*
X80623D01*
Y94419D01*
X80776D01*
Y94266D01*
X81234D01*
Y94113D01*
X81387D01*
Y93960D01*
X81539D01*
Y93808D01*
Y93655D01*
Y93502D01*
X81692D01*
Y93349D01*
Y93197D01*
Y93044D01*
X81539D01*
Y92891D01*
X81387D01*
Y92738D01*
X81539D01*
Y92586D01*
X81387D01*
Y92433D01*
X81234D01*
Y92280D01*
X81081D01*
Y92127D01*
Y91975D01*
X80928D01*
Y91822D01*
Y91669D01*
X80776D01*
Y91516D01*
X80623D01*
Y91364D01*
X80470D01*
Y91211D01*
X80317D01*
Y91058D01*
X80165D01*
Y90905D01*
Y90753D01*
X79859D01*
Y90600D01*
Y90447D01*
X79706D01*
Y90294D01*
Y90141D01*
X79554D01*
Y89989D01*
X79401D01*
Y89836D01*
X79248D01*
Y89683D01*
X79095D01*
Y89530D01*
X78943D01*
Y89378D01*
X78790D01*
Y89225D01*
X78637D01*
Y89072D01*
X78484D01*
Y88919D01*
X78332D01*
Y88767D01*
Y88614D01*
X78026D01*
Y88461D01*
X78179D01*
Y88308D01*
X78026D01*
Y88461D01*
X77873D01*
Y88308D01*
X77720D01*
Y88156D01*
X77873D01*
Y88003D01*
X77720D01*
Y87850D01*
Y87697D01*
X77568D01*
Y87545D01*
Y87392D01*
X77415D01*
Y87239D01*
X77568D01*
Y87086D01*
X77415D01*
Y86933D01*
X77568D01*
Y86781D01*
X77415D01*
Y86628D01*
X77568D01*
Y86475D01*
X77415D01*
Y86322D01*
Y86170D01*
Y86017D01*
X77568D01*
Y85864D01*
X77415D01*
Y85711D01*
Y85559D01*
Y85406D01*
X77568D01*
Y85253D01*
X77415D01*
Y85100D01*
Y84948D01*
Y84795D01*
Y84642D01*
Y84489D01*
Y84337D01*
Y84184D01*
Y84031D01*
Y83878D01*
Y83726D01*
Y83573D01*
X77262D01*
Y83420D01*
X77415D01*
Y83267D01*
X77262D01*
Y83114D01*
Y82962D01*
Y82809D01*
Y82656D01*
Y82503D01*
X77109D01*
Y82351D01*
X76957D01*
Y82198D01*
X76499D01*
Y82045D01*
X76040D01*
Y82198D01*
X75887D01*
Y82351D01*
Y82503D01*
Y82656D01*
X75735D01*
Y82809D01*
Y82962D01*
Y83114D01*
Y83267D01*
Y83420D01*
Y83573D01*
Y83726D01*
Y83878D01*
Y84031D01*
X75582D01*
Y84184D01*
X75735D01*
Y84337D01*
Y84489D01*
Y84642D01*
X75582D01*
Y84795D01*
X75735D01*
Y84948D01*
Y85100D01*
Y85253D01*
Y85406D01*
Y85559D01*
X75582D01*
Y85711D01*
X75429D01*
Y85559D01*
X75276D01*
Y85406D01*
X75124D01*
Y85253D01*
X74971D01*
Y85100D01*
X74818D01*
Y84948D01*
X74665D01*
Y84795D01*
Y84642D01*
X74360D01*
Y84489D01*
X74207D01*
Y84337D01*
X74054D01*
Y84184D01*
Y84031D01*
X73749D01*
Y83878D01*
X73596D01*
Y83726D01*
X73443D01*
Y83573D01*
X73290D01*
Y83420D01*
X72527D01*
Y83573D01*
X72374D01*
Y83726D01*
X72068D01*
Y83878D01*
Y84031D01*
X71916D01*
Y84184D01*
X72068D01*
Y84337D01*
X71916D01*
Y84489D01*
X72068D01*
Y84642D01*
X72221D01*
Y84795D01*
X72374D01*
Y84948D01*
X72527D01*
Y85100D01*
X72679D01*
Y85253D01*
X72832D01*
Y85406D01*
X72985D01*
Y85559D01*
Y85711D01*
X73290D01*
Y85864D01*
X73138D01*
Y86017D01*
X73596D01*
Y86170D01*
Y86322D01*
X73901D01*
Y86475D01*
X73749D01*
Y86628D01*
X74207D01*
Y86781D01*
Y86933D01*
X74513D01*
Y87086D01*
X74360D01*
Y87239D01*
X74818D01*
Y87392D01*
X74971D01*
Y87545D01*
X75124D01*
Y87697D01*
X75276D01*
Y87850D01*
X75429D01*
Y88003D01*
X75582D01*
Y88156D01*
Y88308D01*
Y88461D01*
X75735D01*
Y88614D01*
X75582D01*
Y88767D01*
X75735D01*
Y88919D01*
X75582D01*
Y89072D01*
X75735D01*
Y89225D01*
X75582D01*
Y89378D01*
X75735D01*
Y89530D01*
X75582D01*
Y89683D01*
X75735D01*
Y89836D01*
Y89989D01*
Y90141D01*
Y90294D01*
Y90447D01*
Y90600D01*
Y90753D01*
Y90905D01*
Y91058D01*
X75887D01*
Y91211D01*
X75735D01*
Y91364D01*
X75887D01*
Y91516D01*
Y91669D01*
Y91822D01*
X76040D01*
Y91975D01*
X75887D01*
Y92127D01*
Y92280D01*
Y92433D01*
Y92586D01*
Y92738D01*
Y92891D01*
Y93044D01*
X75735D01*
Y93197D01*
X75887D01*
Y93349D01*
Y93502D01*
Y93655D01*
Y93808D01*
Y93960D01*
X76040D01*
Y94113D01*
X75887D01*
Y94266D01*
Y94419D01*
Y94572D01*
Y94724D01*
Y94877D01*
X76040D01*
Y95030D01*
X75887D01*
Y95183D01*
X76040D01*
Y95335D01*
X75887D01*
Y95488D01*
X76040D01*
Y95641D01*
Y95794D01*
Y95946D01*
X76193D01*
Y96099D01*
Y96252D01*
Y96405D01*
X76499D01*
Y96557D01*
Y96710D01*
X76957D01*
Y96863D01*
X77109D01*
Y96710D01*
D02*
G37*
G36*
X345619Y78379D02*
X345772D01*
Y78226D01*
X345924D01*
Y78379D01*
X346077D01*
Y78226D01*
X346230D01*
Y78073D01*
X346688D01*
Y77921D01*
X346841D01*
Y77768D01*
X346994D01*
Y77921D01*
X347147D01*
Y77768D01*
X347452D01*
Y77615D01*
Y77462D01*
X347910D01*
Y77310D01*
X348063D01*
Y77157D01*
X348521D01*
Y77004D01*
X348674D01*
Y76851D01*
X348827D01*
Y76699D01*
X348980D01*
Y76546D01*
X349438D01*
Y76393D01*
X349591D01*
Y76240D01*
X349743D01*
Y76087D01*
X349896D01*
Y76240D01*
X350049D01*
Y76087D01*
X350202D01*
Y75935D01*
X350354D01*
Y75782D01*
X350507D01*
Y75629D01*
X350813D01*
Y75476D01*
X350965D01*
Y75324D01*
X351271D01*
Y75171D01*
X351424D01*
Y75018D01*
X351576D01*
Y74865D01*
X351729D01*
Y74713D01*
X351882D01*
Y74560D01*
X352035D01*
Y74407D01*
X352187D01*
Y74254D01*
X352340D01*
Y74102D01*
X352493D01*
Y73949D01*
X352646D01*
Y73796D01*
X352799D01*
Y73643D01*
X352951D01*
Y73491D01*
X353104D01*
Y73338D01*
Y73185D01*
X353257D01*
Y73032D01*
Y72880D01*
X353410D01*
Y72727D01*
X353562D01*
Y72574D01*
X353410D01*
Y72421D01*
X353562D01*
Y72268D01*
Y72116D01*
Y71963D01*
X353715D01*
Y71810D01*
Y71658D01*
Y71505D01*
Y71352D01*
Y71199D01*
X353868D01*
Y71047D01*
X353715D01*
Y70894D01*
Y70741D01*
Y70588D01*
X353868D01*
Y70435D01*
X353715D01*
Y70283D01*
X353868D01*
Y70130D01*
Y69977D01*
Y69824D01*
X353715D01*
Y69672D01*
X353868D01*
Y69519D01*
Y69366D01*
Y69213D01*
X353715D01*
Y69061D01*
X353562D01*
Y68908D01*
X353715D01*
Y68755D01*
X353562D01*
Y68602D01*
Y68449D01*
Y68297D01*
X353410D01*
Y68144D01*
X353257D01*
Y67991D01*
Y67839D01*
X353104D01*
Y67686D01*
Y67533D01*
X352951D01*
Y67380D01*
X352799D01*
Y67228D01*
X352340D01*
Y67075D01*
X352187D01*
Y66922D01*
X352035D01*
Y66769D01*
X351729D01*
Y66616D01*
X351424D01*
Y66464D01*
X351271D01*
Y66311D01*
X350813D01*
Y66158D01*
X350507D01*
Y66005D01*
X350202D01*
Y65853D01*
X350049D01*
Y66005D01*
X349896D01*
Y65853D01*
X349743D01*
Y65700D01*
X349285D01*
Y65547D01*
X349132D01*
Y65700D01*
X348980D01*
Y65547D01*
X348827D01*
Y65700D01*
X348674D01*
Y65547D01*
X348521D01*
Y65700D01*
X348369D01*
Y65547D01*
X347910D01*
Y65394D01*
X347758D01*
Y65547D01*
X347605D01*
Y65394D01*
X346230D01*
Y65242D01*
X346077D01*
Y65394D01*
X345924D01*
Y65242D01*
X345772D01*
Y65394D01*
X345619D01*
Y65242D01*
X345466D01*
Y65394D01*
X344549D01*
Y65242D01*
Y65089D01*
X344397D01*
Y64936D01*
Y64783D01*
Y64631D01*
X344244D01*
Y64478D01*
Y64325D01*
Y64172D01*
X344091D01*
Y64020D01*
X343938D01*
Y63867D01*
X343786D01*
Y63714D01*
X343633D01*
Y63867D01*
X343175D01*
Y64020D01*
X343327D01*
Y64172D01*
X343175D01*
Y64325D01*
Y64478D01*
Y64631D01*
X343327D01*
Y64783D01*
X343175D01*
Y64936D01*
X343327D01*
Y65089D01*
X343175D01*
Y65242D01*
X343327D01*
Y65394D01*
X343480D01*
Y65547D01*
X343327D01*
Y65700D01*
X342869D01*
Y65853D01*
X342716D01*
Y66005D01*
X342564D01*
Y66158D01*
Y66311D01*
Y66464D01*
X342411D01*
Y66616D01*
X342564D01*
Y66769D01*
Y66922D01*
Y67075D01*
X343327D01*
Y66922D01*
Y66769D01*
X343633D01*
Y66922D01*
X343480D01*
Y67075D01*
X343633D01*
Y67228D01*
X343480D01*
Y67380D01*
X343633D01*
Y67533D01*
X343786D01*
Y67686D01*
Y67839D01*
Y67991D01*
X343938D01*
Y68144D01*
X343786D01*
Y68297D01*
X343938D01*
Y68449D01*
Y68602D01*
Y68755D01*
X344091D01*
Y68908D01*
Y69061D01*
Y69213D01*
X344244D01*
Y69366D01*
X344091D01*
Y69519D01*
X344244D01*
Y69672D01*
X344091D01*
Y69824D01*
X344244D01*
Y69977D01*
X344091D01*
Y70130D01*
X344244D01*
Y70283D01*
X344397D01*
Y70435D01*
Y70588D01*
Y70741D01*
X344549D01*
Y70894D01*
Y71047D01*
Y71199D01*
X344702D01*
Y71352D01*
X344855D01*
Y71505D01*
X344702D01*
Y71658D01*
X344855D01*
Y71810D01*
Y71963D01*
Y72116D01*
X345008D01*
Y72268D01*
Y72421D01*
Y72574D01*
X345161D01*
Y72727D01*
Y72880D01*
Y73032D01*
X345313D01*
Y73185D01*
X345466D01*
Y73338D01*
X345313D01*
Y73491D01*
X345466D01*
Y73643D01*
X345619D01*
Y73796D01*
Y73949D01*
Y74102D01*
Y74254D01*
Y74407D01*
X345772D01*
Y74560D01*
X345619D01*
Y74713D01*
X345772D01*
Y74865D01*
X345619D01*
Y75018D01*
X345772D01*
Y75171D01*
X345924D01*
Y75324D01*
X346077D01*
Y75476D01*
Y75629D01*
Y75782D01*
X346230D01*
Y75935D01*
X346383D01*
Y76087D01*
X346230D01*
Y76240D01*
X346383D01*
Y76393D01*
X346535D01*
Y76546D01*
X346383D01*
Y76699D01*
X346230D01*
Y76546D01*
X346077D01*
Y76699D01*
X345619D01*
Y76851D01*
X345466D01*
Y77004D01*
X345008D01*
Y77157D01*
X344855D01*
Y77310D01*
X344702D01*
Y77462D01*
Y77615D01*
Y77768D01*
X344549D01*
Y77921D01*
X344702D01*
Y78073D01*
X344855D01*
Y78226D01*
X345008D01*
Y78379D01*
X345161D01*
Y78532D01*
X345313D01*
Y78379D01*
X345466D01*
Y78532D01*
X345619D01*
Y78379D01*
D02*
G37*
G36*
X73749D02*
X73901D01*
Y78226D01*
X74054D01*
Y78379D01*
X74207D01*
Y78226D01*
X74360D01*
Y78073D01*
X74818D01*
Y77921D01*
X74971D01*
Y77768D01*
X75124D01*
Y77921D01*
X75276D01*
Y77768D01*
X75582D01*
Y77615D01*
Y77462D01*
X76040D01*
Y77310D01*
X76193D01*
Y77157D01*
X76651D01*
Y77004D01*
X76804D01*
Y76851D01*
X76957D01*
Y76699D01*
X77109D01*
Y76546D01*
X77568D01*
Y76393D01*
X77720D01*
Y76240D01*
X77873D01*
Y76087D01*
X78026D01*
Y76240D01*
X78179D01*
Y76087D01*
X78332D01*
Y75935D01*
X78484D01*
Y75782D01*
X78637D01*
Y75629D01*
X78943D01*
Y75476D01*
X79095D01*
Y75324D01*
X79401D01*
Y75171D01*
X79554D01*
Y75018D01*
X79706D01*
Y74865D01*
X79859D01*
Y74713D01*
X80012D01*
Y74560D01*
X80165D01*
Y74407D01*
X80317D01*
Y74254D01*
X80470D01*
Y74102D01*
X80623D01*
Y73949D01*
X80776D01*
Y73796D01*
X80928D01*
Y73643D01*
X81081D01*
Y73491D01*
X81234D01*
Y73338D01*
Y73185D01*
X81387D01*
Y73032D01*
Y72880D01*
X81539D01*
Y72727D01*
X81692D01*
Y72574D01*
X81539D01*
Y72421D01*
X81692D01*
Y72268D01*
Y72116D01*
Y71963D01*
X81845D01*
Y71810D01*
Y71658D01*
Y71505D01*
Y71352D01*
Y71199D01*
X81998D01*
Y71047D01*
X81845D01*
Y70894D01*
Y70741D01*
Y70588D01*
X81998D01*
Y70435D01*
X81845D01*
Y70283D01*
X81998D01*
Y70130D01*
Y69977D01*
Y69824D01*
X81845D01*
Y69672D01*
X81998D01*
Y69519D01*
Y69366D01*
Y69213D01*
X81845D01*
Y69061D01*
X81692D01*
Y68908D01*
X81845D01*
Y68755D01*
X81692D01*
Y68602D01*
Y68449D01*
Y68297D01*
X81539D01*
Y68144D01*
X81387D01*
Y67991D01*
Y67839D01*
X81234D01*
Y67686D01*
Y67533D01*
X81081D01*
Y67380D01*
X80928D01*
Y67228D01*
X80470D01*
Y67075D01*
X80317D01*
Y66922D01*
X80165D01*
Y66769D01*
X79859D01*
Y66616D01*
X79554D01*
Y66464D01*
X79401D01*
Y66311D01*
X78943D01*
Y66158D01*
X78637D01*
Y66005D01*
X78332D01*
Y65853D01*
X78179D01*
Y66005D01*
X78026D01*
Y65853D01*
X77873D01*
Y65700D01*
X77415D01*
Y65547D01*
X77262D01*
Y65700D01*
X77109D01*
Y65547D01*
X76957D01*
Y65700D01*
X76804D01*
Y65547D01*
X76651D01*
Y65700D01*
X76499D01*
Y65547D01*
X76040D01*
Y65394D01*
X75887D01*
Y65547D01*
X75735D01*
Y65394D01*
X74360D01*
Y65242D01*
X74207D01*
Y65394D01*
X74054D01*
Y65242D01*
X73901D01*
Y65394D01*
X73749D01*
Y65242D01*
X73596D01*
Y65394D01*
X72679D01*
Y65242D01*
Y65089D01*
X72527D01*
Y64936D01*
Y64783D01*
Y64631D01*
X72374D01*
Y64478D01*
Y64325D01*
Y64172D01*
X72221D01*
Y64020D01*
X72068D01*
Y63867D01*
X71916D01*
Y63714D01*
X71763D01*
Y63867D01*
X71305D01*
Y64020D01*
X71457D01*
Y64172D01*
X71305D01*
Y64325D01*
Y64478D01*
Y64631D01*
X71457D01*
Y64783D01*
X71305D01*
Y64936D01*
X71457D01*
Y65089D01*
X71305D01*
Y65242D01*
X71457D01*
Y65394D01*
X71610D01*
Y65547D01*
X71457D01*
Y65700D01*
X70999D01*
Y65853D01*
X70846D01*
Y66005D01*
X70694D01*
Y66158D01*
Y66311D01*
Y66464D01*
X70541D01*
Y66616D01*
X70694D01*
Y66769D01*
Y66922D01*
Y67075D01*
X71457D01*
Y66922D01*
Y66769D01*
X71763D01*
Y66922D01*
X71610D01*
Y67075D01*
X71763D01*
Y67228D01*
X71610D01*
Y67380D01*
X71763D01*
Y67533D01*
X71916D01*
Y67686D01*
Y67839D01*
Y67991D01*
X72068D01*
Y68144D01*
X71916D01*
Y68297D01*
X72068D01*
Y68449D01*
Y68602D01*
Y68755D01*
X72221D01*
Y68908D01*
Y69061D01*
Y69213D01*
X72374D01*
Y69366D01*
X72221D01*
Y69519D01*
X72374D01*
Y69672D01*
X72221D01*
Y69824D01*
X72374D01*
Y69977D01*
X72221D01*
Y70130D01*
X72374D01*
Y70283D01*
X72527D01*
Y70435D01*
Y70588D01*
Y70741D01*
X72679D01*
Y70894D01*
Y71047D01*
Y71199D01*
X72832D01*
Y71352D01*
X72985D01*
Y71505D01*
X72832D01*
Y71658D01*
X72985D01*
Y71810D01*
Y71963D01*
Y72116D01*
X73138D01*
Y72268D01*
Y72421D01*
Y72574D01*
X73290D01*
Y72727D01*
Y72880D01*
Y73032D01*
X73443D01*
Y73185D01*
X73596D01*
Y73338D01*
X73443D01*
Y73491D01*
X73596D01*
Y73643D01*
X73749D01*
Y73796D01*
Y73949D01*
Y74102D01*
Y74254D01*
Y74407D01*
X73901D01*
Y74560D01*
X73749D01*
Y74713D01*
X73901D01*
Y74865D01*
X73749D01*
Y75018D01*
X73901D01*
Y75171D01*
X74054D01*
Y75324D01*
X74207D01*
Y75476D01*
Y75629D01*
Y75782D01*
X74360D01*
Y75935D01*
X74513D01*
Y76087D01*
X74360D01*
Y76240D01*
X74513D01*
Y76393D01*
X74665D01*
Y76546D01*
X74513D01*
Y76699D01*
X74360D01*
Y76546D01*
X74207D01*
Y76699D01*
X73749D01*
Y76851D01*
X73596D01*
Y77004D01*
X73138D01*
Y77157D01*
X72985D01*
Y77310D01*
X72832D01*
Y77462D01*
Y77615D01*
Y77768D01*
X72679D01*
Y77921D01*
X72832D01*
Y78073D01*
X72985D01*
Y78226D01*
X73138D01*
Y78379D01*
X73290D01*
Y78532D01*
X73443D01*
Y78379D01*
X73596D01*
Y78532D01*
X73749D01*
Y78379D01*
D02*
G37*
G36*
X358298Y78226D02*
X358451D01*
Y78073D01*
X359214D01*
Y77921D01*
X359673D01*
Y77768D01*
X359825D01*
Y77615D01*
X359673D01*
Y77462D01*
X359825D01*
Y77310D01*
Y77157D01*
Y77004D01*
X359673D01*
Y76851D01*
X359520D01*
Y76699D01*
X359367D01*
Y76546D01*
X359520D01*
Y76393D01*
X359673D01*
Y76240D01*
X360131D01*
Y76087D01*
X360284D01*
Y75935D01*
X360437D01*
Y75782D01*
X360589D01*
Y75629D01*
X360895D01*
Y75476D01*
X361048D01*
Y75324D01*
X361353D01*
Y75171D01*
X361506D01*
Y75018D01*
X361964D01*
Y74865D01*
X362117D01*
Y74713D01*
X362270D01*
Y74560D01*
Y74407D01*
Y74254D01*
X362422D01*
Y74102D01*
X362270D01*
Y73949D01*
X362117D01*
Y73796D01*
X361964D01*
Y73643D01*
X361811D01*
Y73491D01*
X361964D01*
Y73338D01*
X361506D01*
Y73185D01*
X361353D01*
Y73338D01*
X361200D01*
Y73491D01*
X361048D01*
Y73643D01*
X360589D01*
Y73796D01*
X360437D01*
Y73949D01*
X359978D01*
Y74102D01*
X359825D01*
Y74254D01*
X359673D01*
Y74407D01*
X359367D01*
Y74560D01*
X359062D01*
Y74407D01*
X359214D01*
Y74254D01*
X359062D01*
Y74102D01*
X358909D01*
Y73949D01*
X359062D01*
Y73796D01*
X358909D01*
Y73643D01*
Y73491D01*
Y73338D01*
X358756D01*
Y73185D01*
Y73032D01*
Y72880D01*
X358604D01*
Y72727D01*
X358451D01*
Y72574D01*
X358604D01*
Y72421D01*
X358451D01*
Y72268D01*
X358298D01*
Y72116D01*
Y71963D01*
Y71810D01*
X358451D01*
Y71658D01*
X358604D01*
Y71810D01*
X358756D01*
Y71658D01*
X359214D01*
Y71505D01*
X359673D01*
Y71352D01*
X359825D01*
Y71199D01*
X359978D01*
Y71047D01*
X360284D01*
Y70894D01*
Y70741D01*
X360742D01*
Y70588D01*
X360895D01*
Y70435D01*
X361353D01*
Y70283D01*
X361506D01*
Y70130D01*
X361811D01*
Y69977D01*
Y69824D01*
X362117D01*
Y69672D01*
Y69519D01*
X362270D01*
Y69366D01*
X362117D01*
Y69213D01*
Y69061D01*
X361964D01*
Y68908D01*
Y68755D01*
X361200D01*
Y68908D01*
X361048D01*
Y69061D01*
X360589D01*
Y69213D01*
X360437D01*
Y69366D01*
X359978D01*
Y69519D01*
X359825D01*
Y69672D01*
X359367D01*
Y69824D01*
X359214D01*
Y69977D01*
X359062D01*
Y70130D01*
X358909D01*
Y70283D01*
X358756D01*
Y70435D01*
X357992D01*
Y70588D01*
X357534D01*
Y70741D01*
X357381D01*
Y70894D01*
X357229D01*
Y70741D01*
X357381D01*
Y70588D01*
X357229D01*
Y70435D01*
Y70283D01*
Y70130D01*
Y69977D01*
Y69824D01*
Y69672D01*
Y69519D01*
X357076D01*
Y69366D01*
Y69213D01*
Y69061D01*
X356923D01*
Y68908D01*
X357076D01*
Y68755D01*
X356923D01*
Y68602D01*
X357076D01*
Y68449D01*
X356923D01*
Y68297D01*
Y68144D01*
Y67991D01*
Y67839D01*
Y67686D01*
Y67533D01*
Y67380D01*
X357076D01*
Y67533D01*
X357229D01*
Y67380D01*
X357381D01*
Y67533D01*
X357534D01*
Y67380D01*
X357687D01*
Y67533D01*
X357840D01*
Y67380D01*
X358298D01*
Y67228D01*
X358451D01*
Y67075D01*
X358909D01*
Y66922D01*
X359062D01*
Y66769D01*
X359520D01*
Y66616D01*
X359673D01*
Y66464D01*
X360131D01*
Y66311D01*
X360284D01*
Y66464D01*
X360437D01*
Y66311D01*
X360589D01*
Y66464D01*
X360742D01*
Y66311D01*
X360895D01*
Y66158D01*
Y66005D01*
Y65853D01*
X361048D01*
Y65700D01*
X361200D01*
Y65547D01*
Y65394D01*
X361048D01*
Y65242D01*
Y65089D01*
X360895D01*
Y64936D01*
Y64783D01*
X360742D01*
Y64631D01*
Y64478D01*
X360284D01*
Y64631D01*
X360131D01*
Y64478D01*
X359978D01*
Y64631D01*
X359825D01*
Y64783D01*
X359673D01*
Y64631D01*
X359520D01*
Y64783D01*
X359062D01*
Y64936D01*
X358909D01*
Y65089D01*
X358756D01*
Y64936D01*
X358604D01*
Y65089D01*
X358145D01*
Y65242D01*
X357992D01*
Y65394D01*
X357534D01*
Y65547D01*
X357381D01*
Y65700D01*
X356923D01*
Y65853D01*
X356770D01*
Y66005D01*
X356618D01*
Y65853D01*
X356465D01*
Y65700D01*
Y65547D01*
Y65394D01*
Y65242D01*
Y65089D01*
X356312D01*
Y64936D01*
X355243D01*
Y64783D01*
X355090D01*
Y64936D01*
X354937D01*
Y65089D01*
X354632D01*
Y65242D01*
Y65394D01*
X354479D01*
Y65547D01*
X354632D01*
Y65700D01*
Y65853D01*
Y66005D01*
Y66158D01*
Y66311D01*
X354784D01*
Y66464D01*
X354632D01*
Y66616D01*
X354784D01*
Y66769D01*
X354632D01*
Y66922D01*
X354784D01*
Y67075D01*
X354632D01*
Y67228D01*
X354784D01*
Y67380D01*
Y67533D01*
Y67686D01*
X354937D01*
Y67839D01*
X354784D01*
Y67991D01*
X354937D01*
Y68144D01*
Y68297D01*
Y68449D01*
X355090D01*
Y68602D01*
Y68755D01*
Y68908D01*
X355243D01*
Y69061D01*
X355090D01*
Y69213D01*
X355243D01*
Y69366D01*
X355090D01*
Y69519D01*
X355243D01*
Y69672D01*
Y69824D01*
Y69977D01*
X355396D01*
Y70130D01*
Y70283D01*
Y70435D01*
Y70588D01*
Y70741D01*
X355548D01*
Y70894D01*
X355396D01*
Y71047D01*
X355548D01*
Y71199D01*
X355396D01*
Y71352D01*
X355548D01*
Y71505D01*
X355396D01*
Y71658D01*
X355548D01*
Y71810D01*
X355396D01*
Y71963D01*
X355548D01*
Y72116D01*
Y72268D01*
Y72421D01*
Y72574D01*
Y72727D01*
X355701D01*
Y72880D01*
X355548D01*
Y73032D01*
X355701D01*
Y73185D01*
X355854D01*
Y73338D01*
X356007D01*
Y73185D01*
X356159D01*
Y73338D01*
X356312D01*
Y73491D01*
X356465D01*
Y73643D01*
X356312D01*
Y73796D01*
X356465D01*
Y73949D01*
Y74102D01*
X356618D01*
Y74254D01*
Y74407D01*
X356770D01*
Y74560D01*
X356618D01*
Y74713D01*
X356770D01*
Y74865D01*
Y75018D01*
Y75171D01*
X356923D01*
Y75324D01*
Y75476D01*
Y75629D01*
X357076D01*
Y75782D01*
X356923D01*
Y75935D01*
X357076D01*
Y76087D01*
Y76240D01*
X356923D01*
Y76393D01*
X356618D01*
Y76546D01*
Y76699D01*
Y76851D01*
X356770D01*
Y77004D01*
X356618D01*
Y77157D01*
X356770D01*
Y77310D01*
X356923D01*
Y77462D01*
X357381D01*
Y77310D01*
X357534D01*
Y77157D01*
X357687D01*
Y77310D01*
X357840D01*
Y77462D01*
X357687D01*
Y77615D01*
X357840D01*
Y77768D01*
Y77921D01*
Y78073D01*
X358145D01*
Y78226D01*
Y78379D01*
X358298D01*
Y78226D01*
D02*
G37*
G36*
X86428D02*
X86581D01*
Y78073D01*
X87344D01*
Y77921D01*
X87803D01*
Y77768D01*
X87955D01*
Y77615D01*
X87803D01*
Y77462D01*
X87955D01*
Y77310D01*
Y77157D01*
Y77004D01*
X87803D01*
Y76851D01*
X87650D01*
Y76699D01*
X87497D01*
Y76546D01*
X87650D01*
Y76393D01*
X87803D01*
Y76240D01*
X88261D01*
Y76087D01*
X88414D01*
Y75935D01*
X88566D01*
Y75782D01*
X88719D01*
Y75629D01*
X89025D01*
Y75476D01*
X89178D01*
Y75324D01*
X89483D01*
Y75171D01*
X89636D01*
Y75018D01*
X90094D01*
Y74865D01*
X90247D01*
Y74713D01*
X90400D01*
Y74560D01*
Y74407D01*
Y74254D01*
X90552D01*
Y74102D01*
X90400D01*
Y73949D01*
X90247D01*
Y73796D01*
X90094D01*
Y73643D01*
X89941D01*
Y73491D01*
X90094D01*
Y73338D01*
X89636D01*
Y73185D01*
X89483D01*
Y73338D01*
X89330D01*
Y73491D01*
X89178D01*
Y73643D01*
X88719D01*
Y73796D01*
X88566D01*
Y73949D01*
X88108D01*
Y74102D01*
X87955D01*
Y74254D01*
X87803D01*
Y74407D01*
X87497D01*
Y74560D01*
X87192D01*
Y74407D01*
X87344D01*
Y74254D01*
X87192D01*
Y74102D01*
X87039D01*
Y73949D01*
X87192D01*
Y73796D01*
X87039D01*
Y73643D01*
Y73491D01*
Y73338D01*
X86886D01*
Y73185D01*
Y73032D01*
Y72880D01*
X86733D01*
Y72727D01*
X86581D01*
Y72574D01*
X86733D01*
Y72421D01*
X86581D01*
Y72268D01*
X86428D01*
Y72116D01*
Y71963D01*
Y71810D01*
X86581D01*
Y71658D01*
X86733D01*
Y71810D01*
X86886D01*
Y71658D01*
X87344D01*
Y71505D01*
X87803D01*
Y71352D01*
X87955D01*
Y71199D01*
X88108D01*
Y71047D01*
X88414D01*
Y70894D01*
Y70741D01*
X88872D01*
Y70588D01*
X89025D01*
Y70435D01*
X89483D01*
Y70283D01*
X89636D01*
Y70130D01*
X89941D01*
Y69977D01*
Y69824D01*
X90247D01*
Y69672D01*
Y69519D01*
X90400D01*
Y69366D01*
X90247D01*
Y69213D01*
Y69061D01*
X90094D01*
Y68908D01*
Y68755D01*
X89330D01*
Y68908D01*
X89178D01*
Y69061D01*
X88719D01*
Y69213D01*
X88566D01*
Y69366D01*
X88108D01*
Y69519D01*
X87955D01*
Y69672D01*
X87497D01*
Y69824D01*
X87344D01*
Y69977D01*
X87192D01*
Y70130D01*
X87039D01*
Y70283D01*
X86886D01*
Y70435D01*
X86122D01*
Y70588D01*
X85664D01*
Y70741D01*
X85511D01*
Y70894D01*
X85359D01*
Y70741D01*
X85511D01*
Y70588D01*
X85359D01*
Y70435D01*
Y70283D01*
Y70130D01*
Y69977D01*
Y69824D01*
Y69672D01*
Y69519D01*
X85206D01*
Y69366D01*
Y69213D01*
Y69061D01*
X85053D01*
Y68908D01*
X85206D01*
Y68755D01*
X85053D01*
Y68602D01*
X85206D01*
Y68449D01*
X85053D01*
Y68297D01*
Y68144D01*
Y67991D01*
Y67839D01*
Y67686D01*
Y67533D01*
Y67380D01*
X85206D01*
Y67533D01*
X85359D01*
Y67380D01*
X85511D01*
Y67533D01*
X85664D01*
Y67380D01*
X85817D01*
Y67533D01*
X85970D01*
Y67380D01*
X86428D01*
Y67228D01*
X86581D01*
Y67075D01*
X87039D01*
Y66922D01*
X87192D01*
Y66769D01*
X87650D01*
Y66616D01*
X87803D01*
Y66464D01*
X88261D01*
Y66311D01*
X88414D01*
Y66464D01*
X88566D01*
Y66311D01*
X88719D01*
Y66464D01*
X88872D01*
Y66311D01*
X89025D01*
Y66158D01*
Y66005D01*
Y65853D01*
X89178D01*
Y65700D01*
X89330D01*
Y65547D01*
Y65394D01*
X89178D01*
Y65242D01*
Y65089D01*
X89025D01*
Y64936D01*
Y64783D01*
X88872D01*
Y64631D01*
Y64478D01*
X88414D01*
Y64631D01*
X88261D01*
Y64478D01*
X88108D01*
Y64631D01*
X87955D01*
Y64783D01*
X87803D01*
Y64631D01*
X87650D01*
Y64783D01*
X87192D01*
Y64936D01*
X87039D01*
Y65089D01*
X86886D01*
Y64936D01*
X86733D01*
Y65089D01*
X86275D01*
Y65242D01*
X86122D01*
Y65394D01*
X85664D01*
Y65547D01*
X85511D01*
Y65700D01*
X85053D01*
Y65853D01*
X84900D01*
Y66005D01*
X84747D01*
Y65853D01*
X84595D01*
Y65700D01*
Y65547D01*
Y65394D01*
Y65242D01*
Y65089D01*
X84442D01*
Y64936D01*
X83373D01*
Y64783D01*
X83220D01*
Y64936D01*
X83067D01*
Y65089D01*
X82762D01*
Y65242D01*
Y65394D01*
X82609D01*
Y65547D01*
X82762D01*
Y65700D01*
Y65853D01*
Y66005D01*
Y66158D01*
Y66311D01*
X82914D01*
Y66464D01*
X82762D01*
Y66616D01*
X82914D01*
Y66769D01*
X82762D01*
Y66922D01*
X82914D01*
Y67075D01*
X82762D01*
Y67228D01*
X82914D01*
Y67380D01*
Y67533D01*
Y67686D01*
X83067D01*
Y67839D01*
X82914D01*
Y67991D01*
X83067D01*
Y68144D01*
Y68297D01*
Y68449D01*
X83220D01*
Y68602D01*
Y68755D01*
Y68908D01*
X83373D01*
Y69061D01*
X83220D01*
Y69213D01*
X83373D01*
Y69366D01*
X83220D01*
Y69519D01*
X83373D01*
Y69672D01*
Y69824D01*
Y69977D01*
X83525D01*
Y70130D01*
Y70283D01*
Y70435D01*
Y70588D01*
Y70741D01*
X83678D01*
Y70894D01*
X83525D01*
Y71047D01*
X83678D01*
Y71199D01*
X83525D01*
Y71352D01*
X83678D01*
Y71505D01*
X83525D01*
Y71658D01*
X83678D01*
Y71810D01*
X83525D01*
Y71963D01*
X83678D01*
Y72116D01*
Y72268D01*
Y72421D01*
Y72574D01*
Y72727D01*
X83831D01*
Y72880D01*
X83678D01*
Y73032D01*
X83831D01*
Y73185D01*
X83984D01*
Y73338D01*
X84136D01*
Y73185D01*
X84289D01*
Y73338D01*
X84442D01*
Y73491D01*
X84595D01*
Y73643D01*
X84442D01*
Y73796D01*
X84595D01*
Y73949D01*
Y74102D01*
X84747D01*
Y74254D01*
Y74407D01*
X84900D01*
Y74560D01*
X84747D01*
Y74713D01*
X84900D01*
Y74865D01*
Y75018D01*
Y75171D01*
X85053D01*
Y75324D01*
Y75476D01*
Y75629D01*
X85206D01*
Y75782D01*
X85053D01*
Y75935D01*
X85206D01*
Y76087D01*
Y76240D01*
X85053D01*
Y76393D01*
X84747D01*
Y76546D01*
Y76699D01*
Y76851D01*
X84900D01*
Y77004D01*
X84747D01*
Y77157D01*
X84900D01*
Y77310D01*
X85053D01*
Y77462D01*
X85511D01*
Y77310D01*
X85664D01*
Y77157D01*
X85817D01*
Y77310D01*
X85970D01*
Y77462D01*
X85817D01*
Y77615D01*
X85970D01*
Y77768D01*
Y77921D01*
Y78073D01*
X86275D01*
Y78226D01*
Y78379D01*
X86428D01*
Y78226D01*
D02*
G37*
G36*
X338134Y77310D02*
X338592D01*
Y77157D01*
X339050D01*
Y77004D01*
X339203D01*
Y76851D01*
X339661D01*
Y76699D01*
X339814D01*
Y76546D01*
X339967D01*
Y76393D01*
X340120D01*
Y76240D01*
X340272D01*
Y76087D01*
X340425D01*
Y75935D01*
X340578D01*
Y75782D01*
Y75629D01*
Y75476D01*
X340731D01*
Y75324D01*
Y75171D01*
Y75018D01*
X340883D01*
Y74865D01*
Y74713D01*
Y74560D01*
X341036D01*
Y74407D01*
Y74254D01*
Y74102D01*
X341189D01*
Y73949D01*
Y73796D01*
Y73643D01*
Y73491D01*
Y73338D01*
X341342D01*
Y73185D01*
X341189D01*
Y73032D01*
Y72880D01*
Y72727D01*
X341342D01*
Y72574D01*
X341494D01*
Y72421D01*
X341342D01*
Y72268D01*
Y72116D01*
Y71963D01*
X341189D01*
Y71810D01*
X341036D01*
Y71658D01*
Y71505D01*
Y71352D01*
X340883D01*
Y71199D01*
X340731D01*
Y71047D01*
X340883D01*
Y70894D01*
X340731D01*
Y70741D01*
X340578D01*
Y70588D01*
Y70435D01*
Y70283D01*
X340425D01*
Y70130D01*
X340272D01*
Y69977D01*
X340120D01*
Y69824D01*
Y69672D01*
X339967D01*
Y69519D01*
Y69366D01*
X339814D01*
Y69213D01*
X339967D01*
Y69061D01*
X339814D01*
Y68908D01*
X339661D01*
Y68755D01*
X339509D01*
Y68602D01*
Y68449D01*
X339356D01*
Y68297D01*
X339203D01*
Y68144D01*
X339050D01*
Y67991D01*
Y67839D01*
X338897D01*
Y67686D01*
X338745D01*
Y67533D01*
X338592D01*
Y67380D01*
X338439D01*
Y67228D01*
X338286D01*
Y67075D01*
X338439D01*
Y66922D01*
X337981D01*
Y66769D01*
X337828D01*
Y66616D01*
X337675D01*
Y66464D01*
X337523D01*
Y66311D01*
X337370D01*
Y66158D01*
X337064D01*
Y66005D01*
X336759D01*
Y65853D01*
X336606D01*
Y65700D01*
X336453D01*
Y65547D01*
X336300D01*
Y65700D01*
X336148D01*
Y65547D01*
X335995D01*
Y65394D01*
X335537D01*
Y65242D01*
X335384D01*
Y65089D01*
X334926D01*
Y64936D01*
X334773D01*
Y64783D01*
X334315D01*
Y64631D01*
X334162D01*
Y64478D01*
X334009D01*
Y64631D01*
X333856D01*
Y64478D01*
X333398D01*
Y64325D01*
X333245D01*
Y64478D01*
X333093D01*
Y64325D01*
X332940D01*
Y64172D01*
X332787D01*
Y64325D01*
X332634D01*
Y64172D01*
X332482D01*
Y64325D01*
X332023D01*
Y64478D01*
X331565D01*
Y64631D01*
X331259D01*
Y64783D01*
X330954D01*
Y64936D01*
X330801D01*
Y65089D01*
X330343D01*
Y65242D01*
X330496D01*
Y65394D01*
X330190D01*
Y65547D01*
Y65700D01*
X330037D01*
Y65853D01*
Y66005D01*
X329885D01*
Y66158D01*
Y66311D01*
X329732D01*
Y66464D01*
Y66616D01*
Y66769D01*
X329579D01*
Y66922D01*
Y67075D01*
Y67228D01*
X329426D01*
Y67380D01*
Y67533D01*
Y67686D01*
X329274D01*
Y67839D01*
X329426D01*
Y67991D01*
X329274D01*
Y68144D01*
Y68297D01*
Y68449D01*
X329121D01*
Y68602D01*
X329274D01*
Y68755D01*
X329121D01*
Y68908D01*
X329274D01*
Y69061D01*
Y69213D01*
Y69366D01*
X329121D01*
Y69519D01*
X329274D01*
Y69672D01*
X329426D01*
Y69824D01*
Y69977D01*
Y70130D01*
X329579D01*
Y70283D01*
X329732D01*
Y70435D01*
Y70588D01*
Y70741D01*
X329885D01*
Y70894D01*
X330037D01*
Y71047D01*
Y71199D01*
Y71352D01*
X330190D01*
Y71505D01*
X330037D01*
Y71658D01*
X330343D01*
Y71810D01*
Y71963D01*
X330496D01*
Y72116D01*
X330648D01*
Y72268D01*
X330801D01*
Y72421D01*
Y72574D01*
Y72727D01*
X330954D01*
Y72880D01*
X331107D01*
Y73032D01*
X330954D01*
Y73185D01*
X331107D01*
Y73338D01*
X331259D01*
Y73491D01*
X331412D01*
Y73643D01*
X331565D01*
Y73796D01*
X331718D01*
Y73949D01*
X331871D01*
Y74102D01*
X332023D01*
Y74254D01*
X332176D01*
Y74407D01*
X332329D01*
Y74560D01*
Y74713D01*
X332634D01*
Y74865D01*
Y75018D01*
X332940D01*
Y75171D01*
X333093D01*
Y75324D01*
X333245D01*
Y75476D01*
X333398D01*
Y75629D01*
X333704D01*
Y75782D01*
X333856D01*
Y75935D01*
X334162D01*
Y76087D01*
X334620D01*
Y76240D01*
X335078D01*
Y76393D01*
X335231D01*
Y76546D01*
X335384D01*
Y76699D01*
X335537D01*
Y76546D01*
X335689D01*
Y76699D01*
X335842D01*
Y76851D01*
X335995D01*
Y77004D01*
X336148D01*
Y76851D01*
X336300D01*
Y77004D01*
X336453D01*
Y77157D01*
X336606D01*
Y77004D01*
X336759D01*
Y77157D01*
X337217D01*
Y77310D01*
X337675D01*
Y77462D01*
X338134D01*
Y77310D01*
D02*
G37*
G36*
X66264D02*
X66722D01*
Y77157D01*
X67180D01*
Y77004D01*
X67333D01*
Y76851D01*
X67791D01*
Y76699D01*
X67944D01*
Y76546D01*
X68097D01*
Y76393D01*
X68249D01*
Y76240D01*
X68402D01*
Y76087D01*
X68555D01*
Y75935D01*
X68708D01*
Y75782D01*
Y75629D01*
Y75476D01*
X68861D01*
Y75324D01*
Y75171D01*
Y75018D01*
X69013D01*
Y74865D01*
Y74713D01*
Y74560D01*
X69166D01*
Y74407D01*
Y74254D01*
Y74102D01*
X69319D01*
Y73949D01*
Y73796D01*
Y73643D01*
Y73491D01*
Y73338D01*
X69472D01*
Y73185D01*
X69319D01*
Y73032D01*
Y72880D01*
Y72727D01*
X69472D01*
Y72574D01*
X69624D01*
Y72421D01*
X69472D01*
Y72268D01*
Y72116D01*
Y71963D01*
X69319D01*
Y71810D01*
X69166D01*
Y71658D01*
Y71505D01*
Y71352D01*
X69013D01*
Y71199D01*
X68861D01*
Y71047D01*
X69013D01*
Y70894D01*
X68861D01*
Y70741D01*
X68708D01*
Y70588D01*
Y70435D01*
Y70283D01*
X68555D01*
Y70130D01*
X68402D01*
Y69977D01*
X68249D01*
Y69824D01*
Y69672D01*
X68097D01*
Y69519D01*
Y69366D01*
X67944D01*
Y69213D01*
X68097D01*
Y69061D01*
X67944D01*
Y68908D01*
X67791D01*
Y68755D01*
X67638D01*
Y68602D01*
Y68449D01*
X67486D01*
Y68297D01*
X67333D01*
Y68144D01*
X67180D01*
Y67991D01*
Y67839D01*
X67027D01*
Y67686D01*
X66875D01*
Y67533D01*
X66722D01*
Y67380D01*
X66569D01*
Y67228D01*
X66416D01*
Y67075D01*
X66569D01*
Y66922D01*
X66111D01*
Y66769D01*
X65958D01*
Y66616D01*
X65805D01*
Y66464D01*
X65653D01*
Y66311D01*
X65500D01*
Y66158D01*
X65194D01*
Y66005D01*
X64889D01*
Y65853D01*
X64736D01*
Y65700D01*
X64583D01*
Y65547D01*
X64430D01*
Y65700D01*
X64278D01*
Y65547D01*
X64125D01*
Y65394D01*
X63667D01*
Y65242D01*
X63514D01*
Y65089D01*
X63056D01*
Y64936D01*
X62903D01*
Y64783D01*
X62445D01*
Y64631D01*
X62292D01*
Y64478D01*
X62139D01*
Y64631D01*
X61986D01*
Y64478D01*
X61528D01*
Y64325D01*
X61375D01*
Y64478D01*
X61222D01*
Y64325D01*
X61070D01*
Y64172D01*
X60917D01*
Y64325D01*
X60764D01*
Y64172D01*
X60611D01*
Y64325D01*
X60153D01*
Y64478D01*
X59695D01*
Y64631D01*
X59389D01*
Y64783D01*
X59084D01*
Y64936D01*
X58931D01*
Y65089D01*
X58473D01*
Y65242D01*
X58626D01*
Y65394D01*
X58320D01*
Y65547D01*
Y65700D01*
X58167D01*
Y65853D01*
Y66005D01*
X58015D01*
Y66158D01*
Y66311D01*
X57862D01*
Y66464D01*
Y66616D01*
Y66769D01*
X57709D01*
Y66922D01*
Y67075D01*
Y67228D01*
X57556D01*
Y67380D01*
Y67533D01*
Y67686D01*
X57403D01*
Y67839D01*
X57556D01*
Y67991D01*
X57403D01*
Y68144D01*
Y68297D01*
Y68449D01*
X57251D01*
Y68602D01*
X57403D01*
Y68755D01*
X57251D01*
Y68908D01*
X57403D01*
Y69061D01*
Y69213D01*
Y69366D01*
X57251D01*
Y69519D01*
X57403D01*
Y69672D01*
X57556D01*
Y69824D01*
Y69977D01*
Y70130D01*
X57709D01*
Y70283D01*
X57862D01*
Y70435D01*
Y70588D01*
Y70741D01*
X58015D01*
Y70894D01*
X58167D01*
Y71047D01*
Y71199D01*
Y71352D01*
X58320D01*
Y71505D01*
X58167D01*
Y71658D01*
X58473D01*
Y71810D01*
Y71963D01*
X58626D01*
Y72116D01*
X58778D01*
Y72268D01*
X58931D01*
Y72421D01*
Y72574D01*
Y72727D01*
X59084D01*
Y72880D01*
X59237D01*
Y73032D01*
X59084D01*
Y73185D01*
X59237D01*
Y73338D01*
X59389D01*
Y73491D01*
X59542D01*
Y73643D01*
X59695D01*
Y73796D01*
X59848D01*
Y73949D01*
X60000D01*
Y74102D01*
X60153D01*
Y74254D01*
X60306D01*
Y74407D01*
X60459D01*
Y74560D01*
Y74713D01*
X60764D01*
Y74865D01*
Y75018D01*
X61070D01*
Y75171D01*
X61222D01*
Y75324D01*
X61375D01*
Y75476D01*
X61528D01*
Y75629D01*
X61834D01*
Y75782D01*
X61986D01*
Y75935D01*
X62292D01*
Y76087D01*
X62750D01*
Y76240D01*
X63208D01*
Y76393D01*
X63361D01*
Y76546D01*
X63514D01*
Y76699D01*
X63667D01*
Y76546D01*
X63819D01*
Y76699D01*
X63972D01*
Y76851D01*
X64125D01*
Y77004D01*
X64278D01*
Y76851D01*
X64430D01*
Y77004D01*
X64583D01*
Y77157D01*
X64736D01*
Y77004D01*
X64889D01*
Y77157D01*
X65347D01*
Y77310D01*
X65805D01*
Y77462D01*
X66264D01*
Y77310D01*
D02*
G37*
G36*
X322399Y78073D02*
X322552D01*
Y77921D01*
X322705D01*
Y77768D01*
X322858D01*
Y77615D01*
X322705D01*
Y77462D01*
X322858D01*
Y77310D01*
X322705D01*
Y77157D01*
Y77004D01*
Y76851D01*
X322552D01*
Y76699D01*
X322399D01*
Y76546D01*
Y76393D01*
Y76240D01*
X322247D01*
Y76087D01*
X322094D01*
Y75935D01*
Y75782D01*
X321788D01*
Y75629D01*
X321941D01*
Y75476D01*
X321788D01*
Y75324D01*
X321636D01*
Y75171D01*
X321483D01*
Y75018D01*
X321330D01*
Y74865D01*
X321483D01*
Y74713D01*
X321788D01*
Y74865D01*
Y75018D01*
X321941D01*
Y74865D01*
X322094D01*
Y75018D01*
X322247D01*
Y75171D01*
X322399D01*
Y75018D01*
X322552D01*
Y75171D01*
X322705D01*
Y75324D01*
X323163D01*
Y75476D01*
X323316D01*
Y75629D01*
X324080D01*
Y75782D01*
X324538D01*
Y75935D01*
X324691D01*
Y75782D01*
X324844D01*
Y75935D01*
X324996D01*
Y75782D01*
X325149D01*
Y75935D01*
X325302D01*
Y75782D01*
X325455D01*
Y75935D01*
X325607D01*
Y75782D01*
X325760D01*
Y75935D01*
X325913D01*
Y75782D01*
X326066D01*
Y75629D01*
X326218D01*
Y75782D01*
X326371D01*
Y75629D01*
X326524D01*
Y75476D01*
X326677D01*
Y75324D01*
X326829D01*
Y75171D01*
X326677D01*
Y75018D01*
X326829D01*
Y74865D01*
X326677D01*
Y74713D01*
X326829D01*
Y74560D01*
X326677D01*
Y74407D01*
X326829D01*
Y74254D01*
X326677D01*
Y74102D01*
X326524D01*
Y73949D01*
X326371D01*
Y73796D01*
Y73643D01*
X326218D01*
Y73491D01*
X326066D01*
Y73338D01*
X325913D01*
Y73185D01*
Y73032D01*
X325607D01*
Y72880D01*
X325302D01*
Y72727D01*
X325149D01*
Y72574D01*
X324996D01*
Y72421D01*
X324844D01*
Y72268D01*
X324691D01*
Y72116D01*
X324233D01*
Y71963D01*
X324080D01*
Y71810D01*
X323622D01*
Y71658D01*
X323469D01*
Y71810D01*
X323316D01*
Y71658D01*
X322858D01*
Y71505D01*
X322705D01*
Y71658D01*
X322552D01*
Y71505D01*
Y71352D01*
Y71199D01*
X322705D01*
Y71047D01*
Y70894D01*
Y70741D01*
X322858D01*
Y70588D01*
X322705D01*
Y70435D01*
X322858D01*
Y70283D01*
X323010D01*
Y70130D01*
Y69977D01*
Y69824D01*
X323163D01*
Y69672D01*
X323010D01*
Y69519D01*
X323163D01*
Y69366D01*
Y69213D01*
Y69061D01*
X323316D01*
Y68908D01*
Y68755D01*
Y68602D01*
X323469D01*
Y68449D01*
Y68297D01*
Y68144D01*
Y67991D01*
X323622D01*
Y67839D01*
Y67686D01*
X323774D01*
Y67533D01*
X323622D01*
Y67380D01*
X323774D01*
Y67228D01*
X323622D01*
Y67075D01*
X323774D01*
Y66922D01*
Y66769D01*
Y66616D01*
Y66464D01*
X323927D01*
Y66311D01*
Y66158D01*
X324080D01*
Y66005D01*
X324233D01*
Y66158D01*
X324385D01*
Y66005D01*
X324538D01*
Y66158D01*
X324996D01*
Y66311D01*
X325149D01*
Y66158D01*
X325302D01*
Y66311D01*
X325455D01*
Y66464D01*
X325607D01*
Y66616D01*
Y66769D01*
Y66922D01*
X325760D01*
Y67075D01*
X325913D01*
Y67228D01*
X325760D01*
Y67380D01*
X325913D01*
Y67533D01*
X326066D01*
Y67686D01*
X326218D01*
Y67839D01*
Y67991D01*
X326371D01*
Y68144D01*
Y68297D01*
X326524D01*
Y68449D01*
X326677D01*
Y68602D01*
X326829D01*
Y68755D01*
X326982D01*
Y68908D01*
X327135D01*
Y69061D01*
X327288D01*
Y69213D01*
X327441D01*
Y69366D01*
X327593D01*
Y69519D01*
X327746D01*
Y69672D01*
X327899D01*
Y69824D01*
X328051D01*
Y69672D01*
X328204D01*
Y69519D01*
X328051D01*
Y69366D01*
Y69213D01*
Y69061D01*
Y68908D01*
Y68755D01*
X327899D01*
Y68602D01*
X327746D01*
Y68449D01*
X327593D01*
Y68297D01*
X327746D01*
Y68144D01*
X327593D01*
Y67991D01*
X327441D01*
Y67839D01*
X327288D01*
Y67686D01*
X327135D01*
Y67533D01*
X326982D01*
Y67380D01*
Y67228D01*
X326829D01*
Y67075D01*
Y66922D01*
X326677D01*
Y66769D01*
X326524D01*
Y66616D01*
X326371D01*
Y66464D01*
X326218D01*
Y66311D01*
X326066D01*
Y66158D01*
X325913D01*
Y66005D01*
X325760D01*
Y65853D01*
X325607D01*
Y65700D01*
X325455D01*
Y65547D01*
X325302D01*
Y65394D01*
X325149D01*
Y65242D01*
X324996D01*
Y65089D01*
X324844D01*
Y64936D01*
X324691D01*
Y65089D01*
X324538D01*
Y64936D01*
X324385D01*
Y64783D01*
X324233D01*
Y64936D01*
X324080D01*
Y64783D01*
X323927D01*
Y64936D01*
X323622D01*
Y65089D01*
X323469D01*
Y65242D01*
Y65394D01*
X323316D01*
Y65547D01*
X323163D01*
Y65700D01*
Y65853D01*
Y66005D01*
X323010D01*
Y66158D01*
Y66311D01*
Y66464D01*
Y66616D01*
Y66769D01*
X322858D01*
Y66922D01*
Y67075D01*
Y67228D01*
X322705D01*
Y67380D01*
X322858D01*
Y67533D01*
X322705D01*
Y67686D01*
X322858D01*
Y67839D01*
X322705D01*
Y67991D01*
X322552D01*
Y68144D01*
Y68297D01*
Y68449D01*
X322399D01*
Y68602D01*
Y68755D01*
Y68908D01*
X322247D01*
Y69061D01*
Y69213D01*
Y69366D01*
X322094D01*
Y69519D01*
Y69672D01*
Y69824D01*
X321941D01*
Y69977D01*
Y70130D01*
Y70283D01*
Y70435D01*
Y70588D01*
X321788D01*
Y70741D01*
Y70894D01*
Y71047D01*
X321636D01*
Y71199D01*
Y71352D01*
Y71505D01*
X321483D01*
Y71658D01*
X321636D01*
Y71810D01*
X321483D01*
Y71963D01*
Y72116D01*
Y72268D01*
X321330D01*
Y72421D01*
Y72574D01*
Y72727D01*
X321177D01*
Y72574D01*
X321024D01*
Y72421D01*
X320872D01*
Y72268D01*
X320719D01*
Y72116D01*
X320566D01*
Y71963D01*
X320413D01*
Y71810D01*
X320261D01*
Y71658D01*
X320108D01*
Y71505D01*
X319955D01*
Y71352D01*
X320108D01*
Y71199D01*
X319955D01*
Y71047D01*
X319802D01*
Y70894D01*
Y70741D01*
Y70588D01*
X319650D01*
Y70435D01*
X319802D01*
Y70283D01*
X319650D01*
Y70130D01*
Y69977D01*
X319497D01*
Y69824D01*
X319344D01*
Y69672D01*
Y69519D01*
X319191D01*
Y69366D01*
X319039D01*
Y69213D01*
Y69061D01*
X318886D01*
Y68908D01*
Y68755D01*
X318733D01*
Y68602D01*
X318886D01*
Y68449D01*
X318733D01*
Y68297D01*
X318580D01*
Y68144D01*
Y67991D01*
Y67839D01*
X318428D01*
Y67686D01*
X318580D01*
Y67533D01*
X318428D01*
Y67380D01*
Y67228D01*
Y67075D01*
X318275D01*
Y66922D01*
Y66769D01*
Y66616D01*
X318122D01*
Y66464D01*
X318275D01*
Y66311D01*
X318122D01*
Y66158D01*
Y66005D01*
Y65853D01*
X317969D01*
Y65700D01*
X318122D01*
Y65547D01*
X317969D01*
Y65394D01*
X317817D01*
Y65242D01*
Y65089D01*
Y64936D01*
X317664D01*
Y64783D01*
Y64631D01*
Y64478D01*
Y64325D01*
Y64172D01*
Y64020D01*
Y63867D01*
X316900D01*
Y64020D01*
X317053D01*
Y64172D01*
X316900D01*
Y64325D01*
X317053D01*
Y64478D01*
X316900D01*
Y64631D01*
X317053D01*
Y64783D01*
X316900D01*
Y64936D01*
X317053D01*
Y65089D01*
X316900D01*
Y65242D01*
X317053D01*
Y65394D01*
Y65547D01*
Y65700D01*
Y65853D01*
X317206D01*
Y66005D01*
Y66158D01*
Y66311D01*
Y66464D01*
X317358D01*
Y66616D01*
X317206D01*
Y66769D01*
X317358D01*
Y66922D01*
Y67075D01*
Y67228D01*
X317511D01*
Y67380D01*
Y67533D01*
Y67686D01*
X317664D01*
Y67839D01*
X317511D01*
Y67991D01*
X317664D01*
Y68144D01*
Y68297D01*
Y68449D01*
X317817D01*
Y68602D01*
Y68755D01*
Y68908D01*
X317969D01*
Y69061D01*
X317817D01*
Y69213D01*
X317969D01*
Y69366D01*
Y69519D01*
Y69672D01*
X318122D01*
Y69824D01*
Y69977D01*
Y70130D01*
X318275D01*
Y70283D01*
Y70435D01*
Y70588D01*
X318428D01*
Y70741D01*
Y70894D01*
Y71047D01*
X318580D01*
Y71199D01*
Y71352D01*
X318733D01*
Y71505D01*
Y71658D01*
X318886D01*
Y71810D01*
X318733D01*
Y71963D01*
X318886D01*
Y72116D01*
X319039D01*
Y72268D01*
X319191D01*
Y72421D01*
X319039D01*
Y72574D01*
X319191D01*
Y72727D01*
Y72880D01*
X319344D01*
Y73032D01*
Y73185D01*
X319497D01*
Y73338D01*
Y73491D01*
Y73643D01*
X319650D01*
Y73796D01*
X319802D01*
Y73949D01*
Y74102D01*
Y74254D01*
X319955D01*
Y74407D01*
X320108D01*
Y74560D01*
Y74713D01*
Y74865D01*
X320261D01*
Y75018D01*
Y75171D01*
Y75324D01*
X320413D01*
Y75476D01*
X320261D01*
Y75629D01*
X320413D01*
Y75782D01*
Y75935D01*
Y76087D01*
X320566D01*
Y76240D01*
X320719D01*
Y76087D01*
X320872D01*
Y75935D01*
X321024D01*
Y76087D01*
Y76240D01*
Y76393D01*
X321177D01*
Y76546D01*
X321330D01*
Y76699D01*
X321177D01*
Y76851D01*
X321330D01*
Y77004D01*
X321483D01*
Y77157D01*
X321636D01*
Y77310D01*
Y77462D01*
Y77615D01*
X321788D01*
Y77768D01*
X321941D01*
Y77921D01*
X322094D01*
Y78073D01*
X322247D01*
Y78226D01*
X322399D01*
Y78073D01*
D02*
G37*
G36*
X50529D02*
X50682D01*
Y77921D01*
X50835D01*
Y77768D01*
X50987D01*
Y77615D01*
X50835D01*
Y77462D01*
X50987D01*
Y77310D01*
X50835D01*
Y77157D01*
Y77004D01*
Y76851D01*
X50682D01*
Y76699D01*
X50529D01*
Y76546D01*
Y76393D01*
Y76240D01*
X50376D01*
Y76087D01*
X50224D01*
Y75935D01*
Y75782D01*
X49918D01*
Y75629D01*
X50071D01*
Y75476D01*
X49918D01*
Y75324D01*
X49766D01*
Y75171D01*
X49613D01*
Y75018D01*
X49460D01*
Y74865D01*
X49613D01*
Y74713D01*
X49918D01*
Y74865D01*
Y75018D01*
X50071D01*
Y74865D01*
X50224D01*
Y75018D01*
X50376D01*
Y75171D01*
X50529D01*
Y75018D01*
X50682D01*
Y75171D01*
X50835D01*
Y75324D01*
X51293D01*
Y75476D01*
X51446D01*
Y75629D01*
X52210D01*
Y75782D01*
X52668D01*
Y75935D01*
X52821D01*
Y75782D01*
X52973D01*
Y75935D01*
X53126D01*
Y75782D01*
X53279D01*
Y75935D01*
X53432D01*
Y75782D01*
X53584D01*
Y75935D01*
X53737D01*
Y75782D01*
X53890D01*
Y75935D01*
X54043D01*
Y75782D01*
X54195D01*
Y75629D01*
X54348D01*
Y75782D01*
X54501D01*
Y75629D01*
X54654D01*
Y75476D01*
X54807D01*
Y75324D01*
X54959D01*
Y75171D01*
X54807D01*
Y75018D01*
X54959D01*
Y74865D01*
X54807D01*
Y74713D01*
X54959D01*
Y74560D01*
X54807D01*
Y74407D01*
X54959D01*
Y74254D01*
X54807D01*
Y74102D01*
X54654D01*
Y73949D01*
X54501D01*
Y73796D01*
Y73643D01*
X54348D01*
Y73491D01*
X54195D01*
Y73338D01*
X54043D01*
Y73185D01*
Y73032D01*
X53737D01*
Y72880D01*
X53432D01*
Y72727D01*
X53279D01*
Y72574D01*
X53126D01*
Y72421D01*
X52973D01*
Y72268D01*
X52821D01*
Y72116D01*
X52362D01*
Y71963D01*
X52210D01*
Y71810D01*
X51751D01*
Y71658D01*
X51599D01*
Y71810D01*
X51446D01*
Y71658D01*
X50987D01*
Y71505D01*
X50835D01*
Y71658D01*
X50682D01*
Y71505D01*
Y71352D01*
Y71199D01*
X50835D01*
Y71047D01*
Y70894D01*
Y70741D01*
X50987D01*
Y70588D01*
X50835D01*
Y70435D01*
X50987D01*
Y70283D01*
X51140D01*
Y70130D01*
Y69977D01*
Y69824D01*
X51293D01*
Y69672D01*
X51140D01*
Y69519D01*
X51293D01*
Y69366D01*
Y69213D01*
Y69061D01*
X51446D01*
Y68908D01*
Y68755D01*
Y68602D01*
X51599D01*
Y68449D01*
Y68297D01*
Y68144D01*
Y67991D01*
X51751D01*
Y67839D01*
Y67686D01*
X51904D01*
Y67533D01*
X51751D01*
Y67380D01*
X51904D01*
Y67228D01*
X51751D01*
Y67075D01*
X51904D01*
Y66922D01*
Y66769D01*
Y66616D01*
Y66464D01*
X52057D01*
Y66311D01*
Y66158D01*
X52210D01*
Y66005D01*
X52362D01*
Y66158D01*
X52515D01*
Y66005D01*
X52668D01*
Y66158D01*
X53126D01*
Y66311D01*
X53279D01*
Y66158D01*
X53432D01*
Y66311D01*
X53584D01*
Y66464D01*
X53737D01*
Y66616D01*
Y66769D01*
Y66922D01*
X53890D01*
Y67075D01*
X54043D01*
Y67228D01*
X53890D01*
Y67380D01*
X54043D01*
Y67533D01*
X54195D01*
Y67686D01*
X54348D01*
Y67839D01*
Y67991D01*
X54501D01*
Y68144D01*
Y68297D01*
X54654D01*
Y68449D01*
X54807D01*
Y68602D01*
X54959D01*
Y68755D01*
X55112D01*
Y68908D01*
X55265D01*
Y69061D01*
X55418D01*
Y69213D01*
X55570D01*
Y69366D01*
X55723D01*
Y69519D01*
X55876D01*
Y69672D01*
X56029D01*
Y69824D01*
X56181D01*
Y69672D01*
X56334D01*
Y69519D01*
X56181D01*
Y69366D01*
Y69213D01*
Y69061D01*
Y68908D01*
Y68755D01*
X56029D01*
Y68602D01*
X55876D01*
Y68449D01*
X55723D01*
Y68297D01*
X55876D01*
Y68144D01*
X55723D01*
Y67991D01*
X55570D01*
Y67839D01*
X55418D01*
Y67686D01*
X55265D01*
Y67533D01*
X55112D01*
Y67380D01*
Y67228D01*
X54959D01*
Y67075D01*
Y66922D01*
X54807D01*
Y66769D01*
X54654D01*
Y66616D01*
X54501D01*
Y66464D01*
X54348D01*
Y66311D01*
X54195D01*
Y66158D01*
X54043D01*
Y66005D01*
X53890D01*
Y65853D01*
X53737D01*
Y65700D01*
X53584D01*
Y65547D01*
X53432D01*
Y65394D01*
X53279D01*
Y65242D01*
X53126D01*
Y65089D01*
X52973D01*
Y64936D01*
X52821D01*
Y65089D01*
X52668D01*
Y64936D01*
X52515D01*
Y64783D01*
X52362D01*
Y64936D01*
X52210D01*
Y64783D01*
X52057D01*
Y64936D01*
X51751D01*
Y65089D01*
X51599D01*
Y65242D01*
Y65394D01*
X51446D01*
Y65547D01*
X51293D01*
Y65700D01*
Y65853D01*
Y66005D01*
X51140D01*
Y66158D01*
Y66311D01*
Y66464D01*
Y66616D01*
Y66769D01*
X50987D01*
Y66922D01*
Y67075D01*
Y67228D01*
X50835D01*
Y67380D01*
X50987D01*
Y67533D01*
X50835D01*
Y67686D01*
X50987D01*
Y67839D01*
X50835D01*
Y67991D01*
X50682D01*
Y68144D01*
Y68297D01*
Y68449D01*
X50529D01*
Y68602D01*
Y68755D01*
Y68908D01*
X50376D01*
Y69061D01*
Y69213D01*
Y69366D01*
X50224D01*
Y69519D01*
Y69672D01*
Y69824D01*
X50071D01*
Y69977D01*
Y70130D01*
Y70283D01*
Y70435D01*
Y70588D01*
X49918D01*
Y70741D01*
Y70894D01*
Y71047D01*
X49766D01*
Y71199D01*
Y71352D01*
Y71505D01*
X49613D01*
Y71658D01*
X49766D01*
Y71810D01*
X49613D01*
Y71963D01*
Y72116D01*
Y72268D01*
X49460D01*
Y72421D01*
Y72574D01*
Y72727D01*
X49307D01*
Y72574D01*
X49154D01*
Y72421D01*
X49002D01*
Y72268D01*
X48849D01*
Y72116D01*
X48696D01*
Y71963D01*
X48543D01*
Y71810D01*
X48391D01*
Y71658D01*
X48238D01*
Y71505D01*
X48085D01*
Y71352D01*
X48238D01*
Y71199D01*
X48085D01*
Y71047D01*
X47932D01*
Y70894D01*
Y70741D01*
Y70588D01*
X47780D01*
Y70435D01*
X47932D01*
Y70283D01*
X47780D01*
Y70130D01*
Y69977D01*
X47627D01*
Y69824D01*
X47474D01*
Y69672D01*
Y69519D01*
X47321D01*
Y69366D01*
X47169D01*
Y69213D01*
Y69061D01*
X47016D01*
Y68908D01*
Y68755D01*
X46863D01*
Y68602D01*
X47016D01*
Y68449D01*
X46863D01*
Y68297D01*
X46710D01*
Y68144D01*
Y67991D01*
Y67839D01*
X46558D01*
Y67686D01*
X46710D01*
Y67533D01*
X46558D01*
Y67380D01*
Y67228D01*
Y67075D01*
X46405D01*
Y66922D01*
Y66769D01*
Y66616D01*
X46252D01*
Y66464D01*
X46405D01*
Y66311D01*
X46252D01*
Y66158D01*
Y66005D01*
Y65853D01*
X46099D01*
Y65700D01*
X46252D01*
Y65547D01*
X46099D01*
Y65394D01*
X45946D01*
Y65242D01*
Y65089D01*
Y64936D01*
X45794D01*
Y64783D01*
Y64631D01*
Y64478D01*
Y64325D01*
Y64172D01*
Y64020D01*
Y63867D01*
X45030D01*
Y64020D01*
X45183D01*
Y64172D01*
X45030D01*
Y64325D01*
X45183D01*
Y64478D01*
X45030D01*
Y64631D01*
X45183D01*
Y64783D01*
X45030D01*
Y64936D01*
X45183D01*
Y65089D01*
X45030D01*
Y65242D01*
X45183D01*
Y65394D01*
Y65547D01*
Y65700D01*
Y65853D01*
X45335D01*
Y66005D01*
Y66158D01*
Y66311D01*
Y66464D01*
X45488D01*
Y66616D01*
X45335D01*
Y66769D01*
X45488D01*
Y66922D01*
Y67075D01*
Y67228D01*
X45641D01*
Y67380D01*
Y67533D01*
Y67686D01*
X45794D01*
Y67839D01*
X45641D01*
Y67991D01*
X45794D01*
Y68144D01*
Y68297D01*
Y68449D01*
X45946D01*
Y68602D01*
Y68755D01*
Y68908D01*
X46099D01*
Y69061D01*
X45946D01*
Y69213D01*
X46099D01*
Y69366D01*
Y69519D01*
Y69672D01*
X46252D01*
Y69824D01*
Y69977D01*
Y70130D01*
X46405D01*
Y70283D01*
Y70435D01*
Y70588D01*
X46558D01*
Y70741D01*
Y70894D01*
Y71047D01*
X46710D01*
Y71199D01*
Y71352D01*
X46863D01*
Y71505D01*
Y71658D01*
X47016D01*
Y71810D01*
X46863D01*
Y71963D01*
X47016D01*
Y72116D01*
X47169D01*
Y72268D01*
X47321D01*
Y72421D01*
X47169D01*
Y72574D01*
X47321D01*
Y72727D01*
Y72880D01*
X47474D01*
Y73032D01*
Y73185D01*
X47627D01*
Y73338D01*
Y73491D01*
Y73643D01*
X47780D01*
Y73796D01*
X47932D01*
Y73949D01*
Y74102D01*
Y74254D01*
X48085D01*
Y74407D01*
X48238D01*
Y74560D01*
Y74713D01*
Y74865D01*
X48391D01*
Y75018D01*
Y75171D01*
Y75324D01*
X48543D01*
Y75476D01*
X48391D01*
Y75629D01*
X48543D01*
Y75782D01*
Y75935D01*
Y76087D01*
X48696D01*
Y76240D01*
X48849D01*
Y76087D01*
X49002D01*
Y75935D01*
X49154D01*
Y76087D01*
Y76240D01*
Y76393D01*
X49307D01*
Y76546D01*
X49460D01*
Y76699D01*
X49307D01*
Y76851D01*
X49460D01*
Y77004D01*
X49613D01*
Y77157D01*
X49766D01*
Y77310D01*
Y77462D01*
Y77615D01*
X49918D01*
Y77768D01*
X50071D01*
Y77921D01*
X50224D01*
Y78073D01*
X50376D01*
Y78226D01*
X50529D01*
Y78073D01*
D02*
G37*
G36*
X379837D02*
X380601D01*
Y77921D01*
X380754D01*
Y77768D01*
Y77615D01*
Y77462D01*
X380906D01*
Y77310D01*
X380754D01*
Y77157D01*
Y77004D01*
Y76851D01*
X380601D01*
Y76699D01*
Y76546D01*
Y76393D01*
X380448D01*
Y76240D01*
X380601D01*
Y76087D01*
X380448D01*
Y75935D01*
Y75782D01*
Y75629D01*
X380295D01*
Y75476D01*
X380448D01*
Y75324D01*
X380295D01*
Y75171D01*
X380448D01*
Y75018D01*
X380295D01*
Y74865D01*
X380448D01*
Y74713D01*
X380906D01*
Y74560D01*
X381365D01*
Y74407D01*
X382129D01*
Y74254D01*
X382587D01*
Y74102D01*
X383045D01*
Y73949D01*
Y73796D01*
Y73643D01*
Y73491D01*
Y73338D01*
X382892D01*
Y73185D01*
X383045D01*
Y73032D01*
X382281D01*
Y73185D01*
X381823D01*
Y73338D01*
X381365D01*
Y73491D01*
X381212D01*
Y73643D01*
X381059D01*
Y73491D01*
X380906D01*
Y73643D01*
X379684D01*
Y73491D01*
Y73338D01*
X379532D01*
Y73185D01*
X379684D01*
Y73032D01*
X379532D01*
Y72880D01*
X379379D01*
Y72727D01*
X379226D01*
Y72574D01*
X379379D01*
Y72421D01*
X379073D01*
Y72268D01*
Y72116D01*
X378921D01*
Y71963D01*
X379073D01*
Y71810D01*
X378921D01*
Y71658D01*
X379073D01*
Y71505D01*
X378921D01*
Y71352D01*
Y71199D01*
Y71047D01*
X378768D01*
Y70894D01*
X378615D01*
Y70741D01*
X378768D01*
Y70588D01*
X378615D01*
Y70435D01*
Y70283D01*
Y70130D01*
X378462D01*
Y69977D01*
X378309D01*
Y69824D01*
X378462D01*
Y69672D01*
X378309D01*
Y69519D01*
Y69366D01*
Y69213D01*
X378462D01*
Y69061D01*
X378309D01*
Y68908D01*
X378462D01*
Y68755D01*
X378309D01*
Y68602D01*
X378462D01*
Y68449D01*
X378309D01*
Y68297D01*
Y68144D01*
Y67991D01*
X378157D01*
Y67839D01*
Y67686D01*
Y67533D01*
Y67380D01*
Y67228D01*
X378004D01*
Y67075D01*
X378157D01*
Y66922D01*
X378004D01*
Y66769D01*
Y66616D01*
Y66464D01*
Y66311D01*
Y66158D01*
Y66005D01*
Y65853D01*
Y65700D01*
Y65547D01*
Y65394D01*
Y65242D01*
Y65089D01*
Y64936D01*
Y64783D01*
Y64631D01*
Y64478D01*
Y64325D01*
X377851D01*
Y64172D01*
X377698D01*
Y64020D01*
X377546D01*
Y63867D01*
X377393D01*
Y63714D01*
X377240D01*
Y63867D01*
X376782D01*
Y64020D01*
X376629D01*
Y64172D01*
X376476D01*
Y64325D01*
X376629D01*
Y64478D01*
X376476D01*
Y64631D01*
Y64783D01*
Y64936D01*
X376324D01*
Y65089D01*
Y65242D01*
Y65394D01*
X376476D01*
Y65547D01*
Y65700D01*
Y65853D01*
Y66005D01*
Y66158D01*
X376324D01*
Y66311D01*
X376476D01*
Y66464D01*
X376629D01*
Y66616D01*
X376476D01*
Y66769D01*
X376629D01*
Y66922D01*
Y67075D01*
Y67228D01*
Y67380D01*
Y67533D01*
X376782D01*
Y67686D01*
X376629D01*
Y67839D01*
X376782D01*
Y67991D01*
X376935D01*
Y68144D01*
X376782D01*
Y68297D01*
X376935D01*
Y68449D01*
X377087D01*
Y68602D01*
Y68755D01*
Y68908D01*
Y69061D01*
Y69213D01*
X377240D01*
Y69366D01*
X377087D01*
Y69519D01*
X377240D01*
Y69672D01*
X377087D01*
Y69824D01*
X377240D01*
Y69977D01*
Y70130D01*
X377393D01*
Y70283D01*
Y70435D01*
X377546D01*
Y70588D01*
X377393D01*
Y70741D01*
X377546D01*
Y70894D01*
Y71047D01*
Y71199D01*
X377698D01*
Y71352D01*
Y71505D01*
Y71658D01*
X377546D01*
Y71810D01*
X377698D01*
Y71963D01*
Y72116D01*
Y72268D01*
X377851D01*
Y72421D01*
X377698D01*
Y72574D01*
X377851D01*
Y72727D01*
X377698D01*
Y72880D01*
X377851D01*
Y73032D01*
X377698D01*
Y73185D01*
X377851D01*
Y73338D01*
X377698D01*
Y73491D01*
X377851D01*
Y73643D01*
X377698D01*
Y73796D01*
X377851D01*
Y73949D01*
Y74102D01*
Y74254D01*
Y74407D01*
X377546D01*
Y74560D01*
X377087D01*
Y74713D01*
X376935D01*
Y74560D01*
X376782D01*
Y74713D01*
X376629D01*
Y74865D01*
X376171D01*
Y75018D01*
X376018D01*
Y74865D01*
X375865D01*
Y75018D01*
X375713D01*
Y75171D01*
X375254D01*
Y75324D01*
X375101D01*
Y75476D01*
X374949D01*
Y75629D01*
Y75782D01*
Y75935D01*
Y76087D01*
Y76240D01*
X375101D01*
Y76393D01*
X375254D01*
Y76546D01*
X375407D01*
Y76393D01*
X375560D01*
Y76240D01*
X376324D01*
Y76087D01*
X376782D01*
Y75935D01*
X376935D01*
Y76087D01*
X377087D01*
Y75935D01*
X377546D01*
Y75782D01*
X377698D01*
Y75935D01*
X377851D01*
Y75782D01*
X378309D01*
Y75629D01*
X378462D01*
Y75782D01*
X378615D01*
Y75935D01*
Y76087D01*
Y76240D01*
X378768D01*
Y76393D01*
Y76546D01*
Y76699D01*
X378921D01*
Y76851D01*
Y77004D01*
Y77157D01*
X379073D01*
Y77310D01*
Y77462D01*
Y77615D01*
X379226D01*
Y77768D01*
Y77921D01*
Y78073D01*
X379684D01*
Y78226D01*
X379837D01*
Y78073D01*
D02*
G37*
G36*
X107967D02*
X108731D01*
Y77921D01*
X108884D01*
Y77768D01*
Y77615D01*
Y77462D01*
X109036D01*
Y77310D01*
X108884D01*
Y77157D01*
Y77004D01*
Y76851D01*
X108731D01*
Y76699D01*
Y76546D01*
Y76393D01*
X108578D01*
Y76240D01*
X108731D01*
Y76087D01*
X108578D01*
Y75935D01*
Y75782D01*
Y75629D01*
X108425D01*
Y75476D01*
X108578D01*
Y75324D01*
X108425D01*
Y75171D01*
X108578D01*
Y75018D01*
X108425D01*
Y74865D01*
X108578D01*
Y74713D01*
X109036D01*
Y74560D01*
X109495D01*
Y74407D01*
X110258D01*
Y74254D01*
X110717D01*
Y74102D01*
X111175D01*
Y73949D01*
Y73796D01*
Y73643D01*
Y73491D01*
Y73338D01*
X111022D01*
Y73185D01*
X111175D01*
Y73032D01*
X110411D01*
Y73185D01*
X109953D01*
Y73338D01*
X109495D01*
Y73491D01*
X109342D01*
Y73643D01*
X109189D01*
Y73491D01*
X109036D01*
Y73643D01*
X107814D01*
Y73491D01*
Y73338D01*
X107661D01*
Y73185D01*
X107814D01*
Y73032D01*
X107661D01*
Y72880D01*
X107509D01*
Y72727D01*
X107356D01*
Y72574D01*
X107509D01*
Y72421D01*
X107203D01*
Y72268D01*
Y72116D01*
X107050D01*
Y71963D01*
X107203D01*
Y71810D01*
X107050D01*
Y71658D01*
X107203D01*
Y71505D01*
X107050D01*
Y71352D01*
Y71199D01*
Y71047D01*
X106898D01*
Y70894D01*
X106745D01*
Y70741D01*
X106898D01*
Y70588D01*
X106745D01*
Y70435D01*
Y70283D01*
Y70130D01*
X106592D01*
Y69977D01*
X106439D01*
Y69824D01*
X106592D01*
Y69672D01*
X106439D01*
Y69519D01*
Y69366D01*
Y69213D01*
X106592D01*
Y69061D01*
X106439D01*
Y68908D01*
X106592D01*
Y68755D01*
X106439D01*
Y68602D01*
X106592D01*
Y68449D01*
X106439D01*
Y68297D01*
Y68144D01*
Y67991D01*
X106287D01*
Y67839D01*
Y67686D01*
Y67533D01*
Y67380D01*
Y67228D01*
X106134D01*
Y67075D01*
X106287D01*
Y66922D01*
X106134D01*
Y66769D01*
Y66616D01*
Y66464D01*
Y66311D01*
Y66158D01*
Y66005D01*
Y65853D01*
Y65700D01*
Y65547D01*
Y65394D01*
Y65242D01*
Y65089D01*
Y64936D01*
Y64783D01*
Y64631D01*
Y64478D01*
Y64325D01*
X105981D01*
Y64172D01*
X105828D01*
Y64020D01*
X105676D01*
Y63867D01*
X105523D01*
Y63714D01*
X105370D01*
Y63867D01*
X104912D01*
Y64020D01*
X104759D01*
Y64172D01*
X104606D01*
Y64325D01*
X104759D01*
Y64478D01*
X104606D01*
Y64631D01*
Y64783D01*
Y64936D01*
X104454D01*
Y65089D01*
Y65242D01*
Y65394D01*
X104606D01*
Y65547D01*
Y65700D01*
Y65853D01*
Y66005D01*
Y66158D01*
X104454D01*
Y66311D01*
X104606D01*
Y66464D01*
X104759D01*
Y66616D01*
X104606D01*
Y66769D01*
X104759D01*
Y66922D01*
Y67075D01*
Y67228D01*
Y67380D01*
Y67533D01*
X104912D01*
Y67686D01*
X104759D01*
Y67839D01*
X104912D01*
Y67991D01*
X105064D01*
Y68144D01*
X104912D01*
Y68297D01*
X105064D01*
Y68449D01*
X105217D01*
Y68602D01*
Y68755D01*
Y68908D01*
Y69061D01*
Y69213D01*
X105370D01*
Y69366D01*
X105217D01*
Y69519D01*
X105370D01*
Y69672D01*
X105217D01*
Y69824D01*
X105370D01*
Y69977D01*
Y70130D01*
X105523D01*
Y70283D01*
Y70435D01*
X105676D01*
Y70588D01*
X105523D01*
Y70741D01*
X105676D01*
Y70894D01*
Y71047D01*
Y71199D01*
X105828D01*
Y71352D01*
Y71505D01*
Y71658D01*
X105676D01*
Y71810D01*
X105828D01*
Y71963D01*
Y72116D01*
Y72268D01*
X105981D01*
Y72421D01*
X105828D01*
Y72574D01*
X105981D01*
Y72727D01*
X105828D01*
Y72880D01*
X105981D01*
Y73032D01*
X105828D01*
Y73185D01*
X105981D01*
Y73338D01*
X105828D01*
Y73491D01*
X105981D01*
Y73643D01*
X105828D01*
Y73796D01*
X105981D01*
Y73949D01*
Y74102D01*
Y74254D01*
Y74407D01*
X105676D01*
Y74560D01*
X105217D01*
Y74713D01*
X105064D01*
Y74560D01*
X104912D01*
Y74713D01*
X104759D01*
Y74865D01*
X104301D01*
Y75018D01*
X104148D01*
Y74865D01*
X103995D01*
Y75018D01*
X103842D01*
Y75171D01*
X103384D01*
Y75324D01*
X103231D01*
Y75476D01*
X103079D01*
Y75629D01*
Y75782D01*
Y75935D01*
Y76087D01*
Y76240D01*
X103231D01*
Y76393D01*
X103384D01*
Y76546D01*
X103537D01*
Y76393D01*
X103690D01*
Y76240D01*
X104454D01*
Y76087D01*
X104912D01*
Y75935D01*
X105064D01*
Y76087D01*
X105217D01*
Y75935D01*
X105676D01*
Y75782D01*
X105828D01*
Y75935D01*
X105981D01*
Y75782D01*
X106439D01*
Y75629D01*
X106592D01*
Y75782D01*
X106745D01*
Y75935D01*
Y76087D01*
Y76240D01*
X106898D01*
Y76393D01*
Y76546D01*
Y76699D01*
X107050D01*
Y76851D01*
Y77004D01*
Y77157D01*
X107203D01*
Y77310D01*
Y77462D01*
Y77615D01*
X107356D01*
Y77768D01*
Y77921D01*
Y78073D01*
X107814D01*
Y78226D01*
X107967D01*
Y78073D01*
D02*
G37*
G36*
X368075Y77921D02*
X368227D01*
Y77768D01*
X368380D01*
Y77615D01*
X368533D01*
Y77462D01*
X368686D01*
Y77310D01*
X368533D01*
Y77157D01*
X368686D01*
Y77004D01*
Y76851D01*
Y76699D01*
X368533D01*
Y76546D01*
X368686D01*
Y76393D01*
X368533D01*
Y76240D01*
X368686D01*
Y76087D01*
X368533D01*
Y75935D01*
X368686D01*
Y75782D01*
X368533D01*
Y75629D01*
X368686D01*
Y75476D01*
X368533D01*
Y75324D01*
X368686D01*
Y75171D01*
Y75018D01*
Y74865D01*
Y74713D01*
Y74560D01*
Y74407D01*
Y74254D01*
Y74102D01*
X368838D01*
Y73949D01*
Y73796D01*
X368991D01*
Y73643D01*
X368838D01*
Y73491D01*
X368991D01*
Y73338D01*
X368838D01*
Y73185D01*
X368991D01*
Y73032D01*
X368838D01*
Y72880D01*
X368991D01*
Y72727D01*
X368838D01*
Y72574D01*
X368991D01*
Y72421D01*
X369144D01*
Y72268D01*
Y72116D01*
Y71963D01*
X369297D01*
Y71810D01*
X369144D01*
Y71658D01*
X369297D01*
Y71505D01*
Y71352D01*
Y71199D01*
X369449D01*
Y71047D01*
X369297D01*
Y70894D01*
X369449D01*
Y70741D01*
X369602D01*
Y70588D01*
X369449D01*
Y70435D01*
X369602D01*
Y70283D01*
Y70130D01*
Y69977D01*
X369755D01*
Y69824D01*
Y69672D01*
Y69519D01*
X369908D01*
Y69366D01*
X369755D01*
Y69213D01*
X369908D01*
Y69061D01*
Y68908D01*
Y68755D01*
Y68602D01*
Y68449D01*
X370060D01*
Y68297D01*
Y68144D01*
Y67991D01*
X370213D01*
Y67839D01*
X370060D01*
Y67686D01*
X370213D01*
Y67533D01*
X370060D01*
Y67380D01*
X370213D01*
Y67228D01*
Y67075D01*
X370366D01*
Y67228D01*
Y67380D01*
X370519D01*
Y67533D01*
X370366D01*
Y67686D01*
X370519D01*
Y67839D01*
X370672D01*
Y67991D01*
Y68144D01*
Y68297D01*
X370824D01*
Y68449D01*
X370672D01*
Y68602D01*
X370824D01*
Y68755D01*
X370672D01*
Y68908D01*
X370824D01*
Y69061D01*
X370977D01*
Y69213D01*
X370824D01*
Y69366D01*
X370977D01*
Y69519D01*
Y69672D01*
Y69824D01*
X371130D01*
Y69977D01*
X370977D01*
Y70130D01*
X371130D01*
Y70283D01*
Y70435D01*
Y70588D01*
X371283D01*
Y70741D01*
X371130D01*
Y70894D01*
X371283D01*
Y71047D01*
Y71199D01*
Y71352D01*
X371435D01*
Y71505D01*
X371283D01*
Y71658D01*
X371435D01*
Y71810D01*
X371283D01*
Y71963D01*
X371435D01*
Y72116D01*
X371588D01*
Y72268D01*
Y72421D01*
Y72574D01*
X371741D01*
Y72727D01*
X371588D01*
Y72880D01*
X371741D01*
Y73032D01*
X371894D01*
Y73185D01*
X372046D01*
Y73338D01*
X371894D01*
Y73491D01*
X372046D01*
Y73643D01*
X371894D01*
Y73796D01*
X372046D01*
Y73949D01*
Y74102D01*
Y74254D01*
X372199D01*
Y74407D01*
X372352D01*
Y74560D01*
X372199D01*
Y74713D01*
X372352D01*
Y74865D01*
Y75018D01*
Y75171D01*
X372505D01*
Y75324D01*
X372657D01*
Y75476D01*
X372505D01*
Y75629D01*
X372657D01*
Y75782D01*
Y75935D01*
Y76087D01*
Y76240D01*
Y76393D01*
X372810D01*
Y76546D01*
X372963D01*
Y76699D01*
X372810D01*
Y76851D01*
X372963D01*
Y77004D01*
X373116D01*
Y76851D01*
X373268D01*
Y77004D01*
X373421D01*
Y76851D01*
X373879D01*
Y76699D01*
Y76546D01*
Y76393D01*
X373727D01*
Y76240D01*
X373879D01*
Y76087D01*
X373727D01*
Y75935D01*
Y75782D01*
Y75629D01*
X373574D01*
Y75476D01*
X373421D01*
Y75324D01*
X373574D01*
Y75171D01*
X373421D01*
Y75018D01*
X373574D01*
Y74865D01*
X373421D01*
Y74713D01*
Y74560D01*
Y74407D01*
X373268D01*
Y74254D01*
Y74102D01*
Y73949D01*
X373116D01*
Y73796D01*
X373268D01*
Y73643D01*
X373116D01*
Y73491D01*
Y73338D01*
X372963D01*
Y73185D01*
Y73032D01*
X372810D01*
Y72880D01*
X372963D01*
Y72727D01*
X372810D01*
Y72574D01*
X372657D01*
Y72421D01*
Y72268D01*
Y72116D01*
X372505D01*
Y71963D01*
Y71810D01*
Y71658D01*
X372352D01*
Y71505D01*
X372505D01*
Y71352D01*
X372352D01*
Y71199D01*
Y71047D01*
Y70894D01*
Y70741D01*
Y70588D01*
X372199D01*
Y70435D01*
X372352D01*
Y70283D01*
X372199D01*
Y70130D01*
Y69977D01*
X372046D01*
Y69824D01*
Y69672D01*
X371894D01*
Y69519D01*
X372046D01*
Y69366D01*
X371894D01*
Y69213D01*
X372046D01*
Y69061D01*
X371894D01*
Y68908D01*
X372046D01*
Y68755D01*
X371894D01*
Y68602D01*
X371741D01*
Y68449D01*
Y68297D01*
Y68144D01*
X371588D01*
Y67991D01*
X371741D01*
Y67839D01*
X371588D01*
Y67686D01*
Y67533D01*
Y67380D01*
X371435D01*
Y67228D01*
X371283D01*
Y67075D01*
X371435D01*
Y66922D01*
X371283D01*
Y66769D01*
X371435D01*
Y66616D01*
X371283D01*
Y66464D01*
Y66311D01*
Y66158D01*
X371130D01*
Y66005D01*
Y65853D01*
Y65700D01*
X370977D01*
Y65547D01*
X371130D01*
Y65394D01*
X370977D01*
Y65242D01*
Y65089D01*
Y64936D01*
X370824D01*
Y64783D01*
X370672D01*
Y64631D01*
X370824D01*
Y64478D01*
X370672D01*
Y64325D01*
X370519D01*
Y64172D01*
X370366D01*
Y64325D01*
X370213D01*
Y64478D01*
X370060D01*
Y64631D01*
X369908D01*
Y64783D01*
Y64936D01*
Y65089D01*
X369755D01*
Y65242D01*
X369908D01*
Y65394D01*
X369755D01*
Y65547D01*
X369908D01*
Y65700D01*
X369755D01*
Y65853D01*
Y66005D01*
Y66158D01*
X369602D01*
Y66311D01*
X369449D01*
Y66464D01*
X369602D01*
Y66616D01*
X369449D01*
Y66769D01*
X369297D01*
Y66922D01*
Y67075D01*
Y67228D01*
Y67380D01*
Y67533D01*
X369144D01*
Y67686D01*
Y67839D01*
X368991D01*
Y67991D01*
Y68144D01*
X368838D01*
Y68297D01*
Y68449D01*
Y68602D01*
X368686D01*
Y68755D01*
Y68908D01*
Y69061D01*
X368533D01*
Y69213D01*
X368686D01*
Y69366D01*
X368533D01*
Y69519D01*
Y69672D01*
Y69824D01*
X368380D01*
Y69977D01*
Y70130D01*
Y70283D01*
Y70435D01*
Y70588D01*
X368227D01*
Y70741D01*
X368380D01*
Y70894D01*
X368533D01*
Y71047D01*
X368380D01*
Y71199D01*
Y71352D01*
Y71505D01*
X368227D01*
Y71658D01*
Y71810D01*
Y71963D01*
X368075D01*
Y72116D01*
Y72268D01*
Y72421D01*
Y72574D01*
Y72727D01*
X367922D01*
Y72880D01*
X367769D01*
Y73032D01*
X367922D01*
Y73185D01*
Y73338D01*
Y73491D01*
X367769D01*
Y73643D01*
X367616D01*
Y73491D01*
X367463D01*
Y73338D01*
X367311D01*
Y73185D01*
Y73032D01*
X367158D01*
Y72880D01*
Y72727D01*
X367005D01*
Y72574D01*
X366852D01*
Y72421D01*
X366700D01*
Y72268D01*
X366547D01*
Y72116D01*
Y71963D01*
Y71810D01*
X366394D01*
Y71658D01*
X366241D01*
Y71810D01*
X365783D01*
Y71658D01*
X365936D01*
Y71505D01*
X365783D01*
Y71352D01*
X365936D01*
Y71199D01*
X365630D01*
Y71047D01*
Y70894D01*
X365478D01*
Y70741D01*
X365630D01*
Y70588D01*
X365478D01*
Y70435D01*
Y70283D01*
Y70130D01*
Y69977D01*
Y69824D01*
X365325D01*
Y69672D01*
X365172D01*
Y69519D01*
X365325D01*
Y69366D01*
X365172D01*
Y69213D01*
Y69061D01*
Y68908D01*
X365019D01*
Y68755D01*
X364867D01*
Y68602D01*
X365019D01*
Y68449D01*
X364867D01*
Y68297D01*
Y68144D01*
Y67991D01*
X364714D01*
Y67839D01*
X364561D01*
Y67686D01*
X364714D01*
Y67533D01*
X364561D01*
Y67380D01*
X364408D01*
Y67228D01*
Y67075D01*
Y66922D01*
X364256D01*
Y66769D01*
X363797D01*
Y66922D01*
X363645D01*
Y66769D01*
X363492D01*
Y66922D01*
Y67075D01*
Y67228D01*
Y67380D01*
Y67533D01*
X363645D01*
Y67686D01*
Y67839D01*
Y67991D01*
X363797D01*
Y68144D01*
X363645D01*
Y68297D01*
X363797D01*
Y68449D01*
Y68602D01*
Y68755D01*
X363950D01*
Y68908D01*
X364103D01*
Y69061D01*
X363950D01*
Y69213D01*
X364103D01*
Y69366D01*
Y69519D01*
X364256D01*
Y69672D01*
Y69824D01*
X364408D01*
Y69977D01*
Y70130D01*
Y70283D01*
X364561D01*
Y70435D01*
Y70588D01*
Y70741D01*
X364714D01*
Y70894D01*
X364561D01*
Y71047D01*
X364714D01*
Y71199D01*
Y71352D01*
X364867D01*
Y71505D01*
Y71658D01*
X365019D01*
Y71810D01*
X364867D01*
Y71963D01*
X365019D01*
Y72116D01*
X365172D01*
Y72268D01*
Y72421D01*
Y72574D01*
X365325D01*
Y72727D01*
Y72880D01*
Y73032D01*
X365478D01*
Y73185D01*
Y73338D01*
Y73491D01*
X365630D01*
Y73643D01*
X365783D01*
Y73796D01*
X365936D01*
Y73949D01*
X366089D01*
Y74102D01*
X366241D01*
Y74254D01*
X366089D01*
Y74407D01*
X366241D01*
Y74560D01*
Y74713D01*
X366547D01*
Y74865D01*
X366394D01*
Y75018D01*
X366700D01*
Y75171D01*
Y75324D01*
X366852D01*
Y75476D01*
X366700D01*
Y75629D01*
Y75782D01*
Y75935D01*
X366852D01*
Y76087D01*
X366700D01*
Y76240D01*
X366852D01*
Y76393D01*
X366700D01*
Y76546D01*
X366852D01*
Y76699D01*
X366700D01*
Y76851D01*
X366852D01*
Y77004D01*
X367005D01*
Y77157D01*
X367158D01*
Y77310D01*
X367311D01*
Y77462D01*
X367463D01*
Y77615D01*
X367616D01*
Y77768D01*
X367769D01*
Y77921D01*
X367922D01*
Y78073D01*
X368075D01*
Y77921D01*
D02*
G37*
G36*
X96205D02*
X96357D01*
Y77768D01*
X96510D01*
Y77615D01*
X96663D01*
Y77462D01*
X96816D01*
Y77310D01*
X96663D01*
Y77157D01*
X96816D01*
Y77004D01*
Y76851D01*
Y76699D01*
X96663D01*
Y76546D01*
X96816D01*
Y76393D01*
X96663D01*
Y76240D01*
X96816D01*
Y76087D01*
X96663D01*
Y75935D01*
X96816D01*
Y75782D01*
X96663D01*
Y75629D01*
X96816D01*
Y75476D01*
X96663D01*
Y75324D01*
X96816D01*
Y75171D01*
Y75018D01*
Y74865D01*
Y74713D01*
Y74560D01*
Y74407D01*
Y74254D01*
Y74102D01*
X96968D01*
Y73949D01*
Y73796D01*
X97121D01*
Y73643D01*
X96968D01*
Y73491D01*
X97121D01*
Y73338D01*
X96968D01*
Y73185D01*
X97121D01*
Y73032D01*
X96968D01*
Y72880D01*
X97121D01*
Y72727D01*
X96968D01*
Y72574D01*
X97121D01*
Y72421D01*
X97274D01*
Y72268D01*
Y72116D01*
Y71963D01*
X97426D01*
Y71810D01*
X97274D01*
Y71658D01*
X97426D01*
Y71505D01*
Y71352D01*
Y71199D01*
X97579D01*
Y71047D01*
X97426D01*
Y70894D01*
X97579D01*
Y70741D01*
X97732D01*
Y70588D01*
X97579D01*
Y70435D01*
X97732D01*
Y70283D01*
Y70130D01*
Y69977D01*
X97885D01*
Y69824D01*
Y69672D01*
Y69519D01*
X98038D01*
Y69366D01*
X97885D01*
Y69213D01*
X98038D01*
Y69061D01*
Y68908D01*
Y68755D01*
Y68602D01*
Y68449D01*
X98190D01*
Y68297D01*
Y68144D01*
Y67991D01*
X98343D01*
Y67839D01*
X98190D01*
Y67686D01*
X98343D01*
Y67533D01*
X98190D01*
Y67380D01*
X98343D01*
Y67228D01*
Y67075D01*
X98496D01*
Y67228D01*
Y67380D01*
X98649D01*
Y67533D01*
X98496D01*
Y67686D01*
X98649D01*
Y67839D01*
X98801D01*
Y67991D01*
Y68144D01*
Y68297D01*
X98954D01*
Y68449D01*
X98801D01*
Y68602D01*
X98954D01*
Y68755D01*
X98801D01*
Y68908D01*
X98954D01*
Y69061D01*
X99107D01*
Y69213D01*
X98954D01*
Y69366D01*
X99107D01*
Y69519D01*
Y69672D01*
Y69824D01*
X99260D01*
Y69977D01*
X99107D01*
Y70130D01*
X99260D01*
Y70283D01*
Y70435D01*
Y70588D01*
X99412D01*
Y70741D01*
X99260D01*
Y70894D01*
X99412D01*
Y71047D01*
Y71199D01*
Y71352D01*
X99565D01*
Y71505D01*
X99412D01*
Y71658D01*
X99565D01*
Y71810D01*
X99412D01*
Y71963D01*
X99565D01*
Y72116D01*
X99718D01*
Y72268D01*
Y72421D01*
Y72574D01*
X99871D01*
Y72727D01*
X99718D01*
Y72880D01*
X99871D01*
Y73032D01*
X100023D01*
Y73185D01*
X100176D01*
Y73338D01*
X100023D01*
Y73491D01*
X100176D01*
Y73643D01*
X100023D01*
Y73796D01*
X100176D01*
Y73949D01*
Y74102D01*
Y74254D01*
X100329D01*
Y74407D01*
X100482D01*
Y74560D01*
X100329D01*
Y74713D01*
X100482D01*
Y74865D01*
Y75018D01*
Y75171D01*
X100635D01*
Y75324D01*
X100787D01*
Y75476D01*
X100635D01*
Y75629D01*
X100787D01*
Y75782D01*
Y75935D01*
Y76087D01*
Y76240D01*
Y76393D01*
X100940D01*
Y76546D01*
X101093D01*
Y76699D01*
X100940D01*
Y76851D01*
X101093D01*
Y77004D01*
X101245D01*
Y76851D01*
X101398D01*
Y77004D01*
X101551D01*
Y76851D01*
X102009D01*
Y76699D01*
Y76546D01*
Y76393D01*
X101857D01*
Y76240D01*
X102009D01*
Y76087D01*
X101857D01*
Y75935D01*
Y75782D01*
Y75629D01*
X101704D01*
Y75476D01*
X101551D01*
Y75324D01*
X101704D01*
Y75171D01*
X101551D01*
Y75018D01*
X101704D01*
Y74865D01*
X101551D01*
Y74713D01*
Y74560D01*
Y74407D01*
X101398D01*
Y74254D01*
Y74102D01*
Y73949D01*
X101245D01*
Y73796D01*
X101398D01*
Y73643D01*
X101245D01*
Y73491D01*
Y73338D01*
X101093D01*
Y73185D01*
Y73032D01*
X100940D01*
Y72880D01*
X101093D01*
Y72727D01*
X100940D01*
Y72574D01*
X100787D01*
Y72421D01*
Y72268D01*
Y72116D01*
X100635D01*
Y71963D01*
Y71810D01*
Y71658D01*
X100482D01*
Y71505D01*
X100635D01*
Y71352D01*
X100482D01*
Y71199D01*
Y71047D01*
Y70894D01*
Y70741D01*
Y70588D01*
X100329D01*
Y70435D01*
X100482D01*
Y70283D01*
X100329D01*
Y70130D01*
Y69977D01*
X100176D01*
Y69824D01*
Y69672D01*
X100023D01*
Y69519D01*
X100176D01*
Y69366D01*
X100023D01*
Y69213D01*
X100176D01*
Y69061D01*
X100023D01*
Y68908D01*
X100176D01*
Y68755D01*
X100023D01*
Y68602D01*
X99871D01*
Y68449D01*
Y68297D01*
Y68144D01*
X99718D01*
Y67991D01*
X99871D01*
Y67839D01*
X99718D01*
Y67686D01*
Y67533D01*
Y67380D01*
X99565D01*
Y67228D01*
X99412D01*
Y67075D01*
X99565D01*
Y66922D01*
X99412D01*
Y66769D01*
X99565D01*
Y66616D01*
X99412D01*
Y66464D01*
Y66311D01*
Y66158D01*
X99260D01*
Y66005D01*
Y65853D01*
Y65700D01*
X99107D01*
Y65547D01*
X99260D01*
Y65394D01*
X99107D01*
Y65242D01*
Y65089D01*
Y64936D01*
X98954D01*
Y64783D01*
X98801D01*
Y64631D01*
X98954D01*
Y64478D01*
X98801D01*
Y64325D01*
X98649D01*
Y64172D01*
X98496D01*
Y64325D01*
X98343D01*
Y64478D01*
X98190D01*
Y64631D01*
X98038D01*
Y64783D01*
Y64936D01*
Y65089D01*
X97885D01*
Y65242D01*
X98038D01*
Y65394D01*
X97885D01*
Y65547D01*
X98038D01*
Y65700D01*
X97885D01*
Y65853D01*
Y66005D01*
Y66158D01*
X97732D01*
Y66311D01*
X97579D01*
Y66464D01*
X97732D01*
Y66616D01*
X97579D01*
Y66769D01*
X97426D01*
Y66922D01*
Y67075D01*
Y67228D01*
Y67380D01*
Y67533D01*
X97274D01*
Y67686D01*
Y67839D01*
X97121D01*
Y67991D01*
Y68144D01*
X96968D01*
Y68297D01*
Y68449D01*
Y68602D01*
X96816D01*
Y68755D01*
Y68908D01*
Y69061D01*
X96663D01*
Y69213D01*
X96816D01*
Y69366D01*
X96663D01*
Y69519D01*
Y69672D01*
Y69824D01*
X96510D01*
Y69977D01*
Y70130D01*
Y70283D01*
Y70435D01*
Y70588D01*
X96357D01*
Y70741D01*
X96510D01*
Y70894D01*
X96663D01*
Y71047D01*
X96510D01*
Y71199D01*
Y71352D01*
Y71505D01*
X96357D01*
Y71658D01*
Y71810D01*
Y71963D01*
X96205D01*
Y72116D01*
Y72268D01*
Y72421D01*
Y72574D01*
Y72727D01*
X96052D01*
Y72880D01*
X95899D01*
Y73032D01*
X96052D01*
Y73185D01*
Y73338D01*
Y73491D01*
X95899D01*
Y73643D01*
X95746D01*
Y73491D01*
X95593D01*
Y73338D01*
X95441D01*
Y73185D01*
Y73032D01*
X95288D01*
Y72880D01*
Y72727D01*
X95135D01*
Y72574D01*
X94982D01*
Y72421D01*
X94830D01*
Y72268D01*
X94677D01*
Y72116D01*
Y71963D01*
Y71810D01*
X94524D01*
Y71658D01*
X94371D01*
Y71810D01*
X93913D01*
Y71658D01*
X94066D01*
Y71505D01*
X93913D01*
Y71352D01*
X94066D01*
Y71199D01*
X93760D01*
Y71047D01*
Y70894D01*
X93608D01*
Y70741D01*
X93760D01*
Y70588D01*
X93608D01*
Y70435D01*
Y70283D01*
Y70130D01*
Y69977D01*
Y69824D01*
X93455D01*
Y69672D01*
X93302D01*
Y69519D01*
X93455D01*
Y69366D01*
X93302D01*
Y69213D01*
Y69061D01*
Y68908D01*
X93149D01*
Y68755D01*
X92997D01*
Y68602D01*
X93149D01*
Y68449D01*
X92997D01*
Y68297D01*
Y68144D01*
Y67991D01*
X92844D01*
Y67839D01*
X92691D01*
Y67686D01*
X92844D01*
Y67533D01*
X92691D01*
Y67380D01*
X92538D01*
Y67228D01*
Y67075D01*
Y66922D01*
X92386D01*
Y66769D01*
X91927D01*
Y66922D01*
X91774D01*
Y66769D01*
X91622D01*
Y66922D01*
Y67075D01*
Y67228D01*
Y67380D01*
Y67533D01*
X91774D01*
Y67686D01*
Y67839D01*
Y67991D01*
X91927D01*
Y68144D01*
X91774D01*
Y68297D01*
X91927D01*
Y68449D01*
Y68602D01*
Y68755D01*
X92080D01*
Y68908D01*
X92233D01*
Y69061D01*
X92080D01*
Y69213D01*
X92233D01*
Y69366D01*
Y69519D01*
X92386D01*
Y69672D01*
Y69824D01*
X92538D01*
Y69977D01*
Y70130D01*
Y70283D01*
X92691D01*
Y70435D01*
Y70588D01*
Y70741D01*
X92844D01*
Y70894D01*
X92691D01*
Y71047D01*
X92844D01*
Y71199D01*
Y71352D01*
X92997D01*
Y71505D01*
Y71658D01*
X93149D01*
Y71810D01*
X92997D01*
Y71963D01*
X93149D01*
Y72116D01*
X93302D01*
Y72268D01*
Y72421D01*
Y72574D01*
X93455D01*
Y72727D01*
Y72880D01*
Y73032D01*
X93608D01*
Y73185D01*
Y73338D01*
Y73491D01*
X93760D01*
Y73643D01*
X93913D01*
Y73796D01*
X94066D01*
Y73949D01*
X94219D01*
Y74102D01*
X94371D01*
Y74254D01*
X94219D01*
Y74407D01*
X94371D01*
Y74560D01*
Y74713D01*
X94677D01*
Y74865D01*
X94524D01*
Y75018D01*
X94830D01*
Y75171D01*
Y75324D01*
X94982D01*
Y75476D01*
X94830D01*
Y75629D01*
Y75782D01*
Y75935D01*
X94982D01*
Y76087D01*
X94830D01*
Y76240D01*
X94982D01*
Y76393D01*
X94830D01*
Y76546D01*
X94982D01*
Y76699D01*
X94830D01*
Y76851D01*
X94982D01*
Y77004D01*
X95135D01*
Y77157D01*
X95288D01*
Y77310D01*
X95441D01*
Y77462D01*
X95593D01*
Y77615D01*
X95746D01*
Y77768D01*
X95899D01*
Y77921D01*
X96052D01*
Y78073D01*
X96205D01*
Y77921D01*
D02*
G37*
%LPC*%
G36*
X356923Y89378D02*
X356770D01*
Y89225D01*
X356923D01*
Y89378D01*
D02*
G37*
G36*
X359520Y89836D02*
X359062D01*
Y89683D01*
X358909D01*
Y89530D01*
X358756D01*
Y89378D01*
X358298D01*
Y89225D01*
X358145D01*
Y89072D01*
X357992D01*
Y88919D01*
X357840D01*
Y88767D01*
Y88614D01*
X357687D01*
Y88461D01*
Y88308D01*
X357534D01*
Y88156D01*
Y88003D01*
X357381D01*
Y87850D01*
Y87697D01*
X357229D01*
Y87545D01*
Y87392D01*
Y87239D01*
Y87086D01*
Y86933D01*
X357076D01*
Y86781D01*
Y86628D01*
Y86475D01*
Y86322D01*
Y86170D01*
X356923D01*
Y86017D01*
X357076D01*
Y85864D01*
X356923D01*
Y85711D01*
X357076D01*
Y85559D01*
X356923D01*
Y85406D01*
Y85253D01*
Y85100D01*
Y84948D01*
Y84795D01*
Y84642D01*
Y84489D01*
X356770D01*
Y84337D01*
Y84184D01*
Y84031D01*
Y83878D01*
Y83726D01*
X356618D01*
Y83573D01*
X356770D01*
Y83420D01*
X356618D01*
Y83267D01*
X356770D01*
Y83114D01*
X356618D01*
Y82962D01*
X356770D01*
Y82809D01*
X356618D01*
Y82656D01*
X356770D01*
Y82503D01*
X356618D01*
Y82351D01*
X356770D01*
Y82198D01*
X356923D01*
Y82045D01*
X356770D01*
Y81892D01*
X356923D01*
Y81740D01*
X357076D01*
Y81587D01*
X357229D01*
Y81434D01*
X357381D01*
Y81587D01*
X357534D01*
Y81740D01*
X357687D01*
Y81892D01*
X357840D01*
Y82045D01*
Y82198D01*
Y82351D01*
X357992D01*
Y82503D01*
Y82656D01*
Y82809D01*
X358145D01*
Y82962D01*
X358298D01*
Y83114D01*
X358145D01*
Y83267D01*
X358298D01*
Y83420D01*
Y83573D01*
Y83726D01*
X358451D01*
Y83878D01*
Y84031D01*
Y84184D01*
X358604D01*
Y84337D01*
X358451D01*
Y84489D01*
X358604D01*
Y84642D01*
Y84795D01*
Y84948D01*
X358756D01*
Y85100D01*
Y85253D01*
Y85406D01*
X358909D01*
Y85559D01*
X358756D01*
Y85711D01*
X358909D01*
Y85864D01*
Y86017D01*
Y86170D01*
X359062D01*
Y86322D01*
Y86475D01*
Y86628D01*
X359214D01*
Y86781D01*
X359062D01*
Y86933D01*
X359214D01*
Y87086D01*
X359062D01*
Y87239D01*
X359214D01*
Y87392D01*
Y87545D01*
Y87697D01*
Y87850D01*
X359367D01*
Y88003D01*
Y88156D01*
Y88308D01*
Y88461D01*
X359520D01*
Y88614D01*
X359367D01*
Y88767D01*
X359520D01*
Y88919D01*
X359367D01*
Y89072D01*
X359520D01*
Y89225D01*
Y89378D01*
Y89530D01*
Y89683D01*
Y89836D01*
D02*
G37*
G36*
X85053Y89378D02*
X84900D01*
Y89225D01*
X85053D01*
Y89378D01*
D02*
G37*
G36*
X87650Y89836D02*
X87192D01*
Y89683D01*
X87039D01*
Y89530D01*
X86886D01*
Y89378D01*
X86428D01*
Y89225D01*
X86275D01*
Y89072D01*
X86122D01*
Y88919D01*
X85970D01*
Y88767D01*
Y88614D01*
X85817D01*
Y88461D01*
Y88308D01*
X85664D01*
Y88156D01*
Y88003D01*
X85511D01*
Y87850D01*
Y87697D01*
X85359D01*
Y87545D01*
Y87392D01*
Y87239D01*
Y87086D01*
Y86933D01*
X85206D01*
Y86781D01*
Y86628D01*
Y86475D01*
Y86322D01*
Y86170D01*
X85053D01*
Y86017D01*
X85206D01*
Y85864D01*
X85053D01*
Y85711D01*
X85206D01*
Y85559D01*
X85053D01*
Y85406D01*
Y85253D01*
Y85100D01*
Y84948D01*
Y84795D01*
Y84642D01*
Y84489D01*
X84900D01*
Y84337D01*
Y84184D01*
Y84031D01*
Y83878D01*
Y83726D01*
X84747D01*
Y83573D01*
X84900D01*
Y83420D01*
X84747D01*
Y83267D01*
X84900D01*
Y83114D01*
X84747D01*
Y82962D01*
X84900D01*
Y82809D01*
X84747D01*
Y82656D01*
X84900D01*
Y82503D01*
X84747D01*
Y82351D01*
X84900D01*
Y82198D01*
X85053D01*
Y82045D01*
X84900D01*
Y81892D01*
X85053D01*
Y81740D01*
X85206D01*
Y81587D01*
X85359D01*
Y81434D01*
X85511D01*
Y81587D01*
X85664D01*
Y81740D01*
X85817D01*
Y81892D01*
X85970D01*
Y82045D01*
Y82198D01*
Y82351D01*
X86122D01*
Y82503D01*
Y82656D01*
Y82809D01*
X86275D01*
Y82962D01*
X86428D01*
Y83114D01*
X86275D01*
Y83267D01*
X86428D01*
Y83420D01*
Y83573D01*
Y83726D01*
X86581D01*
Y83878D01*
Y84031D01*
Y84184D01*
X86733D01*
Y84337D01*
X86581D01*
Y84489D01*
X86733D01*
Y84642D01*
Y84795D01*
Y84948D01*
X86886D01*
Y85100D01*
Y85253D01*
Y85406D01*
X87039D01*
Y85559D01*
X86886D01*
Y85711D01*
X87039D01*
Y85864D01*
Y86017D01*
Y86170D01*
X87192D01*
Y86322D01*
Y86475D01*
Y86628D01*
X87344D01*
Y86781D01*
X87192D01*
Y86933D01*
X87344D01*
Y87086D01*
X87192D01*
Y87239D01*
X87344D01*
Y87392D01*
Y87545D01*
Y87697D01*
Y87850D01*
X87497D01*
Y88003D01*
Y88156D01*
Y88308D01*
Y88461D01*
X87650D01*
Y88614D01*
X87497D01*
Y88767D01*
X87650D01*
Y88919D01*
X87497D01*
Y89072D01*
X87650D01*
Y89225D01*
Y89378D01*
Y89530D01*
Y89683D01*
Y89836D01*
D02*
G37*
G36*
X349743Y91058D02*
X349591D01*
Y90905D01*
X349743D01*
Y91058D01*
D02*
G37*
G36*
X77873D02*
X77720D01*
Y90905D01*
X77873D01*
Y91058D01*
D02*
G37*
G36*
X348216Y75782D02*
X348063D01*
Y75629D01*
X347910D01*
Y75782D01*
X347452D01*
Y75629D01*
X347605D01*
Y75476D01*
X347452D01*
Y75324D01*
Y75171D01*
Y75018D01*
X347299D01*
Y74865D01*
X347147D01*
Y74713D01*
Y74560D01*
Y74407D01*
X346994D01*
Y74254D01*
X347147D01*
Y74102D01*
X346994D01*
Y73949D01*
X346841D01*
Y73796D01*
Y73643D01*
X346688D01*
Y73491D01*
Y73338D01*
X346535D01*
Y73185D01*
X346688D01*
Y73032D01*
X346535D01*
Y72880D01*
Y72727D01*
Y72574D01*
X346383D01*
Y72421D01*
X346230D01*
Y72268D01*
Y72116D01*
Y71963D01*
X346077D01*
Y71810D01*
X345924D01*
Y71658D01*
X346077D01*
Y71505D01*
X345924D01*
Y71352D01*
Y71199D01*
Y71047D01*
X345772D01*
Y70894D01*
Y70741D01*
Y70588D01*
Y70435D01*
Y70283D01*
X345619D01*
Y70130D01*
X345772D01*
Y69977D01*
X345619D01*
Y69824D01*
Y69672D01*
Y69519D01*
X345466D01*
Y69366D01*
X345313D01*
Y69213D01*
X345466D01*
Y69061D01*
X345313D01*
Y68908D01*
Y68755D01*
Y68602D01*
X345161D01*
Y68449D01*
X345008D01*
Y68297D01*
X345161D01*
Y68144D01*
X345008D01*
Y67991D01*
Y67839D01*
X344855D01*
Y67686D01*
Y67533D01*
X344702D01*
Y67380D01*
X344855D01*
Y67228D01*
X344702D01*
Y67075D01*
Y66922D01*
Y66769D01*
X344855D01*
Y66616D01*
X345008D01*
Y66464D01*
X345161D01*
Y66616D01*
X345313D01*
Y66464D01*
X345466D01*
Y66616D01*
X345619D01*
Y66464D01*
X346077D01*
Y66616D01*
X346230D01*
Y66464D01*
X346383D01*
Y66616D01*
X346535D01*
Y66769D01*
X346688D01*
Y66616D01*
X347147D01*
Y66769D01*
X347299D01*
Y66616D01*
X347452D01*
Y66769D01*
X347605D01*
Y66616D01*
X347758D01*
Y66769D01*
X348827D01*
Y66922D01*
X348980D01*
Y66769D01*
X349132D01*
Y66922D01*
X349285D01*
Y67075D01*
X350049D01*
Y67228D01*
X350202D01*
Y67380D01*
X350660D01*
Y67533D01*
X350813D01*
Y67686D01*
X351271D01*
Y67839D01*
X351424D01*
Y67991D01*
X351882D01*
Y68144D01*
X352035D01*
Y68297D01*
X352187D01*
Y68449D01*
X352340D01*
Y68602D01*
Y68755D01*
Y68908D01*
X352493D01*
Y69061D01*
X352646D01*
Y69213D01*
Y69366D01*
Y69519D01*
X352799D01*
Y69672D01*
X352646D01*
Y69824D01*
X352799D01*
Y69977D01*
X352646D01*
Y70130D01*
X352799D01*
Y70283D01*
X352646D01*
Y70435D01*
X352799D01*
Y70588D01*
X352646D01*
Y70741D01*
X352799D01*
Y70894D01*
X352646D01*
Y71047D01*
X352799D01*
Y71199D01*
X352646D01*
Y71352D01*
Y71505D01*
Y71658D01*
X352493D01*
Y71810D01*
Y71963D01*
Y72116D01*
X352340D01*
Y72268D01*
Y72421D01*
X352187D01*
Y72574D01*
Y72727D01*
X352035D01*
Y72880D01*
X351882D01*
Y73032D01*
X351424D01*
Y73185D01*
X351576D01*
Y73338D01*
X351424D01*
Y73491D01*
X351271D01*
Y73643D01*
X351118D01*
Y73796D01*
X350660D01*
Y73949D01*
X350202D01*
Y74102D01*
Y74254D01*
X349896D01*
Y74407D01*
X349743D01*
Y74560D01*
X349591D01*
Y74713D01*
X349438D01*
Y74865D01*
X349285D01*
Y75018D01*
X349132D01*
Y75171D01*
X348827D01*
Y75324D01*
X348521D01*
Y75476D01*
X348369D01*
Y75629D01*
X348216D01*
Y75782D01*
D02*
G37*
G36*
X76346D02*
X76193D01*
Y75629D01*
X76040D01*
Y75782D01*
X75582D01*
Y75629D01*
X75735D01*
Y75476D01*
X75582D01*
Y75324D01*
Y75171D01*
Y75018D01*
X75429D01*
Y74865D01*
X75276D01*
Y74713D01*
Y74560D01*
Y74407D01*
X75124D01*
Y74254D01*
X75276D01*
Y74102D01*
X75124D01*
Y73949D01*
X74971D01*
Y73796D01*
Y73643D01*
X74818D01*
Y73491D01*
Y73338D01*
X74665D01*
Y73185D01*
X74818D01*
Y73032D01*
X74665D01*
Y72880D01*
Y72727D01*
Y72574D01*
X74513D01*
Y72421D01*
X74360D01*
Y72268D01*
Y72116D01*
Y71963D01*
X74207D01*
Y71810D01*
X74054D01*
Y71658D01*
X74207D01*
Y71505D01*
X74054D01*
Y71352D01*
Y71199D01*
Y71047D01*
X73901D01*
Y70894D01*
Y70741D01*
Y70588D01*
Y70435D01*
Y70283D01*
X73749D01*
Y70130D01*
X73901D01*
Y69977D01*
X73749D01*
Y69824D01*
Y69672D01*
Y69519D01*
X73596D01*
Y69366D01*
X73443D01*
Y69213D01*
X73596D01*
Y69061D01*
X73443D01*
Y68908D01*
Y68755D01*
Y68602D01*
X73290D01*
Y68449D01*
X73138D01*
Y68297D01*
X73290D01*
Y68144D01*
X73138D01*
Y67991D01*
Y67839D01*
X72985D01*
Y67686D01*
Y67533D01*
X72832D01*
Y67380D01*
X72985D01*
Y67228D01*
X72832D01*
Y67075D01*
Y66922D01*
Y66769D01*
X72985D01*
Y66616D01*
X73138D01*
Y66464D01*
X73290D01*
Y66616D01*
X73443D01*
Y66464D01*
X73596D01*
Y66616D01*
X73749D01*
Y66464D01*
X74207D01*
Y66616D01*
X74360D01*
Y66464D01*
X74513D01*
Y66616D01*
X74665D01*
Y66769D01*
X74818D01*
Y66616D01*
X75276D01*
Y66769D01*
X75429D01*
Y66616D01*
X75582D01*
Y66769D01*
X75735D01*
Y66616D01*
X75887D01*
Y66769D01*
X76957D01*
Y66922D01*
X77109D01*
Y66769D01*
X77262D01*
Y66922D01*
X77415D01*
Y67075D01*
X78179D01*
Y67228D01*
X78332D01*
Y67380D01*
X78790D01*
Y67533D01*
X78943D01*
Y67686D01*
X79401D01*
Y67839D01*
X79554D01*
Y67991D01*
X80012D01*
Y68144D01*
X80165D01*
Y68297D01*
X80317D01*
Y68449D01*
X80470D01*
Y68602D01*
Y68755D01*
Y68908D01*
X80623D01*
Y69061D01*
X80776D01*
Y69213D01*
Y69366D01*
Y69519D01*
X80928D01*
Y69672D01*
X80776D01*
Y69824D01*
X80928D01*
Y69977D01*
X80776D01*
Y70130D01*
X80928D01*
Y70283D01*
X80776D01*
Y70435D01*
X80928D01*
Y70588D01*
X80776D01*
Y70741D01*
X80928D01*
Y70894D01*
X80776D01*
Y71047D01*
X80928D01*
Y71199D01*
X80776D01*
Y71352D01*
Y71505D01*
Y71658D01*
X80623D01*
Y71810D01*
Y71963D01*
Y72116D01*
X80470D01*
Y72268D01*
Y72421D01*
X80317D01*
Y72574D01*
Y72727D01*
X80165D01*
Y72880D01*
X80012D01*
Y73032D01*
X79554D01*
Y73185D01*
X79706D01*
Y73338D01*
X79554D01*
Y73491D01*
X79401D01*
Y73643D01*
X79248D01*
Y73796D01*
X78790D01*
Y73949D01*
X78332D01*
Y74102D01*
Y74254D01*
X78026D01*
Y74407D01*
X77873D01*
Y74560D01*
X77720D01*
Y74713D01*
X77568D01*
Y74865D01*
X77415D01*
Y75018D01*
X77262D01*
Y75171D01*
X76957D01*
Y75324D01*
X76651D01*
Y75476D01*
X76499D01*
Y75629D01*
X76346D01*
Y75782D01*
D02*
G37*
G36*
X337523Y75476D02*
X336759D01*
Y75324D01*
X336606D01*
Y75171D01*
X336148D01*
Y75018D01*
X335995D01*
Y74865D01*
X335537D01*
Y74713D01*
X335384D01*
Y74560D01*
X334926D01*
Y74407D01*
X334773D01*
Y74254D01*
X334620D01*
Y74102D01*
X334467D01*
Y73949D01*
X334315D01*
Y73796D01*
X334162D01*
Y73643D01*
X334009D01*
Y73491D01*
X333856D01*
Y73338D01*
X333704D01*
Y73185D01*
Y73032D01*
X333398D01*
Y72880D01*
X333245D01*
Y72727D01*
X333093D01*
Y72574D01*
Y72421D01*
X332940D01*
Y72268D01*
Y72116D01*
X332787D01*
Y71963D01*
X332634D01*
Y71810D01*
Y71658D01*
Y71505D01*
X332482D01*
Y71352D01*
Y71199D01*
Y71047D01*
X332329D01*
Y70894D01*
X332176D01*
Y70741D01*
X332023D01*
Y70588D01*
X331871D01*
Y70435D01*
X332023D01*
Y70283D01*
X331871D01*
Y70130D01*
X332023D01*
Y69977D01*
X331871D01*
Y69824D01*
Y69672D01*
X331718D01*
Y69519D01*
Y69366D01*
X331565D01*
Y69213D01*
Y69061D01*
Y68908D01*
X331412D01*
Y68755D01*
X331259D01*
Y68602D01*
Y68449D01*
Y68297D01*
Y68144D01*
Y67991D01*
X331412D01*
Y67839D01*
X331259D01*
Y67686D01*
X331412D01*
Y67533D01*
Y67380D01*
Y67228D01*
X331565D01*
Y67075D01*
X331718D01*
Y66922D01*
Y66769D01*
Y66616D01*
X331871D01*
Y66464D01*
X332329D01*
Y66311D01*
X332482D01*
Y66158D01*
X332634D01*
Y66311D01*
X332787D01*
Y66158D01*
X333245D01*
Y66005D01*
X333398D01*
Y65853D01*
X333551D01*
Y66005D01*
X333704D01*
Y65853D01*
X333856D01*
Y66005D01*
X334009D01*
Y66158D01*
X334467D01*
Y66311D01*
X334620D01*
Y66464D01*
X335078D01*
Y66616D01*
X335231D01*
Y66769D01*
X335384D01*
Y66922D01*
X335689D01*
Y67075D01*
X335995D01*
Y67228D01*
X336148D01*
Y67380D01*
X336300D01*
Y67533D01*
X336453D01*
Y67686D01*
X336606D01*
Y67839D01*
X336759D01*
Y67991D01*
X336912D01*
Y68144D01*
X337064D01*
Y68297D01*
X337217D01*
Y68449D01*
X337370D01*
Y68602D01*
X337523D01*
Y68755D01*
X337675D01*
Y68908D01*
X337828D01*
Y69061D01*
X337981D01*
Y69213D01*
X337828D01*
Y69366D01*
X337981D01*
Y69519D01*
Y69672D01*
Y69824D01*
X338134D01*
Y69977D01*
X338286D01*
Y70130D01*
X338439D01*
Y70283D01*
X338286D01*
Y70435D01*
X338439D01*
Y70588D01*
X338592D01*
Y70741D01*
X338745D01*
Y70894D01*
X338592D01*
Y71047D01*
X338745D01*
Y71199D01*
X338897D01*
Y71352D01*
X339050D01*
Y71505D01*
X338897D01*
Y71658D01*
X339050D01*
Y71810D01*
Y71963D01*
X339203D01*
Y72116D01*
Y72268D01*
X339356D01*
Y72421D01*
Y72574D01*
Y72727D01*
X339509D01*
Y72880D01*
X339661D01*
Y73032D01*
X339509D01*
Y73185D01*
X339356D01*
Y73338D01*
Y73491D01*
Y73643D01*
X339203D01*
Y73796D01*
X339356D01*
Y73949D01*
X339203D01*
Y74102D01*
X339356D01*
Y74254D01*
X339203D01*
Y74407D01*
Y74560D01*
Y74713D01*
X339050D01*
Y74865D01*
X338592D01*
Y75018D01*
X338439D01*
Y75171D01*
X338286D01*
Y75018D01*
X338134D01*
Y75171D01*
X337675D01*
Y75324D01*
X337523D01*
Y75476D01*
D02*
G37*
G36*
X65653D02*
X64889D01*
Y75324D01*
X64736D01*
Y75171D01*
X64278D01*
Y75018D01*
X64125D01*
Y74865D01*
X63667D01*
Y74713D01*
X63514D01*
Y74560D01*
X63056D01*
Y74407D01*
X62903D01*
Y74254D01*
X62750D01*
Y74102D01*
X62597D01*
Y73949D01*
X62445D01*
Y73796D01*
X62292D01*
Y73643D01*
X62139D01*
Y73491D01*
X61986D01*
Y73338D01*
X61834D01*
Y73185D01*
Y73032D01*
X61528D01*
Y72880D01*
X61375D01*
Y72727D01*
X61222D01*
Y72574D01*
Y72421D01*
X61070D01*
Y72268D01*
Y72116D01*
X60917D01*
Y71963D01*
X60764D01*
Y71810D01*
Y71658D01*
Y71505D01*
X60611D01*
Y71352D01*
Y71199D01*
Y71047D01*
X60459D01*
Y70894D01*
X60306D01*
Y70741D01*
X60153D01*
Y70588D01*
X60000D01*
Y70435D01*
X60153D01*
Y70283D01*
X60000D01*
Y70130D01*
X60153D01*
Y69977D01*
X60000D01*
Y69824D01*
Y69672D01*
X59848D01*
Y69519D01*
Y69366D01*
X59695D01*
Y69213D01*
Y69061D01*
Y68908D01*
X59542D01*
Y68755D01*
X59389D01*
Y68602D01*
Y68449D01*
Y68297D01*
Y68144D01*
Y67991D01*
X59542D01*
Y67839D01*
X59389D01*
Y67686D01*
X59542D01*
Y67533D01*
Y67380D01*
Y67228D01*
X59695D01*
Y67075D01*
X59848D01*
Y66922D01*
Y66769D01*
Y66616D01*
X60000D01*
Y66464D01*
X60459D01*
Y66311D01*
X60611D01*
Y66158D01*
X60764D01*
Y66311D01*
X60917D01*
Y66158D01*
X61375D01*
Y66005D01*
X61528D01*
Y65853D01*
X61681D01*
Y66005D01*
X61834D01*
Y65853D01*
X61986D01*
Y66005D01*
X62139D01*
Y66158D01*
X62597D01*
Y66311D01*
X62750D01*
Y66464D01*
X63208D01*
Y66616D01*
X63361D01*
Y66769D01*
X63514D01*
Y66922D01*
X63819D01*
Y67075D01*
X64125D01*
Y67228D01*
X64278D01*
Y67380D01*
X64430D01*
Y67533D01*
X64583D01*
Y67686D01*
X64736D01*
Y67839D01*
X64889D01*
Y67991D01*
X65042D01*
Y68144D01*
X65194D01*
Y68297D01*
X65347D01*
Y68449D01*
X65500D01*
Y68602D01*
X65653D01*
Y68755D01*
X65805D01*
Y68908D01*
X65958D01*
Y69061D01*
X66111D01*
Y69213D01*
X65958D01*
Y69366D01*
X66111D01*
Y69519D01*
Y69672D01*
Y69824D01*
X66264D01*
Y69977D01*
X66416D01*
Y70130D01*
X66569D01*
Y70283D01*
X66416D01*
Y70435D01*
X66569D01*
Y70588D01*
X66722D01*
Y70741D01*
X66875D01*
Y70894D01*
X66722D01*
Y71047D01*
X66875D01*
Y71199D01*
X67027D01*
Y71352D01*
X67180D01*
Y71505D01*
X67027D01*
Y71658D01*
X67180D01*
Y71810D01*
Y71963D01*
X67333D01*
Y72116D01*
Y72268D01*
X67486D01*
Y72421D01*
Y72574D01*
Y72727D01*
X67638D01*
Y72880D01*
X67791D01*
Y73032D01*
X67638D01*
Y73185D01*
X67486D01*
Y73338D01*
Y73491D01*
Y73643D01*
X67333D01*
Y73796D01*
X67486D01*
Y73949D01*
X67333D01*
Y74102D01*
X67486D01*
Y74254D01*
X67333D01*
Y74407D01*
Y74560D01*
Y74713D01*
X67180D01*
Y74865D01*
X66722D01*
Y75018D01*
X66569D01*
Y75171D01*
X66416D01*
Y75018D01*
X66264D01*
Y75171D01*
X65805D01*
Y75324D01*
X65653D01*
Y75476D01*
D02*
G37*
G36*
X325760Y74713D02*
X325607D01*
Y74560D01*
X325760D01*
Y74713D01*
D02*
G37*
G36*
X325455D02*
X325302D01*
Y74560D01*
X325149D01*
Y74713D01*
X324996D01*
Y74560D01*
X324233D01*
Y74407D01*
X324080D01*
Y74560D01*
X323927D01*
Y74407D01*
X323774D01*
Y74254D01*
X323316D01*
Y74102D01*
X323163D01*
Y74254D01*
X323010D01*
Y74102D01*
X322858D01*
Y73949D01*
X322399D01*
Y73796D01*
X322247D01*
Y73643D01*
X322094D01*
Y73491D01*
X322247D01*
Y73338D01*
X322399D01*
Y73185D01*
X322552D01*
Y73032D01*
X322705D01*
Y72880D01*
X323469D01*
Y73032D01*
X323622D01*
Y73185D01*
X324080D01*
Y73338D01*
X324233D01*
Y73491D01*
X324385D01*
Y73643D01*
X324538D01*
Y73796D01*
X324996D01*
Y73949D01*
X325149D01*
Y74102D01*
X325302D01*
Y74254D01*
X325455D01*
Y74407D01*
X325607D01*
Y74560D01*
X325455D01*
Y74713D01*
D02*
G37*
G36*
X53890D02*
X53737D01*
Y74560D01*
X53890D01*
Y74713D01*
D02*
G37*
G36*
X53584D02*
X53432D01*
Y74560D01*
X53279D01*
Y74713D01*
X53126D01*
Y74560D01*
X52362D01*
Y74407D01*
X52210D01*
Y74560D01*
X52057D01*
Y74407D01*
X51904D01*
Y74254D01*
X51446D01*
Y74102D01*
X51293D01*
Y74254D01*
X51140D01*
Y74102D01*
X50987D01*
Y73949D01*
X50529D01*
Y73796D01*
X50376D01*
Y73643D01*
X50224D01*
Y73491D01*
X50376D01*
Y73338D01*
X50529D01*
Y73185D01*
X50682D01*
Y73032D01*
X50835D01*
Y72880D01*
X51599D01*
Y73032D01*
X51751D01*
Y73185D01*
X52210D01*
Y73338D01*
X52362D01*
Y73491D01*
X52515D01*
Y73643D01*
X52668D01*
Y73796D01*
X53126D01*
Y73949D01*
X53279D01*
Y74102D01*
X53432D01*
Y74254D01*
X53584D01*
Y74407D01*
X53737D01*
Y74560D01*
X53584D01*
Y74713D01*
D02*
G37*
%LPD*%
D32*
X70017Y60380D02*
X99151D01*
X70017Y37742D02*
Y60380D01*
Y37742D02*
X99151D01*
Y60380D01*
X229302Y60085D02*
X258436D01*
X229302Y37447D02*
Y60085D01*
Y37447D02*
X258436D01*
Y60085D01*
X200225Y37498D02*
X226603D01*
X200225D02*
Y65057D01*
X226603Y37498D02*
Y65057D01*
X200225D02*
X226603D01*
X173151Y360844D02*
X189710D01*
Y372458D01*
Y360844D02*
X234593D01*
X189710Y372458D02*
X234593D01*
Y360844D02*
Y372458D01*
Y360844D02*
X251151D01*
Y279742D02*
Y360844D01*
X228883Y279742D02*
X251151D01*
X195420D02*
X228883D01*
Y267931D02*
Y279742D01*
X195420Y267931D02*
X228883D01*
X195420D02*
Y279742D01*
X173151D02*
X195420D01*
X173151D02*
Y360844D01*
X63925D02*
X80484D01*
Y372458D01*
Y360844D02*
X125366D01*
X80484Y372458D02*
X125366D01*
Y360844D02*
Y372458D01*
Y360844D02*
X141925D01*
Y279742D02*
Y360844D01*
X119657Y279742D02*
X141925D01*
X86193D02*
X119657D01*
Y267931D02*
Y279742D01*
X86193Y267931D02*
X119657D01*
X86193D02*
Y279742D01*
X63925D02*
X86193D01*
X63925D02*
Y360844D01*
X341887Y60380D02*
X371021D01*
X341887Y37742D02*
Y60380D01*
Y37742D02*
X371021D01*
Y60380D01*
X501172Y60085D02*
X530306D01*
X501172Y37447D02*
Y60085D01*
Y37447D02*
X530306D01*
Y60085D01*
X472095Y37498D02*
X498473D01*
X472095D02*
Y65057D01*
X498473Y37498D02*
Y65057D01*
X472095D02*
X498473D01*
X445022Y360844D02*
X461581D01*
Y372458D01*
Y360844D02*
X506463D01*
X461581Y372458D02*
X506463D01*
Y360844D02*
Y372458D01*
Y360844D02*
X523022D01*
Y279742D02*
Y360844D01*
X500753Y279742D02*
X523022D01*
X467289D02*
X500753D01*
Y267931D02*
Y279742D01*
X467289Y267931D02*
X500753D01*
X467289D02*
Y279742D01*
X445022D02*
X467289D01*
X445022D02*
Y360844D01*
X335795D02*
X352354D01*
Y372458D01*
Y360844D02*
X397236D01*
X352354Y372458D02*
X397236D01*
Y360844D02*
Y372458D01*
Y360844D02*
X413795D01*
Y279742D02*
Y360844D01*
X391527Y279742D02*
X413795D01*
X358063D02*
X391527D01*
Y267931D02*
Y279742D01*
X358063Y267931D02*
X391527D01*
X358063D02*
Y279742D01*
X335795D02*
X358063D01*
X335795D02*
Y360844D01*
D47*
X146454Y166890D02*
G03*
X145454Y165890I0J-1000D01*
G01*
Y159890D02*
G03*
X146454Y158890I1000J0D01*
G01*
X162454D02*
G03*
X163454Y159890I0J1000D01*
G01*
Y165890D02*
G03*
X162454Y166890I-1000J0D01*
G01*
Y168890D02*
G03*
X163454Y169890I0J1000D01*
G01*
Y175890D02*
G03*
X162454Y176890I-1000J0D01*
G01*
X146454D02*
G03*
X145454Y175890I0J-1000D01*
G01*
Y169890D02*
G03*
X146454Y168890I1000J0D01*
G01*
X187572Y153890D02*
G03*
X188572Y154890I0J1000D01*
G01*
X180572D02*
G03*
X181572Y153890I1000J0D01*
G01*
Y171890D02*
G03*
X180572Y170890I0J-1000D01*
G01*
X188572D02*
G03*
X187572Y171890I-1000J0D01*
G01*
X190572Y154890D02*
G03*
X191572Y153890I1000J0D01*
G01*
X197572D02*
G03*
X198572Y154890I0J1000D01*
G01*
Y170890D02*
G03*
X197572Y171890I-1000J0D01*
G01*
X191572D02*
G03*
X190572Y170890I0J-1000D01*
G01*
X145454Y159890D02*
Y165890D01*
X146454Y166890D02*
X162454D01*
X146454Y158890D02*
X162454D01*
X163454Y159890D02*
Y165890D01*
Y169890D02*
Y175890D01*
X146454Y168890D02*
X162454D01*
X146454Y176890D02*
X162454D01*
X145454Y169890D02*
Y175890D01*
X181572Y153890D02*
X187572D01*
X180572Y154890D02*
Y170890D01*
X188572Y154890D02*
Y170890D01*
X181572Y171890D02*
X187572D01*
X191572Y153890D02*
X197572D01*
X190572Y154890D02*
Y170890D01*
X198572Y154890D02*
Y170890D01*
X191572Y171890D02*
X197572D01*
X418324Y166890D02*
G03*
X417324Y165890I0J-1000D01*
G01*
Y159890D02*
G03*
X418324Y158890I1000J0D01*
G01*
X434324D02*
G03*
X435324Y159890I0J1000D01*
G01*
Y165890D02*
G03*
X434324Y166890I-1000J0D01*
G01*
Y168890D02*
G03*
X435324Y169890I0J1000D01*
G01*
Y175890D02*
G03*
X434324Y176890I-1000J0D01*
G01*
X418324D02*
G03*
X417324Y175890I0J-1000D01*
G01*
Y169890D02*
G03*
X418324Y168890I1000J0D01*
G01*
X459443Y153890D02*
G03*
X460442Y154890I0J1000D01*
G01*
X452443D02*
G03*
X453442Y153890I1000J0D01*
G01*
Y171890D02*
G03*
X452443Y170890I0J-1000D01*
G01*
X460442D02*
G03*
X459443Y171890I-1000J0D01*
G01*
X462442Y154890D02*
G03*
X463443Y153890I1000J0D01*
G01*
X469443D02*
G03*
X470442Y154890I0J1000D01*
G01*
Y170890D02*
G03*
X469443Y171890I-1000J0D01*
G01*
X463443D02*
G03*
X462442Y170890I0J-1000D01*
G01*
X417324Y159890D02*
Y165890D01*
X418324Y166890D02*
X434324D01*
X418324Y158890D02*
X434324D01*
X435324Y159890D02*
Y165890D01*
Y169890D02*
Y175890D01*
X418324Y168890D02*
X434324D01*
X418324Y176890D02*
X434324D01*
X417324Y169890D02*
Y175890D01*
X453442Y153890D02*
X459443D01*
X452443Y154890D02*
Y170890D01*
X460442Y154890D02*
Y170890D01*
X453442Y171890D02*
X459443D01*
X463443Y153890D02*
X469443D01*
X462442Y154890D02*
Y170890D01*
X470442Y154890D02*
Y170890D01*
X463443Y171890D02*
X469443D01*
D48*
X132891Y90371D02*
G03*
X132891Y90371I-1969J0D01*
G01*
X168061Y245213D02*
G03*
X168061Y245213I-1969J0D01*
G01*
X85548Y228776D02*
G03*
X85548Y228776I-1969J0D01*
G01*
X116978Y93386D02*
Y98799D01*
X108317Y93386D02*
Y98799D01*
X115108D02*
X116978D01*
X108317D02*
X115108D01*
X108317Y93386D02*
X116978D01*
X175347Y57785D02*
Y64084D01*
X187945Y57785D02*
Y64084D01*
X175347D02*
X187945D01*
X175347Y57785D02*
X187945D01*
X192045Y81670D02*
Y88757D01*
X203462Y81670D02*
Y88757D01*
X192045D02*
X203462D01*
X192045Y81670D02*
X203462D01*
X219013Y88265D02*
X232596D01*
X215667Y84918D02*
X219013Y88265D01*
X215667Y83343D02*
Y84918D01*
X232596Y83343D02*
Y88265D01*
Y71335D02*
Y76257D01*
X215667Y74682D02*
Y76257D01*
X219013Y71335D02*
X232596D01*
X215667Y74682D02*
X219013Y71335D01*
X209171Y79702D02*
Y86001D01*
X206021Y79702D02*
Y86001D01*
Y79702D02*
X209171D01*
X206021Y86001D02*
X209171D01*
X189486Y79702D02*
Y86001D01*
X186336Y79702D02*
Y86001D01*
Y79702D02*
X189486D01*
X186336Y86001D02*
X189486D01*
X166947Y81657D02*
Y95240D01*
Y81657D02*
X170293Y78311D01*
X171868D01*
X166947Y95240D02*
X171868D01*
X178955D02*
X183876D01*
X178955Y78311D02*
X180529D01*
X183876Y81657D02*
Y95240D01*
X180529Y78311D02*
X183876Y81657D01*
X158384Y84583D02*
Y90883D01*
X161533Y84583D02*
Y90883D01*
X158384D02*
X161533D01*
X158384Y84583D02*
X161533D01*
X127380Y72654D02*
Y93914D01*
X148639Y72654D02*
Y93914D01*
X127380Y72654D02*
X148639D01*
X127380Y93914D02*
X148639D01*
X109990Y87382D02*
X116289D01*
X109990Y84232D02*
X116289D01*
Y87382D01*
X109990Y84232D02*
Y87382D01*
X122077Y96565D02*
Y99714D01*
X128376Y96565D02*
Y99714D01*
X122077Y96565D02*
X128376D01*
X122077Y99714D02*
X128376D01*
X135187Y129508D02*
X141486D01*
X135187Y132657D02*
X141486D01*
X135187Y129508D02*
Y132657D01*
X141486Y129508D02*
Y132657D01*
X135187Y123406D02*
X141486D01*
X135187Y126555D02*
X141486D01*
X135187Y123406D02*
Y126555D01*
X141486Y123406D02*
Y126555D01*
X150147Y128480D02*
Y131870D01*
X154084Y135807D01*
X150147Y118091D02*
X154084Y114154D01*
X150147Y118091D02*
Y121437D01*
X154084Y135807D02*
X171801D01*
Y128480D02*
Y135807D01*
Y114154D02*
Y121480D01*
X154084Y114154D02*
X171801D01*
X188828Y243244D02*
Y258992D01*
X200246Y243244D02*
Y258992D01*
X188828D02*
X200246D01*
X188828Y243244D02*
X200246D01*
X128887Y235075D02*
X154478D01*
X128887D02*
Y274445D01*
X154478D01*
Y235075D02*
Y274445D01*
X162549Y241669D02*
X178297D01*
X162549Y260567D02*
X178297D01*
Y241669D02*
Y260567D01*
X162549Y241669D02*
Y260567D01*
X235187Y174390D02*
X240698D01*
X235187Y162579D02*
X240698D01*
Y174390D01*
X235187Y162579D02*
Y174390D01*
X260974Y153284D02*
Y159583D01*
X257824Y153284D02*
Y159583D01*
Y153284D02*
X260974D01*
X257824Y159583D02*
X260974D01*
X250049Y151915D02*
X254773D01*
X250049Y159789D02*
X254773D01*
Y151915D02*
Y159789D01*
X250049Y151915D02*
Y159789D01*
X239320Y159986D02*
X245620D01*
X239320Y156836D02*
X245620D01*
Y159986D01*
X239320Y156836D02*
Y159986D01*
Y150636D02*
X245620D01*
X239320Y153785D02*
X245620D01*
X239320Y150636D02*
Y153785D01*
X245620Y150636D02*
Y153785D01*
X234891Y152299D02*
Y158598D01*
X231742Y152299D02*
Y158598D01*
Y152299D02*
X234891D01*
X231742Y158598D02*
X234891D01*
X235580Y184712D02*
Y198294D01*
Y184712D02*
X238927Y181365D01*
X240501D01*
X235580Y198294D02*
X240501D01*
X247588D02*
X252509D01*
X247588Y181365D02*
X249163D01*
X252509Y184712D02*
Y198294D01*
X249163Y181365D02*
X252509Y184712D01*
X203691Y207067D02*
X224950D01*
Y216559D01*
Y223559D02*
Y233051D01*
X203691D02*
X224950D01*
X198966Y211791D02*
Y216559D01*
Y211791D02*
X203691Y207067D01*
X198966Y228327D02*
X203691Y233051D01*
X198966Y223559D02*
Y228327D01*
X176801Y219917D02*
Y226217D01*
X173651Y219917D02*
Y226217D01*
Y219917D02*
X176801D01*
X173651Y226217D02*
X176801D01*
X159596Y221886D02*
Y228973D01*
X171013Y221886D02*
Y228973D01*
X159596D02*
X171013D01*
X159596Y221886D02*
X171013D01*
X147391Y227594D02*
Y232909D01*
X154478D01*
Y227594D02*
Y232909D01*
X147391Y227594D02*
X154478D01*
X185285Y220453D02*
X191584D01*
X185285Y207854D02*
X191584D01*
Y220453D01*
X185285Y207854D02*
Y220453D01*
X149261Y221591D02*
X155561D01*
X149261Y218441D02*
X155561D01*
Y221591D01*
X149261Y218441D02*
Y221591D01*
X203789Y179803D02*
X225049D01*
Y189295D01*
Y196295D02*
Y205787D01*
X203789D02*
X225049D01*
X199065Y184528D02*
Y189295D01*
Y184528D02*
X203789Y179803D01*
X199065Y201063D02*
X203789Y205787D01*
X199065Y196295D02*
Y201063D01*
X79281Y173110D02*
Y179410D01*
X76131Y173110D02*
Y179410D01*
Y173110D02*
X79281D01*
X76131Y179410D02*
X79281D01*
X85383Y173110D02*
Y179410D01*
X82234Y173110D02*
Y179410D01*
Y173110D02*
X85383D01*
X82234Y179410D02*
X85383D01*
X94734Y163577D02*
Y184837D01*
Y163577D02*
X104226D01*
X111226D02*
X120718D01*
Y184837D01*
X99458Y189561D02*
X104226D01*
X94734Y184837D02*
X99458Y189561D01*
X115994D02*
X120718Y184837D01*
X111226Y189561D02*
X115994D01*
X53795Y145262D02*
Y158845D01*
Y145262D02*
X57142Y141916D01*
X58716D01*
X53795Y158845D02*
X58716D01*
X65803D02*
X70724D01*
X65803Y141916D02*
X67378D01*
X70724Y145262D02*
Y158845D01*
X67378Y141916D02*
X70724Y145262D01*
X55364Y170846D02*
X58754D01*
X51427Y174784D02*
X55364Y170846D01*
X69143D02*
X73080Y174784D01*
X65797Y170846D02*
X69143D01*
X51427Y174784D02*
Y192500D01*
X58754D01*
X65754D02*
X73080D01*
Y174784D02*
Y192500D01*
X71702Y219862D02*
Y226162D01*
X68553Y219862D02*
Y226162D01*
Y219862D02*
X71702D01*
X68553Y226162D02*
X71702D01*
X63139Y212283D02*
X69438D01*
X63139Y215433D02*
X69438D01*
X63139Y212283D02*
Y215433D01*
X69438Y212283D02*
Y215433D01*
X63139Y206083D02*
X69438D01*
X63139Y209232D02*
X69438D01*
X63139Y206083D02*
Y209232D01*
X69438Y206083D02*
Y209232D01*
X57923Y221240D02*
Y227539D01*
X54773Y221240D02*
Y227539D01*
Y221240D02*
X57923D01*
X54773Y227539D02*
X57923D01*
X60875Y227736D02*
X65600D01*
X60875Y219862D02*
X65600D01*
X60875D02*
Y227736D01*
X65600Y219862D02*
Y227736D01*
X80036Y232319D02*
X95784D01*
X80036Y212634D02*
X95784D01*
Y232319D01*
X80036Y212634D02*
Y232319D01*
X119832Y195945D02*
Y202244D01*
X107234Y195945D02*
Y202244D01*
Y195945D02*
X119832D01*
X107234Y202244D02*
X119832D01*
Y205197D02*
Y211496D01*
X107234Y205197D02*
Y211496D01*
Y205197D02*
X119832D01*
X107234Y211496D02*
X119832D01*
X104084Y218780D02*
Y225079D01*
X107234Y218780D02*
Y225079D01*
X104084D02*
X107234D01*
X104084Y218780D02*
X107234D01*
X84694Y209921D02*
X90994D01*
X84694Y206772D02*
X90994D01*
Y209921D01*
X84694Y206772D02*
Y209921D01*
X84760Y238268D02*
X91060D01*
X84760Y235118D02*
X91060D01*
Y238268D01*
X84760Y235118D02*
Y238268D01*
X404762Y90371D02*
G03*
X404762Y90371I-1969J0D01*
G01*
X439931Y245213D02*
G03*
X439931Y245213I-1969J0D01*
G01*
X357418Y228776D02*
G03*
X357418Y228776I-1969J0D01*
G01*
X388848Y93386D02*
Y98799D01*
X380187Y93386D02*
Y98799D01*
X386978D02*
X388848D01*
X380187D02*
X386978D01*
X380187Y93386D02*
X388848D01*
X447217Y57785D02*
Y64084D01*
X459816Y57785D02*
Y64084D01*
X447217D02*
X459816D01*
X447217Y57785D02*
X459816D01*
X463915Y81670D02*
Y88757D01*
X475332Y81670D02*
Y88757D01*
X463915D02*
X475332D01*
X463915Y81670D02*
X475332D01*
X490883Y88265D02*
X504466D01*
X487537Y84918D02*
X490883Y88265D01*
X487537Y83343D02*
Y84918D01*
X504466Y83343D02*
Y88265D01*
Y71335D02*
Y76257D01*
X487537Y74682D02*
Y76257D01*
X490883Y71335D02*
X504466D01*
X487537Y74682D02*
X490883Y71335D01*
X481041Y79702D02*
Y86001D01*
X477891Y79702D02*
Y86001D01*
Y79702D02*
X481041D01*
X477891Y86001D02*
X481041D01*
X461356Y79702D02*
Y86001D01*
X458206Y79702D02*
Y86001D01*
Y79702D02*
X461356D01*
X458206Y86001D02*
X461356D01*
X438817Y81657D02*
Y95240D01*
Y81657D02*
X442163Y78311D01*
X443738D01*
X438817Y95240D02*
X443738D01*
X450825D02*
X455746D01*
X450825Y78311D02*
X452399D01*
X455746Y81657D02*
Y95240D01*
X452399Y78311D02*
X455746Y81657D01*
X430254Y84583D02*
Y90883D01*
X433403Y84583D02*
Y90883D01*
X430254D02*
X433403D01*
X430254Y84583D02*
X433403D01*
X399250Y72654D02*
Y93914D01*
X420509Y72654D02*
Y93914D01*
X399250Y72654D02*
X420509D01*
X399250Y93914D02*
X420509D01*
X381860Y87382D02*
X388159D01*
X381860Y84232D02*
X388159D01*
Y87382D01*
X381860Y84232D02*
Y87382D01*
X393947Y96565D02*
Y99714D01*
X400246Y96565D02*
Y99714D01*
X393947Y96565D02*
X400246D01*
X393947Y99714D02*
X400246D01*
X407057Y129508D02*
X413356D01*
X407057Y132657D02*
X413356D01*
X407057Y129508D02*
Y132657D01*
X413356Y129508D02*
Y132657D01*
X407057Y123406D02*
X413356D01*
X407057Y126555D02*
X413356D01*
X407057Y123406D02*
Y126555D01*
X413356Y123406D02*
Y126555D01*
X422017Y128480D02*
Y131870D01*
X425954Y135807D01*
X422017Y118091D02*
X425954Y114154D01*
X422017Y118091D02*
Y121437D01*
X425954Y135807D02*
X443671D01*
Y128480D02*
Y135807D01*
Y114154D02*
Y121480D01*
X425954Y114154D02*
X443671D01*
X460698Y243244D02*
Y258992D01*
X472116Y243244D02*
Y258992D01*
X460698D02*
X472116D01*
X460698Y243244D02*
X472116D01*
X400758Y235075D02*
X426348D01*
X400758D02*
Y274445D01*
X426348D01*
Y235075D02*
Y274445D01*
X434419Y241669D02*
X450167D01*
X434419Y260567D02*
X450167D01*
Y241669D02*
Y260567D01*
X434419Y241669D02*
Y260567D01*
X507057Y174390D02*
X512569D01*
X507057Y162579D02*
X512569D01*
Y174390D01*
X507057Y162579D02*
Y174390D01*
X532844Y153284D02*
Y159583D01*
X529695Y153284D02*
Y159583D01*
Y153284D02*
X532844D01*
X529695Y159583D02*
X532844D01*
X521919Y151915D02*
X526643D01*
X521919Y159789D02*
X526643D01*
Y151915D02*
Y159789D01*
X521919Y151915D02*
Y159789D01*
X511191Y159986D02*
X517490D01*
X511191Y156836D02*
X517490D01*
Y159986D01*
X511191Y156836D02*
Y159986D01*
Y150636D02*
X517490D01*
X511191Y153785D02*
X517490D01*
X511191Y150636D02*
Y153785D01*
X517490Y150636D02*
Y153785D01*
X506761Y152299D02*
Y158598D01*
X503612Y152299D02*
Y158598D01*
Y152299D02*
X506761D01*
X503612Y158598D02*
X506761D01*
X507450Y184712D02*
Y198294D01*
Y184712D02*
X510797Y181365D01*
X512372D01*
X507450Y198294D02*
X512372D01*
X519458D02*
X524379D01*
X519458Y181365D02*
X521033D01*
X524379Y184712D02*
Y198294D01*
X521033Y181365D02*
X524379Y184712D01*
X475561Y207067D02*
X496820D01*
Y216559D01*
Y223559D02*
Y233051D01*
X475561D02*
X496820D01*
X470836Y211791D02*
Y216559D01*
Y211791D02*
X475561Y207067D01*
X470836Y228327D02*
X475561Y233051D01*
X470836Y223559D02*
Y228327D01*
X448671Y219917D02*
Y226217D01*
X445521Y219917D02*
Y226217D01*
Y219917D02*
X448671D01*
X445521Y226217D02*
X448671D01*
X431466Y221886D02*
Y228973D01*
X442883Y221886D02*
Y228973D01*
X431466D02*
X442883D01*
X431466Y221886D02*
X442883D01*
X419261Y227594D02*
Y232909D01*
X426348D01*
Y227594D02*
Y232909D01*
X419261Y227594D02*
X426348D01*
X457155Y220453D02*
X463454D01*
X457155Y207854D02*
X463454D01*
Y220453D01*
X457155Y207854D02*
Y220453D01*
X421132Y221591D02*
X427431D01*
X421132Y218441D02*
X427431D01*
Y221591D01*
X421132Y218441D02*
Y221591D01*
X475659Y179803D02*
X496919D01*
Y189295D01*
Y196295D02*
Y205787D01*
X475659D02*
X496919D01*
X470935Y184528D02*
Y189295D01*
Y184528D02*
X475659Y179803D01*
X470935Y201063D02*
X475659Y205787D01*
X470935Y196295D02*
Y201063D01*
X351151Y173110D02*
Y179410D01*
X348002Y173110D02*
Y179410D01*
Y173110D02*
X351151D01*
X348002Y179410D02*
X351151D01*
X357254Y173110D02*
Y179410D01*
X354104Y173110D02*
Y179410D01*
Y173110D02*
X357254D01*
X354104Y179410D02*
X357254D01*
X366604Y163577D02*
Y184837D01*
Y163577D02*
X376096D01*
X383096D02*
X392588D01*
Y184837D01*
X371328Y189561D02*
X376096D01*
X366604Y184837D02*
X371328Y189561D01*
X387864D02*
X392588Y184837D01*
X383096Y189561D02*
X387864D01*
X325665Y145262D02*
Y158845D01*
Y145262D02*
X329012Y141916D01*
X330587D01*
X325665Y158845D02*
X330587D01*
X337673D02*
X342595D01*
X337673Y141916D02*
X339248D01*
X342595Y145262D02*
Y158845D01*
X339248Y141916D02*
X342595Y145262D01*
X327234Y170846D02*
X330624D01*
X323297Y174784D02*
X327234Y170846D01*
X341013D02*
X344950Y174784D01*
X337667Y170846D02*
X341013D01*
X323297Y174784D02*
Y192500D01*
X330624D01*
X337624D02*
X344950D01*
Y174784D02*
Y192500D01*
X343572Y219862D02*
Y226162D01*
X340423Y219862D02*
Y226162D01*
Y219862D02*
X343572D01*
X340423Y226162D02*
X343572D01*
X335009Y212283D02*
X341309D01*
X335009Y215433D02*
X341309D01*
X335009Y212283D02*
Y215433D01*
X341309Y212283D02*
Y215433D01*
X335009Y206083D02*
X341309D01*
X335009Y209232D02*
X341309D01*
X335009Y206083D02*
Y209232D01*
X341309Y206083D02*
Y209232D01*
X329793Y221240D02*
Y227539D01*
X326643Y221240D02*
Y227539D01*
Y221240D02*
X329793D01*
X326643Y227539D02*
X329793D01*
X332746Y227736D02*
X337470D01*
X332746Y219862D02*
X337470D01*
X332746D02*
Y227736D01*
X337470Y219862D02*
Y227736D01*
X351906Y232319D02*
X367654D01*
X351906Y212634D02*
X367654D01*
Y232319D01*
X351906Y212634D02*
Y232319D01*
X391702Y195945D02*
Y202244D01*
X379104Y195945D02*
Y202244D01*
Y195945D02*
X391702D01*
X379104Y202244D02*
X391702D01*
Y205197D02*
Y211496D01*
X379104Y205197D02*
Y211496D01*
Y205197D02*
X391702D01*
X379104Y211496D02*
X391702D01*
X375954Y218780D02*
Y225079D01*
X379104Y218780D02*
Y225079D01*
X375954D02*
X379104D01*
X375954Y218780D02*
X379104D01*
X356564Y209921D02*
X362864D01*
X356564Y206772D02*
X362864D01*
Y209921D01*
X356564Y206772D02*
Y209921D01*
X356631Y238268D02*
X362930D01*
X356631Y235118D02*
X362930D01*
Y238268D01*
X356631Y235118D02*
Y238268D01*
D49*
X191571Y135058D02*
G03*
X189679Y144487I-5661J3768D01*
G01*
X191571Y135058D02*
G03*
X189679Y144487I-5661J3768D01*
G01*
X191171Y138858D02*
G03*
X191171Y138858I-5000J0D01*
G01*
D02*
G03*
X191171Y138858I-5000J0D01*
G01*
X182608Y144487D02*
G03*
X191571Y135058I3473J-5674D01*
G01*
X182608Y144487D02*
G03*
X191571Y135058I3473J-5674D01*
G01*
Y116161D02*
G03*
X189679Y125590I-5661J3768D01*
G01*
X191571Y116161D02*
G03*
X189679Y125590I-5661J3768D01*
G01*
X191171Y119961D02*
G03*
X191171Y119961I-5000J0D01*
G01*
D02*
G03*
X191171Y119961I-5000J0D01*
G01*
X182608Y125590D02*
G03*
X191571Y116161I3473J-5674D01*
G01*
X182608Y125590D02*
G03*
X191571Y116161I3473J-5674D01*
G01*
X169242Y140728D02*
Y154508D01*
X133809D02*
X169242D01*
X133809Y140728D02*
Y154508D01*
Y140728D02*
X169242D01*
X168482Y37497D02*
X170982Y39997D01*
Y44997D02*
X173482Y47497D01*
X178482D02*
X180982Y44997D01*
X168482Y47497D02*
X170982Y44997D01*
X178482Y37497D02*
X180982Y39997D01*
X170982D02*
X173482Y37497D01*
X160982Y44997D02*
X163482Y47497D01*
X160982Y39997D02*
X163482Y37497D01*
X180982Y39997D02*
Y44997D01*
X160982Y39997D02*
Y44997D01*
X173482Y47497D02*
X178482D01*
X173482Y37497D02*
X178482D01*
X163482Y47497D02*
X168482D01*
X163482Y37497D02*
X168482D01*
X157183Y37595D02*
Y47595D01*
X117183Y37595D02*
Y47595D01*
Y47595D02*
X157183D01*
X117183Y37595D02*
X157183D01*
X182608Y144487D02*
X189679D01*
X182171Y144158D02*
X190071D01*
X182608Y125590D02*
X189679D01*
X182171Y125261D02*
X190071D01*
X463441Y135058D02*
G03*
X461549Y144487I-5661J3768D01*
G01*
X463441Y135058D02*
G03*
X461549Y144487I-5661J3768D01*
G01*
X463041Y138858D02*
G03*
X463041Y138858I-5000J0D01*
G01*
D02*
G03*
X463041Y138858I-5000J0D01*
G01*
X454478Y144487D02*
G03*
X463441Y135058I3473J-5674D01*
G01*
X454478Y144487D02*
G03*
X463441Y135058I3473J-5674D01*
G01*
Y116161D02*
G03*
X461549Y125590I-5661J3768D01*
G01*
X463441Y116161D02*
G03*
X461549Y125590I-5661J3768D01*
G01*
X463041Y119961D02*
G03*
X463041Y119961I-5000J0D01*
G01*
D02*
G03*
X463041Y119961I-5000J0D01*
G01*
X454478Y125590D02*
G03*
X463441Y116161I3473J-5674D01*
G01*
X454478Y125590D02*
G03*
X463441Y116161I3473J-5674D01*
G01*
X441112Y140728D02*
Y154508D01*
X405679D02*
X441112D01*
X405679Y140728D02*
Y154508D01*
Y140728D02*
X441112D01*
X440352Y37497D02*
X442852Y39997D01*
Y44997D02*
X445352Y47497D01*
X450352D02*
X452852Y44997D01*
X440352Y47497D02*
X442852Y44997D01*
X450352Y37497D02*
X452852Y39997D01*
X442852D02*
X445352Y37497D01*
X432852Y44997D02*
X435352Y47497D01*
X432852Y39997D02*
X435352Y37497D01*
X452852Y39997D02*
Y44997D01*
X432852Y39997D02*
Y44997D01*
X445352Y47497D02*
X450352D01*
X445352Y37497D02*
X450352D01*
X435352Y47497D02*
X440352D01*
X435352Y37497D02*
X440352D01*
X429053Y37595D02*
Y47595D01*
X389053Y37595D02*
Y47595D01*
Y47595D02*
X429053D01*
X389053Y37595D02*
X429053D01*
X454478Y144487D02*
X461549D01*
X454041Y144158D02*
X461941D01*
X454478Y125590D02*
X461549D01*
X454041Y125261D02*
X461941D01*
D50*
X89702Y37969D02*
Y39937D01*
X79466D02*
X89702D01*
X79466Y37969D02*
Y39937D01*
X248987Y37674D02*
Y39642D01*
X238751D02*
X248987D01*
X238751Y37674D02*
Y39642D01*
X361572Y37969D02*
Y39937D01*
X351336D02*
X361572D01*
X351336Y37969D02*
Y39937D01*
X520857Y37674D02*
Y39642D01*
X510621D02*
X520857D01*
X510621Y37674D02*
Y39642D01*
D51*
X265107Y67205D02*
X264582D01*
X263532Y66155D01*
X264582Y65106D01*
X265107D01*
X263532Y66155D02*
X261958D01*
X264582Y61957D02*
X265107Y62482D01*
Y63531D01*
X264582Y64056D01*
X262483D01*
X261958Y63531D01*
Y62482D01*
X262483Y61957D01*
X263532D01*
Y63007D01*
X261958Y60908D02*
X265107D01*
X261958Y58808D01*
X265107D01*
X263532Y54610D02*
Y52511D01*
X264057Y48313D02*
X261958Y47264D01*
X264057Y46214D01*
X261958Y43066D02*
Y45165D01*
X264057Y43066D01*
X264582D01*
X265107Y43590D01*
Y44640D01*
X264582Y45165D01*
X261958Y42016D02*
X262483D01*
Y41491D01*
X261958D01*
Y42016D01*
X264582Y39392D02*
X265107Y38867D01*
Y37818D01*
X264582Y37293D01*
X262483D01*
X261958Y37818D01*
Y38867D01*
X262483Y39392D01*
X264582D01*
X536977Y67205D02*
X536452D01*
X535403Y66155D01*
X536452Y65106D01*
X536977D01*
X535403Y66155D02*
X533828D01*
X536452Y61957D02*
X536977Y62482D01*
Y63531D01*
X536452Y64056D01*
X534353D01*
X533828Y63531D01*
Y62482D01*
X534353Y61957D01*
X535403D01*
Y63007D01*
X533828Y60908D02*
X536977D01*
X533828Y58808D01*
X536977D01*
X535403Y54610D02*
Y52511D01*
X535927Y48313D02*
X533828Y47264D01*
X535927Y46214D01*
X533828Y43066D02*
Y45165D01*
X535927Y43066D01*
X536452D01*
X536977Y43590D01*
Y44640D01*
X536452Y45165D01*
X533828Y42016D02*
X534353D01*
Y41491D01*
X533828D01*
Y42016D01*
X536452Y39392D02*
X536977Y38867D01*
Y37818D01*
X536452Y37293D01*
X534353D01*
X533828Y37818D01*
Y38867D01*
X534353Y39392D01*
X536452D01*
D52*
X131777Y96565D02*
Y99713D01*
X133351D01*
X133876Y99188D01*
Y98139D01*
X133351Y97614D01*
X131777D01*
X132826D02*
X133876Y96565D01*
X137024Y99713D02*
X135975Y99188D01*
X134925Y98139D01*
Y97089D01*
X135450Y96565D01*
X136500D01*
X137024Y97089D01*
Y97614D01*
X136500Y98139D01*
X134925D01*
X134774Y84457D02*
Y81833D01*
X135299Y81309D01*
X136348D01*
X136873Y81833D01*
Y84457D01*
X137923Y81309D02*
X138972D01*
X138447D01*
Y84457D01*
X137923Y83933D01*
X231840Y148406D02*
X234989D01*
Y146831D01*
X234464Y146307D01*
X233414D01*
X232890Y146831D01*
Y148406D01*
Y147356D02*
X231840Y146307D01*
Y145257D02*
Y144207D01*
Y144732D01*
X234989D01*
X234464Y145257D01*
X234989Y140534D02*
Y142633D01*
X233414D01*
X233939Y141584D01*
Y141059D01*
X233414Y140534D01*
X232365D01*
X231840Y141059D01*
Y142108D01*
X232365Y142633D01*
X257824Y149587D02*
X260973D01*
Y148012D01*
X260448Y147488D01*
X259399D01*
X258874Y148012D01*
Y149587D01*
Y148537D02*
X257824Y147488D01*
Y146438D02*
Y145388D01*
Y145913D01*
X260973D01*
X260448Y146438D01*
X257824Y142240D02*
X260973D01*
X259399Y143814D01*
Y141715D01*
X238336Y140138D02*
Y143286D01*
X239911D01*
X240435Y142762D01*
Y141712D01*
X239911Y141187D01*
X238336D01*
X239386D02*
X240435Y140138D01*
X241485D02*
X242534D01*
X242009D01*
Y143286D01*
X241485Y142762D01*
X244109D02*
X244633Y143286D01*
X245683D01*
X246208Y142762D01*
Y142237D01*
X245683Y141712D01*
X245158D01*
X245683D01*
X246208Y141187D01*
Y140663D01*
X245683Y140138D01*
X244633D01*
X244109Y140663D01*
X123671Y123307D02*
Y126456D01*
X125245D01*
X125770Y125931D01*
Y124881D01*
X125245Y124357D01*
X123671D01*
X124720D02*
X125770Y123307D01*
X126819D02*
X127869D01*
X127344D01*
Y126456D01*
X126819Y125931D01*
X131542Y123307D02*
X129443D01*
X131542Y125406D01*
Y125931D01*
X131017Y126456D01*
X129968D01*
X129443Y125931D01*
X76328Y169272D02*
X79477D01*
Y167697D01*
X78952Y167173D01*
X77903D01*
X77378Y167697D01*
Y169272D01*
Y168222D02*
X76328Y167173D01*
Y166123D02*
Y165074D01*
Y165598D01*
X79477D01*
X78952Y166123D01*
X76328Y163499D02*
Y162450D01*
Y162975D01*
X79477D01*
X78952Y163499D01*
X82234Y169272D02*
X85382D01*
Y167697D01*
X84858Y167173D01*
X83808D01*
X83283Y167697D01*
Y169272D01*
Y168222D02*
X82234Y167173D01*
Y166123D02*
Y165074D01*
Y165598D01*
X85382D01*
X84858Y166123D01*
Y163499D02*
X85382Y162975D01*
Y161925D01*
X84858Y161400D01*
X82759D01*
X82234Y161925D01*
Y162975D01*
X82759Y163499D01*
X84858D01*
X54379Y212283D02*
Y215432D01*
X55954D01*
X56479Y214907D01*
Y213858D01*
X55954Y213333D01*
X54379D01*
X55429D02*
X56479Y212283D01*
X57528Y212808D02*
X58053Y212283D01*
X59102D01*
X59627Y212808D01*
Y214907D01*
X59102Y215432D01*
X58053D01*
X57528Y214907D01*
Y214383D01*
X58053Y213858D01*
X59627D01*
X54379Y206126D02*
Y209275D01*
X55954D01*
X56479Y208750D01*
Y207700D01*
X55954Y207175D01*
X54379D01*
X55429D02*
X56479Y206126D01*
X57528Y208750D02*
X58053Y209275D01*
X59102D01*
X59627Y208750D01*
Y208225D01*
X59102Y207700D01*
X59627Y207175D01*
Y206651D01*
X59102Y206126D01*
X58053D01*
X57528Y206651D01*
Y207175D01*
X58053Y207700D01*
X57528Y208225D01*
Y208750D01*
X58053Y207700D02*
X59102D01*
X54281Y236595D02*
X57430D01*
Y235020D01*
X56905Y234495D01*
X55855D01*
X55331Y235020D01*
Y236595D01*
Y235545D02*
X54281Y234495D01*
X57430Y233446D02*
Y231347D01*
X56905D01*
X54806Y233446D01*
X54281D01*
X101341Y84271D02*
Y87419D01*
X102915D01*
X103440Y86895D01*
Y85845D01*
X102915Y85320D01*
X101341D01*
X102390D02*
X103440Y84271D01*
X106588Y87419D02*
X104490D01*
Y85845D01*
X105539Y86370D01*
X106064D01*
X106588Y85845D01*
Y84796D01*
X106064Y84271D01*
X105014D01*
X104490Y84796D01*
X166664Y59163D02*
Y62312D01*
X168238D01*
X168763Y61787D01*
Y60737D01*
X168238Y60212D01*
X166664D01*
X167713D02*
X168763Y59163D01*
X171387D02*
Y62312D01*
X169812Y60737D01*
X171911D01*
X123375Y197126D02*
Y200275D01*
X124950D01*
X125475Y199750D01*
Y198700D01*
X124950Y198176D01*
X123375D01*
X124425D02*
X125475Y197126D01*
X126524Y199750D02*
X127049Y200275D01*
X128098D01*
X128623Y199750D01*
Y199225D01*
X128098Y198700D01*
X127574D01*
X128098D01*
X128623Y198176D01*
Y197651D01*
X128098Y197126D01*
X127049D01*
X126524Y197651D01*
X123375Y206476D02*
Y209625D01*
X124950D01*
X125475Y209100D01*
Y208051D01*
X124950Y207526D01*
X123375D01*
X124425D02*
X125475Y206476D01*
X128623D02*
X126524D01*
X128623Y208576D01*
Y209100D01*
X128098Y209625D01*
X127049D01*
X126524Y209100D01*
X186958Y228327D02*
X190107D01*
Y226752D01*
X189582Y226228D01*
X188532D01*
X188008Y226752D01*
Y228327D01*
Y227277D02*
X186958Y226228D01*
Y225178D02*
Y224129D01*
Y224654D01*
X190107D01*
X189582Y225178D01*
X242207Y174161D02*
X244306D01*
X244831Y174686D01*
Y175735D01*
X244306Y176260D01*
X242207D01*
X241683Y175735D01*
Y174686D01*
X242732Y175210D02*
X241683Y174161D01*
Y174686D02*
X242207Y174161D01*
X241683Y171012D02*
Y173111D01*
X243782Y171012D01*
X244306D01*
X244831Y171537D01*
Y172587D01*
X244306Y173111D01*
X108066Y100636D02*
Y102735D01*
X107541Y103260D01*
X106492D01*
X105967Y102735D01*
Y100636D01*
X106492Y100111D01*
X107541D01*
X107016Y101161D02*
X108066Y100111D01*
X107541D02*
X108066Y100636D01*
X109115Y100111D02*
X110165D01*
X109640D01*
Y103260D01*
X109115Y102735D01*
X84465Y223460D02*
X85515D01*
X84990D01*
Y220311D01*
X84465D01*
X85515D01*
X89188Y222935D02*
X88663Y223460D01*
X87614D01*
X87089Y222935D01*
Y220836D01*
X87614Y220311D01*
X88663D01*
X89188Y220836D01*
X90238Y220311D02*
X91287D01*
X90762D01*
Y223460D01*
X90238Y222935D01*
X137746Y231869D02*
Y228720D01*
X139320D01*
X139845Y229245D01*
Y231344D01*
X139320Y231869D01*
X137746D01*
X142993Y228720D02*
X140894D01*
X142993Y230820D01*
Y231344D01*
X142469Y231869D01*
X141419D01*
X140894Y231344D01*
X205264Y252835D02*
X202116D01*
Y251260D01*
X202641Y250736D01*
X204739D01*
X205264Y251260D01*
Y252835D01*
X202116Y249686D02*
Y248637D01*
Y249161D01*
X205264D01*
X204739Y249686D01*
X250376Y202141D02*
X249851Y202665D01*
X248802D01*
X248277Y202141D01*
Y200042D01*
X248802Y199517D01*
X249851D01*
X250376Y200042D01*
X253525Y199517D02*
X251426D01*
X253525Y201616D01*
Y202141D01*
X253000Y202665D01*
X251951D01*
X251426Y202141D01*
X256673Y199517D02*
X254574D01*
X256673Y201616D01*
Y202141D01*
X256149Y202665D01*
X255099D01*
X254574Y202141D01*
X253263Y146263D02*
X253788Y146788D01*
Y147837D01*
X253263Y148362D01*
X251164D01*
X250639Y147837D01*
Y146788D01*
X251164Y146263D01*
X250639Y143115D02*
Y145214D01*
X252738Y143115D01*
X253263D01*
X253788Y143639D01*
Y144689D01*
X253263Y145214D01*
X250639Y142065D02*
Y141016D01*
Y141540D01*
X253788D01*
X253263Y142065D01*
X240238Y147686D02*
X239714Y148211D01*
X238664D01*
X238139Y147686D01*
Y145587D01*
X238664Y145062D01*
X239714D01*
X240238Y145587D01*
X243387Y145062D02*
X241288D01*
X243387Y147161D01*
Y147686D01*
X242862Y148211D01*
X241813D01*
X241288Y147686D01*
X244437D02*
X244961Y148211D01*
X246011D01*
X246536Y147686D01*
Y145587D01*
X246011Y145062D01*
X244961D01*
X244437Y145587D01*
Y147686D01*
X125874Y132033D02*
X125349Y132558D01*
X124300D01*
X123775Y132033D01*
Y129934D01*
X124300Y129409D01*
X125349D01*
X125874Y129934D01*
X126923Y129409D02*
X127973D01*
X127448D01*
Y132558D01*
X126923Y132033D01*
X129547Y129934D02*
X130072Y129409D01*
X131122D01*
X131646Y129934D01*
Y132033D01*
X131122Y132558D01*
X130072D01*
X129547Y132033D01*
Y131508D01*
X130072Y130984D01*
X131646D01*
X175606Y135775D02*
X176130Y136300D01*
Y137349D01*
X175606Y137874D01*
X173507D01*
X172982Y137349D01*
Y136300D01*
X173507Y135775D01*
X172982Y134725D02*
Y133676D01*
Y134201D01*
X176130D01*
X175606Y134725D01*
Y132102D02*
X176130Y131577D01*
Y130527D01*
X175606Y130003D01*
X175081D01*
X174556Y130527D01*
X174031Y130003D01*
X173507D01*
X172982Y130527D01*
Y131577D01*
X173507Y132102D01*
X174031D01*
X174556Y131577D01*
X175081Y132102D01*
X175606D01*
X174556Y131577D02*
Y130527D01*
X52049Y196305D02*
X51525Y196830D01*
X50475D01*
X49950Y196305D01*
Y194206D01*
X50475Y193681D01*
X51525D01*
X52049Y194206D01*
X53099Y193681D02*
X54149D01*
X53624D01*
Y196830D01*
X53099Y196305D01*
X55723Y196830D02*
X57822D01*
Y196305D01*
X55723Y194206D01*
Y193681D01*
X51262Y162840D02*
X50737Y163365D01*
X49688D01*
X49163Y162840D01*
Y160741D01*
X49688Y160217D01*
X50737D01*
X51262Y160741D01*
X52311Y160217D02*
X53361D01*
X52836D01*
Y163365D01*
X52311Y162840D01*
X57034Y163365D02*
X55985Y162840D01*
X54935Y161791D01*
Y160741D01*
X55460Y160217D01*
X56510D01*
X57034Y160741D01*
Y161266D01*
X56510Y161791D01*
X54935D01*
X75278Y209297D02*
X74753Y209822D01*
X73703D01*
X73179Y209297D01*
Y207198D01*
X73703Y206673D01*
X74753D01*
X75278Y207198D01*
X76327Y206673D02*
X77377D01*
X76852D01*
Y209822D01*
X76327Y209297D01*
X81050Y209822D02*
X78951D01*
Y208248D01*
X80001Y208772D01*
X80525D01*
X81050Y208248D01*
Y207198D01*
X80525Y206673D01*
X79476D01*
X78951Y207198D01*
X96538Y238037D02*
X96013Y238562D01*
X94963D01*
X94438Y238037D01*
Y235938D01*
X94963Y235413D01*
X96013D01*
X96538Y235938D01*
X97587Y235413D02*
X98637D01*
X98112D01*
Y238562D01*
X97587Y238037D01*
X101785Y235413D02*
Y238562D01*
X100211Y236988D01*
X102310D01*
X71078Y235677D02*
X71603Y236201D01*
Y237251D01*
X71078Y237776D01*
X68979D01*
X68454Y237251D01*
Y236201D01*
X68979Y235677D01*
X68454Y234627D02*
Y233577D01*
Y234102D01*
X71603D01*
X71078Y234627D01*
Y232003D02*
X71603Y231479D01*
Y230429D01*
X71078Y229904D01*
X70553D01*
X70029Y230429D01*
Y230954D01*
Y230429D01*
X69504Y229904D01*
X68979D01*
X68454Y230429D01*
Y231479D01*
X68979Y232003D01*
X64779Y237251D02*
X65304Y237776D01*
Y238826D01*
X64779Y239350D01*
X62680D01*
X62155Y238826D01*
Y237776D01*
X62680Y237251D01*
X62155Y236202D02*
Y235152D01*
Y235677D01*
X65304D01*
X64779Y236202D01*
X62155Y231479D02*
Y233578D01*
X64254Y231479D01*
X64779D01*
X65304Y232004D01*
Y233053D01*
X64779Y233578D01*
X141026Y221108D02*
X140501Y221633D01*
X139452D01*
X138927Y221108D01*
Y219009D01*
X139452Y218484D01*
X140501D01*
X141026Y219009D01*
X142075Y218484D02*
X143125D01*
X142600D01*
Y221633D01*
X142075Y221108D01*
X144699Y218484D02*
X145749D01*
X145224D01*
Y221633D01*
X144699Y221108D01*
X176295Y214570D02*
X176819Y215095D01*
Y216145D01*
X176295Y216669D01*
X174196D01*
X173671Y216145D01*
Y215095D01*
X174196Y214570D01*
X173671Y213521D02*
Y212471D01*
Y212996D01*
X176819D01*
X176295Y213521D01*
Y210897D02*
X176819Y210372D01*
Y209323D01*
X176295Y208798D01*
X174196D01*
X173671Y209323D01*
Y210372D01*
X174196Y210897D01*
X176295D01*
X160922Y97714D02*
X161446Y98238D01*
Y99288D01*
X160922Y99813D01*
X158822D01*
X158298Y99288D01*
Y98238D01*
X158822Y97714D01*
Y96664D02*
X158298Y96139D01*
Y95090D01*
X158822Y94565D01*
X160922D01*
X161446Y95090D01*
Y96139D01*
X160922Y96664D01*
X160397D01*
X159872Y96139D01*
Y94565D01*
X167699Y98766D02*
X167174Y99290D01*
X166125D01*
X165600Y98766D01*
Y96667D01*
X166125Y96142D01*
X167174D01*
X167699Y96667D01*
X168748Y98766D02*
X169273Y99290D01*
X170323D01*
X170848Y98766D01*
Y98241D01*
X170323Y97716D01*
X170848Y97191D01*
Y96667D01*
X170323Y96142D01*
X169273D01*
X168748Y96667D01*
Y97191D01*
X169273Y97716D01*
X168748Y98241D01*
Y98766D01*
X169273Y97716D02*
X170323D01*
X188795Y93255D02*
X189319Y93780D01*
Y94830D01*
X188795Y95354D01*
X186696D01*
X186171Y94830D01*
Y93780D01*
X186696Y93255D01*
X189319Y92206D02*
Y90107D01*
X188795D01*
X186696Y92206D01*
X186171D01*
X208775Y92960D02*
X209300Y93485D01*
Y94534D01*
X208775Y95059D01*
X206676D01*
X206151Y94534D01*
Y93485D01*
X206676Y92960D01*
X209300Y89811D02*
X208775Y90861D01*
X207725Y91910D01*
X206676D01*
X206151Y91386D01*
Y90336D01*
X206676Y89811D01*
X207201D01*
X207725Y90336D01*
Y91910D01*
X236531Y87842D02*
X237056Y88367D01*
Y89416D01*
X236531Y89941D01*
X234432D01*
X233907Y89416D01*
Y88367D01*
X234432Y87842D01*
X237056Y84693D02*
Y86792D01*
X235481D01*
X236006Y85743D01*
Y85218D01*
X235481Y84693D01*
X234432D01*
X233907Y85218D01*
Y86268D01*
X234432Y86792D01*
X115041Y161659D02*
X114517Y162184D01*
X113467D01*
X112943Y161659D01*
Y159560D01*
X113467Y159036D01*
X114517D01*
X115041Y159560D01*
X117665Y159036D02*
Y162184D01*
X116091Y160610D01*
X118190D01*
X106609Y231684D02*
X107134Y232209D01*
Y233259D01*
X106609Y233784D01*
X104510D01*
X103986Y233259D01*
Y232209D01*
X104510Y231684D01*
X106609Y230635D02*
X107134Y230110D01*
Y229061D01*
X106609Y228536D01*
X106085D01*
X105560Y229061D01*
Y229585D01*
Y229061D01*
X105035Y228536D01*
X104510D01*
X103986Y229061D01*
Y230110D01*
X104510Y230635D01*
X228952Y201031D02*
X229477Y201556D01*
Y202605D01*
X228952Y203130D01*
X226853D01*
X226328Y202605D01*
Y201556D01*
X226853Y201031D01*
X226328Y197882D02*
Y199981D01*
X228427Y197882D01*
X228952D01*
X229477Y198407D01*
Y199457D01*
X228952Y199981D01*
X229346Y228590D02*
X229871Y229115D01*
Y230164D01*
X229346Y230689D01*
X227247D01*
X226722Y230164D01*
Y229115D01*
X227247Y228590D01*
X226722Y227540D02*
Y226491D01*
Y227016D01*
X229871D01*
X229346Y227540D01*
X197226Y355245D02*
X196176D01*
X195651Y354720D01*
Y352621D01*
X196176Y352096D01*
X197226D01*
X197750Y352621D01*
Y354720D01*
X197226Y355245D01*
X198800D02*
Y352621D01*
X199325Y352096D01*
X200374D01*
X200899Y352621D01*
Y355245D01*
X201949D02*
X204048D01*
X202998D01*
Y352096D01*
X205097D02*
Y355245D01*
X206672D01*
X207196Y354720D01*
Y353670D01*
X206672Y353146D01*
X205097D01*
X208246Y355245D02*
Y352621D01*
X208770Y352096D01*
X209820D01*
X210345Y352621D01*
Y355245D01*
X211394D02*
X213493D01*
X212444D01*
Y352096D01*
X88925Y355245D02*
X89974D01*
X89450D01*
Y352096D01*
X88925D01*
X89974D01*
X91549D02*
Y355245D01*
X93648Y352096D01*
Y355245D01*
X94697Y352096D02*
Y355245D01*
X96272D01*
X96796Y354720D01*
Y353670D01*
X96272Y353146D01*
X94697D01*
X97846Y355245D02*
Y352621D01*
X98371Y352096D01*
X99420D01*
X99945Y352621D01*
Y355245D01*
X100995D02*
X103094D01*
X102044D01*
Y352096D01*
X403647Y96565D02*
Y99713D01*
X405221D01*
X405746Y99188D01*
Y98139D01*
X405221Y97614D01*
X403647D01*
X404696D02*
X405746Y96565D01*
X408894Y99713D02*
X407845Y99188D01*
X406795Y98139D01*
Y97089D01*
X407320Y96565D01*
X408370D01*
X408894Y97089D01*
Y97614D01*
X408370Y98139D01*
X406795D01*
X406644Y84457D02*
Y81833D01*
X407169Y81309D01*
X408218D01*
X408743Y81833D01*
Y84457D01*
X409793Y81309D02*
X410842D01*
X410318D01*
Y84457D01*
X409793Y83933D01*
X503710Y148406D02*
X506859D01*
Y146831D01*
X506334Y146307D01*
X505285D01*
X504760Y146831D01*
Y148406D01*
Y147356D02*
X503710Y146307D01*
Y145257D02*
Y144207D01*
Y144732D01*
X506859D01*
X506334Y145257D01*
X506859Y140534D02*
Y142633D01*
X505285D01*
X505809Y141584D01*
Y141059D01*
X505285Y140534D01*
X504235D01*
X503710Y141059D01*
Y142108D01*
X504235Y142633D01*
X529695Y149587D02*
X532843D01*
Y148012D01*
X532318Y147488D01*
X531269D01*
X530744Y148012D01*
Y149587D01*
Y148537D02*
X529695Y147488D01*
Y146438D02*
Y145388D01*
Y145913D01*
X532843D01*
X532318Y146438D01*
X529695Y142240D02*
X532843D01*
X531269Y143814D01*
Y141715D01*
X510206Y140138D02*
Y143286D01*
X511781D01*
X512305Y142762D01*
Y141712D01*
X511781Y141187D01*
X510206D01*
X511256D02*
X512305Y140138D01*
X513355D02*
X514404D01*
X513880D01*
Y143286D01*
X513355Y142762D01*
X515979D02*
X516503Y143286D01*
X517553D01*
X518078Y142762D01*
Y142237D01*
X517553Y141712D01*
X517028D01*
X517553D01*
X518078Y141187D01*
Y140663D01*
X517553Y140138D01*
X516503D01*
X515979Y140663D01*
X395541Y123307D02*
Y126456D01*
X397115D01*
X397640Y125931D01*
Y124881D01*
X397115Y124357D01*
X395541D01*
X396590D02*
X397640Y123307D01*
X398690D02*
X399739D01*
X399214D01*
Y126456D01*
X398690Y125931D01*
X403412Y123307D02*
X401313D01*
X403412Y125406D01*
Y125931D01*
X402888Y126456D01*
X401838D01*
X401313Y125931D01*
X348198Y169272D02*
X351347D01*
Y167697D01*
X350822Y167173D01*
X349773D01*
X349248Y167697D01*
Y169272D01*
Y168222D02*
X348198Y167173D01*
Y166123D02*
Y165074D01*
Y165598D01*
X351347D01*
X350822Y166123D01*
X348198Y163499D02*
Y162450D01*
Y162975D01*
X351347D01*
X350822Y163499D01*
X354104Y169272D02*
X357253D01*
Y167697D01*
X356728Y167173D01*
X355678D01*
X355153Y167697D01*
Y169272D01*
Y168222D02*
X354104Y167173D01*
Y166123D02*
Y165074D01*
Y165598D01*
X357253D01*
X356728Y166123D01*
Y163499D02*
X357253Y162975D01*
Y161925D01*
X356728Y161400D01*
X354629D01*
X354104Y161925D01*
Y162975D01*
X354629Y163499D01*
X356728D01*
X326250Y212283D02*
Y215432D01*
X327824D01*
X328349Y214907D01*
Y213858D01*
X327824Y213333D01*
X326250D01*
X327299D02*
X328349Y212283D01*
X329398Y212808D02*
X329923Y212283D01*
X330972D01*
X331497Y212808D01*
Y214907D01*
X330972Y215432D01*
X329923D01*
X329398Y214907D01*
Y214383D01*
X329923Y213858D01*
X331497D01*
X326250Y206126D02*
Y209275D01*
X327824D01*
X328349Y208750D01*
Y207700D01*
X327824Y207175D01*
X326250D01*
X327299D02*
X328349Y206126D01*
X329398Y208750D02*
X329923Y209275D01*
X330972D01*
X331497Y208750D01*
Y208225D01*
X330972Y207700D01*
X331497Y207175D01*
Y206651D01*
X330972Y206126D01*
X329923D01*
X329398Y206651D01*
Y207175D01*
X329923Y207700D01*
X329398Y208225D01*
Y208750D01*
X329923Y207700D02*
X330972D01*
X326151Y236595D02*
X329300D01*
Y235020D01*
X328775Y234495D01*
X327726D01*
X327201Y235020D01*
Y236595D01*
Y235545D02*
X326151Y234495D01*
X329300Y233446D02*
Y231347D01*
X328775D01*
X326676Y233446D01*
X326151D01*
X373211Y84271D02*
Y87419D01*
X374785D01*
X375310Y86895D01*
Y85845D01*
X374785Y85320D01*
X373211D01*
X374260D02*
X375310Y84271D01*
X378459Y87419D02*
X376360D01*
Y85845D01*
X377409Y86370D01*
X377934D01*
X378459Y85845D01*
Y84796D01*
X377934Y84271D01*
X376884D01*
X376360Y84796D01*
X438534Y59163D02*
Y62312D01*
X440108D01*
X440633Y61787D01*
Y60737D01*
X440108Y60212D01*
X438534D01*
X439583D02*
X440633Y59163D01*
X443257D02*
Y62312D01*
X441682Y60737D01*
X443782D01*
X395246Y197126D02*
Y200275D01*
X396820D01*
X397345Y199750D01*
Y198700D01*
X396820Y198176D01*
X395246D01*
X396295D02*
X397345Y197126D01*
X398394Y199750D02*
X398919Y200275D01*
X399969D01*
X400493Y199750D01*
Y199225D01*
X399969Y198700D01*
X399444D01*
X399969D01*
X400493Y198176D01*
Y197651D01*
X399969Y197126D01*
X398919D01*
X398394Y197651D01*
X395246Y206476D02*
Y209625D01*
X396820D01*
X397345Y209100D01*
Y208051D01*
X396820Y207526D01*
X395246D01*
X396295D02*
X397345Y206476D01*
X400493D02*
X398394D01*
X400493Y208576D01*
Y209100D01*
X399969Y209625D01*
X398919D01*
X398394Y209100D01*
X458828Y228327D02*
X461977D01*
Y226752D01*
X461452Y226228D01*
X460403D01*
X459878Y226752D01*
Y228327D01*
Y227277D02*
X458828Y226228D01*
Y225178D02*
Y224129D01*
Y224654D01*
X461977D01*
X461452Y225178D01*
X514078Y174161D02*
X516177D01*
X516701Y174686D01*
Y175735D01*
X516177Y176260D01*
X514078D01*
X513553Y175735D01*
Y174686D01*
X514602Y175210D02*
X513553Y174161D01*
Y174686D02*
X514078Y174161D01*
X513553Y171012D02*
Y173111D01*
X515652Y171012D01*
X516177D01*
X516701Y171537D01*
Y172587D01*
X516177Y173111D01*
X379936Y100636D02*
Y102735D01*
X379411Y103260D01*
X378362D01*
X377837Y102735D01*
Y100636D01*
X378362Y100111D01*
X379411D01*
X378887Y101161D02*
X379936Y100111D01*
X379411D02*
X379936Y100636D01*
X380985Y100111D02*
X382035D01*
X381510D01*
Y103260D01*
X380985Y102735D01*
X356335Y223460D02*
X357385D01*
X356860D01*
Y220311D01*
X356335D01*
X357385D01*
X361058Y222935D02*
X360533Y223460D01*
X359484D01*
X358959Y222935D01*
Y220836D01*
X359484Y220311D01*
X360533D01*
X361058Y220836D01*
X362108Y220311D02*
X363157D01*
X362632D01*
Y223460D01*
X362108Y222935D01*
X409616Y231869D02*
Y228720D01*
X411190D01*
X411715Y229245D01*
Y231344D01*
X411190Y231869D01*
X409616D01*
X414863Y228720D02*
X412764D01*
X414863Y230820D01*
Y231344D01*
X414339Y231869D01*
X413289D01*
X412764Y231344D01*
X477134Y252835D02*
X473986D01*
Y251260D01*
X474511Y250736D01*
X476610D01*
X477134Y251260D01*
Y252835D01*
X473986Y249686D02*
Y248637D01*
Y249161D01*
X477134D01*
X476610Y249686D01*
X522246Y202141D02*
X521722Y202665D01*
X520672D01*
X520147Y202141D01*
Y200042D01*
X520672Y199517D01*
X521722D01*
X522246Y200042D01*
X525395Y199517D02*
X523296D01*
X525395Y201616D01*
Y202141D01*
X524870Y202665D01*
X523821D01*
X523296Y202141D01*
X528544Y199517D02*
X526444D01*
X528544Y201616D01*
Y202141D01*
X528019Y202665D01*
X526969D01*
X526444Y202141D01*
X525133Y146263D02*
X525658Y146788D01*
Y147837D01*
X525133Y148362D01*
X523034D01*
X522509Y147837D01*
Y146788D01*
X523034Y146263D01*
X522509Y143115D02*
Y145214D01*
X524609Y143115D01*
X525133D01*
X525658Y143639D01*
Y144689D01*
X525133Y145214D01*
X522509Y142065D02*
Y141016D01*
Y141540D01*
X525658D01*
X525133Y142065D01*
X512109Y147686D02*
X511584Y148211D01*
X510534D01*
X510009Y147686D01*
Y145587D01*
X510534Y145062D01*
X511584D01*
X512109Y145587D01*
X515257Y145062D02*
X513158D01*
X515257Y147161D01*
Y147686D01*
X514732Y148211D01*
X513683D01*
X513158Y147686D01*
X516307D02*
X516831Y148211D01*
X517881D01*
X518406Y147686D01*
Y145587D01*
X517881Y145062D01*
X516831D01*
X516307Y145587D01*
Y147686D01*
X397744Y132033D02*
X397219Y132558D01*
X396170D01*
X395645Y132033D01*
Y129934D01*
X396170Y129409D01*
X397219D01*
X397744Y129934D01*
X398793Y129409D02*
X399843D01*
X399318D01*
Y132558D01*
X398793Y132033D01*
X401417Y129934D02*
X401942Y129409D01*
X402992D01*
X403516Y129934D01*
Y132033D01*
X402992Y132558D01*
X401942D01*
X401417Y132033D01*
Y131508D01*
X401942Y130984D01*
X403516D01*
X447476Y135775D02*
X448000Y136300D01*
Y137349D01*
X447476Y137874D01*
X445377D01*
X444852Y137349D01*
Y136300D01*
X445377Y135775D01*
X444852Y134725D02*
Y133676D01*
Y134201D01*
X448000D01*
X447476Y134725D01*
Y132102D02*
X448000Y131577D01*
Y130527D01*
X447476Y130003D01*
X446951D01*
X446426Y130527D01*
X445901Y130003D01*
X445377D01*
X444852Y130527D01*
Y131577D01*
X445377Y132102D01*
X445901D01*
X446426Y131577D01*
X446951Y132102D01*
X447476D01*
X446426Y131577D02*
Y130527D01*
X323920Y196305D02*
X323395Y196830D01*
X322345D01*
X321820Y196305D01*
Y194206D01*
X322345Y193681D01*
X323395D01*
X323920Y194206D01*
X324969Y193681D02*
X326019D01*
X325494D01*
Y196830D01*
X324969Y196305D01*
X327593Y196830D02*
X329692D01*
Y196305D01*
X327593Y194206D01*
Y193681D01*
X323132Y162840D02*
X322607Y163365D01*
X321558D01*
X321033Y162840D01*
Y160741D01*
X321558Y160217D01*
X322607D01*
X323132Y160741D01*
X324182Y160217D02*
X325231D01*
X324706D01*
Y163365D01*
X324182Y162840D01*
X328905Y163365D02*
X327855Y162840D01*
X326805Y161791D01*
Y160741D01*
X327330Y160217D01*
X328380D01*
X328905Y160741D01*
Y161266D01*
X328380Y161791D01*
X326805D01*
X347148Y209297D02*
X346623Y209822D01*
X345574D01*
X345049Y209297D01*
Y207198D01*
X345574Y206673D01*
X346623D01*
X347148Y207198D01*
X348197Y206673D02*
X349247D01*
X348722D01*
Y209822D01*
X348197Y209297D01*
X352920Y209822D02*
X350821D01*
Y208248D01*
X351871Y208772D01*
X352396D01*
X352920Y208248D01*
Y207198D01*
X352396Y206673D01*
X351346D01*
X350821Y207198D01*
X368408Y238037D02*
X367883Y238562D01*
X366833D01*
X366309Y238037D01*
Y235938D01*
X366833Y235413D01*
X367883D01*
X368408Y235938D01*
X369457Y235413D02*
X370507D01*
X369982D01*
Y238562D01*
X369457Y238037D01*
X373655Y235413D02*
Y238562D01*
X372081Y236988D01*
X374180D01*
X342948Y235677D02*
X343473Y236201D01*
Y237251D01*
X342948Y237776D01*
X340849D01*
X340324Y237251D01*
Y236201D01*
X340849Y235677D01*
X340324Y234627D02*
Y233577D01*
Y234102D01*
X343473D01*
X342948Y234627D01*
Y232003D02*
X343473Y231479D01*
Y230429D01*
X342948Y229904D01*
X342423D01*
X341899Y230429D01*
Y230954D01*
Y230429D01*
X341374Y229904D01*
X340849D01*
X340324Y230429D01*
Y231479D01*
X340849Y232003D01*
X336649Y237251D02*
X337174Y237776D01*
Y238826D01*
X336649Y239350D01*
X334550D01*
X334025Y238826D01*
Y237776D01*
X334550Y237251D01*
X334025Y236202D02*
Y235152D01*
Y235677D01*
X337174D01*
X336649Y236202D01*
X334025Y231479D02*
Y233578D01*
X336124Y231479D01*
X336649D01*
X337174Y232004D01*
Y233053D01*
X336649Y233578D01*
X412896Y221108D02*
X412371Y221633D01*
X411322D01*
X410797Y221108D01*
Y219009D01*
X411322Y218484D01*
X412371D01*
X412896Y219009D01*
X413945Y218484D02*
X414995D01*
X414470D01*
Y221633D01*
X413945Y221108D01*
X416569Y218484D02*
X417619D01*
X417094D01*
Y221633D01*
X416569Y221108D01*
X448165Y214570D02*
X448690Y215095D01*
Y216145D01*
X448165Y216669D01*
X446066D01*
X445541Y216145D01*
Y215095D01*
X446066Y214570D01*
X445541Y213521D02*
Y212471D01*
Y212996D01*
X448690D01*
X448165Y213521D01*
Y210897D02*
X448690Y210372D01*
Y209323D01*
X448165Y208798D01*
X446066D01*
X445541Y209323D01*
Y210372D01*
X446066Y210897D01*
X448165D01*
X432792Y97714D02*
X433316Y98238D01*
Y99288D01*
X432792Y99813D01*
X430692D01*
X430168Y99288D01*
Y98238D01*
X430692Y97714D01*
Y96664D02*
X430168Y96139D01*
Y95090D01*
X430692Y94565D01*
X432792D01*
X433316Y95090D01*
Y96139D01*
X432792Y96664D01*
X432267D01*
X431742Y96139D01*
Y94565D01*
X439569Y98766D02*
X439044Y99290D01*
X437995D01*
X437470Y98766D01*
Y96667D01*
X437995Y96142D01*
X439044D01*
X439569Y96667D01*
X440619Y98766D02*
X441143Y99290D01*
X442193D01*
X442718Y98766D01*
Y98241D01*
X442193Y97716D01*
X442718Y97191D01*
Y96667D01*
X442193Y96142D01*
X441143D01*
X440619Y96667D01*
Y97191D01*
X441143Y97716D01*
X440619Y98241D01*
Y98766D01*
X441143Y97716D02*
X442193D01*
X460665Y93255D02*
X461190Y93780D01*
Y94830D01*
X460665Y95354D01*
X458566D01*
X458041Y94830D01*
Y93780D01*
X458566Y93255D01*
X461190Y92206D02*
Y90107D01*
X460665D01*
X458566Y92206D01*
X458041D01*
X480645Y92960D02*
X481170Y93485D01*
Y94534D01*
X480645Y95059D01*
X478546D01*
X478021Y94534D01*
Y93485D01*
X478546Y92960D01*
X481170Y89811D02*
X480645Y90861D01*
X479596Y91910D01*
X478546D01*
X478021Y91386D01*
Y90336D01*
X478546Y89811D01*
X479071D01*
X479596Y90336D01*
Y91910D01*
X508401Y87842D02*
X508926Y88367D01*
Y89416D01*
X508401Y89941D01*
X506302D01*
X505777Y89416D01*
Y88367D01*
X506302Y87842D01*
X508926Y84693D02*
Y86792D01*
X507351D01*
X507876Y85743D01*
Y85218D01*
X507351Y84693D01*
X506302D01*
X505777Y85218D01*
Y86268D01*
X506302Y86792D01*
X386912Y161659D02*
X386387Y162184D01*
X385337D01*
X384813Y161659D01*
Y159560D01*
X385337Y159036D01*
X386387D01*
X386912Y159560D01*
X389535Y159036D02*
Y162184D01*
X387961Y160610D01*
X390060D01*
X378480Y231684D02*
X379004Y232209D01*
Y233259D01*
X378480Y233784D01*
X376380D01*
X375856Y233259D01*
Y232209D01*
X376380Y231684D01*
X378480Y230635D02*
X379004Y230110D01*
Y229061D01*
X378480Y228536D01*
X377955D01*
X377430Y229061D01*
Y229585D01*
Y229061D01*
X376905Y228536D01*
X376380D01*
X375856Y229061D01*
Y230110D01*
X376380Y230635D01*
X500822Y201031D02*
X501347Y201556D01*
Y202605D01*
X500822Y203130D01*
X498723D01*
X498198Y202605D01*
Y201556D01*
X498723Y201031D01*
X498198Y197882D02*
Y199981D01*
X500297Y197882D01*
X500822D01*
X501347Y198407D01*
Y199457D01*
X500822Y199981D01*
X501216Y228590D02*
X501741Y229115D01*
Y230164D01*
X501216Y230689D01*
X499117D01*
X498592Y230164D01*
Y229115D01*
X499117Y228590D01*
X498592Y227540D02*
Y226491D01*
Y227016D01*
X501741D01*
X501216Y227540D01*
X469096Y355245D02*
X468046D01*
X467522Y354720D01*
Y352621D01*
X468046Y352096D01*
X469096D01*
X469621Y352621D01*
Y354720D01*
X469096Y355245D01*
X470670D02*
Y352621D01*
X471195Y352096D01*
X472244D01*
X472769Y352621D01*
Y355245D01*
X473819D02*
X475918D01*
X474868D01*
Y352096D01*
X476967D02*
Y355245D01*
X478542D01*
X479066Y354720D01*
Y353670D01*
X478542Y353146D01*
X476967D01*
X480116Y355245D02*
Y352621D01*
X480641Y352096D01*
X481690D01*
X482215Y352621D01*
Y355245D01*
X483264D02*
X485363D01*
X484314D01*
Y352096D01*
X360795Y355245D02*
X361845D01*
X361320D01*
Y352096D01*
X360795D01*
X361845D01*
X363419D02*
Y355245D01*
X365518Y352096D01*
Y355245D01*
X366567Y352096D02*
Y355245D01*
X368142D01*
X368667Y354720D01*
Y353670D01*
X368142Y353146D01*
X366567D01*
X369716Y355245D02*
Y352621D01*
X370241Y352096D01*
X371290D01*
X371815Y352621D01*
Y355245D01*
X372865D02*
X374964D01*
X373914D01*
Y352096D01*
D53*
X163730Y48898D02*
Y52833D01*
X165042Y51521D01*
X166354Y52833D01*
Y48898D01*
X169633Y52833D02*
X168322D01*
X167666Y52177D01*
Y49554D01*
X168322Y48898D01*
X169633D01*
X170289Y49554D01*
Y52177D01*
X169633Y52833D01*
X171601D02*
Y48898D01*
X173569D01*
X174225Y49554D01*
Y52177D01*
X173569Y52833D01*
X171601D01*
X178161D02*
X175537D01*
Y48898D01*
X178161D01*
X175537Y50866D02*
X176849D01*
X125344Y158543D02*
X129280D01*
X127968Y157231D01*
X129280Y155920D01*
X125344D01*
X129280Y151984D02*
Y154608D01*
X125344D01*
Y151984D01*
X127312Y154608D02*
Y153296D01*
X129280Y150672D02*
X125344D01*
Y148048D01*
X129280Y146736D02*
X125344D01*
Y144112D01*
X129280Y140832D02*
Y142144D01*
X128624Y142800D01*
X126000D01*
X125344Y142144D01*
Y140832D01*
X126000Y140177D01*
X128624D01*
X129280Y140832D01*
Y138865D02*
X125344D01*
X126656Y137553D01*
X125344Y136241D01*
X129280D01*
X202411Y70353D02*
Y66417D01*
X204379D01*
X205035Y67073D01*
Y67729D01*
X204379Y68385D01*
X202411D01*
X204379D01*
X205035Y69041D01*
Y69697D01*
X204379Y70353D01*
X202411D01*
X206347Y66417D02*
Y70353D01*
X208315D01*
X208971Y69697D01*
Y68385D01*
X208315Y67729D01*
X206347D01*
X207659D02*
X208971Y66417D01*
X210282Y70353D02*
X211594D01*
X210938D01*
Y66417D01*
X210282D01*
X211594D01*
X216186Y69697D02*
X215530Y70353D01*
X214218D01*
X213562Y69697D01*
Y67073D01*
X214218Y66417D01*
X215530D01*
X216186Y67073D01*
Y68385D01*
X214874D01*
X217498Y70353D02*
Y66417D01*
Y68385D01*
X220122D01*
Y70353D01*
Y66417D01*
X221434Y70353D02*
X224058D01*
X222746D01*
Y66417D01*
X435600Y48898D02*
Y52833D01*
X436912Y51521D01*
X438224Y52833D01*
Y48898D01*
X441504Y52833D02*
X440192D01*
X439536Y52177D01*
Y49554D01*
X440192Y48898D01*
X441504D01*
X442160Y49554D01*
Y52177D01*
X441504Y52833D01*
X443471D02*
Y48898D01*
X445439D01*
X446095Y49554D01*
Y52177D01*
X445439Y52833D01*
X443471D01*
X450031D02*
X447407D01*
Y48898D01*
X450031D01*
X447407Y50866D02*
X448719D01*
X397214Y158543D02*
X401150D01*
X399838Y157231D01*
X401150Y155920D01*
X397214D01*
X401150Y151984D02*
Y154608D01*
X397214D01*
Y151984D01*
X399182Y154608D02*
Y153296D01*
X401150Y150672D02*
X397214D01*
Y148048D01*
X401150Y146736D02*
X397214D01*
Y144112D01*
X401150Y140832D02*
Y142144D01*
X400494Y142800D01*
X397870D01*
X397214Y142144D01*
Y140832D01*
X397870Y140177D01*
X400494D01*
X401150Y140832D01*
Y138865D02*
X397214D01*
X398526Y137553D01*
X397214Y136241D01*
X401150D01*
X474281Y70353D02*
Y66417D01*
X476249D01*
X476905Y67073D01*
Y67729D01*
X476249Y68385D01*
X474281D01*
X476249D01*
X476905Y69041D01*
Y69697D01*
X476249Y70353D01*
X474281D01*
X478217Y66417D02*
Y70353D01*
X480185D01*
X480841Y69697D01*
Y68385D01*
X480185Y67729D01*
X478217D01*
X479529D02*
X480841Y66417D01*
X482153Y70353D02*
X483464D01*
X482808D01*
Y66417D01*
X482153D01*
X483464D01*
X488056Y69697D02*
X487400Y70353D01*
X486088D01*
X485432Y69697D01*
Y67073D01*
X486088Y66417D01*
X487400D01*
X488056Y67073D01*
Y68385D01*
X486744D01*
X489368Y70353D02*
Y66417D01*
Y68385D01*
X491992D01*
Y70353D01*
Y66417D01*
X493304Y70353D02*
X495928D01*
X494616D01*
Y66417D01*
D54*
X158954Y162890D02*
D03*
X149954Y172890D02*
D03*
X430824Y162890D02*
D03*
X421824Y172890D02*
D03*
D55*
X184572Y158391D02*
D03*
X194575Y167390D02*
D03*
X456442Y158391D02*
D03*
X466445Y167390D02*
D03*
D56*
X194537Y244303D02*
D03*
X466407D02*
D03*
D57*
X153445Y230252D02*
D03*
X425315D02*
D03*
M02*
