M48
;Layer_Color=9474304
;FILE_FORMAT=2:5
INCH,TZ
;TYPE=PLATED
T1F00S00C0.01378
T2F00S00C0.01969
T3F00S00C0.02000
T4F00S00C0.02004
T5F00S00C0.03150
T6F00S00C0.03543
T7F00S00C0.04000
T8F00S00C0.04331
T9F00S00C0.05512
T10F00S00C0.05906
;TYPE=NON_PLATED
T11F00S00C0.01968
T12F00S00C0.11811
%
T01
X45989Y35796
Y60596
X70789
Y85396
X95589
Y60596
X120389
X123836Y71929
X130659Y54803
X147490Y60596
X142577Y80686
X135285Y85807
X115206Y96043
X120029Y120256
X124163Y116417
X128691Y112185
X132332Y120256
X132037Y139327
X120389
X109046Y134996
X92030
X70789
Y110196
X45989
Y134996
Y85396
X70789Y35796
X95589
X120389
X145189
Y110196
X146210Y131083
X95589Y110196
X169989
X175411Y101358
X181348Y93751
X187911Y90627
X197754Y95354
X207596Y90627
X231107Y85691
Y73996
X238869Y79800
X244389Y60596
X219589
X212352Y50965
X219589Y35796
X244389
X269189
Y60596
Y85396
Y110196
X244389
Y134996
X233316Y147421
X207726
X219589Y134996
Y124665
Y110196
X194789
Y134996
X174454Y131083
X169426Y93751
X164714Y82854
X169989Y60596
Y35796
X194789
Y69961
X269189Y134996
X259399Y148504
X317859Y134996
X342659
X363900
X380916
X392259Y139327
X403907
X404202Y120256
X400561Y112185
X396033Y116417
X391899Y120256
X387076Y96043
X367459Y85396
X342659
Y60596
X317859
Y35796
X342659
X367459
X392259
X417059
X441859
X466659
Y69961
X459781Y90627
X453218Y93751
X441296
X447281Y101358
X441859Y110196
X466659
Y134996
X446324Y131083
X418080
X417059Y110196
X414447Y80686
X407155Y85807
X395706Y71929
X392259Y60596
X402529Y54803
X419360Y60596
X441859
X436584Y82854
X367459Y60596
Y110196
X342659
X317859
Y85396
X469624Y95354
X479466Y90627
X502977Y85691
Y73996
X510739Y79800
X516259Y60596
X491459
X484222Y50965
X491459Y35796
X516259
X541059
Y60596
Y85396
Y110196
X516259
Y134996
X505187Y147421
X479596
X491459Y134996
Y124665
Y110196
X541059Y134996
X531269Y148504
X541059Y159796
Y184596
Y209396
Y234196
Y258996
X516259
Y283796
Y308596
X541059
Y283796
X491459
Y308596
X472706Y258558
X478710Y241122
X493755Y226162
Y213858
Y198898
X493854Y186693
X499281Y179114
X507549Y177835
X511289Y163169
X499281Y166417
X491459Y159796
X479596Y177835
Y206378
X503045Y192795
Y220059
X516259Y234196
X466659
X451151Y238323
X443396
X447293Y244115
X447096Y230842
X437175Y226321
X429359Y212874
Y199587
X449359
Y212874
X468671Y206378
X466659Y184596
Y159796
X438651
X417059
X404891Y156575
X392259Y159796
X385600Y166643
X373592
X370509Y159701
X360479Y159796
X340275Y157356
X328218
X317859Y159796
X334130Y165039
X328218Y190125
X340360
X334124Y198245
X328218Y216869
X317859Y209396
Y234196
Y258996
Y283796
Y308596
X342659
X367459
Y283796
Y258996
X373887Y264104
X392259Y264352
Y254705
Y234196
X402966Y230252
X408020Y234049
Y226118
X407057Y212874
X404891Y199587
Y184596
X417059
X392259
X386387Y199094
X384778Y217756
X377525Y214478
X370509Y208347
Y193595
X358349
X359782Y203224
X349036Y210906
X356663Y224976
X361915Y229976
X362765Y219976
X367459Y242135
X346722Y244034
X341998Y230747
X342659Y258996
Y283796
X392259
X417059
X434694Y281374
X434714Y275035
X435564Y270461
X447293Y269760
X451151Y263913
X443396
X447293Y258074
X445127Y279209
X440226Y280068
X462765Y275035
X466407Y266417
X466659Y283796
Y308596
X441859
X417059
X392259
X417059Y258996
X412208Y245461
X413058Y238757
X417059Y234196
X416309Y219917
X396427
X379596Y175768
X317859Y184596
X441859
X269189
Y159796
X239419Y163169
X227411Y166417
Y179114
X235679Y177835
X231175Y192795
X221983Y186693
X221885Y198898
Y213858
Y226162
X231175Y220059
X244389Y234196
X269189
Y258996
X244389
Y283796
Y308596
X269189
Y283796
X219589
X194789
X190895Y275035
X194537Y266417
X200836Y258558
X206840Y241122
X194789Y234196
X179281Y238323
X171526
X175423Y244115
X175226Y230842
X165305Y226321
X157489Y212874
Y199587
X177489
Y212874
X196801Y206378
X207726
Y177835
X194789Y184596
Y159796
X219589
X166781
X169989Y184596
X175423Y258074
X179281Y263913
X171526
X175423Y269760
X173257Y279209
X168356Y280068
X162824Y281374
X162844Y275035
X163694Y270461
X169989Y308596
X194789
X219589
X269189Y209396
X144439Y219917
X136150Y226118
Y234049
X131096Y230252
X120389Y234196
X124557Y219917
X112908Y217756
X105655Y214478
X98638Y208347
Y193595
X86479
X87912Y203224
X77166Y210906
X84793Y224976
X90045Y229976
X90895Y219976
X95589Y242135
Y258996
X102017Y264104
X120389Y264352
Y254705
Y283796
X145189
Y258996
X140338Y245461
X141188Y238757
X145189Y234196
X135187Y212874
X133021Y199587
Y184596
X145189
X120389
X114517Y199094
X107726Y175768
X101722Y166643
X98638Y159701
X88608Y159796
X68404Y157356
X56348
X45989Y159796
X62260Y165039
X56348Y190125
X68490
X62253Y198245
X56348Y216869
X45989Y209396
Y234196
Y258996
Y283796
Y308596
X70789
X95589
Y283796
X70789
Y258996
X74852Y244034
X70127Y230747
X45989Y184596
X113730Y166643
X120389Y159796
X133021Y156575
X145189Y159796
Y308596
X120389
Y333396
Y358196
X145189
Y333396
X95589
X70789
Y358196
X95589
X45989Y333396
X169989
Y358196
X194789
X219589
X244389
Y333396
X219589
X194789
X269189
X317859
X342659
Y358196
X367459
X392259
X417059
X441859
X466659
Y333396
X441859
X417059
X392259
X367459
X491459
Y358196
X516259
Y333396
X541059
T02
X213379Y41257
X223379Y51257
X203379
X194572Y152890
X184572
X456442
X466442
X475249Y51257
X495249
X485249Y41257
X466442Y172890
X456442
X446324
Y162890
X406324
Y172890
X194572
X184572
X174454
Y162890
X134454
Y172890
T03
X202214Y111201
X474084
X473986Y206378
X202116
T04
X341210Y201654
X373002Y199095
X101131
X69340Y201654
T05
X141683Y141319
X151525
Y153917
X141683
X161368
Y141319
X186171Y143858
Y133858
Y124961
Y114961
X413553Y141319
X423395
X433238
Y153917
X423395
X413553
X458041Y143858
Y133858
Y124961
Y114961
T06
X122183Y42595
X132183
X142183
X152183
X165982Y42497
X175982
X394053Y42595
X404053
X414053
X424053
X437852Y42497
X447852
T07
X79584Y47024
X89584
X238869Y46729
X248869
X351454Y47024
X361454
X510739Y46729
X520739
X434419Y289350
X424419
X162549
X152549
T08
X64814Y128996
X84814
X104815
X210289
X230289
X250289
X336684
X356684
X376684
X482159
X502159
X522159
Y248496
X502159
X482159
X376684Y248522
X356684
X336684
X250289Y248496
X230289
X210289
X104815Y248522
X84814
X64814
T09
X515971Y295096
X452072
X406744
X342846
X244100
X180202
X134874
X70976
Y320096
Y345096
X134874
Y320096
X180202
Y345096
X244100
Y320096
X342846
Y345096
X406744
Y320096
X452072
Y345096
X515971
Y320096
T10
X409359Y191996
X429359
X449359
X177489
X157489
X137489
T11
X40748Y64961
Y68898
Y72835
Y76772
Y80709
X274311
Y76772
Y72835
Y68898
Y64961
X312598
Y68898
Y72835
Y76772
Y80709
X546161
Y76772
Y72835
Y68898
Y64961
X546063Y288976
Y292913
Y296850
Y300787
Y304724
X312598
Y300787
Y296850
Y292913
Y288976
X274311Y288976
Y292913
Y296850
Y300788
Y304725
X40748
Y300788
Y296850
Y292913
Y288976
T12
X11811Y11811
X578740
X11811Y381890
X578740Y381890
M30
