G04*
G04 #@! TF.GenerationSoftware,Altium Limited,Altium Designer,19.1.6 (110)*
G04*
G04 Layer_Color=8421504*
%FSLAX25Y25*%
%MOIN*%
G70*
G01*
G75*
%ADD10C,0.11811*%
%ADD11R,0.02165X0.03543*%
%ADD12R,0.04331X0.06890*%
%ADD13R,0.02362X0.03740*%
%ADD14R,0.09843X0.06299*%
%ADD15R,0.03740X0.03543*%
%ADD16R,0.06299X0.09843*%
%ADD17R,0.07087X0.02362*%
%ADD18R,0.03543X0.03740*%
%ADD19R,0.11024X0.06299*%
%ADD20R,0.06496X0.09843*%
%ADD21R,0.07087X0.03150*%
%ADD22R,0.02362X0.06299*%
%ADD23R,0.03740X0.02362*%
%ADD24R,0.05512X0.03937*%
%ADD25R,0.12598X0.06299*%
%ADD26R,0.03150X0.01575*%
%ADD27R,0.06890X0.04331*%
%ADD28R,0.06299X0.12598*%
%ADD29R,0.06299X0.11024*%
%ADD30R,0.05709X0.02362*%
D10*
X11811Y11811D02*
D03*
X578740Y11811D02*
D03*
Y381890D02*
D03*
X11811Y381890D02*
D03*
D11*
X112647Y100571D02*
D03*
X115206Y91713D02*
D03*
X110088D02*
D03*
X384517Y100571D02*
D03*
X387076Y91713D02*
D03*
X381958D02*
D03*
D12*
X175839Y60935D02*
D03*
X187453D02*
D03*
X119340Y199095D02*
D03*
X107726D02*
D03*
X119340Y208347D02*
D03*
X107726D02*
D03*
X447709Y60935D02*
D03*
X459323D02*
D03*
X391210Y199095D02*
D03*
X379596D02*
D03*
X391210Y208347D02*
D03*
X379596D02*
D03*
D13*
X197754Y90627D02*
D03*
X201494Y79800D02*
D03*
X194013D02*
D03*
X165305Y230842D02*
D03*
X169045Y220016D02*
D03*
X161565D02*
D03*
X469624Y90627D02*
D03*
X473364Y79800D02*
D03*
X465883D02*
D03*
X437175Y230842D02*
D03*
X440915Y220016D02*
D03*
X433435D02*
D03*
D14*
X231107Y79800D02*
D03*
X217156D02*
D03*
X502977D02*
D03*
X489026D02*
D03*
D15*
X207596D02*
D03*
Y85902D02*
D03*
X187911Y79800D02*
D03*
Y85902D02*
D03*
X159958Y90784D02*
D03*
Y84682D02*
D03*
X259399Y153382D02*
D03*
Y159484D02*
D03*
X233316Y152398D02*
D03*
Y158500D02*
D03*
X175226Y220016D02*
D03*
Y226118D02*
D03*
X77706Y173209D02*
D03*
Y179311D02*
D03*
X83809Y173209D02*
D03*
Y179311D02*
D03*
X70127Y219961D02*
D03*
Y226063D02*
D03*
X56348Y221339D02*
D03*
Y227441D02*
D03*
X105659Y224980D02*
D03*
Y218878D02*
D03*
X479466Y79800D02*
D03*
Y85902D02*
D03*
X459781Y79800D02*
D03*
Y85902D02*
D03*
X431828Y90784D02*
D03*
Y84682D02*
D03*
X531269Y153382D02*
D03*
Y159484D02*
D03*
X505187Y152398D02*
D03*
Y158500D02*
D03*
X447096Y220016D02*
D03*
Y226118D02*
D03*
X349576Y173209D02*
D03*
Y179311D02*
D03*
X355679Y173209D02*
D03*
Y179311D02*
D03*
X341998Y219961D02*
D03*
Y226063D02*
D03*
X328218Y221339D02*
D03*
Y227441D02*
D03*
X377529Y224980D02*
D03*
Y218878D02*
D03*
D16*
X175411Y93751D02*
D03*
Y79800D02*
D03*
X244045Y196806D02*
D03*
Y182854D02*
D03*
X62260Y157356D02*
D03*
Y143405D02*
D03*
X447281Y93751D02*
D03*
Y79800D02*
D03*
X515915Y196806D02*
D03*
Y182854D02*
D03*
X334130Y157356D02*
D03*
Y143405D02*
D03*
D17*
X123836Y90784D02*
D03*
Y85784D02*
D03*
Y80784D02*
D03*
Y75784D02*
D03*
X152183Y90784D02*
D03*
Y85784D02*
D03*
Y80784D02*
D03*
Y75784D02*
D03*
X395706Y90784D02*
D03*
Y85784D02*
D03*
Y80784D02*
D03*
Y75784D02*
D03*
X424053Y90784D02*
D03*
Y85784D02*
D03*
Y80784D02*
D03*
Y75784D02*
D03*
D18*
X116191Y85807D02*
D03*
X110088D02*
D03*
X122176Y98139D02*
D03*
X128278D02*
D03*
X135285Y131083D02*
D03*
X141387D02*
D03*
X135285Y124980D02*
D03*
X141387D02*
D03*
X245521Y158411D02*
D03*
X239419D02*
D03*
Y152210D02*
D03*
X245521D02*
D03*
X155462Y220016D02*
D03*
X149360D02*
D03*
X63238Y213858D02*
D03*
X69340D02*
D03*
X63238Y207658D02*
D03*
X69340D02*
D03*
X90895Y208347D02*
D03*
X84793D02*
D03*
X90961Y236693D02*
D03*
X84859D02*
D03*
X388061Y85807D02*
D03*
X381958D02*
D03*
X394046Y98139D02*
D03*
X400148D02*
D03*
X407155Y131083D02*
D03*
X413258D02*
D03*
X407155Y124980D02*
D03*
X413258D02*
D03*
X517391Y158411D02*
D03*
X511289D02*
D03*
Y152210D02*
D03*
X517391D02*
D03*
X427332Y220016D02*
D03*
X421230D02*
D03*
X335108Y213858D02*
D03*
X341210D02*
D03*
X335108Y207658D02*
D03*
X341210D02*
D03*
X362765Y208347D02*
D03*
X356663D02*
D03*
X362831Y236693D02*
D03*
X356729D02*
D03*
D19*
X169426Y124980D02*
D03*
X152522D02*
D03*
X441296D02*
D03*
X424392D02*
D03*
D20*
X194537Y243736D02*
D03*
Y258500D02*
D03*
X466407Y243736D02*
D03*
Y258500D02*
D03*
D21*
X127848Y239760D02*
D03*
Y249760D02*
D03*
Y269760D02*
D03*
Y259760D02*
D03*
X155407D02*
D03*
Y269760D02*
D03*
Y249760D02*
D03*
Y239760D02*
D03*
X399718D02*
D03*
Y249760D02*
D03*
Y269760D02*
D03*
Y259760D02*
D03*
X427277D02*
D03*
Y269760D02*
D03*
Y249760D02*
D03*
Y239760D02*
D03*
D22*
X165423Y238323D02*
D03*
X175423D02*
D03*
X165423Y263913D02*
D03*
X175423D02*
D03*
X437293Y238323D02*
D03*
X447293D02*
D03*
X437293Y263913D02*
D03*
X447293D02*
D03*
D23*
X233316Y172224D02*
D03*
Y164744D02*
D03*
X242568Y168484D02*
D03*
X505187Y172224D02*
D03*
Y164744D02*
D03*
X514439Y168484D02*
D03*
D24*
X252411Y152210D02*
D03*
Y159494D02*
D03*
X63238Y227441D02*
D03*
Y220158D02*
D03*
X524281Y152210D02*
D03*
Y159494D02*
D03*
X335108Y227441D02*
D03*
Y220158D02*
D03*
D25*
X202031Y220059D02*
D03*
X221885D02*
D03*
X202130Y192795D02*
D03*
X221983D02*
D03*
X473902Y220059D02*
D03*
X493755D02*
D03*
X474000Y192795D02*
D03*
X493854D02*
D03*
D26*
X146407Y230252D02*
D03*
X155462D02*
D03*
X418277D02*
D03*
X427332D02*
D03*
D27*
X188435Y219961D02*
D03*
Y208347D02*
D03*
X460305Y219961D02*
D03*
Y208347D02*
D03*
D28*
X107726Y186496D02*
D03*
Y166643D02*
D03*
X379596Y186496D02*
D03*
Y166643D02*
D03*
D29*
X62253Y190125D02*
D03*
Y173221D02*
D03*
X334124Y190125D02*
D03*
Y173221D02*
D03*
D30*
X98638Y214976D02*
D03*
Y219976D02*
D03*
Y224976D02*
D03*
Y229976D02*
D03*
X77182Y214976D02*
D03*
Y219976D02*
D03*
Y224976D02*
D03*
Y229976D02*
D03*
X370509Y214976D02*
D03*
Y219976D02*
D03*
Y224976D02*
D03*
Y229976D02*
D03*
X349052Y214976D02*
D03*
Y219976D02*
D03*
Y224976D02*
D03*
Y229976D02*
D03*
M02*
