G04*
G04 #@! TF.GenerationSoftware,Altium Limited,Altium Designer,19.1.6 (110)*
G04*
G04 Layer_Physical_Order=1*
G04 Layer_Color=255*
%FSLAX25Y25*%
%MOIN*%
G70*
G01*
G75*
%ADD10C,0.11811*%
%ADD11R,0.02165X0.03543*%
%ADD12R,0.04331X0.06890*%
%ADD13R,0.02362X0.03740*%
%ADD14R,0.09843X0.06299*%
%ADD15R,0.03740X0.03543*%
%ADD16R,0.06299X0.09843*%
%ADD17R,0.07087X0.02362*%
%ADD18R,0.03543X0.03740*%
%ADD19R,0.11024X0.06299*%
%ADD20R,0.06496X0.09843*%
%ADD21R,0.07087X0.03150*%
%ADD22R,0.02362X0.06299*%
%ADD23R,0.03740X0.02362*%
%ADD24R,0.05512X0.03937*%
%ADD25R,0.12598X0.06299*%
%ADD26R,0.03150X0.01575*%
%ADD27R,0.06890X0.04331*%
%ADD28R,0.06299X0.12598*%
%ADD29R,0.06299X0.11024*%
%ADD30R,0.05709X0.02362*%
%ADD31C,0.02400*%
%ADD32C,0.01000*%
%ADD33C,0.01968*%
%ADD34C,0.06000*%
%ADD35C,0.06299*%
%ADD36R,0.04724X0.04724*%
%ADD37C,0.04724*%
%ADD38C,0.07087*%
%ADD39C,0.08661*%
%ADD40C,0.06600*%
%ADD41R,0.04724X0.04724*%
%ADD42R,0.05906X0.05906*%
%ADD43C,0.05906*%
%ADD44C,0.08268*%
%ADD45C,0.02756*%
%ADD46C,0.03500*%
G36*
X521095Y346925D02*
X520595Y346826D01*
X520280Y347584D01*
X519489Y348615D01*
X518459Y349406D01*
X517259Y349903D01*
X515971Y350073D01*
X514682Y349903D01*
X513482Y349406D01*
X512452Y348615D01*
X511661Y347584D01*
X511164Y346384D01*
X510994Y345096D01*
X511164Y343808D01*
X511661Y342608D01*
X512452Y341577D01*
X513482Y340786D01*
X514682Y340289D01*
X515971Y340120D01*
X517259Y340289D01*
X518459Y340786D01*
X519489Y341577D01*
X520280Y342608D01*
X520595Y343367D01*
X521095Y343267D01*
Y337996D01*
X521211Y337411D01*
X521543Y336915D01*
X522039Y336583D01*
X522624Y336467D01*
X544130D01*
Y32962D01*
X314688D01*
Y336467D01*
X336159D01*
X336744Y336583D01*
X337240Y336915D01*
X337572Y337411D01*
X337688Y337996D01*
Y343348D01*
X338188Y343447D01*
X338536Y342608D01*
X339327Y341577D01*
X340358Y340786D01*
X341558Y340289D01*
X342446Y340172D01*
Y345096D01*
Y350020D01*
X341558Y349903D01*
X340358Y349406D01*
X339327Y348615D01*
X338536Y347584D01*
X338188Y346745D01*
X337688Y346844D01*
Y363967D01*
X521095D01*
Y346925D01*
D02*
G37*
G36*
X249225D02*
X248725Y346826D01*
X248410Y347584D01*
X247619Y348615D01*
X246589Y349406D01*
X245389Y349903D01*
X244100Y350073D01*
X242812Y349903D01*
X241612Y349406D01*
X240581Y348615D01*
X239791Y347584D01*
X239293Y346384D01*
X239124Y345096D01*
X239293Y343808D01*
X239791Y342608D01*
X240581Y341577D01*
X241612Y340786D01*
X242812Y340289D01*
X244100Y340120D01*
X245389Y340289D01*
X246589Y340786D01*
X247619Y341577D01*
X248410Y342608D01*
X248725Y343367D01*
X249225Y343267D01*
Y337996D01*
X249341Y337411D01*
X249673Y336915D01*
X250169Y336583D01*
X250754Y336467D01*
X272260D01*
Y32962D01*
X42818D01*
Y336467D01*
X64289D01*
X64874Y336583D01*
X65370Y336915D01*
X65702Y337411D01*
X65818Y337996D01*
Y343348D01*
X66318Y343447D01*
X66666Y342608D01*
X67457Y341577D01*
X68488Y340786D01*
X69688Y340289D01*
X70576Y340172D01*
Y345096D01*
Y350020D01*
X69688Y349903D01*
X68488Y349406D01*
X67457Y348615D01*
X66666Y347584D01*
X66318Y346745D01*
X65818Y346844D01*
Y363967D01*
X249225D01*
Y346925D01*
D02*
G37*
%LPC*%
G36*
X452472Y350020D02*
Y345496D01*
X456996D01*
X456880Y346384D01*
X456382Y347584D01*
X455591Y348615D01*
X454561Y349406D01*
X453361Y349903D01*
X452472Y350020D01*
D02*
G37*
G36*
X343246D02*
Y345496D01*
X347770D01*
X347653Y346384D01*
X347156Y347584D01*
X346365Y348615D01*
X345334Y349406D01*
X344134Y349903D01*
X343246Y350020D01*
D02*
G37*
G36*
X451673D02*
X450784Y349903D01*
X449584Y349406D01*
X448554Y348615D01*
X447763Y347584D01*
X447265Y346384D01*
X447149Y345496D01*
X451673D01*
Y350020D01*
D02*
G37*
G36*
X456996Y344696D02*
X452472D01*
Y340172D01*
X453361Y340289D01*
X454561Y340786D01*
X455591Y341577D01*
X456382Y342608D01*
X456880Y343808D01*
X456996Y344696D01*
D02*
G37*
G36*
X347770D02*
X343246D01*
Y340172D01*
X344134Y340289D01*
X345334Y340786D01*
X346365Y341577D01*
X347156Y342608D01*
X347653Y343808D01*
X347770Y344696D01*
D02*
G37*
G36*
X451673D02*
X447149D01*
X447265Y343808D01*
X447763Y342608D01*
X448554Y341577D01*
X449584Y340786D01*
X450784Y340289D01*
X451673Y340172D01*
Y344696D01*
D02*
G37*
G36*
X406744Y350073D02*
X405456Y349903D01*
X404256Y349406D01*
X403225Y348615D01*
X402434Y347584D01*
X401937Y346384D01*
X401767Y345096D01*
X401937Y343808D01*
X402434Y342608D01*
X403225Y341577D01*
X404256Y340786D01*
X405456Y340289D01*
X406744Y340120D01*
X408032Y340289D01*
X409232Y340786D01*
X410263Y341577D01*
X411054Y342608D01*
X411551Y343808D01*
X411721Y345096D01*
X411551Y346384D01*
X411054Y347584D01*
X410263Y348615D01*
X409232Y349406D01*
X408032Y349903D01*
X406744Y350073D01*
D02*
G37*
G36*
X515971Y325073D02*
X514682Y324903D01*
X513482Y324406D01*
X512452Y323615D01*
X511661Y322584D01*
X511164Y321384D01*
X510994Y320096D01*
X511164Y318808D01*
X511661Y317608D01*
X512452Y316577D01*
X513482Y315786D01*
X514682Y315289D01*
X515971Y315120D01*
X517259Y315289D01*
X518459Y315786D01*
X519489Y316577D01*
X520280Y317608D01*
X520778Y318808D01*
X520947Y320096D01*
X520778Y321384D01*
X520280Y322584D01*
X519489Y323615D01*
X518459Y324406D01*
X517259Y324903D01*
X515971Y325073D01*
D02*
G37*
G36*
X452072D02*
X450784Y324903D01*
X449584Y324406D01*
X448554Y323615D01*
X447763Y322584D01*
X447265Y321384D01*
X447096Y320096D01*
X447265Y318808D01*
X447763Y317608D01*
X448554Y316577D01*
X449584Y315786D01*
X450784Y315289D01*
X452072Y315120D01*
X453361Y315289D01*
X454561Y315786D01*
X455591Y316577D01*
X456382Y317608D01*
X456880Y318808D01*
X457049Y320096D01*
X456880Y321384D01*
X456382Y322584D01*
X455591Y323615D01*
X454561Y324406D01*
X453361Y324903D01*
X452072Y325073D01*
D02*
G37*
G36*
X406744D02*
X405456Y324903D01*
X404256Y324406D01*
X403225Y323615D01*
X402434Y322584D01*
X401937Y321384D01*
X401767Y320096D01*
X401937Y318808D01*
X402434Y317608D01*
X403225Y316577D01*
X404256Y315786D01*
X405456Y315289D01*
X406744Y315120D01*
X408032Y315289D01*
X409232Y315786D01*
X410263Y316577D01*
X411054Y317608D01*
X411551Y318808D01*
X411721Y320096D01*
X411551Y321384D01*
X411054Y322584D01*
X410263Y323615D01*
X409232Y324406D01*
X408032Y324903D01*
X406744Y325073D01*
D02*
G37*
G36*
X342846D02*
X341558Y324903D01*
X340358Y324406D01*
X339327Y323615D01*
X338536Y322584D01*
X338039Y321384D01*
X337870Y320096D01*
X338039Y318808D01*
X338536Y317608D01*
X339327Y316577D01*
X340358Y315786D01*
X341558Y315289D01*
X342846Y315120D01*
X344134Y315289D01*
X345334Y315786D01*
X346365Y316577D01*
X347156Y317608D01*
X347653Y318808D01*
X347823Y320096D01*
X347653Y321384D01*
X347156Y322584D01*
X346365Y323615D01*
X345334Y324406D01*
X344134Y324903D01*
X342846Y325073D01*
D02*
G37*
G36*
X425619Y292967D02*
Y290550D01*
X428035D01*
X427738Y291267D01*
X427129Y292061D01*
X426335Y292670D01*
X425619Y292967D01*
D02*
G37*
G36*
X423219Y292967D02*
X422503Y292670D01*
X421709Y292061D01*
X421100Y291267D01*
X420803Y290550D01*
X423219D01*
Y292967D01*
D02*
G37*
G36*
X515971Y300073D02*
X514682Y299903D01*
X513482Y299406D01*
X512452Y298615D01*
X511661Y297584D01*
X511164Y296384D01*
X510994Y295096D01*
X511164Y293808D01*
X511661Y292608D01*
X512452Y291577D01*
X513482Y290786D01*
X514682Y290289D01*
X515971Y290120D01*
X517259Y290289D01*
X518459Y290786D01*
X519489Y291577D01*
X520280Y292608D01*
X520778Y293808D01*
X520947Y295096D01*
X520778Y296384D01*
X520280Y297584D01*
X519489Y298615D01*
X518459Y299406D01*
X517259Y299903D01*
X515971Y300073D01*
D02*
G37*
G36*
X452072D02*
X450784Y299903D01*
X449584Y299406D01*
X448554Y298615D01*
X447763Y297584D01*
X447265Y296384D01*
X447096Y295096D01*
X447265Y293808D01*
X447763Y292608D01*
X448554Y291577D01*
X449584Y290786D01*
X450784Y290289D01*
X452072Y290120D01*
X453361Y290289D01*
X454561Y290786D01*
X455591Y291577D01*
X456382Y292608D01*
X456880Y293808D01*
X457049Y295096D01*
X456880Y296384D01*
X456382Y297584D01*
X455591Y298615D01*
X454561Y299406D01*
X453361Y299903D01*
X452072Y300073D01*
D02*
G37*
G36*
X406744D02*
X405456Y299903D01*
X404256Y299406D01*
X403225Y298615D01*
X402434Y297584D01*
X401937Y296384D01*
X401767Y295096D01*
X401937Y293808D01*
X402434Y292608D01*
X403225Y291577D01*
X404256Y290786D01*
X405456Y290289D01*
X406744Y290120D01*
X408032Y290289D01*
X409232Y290786D01*
X410263Y291577D01*
X411054Y292608D01*
X411551Y293808D01*
X411721Y295096D01*
X411551Y296384D01*
X411054Y297584D01*
X410263Y298615D01*
X409232Y299406D01*
X408032Y299903D01*
X406744Y300073D01*
D02*
G37*
G36*
X342846D02*
X341558Y299903D01*
X340358Y299406D01*
X339327Y298615D01*
X338536Y297584D01*
X338039Y296384D01*
X337870Y295096D01*
X338039Y293808D01*
X338536Y292608D01*
X339327Y291577D01*
X340358Y290786D01*
X341558Y290289D01*
X342846Y290120D01*
X344134Y290289D01*
X345334Y290786D01*
X346365Y291577D01*
X347156Y292608D01*
X347653Y293808D01*
X347823Y295096D01*
X347653Y296384D01*
X347156Y297584D01*
X346365Y298615D01*
X345334Y299406D01*
X344134Y299903D01*
X342846Y300073D01*
D02*
G37*
G36*
X423219Y288150D02*
X420803D01*
X421100Y287434D01*
X421709Y286640D01*
X422503Y286031D01*
X423219Y285734D01*
Y288150D01*
D02*
G37*
G36*
X428035D02*
X425619D01*
Y285734D01*
X426335Y286031D01*
X427129Y286640D01*
X427738Y287434D01*
X428035Y288150D01*
D02*
G37*
G36*
X434714Y277256D02*
X433864Y277087D01*
X433144Y276606D01*
X432663Y275885D01*
X432494Y275035D01*
X432551Y274747D01*
X429939Y272135D01*
X422934D01*
Y267385D01*
X431621D01*
Y270067D01*
X434425Y272872D01*
X434714Y272815D01*
X435564Y272984D01*
X436284Y273465D01*
X436766Y274186D01*
X436935Y275035D01*
X436766Y275885D01*
X436284Y276606D01*
X435564Y277087D01*
X434714Y277256D01*
D02*
G37*
G36*
X404061Y272135D02*
X395375D01*
Y270987D01*
X343372D01*
X342864Y270886D01*
X342434Y270599D01*
X327281Y255445D01*
X326993Y255015D01*
X326893Y254508D01*
Y230013D01*
X325548D01*
Y224869D01*
X330888D01*
Y226115D01*
X331552D01*
Y224673D01*
X338664D01*
Y230209D01*
X331552D01*
Y228766D01*
X330888D01*
Y230013D01*
X329544D01*
Y253959D01*
X343921Y268336D01*
X395375D01*
Y267385D01*
X404061D01*
Y272135D01*
D02*
G37*
G36*
X449274Y267863D02*
X447693D01*
Y264313D01*
X449274D01*
Y267863D01*
D02*
G37*
G36*
X446893D02*
X445312D01*
Y264313D01*
X446893D01*
Y267863D01*
D02*
G37*
G36*
X440226Y282289D02*
X439376Y282120D01*
X438656Y281639D01*
X438174Y280918D01*
X438005Y280068D01*
X438174Y279219D01*
X438656Y278498D01*
X438901Y278335D01*
Y269364D01*
X437399Y267863D01*
X435312D01*
Y263807D01*
X433244Y261739D01*
X431621D01*
Y262135D01*
X422934D01*
Y257385D01*
X431621D01*
Y259088D01*
X433793D01*
X434300Y259189D01*
X434730Y259476D01*
X434941Y259687D01*
X435312Y259964D01*
Y259964D01*
X435312Y259964D01*
X439274D01*
Y265988D01*
X441163Y267878D01*
X441451Y268308D01*
X441551Y268815D01*
Y278335D01*
X441796Y278498D01*
X442278Y279219D01*
X442447Y280068D01*
X442278Y280918D01*
X441796Y281639D01*
X441076Y282120D01*
X440226Y282289D01*
D02*
G37*
G36*
X449274Y263513D02*
X447693D01*
Y259964D01*
X449274D01*
Y263513D01*
D02*
G37*
G36*
X446893D02*
X445312D01*
Y259964D01*
X446893D01*
Y263513D01*
D02*
G37*
G36*
X470455Y264221D02*
X466807D01*
Y258900D01*
X470455D01*
Y264221D01*
D02*
G37*
G36*
X466007D02*
X462359D01*
Y258900D01*
X466007D01*
Y264221D01*
D02*
G37*
G36*
X373887Y266325D02*
X373038Y266156D01*
X372317Y265674D01*
X371836Y264954D01*
X371667Y264104D01*
X371836Y263254D01*
X372317Y262534D01*
X373038Y262052D01*
X373887Y261883D01*
X374135Y261933D01*
X377245Y258823D01*
X377675Y258535D01*
X378182Y258434D01*
X395375D01*
Y257385D01*
X404061D01*
Y262135D01*
X395375D01*
Y261085D01*
X378731D01*
X376042Y263774D01*
X376108Y264104D01*
X375939Y264954D01*
X375458Y265674D01*
X374737Y266156D01*
X373887Y266325D01*
D02*
G37*
G36*
X470455Y258100D02*
X466807D01*
Y252779D01*
X470455D01*
Y258100D01*
D02*
G37*
G36*
X466007D02*
X462359D01*
Y252779D01*
X466007D01*
Y258100D01*
D02*
G37*
G36*
X431621Y252135D02*
X422934D01*
Y250987D01*
X404061D01*
Y252135D01*
X395375D01*
Y247385D01*
X404061D01*
Y248336D01*
X422934D01*
Y247385D01*
X431621D01*
Y252135D01*
D02*
G37*
G36*
X356684Y252903D02*
X355551Y252753D01*
X354494Y252316D01*
X353587Y251619D01*
X352890Y250712D01*
X352532Y249847D01*
X340837D01*
X340479Y250712D01*
X339782Y251619D01*
X338875Y252316D01*
X337818Y252753D01*
X336684Y252903D01*
X335551Y252753D01*
X334494Y252316D01*
X333587Y251619D01*
X332891Y250712D01*
X332453Y249656D01*
X332304Y248522D01*
X332453Y247388D01*
X332891Y246331D01*
X333587Y245424D01*
X334494Y244728D01*
X335551Y244290D01*
X336684Y244141D01*
X337818Y244290D01*
X338875Y244728D01*
X339782Y245424D01*
X340479Y246331D01*
X340837Y247196D01*
X352532D01*
X352890Y246331D01*
X353587Y245424D01*
X354494Y244728D01*
X355551Y244290D01*
X356684Y244141D01*
X357818Y244290D01*
X358875Y244728D01*
X359782Y245424D01*
X360479Y246331D01*
X360916Y247388D01*
X361066Y248522D01*
X360916Y249656D01*
X360479Y250712D01*
X359782Y251619D01*
X358875Y252316D01*
X357818Y252753D01*
X356684Y252903D01*
D02*
G37*
G36*
X522559Y252824D02*
Y248896D01*
X526487D01*
X526391Y249630D01*
X525953Y250687D01*
X525257Y251594D01*
X524349Y252290D01*
X523293Y252728D01*
X522559Y252824D01*
D02*
G37*
G36*
X521759D02*
X521025Y252728D01*
X519969Y252290D01*
X519061Y251594D01*
X518365Y250687D01*
X517927Y249630D01*
X517831Y248896D01*
X521759D01*
Y252824D01*
D02*
G37*
G36*
X526487Y248096D02*
X522559D01*
Y244168D01*
X523293Y244264D01*
X524349Y244702D01*
X525257Y245398D01*
X525953Y246306D01*
X526391Y247362D01*
X526487Y248096D01*
D02*
G37*
G36*
X521759D02*
X517831D01*
X517927Y247362D01*
X518365Y246306D01*
X519061Y245398D01*
X519969Y244702D01*
X521025Y244264D01*
X521759Y244168D01*
Y248096D01*
D02*
G37*
G36*
X376684Y252903D02*
X375551Y252753D01*
X374494Y252316D01*
X373587Y251619D01*
X372890Y250712D01*
X372453Y249656D01*
X372304Y248522D01*
X372453Y247388D01*
X372890Y246331D01*
X373587Y245424D01*
X374494Y244728D01*
X375551Y244290D01*
X376684Y244141D01*
X377818Y244290D01*
X378875Y244728D01*
X379782Y245424D01*
X380479Y246331D01*
X380916Y247388D01*
X381066Y248522D01*
X380916Y249656D01*
X380479Y250712D01*
X379782Y251619D01*
X378875Y252316D01*
X377818Y252753D01*
X376684Y252903D01*
D02*
G37*
G36*
X462765Y277256D02*
X461915Y277087D01*
X461195Y276606D01*
X460714Y275885D01*
X460545Y275035D01*
X460714Y274186D01*
X461195Y273465D01*
X461915Y272984D01*
X462765Y272815D01*
X463615Y272984D01*
X464336Y273465D01*
X464499Y273710D01*
X475071D01*
X498286Y250495D01*
X497927Y249630D01*
X497778Y248496D01*
X497927Y247362D01*
X498365Y246306D01*
X499061Y245398D01*
X499969Y244702D01*
X501025Y244264D01*
X502159Y244115D01*
X503293Y244264D01*
X504350Y244702D01*
X505257Y245398D01*
X505953Y246306D01*
X506391Y247362D01*
X506540Y248496D01*
X506391Y249630D01*
X505953Y250687D01*
X505257Y251594D01*
X504350Y252290D01*
X503293Y252728D01*
X502159Y252877D01*
X501025Y252728D01*
X500160Y252369D01*
X476557Y275973D01*
X476127Y276260D01*
X475620Y276361D01*
X464499D01*
X464336Y276606D01*
X463615Y277087D01*
X462765Y277256D01*
D02*
G37*
G36*
X449274Y242272D02*
X447693D01*
Y238723D01*
X449274D01*
Y242272D01*
D02*
G37*
G36*
X446893D02*
X445312D01*
Y238723D01*
X446893D01*
Y242272D01*
D02*
G37*
G36*
X449274Y237923D02*
X447693D01*
Y234373D01*
X449274D01*
Y237923D01*
D02*
G37*
G36*
X446893D02*
X445312D01*
Y234373D01*
X446893D01*
Y237923D01*
D02*
G37*
G36*
X432981Y245849D02*
X418824D01*
X418317Y245748D01*
X417887Y245461D01*
X413346Y240920D01*
X413058Y240978D01*
X412208Y240809D01*
X411488Y240327D01*
X411006Y239607D01*
X410837Y238757D01*
X411006Y237907D01*
X411488Y237187D01*
X412208Y236705D01*
X413058Y236536D01*
X413908Y236705D01*
X414628Y237187D01*
X415109Y237907D01*
X415278Y238757D01*
X415221Y239046D01*
X419373Y243198D01*
X432432D01*
X435312Y240319D01*
Y234373D01*
X439274D01*
Y242272D01*
X437107D01*
X433919Y245461D01*
X433489Y245748D01*
X432981Y245849D01*
D02*
G37*
G36*
X439156Y233513D02*
X437575D01*
Y231242D01*
X439156D01*
Y233513D01*
D02*
G37*
G36*
X436775D02*
X435194D01*
Y231242D01*
X436775D01*
Y233513D01*
D02*
G37*
G36*
X404061Y242135D02*
X395375D01*
Y237385D01*
X398393D01*
Y233500D01*
X398494Y232993D01*
X398781Y232563D01*
X400803Y230541D01*
X400745Y230252D01*
X400914Y229402D01*
X401396Y228682D01*
X402116Y228200D01*
X402966Y228031D01*
X403816Y228200D01*
X404536Y228682D01*
X404700Y228926D01*
X415902D01*
Y228665D01*
X420652D01*
Y231839D01*
X415902D01*
Y231577D01*
X404700D01*
X404536Y231822D01*
X403816Y232304D01*
X402966Y232473D01*
X402677Y232415D01*
X401044Y234049D01*
Y237385D01*
X404061D01*
Y242135D01*
D02*
G37*
G36*
X439156Y230443D02*
X437575D01*
Y228172D01*
X439156D01*
Y230443D01*
D02*
G37*
G36*
X436775D02*
X435194D01*
Y228172D01*
X436775D01*
Y230443D01*
D02*
G37*
G36*
X365403Y239363D02*
X360260D01*
Y234023D01*
X364588D01*
X366854Y231756D01*
Y227995D01*
X374163D01*
Y231958D01*
X370402D01*
X365403Y236956D01*
Y239363D01*
D02*
G37*
G36*
X359301D02*
X354157D01*
Y236956D01*
X349158Y231958D01*
X345397D01*
Y227995D01*
X352706D01*
Y231756D01*
X354973Y234023D01*
X359301D01*
Y239363D01*
D02*
G37*
G36*
X449766Y228690D02*
X447496D01*
Y226518D01*
X449766D01*
Y228690D01*
D02*
G37*
G36*
X446696D02*
X444426D01*
Y226518D01*
X446696D01*
Y228690D01*
D02*
G37*
G36*
X344668Y228635D02*
X342398D01*
Y226463D01*
X344668D01*
Y228635D01*
D02*
G37*
G36*
X341598D02*
X339328D01*
Y226463D01*
X341598D01*
Y228635D01*
D02*
G37*
G36*
X356663Y227197D02*
X355813Y227028D01*
X355093Y226547D01*
X354929Y226302D01*
X352706D01*
Y226958D01*
X345397D01*
Y222995D01*
X352706D01*
Y223651D01*
X354929D01*
X355093Y223406D01*
X355338Y223243D01*
Y211017D01*
X354091D01*
Y207543D01*
X348639Y202091D01*
X348352Y201660D01*
X348251Y201153D01*
Y181883D01*
X346906D01*
Y176739D01*
X352246D01*
Y177986D01*
X353009D01*
Y176739D01*
X358349D01*
Y181883D01*
X353009D01*
Y180637D01*
X352246D01*
Y181883D01*
X350902D01*
Y200604D01*
X355974Y205676D01*
X359235D01*
Y211017D01*
X357988D01*
Y223243D01*
X358233Y223406D01*
X358715Y224127D01*
X358884Y224976D01*
X358715Y225826D01*
X358233Y226547D01*
X357513Y227028D01*
X356663Y227197D01*
D02*
G37*
G36*
X449766Y225718D02*
X447496D01*
Y223547D01*
X449766D01*
Y225718D01*
D02*
G37*
G36*
X446696D02*
X444426D01*
Y223547D01*
X446696D01*
Y225718D01*
D02*
G37*
G36*
X344668Y225663D02*
X342398D01*
Y223491D01*
X344668D01*
Y225663D01*
D02*
G37*
G36*
X341598D02*
X339328D01*
Y223491D01*
X341598D01*
Y225663D01*
D02*
G37*
G36*
X434419Y293183D02*
X433427Y293053D01*
X432503Y292670D01*
X431709Y292061D01*
X431100Y291267D01*
X430717Y290342D01*
X430586Y289350D01*
X430717Y288358D01*
X431100Y287434D01*
X431709Y286640D01*
X432503Y286031D01*
X433427Y285648D01*
X434419Y285518D01*
X435411Y285648D01*
X436335Y286031D01*
X437129Y286640D01*
X437644Y287311D01*
X440618D01*
X453738Y274191D01*
Y254366D01*
X453893Y253586D01*
X454335Y252924D01*
X462359Y244900D01*
Y238015D01*
X469244D01*
X471862Y235397D01*
Y224009D01*
X466802D01*
Y222098D01*
X464550D01*
Y222926D01*
X456060D01*
Y222055D01*
X449766D01*
Y222587D01*
X444426D01*
Y222055D01*
X442896D01*
Y222686D01*
X438934D01*
Y220308D01*
X438876Y220016D01*
X438934Y219724D01*
Y217346D01*
X442896D01*
Y217977D01*
X444426D01*
Y217444D01*
X449766D01*
Y217977D01*
X456060D01*
Y216995D01*
X464550D01*
Y218020D01*
X466802D01*
Y216109D01*
X471862D01*
Y207790D01*
X471584Y207373D01*
X471386Y206378D01*
X471584Y205383D01*
X472147Y204539D01*
X472991Y203976D01*
X473986Y203778D01*
X474981Y203976D01*
X475824Y204539D01*
X476388Y205383D01*
X476586Y206378D01*
X476388Y207373D01*
X475941Y208042D01*
Y216109D01*
X481001D01*
Y224009D01*
X475941D01*
Y236242D01*
X475941Y236242D01*
X475785Y237022D01*
X475344Y237684D01*
X475344Y237684D01*
X470455Y242572D01*
Y249458D01*
X463570D01*
X457816Y255211D01*
Y275036D01*
X457661Y275816D01*
X457219Y276477D01*
X457219Y276477D01*
X442904Y290792D01*
X442243Y291234D01*
X441462Y291390D01*
X437644D01*
X437129Y292061D01*
X436335Y292670D01*
X435411Y293053D01*
X434419Y293183D01*
D02*
G37*
G36*
X330888Y223910D02*
X328618D01*
Y221739D01*
X330888D01*
Y223910D01*
D02*
G37*
G36*
X327818D02*
X325548D01*
Y221739D01*
X327818D01*
Y223910D01*
D02*
G37*
G36*
X500854Y224009D02*
X494155D01*
Y220459D01*
X500854D01*
Y224009D01*
D02*
G37*
G36*
X493355D02*
X486656D01*
Y220459D01*
X493355D01*
Y224009D01*
D02*
G37*
G36*
X423802Y222686D02*
X421630D01*
Y220416D01*
X423802D01*
Y222686D01*
D02*
G37*
G36*
X420830D02*
X418658D01*
Y220416D01*
X420830D01*
Y222686D01*
D02*
G37*
G36*
X380199Y221450D02*
X377929D01*
Y219278D01*
X380199D01*
Y221450D01*
D02*
G37*
G36*
X377129D02*
X374859D01*
Y219278D01*
X377129D01*
Y221450D01*
D02*
G37*
G36*
X330888Y220939D02*
X328618D01*
Y218767D01*
X330888D01*
Y220939D01*
D02*
G37*
G36*
X327818D02*
X325548D01*
Y218767D01*
X327818D01*
Y220939D01*
D02*
G37*
G36*
X362765Y222197D02*
X361915Y222028D01*
X361195Y221547D01*
X360714Y220826D01*
X360545Y219976D01*
X360714Y219127D01*
X361195Y218406D01*
X361440Y218243D01*
Y211017D01*
X360194D01*
Y205676D01*
X363561D01*
X363900Y205337D01*
Y158642D01*
X364001Y158134D01*
X364289Y157704D01*
X397950Y124043D01*
X398380Y123756D01*
X398887Y123655D01*
X404583D01*
Y122310D01*
X409727D01*
Y127650D01*
X404583D01*
Y126306D01*
X399436D01*
X366551Y159191D01*
Y205886D01*
X366451Y206393D01*
X366163Y206823D01*
X365337Y207649D01*
Y211017D01*
X364091D01*
Y218243D01*
X364335Y218406D01*
X364499Y218651D01*
X366854D01*
Y217995D01*
X374163D01*
Y221957D01*
X366854D01*
Y221302D01*
X364499D01*
X364335Y221547D01*
X363615Y222028D01*
X362765Y222197D01*
D02*
G37*
G36*
X344668Y222532D02*
X339328D01*
Y217389D01*
X340672D01*
Y216528D01*
X338638D01*
Y211188D01*
X343782D01*
Y216528D01*
X343323D01*
Y217389D01*
X344668D01*
Y218635D01*
X345397D01*
Y217995D01*
X352706D01*
Y221957D01*
X345397D01*
Y221286D01*
X344668D01*
Y222532D01*
D02*
G37*
G36*
X423802Y219616D02*
X421630D01*
Y217346D01*
X423802D01*
Y219616D01*
D02*
G37*
G36*
X420830D02*
X418658D01*
Y217346D01*
X420830D01*
Y219616D01*
D02*
G37*
G36*
X431621Y242135D02*
X422934D01*
Y237385D01*
X425238D01*
Y231839D01*
X424958D01*
Y228665D01*
X425293D01*
Y222686D01*
X424761D01*
Y217346D01*
X429904D01*
Y217977D01*
X431454D01*
Y217346D01*
X435416D01*
Y219724D01*
X435474Y220016D01*
X435416Y220308D01*
Y222686D01*
X431454D01*
Y222055D01*
X429904D01*
Y222686D01*
X429372D01*
Y228665D01*
X429707D01*
Y231839D01*
X429316D01*
Y237385D01*
X431621D01*
Y242135D01*
D02*
G37*
G36*
X380199Y218478D02*
X377929D01*
Y216306D01*
X380199D01*
Y218478D01*
D02*
G37*
G36*
X377129D02*
X374859D01*
Y216306D01*
X377129D01*
Y218478D01*
D02*
G37*
G36*
X500854Y219659D02*
X494155D01*
Y216109D01*
X500854D01*
Y219659D01*
D02*
G37*
G36*
X493355D02*
X486656D01*
Y216109D01*
X493355D01*
Y219659D01*
D02*
G37*
G36*
X352706Y216957D02*
X349452D01*
Y215376D01*
X352706D01*
Y216957D01*
D02*
G37*
G36*
X348652D02*
X345397D01*
Y215376D01*
X348652D01*
Y216957D01*
D02*
G37*
G36*
X374163D02*
X366854D01*
Y212995D01*
X374163D01*
Y216957D01*
D02*
G37*
G36*
X352706Y214576D02*
X349452D01*
Y212995D01*
X352706D01*
Y214576D01*
D02*
G37*
G36*
X348652D02*
X345397D01*
Y212995D01*
X348652D01*
Y214576D01*
D02*
G37*
G36*
X338664Y222926D02*
X331552D01*
Y217389D01*
X333782D01*
Y216528D01*
X332536D01*
Y211188D01*
X333782D01*
Y210328D01*
X332536D01*
Y204987D01*
X337680D01*
Y210328D01*
X336433D01*
Y211188D01*
X337680D01*
Y216528D01*
X336433D01*
Y217389D01*
X338664D01*
Y222926D01*
D02*
G37*
G36*
X382561Y212591D02*
X376631D01*
Y204102D01*
X377557D01*
Y203339D01*
X376631D01*
Y201134D01*
X374540D01*
X373997Y201497D01*
X373002Y201694D01*
X372007Y201497D01*
X371163Y200933D01*
X370600Y200090D01*
X370402Y199095D01*
X370600Y198100D01*
X371163Y197256D01*
X372007Y196693D01*
X373002Y196495D01*
X373997Y196693D01*
X374540Y197055D01*
X376631D01*
Y194850D01*
X377557D01*
Y193595D01*
X375646D01*
Y179397D01*
X383546D01*
Y193595D01*
X381635D01*
Y194850D01*
X382561D01*
Y203339D01*
X381635D01*
Y204102D01*
X382561D01*
Y212591D01*
D02*
G37*
G36*
X394176Y203339D02*
X391610D01*
Y199495D01*
X394176D01*
Y203339D01*
D02*
G37*
G36*
X390810D02*
X388245D01*
Y199495D01*
X390810D01*
Y203339D01*
D02*
G37*
G36*
X343782Y210328D02*
X338638D01*
Y204987D01*
X339171D01*
Y203192D01*
X338808Y202648D01*
X338610Y201654D01*
X338808Y200659D01*
X339372Y199815D01*
X340215Y199251D01*
X341210Y199054D01*
X342205Y199251D01*
X343049Y199815D01*
X343612Y200659D01*
X343810Y201654D01*
X343612Y202648D01*
X343249Y203192D01*
Y204987D01*
X343782D01*
Y210328D01*
D02*
G37*
G36*
X394176Y198695D02*
X391610D01*
Y194850D01*
X394176D01*
Y198695D01*
D02*
G37*
G36*
X390810D02*
X388245D01*
Y194850D01*
X390810D01*
Y198695D01*
D02*
G37*
G36*
X500953Y196745D02*
X494253D01*
Y193195D01*
X500953D01*
Y196745D01*
D02*
G37*
G36*
X493454D02*
X486754D01*
Y193195D01*
X493454D01*
Y196745D01*
D02*
G37*
G36*
X482159Y252877D02*
X481025Y252728D01*
X479969Y252290D01*
X479061Y251594D01*
X478365Y250687D01*
X477927Y249630D01*
X477778Y248496D01*
X477927Y247362D01*
X478365Y246306D01*
X479061Y245398D01*
X479969Y244702D01*
X481025Y244264D01*
X482159Y244115D01*
X483293Y244264D01*
X484158Y244623D01*
X514590Y214191D01*
Y202527D01*
X511965D01*
Y191084D01*
X519865D01*
Y202527D01*
X517240D01*
Y214740D01*
X517139Y215247D01*
X516852Y215677D01*
X486032Y246497D01*
X486391Y247362D01*
X486540Y248496D01*
X486391Y249630D01*
X485953Y250687D01*
X485257Y251594D01*
X484349Y252290D01*
X483293Y252728D01*
X482159Y252877D01*
D02*
G37*
G36*
X338073Y196437D02*
X334524D01*
Y190525D01*
X338073D01*
Y196437D01*
D02*
G37*
G36*
X333724D02*
X330174D01*
Y190525D01*
X333724D01*
Y196437D01*
D02*
G37*
G36*
X500953Y192395D02*
X494253D01*
Y188846D01*
X500953D01*
Y192395D01*
D02*
G37*
G36*
X493454D02*
X486754D01*
Y188846D01*
X493454D01*
Y192395D01*
D02*
G37*
G36*
X429359Y197171D02*
X428020Y196995D01*
X426772Y196478D01*
X425700Y195655D01*
X424877Y194584D01*
X424360Y193335D01*
X424184Y191996D01*
X424360Y190657D01*
X424877Y189409D01*
X424886Y189398D01*
X422458Y186970D01*
X422171Y186540D01*
X422070Y186032D01*
Y157643D01*
X421404Y157367D01*
X420578Y156734D01*
X419945Y155909D01*
X419547Y154948D01*
X419412Y153917D01*
X419547Y152886D01*
X419945Y151926D01*
X420578Y151101D01*
X421404Y150468D01*
X422364Y150069D01*
X423395Y149934D01*
X424426Y150069D01*
X425093Y150346D01*
X428856Y146582D01*
X429286Y146295D01*
X429793Y146194D01*
X435937D01*
X439971Y142160D01*
Y128930D01*
X434984D01*
Y121031D01*
X447608D01*
Y123655D01*
X454520D01*
X454763Y123068D01*
X455364Y122284D01*
X456148Y121682D01*
X457061Y121304D01*
X458041Y121175D01*
X459021Y121304D01*
X459934Y121682D01*
X460718Y122284D01*
X461319Y123068D01*
X461554Y123635D01*
X464697D01*
X469352Y118980D01*
X469782Y118693D01*
X470289Y118592D01*
X513080D01*
X513588Y118693D01*
X514018Y118980D01*
X520160Y125123D01*
X521025Y124764D01*
X522159Y124615D01*
X523293Y124764D01*
X524349Y125202D01*
X525257Y125898D01*
X525953Y126806D01*
X526391Y127862D01*
X526540Y128996D01*
X526391Y130130D01*
X525953Y131187D01*
X525257Y132094D01*
X524349Y132790D01*
X523293Y133228D01*
X522159Y133377D01*
X521025Y133228D01*
X519969Y132790D01*
X519061Y132094D01*
X518365Y131187D01*
X517927Y130130D01*
X517778Y128996D01*
X517927Y127862D01*
X518286Y126997D01*
X512531Y121243D01*
X470838D01*
X466183Y125898D01*
X465753Y126185D01*
X465246Y126286D01*
X461554D01*
X461319Y126853D01*
X460718Y127637D01*
X459934Y128239D01*
X459366Y128474D01*
Y130105D01*
X461794D01*
Y137611D01*
X454288D01*
Y130105D01*
X456715D01*
Y128474D01*
X456148Y128239D01*
X455364Y127637D01*
X454763Y126853D01*
X454536Y126306D01*
X447608D01*
Y128930D01*
X442622D01*
Y142710D01*
X442521Y143217D01*
X442233Y143647D01*
X437423Y148457D01*
X436993Y148744D01*
X436486Y148845D01*
X430342D01*
X426967Y152220D01*
X427243Y152886D01*
X427379Y153917D01*
X427243Y154948D01*
X426845Y155909D01*
X426212Y156734D01*
X425387Y157367D01*
X424721Y157643D01*
Y185483D01*
X426760Y187523D01*
X426772Y187514D01*
X428020Y186997D01*
X429359Y186821D01*
X430698Y186997D01*
X431947Y187514D01*
X433018Y188337D01*
X433841Y189409D01*
X434358Y190657D01*
X434534Y191996D01*
X434358Y193335D01*
X433841Y194584D01*
X433018Y195655D01*
X431947Y196478D01*
X430698Y196995D01*
X429359Y197171D01*
D02*
G37*
G36*
X338073Y189725D02*
X334524D01*
Y183813D01*
X338073D01*
Y189725D01*
D02*
G37*
G36*
X333724D02*
X330174D01*
Y183813D01*
X333724D01*
Y189725D01*
D02*
G37*
G36*
X519865Y188576D02*
X511965D01*
Y184180D01*
X503021D01*
X502514Y184079D01*
X502084Y183792D01*
X499570Y181277D01*
X499281Y181335D01*
X498431Y181166D01*
X497711Y180684D01*
X497229Y179964D01*
X497060Y179114D01*
X497229Y178264D01*
X497711Y177544D01*
X498431Y177063D01*
X499281Y176894D01*
X500131Y177063D01*
X500851Y177544D01*
X501333Y178264D01*
X501502Y179114D01*
X501444Y179403D01*
X503570Y181529D01*
X511965D01*
Y177133D01*
X519865D01*
Y188576D01*
D02*
G37*
G36*
X446724Y176026D02*
Y173290D01*
X449461D01*
X449405Y173715D01*
X449086Y174484D01*
X448580Y175145D01*
X447919Y175652D01*
X447150Y175970D01*
X446724Y176026D01*
D02*
G37*
G36*
X445924D02*
X445499Y175970D01*
X444730Y175652D01*
X444069Y175145D01*
X443562Y174484D01*
X443244Y173715D01*
X443188Y173290D01*
X445924D01*
Y176026D01*
D02*
G37*
G36*
X338073Y179533D02*
X330174D01*
Y166910D01*
X338073D01*
Y171896D01*
X346906D01*
Y170637D01*
X352246D01*
Y175780D01*
X346906D01*
Y174547D01*
X338073D01*
Y179533D01*
D02*
G37*
G36*
X380199Y227552D02*
X374859D01*
Y227016D01*
X370509D01*
X370217Y226958D01*
X366854D01*
Y222995D01*
X370217D01*
X370509Y222937D01*
X374859D01*
Y222409D01*
X380199D01*
Y222941D01*
X382492D01*
X389171Y216262D01*
Y212591D01*
X388245D01*
Y204102D01*
X394176D01*
Y206307D01*
X456060D01*
Y205381D01*
X460386D01*
X468561Y197207D01*
X468369Y196745D01*
X466901D01*
Y188846D01*
X474953D01*
X493016Y170782D01*
X493678Y170341D01*
X494458Y170185D01*
X505187D01*
X505479Y170243D01*
X507857D01*
Y174206D01*
X505479D01*
X505187Y174264D01*
X495303D01*
X480988Y188578D01*
X481099Y188846D01*
X481099D01*
Y196745D01*
X474790D01*
X464550Y206985D01*
Y211312D01*
X456060D01*
Y210386D01*
X394176D01*
Y212591D01*
X393249D01*
Y217106D01*
X393094Y217887D01*
X392652Y218548D01*
X384778Y226422D01*
X384117Y226864D01*
X383336Y227020D01*
X380199D01*
Y227552D01*
D02*
G37*
G36*
X449461Y172490D02*
X446724D01*
Y169753D01*
X447150Y169809D01*
X447919Y170128D01*
X448580Y170635D01*
X449086Y171295D01*
X449405Y172064D01*
X449461Y172490D01*
D02*
G37*
G36*
X445924D02*
X443188D01*
X443244Y172064D01*
X443562Y171295D01*
X444069Y170635D01*
X444730Y170128D01*
X445499Y169809D01*
X445924Y169753D01*
Y172490D01*
D02*
G37*
G36*
X449359Y197171D02*
X448020Y196995D01*
X446772Y196478D01*
X445700Y195655D01*
X444877Y194584D01*
X444360Y193335D01*
X444184Y191996D01*
X444360Y190657D01*
X444877Y189409D01*
X445700Y188337D01*
X446772Y187514D01*
X448020Y186997D01*
X448034Y186996D01*
Y179973D01*
X448135Y179466D01*
X448422Y179036D01*
X453473Y173984D01*
X453362Y173715D01*
X453253Y172890D01*
X453362Y172064D01*
X453681Y171295D01*
X454187Y170635D01*
X454848Y170128D01*
X455617Y169809D01*
X456442Y169701D01*
X457268Y169809D01*
X458037Y170128D01*
X458698Y170635D01*
X459204Y171295D01*
X459316Y171564D01*
X463280D01*
Y169728D01*
X469604D01*
Y176052D01*
X463280D01*
Y174215D01*
X459316D01*
X459204Y174484D01*
X458698Y175145D01*
X458037Y175652D01*
X457268Y175970D01*
X456442Y176079D01*
X455617Y175970D01*
X455348Y175859D01*
X450684Y180522D01*
Y186996D01*
X450698Y186997D01*
X451946Y187514D01*
X453018Y188337D01*
X453841Y189409D01*
X454358Y190657D01*
X454534Y191996D01*
X454358Y193335D01*
X453841Y194584D01*
X453018Y195655D01*
X451946Y196478D01*
X450698Y196995D01*
X449359Y197171D01*
D02*
G37*
G36*
X383546Y173742D02*
X379996D01*
Y167043D01*
X383546D01*
Y173742D01*
D02*
G37*
G36*
X379196D02*
X375646D01*
Y167043D01*
X379196D01*
Y173742D01*
D02*
G37*
G36*
X449486Y166052D02*
X446724D01*
Y163290D01*
X449486D01*
Y166052D01*
D02*
G37*
G36*
X445924D02*
X443162D01*
Y163290D01*
X445924D01*
Y166052D01*
D02*
G37*
G36*
X449486Y162490D02*
X446724D01*
Y159728D01*
X449486D01*
Y162490D01*
D02*
G37*
G36*
X445924D02*
X443162D01*
Y159728D01*
X445924D01*
Y162490D01*
D02*
G37*
G36*
X409359Y197171D02*
X408020Y196995D01*
X406772Y196478D01*
X405700Y195655D01*
X404877Y194584D01*
X404360Y193335D01*
X404184Y191996D01*
X404360Y190657D01*
X404877Y189409D01*
X405700Y188337D01*
X406772Y187514D01*
X408020Y186997D01*
X408034Y186996D01*
Y182458D01*
X405387Y179811D01*
X405100Y179381D01*
X404999Y178874D01*
Y176052D01*
X403162D01*
Y169728D01*
X404999D01*
Y165763D01*
X404730Y165652D01*
X404069Y165145D01*
X403562Y164484D01*
X403244Y163715D01*
X403135Y162890D01*
X403244Y162064D01*
X403562Y161295D01*
X404069Y160635D01*
X404730Y160128D01*
X405499Y159809D01*
X406324Y159701D01*
X407150Y159809D01*
X407919Y160128D01*
X408580Y160635D01*
X409086Y161295D01*
X409405Y162064D01*
X409514Y162890D01*
X409405Y163715D01*
X409086Y164484D01*
X408580Y165145D01*
X407919Y165652D01*
X407650Y165763D01*
Y169728D01*
X409486D01*
Y176052D01*
X407650D01*
Y178325D01*
X410296Y180972D01*
X410584Y181402D01*
X410684Y181909D01*
Y186996D01*
X410698Y186997D01*
X411946Y187514D01*
X413018Y188337D01*
X413841Y189409D01*
X414358Y190657D01*
X414534Y191996D01*
X414358Y193335D01*
X413841Y194584D01*
X413018Y195655D01*
X411946Y196478D01*
X410698Y196995D01*
X409359Y197171D01*
D02*
G37*
G36*
X383546Y166243D02*
X379996D01*
Y159543D01*
X383546D01*
Y166243D01*
D02*
G37*
G36*
X379196D02*
X375646D01*
Y159543D01*
X379196D01*
Y166243D01*
D02*
G37*
G36*
X513861Y161081D02*
X511689D01*
Y158811D01*
X513861D01*
Y161081D01*
D02*
G37*
G36*
X510889D02*
X508717D01*
Y158811D01*
X510889D01*
Y161081D01*
D02*
G37*
G36*
X338080Y163077D02*
X334530D01*
Y157756D01*
X338080D01*
Y163077D01*
D02*
G37*
G36*
X333730D02*
X330180D01*
Y157756D01*
X333730D01*
Y163077D01*
D02*
G37*
G36*
X517109Y170465D02*
X511768D01*
Y166503D01*
X516514D01*
X520410Y162607D01*
X520725Y162262D01*
X520725D01*
X520725Y162262D01*
Y156725D01*
X527837D01*
Y158159D01*
X528599D01*
Y156913D01*
X533939D01*
Y162056D01*
X528599D01*
Y160810D01*
X527837D01*
Y162262D01*
X524504D01*
X517344Y169422D01*
X517109Y169579D01*
Y170465D01*
D02*
G37*
G36*
X499281Y168638D02*
X498431Y168469D01*
X497711Y167988D01*
X497229Y167267D01*
X497060Y166417D01*
X497229Y165568D01*
X497711Y164847D01*
X498431Y164366D01*
X499281Y164197D01*
X499570Y164254D01*
X500017Y163807D01*
X500447Y163520D01*
X500954Y163419D01*
X502517D01*
Y162763D01*
X503861D01*
Y161072D01*
X502517D01*
Y155928D01*
X507857D01*
Y161072D01*
X506512D01*
Y162763D01*
X507857D01*
Y166725D01*
X502517D01*
Y166070D01*
X501942D01*
X501502Y166417D01*
X501333Y167267D01*
X500851Y167988D01*
X500131Y168469D01*
X499281Y168638D01*
D02*
G37*
G36*
X513861Y158011D02*
X511689D01*
Y155741D01*
X513861D01*
Y158011D01*
D02*
G37*
G36*
X510889D02*
X508717D01*
Y155741D01*
X510889D01*
Y158011D01*
D02*
G37*
G36*
X533939Y155954D02*
X531669D01*
Y153782D01*
X533939D01*
Y155954D01*
D02*
G37*
G36*
X530869D02*
X528599D01*
Y153782D01*
X530869D01*
Y155954D01*
D02*
G37*
G36*
X466843Y156026D02*
Y153290D01*
X469579D01*
X469523Y153715D01*
X469205Y154484D01*
X468698Y155145D01*
X468037Y155652D01*
X467268Y155970D01*
X466843Y156026D01*
D02*
G37*
G36*
X466043D02*
X465617Y155970D01*
X464848Y155652D01*
X464187Y155145D01*
X463681Y154484D01*
X463362Y153715D01*
X463306Y153290D01*
X466043D01*
Y156026D01*
D02*
G37*
G36*
X459605Y156052D02*
X456843D01*
Y153290D01*
X459605D01*
Y156052D01*
D02*
G37*
G36*
X456042D02*
X453280D01*
Y153290D01*
X456042D01*
Y156052D01*
D02*
G37*
G36*
X507857Y154969D02*
X505587D01*
Y152798D01*
X507857D01*
Y154969D01*
D02*
G37*
G36*
X504787D02*
X502517D01*
Y152798D01*
X504787D01*
Y154969D01*
D02*
G37*
G36*
X338080Y156956D02*
X334530D01*
Y151635D01*
X338080D01*
Y156956D01*
D02*
G37*
G36*
X333730D02*
X330180D01*
Y151635D01*
X333730D01*
Y156956D01*
D02*
G37*
G36*
X533939Y152982D02*
X531669D01*
Y150810D01*
X533939D01*
Y152982D01*
D02*
G37*
G36*
X530869D02*
X528599D01*
Y150810D01*
X530869D01*
Y152982D01*
D02*
G37*
G36*
X433238Y157901D02*
X432207Y157765D01*
X431246Y157367D01*
X430421Y156734D01*
X429788Y155909D01*
X429390Y154948D01*
X429254Y153917D01*
X429390Y152886D01*
X429788Y151926D01*
X430421Y151101D01*
X431246Y150468D01*
X432207Y150069D01*
X433238Y149934D01*
X434269Y150069D01*
X435230Y150468D01*
X436055Y151101D01*
X436688Y151926D01*
X437086Y152886D01*
X437221Y153917D01*
X437086Y154948D01*
X436688Y155909D01*
X436055Y156734D01*
X435230Y157367D01*
X434269Y157765D01*
X433238Y157901D01*
D02*
G37*
G36*
X413553D02*
X412522Y157765D01*
X411561Y157367D01*
X410736Y156734D01*
X410103Y155909D01*
X409705Y154948D01*
X409569Y153917D01*
X409705Y152886D01*
X409981Y152220D01*
X406218Y148457D01*
X405931Y148027D01*
X405830Y147520D01*
Y133753D01*
X404583D01*
Y128412D01*
X409727D01*
Y133753D01*
X408481D01*
Y146971D01*
X411855Y150346D01*
X412522Y150069D01*
X413553Y149934D01*
X414584Y150069D01*
X415545Y150468D01*
X416370Y151101D01*
X417003Y151926D01*
X417401Y152886D01*
X417536Y153917D01*
X417401Y154948D01*
X417003Y155909D01*
X416370Y156734D01*
X415545Y157367D01*
X414584Y157765D01*
X413553Y157901D01*
D02*
G37*
G36*
X507857Y151998D02*
X505587D01*
Y149826D01*
X507857D01*
Y151998D01*
D02*
G37*
G36*
X504787D02*
X502517D01*
Y149826D01*
X504787D01*
Y151998D01*
D02*
G37*
G36*
X469579Y152490D02*
X466843D01*
Y149753D01*
X467268Y149809D01*
X468037Y150128D01*
X468698Y150635D01*
X469205Y151295D01*
X469523Y152064D01*
X469579Y152490D01*
D02*
G37*
G36*
X466043D02*
X463306D01*
X463362Y152064D01*
X463681Y151295D01*
X464187Y150635D01*
X464848Y150128D01*
X465617Y149809D01*
X466043Y149753D01*
Y152490D01*
D02*
G37*
G36*
X459605Y152490D02*
X456843D01*
Y149728D01*
X459605D01*
Y152490D01*
D02*
G37*
G36*
X456042D02*
X453280D01*
Y149728D01*
X456042D01*
Y152490D01*
D02*
G37*
G36*
X519963Y161081D02*
X514820D01*
Y155741D01*
X516066D01*
Y154880D01*
X514820D01*
Y149540D01*
X519963D01*
Y150885D01*
X520725D01*
Y149442D01*
X527837D01*
Y154979D01*
X520725D01*
Y153536D01*
X519963D01*
Y154880D01*
X518717D01*
Y155741D01*
X519963D01*
Y161081D01*
D02*
G37*
G36*
X458441Y147591D02*
Y144258D01*
X461774D01*
X461697Y144838D01*
X461319Y145751D01*
X460718Y146535D01*
X459934Y147136D01*
X459021Y147515D01*
X458441Y147591D01*
D02*
G37*
G36*
X457641D02*
X457061Y147515D01*
X456148Y147136D01*
X455364Y146535D01*
X454763Y145751D01*
X454385Y144838D01*
X454308Y144258D01*
X457641D01*
Y147591D01*
D02*
G37*
G36*
X433638Y145250D02*
Y141719D01*
X437169D01*
X437086Y142350D01*
X436688Y143311D01*
X436055Y144136D01*
X435230Y144769D01*
X434269Y145167D01*
X433638Y145250D01*
D02*
G37*
G36*
X432838D02*
X432207Y145167D01*
X431246Y144769D01*
X430421Y144136D01*
X429788Y143311D01*
X429390Y142350D01*
X429307Y141719D01*
X432838D01*
Y145250D01*
D02*
G37*
G36*
X423795D02*
Y141719D01*
X427326D01*
X427243Y142350D01*
X426845Y143311D01*
X426212Y144136D01*
X425387Y144769D01*
X424426Y145167D01*
X423795Y145250D01*
D02*
G37*
G36*
X422995D02*
X422364Y145167D01*
X421404Y144769D01*
X420578Y144136D01*
X419945Y143311D01*
X419547Y142350D01*
X419464Y141719D01*
X422995D01*
Y145250D01*
D02*
G37*
G36*
X413953D02*
Y141719D01*
X417484D01*
X417401Y142350D01*
X417003Y143311D01*
X416370Y144136D01*
X415545Y144769D01*
X414584Y145167D01*
X413953Y145250D01*
D02*
G37*
G36*
X413153D02*
X412522Y145167D01*
X411561Y144769D01*
X410736Y144136D01*
X410103Y143311D01*
X409705Y142350D01*
X409622Y141719D01*
X413153D01*
Y145250D01*
D02*
G37*
G36*
X461774Y143458D02*
X458441D01*
Y140126D01*
X459021Y140202D01*
X459934Y140580D01*
X460718Y141182D01*
X461319Y141966D01*
X461697Y142879D01*
X461774Y143458D01*
D02*
G37*
G36*
X457641D02*
X454308D01*
X454385Y142879D01*
X454763Y141966D01*
X455364Y141182D01*
X456148Y140580D01*
X457061Y140202D01*
X457641Y140126D01*
Y143458D01*
D02*
G37*
G36*
X437169Y140919D02*
X433638D01*
Y137388D01*
X434269Y137471D01*
X435230Y137869D01*
X436055Y138502D01*
X436688Y139327D01*
X437086Y140288D01*
X437169Y140919D01*
D02*
G37*
G36*
X432838D02*
X429307D01*
X429390Y140288D01*
X429788Y139327D01*
X430421Y138502D01*
X431246Y137869D01*
X432207Y137471D01*
X432838Y137388D01*
Y140919D01*
D02*
G37*
G36*
X427326D02*
X423795D01*
Y137388D01*
X424426Y137471D01*
X425387Y137869D01*
X426212Y138502D01*
X426845Y139327D01*
X427243Y140288D01*
X427326Y140919D01*
D02*
G37*
G36*
X422995D02*
X419464D01*
X419547Y140288D01*
X419945Y139327D01*
X420578Y138502D01*
X421404Y137869D01*
X422364Y137471D01*
X422995Y137388D01*
Y140919D01*
D02*
G37*
G36*
X417484D02*
X413953D01*
Y137388D01*
X414584Y137471D01*
X415545Y137869D01*
X416370Y138502D01*
X417003Y139327D01*
X417401Y140288D01*
X417484Y140919D01*
D02*
G37*
G36*
X413153D02*
X409622D01*
X409705Y140288D01*
X410103Y139327D01*
X410736Y138502D01*
X411561Y137869D01*
X412522Y137471D01*
X413153Y137388D01*
Y140919D01*
D02*
G37*
G36*
X513861Y154880D02*
X508717D01*
Y149540D01*
X509964D01*
Y138675D01*
X504158Y132870D01*
X503293Y133228D01*
X502159Y133377D01*
X501025Y133228D01*
X499969Y132790D01*
X499061Y132094D01*
X498365Y131187D01*
X498007Y130322D01*
X486311D01*
X485953Y131187D01*
X485257Y132094D01*
X484349Y132790D01*
X483293Y133228D01*
X482159Y133377D01*
X481025Y133228D01*
X479969Y132790D01*
X479061Y132094D01*
X478365Y131187D01*
X477927Y130130D01*
X477778Y128996D01*
X477927Y127862D01*
X478365Y126806D01*
X479061Y125898D01*
X479969Y125202D01*
X481025Y124764D01*
X482159Y124615D01*
X483293Y124764D01*
X484349Y125202D01*
X485257Y125898D01*
X485953Y126806D01*
X486311Y127671D01*
X498007D01*
X498365Y126806D01*
X499061Y125898D01*
X499969Y125202D01*
X501025Y124764D01*
X502159Y124615D01*
X503293Y124764D01*
X504350Y125202D01*
X505257Y125898D01*
X505953Y126806D01*
X506391Y127862D01*
X506540Y128996D01*
X506391Y130130D01*
X506032Y130995D01*
X512226Y137189D01*
X512513Y137619D01*
X512614Y138126D01*
Y149540D01*
X513861D01*
Y154880D01*
D02*
G37*
G36*
X415829Y133753D02*
X413657D01*
Y131483D01*
X415829D01*
Y133753D01*
D02*
G37*
G36*
X412857D02*
X410686D01*
Y131483D01*
X412857D01*
Y133753D01*
D02*
G37*
G36*
X415829Y130683D02*
X413657D01*
Y128412D01*
X415829D01*
Y130683D01*
D02*
G37*
G36*
X412857D02*
X410686D01*
Y128412D01*
X412857D01*
Y130683D01*
D02*
G37*
G36*
X430704Y128930D02*
X418080D01*
Y126306D01*
X415829D01*
Y127650D01*
X410686D01*
Y122310D01*
X415829D01*
Y123655D01*
X418080D01*
Y121031D01*
X430704D01*
Y128930D01*
D02*
G37*
G36*
X358349Y175780D02*
X353009D01*
Y170637D01*
X354353D01*
Y150002D01*
X354454Y149495D01*
X354742Y149065D01*
X372811Y130995D01*
X372453Y130130D01*
X372304Y128996D01*
X372453Y127862D01*
X372890Y126806D01*
X373587Y125898D01*
X374494Y125202D01*
X375551Y124764D01*
X376684Y124615D01*
X377818Y124764D01*
X378875Y125202D01*
X379782Y125898D01*
X380479Y126806D01*
X380916Y127862D01*
X381066Y128996D01*
X380916Y130130D01*
X380479Y131187D01*
X379782Y132094D01*
X378875Y132790D01*
X377818Y133228D01*
X376684Y133377D01*
X375551Y133228D01*
X374686Y132870D01*
X357004Y150551D01*
Y170637D01*
X358349D01*
Y175780D01*
D02*
G37*
G36*
X338080Y149126D02*
X330180D01*
Y137683D01*
X332804D01*
Y131551D01*
X332881Y131164D01*
X332453Y130130D01*
X332304Y128996D01*
X332453Y127862D01*
X332891Y126806D01*
X333587Y125898D01*
X334494Y125202D01*
X335551Y124764D01*
X336684Y124615D01*
X337818Y124764D01*
X338875Y125202D01*
X339782Y125898D01*
X340479Y126806D01*
X340837Y127671D01*
X352532D01*
X352890Y126806D01*
X353587Y125898D01*
X354494Y125202D01*
X355551Y124764D01*
X356684Y124615D01*
X357818Y124764D01*
X358875Y125202D01*
X359782Y125898D01*
X360479Y126806D01*
X360916Y127862D01*
X361066Y128996D01*
X360916Y130130D01*
X360479Y131187D01*
X359782Y132094D01*
X358875Y132790D01*
X357818Y133228D01*
X356684Y133377D01*
X355551Y133228D01*
X354494Y132790D01*
X353587Y132094D01*
X352890Y131187D01*
X352532Y130322D01*
X340837D01*
X340479Y131187D01*
X339782Y132094D01*
X338875Y132790D01*
X337818Y133228D01*
X336684Y133377D01*
X335955Y133281D01*
X335455Y133706D01*
Y137683D01*
X338080D01*
Y149126D01*
D02*
G37*
G36*
X461794Y118714D02*
X458441D01*
Y115361D01*
X461794D01*
Y118714D01*
D02*
G37*
G36*
X457641D02*
X454288D01*
Y115361D01*
X457641D01*
Y118714D01*
D02*
G37*
G36*
X396033Y118638D02*
X395183Y118469D01*
X394463Y117988D01*
X393982Y117267D01*
X393812Y116417D01*
X393886Y116047D01*
X383580Y105740D01*
X383293Y105310D01*
X383192Y104803D01*
Y103143D01*
X382635D01*
Y97999D01*
X386400D01*
Y103143D01*
X385843D01*
Y104254D01*
X395827Y114238D01*
X396033Y114197D01*
X396883Y114366D01*
X397603Y114847D01*
X398085Y115568D01*
X398254Y116417D01*
X398085Y117267D01*
X397603Y117988D01*
X396883Y118469D01*
X396033Y118638D01*
D02*
G37*
G36*
X461794Y114561D02*
X458441D01*
Y111208D01*
X461794D01*
Y114561D01*
D02*
G37*
G36*
X457641D02*
X454288D01*
Y111208D01*
X457641D01*
Y114561D01*
D02*
G37*
G36*
X400561Y114406D02*
X399711Y114237D01*
X398990Y113755D01*
X398509Y113035D01*
X398340Y112185D01*
X398397Y111896D01*
X393108Y106607D01*
X392821Y106177D01*
X392720Y105670D01*
Y100810D01*
X391474D01*
Y95469D01*
X396617D01*
Y100810D01*
X395371D01*
Y105121D01*
X400272Y110022D01*
X400561Y109965D01*
X401410Y110134D01*
X402131Y110615D01*
X402612Y111335D01*
X402781Y112185D01*
X402612Y113035D01*
X402131Y113755D01*
X401410Y114237D01*
X400561Y114406D01*
D02*
G37*
G36*
X451231Y99472D02*
X447681D01*
Y94151D01*
X451231D01*
Y99472D01*
D02*
G37*
G36*
X446881D02*
X443332D01*
Y94151D01*
X446881D01*
Y99472D01*
D02*
G37*
G36*
X388959Y94284D02*
X387476D01*
Y92113D01*
X388959D01*
Y94284D01*
D02*
G37*
G36*
X386676D02*
X385194D01*
Y92113D01*
X386676D01*
Y94284D01*
D02*
G37*
G36*
X471605Y93297D02*
X470024D01*
Y91027D01*
X471605D01*
Y93297D01*
D02*
G37*
G36*
X469224D02*
X467643D01*
Y91027D01*
X469224D01*
Y93297D01*
D02*
G37*
G36*
X388959Y91313D02*
X387476D01*
Y89141D01*
X388959D01*
Y91313D01*
D02*
G37*
G36*
X386676D02*
X385194D01*
Y89141D01*
X386676D01*
Y91313D01*
D02*
G37*
G36*
X451231Y93351D02*
X447681D01*
Y88030D01*
X451231D01*
Y93351D01*
D02*
G37*
G36*
X446881D02*
X443332D01*
Y88030D01*
X446881D01*
Y93351D01*
D02*
G37*
G36*
X471605Y90227D02*
X470024D01*
Y87957D01*
X471605D01*
Y90227D01*
D02*
G37*
G36*
X469224D02*
X467643D01*
Y87957D01*
X469224D01*
Y90227D01*
D02*
G37*
G36*
X482136Y88474D02*
X479866D01*
Y86302D01*
X482136D01*
Y88474D01*
D02*
G37*
G36*
X462451D02*
X460181D01*
Y86302D01*
X462451D01*
Y88474D01*
D02*
G37*
G36*
X479066D02*
X476796D01*
Y86302D01*
X479066D01*
Y88474D01*
D02*
G37*
G36*
X459381D02*
X457111D01*
Y86302D01*
X459381D01*
Y88474D01*
D02*
G37*
G36*
X434499Y87253D02*
X432228D01*
Y85082D01*
X434499D01*
Y87253D01*
D02*
G37*
G36*
X431428D02*
X429158D01*
Y85082D01*
X431428D01*
Y87253D01*
D02*
G37*
G36*
X402720Y100810D02*
X397576D01*
Y95469D01*
X402720D01*
Y95469D01*
X402988Y95580D01*
X412810Y85758D01*
X407675Y80623D01*
X407388Y80193D01*
X407287Y79686D01*
Y55137D01*
X403116Y50965D01*
X402828Y50535D01*
X402727Y50028D01*
Y46484D01*
X401985Y46177D01*
X401129Y45519D01*
X400471Y44663D01*
X400058Y43666D01*
X399918Y42595D01*
X400058Y41525D01*
X400471Y40528D01*
X401129Y39671D01*
X401985Y39014D01*
X402983Y38601D01*
X404053Y38460D01*
X405123Y38601D01*
X406121Y39014D01*
X406977Y39671D01*
X407634Y40528D01*
X408047Y41525D01*
X408188Y42595D01*
X408047Y43666D01*
X407634Y44663D01*
X406977Y45519D01*
X406121Y46177D01*
X405378Y46484D01*
Y49479D01*
X409550Y53650D01*
X409837Y54080D01*
X409938Y54588D01*
Y79137D01*
X415260Y84459D01*
X419709D01*
Y83803D01*
X428396D01*
Y87765D01*
X419709D01*
Y87110D01*
X415207D01*
X403240Y99077D01*
X402810Y99364D01*
X402720Y99382D01*
Y100810D01*
D02*
G37*
G36*
X390632Y88477D02*
X385489D01*
Y83137D01*
X390632D01*
Y84459D01*
X391363D01*
Y83803D01*
X400050D01*
Y87765D01*
X391363D01*
Y87110D01*
X390632D01*
Y88477D01*
D02*
G37*
G36*
X482136Y85502D02*
X479866D01*
Y83331D01*
X482136D01*
Y85502D01*
D02*
G37*
G36*
X479066D02*
X476796D01*
Y83331D01*
X479066D01*
Y85502D01*
D02*
G37*
G36*
X462451D02*
X460181D01*
Y83331D01*
X462451D01*
Y85502D01*
D02*
G37*
G36*
X459381D02*
X457111D01*
Y83331D01*
X459381D01*
Y85502D01*
D02*
G37*
G36*
X383841Y94284D02*
X380076D01*
Y89141D01*
X380633D01*
Y88477D01*
X379387D01*
Y83137D01*
X384530D01*
Y88477D01*
X383284D01*
Y89141D01*
X383841D01*
Y94284D01*
D02*
G37*
G36*
X434499Y84282D02*
X432228D01*
Y82110D01*
X434499D01*
Y84282D01*
D02*
G37*
G36*
X431428D02*
X429158D01*
Y82110D01*
X431428D01*
Y84282D01*
D02*
G37*
G36*
X474084Y113801D02*
X473089Y113603D01*
X472246Y113039D01*
X471682Y112196D01*
X471484Y111201D01*
X471682Y110206D01*
X472045Y109663D01*
Y105591D01*
X472200Y104810D01*
X472642Y104149D01*
X486987Y89804D01*
Y83750D01*
X483305D01*
Y81839D01*
X482136D01*
Y82372D01*
X476796D01*
Y81839D01*
X475345D01*
Y82470D01*
X471383D01*
Y80092D01*
X471325Y79800D01*
X471383Y79508D01*
Y77130D01*
X475345D01*
Y77761D01*
X476796D01*
Y77228D01*
X482136D01*
Y77761D01*
X483305D01*
Y75850D01*
X494747D01*
Y83750D01*
X491065D01*
Y90649D01*
X491065Y90649D01*
X490910Y91429D01*
X490468Y92091D01*
X476123Y106435D01*
Y109663D01*
X476486Y110206D01*
X476684Y111201D01*
X476486Y112196D01*
X475923Y113039D01*
X475079Y113603D01*
X474084Y113801D01*
D02*
G37*
G36*
X508699Y83750D02*
X503377D01*
Y80200D01*
X508699D01*
Y83750D01*
D02*
G37*
G36*
X502577D02*
X497256D01*
Y80200D01*
X502577D01*
Y83750D01*
D02*
G37*
G36*
X400050Y82765D02*
X391363D01*
Y82110D01*
X374813D01*
X374306Y82009D01*
X373876Y81722D01*
X350517Y58363D01*
X350230Y57933D01*
X350129Y57425D01*
Y50589D01*
X349538Y50344D01*
X348744Y49735D01*
X348135Y48941D01*
X347752Y48016D01*
X347622Y47024D01*
X347752Y46032D01*
X348135Y45108D01*
X348744Y44314D01*
X349538Y43705D01*
X350462Y43322D01*
X351454Y43192D01*
X352446Y43322D01*
X353371Y43705D01*
X354165Y44314D01*
X354774Y45108D01*
X355157Y46032D01*
X355287Y47024D01*
X355157Y48016D01*
X354774Y48941D01*
X354165Y49735D01*
X353371Y50344D01*
X352780Y50589D01*
Y56876D01*
X375362Y79459D01*
X391363D01*
Y78803D01*
X400050D01*
Y82765D01*
D02*
G37*
G36*
X434499Y93356D02*
X429158D01*
Y92823D01*
X424053D01*
X423761Y92765D01*
X419709D01*
Y88803D01*
X423761D01*
X424053Y88745D01*
X429158D01*
Y88213D01*
X434346D01*
X443332Y79227D01*
Y74079D01*
X451231D01*
Y77761D01*
X457111D01*
Y77228D01*
X462451D01*
Y77761D01*
X463902D01*
Y77130D01*
X467865D01*
Y79508D01*
X467923Y79800D01*
X467865Y80092D01*
Y82470D01*
X463902D01*
Y81839D01*
X462451D01*
Y82372D01*
X457111D01*
Y81839D01*
X451231D01*
Y85521D01*
X443332D01*
Y85521D01*
X442959Y85367D01*
X436100Y92226D01*
X435439Y92668D01*
X434658Y92823D01*
X434499D01*
Y93356D01*
D02*
G37*
G36*
X400050Y77765D02*
X396106D01*
Y76184D01*
X400050D01*
Y77765D01*
D02*
G37*
G36*
X395306D02*
X391363D01*
Y76184D01*
X395306D01*
Y77765D01*
D02*
G37*
G36*
X508699Y79400D02*
X503377D01*
Y75850D01*
X508699D01*
Y79400D01*
D02*
G37*
G36*
X502577D02*
X497256D01*
Y75850D01*
X502577D01*
Y79400D01*
D02*
G37*
G36*
X400050Y75384D02*
X396106D01*
Y73803D01*
X400050D01*
Y75384D01*
D02*
G37*
G36*
X395306D02*
X391363D01*
Y73803D01*
X395306D01*
Y75384D01*
D02*
G37*
G36*
X428396Y82765D02*
X419709D01*
Y82529D01*
X419506Y82110D01*
X418998Y82009D01*
X418568Y81722D01*
X413116Y76269D01*
X412828Y75839D01*
X412727Y75332D01*
Y46484D01*
X411985Y46177D01*
X411129Y45519D01*
X410472Y44663D01*
X410058Y43666D01*
X409917Y42595D01*
X410058Y41525D01*
X410472Y40528D01*
X411129Y39671D01*
X411985Y39014D01*
X412983Y38601D01*
X414053Y38460D01*
X415123Y38601D01*
X416121Y39014D01*
X416977Y39671D01*
X417634Y40528D01*
X418047Y41525D01*
X418188Y42595D01*
X418047Y43666D01*
X417634Y44663D01*
X416977Y45519D01*
X416121Y46177D01*
X415378Y46484D01*
Y74783D01*
X419251Y78655D01*
X419710Y78803D01*
Y78803D01*
X419710Y78803D01*
X428396D01*
X428396Y78803D01*
Y78803D01*
X428396Y78803D01*
X428861Y78719D01*
X444744Y62836D01*
Y56690D01*
X450675D01*
Y65180D01*
X446149D01*
X430214Y81115D01*
X429784Y81402D01*
X429277Y81503D01*
X428396D01*
Y82765D01*
D02*
G37*
G36*
X462289Y65180D02*
X456358D01*
Y56690D01*
X462289D01*
Y59609D01*
X485022D01*
X492087Y52544D01*
Y48095D01*
X498411D01*
Y54419D01*
X493961D01*
X486508Y61872D01*
X486078Y62159D01*
X485571Y62260D01*
X462289D01*
Y65180D01*
D02*
G37*
G36*
X361854Y50805D02*
Y47424D01*
X365234D01*
X365157Y48016D01*
X364774Y48941D01*
X364165Y49735D01*
X363371Y50344D01*
X362446Y50727D01*
X361854Y50805D01*
D02*
G37*
G36*
X361054D02*
X360462Y50727D01*
X359538Y50344D01*
X358744Y49735D01*
X358135Y48941D01*
X357752Y48016D01*
X357674Y47424D01*
X361054D01*
Y50805D01*
D02*
G37*
G36*
X521139Y50509D02*
Y47129D01*
X524519D01*
X524441Y47721D01*
X524058Y48645D01*
X523449Y49439D01*
X522655Y50048D01*
X521731Y50431D01*
X521139Y50509D01*
D02*
G37*
G36*
X520339D02*
X519747Y50431D01*
X518822Y50048D01*
X518029Y49439D01*
X517419Y48645D01*
X517037Y47721D01*
X516959Y47129D01*
X520339D01*
Y50509D01*
D02*
G37*
G36*
X365234Y46624D02*
X361854D01*
Y43244D01*
X362446Y43322D01*
X363371Y43705D01*
X364165Y44314D01*
X364774Y45108D01*
X365157Y46032D01*
X365234Y46624D01*
D02*
G37*
G36*
X361054D02*
X357674D01*
X357752Y46032D01*
X358135Y45108D01*
X358744Y44314D01*
X359538Y43705D01*
X360462Y43322D01*
X361054Y43244D01*
Y46624D01*
D02*
G37*
G36*
X524519Y46329D02*
X521139D01*
Y42949D01*
X521731Y43027D01*
X522655Y43410D01*
X523449Y44019D01*
X524058Y44813D01*
X524441Y45737D01*
X524519Y46329D01*
D02*
G37*
G36*
X520339D02*
X516959D01*
X517037Y45737D01*
X517419Y44813D01*
X518029Y44019D01*
X518822Y43410D01*
X519747Y43027D01*
X520339Y42949D01*
Y46329D01*
D02*
G37*
G36*
X448252Y46580D02*
Y42897D01*
X451935D01*
X451847Y43567D01*
X451433Y44565D01*
X450776Y45421D01*
X449920Y46078D01*
X448922Y46491D01*
X448252Y46580D01*
D02*
G37*
G36*
X447452D02*
X446782Y46491D01*
X445784Y46078D01*
X444928Y45421D01*
X444271Y44565D01*
X443858Y43567D01*
X443769Y42897D01*
X447452D01*
Y46580D01*
D02*
G37*
G36*
X475249Y54446D02*
X474423Y54337D01*
X473654Y54019D01*
X472994Y53512D01*
X472487Y52851D01*
X472168Y52082D01*
X472059Y51257D01*
X472168Y50431D01*
X472487Y49662D01*
X472994Y49002D01*
X473654Y48495D01*
X474423Y48176D01*
X475249Y48067D01*
X476074Y48176D01*
X476343Y48288D01*
X482280Y42351D01*
X482168Y42082D01*
X482059Y41257D01*
X482168Y40431D01*
X482487Y39662D01*
X482994Y39002D01*
X483654Y38495D01*
X484423Y38176D01*
X485249Y38067D01*
X486074Y38176D01*
X486843Y38495D01*
X487504Y39002D01*
X488011Y39662D01*
X488122Y39931D01*
X505266D01*
X505773Y40032D01*
X506204Y40319D01*
X509156Y43272D01*
X509747Y43027D01*
X510739Y42896D01*
X511731Y43027D01*
X512655Y43410D01*
X513449Y44019D01*
X514058Y44813D01*
X514441Y45737D01*
X514572Y46729D01*
X514441Y47721D01*
X514058Y48645D01*
X513449Y49439D01*
X512655Y50048D01*
X511731Y50431D01*
X510739Y50562D01*
X509747Y50431D01*
X508822Y50048D01*
X508029Y49439D01*
X507419Y48645D01*
X507037Y47721D01*
X506906Y46729D01*
X507037Y45737D01*
X507281Y45146D01*
X504717Y42582D01*
X488122D01*
X488011Y42851D01*
X487504Y43512D01*
X486843Y44019D01*
X486074Y44337D01*
X485249Y44446D01*
X484423Y44337D01*
X484154Y44226D01*
X478218Y50162D01*
X478329Y50431D01*
X478438Y51257D01*
X478329Y52082D01*
X478011Y52851D01*
X477504Y53512D01*
X476843Y54019D01*
X476074Y54337D01*
X475249Y54446D01*
D02*
G37*
G36*
X400050Y92765D02*
X391363D01*
Y88803D01*
X400050D01*
X400050Y88803D01*
Y88803D01*
X400412Y88510D01*
X402169Y86753D01*
Y62518D01*
X393116Y53465D01*
X392828Y53035D01*
X392727Y52528D01*
Y46484D01*
X391985Y46177D01*
X391129Y45519D01*
X390472Y44663D01*
X390058Y43666D01*
X389917Y42595D01*
X390058Y41525D01*
X390472Y40528D01*
X391129Y39671D01*
X391985Y39014D01*
X392983Y38601D01*
X394053Y38460D01*
X395123Y38601D01*
X396121Y39014D01*
X396977Y39671D01*
X397634Y40528D01*
X398047Y41525D01*
X398188Y42595D01*
X398047Y43666D01*
X397634Y44663D01*
X396977Y45519D01*
X396121Y46177D01*
X395378Y46484D01*
Y51979D01*
X404432Y61032D01*
X404719Y61462D01*
X404820Y61969D01*
Y87302D01*
X404719Y87810D01*
X404432Y88240D01*
X400950Y91721D01*
X400520Y92009D01*
X400050Y92102D01*
Y92765D01*
D02*
G37*
G36*
X451935Y42097D02*
X448252D01*
Y38414D01*
X448922Y38502D01*
X449920Y38916D01*
X450776Y39573D01*
X451433Y40429D01*
X451847Y41427D01*
X451935Y42097D01*
D02*
G37*
G36*
X447452D02*
X443769D01*
X443858Y41427D01*
X444271Y40429D01*
X444928Y39573D01*
X445784Y38916D01*
X446782Y38502D01*
X447452Y38414D01*
Y42097D01*
D02*
G37*
G36*
X428396Y77765D02*
X419709D01*
Y73803D01*
X422727D01*
Y46484D01*
X421985Y46177D01*
X421129Y45519D01*
X420472Y44663D01*
X420058Y43666D01*
X419917Y42595D01*
X420058Y41525D01*
X420472Y40528D01*
X421129Y39671D01*
X421985Y39014D01*
X422983Y38601D01*
X424053Y38460D01*
X425123Y38601D01*
X426121Y39014D01*
X426977Y39671D01*
X427634Y40528D01*
X427901Y41171D01*
X433963D01*
X434271Y40429D01*
X434928Y39573D01*
X435784Y38916D01*
X436782Y38502D01*
X437852Y38361D01*
X438922Y38502D01*
X439920Y38916D01*
X440776Y39573D01*
X441433Y40429D01*
X441847Y41427D01*
X441987Y42497D01*
X441847Y43567D01*
X441433Y44565D01*
X440776Y45421D01*
X439920Y46078D01*
X438922Y46491D01*
X437852Y46632D01*
X436782Y46491D01*
X435784Y46078D01*
X434928Y45421D01*
X434271Y44565D01*
X433963Y43822D01*
X427982D01*
X427634Y44663D01*
X426977Y45519D01*
X426121Y46177D01*
X425378Y46484D01*
Y73803D01*
X428396D01*
Y77765D01*
D02*
G37*
G36*
X180602Y350020D02*
Y345496D01*
X185126D01*
X185010Y346384D01*
X184512Y347584D01*
X183721Y348615D01*
X182691Y349406D01*
X181491Y349903D01*
X180602Y350020D01*
D02*
G37*
G36*
X71376D02*
Y345496D01*
X75900D01*
X75783Y346384D01*
X75286Y347584D01*
X74495Y348615D01*
X73464Y349406D01*
X72264Y349903D01*
X71376Y350020D01*
D02*
G37*
G36*
X179802D02*
X178914Y349903D01*
X177714Y349406D01*
X176683Y348615D01*
X175893Y347584D01*
X175395Y346384D01*
X175278Y345496D01*
X179802D01*
Y350020D01*
D02*
G37*
G36*
X185126Y344696D02*
X180602D01*
Y340172D01*
X181491Y340289D01*
X182691Y340786D01*
X183721Y341577D01*
X184512Y342608D01*
X185010Y343808D01*
X185126Y344696D01*
D02*
G37*
G36*
X75900D02*
X71376D01*
Y340172D01*
X72264Y340289D01*
X73464Y340786D01*
X74495Y341577D01*
X75286Y342608D01*
X75783Y343808D01*
X75900Y344696D01*
D02*
G37*
G36*
X179802D02*
X175278D01*
X175395Y343808D01*
X175893Y342608D01*
X176683Y341577D01*
X177714Y340786D01*
X178914Y340289D01*
X179802Y340172D01*
Y344696D01*
D02*
G37*
G36*
X134874Y350073D02*
X133586Y349903D01*
X132386Y349406D01*
X131355Y348615D01*
X130564Y347584D01*
X130067Y346384D01*
X129897Y345096D01*
X130067Y343808D01*
X130564Y342608D01*
X131355Y341577D01*
X132386Y340786D01*
X133586Y340289D01*
X134874Y340120D01*
X136162Y340289D01*
X137362Y340786D01*
X138393Y341577D01*
X139184Y342608D01*
X139681Y343808D01*
X139850Y345096D01*
X139681Y346384D01*
X139184Y347584D01*
X138393Y348615D01*
X137362Y349406D01*
X136162Y349903D01*
X134874Y350073D01*
D02*
G37*
G36*
X244100Y325073D02*
X242812Y324903D01*
X241612Y324406D01*
X240581Y323615D01*
X239791Y322584D01*
X239293Y321384D01*
X239124Y320096D01*
X239293Y318808D01*
X239791Y317608D01*
X240581Y316577D01*
X241612Y315786D01*
X242812Y315289D01*
X244100Y315120D01*
X245389Y315289D01*
X246589Y315786D01*
X247619Y316577D01*
X248410Y317608D01*
X248907Y318808D01*
X249077Y320096D01*
X248907Y321384D01*
X248410Y322584D01*
X247619Y323615D01*
X246589Y324406D01*
X245389Y324903D01*
X244100Y325073D01*
D02*
G37*
G36*
X180202D02*
X178914Y324903D01*
X177714Y324406D01*
X176683Y323615D01*
X175893Y322584D01*
X175395Y321384D01*
X175226Y320096D01*
X175395Y318808D01*
X175893Y317608D01*
X176683Y316577D01*
X177714Y315786D01*
X178914Y315289D01*
X180202Y315120D01*
X181491Y315289D01*
X182691Y315786D01*
X183721Y316577D01*
X184512Y317608D01*
X185010Y318808D01*
X185179Y320096D01*
X185010Y321384D01*
X184512Y322584D01*
X183721Y323615D01*
X182691Y324406D01*
X181491Y324903D01*
X180202Y325073D01*
D02*
G37*
G36*
X134874D02*
X133586Y324903D01*
X132386Y324406D01*
X131355Y323615D01*
X130564Y322584D01*
X130067Y321384D01*
X129897Y320096D01*
X130067Y318808D01*
X130564Y317608D01*
X131355Y316577D01*
X132386Y315786D01*
X133586Y315289D01*
X134874Y315120D01*
X136162Y315289D01*
X137362Y315786D01*
X138393Y316577D01*
X139184Y317608D01*
X139681Y318808D01*
X139850Y320096D01*
X139681Y321384D01*
X139184Y322584D01*
X138393Y323615D01*
X137362Y324406D01*
X136162Y324903D01*
X134874Y325073D01*
D02*
G37*
G36*
X70976D02*
X69688Y324903D01*
X68488Y324406D01*
X67457Y323615D01*
X66666Y322584D01*
X66169Y321384D01*
X65999Y320096D01*
X66169Y318808D01*
X66666Y317608D01*
X67457Y316577D01*
X68488Y315786D01*
X69688Y315289D01*
X70976Y315120D01*
X72264Y315289D01*
X73464Y315786D01*
X74495Y316577D01*
X75286Y317608D01*
X75783Y318808D01*
X75953Y320096D01*
X75783Y321384D01*
X75286Y322584D01*
X74495Y323615D01*
X73464Y324406D01*
X72264Y324903D01*
X70976Y325073D01*
D02*
G37*
G36*
X153749Y292967D02*
Y290550D01*
X156165D01*
X155868Y291267D01*
X155259Y292061D01*
X154465Y292670D01*
X153749Y292967D01*
D02*
G37*
G36*
X151349Y292967D02*
X150632Y292670D01*
X149839Y292061D01*
X149230Y291267D01*
X148933Y290550D01*
X151349D01*
Y292967D01*
D02*
G37*
G36*
X244100Y300073D02*
X242812Y299903D01*
X241612Y299406D01*
X240581Y298615D01*
X239791Y297584D01*
X239293Y296384D01*
X239124Y295096D01*
X239293Y293808D01*
X239791Y292608D01*
X240581Y291577D01*
X241612Y290786D01*
X242812Y290289D01*
X244100Y290120D01*
X245389Y290289D01*
X246589Y290786D01*
X247619Y291577D01*
X248410Y292608D01*
X248907Y293808D01*
X249077Y295096D01*
X248907Y296384D01*
X248410Y297584D01*
X247619Y298615D01*
X246589Y299406D01*
X245389Y299903D01*
X244100Y300073D01*
D02*
G37*
G36*
X180202D02*
X178914Y299903D01*
X177714Y299406D01*
X176683Y298615D01*
X175893Y297584D01*
X175395Y296384D01*
X175226Y295096D01*
X175395Y293808D01*
X175893Y292608D01*
X176683Y291577D01*
X177714Y290786D01*
X178914Y290289D01*
X180202Y290120D01*
X181491Y290289D01*
X182691Y290786D01*
X183721Y291577D01*
X184512Y292608D01*
X185010Y293808D01*
X185179Y295096D01*
X185010Y296384D01*
X184512Y297584D01*
X183721Y298615D01*
X182691Y299406D01*
X181491Y299903D01*
X180202Y300073D01*
D02*
G37*
G36*
X134874D02*
X133586Y299903D01*
X132386Y299406D01*
X131355Y298615D01*
X130564Y297584D01*
X130067Y296384D01*
X129897Y295096D01*
X130067Y293808D01*
X130564Y292608D01*
X131355Y291577D01*
X132386Y290786D01*
X133586Y290289D01*
X134874Y290120D01*
X136162Y290289D01*
X137362Y290786D01*
X138393Y291577D01*
X139184Y292608D01*
X139681Y293808D01*
X139850Y295096D01*
X139681Y296384D01*
X139184Y297584D01*
X138393Y298615D01*
X137362Y299406D01*
X136162Y299903D01*
X134874Y300073D01*
D02*
G37*
G36*
X70976D02*
X69688Y299903D01*
X68488Y299406D01*
X67457Y298615D01*
X66666Y297584D01*
X66169Y296384D01*
X65999Y295096D01*
X66169Y293808D01*
X66666Y292608D01*
X67457Y291577D01*
X68488Y290786D01*
X69688Y290289D01*
X70976Y290120D01*
X72264Y290289D01*
X73464Y290786D01*
X74495Y291577D01*
X75286Y292608D01*
X75783Y293808D01*
X75953Y295096D01*
X75783Y296384D01*
X75286Y297584D01*
X74495Y298615D01*
X73464Y299406D01*
X72264Y299903D01*
X70976Y300073D01*
D02*
G37*
G36*
X151349Y288150D02*
X148933D01*
X149230Y287434D01*
X149839Y286640D01*
X150632Y286031D01*
X151349Y285734D01*
Y288150D01*
D02*
G37*
G36*
X156165D02*
X153749D01*
Y285734D01*
X154465Y286031D01*
X155259Y286640D01*
X155868Y287434D01*
X156165Y288150D01*
D02*
G37*
G36*
X162844Y277256D02*
X161994Y277087D01*
X161274Y276606D01*
X160793Y275885D01*
X160624Y275035D01*
X160681Y274747D01*
X158069Y272135D01*
X151064D01*
Y267385D01*
X159750D01*
Y270067D01*
X162555Y272872D01*
X162844Y272815D01*
X163694Y272984D01*
X164414Y273465D01*
X164896Y274186D01*
X165065Y275035D01*
X164896Y275885D01*
X164414Y276606D01*
X163694Y277087D01*
X162844Y277256D01*
D02*
G37*
G36*
X132191Y272135D02*
X123505D01*
Y270987D01*
X71501D01*
X70994Y270886D01*
X70564Y270599D01*
X55411Y255445D01*
X55123Y255015D01*
X55023Y254508D01*
Y230013D01*
X53678D01*
Y224869D01*
X59018D01*
Y226115D01*
X59682D01*
Y224673D01*
X66794D01*
Y230209D01*
X59682D01*
Y228766D01*
X59018D01*
Y230013D01*
X57674D01*
Y253959D01*
X72051Y268336D01*
X123505D01*
Y267385D01*
X132191D01*
Y272135D01*
D02*
G37*
G36*
X177404Y267863D02*
X175823D01*
Y264313D01*
X177404D01*
Y267863D01*
D02*
G37*
G36*
X175023D02*
X173442D01*
Y264313D01*
X175023D01*
Y267863D01*
D02*
G37*
G36*
X168356Y282289D02*
X167506Y282120D01*
X166786Y281639D01*
X166304Y280918D01*
X166135Y280068D01*
X166304Y279219D01*
X166786Y278498D01*
X167030Y278335D01*
Y269364D01*
X165529Y267863D01*
X163442D01*
Y263807D01*
X161374Y261739D01*
X159750D01*
Y262135D01*
X151064D01*
Y257385D01*
X159750D01*
Y259088D01*
X161923D01*
X162430Y259189D01*
X162860Y259476D01*
X163071Y259687D01*
X163442Y259964D01*
Y259964D01*
X163442Y259964D01*
X167404D01*
Y265988D01*
X169293Y267878D01*
X169580Y268308D01*
X169681Y268815D01*
Y278335D01*
X169926Y278498D01*
X170407Y279219D01*
X170577Y280068D01*
X170407Y280918D01*
X169926Y281639D01*
X169206Y282120D01*
X168356Y282289D01*
D02*
G37*
G36*
X177404Y263513D02*
X175823D01*
Y259964D01*
X177404D01*
Y263513D01*
D02*
G37*
G36*
X175023D02*
X173442D01*
Y259964D01*
X175023D01*
Y263513D01*
D02*
G37*
G36*
X198585Y264221D02*
X194937D01*
Y258900D01*
X198585D01*
Y264221D01*
D02*
G37*
G36*
X194137D02*
X190489D01*
Y258900D01*
X194137D01*
Y264221D01*
D02*
G37*
G36*
X102017Y266325D02*
X101168Y266156D01*
X100447Y265674D01*
X99966Y264954D01*
X99797Y264104D01*
X99966Y263254D01*
X100447Y262534D01*
X101168Y262052D01*
X102017Y261883D01*
X102265Y261933D01*
X105375Y258823D01*
X105805Y258535D01*
X106312Y258434D01*
X123505D01*
Y257385D01*
X132191D01*
Y262135D01*
X123505D01*
Y261085D01*
X106861D01*
X104172Y263774D01*
X104238Y264104D01*
X104069Y264954D01*
X103587Y265674D01*
X102867Y266156D01*
X102017Y266325D01*
D02*
G37*
G36*
X198585Y258100D02*
X194937D01*
Y252779D01*
X198585D01*
Y258100D01*
D02*
G37*
G36*
X194137D02*
X190489D01*
Y252779D01*
X194137D01*
Y258100D01*
D02*
G37*
G36*
X159750Y252135D02*
X151064D01*
Y250987D01*
X132191D01*
Y252135D01*
X123505D01*
Y247385D01*
X132191D01*
Y248336D01*
X151064D01*
Y247385D01*
X159750D01*
Y252135D01*
D02*
G37*
G36*
X84814Y252903D02*
X83681Y252753D01*
X82624Y252316D01*
X81717Y251619D01*
X81020Y250712D01*
X80662Y249847D01*
X68967D01*
X68608Y250712D01*
X67912Y251619D01*
X67005Y252316D01*
X65948Y252753D01*
X64814Y252903D01*
X63681Y252753D01*
X62624Y252316D01*
X61717Y251619D01*
X61020Y250712D01*
X60583Y249656D01*
X60434Y248522D01*
X60583Y247388D01*
X61020Y246331D01*
X61717Y245424D01*
X62624Y244728D01*
X63681Y244290D01*
X64814Y244141D01*
X65948Y244290D01*
X67005Y244728D01*
X67912Y245424D01*
X68608Y246331D01*
X68967Y247196D01*
X80662D01*
X81020Y246331D01*
X81717Y245424D01*
X82624Y244728D01*
X83681Y244290D01*
X84814Y244141D01*
X85948Y244290D01*
X87005Y244728D01*
X87912Y245424D01*
X88608Y246331D01*
X89046Y247388D01*
X89195Y248522D01*
X89046Y249656D01*
X88608Y250712D01*
X87912Y251619D01*
X87005Y252316D01*
X85948Y252753D01*
X84814Y252903D01*
D02*
G37*
G36*
X250689Y252824D02*
Y248896D01*
X254617D01*
X254521Y249630D01*
X254083Y250687D01*
X253387Y251594D01*
X252479Y252290D01*
X251423Y252728D01*
X250689Y252824D01*
D02*
G37*
G36*
X249889D02*
X249155Y252728D01*
X248098Y252290D01*
X247191Y251594D01*
X246495Y250687D01*
X246057Y249630D01*
X245961Y248896D01*
X249889D01*
Y252824D01*
D02*
G37*
G36*
X254617Y248096D02*
X250689D01*
Y244168D01*
X251423Y244264D01*
X252479Y244702D01*
X253387Y245398D01*
X254083Y246306D01*
X254521Y247362D01*
X254617Y248096D01*
D02*
G37*
G36*
X249889D02*
X245961D01*
X246057Y247362D01*
X246495Y246306D01*
X247191Y245398D01*
X248098Y244702D01*
X249155Y244264D01*
X249889Y244168D01*
Y248096D01*
D02*
G37*
G36*
X104815Y252903D02*
X103681Y252753D01*
X102624Y252316D01*
X101717Y251619D01*
X101020Y250712D01*
X100583Y249656D01*
X100434Y248522D01*
X100583Y247388D01*
X101020Y246331D01*
X101717Y245424D01*
X102624Y244728D01*
X103681Y244290D01*
X104815Y244141D01*
X105948Y244290D01*
X107005Y244728D01*
X107912Y245424D01*
X108608Y246331D01*
X109046Y247388D01*
X109195Y248522D01*
X109046Y249656D01*
X108608Y250712D01*
X107912Y251619D01*
X107005Y252316D01*
X105948Y252753D01*
X104815Y252903D01*
D02*
G37*
G36*
X190895Y277256D02*
X190045Y277087D01*
X189325Y276606D01*
X188844Y275885D01*
X188675Y275035D01*
X188844Y274186D01*
X189325Y273465D01*
X190045Y272984D01*
X190895Y272815D01*
X191745Y272984D01*
X192465Y273465D01*
X192629Y273710D01*
X203201D01*
X226415Y250495D01*
X226057Y249630D01*
X225908Y248496D01*
X226057Y247362D01*
X226495Y246306D01*
X227191Y245398D01*
X228099Y244702D01*
X229155Y244264D01*
X230289Y244115D01*
X231423Y244264D01*
X232479Y244702D01*
X233387Y245398D01*
X234083Y246306D01*
X234521Y247362D01*
X234670Y248496D01*
X234521Y249630D01*
X234083Y250687D01*
X233387Y251594D01*
X232479Y252290D01*
X231423Y252728D01*
X230289Y252877D01*
X229155Y252728D01*
X228290Y252369D01*
X204687Y275973D01*
X204257Y276260D01*
X203750Y276361D01*
X192629D01*
X192465Y276606D01*
X191745Y277087D01*
X190895Y277256D01*
D02*
G37*
G36*
X177404Y242272D02*
X175823D01*
Y238723D01*
X177404D01*
Y242272D01*
D02*
G37*
G36*
X175023D02*
X173442D01*
Y238723D01*
X175023D01*
Y242272D01*
D02*
G37*
G36*
X177404Y237923D02*
X175823D01*
Y234373D01*
X177404D01*
Y237923D01*
D02*
G37*
G36*
X175023D02*
X173442D01*
Y234373D01*
X175023D01*
Y237923D01*
D02*
G37*
G36*
X161111Y245849D02*
X146954D01*
X146447Y245748D01*
X146017Y245461D01*
X141476Y240920D01*
X141188Y240978D01*
X140338Y240809D01*
X139618Y240327D01*
X139136Y239607D01*
X138967Y238757D01*
X139136Y237907D01*
X139618Y237187D01*
X140338Y236705D01*
X141188Y236536D01*
X142037Y236705D01*
X142758Y237187D01*
X143239Y237907D01*
X143408Y238757D01*
X143351Y239046D01*
X147503Y243198D01*
X160562D01*
X163442Y240319D01*
Y234373D01*
X167404D01*
Y242272D01*
X165237D01*
X162049Y245461D01*
X161618Y245748D01*
X161111Y245849D01*
D02*
G37*
G36*
X167286Y233513D02*
X165705D01*
Y231242D01*
X167286D01*
Y233513D01*
D02*
G37*
G36*
X164905D02*
X163324D01*
Y231242D01*
X164905D01*
Y233513D01*
D02*
G37*
G36*
X132191Y242135D02*
X123505D01*
Y237385D01*
X126523D01*
Y233500D01*
X126623Y232993D01*
X126911Y232563D01*
X128933Y230541D01*
X128875Y230252D01*
X129044Y229402D01*
X129526Y228682D01*
X130246Y228200D01*
X131096Y228031D01*
X131946Y228200D01*
X132666Y228682D01*
X132830Y228926D01*
X144032D01*
Y228665D01*
X148782D01*
Y231839D01*
X144032D01*
Y231577D01*
X132830D01*
X132666Y231822D01*
X131946Y232304D01*
X131096Y232473D01*
X130807Y232415D01*
X129174Y234049D01*
Y237385D01*
X132191D01*
Y242135D01*
D02*
G37*
G36*
X167286Y230443D02*
X165705D01*
Y228172D01*
X167286D01*
Y230443D01*
D02*
G37*
G36*
X164905D02*
X163324D01*
Y228172D01*
X164905D01*
Y230443D01*
D02*
G37*
G36*
X93533Y239363D02*
X88390D01*
Y234023D01*
X92717D01*
X94984Y231756D01*
Y227995D01*
X102293D01*
Y231958D01*
X98532D01*
X93533Y236956D01*
Y239363D01*
D02*
G37*
G36*
X87431D02*
X82287D01*
Y236956D01*
X77288Y231958D01*
X73527D01*
Y227995D01*
X80836D01*
Y231756D01*
X83103Y234023D01*
X87431D01*
Y239363D01*
D02*
G37*
G36*
X177896Y228690D02*
X175626D01*
Y226518D01*
X177896D01*
Y228690D01*
D02*
G37*
G36*
X174826D02*
X172556D01*
Y226518D01*
X174826D01*
Y228690D01*
D02*
G37*
G36*
X72798Y228635D02*
X70527D01*
Y226463D01*
X72798D01*
Y228635D01*
D02*
G37*
G36*
X69727D02*
X67457D01*
Y226463D01*
X69727D01*
Y228635D01*
D02*
G37*
G36*
X84793Y227197D02*
X83943Y227028D01*
X83223Y226547D01*
X83059Y226302D01*
X80836D01*
Y226958D01*
X73527D01*
Y222995D01*
X80836D01*
Y223651D01*
X83059D01*
X83223Y223406D01*
X83467Y223243D01*
Y211017D01*
X82221D01*
Y207543D01*
X76769Y202091D01*
X76482Y201660D01*
X76381Y201153D01*
Y181883D01*
X75036D01*
Y176739D01*
X80376D01*
Y177986D01*
X81138D01*
Y176739D01*
X86479D01*
Y181883D01*
X81138D01*
Y180637D01*
X80376D01*
Y181883D01*
X79032D01*
Y200604D01*
X84104Y205676D01*
X87365D01*
Y211017D01*
X86118D01*
Y223243D01*
X86363Y223406D01*
X86844Y224127D01*
X87014Y224976D01*
X86844Y225826D01*
X86363Y226547D01*
X85643Y227028D01*
X84793Y227197D01*
D02*
G37*
G36*
X177896Y225718D02*
X175626D01*
Y223547D01*
X177896D01*
Y225718D01*
D02*
G37*
G36*
X174826D02*
X172556D01*
Y223547D01*
X174826D01*
Y225718D01*
D02*
G37*
G36*
X72798Y225663D02*
X70527D01*
Y223491D01*
X72798D01*
Y225663D01*
D02*
G37*
G36*
X69727D02*
X67457D01*
Y223491D01*
X69727D01*
Y225663D01*
D02*
G37*
G36*
X162549Y293183D02*
X161557Y293053D01*
X160632Y292670D01*
X159839Y292061D01*
X159230Y291267D01*
X158847Y290342D01*
X158716Y289350D01*
X158847Y288358D01*
X159230Y287434D01*
X159839Y286640D01*
X160632Y286031D01*
X161557Y285648D01*
X162549Y285518D01*
X163541Y285648D01*
X164465Y286031D01*
X165259Y286640D01*
X165774Y287311D01*
X168747D01*
X181868Y274191D01*
Y254366D01*
X182023Y253586D01*
X182465Y252924D01*
X190489Y244900D01*
Y238015D01*
X197374D01*
X199992Y235397D01*
Y224009D01*
X194932D01*
Y222098D01*
X192680D01*
Y222926D01*
X184190D01*
Y222055D01*
X177896D01*
Y222587D01*
X172556D01*
Y222055D01*
X171026D01*
Y222686D01*
X167064D01*
Y220308D01*
X167006Y220016D01*
X167064Y219724D01*
Y217346D01*
X171026D01*
Y217977D01*
X172556D01*
Y217444D01*
X177896D01*
Y217977D01*
X184190D01*
Y216995D01*
X192680D01*
Y218020D01*
X194932D01*
Y216109D01*
X199992D01*
Y207790D01*
X199714Y207373D01*
X199516Y206378D01*
X199714Y205383D01*
X200277Y204539D01*
X201121Y203976D01*
X202116Y203778D01*
X203111Y203976D01*
X203954Y204539D01*
X204518Y205383D01*
X204716Y206378D01*
X204518Y207373D01*
X204071Y208042D01*
Y216109D01*
X209131D01*
Y224009D01*
X204071D01*
Y236242D01*
X204071Y236242D01*
X203915Y237022D01*
X203473Y237684D01*
X203473Y237684D01*
X198585Y242572D01*
Y249458D01*
X191700D01*
X185946Y255211D01*
Y275036D01*
X185791Y275816D01*
X185349Y276477D01*
X185349Y276477D01*
X171034Y290792D01*
X170372Y291234D01*
X169592Y291390D01*
X165774D01*
X165259Y292061D01*
X164465Y292670D01*
X163541Y293053D01*
X162549Y293183D01*
D02*
G37*
G36*
X59018Y223910D02*
X56748D01*
Y221739D01*
X59018D01*
Y223910D01*
D02*
G37*
G36*
X55948D02*
X53678D01*
Y221739D01*
X55948D01*
Y223910D01*
D02*
G37*
G36*
X228984Y224009D02*
X222285D01*
Y220459D01*
X228984D01*
Y224009D01*
D02*
G37*
G36*
X221485D02*
X214786D01*
Y220459D01*
X221485D01*
Y224009D01*
D02*
G37*
G36*
X151932Y222686D02*
X149760D01*
Y220416D01*
X151932D01*
Y222686D01*
D02*
G37*
G36*
X148960D02*
X146788D01*
Y220416D01*
X148960D01*
Y222686D01*
D02*
G37*
G36*
X108329Y221450D02*
X106059D01*
Y219278D01*
X108329D01*
Y221450D01*
D02*
G37*
G36*
X105259D02*
X102989D01*
Y219278D01*
X105259D01*
Y221450D01*
D02*
G37*
G36*
X59018Y220939D02*
X56748D01*
Y218767D01*
X59018D01*
Y220939D01*
D02*
G37*
G36*
X55948D02*
X53678D01*
Y218767D01*
X55948D01*
Y220939D01*
D02*
G37*
G36*
X90895Y222197D02*
X90045Y222028D01*
X89325Y221547D01*
X88844Y220826D01*
X88675Y219976D01*
X88844Y219127D01*
X89325Y218406D01*
X89570Y218243D01*
Y211017D01*
X88324D01*
Y205676D01*
X91691D01*
X92030Y205337D01*
Y158642D01*
X92131Y158134D01*
X92419Y157704D01*
X126080Y124043D01*
X126510Y123756D01*
X127017Y123655D01*
X132713D01*
Y122310D01*
X137857D01*
Y127650D01*
X132713D01*
Y126306D01*
X127566D01*
X94681Y159191D01*
Y205886D01*
X94580Y206393D01*
X94293Y206823D01*
X93467Y207649D01*
Y211017D01*
X92221D01*
Y218243D01*
X92465Y218406D01*
X92629Y218651D01*
X94984D01*
Y217995D01*
X102293D01*
Y221957D01*
X94984D01*
Y221302D01*
X92629D01*
X92465Y221547D01*
X91745Y222028D01*
X90895Y222197D01*
D02*
G37*
G36*
X72798Y222532D02*
X67457D01*
Y217389D01*
X68802D01*
Y216528D01*
X66768D01*
Y211188D01*
X71912D01*
Y216528D01*
X71453D01*
Y217389D01*
X72798D01*
Y218635D01*
X73527D01*
Y217995D01*
X80836D01*
Y221957D01*
X73527D01*
Y221286D01*
X72798D01*
Y222532D01*
D02*
G37*
G36*
X151932Y219616D02*
X149760D01*
Y217346D01*
X151932D01*
Y219616D01*
D02*
G37*
G36*
X148960D02*
X146788D01*
Y217346D01*
X148960D01*
Y219616D01*
D02*
G37*
G36*
X159750Y242135D02*
X151064D01*
Y237385D01*
X153368D01*
Y231839D01*
X153087D01*
Y228665D01*
X153423D01*
Y222686D01*
X152891D01*
Y217346D01*
X158034D01*
Y217977D01*
X159583D01*
Y217346D01*
X163546D01*
Y219724D01*
X163604Y220016D01*
X163546Y220308D01*
Y222686D01*
X159583D01*
Y222055D01*
X158034D01*
Y222686D01*
X157501D01*
Y228665D01*
X157837D01*
Y231839D01*
X157446D01*
Y237385D01*
X159750D01*
Y242135D01*
D02*
G37*
G36*
X108329Y218478D02*
X106059D01*
Y216306D01*
X108329D01*
Y218478D01*
D02*
G37*
G36*
X105259D02*
X102989D01*
Y216306D01*
X105259D01*
Y218478D01*
D02*
G37*
G36*
X228984Y219659D02*
X222285D01*
Y216109D01*
X228984D01*
Y219659D01*
D02*
G37*
G36*
X221485D02*
X214786D01*
Y216109D01*
X221485D01*
Y219659D01*
D02*
G37*
G36*
X80836Y216957D02*
X77582D01*
Y215376D01*
X80836D01*
Y216957D01*
D02*
G37*
G36*
X76782D02*
X73527D01*
Y215376D01*
X76782D01*
Y216957D01*
D02*
G37*
G36*
X102293D02*
X94984D01*
Y212995D01*
X102293D01*
Y216957D01*
D02*
G37*
G36*
X80836Y214576D02*
X77582D01*
Y212995D01*
X80836D01*
Y214576D01*
D02*
G37*
G36*
X76782D02*
X73527D01*
Y212995D01*
X76782D01*
Y214576D01*
D02*
G37*
G36*
X66794Y222926D02*
X59682D01*
Y217389D01*
X61912D01*
Y216528D01*
X60666D01*
Y211188D01*
X61912D01*
Y210328D01*
X60666D01*
Y204987D01*
X65809D01*
Y210328D01*
X64563D01*
Y211188D01*
X65809D01*
Y216528D01*
X64563D01*
Y217389D01*
X66794D01*
Y222926D01*
D02*
G37*
G36*
X110691Y212591D02*
X104761D01*
Y204102D01*
X105687D01*
Y203339D01*
X104761D01*
Y201134D01*
X102670D01*
X102127Y201497D01*
X101131Y201694D01*
X100136Y201497D01*
X99293Y200933D01*
X98729Y200090D01*
X98532Y199095D01*
X98729Y198100D01*
X99293Y197256D01*
X100136Y196693D01*
X101131Y196495D01*
X102127Y196693D01*
X102670Y197055D01*
X104761D01*
Y194850D01*
X105687D01*
Y193595D01*
X103776D01*
Y179397D01*
X111676D01*
Y193595D01*
X109765D01*
Y194850D01*
X110691D01*
Y203339D01*
X109765D01*
Y204102D01*
X110691D01*
Y212591D01*
D02*
G37*
G36*
X122306Y203339D02*
X119740D01*
Y199495D01*
X122306D01*
Y203339D01*
D02*
G37*
G36*
X118940D02*
X116375D01*
Y199495D01*
X118940D01*
Y203339D01*
D02*
G37*
G36*
X71912Y210328D02*
X66768D01*
Y204987D01*
X67301D01*
Y203192D01*
X66938Y202648D01*
X66740Y201654D01*
X66938Y200659D01*
X67502Y199815D01*
X68345Y199251D01*
X69340Y199054D01*
X70335Y199251D01*
X71179Y199815D01*
X71742Y200659D01*
X71940Y201654D01*
X71742Y202648D01*
X71379Y203192D01*
Y204987D01*
X71912D01*
Y210328D01*
D02*
G37*
G36*
X122306Y198695D02*
X119740D01*
Y194850D01*
X122306D01*
Y198695D01*
D02*
G37*
G36*
X118940D02*
X116375D01*
Y194850D01*
X118940D01*
Y198695D01*
D02*
G37*
G36*
X229083Y196745D02*
X222383D01*
Y193195D01*
X229083D01*
Y196745D01*
D02*
G37*
G36*
X221583D02*
X214884D01*
Y193195D01*
X221583D01*
Y196745D01*
D02*
G37*
G36*
X210289Y252877D02*
X209155Y252728D01*
X208099Y252290D01*
X207191Y251594D01*
X206495Y250687D01*
X206057Y249630D01*
X205908Y248496D01*
X206057Y247362D01*
X206495Y246306D01*
X207191Y245398D01*
X208099Y244702D01*
X209155Y244264D01*
X210289Y244115D01*
X211423Y244264D01*
X212288Y244623D01*
X242719Y214191D01*
Y202527D01*
X240095D01*
Y191084D01*
X247994D01*
Y202527D01*
X245370D01*
Y214740D01*
X245269Y215247D01*
X244982Y215677D01*
X214162Y246497D01*
X214521Y247362D01*
X214670Y248496D01*
X214521Y249630D01*
X214083Y250687D01*
X213387Y251594D01*
X212479Y252290D01*
X211423Y252728D01*
X210289Y252877D01*
D02*
G37*
G36*
X66203Y196437D02*
X62653D01*
Y190525D01*
X66203D01*
Y196437D01*
D02*
G37*
G36*
X61853D02*
X58304D01*
Y190525D01*
X61853D01*
Y196437D01*
D02*
G37*
G36*
X229083Y192395D02*
X222383D01*
Y188846D01*
X229083D01*
Y192395D01*
D02*
G37*
G36*
X221583D02*
X214884D01*
Y188846D01*
X221583D01*
Y192395D01*
D02*
G37*
G36*
X157489Y197171D02*
X156150Y196995D01*
X154902Y196478D01*
X153830Y195655D01*
X153007Y194584D01*
X152490Y193335D01*
X152314Y191996D01*
X152490Y190657D01*
X153007Y189409D01*
X153016Y189398D01*
X150588Y186970D01*
X150301Y186540D01*
X150200Y186032D01*
Y157643D01*
X149533Y157367D01*
X148708Y156734D01*
X148075Y155909D01*
X147677Y154948D01*
X147542Y153917D01*
X147677Y152886D01*
X148075Y151926D01*
X148708Y151101D01*
X149533Y150468D01*
X150494Y150069D01*
X151525Y149934D01*
X152556Y150069D01*
X153223Y150346D01*
X156986Y146582D01*
X157416Y146295D01*
X157923Y146194D01*
X164067D01*
X168101Y142160D01*
Y128930D01*
X163114D01*
Y121031D01*
X175738D01*
Y123655D01*
X182650D01*
X182893Y123068D01*
X183494Y122284D01*
X184278Y121682D01*
X185191Y121304D01*
X186171Y121175D01*
X187151Y121304D01*
X188064Y121682D01*
X188847Y122284D01*
X189449Y123068D01*
X189684Y123635D01*
X192826D01*
X197482Y118980D01*
X197912Y118693D01*
X198419Y118592D01*
X241210D01*
X241718Y118693D01*
X242147Y118980D01*
X248290Y125123D01*
X249155Y124764D01*
X250289Y124615D01*
X251423Y124764D01*
X252479Y125202D01*
X253387Y125898D01*
X254083Y126806D01*
X254521Y127862D01*
X254670Y128996D01*
X254521Y130130D01*
X254083Y131187D01*
X253387Y132094D01*
X252479Y132790D01*
X251423Y133228D01*
X250289Y133377D01*
X249155Y133228D01*
X248098Y132790D01*
X247191Y132094D01*
X246495Y131187D01*
X246057Y130130D01*
X245908Y128996D01*
X246057Y127862D01*
X246415Y126997D01*
X240661Y121243D01*
X198968D01*
X194313Y125898D01*
X193883Y126185D01*
X193376Y126286D01*
X189684D01*
X189449Y126853D01*
X188847Y127637D01*
X188064Y128239D01*
X187496Y128474D01*
Y130105D01*
X189924D01*
Y137611D01*
X182418D01*
Y130105D01*
X184845D01*
Y128474D01*
X184278Y128239D01*
X183494Y127637D01*
X182893Y126853D01*
X182666Y126306D01*
X175738D01*
Y128930D01*
X170751D01*
Y142710D01*
X170650Y143217D01*
X170363Y143647D01*
X165553Y148457D01*
X165123Y148744D01*
X164616Y148845D01*
X158472D01*
X155097Y152220D01*
X155373Y152886D01*
X155509Y153917D01*
X155373Y154948D01*
X154975Y155909D01*
X154342Y156734D01*
X153517Y157367D01*
X152851Y157643D01*
Y185483D01*
X154890Y187523D01*
X154902Y187514D01*
X156150Y186997D01*
X157489Y186821D01*
X158828Y186997D01*
X160076Y187514D01*
X161148Y188337D01*
X161971Y189409D01*
X162488Y190657D01*
X162664Y191996D01*
X162488Y193335D01*
X161971Y194584D01*
X161148Y195655D01*
X160076Y196478D01*
X158828Y196995D01*
X157489Y197171D01*
D02*
G37*
G36*
X66203Y189725D02*
X62653D01*
Y183813D01*
X66203D01*
Y189725D01*
D02*
G37*
G36*
X61853D02*
X58304D01*
Y183813D01*
X61853D01*
Y189725D01*
D02*
G37*
G36*
X247994Y188576D02*
X240095D01*
Y184180D01*
X231151D01*
X230644Y184079D01*
X230214Y183792D01*
X227700Y181277D01*
X227411Y181335D01*
X226561Y181166D01*
X225841Y180684D01*
X225359Y179964D01*
X225190Y179114D01*
X225359Y178264D01*
X225841Y177544D01*
X226561Y177063D01*
X227411Y176894D01*
X228261Y177063D01*
X228981Y177544D01*
X229463Y178264D01*
X229632Y179114D01*
X229574Y179403D01*
X231700Y181529D01*
X240095D01*
Y177133D01*
X247994D01*
Y188576D01*
D02*
G37*
G36*
X174854Y176026D02*
Y173290D01*
X177591D01*
X177535Y173715D01*
X177216Y174484D01*
X176709Y175145D01*
X176049Y175652D01*
X175280Y175970D01*
X174854Y176026D01*
D02*
G37*
G36*
X174054D02*
X173629Y175970D01*
X172860Y175652D01*
X172199Y175145D01*
X171692Y174484D01*
X171374Y173715D01*
X171318Y173290D01*
X174054D01*
Y176026D01*
D02*
G37*
G36*
X66203Y179533D02*
X58304D01*
Y166910D01*
X66203D01*
Y171896D01*
X75036D01*
Y170637D01*
X80376D01*
Y175780D01*
X75036D01*
Y174547D01*
X66203D01*
Y179533D01*
D02*
G37*
G36*
X108329Y227552D02*
X102989D01*
Y227016D01*
X98638D01*
X98347Y226958D01*
X94984D01*
Y222995D01*
X98347D01*
X98638Y222937D01*
X102989D01*
Y222409D01*
X108329D01*
Y222941D01*
X110622D01*
X117301Y216262D01*
Y212591D01*
X116375D01*
Y204102D01*
X122306D01*
Y206307D01*
X184190D01*
Y205381D01*
X188516D01*
X196690Y197207D01*
X196499Y196745D01*
X195031D01*
Y188846D01*
X203083D01*
X221146Y170782D01*
X221808Y170341D01*
X222588Y170185D01*
X233316D01*
X233609Y170243D01*
X235987D01*
Y174206D01*
X233609D01*
X233316Y174264D01*
X223433D01*
X209118Y188578D01*
X209229Y188846D01*
X209229D01*
Y196745D01*
X202920D01*
X192680Y206985D01*
Y211312D01*
X184190D01*
Y210386D01*
X122306D01*
Y212591D01*
X121379D01*
Y217106D01*
X121224Y217887D01*
X120782Y218548D01*
X112908Y226422D01*
X112247Y226864D01*
X111466Y227020D01*
X108329D01*
Y227552D01*
D02*
G37*
G36*
X177591Y172490D02*
X174854D01*
Y169753D01*
X175280Y169809D01*
X176049Y170128D01*
X176709Y170635D01*
X177216Y171295D01*
X177535Y172064D01*
X177591Y172490D01*
D02*
G37*
G36*
X174054D02*
X171318D01*
X171374Y172064D01*
X171692Y171295D01*
X172199Y170635D01*
X172860Y170128D01*
X173629Y169809D01*
X174054Y169753D01*
Y172490D01*
D02*
G37*
G36*
X177489Y197171D02*
X176150Y196995D01*
X174901Y196478D01*
X173830Y195655D01*
X173007Y194584D01*
X172490Y193335D01*
X172314Y191996D01*
X172490Y190657D01*
X173007Y189409D01*
X173830Y188337D01*
X174901Y187514D01*
X176150Y186997D01*
X176163Y186996D01*
Y179973D01*
X176264Y179466D01*
X176552Y179036D01*
X181603Y173984D01*
X181492Y173715D01*
X181383Y172890D01*
X181492Y172064D01*
X181810Y171295D01*
X182317Y170635D01*
X182978Y170128D01*
X183747Y169809D01*
X184572Y169701D01*
X185398Y169809D01*
X186167Y170128D01*
X186828Y170635D01*
X187334Y171295D01*
X187446Y171564D01*
X191410D01*
Y169728D01*
X197734D01*
Y176052D01*
X191410D01*
Y174215D01*
X187446D01*
X187334Y174484D01*
X186828Y175145D01*
X186167Y175652D01*
X185398Y175970D01*
X184572Y176079D01*
X183747Y175970D01*
X183478Y175859D01*
X178814Y180522D01*
Y186996D01*
X178828Y186997D01*
X180076Y187514D01*
X181148Y188337D01*
X181971Y189409D01*
X182488Y190657D01*
X182664Y191996D01*
X182488Y193335D01*
X181971Y194584D01*
X181148Y195655D01*
X180076Y196478D01*
X178828Y196995D01*
X177489Y197171D01*
D02*
G37*
G36*
X111676Y173742D02*
X108126D01*
Y167043D01*
X111676D01*
Y173742D01*
D02*
G37*
G36*
X107326D02*
X103776D01*
Y167043D01*
X107326D01*
Y173742D01*
D02*
G37*
G36*
X177616Y166052D02*
X174854D01*
Y163290D01*
X177616D01*
Y166052D01*
D02*
G37*
G36*
X174054D02*
X171292D01*
Y163290D01*
X174054D01*
Y166052D01*
D02*
G37*
G36*
X177616Y162490D02*
X174854D01*
Y159728D01*
X177616D01*
Y162490D01*
D02*
G37*
G36*
X174054D02*
X171292D01*
Y159728D01*
X174054D01*
Y162490D01*
D02*
G37*
G36*
X137489Y197171D02*
X136150Y196995D01*
X134901Y196478D01*
X133830Y195655D01*
X133007Y194584D01*
X132490Y193335D01*
X132314Y191996D01*
X132490Y190657D01*
X133007Y189409D01*
X133830Y188337D01*
X134901Y187514D01*
X136150Y186997D01*
X136163Y186996D01*
Y182458D01*
X133517Y179811D01*
X133230Y179381D01*
X133129Y178874D01*
Y176052D01*
X131292D01*
Y169728D01*
X133129D01*
Y165763D01*
X132860Y165652D01*
X132199Y165145D01*
X131692Y164484D01*
X131374Y163715D01*
X131265Y162890D01*
X131374Y162064D01*
X131692Y161295D01*
X132199Y160635D01*
X132860Y160128D01*
X133629Y159809D01*
X134454Y159701D01*
X135280Y159809D01*
X136049Y160128D01*
X136709Y160635D01*
X137216Y161295D01*
X137535Y162064D01*
X137644Y162890D01*
X137535Y163715D01*
X137216Y164484D01*
X136709Y165145D01*
X136049Y165652D01*
X135780Y165763D01*
Y169728D01*
X137616D01*
Y176052D01*
X135780D01*
Y178325D01*
X138426Y180972D01*
X138714Y181402D01*
X138814Y181909D01*
Y186996D01*
X138828Y186997D01*
X140076Y187514D01*
X141148Y188337D01*
X141971Y189409D01*
X142488Y190657D01*
X142664Y191996D01*
X142488Y193335D01*
X141971Y194584D01*
X141148Y195655D01*
X140076Y196478D01*
X138828Y196995D01*
X137489Y197171D01*
D02*
G37*
G36*
X111676Y166243D02*
X108126D01*
Y159543D01*
X111676D01*
Y166243D01*
D02*
G37*
G36*
X107326D02*
X103776D01*
Y159543D01*
X107326D01*
Y166243D01*
D02*
G37*
G36*
X241990Y161081D02*
X239819D01*
Y158811D01*
X241990D01*
Y161081D01*
D02*
G37*
G36*
X239019D02*
X236847D01*
Y158811D01*
X239019D01*
Y161081D01*
D02*
G37*
G36*
X66209Y163077D02*
X62660D01*
Y157756D01*
X66209D01*
Y163077D01*
D02*
G37*
G36*
X61860D02*
X58310D01*
Y157756D01*
X61860D01*
Y163077D01*
D02*
G37*
G36*
X245238Y170465D02*
X239898D01*
Y166503D01*
X244644D01*
X248540Y162607D01*
X248855Y162262D01*
X248855D01*
X248855Y162262D01*
Y156725D01*
X255967D01*
Y158159D01*
X256729D01*
Y156913D01*
X262069D01*
Y162056D01*
X256729D01*
Y160810D01*
X255967D01*
Y162262D01*
X252634D01*
X245474Y169422D01*
X245238Y169579D01*
Y170465D01*
D02*
G37*
G36*
X227411Y168638D02*
X226561Y168469D01*
X225841Y167988D01*
X225359Y167267D01*
X225190Y166417D01*
X225359Y165568D01*
X225841Y164847D01*
X226561Y164366D01*
X227411Y164197D01*
X227700Y164254D01*
X228147Y163807D01*
X228577Y163520D01*
X229084Y163419D01*
X230646D01*
Y162763D01*
X231991D01*
Y161072D01*
X230646D01*
Y155928D01*
X235987D01*
Y161072D01*
X234642D01*
Y162763D01*
X235987D01*
Y166725D01*
X230646D01*
Y166070D01*
X230072D01*
X229632Y166417D01*
X229463Y167267D01*
X228981Y167988D01*
X228261Y168469D01*
X227411Y168638D01*
D02*
G37*
G36*
X241990Y158011D02*
X239819D01*
Y155741D01*
X241990D01*
Y158011D01*
D02*
G37*
G36*
X239019D02*
X236847D01*
Y155741D01*
X239019D01*
Y158011D01*
D02*
G37*
G36*
X262069Y155954D02*
X259799D01*
Y153782D01*
X262069D01*
Y155954D01*
D02*
G37*
G36*
X258999D02*
X256729D01*
Y153782D01*
X258999D01*
Y155954D01*
D02*
G37*
G36*
X194972Y156026D02*
Y153290D01*
X197709D01*
X197653Y153715D01*
X197334Y154484D01*
X196828Y155145D01*
X196167Y155652D01*
X195398Y155970D01*
X194972Y156026D01*
D02*
G37*
G36*
X194172D02*
X193747Y155970D01*
X192978Y155652D01*
X192317Y155145D01*
X191810Y154484D01*
X191492Y153715D01*
X191436Y153290D01*
X194172D01*
Y156026D01*
D02*
G37*
G36*
X187734Y156052D02*
X184972D01*
Y153290D01*
X187734D01*
Y156052D01*
D02*
G37*
G36*
X184172D02*
X181410D01*
Y153290D01*
X184172D01*
Y156052D01*
D02*
G37*
G36*
X235987Y154969D02*
X233717D01*
Y152798D01*
X235987D01*
Y154969D01*
D02*
G37*
G36*
X232916D02*
X230646D01*
Y152798D01*
X232916D01*
Y154969D01*
D02*
G37*
G36*
X66209Y156956D02*
X62660D01*
Y151635D01*
X66209D01*
Y156956D01*
D02*
G37*
G36*
X61860D02*
X58310D01*
Y151635D01*
X61860D01*
Y156956D01*
D02*
G37*
G36*
X262069Y152982D02*
X259799D01*
Y150810D01*
X262069D01*
Y152982D01*
D02*
G37*
G36*
X258999D02*
X256729D01*
Y150810D01*
X258999D01*
Y152982D01*
D02*
G37*
G36*
X161368Y157901D02*
X160337Y157765D01*
X159376Y157367D01*
X158551Y156734D01*
X157918Y155909D01*
X157520Y154948D01*
X157384Y153917D01*
X157520Y152886D01*
X157918Y151926D01*
X158551Y151101D01*
X159376Y150468D01*
X160337Y150069D01*
X161368Y149934D01*
X162399Y150069D01*
X163359Y150468D01*
X164184Y151101D01*
X164818Y151926D01*
X165216Y152886D01*
X165351Y153917D01*
X165216Y154948D01*
X164818Y155909D01*
X164184Y156734D01*
X163359Y157367D01*
X162399Y157765D01*
X161368Y157901D01*
D02*
G37*
G36*
X141683D02*
X140652Y157765D01*
X139691Y157367D01*
X138866Y156734D01*
X138233Y155909D01*
X137835Y154948D01*
X137699Y153917D01*
X137835Y152886D01*
X138111Y152220D01*
X134348Y148457D01*
X134060Y148027D01*
X133959Y147520D01*
Y133753D01*
X132713D01*
Y128412D01*
X137857D01*
Y133753D01*
X136610D01*
Y146971D01*
X139985Y150346D01*
X140652Y150069D01*
X141683Y149934D01*
X142714Y150069D01*
X143674Y150468D01*
X144500Y151101D01*
X145133Y151926D01*
X145530Y152886D01*
X145666Y153917D01*
X145530Y154948D01*
X145133Y155909D01*
X144500Y156734D01*
X143674Y157367D01*
X142714Y157765D01*
X141683Y157901D01*
D02*
G37*
G36*
X235987Y151998D02*
X233717D01*
Y149826D01*
X235987D01*
Y151998D01*
D02*
G37*
G36*
X232916D02*
X230646D01*
Y149826D01*
X232916D01*
Y151998D01*
D02*
G37*
G36*
X197709Y152490D02*
X194972D01*
Y149753D01*
X195398Y149809D01*
X196167Y150128D01*
X196828Y150635D01*
X197334Y151295D01*
X197653Y152064D01*
X197709Y152490D01*
D02*
G37*
G36*
X194172D02*
X191436D01*
X191492Y152064D01*
X191810Y151295D01*
X192317Y150635D01*
X192978Y150128D01*
X193747Y149809D01*
X194172Y149753D01*
Y152490D01*
D02*
G37*
G36*
X187734Y152490D02*
X184972D01*
Y149728D01*
X187734D01*
Y152490D01*
D02*
G37*
G36*
X184172D02*
X181410D01*
Y149728D01*
X184172D01*
Y152490D01*
D02*
G37*
G36*
X248093Y161081D02*
X242950D01*
Y155741D01*
X244196D01*
Y154880D01*
X242950D01*
Y149540D01*
X248093D01*
Y150885D01*
X248855D01*
Y149442D01*
X255967D01*
Y154979D01*
X248855D01*
Y153536D01*
X248093D01*
Y154880D01*
X246847D01*
Y155741D01*
X248093D01*
Y161081D01*
D02*
G37*
G36*
X186571Y147591D02*
Y144258D01*
X189903D01*
X189827Y144838D01*
X189449Y145751D01*
X188847Y146535D01*
X188064Y147136D01*
X187151Y147515D01*
X186571Y147591D01*
D02*
G37*
G36*
X185771D02*
X185191Y147515D01*
X184278Y147136D01*
X183494Y146535D01*
X182893Y145751D01*
X182514Y144838D01*
X182438Y144258D01*
X185771D01*
Y147591D01*
D02*
G37*
G36*
X161768Y145250D02*
Y141719D01*
X165299D01*
X165216Y142350D01*
X164818Y143311D01*
X164184Y144136D01*
X163359Y144769D01*
X162399Y145167D01*
X161768Y145250D01*
D02*
G37*
G36*
X160968D02*
X160337Y145167D01*
X159376Y144769D01*
X158551Y144136D01*
X157918Y143311D01*
X157520Y142350D01*
X157437Y141719D01*
X160968D01*
Y145250D01*
D02*
G37*
G36*
X151925D02*
Y141719D01*
X155456D01*
X155373Y142350D01*
X154975Y143311D01*
X154342Y144136D01*
X153517Y144769D01*
X152556Y145167D01*
X151925Y145250D01*
D02*
G37*
G36*
X151125D02*
X150494Y145167D01*
X149533Y144769D01*
X148708Y144136D01*
X148075Y143311D01*
X147677Y142350D01*
X147594Y141719D01*
X151125D01*
Y145250D01*
D02*
G37*
G36*
X142083D02*
Y141719D01*
X145614D01*
X145530Y142350D01*
X145133Y143311D01*
X144500Y144136D01*
X143674Y144769D01*
X142714Y145167D01*
X142083Y145250D01*
D02*
G37*
G36*
X141283D02*
X140652Y145167D01*
X139691Y144769D01*
X138866Y144136D01*
X138233Y143311D01*
X137835Y142350D01*
X137752Y141719D01*
X141283D01*
Y145250D01*
D02*
G37*
G36*
X189903Y143458D02*
X186571D01*
Y140126D01*
X187151Y140202D01*
X188064Y140580D01*
X188847Y141182D01*
X189449Y141966D01*
X189827Y142879D01*
X189903Y143458D01*
D02*
G37*
G36*
X185771D02*
X182438D01*
X182514Y142879D01*
X182893Y141966D01*
X183494Y141182D01*
X184278Y140580D01*
X185191Y140202D01*
X185771Y140126D01*
Y143458D01*
D02*
G37*
G36*
X165299Y140919D02*
X161768D01*
Y137388D01*
X162399Y137471D01*
X163359Y137869D01*
X164184Y138502D01*
X164818Y139327D01*
X165216Y140288D01*
X165299Y140919D01*
D02*
G37*
G36*
X160968D02*
X157437D01*
X157520Y140288D01*
X157918Y139327D01*
X158551Y138502D01*
X159376Y137869D01*
X160337Y137471D01*
X160968Y137388D01*
Y140919D01*
D02*
G37*
G36*
X155456D02*
X151925D01*
Y137388D01*
X152556Y137471D01*
X153517Y137869D01*
X154342Y138502D01*
X154975Y139327D01*
X155373Y140288D01*
X155456Y140919D01*
D02*
G37*
G36*
X151125D02*
X147594D01*
X147677Y140288D01*
X148075Y139327D01*
X148708Y138502D01*
X149533Y137869D01*
X150494Y137471D01*
X151125Y137388D01*
Y140919D01*
D02*
G37*
G36*
X145614D02*
X142083D01*
Y137388D01*
X142714Y137471D01*
X143674Y137869D01*
X144500Y138502D01*
X145133Y139327D01*
X145530Y140288D01*
X145614Y140919D01*
D02*
G37*
G36*
X141283D02*
X137752D01*
X137835Y140288D01*
X138233Y139327D01*
X138866Y138502D01*
X139691Y137869D01*
X140652Y137471D01*
X141283Y137388D01*
Y140919D01*
D02*
G37*
G36*
X241990Y154880D02*
X236847D01*
Y149540D01*
X238093D01*
Y138675D01*
X232288Y132870D01*
X231423Y133228D01*
X230289Y133377D01*
X229155Y133228D01*
X228099Y132790D01*
X227191Y132094D01*
X226495Y131187D01*
X226137Y130322D01*
X214441D01*
X214083Y131187D01*
X213387Y132094D01*
X212479Y132790D01*
X211423Y133228D01*
X210289Y133377D01*
X209155Y133228D01*
X208099Y132790D01*
X207191Y132094D01*
X206495Y131187D01*
X206057Y130130D01*
X205908Y128996D01*
X206057Y127862D01*
X206495Y126806D01*
X207191Y125898D01*
X208099Y125202D01*
X209155Y124764D01*
X210289Y124615D01*
X211423Y124764D01*
X212479Y125202D01*
X213387Y125898D01*
X214083Y126806D01*
X214441Y127671D01*
X226137D01*
X226495Y126806D01*
X227191Y125898D01*
X228099Y125202D01*
X229155Y124764D01*
X230289Y124615D01*
X231423Y124764D01*
X232479Y125202D01*
X233387Y125898D01*
X234083Y126806D01*
X234521Y127862D01*
X234670Y128996D01*
X234521Y130130D01*
X234162Y130995D01*
X240356Y137189D01*
X240643Y137619D01*
X240744Y138126D01*
Y149540D01*
X241990D01*
Y154880D01*
D02*
G37*
G36*
X143959Y133753D02*
X141787D01*
Y131483D01*
X143959D01*
Y133753D01*
D02*
G37*
G36*
X140987D02*
X138816D01*
Y131483D01*
X140987D01*
Y133753D01*
D02*
G37*
G36*
X143959Y130683D02*
X141787D01*
Y128412D01*
X143959D01*
Y130683D01*
D02*
G37*
G36*
X140987D02*
X138816D01*
Y128412D01*
X140987D01*
Y130683D01*
D02*
G37*
G36*
X158834Y128930D02*
X146210D01*
Y126306D01*
X143959D01*
Y127650D01*
X138816D01*
Y122310D01*
X143959D01*
Y123655D01*
X146210D01*
Y121031D01*
X158834D01*
Y128930D01*
D02*
G37*
G36*
X86479Y175780D02*
X81138D01*
Y170637D01*
X82483D01*
Y150002D01*
X82584Y149495D01*
X82871Y149065D01*
X100941Y130995D01*
X100583Y130130D01*
X100434Y128996D01*
X100583Y127862D01*
X101020Y126806D01*
X101717Y125898D01*
X102624Y125202D01*
X103681Y124764D01*
X104815Y124615D01*
X105948Y124764D01*
X107005Y125202D01*
X107912Y125898D01*
X108608Y126806D01*
X109046Y127862D01*
X109195Y128996D01*
X109046Y130130D01*
X108608Y131187D01*
X107912Y132094D01*
X107005Y132790D01*
X105948Y133228D01*
X104815Y133377D01*
X103681Y133228D01*
X102816Y132870D01*
X85134Y150551D01*
Y170637D01*
X86479D01*
Y175780D01*
D02*
G37*
G36*
X66209Y149126D02*
X58310D01*
Y137683D01*
X60934D01*
Y131551D01*
X61011Y131164D01*
X60583Y130130D01*
X60434Y128996D01*
X60583Y127862D01*
X61020Y126806D01*
X61717Y125898D01*
X62624Y125202D01*
X63681Y124764D01*
X64814Y124615D01*
X65948Y124764D01*
X67005Y125202D01*
X67912Y125898D01*
X68608Y126806D01*
X68967Y127671D01*
X80662D01*
X81020Y126806D01*
X81717Y125898D01*
X82624Y125202D01*
X83681Y124764D01*
X84814Y124615D01*
X85948Y124764D01*
X87005Y125202D01*
X87912Y125898D01*
X88608Y126806D01*
X89046Y127862D01*
X89195Y128996D01*
X89046Y130130D01*
X88608Y131187D01*
X87912Y132094D01*
X87005Y132790D01*
X85948Y133228D01*
X84814Y133377D01*
X83681Y133228D01*
X82624Y132790D01*
X81717Y132094D01*
X81020Y131187D01*
X80662Y130322D01*
X68967D01*
X68608Y131187D01*
X67912Y132094D01*
X67005Y132790D01*
X65948Y133228D01*
X64814Y133377D01*
X64085Y133281D01*
X63585Y133706D01*
Y137683D01*
X66209D01*
Y149126D01*
D02*
G37*
G36*
X189924Y118714D02*
X186571D01*
Y115361D01*
X189924D01*
Y118714D01*
D02*
G37*
G36*
X185771D02*
X182418D01*
Y115361D01*
X185771D01*
Y118714D01*
D02*
G37*
G36*
X124163Y118638D02*
X123313Y118469D01*
X122593Y117988D01*
X122111Y117267D01*
X121942Y116417D01*
X122016Y116047D01*
X111710Y105740D01*
X111423Y105310D01*
X111322Y104803D01*
Y103143D01*
X110765D01*
Y97999D01*
X114530D01*
Y103143D01*
X113973D01*
Y104254D01*
X123956Y114238D01*
X124163Y114197D01*
X125013Y114366D01*
X125733Y114847D01*
X126215Y115568D01*
X126384Y116417D01*
X126215Y117267D01*
X125733Y117988D01*
X125013Y118469D01*
X124163Y118638D01*
D02*
G37*
G36*
X189924Y114561D02*
X186571D01*
Y111208D01*
X189924D01*
Y114561D01*
D02*
G37*
G36*
X185771D02*
X182418D01*
Y111208D01*
X185771D01*
Y114561D01*
D02*
G37*
G36*
X128691Y114406D02*
X127841Y114237D01*
X127120Y113755D01*
X126639Y113035D01*
X126470Y112185D01*
X126527Y111896D01*
X121238Y106607D01*
X120951Y106177D01*
X120850Y105670D01*
Y100810D01*
X119604D01*
Y95469D01*
X124747D01*
Y100810D01*
X123501D01*
Y105121D01*
X128402Y110022D01*
X128691Y109965D01*
X129540Y110134D01*
X130261Y110615D01*
X130742Y111335D01*
X130911Y112185D01*
X130742Y113035D01*
X130261Y113755D01*
X129540Y114237D01*
X128691Y114406D01*
D02*
G37*
G36*
X179361Y99472D02*
X175811D01*
Y94151D01*
X179361D01*
Y99472D01*
D02*
G37*
G36*
X175011D02*
X171462D01*
Y94151D01*
X175011D01*
Y99472D01*
D02*
G37*
G36*
X117089Y94284D02*
X115606D01*
Y92113D01*
X117089D01*
Y94284D01*
D02*
G37*
G36*
X114806D02*
X113324D01*
Y92113D01*
X114806D01*
Y94284D01*
D02*
G37*
G36*
X199735Y93297D02*
X198154D01*
Y91027D01*
X199735D01*
Y93297D01*
D02*
G37*
G36*
X197354D02*
X195773D01*
Y91027D01*
X197354D01*
Y93297D01*
D02*
G37*
G36*
X117089Y91313D02*
X115606D01*
Y89141D01*
X117089D01*
Y91313D01*
D02*
G37*
G36*
X114806D02*
X113324D01*
Y89141D01*
X114806D01*
Y91313D01*
D02*
G37*
G36*
X179361Y93351D02*
X175811D01*
Y88030D01*
X179361D01*
Y93351D01*
D02*
G37*
G36*
X175011D02*
X171462D01*
Y88030D01*
X175011D01*
Y93351D01*
D02*
G37*
G36*
X199735Y90227D02*
X198154D01*
Y87957D01*
X199735D01*
Y90227D01*
D02*
G37*
G36*
X197354D02*
X195773D01*
Y87957D01*
X197354D01*
Y90227D01*
D02*
G37*
G36*
X210266Y88474D02*
X207996D01*
Y86302D01*
X210266D01*
Y88474D01*
D02*
G37*
G36*
X190581D02*
X188311D01*
Y86302D01*
X190581D01*
Y88474D01*
D02*
G37*
G36*
X207196D02*
X204926D01*
Y86302D01*
X207196D01*
Y88474D01*
D02*
G37*
G36*
X187511D02*
X185241D01*
Y86302D01*
X187511D01*
Y88474D01*
D02*
G37*
G36*
X162628Y87253D02*
X160358D01*
Y85082D01*
X162628D01*
Y87253D01*
D02*
G37*
G36*
X159558D02*
X157288D01*
Y85082D01*
X159558D01*
Y87253D01*
D02*
G37*
G36*
X130850Y100810D02*
X125706D01*
Y95469D01*
X130850D01*
Y95469D01*
X131118Y95580D01*
X140940Y85758D01*
X135805Y80623D01*
X135518Y80193D01*
X135417Y79686D01*
Y55137D01*
X131246Y50965D01*
X130958Y50535D01*
X130857Y50028D01*
Y46484D01*
X130115Y46177D01*
X129259Y45519D01*
X128601Y44663D01*
X128188Y43666D01*
X128047Y42595D01*
X128188Y41525D01*
X128601Y40528D01*
X129259Y39671D01*
X130115Y39014D01*
X131113Y38601D01*
X132183Y38460D01*
X133253Y38601D01*
X134250Y39014D01*
X135107Y39671D01*
X135764Y40528D01*
X136177Y41525D01*
X136318Y42595D01*
X136177Y43666D01*
X135764Y44663D01*
X135107Y45519D01*
X134250Y46177D01*
X133508Y46484D01*
Y49479D01*
X137680Y53650D01*
X137967Y54080D01*
X138068Y54588D01*
Y79137D01*
X143390Y84459D01*
X147839D01*
Y83803D01*
X156526D01*
Y87765D01*
X147839D01*
Y87110D01*
X143337D01*
X131370Y99077D01*
X130940Y99364D01*
X130850Y99382D01*
Y100810D01*
D02*
G37*
G36*
X118762Y88477D02*
X113619D01*
Y83137D01*
X118762D01*
Y84459D01*
X119493D01*
Y83803D01*
X128180D01*
Y87765D01*
X119493D01*
Y87110D01*
X118762D01*
Y88477D01*
D02*
G37*
G36*
X210266Y85502D02*
X207996D01*
Y83331D01*
X210266D01*
Y85502D01*
D02*
G37*
G36*
X207196D02*
X204926D01*
Y83331D01*
X207196D01*
Y85502D01*
D02*
G37*
G36*
X190581D02*
X188311D01*
Y83331D01*
X190581D01*
Y85502D01*
D02*
G37*
G36*
X187511D02*
X185241D01*
Y83331D01*
X187511D01*
Y85502D01*
D02*
G37*
G36*
X111971Y94284D02*
X108205D01*
Y89141D01*
X108763D01*
Y88477D01*
X107517D01*
Y83137D01*
X112660D01*
Y88477D01*
X111414D01*
Y89141D01*
X111971D01*
Y94284D01*
D02*
G37*
G36*
X162628Y84282D02*
X160358D01*
Y82110D01*
X162628D01*
Y84282D01*
D02*
G37*
G36*
X159558D02*
X157288D01*
Y82110D01*
X159558D01*
Y84282D01*
D02*
G37*
G36*
X202214Y113801D02*
X201219Y113603D01*
X200376Y113039D01*
X199812Y112196D01*
X199614Y111201D01*
X199812Y110206D01*
X200175Y109663D01*
Y105591D01*
X200330Y104810D01*
X200772Y104149D01*
X215117Y89804D01*
Y83750D01*
X211435D01*
Y81839D01*
X210266D01*
Y82372D01*
X204926D01*
Y81839D01*
X203475D01*
Y82470D01*
X199513D01*
Y80092D01*
X199455Y79800D01*
X199513Y79508D01*
Y77130D01*
X203475D01*
Y77761D01*
X204926D01*
Y77228D01*
X210266D01*
Y77761D01*
X211435D01*
Y75850D01*
X222877D01*
Y83750D01*
X219195D01*
Y90649D01*
X219195Y90649D01*
X219040Y91429D01*
X218598Y92091D01*
X204253Y106435D01*
Y109663D01*
X204616Y110206D01*
X204814Y111201D01*
X204616Y112196D01*
X204053Y113039D01*
X203209Y113603D01*
X202214Y113801D01*
D02*
G37*
G36*
X236828Y83750D02*
X231507D01*
Y80200D01*
X236828D01*
Y83750D01*
D02*
G37*
G36*
X230707D02*
X225386D01*
Y80200D01*
X230707D01*
Y83750D01*
D02*
G37*
G36*
X128180Y82765D02*
X119493D01*
Y82110D01*
X102943D01*
X102436Y82009D01*
X102006Y81722D01*
X78647Y58363D01*
X78360Y57933D01*
X78259Y57425D01*
Y50589D01*
X77668Y50344D01*
X76874Y49735D01*
X76265Y48941D01*
X75882Y48016D01*
X75752Y47024D01*
X75882Y46032D01*
X76265Y45108D01*
X76874Y44314D01*
X77668Y43705D01*
X78592Y43322D01*
X79584Y43192D01*
X80576Y43322D01*
X81501Y43705D01*
X82294Y44314D01*
X82904Y45108D01*
X83286Y46032D01*
X83417Y47024D01*
X83286Y48016D01*
X82904Y48941D01*
X82294Y49735D01*
X81501Y50344D01*
X80910Y50589D01*
Y56876D01*
X103492Y79459D01*
X119493D01*
Y78803D01*
X128180D01*
Y82765D01*
D02*
G37*
G36*
X162628Y93356D02*
X157288D01*
Y92823D01*
X152183D01*
X151891Y92765D01*
X147839D01*
Y88803D01*
X151891D01*
X152183Y88745D01*
X157288D01*
Y88213D01*
X162476D01*
X171462Y79227D01*
Y74079D01*
X179361D01*
Y77761D01*
X185241D01*
Y77228D01*
X190581D01*
Y77761D01*
X192032D01*
Y77130D01*
X195994D01*
Y79508D01*
X196053Y79800D01*
X195994Y80092D01*
Y82470D01*
X192032D01*
Y81839D01*
X190581D01*
Y82372D01*
X185241D01*
Y81839D01*
X179361D01*
Y85521D01*
X171462D01*
Y85521D01*
X171089Y85367D01*
X164230Y92226D01*
X163569Y92668D01*
X162788Y92823D01*
X162628D01*
Y93356D01*
D02*
G37*
G36*
X128180Y77765D02*
X124236D01*
Y76184D01*
X128180D01*
Y77765D01*
D02*
G37*
G36*
X123436D02*
X119493D01*
Y76184D01*
X123436D01*
Y77765D01*
D02*
G37*
G36*
X236828Y79400D02*
X231507D01*
Y75850D01*
X236828D01*
Y79400D01*
D02*
G37*
G36*
X230707D02*
X225386D01*
Y75850D01*
X230707D01*
Y79400D01*
D02*
G37*
G36*
X128180Y75384D02*
X124236D01*
Y73803D01*
X128180D01*
Y75384D01*
D02*
G37*
G36*
X123436D02*
X119493D01*
Y73803D01*
X123436D01*
Y75384D01*
D02*
G37*
G36*
X156526Y82765D02*
X147839D01*
Y82529D01*
X147635Y82110D01*
X147128Y82009D01*
X146698Y81722D01*
X141245Y76269D01*
X140958Y75839D01*
X140857Y75332D01*
Y46484D01*
X140115Y46177D01*
X139259Y45519D01*
X138601Y44663D01*
X138188Y43666D01*
X138047Y42595D01*
X138188Y41525D01*
X138601Y40528D01*
X139259Y39671D01*
X140115Y39014D01*
X141112Y38601D01*
X142183Y38460D01*
X143253Y38601D01*
X144251Y39014D01*
X145107Y39671D01*
X145764Y40528D01*
X146177Y41525D01*
X146318Y42595D01*
X146177Y43666D01*
X145764Y44663D01*
X145107Y45519D01*
X144251Y46177D01*
X143508Y46484D01*
Y74783D01*
X147381Y78655D01*
X147839Y78803D01*
Y78803D01*
X147839Y78803D01*
X156526D01*
X156526Y78803D01*
Y78803D01*
X156526Y78803D01*
X156991Y78719D01*
X172874Y62836D01*
Y56690D01*
X178805D01*
Y65180D01*
X174279D01*
X158344Y81115D01*
X157914Y81402D01*
X157406Y81503D01*
X156526D01*
Y82765D01*
D02*
G37*
G36*
X190419Y65180D02*
X184488D01*
Y56690D01*
X190419D01*
Y59609D01*
X213152D01*
X220217Y52544D01*
Y48095D01*
X226541D01*
Y54419D01*
X222091D01*
X214638Y61872D01*
X214208Y62159D01*
X213701Y62260D01*
X190419D01*
Y65180D01*
D02*
G37*
G36*
X89984Y50805D02*
Y47424D01*
X93364D01*
X93287Y48016D01*
X92904Y48941D01*
X92295Y49735D01*
X91501Y50344D01*
X90576Y50727D01*
X89984Y50805D01*
D02*
G37*
G36*
X89184D02*
X88592Y50727D01*
X87668Y50344D01*
X86874Y49735D01*
X86265Y48941D01*
X85882Y48016D01*
X85804Y47424D01*
X89184D01*
Y50805D01*
D02*
G37*
G36*
X249269Y50509D02*
Y47129D01*
X252649D01*
X252571Y47721D01*
X252188Y48645D01*
X251579Y49439D01*
X250785Y50048D01*
X249861Y50431D01*
X249269Y50509D01*
D02*
G37*
G36*
X248469D02*
X247877Y50431D01*
X246952Y50048D01*
X246159Y49439D01*
X245549Y48645D01*
X245166Y47721D01*
X245089Y47129D01*
X248469D01*
Y50509D01*
D02*
G37*
G36*
X93364Y46624D02*
X89984D01*
Y43244D01*
X90576Y43322D01*
X91501Y43705D01*
X92295Y44314D01*
X92904Y45108D01*
X93287Y46032D01*
X93364Y46624D01*
D02*
G37*
G36*
X89184D02*
X85804D01*
X85882Y46032D01*
X86265Y45108D01*
X86874Y44314D01*
X87668Y43705D01*
X88592Y43322D01*
X89184Y43244D01*
Y46624D01*
D02*
G37*
G36*
X252649Y46329D02*
X249269D01*
Y42949D01*
X249861Y43027D01*
X250785Y43410D01*
X251579Y44019D01*
X252188Y44813D01*
X252571Y45737D01*
X252649Y46329D01*
D02*
G37*
G36*
X248469D02*
X245089D01*
X245166Y45737D01*
X245549Y44813D01*
X246159Y44019D01*
X246952Y43410D01*
X247877Y43027D01*
X248469Y42949D01*
Y46329D01*
D02*
G37*
G36*
X176382Y46580D02*
Y42897D01*
X180065D01*
X179976Y43567D01*
X179563Y44565D01*
X178906Y45421D01*
X178050Y46078D01*
X177052Y46491D01*
X176382Y46580D01*
D02*
G37*
G36*
X175582D02*
X174912Y46491D01*
X173914Y46078D01*
X173058Y45421D01*
X172401Y44565D01*
X171987Y43567D01*
X171899Y42897D01*
X175582D01*
Y46580D01*
D02*
G37*
G36*
X203379Y54446D02*
X202553Y54337D01*
X201784Y54019D01*
X201123Y53512D01*
X200617Y52851D01*
X200298Y52082D01*
X200189Y51257D01*
X200298Y50431D01*
X200617Y49662D01*
X201123Y49002D01*
X201784Y48495D01*
X202553Y48176D01*
X203379Y48067D01*
X204204Y48176D01*
X204473Y48288D01*
X210409Y42351D01*
X210298Y42082D01*
X210189Y41257D01*
X210298Y40431D01*
X210617Y39662D01*
X211123Y39002D01*
X211784Y38495D01*
X212553Y38176D01*
X213379Y38067D01*
X214204Y38176D01*
X214973Y38495D01*
X215634Y39002D01*
X216141Y39662D01*
X216252Y39931D01*
X233396D01*
X233904Y40032D01*
X234333Y40319D01*
X237286Y43272D01*
X237877Y43027D01*
X238869Y42896D01*
X239861Y43027D01*
X240785Y43410D01*
X241579Y44019D01*
X242188Y44813D01*
X242571Y45737D01*
X242701Y46729D01*
X242571Y47721D01*
X242188Y48645D01*
X241579Y49439D01*
X240785Y50048D01*
X239861Y50431D01*
X238869Y50562D01*
X237877Y50431D01*
X236952Y50048D01*
X236158Y49439D01*
X235549Y48645D01*
X235167Y47721D01*
X235036Y46729D01*
X235167Y45737D01*
X235411Y45146D01*
X232847Y42582D01*
X216252D01*
X216141Y42851D01*
X215634Y43512D01*
X214973Y44019D01*
X214204Y44337D01*
X213379Y44446D01*
X212553Y44337D01*
X212284Y44226D01*
X206348Y50162D01*
X206459Y50431D01*
X206568Y51257D01*
X206459Y52082D01*
X206141Y52851D01*
X205634Y53512D01*
X204973Y54019D01*
X204204Y54337D01*
X203379Y54446D01*
D02*
G37*
G36*
X128180Y92765D02*
X119493D01*
Y88803D01*
X128180D01*
X128180Y88803D01*
Y88803D01*
X128542Y88510D01*
X130299Y86753D01*
Y62518D01*
X121246Y53465D01*
X120958Y53035D01*
X120857Y52528D01*
Y46484D01*
X120115Y46177D01*
X119259Y45519D01*
X118601Y44663D01*
X118188Y43666D01*
X118047Y42595D01*
X118188Y41525D01*
X118601Y40528D01*
X119259Y39671D01*
X120115Y39014D01*
X121113Y38601D01*
X122183Y38460D01*
X123253Y38601D01*
X124250Y39014D01*
X125107Y39671D01*
X125764Y40528D01*
X126177Y41525D01*
X126318Y42595D01*
X126177Y43666D01*
X125764Y44663D01*
X125107Y45519D01*
X124250Y46177D01*
X123508Y46484D01*
Y51979D01*
X132562Y61032D01*
X132849Y61462D01*
X132950Y61969D01*
Y87302D01*
X132849Y87810D01*
X132562Y88240D01*
X129080Y91721D01*
X128650Y92009D01*
X128180Y92102D01*
Y92765D01*
D02*
G37*
G36*
X180065Y42097D02*
X176382D01*
Y38414D01*
X177052Y38502D01*
X178050Y38916D01*
X178906Y39573D01*
X179563Y40429D01*
X179976Y41427D01*
X180065Y42097D01*
D02*
G37*
G36*
X175582D02*
X171899D01*
X171987Y41427D01*
X172401Y40429D01*
X173058Y39573D01*
X173914Y38916D01*
X174912Y38502D01*
X175582Y38414D01*
Y42097D01*
D02*
G37*
G36*
X156526Y77765D02*
X147839D01*
Y73803D01*
X150857D01*
Y46484D01*
X150115Y46177D01*
X149259Y45519D01*
X148601Y44663D01*
X148188Y43666D01*
X148047Y42595D01*
X148188Y41525D01*
X148601Y40528D01*
X149259Y39671D01*
X150115Y39014D01*
X151112Y38601D01*
X152183Y38460D01*
X153253Y38601D01*
X154251Y39014D01*
X155107Y39671D01*
X155764Y40528D01*
X156031Y41171D01*
X162093D01*
X162401Y40429D01*
X163058Y39573D01*
X163914Y38916D01*
X164912Y38502D01*
X165982Y38361D01*
X167052Y38502D01*
X168050Y38916D01*
X168906Y39573D01*
X169563Y40429D01*
X169976Y41427D01*
X170117Y42497D01*
X169976Y43567D01*
X169563Y44565D01*
X168906Y45421D01*
X168050Y46078D01*
X167052Y46491D01*
X165982Y46632D01*
X164912Y46491D01*
X163914Y46078D01*
X163058Y45421D01*
X162401Y44565D01*
X162093Y43822D01*
X156112D01*
X155764Y44663D01*
X155107Y45519D01*
X154251Y46177D01*
X153508Y46484D01*
Y73803D01*
X156526D01*
Y77765D01*
D02*
G37*
%LPD*%
D10*
X11811Y11811D02*
D03*
X578740Y11811D02*
D03*
Y381890D02*
D03*
X11811Y381890D02*
D03*
Y11811D02*
D03*
X578740D02*
D03*
Y381890D02*
D03*
X11811Y381890D02*
D03*
D11*
X112647Y100571D02*
D03*
X115206Y91713D02*
D03*
X110088D02*
D03*
X384517Y100571D02*
D03*
X387076Y91713D02*
D03*
X381958D02*
D03*
D12*
X175839Y60935D02*
D03*
X187453D02*
D03*
X119340Y199095D02*
D03*
X107726D02*
D03*
X119340Y208347D02*
D03*
X107726D02*
D03*
X447709Y60935D02*
D03*
X459323D02*
D03*
X391210Y199095D02*
D03*
X379596D02*
D03*
X391210Y208347D02*
D03*
X379596D02*
D03*
D13*
X197754Y90627D02*
D03*
X201494Y79800D02*
D03*
X194013D02*
D03*
X165305Y230842D02*
D03*
X169045Y220016D02*
D03*
X161565D02*
D03*
X469624Y90627D02*
D03*
X473364Y79800D02*
D03*
X465883D02*
D03*
X437175Y230842D02*
D03*
X440915Y220016D02*
D03*
X433435D02*
D03*
D14*
X231107Y79800D02*
D03*
X217156D02*
D03*
X502977D02*
D03*
X489026D02*
D03*
D15*
X207596D02*
D03*
Y85902D02*
D03*
X187911Y79800D02*
D03*
Y85902D02*
D03*
X159958Y90784D02*
D03*
Y84682D02*
D03*
X259399Y153382D02*
D03*
Y159484D02*
D03*
X233316Y152398D02*
D03*
Y158500D02*
D03*
X175226Y220016D02*
D03*
Y226118D02*
D03*
X77706Y173209D02*
D03*
Y179311D02*
D03*
X83809Y173209D02*
D03*
Y179311D02*
D03*
X70127Y219961D02*
D03*
Y226063D02*
D03*
X56348Y221339D02*
D03*
Y227441D02*
D03*
X105659Y224980D02*
D03*
Y218878D02*
D03*
X479466Y79800D02*
D03*
Y85902D02*
D03*
X459781Y79800D02*
D03*
Y85902D02*
D03*
X431828Y90784D02*
D03*
Y84682D02*
D03*
X531269Y153382D02*
D03*
Y159484D02*
D03*
X505187Y152398D02*
D03*
Y158500D02*
D03*
X447096Y220016D02*
D03*
Y226118D02*
D03*
X349576Y173209D02*
D03*
Y179311D02*
D03*
X355679Y173209D02*
D03*
Y179311D02*
D03*
X341998Y219961D02*
D03*
Y226063D02*
D03*
X328218Y221339D02*
D03*
Y227441D02*
D03*
X377529Y224980D02*
D03*
Y218878D02*
D03*
D16*
X175411Y93751D02*
D03*
Y79800D02*
D03*
X244045Y196806D02*
D03*
Y182854D02*
D03*
X62260Y157356D02*
D03*
Y143405D02*
D03*
X447281Y93751D02*
D03*
Y79800D02*
D03*
X515915Y196806D02*
D03*
Y182854D02*
D03*
X334130Y157356D02*
D03*
Y143405D02*
D03*
D17*
X123836Y90784D02*
D03*
Y85784D02*
D03*
Y80784D02*
D03*
Y75784D02*
D03*
X152183Y90784D02*
D03*
Y85784D02*
D03*
Y80784D02*
D03*
Y75784D02*
D03*
X395706Y90784D02*
D03*
Y85784D02*
D03*
Y80784D02*
D03*
Y75784D02*
D03*
X424053Y90784D02*
D03*
Y85784D02*
D03*
Y80784D02*
D03*
Y75784D02*
D03*
D18*
X116191Y85807D02*
D03*
X110088D02*
D03*
X122176Y98139D02*
D03*
X128278D02*
D03*
X135285Y131083D02*
D03*
X141387D02*
D03*
X135285Y124980D02*
D03*
X141387D02*
D03*
X245521Y158411D02*
D03*
X239419D02*
D03*
Y152210D02*
D03*
X245521D02*
D03*
X155462Y220016D02*
D03*
X149360D02*
D03*
X63238Y213858D02*
D03*
X69340D02*
D03*
X63238Y207658D02*
D03*
X69340D02*
D03*
X90895Y208347D02*
D03*
X84793D02*
D03*
X90961Y236693D02*
D03*
X84859D02*
D03*
X388061Y85807D02*
D03*
X381958D02*
D03*
X394046Y98139D02*
D03*
X400148D02*
D03*
X407155Y131083D02*
D03*
X413258D02*
D03*
X407155Y124980D02*
D03*
X413258D02*
D03*
X517391Y158411D02*
D03*
X511289D02*
D03*
Y152210D02*
D03*
X517391D02*
D03*
X427332Y220016D02*
D03*
X421230D02*
D03*
X335108Y213858D02*
D03*
X341210D02*
D03*
X335108Y207658D02*
D03*
X341210D02*
D03*
X362765Y208347D02*
D03*
X356663D02*
D03*
X362831Y236693D02*
D03*
X356729D02*
D03*
D19*
X169426Y124980D02*
D03*
X152522D02*
D03*
X441296D02*
D03*
X424392D02*
D03*
D20*
X194537Y243736D02*
D03*
Y258500D02*
D03*
X466407Y243736D02*
D03*
Y258500D02*
D03*
D21*
X127848Y239760D02*
D03*
Y249760D02*
D03*
Y269760D02*
D03*
Y259760D02*
D03*
X155407D02*
D03*
Y269760D02*
D03*
Y249760D02*
D03*
Y239760D02*
D03*
X399718D02*
D03*
Y249760D02*
D03*
Y269760D02*
D03*
Y259760D02*
D03*
X427277D02*
D03*
Y269760D02*
D03*
Y249760D02*
D03*
Y239760D02*
D03*
D22*
X165423Y238323D02*
D03*
X175423D02*
D03*
X165423Y263913D02*
D03*
X175423D02*
D03*
X437293Y238323D02*
D03*
X447293D02*
D03*
X437293Y263913D02*
D03*
X447293D02*
D03*
D23*
X233316Y172224D02*
D03*
Y164744D02*
D03*
X242568Y168484D02*
D03*
X505187Y172224D02*
D03*
Y164744D02*
D03*
X514439Y168484D02*
D03*
D24*
X252411Y152210D02*
D03*
Y159494D02*
D03*
X63238Y227441D02*
D03*
Y220158D02*
D03*
X524281Y152210D02*
D03*
Y159494D02*
D03*
X335108Y227441D02*
D03*
Y220158D02*
D03*
D25*
X202031Y220059D02*
D03*
X221885D02*
D03*
X202130Y192795D02*
D03*
X221983D02*
D03*
X473902Y220059D02*
D03*
X493755D02*
D03*
X474000Y192795D02*
D03*
X493854D02*
D03*
D26*
X146407Y230252D02*
D03*
X155462D02*
D03*
X418277D02*
D03*
X427332D02*
D03*
D27*
X188435Y219961D02*
D03*
Y208347D02*
D03*
X460305Y219961D02*
D03*
Y208347D02*
D03*
D28*
X107726Y186496D02*
D03*
Y166643D02*
D03*
X379596Y186496D02*
D03*
Y166643D02*
D03*
D29*
X62253Y190125D02*
D03*
Y173221D02*
D03*
X334124Y190125D02*
D03*
Y173221D02*
D03*
D30*
X98638Y214976D02*
D03*
Y219976D02*
D03*
Y224976D02*
D03*
Y229976D02*
D03*
X77182Y214976D02*
D03*
Y219976D02*
D03*
Y224976D02*
D03*
Y229976D02*
D03*
X370509Y214976D02*
D03*
Y219976D02*
D03*
Y224976D02*
D03*
Y229976D02*
D03*
X349052Y214976D02*
D03*
Y219976D02*
D03*
Y224976D02*
D03*
Y229976D02*
D03*
D31*
X217156Y79800D02*
Y90649D01*
X202214Y105591D02*
X217156Y90649D01*
X207596Y79800D02*
X217156D01*
X173772Y79800D02*
X175411D01*
X162788Y90784D02*
X173772Y79800D01*
X159958Y90784D02*
X162788D01*
X152183D02*
X159958D01*
X187911Y79800D02*
X187911Y79800D01*
X175411Y79800D02*
X187911D01*
X187911Y79800D02*
X194013D01*
X201494D02*
X207596D01*
X202214Y105591D02*
Y111201D01*
X188533Y220059D02*
X202031D01*
X175226Y220016D02*
X188380D01*
X119340Y208347D02*
X188435D01*
X202130Y194651D01*
Y192795D02*
Y194651D01*
Y192683D02*
Y192795D01*
Y192683D02*
X222588Y172224D01*
X202031Y206462D02*
X202116Y206378D01*
X202031Y206462D02*
Y220059D01*
X162549Y289350D02*
X169592D01*
X111466Y224980D02*
X119340Y217106D01*
X105659Y224980D02*
X111466D01*
X119340Y208347D02*
Y217106D01*
X222588Y172224D02*
X233316D01*
X119340Y208347D02*
X119340Y208347D01*
X188380Y220016D02*
X188435Y219961D01*
X194537Y243736D02*
X202031Y236242D01*
Y220059D02*
Y236242D01*
X69340Y201654D02*
Y207658D01*
X69340Y207658D02*
X69340Y207658D01*
X101131Y199095D02*
X107726D01*
Y186496D02*
Y199095D01*
Y208347D01*
X98638Y224976D02*
X105655D01*
X183907Y254366D02*
Y275036D01*
X169592Y289350D02*
X183907Y275036D01*
Y254366D02*
X194537Y243736D01*
X175226Y220016D02*
X175226Y220016D01*
X169045Y220016D02*
X175226D01*
X155407Y230307D02*
X155462Y230252D01*
X155407Y230307D02*
Y239760D01*
X155462Y220016D02*
X155462Y220016D01*
Y230252D01*
X155462Y220016D02*
X155462Y220016D01*
X161565D01*
X489026Y79800D02*
Y90649D01*
X474084Y105591D02*
X489026Y90649D01*
X479466Y79800D02*
X489026D01*
X445643Y79800D02*
X447281D01*
X434658Y90784D02*
X445643Y79800D01*
X431828Y90784D02*
X434658D01*
X424053D02*
X431828D01*
X459781Y79800D02*
X459781Y79800D01*
X447281Y79800D02*
X459781D01*
X459781Y79800D02*
X465883D01*
X473364D02*
X479466D01*
X474084Y105591D02*
Y111201D01*
X460403Y220059D02*
X473902D01*
X447096Y220016D02*
X460250D01*
X391210Y208347D02*
X460305D01*
X474000Y194651D01*
Y192795D02*
Y194651D01*
Y192683D02*
Y192795D01*
Y192683D02*
X494458Y172224D01*
X473902Y206462D02*
X473986Y206378D01*
X473902Y206462D02*
Y220059D01*
X434419Y289350D02*
X441462D01*
X383336Y224980D02*
X391210Y217106D01*
X377529Y224980D02*
X383336D01*
X391210Y208347D02*
Y217106D01*
X494458Y172224D02*
X505187D01*
X391210Y208347D02*
X391210Y208347D01*
X460250Y220016D02*
X460305Y219961D01*
X466407Y243736D02*
X473902Y236242D01*
Y220059D02*
Y236242D01*
X341210Y201654D02*
Y207658D01*
X341210Y207658D02*
X341210Y207658D01*
X373002Y199095D02*
X379596D01*
Y186496D02*
Y199095D01*
Y208347D01*
X370509Y224976D02*
X377525D01*
X455777Y254366D02*
Y275036D01*
X441462Y289350D02*
X455777Y275036D01*
Y254366D02*
X466407Y243736D01*
X447096Y220016D02*
X447096Y220016D01*
X440915Y220016D02*
X447096D01*
X427277Y230307D02*
X427332Y230252D01*
X427277Y230307D02*
Y239760D01*
X427332Y220016D02*
X427332Y220016D01*
Y230252D01*
X427332Y220016D02*
X427332Y220016D01*
X433435D01*
D32*
X136742Y54588D02*
Y79686D01*
X132183Y50028D02*
X136742Y54588D01*
X132183Y42595D02*
Y50028D01*
X131624Y61969D02*
Y87302D01*
X122183Y52528D02*
X131624Y61969D01*
X122183Y42595D02*
Y52528D01*
X213379Y41257D02*
X233396D01*
X238869Y46729D01*
X110088Y91713D02*
X110088Y91713D01*
X110088Y85807D02*
Y91713D01*
X116191Y85807D02*
X116213Y85784D01*
X123836D01*
X187453Y60935D02*
X213701D01*
X175839D02*
Y61745D01*
X157406Y80178D02*
X175839Y61745D01*
X102943Y80784D02*
X123836D01*
X142788Y85784D02*
X152183D01*
X142765D02*
X142788D01*
X142815Y85758D01*
X130433Y98139D02*
X142788Y85784D01*
X136742Y79686D02*
X142815Y85758D01*
X128142Y90784D02*
X131624Y87302D01*
X123836Y90784D02*
X128142D01*
X152789Y80178D02*
X157406D01*
X152183Y80784D02*
X152789Y80178D01*
X79584Y47024D02*
Y57425D01*
X102943Y80784D01*
X203379Y51257D02*
X213379Y41257D01*
X213701Y60935D02*
X223379Y51257D01*
X142183Y75332D02*
X147635Y80784D01*
X152183D01*
X142183Y42595D02*
Y75332D01*
X152183Y42595D02*
X152281Y42497D01*
X165982D01*
X152183Y75784D02*
X152183Y75784D01*
Y42595D02*
Y75784D01*
X112647Y100571D02*
Y104803D01*
X122176Y98139D02*
Y105670D01*
X128278Y98139D02*
X130433D01*
X112647Y104803D02*
X124163Y116319D01*
X122176Y105670D02*
X128691Y112185D01*
X124163Y116319D02*
Y116417D01*
X71501Y269661D02*
X127848D01*
X56348Y254508D02*
X71501Y269661D01*
X56348Y227441D02*
Y254508D01*
X227411Y166417D02*
X229084Y164744D01*
X233316D01*
X227411Y179114D02*
X231151Y182854D01*
X244045D01*
X168356Y268815D02*
Y280068D01*
X165423Y265882D02*
X168356Y268815D01*
X165423Y263913D02*
Y265882D01*
X131096Y230252D02*
X146407D01*
X127848Y233500D02*
X131096Y230252D01*
X127848Y233500D02*
Y239760D01*
X102017Y264055D02*
Y264104D01*
Y264055D02*
X106312Y259760D01*
X127848D01*
X62260Y131551D02*
X64814Y128996D01*
X62260Y131551D02*
Y143405D01*
X134454Y162890D02*
Y172890D01*
Y178874D01*
X137489Y181909D01*
Y191996D01*
X184572Y172890D02*
X194572D01*
X177489Y179973D02*
X184572Y172890D01*
X177489Y179973D02*
Y191996D01*
X186171Y124961D02*
X193376D01*
X198419Y119917D01*
X241210D01*
X186171Y124961D02*
Y133858D01*
X186151Y124980D02*
X186171Y124961D01*
X169426Y124980D02*
X186151D01*
X135285Y131083D02*
Y147520D01*
X151525Y186032D02*
X157489Y191996D01*
X151525Y153917D02*
Y186032D01*
X141387Y124980D02*
X152522D01*
X127017D02*
X135285D01*
X164616Y147520D02*
X169426Y142710D01*
X157923Y147520D02*
X164616D01*
X151525Y153917D02*
X157923Y147520D01*
X169426Y124980D02*
Y142710D01*
X135285Y147520D02*
X141683Y153917D01*
X210289Y128996D02*
X230289D01*
X210289Y248496D02*
X244045Y214740D01*
Y196806D02*
Y214740D01*
X252411Y159494D02*
Y160610D01*
X244537Y168484D02*
X252411Y160610D01*
X242568Y168484D02*
X244537D01*
X233316Y158500D02*
Y164744D01*
X252411Y159494D02*
X252420Y159484D01*
X259399D01*
X252411Y152210D02*
X252411Y152210D01*
X245521Y152210D02*
X252411D01*
X245521D02*
Y158411D01*
X239419Y138126D02*
Y152210D01*
X230289Y128996D02*
X239419Y138126D01*
X93356Y158642D02*
X127017Y124980D01*
X93356Y158642D02*
Y205886D01*
X90895Y208347D02*
X93356Y205886D01*
X84793Y208240D02*
Y208347D01*
X77706Y201153D02*
X84793Y208240D01*
X77706Y179311D02*
Y201153D01*
X64814Y128996D02*
X84814D01*
X83809Y150002D02*
X104815Y128996D01*
X83809Y150002D02*
Y173209D01*
X77694Y173221D02*
X77706Y173209D01*
X62253Y173221D02*
X77694D01*
X77706Y179311D02*
X83809D01*
X90895Y219976D02*
X98638D01*
X90895D02*
X90895Y219976D01*
Y208347D02*
Y219976D01*
X77182Y224976D02*
X84793D01*
X84793Y224976D01*
Y208347D02*
Y224976D01*
X77166Y219961D02*
X77182Y219976D01*
X70127Y219961D02*
X77166D01*
X69340Y213858D02*
X70127Y214646D01*
Y219961D01*
X63238Y207658D02*
Y213858D01*
X63238Y213858D02*
X63238Y213858D01*
X63238Y213858D02*
Y220158D01*
X56348Y227441D02*
X63238D01*
X64814Y248522D02*
X84814D01*
X105655Y224976D02*
X105659Y224980D01*
X56348Y227441D02*
X56348Y227441D01*
X83898Y236693D02*
X84859D01*
X77182Y229976D02*
X83898Y236693D01*
X91922D02*
X98638Y229976D01*
X90961Y236693D02*
X91922D01*
X165423Y238323D02*
Y240212D01*
X161111Y244524D02*
X165423Y240212D01*
X146954Y244524D02*
X161111D01*
X141188Y238757D02*
X146954Y244524D01*
X190895Y275035D02*
X203750D01*
X230289Y248496D01*
X157569Y269760D02*
X162844Y275035D01*
X156191Y269760D02*
X157569D01*
X161923Y260413D02*
X165423Y263913D01*
X156061Y260413D02*
X161923D01*
X155407Y259760D02*
X156061Y260413D01*
X241210Y119917D02*
X250289Y128996D01*
X127848Y249661D02*
X155407D01*
X408613Y54588D02*
Y79686D01*
X404053Y50028D02*
X408613Y54588D01*
X404053Y42595D02*
Y50028D01*
X403495Y61969D02*
Y87302D01*
X394053Y52528D02*
X403495Y61969D01*
X394053Y42595D02*
Y52528D01*
X485249Y41257D02*
X505266D01*
X510739Y46729D01*
X381958Y91713D02*
X381958Y91713D01*
X381958Y85807D02*
Y91713D01*
X388061Y85807D02*
X388084Y85784D01*
X395706D01*
X459323Y60935D02*
X485571D01*
X447709D02*
Y61745D01*
X429277Y80178D02*
X447709Y61745D01*
X374813Y80784D02*
X395706D01*
X414658Y85784D02*
X424053D01*
X414635D02*
X414658D01*
X414685Y85758D01*
X402303Y98139D02*
X414658Y85784D01*
X408613Y79686D02*
X414685Y85758D01*
X400013Y90784D02*
X403495Y87302D01*
X395706Y90784D02*
X400013D01*
X424659Y80178D02*
X429277D01*
X424053Y80784D02*
X424659Y80178D01*
X351454Y47024D02*
Y57425D01*
X374813Y80784D01*
X475249Y51257D02*
X485249Y41257D01*
X485571Y60935D02*
X495249Y51257D01*
X414053Y75332D02*
X419506Y80784D01*
X424053D01*
X414053Y42595D02*
Y75332D01*
X424053Y42595D02*
X424151Y42497D01*
X437852D01*
X424053Y75784D02*
X424053Y75784D01*
Y42595D02*
Y75784D01*
X384517Y100571D02*
Y104803D01*
X394046Y98139D02*
Y105670D01*
X400148Y98139D02*
X402303D01*
X384517Y104803D02*
X396033Y116319D01*
X394046Y105670D02*
X400561Y112185D01*
X396033Y116319D02*
Y116417D01*
X343372Y269661D02*
X399718D01*
X328218Y254508D02*
X343372Y269661D01*
X328218Y227441D02*
Y254508D01*
X499281Y166417D02*
X500954Y164744D01*
X505187D01*
X499281Y179114D02*
X503021Y182854D01*
X515915D01*
X440226Y268815D02*
Y280068D01*
X437293Y265882D02*
X440226Y268815D01*
X437293Y263913D02*
Y265882D01*
X402966Y230252D02*
X418277D01*
X399718Y233500D02*
X402966Y230252D01*
X399718Y233500D02*
Y239760D01*
X373887Y264055D02*
Y264104D01*
Y264055D02*
X378182Y259760D01*
X399718D01*
X334130Y131551D02*
X336684Y128996D01*
X334130Y131551D02*
Y143405D01*
X406324Y162890D02*
Y172890D01*
Y178874D01*
X409359Y181909D01*
Y191996D01*
X456442Y172890D02*
X466442D01*
X449359Y179973D02*
X456442Y172890D01*
X449359Y179973D02*
Y191996D01*
X458041Y124961D02*
X465246D01*
X470289Y119917D01*
X513080D01*
X458041Y124961D02*
Y133858D01*
X458021Y124980D02*
X458041Y124961D01*
X441296Y124980D02*
X458021D01*
X407155Y131083D02*
Y147520D01*
X423395Y186032D02*
X429359Y191996D01*
X423395Y153917D02*
Y186032D01*
X413258Y124980D02*
X424392D01*
X398887D02*
X407155D01*
X436486Y147520D02*
X441296Y142710D01*
X429793Y147520D02*
X436486D01*
X423395Y153917D02*
X429793Y147520D01*
X441296Y124980D02*
Y142710D01*
X407155Y147520D02*
X413553Y153917D01*
X482159Y128996D02*
X502159D01*
X482159Y248496D02*
X515915Y214740D01*
Y196806D02*
Y214740D01*
X524281Y159494D02*
Y160610D01*
X516407Y168484D02*
X524281Y160610D01*
X514439Y168484D02*
X516407D01*
X505187Y158500D02*
Y164744D01*
X524281Y159494D02*
X524291Y159484D01*
X531269D01*
X524281Y152210D02*
X524281Y152210D01*
X517391Y152210D02*
X524281D01*
X517391D02*
Y158411D01*
X511289Y138126D02*
Y152210D01*
X502159Y128996D02*
X511289Y138126D01*
X365226Y158642D02*
X398887Y124980D01*
X365226Y158642D02*
Y205886D01*
X362765Y208347D02*
X365226Y205886D01*
X356663Y208240D02*
Y208347D01*
X349576Y201153D02*
X356663Y208240D01*
X349576Y179311D02*
Y201153D01*
X336684Y128996D02*
X356684D01*
X355679Y150002D02*
X376684Y128996D01*
X355679Y150002D02*
Y173209D01*
X349564Y173221D02*
X349576Y173209D01*
X334124Y173221D02*
X349564D01*
X349576Y179311D02*
X355679D01*
X362765Y219976D02*
X370509D01*
X362765D02*
X362765Y219976D01*
Y208347D02*
Y219976D01*
X349052Y224976D02*
X356663D01*
X356663Y224976D01*
Y208347D02*
Y224976D01*
X349036Y219961D02*
X349052Y219976D01*
X341998Y219961D02*
X349036D01*
X341210Y213858D02*
X341998Y214646D01*
Y219961D01*
X335108Y207658D02*
Y213858D01*
X335108Y213858D02*
X335108Y213858D01*
X335108Y213858D02*
Y220158D01*
X328218Y227441D02*
X335108D01*
X336684Y248522D02*
X356684D01*
X377525Y224976D02*
X377529Y224980D01*
X328218Y227441D02*
X328218Y227441D01*
X355768Y236693D02*
X356729D01*
X349052Y229976D02*
X355768Y236693D01*
X363792D02*
X370509Y229976D01*
X362831Y236693D02*
X363792D01*
X437293Y238323D02*
Y240212D01*
X432981Y244524D02*
X437293Y240212D01*
X418824Y244524D02*
X432981D01*
X413058Y238757D02*
X418824Y244524D01*
X462765Y275035D02*
X475620D01*
X502159Y248496D01*
X429439Y269760D02*
X434714Y275035D01*
X428061Y269760D02*
X429439D01*
X433793Y260413D02*
X437293Y263913D01*
X427931Y260413D02*
X433793D01*
X427277Y259760D02*
X427931Y260413D01*
X513080Y119917D02*
X522159Y128996D01*
X399718Y249661D02*
X427277D01*
D33*
X312598Y304724D02*
D03*
Y300787D02*
D03*
Y296850D02*
D03*
Y288976D02*
D03*
Y292913D02*
D03*
Y68898D02*
D03*
Y64961D02*
D03*
Y72835D02*
D03*
Y76772D02*
D03*
Y80709D02*
D03*
X546063Y292913D02*
D03*
Y288976D02*
D03*
Y296850D02*
D03*
Y300787D02*
D03*
Y304724D02*
D03*
X546161Y68898D02*
D03*
Y64961D02*
D03*
Y72835D02*
D03*
Y76772D02*
D03*
Y80709D02*
D03*
X274311D02*
D03*
Y76772D02*
D03*
Y72835D02*
D03*
Y64961D02*
D03*
Y68898D02*
D03*
Y304725D02*
D03*
Y300788D02*
D03*
Y296850D02*
D03*
Y288976D02*
D03*
Y292913D02*
D03*
X40748Y80709D02*
D03*
Y76772D02*
D03*
Y72835D02*
D03*
Y64961D02*
D03*
Y68898D02*
D03*
X40748Y292913D02*
D03*
Y288976D02*
D03*
Y296850D02*
D03*
Y300788D02*
D03*
Y304725D02*
D03*
D34*
X162549Y289350D02*
D03*
X152549D02*
D03*
X89584Y47024D02*
D03*
X79584D02*
D03*
X248869Y46729D02*
D03*
X238869D02*
D03*
X434419Y289350D02*
D03*
X424419D02*
D03*
X361454Y47024D02*
D03*
X351454D02*
D03*
X520739Y46729D02*
D03*
X510739D02*
D03*
D35*
X151525Y153917D02*
D03*
X161368D02*
D03*
X141683D02*
D03*
Y141319D02*
D03*
X161368D02*
D03*
X151525D02*
D03*
X423395Y153917D02*
D03*
X433238D02*
D03*
X413553D02*
D03*
Y141319D02*
D03*
X433238D02*
D03*
X423395D02*
D03*
D36*
X174454Y162890D02*
D03*
X134454Y172890D02*
D03*
X223379Y51257D02*
D03*
X446324Y162890D02*
D03*
X406324Y172890D02*
D03*
X495249Y51257D02*
D03*
D37*
X134454Y162890D02*
D03*
X174454Y172890D02*
D03*
X184572D02*
D03*
X213379Y41257D02*
D03*
X203379Y51257D02*
D03*
X194572Y152890D02*
D03*
X406324Y162890D02*
D03*
X446324Y172890D02*
D03*
X456442D02*
D03*
X485249Y41257D02*
D03*
X475249Y51257D02*
D03*
X466442Y152890D02*
D03*
D38*
X250289Y248496D02*
D03*
X230289D02*
D03*
X210289D02*
D03*
X250289Y128996D02*
D03*
X230289D02*
D03*
X210289D02*
D03*
X104815D02*
D03*
X84814D02*
D03*
X64814D02*
D03*
X104815Y248522D02*
D03*
X84814D02*
D03*
X64814D02*
D03*
X522159Y248496D02*
D03*
X502159D02*
D03*
X482159D02*
D03*
X522159Y128996D02*
D03*
X502159D02*
D03*
X482159D02*
D03*
X376684D02*
D03*
X356684D02*
D03*
X336684D02*
D03*
X376684Y248522D02*
D03*
X356684D02*
D03*
X336684D02*
D03*
D39*
X137489Y191996D02*
D03*
X157489D02*
D03*
X177489D02*
D03*
X409359D02*
D03*
X429359D02*
D03*
X449359D02*
D03*
D40*
X175982Y42497D02*
D03*
X165982D02*
D03*
X132183Y42595D02*
D03*
X122183D02*
D03*
X142183D02*
D03*
X152183D02*
D03*
X447852Y42497D02*
D03*
X437852D02*
D03*
X404053Y42595D02*
D03*
X394053D02*
D03*
X414053D02*
D03*
X424053D02*
D03*
D41*
X184572Y152890D02*
D03*
X194572Y172890D02*
D03*
X456442Y152890D02*
D03*
X466442Y172890D02*
D03*
D42*
X186171Y133858D02*
D03*
Y114961D02*
D03*
X458041Y133858D02*
D03*
Y114961D02*
D03*
D43*
X186171Y143858D02*
D03*
Y124961D02*
D03*
X458041Y143858D02*
D03*
Y124961D02*
D03*
D44*
X180202Y320096D02*
D03*
X244100D02*
D03*
X180202Y345096D02*
D03*
X244100D02*
D03*
X180202Y295096D02*
D03*
X244100D02*
D03*
X70976Y320096D02*
D03*
X134874D02*
D03*
X70976Y345096D02*
D03*
X134874D02*
D03*
X70976Y295096D02*
D03*
X134874D02*
D03*
X452072Y320096D02*
D03*
X515971D02*
D03*
X452072Y345096D02*
D03*
X515971D02*
D03*
X452072Y295096D02*
D03*
X515971D02*
D03*
X342846Y320096D02*
D03*
X406744D02*
D03*
X342846Y345096D02*
D03*
X406744D02*
D03*
X342846Y295096D02*
D03*
X406744D02*
D03*
D45*
X172096Y293681D02*
D03*
X178887Y287087D02*
D03*
X162824Y281374D02*
D03*
X173257Y279209D02*
D03*
X132332Y120256D02*
D03*
X120029D02*
D03*
X74852Y244034D02*
D03*
X70127Y230747D02*
D03*
X56348Y216869D02*
D03*
X200836Y258558D02*
D03*
X145189Y35796D02*
D03*
X128691Y112185D02*
D03*
X124163Y116417D02*
D03*
X98638Y208347D02*
D03*
X206840Y241122D02*
D03*
X194789Y69961D02*
D03*
X124557Y219917D02*
D03*
X115206Y96043D02*
D03*
X212352Y50965D02*
D03*
X169426Y93751D02*
D03*
X181348D02*
D03*
X175411Y101358D02*
D03*
X207726Y147421D02*
D03*
Y177835D02*
D03*
X235679D02*
D03*
X227411Y166417D02*
D03*
Y179114D02*
D03*
X207726Y206378D02*
D03*
X196801D02*
D03*
X113730Y166643D02*
D03*
X101722D02*
D03*
X56348Y157356D02*
D03*
X107726Y175768D02*
D03*
X130659Y54803D02*
D03*
X147490Y60596D02*
D03*
X142577Y80686D02*
D03*
X135285Y85807D02*
D03*
X177489Y199587D02*
D03*
X157489D02*
D03*
X177489Y212874D02*
D03*
X157489D02*
D03*
X123836Y71929D02*
D03*
X164714Y82854D02*
D03*
X231107Y73996D02*
D03*
X238869Y79800D02*
D03*
X231107Y85691D02*
D03*
X207596Y90627D02*
D03*
X197754Y95354D02*
D03*
X187911Y90627D02*
D03*
X239419Y163169D02*
D03*
X233316Y147421D02*
D03*
X259399Y148504D02*
D03*
X194537Y266417D02*
D03*
X221983Y186693D02*
D03*
X231175Y192795D02*
D03*
X221885Y198898D02*
D03*
Y213858D02*
D03*
X231175Y220059D02*
D03*
X221885Y226162D02*
D03*
X219589Y124665D02*
D03*
X174454Y131083D02*
D03*
X146210D02*
D03*
X166781Y159796D02*
D03*
X132037Y139327D02*
D03*
X133021Y156575D02*
D03*
Y184596D02*
D03*
Y199587D02*
D03*
X135187Y212874D02*
D03*
X92030Y134996D02*
D03*
X95589Y242135D02*
D03*
X120389Y139327D02*
D03*
X109046Y134996D02*
D03*
X98638Y159701D02*
D03*
X88608Y159796D02*
D03*
X68404Y157356D02*
D03*
X56348Y190125D02*
D03*
X68490D02*
D03*
X62260Y165039D02*
D03*
X62253Y198245D02*
D03*
X86479Y193595D02*
D03*
X98638D02*
D03*
X114517Y199094D02*
D03*
X112908Y217756D02*
D03*
X105655Y214478D02*
D03*
X87912Y203224D02*
D03*
X77166Y210906D02*
D03*
X90045Y229976D02*
D03*
X136150Y226118D02*
D03*
X140338Y245461D02*
D03*
X136150Y234049D02*
D03*
X144439Y219917D02*
D03*
X165305Y226321D02*
D03*
X175226Y230842D02*
D03*
X120389Y60596D02*
D03*
X95589Y258996D02*
D03*
X244389Y283796D02*
D03*
X145189D02*
D03*
X70789Y134996D02*
D03*
X244389Y308596D02*
D03*
X45989Y60596D02*
D03*
X219589D02*
D03*
X269189Y258996D02*
D03*
X45989D02*
D03*
X194789Y358196D02*
D03*
X269189Y234196D02*
D03*
X120389D02*
D03*
X95589Y283796D02*
D03*
Y85396D02*
D03*
X244389Y358196D02*
D03*
X219589Y333396D02*
D03*
X70789Y85396D02*
D03*
X145189Y234196D02*
D03*
X244389Y258996D02*
D03*
X70789Y35796D02*
D03*
X269189Y283796D02*
D03*
X244389Y110196D02*
D03*
X219589Y134996D02*
D03*
X45989Y234196D02*
D03*
X120389Y184596D02*
D03*
Y35796D02*
D03*
Y283796D02*
D03*
X269189Y308596D02*
D03*
X70789Y60596D02*
D03*
X269189Y35796D02*
D03*
X194789Y110196D02*
D03*
X219589Y159796D02*
D03*
X70789Y333396D02*
D03*
X120389Y308596D02*
D03*
X194789Y159796D02*
D03*
X244389Y35796D02*
D03*
X45989Y308596D02*
D03*
X145189Y110196D02*
D03*
X45989D02*
D03*
Y184596D02*
D03*
X95589Y60596D02*
D03*
X45989Y159796D02*
D03*
X244389Y134996D02*
D03*
X269189Y159796D02*
D03*
X194789Y234196D02*
D03*
X219589Y358196D02*
D03*
X145189Y258996D02*
D03*
X169989Y358196D02*
D03*
X145189Y308596D02*
D03*
X269189Y333396D02*
D03*
X120389Y358196D02*
D03*
X70789Y308596D02*
D03*
Y358196D02*
D03*
X194789Y283796D02*
D03*
X45989Y209396D02*
D03*
Y35796D02*
D03*
X194789Y333396D02*
D03*
X269189Y134996D02*
D03*
X45989Y333396D02*
D03*
X145189Y184596D02*
D03*
X120389Y159796D02*
D03*
X244389Y234196D02*
D03*
X194789Y35796D02*
D03*
X269189Y60596D02*
D03*
X169989Y110196D02*
D03*
X145189Y358196D02*
D03*
X95589Y308596D02*
D03*
Y333396D02*
D03*
X244389Y60596D02*
D03*
X194789Y134996D02*
D03*
X219589Y283796D02*
D03*
X169989Y184596D02*
D03*
X219589Y110196D02*
D03*
X194789Y184596D02*
D03*
X269189D02*
D03*
X194789Y308596D02*
D03*
X219589Y35796D02*
D03*
X95589Y110196D02*
D03*
X244389Y333396D02*
D03*
X169989Y35796D02*
D03*
X70789Y110196D02*
D03*
X45989Y134996D02*
D03*
X219589Y308596D02*
D03*
X169989Y333396D02*
D03*
Y308596D02*
D03*
X120389Y333396D02*
D03*
X45989Y283796D02*
D03*
X70789Y258996D02*
D03*
X269189Y110196D02*
D03*
X169989Y60596D02*
D03*
X70789Y283796D02*
D03*
X269189Y209396D02*
D03*
Y85396D02*
D03*
X145189Y333396D02*
D03*
X95589Y35796D02*
D03*
X145189Y159796D02*
D03*
X45989Y85396D02*
D03*
X95589Y358196D02*
D03*
X171526Y238323D02*
D03*
X179281D02*
D03*
X175423Y244115D02*
D03*
Y258074D02*
D03*
X171526Y263913D02*
D03*
X179281D02*
D03*
X175423Y269760D02*
D03*
X163694Y270461D02*
D03*
X120389Y254705D02*
D03*
Y264352D02*
D03*
X190895Y275035D02*
D03*
X162844D02*
D03*
X168356Y280068D02*
D03*
X131096Y230252D02*
D03*
X141188Y238757D02*
D03*
X102017Y264104D02*
D03*
X90895Y219976D02*
D03*
X84793Y224976D02*
D03*
X443966Y293681D02*
D03*
X450758Y287087D02*
D03*
X434694Y281374D02*
D03*
X445127Y279209D02*
D03*
X404202Y120256D02*
D03*
X391899D02*
D03*
X346722Y244034D02*
D03*
X341998Y230747D02*
D03*
X328218Y216869D02*
D03*
X472706Y258558D02*
D03*
X417059Y35796D02*
D03*
X400561Y112185D02*
D03*
X396033Y116417D02*
D03*
X370509Y208347D02*
D03*
X478710Y241122D02*
D03*
X466659Y69961D02*
D03*
X396427Y219917D02*
D03*
X387076Y96043D02*
D03*
X484222Y50965D02*
D03*
X441296Y93751D02*
D03*
X453218D02*
D03*
X447281Y101358D02*
D03*
X479596Y147421D02*
D03*
Y177835D02*
D03*
X507549D02*
D03*
X499281Y166417D02*
D03*
Y179114D02*
D03*
X479596Y206378D02*
D03*
X468671D02*
D03*
X385600Y166643D02*
D03*
X373592D02*
D03*
X328218Y157356D02*
D03*
X379596Y175768D02*
D03*
X402529Y54803D02*
D03*
X419360Y60596D02*
D03*
X414447Y80686D02*
D03*
X407155Y85807D02*
D03*
X449359Y199587D02*
D03*
X429359D02*
D03*
X449359Y212874D02*
D03*
X429359D02*
D03*
X395706Y71929D02*
D03*
X436584Y82854D02*
D03*
X502977Y73996D02*
D03*
X510739Y79800D02*
D03*
X502977Y85691D02*
D03*
X479466Y90627D02*
D03*
X469624Y95354D02*
D03*
X459781Y90627D02*
D03*
X511289Y163169D02*
D03*
X505187Y147421D02*
D03*
X531269Y148504D02*
D03*
X466407Y266417D02*
D03*
X493854Y186693D02*
D03*
X503045Y192795D02*
D03*
X493755Y198898D02*
D03*
Y213858D02*
D03*
X503045Y220059D02*
D03*
X493755Y226162D02*
D03*
X491459Y124665D02*
D03*
X446324Y131083D02*
D03*
X418080D02*
D03*
X438651Y159796D02*
D03*
X403907Y139327D02*
D03*
X404891Y156575D02*
D03*
Y184596D02*
D03*
Y199587D02*
D03*
X407057Y212874D02*
D03*
X363900Y134996D02*
D03*
X367459Y242135D02*
D03*
X392259Y139327D02*
D03*
X380916Y134996D02*
D03*
X370509Y159701D02*
D03*
X360479Y159796D02*
D03*
X340275Y157356D02*
D03*
X328218Y190125D02*
D03*
X340360D02*
D03*
X334130Y165039D02*
D03*
X334124Y198245D02*
D03*
X358349Y193595D02*
D03*
X370509D02*
D03*
X386387Y199094D02*
D03*
X384778Y217756D02*
D03*
X377525Y214478D02*
D03*
X359782Y203224D02*
D03*
X349036Y210906D02*
D03*
X361915Y229976D02*
D03*
X408020Y226118D02*
D03*
X412208Y245461D02*
D03*
X408020Y234049D02*
D03*
X416309Y219917D02*
D03*
X437175Y226321D02*
D03*
X447096Y230842D02*
D03*
X392259Y60596D02*
D03*
X367459Y258996D02*
D03*
X516259Y283796D02*
D03*
X417059D02*
D03*
X342659Y134996D02*
D03*
X516259Y308596D02*
D03*
X317859Y60596D02*
D03*
X491459D02*
D03*
X541059Y258996D02*
D03*
X317859D02*
D03*
X466659Y358196D02*
D03*
X541059Y234196D02*
D03*
X392259D02*
D03*
X367459Y283796D02*
D03*
Y85396D02*
D03*
X516259Y358196D02*
D03*
X491459Y333396D02*
D03*
X342659Y85396D02*
D03*
X417059Y234196D02*
D03*
X516259Y258996D02*
D03*
X342659Y35796D02*
D03*
X541059Y283796D02*
D03*
X516259Y110196D02*
D03*
X491459Y134996D02*
D03*
X317859Y234196D02*
D03*
X392259Y184596D02*
D03*
Y35796D02*
D03*
Y283796D02*
D03*
X541059Y308596D02*
D03*
X342659Y60596D02*
D03*
X541059Y35796D02*
D03*
X466659Y110196D02*
D03*
X491459Y159796D02*
D03*
X342659Y333396D02*
D03*
X392259Y308596D02*
D03*
X466659Y159796D02*
D03*
X516259Y35796D02*
D03*
X317859Y308596D02*
D03*
X417059Y110196D02*
D03*
X317859D02*
D03*
Y184596D02*
D03*
X367459Y60596D02*
D03*
X317859Y159796D02*
D03*
X516259Y134996D02*
D03*
X541059Y159796D02*
D03*
X466659Y234196D02*
D03*
X491459Y358196D02*
D03*
X417059Y258996D02*
D03*
X441859Y358196D02*
D03*
X417059Y308596D02*
D03*
X541059Y333396D02*
D03*
X392259Y358196D02*
D03*
X342659Y308596D02*
D03*
Y358196D02*
D03*
X466659Y283796D02*
D03*
X317859Y209396D02*
D03*
Y35796D02*
D03*
X466659Y333396D02*
D03*
X541059Y134996D02*
D03*
X317859Y333396D02*
D03*
X417059Y184596D02*
D03*
X392259Y159796D02*
D03*
X516259Y234196D02*
D03*
X466659Y35796D02*
D03*
X541059Y60596D02*
D03*
X441859Y110196D02*
D03*
X417059Y358196D02*
D03*
X367459Y308596D02*
D03*
Y333396D02*
D03*
X516259Y60596D02*
D03*
X466659Y134996D02*
D03*
X491459Y283796D02*
D03*
X441859Y184596D02*
D03*
X491459Y110196D02*
D03*
X466659Y184596D02*
D03*
X541059D02*
D03*
X466659Y308596D02*
D03*
X491459Y35796D02*
D03*
X367459Y110196D02*
D03*
X516259Y333396D02*
D03*
X441859Y35796D02*
D03*
X342659Y110196D02*
D03*
X317859Y134996D02*
D03*
X491459Y308596D02*
D03*
X441859Y333396D02*
D03*
Y308596D02*
D03*
X392259Y333396D02*
D03*
X317859Y283796D02*
D03*
X342659Y258996D02*
D03*
X541059Y110196D02*
D03*
X441859Y60596D02*
D03*
X342659Y283796D02*
D03*
X541059Y209396D02*
D03*
Y85396D02*
D03*
X417059Y333396D02*
D03*
X367459Y35796D02*
D03*
X417059Y159796D02*
D03*
X317859Y85396D02*
D03*
X367459Y358196D02*
D03*
X443396Y238323D02*
D03*
X451151D02*
D03*
X447293Y244115D02*
D03*
Y258074D02*
D03*
X443396Y263913D02*
D03*
X451151D02*
D03*
X447293Y269760D02*
D03*
X435564Y270461D02*
D03*
X392259Y254705D02*
D03*
Y264352D02*
D03*
X462765Y275035D02*
D03*
X434714D02*
D03*
X440226Y280068D02*
D03*
X402966Y230252D02*
D03*
X413058Y238757D02*
D03*
X373887Y264104D02*
D03*
X362765Y219976D02*
D03*
X356663Y224976D02*
D03*
D46*
X202214Y111201D02*
D03*
X202116Y206378D02*
D03*
X69340Y201654D02*
D03*
X101131Y199095D02*
D03*
X474084Y111201D02*
D03*
X473986Y206378D02*
D03*
X341210Y201654D02*
D03*
X373002Y199095D02*
D03*
M02*
