G04*
G04 #@! TF.GenerationSoftware,Altium Limited,Altium Designer,19.0.12 (326)*
G04*
G04 Layer_Color=16711935*
%FSLAX25Y25*%
%MOIN*%
G70*
G01*
G75*
%ADD18C,0.05315*%
%ADD19R,0.05315X0.05315*%
%ADD20C,0.06890*%
%ADD21C,0.04922*%
%ADD22C,0.06103*%
%ADD23C,0.05709*%
%ADD24C,0.05591*%
%ADD25R,0.04922X0.04922*%
%ADD26R,0.05315X0.05315*%
%ADD27C,0.12008*%
%ADD28R,0.12008X0.12008*%
%ADD29R,0.07678X0.07678*%
%ADD30C,0.07678*%
%ADD31C,0.15355*%
%ADD32C,0.08859*%
%ADD33R,0.06497X0.06497*%
%ADD34C,0.06497*%
%ADD35R,0.06103X0.06103*%
%ADD36C,0.06591*%
%ADD37C,0.07191*%
%ADD38R,0.07191X0.07191*%
%ADD39C,0.05316*%
%ADD40R,0.04922X0.04922*%
%ADD41C,0.03591*%
D18*
X139787Y143526D02*
D03*
X185604Y76374D02*
D03*
X175604D02*
D03*
X165604D02*
D03*
X91124Y15274D02*
D03*
X81125Y25274D02*
D03*
X106000Y143700D02*
D03*
X96273Y113689D02*
D03*
X193600Y177711D02*
D03*
Y167711D02*
D03*
Y157711D02*
D03*
X53750Y82500D02*
D03*
X31500D02*
D03*
X18000Y124500D02*
D03*
X119787Y133500D02*
D03*
X172700Y187000D02*
D03*
X172802Y177000D02*
D03*
X118000Y184500D02*
D03*
X128000D02*
D03*
X138000D02*
D03*
X81245Y72255D02*
D03*
X101245D02*
D03*
X91245D02*
D03*
X85000Y184500D02*
D03*
D19*
X119787Y143526D02*
D03*
X71125Y15274D02*
D03*
X139787Y133500D02*
D03*
X105000Y184500D02*
D03*
D20*
X146209Y109300D02*
D03*
X116209D02*
D03*
D21*
X21551Y144500D02*
D03*
Y174500D02*
D03*
X11500Y214800D02*
D03*
Y244800D02*
D03*
X101700Y61365D02*
D03*
Y31365D02*
D03*
X148500Y76374D02*
D03*
X31500Y114500D02*
D03*
X61500D02*
D03*
Y124500D02*
D03*
X31500D02*
D03*
X61500Y134500D02*
D03*
X31500D02*
D03*
X61500Y144500D02*
D03*
X31500D02*
D03*
X11500Y174500D02*
D03*
Y204500D02*
D03*
X86562Y113700D02*
D03*
Y143700D02*
D03*
X208500Y152900D02*
D03*
Y182900D02*
D03*
X198500Y142962D02*
D03*
Y112962D02*
D03*
X178500Y143000D02*
D03*
Y113000D02*
D03*
X156302Y167000D02*
D03*
Y197000D02*
D03*
X175766Y53327D02*
D03*
X111700Y61374D02*
D03*
Y31374D02*
D03*
D22*
X84500Y97500D02*
D03*
X104500D02*
D03*
X214500Y199600D02*
D03*
X194500D02*
D03*
X184334Y211000D02*
D03*
D23*
X118000Y200010D02*
D03*
X138000D02*
D03*
X188500Y123000D02*
D03*
Y143000D02*
D03*
X11500Y164500D02*
D03*
Y144500D02*
D03*
X21551Y184500D02*
D03*
Y204500D02*
D03*
X36500Y208500D02*
D03*
X56500D02*
D03*
X36500Y197000D02*
D03*
X56500D02*
D03*
X139800Y123500D02*
D03*
X119800D02*
D03*
X208500Y142915D02*
D03*
Y122915D02*
D03*
X71500Y154500D02*
D03*
Y174500D02*
D03*
X161859Y41369D02*
D03*
Y61369D02*
D03*
D24*
X121839Y61365D02*
D03*
Y51365D02*
D03*
Y41365D02*
D03*
Y31365D02*
D03*
X151839Y51365D02*
D03*
Y61365D02*
D03*
Y41365D02*
D03*
Y31365D02*
D03*
X61500Y154500D02*
D03*
Y164500D02*
D03*
Y184500D02*
D03*
Y174500D02*
D03*
X31500Y154500D02*
D03*
Y164500D02*
D03*
Y174500D02*
D03*
Y184500D02*
D03*
X115674Y214000D02*
D03*
X125674D02*
D03*
Y244000D02*
D03*
X115674D02*
D03*
D25*
X156380Y76374D02*
D03*
D26*
X106000Y113700D02*
D03*
X96273Y143689D02*
D03*
X53750Y92500D02*
D03*
X31500D02*
D03*
X18000Y134500D02*
D03*
X172700Y197000D02*
D03*
X172802Y167000D02*
D03*
D27*
X96200Y163000D02*
D03*
X116200D02*
D03*
D28*
X136200D02*
D03*
D29*
X209000Y221000D02*
D03*
X63525Y101500D02*
D03*
X209000D02*
D03*
X63525Y221025D02*
D03*
D30*
X189000Y221000D02*
D03*
X169000D02*
D03*
X43525Y101500D02*
D03*
X23526D02*
D03*
X189000D02*
D03*
X169000D02*
D03*
X43525Y221025D02*
D03*
X23526D02*
D03*
D31*
X116250Y307400D02*
D03*
Y283778D02*
D03*
D32*
X138914Y292600D02*
D03*
X202812D02*
D03*
X138914Y317600D02*
D03*
X202812D02*
D03*
X138914Y267600D02*
D03*
X202812D02*
D03*
X29687Y292600D02*
D03*
X93585D02*
D03*
X29687Y317600D02*
D03*
X93585D02*
D03*
X29687Y267600D02*
D03*
X93585D02*
D03*
D33*
X121000Y96000D02*
D03*
X135500Y86000D02*
D03*
D34*
X121000D02*
D03*
X135500Y96000D02*
D03*
D35*
X156334Y211000D02*
D03*
D36*
X111644Y10638D02*
D03*
X121644D02*
D03*
X154390Y10703D02*
D03*
X144390D02*
D03*
D37*
X178000Y14536D02*
D03*
D38*
X188000D02*
D03*
D39*
X85000Y194000D02*
D03*
Y214000D02*
D03*
Y224000D02*
D03*
Y234000D02*
D03*
X105000D02*
D03*
Y224000D02*
D03*
Y214000D02*
D03*
Y194000D02*
D03*
D40*
X175766Y61207D02*
D03*
D41*
X95000Y209500D02*
D03*
Y219000D02*
D03*
X28700Y76000D02*
D03*
X153500Y179255D02*
D03*
X49000Y109100D02*
D03*
X36500Y119633D02*
D03*
X26623Y119500D02*
D03*
X26500Y189000D02*
D03*
X89381Y78629D02*
D03*
Y87500D02*
D03*
X108255D02*
D03*
X142549Y190000D02*
D03*
X151000Y203500D02*
D03*
X161800Y190500D02*
D03*
Y230000D02*
D03*
X125500Y169622D02*
D03*
X106500Y169540D02*
D03*
X111500Y179500D02*
D03*
Y189500D02*
D03*
X142000Y152907D02*
D03*
X153500D02*
D03*
X153700Y21500D02*
D03*
X135500Y54000D02*
D03*
X142000Y60042D02*
D03*
X108255Y78500D02*
D03*
X126000Y76374D02*
D03*
X119387Y70000D02*
D03*
X76979Y79300D02*
D03*
X78700Y35500D02*
D03*
X87606Y21500D02*
D03*
X116250Y56500D02*
D03*
X139053Y37000D02*
D03*
X130500Y31365D02*
D03*
X100500Y54300D02*
D03*
X161800Y67922D02*
D03*
X128400Y89500D02*
D03*
X125413Y110263D02*
D03*
X178889Y96937D02*
D03*
X179000Y106189D02*
D03*
X161800Y86500D02*
D03*
X151000D02*
D03*
X161800Y99278D02*
D03*
X151000Y99309D02*
D03*
X147500Y120422D02*
D03*
X155168Y129300D02*
D03*
X125413D02*
D03*
X103700Y4300D02*
D03*
X202000Y179400D02*
D03*
X104900Y207800D02*
D03*
X105000Y200100D02*
D03*
X161800Y203500D02*
D03*
X68227Y94300D02*
D03*
X53750Y76000D02*
D03*
X57573Y159600D02*
D03*
X58588Y109100D02*
D03*
X21551Y160500D02*
D03*
X21700Y168500D02*
D03*
X76900Y179255D02*
D03*
X202300Y129300D02*
D03*
X178700Y125800D02*
D03*
X202096Y154300D02*
D03*
X199000Y101000D02*
D03*
X89000Y154500D02*
D03*
X151000Y230000D02*
D03*
X115480Y21500D02*
D03*
X46500Y205112D02*
D03*
X38500Y180197D02*
D03*
X44500Y162500D02*
D03*
Y139509D02*
D03*
X26500D02*
D03*
X37500Y96264D02*
D03*
X34389Y105500D02*
D03*
X125500Y153000D02*
D03*
X80866Y189500D02*
D03*
X89381D02*
D03*
X98428D02*
D03*
X142508Y179500D02*
D03*
X77000Y169590D02*
D03*
X89000Y169447D02*
D03*
X68227Y138500D02*
D03*
X80600D02*
D03*
X68227Y118500D02*
D03*
X80600D02*
D03*
X228700Y304300D02*
D03*
Y279300D02*
D03*
Y254300D02*
D03*
Y229300D02*
D03*
Y204300D02*
D03*
Y179300D02*
D03*
Y154300D02*
D03*
Y129300D02*
D03*
Y104300D02*
D03*
Y79300D02*
D03*
Y54300D02*
D03*
Y29300D02*
D03*
Y4300D02*
D03*
X203700Y329300D02*
D03*
Y304300D02*
D03*
Y279300D02*
D03*
Y254300D02*
D03*
Y229300D02*
D03*
Y204300D02*
D03*
Y79300D02*
D03*
Y54300D02*
D03*
Y29300D02*
D03*
Y4300D02*
D03*
X178700Y329300D02*
D03*
Y304300D02*
D03*
Y279300D02*
D03*
Y254300D02*
D03*
Y229300D02*
D03*
Y154300D02*
D03*
Y29300D02*
D03*
Y4300D02*
D03*
X153700Y329300D02*
D03*
Y304300D02*
D03*
Y279300D02*
D03*
Y254300D02*
D03*
Y4300D02*
D03*
X128700Y329300D02*
D03*
Y254300D02*
D03*
Y229300D02*
D03*
Y204300D02*
D03*
Y4300D02*
D03*
X103700Y329300D02*
D03*
Y304300D02*
D03*
Y279300D02*
D03*
Y254300D02*
D03*
Y154300D02*
D03*
Y129300D02*
D03*
X78700Y329300D02*
D03*
Y304300D02*
D03*
Y279300D02*
D03*
Y254300D02*
D03*
Y204300D02*
D03*
Y54300D02*
D03*
Y4300D02*
D03*
X53700Y329300D02*
D03*
Y304300D02*
D03*
Y279300D02*
D03*
Y254300D02*
D03*
Y229300D02*
D03*
Y179300D02*
D03*
Y129300D02*
D03*
Y54300D02*
D03*
Y29300D02*
D03*
Y4300D02*
D03*
X28700Y329300D02*
D03*
Y304300D02*
D03*
Y279300D02*
D03*
Y254300D02*
D03*
Y229300D02*
D03*
Y204300D02*
D03*
Y54300D02*
D03*
Y29300D02*
D03*
Y4300D02*
D03*
X3700Y304300D02*
D03*
Y279300D02*
D03*
Y254300D02*
D03*
Y229300D02*
D03*
Y204300D02*
D03*
Y179300D02*
D03*
Y154300D02*
D03*
Y129300D02*
D03*
Y104300D02*
D03*
Y79300D02*
D03*
Y54300D02*
D03*
Y29300D02*
D03*
Y4300D02*
D03*
M02*
