G04*
G04 #@! TF.GenerationSoftware,Altium Limited,Altium Designer,19.0.9 (268)*
G04*
G04 Layer_Color=65535*
%FSLAX25Y25*%
%MOIN*%
G70*
G01*
G75*
%ADD10C,0.00600*%
%ADD11C,0.00500*%
%ADD12C,0.01000*%
%ADD13C,0.00787*%
%ADD14C,0.00800*%
%ADD15R,0.08000X0.02000*%
%ADD16R,0.02000X0.10000*%
%ADD17R,0.02000X0.08000*%
D10*
X81200Y36228D02*
G03*
X82200Y35228I1000J0D01*
G01*
X88200D02*
G03*
X89200Y36228I0J1000D01*
G01*
Y56354D02*
G03*
X88200Y57354I-1000J0D01*
G01*
X82200D02*
G03*
X81200Y56354I0J-1000D01*
G01*
X143846Y76519D02*
G03*
X143846Y76519I-7906J0D01*
G01*
X133000Y194510D02*
G03*
X138000Y199510I0J5000D01*
G01*
D02*
G03*
X133000Y204510I-5000J0D01*
G01*
X123000D02*
G03*
X118000Y199510I0J-5000D01*
G01*
D02*
G03*
X123000Y194510I5000J0D01*
G01*
X109000Y119200D02*
G03*
X110000Y120200I0J1000D01*
G01*
X102000D02*
G03*
X103000Y119200I1000J0D01*
G01*
Y137200D02*
G03*
X102000Y136200I0J-1000D01*
G01*
X110000D02*
G03*
X109000Y137200I-1000J0D01*
G01*
X93273Y137189D02*
G03*
X92273Y136189I0J-1000D01*
G01*
X100273D02*
G03*
X99273Y137189I-1000J0D01*
G01*
Y119189D02*
G03*
X100273Y120189I0J1000D01*
G01*
X92273D02*
G03*
X93273Y119189I1000J0D01*
G01*
X129974Y141200D02*
G03*
X128974Y142200I-1000J0D01*
G01*
X122975D02*
G03*
X121975Y141200I0J-1000D01*
G01*
Y125200D02*
G03*
X122975Y124200I1000J0D01*
G01*
X128974D02*
G03*
X129974Y125200I0J1000D01*
G01*
X36437Y118000D02*
G03*
X35437Y117000I0J-1000D01*
G01*
Y111000D02*
G03*
X36437Y110000I1000J0D01*
G01*
X56563D02*
G03*
X57563Y111000I0J1000D01*
G01*
Y117000D02*
G03*
X56563Y118000I-1000J0D01*
G01*
X57563Y127000D02*
G03*
X56563Y128000I-1000J0D01*
G01*
Y120000D02*
G03*
X57563Y121000I0J1000D01*
G01*
X35437D02*
G03*
X36437Y120000I1000J0D01*
G01*
Y128000D02*
G03*
X35437Y127000I0J-1000D01*
G01*
X36437Y138000D02*
G03*
X35437Y137000I0J-1000D01*
G01*
Y131000D02*
G03*
X36437Y130000I1000J0D01*
G01*
X56563D02*
G03*
X57563Y131000I0J1000D01*
G01*
Y137000D02*
G03*
X56563Y138000I-1000J0D01*
G01*
X36437Y148000D02*
G03*
X35437Y147000I0J-1000D01*
G01*
Y141000D02*
G03*
X36437Y140000I1000J0D01*
G01*
X56563D02*
G03*
X57563Y141000I0J1000D01*
G01*
Y147000D02*
G03*
X56563Y148000I-1000J0D01*
G01*
X202300Y171026D02*
G03*
X186600Y173632I-8700J-3816D01*
G01*
X202300Y163395D02*
G03*
X202300Y171027I-8701J3816D01*
G01*
X186600Y160790D02*
G03*
X202300Y163396I7000J6422D01*
G01*
X63593Y87000D02*
G03*
X63593Y87000I-9843J0D01*
G01*
X41343D02*
G03*
X41343Y87000I-9843J0D01*
G01*
X27843Y129000D02*
G03*
X27843Y129000I-9843J0D01*
G01*
X17551Y148937D02*
G03*
X18551Y147937I1000J0D01*
G01*
X24551D02*
G03*
X25551Y148937I0J1000D01*
G01*
Y169063D02*
G03*
X24551Y170063I-1000J0D01*
G01*
X18551D02*
G03*
X17551Y169063I0J-1000D01*
G01*
X7500Y178937D02*
G03*
X8500Y177937I1000J0D01*
G01*
X14500D02*
G03*
X15500Y178937I0J1000D01*
G01*
Y199063D02*
G03*
X14500Y200063I-1000J0D01*
G01*
X8500D02*
G03*
X7500Y199063I0J-1000D01*
G01*
Y219237D02*
G03*
X8500Y218237I1000J0D01*
G01*
X14500D02*
G03*
X15500Y219237I0J1000D01*
G01*
Y239363D02*
G03*
X14500Y240363I-1000J0D01*
G01*
X8500D02*
G03*
X7500Y239363I0J-1000D01*
G01*
X36500Y208000D02*
G03*
X41500Y203000I5000J0D01*
G01*
Y213000D02*
G03*
X36500Y208000I0J-5000D01*
G01*
X56500D02*
G03*
X51500Y213000I-5000J0D01*
G01*
Y203000D02*
G03*
X56500Y208000I0J5000D01*
G01*
X36500Y196500D02*
G03*
X41500Y191500I5000J0D01*
G01*
Y201500D02*
G03*
X36500Y196500I0J-5000D01*
G01*
X56500D02*
G03*
X51500Y201500I-5000J0D01*
G01*
Y191500D02*
G03*
X56500Y196500I0J5000D01*
G01*
X42500Y189000D02*
G03*
X50500Y189000I4000J0D01*
G01*
X212446Y193670D02*
G03*
X212446Y193670I-7906J0D01*
G01*
X82562Y118137D02*
G03*
X83562Y117137I1000J0D01*
G01*
X89562D02*
G03*
X90562Y118137I0J1000D01*
G01*
Y138263D02*
G03*
X89562Y139263I-1000J0D01*
G01*
X83562D02*
G03*
X82562Y138263I0J-1000D01*
G01*
X133000Y142200D02*
G03*
X132000Y141200I0J-1000D01*
G01*
X140000D02*
G03*
X139000Y142200I-1000J0D01*
G01*
Y124200D02*
G03*
X140000Y125200I0J1000D01*
G01*
X132000D02*
G03*
X133000Y124200I1000J0D01*
G01*
X106043Y99500D02*
G03*
X106043Y99500I-9843J0D01*
G01*
X182637Y194000D02*
G03*
X182637Y194000I-9843J0D01*
G01*
X212500Y177463D02*
G03*
X211500Y178463I-1000J0D01*
G01*
X205500D02*
G03*
X204500Y177463I0J-1000D01*
G01*
Y157337D02*
G03*
X205500Y156337I1000J0D01*
G01*
X211500D02*
G03*
X212500Y157337I0J1000D01*
G01*
X201500Y116399D02*
G03*
X202500Y117399I0J1000D01*
G01*
X194500D02*
G03*
X195500Y116399I1000J0D01*
G01*
Y138525D02*
G03*
X194500Y137525I0J-1000D01*
G01*
X202500D02*
G03*
X201500Y138525I-1000J0D01*
G01*
X182500Y137563D02*
G03*
X181500Y138563I-1000J0D01*
G01*
X175500D02*
G03*
X174500Y137563I0J-1000D01*
G01*
Y117437D02*
G03*
X175500Y116437I1000J0D01*
G01*
X181500D02*
G03*
X182500Y117437I0J1000D01*
G01*
X182645Y171500D02*
G03*
X182645Y171500I-9843J0D01*
G01*
X124185Y192700D02*
G03*
X121579Y177000I3816J-8700D01*
G01*
X131816Y192700D02*
G03*
X124184Y192700I-3816J-8701D01*
G01*
X134421Y177000D02*
G03*
X131815Y192700I-6422J7000D01*
G01*
X71500Y154000D02*
G03*
X76500Y159000I0J5000D01*
G01*
X66500D02*
G03*
X71500Y154000I5000J0D01*
G01*
Y174000D02*
G03*
X66500Y169000I0J-5000D01*
G01*
X76500D02*
G03*
X71500Y174000I-5000J0D01*
G01*
X152302Y171437D02*
G03*
X153302Y170437I1000J0D01*
G01*
X159302D02*
G03*
X160302Y171437I0J1000D01*
G01*
Y191563D02*
G03*
X159302Y192563I-1000J0D01*
G01*
X153302D02*
G03*
X152302Y191563I0J-1000D01*
G01*
X88723Y81564D02*
G03*
X91329Y65863I6422J-7000D01*
G01*
X98959D02*
G03*
X101566Y81564I-3816J8700D01*
G01*
X91329Y65864D02*
G03*
X98961Y65864I3816J8701D01*
G01*
X151379Y83458D02*
G03*
X153985Y67758I6422J-7000D01*
G01*
X153984Y67758D02*
G03*
X161616Y67758I3816J8701D01*
G01*
X161615Y67758D02*
G03*
X164221Y83458I-3816J8700D01*
G01*
X110675Y224500D02*
G03*
X110675Y232500I0J4000D01*
G01*
X116339Y66291D02*
G03*
X124339Y66291I4000J0D01*
G01*
X167172Y57193D02*
G03*
X167172Y57193I-7906J0D01*
G01*
X87000Y188000D02*
G03*
X86000Y187000I0J-1000D01*
G01*
Y181000D02*
G03*
X87000Y180000I1000J0D01*
G01*
X103000D02*
G03*
X104000Y181000I0J1000D01*
G01*
Y187000D02*
G03*
X103000Y188000I-1000J0D01*
G01*
X140359Y46295D02*
G03*
X145359Y41295I5000J0D01*
G01*
D02*
G03*
X150359Y46295I0J5000D01*
G01*
Y56295D02*
G03*
X145359Y61295I-5000J0D01*
G01*
D02*
G03*
X140359Y56295I0J-5000D01*
G01*
X99200Y56363D02*
G03*
X98200Y57363I-1000J0D01*
G01*
Y35237D02*
G03*
X99200Y36237I0J1000D01*
G01*
X92200Y57363D02*
G03*
X91200Y56363I0J-1000D01*
G01*
Y36237D02*
G03*
X92200Y35237I1000J0D01*
G01*
X81200Y52354D02*
X81700Y51854D01*
X88700D02*
X89200Y52354D01*
X81200Y40228D02*
X81700Y40728D01*
X88700D02*
X89200Y40228D01*
X81200Y52354D02*
Y56354D01*
X89200Y52354D02*
Y56354D01*
X81200Y36228D02*
Y40228D01*
X89200Y36228D02*
Y40228D01*
X81700Y40728D02*
Y51854D01*
X88700Y40728D02*
Y51854D01*
X82200Y57354D02*
X88200D01*
X82200Y35228D02*
X88200D01*
X137808Y71719D02*
X140273Y71747D01*
X139025Y70461D02*
Y72961D01*
X123000Y194510D02*
X133000D01*
X125500Y204510D02*
X133000D01*
X123000D02*
X125500D01*
X103000Y119200D02*
X109000D01*
X102000Y120200D02*
Y136200D01*
X110000Y120200D02*
Y136200D01*
X103000Y137200D02*
X109000D01*
X93273Y137189D02*
X99273D01*
X100273Y120189D02*
Y136189D01*
X92273Y120189D02*
Y136189D01*
X93273Y119189D02*
X99273D01*
X183618Y118394D02*
Y146606D01*
Y118394D02*
X193382D01*
Y146606D01*
X183618D02*
X193382D01*
X122975Y142200D02*
X128974D01*
X129974Y125200D02*
Y141200D01*
X121975Y125200D02*
Y141200D01*
X122975Y124200D02*
X128974D01*
X52063Y117500D02*
X52563Y118000D01*
X52063Y110500D02*
X52563Y110000D01*
X40437Y118000D02*
X40937Y117500D01*
X40437Y110000D02*
X40937Y110500D01*
X52563Y118000D02*
X56563D01*
X52563Y110000D02*
X56563D01*
X36437Y118000D02*
X40437D01*
X36437Y110000D02*
X40437D01*
X40937Y117500D02*
X52063D01*
X40937Y110500D02*
X52063D01*
X57563Y111000D02*
Y117000D01*
X35437Y111000D02*
Y117000D01*
Y121000D02*
Y127000D01*
X57563Y121000D02*
Y127000D01*
X40937Y120500D02*
X52063D01*
X40937Y127500D02*
X52063D01*
X36437Y120000D02*
X40437D01*
X36437Y128000D02*
X40437D01*
X52563Y120000D02*
X56563D01*
X52563Y128000D02*
X56563D01*
X40437Y120000D02*
X40937Y120500D01*
X40437Y128000D02*
X40937Y127500D01*
X52063Y120500D02*
X52563Y120000D01*
X52063Y127500D02*
X52563Y128000D01*
X52063Y137500D02*
X52563Y138000D01*
X52063Y130500D02*
X52563Y130000D01*
X40437Y138000D02*
X40937Y137500D01*
X40437Y130000D02*
X40937Y130500D01*
X52563Y138000D02*
X56563D01*
X52563Y130000D02*
X56563D01*
X36437Y138000D02*
X40437D01*
X36437Y130000D02*
X40437D01*
X40937Y137500D02*
X52063D01*
X40937Y130500D02*
X52063D01*
X57563Y131000D02*
Y137000D01*
X35437Y131000D02*
Y137000D01*
X52063Y147500D02*
X52563Y148000D01*
X52063Y140500D02*
X52563Y140000D01*
X40437Y148000D02*
X40937Y147500D01*
X40437Y140000D02*
X40937Y140500D01*
X52563Y148000D02*
X56563D01*
X52563Y140000D02*
X56563D01*
X36437Y148000D02*
X40437D01*
X36437Y140000D02*
X40437D01*
X40937Y147500D02*
X52063D01*
X40937Y140500D02*
X52063D01*
X57563Y141000D02*
Y147000D01*
X35437Y141000D02*
Y147000D01*
X186600Y160790D02*
Y173632D01*
X59150Y90200D02*
Y92800D01*
X57850Y91500D02*
X60350D01*
X36900Y90200D02*
Y92800D01*
X35600Y91500D02*
X38100D01*
X22100Y133500D02*
X24600D01*
X23400Y132200D02*
Y134800D01*
X16382Y139894D02*
Y168106D01*
X6618D02*
X16382D01*
X6618Y139894D02*
Y168106D01*
Y139894D02*
X16382D01*
X17551Y165063D02*
X18051Y164563D01*
X25051D02*
X25551Y165063D01*
X17551Y152937D02*
X18051Y153437D01*
X25051D02*
X25551Y152937D01*
X17551Y165063D02*
Y169063D01*
X25551Y165063D02*
Y169063D01*
X17551Y148937D02*
Y152937D01*
X25551Y148937D02*
Y152937D01*
X18051Y153437D02*
Y164563D01*
X25051Y153437D02*
Y164563D01*
X18551Y170063D02*
X24551D01*
X18551Y147937D02*
X24551D01*
X16669Y179894D02*
Y208106D01*
Y179894D02*
X26433D01*
Y208106D01*
X16669D02*
X26433D01*
X7500Y195063D02*
X8000Y194563D01*
X15000D02*
X15500Y195063D01*
X7500Y182937D02*
X8000Y183437D01*
X15000D02*
X15500Y182937D01*
X7500Y195063D02*
Y199063D01*
X15500Y195063D02*
Y199063D01*
X7500Y178937D02*
Y182937D01*
X15500Y178937D02*
Y182937D01*
X8000Y183437D02*
Y194563D01*
X15000Y183437D02*
Y194563D01*
X8500Y200063D02*
X14500D01*
X8500Y177937D02*
X14500D01*
X7500Y235363D02*
X8000Y234863D01*
X15000D02*
X15500Y235363D01*
X7500Y223237D02*
X8000Y223737D01*
X15000D02*
X15500Y223237D01*
X7500Y235363D02*
Y239363D01*
X15500Y235363D02*
Y239363D01*
X7500Y219237D02*
Y223237D01*
X15500Y219237D02*
Y223237D01*
X8000Y223737D02*
Y234863D01*
X15000Y223737D02*
Y234863D01*
X8500Y240363D02*
X14500D01*
X8500Y218237D02*
X14500D01*
X41500Y213000D02*
X44000D01*
X51500D01*
X41500Y203000D02*
X51500D01*
X41500Y201500D02*
X44000D01*
X51500D01*
X41500Y191500D02*
X51500D01*
X58000Y149000D02*
Y189000D01*
X50500D02*
X58000D01*
X35000D02*
X42500D01*
X35000Y149000D02*
Y189000D01*
Y149000D02*
X58000D01*
X207625Y187612D02*
Y190112D01*
X206408Y188870D02*
X208873Y188898D01*
X82562Y134263D02*
X83062Y133763D01*
X90062D02*
X90562Y134263D01*
X82562Y122137D02*
X83062Y122637D01*
X90062D02*
X90562Y122137D01*
X82562Y134263D02*
Y138263D01*
X90562Y134263D02*
Y138263D01*
X82562Y118137D02*
Y122137D01*
X90562Y118137D02*
Y122137D01*
X83062Y122637D02*
Y133763D01*
X90062Y122637D02*
Y133763D01*
X83562Y139263D02*
X89562D01*
X83562Y117137D02*
X89562D01*
X133000Y142200D02*
X139000D01*
X140000Y125200D02*
Y141200D01*
X132000Y125200D02*
Y141200D01*
X133000Y124200D02*
X139000D01*
X90400Y104900D02*
X93000D01*
X91700Y103600D02*
Y106100D01*
X160984Y205500D02*
Y215500D01*
X180334Y205500D02*
Y215500D01*
X160984D02*
X164984D01*
X161034Y205500D02*
X180334D01*
X164384Y215500D02*
X180334D01*
X178194Y197200D02*
Y199800D01*
X176894Y198500D02*
X179394D01*
X212000Y161837D02*
X212500Y161337D01*
X204500D02*
X205000Y161837D01*
X212000Y172963D02*
X212500Y173463D01*
X204500D02*
X205000Y172963D01*
X212500Y157337D02*
Y161337D01*
X204500Y157337D02*
Y161337D01*
X212500Y173463D02*
Y177463D01*
X204500Y173463D02*
Y177463D01*
X212000Y161837D02*
Y172963D01*
X205000Y161837D02*
Y172963D01*
X205500Y156337D02*
X211500D01*
X205500Y178463D02*
X211500D01*
X111894Y118108D02*
X140106D01*
X111894Y108344D02*
Y118108D01*
Y108344D02*
X140106D01*
Y118108D01*
X213382Y118309D02*
Y146521D01*
X203618D02*
X213382D01*
X203618Y118309D02*
Y146521D01*
Y118309D02*
X213382D01*
X195500Y138525D02*
X201500D01*
X195500Y116399D02*
X201500D01*
X195000Y121899D02*
Y133025D01*
X202000Y121899D02*
Y133025D01*
X194500Y133525D02*
Y137525D01*
X202500Y133525D02*
Y137525D01*
X194500Y117399D02*
Y121399D01*
X202500Y117399D02*
Y121399D01*
X194500Y133525D02*
X195000Y133025D01*
X202000D02*
X202500Y133525D01*
X194500Y121399D02*
X195000Y121899D01*
X202000D02*
X202500Y121399D01*
X182000Y121937D02*
X182500Y121437D01*
X174500D02*
X175000Y121937D01*
X182000Y133063D02*
X182500Y133563D01*
X174500D02*
X175000Y133063D01*
X182500Y117437D02*
Y121437D01*
X174500Y117437D02*
Y121437D01*
X182500Y133563D02*
Y137563D01*
X174500Y133563D02*
Y137563D01*
X182000Y121937D02*
Y133063D01*
X175000Y121937D02*
Y133063D01*
X175500Y116437D02*
X181500D01*
X175500Y138563D02*
X181500D01*
X167402Y165700D02*
Y168300D01*
X166202Y167000D02*
X168702D01*
X121579Y177000D02*
X134421D01*
X66500Y159000D02*
Y161500D01*
Y169000D01*
X76500Y159000D02*
Y169000D01*
X152302Y187563D02*
X152802Y187063D01*
X159802D02*
X160302Y187563D01*
X152302Y175437D02*
X152802Y175937D01*
X159802D02*
X160302Y175437D01*
X152302Y187563D02*
Y191563D01*
X160302Y187563D02*
Y191563D01*
X152302Y171437D02*
Y175437D01*
X160302Y171437D02*
Y175437D01*
X152802Y175937D02*
Y187063D01*
X159802Y175937D02*
Y187063D01*
X153302Y192563D02*
X159302D01*
X153302Y170437D02*
X159302D01*
X88723Y81564D02*
X101566D01*
X151379Y83458D02*
X164221D01*
X110675Y232500D02*
Y240000D01*
Y217000D02*
Y224500D01*
X130675Y217000D02*
Y240000D01*
X110675Y217000D02*
X130675D01*
X110675Y240000D02*
X130675D01*
X131839Y26291D02*
Y66291D01*
X124339D02*
X131839D01*
X108839D02*
X116339D01*
X108839Y26291D02*
Y66291D01*
Y26291D02*
X131839D01*
X162824Y60278D02*
X165324D01*
X164038Y61526D02*
X164066Y59061D01*
X86000Y181000D02*
Y187000D01*
X87000Y188000D02*
X103000D01*
X87000Y180000D02*
X103000D01*
X104000Y181000D02*
Y187000D01*
X140359Y46295D02*
Y56295D01*
X150359Y46295D02*
Y53795D01*
Y56295D01*
X99200Y52363D02*
Y56363D01*
X98700Y51863D02*
X99200Y52363D01*
X92200Y57363D02*
X98200D01*
X98700Y40737D02*
X99200Y40237D01*
Y36237D02*
Y40237D01*
X98700Y40737D02*
Y51863D01*
X92200Y35237D02*
X98200D01*
X91700Y40737D02*
Y51863D01*
X91200Y52363D02*
Y56363D01*
Y52363D02*
X91700Y51863D01*
X91200Y40237D02*
X91700Y40737D01*
X91200Y36237D02*
Y40237D01*
X135333Y81966D02*
X135000Y82299D01*
X134333D01*
X134000Y81966D01*
Y80633D01*
X134333Y80300D01*
X135000D01*
X135333Y80633D01*
X137332Y82299D02*
X135999D01*
Y81300D01*
X136666Y81633D01*
X136999D01*
X137332Y81300D01*
Y80633D01*
X136999Y80300D01*
X136333D01*
X135999Y80633D01*
X198889Y167783D02*
X200222D01*
X200555Y168116D01*
Y168783D01*
X200222Y169116D01*
X198889D01*
X198556Y168783D01*
Y168116D01*
X199222Y168450D02*
X198556Y167783D01*
Y168116D02*
X198889Y167783D01*
X198556Y165784D02*
Y167117D01*
X199889Y165784D01*
X200222D01*
X200555Y166117D01*
Y166783D01*
X200222Y167117D01*
X117132Y99970D02*
Y97970D01*
X118131D01*
X118465Y98304D01*
Y99637D01*
X118131Y99970D01*
X117132D01*
X120131Y97970D02*
Y99970D01*
X119131Y98970D01*
X120464D01*
X132235Y99825D02*
Y97826D01*
X133235D01*
X133568Y98159D01*
Y99492D01*
X133235Y99825D01*
X132235D01*
X134234Y99492D02*
X134568Y99825D01*
X135234D01*
X135567Y99492D01*
Y99159D01*
X135234Y98826D01*
X134901D01*
X135234D01*
X135567Y98492D01*
Y98159D01*
X135234Y97826D01*
X134568D01*
X134234Y98159D01*
X26166Y87667D02*
X26499Y88000D01*
Y88667D01*
X26166Y89000D01*
X24833D01*
X24500Y88667D01*
Y88000D01*
X24833Y87667D01*
X24500Y87001D02*
Y86334D01*
Y86667D01*
X26499D01*
X26166Y87001D01*
Y85334D02*
X26499Y85001D01*
Y84335D01*
X26166Y84002D01*
X25833D01*
X25500Y84335D01*
Y84668D01*
Y84335D01*
X25166Y84002D01*
X24833D01*
X24500Y84335D01*
Y85001D01*
X24833Y85334D01*
X203084Y199336D02*
X202750Y199669D01*
X202084D01*
X201751Y199336D01*
Y198003D01*
X202084Y197670D01*
X202750D01*
X203084Y198003D01*
X203750Y197670D02*
X204417D01*
X204083D01*
Y199669D01*
X203750Y199336D01*
X205416Y198003D02*
X205750Y197670D01*
X206416D01*
X206749Y198003D01*
Y199336D01*
X206416Y199669D01*
X205750D01*
X205416Y199336D01*
Y199003D01*
X205750Y198669D01*
X206749D01*
X48666Y87667D02*
X48999Y88000D01*
Y88667D01*
X48666Y89000D01*
X47333D01*
X47000Y88667D01*
Y88000D01*
X47333Y87667D01*
X47000Y87001D02*
Y86334D01*
Y86667D01*
X48999D01*
X48666Y87001D01*
X47000Y84335D02*
X48999D01*
X48000Y85334D01*
Y84002D01*
X124311Y188415D02*
Y190414D01*
X125310D01*
X125644Y190081D01*
Y189415D01*
X125310Y189082D01*
X124311D01*
X124977D02*
X125644Y188415D01*
X127643Y190414D02*
X126310D01*
Y188415D01*
X127643D01*
X126310Y189415D02*
X126977D01*
X129642Y190081D02*
X129309Y190414D01*
X128643D01*
X128309Y190081D01*
Y188748D01*
X128643Y188415D01*
X129309D01*
X129642Y188748D01*
Y189415D01*
X128976D01*
X131642Y188415D02*
X130309D01*
X131642Y189748D01*
Y190081D01*
X131308Y190414D01*
X130642D01*
X130309Y190081D01*
X95146Y68397D02*
Y69730D01*
X94813Y70063D01*
X94146D01*
X93813Y69730D01*
Y68397D01*
X94146Y68063D01*
X94813D01*
X94480Y68730D02*
X95146Y68063D01*
X94813D02*
X95146Y68397D01*
X95812Y68063D02*
X96479D01*
X96146D01*
Y70063D01*
X95812Y69730D01*
X154784Y70125D02*
Y72124D01*
X155784D01*
X156117Y71791D01*
Y71125D01*
X155784Y70791D01*
X154784D01*
X155450D02*
X156117Y70125D01*
X158116Y72124D02*
X156783D01*
Y70125D01*
X158116D01*
X156783Y71125D02*
X157450D01*
X160116Y71791D02*
X159783Y72124D01*
X159116D01*
X158783Y71791D01*
Y70458D01*
X159116Y70125D01*
X159783D01*
X160116Y70458D01*
Y71125D01*
X159449D01*
X160782Y70125D02*
X161449D01*
X161115D01*
Y72124D01*
X160782Y71791D01*
X154932Y57920D02*
X155265Y58253D01*
Y58919D01*
X154932Y59253D01*
X153599D01*
X153266Y58919D01*
Y58253D01*
X153599Y57920D01*
X155265Y55920D02*
X154932Y56587D01*
X154265Y57253D01*
X153599D01*
X153266Y56920D01*
Y56254D01*
X153599Y55920D01*
X153932D01*
X154265Y56254D01*
Y57253D01*
D11*
X113358Y102671D02*
G03*
X115250Y93242I5661J-3768D01*
G01*
X113358Y102671D02*
G03*
X115250Y93242I5661J-3768D01*
G01*
X123758Y98871D02*
G03*
X123758Y98871I-5000J0D01*
G01*
D02*
G03*
X123758Y98871I-5000J0D01*
G01*
X122321Y93242D02*
G03*
X113358Y102671I-3473J5674D01*
G01*
X122321Y93242D02*
G03*
X113358Y102671I-3473J5674D01*
G01*
X139208Y95071D02*
G03*
X137316Y104500I-5661J3768D01*
G01*
X139208Y95071D02*
G03*
X137316Y104500I-5661J3768D01*
G01*
X138808Y98871D02*
G03*
X138808Y98871I-5000J0D01*
G01*
D02*
G03*
X138808Y98871I-5000J0D01*
G01*
X130245Y104500D02*
G03*
X139208Y95071I3473J-5674D01*
G01*
X130245Y104500D02*
G03*
X139208Y95071I3473J-5674D01*
G01*
X115250Y93242D02*
X122321D01*
X114858Y93571D02*
X122758D01*
X130245Y104500D02*
X137316D01*
X129808Y104171D02*
X137708D01*
X156309Y15563D02*
Y20563D01*
X166309Y15563D02*
Y20563D01*
X156309Y5564D02*
Y10564D01*
X166309Y5564D02*
Y10564D01*
X158809Y23064D02*
X163809D01*
X158809Y3063D02*
X163809D01*
X156309Y20563D02*
X158809Y23064D01*
X163809D02*
X166309Y20563D01*
X156309Y10564D02*
X158809Y13063D01*
X156309Y5564D02*
X158809Y3063D01*
X163809Y13063D02*
X166309Y15563D01*
X163809Y3063D02*
X166309Y5564D01*
X163809Y13063D02*
X166309Y10564D01*
X156309Y15563D02*
X158809Y13063D01*
D12*
X77558Y2893D02*
Y39507D01*
X59842D02*
X77558D01*
X59842Y2893D02*
Y39507D01*
Y2893D02*
X77558D01*
X131862Y332848D02*
X148422D01*
Y344462D01*
Y332848D02*
X193304D01*
X148422Y344462D02*
X193304D01*
Y332848D02*
Y344462D01*
Y332848D02*
X209862D01*
Y251746D02*
Y332848D01*
X187594Y251746D02*
X209862D01*
X154130D02*
X187594D01*
Y239935D02*
Y251746D01*
X154130Y239935D02*
X187594D01*
X154130D02*
Y251746D01*
X131862D02*
X154130D01*
X131862D02*
Y332848D01*
X22636D02*
X39195D01*
Y344462D01*
Y332848D02*
X84077D01*
X39195Y344462D02*
X84077D01*
Y332848D02*
Y344462D01*
Y332848D02*
X100636D01*
Y251746D02*
Y332848D01*
X78368Y251746D02*
X100636D01*
X44904D02*
X78368D01*
Y239935D02*
Y251746D01*
X44904Y239935D02*
X78368D01*
X44904D02*
Y251746D01*
X22636D02*
X44904D01*
X22636D02*
Y332848D01*
X114711Y1281D02*
Y23920D01*
X85577Y1281D02*
X114711D01*
X85577D02*
Y23920D01*
X114711D01*
X147457Y1347D02*
Y23985D01*
X118323D02*
X147457D01*
X118323Y1347D02*
X147457D01*
X118323D02*
Y23985D01*
X157361Y330098D02*
X155362D01*
X154362Y329098D01*
Y325100D01*
X155362Y324100D01*
X157361D01*
X158361Y325100D01*
Y329098D01*
X157361Y330098D01*
X160361D02*
Y325100D01*
X161360Y324100D01*
X163360D01*
X164359Y325100D01*
Y330098D01*
X166359D02*
X170357D01*
X168358D01*
Y324100D01*
X172357D02*
Y330098D01*
X175356D01*
X176355Y329098D01*
Y327099D01*
X175356Y326099D01*
X172357D01*
X178355Y330098D02*
Y325100D01*
X179354Y324100D01*
X181354D01*
X182353Y325100D01*
Y330098D01*
X184353D02*
X188352D01*
X186352D01*
Y324100D01*
X47636Y330098D02*
X49635D01*
X48636D01*
Y324100D01*
X47636D01*
X49635D01*
X52634D02*
Y330098D01*
X56633Y324100D01*
Y330098D01*
X58632Y324100D02*
Y330098D01*
X61632D01*
X62631Y329098D01*
Y327099D01*
X61632Y326099D01*
X58632D01*
X64631Y330098D02*
Y325100D01*
X65630Y324100D01*
X67629D01*
X68629Y325100D01*
Y330098D01*
X70629D02*
X74627D01*
X72628D01*
Y324100D01*
D13*
X95026Y1508D02*
Y3476D01*
X105262D01*
Y1508D02*
Y3476D01*
X127772Y3542D02*
X138008D01*
Y1574D02*
Y3542D01*
X127772Y1574D02*
Y3542D01*
D14*
X80827Y189484D02*
Y247358D01*
Y189484D02*
X109173D01*
Y247358D01*
X80827D02*
X109173D01*
X57999Y26700D02*
X54000D01*
Y24701D01*
X54666Y24034D01*
X55333D01*
X55999Y24701D01*
Y26700D01*
Y24701D01*
X56666Y24034D01*
X57332D01*
X57999Y24701D01*
Y26700D01*
X54000Y22701D02*
X57999D01*
Y20702D01*
X57332Y20035D01*
X55999D01*
X55333Y20702D01*
Y22701D01*
Y21368D02*
X54000Y20035D01*
X57999Y18703D02*
Y17370D01*
Y18036D01*
X54000D01*
Y18703D01*
Y17370D01*
X57332Y12705D02*
X57999Y13371D01*
Y14704D01*
X57332Y15370D01*
X54666D01*
X54000Y14704D01*
Y13371D01*
X54666Y12705D01*
X55999D01*
Y14037D01*
X57999Y11372D02*
X54000D01*
X55999D01*
Y8706D01*
X57999D01*
X54000D01*
X57999Y7373D02*
Y4707D01*
Y6040D01*
X54000D01*
X127366Y200832D02*
X126699Y201499D01*
X125366D01*
X124700Y200832D01*
Y198167D01*
X125366Y197500D01*
X126699D01*
X127366Y198167D01*
X128699Y200832D02*
X129365Y201499D01*
X130698D01*
X131365Y200832D01*
Y200166D01*
X130698Y199499D01*
X131365Y198833D01*
Y198167D01*
X130698Y197500D01*
X129365D01*
X128699Y198167D01*
Y198833D01*
X129365Y199499D01*
X128699Y200166D01*
Y200832D01*
X129365Y199499D02*
X130698D01*
X190032Y134434D02*
X190699Y135101D01*
Y136433D01*
X190032Y137100D01*
X187366D01*
X186700Y136433D01*
Y135101D01*
X187366Y134434D01*
X186700Y133101D02*
Y131768D01*
Y132435D01*
X190699D01*
X190032Y133101D01*
Y129769D02*
X190699Y129103D01*
Y127770D01*
X190032Y127103D01*
X189366D01*
X188699Y127770D01*
X188033Y127103D01*
X187366D01*
X186700Y127770D01*
Y129103D01*
X187366Y129769D01*
X188033D01*
X188699Y129103D01*
X189366Y129769D01*
X190032D01*
X188699Y129103D02*
Y127770D01*
X168332Y193915D02*
X168999Y194582D01*
Y195915D01*
X168332Y196581D01*
X165666D01*
X165000Y195915D01*
Y194582D01*
X165666Y193915D01*
X165000Y192582D02*
Y191250D01*
Y191916D01*
X168999D01*
X168332Y192582D01*
X43000Y132000D02*
Y135999D01*
X44999D01*
X45666Y135332D01*
Y133999D01*
X44999Y133333D01*
X43000D01*
X44333D02*
X45666Y132000D01*
X46999Y135332D02*
X47665Y135999D01*
X48998D01*
X49665Y135332D01*
Y134666D01*
X48998Y133999D01*
X48332D01*
X48998D01*
X49665Y133333D01*
Y132667D01*
X48998Y132000D01*
X47665D01*
X46999Y132667D01*
X43000Y142000D02*
Y145999D01*
X44999D01*
X45666Y145332D01*
Y143999D01*
X44999Y143333D01*
X43000D01*
X44333D02*
X45666Y142000D01*
X49665D02*
X46999D01*
X49665Y144666D01*
Y145332D01*
X48998Y145999D01*
X47665D01*
X46999Y145332D01*
X13332Y129834D02*
X13999Y130501D01*
Y131834D01*
X13332Y132500D01*
X10667D01*
X10000Y131834D01*
Y130501D01*
X10667Y129834D01*
X10000Y126502D02*
X13999D01*
X11999Y128501D01*
Y125836D01*
X176350Y132453D02*
X180349D01*
Y130454D01*
X179682Y129787D01*
X178349D01*
X177683Y130454D01*
Y132453D01*
Y131120D02*
X176350Y129787D01*
Y128454D02*
Y127122D01*
Y127788D01*
X180349D01*
X179682Y128454D01*
Y125122D02*
X180349Y124456D01*
Y123123D01*
X179682Y122456D01*
X179016D01*
X178349Y123123D01*
Y123789D01*
Y123123D01*
X177683Y122456D01*
X177016D01*
X176350Y123123D01*
Y124456D01*
X177016Y125122D01*
X9500Y192437D02*
X13499D01*
Y190438D01*
X12832Y189771D01*
X11499D01*
X10833Y190438D01*
Y192437D01*
Y191104D02*
X9500Y189771D01*
X12832Y188438D02*
X13499Y187772D01*
Y186439D01*
X12832Y185773D01*
X12166D01*
X11499Y186439D01*
X10833Y185773D01*
X10166D01*
X9500Y186439D01*
Y187772D01*
X10166Y188438D01*
X10833D01*
X11499Y187772D01*
X12166Y188438D01*
X12832D01*
X11499Y187772D02*
Y186439D01*
X206385Y172400D02*
X210384D01*
Y170401D01*
X209717Y169734D01*
X208384D01*
X207718Y170401D01*
Y172400D01*
Y171067D02*
X206385Y169734D01*
Y168401D02*
Y167068D01*
Y167735D01*
X210384D01*
X209717Y168401D01*
X206385Y163070D02*
X210384D01*
X208384Y165069D01*
Y162403D01*
X41500Y122000D02*
Y125999D01*
X43499D01*
X44166Y125332D01*
Y123999D01*
X43499Y123333D01*
X41500D01*
X42833D02*
X44166Y122000D01*
X45499D02*
X46832D01*
X46165D01*
Y125999D01*
X45499Y125332D01*
X48831D02*
X49497Y125999D01*
X50830D01*
X51497Y125332D01*
Y122667D01*
X50830Y122000D01*
X49497D01*
X48831Y122667D01*
Y125332D01*
X9500Y232674D02*
X13499D01*
Y230675D01*
X12832Y230009D01*
X11499D01*
X10833Y230675D01*
Y232674D01*
Y231342D02*
X9500Y230009D01*
X13499Y226010D02*
X12832Y227343D01*
X11499Y228676D01*
X10166D01*
X9500Y228009D01*
Y226676D01*
X10166Y226010D01*
X10833D01*
X11499Y226676D01*
Y228676D01*
X19595Y162500D02*
X23593D01*
Y160501D01*
X22927Y159834D01*
X21594D01*
X20928Y160501D01*
Y162500D01*
Y161167D02*
X19595Y159834D01*
X23593Y158501D02*
Y155835D01*
X22927D01*
X20261Y158501D01*
X19595D01*
X43000Y111915D02*
Y115914D01*
X44999D01*
X45666Y115248D01*
Y113915D01*
X44999Y113248D01*
X43000D01*
X44333D02*
X45666Y111915D01*
X46999Y112582D02*
X47665Y111915D01*
X48998D01*
X49665Y112582D01*
Y115248D01*
X48998Y115914D01*
X47665D01*
X46999Y115248D01*
Y114581D01*
X47665Y113915D01*
X49665D01*
X88500Y123200D02*
X84501D01*
Y125199D01*
X85168Y125866D01*
X86501D01*
X87167Y125199D01*
Y123200D01*
Y124533D02*
X88500Y125866D01*
Y127199D02*
Y128532D01*
Y127865D01*
X84501D01*
X85168Y127199D01*
X88500Y130531D02*
Y131864D01*
Y131197D01*
X84501D01*
X85168Y130531D01*
X196500Y132415D02*
X200499D01*
Y130416D01*
X199832Y129750D01*
X198499D01*
X197833Y130416D01*
Y132415D01*
Y131082D02*
X196500Y129750D01*
Y128417D02*
Y127084D01*
Y127750D01*
X200499D01*
X199832Y128417D01*
X196500Y122418D02*
Y125084D01*
X199166Y122418D01*
X199832D01*
X200499Y123085D01*
Y124418D01*
X199832Y125084D01*
X41225Y170999D02*
X42557D01*
X41891D01*
Y167000D01*
X41225D01*
X42557D01*
X47223Y170332D02*
X46556Y170999D01*
X45223D01*
X44557Y170332D01*
Y167666D01*
X45223Y167000D01*
X46556D01*
X47223Y167666D01*
X48555Y167000D02*
X49889D01*
X49222D01*
Y170999D01*
X48555Y170332D01*
X98099Y129964D02*
X94100D01*
Y127965D01*
X94766Y127298D01*
X97432D01*
X98099Y127965D01*
Y129964D01*
Y123300D02*
Y125965D01*
X96099D01*
X96766Y124632D01*
Y123966D01*
X96099Y123300D01*
X94766D01*
X94100Y123966D01*
Y125299D01*
X94766Y125965D01*
X108099Y133700D02*
X104100D01*
Y131701D01*
X104766Y131034D01*
X107432D01*
X108099Y131701D01*
Y133700D01*
Y127035D02*
X107432Y128368D01*
X106099Y129701D01*
X104766D01*
X104100Y129035D01*
Y127702D01*
X104766Y127035D01*
X105433D01*
X106099Y127702D01*
Y129701D01*
X137999Y134600D02*
X134000D01*
Y132601D01*
X134667Y131934D01*
X137332D01*
X137999Y132601D01*
Y134600D01*
Y130601D02*
Y127936D01*
X137332D01*
X134667Y130601D01*
X134000D01*
X128009Y138700D02*
X124010D01*
Y136701D01*
X124677Y136034D01*
X127343D01*
X128009Y136701D01*
Y138700D01*
X127343Y134701D02*
X128009Y134035D01*
Y132702D01*
X127343Y132036D01*
X126676D01*
X126010Y132702D01*
X125343Y132036D01*
X124677D01*
X124010Y132702D01*
Y134035D01*
X124677Y134701D01*
X125343D01*
X126010Y134035D01*
X126676Y134701D01*
X127343D01*
X126010Y134035D02*
Y132702D01*
X169000Y212499D02*
Y208500D01*
X170999D01*
X171666Y209166D01*
Y211832D01*
X170999Y212499D01*
X169000D01*
X172999Y208500D02*
X174332D01*
X173665D01*
Y212499D01*
X172999Y211832D01*
X93831Y95532D02*
X93164Y96199D01*
X91831D01*
X91165Y95532D01*
Y92866D01*
X91831Y92200D01*
X93164D01*
X93831Y92866D01*
X95164Y92200D02*
X96496D01*
X95830D01*
Y96199D01*
X95164Y95532D01*
X101162Y96199D02*
X98496D01*
Y94199D01*
X99829Y94866D01*
X100495D01*
X101162Y94199D01*
Y92866D01*
X100495Y92200D01*
X99162D01*
X98496Y92866D01*
X44166Y209358D02*
X43499Y210024D01*
X42166D01*
X41500Y209358D01*
Y206692D01*
X42166Y206026D01*
X43499D01*
X44166Y206692D01*
X45499Y206026D02*
X46832D01*
X46165D01*
Y210024D01*
X45499Y209358D01*
X51497Y206026D02*
X48831D01*
X51497Y208692D01*
Y209358D01*
X50830Y210024D01*
X49497D01*
X48831Y209358D01*
X12832Y154834D02*
X13499Y155501D01*
Y156834D01*
X12832Y157500D01*
X10166D01*
X9500Y156834D01*
Y155501D01*
X10166Y154834D01*
X9500Y153501D02*
Y152168D01*
Y152835D01*
X13499D01*
X12832Y153501D01*
Y150169D02*
X13499Y149503D01*
Y148170D01*
X12832Y147503D01*
X10166D01*
X9500Y148170D01*
Y149503D01*
X10166Y150169D01*
X12832D01*
X127919Y111588D02*
X128585Y110921D01*
X129918D01*
X130585Y111588D01*
Y114253D01*
X129918Y114920D01*
X128585D01*
X127919Y114253D01*
X126586Y114920D02*
X125253D01*
X125919D01*
Y110921D01*
X126586Y111588D01*
X120588Y110921D02*
X121921Y111588D01*
X123254Y112920D01*
Y114253D01*
X122587Y114920D01*
X121254D01*
X120588Y114253D01*
Y113587D01*
X121254Y112920D01*
X123254D01*
X45057Y197832D02*
X44391Y198499D01*
X43058D01*
X42392Y197832D01*
Y195167D01*
X43058Y194500D01*
X44391D01*
X45057Y195167D01*
X46390Y194500D02*
X47723D01*
X47057D01*
Y198499D01*
X46390Y197832D01*
X49723Y194500D02*
X51056D01*
X50389D01*
Y198499D01*
X49723Y197832D01*
X22832Y194711D02*
X23499Y195378D01*
Y196710D01*
X22832Y197377D01*
X20166D01*
X19500Y196710D01*
Y195378D01*
X20166Y194711D01*
Y193378D02*
X19500Y192712D01*
Y191379D01*
X20166Y190712D01*
X22832D01*
X23499Y191379D01*
Y192712D01*
X22832Y193378D01*
X22166D01*
X21499Y192712D01*
Y190712D01*
X209832Y134468D02*
X210499Y135134D01*
Y136467D01*
X209832Y137133D01*
X207166D01*
X206500Y136467D01*
Y135134D01*
X207166Y134468D01*
X206500Y133135D02*
Y131802D01*
Y132468D01*
X210499D01*
X209832Y133135D01*
X210499Y129803D02*
Y127137D01*
X209832D01*
X207166Y129803D01*
X206500D01*
X83184Y50191D02*
X87183D01*
Y48192D01*
X86516Y47525D01*
X85183D01*
X84517Y48192D01*
Y50191D01*
Y48858D02*
X83184Y47525D01*
Y44193D02*
X87183D01*
X85183Y46192D01*
Y43527D01*
X83891Y18740D02*
X79893D01*
Y16074D01*
X83891Y12076D02*
Y14742D01*
X79893D01*
Y12076D01*
X81892Y14742D02*
Y13409D01*
X83891Y10743D02*
X79893D01*
Y8743D01*
X80559Y8077D01*
X83225D01*
X83891Y8743D01*
Y10743D01*
X154300Y184500D02*
X158299D01*
Y182501D01*
X157632Y181834D01*
X156299D01*
X155633Y182501D01*
Y184500D01*
Y183167D02*
X154300Y181834D01*
Y180501D02*
Y179168D01*
Y179835D01*
X158299D01*
X157632Y180501D01*
X73040Y164932D02*
X73707Y165599D01*
Y166931D01*
X73040Y167598D01*
X70375D01*
X69708Y166931D01*
Y165599D01*
X70375Y164932D01*
X73040Y163599D02*
X73707Y162933D01*
Y161600D01*
X73040Y160933D01*
X72374D01*
X71707Y161600D01*
Y162266D01*
Y161600D01*
X71041Y160933D01*
X70375D01*
X69708Y161600D01*
Y162933D01*
X70375Y163599D01*
X179892Y172334D02*
X180558Y173001D01*
Y174334D01*
X179892Y175000D01*
X177226D01*
X176560Y174334D01*
Y173001D01*
X177226Y172334D01*
X176560Y168335D02*
Y171001D01*
X179225Y168335D01*
X179892D01*
X180558Y169002D01*
Y170335D01*
X179892Y171001D01*
X168393Y20563D02*
X172391D01*
X171059Y19230D01*
X172391Y17898D01*
X168393D01*
X172391Y14565D02*
Y15898D01*
X171725Y16565D01*
X169059D01*
X168393Y15898D01*
Y14565D01*
X169059Y13899D01*
X171725D01*
X172391Y14565D01*
Y12566D02*
X168393D01*
Y10567D01*
X169059Y9900D01*
X171725D01*
X172391Y10567D01*
Y12566D01*
Y5901D02*
Y8567D01*
X168393D01*
Y5901D01*
X170392Y8567D02*
Y7234D01*
X92750Y204499D02*
Y200500D01*
Y201833D01*
X95416Y204499D01*
X93416Y202499D01*
X95416Y200500D01*
X96749D02*
X98082D01*
X97415D01*
Y204499D01*
X96749Y203832D01*
X123999Y231001D02*
Y232334D01*
X123332Y233000D01*
X120667D01*
X120000Y232334D01*
Y231001D01*
X120667Y230334D01*
X123332D01*
X123999Y231001D01*
Y229001D02*
X120000D01*
X121333D01*
X123999Y226336D01*
X121999Y228335D01*
X120000Y226336D01*
Y225003D02*
Y223670D01*
Y224336D01*
X123999D01*
X123332Y225003D01*
X117393Y46062D02*
Y42730D01*
X118059Y42064D01*
X119392D01*
X120059Y42730D01*
Y46062D01*
X121391Y42064D02*
X122724D01*
X122058D01*
Y46062D01*
X121391Y45396D01*
X153092Y16098D02*
Y18764D01*
X151092D01*
Y17431D01*
Y18764D01*
X149093D01*
X152425Y12099D02*
X153092Y12765D01*
Y14098D01*
X152425Y14765D01*
X151759D01*
X151092Y14098D01*
Y12765D01*
X150426Y12099D01*
X149759D01*
X149093Y12765D01*
Y14098D01*
X149759Y14765D01*
X153092Y10766D02*
X149093D01*
X150426Y9433D01*
X149093Y8100D01*
X153092D01*
X93287Y50300D02*
X97285D01*
Y48301D01*
X96619Y47634D01*
X95286D01*
X94620Y48301D01*
Y50300D01*
Y48967D02*
X93287Y47634D01*
X97285Y43635D02*
Y46301D01*
X95286D01*
X95952Y44968D01*
Y44302D01*
X95286Y43635D01*
X93953D01*
X93287Y44302D01*
Y45635D01*
X93953Y46301D01*
X89750Y185999D02*
Y182000D01*
X91749D01*
X92416Y182667D01*
Y185332D01*
X91749Y185999D01*
X89750D01*
X96415Y182000D02*
X93749D01*
X96415Y184666D01*
Y185332D01*
X95748Y185999D01*
X94415D01*
X93749Y185332D01*
X146691Y51629D02*
X147357Y52295D01*
Y53628D01*
X146691Y54295D01*
X144025D01*
X143359Y53628D01*
Y52295D01*
X144025Y51629D01*
X147357Y50296D02*
Y47630D01*
X146691D01*
X144025Y50296D01*
X143359D01*
D15*
X106000Y123700D02*
D03*
X96273Y132689D02*
D03*
X125975Y128702D02*
D03*
X136000Y137700D02*
D03*
D16*
X163484Y210500D02*
D03*
D17*
X99500Y184000D02*
D03*
M02*
