G04*
G04 #@! TF.GenerationSoftware,Altium Limited,Altium Designer,19.0.9 (268)*
G04*
G04 Layer_Color=8388736*
%FSLAX25Y25*%
%MOIN*%
G70*
G01*
G75*
%ADD18R,0.05315X0.05315*%
%ADD19C,0.05315*%
%ADD20C,0.04922*%
%ADD21R,0.04922X0.04922*%
%ADD22C,0.05709*%
%ADD23R,0.05315X0.05315*%
%ADD24C,0.12008*%
%ADD25R,0.12008X0.12008*%
%ADD26R,0.07678X0.07678*%
%ADD27C,0.07678*%
%ADD28C,0.15355*%
%ADD29C,0.08859*%
%ADD30C,0.05591*%
%ADD31R,0.06497X0.06497*%
%ADD32C,0.06497*%
%ADD33R,0.06103X0.06103*%
%ADD34C,0.06103*%
%ADD35C,0.06591*%
%ADD36C,0.07191*%
%ADD37R,0.07191X0.07191*%
%ADD38C,0.05316*%
%ADD39R,0.04922X0.04922*%
%ADD40C,0.03591*%
D18*
X68700Y31200D02*
D03*
X91200Y99500D02*
D03*
X105000Y184000D02*
D03*
D19*
X68700Y21200D02*
D03*
Y11200D02*
D03*
X106000Y143200D02*
D03*
X96273Y113189D02*
D03*
X125975Y143200D02*
D03*
X193600Y177211D02*
D03*
Y167211D02*
D03*
Y157211D02*
D03*
X53750Y82000D02*
D03*
X31500D02*
D03*
X18000Y124000D02*
D03*
X136000Y123200D02*
D03*
X101200Y99500D02*
D03*
X172794Y189000D02*
D03*
X172802Y176500D02*
D03*
X118000Y184000D02*
D03*
X128000D02*
D03*
X138000D02*
D03*
X85145Y74563D02*
D03*
X105145D02*
D03*
X95144D02*
D03*
X147800Y76458D02*
D03*
X157800D02*
D03*
X167800D02*
D03*
X85000Y184000D02*
D03*
D20*
X85200Y61291D02*
D03*
Y31291D02*
D03*
X132000Y76519D02*
D03*
X31500Y114000D02*
D03*
X61500D02*
D03*
Y124000D02*
D03*
X31500D02*
D03*
X61500Y134000D02*
D03*
X31500D02*
D03*
X61500Y144000D02*
D03*
X31500D02*
D03*
X21551D02*
D03*
Y174000D02*
D03*
X11500D02*
D03*
Y204000D02*
D03*
Y214300D02*
D03*
Y244300D02*
D03*
X200600Y193670D02*
D03*
X86562Y113200D02*
D03*
Y143200D02*
D03*
X208500Y152400D02*
D03*
Y182400D02*
D03*
X198500Y142462D02*
D03*
Y112462D02*
D03*
X178500Y142500D02*
D03*
Y112500D02*
D03*
X156302Y166500D02*
D03*
Y196500D02*
D03*
X159266Y53253D02*
D03*
X95200Y61300D02*
D03*
Y31300D02*
D03*
D21*
X139880Y76519D02*
D03*
X208480Y193670D02*
D03*
D22*
X138000Y199510D02*
D03*
X118000D02*
D03*
X188500Y122500D02*
D03*
Y142500D02*
D03*
X11500Y164000D02*
D03*
Y144000D02*
D03*
X21551Y184000D02*
D03*
Y204000D02*
D03*
X36500Y208000D02*
D03*
X56500D02*
D03*
X36500Y196500D02*
D03*
X56500D02*
D03*
X116000Y113226D02*
D03*
X136000D02*
D03*
X208500Y142415D02*
D03*
Y122415D02*
D03*
X71500Y154000D02*
D03*
Y174000D02*
D03*
X145359Y41295D02*
D03*
Y61295D02*
D03*
D23*
X106000Y113200D02*
D03*
X96273Y143189D02*
D03*
X125975Y123200D02*
D03*
X53750Y92000D02*
D03*
X31500D02*
D03*
X18000Y134000D02*
D03*
X136000Y143200D02*
D03*
X172794Y199000D02*
D03*
X172802Y166500D02*
D03*
D24*
X96200Y162500D02*
D03*
X116200D02*
D03*
D25*
X136200D02*
D03*
D26*
X209000Y220500D02*
D03*
X63525Y101000D02*
D03*
X209000D02*
D03*
X63525Y220526D02*
D03*
D27*
X189000Y220500D02*
D03*
X169000D02*
D03*
X43525Y101000D02*
D03*
X23526D02*
D03*
X189000D02*
D03*
X169000D02*
D03*
X43525Y220526D02*
D03*
X23526D02*
D03*
D28*
X116250Y306900D02*
D03*
Y283278D02*
D03*
D29*
X138914Y292100D02*
D03*
X202812D02*
D03*
X138914Y317100D02*
D03*
X202812D02*
D03*
X138914Y267100D02*
D03*
X202812D02*
D03*
X29687Y292100D02*
D03*
X93585D02*
D03*
X29687Y317100D02*
D03*
X93585D02*
D03*
X29687Y267100D02*
D03*
X93585D02*
D03*
D30*
X61500Y154000D02*
D03*
Y164000D02*
D03*
Y184000D02*
D03*
Y174000D02*
D03*
X31500Y154000D02*
D03*
Y164000D02*
D03*
Y174000D02*
D03*
Y184000D02*
D03*
X115674Y213500D02*
D03*
X125674D02*
D03*
Y243500D02*
D03*
X115674D02*
D03*
X135339Y31291D02*
D03*
Y41291D02*
D03*
Y61291D02*
D03*
Y51291D02*
D03*
X105339Y31291D02*
D03*
Y41291D02*
D03*
Y51291D02*
D03*
Y61291D02*
D03*
D31*
X118758Y103871D02*
D03*
X133808Y93871D02*
D03*
D32*
X118758D02*
D03*
X133808Y103871D02*
D03*
D33*
X156334Y210500D02*
D03*
D34*
X184334D02*
D03*
D35*
X95144Y10564D02*
D03*
X105145D02*
D03*
X137890Y10629D02*
D03*
X127890D02*
D03*
D36*
X161309Y18064D02*
D03*
D37*
Y8063D02*
D03*
D38*
X85000Y193500D02*
D03*
Y213500D02*
D03*
Y223500D02*
D03*
Y233500D02*
D03*
X105000D02*
D03*
Y223500D02*
D03*
Y213500D02*
D03*
Y193500D02*
D03*
D39*
X159266Y61133D02*
D03*
D40*
X99800Y26500D02*
D03*
X78000D02*
D03*
X99000Y55500D02*
D03*
X126000Y129500D02*
D03*
X202000Y178900D02*
D03*
X144100Y50800D02*
D03*
Y68200D02*
D03*
X104900Y207300D02*
D03*
X105000Y199600D02*
D03*
X161500Y203000D02*
D03*
X153500Y33000D02*
D03*
X108225Y89000D02*
D03*
X126770D02*
D03*
X118000Y79238D02*
D03*
X112000Y73500D02*
D03*
X124500Y58588D02*
D03*
X68566Y93855D02*
D03*
X80358Y98674D02*
D03*
X87255Y89000D02*
D03*
X31500Y75500D02*
D03*
X53750D02*
D03*
X57573Y159100D02*
D03*
X58588Y108600D02*
D03*
X21551Y160000D02*
D03*
X21700Y168000D02*
D03*
X76900Y178755D02*
D03*
X110000Y179049D02*
D03*
X202300Y128800D02*
D03*
X178700Y125300D02*
D03*
X202096Y153800D02*
D03*
X152519Y89000D02*
D03*
X199000Y100500D02*
D03*
X183500Y105500D02*
D03*
X89000Y154000D02*
D03*
X148500Y192500D02*
D03*
X151000Y229500D02*
D03*
X115480Y21000D02*
D03*
X118000Y52478D02*
D03*
X94674Y220000D02*
D03*
X46500Y204612D02*
D03*
X38500Y179697D02*
D03*
X44500Y162000D02*
D03*
Y139009D02*
D03*
X26500D02*
D03*
X37500Y95764D02*
D03*
X34389Y105000D02*
D03*
X125500Y152500D02*
D03*
X125944Y108000D02*
D03*
X142508Y96500D02*
D03*
X142643Y152500D02*
D03*
X142598Y128800D02*
D03*
Y108000D02*
D03*
X80866Y189000D02*
D03*
X89381D02*
D03*
X98428D02*
D03*
X110000D02*
D03*
X142508Y179000D02*
D03*
X77000Y169090D02*
D03*
X89000Y168947D02*
D03*
X68500Y138000D02*
D03*
X80358D02*
D03*
X68566Y118000D02*
D03*
X80358D02*
D03*
X228700Y303800D02*
D03*
Y278800D02*
D03*
Y253800D02*
D03*
Y228800D02*
D03*
Y203800D02*
D03*
Y178800D02*
D03*
Y153800D02*
D03*
Y128800D02*
D03*
Y103800D02*
D03*
Y78800D02*
D03*
Y53800D02*
D03*
Y28800D02*
D03*
Y3800D02*
D03*
X203700Y328800D02*
D03*
Y303800D02*
D03*
Y278800D02*
D03*
Y253800D02*
D03*
Y228800D02*
D03*
Y203800D02*
D03*
Y78800D02*
D03*
Y53800D02*
D03*
Y28800D02*
D03*
Y3800D02*
D03*
X178700Y328800D02*
D03*
Y303800D02*
D03*
Y278800D02*
D03*
Y253800D02*
D03*
Y228800D02*
D03*
Y153800D02*
D03*
Y78800D02*
D03*
Y53800D02*
D03*
Y28800D02*
D03*
Y3800D02*
D03*
X153700Y328800D02*
D03*
Y303800D02*
D03*
Y278800D02*
D03*
Y253800D02*
D03*
Y178800D02*
D03*
Y153800D02*
D03*
Y128800D02*
D03*
Y103800D02*
D03*
Y3800D02*
D03*
X128700Y328800D02*
D03*
Y253800D02*
D03*
Y228800D02*
D03*
Y203800D02*
D03*
Y28800D02*
D03*
Y3800D02*
D03*
X103700Y328800D02*
D03*
Y303800D02*
D03*
Y278800D02*
D03*
Y253800D02*
D03*
Y153800D02*
D03*
Y128800D02*
D03*
Y3800D02*
D03*
X78700Y328800D02*
D03*
Y303800D02*
D03*
Y278800D02*
D03*
Y253800D02*
D03*
Y203800D02*
D03*
Y78800D02*
D03*
Y53800D02*
D03*
Y3800D02*
D03*
X53700Y328800D02*
D03*
Y303800D02*
D03*
Y278800D02*
D03*
Y253800D02*
D03*
Y228800D02*
D03*
Y178800D02*
D03*
Y128800D02*
D03*
Y53800D02*
D03*
Y28800D02*
D03*
Y3800D02*
D03*
X28700Y328800D02*
D03*
Y303800D02*
D03*
Y278800D02*
D03*
Y253800D02*
D03*
Y228800D02*
D03*
Y203800D02*
D03*
Y53800D02*
D03*
Y28800D02*
D03*
Y3800D02*
D03*
X3700Y303800D02*
D03*
Y278800D02*
D03*
Y253800D02*
D03*
Y228800D02*
D03*
Y203800D02*
D03*
Y178800D02*
D03*
Y153800D02*
D03*
Y128800D02*
D03*
Y103800D02*
D03*
Y78800D02*
D03*
Y53800D02*
D03*
Y28800D02*
D03*
Y3800D02*
D03*
M02*
