M48
;Layer_Color=9474304
;FILE_FORMAT=2:5
INCH,TZ
;TYPE=PLATED
T1F00S00C0.01575
T2F00S00C0.01800
T3F00S00C0.01969
T4F00S00C0.02362
T5F00S00C0.02756
T6F00S00C0.03150
T7F00S00C0.03200
T8F00S00C0.03543
T9F00S00C0.04000
T10F00S00C0.04331
T11F00S00C0.05512
T12F00S00C0.08661
T13F00S00C0.09843
%
T01
X85200Y31291
X95200Y31300
Y61300
X85200Y61291
X86562Y113200
X61500Y114000
Y124000
Y134000
Y144000
X86562Y143200
X178500Y142500
X198500Y142462
X208500Y152400
X198500Y112462
X178500Y112500
X159266Y61133
Y53253
X139880Y76519
X132000
X31500Y114000
Y124000
Y134000
Y144000
X21551
Y174000
X11500
Y204000
Y214300
Y244300
X156302Y196500
Y166500
X208500Y182400
X208480Y193670
X200600
T02
X228700Y3800
Y28800
Y53800
Y78800
Y103800
Y128800
Y153800
X202096
X178700
X153700
X142643Y152500
X125500
X103700Y153800
X89000Y154000
X80358Y138000
X68500
X68566Y118000
X80358
Y98674
X87255Y89000
X78700Y78800
Y53800
X99000Y55500
X118000Y52478
X124500Y58588
X118000Y79238
X112000Y73500
X108225Y89000
X126770
X125944Y108000
X142598
X142508Y96500
X152519Y89000
X153700Y103800
Y128800
X142598
X126000Y129500
X103700Y128800
X58588Y108600
X68566Y93855
X78000Y26500
X99800
X115480Y21000
X128700Y28800
Y3800
X153700
X178700
X203700
Y28800
Y53800
Y78800
X178700
Y53800
Y28800
X153500Y33000
X144100Y50800
Y68200
X183500Y105500
X199000Y100500
X202300Y128800
X178700Y125300
X103700Y3800
X78700
X53700
Y28800
Y53800
X53750Y75500
X31500
X28700Y53800
Y28800
Y3800
X3700
Y28800
Y53800
Y78800
Y103800
Y128800
Y153800
X26500Y139009
X44500
X53700Y128800
X34389Y105000
X37500Y95764
X44500Y162000
X38500Y179697
X53700Y178800
X46500Y204612
X28700Y203800
Y228800
X53700
Y253800
Y278800
Y303800
X28700
Y278800
Y253800
X3700
Y278800
Y303800
Y228800
Y203800
Y178800
X21700Y168000
X21551Y160000
X57573Y159100
X77000Y169090
X76900Y178755
X80866Y189000
X89381
X98428
X110000
Y179049
X105000Y199600
X104900Y207300
X94674Y220000
X78700Y203800
X89000Y168947
X142508Y179000
X153700Y178800
X148500Y192500
X161500Y203000
X128700Y203800
Y228800
X151000Y229500
X153700Y253800
X178700
X203700
Y278800
Y303800
X178700
Y278800
X153700
Y303800
X103700
Y278800
Y253800
X128700
X78700
Y278800
Y303800
X178700Y228800
X203700
Y203800
X202000Y178900
X228700Y178800
Y203800
Y228800
Y253800
Y278800
Y303800
X203700Y328800
X178700
X153700
X128700
X103700
X78700
X53700
X28700
T03
X68700Y11200
Y21200
Y31200
X85145Y74563
X95144
X105145
X101200Y99500
X91200
X96273Y113189
X106000Y113200
X125975Y123200
X136000
Y143200
X125975
X106000
X96273Y143189
X193600Y157211
X167800Y76458
X157800
X147800
X53750Y82000
Y92000
X31500
Y82000
X18000Y124000
Y134000
X85000Y184000
X105000
X118000
X128000
X138000
X172794Y189000
Y199000
X172802Y176500
Y166500
X193600Y167211
Y177211
T04
X145359Y41295
Y61295
X136000Y113226
X116000
X188500Y122500
Y142500
X208500Y142415
Y122415
X71500Y154000
X11500Y144000
Y164000
X21551Y184000
Y204000
X36500Y208000
Y196500
X56500
Y208000
X71500Y174000
X118000Y199510
X138000
T05
X156334Y210500
X184334
T06
X118758Y93871
Y103871
X133808
Y93871
X105000Y193500
X85000
Y213500
Y223500
Y233500
X105000
Y223500
Y213500
T07
X105339Y31291
Y41291
Y51291
Y61291
X135339
Y51291
Y41291
Y31291
X61500Y154000
X31500
Y164000
Y174000
Y184000
X61500
Y174000
Y164000
X115674Y213500
X125674
Y243500
X115674
T08
X161309Y8063
Y18064
T09
X95144Y10564
X105145
X127890Y10629
X137890
T10
X63525Y101000
X169000
X189000
X209000
X43525
X23526
Y220526
X43525
X63525
X169000Y220500
X189000
X209000
T11
X29687Y267100
Y292100
X93585
Y267100
X138914
Y292100
X202812
Y267100
Y317100
X138914
X93585
X29687
T12
X96200Y162500
X116200
X136200
T13
X116250Y283278
Y306900
M30
