G04*
G04 #@! TF.GenerationSoftware,Altium Limited,Altium Designer,19.0.9 (268)*
G04*
G04 Layer_Physical_Order=1*
G04 Layer_Color=255*
%FSLAX25Y25*%
%MOIN*%
G70*
G01*
G75*
%ADD12C,0.01000*%
%ADD41C,0.03200*%
%ADD42R,0.04724X0.04724*%
%ADD43C,0.04724*%
%ADD44C,0.04331*%
%ADD45R,0.04331X0.04331*%
%ADD46C,0.05118*%
%ADD47R,0.04724X0.04724*%
%ADD48C,0.11417*%
%ADD49R,0.11417X0.11417*%
%ADD50R,0.07087X0.07087*%
%ADD51C,0.07087*%
%ADD52C,0.14765*%
%ADD53C,0.08268*%
%ADD54C,0.05000*%
%ADD55R,0.05906X0.05906*%
%ADD56C,0.05906*%
%ADD57R,0.05512X0.05512*%
%ADD58C,0.05512*%
%ADD59C,0.06000*%
%ADD60C,0.06600*%
%ADD61R,0.06600X0.06600*%
%ADD62C,0.04725*%
%ADD63R,0.04331X0.04331*%
%ADD64C,0.03000*%
G36*
X207936Y318929D02*
X207436Y318829D01*
X207121Y319588D01*
X206330Y320619D01*
X205300Y321410D01*
X204099Y321907D01*
X202812Y322077D01*
X201523Y321907D01*
X200323Y321410D01*
X199293Y320619D01*
X198502Y319588D01*
X198004Y318388D01*
X197835Y317100D01*
X198004Y315812D01*
X198502Y314612D01*
X199293Y313581D01*
X200323Y312790D01*
X201523Y312293D01*
X202812Y312123D01*
X204099Y312293D01*
X205300Y312790D01*
X206330Y313581D01*
X207121Y314612D01*
X207436Y315370D01*
X207936Y315271D01*
Y310000D01*
X208052Y309415D01*
X208384Y308919D01*
X208880Y308587D01*
X209465Y308471D01*
X230971D01*
Y1529D01*
X1529D01*
Y308471D01*
X23000D01*
X23585Y308587D01*
X24081Y308919D01*
X24413Y309415D01*
X24529Y310000D01*
Y316177D01*
X25029Y316210D01*
X25075Y315864D01*
X25552Y314713D01*
X26311Y313724D01*
X27300Y312965D01*
X28451Y312488D01*
X29287Y312378D01*
Y317100D01*
Y321822D01*
X28451Y321712D01*
X27300Y321235D01*
X26311Y320476D01*
X25552Y319487D01*
X25075Y318336D01*
X25029Y317990D01*
X24529Y318023D01*
Y335971D01*
X207936D01*
Y318929D01*
D02*
G37*
%LPC*%
G36*
X139313Y321822D02*
Y317500D01*
X143636D01*
X143526Y318336D01*
X143049Y319487D01*
X142290Y320476D01*
X141301Y321235D01*
X140149Y321712D01*
X139313Y321822D01*
D02*
G37*
G36*
X30087D02*
Y317500D01*
X34409D01*
X34299Y318336D01*
X33822Y319487D01*
X33063Y320476D01*
X32074Y321235D01*
X30923Y321712D01*
X30087Y321822D01*
D02*
G37*
G36*
X138514D02*
X137678Y321712D01*
X136526Y321235D01*
X135537Y320476D01*
X134778Y319487D01*
X134301Y318336D01*
X134191Y317500D01*
X138514D01*
Y321822D01*
D02*
G37*
G36*
X34409Y316700D02*
X30087D01*
Y312378D01*
X30923Y312488D01*
X32074Y312965D01*
X33063Y313724D01*
X33822Y314713D01*
X34299Y315864D01*
X34409Y316700D01*
D02*
G37*
G36*
X143636D02*
X139313D01*
Y312378D01*
X140149Y312488D01*
X141301Y312965D01*
X142290Y313724D01*
X143049Y314713D01*
X143526Y315864D01*
X143636Y316700D01*
D02*
G37*
G36*
X138514D02*
X134191D01*
X134301Y315864D01*
X134778Y314713D01*
X135537Y313724D01*
X136526Y312965D01*
X137678Y312488D01*
X138514Y312378D01*
Y316700D01*
D02*
G37*
G36*
X93585Y322077D02*
X92297Y321907D01*
X91097Y321410D01*
X90066Y320619D01*
X89275Y319588D01*
X88778Y318388D01*
X88608Y317100D01*
X88778Y315812D01*
X89275Y314612D01*
X90066Y313581D01*
X91097Y312790D01*
X92297Y312293D01*
X93585Y312123D01*
X94873Y312293D01*
X96073Y312790D01*
X97104Y313581D01*
X97895Y314612D01*
X98392Y315812D01*
X98562Y317100D01*
X98392Y318388D01*
X97895Y319588D01*
X97104Y320619D01*
X96073Y321410D01*
X94873Y321907D01*
X93585Y322077D01*
D02*
G37*
G36*
X202812Y297077D02*
X201523Y296907D01*
X200323Y296410D01*
X199293Y295619D01*
X198502Y294588D01*
X198004Y293388D01*
X197835Y292100D01*
X198004Y290812D01*
X198502Y289612D01*
X199293Y288581D01*
X200323Y287790D01*
X201523Y287293D01*
X202812Y287123D01*
X204099Y287293D01*
X205300Y287790D01*
X206330Y288581D01*
X207121Y289612D01*
X207618Y290812D01*
X207788Y292100D01*
X207618Y293388D01*
X207121Y294588D01*
X206330Y295619D01*
X205300Y296410D01*
X204099Y296907D01*
X202812Y297077D01*
D02*
G37*
G36*
X138914D02*
X137626Y296907D01*
X136425Y296410D01*
X135395Y295619D01*
X134604Y294588D01*
X134107Y293388D01*
X133937Y292100D01*
X134107Y290812D01*
X134604Y289612D01*
X135395Y288581D01*
X136425Y287790D01*
X137626Y287293D01*
X138914Y287123D01*
X140201Y287293D01*
X141402Y287790D01*
X142432Y288581D01*
X143223Y289612D01*
X143720Y290812D01*
X143890Y292100D01*
X143720Y293388D01*
X143223Y294588D01*
X142432Y295619D01*
X141402Y296410D01*
X140201Y296907D01*
X138914Y297077D01*
D02*
G37*
G36*
X93585D02*
X92297Y296907D01*
X91097Y296410D01*
X90066Y295619D01*
X89275Y294588D01*
X88778Y293388D01*
X88608Y292100D01*
X88778Y290812D01*
X89275Y289612D01*
X90066Y288581D01*
X91097Y287790D01*
X92297Y287293D01*
X93585Y287123D01*
X94873Y287293D01*
X96073Y287790D01*
X97104Y288581D01*
X97895Y289612D01*
X98392Y290812D01*
X98562Y292100D01*
X98392Y293388D01*
X97895Y294588D01*
X97104Y295619D01*
X96073Y296410D01*
X94873Y296907D01*
X93585Y297077D01*
D02*
G37*
G36*
X29687D02*
X28399Y296907D01*
X27199Y296410D01*
X26168Y295619D01*
X25377Y294588D01*
X24880Y293388D01*
X24710Y292100D01*
X24880Y290812D01*
X25377Y289612D01*
X26168Y288581D01*
X27199Y287790D01*
X28399Y287293D01*
X29687Y287123D01*
X30975Y287293D01*
X32175Y287790D01*
X33206Y288581D01*
X33997Y289612D01*
X34494Y290812D01*
X34664Y292100D01*
X34494Y293388D01*
X33997Y294588D01*
X33206Y295619D01*
X32175Y296410D01*
X30975Y296907D01*
X29687Y297077D01*
D02*
G37*
G36*
X116650Y291260D02*
Y283678D01*
X124232D01*
X124117Y284843D01*
X123660Y286347D01*
X122919Y287734D01*
X121922Y288950D01*
X120706Y289947D01*
X119319Y290688D01*
X117815Y291145D01*
X116650Y291260D01*
D02*
G37*
G36*
X115850D02*
X114685Y291145D01*
X113180Y290688D01*
X111794Y289947D01*
X110578Y288950D01*
X109581Y287734D01*
X108840Y286347D01*
X108383Y284843D01*
X108268Y283678D01*
X115850D01*
Y291260D01*
D02*
G37*
G36*
X124232Y282878D02*
X116650D01*
Y275296D01*
X117815Y275411D01*
X119319Y275868D01*
X120706Y276609D01*
X121922Y277606D01*
X122919Y278822D01*
X123660Y280209D01*
X124117Y281713D01*
X124232Y282878D01*
D02*
G37*
G36*
X115850D02*
X108268D01*
X108383Y281713D01*
X108840Y280209D01*
X109581Y278822D01*
X110578Y277606D01*
X111794Y276609D01*
X113180Y275868D01*
X114685Y275411D01*
X115850Y275296D01*
Y282878D01*
D02*
G37*
G36*
X202812Y272077D02*
X201523Y271907D01*
X200323Y271410D01*
X199293Y270619D01*
X198502Y269588D01*
X198004Y268388D01*
X197835Y267100D01*
X198004Y265812D01*
X198502Y264612D01*
X199293Y263581D01*
X200323Y262790D01*
X201523Y262293D01*
X202812Y262123D01*
X204099Y262293D01*
X205300Y262790D01*
X206330Y263581D01*
X207121Y264612D01*
X207618Y265812D01*
X207788Y267100D01*
X207618Y268388D01*
X207121Y269588D01*
X206330Y270619D01*
X205300Y271410D01*
X204099Y271907D01*
X202812Y272077D01*
D02*
G37*
G36*
X138914D02*
X137626Y271907D01*
X136425Y271410D01*
X135395Y270619D01*
X134604Y269588D01*
X134107Y268388D01*
X133937Y267100D01*
X134107Y265812D01*
X134604Y264612D01*
X135395Y263581D01*
X136425Y262790D01*
X137626Y262293D01*
X138914Y262123D01*
X140201Y262293D01*
X141402Y262790D01*
X142432Y263581D01*
X143223Y264612D01*
X143720Y265812D01*
X143890Y267100D01*
X143720Y268388D01*
X143223Y269588D01*
X142432Y270619D01*
X141402Y271410D01*
X140201Y271907D01*
X138914Y272077D01*
D02*
G37*
G36*
X93585D02*
X92297Y271907D01*
X91097Y271410D01*
X90066Y270619D01*
X89275Y269588D01*
X88778Y268388D01*
X88608Y267100D01*
X88778Y265812D01*
X89275Y264612D01*
X90066Y263581D01*
X91097Y262790D01*
X92297Y262293D01*
X93585Y262123D01*
X94873Y262293D01*
X96073Y262790D01*
X97104Y263581D01*
X97895Y264612D01*
X98392Y265812D01*
X98562Y267100D01*
X98392Y268388D01*
X97895Y269588D01*
X97104Y270619D01*
X96073Y271410D01*
X94873Y271907D01*
X93585Y272077D01*
D02*
G37*
G36*
X11900Y247037D02*
Y244700D01*
X14237D01*
X14194Y245022D01*
X13916Y245695D01*
X13472Y246272D01*
X12895Y246716D01*
X12222Y246994D01*
X11900Y247037D01*
D02*
G37*
G36*
X11100D02*
X10778Y246994D01*
X10105Y246716D01*
X9528Y246272D01*
X9084Y245695D01*
X8806Y245022D01*
X8763Y244700D01*
X11100D01*
Y247037D01*
D02*
G37*
G36*
X126075Y246574D02*
Y243900D01*
X128749D01*
X128695Y244309D01*
X128382Y245063D01*
X127885Y245711D01*
X127238Y246208D01*
X126484Y246520D01*
X126075Y246574D01*
D02*
G37*
G36*
X125275D02*
X124865Y246520D01*
X124111Y246208D01*
X123464Y245711D01*
X122967Y245063D01*
X122654Y244309D01*
X122600Y243900D01*
X125275D01*
Y246574D01*
D02*
G37*
G36*
X14237Y243900D02*
X11900D01*
Y241563D01*
X12222Y241606D01*
X12895Y241884D01*
X13472Y242328D01*
X13916Y242905D01*
X14194Y243578D01*
X14237Y243900D01*
D02*
G37*
G36*
X11100D02*
X8763D01*
X8806Y243578D01*
X9084Y242905D01*
X9528Y242328D01*
X10105Y241884D01*
X10778Y241606D01*
X11100Y241563D01*
Y243900D01*
D02*
G37*
G36*
X128749Y243100D02*
X126075D01*
Y240426D01*
X126484Y240480D01*
X127238Y240792D01*
X127885Y241289D01*
X128382Y241937D01*
X128695Y242691D01*
X128749Y243100D01*
D02*
G37*
G36*
X125275D02*
X122600D01*
X122654Y242691D01*
X122967Y241937D01*
X123464Y241289D01*
X124111Y240792D01*
X124865Y240480D01*
X125275Y240426D01*
Y243100D01*
D02*
G37*
G36*
X105000Y236690D02*
X104174Y236581D01*
X103405Y236262D01*
X102744Y235755D01*
X102238Y235095D01*
X101919Y234326D01*
X101810Y233500D01*
X101919Y232674D01*
X102238Y231905D01*
X102744Y231244D01*
X103405Y230738D01*
X104174Y230419D01*
X105000Y230310D01*
X105826Y230419D01*
X106595Y230738D01*
X107255Y231244D01*
X107762Y231905D01*
X108081Y232674D01*
X108190Y233500D01*
X108081Y234326D01*
X107762Y235095D01*
X107255Y235755D01*
X106595Y236262D01*
X105826Y236581D01*
X105000Y236690D01*
D02*
G37*
G36*
X85000D02*
X84174Y236581D01*
X83405Y236262D01*
X82744Y235755D01*
X82238Y235095D01*
X81919Y234326D01*
X81810Y233500D01*
X81919Y232674D01*
X82238Y231905D01*
X82744Y231244D01*
X83405Y230738D01*
X84174Y230419D01*
X85000Y230310D01*
X85826Y230419D01*
X86595Y230738D01*
X87256Y231244D01*
X87762Y231905D01*
X88081Y232674D01*
X88190Y233500D01*
X88081Y234326D01*
X87762Y235095D01*
X87256Y235755D01*
X86595Y236262D01*
X85826Y236581D01*
X85000Y236690D01*
D02*
G37*
G36*
X115674Y246829D02*
X114813Y246715D01*
X114010Y246382D01*
X113321Y245854D01*
X112792Y245164D01*
X112460Y244361D01*
X112346Y243500D01*
X112460Y242638D01*
X112792Y241836D01*
X113321Y241146D01*
X114010Y240617D01*
X114174Y240549D01*
Y230549D01*
X108451Y224826D01*
X107874D01*
X107762Y225095D01*
X107255Y225756D01*
X106595Y226262D01*
X105826Y226581D01*
X105000Y226690D01*
X104174Y226581D01*
X103405Y226262D01*
X102744Y225756D01*
X102238Y225095D01*
X101919Y224326D01*
X101810Y223500D01*
X101919Y222674D01*
X102238Y221905D01*
X102744Y221245D01*
X103405Y220738D01*
X104174Y220419D01*
X105000Y220310D01*
X105826Y220419D01*
X106595Y220738D01*
X107255Y221245D01*
X107762Y221905D01*
X107874Y222175D01*
X109000D01*
X109507Y222275D01*
X109937Y222563D01*
X116437Y229063D01*
X116725Y229493D01*
X116825Y230000D01*
Y240405D01*
X117339Y240617D01*
X118028Y241146D01*
X118557Y241836D01*
X118890Y242638D01*
X119003Y243500D01*
X118890Y244361D01*
X118557Y245164D01*
X118028Y245854D01*
X117339Y246382D01*
X116536Y246715D01*
X115674Y246829D01*
D02*
G37*
G36*
X213143Y224643D02*
X209400D01*
Y220900D01*
X213143D01*
Y224643D01*
D02*
G37*
G36*
X208600D02*
X204856D01*
Y220900D01*
X208600D01*
Y224643D01*
D02*
G37*
G36*
X29687Y272077D02*
X28399Y271907D01*
X27199Y271410D01*
X26168Y270619D01*
X25377Y269588D01*
X24880Y268388D01*
X24710Y267100D01*
X24880Y265812D01*
X25377Y264612D01*
X26168Y263581D01*
X27199Y262790D01*
X28399Y262293D01*
X29687Y262123D01*
X30975Y262293D01*
X32175Y262790D01*
X33206Y263581D01*
X33997Y264612D01*
X34479Y265774D01*
X51851D01*
X65609Y252017D01*
Y237000D01*
X65710Y236493D01*
X65997Y236063D01*
X79497Y222563D01*
X79927Y222275D01*
X80434Y222175D01*
X82126D01*
X82238Y221905D01*
X82744Y221245D01*
X83405Y220738D01*
X84174Y220419D01*
X85000Y220310D01*
X85826Y220419D01*
X86595Y220738D01*
X87256Y221245D01*
X87762Y221905D01*
X88081Y222674D01*
X88190Y223500D01*
X88081Y224326D01*
X87762Y225095D01*
X87256Y225756D01*
X86595Y226262D01*
X85826Y226581D01*
X85000Y226690D01*
X84174Y226581D01*
X83405Y226262D01*
X82744Y225756D01*
X82238Y225095D01*
X82126Y224826D01*
X80983D01*
X68260Y237549D01*
Y252566D01*
X68159Y253073D01*
X67871Y253503D01*
X53337Y268037D01*
X52907Y268325D01*
X52400Y268425D01*
X34479D01*
X33997Y269588D01*
X33206Y270619D01*
X32175Y271410D01*
X30975Y271907D01*
X29687Y272077D01*
D02*
G37*
G36*
X213143Y220100D02*
X209400D01*
Y216356D01*
X213143D01*
Y220100D01*
D02*
G37*
G36*
X208600D02*
X204856D01*
Y216356D01*
X208600D01*
Y220100D01*
D02*
G37*
G36*
X67869Y224869D02*
X59182D01*
Y216182D01*
X67869D01*
Y224869D01*
D02*
G37*
G36*
X43525Y224906D02*
X42392Y224757D01*
X41335Y224320D01*
X40428Y223623D01*
X39731Y222716D01*
X39294Y221659D01*
X39145Y220526D01*
X39294Y219392D01*
X39731Y218335D01*
X40428Y217428D01*
X41335Y216732D01*
X42392Y216294D01*
X43525Y216144D01*
X44659Y216294D01*
X45716Y216732D01*
X46623Y217428D01*
X47319Y218335D01*
X47757Y219392D01*
X47907Y220526D01*
X47757Y221659D01*
X47319Y222716D01*
X46623Y223623D01*
X45716Y224320D01*
X44659Y224757D01*
X43525Y224906D01*
D02*
G37*
G36*
X23526D02*
X22392Y224757D01*
X21335Y224320D01*
X20428Y223623D01*
X19732Y222716D01*
X19294Y221659D01*
X19144Y220526D01*
X19294Y219392D01*
X19732Y218335D01*
X20428Y217428D01*
X21335Y216732D01*
X22392Y216294D01*
X23526Y216144D01*
X24659Y216294D01*
X25716Y216732D01*
X26623Y217428D01*
X27319Y218335D01*
X27757Y219392D01*
X27907Y220526D01*
X27757Y221659D01*
X27319Y222716D01*
X26623Y223623D01*
X25716Y224320D01*
X24659Y224757D01*
X23526Y224906D01*
D02*
G37*
G36*
X189000Y224881D02*
X187866Y224732D01*
X186810Y224294D01*
X185902Y223598D01*
X185206Y222691D01*
X184768Y221634D01*
X184619Y220500D01*
X184768Y219366D01*
X185206Y218309D01*
X185902Y217402D01*
X186810Y216706D01*
X187866Y216268D01*
X189000Y216119D01*
X190134Y216268D01*
X191191Y216706D01*
X192098Y217402D01*
X192794Y218309D01*
X193232Y219366D01*
X193381Y220500D01*
X193232Y221634D01*
X192794Y222691D01*
X192098Y223598D01*
X191191Y224294D01*
X190134Y224732D01*
X189000Y224881D01*
D02*
G37*
G36*
X169000D02*
X167866Y224732D01*
X166809Y224294D01*
X165902Y223598D01*
X165206Y222691D01*
X164768Y221634D01*
X164619Y220500D01*
X164768Y219366D01*
X165206Y218309D01*
X165902Y217402D01*
X166809Y216706D01*
X167866Y216268D01*
X169000Y216119D01*
X170134Y216268D01*
X171191Y216706D01*
X172098Y217402D01*
X172794Y218309D01*
X173232Y219366D01*
X173381Y220500D01*
X173232Y221634D01*
X172794Y222691D01*
X172098Y223598D01*
X171191Y224294D01*
X170134Y224732D01*
X169000Y224881D01*
D02*
G37*
G36*
X126075Y216574D02*
Y213900D01*
X128749D01*
X128695Y214309D01*
X128382Y215063D01*
X127885Y215711D01*
X127238Y216208D01*
X126484Y216520D01*
X126075Y216574D01*
D02*
G37*
G36*
X125275D02*
X124865Y216520D01*
X124111Y216208D01*
X123464Y215711D01*
X122967Y215063D01*
X122654Y214309D01*
X122600Y213900D01*
X125275D01*
Y216574D01*
D02*
G37*
G36*
X11500Y217291D02*
X10726Y217189D01*
X10005Y216890D01*
X9385Y216415D01*
X8910Y215795D01*
X8611Y215074D01*
X8509Y214300D01*
X8611Y213526D01*
X8910Y212805D01*
X9385Y212185D01*
X10005Y211710D01*
X10726Y211411D01*
X11500Y211309D01*
X12274Y211411D01*
X12995Y211710D01*
X13615Y212185D01*
X14090Y212805D01*
X14389Y213526D01*
X14491Y214300D01*
X14389Y215074D01*
X14090Y215795D01*
X13615Y216415D01*
X12995Y216890D01*
X12274Y217189D01*
X11500Y217291D01*
D02*
G37*
G36*
X184734Y213832D02*
Y210900D01*
X187666D01*
X187603Y211376D01*
X187265Y212193D01*
X186727Y212894D01*
X186026Y213432D01*
X185210Y213770D01*
X184734Y213832D01*
D02*
G37*
G36*
X183934D02*
X183458Y213770D01*
X182641Y213432D01*
X181940Y212894D01*
X181402Y212193D01*
X181064Y211376D01*
X181002Y210900D01*
X183934D01*
Y213832D01*
D02*
G37*
G36*
X128749Y213100D02*
X126075D01*
Y210426D01*
X126484Y210480D01*
X127238Y210792D01*
X127885Y211289D01*
X128382Y211937D01*
X128695Y212691D01*
X128749Y213100D01*
D02*
G37*
G36*
X125275D02*
X122600D01*
X122654Y212691D01*
X122967Y211937D01*
X123464Y211289D01*
X124111Y210792D01*
X124865Y210480D01*
X125275Y210426D01*
Y213100D01*
D02*
G37*
G36*
X105000Y216690D02*
X104174Y216581D01*
X103405Y216262D01*
X102744Y215756D01*
X102238Y215095D01*
X101919Y214326D01*
X101810Y213500D01*
X101919Y212674D01*
X102238Y211905D01*
X102744Y211245D01*
X103405Y210738D01*
X104174Y210419D01*
X105000Y210310D01*
X105826Y210419D01*
X106595Y210738D01*
X107255Y211245D01*
X107762Y211905D01*
X108081Y212674D01*
X108190Y213500D01*
X108081Y214326D01*
X107762Y215095D01*
X107255Y215756D01*
X106595Y216262D01*
X105826Y216581D01*
X105000Y216690D01*
D02*
G37*
G36*
X85000D02*
X84174Y216581D01*
X83405Y216262D01*
X82744Y215756D01*
X82238Y215095D01*
X81919Y214326D01*
X81810Y213500D01*
X81919Y212674D01*
X82238Y211905D01*
X82744Y211245D01*
X83405Y210738D01*
X84174Y210419D01*
X85000Y210310D01*
X85826Y210419D01*
X86595Y210738D01*
X87256Y211245D01*
X87762Y211905D01*
X88081Y212674D01*
X88190Y213500D01*
X88081Y214326D01*
X87762Y215095D01*
X87256Y215756D01*
X86595Y216262D01*
X85826Y216581D01*
X85000Y216690D01*
D02*
G37*
G36*
X187666Y210100D02*
X184734D01*
Y207168D01*
X185210Y207230D01*
X186026Y207569D01*
X186727Y208106D01*
X187265Y208807D01*
X187603Y209624D01*
X187666Y210100D01*
D02*
G37*
G36*
X183934D02*
X181002D01*
X181064Y209624D01*
X181402Y208807D01*
X181940Y208106D01*
X182641Y207569D01*
X183458Y207230D01*
X183934Y207168D01*
Y210100D01*
D02*
G37*
G36*
X56500Y211388D02*
X55623Y211273D01*
X54806Y210934D01*
X54104Y210396D01*
X53566Y209694D01*
X53228Y208877D01*
X53112Y208000D01*
X53228Y207123D01*
X53380Y206755D01*
X47563Y200937D01*
X47275Y200507D01*
X47175Y200000D01*
Y177000D01*
X47275Y176493D01*
X47563Y176063D01*
X58425Y165200D01*
X58285Y164862D01*
X58171Y164000D01*
X58285Y163138D01*
X58617Y162336D01*
X59146Y161646D01*
X59836Y161117D01*
X60638Y160785D01*
X61500Y160671D01*
X62362Y160785D01*
X63164Y161117D01*
X63854Y161646D01*
X64383Y162336D01*
X64715Y163138D01*
X64828Y164000D01*
X64715Y164862D01*
X64383Y165664D01*
X63854Y166354D01*
X63164Y166883D01*
X62362Y167215D01*
X61500Y167329D01*
X60638Y167215D01*
X60300Y167075D01*
X49826Y177549D01*
Y199451D01*
X55255Y204880D01*
X55623Y204728D01*
X56500Y204612D01*
X57377Y204728D01*
X58194Y205066D01*
X58896Y205604D01*
X59434Y206306D01*
X59772Y207123D01*
X59888Y208000D01*
X59772Y208877D01*
X59434Y209694D01*
X58896Y210396D01*
X58194Y210934D01*
X57377Y211273D01*
X56500Y211388D01*
D02*
G37*
G36*
X36500D02*
X35623Y211273D01*
X34806Y210934D01*
X34104Y210396D01*
X33566Y209694D01*
X33228Y208877D01*
X33112Y208000D01*
X33228Y207123D01*
X33566Y206306D01*
X34104Y205604D01*
X34806Y205066D01*
X35623Y204728D01*
X36500Y204612D01*
X37377Y204728D01*
X38194Y205066D01*
X38896Y205604D01*
X39434Y206306D01*
X39772Y207123D01*
X39888Y208000D01*
X39772Y208877D01*
X39434Y209694D01*
X38896Y210396D01*
X38194Y210934D01*
X37377Y211273D01*
X36500Y211388D01*
D02*
G37*
G36*
X11500Y206991D02*
X10726Y206889D01*
X10005Y206590D01*
X9385Y206115D01*
X8910Y205496D01*
X8611Y204774D01*
X8509Y204000D01*
X8611Y203226D01*
X8910Y202504D01*
X9385Y201885D01*
X10005Y201410D01*
X10726Y201111D01*
X11500Y201009D01*
X12274Y201111D01*
X12995Y201410D01*
X13615Y201885D01*
X14090Y202504D01*
X14389Y203226D01*
X14491Y204000D01*
X14389Y204774D01*
X14090Y205496D01*
X13615Y206115D01*
X12995Y206590D01*
X12274Y206889D01*
X11500Y206991D01*
D02*
G37*
G36*
X21551Y207388D02*
X20674Y207273D01*
X19857Y206934D01*
X19155Y206396D01*
X18617Y205694D01*
X18279Y204877D01*
X18163Y204000D01*
X18279Y203123D01*
X18617Y202306D01*
X19155Y201604D01*
X19857Y201066D01*
X20674Y200728D01*
X21551Y200612D01*
X22428Y200728D01*
X23245Y201066D01*
X23947Y201604D01*
X24485Y202306D01*
X24824Y203123D01*
X24939Y204000D01*
X24824Y204877D01*
X24485Y205694D01*
X23947Y206396D01*
X23245Y206934D01*
X22428Y207273D01*
X21551Y207388D01*
D02*
G37*
G36*
X138400Y202643D02*
Y199910D01*
X141134D01*
X141078Y200334D01*
X140759Y201103D01*
X140253Y201763D01*
X139593Y202269D01*
X138825Y202588D01*
X138400Y202643D01*
D02*
G37*
G36*
X137600D02*
X137175Y202588D01*
X136407Y202269D01*
X135747Y201763D01*
X135241Y201103D01*
X134922Y200334D01*
X134866Y199910D01*
X137600D01*
Y202643D01*
D02*
G37*
G36*
X141134Y199110D02*
X138400D01*
Y196376D01*
X138825Y196432D01*
X139593Y196750D01*
X140253Y197257D01*
X140759Y197917D01*
X141078Y198685D01*
X141134Y199110D01*
D02*
G37*
G36*
X137600D02*
X134866D01*
X134922Y198685D01*
X135241Y197917D01*
X135747Y197257D01*
X136407Y196750D01*
X137175Y196432D01*
X137600Y196376D01*
Y199110D01*
D02*
G37*
G36*
X118000Y202898D02*
X117123Y202782D01*
X116306Y202444D01*
X115604Y201905D01*
X115066Y201204D01*
X114727Y200387D01*
X114612Y199510D01*
X114727Y198633D01*
X115066Y197816D01*
X115604Y197114D01*
X116306Y196576D01*
X117123Y196237D01*
X118000Y196122D01*
X118877Y196237D01*
X119694Y196576D01*
X120396Y197114D01*
X120934Y197816D01*
X121273Y198633D01*
X121388Y199510D01*
X121273Y200387D01*
X120934Y201204D01*
X120396Y201905D01*
X119694Y202444D01*
X118877Y202782D01*
X118000Y202898D01*
D02*
G37*
G36*
X116250Y315122D02*
X114646Y314964D01*
X113104Y314496D01*
X111682Y313736D01*
X110436Y312714D01*
X109414Y311468D01*
X108654Y310046D01*
X108186Y308504D01*
X108028Y306900D01*
X108186Y305296D01*
X108654Y303754D01*
X109414Y302332D01*
X110436Y301086D01*
X111682Y300064D01*
X113104Y299304D01*
X114646Y298836D01*
X116250Y298678D01*
X117854Y298836D01*
X119396Y299304D01*
X120818Y300064D01*
X122064Y301086D01*
X123086Y302332D01*
X123737Y303549D01*
X124304Y303689D01*
X126753Y301239D01*
Y261198D01*
X126939Y260262D01*
X127470Y259468D01*
X153855Y233083D01*
Y214056D01*
X152778D01*
Y206944D01*
X153887D01*
Y198224D01*
X153712Y197996D01*
X153413Y197274D01*
X153311Y196500D01*
X153413Y195726D01*
X153712Y195004D01*
X153855Y194818D01*
Y193466D01*
X146836Y186447D01*
X140005D01*
X139595Y186762D01*
X138826Y187081D01*
X138000Y187189D01*
X137174Y187081D01*
X136405Y186762D01*
X135745Y186255D01*
X135238Y185595D01*
X134919Y184826D01*
X134811Y184000D01*
X134919Y183175D01*
X135238Y182405D01*
X135745Y181745D01*
X136405Y181238D01*
X137174Y180919D01*
X138000Y180811D01*
X138826Y180919D01*
X139595Y181238D01*
X140005Y181553D01*
X145298D01*
Y78391D01*
X145038Y78053D01*
X144719Y77284D01*
X144611Y76458D01*
X144719Y75633D01*
X145038Y74863D01*
X145545Y74203D01*
X146205Y73696D01*
X146975Y73378D01*
X147800Y73269D01*
X148626Y73378D01*
X149395Y73696D01*
X150055Y74203D01*
X150562Y74863D01*
X150881Y75633D01*
X150989Y76458D01*
X150881Y77284D01*
X150562Y78053D01*
X150192Y78535D01*
Y182882D01*
X158032Y190723D01*
X158563Y191516D01*
X158749Y192453D01*
Y194053D01*
X163402D01*
X164339Y194239D01*
X165132Y194770D01*
X166916Y196553D01*
X169632D01*
Y195838D01*
X175956D01*
Y202162D01*
X169632D01*
Y201447D01*
X165902D01*
X164966Y201261D01*
X164172Y200730D01*
X162389Y198947D01*
X158781D01*
Y206944D01*
X159890D01*
Y214056D01*
X158749D01*
Y234096D01*
X158563Y235033D01*
X158032Y235827D01*
X131647Y262212D01*
Y302253D01*
X131461Y303189D01*
X130930Y303983D01*
X126283Y308630D01*
X125489Y309161D01*
X124553Y309347D01*
X124058D01*
X123846Y310046D01*
X123086Y311468D01*
X122064Y312714D01*
X120818Y313736D01*
X119396Y314496D01*
X117854Y314964D01*
X116250Y315122D01*
D02*
G37*
G36*
X56500Y199888D02*
X55623Y199773D01*
X54806Y199434D01*
X54104Y198896D01*
X53566Y198194D01*
X53228Y197377D01*
X53112Y196500D01*
X53228Y195623D01*
X53566Y194806D01*
X54104Y194104D01*
X54806Y193566D01*
X55623Y193228D01*
X56500Y193112D01*
X57377Y193228D01*
X58194Y193566D01*
X58896Y194104D01*
X59434Y194806D01*
X59772Y195623D01*
X59888Y196500D01*
X59772Y197377D01*
X59434Y198194D01*
X58896Y198896D01*
X58194Y199434D01*
X57377Y199773D01*
X56500Y199888D01*
D02*
G37*
G36*
X36500D02*
X35623Y199773D01*
X34806Y199434D01*
X34104Y198896D01*
X33566Y198194D01*
X33228Y197377D01*
X33112Y196500D01*
X33228Y195623D01*
X33566Y194806D01*
X34104Y194104D01*
X34806Y193566D01*
X35623Y193228D01*
X36500Y193112D01*
X37377Y193228D01*
X38194Y193566D01*
X38896Y194104D01*
X39434Y194806D01*
X39772Y195623D01*
X39888Y196500D01*
X39772Y197377D01*
X39434Y198194D01*
X38896Y198896D01*
X38194Y199434D01*
X37377Y199773D01*
X36500Y199888D01*
D02*
G37*
G36*
X211445Y196635D02*
X205515D01*
Y190704D01*
X211445D01*
Y196635D01*
D02*
G37*
G36*
X200600Y196661D02*
X199826Y196559D01*
X199104Y196260D01*
X198485Y195785D01*
X198010Y195165D01*
X197711Y194444D01*
X197609Y193670D01*
X197711Y192896D01*
X198010Y192174D01*
X198485Y191555D01*
X199104Y191079D01*
X199826Y190780D01*
X200600Y190679D01*
X201374Y190780D01*
X202096Y191079D01*
X202715Y191555D01*
X203190Y192174D01*
X203489Y192896D01*
X203591Y193670D01*
X203489Y194444D01*
X203190Y195165D01*
X202715Y195785D01*
X202096Y196260D01*
X201374Y196559D01*
X200600Y196661D01*
D02*
G37*
G36*
X105000Y196690D02*
X104174Y196581D01*
X103405Y196262D01*
X102744Y195756D01*
X102238Y195095D01*
X101919Y194326D01*
X101810Y193500D01*
X101919Y192674D01*
X102238Y191905D01*
X102744Y191244D01*
X103405Y190738D01*
X104174Y190419D01*
X105000Y190310D01*
X105826Y190419D01*
X106595Y190738D01*
X107255Y191244D01*
X107762Y191905D01*
X108081Y192674D01*
X108190Y193500D01*
X108081Y194326D01*
X107762Y195095D01*
X107255Y195756D01*
X106595Y196262D01*
X105826Y196581D01*
X105000Y196690D01*
D02*
G37*
G36*
X173194Y191935D02*
Y189400D01*
X175729D01*
X175680Y189773D01*
X175381Y190494D01*
X174907Y191112D01*
X174288Y191587D01*
X173567Y191886D01*
X173194Y191935D01*
D02*
G37*
G36*
X172394D02*
X172021Y191886D01*
X171300Y191587D01*
X170682Y191112D01*
X170207Y190494D01*
X169908Y189773D01*
X169859Y189400D01*
X172394D01*
Y191935D01*
D02*
G37*
G36*
X175729Y188600D02*
X173194D01*
Y186065D01*
X173567Y186114D01*
X174288Y186413D01*
X174907Y186888D01*
X175381Y187506D01*
X175680Y188227D01*
X175729Y188600D01*
D02*
G37*
G36*
X172394D02*
X169859D01*
X169908Y188227D01*
X170207Y187506D01*
X170682Y186888D01*
X171300Y186413D01*
X172021Y186114D01*
X172394Y186065D01*
Y188600D01*
D02*
G37*
G36*
X128400Y186935D02*
Y184400D01*
X130935D01*
X130886Y184773D01*
X130587Y185494D01*
X130113Y186112D01*
X129494Y186587D01*
X128773Y186886D01*
X128400Y186935D01*
D02*
G37*
G36*
X127600D02*
X127227Y186886D01*
X126506Y186587D01*
X125888Y186112D01*
X125413Y185494D01*
X125114Y184773D01*
X125065Y184400D01*
X127600D01*
Y186935D01*
D02*
G37*
G36*
X130935Y183600D02*
X128400D01*
Y181065D01*
X128773Y181114D01*
X129494Y181413D01*
X130113Y181887D01*
X130587Y182506D01*
X130886Y183227D01*
X130935Y183600D01*
D02*
G37*
G36*
X127600D02*
X125065D01*
X125114Y183227D01*
X125413Y182506D01*
X125888Y181887D01*
X126506Y181413D01*
X127227Y181114D01*
X127600Y181065D01*
Y183600D01*
D02*
G37*
G36*
X108162Y187162D02*
X101838D01*
Y180838D01*
X108162D01*
Y187162D01*
D02*
G37*
G36*
X118000Y187189D02*
X117174Y187081D01*
X116405Y186762D01*
X115745Y186255D01*
X115238Y185595D01*
X114919Y184826D01*
X114811Y184000D01*
X114919Y183175D01*
X115238Y182405D01*
X115745Y181745D01*
X116405Y181238D01*
X117174Y180919D01*
X118000Y180811D01*
X118825Y180919D01*
X119595Y181238D01*
X120255Y181745D01*
X120762Y182405D01*
X121081Y183175D01*
X121189Y184000D01*
X121081Y184826D01*
X120762Y185595D01*
X120255Y186255D01*
X119595Y186762D01*
X118825Y187081D01*
X118000Y187189D01*
D02*
G37*
G36*
X85000Y196690D02*
X84174Y196581D01*
X83405Y196262D01*
X82744Y195756D01*
X82238Y195095D01*
X81919Y194326D01*
X81810Y193500D01*
X81919Y192674D01*
X82238Y191905D01*
X82744Y191244D01*
X83405Y190738D01*
X83675Y190626D01*
Y186873D01*
X83405Y186762D01*
X82745Y186255D01*
X82238Y185595D01*
X81919Y184826D01*
X81811Y184000D01*
X81919Y183175D01*
X82031Y182905D01*
X80063Y180937D01*
X79775Y180507D01*
X79675Y180000D01*
Y153271D01*
X71440Y145036D01*
X71152Y144606D01*
X71051Y144099D01*
Y91861D01*
X71152Y91354D01*
X71440Y90924D01*
X83819Y78544D01*
Y77437D01*
X83550Y77325D01*
X82889Y76819D01*
X82383Y76158D01*
X82064Y75389D01*
X81955Y74563D01*
X82064Y73738D01*
X82383Y72969D01*
X82889Y72308D01*
X83550Y71801D01*
X84319Y71483D01*
X85145Y71374D01*
X85970Y71483D01*
X86739Y71801D01*
X87400Y72308D01*
X87906Y72969D01*
X88225Y73738D01*
X88334Y74563D01*
X88225Y75389D01*
X87906Y76158D01*
X87400Y76819D01*
X86739Y77325D01*
X86470Y77437D01*
Y79093D01*
X86369Y79601D01*
X86082Y80031D01*
X73702Y92410D01*
Y143550D01*
X81937Y151785D01*
X82225Y152215D01*
X82326Y152722D01*
Y179451D01*
X83905Y181031D01*
X84175Y180919D01*
X85000Y180811D01*
X85826Y180919D01*
X86595Y181238D01*
X87255Y181745D01*
X87762Y182405D01*
X88081Y183175D01*
X88189Y184000D01*
X88081Y184826D01*
X87762Y185595D01*
X87255Y186255D01*
X86595Y186762D01*
X86326Y186873D01*
Y190626D01*
X86595Y190738D01*
X87256Y191244D01*
X87762Y191905D01*
X88081Y192674D01*
X88190Y193500D01*
X88081Y194326D01*
X87762Y195095D01*
X87256Y195756D01*
X86595Y196262D01*
X85826Y196581D01*
X85000Y196690D01*
D02*
G37*
G36*
X61500Y187329D02*
X60638Y187215D01*
X59836Y186882D01*
X59146Y186354D01*
X58617Y185664D01*
X58285Y184862D01*
X58171Y184000D01*
X58285Y183139D01*
X58617Y182336D01*
X59146Y181646D01*
X59836Y181117D01*
X60638Y180785D01*
X61500Y180672D01*
X62362Y180785D01*
X63164Y181117D01*
X63854Y181646D01*
X64383Y182336D01*
X64715Y183139D01*
X64828Y184000D01*
X64715Y184862D01*
X64383Y185664D01*
X63854Y186354D01*
X63164Y186882D01*
X62362Y187215D01*
X61500Y187329D01*
D02*
G37*
G36*
X31500D02*
X30639Y187215D01*
X29836Y186882D01*
X29146Y186354D01*
X28618Y185664D01*
X28285Y184862D01*
X28172Y184000D01*
X28285Y183139D01*
X28618Y182336D01*
X29146Y181646D01*
X29836Y181117D01*
X30639Y180785D01*
X31500Y180672D01*
X32362Y180785D01*
X33164Y181117D01*
X33854Y181646D01*
X34383Y182336D01*
X34715Y183139D01*
X34828Y184000D01*
X34715Y184862D01*
X34383Y185664D01*
X33854Y186354D01*
X33164Y186882D01*
X32362Y187215D01*
X31500Y187329D01*
D02*
G37*
G36*
X21551Y187388D02*
X20674Y187273D01*
X19857Y186934D01*
X19155Y186396D01*
X18617Y185694D01*
X18279Y184877D01*
X18163Y184000D01*
X18279Y183123D01*
X18617Y182306D01*
X19155Y181604D01*
X19857Y181066D01*
X20674Y180728D01*
X21551Y180612D01*
X22428Y180728D01*
X23245Y181066D01*
X23947Y181604D01*
X24485Y182306D01*
X24824Y183123D01*
X24939Y184000D01*
X24824Y184877D01*
X24485Y185694D01*
X23947Y186396D01*
X23245Y186934D01*
X22428Y187273D01*
X21551Y187388D01*
D02*
G37*
G36*
X208500Y185391D02*
X207726Y185289D01*
X207004Y184990D01*
X206385Y184515D01*
X205910Y183896D01*
X205611Y183174D01*
X205509Y182400D01*
X205611Y181626D01*
X205910Y180904D01*
X206385Y180285D01*
X207004Y179810D01*
X207726Y179511D01*
X208500Y179409D01*
X209274Y179511D01*
X209996Y179810D01*
X210615Y180285D01*
X211090Y180904D01*
X211389Y181626D01*
X211491Y182400D01*
X211389Y183174D01*
X211090Y183896D01*
X210615Y184515D01*
X209996Y184990D01*
X209274Y185289D01*
X208500Y185391D01*
D02*
G37*
G36*
X173202Y179435D02*
Y176900D01*
X175737D01*
X175688Y177273D01*
X175389Y177994D01*
X174915Y178612D01*
X174296Y179087D01*
X173575Y179386D01*
X173202Y179435D01*
D02*
G37*
G36*
X172402D02*
X172029Y179386D01*
X171308Y179087D01*
X170689Y178612D01*
X170215Y177994D01*
X169916Y177273D01*
X169867Y176900D01*
X172402D01*
Y179435D01*
D02*
G37*
G36*
X193600Y180400D02*
X192774Y180291D01*
X192005Y179973D01*
X191345Y179466D01*
X190838Y178805D01*
X190519Y178036D01*
X190411Y177211D01*
X190519Y176385D01*
X190838Y175616D01*
X191345Y174956D01*
X192005Y174449D01*
X192774Y174130D01*
X193600Y174021D01*
X194425Y174130D01*
X195195Y174449D01*
X195855Y174956D01*
X196362Y175616D01*
X196681Y176385D01*
X196789Y177211D01*
X196681Y178036D01*
X196362Y178805D01*
X195855Y179466D01*
X195195Y179973D01*
X194425Y180291D01*
X193600Y180400D01*
D02*
G37*
G36*
X175737Y176100D02*
X173202D01*
Y173565D01*
X173575Y173614D01*
X174296Y173913D01*
X174915Y174388D01*
X175389Y175006D01*
X175688Y175727D01*
X175737Y176100D01*
D02*
G37*
G36*
X172402D02*
X169867D01*
X169916Y175727D01*
X170215Y175006D01*
X170689Y174388D01*
X171308Y173913D01*
X172029Y173614D01*
X172402Y173565D01*
Y176100D01*
D02*
G37*
G36*
X21551Y176991D02*
X20777Y176889D01*
X20055Y176590D01*
X19436Y176115D01*
X18961Y175496D01*
X18662Y174774D01*
X18560Y174000D01*
X18662Y173226D01*
X18961Y172504D01*
X19436Y171885D01*
X20055Y171410D01*
X20777Y171111D01*
X21551Y171009D01*
X22325Y171111D01*
X23046Y171410D01*
X23666Y171885D01*
X24141Y172504D01*
X24440Y173226D01*
X24542Y174000D01*
X24440Y174774D01*
X24141Y175496D01*
X23666Y176115D01*
X23046Y176590D01*
X22325Y176889D01*
X21551Y176991D01*
D02*
G37*
G36*
X11500D02*
X10726Y176889D01*
X10005Y176590D01*
X9385Y176115D01*
X8910Y175496D01*
X8611Y174774D01*
X8509Y174000D01*
X8611Y173226D01*
X8910Y172504D01*
X9385Y171885D01*
X10005Y171410D01*
X10726Y171111D01*
X11500Y171009D01*
X12274Y171111D01*
X12995Y171410D01*
X13615Y171885D01*
X14090Y172504D01*
X14389Y173226D01*
X14491Y174000D01*
X14389Y174774D01*
X14090Y175496D01*
X13615Y176115D01*
X12995Y176590D01*
X12274Y176889D01*
X11500Y176991D01*
D02*
G37*
G36*
X61500Y177329D02*
X60638Y177215D01*
X59836Y176883D01*
X59146Y176354D01*
X58617Y175664D01*
X58285Y174862D01*
X58171Y174000D01*
X58285Y173138D01*
X58617Y172336D01*
X59146Y171646D01*
X59836Y171117D01*
X60638Y170785D01*
X61500Y170671D01*
X62362Y170785D01*
X63164Y171117D01*
X63854Y171646D01*
X64383Y172336D01*
X64715Y173138D01*
X64828Y174000D01*
X64715Y174862D01*
X64383Y175664D01*
X63854Y176354D01*
X63164Y176883D01*
X62362Y177215D01*
X61500Y177329D01*
D02*
G37*
G36*
X31500D02*
X30639Y177215D01*
X29836Y176883D01*
X29146Y176354D01*
X28618Y175664D01*
X28285Y174862D01*
X28172Y174000D01*
X28285Y173138D01*
X28618Y172336D01*
X29146Y171646D01*
X29836Y171117D01*
X30639Y170785D01*
X31500Y170671D01*
X32362Y170785D01*
X33164Y171117D01*
X33854Y171646D01*
X34383Y172336D01*
X34715Y173138D01*
X34828Y174000D01*
X34715Y174862D01*
X34383Y175664D01*
X33854Y176354D01*
X33164Y176883D01*
X32362Y177215D01*
X31500Y177329D01*
D02*
G37*
G36*
X71500Y177388D02*
X70623Y177272D01*
X69806Y176934D01*
X69104Y176396D01*
X68566Y175694D01*
X68227Y174877D01*
X68112Y174000D01*
X68227Y173123D01*
X68566Y172306D01*
X69104Y171604D01*
X69806Y171066D01*
X70623Y170728D01*
X71500Y170612D01*
X72377Y170728D01*
X73194Y171066D01*
X73896Y171604D01*
X74434Y172306D01*
X74773Y173123D01*
X74888Y174000D01*
X74773Y174877D01*
X74434Y175694D01*
X73896Y176396D01*
X73194Y176934D01*
X72377Y177272D01*
X71500Y177388D01*
D02*
G37*
G36*
X193600Y170400D02*
X192774Y170291D01*
X192005Y169973D01*
X191345Y169466D01*
X190838Y168805D01*
X190519Y168036D01*
X190411Y167211D01*
X190519Y166385D01*
X190838Y165616D01*
X191345Y164956D01*
X192005Y164449D01*
X192774Y164130D01*
X193600Y164021D01*
X194425Y164130D01*
X195195Y164449D01*
X195855Y164956D01*
X196362Y165616D01*
X196681Y166385D01*
X196789Y167211D01*
X196681Y168036D01*
X196362Y168805D01*
X195855Y169466D01*
X195195Y169973D01*
X194425Y170291D01*
X193600Y170400D01*
D02*
G37*
G36*
X156302Y169491D02*
X155528Y169389D01*
X154806Y169090D01*
X154187Y168615D01*
X153712Y167996D01*
X153413Y167274D01*
X153311Y166500D01*
X153413Y165726D01*
X153712Y165004D01*
X154187Y164385D01*
X154806Y163910D01*
X155528Y163611D01*
X156302Y163509D01*
X157076Y163611D01*
X157798Y163910D01*
X158417Y164385D01*
X158892Y165004D01*
X159191Y165726D01*
X159293Y166500D01*
X159191Y167274D01*
X158892Y167996D01*
X158417Y168615D01*
X157798Y169090D01*
X157076Y169389D01*
X156302Y169491D01*
D02*
G37*
G36*
X175964Y169662D02*
X169640D01*
Y163338D01*
X175964D01*
Y169662D01*
D02*
G37*
G36*
X31500Y167329D02*
X30639Y167215D01*
X29836Y166883D01*
X29146Y166354D01*
X28618Y165664D01*
X28285Y164862D01*
X28172Y164000D01*
X28285Y163138D01*
X28618Y162336D01*
X29146Y161646D01*
X29836Y161117D01*
X30639Y160785D01*
X31500Y160671D01*
X32362Y160785D01*
X33164Y161117D01*
X33854Y161646D01*
X34383Y162336D01*
X34715Y163138D01*
X34828Y164000D01*
X34715Y164862D01*
X34383Y165664D01*
X33854Y166354D01*
X33164Y166883D01*
X32362Y167215D01*
X31500Y167329D01*
D02*
G37*
G36*
X11500Y167388D02*
X10623Y167272D01*
X9806Y166934D01*
X9104Y166396D01*
X8566Y165694D01*
X8228Y164877D01*
X8112Y164000D01*
X8228Y163123D01*
X8566Y162306D01*
X9104Y161604D01*
X9806Y161066D01*
X10623Y160728D01*
X11500Y160612D01*
X12377Y160728D01*
X13194Y161066D01*
X13896Y161604D01*
X14434Y162306D01*
X14773Y163123D01*
X14888Y164000D01*
X14773Y164877D01*
X14434Y165694D01*
X13896Y166396D01*
X13194Y166934D01*
X12377Y167272D01*
X11500Y167388D01*
D02*
G37*
G36*
X142709Y169009D02*
X129692D01*
Y155991D01*
X142709D01*
Y169009D01*
D02*
G37*
G36*
X116200Y169040D02*
X114924Y168914D01*
X113697Y168542D01*
X112567Y167938D01*
X111575Y167124D01*
X110762Y166133D01*
X110158Y165003D01*
X109786Y163776D01*
X109660Y162500D01*
X109786Y161224D01*
X110158Y159997D01*
X110762Y158867D01*
X111575Y157876D01*
X112567Y157062D01*
X113697Y156458D01*
X114924Y156086D01*
X116200Y155960D01*
X117476Y156086D01*
X118703Y156458D01*
X119833Y157062D01*
X120825Y157876D01*
X121638Y158867D01*
X122242Y159997D01*
X122614Y161224D01*
X122740Y162500D01*
X122614Y163776D01*
X122242Y165003D01*
X121638Y166133D01*
X120825Y167124D01*
X119833Y167938D01*
X118703Y168542D01*
X117476Y168914D01*
X116200Y169040D01*
D02*
G37*
G36*
X96200D02*
X94924Y168914D01*
X93697Y168542D01*
X92567Y167938D01*
X91575Y167124D01*
X90762Y166133D01*
X90158Y165003D01*
X89786Y163776D01*
X89660Y162500D01*
X89786Y161224D01*
X90158Y159997D01*
X90762Y158867D01*
X91575Y157876D01*
X92567Y157062D01*
X93697Y156458D01*
X94924Y156086D01*
X96200Y155960D01*
X97476Y156086D01*
X98703Y156458D01*
X99833Y157062D01*
X100824Y157876D01*
X101638Y158867D01*
X102242Y159997D01*
X102614Y161224D01*
X102740Y162500D01*
X102614Y163776D01*
X102242Y165003D01*
X101638Y166133D01*
X100824Y167124D01*
X99833Y167938D01*
X98703Y168542D01*
X97476Y168914D01*
X96200Y169040D01*
D02*
G37*
G36*
X71900Y157134D02*
Y154400D01*
X74634D01*
X74578Y154825D01*
X74259Y155593D01*
X73753Y156253D01*
X73093Y156759D01*
X72325Y157078D01*
X71900Y157134D01*
D02*
G37*
G36*
X31900Y157074D02*
Y154400D01*
X34574D01*
X34520Y154809D01*
X34208Y155563D01*
X33711Y156211D01*
X33063Y156708D01*
X32309Y157020D01*
X31900Y157074D01*
D02*
G37*
G36*
X31100D02*
X30691Y157020D01*
X29937Y156708D01*
X29289Y156211D01*
X28792Y155563D01*
X28480Y154809D01*
X28426Y154400D01*
X31100D01*
Y157074D01*
D02*
G37*
G36*
X71100Y157134D02*
X70675Y157078D01*
X69907Y156759D01*
X69247Y156253D01*
X68741Y155593D01*
X68422Y154825D01*
X68366Y154400D01*
X71100D01*
Y157134D01*
D02*
G37*
G36*
X193600Y160400D02*
X192774Y160291D01*
X192005Y159973D01*
X191345Y159466D01*
X190838Y158805D01*
X190519Y158036D01*
X190411Y157211D01*
X190519Y156385D01*
X190838Y155616D01*
X191345Y154956D01*
X192005Y154449D01*
X192774Y154130D01*
X193600Y154021D01*
X194425Y154130D01*
X195195Y154449D01*
X195855Y154956D01*
X196362Y155616D01*
X196681Y156385D01*
X196789Y157211D01*
X196681Y158036D01*
X196362Y158805D01*
X195855Y159466D01*
X195195Y159973D01*
X194425Y160291D01*
X193600Y160400D01*
D02*
G37*
G36*
X208900Y155137D02*
Y152800D01*
X211237D01*
X211194Y153122D01*
X210916Y153795D01*
X210472Y154372D01*
X209895Y154816D01*
X209222Y155094D01*
X208900Y155137D01*
D02*
G37*
G36*
X208100D02*
X207778Y155094D01*
X207105Y154816D01*
X206528Y154372D01*
X206084Y153795D01*
X205806Y153122D01*
X205763Y152800D01*
X208100D01*
Y155137D01*
D02*
G37*
G36*
X34574Y153600D02*
X31900D01*
Y150926D01*
X32309Y150980D01*
X33063Y151292D01*
X33711Y151789D01*
X34208Y152437D01*
X34520Y153191D01*
X34574Y153600D01*
D02*
G37*
G36*
X31100D02*
X28426D01*
X28480Y153191D01*
X28792Y152437D01*
X29289Y151789D01*
X29937Y151292D01*
X30691Y150980D01*
X31100Y150926D01*
Y153600D01*
D02*
G37*
G36*
X74634D02*
X71900D01*
Y150866D01*
X72325Y150922D01*
X73093Y151241D01*
X73753Y151747D01*
X74259Y152407D01*
X74578Y153175D01*
X74634Y153600D01*
D02*
G37*
G36*
X71100D02*
X68366D01*
X68422Y153175D01*
X68741Y152407D01*
X69247Y151747D01*
X69907Y151241D01*
X70675Y150922D01*
X71100Y150866D01*
Y153600D01*
D02*
G37*
G36*
X61500Y157328D02*
X60638Y157215D01*
X59836Y156883D01*
X59146Y156354D01*
X58617Y155664D01*
X58285Y154861D01*
X58171Y154000D01*
X58285Y153138D01*
X58617Y152336D01*
X59146Y151646D01*
X59836Y151118D01*
X60638Y150785D01*
X61500Y150672D01*
X62362Y150785D01*
X63164Y151118D01*
X63854Y151646D01*
X64383Y152336D01*
X64715Y153138D01*
X64828Y154000D01*
X64715Y154861D01*
X64383Y155664D01*
X63854Y156354D01*
X63164Y156883D01*
X62362Y157215D01*
X61500Y157328D01*
D02*
G37*
G36*
X211237Y152000D02*
X208900D01*
Y149663D01*
X209222Y149706D01*
X209895Y149984D01*
X210472Y150428D01*
X210916Y151005D01*
X211194Y151678D01*
X211237Y152000D01*
D02*
G37*
G36*
X208100D02*
X205763D01*
X205806Y151678D01*
X206084Y151005D01*
X206528Y150428D01*
X207105Y149984D01*
X207778Y149706D01*
X208100Y149663D01*
Y152000D01*
D02*
G37*
G36*
X11900Y147134D02*
Y144400D01*
X14634D01*
X14578Y144825D01*
X14259Y145593D01*
X13753Y146253D01*
X13093Y146759D01*
X12325Y147078D01*
X11900Y147134D01*
D02*
G37*
G36*
X11100D02*
X10675Y147078D01*
X9907Y146759D01*
X9247Y146253D01*
X8741Y145593D01*
X8422Y144825D01*
X8366Y144400D01*
X11100D01*
Y147134D01*
D02*
G37*
G36*
X61500Y146991D02*
X60726Y146889D01*
X60005Y146590D01*
X59385Y146115D01*
X58910Y145495D01*
X58611Y144774D01*
X58509Y144000D01*
X58611Y143226D01*
X58910Y142505D01*
X59385Y141885D01*
X60005Y141410D01*
X60726Y141111D01*
X61500Y141009D01*
X62274Y141111D01*
X62995Y141410D01*
X63615Y141885D01*
X64090Y142505D01*
X64389Y143226D01*
X64491Y144000D01*
X64389Y144774D01*
X64090Y145495D01*
X63615Y146115D01*
X62995Y146590D01*
X62274Y146889D01*
X61500Y146991D01*
D02*
G37*
G36*
X31500D02*
X30726Y146889D01*
X30005Y146590D01*
X29385Y146115D01*
X28910Y145495D01*
X28611Y144774D01*
X28509Y144000D01*
X28611Y143226D01*
X28910Y142505D01*
X29385Y141885D01*
X30005Y141410D01*
X30726Y141111D01*
X31500Y141009D01*
X32274Y141111D01*
X32996Y141410D01*
X33615Y141885D01*
X34090Y142505D01*
X34389Y143226D01*
X34491Y144000D01*
X34389Y144774D01*
X34090Y145495D01*
X33615Y146115D01*
X32996Y146590D01*
X32274Y146889D01*
X31500Y146991D01*
D02*
G37*
G36*
X21551D02*
X20777Y146889D01*
X20055Y146590D01*
X19436Y146115D01*
X18961Y145495D01*
X18662Y144774D01*
X18560Y144000D01*
X18662Y143226D01*
X18961Y142505D01*
X19436Y141885D01*
X20055Y141410D01*
X20777Y141111D01*
X21551Y141009D01*
X22325Y141111D01*
X23046Y141410D01*
X23666Y141885D01*
X24141Y142505D01*
X24440Y143226D01*
X24542Y144000D01*
X24440Y144774D01*
X24141Y145495D01*
X23666Y146115D01*
X23046Y146590D01*
X22325Y146889D01*
X21551Y146991D01*
D02*
G37*
G36*
X14634Y143600D02*
X11900D01*
Y140866D01*
X12325Y140922D01*
X13093Y141241D01*
X13753Y141747D01*
X14259Y142407D01*
X14578Y143175D01*
X14634Y143600D01*
D02*
G37*
G36*
X11100D02*
X8366D01*
X8422Y143175D01*
X8741Y142407D01*
X9247Y141747D01*
X9907Y141241D01*
X10675Y140922D01*
X11100Y140866D01*
Y143600D01*
D02*
G37*
G36*
X86562Y146191D02*
X85788Y146089D01*
X85067Y145790D01*
X84447Y145315D01*
X83972Y144695D01*
X83673Y143974D01*
X83571Y143200D01*
X83673Y142426D01*
X83972Y141704D01*
X84447Y141085D01*
X85067Y140610D01*
X85788Y140311D01*
X86562Y140209D01*
X87337Y140311D01*
X88058Y140610D01*
X88678Y141085D01*
X89153Y141704D01*
X89452Y142426D01*
X89553Y143200D01*
X89452Y143974D01*
X89153Y144695D01*
X88678Y145315D01*
X88058Y145790D01*
X87337Y146089D01*
X86562Y146191D01*
D02*
G37*
G36*
X139162Y146362D02*
X132838D01*
Y140038D01*
X139162D01*
Y146362D01*
D02*
G37*
G36*
X99435Y146351D02*
X93111D01*
Y140027D01*
X99435D01*
Y146351D01*
D02*
G37*
G36*
X125975Y146389D02*
X125149Y146281D01*
X124380Y145962D01*
X123719Y145455D01*
X123213Y144795D01*
X122894Y144026D01*
X122785Y143200D01*
X122894Y142375D01*
X123213Y141605D01*
X123719Y140945D01*
X124380Y140438D01*
X125149Y140119D01*
X125975Y140011D01*
X126800Y140119D01*
X127569Y140438D01*
X128230Y140945D01*
X128737Y141605D01*
X129055Y142375D01*
X129164Y143200D01*
X129055Y144026D01*
X128737Y144795D01*
X128230Y145455D01*
X127569Y145962D01*
X126800Y146281D01*
X125975Y146389D01*
D02*
G37*
G36*
X106000D02*
X105175Y146281D01*
X104405Y145962D01*
X103745Y145455D01*
X103238Y144795D01*
X102919Y144026D01*
X102811Y143200D01*
X102919Y142375D01*
X103238Y141605D01*
X103745Y140945D01*
X104405Y140438D01*
X105175Y140119D01*
X106000Y140011D01*
X106825Y140119D01*
X107595Y140438D01*
X108255Y140945D01*
X108762Y141605D01*
X109081Y142375D01*
X109189Y143200D01*
X109081Y144026D01*
X108762Y144795D01*
X108255Y145455D01*
X107595Y145962D01*
X106825Y146281D01*
X106000Y146389D01*
D02*
G37*
G36*
X178500Y145491D02*
X177726Y145389D01*
X177005Y145090D01*
X176385Y144615D01*
X175910Y143995D01*
X175611Y143274D01*
X175509Y142500D01*
X175611Y141726D01*
X175910Y141005D01*
X176385Y140385D01*
X177005Y139910D01*
X177726Y139611D01*
X178500Y139509D01*
X179274Y139611D01*
X179996Y139910D01*
X180615Y140385D01*
X181090Y141005D01*
X181389Y141726D01*
X181491Y142500D01*
X181389Y143274D01*
X181090Y143995D01*
X180615Y144615D01*
X179996Y145090D01*
X179274Y145389D01*
X178500Y145491D01*
D02*
G37*
G36*
X198500Y145453D02*
X197726Y145351D01*
X197004Y145053D01*
X196385Y144577D01*
X195910Y143958D01*
X195611Y143236D01*
X195509Y142462D01*
X195611Y141688D01*
X195910Y140967D01*
X196385Y140347D01*
X197004Y139872D01*
X197726Y139573D01*
X198500Y139471D01*
X199274Y139573D01*
X199996Y139872D01*
X200615Y140347D01*
X201090Y140967D01*
X201389Y141688D01*
X201491Y142462D01*
X201389Y143236D01*
X201090Y143958D01*
X200615Y144577D01*
X199996Y145053D01*
X199274Y145351D01*
X198500Y145453D01*
D02*
G37*
G36*
X188500Y145888D02*
X187623Y145773D01*
X186806Y145434D01*
X186104Y144896D01*
X185566Y144194D01*
X185228Y143377D01*
X185112Y142500D01*
X185228Y141623D01*
X185566Y140806D01*
X186104Y140104D01*
X186806Y139566D01*
X187623Y139227D01*
X188500Y139112D01*
X189377Y139227D01*
X190194Y139566D01*
X190896Y140104D01*
X191434Y140806D01*
X191772Y141623D01*
X191888Y142500D01*
X191772Y143377D01*
X191434Y144194D01*
X190896Y144896D01*
X190194Y145434D01*
X189377Y145773D01*
X188500Y145888D01*
D02*
G37*
G36*
X208500Y145803D02*
X207623Y145688D01*
X206806Y145349D01*
X206104Y144811D01*
X205566Y144109D01*
X205227Y143292D01*
X205112Y142415D01*
X205227Y141538D01*
X205566Y140721D01*
X206104Y140020D01*
X206806Y139481D01*
X207623Y139143D01*
X208500Y139027D01*
X209377Y139143D01*
X210194Y139481D01*
X210896Y140020D01*
X211434Y140721D01*
X211772Y141538D01*
X211888Y142415D01*
X211772Y143292D01*
X211434Y144109D01*
X210896Y144811D01*
X210194Y145349D01*
X209377Y145688D01*
X208500Y145803D01*
D02*
G37*
G36*
X61900Y136737D02*
Y134400D01*
X64237D01*
X64194Y134722D01*
X63916Y135395D01*
X63472Y135972D01*
X62895Y136416D01*
X62222Y136694D01*
X61900Y136737D01*
D02*
G37*
G36*
X61100D02*
X60778Y136694D01*
X60105Y136416D01*
X59528Y135972D01*
X59084Y135395D01*
X58806Y134722D01*
X58763Y134400D01*
X61100D01*
Y136737D01*
D02*
G37*
G36*
X64237Y133600D02*
X61900D01*
Y131263D01*
X62222Y131306D01*
X62895Y131584D01*
X63472Y132028D01*
X63916Y132605D01*
X64194Y133278D01*
X64237Y133600D01*
D02*
G37*
G36*
X61100D02*
X58763D01*
X58806Y133278D01*
X59084Y132605D01*
X59528Y132028D01*
X60105Y131584D01*
X60778Y131306D01*
X61100Y131263D01*
Y133600D01*
D02*
G37*
G36*
X31500Y136991D02*
X30726Y136889D01*
X30005Y136590D01*
X29385Y136115D01*
X28910Y135495D01*
X28611Y134774D01*
X28509Y134000D01*
X28611Y133226D01*
X28910Y132504D01*
X29385Y131885D01*
X30005Y131410D01*
X30726Y131111D01*
X31500Y131009D01*
X32274Y131111D01*
X32996Y131410D01*
X33615Y131885D01*
X34090Y132504D01*
X34389Y133226D01*
X34491Y134000D01*
X34389Y134774D01*
X34090Y135495D01*
X33615Y136115D01*
X32996Y136590D01*
X32274Y136889D01*
X31500Y136991D01*
D02*
G37*
G36*
X21162Y137162D02*
X14838D01*
Y130838D01*
X21162D01*
Y137162D01*
D02*
G37*
G36*
X18400Y126935D02*
Y124400D01*
X20935D01*
X20886Y124773D01*
X20587Y125494D01*
X20112Y126112D01*
X19494Y126587D01*
X18773Y126886D01*
X18400Y126935D01*
D02*
G37*
G36*
X17600D02*
X17227Y126886D01*
X16506Y126587D01*
X15888Y126112D01*
X15413Y125494D01*
X15114Y124773D01*
X15065Y124400D01*
X17600D01*
Y126935D01*
D02*
G37*
G36*
X136400Y126135D02*
Y123600D01*
X138935D01*
X138886Y123973D01*
X138587Y124694D01*
X138112Y125312D01*
X137494Y125787D01*
X136773Y126086D01*
X136400Y126135D01*
D02*
G37*
G36*
X135600D02*
X135227Y126086D01*
X134506Y125787D01*
X133888Y125312D01*
X133413Y124694D01*
X133114Y123973D01*
X133065Y123600D01*
X135600D01*
Y126135D01*
D02*
G37*
G36*
X128937Y126162D02*
X126375D01*
Y123600D01*
X128937D01*
Y126162D01*
D02*
G37*
G36*
X125575D02*
X123013D01*
Y123600D01*
X125575D01*
Y126162D01*
D02*
G37*
G36*
X208900Y125549D02*
Y122815D01*
X211634D01*
X211578Y123240D01*
X211259Y124008D01*
X210753Y124668D01*
X210093Y125175D01*
X209325Y125493D01*
X208900Y125549D01*
D02*
G37*
G36*
X208100D02*
X207675Y125493D01*
X206907Y125175D01*
X206247Y124668D01*
X205741Y124008D01*
X205422Y123240D01*
X205366Y122815D01*
X208100D01*
Y125549D01*
D02*
G37*
G36*
X20935Y123600D02*
X18400D01*
Y121065D01*
X18773Y121114D01*
X19494Y121413D01*
X20112Y121888D01*
X20587Y122506D01*
X20886Y123227D01*
X20935Y123600D01*
D02*
G37*
G36*
X17600D02*
X15065D01*
X15114Y123227D01*
X15413Y122506D01*
X15888Y121888D01*
X16506Y121413D01*
X17227Y121114D01*
X17600Y121065D01*
Y123600D01*
D02*
G37*
G36*
X61500Y126991D02*
X60726Y126889D01*
X60005Y126590D01*
X59385Y126115D01*
X58910Y125496D01*
X58611Y124774D01*
X58509Y124000D01*
X58611Y123226D01*
X58910Y122504D01*
X59385Y121885D01*
X60005Y121410D01*
X60726Y121111D01*
X61500Y121009D01*
X62274Y121111D01*
X62995Y121410D01*
X63615Y121885D01*
X64090Y122504D01*
X64389Y123226D01*
X64491Y124000D01*
X64389Y124774D01*
X64090Y125496D01*
X63615Y126115D01*
X62995Y126590D01*
X62274Y126889D01*
X61500Y126991D01*
D02*
G37*
G36*
X31500D02*
X30726Y126889D01*
X30005Y126590D01*
X29385Y126115D01*
X28910Y125496D01*
X28611Y124774D01*
X28509Y124000D01*
X28611Y123226D01*
X28910Y122504D01*
X29385Y121885D01*
X30005Y121410D01*
X30726Y121111D01*
X31500Y121009D01*
X32274Y121111D01*
X32996Y121410D01*
X33615Y121885D01*
X34090Y122504D01*
X34389Y123226D01*
X34491Y124000D01*
X34389Y124774D01*
X34090Y125496D01*
X33615Y126115D01*
X32996Y126590D01*
X32274Y126889D01*
X31500Y126991D01*
D02*
G37*
G36*
X138935Y122800D02*
X136400D01*
Y120265D01*
X136773Y120314D01*
X137494Y120613D01*
X138112Y121088D01*
X138587Y121706D01*
X138886Y122427D01*
X138935Y122800D01*
D02*
G37*
G36*
X135600D02*
X133065D01*
X133114Y122427D01*
X133413Y121706D01*
X133888Y121088D01*
X134506Y120613D01*
X135227Y120314D01*
X135600Y120265D01*
Y122800D01*
D02*
G37*
G36*
X128937Y122800D02*
X126375D01*
Y120238D01*
X128937D01*
Y122800D01*
D02*
G37*
G36*
X125575D02*
X123013D01*
Y120238D01*
X125575D01*
Y122800D01*
D02*
G37*
G36*
X211634Y122015D02*
X208900D01*
Y119282D01*
X209325Y119338D01*
X210093Y119656D01*
X210753Y120162D01*
X211259Y120822D01*
X211578Y121591D01*
X211634Y122015D01*
D02*
G37*
G36*
X208100D02*
X205366D01*
X205422Y121591D01*
X205741Y120822D01*
X206247Y120162D01*
X206907Y119656D01*
X207675Y119338D01*
X208100Y119282D01*
Y122015D01*
D02*
G37*
G36*
X188500Y125888D02*
X187623Y125773D01*
X186806Y125434D01*
X186104Y124896D01*
X185566Y124194D01*
X185228Y123377D01*
X185112Y122500D01*
X185228Y121623D01*
X185566Y120806D01*
X186104Y120104D01*
X186806Y119566D01*
X187623Y119228D01*
X188500Y119112D01*
X189377Y119228D01*
X190194Y119566D01*
X190896Y120104D01*
X191434Y120806D01*
X191772Y121623D01*
X191888Y122500D01*
X191772Y123377D01*
X191434Y124194D01*
X190896Y124896D01*
X190194Y125434D01*
X189377Y125773D01*
X188500Y125888D01*
D02*
G37*
G36*
X136400Y116359D02*
Y113626D01*
X139134D01*
X139078Y114050D01*
X138759Y114819D01*
X138253Y115479D01*
X137593Y115985D01*
X136825Y116304D01*
X136400Y116359D01*
D02*
G37*
G36*
X135600D02*
X135175Y116304D01*
X134407Y115985D01*
X133747Y115479D01*
X133241Y114819D01*
X132922Y114050D01*
X132866Y113626D01*
X135600D01*
Y116359D01*
D02*
G37*
G36*
X108962Y116162D02*
X106400D01*
Y113600D01*
X108962D01*
Y116162D01*
D02*
G37*
G36*
X105600D02*
X103038D01*
Y113600D01*
X105600D01*
Y116162D01*
D02*
G37*
G36*
X96673Y116124D02*
Y113589D01*
X99208D01*
X99159Y113962D01*
X98860Y114683D01*
X98385Y115302D01*
X97767Y115777D01*
X97046Y116075D01*
X96673Y116124D01*
D02*
G37*
G36*
X95873D02*
X95499Y116075D01*
X94779Y115777D01*
X94160Y115302D01*
X93685Y114683D01*
X93387Y113962D01*
X93338Y113589D01*
X95873D01*
Y116124D01*
D02*
G37*
G36*
X178900Y115237D02*
Y112900D01*
X181237D01*
X181194Y113222D01*
X180916Y113895D01*
X180472Y114472D01*
X179895Y114916D01*
X179222Y115194D01*
X178900Y115237D01*
D02*
G37*
G36*
X178100D02*
X177778Y115194D01*
X177105Y114916D01*
X176528Y114472D01*
X176084Y113895D01*
X175806Y113222D01*
X175763Y112900D01*
X178100D01*
Y115237D01*
D02*
G37*
G36*
X61500Y116991D02*
X60726Y116889D01*
X60005Y116590D01*
X59385Y116115D01*
X58910Y115496D01*
X58611Y114774D01*
X58509Y114000D01*
X58611Y113226D01*
X58910Y112504D01*
X59385Y111885D01*
X60005Y111410D01*
X60726Y111111D01*
X61500Y111009D01*
X62274Y111111D01*
X62995Y111410D01*
X63615Y111885D01*
X64090Y112504D01*
X64389Y113226D01*
X64491Y114000D01*
X64389Y114774D01*
X64090Y115496D01*
X63615Y116115D01*
X62995Y116590D01*
X62274Y116889D01*
X61500Y116991D01*
D02*
G37*
G36*
X31500D02*
X30726Y116889D01*
X30005Y116590D01*
X29385Y116115D01*
X28910Y115496D01*
X28611Y114774D01*
X28509Y114000D01*
X28611Y113226D01*
X28910Y112504D01*
X29385Y111885D01*
X30005Y111410D01*
X30726Y111111D01*
X31500Y111009D01*
X32274Y111111D01*
X32996Y111410D01*
X33615Y111885D01*
X34090Y112504D01*
X34389Y113226D01*
X34491Y114000D01*
X34389Y114774D01*
X34090Y115496D01*
X33615Y116115D01*
X32996Y116590D01*
X32274Y116889D01*
X31500Y116991D01*
D02*
G37*
G36*
X99208Y112789D02*
X96673D01*
Y110254D01*
X97046Y110303D01*
X97767Y110602D01*
X98385Y111077D01*
X98860Y111695D01*
X99159Y112416D01*
X99208Y112789D01*
D02*
G37*
G36*
X95873D02*
X93338D01*
X93387Y112416D01*
X93685Y111695D01*
X94160Y111077D01*
X94779Y110602D01*
X95499Y110303D01*
X95873Y110254D01*
Y112789D01*
D02*
G37*
G36*
X108962Y112800D02*
X106400D01*
Y110238D01*
X108962D01*
Y112800D01*
D02*
G37*
G36*
X105600D02*
X103038D01*
Y110238D01*
X105600D01*
Y112800D01*
D02*
G37*
G36*
X86562Y116191D02*
X85788Y116089D01*
X85067Y115790D01*
X84447Y115315D01*
X83972Y114696D01*
X83673Y113974D01*
X83571Y113200D01*
X83673Y112426D01*
X83972Y111705D01*
X84447Y111085D01*
X85067Y110610D01*
X85788Y110311D01*
X86562Y110209D01*
X87337Y110311D01*
X88058Y110610D01*
X88678Y111085D01*
X89153Y111705D01*
X89452Y112426D01*
X89553Y113200D01*
X89452Y113974D01*
X89153Y114696D01*
X88678Y115315D01*
X88058Y115790D01*
X87337Y116089D01*
X86562Y116191D01*
D02*
G37*
G36*
X139134Y112826D02*
X136400D01*
Y110092D01*
X136825Y110148D01*
X137593Y110467D01*
X138253Y110973D01*
X138759Y111633D01*
X139078Y112401D01*
X139134Y112826D01*
D02*
G37*
G36*
X135600D02*
X132866D01*
X132922Y112401D01*
X133241Y111633D01*
X133747Y110973D01*
X134407Y110467D01*
X135175Y110148D01*
X135600Y110092D01*
Y112826D01*
D02*
G37*
G36*
X116000Y116614D02*
X115123Y116498D01*
X114306Y116160D01*
X113604Y115621D01*
X113066Y114920D01*
X112727Y114103D01*
X112612Y113226D01*
X112727Y112349D01*
X113066Y111532D01*
X113604Y110830D01*
X114306Y110292D01*
X115123Y109953D01*
X116000Y109838D01*
X116877Y109953D01*
X117694Y110292D01*
X118396Y110830D01*
X118934Y111532D01*
X119272Y112349D01*
X119388Y113226D01*
X119272Y114103D01*
X118934Y114920D01*
X118396Y115621D01*
X117694Y116160D01*
X116877Y116498D01*
X116000Y116614D01*
D02*
G37*
G36*
X181237Y112100D02*
X178900D01*
Y109763D01*
X179222Y109806D01*
X179895Y110084D01*
X180472Y110528D01*
X180916Y111105D01*
X181194Y111778D01*
X181237Y112100D01*
D02*
G37*
G36*
X178100D02*
X175763D01*
X175806Y111778D01*
X176084Y111105D01*
X176528Y110528D01*
X177105Y110084D01*
X177778Y109806D01*
X178100Y109763D01*
Y112100D01*
D02*
G37*
G36*
X198500Y115453D02*
X197726Y115351D01*
X197004Y115052D01*
X196385Y114577D01*
X195910Y113958D01*
X195611Y113236D01*
X195509Y112462D01*
X195611Y111688D01*
X195910Y110967D01*
X196385Y110347D01*
X197004Y109872D01*
X197726Y109573D01*
X198500Y109471D01*
X199274Y109573D01*
X199996Y109872D01*
X200615Y110347D01*
X201090Y110967D01*
X201389Y111688D01*
X201491Y112462D01*
X201389Y113236D01*
X201090Y113958D01*
X200615Y114577D01*
X199996Y115052D01*
X199274Y115351D01*
X198500Y115453D01*
D02*
G37*
G36*
X122511Y107624D02*
X115005D01*
Y100118D01*
X122511D01*
Y107624D01*
D02*
G37*
G36*
X133808Y107656D02*
X132828Y107527D01*
X131915Y107149D01*
X131131Y106548D01*
X130529Y105764D01*
X130151Y104851D01*
X130022Y103871D01*
X130151Y102891D01*
X130529Y101978D01*
X131131Y101194D01*
X131915Y100593D01*
X132828Y100215D01*
X133808Y100086D01*
X134787Y100215D01*
X135700Y100593D01*
X136484Y101194D01*
X137086Y101978D01*
X137464Y102891D01*
X137593Y103871D01*
X137464Y104851D01*
X137086Y105764D01*
X136484Y106548D01*
X135700Y107149D01*
X134787Y107527D01*
X133808Y107656D01*
D02*
G37*
G36*
X213344Y105343D02*
X204657D01*
Y96657D01*
X213344D01*
Y105343D01*
D02*
G37*
G36*
X67869D02*
X59182D01*
Y96657D01*
X67869D01*
Y105343D01*
D02*
G37*
G36*
X189000Y105381D02*
X187866Y105232D01*
X186810Y104794D01*
X185902Y104098D01*
X185206Y103191D01*
X184768Y102134D01*
X184619Y101000D01*
X184768Y99866D01*
X185206Y98809D01*
X185902Y97902D01*
X186810Y97206D01*
X187866Y96768D01*
X189000Y96619D01*
X190134Y96768D01*
X191191Y97206D01*
X192098Y97902D01*
X192794Y98809D01*
X193232Y99866D01*
X193381Y101000D01*
X193232Y102134D01*
X192794Y103191D01*
X192098Y104098D01*
X191191Y104794D01*
X190134Y105232D01*
X189000Y105381D01*
D02*
G37*
G36*
X169000D02*
X167866Y105232D01*
X166809Y104794D01*
X165902Y104098D01*
X165206Y103191D01*
X164768Y102134D01*
X164619Y101000D01*
X164768Y99866D01*
X165206Y98809D01*
X165902Y97902D01*
X166809Y97206D01*
X167866Y96768D01*
X169000Y96619D01*
X170134Y96768D01*
X171191Y97206D01*
X172098Y97902D01*
X172794Y98809D01*
X173232Y99866D01*
X173381Y101000D01*
X173232Y102134D01*
X172794Y103191D01*
X172098Y104098D01*
X171191Y104794D01*
X170134Y105232D01*
X169000Y105381D01*
D02*
G37*
G36*
X43525D02*
X42392Y105232D01*
X41335Y104794D01*
X40428Y104098D01*
X39731Y103191D01*
X39294Y102134D01*
X39145Y101000D01*
X39294Y99866D01*
X39731Y98809D01*
X40428Y97902D01*
X41335Y97206D01*
X42392Y96768D01*
X43525Y96619D01*
X44659Y96768D01*
X45716Y97206D01*
X46623Y97902D01*
X47319Y98809D01*
X47757Y99866D01*
X47907Y101000D01*
X47757Y102134D01*
X47319Y103191D01*
X46623Y104098D01*
X45716Y104794D01*
X44659Y105232D01*
X43525Y105381D01*
D02*
G37*
G36*
X23526D02*
X22392Y105232D01*
X21335Y104794D01*
X20428Y104098D01*
X19732Y103191D01*
X19294Y102134D01*
X19144Y101000D01*
X19294Y99866D01*
X19732Y98809D01*
X20428Y97902D01*
X21335Y97206D01*
X22392Y96768D01*
X23526Y96619D01*
X24659Y96768D01*
X25716Y97206D01*
X26623Y97902D01*
X27319Y98809D01*
X27757Y99866D01*
X27907Y101000D01*
X27757Y102134D01*
X27319Y103191D01*
X26623Y104098D01*
X25716Y104794D01*
X24659Y105232D01*
X23526Y105381D01*
D02*
G37*
G36*
X94362Y102662D02*
X88038D01*
Y96338D01*
X94362D01*
Y102662D01*
D02*
G37*
G36*
X101200Y102689D02*
X100374Y102581D01*
X99605Y102262D01*
X98945Y101755D01*
X98438Y101095D01*
X98119Y100326D01*
X98011Y99500D01*
X98119Y98674D01*
X98438Y97905D01*
X98945Y97245D01*
X99605Y96738D01*
X100374Y96419D01*
X101200Y96311D01*
X102025Y96419D01*
X102795Y96738D01*
X103455Y97245D01*
X103962Y97905D01*
X104281Y98674D01*
X104389Y99500D01*
X104281Y100326D01*
X103962Y101095D01*
X103455Y101755D01*
X102795Y102262D01*
X102025Y102581D01*
X101200Y102689D01*
D02*
G37*
G36*
X137361Y97424D02*
X134208D01*
Y94271D01*
X137361D01*
Y97424D01*
D02*
G37*
G36*
X133408D02*
X130255D01*
Y94271D01*
X133408D01*
Y97424D01*
D02*
G37*
G36*
X119158Y97402D02*
Y94271D01*
X122289D01*
X122220Y94798D01*
X121862Y95663D01*
X121292Y96405D01*
X120550Y96975D01*
X119685Y97333D01*
X119158Y97402D01*
D02*
G37*
G36*
X118358D02*
X117830Y97333D01*
X116966Y96975D01*
X116224Y96405D01*
X115654Y95663D01*
X115296Y94798D01*
X115227Y94271D01*
X118358D01*
Y97402D01*
D02*
G37*
G36*
Y93471D02*
X115227D01*
X115296Y92944D01*
X115654Y92079D01*
X116224Y91337D01*
X116966Y90768D01*
X117830Y90409D01*
X118358Y90340D01*
Y93471D01*
D02*
G37*
G36*
X122289D02*
X119158D01*
Y90340D01*
X119685Y90409D01*
X120550Y90768D01*
X121292Y91337D01*
X121862Y92079D01*
X122220Y92944D01*
X122289Y93471D01*
D02*
G37*
G36*
X137361Y93471D02*
X134208D01*
Y90318D01*
X137361D01*
Y93471D01*
D02*
G37*
G36*
X133408D02*
X130255D01*
Y90318D01*
X133408D01*
Y93471D01*
D02*
G37*
G36*
X56912Y95162D02*
X50588D01*
Y88838D01*
X56912D01*
Y95162D01*
D02*
G37*
G36*
X34662D02*
X28338D01*
Y88838D01*
X34662D01*
Y95162D01*
D02*
G37*
G36*
X54150Y84935D02*
Y82400D01*
X56685D01*
X56636Y82773D01*
X56337Y83494D01*
X55862Y84113D01*
X55244Y84587D01*
X54523Y84886D01*
X54150Y84935D01*
D02*
G37*
G36*
X31900D02*
Y82400D01*
X34435D01*
X34386Y82773D01*
X34087Y83494D01*
X33612Y84113D01*
X32994Y84587D01*
X32273Y84886D01*
X31900Y84935D01*
D02*
G37*
G36*
X53350D02*
X52977Y84886D01*
X52256Y84587D01*
X51638Y84113D01*
X51163Y83494D01*
X50864Y82773D01*
X50815Y82400D01*
X53350D01*
Y84935D01*
D02*
G37*
G36*
X31100D02*
X30727Y84886D01*
X30006Y84587D01*
X29388Y84113D01*
X28913Y83494D01*
X28614Y82773D01*
X28565Y82400D01*
X31100D01*
Y84935D01*
D02*
G37*
G36*
X56685Y81600D02*
X54150D01*
Y79065D01*
X54523Y79114D01*
X55244Y79413D01*
X55862Y79887D01*
X56337Y80506D01*
X56636Y81227D01*
X56685Y81600D01*
D02*
G37*
G36*
X34435D02*
X31900D01*
Y79065D01*
X32273Y79114D01*
X32994Y79413D01*
X33612Y79887D01*
X34087Y80506D01*
X34386Y81227D01*
X34435Y81600D01*
D02*
G37*
G36*
X53350D02*
X50815D01*
X50864Y81227D01*
X51163Y80506D01*
X51638Y79887D01*
X52256Y79413D01*
X52977Y79114D01*
X53350Y79065D01*
Y81600D01*
D02*
G37*
G36*
X31100D02*
X28565D01*
X28614Y81227D01*
X28913Y80506D01*
X29388Y79887D01*
X30006Y79413D01*
X30727Y79114D01*
X31100Y79065D01*
Y81600D01*
D02*
G37*
G36*
X132400Y79255D02*
Y76919D01*
X134737D01*
X134694Y77241D01*
X134416Y77913D01*
X133972Y78491D01*
X133395Y78934D01*
X132722Y79213D01*
X132400Y79255D01*
D02*
G37*
G36*
X131600D02*
X131278Y79213D01*
X130605Y78934D01*
X130028Y78491D01*
X129584Y77913D01*
X129306Y77241D01*
X129263Y76919D01*
X131600D01*
Y79255D01*
D02*
G37*
G36*
X158200Y79393D02*
Y76858D01*
X160735D01*
X160686Y77231D01*
X160387Y77952D01*
X159913Y78571D01*
X159294Y79045D01*
X158573Y79344D01*
X158200Y79393D01*
D02*
G37*
G36*
X157400D02*
X157027Y79344D01*
X156306Y79045D01*
X155687Y78571D01*
X155213Y77952D01*
X154914Y77231D01*
X154865Y76858D01*
X157400D01*
Y79393D01*
D02*
G37*
G36*
X105544Y77498D02*
Y74963D01*
X108079D01*
X108030Y75337D01*
X107732Y76057D01*
X107257Y76676D01*
X106638Y77151D01*
X105918Y77449D01*
X105544Y77498D01*
D02*
G37*
G36*
X104745D02*
X104371Y77449D01*
X103651Y77151D01*
X103032Y76676D01*
X102557Y76057D01*
X102259Y75337D01*
X102210Y74963D01*
X104745D01*
Y77498D01*
D02*
G37*
G36*
X134737Y76119D02*
X132400D01*
Y73782D01*
X132722Y73824D01*
X133395Y74103D01*
X133972Y74546D01*
X134416Y75124D01*
X134694Y75797D01*
X134737Y76119D01*
D02*
G37*
G36*
X131600D02*
X129263D01*
X129306Y75797D01*
X129584Y75124D01*
X130028Y74546D01*
X130605Y74103D01*
X131278Y73824D01*
X131600Y73782D01*
Y76119D01*
D02*
G37*
G36*
X142845Y79484D02*
X136915D01*
Y73553D01*
X142845D01*
Y79484D01*
D02*
G37*
G36*
X160735Y76058D02*
X158200D01*
Y73523D01*
X158573Y73572D01*
X159294Y73871D01*
X159913Y74346D01*
X160387Y74964D01*
X160686Y75685D01*
X160735Y76058D01*
D02*
G37*
G36*
X157400D02*
X154865D01*
X154914Y75685D01*
X155213Y74964D01*
X155687Y74346D01*
X156306Y73871D01*
X157027Y73572D01*
X157400Y73523D01*
Y76058D01*
D02*
G37*
G36*
X167800Y79647D02*
X166974Y79539D01*
X166205Y79220D01*
X165545Y78713D01*
X165038Y78053D01*
X164719Y77284D01*
X164611Y76458D01*
X164719Y75633D01*
X165038Y74863D01*
X165545Y74203D01*
X166205Y73696D01*
X166974Y73378D01*
X167800Y73269D01*
X168625Y73378D01*
X169395Y73696D01*
X170055Y74203D01*
X170562Y74863D01*
X170881Y75633D01*
X170989Y76458D01*
X170881Y77284D01*
X170562Y78053D01*
X170055Y78713D01*
X169395Y79220D01*
X168625Y79539D01*
X167800Y79647D01*
D02*
G37*
G36*
X108079Y74163D02*
X105544D01*
Y71628D01*
X105918Y71678D01*
X106638Y71976D01*
X107257Y72451D01*
X107732Y73070D01*
X108030Y73790D01*
X108079Y74163D01*
D02*
G37*
G36*
X104745D02*
X102210D01*
X102259Y73790D01*
X102557Y73070D01*
X103032Y72451D01*
X103651Y71976D01*
X104371Y71678D01*
X104745Y71628D01*
Y74163D01*
D02*
G37*
G36*
X95144Y77753D02*
X94319Y77644D01*
X93550Y77325D01*
X92889Y76819D01*
X92383Y76158D01*
X92064Y75389D01*
X91955Y74563D01*
X92064Y73738D01*
X92383Y72969D01*
X92889Y72308D01*
X93550Y71801D01*
X94319Y71483D01*
X95144Y71374D01*
X95970Y71483D01*
X96739Y71801D01*
X97400Y72308D01*
X97907Y72969D01*
X98225Y73738D01*
X98334Y74563D01*
X98225Y75389D01*
X97907Y76158D01*
X97400Y76819D01*
X96739Y77325D01*
X95970Y77644D01*
X95144Y77753D01*
D02*
G37*
G36*
X95200Y64291D02*
X94426Y64189D01*
X93704Y63890D01*
X93085Y63415D01*
X92610Y62796D01*
X92311Y62074D01*
X92209Y61300D01*
X92311Y60526D01*
X92610Y59804D01*
X93085Y59185D01*
X93704Y58710D01*
X94426Y58411D01*
X95200Y58309D01*
X95974Y58411D01*
X96696Y58710D01*
X97315Y59185D01*
X97790Y59804D01*
X98089Y60526D01*
X98191Y61300D01*
X98089Y62074D01*
X97790Y62796D01*
X97315Y63415D01*
X96696Y63890D01*
X95974Y64189D01*
X95200Y64291D01*
D02*
G37*
G36*
X85200Y64282D02*
X84426Y64180D01*
X83705Y63881D01*
X83085Y63406D01*
X82610Y62787D01*
X82311Y62065D01*
X82209Y61291D01*
X82311Y60517D01*
X82610Y59796D01*
X83085Y59176D01*
X83705Y58701D01*
X84426Y58402D01*
X85200Y58300D01*
X85974Y58402D01*
X86695Y58701D01*
X87315Y59176D01*
X87790Y59796D01*
X88089Y60517D01*
X88191Y61291D01*
X88089Y62065D01*
X87790Y62787D01*
X87315Y63406D01*
X86695Y63881D01*
X85974Y64180D01*
X85200Y64282D01*
D02*
G37*
G36*
X162231Y64098D02*
X156300D01*
Y58167D01*
X162231D01*
Y64098D01*
D02*
G37*
G36*
X135339Y64620D02*
X134478Y64506D01*
X133675Y64174D01*
X132986Y63645D01*
X132457Y62955D01*
X132124Y62153D01*
X132011Y61291D01*
X132124Y60430D01*
X132457Y59627D01*
X132986Y58938D01*
X133675Y58409D01*
X134478Y58076D01*
X135339Y57963D01*
X136201Y58076D01*
X137003Y58409D01*
X137693Y58938D01*
X138222Y59627D01*
X138554Y60430D01*
X138668Y61291D01*
X138554Y62153D01*
X138222Y62955D01*
X137693Y63645D01*
X137003Y64174D01*
X136201Y64506D01*
X135339Y64620D01*
D02*
G37*
G36*
X105339D02*
X104478Y64506D01*
X103675Y64174D01*
X102986Y63645D01*
X102457Y62955D01*
X102124Y62153D01*
X102011Y61291D01*
X102124Y60430D01*
X102457Y59627D01*
X102986Y58938D01*
X103675Y58409D01*
X104478Y58076D01*
X105339Y57963D01*
X106201Y58076D01*
X107003Y58409D01*
X107693Y58938D01*
X108222Y59627D01*
X108554Y60430D01*
X108668Y61291D01*
X108554Y62153D01*
X108222Y62955D01*
X107693Y63645D01*
X107003Y64174D01*
X106201Y64506D01*
X105339Y64620D01*
D02*
G37*
G36*
X145359Y64683D02*
X144482Y64567D01*
X143665Y64229D01*
X142963Y63690D01*
X142425Y62989D01*
X142086Y62172D01*
X141971Y61295D01*
X142086Y60418D01*
X142425Y59601D01*
X142963Y58899D01*
X143665Y58361D01*
X144482Y58022D01*
X145359Y57907D01*
X146236Y58022D01*
X147053Y58361D01*
X147754Y58899D01*
X148293Y59601D01*
X148631Y60418D01*
X148747Y61295D01*
X148631Y62172D01*
X148293Y62989D01*
X147754Y63690D01*
X147053Y64229D01*
X146236Y64567D01*
X145359Y64683D01*
D02*
G37*
G36*
X159666Y55989D02*
Y53653D01*
X162003D01*
X161960Y53974D01*
X161681Y54647D01*
X161238Y55225D01*
X160661Y55668D01*
X159988Y55947D01*
X159666Y55989D01*
D02*
G37*
G36*
X158866D02*
X158544Y55947D01*
X157871Y55668D01*
X157293Y55225D01*
X156850Y54647D01*
X156571Y53974D01*
X156529Y53653D01*
X158866D01*
Y55989D01*
D02*
G37*
G36*
X162003Y52853D02*
X159666D01*
Y50516D01*
X159988Y50558D01*
X160661Y50837D01*
X161238Y51280D01*
X161681Y51858D01*
X161960Y52531D01*
X162003Y52853D01*
D02*
G37*
G36*
X158866D02*
X156529D01*
X156571Y52531D01*
X156850Y51858D01*
X157293Y51280D01*
X157871Y50837D01*
X158544Y50558D01*
X158866Y50516D01*
Y52853D01*
D02*
G37*
G36*
X115674Y216828D02*
X114813Y216715D01*
X114010Y216383D01*
X113321Y215854D01*
X112792Y215164D01*
X112460Y214362D01*
X112346Y213500D01*
X112460Y212638D01*
X112792Y211836D01*
X113321Y211146D01*
X113697Y210858D01*
X113730Y210359D01*
X108196Y204825D01*
X100000D01*
X99493Y204725D01*
X99063Y204437D01*
X93183Y198558D01*
X92896Y198128D01*
X92795Y197620D01*
Y181945D01*
X84063Y173213D01*
X83775Y172783D01*
X83675Y172276D01*
Y151217D01*
X75563Y143105D01*
X75275Y142675D01*
X75174Y142168D01*
Y93306D01*
X75275Y92799D01*
X75563Y92369D01*
X86369Y81563D01*
X86799Y81275D01*
X87306Y81174D01*
X108284D01*
X116174Y73284D01*
Y59526D01*
X116275Y59018D01*
X116563Y58588D01*
X124797Y50354D01*
X125227Y50067D01*
X125735Y49966D01*
X132316D01*
X132457Y49627D01*
X132986Y48937D01*
X133675Y48409D01*
X134478Y48076D01*
X135339Y47963D01*
X136201Y48076D01*
X137003Y48409D01*
X137693Y48937D01*
X138222Y49627D01*
X138554Y50430D01*
X138668Y51291D01*
X138554Y52153D01*
X138222Y52955D01*
X137693Y53645D01*
X137003Y54174D01*
X136201Y54506D01*
X135339Y54620D01*
X134478Y54506D01*
X133675Y54174D01*
X132986Y53645D01*
X132457Y52955D01*
X132316Y52617D01*
X126284D01*
X118825Y60075D01*
Y73833D01*
X118725Y74341D01*
X118437Y74771D01*
X109771Y83437D01*
X109341Y83725D01*
X108833Y83825D01*
X87855D01*
X77825Y93855D01*
Y141619D01*
X85937Y149730D01*
X86225Y150160D01*
X86326Y150668D01*
Y171727D01*
X95058Y180459D01*
X95345Y180889D01*
X95446Y181396D01*
Y197071D01*
X100549Y202174D01*
X108745D01*
X109253Y202275D01*
X109683Y202563D01*
X116612Y209492D01*
X116899Y209922D01*
X117000Y210429D01*
Y210477D01*
X117339Y210617D01*
X118028Y211146D01*
X118557Y211836D01*
X118890Y212638D01*
X119003Y213500D01*
X118890Y214362D01*
X118557Y215164D01*
X118028Y215854D01*
X117339Y216383D01*
X116536Y216715D01*
X115674Y216828D01*
D02*
G37*
G36*
X105339Y54620D02*
X104478Y54506D01*
X103675Y54174D01*
X102986Y53645D01*
X102457Y52955D01*
X102124Y52153D01*
X102011Y51291D01*
X102124Y50430D01*
X102457Y49627D01*
X102986Y48937D01*
X103675Y48409D01*
X104478Y48076D01*
X105339Y47963D01*
X106201Y48076D01*
X107003Y48409D01*
X107693Y48937D01*
X108222Y49627D01*
X108554Y50430D01*
X108668Y51291D01*
X108554Y52153D01*
X108222Y52955D01*
X107693Y53645D01*
X107003Y54174D01*
X106201Y54506D01*
X105339Y54620D01*
D02*
G37*
G36*
X145759Y44428D02*
Y41695D01*
X148492D01*
X148436Y42119D01*
X148118Y42888D01*
X147612Y43548D01*
X146952Y44054D01*
X146183Y44372D01*
X145759Y44428D01*
D02*
G37*
G36*
X144959D02*
X144534Y44372D01*
X143766Y44054D01*
X143106Y43548D01*
X142599Y42888D01*
X142281Y42119D01*
X142225Y41695D01*
X144959D01*
Y44428D01*
D02*
G37*
G36*
Y40895D02*
X142225D01*
X142281Y40470D01*
X142599Y39702D01*
X143106Y39042D01*
X143766Y38535D01*
X144534Y38217D01*
X144959Y38161D01*
Y40895D01*
D02*
G37*
G36*
X148492D02*
X145759D01*
Y38161D01*
X146183Y38217D01*
X146952Y38535D01*
X147612Y39042D01*
X148118Y39702D01*
X148436Y40470D01*
X148492Y40895D01*
D02*
G37*
G36*
X135339Y44620D02*
X134478Y44506D01*
X133675Y44174D01*
X132986Y43645D01*
X132457Y42955D01*
X132124Y42153D01*
X132011Y41291D01*
X132124Y40430D01*
X132457Y39627D01*
X132986Y38938D01*
X133675Y38409D01*
X134478Y38076D01*
X135339Y37963D01*
X136201Y38076D01*
X137003Y38409D01*
X137693Y38938D01*
X138222Y39627D01*
X138554Y40430D01*
X138668Y41291D01*
X138554Y42153D01*
X138222Y42955D01*
X137693Y43645D01*
X137003Y44174D01*
X136201Y44506D01*
X135339Y44620D01*
D02*
G37*
G36*
X105339D02*
X104478Y44506D01*
X103675Y44174D01*
X102986Y43645D01*
X102457Y42955D01*
X102124Y42153D01*
X102011Y41291D01*
X102124Y40430D01*
X102457Y39627D01*
X102986Y38938D01*
X103675Y38409D01*
X104478Y38076D01*
X105339Y37963D01*
X106201Y38076D01*
X107003Y38409D01*
X107693Y38938D01*
X108222Y39627D01*
X108554Y40430D01*
X108668Y41291D01*
X108554Y42153D01*
X108222Y42955D01*
X107693Y43645D01*
X107003Y44174D01*
X106201Y44506D01*
X105339Y44620D01*
D02*
G37*
G36*
X105739Y34365D02*
Y31691D01*
X108413D01*
X108359Y32100D01*
X108047Y32855D01*
X107550Y33502D01*
X106903Y33999D01*
X106149Y34311D01*
X105739Y34365D01*
D02*
G37*
G36*
X104939D02*
X104530Y34311D01*
X103776Y33999D01*
X103128Y33502D01*
X102631Y32855D01*
X102319Y32100D01*
X102265Y31691D01*
X104939D01*
Y34365D01*
D02*
G37*
G36*
X95200Y34291D02*
X94426Y34189D01*
X93704Y33890D01*
X93085Y33415D01*
X92610Y32796D01*
X92311Y32074D01*
X92209Y31300D01*
X92311Y30526D01*
X92610Y29805D01*
X93085Y29185D01*
X93704Y28710D01*
X94426Y28411D01*
X95200Y28309D01*
X95974Y28411D01*
X96696Y28710D01*
X97315Y29185D01*
X97790Y29805D01*
X98089Y30526D01*
X98191Y31300D01*
X98089Y32074D01*
X97790Y32796D01*
X97315Y33415D01*
X96696Y33890D01*
X95974Y34189D01*
X95200Y34291D01*
D02*
G37*
G36*
X85200Y34282D02*
X84426Y34180D01*
X83705Y33882D01*
X83085Y33406D01*
X82610Y32787D01*
X82311Y32065D01*
X82209Y31291D01*
X82311Y30517D01*
X82610Y29796D01*
X83085Y29176D01*
X83705Y28701D01*
X84426Y28402D01*
X85200Y28300D01*
X85974Y28402D01*
X86695Y28701D01*
X87315Y29176D01*
X87790Y29796D01*
X88089Y30517D01*
X88191Y31291D01*
X88089Y32065D01*
X87790Y32787D01*
X87315Y33406D01*
X86695Y33882D01*
X85974Y34180D01*
X85200Y34282D01*
D02*
G37*
G36*
X108413Y30891D02*
X105739D01*
Y28217D01*
X106149Y28271D01*
X106903Y28583D01*
X107550Y29080D01*
X108047Y29728D01*
X108359Y30482D01*
X108413Y30891D01*
D02*
G37*
G36*
X104939D02*
X102265D01*
X102319Y30482D01*
X102631Y29728D01*
X103128Y29080D01*
X103776Y28583D01*
X104530Y28271D01*
X104939Y28217D01*
Y30891D01*
D02*
G37*
G36*
X71862Y34362D02*
X65538D01*
Y28038D01*
X71862D01*
Y34362D01*
D02*
G37*
G36*
X135339Y34620D02*
X134478Y34506D01*
X133675Y34174D01*
X132986Y33645D01*
X132457Y32955D01*
X132124Y32153D01*
X132011Y31291D01*
X132124Y30430D01*
X132457Y29627D01*
X132986Y28938D01*
X133675Y28409D01*
X134478Y28076D01*
X135339Y27963D01*
X136201Y28076D01*
X137003Y28409D01*
X137693Y28938D01*
X138222Y29627D01*
X138554Y30430D01*
X138668Y31291D01*
X138554Y32153D01*
X138222Y32955D01*
X137693Y33645D01*
X137003Y34174D01*
X136201Y34506D01*
X135339Y34620D01*
D02*
G37*
G36*
X68700Y24389D02*
X67874Y24281D01*
X67105Y23962D01*
X66445Y23455D01*
X65938Y22795D01*
X65619Y22026D01*
X65511Y21200D01*
X65619Y20374D01*
X65938Y19605D01*
X66445Y18945D01*
X67105Y18438D01*
X67874Y18119D01*
X68700Y18011D01*
X69525Y18119D01*
X70295Y18438D01*
X70955Y18945D01*
X71462Y19605D01*
X71781Y20374D01*
X71889Y21200D01*
X71781Y22026D01*
X71462Y22795D01*
X70955Y23455D01*
X70295Y23962D01*
X69525Y24281D01*
X68700Y24389D01*
D02*
G37*
G36*
X161309Y22199D02*
X160239Y22058D01*
X159242Y21645D01*
X158385Y20988D01*
X157728Y20131D01*
X157315Y19134D01*
X157174Y18064D01*
X157315Y16993D01*
X157728Y15996D01*
X158385Y15139D01*
X159242Y14482D01*
X160239Y14069D01*
X161309Y13928D01*
X162380Y14069D01*
X163377Y14482D01*
X164234Y15139D01*
X164891Y15996D01*
X165304Y16993D01*
X165445Y18064D01*
X165304Y19134D01*
X164891Y20131D01*
X164234Y20988D01*
X163377Y21645D01*
X162380Y22058D01*
X161309Y22199D01*
D02*
G37*
G36*
X138290Y14207D02*
Y11029D01*
X141469D01*
X141397Y11569D01*
X141035Y12444D01*
X140458Y13196D01*
X139706Y13773D01*
X138830Y14136D01*
X138290Y14207D01*
D02*
G37*
G36*
X137490D02*
X136950Y14136D01*
X136074Y13773D01*
X135322Y13196D01*
X134746Y12444D01*
X134383Y11569D01*
X134312Y11029D01*
X137490D01*
Y14207D01*
D02*
G37*
G36*
X105544Y14142D02*
Y10964D01*
X108723D01*
X108652Y11503D01*
X108289Y12379D01*
X107712Y13131D01*
X106960Y13708D01*
X106084Y14071D01*
X105544Y14142D01*
D02*
G37*
G36*
X104745D02*
X104205Y14071D01*
X103329Y13708D01*
X102577Y13131D01*
X102000Y12379D01*
X101637Y11503D01*
X101566Y10964D01*
X104745D01*
Y14142D01*
D02*
G37*
G36*
X165209Y11964D02*
X161709D01*
Y8463D01*
X165209D01*
Y11964D01*
D02*
G37*
G36*
X160909D02*
X157409D01*
Y8463D01*
X160909D01*
Y11964D01*
D02*
G37*
G36*
X68700Y14389D02*
X67874Y14281D01*
X67105Y13962D01*
X66445Y13455D01*
X65938Y12795D01*
X65619Y12025D01*
X65511Y11200D01*
X65619Y10375D01*
X65938Y9605D01*
X66445Y8945D01*
X67105Y8438D01*
X67874Y8119D01*
X68700Y8011D01*
X69525Y8119D01*
X70295Y8438D01*
X70955Y8945D01*
X71462Y9605D01*
X71781Y10375D01*
X71889Y11200D01*
X71781Y12025D01*
X71462Y12795D01*
X70955Y13455D01*
X70295Y13962D01*
X69525Y14281D01*
X68700Y14389D01*
D02*
G37*
G36*
X141469Y10229D02*
X138290D01*
Y7051D01*
X138830Y7122D01*
X139706Y7484D01*
X140458Y8061D01*
X141035Y8813D01*
X141397Y9689D01*
X141469Y10229D01*
D02*
G37*
G36*
X137490D02*
X134312D01*
X134383Y9689D01*
X134746Y8813D01*
X135322Y8061D01*
X136074Y7484D01*
X136950Y7122D01*
X137490Y7051D01*
Y10229D01*
D02*
G37*
G36*
X108723Y10164D02*
X105544D01*
Y6985D01*
X106084Y7056D01*
X106960Y7419D01*
X107712Y7996D01*
X108289Y8748D01*
X108652Y9624D01*
X108723Y10164D01*
D02*
G37*
G36*
X104745D02*
X101566D01*
X101637Y9624D01*
X102000Y8748D01*
X102577Y7996D01*
X103329Y7419D01*
X104205Y7056D01*
X104745Y6985D01*
Y10164D01*
D02*
G37*
G36*
X127890Y14462D02*
X126898Y14331D01*
X125974Y13948D01*
X125180Y13339D01*
X124571Y12545D01*
X124188Y11621D01*
X124057Y10629D01*
X124188Y9637D01*
X124571Y8713D01*
X125180Y7919D01*
X125974Y7310D01*
X126898Y6927D01*
X127890Y6796D01*
X128882Y6927D01*
X129806Y7310D01*
X130600Y7919D01*
X131209Y8713D01*
X131592Y9637D01*
X131723Y10629D01*
X131592Y11621D01*
X131209Y12545D01*
X130600Y13339D01*
X129806Y13948D01*
X128882Y14331D01*
X127890Y14462D01*
D02*
G37*
G36*
X95144Y14396D02*
X94152Y14266D01*
X93228Y13883D01*
X92434Y13274D01*
X91825Y12480D01*
X91442Y11556D01*
X91312Y10564D01*
X91442Y9572D01*
X91825Y8647D01*
X92434Y7853D01*
X93228Y7244D01*
X94152Y6861D01*
X95144Y6731D01*
X96136Y6861D01*
X97061Y7244D01*
X97855Y7853D01*
X98464Y8647D01*
X98847Y9572D01*
X98977Y10564D01*
X98847Y11556D01*
X98464Y12480D01*
X97855Y13274D01*
X97061Y13883D01*
X96136Y14266D01*
X95144Y14396D01*
D02*
G37*
G36*
X165209Y7664D02*
X161709D01*
Y4163D01*
X165209D01*
Y7664D01*
D02*
G37*
G36*
X160909D02*
X157409D01*
Y4163D01*
X160909D01*
Y7664D01*
D02*
G37*
%LPD*%
D12*
X108745Y203500D02*
X115674Y210429D01*
X100000Y203500D02*
X108745D01*
X94120Y197620D02*
X100000Y203500D01*
X94120Y181396D02*
Y197620D01*
X115674Y210429D02*
Y213500D01*
X117500Y59526D02*
Y73833D01*
X108833Y82500D02*
X117500Y73833D01*
X87306Y82500D02*
X108833D01*
X76500Y93306D02*
X87306Y82500D01*
X72377Y91861D02*
X85145Y79093D01*
Y74563D02*
Y79093D01*
X52400Y267100D02*
X66934Y252566D01*
X29687Y267100D02*
X52400D01*
X29102Y266000D02*
X29602Y265500D01*
X125735Y51291D02*
X135339D01*
X117500Y59526D02*
X125735Y51291D01*
X72377Y91861D02*
Y144099D01*
X76500Y142168D02*
X85000Y150668D01*
X76500Y93306D02*
Y142168D01*
X48500Y200000D02*
X56500Y208000D01*
X48500Y177000D02*
Y200000D01*
Y177000D02*
X61500Y164000D01*
X85000Y150668D02*
Y172276D01*
X94120Y181396D01*
X72377Y144099D02*
X81000Y152722D01*
Y180000D01*
X85000Y184000D01*
X80434Y223500D02*
X85000D01*
X66934Y237000D02*
X80434Y223500D01*
X66934Y237000D02*
Y252566D01*
X85000Y184000D02*
Y193500D01*
X115500Y230000D02*
Y243325D01*
X115674Y243500D01*
X109000Y223500D02*
X115500Y230000D01*
X105000Y223500D02*
X109000D01*
D41*
X147745Y76513D02*
Y183896D01*
Y76513D02*
X147800Y76458D01*
X147641Y184000D02*
X147745Y183896D01*
X138000Y184000D02*
X147641D01*
X156302Y209532D02*
Y234096D01*
X129200Y261198D02*
Y302253D01*
X124553Y306900D02*
X129200Y302253D01*
X116250Y306900D02*
X124553D01*
X129200Y261198D02*
X156302Y234096D01*
X165902Y199000D02*
X172794D01*
X163402Y196500D02*
X165902Y199000D01*
X156302Y196500D02*
X163402D01*
X156334Y196532D02*
X156383Y196581D01*
X156302Y196500D02*
X156334Y196532D01*
Y209500D01*
X156302Y209532D02*
X156334Y209500D01*
X156302Y192453D02*
Y196500D01*
X147745Y183896D02*
X156302Y192453D01*
X138000Y184000D02*
X138221Y183779D01*
D42*
X68700Y31200D02*
D03*
X91200Y99500D02*
D03*
X105000Y184000D02*
D03*
D43*
X68700Y21200D02*
D03*
Y11200D02*
D03*
X106000Y143200D02*
D03*
X96273Y113189D02*
D03*
X125975Y143200D02*
D03*
X193600Y177211D02*
D03*
Y167211D02*
D03*
Y157211D02*
D03*
X53750Y82000D02*
D03*
X31500D02*
D03*
X18000Y124000D02*
D03*
X136000Y123200D02*
D03*
X101200Y99500D02*
D03*
X172794Y189000D02*
D03*
X172802Y176500D02*
D03*
X118000Y184000D02*
D03*
X128000D02*
D03*
X138000D02*
D03*
X85145Y74563D02*
D03*
X105145D02*
D03*
X95144D02*
D03*
X147800Y76458D02*
D03*
X157800D02*
D03*
X167800D02*
D03*
X85000Y184000D02*
D03*
D44*
X85200Y61291D02*
D03*
Y31291D02*
D03*
X132000Y76519D02*
D03*
X31500Y114000D02*
D03*
X61500D02*
D03*
Y124000D02*
D03*
X31500D02*
D03*
X61500Y134000D02*
D03*
X31500D02*
D03*
X61500Y144000D02*
D03*
X31500D02*
D03*
X21551D02*
D03*
Y174000D02*
D03*
X11500D02*
D03*
Y204000D02*
D03*
Y214300D02*
D03*
Y244300D02*
D03*
X200600Y193670D02*
D03*
X86562Y113200D02*
D03*
Y143200D02*
D03*
X208500Y152400D02*
D03*
Y182400D02*
D03*
X198500Y142462D02*
D03*
Y112462D02*
D03*
X178500Y142500D02*
D03*
Y112500D02*
D03*
X156302Y166500D02*
D03*
Y196500D02*
D03*
X159266Y53253D02*
D03*
X95200Y61300D02*
D03*
Y31300D02*
D03*
D45*
X139880Y76519D02*
D03*
X208480Y193670D02*
D03*
D46*
X138000Y199510D02*
D03*
X118000D02*
D03*
X188500Y122500D02*
D03*
Y142500D02*
D03*
X11500Y164000D02*
D03*
Y144000D02*
D03*
X21551Y184000D02*
D03*
Y204000D02*
D03*
X36500Y208000D02*
D03*
X56500D02*
D03*
X36500Y196500D02*
D03*
X56500D02*
D03*
X116000Y113226D02*
D03*
X136000D02*
D03*
X208500Y142415D02*
D03*
Y122415D02*
D03*
X71500Y154000D02*
D03*
Y174000D02*
D03*
X145359Y41295D02*
D03*
Y61295D02*
D03*
D47*
X106000Y113200D02*
D03*
X96273Y143189D02*
D03*
X125975Y123200D02*
D03*
X53750Y92000D02*
D03*
X31500D02*
D03*
X18000Y134000D02*
D03*
X136000Y143200D02*
D03*
X172794Y199000D02*
D03*
X172802Y166500D02*
D03*
D48*
X96200Y162500D02*
D03*
X116200D02*
D03*
D49*
X136200D02*
D03*
D50*
X209000Y220500D02*
D03*
X63525Y101000D02*
D03*
X209000D02*
D03*
X63525Y220526D02*
D03*
D51*
X189000Y220500D02*
D03*
X169000D02*
D03*
X43525Y101000D02*
D03*
X23526D02*
D03*
X189000D02*
D03*
X169000D02*
D03*
X43525Y220526D02*
D03*
X23526D02*
D03*
D52*
X116250Y306900D02*
D03*
Y283278D02*
D03*
D53*
X138914Y292100D02*
D03*
X202812D02*
D03*
X138914Y317100D02*
D03*
X202812D02*
D03*
X138914Y267100D02*
D03*
X202812D02*
D03*
X29687Y292100D02*
D03*
X93585D02*
D03*
X29687Y317100D02*
D03*
X93585D02*
D03*
X29687Y267100D02*
D03*
X93585D02*
D03*
D54*
X61500Y154000D02*
D03*
Y164000D02*
D03*
Y184000D02*
D03*
Y174000D02*
D03*
X31500Y154000D02*
D03*
Y164000D02*
D03*
Y174000D02*
D03*
Y184000D02*
D03*
X115674Y213500D02*
D03*
X125674D02*
D03*
Y243500D02*
D03*
X115674D02*
D03*
X135339Y31291D02*
D03*
Y41291D02*
D03*
Y61291D02*
D03*
Y51291D02*
D03*
X105339Y31291D02*
D03*
Y41291D02*
D03*
Y51291D02*
D03*
Y61291D02*
D03*
D55*
X118758Y103871D02*
D03*
X133808Y93871D02*
D03*
D56*
X118758D02*
D03*
X133808Y103871D02*
D03*
D57*
X156334Y210500D02*
D03*
D58*
X184334D02*
D03*
D59*
X95144Y10564D02*
D03*
X105145D02*
D03*
X137890Y10629D02*
D03*
X127890D02*
D03*
D60*
X161309Y18064D02*
D03*
D61*
Y8063D02*
D03*
D62*
X85000Y193500D02*
D03*
Y213500D02*
D03*
Y223500D02*
D03*
Y233500D02*
D03*
X105000D02*
D03*
Y223500D02*
D03*
Y213500D02*
D03*
Y193500D02*
D03*
D63*
X159266Y61133D02*
D03*
D64*
X99800Y26500D02*
D03*
X78000D02*
D03*
X99000Y55500D02*
D03*
X126000Y129500D02*
D03*
X202000Y178900D02*
D03*
X144100Y50800D02*
D03*
Y68200D02*
D03*
X104900Y207300D02*
D03*
X105000Y199600D02*
D03*
X161500Y203000D02*
D03*
X153500Y33000D02*
D03*
X108225Y89000D02*
D03*
X126770D02*
D03*
X118000Y79238D02*
D03*
X112000Y73500D02*
D03*
X124500Y58588D02*
D03*
X68566Y93855D02*
D03*
X80358Y98674D02*
D03*
X87255Y89000D02*
D03*
X31500Y75500D02*
D03*
X53750D02*
D03*
X57573Y159100D02*
D03*
X58588Y108600D02*
D03*
X21551Y160000D02*
D03*
X21700Y168000D02*
D03*
X76900Y178755D02*
D03*
X110000Y179049D02*
D03*
X202300Y128800D02*
D03*
X178700Y125300D02*
D03*
X202096Y153800D02*
D03*
X152519Y89000D02*
D03*
X199000Y100500D02*
D03*
X183500Y105500D02*
D03*
X89000Y154000D02*
D03*
X148500Y192500D02*
D03*
X151000Y229500D02*
D03*
X115480Y21000D02*
D03*
X118000Y52478D02*
D03*
X94674Y220000D02*
D03*
X46500Y204612D02*
D03*
X38500Y179697D02*
D03*
X44500Y162000D02*
D03*
Y139009D02*
D03*
X26500D02*
D03*
X37500Y95764D02*
D03*
X34389Y105000D02*
D03*
X125500Y152500D02*
D03*
X125944Y108000D02*
D03*
X142508Y96500D02*
D03*
X142643Y152500D02*
D03*
X142598Y128800D02*
D03*
Y108000D02*
D03*
X80866Y189000D02*
D03*
X89381D02*
D03*
X98428D02*
D03*
X110000D02*
D03*
X142508Y179000D02*
D03*
X77000Y169090D02*
D03*
X89000Y168947D02*
D03*
X68500Y138000D02*
D03*
X80358D02*
D03*
X68566Y118000D02*
D03*
X80358D02*
D03*
X228700Y303800D02*
D03*
Y278800D02*
D03*
Y253800D02*
D03*
Y228800D02*
D03*
Y203800D02*
D03*
Y178800D02*
D03*
Y153800D02*
D03*
Y128800D02*
D03*
Y103800D02*
D03*
Y78800D02*
D03*
Y53800D02*
D03*
Y28800D02*
D03*
Y3800D02*
D03*
X203700Y328800D02*
D03*
Y303800D02*
D03*
Y278800D02*
D03*
Y253800D02*
D03*
Y228800D02*
D03*
Y203800D02*
D03*
Y78800D02*
D03*
Y53800D02*
D03*
Y28800D02*
D03*
Y3800D02*
D03*
X178700Y328800D02*
D03*
Y303800D02*
D03*
Y278800D02*
D03*
Y253800D02*
D03*
Y228800D02*
D03*
Y153800D02*
D03*
Y78800D02*
D03*
Y53800D02*
D03*
Y28800D02*
D03*
Y3800D02*
D03*
X153700Y328800D02*
D03*
Y303800D02*
D03*
Y278800D02*
D03*
Y253800D02*
D03*
Y178800D02*
D03*
Y153800D02*
D03*
Y128800D02*
D03*
Y103800D02*
D03*
Y3800D02*
D03*
X128700Y328800D02*
D03*
Y253800D02*
D03*
Y228800D02*
D03*
Y203800D02*
D03*
Y28800D02*
D03*
Y3800D02*
D03*
X103700Y328800D02*
D03*
Y303800D02*
D03*
Y278800D02*
D03*
Y253800D02*
D03*
Y153800D02*
D03*
Y128800D02*
D03*
Y3800D02*
D03*
X78700Y328800D02*
D03*
Y303800D02*
D03*
Y278800D02*
D03*
Y253800D02*
D03*
Y203800D02*
D03*
Y78800D02*
D03*
Y53800D02*
D03*
Y3800D02*
D03*
X53700Y328800D02*
D03*
Y303800D02*
D03*
Y278800D02*
D03*
Y253800D02*
D03*
Y228800D02*
D03*
Y178800D02*
D03*
Y128800D02*
D03*
Y53800D02*
D03*
Y28800D02*
D03*
Y3800D02*
D03*
X28700Y328800D02*
D03*
Y303800D02*
D03*
Y278800D02*
D03*
Y253800D02*
D03*
Y228800D02*
D03*
Y203800D02*
D03*
Y53800D02*
D03*
Y28800D02*
D03*
Y3800D02*
D03*
X3700Y303800D02*
D03*
Y278800D02*
D03*
Y253800D02*
D03*
Y228800D02*
D03*
Y203800D02*
D03*
Y178800D02*
D03*
Y153800D02*
D03*
Y128800D02*
D03*
Y103800D02*
D03*
Y78800D02*
D03*
Y53800D02*
D03*
Y28800D02*
D03*
Y3800D02*
D03*
M02*
