G04*
G04 #@! TF.GenerationSoftware,Altium Limited,Altium Designer,19.0.12 (326)*
G04*
G04 Layer_Color=16711935*
%FSLAX25Y25*%
%MOIN*%
G70*
G01*
G75*
%ADD18C,0.06890*%
%ADD19C,0.05315*%
%ADD20R,0.05315X0.05315*%
%ADD21R,0.05315X0.05315*%
%ADD22C,0.04922*%
%ADD23C,0.05709*%
%ADD24R,0.04922X0.04922*%
%ADD25C,0.05591*%
%ADD26R,0.07678X0.07678*%
%ADD27C,0.07678*%
%ADD28C,0.15355*%
%ADD29C,0.07191*%
%ADD30R,0.07191X0.07191*%
%ADD31C,0.06591*%
%ADD32C,0.08859*%
%ADD33C,0.05316*%
%ADD34R,0.11221X0.11221*%
%ADD35C,0.11221*%
%ADD36R,0.06103X0.06103*%
%ADD37C,0.06103*%
%ADD38C,0.03591*%
D18*
X23500Y76500D02*
D03*
Y86500D02*
D03*
X53500Y76500D02*
D03*
Y86500D02*
D03*
Y60000D02*
D03*
Y50000D02*
D03*
X23500Y60000D02*
D03*
Y50000D02*
D03*
X136000Y120000D02*
D03*
Y110000D02*
D03*
X106000Y120000D02*
D03*
Y110000D02*
D03*
X22474Y245000D02*
D03*
X52473D02*
D03*
D19*
X80962Y210589D02*
D03*
X54000Y151000D02*
D03*
X34000Y171000D02*
D03*
X195500Y205500D02*
D03*
X185500D02*
D03*
X175500D02*
D03*
X211500Y227387D02*
D03*
X127524Y16000D02*
D03*
X117525Y26000D02*
D03*
X211100Y258500D02*
D03*
X149500Y181000D02*
D03*
X154019Y234500D02*
D03*
X114000D02*
D03*
X124000D02*
D03*
X134000D02*
D03*
X154762Y77306D02*
D03*
X144762D02*
D03*
X134762D02*
D03*
X84000Y234500D02*
D03*
X24000Y151000D02*
D03*
X200687Y78184D02*
D03*
X210686D02*
D03*
X220687D02*
D03*
X149500Y171000D02*
D03*
X34000Y161000D02*
D03*
X90424Y190589D02*
D03*
D20*
X80962D02*
D03*
X211500Y237387D02*
D03*
X211100Y248500D02*
D03*
X149500Y191000D02*
D03*
X24000Y171000D02*
D03*
X149500Y161000D02*
D03*
X90424Y210589D02*
D03*
D21*
X34000Y151000D02*
D03*
X54000Y171000D02*
D03*
X107525Y16000D02*
D03*
X144019Y234500D02*
D03*
X104000D02*
D03*
X54000Y161000D02*
D03*
D22*
X22504Y259000D02*
D03*
X52504D02*
D03*
X195189Y215500D02*
D03*
Y245500D02*
D03*
X185500D02*
D03*
Y215500D02*
D03*
X175500D02*
D03*
Y245500D02*
D03*
X200000Y191000D02*
D03*
X170000D02*
D03*
X200000Y161000D02*
D03*
X170000D02*
D03*
X23500Y110000D02*
D03*
X53500D02*
D03*
Y100000D02*
D03*
X23500D02*
D03*
X93500Y70000D02*
D03*
X63500D02*
D03*
X93500Y90000D02*
D03*
X63500D02*
D03*
X139500Y62800D02*
D03*
Y32800D02*
D03*
X189700Y86011D02*
D03*
X149500Y32806D02*
D03*
Y62806D02*
D03*
X111500Y191000D02*
D03*
Y161000D02*
D03*
X121500Y191000D02*
D03*
Y161000D02*
D03*
X213962Y54806D02*
D03*
X93500Y181000D02*
D03*
X63500D02*
D03*
X53500Y130000D02*
D03*
X23500D02*
D03*
X53500Y120000D02*
D03*
X23500D02*
D03*
X93500Y161000D02*
D03*
X63500D02*
D03*
X200000Y171000D02*
D03*
X170000D02*
D03*
X63500Y151000D02*
D03*
X93500D02*
D03*
X11000Y237622D02*
D03*
Y267622D02*
D03*
X24000Y181000D02*
D03*
X54000D02*
D03*
X131500Y161000D02*
D03*
Y191000D02*
D03*
D23*
X175506Y181000D02*
D03*
X195506D02*
D03*
X131000Y145000D02*
D03*
X111000D02*
D03*
X131000Y134500D02*
D03*
X111000D02*
D03*
X68500Y50000D02*
D03*
X88500D02*
D03*
Y60000D02*
D03*
X68500D02*
D03*
X114032Y249800D02*
D03*
X134032D02*
D03*
X53500Y140500D02*
D03*
X33500D02*
D03*
X199462Y42806D02*
D03*
Y62806D02*
D03*
X93500Y141000D02*
D03*
X73500D02*
D03*
X43500Y25500D02*
D03*
X23500D02*
D03*
Y35500D02*
D03*
X43500D02*
D03*
X200000Y138500D02*
D03*
X180000D02*
D03*
Y128000D02*
D03*
X200000D02*
D03*
X88500Y171000D02*
D03*
X68500D02*
D03*
X88500Y79900D02*
D03*
X68500D02*
D03*
D24*
X189700Y78132D02*
D03*
X213962Y62686D02*
D03*
D25*
X115000Y295500D02*
D03*
X125000D02*
D03*
Y265500D02*
D03*
X115000D02*
D03*
X189462Y32806D02*
D03*
Y42806D02*
D03*
Y62806D02*
D03*
Y52806D02*
D03*
X159462Y32806D02*
D03*
Y42806D02*
D03*
Y52806D02*
D03*
Y62806D02*
D03*
X63500Y130000D02*
D03*
Y120000D02*
D03*
Y110000D02*
D03*
Y100000D02*
D03*
X93500Y120000D02*
D03*
Y130000D02*
D03*
Y110000D02*
D03*
Y100000D02*
D03*
D26*
X209000Y269500D02*
D03*
Y150000D02*
D03*
X63500Y269500D02*
D03*
D27*
X189000D02*
D03*
X169000D02*
D03*
X189000Y150000D02*
D03*
X169000D02*
D03*
X43500Y269500D02*
D03*
X23500D02*
D03*
D28*
X116250Y355900D02*
D03*
Y332278D02*
D03*
D29*
X214847Y18500D02*
D03*
D30*
Y8500D02*
D03*
D31*
X181252Y11600D02*
D03*
X191252D02*
D03*
X149500D02*
D03*
X159500D02*
D03*
D32*
X138911Y341100D02*
D03*
X202809D02*
D03*
X138911Y366100D02*
D03*
X202809D02*
D03*
X138911Y316100D02*
D03*
X202809D02*
D03*
X29692Y341100D02*
D03*
X93590D02*
D03*
X29692Y366100D02*
D03*
X93590D02*
D03*
X29692Y316100D02*
D03*
X93590D02*
D03*
D33*
X84000Y245366D02*
D03*
Y265366D02*
D03*
Y275366D02*
D03*
Y285366D02*
D03*
X104000D02*
D03*
Y275366D02*
D03*
Y265366D02*
D03*
Y245366D02*
D03*
D34*
X23500Y221462D02*
D03*
D35*
X43500D02*
D03*
X63500D02*
D03*
X23500Y201462D02*
D03*
X43500D02*
D03*
X63500D02*
D03*
D36*
X144019Y258000D02*
D03*
D37*
X172019D02*
D03*
D38*
X109500Y229700D02*
D03*
X138400D02*
D03*
X131500Y125000D02*
D03*
X98300Y135500D02*
D03*
X41000Y155500D02*
D03*
X49177D02*
D03*
X38391Y254000D02*
D03*
X3700Y204000D02*
D03*
X43000Y190500D02*
D03*
X28700Y304000D02*
D03*
X69000Y208334D02*
D03*
X78700Y379000D02*
D03*
X203700Y279000D02*
D03*
X228700Y79000D02*
D03*
X38691Y167500D02*
D03*
X107728Y179000D02*
D03*
X33500Y184066D02*
D03*
X103700Y29000D02*
D03*
X153700Y4000D02*
D03*
X100500Y115500D02*
D03*
X153700Y129000D02*
D03*
X178700Y354000D02*
D03*
X156606Y156153D02*
D03*
X126500Y140175D02*
D03*
X84500Y153991D02*
D03*
X3700Y29000D02*
D03*
X98000Y154081D02*
D03*
X155535Y176000D02*
D03*
X3700Y254000D02*
D03*
X53700Y4000D02*
D03*
X73500Y125000D02*
D03*
X128700Y104000D02*
D03*
X78700Y304000D02*
D03*
X58000Y104000D02*
D03*
X228700Y254000D02*
D03*
X178700Y329000D02*
D03*
X228700Y204000D02*
D03*
X170500Y104000D02*
D03*
X28700Y379000D02*
D03*
X103700Y329000D02*
D03*
X43500Y140600D02*
D03*
X192666Y160000D02*
D03*
X138000Y291500D02*
D03*
X145000Y196500D02*
D03*
X3700Y129000D02*
D03*
X169226Y204000D02*
D03*
X38391Y209500D02*
D03*
X103700Y79000D02*
D03*
X203700Y29000D02*
D03*
X134826Y179000D02*
D03*
X3700Y354000D02*
D03*
X77000Y272000D02*
D03*
X228700Y279000D02*
D03*
X28700Y209500D02*
D03*
X69000Y254000D02*
D03*
X178700Y229000D02*
D03*
X228700Y154000D02*
D03*
X153700Y379000D02*
D03*
X35896Y105500D02*
D03*
X216000Y179000D02*
D03*
X178700Y254000D02*
D03*
X103700Y54000D02*
D03*
X228700Y354000D02*
D03*
X3700Y279000D02*
D03*
X216000Y153889D02*
D03*
X97000Y187000D02*
D03*
X28700Y254000D02*
D03*
X69000Y185000D02*
D03*
X76500Y153889D02*
D03*
X103700Y379000D02*
D03*
X3700Y4000D02*
D03*
X228700Y129000D02*
D03*
X145000Y153889D02*
D03*
X77000Y234900D02*
D03*
X165000Y185962D02*
D03*
X3700Y154000D02*
D03*
X48000Y81500D02*
D03*
X170000Y128943D02*
D03*
X107493Y196173D02*
D03*
X14000Y229000D02*
D03*
X77000Y206000D02*
D03*
X153700Y29000D02*
D03*
X228700Y104000D02*
D03*
X3700Y229000D02*
D03*
X228700Y54000D02*
D03*
X190325Y210589D02*
D03*
X170000Y143434D02*
D03*
X203700Y4000D02*
D03*
X151827Y104000D02*
D03*
X128700Y379000D02*
D03*
X24000Y190500D02*
D03*
X178700Y154000D02*
D03*
X103700Y4000D02*
D03*
X3700Y304000D02*
D03*
X53700Y29000D02*
D03*
X178700Y4000D02*
D03*
X78700Y29000D02*
D03*
X155000Y143434D02*
D03*
X138911Y279000D02*
D03*
X39000Y81594D02*
D03*
X203700Y204000D02*
D03*
X128700Y4000D02*
D03*
X203700Y54000D02*
D03*
Y329000D02*
D03*
X30919Y129000D02*
D03*
X69000Y239000D02*
D03*
X78700Y4000D02*
D03*
X28700Y329000D02*
D03*
X3700Y104000D02*
D03*
X80000Y184500D02*
D03*
X53700Y204000D02*
D03*
X59000Y155500D02*
D03*
X153700Y329000D02*
D03*
X59000Y166000D02*
D03*
X38391Y230500D02*
D03*
X180661Y104000D02*
D03*
X178700Y304000D02*
D03*
X204657Y143000D02*
D03*
X116762Y140123D02*
D03*
X70000Y278129D02*
D03*
X97000Y209000D02*
D03*
X53700Y279000D02*
D03*
X128700Y154000D02*
D03*
X180260Y210589D02*
D03*
X139000Y209000D02*
D03*
X103700Y354000D02*
D03*
X53700Y379000D02*
D03*
X58000Y125000D02*
D03*
X205297Y229000D02*
D03*
X185712Y179000D02*
D03*
X75000Y104000D02*
D03*
X112895Y125000D02*
D03*
X228700Y4000D02*
D03*
X175500Y274500D02*
D03*
X228700Y29000D02*
D03*
X28700Y279000D02*
D03*
X3700Y329000D02*
D03*
X78700Y54000D02*
D03*
X14000Y179000D02*
D03*
X149000Y208995D02*
D03*
X53700Y354000D02*
D03*
X85366Y125000D02*
D03*
X28700Y4000D02*
D03*
Y54000D02*
D03*
X228700Y304000D02*
D03*
X53700Y329000D02*
D03*
X78700Y354000D02*
D03*
X203700D02*
D03*
X14000Y154000D02*
D03*
X203700Y304000D02*
D03*
X153700D02*
D03*
X78700Y79000D02*
D03*
X28700Y230500D02*
D03*
X153725Y57500D02*
D03*
X178700Y54000D02*
D03*
X3700Y79000D02*
D03*
X153700Y354000D02*
D03*
X14000Y204000D02*
D03*
X17500Y79023D02*
D03*
X228700Y329000D02*
D03*
X164750Y165741D02*
D03*
X228700Y179000D02*
D03*
X128700Y29000D02*
D03*
X28700D02*
D03*
X228700Y229000D02*
D03*
X149100Y279000D02*
D03*
X107325Y209000D02*
D03*
X69000Y176789D02*
D03*
X77000Y217615D02*
D03*
X103700Y304000D02*
D03*
X205297Y104000D02*
D03*
X3700Y179000D02*
D03*
X213500Y129041D02*
D03*
X124000Y218275D02*
D03*
X3700Y54000D02*
D03*
X77000Y254000D02*
D03*
X153700D02*
D03*
X178700Y379000D02*
D03*
X85366Y104000D02*
D03*
X203700Y254000D02*
D03*
X187674Y128943D02*
D03*
X112500Y154081D02*
D03*
X203700Y379000D02*
D03*
X97000Y171400D02*
D03*
X78700Y329000D02*
D03*
X27348Y105500D02*
D03*
X128700Y54000D02*
D03*
X28700Y354000D02*
D03*
X102000Y252000D02*
D03*
X134675Y196500D02*
D03*
X113500Y111495D02*
D03*
X128700Y79000D02*
D03*
Y254000D02*
D03*
X100500Y105500D02*
D03*
X118000Y173396D02*
D03*
X198749Y114500D02*
D03*
X58000Y228500D02*
D03*
X48000Y53726D02*
D03*
X106500Y140123D02*
D03*
X126500Y303000D02*
D03*
X110578Y290000D02*
D03*
X114237Y279000D02*
D03*
X89199Y240000D02*
D03*
X98567D02*
D03*
X110726Y242000D02*
D03*
X93590Y269737D02*
D03*
Y261000D02*
D03*
X196000Y70774D02*
D03*
X175000Y79418D02*
D03*
M02*
