G04*
G04 #@! TF.GenerationSoftware,Altium Limited,Altium Designer,19.0.12 (326)*
G04*
G04 Layer_Color=65535*
%FSLAX25Y25*%
%MOIN*%
G70*
G01*
G75*
%ADD10C,0.00600*%
%ADD11C,0.00500*%
%ADD12C,0.01000*%
%ADD13C,0.00787*%
%ADD14C,0.00800*%
%ADD15R,0.08000X0.02000*%
%ADD16R,0.02000X0.08000*%
%ADD17R,0.02000X0.10000*%
G36*
X9819Y17934D02*
X16641D01*
Y17812D01*
Y17691D01*
Y17569D01*
Y17447D01*
Y17325D01*
Y17203D01*
Y17082D01*
Y16960D01*
X16762D01*
Y16838D01*
X16641D01*
Y16716D01*
X16762D01*
Y16594D01*
X16641D01*
Y16473D01*
X16762D01*
Y16351D01*
X16641D01*
Y16229D01*
X16762D01*
Y16107D01*
X16641D01*
Y15985D01*
X16762D01*
Y15864D01*
X16641D01*
Y15742D01*
X16762D01*
Y15620D01*
X16641D01*
Y15498D01*
X16762D01*
Y15376D01*
X16641D01*
Y15254D01*
X16762D01*
Y15133D01*
X16641D01*
Y15011D01*
X16762D01*
Y14889D01*
Y14767D01*
Y14645D01*
Y14524D01*
Y14402D01*
Y14280D01*
Y14158D01*
Y14036D01*
Y13915D01*
Y13793D01*
Y13671D01*
Y13549D01*
Y13427D01*
X16884D01*
Y13305D01*
X16762D01*
Y13184D01*
Y13062D01*
Y12940D01*
X16884D01*
Y12818D01*
X16762D01*
Y12696D01*
X16884D01*
Y12574D01*
Y12453D01*
Y12331D01*
Y12209D01*
Y12087D01*
Y11965D01*
Y11844D01*
Y11722D01*
Y11600D01*
Y11478D01*
Y11356D01*
Y11235D01*
Y11113D01*
X17006D01*
Y10991D01*
X16884D01*
Y10869D01*
X17006D01*
Y10747D01*
X16884D01*
Y10626D01*
X17006D01*
Y10504D01*
X16884D01*
Y10382D01*
X17006D01*
Y10260D01*
X16884D01*
Y10138D01*
X17006D01*
Y10016D01*
X16884D01*
Y9895D01*
X17006D01*
Y9773D01*
X16884D01*
Y9651D01*
X17006D01*
Y9529D01*
X16884D01*
Y9407D01*
X17006D01*
Y9285D01*
X16884D01*
Y9164D01*
X17006D01*
Y9042D01*
Y8920D01*
Y8798D01*
Y8676D01*
Y8555D01*
Y8433D01*
Y8311D01*
X16884D01*
Y8433D01*
X16762D01*
Y8311D01*
X12742D01*
Y8189D01*
X12621D01*
Y8311D01*
X12499D01*
Y8189D01*
X12377D01*
Y8311D01*
X12255D01*
Y8189D01*
X12133D01*
Y8311D01*
X11768D01*
Y8189D01*
X11646D01*
Y8311D01*
X11524D01*
Y8189D01*
X11402D01*
Y8311D01*
X11281D01*
Y8189D01*
X11159D01*
Y8311D01*
X11037D01*
Y8189D01*
X10915D01*
Y8311D01*
X10793D01*
Y8189D01*
X10672D01*
Y8311D01*
X10550D01*
Y8189D01*
X9453D01*
Y8311D01*
X9575D01*
Y8433D01*
X9453D01*
Y8555D01*
X9575D01*
Y8676D01*
Y8798D01*
Y8920D01*
X9453D01*
Y9042D01*
Y9164D01*
Y9285D01*
Y9407D01*
Y9529D01*
Y9651D01*
Y9773D01*
X9575D01*
Y9895D01*
X9453D01*
Y10016D01*
Y10138D01*
Y10260D01*
Y10382D01*
Y10504D01*
Y10626D01*
Y10747D01*
Y10869D01*
Y10991D01*
Y11113D01*
Y11235D01*
Y11356D01*
Y11478D01*
Y11600D01*
Y11722D01*
Y11844D01*
Y11965D01*
Y12087D01*
Y12209D01*
X9332D01*
Y12331D01*
X9453D01*
Y12453D01*
X9332D01*
Y12574D01*
X9453D01*
Y12696D01*
X9332D01*
Y12818D01*
X9453D01*
Y12940D01*
X9332D01*
Y13062D01*
X9453D01*
Y13184D01*
X9332D01*
Y13305D01*
X9453D01*
Y13427D01*
X9332D01*
Y13549D01*
X9453D01*
Y13671D01*
X9332D01*
Y13793D01*
X9453D01*
Y13915D01*
X9332D01*
Y14036D01*
X9453D01*
Y14158D01*
X9332D01*
Y14280D01*
X9453D01*
Y14402D01*
X9332D01*
Y14524D01*
X9453D01*
Y14645D01*
X9332D01*
Y14767D01*
X9453D01*
Y14889D01*
X9332D01*
Y15011D01*
X9453D01*
Y15133D01*
X9332D01*
Y15254D01*
X9453D01*
Y15376D01*
X9332D01*
Y15498D01*
X9453D01*
Y15620D01*
X9332D01*
Y15742D01*
X9453D01*
Y15864D01*
X9332D01*
Y15985D01*
X9453D01*
Y16107D01*
X9332D01*
Y16229D01*
X9453D01*
Y16351D01*
X9332D01*
Y16473D01*
X9453D01*
Y16594D01*
X9332D01*
Y16716D01*
X9453D01*
Y16838D01*
X9332D01*
Y16960D01*
X9453D01*
Y17082D01*
X9332D01*
Y17203D01*
Y17325D01*
Y17447D01*
Y17569D01*
Y17691D01*
Y17812D01*
Y17934D01*
X9453D01*
Y18056D01*
X9575D01*
Y17934D01*
X9697D01*
Y18056D01*
X9819D01*
Y17934D01*
D02*
G37*
G36*
X23584Y18300D02*
X23462D01*
Y18178D01*
X23584D01*
Y18056D01*
X23462D01*
Y17934D01*
X23584D01*
Y17812D01*
X23462D01*
Y17691D01*
X23584D01*
Y17569D01*
X23462D01*
Y17447D01*
X23584D01*
Y17325D01*
Y17203D01*
Y17082D01*
Y16960D01*
Y16838D01*
Y16716D01*
Y16594D01*
Y16473D01*
Y16351D01*
Y16229D01*
Y16107D01*
Y15985D01*
Y15864D01*
X23706D01*
Y15742D01*
X23584D01*
Y15620D01*
X23706D01*
Y15498D01*
X23584D01*
Y15376D01*
X23706D01*
Y15254D01*
X23584D01*
Y15133D01*
X23706D01*
Y15011D01*
Y14889D01*
Y14767D01*
Y14645D01*
Y14524D01*
Y14402D01*
Y14280D01*
Y14158D01*
Y14036D01*
Y13915D01*
Y13793D01*
X23828D01*
Y13671D01*
X23706D01*
Y13549D01*
X23828D01*
Y13427D01*
X23706D01*
Y13305D01*
X23828D01*
Y13184D01*
X23706D01*
Y13062D01*
X23828D01*
Y12940D01*
X23706D01*
Y12818D01*
X23828D01*
Y12696D01*
X23706D01*
Y12574D01*
X23828D01*
Y12453D01*
X23706D01*
Y12331D01*
X23828D01*
Y12209D01*
X23706D01*
Y12087D01*
X23828D01*
Y11965D01*
X23706D01*
Y11844D01*
X23828D01*
Y11722D01*
Y11600D01*
Y11478D01*
Y11356D01*
Y11235D01*
Y11113D01*
Y10991D01*
Y10869D01*
Y10747D01*
Y10626D01*
Y10504D01*
Y10382D01*
Y10260D01*
X23949D01*
Y10382D01*
X24071D01*
Y10504D01*
X23949D01*
Y10626D01*
X24071D01*
Y10747D01*
X23949D01*
Y10869D01*
X24071D01*
Y10991D01*
X23949D01*
Y11113D01*
X24071D01*
Y11235D01*
Y11356D01*
Y11478D01*
Y11600D01*
Y11722D01*
X24193D01*
Y11844D01*
X24071D01*
Y11965D01*
X24193D01*
Y12087D01*
Y12209D01*
Y12331D01*
Y12453D01*
Y12574D01*
Y12696D01*
Y12818D01*
X24315D01*
Y12940D01*
X24193D01*
Y13062D01*
X24315D01*
Y13184D01*
X24193D01*
Y13305D01*
X24315D01*
Y13427D01*
X24193D01*
Y13549D01*
X24315D01*
Y13671D01*
Y13793D01*
Y13915D01*
Y14036D01*
Y14158D01*
X24437D01*
Y14280D01*
X24315D01*
Y14402D01*
X24437D01*
Y14524D01*
Y14645D01*
Y14767D01*
Y14889D01*
Y15011D01*
X24558D01*
Y15133D01*
X24437D01*
Y15254D01*
X24558D01*
Y15376D01*
X24437D01*
Y15498D01*
X24558D01*
Y15620D01*
X24437D01*
Y15742D01*
X24558D01*
Y15864D01*
X24437D01*
Y15985D01*
X24558D01*
Y16107D01*
Y16229D01*
Y16351D01*
Y16473D01*
Y16594D01*
X24680D01*
Y16716D01*
X24558D01*
Y16838D01*
X24680D01*
Y16960D01*
Y17082D01*
Y17203D01*
Y17325D01*
Y17447D01*
X24802D01*
Y17569D01*
X24680D01*
Y17691D01*
X24802D01*
Y17812D01*
X24680D01*
Y17934D01*
X24802D01*
Y18056D01*
X25411D01*
Y17934D01*
X25533D01*
Y18056D01*
X25655D01*
Y17934D01*
X25777D01*
Y18056D01*
X25898D01*
Y17934D01*
X26020D01*
Y18056D01*
X26142D01*
Y17934D01*
X26264D01*
Y18056D01*
X26386D01*
Y17934D01*
X27726D01*
Y17812D01*
X27847D01*
Y17934D01*
X27969D01*
Y17812D01*
X28091D01*
Y17934D01*
X28213D01*
Y17812D01*
X28335D01*
Y17934D01*
X28457D01*
Y17812D01*
X28578D01*
Y17934D01*
X28700D01*
Y17812D01*
X29066D01*
Y17691D01*
X29187D01*
Y17812D01*
X29309D01*
Y17691D01*
X29431D01*
Y17812D01*
X29553D01*
Y17691D01*
X29675D01*
Y17812D01*
X29796D01*
Y17691D01*
X29918D01*
Y17812D01*
X30040D01*
Y17691D01*
X30893D01*
Y17569D01*
Y17447D01*
Y17325D01*
Y17203D01*
Y17082D01*
X30771D01*
Y16960D01*
X30893D01*
Y16838D01*
X30771D01*
Y16716D01*
X30893D01*
Y16594D01*
X30771D01*
Y16473D01*
X30893D01*
Y16351D01*
X30771D01*
Y16229D01*
X30893D01*
Y16107D01*
X30771D01*
Y15985D01*
X30893D01*
Y15864D01*
X30771D01*
Y15742D01*
X30893D01*
Y15620D01*
X30771D01*
Y15498D01*
X30893D01*
Y15376D01*
X30771D01*
Y15254D01*
Y15133D01*
Y15011D01*
Y14889D01*
Y14767D01*
Y14645D01*
Y14524D01*
Y14402D01*
Y14280D01*
X30649D01*
Y14158D01*
X30771D01*
Y14036D01*
X30649D01*
Y13915D01*
X30771D01*
Y13793D01*
X30649D01*
Y13671D01*
Y13549D01*
Y13427D01*
Y13305D01*
Y13184D01*
Y13062D01*
Y12940D01*
Y12818D01*
Y12696D01*
X30527D01*
Y12574D01*
X30649D01*
Y12453D01*
X30527D01*
Y12331D01*
X30649D01*
Y12209D01*
X30527D01*
Y12087D01*
X30649D01*
Y11965D01*
X30527D01*
Y11844D01*
X30649D01*
Y11722D01*
X30527D01*
Y11600D01*
X30649D01*
Y11478D01*
X30527D01*
Y11356D01*
X30649D01*
Y11235D01*
X30527D01*
Y11113D01*
Y10991D01*
Y10869D01*
Y10747D01*
Y10626D01*
Y10504D01*
Y10382D01*
Y10260D01*
Y10138D01*
Y10016D01*
Y9895D01*
X30406D01*
Y9773D01*
X30527D01*
Y9651D01*
X30406D01*
Y9529D01*
X30527D01*
Y9407D01*
X30406D01*
Y9285D01*
Y9164D01*
Y9042D01*
X30284D01*
Y9164D01*
X30162D01*
Y9042D01*
X30040D01*
Y9164D01*
X29918D01*
Y9042D01*
X29796D01*
Y9164D01*
X29675D01*
Y9042D01*
X29553D01*
Y9164D01*
X29431D01*
Y9042D01*
X29309D01*
Y9164D01*
X29187D01*
Y9042D01*
X29066D01*
Y9164D01*
X28944D01*
Y9042D01*
X28822D01*
Y9164D01*
X28700D01*
Y9042D01*
X23949D01*
Y8920D01*
X23828D01*
Y9042D01*
X23706D01*
Y8920D01*
X23584D01*
Y9042D01*
X23462D01*
Y8920D01*
X23340D01*
Y9042D01*
X23219D01*
Y8920D01*
X23097D01*
Y9042D01*
X22975D01*
Y8920D01*
X22853D01*
Y9042D01*
X22731D01*
Y8920D01*
X22609D01*
Y9042D01*
X22488D01*
Y8920D01*
X22366D01*
Y9042D01*
X22244D01*
Y8920D01*
X22122D01*
Y9042D01*
X22000D01*
Y8920D01*
X21879D01*
Y9042D01*
X21757D01*
Y8920D01*
X20660D01*
Y8798D01*
X20539D01*
Y8920D01*
X20417D01*
Y8798D01*
X20295D01*
Y8920D01*
X20173D01*
Y8798D01*
X20051D01*
Y8920D01*
X19929D01*
Y8798D01*
X19808D01*
Y8920D01*
X19686D01*
Y8798D01*
X19564D01*
Y8920D01*
X19442D01*
Y8798D01*
X19320D01*
Y8920D01*
X19199D01*
Y8798D01*
X19077D01*
Y8920D01*
X18955D01*
Y8798D01*
X18833D01*
Y8920D01*
X18711D01*
Y8798D01*
X18589D01*
Y8920D01*
X18468D01*
Y8798D01*
X18346D01*
Y8920D01*
X18224D01*
Y8798D01*
X17371D01*
Y8920D01*
X17250D01*
Y8798D01*
X17128D01*
Y8920D01*
Y9042D01*
Y9164D01*
Y9285D01*
Y9407D01*
X17250D01*
Y9529D01*
X17128D01*
Y9651D01*
X17250D01*
Y9773D01*
X17128D01*
Y9895D01*
X17250D01*
Y10016D01*
X17128D01*
Y10138D01*
X17250D01*
Y10260D01*
X17128D01*
Y10382D01*
X17250D01*
Y10504D01*
X17128D01*
Y10626D01*
X17250D01*
Y10747D01*
X17128D01*
Y10869D01*
X17250D01*
Y10991D01*
X17128D01*
Y11113D01*
X17250D01*
Y11235D01*
X17128D01*
Y11356D01*
X17250D01*
Y11478D01*
X17128D01*
Y11600D01*
X17250D01*
Y11722D01*
X17128D01*
Y11844D01*
X17250D01*
Y11965D01*
X17128D01*
Y12087D01*
X17250D01*
Y12209D01*
X17128D01*
Y12331D01*
X17250D01*
Y12453D01*
X17128D01*
Y12574D01*
X17250D01*
Y12696D01*
X17128D01*
Y12818D01*
X17250D01*
Y12940D01*
X17128D01*
Y13062D01*
X17250D01*
Y13184D01*
Y13305D01*
Y13427D01*
Y13549D01*
Y13671D01*
Y13793D01*
Y13915D01*
Y14036D01*
Y14158D01*
Y14280D01*
Y14402D01*
Y14524D01*
Y14645D01*
X17371D01*
Y14767D01*
X17250D01*
Y14889D01*
Y15011D01*
Y15133D01*
Y15254D01*
Y15376D01*
Y15498D01*
X17371D01*
Y15620D01*
Y15742D01*
X17250D01*
Y15864D01*
X17371D01*
Y15985D01*
X17250D01*
Y16107D01*
X17371D01*
Y16229D01*
X17250D01*
Y16351D01*
X17371D01*
Y16473D01*
Y16594D01*
Y16716D01*
Y16838D01*
Y16960D01*
Y17082D01*
Y17203D01*
X17250D01*
Y17325D01*
X17371D01*
Y17447D01*
Y17569D01*
Y17691D01*
Y17812D01*
Y17934D01*
Y18056D01*
Y18178D01*
X18224D01*
Y18300D01*
X18346D01*
Y18178D01*
X18711D01*
Y18300D01*
X18833D01*
Y18178D01*
X18955D01*
Y18300D01*
X19077D01*
Y18178D01*
X19199D01*
Y18300D01*
X19320D01*
Y18178D01*
X19442D01*
Y18300D01*
X19564D01*
Y18178D01*
X19686D01*
Y18300D01*
X19808D01*
Y18178D01*
X19929D01*
Y18300D01*
X21026D01*
Y18422D01*
X21148D01*
Y18300D01*
X21269D01*
Y18422D01*
X21391D01*
Y18300D01*
X21513D01*
Y18422D01*
X21635D01*
Y18300D01*
X21757D01*
Y18422D01*
X21879D01*
Y18300D01*
X22000D01*
Y18422D01*
X23584D01*
Y18300D01*
D02*
G37*
G36*
X37836Y18056D02*
Y17934D01*
Y17812D01*
Y17691D01*
X38689D01*
Y17812D01*
X38811D01*
Y17691D01*
X38932D01*
Y17812D01*
X39054D01*
Y17691D01*
X39176D01*
Y17812D01*
X39298D01*
Y17691D01*
X39420D01*
Y17812D01*
X39542D01*
Y17691D01*
X39663D01*
Y17812D01*
X39785D01*
Y17691D01*
X39907D01*
Y17812D01*
X41247D01*
Y17934D01*
X41369D01*
Y17812D01*
X41491D01*
Y17934D01*
X41612D01*
Y17812D01*
X41734D01*
Y17934D01*
X41856D01*
Y17812D01*
X41978D01*
Y17934D01*
X42100D01*
Y17812D01*
X42222D01*
Y17934D01*
X42343D01*
Y17812D01*
X42465D01*
Y17934D01*
X44292D01*
Y17812D01*
Y17691D01*
Y17569D01*
Y17447D01*
Y17325D01*
X44170D01*
Y17203D01*
X44292D01*
Y17082D01*
X44170D01*
Y16960D01*
X44292D01*
Y16838D01*
X44170D01*
Y16716D01*
X44292D01*
Y16594D01*
X44170D01*
Y16473D01*
X44292D01*
Y16351D01*
X44170D01*
Y16229D01*
X44292D01*
Y16107D01*
X44170D01*
Y15985D01*
X44292D01*
Y15864D01*
X44170D01*
Y15742D01*
X44292D01*
Y15620D01*
X44170D01*
Y15498D01*
X44292D01*
Y15376D01*
X44170D01*
Y15254D01*
X44292D01*
Y15133D01*
X44170D01*
Y15011D01*
X44292D01*
Y14889D01*
X44170D01*
Y14767D01*
X44292D01*
Y14645D01*
X44170D01*
Y14524D01*
Y14402D01*
Y14280D01*
X44292D01*
Y14158D01*
X44170D01*
Y14036D01*
Y13915D01*
Y13793D01*
Y13671D01*
Y13549D01*
Y13427D01*
Y13305D01*
Y13184D01*
Y13062D01*
Y12940D01*
Y12818D01*
Y12696D01*
Y12574D01*
Y12453D01*
Y12331D01*
X44049D01*
Y12209D01*
X44170D01*
Y12087D01*
X44049D01*
Y11965D01*
X44170D01*
Y11844D01*
X44049D01*
Y11722D01*
X44170D01*
Y11600D01*
X44049D01*
Y11478D01*
X44170D01*
Y11356D01*
X44049D01*
Y11235D01*
Y11113D01*
Y10991D01*
Y10869D01*
Y10747D01*
Y10626D01*
Y10504D01*
Y10382D01*
Y10260D01*
Y10138D01*
Y10016D01*
Y9895D01*
Y9773D01*
Y9651D01*
Y9529D01*
Y9407D01*
Y9285D01*
X43927D01*
Y9164D01*
X44049D01*
Y9042D01*
X43927D01*
Y8920D01*
X43561D01*
Y8798D01*
X43440D01*
Y8920D01*
X43318D01*
Y8798D01*
X43196D01*
Y8920D01*
X43074D01*
Y8798D01*
X42465D01*
Y8676D01*
X42343D01*
Y8798D01*
X42222D01*
Y8676D01*
X41612D01*
Y8555D01*
X41491D01*
Y8676D01*
X41369D01*
Y8555D01*
X41247D01*
Y8676D01*
X41125D01*
Y8555D01*
X40516D01*
Y8433D01*
X40394D01*
Y8555D01*
X40272D01*
Y8433D01*
X39663D01*
Y8311D01*
X39542D01*
Y8433D01*
X39420D01*
Y8311D01*
X39298D01*
Y8433D01*
X39176D01*
Y8311D01*
X38811D01*
Y8433D01*
X38932D01*
Y8555D01*
X38811D01*
Y8676D01*
Y8798D01*
Y8920D01*
Y9042D01*
Y9164D01*
X38689D01*
Y9285D01*
X38811D01*
Y9407D01*
X38689D01*
Y9529D01*
Y9651D01*
Y9773D01*
Y9895D01*
Y10016D01*
X38567D01*
Y10138D01*
X38689D01*
Y10260D01*
X38567D01*
Y10382D01*
X38689D01*
Y10504D01*
X38567D01*
Y10626D01*
X38689D01*
Y10747D01*
X38567D01*
Y10869D01*
Y10991D01*
Y11113D01*
X38445D01*
Y11235D01*
X38567D01*
Y11356D01*
X38445D01*
Y11478D01*
Y11600D01*
Y11722D01*
Y11844D01*
Y11965D01*
X38323D01*
Y12087D01*
X38445D01*
Y12209D01*
X38323D01*
Y12331D01*
X38445D01*
Y12453D01*
X38323D01*
Y12574D01*
Y12696D01*
Y12818D01*
Y12940D01*
Y13062D01*
Y13184D01*
Y13305D01*
X38202D01*
Y13427D01*
Y13549D01*
Y13671D01*
Y13793D01*
Y13915D01*
X38080D01*
Y14036D01*
X38202D01*
Y14158D01*
X38080D01*
Y14280D01*
X38202D01*
Y14402D01*
X38080D01*
Y14524D01*
X38202D01*
Y14645D01*
X38080D01*
Y14767D01*
Y14889D01*
Y15011D01*
X37958D01*
Y15133D01*
X38080D01*
Y15254D01*
X37958D01*
Y15376D01*
Y15498D01*
Y15620D01*
Y15742D01*
Y15864D01*
X37836D01*
Y15985D01*
X37958D01*
Y16107D01*
X37836D01*
Y16229D01*
X37714D01*
Y16107D01*
Y15985D01*
Y15864D01*
X37836D01*
Y15742D01*
X37714D01*
Y15620D01*
Y15498D01*
Y15376D01*
X37836D01*
Y15254D01*
X37714D01*
Y15133D01*
Y15011D01*
Y14889D01*
Y14767D01*
Y14645D01*
Y14524D01*
Y14402D01*
Y14280D01*
Y14158D01*
Y14036D01*
Y13915D01*
Y13793D01*
Y13671D01*
X37593D01*
Y13549D01*
X37714D01*
Y13427D01*
X37593D01*
Y13305D01*
X37714D01*
Y13184D01*
X37593D01*
Y13062D01*
X37714D01*
Y12940D01*
X37593D01*
Y12818D01*
X37714D01*
Y12696D01*
X37593D01*
Y12574D01*
X37714D01*
Y12453D01*
X37593D01*
Y12331D01*
X37714D01*
Y12209D01*
X37593D01*
Y12087D01*
X37714D01*
Y11965D01*
X37593D01*
Y11844D01*
X37714D01*
Y11722D01*
X37593D01*
Y11600D01*
X37714D01*
Y11478D01*
X37593D01*
Y11356D01*
X37714D01*
Y11235D01*
X37593D01*
Y11113D01*
X37714D01*
Y10991D01*
X37593D01*
Y10869D01*
X37714D01*
Y10747D01*
X37593D01*
Y10626D01*
X37714D01*
Y10504D01*
X37593D01*
Y10382D01*
Y10260D01*
Y10138D01*
X37714D01*
Y10016D01*
X37593D01*
Y9895D01*
Y9773D01*
Y9651D01*
Y9529D01*
Y9407D01*
Y9285D01*
Y9164D01*
Y9042D01*
Y8920D01*
Y8798D01*
X36374D01*
Y8676D01*
X36253D01*
Y8798D01*
X36131D01*
Y8676D01*
X36009D01*
Y8798D01*
X35644D01*
Y8676D01*
X35522D01*
Y8798D01*
X35156D01*
Y8676D01*
X33816D01*
Y8555D01*
X33694D01*
Y8676D01*
X33573D01*
Y8555D01*
X33451D01*
Y8676D01*
X33329D01*
Y8555D01*
X33207D01*
Y8676D01*
X33085D01*
Y8555D01*
X32964D01*
Y8676D01*
X32842D01*
Y8555D01*
X32720D01*
Y8676D01*
X32598D01*
Y8555D01*
X31380D01*
Y8676D01*
Y8798D01*
Y8920D01*
Y9042D01*
Y9164D01*
Y9285D01*
Y9407D01*
Y9529D01*
X31258D01*
Y9651D01*
X31380D01*
Y9773D01*
Y9895D01*
Y10016D01*
X31258D01*
Y10138D01*
X31380D01*
Y10260D01*
X31258D01*
Y10382D01*
X31380D01*
Y10504D01*
X31258D01*
Y10626D01*
X31380D01*
Y10747D01*
X31258D01*
Y10869D01*
X31380D01*
Y10991D01*
X31258D01*
Y11113D01*
X31380D01*
Y11235D01*
X31258D01*
Y11356D01*
X31380D01*
Y11478D01*
X31258D01*
Y11600D01*
X31380D01*
Y11722D01*
X31258D01*
Y11844D01*
Y11965D01*
Y12087D01*
Y12209D01*
Y12331D01*
Y12453D01*
Y12574D01*
Y12696D01*
Y12818D01*
Y12940D01*
Y13062D01*
X31136D01*
Y13184D01*
X31258D01*
Y13305D01*
X31136D01*
Y13427D01*
X31258D01*
Y13549D01*
X31136D01*
Y13671D01*
X31258D01*
Y13793D01*
X31136D01*
Y13915D01*
X31258D01*
Y14036D01*
X31136D01*
Y14158D01*
Y14280D01*
Y14402D01*
Y14524D01*
Y14645D01*
Y14767D01*
Y14889D01*
Y15011D01*
Y15133D01*
Y15254D01*
Y15376D01*
Y15498D01*
Y15620D01*
X31015D01*
Y15742D01*
X31136D01*
Y15864D01*
X31015D01*
Y15985D01*
X31136D01*
Y16107D01*
X31015D01*
Y16229D01*
X31136D01*
Y16351D01*
X31015D01*
Y16473D01*
X31136D01*
Y16594D01*
X31015D01*
Y16716D01*
X31136D01*
Y16838D01*
X31015D01*
Y16960D01*
X31136D01*
Y17082D01*
X31015D01*
Y17203D01*
X31136D01*
Y17325D01*
X31015D01*
Y17447D01*
Y17569D01*
Y17691D01*
Y17812D01*
Y17934D01*
X31136D01*
Y18056D01*
X31258D01*
Y17934D01*
X31624D01*
Y18056D01*
X31745D01*
Y17934D01*
X31867D01*
Y18056D01*
X31989D01*
Y17934D01*
X32111D01*
Y18056D01*
X32233D01*
Y17934D01*
X32598D01*
Y18056D01*
X34913D01*
Y18178D01*
X35034D01*
Y18056D01*
X35156D01*
Y18178D01*
X35278D01*
Y18056D01*
X35400D01*
Y18178D01*
X35522D01*
Y18056D01*
X35644D01*
Y18178D01*
X35765D01*
Y18056D01*
X35887D01*
Y18178D01*
X36009D01*
Y18056D01*
X36131D01*
Y18178D01*
X36253D01*
Y18056D01*
X36374D01*
Y18178D01*
X36496D01*
Y18056D01*
X36618D01*
Y18178D01*
X36740D01*
Y18056D01*
X36862D01*
Y18178D01*
X36983D01*
Y18056D01*
X37105D01*
Y18178D01*
X37836D01*
Y18056D01*
D02*
G37*
G36*
X50184Y21744D02*
X50527D01*
Y21630D01*
X50870D01*
Y21516D01*
X50984D01*
Y21401D01*
X51099D01*
Y21516D01*
X51213D01*
Y21401D01*
X51556D01*
Y21287D01*
X51670D01*
Y21173D01*
X51784D01*
Y21287D01*
X51899D01*
Y21173D01*
X52241D01*
Y21058D01*
X52356D01*
Y20944D01*
X52927D01*
Y20830D01*
X53042D01*
Y20715D01*
X53385D01*
Y20601D01*
X53727D01*
Y20487D01*
X54070D01*
Y20372D01*
X54413D01*
Y20258D01*
X54756D01*
Y20144D01*
X54870D01*
Y20030D01*
X54985D01*
Y20144D01*
X55099D01*
Y20030D01*
X55442D01*
Y19915D01*
X55785D01*
Y19801D01*
X56128D01*
Y19687D01*
X56242D01*
Y19572D01*
X56356D01*
Y19687D01*
X56471D01*
Y19572D01*
X56814D01*
Y19458D01*
X56928D01*
Y19344D01*
X57042D01*
Y19458D01*
X57156D01*
Y19344D01*
X57499D01*
Y19229D01*
X57614D01*
Y19115D01*
X58185D01*
Y19001D01*
Y18887D01*
Y18772D01*
X58071D01*
Y18658D01*
X58185D01*
Y18544D01*
X58071D01*
Y18429D01*
Y18315D01*
Y18201D01*
X57956D01*
Y18087D01*
X57842D01*
Y17972D01*
X57956D01*
Y17858D01*
X57842D01*
Y17744D01*
Y17629D01*
Y17515D01*
X57728D01*
Y17401D01*
Y17286D01*
Y17172D01*
X57614D01*
Y17058D01*
Y16943D01*
Y16829D01*
X57499D01*
Y16715D01*
Y16601D01*
Y16486D01*
X57385D01*
Y16372D01*
X57499D01*
Y16258D01*
X57385D01*
Y16143D01*
Y16029D01*
Y15915D01*
X57271D01*
Y15801D01*
Y15686D01*
Y15572D01*
X57156D01*
Y15458D01*
X57271D01*
Y15343D01*
X57156D01*
Y15229D01*
X57042D01*
Y15115D01*
Y15000D01*
Y14886D01*
X56928D01*
Y14772D01*
X57042D01*
Y14658D01*
X56928D01*
Y14543D01*
Y14429D01*
Y14315D01*
X56814D01*
Y14200D01*
X56699D01*
Y14086D01*
X56814D01*
Y13972D01*
X56699D01*
Y13858D01*
Y13743D01*
Y13629D01*
X56585D01*
Y13515D01*
Y13400D01*
Y13286D01*
X56471D01*
Y13172D01*
X56585D01*
Y13057D01*
X56471D01*
Y12943D01*
X56356D01*
Y12829D01*
Y12715D01*
Y12600D01*
Y12486D01*
Y12372D01*
X56242D01*
Y12257D01*
Y12143D01*
Y12029D01*
X56128D01*
Y11914D01*
Y11800D01*
Y11686D01*
X56013D01*
Y11571D01*
X56128D01*
Y11457D01*
X56013D01*
Y11343D01*
Y11229D01*
X55899D01*
Y11114D01*
Y11000D01*
X55785D01*
Y10886D01*
X55899D01*
Y10771D01*
X55785D01*
Y10657D01*
Y10543D01*
Y10429D01*
X55670D01*
Y10314D01*
Y10200D01*
Y10086D01*
X55556D01*
Y9971D01*
Y9857D01*
Y9743D01*
X55442D01*
Y9628D01*
Y9514D01*
Y9400D01*
X55328D01*
Y9285D01*
X55442D01*
Y9171D01*
X55328D01*
Y9057D01*
Y8943D01*
Y8828D01*
X55213D01*
Y8714D01*
Y8600D01*
Y8485D01*
X55099D01*
Y8371D01*
Y8257D01*
X54642D01*
Y8371D01*
X54299D01*
Y8485D01*
X53956D01*
Y8600D01*
X53613D01*
Y8714D01*
X53270D01*
Y8828D01*
X52927D01*
Y8943D01*
X52584D01*
Y9057D01*
X52470D01*
Y8943D01*
X52356D01*
Y9057D01*
X52241D01*
Y9171D01*
X51899D01*
Y9285D01*
X51784D01*
Y9171D01*
X51670D01*
Y9285D01*
X51556D01*
Y9400D01*
X51441D01*
Y9285D01*
X51327D01*
Y9400D01*
X50984D01*
Y9514D01*
X50870D01*
Y9628D01*
X50756D01*
Y9514D01*
X50641D01*
Y9628D01*
X50298D01*
Y9743D01*
X50184D01*
Y9857D01*
X50070D01*
Y9743D01*
X49955D01*
Y9857D01*
X49613D01*
Y9971D01*
X49498D01*
Y10086D01*
X49384D01*
Y9971D01*
X49498D01*
Y9857D01*
X49384D01*
Y9971D01*
X49270D01*
Y10086D01*
X48927D01*
Y10200D01*
X48813D01*
Y10086D01*
X48698D01*
Y10200D01*
X48584D01*
Y10314D01*
X48013D01*
Y10429D01*
X47898D01*
Y10543D01*
X47327D01*
Y10657D01*
X46984D01*
Y10771D01*
X46641D01*
Y10886D01*
X46755D01*
Y11000D01*
X46641D01*
Y11114D01*
X46755D01*
Y11229D01*
Y11343D01*
X46870D01*
Y11457D01*
Y11571D01*
X46984D01*
Y11686D01*
X46870D01*
Y11800D01*
X46984D01*
Y11914D01*
Y12029D01*
Y12143D01*
X47098D01*
Y12257D01*
X47212D01*
Y12372D01*
X47098D01*
Y12486D01*
X47212D01*
Y12600D01*
Y12715D01*
Y12829D01*
X47327D01*
Y12943D01*
X47441D01*
Y13057D01*
X47327D01*
Y13172D01*
X47441D01*
Y13286D01*
Y13400D01*
Y13515D01*
X47555D01*
Y13629D01*
X47670D01*
Y13743D01*
X47555D01*
Y13858D01*
X47670D01*
Y13972D01*
X47555D01*
Y14086D01*
X47670D01*
Y14200D01*
X47784D01*
Y14315D01*
Y14429D01*
Y14543D01*
X47898D01*
Y14658D01*
X47784D01*
Y14772D01*
X47898D01*
Y14886D01*
X48013D01*
Y15000D01*
Y15115D01*
Y15229D01*
X48127D01*
Y15343D01*
X48013D01*
Y15458D01*
X48127D01*
Y15572D01*
X48241D01*
Y15686D01*
Y15801D01*
Y15915D01*
X48355D01*
Y16029D01*
X48241D01*
Y16143D01*
X48355D01*
Y16258D01*
Y16372D01*
Y16486D01*
X48470D01*
Y16601D01*
X48584D01*
Y16715D01*
X48470D01*
Y16829D01*
X48584D01*
Y16943D01*
Y17058D01*
Y17172D01*
X48698D01*
Y17286D01*
X48813D01*
Y17401D01*
X48698D01*
Y17515D01*
X48813D01*
Y17629D01*
Y17744D01*
Y17858D01*
X48927D01*
Y17972D01*
Y18087D01*
Y18201D01*
X49041D01*
Y18315D01*
Y18429D01*
Y18544D01*
X49156D01*
Y18658D01*
Y18772D01*
Y18887D01*
X49270D01*
Y19001D01*
Y19115D01*
Y19229D01*
X49384D01*
Y19344D01*
Y19458D01*
Y19572D01*
X49498D01*
Y19687D01*
Y19801D01*
Y19915D01*
X49613D01*
Y20030D01*
Y20144D01*
Y20258D01*
X49727D01*
Y20372D01*
X49613D01*
Y20487D01*
X49727D01*
Y20601D01*
Y20715D01*
X49841D01*
Y20830D01*
Y20944D01*
X49955D01*
Y21058D01*
X49841D01*
Y21173D01*
X49955D01*
Y21287D01*
Y21401D01*
X50070D01*
Y21516D01*
Y21630D01*
X50184D01*
Y21744D01*
X50070D01*
Y21858D01*
X50184D01*
Y21744D01*
D02*
G37*
G36*
X65272Y20372D02*
X65386D01*
Y20258D01*
Y20144D01*
Y20030D01*
X65500D01*
Y19915D01*
Y19801D01*
Y19687D01*
X65614D01*
Y19572D01*
Y19458D01*
Y19344D01*
X65729D01*
Y19229D01*
Y19115D01*
Y19001D01*
X65843D01*
Y18887D01*
Y18772D01*
Y18658D01*
X65957D01*
Y18544D01*
Y18429D01*
Y18315D01*
X66072D01*
Y18201D01*
X66186D01*
Y18087D01*
X66072D01*
Y17972D01*
X66186D01*
Y17858D01*
Y17744D01*
Y17629D01*
X66300D01*
Y17515D01*
X66415D01*
Y17401D01*
X66300D01*
Y17286D01*
X66415D01*
Y17172D01*
X66529D01*
Y17058D01*
Y16943D01*
Y16829D01*
X66643D01*
Y16715D01*
X66529D01*
Y16601D01*
X66643D01*
Y16486D01*
X66758D01*
Y16372D01*
X66872D01*
Y16258D01*
X66758D01*
Y16143D01*
X66872D01*
Y16029D01*
X66758D01*
Y15915D01*
X66872D01*
Y15801D01*
X66986D01*
Y15686D01*
Y15572D01*
Y15458D01*
X67100D01*
Y15343D01*
Y15229D01*
Y15115D01*
X67215D01*
Y15000D01*
X67329D01*
Y14886D01*
X67215D01*
Y14772D01*
X67329D01*
Y14658D01*
Y14543D01*
Y14429D01*
X67443D01*
Y14315D01*
X67558D01*
Y14200D01*
X67443D01*
Y14086D01*
X67558D01*
Y13972D01*
Y13858D01*
X67672D01*
Y13743D01*
Y13629D01*
X67786D01*
Y13515D01*
X67672D01*
Y13400D01*
X67786D01*
Y13286D01*
Y13172D01*
X67901D01*
Y13057D01*
Y12943D01*
X68015D01*
Y12829D01*
X67901D01*
Y12715D01*
X68015D01*
Y12600D01*
X68129D01*
Y12486D01*
Y12372D01*
Y12257D01*
X68243D01*
Y12143D01*
Y12029D01*
Y11914D01*
X68358D01*
Y11800D01*
Y11686D01*
Y11571D01*
X68472D01*
Y11457D01*
Y11343D01*
Y11229D01*
X68586D01*
Y11114D01*
Y11000D01*
Y10886D01*
X68700D01*
Y10771D01*
Y10657D01*
Y10543D01*
X68815D01*
Y10429D01*
Y10314D01*
Y10200D01*
X68929D01*
Y10086D01*
Y9971D01*
X68700D01*
Y9857D01*
X68358D01*
Y9743D01*
X68015D01*
Y9628D01*
X67672D01*
Y9514D01*
X67558D01*
Y9400D01*
X67443D01*
Y9514D01*
X67329D01*
Y9400D01*
X66986D01*
Y9285D01*
X66643D01*
Y9171D01*
X66300D01*
Y9057D01*
X66186D01*
Y8943D01*
X65614D01*
Y8828D01*
X65272D01*
Y8714D01*
X64929D01*
Y8600D01*
X64814D01*
Y8485D01*
X64243D01*
Y8371D01*
X63900D01*
Y8257D01*
X63557D01*
Y8143D01*
X63443D01*
Y8028D01*
X62871D01*
Y7914D01*
X62528D01*
Y7800D01*
X62186D01*
Y7685D01*
X62071D01*
Y7571D01*
X61500D01*
Y7457D01*
X61385D01*
Y7571D01*
X61271D01*
Y7685D01*
X61385D01*
Y7800D01*
X61271D01*
Y7914D01*
Y8028D01*
Y8143D01*
X61157D01*
Y8257D01*
Y8371D01*
Y8485D01*
X61042D01*
Y8600D01*
X61157D01*
Y8714D01*
X61042D01*
Y8828D01*
X60928D01*
Y8943D01*
Y9057D01*
Y9171D01*
Y9285D01*
Y9400D01*
X60814D01*
Y9514D01*
X60928D01*
Y9628D01*
X60814D01*
Y9743D01*
X60700D01*
Y9857D01*
Y9971D01*
Y10086D01*
X60585D01*
Y10200D01*
X60700D01*
Y10314D01*
X60585D01*
Y10429D01*
Y10543D01*
Y10657D01*
X60471D01*
Y10771D01*
X60357D01*
Y10886D01*
X60471D01*
Y11000D01*
X60357D01*
Y11114D01*
Y11229D01*
Y11343D01*
X60242D01*
Y11457D01*
Y11571D01*
Y11686D01*
X60128D01*
Y11800D01*
X60242D01*
Y11914D01*
X60128D01*
Y12029D01*
Y12143D01*
Y12257D01*
X60014D01*
Y12372D01*
Y12486D01*
Y12600D01*
X59899D01*
Y12715D01*
X60014D01*
Y12829D01*
X59899D01*
Y12943D01*
Y13057D01*
Y13172D01*
X59785D01*
Y13286D01*
X59671D01*
Y13400D01*
X59785D01*
Y13515D01*
X59671D01*
Y13629D01*
Y13743D01*
Y13858D01*
X59557D01*
Y13972D01*
Y14086D01*
Y14200D01*
X59442D01*
Y14315D01*
X59557D01*
Y14429D01*
X59442D01*
Y14543D01*
Y14658D01*
Y14772D01*
X59328D01*
Y14886D01*
Y15000D01*
Y15115D01*
X59214D01*
Y15229D01*
X59328D01*
Y15343D01*
X59214D01*
Y15458D01*
X59100D01*
Y15572D01*
Y15686D01*
Y15801D01*
X58985D01*
Y15915D01*
X59100D01*
Y16029D01*
X58985D01*
Y16143D01*
Y16258D01*
Y16372D01*
X58871D01*
Y16486D01*
Y16601D01*
Y16715D01*
X58757D01*
Y16829D01*
X58871D01*
Y16943D01*
X58757D01*
Y17058D01*
X58642D01*
Y17172D01*
Y17286D01*
Y17401D01*
Y17515D01*
Y17629D01*
X58528D01*
Y17744D01*
Y17858D01*
Y17972D01*
Y18087D01*
Y18201D01*
X58642D01*
Y18087D01*
X58757D01*
Y18201D01*
X59100D01*
Y18315D01*
X59214D01*
Y18429D01*
X59328D01*
Y18315D01*
X59442D01*
Y18429D01*
X59785D01*
Y18544D01*
X59899D01*
Y18658D01*
X60471D01*
Y18772D01*
X60585D01*
Y18887D01*
X60928D01*
Y19001D01*
X61042D01*
Y18887D01*
X61157D01*
Y19001D01*
X61271D01*
Y19115D01*
X61614D01*
Y19229D01*
X61728D01*
Y19115D01*
X61843D01*
Y19229D01*
X61957D01*
Y19344D01*
X62300D01*
Y19458D01*
X62643D01*
Y19572D01*
X62986D01*
Y19687D01*
X63328D01*
Y19801D01*
X63671D01*
Y19915D01*
X63786D01*
Y20030D01*
X63900D01*
Y19915D01*
X64014D01*
Y20030D01*
X64357D01*
Y20144D01*
X64472D01*
Y20258D01*
X64586D01*
Y20144D01*
X64700D01*
Y20258D01*
X65043D01*
Y20372D01*
X65157D01*
Y20487D01*
X65272D01*
Y20372D01*
D02*
G37*
G36*
X72587Y20601D02*
X72701D01*
Y20487D01*
X73273D01*
Y20372D01*
X73615D01*
Y20258D01*
X73730D01*
Y20372D01*
X73844D01*
Y20258D01*
X74187D01*
Y20144D01*
X74301D01*
Y20258D01*
X74415D01*
Y20144D01*
X74530D01*
Y20030D01*
X75101D01*
Y19915D01*
X75444D01*
Y19801D01*
X75559D01*
Y19915D01*
X75673D01*
Y19801D01*
X76016D01*
Y19687D01*
X76130D01*
Y19801D01*
X76244D01*
Y19687D01*
X76359D01*
Y19572D01*
X76930D01*
Y19458D01*
X77273D01*
Y19344D01*
X77387D01*
Y19458D01*
X77502D01*
Y19344D01*
X77845D01*
Y19229D01*
X78187D01*
Y19115D01*
X78759D01*
Y19001D01*
X79102D01*
Y18887D01*
X79216D01*
Y19001D01*
X79330D01*
Y18887D01*
X79673D01*
Y18772D01*
Y18658D01*
Y18544D01*
X79559D01*
Y18429D01*
Y18315D01*
Y18201D01*
X79445D01*
Y18087D01*
Y17972D01*
Y17858D01*
X79330D01*
Y17744D01*
X79445D01*
Y17629D01*
X79330D01*
Y17515D01*
Y17401D01*
Y17286D01*
X79216D01*
Y17172D01*
Y17058D01*
Y16943D01*
X79102D01*
Y16829D01*
X79216D01*
Y16715D01*
X79102D01*
Y16601D01*
X78987D01*
Y16486D01*
Y16372D01*
Y16258D01*
X78873D01*
Y16143D01*
X78987D01*
Y16029D01*
X78873D01*
Y15915D01*
Y15801D01*
Y15686D01*
X78759D01*
Y15572D01*
X78645D01*
Y15458D01*
X78759D01*
Y15343D01*
X78645D01*
Y15229D01*
Y15115D01*
Y15000D01*
X78530D01*
Y14886D01*
Y14772D01*
Y14658D01*
X78416D01*
Y14543D01*
X78530D01*
Y14429D01*
X78416D01*
Y14315D01*
X78302D01*
Y14200D01*
Y14086D01*
Y13972D01*
X78187D01*
Y13858D01*
X78302D01*
Y13743D01*
X78187D01*
Y13629D01*
Y13515D01*
Y13400D01*
X78073D01*
Y13286D01*
Y13172D01*
Y13057D01*
X77959D01*
Y12943D01*
Y12829D01*
Y12715D01*
X77845D01*
Y12600D01*
Y12486D01*
Y12372D01*
X77730D01*
Y12257D01*
X77845D01*
Y12143D01*
X77730D01*
Y12029D01*
Y11914D01*
Y11800D01*
X77616D01*
Y11686D01*
X77502D01*
Y11571D01*
X77616D01*
Y11457D01*
X77502D01*
Y11343D01*
Y11229D01*
Y11114D01*
X77387D01*
Y11000D01*
Y10886D01*
Y10771D01*
X77273D01*
Y10657D01*
Y10543D01*
Y10429D01*
X77159D01*
Y10314D01*
Y10200D01*
Y10086D01*
X77044D01*
Y9971D01*
X77159D01*
Y9857D01*
X77044D01*
Y9743D01*
Y9628D01*
Y9514D01*
X76930D01*
Y9400D01*
Y9285D01*
Y9171D01*
X76816D01*
Y9057D01*
X76930D01*
Y8943D01*
X76816D01*
Y8828D01*
X76701D01*
Y8714D01*
Y8600D01*
Y8485D01*
X76587D01*
Y8371D01*
X76701D01*
Y8257D01*
X76587D01*
Y8143D01*
Y8028D01*
Y7914D01*
X76244D01*
Y8028D01*
X75901D01*
Y8143D01*
X75787D01*
Y8257D01*
X75444D01*
Y8371D01*
X75101D01*
Y8485D01*
X74758D01*
Y8600D01*
X74644D01*
Y8714D01*
X74301D01*
Y8828D01*
X73958D01*
Y8943D01*
X73615D01*
Y9057D01*
X73501D01*
Y9171D01*
X73158D01*
Y9285D01*
X72815D01*
Y9400D01*
X72472D01*
Y9514D01*
X72358D01*
Y9628D01*
X72015D01*
Y9743D01*
X71672D01*
Y9857D01*
X71329D01*
Y9971D01*
X71215D01*
Y10086D01*
X70872D01*
Y10200D01*
X70758D01*
Y10314D01*
X70644D01*
Y10200D01*
X70529D01*
Y10314D01*
X70415D01*
Y10429D01*
X70301D01*
Y10314D01*
X70186D01*
Y10429D01*
X70072D01*
Y10543D01*
X69729D01*
Y10657D01*
X69501D01*
Y10771D01*
X69043D01*
Y10886D01*
X69158D01*
Y11000D01*
X69043D01*
Y11114D01*
X69158D01*
Y11229D01*
Y11343D01*
Y11457D01*
X69272D01*
Y11571D01*
Y11686D01*
Y11800D01*
X69386D01*
Y11914D01*
X69272D01*
Y12029D01*
X69386D01*
Y12143D01*
X69501D01*
Y12257D01*
Y12372D01*
Y12486D01*
X69615D01*
Y12600D01*
X69501D01*
Y12715D01*
X69615D01*
Y12829D01*
X69729D01*
Y12943D01*
X69615D01*
Y13057D01*
X69729D01*
Y13172D01*
Y13286D01*
Y13400D01*
X69844D01*
Y13515D01*
Y13629D01*
Y13743D01*
X69958D01*
Y13858D01*
Y13972D01*
Y14086D01*
X70072D01*
Y14200D01*
Y14315D01*
Y14429D01*
X70186D01*
Y14543D01*
Y14658D01*
Y14772D01*
X70301D01*
Y14886D01*
X70186D01*
Y15000D01*
X70301D01*
Y15115D01*
Y15229D01*
Y15343D01*
X70415D01*
Y15458D01*
X70529D01*
Y15572D01*
X70415D01*
Y15686D01*
X70529D01*
Y15801D01*
Y15915D01*
Y16029D01*
X70644D01*
Y16143D01*
Y16258D01*
Y16372D01*
X70758D01*
Y16486D01*
X70644D01*
Y16601D01*
X70758D01*
Y16715D01*
X70872D01*
Y16829D01*
Y16943D01*
Y17058D01*
X70986D01*
Y17172D01*
X70872D01*
Y17286D01*
X70986D01*
Y17401D01*
Y17515D01*
Y17629D01*
X71101D01*
Y17744D01*
Y17858D01*
Y17972D01*
X71215D01*
Y18087D01*
Y18201D01*
Y18315D01*
X71329D01*
Y18429D01*
Y18544D01*
Y18658D01*
X71444D01*
Y18772D01*
Y18887D01*
Y19001D01*
Y19115D01*
X71558D01*
Y19229D01*
Y19344D01*
X71672D01*
Y19458D01*
X71558D01*
Y19572D01*
X71672D01*
Y19687D01*
Y19801D01*
Y19915D01*
X71787D01*
Y20030D01*
X71901D01*
Y20144D01*
X71787D01*
Y20258D01*
X71901D01*
Y20372D01*
X71787D01*
Y20487D01*
X71901D01*
Y20601D01*
X72015D01*
Y20715D01*
X72358D01*
Y20601D01*
X72472D01*
Y20715D01*
X72587D01*
Y20601D01*
D02*
G37*
G36*
X86874Y20258D02*
X86988D01*
Y20144D01*
Y20030D01*
X87103D01*
Y19915D01*
Y19801D01*
X87217D01*
Y19687D01*
X87103D01*
Y19572D01*
X87217D01*
Y19458D01*
Y19344D01*
X87331D01*
Y19229D01*
Y19115D01*
X87446D01*
Y19001D01*
X87331D01*
Y18887D01*
X87446D01*
Y18772D01*
X87560D01*
Y18658D01*
Y18544D01*
Y18429D01*
X87674D01*
Y18315D01*
Y18201D01*
Y18087D01*
X87788D01*
Y17972D01*
Y17858D01*
Y17744D01*
X87903D01*
Y17629D01*
Y17515D01*
Y17401D01*
X88017D01*
Y17286D01*
Y17172D01*
Y17058D01*
X88131D01*
Y16943D01*
Y16829D01*
Y16715D01*
X88246D01*
Y16601D01*
Y16486D01*
Y16372D01*
X88360D01*
Y16258D01*
Y16143D01*
Y16029D01*
X88474D01*
Y15915D01*
X88589D01*
Y15801D01*
X88474D01*
Y15686D01*
X88589D01*
Y15572D01*
Y15458D01*
X88703D01*
Y15343D01*
Y15229D01*
X88817D01*
Y15115D01*
X88703D01*
Y15000D01*
X88817D01*
Y14886D01*
X88931D01*
Y14772D01*
Y14658D01*
Y14543D01*
X89046D01*
Y14429D01*
X88931D01*
Y14315D01*
X89046D01*
Y14200D01*
X89160D01*
Y14086D01*
Y13972D01*
Y13858D01*
X89274D01*
Y13743D01*
X89160D01*
Y13629D01*
X89274D01*
Y13515D01*
X89389D01*
Y13400D01*
Y13286D01*
Y13172D01*
X89503D01*
Y13057D01*
Y12943D01*
Y12829D01*
X89617D01*
Y12715D01*
X89732D01*
Y12600D01*
X89617D01*
Y12486D01*
X89732D01*
Y12372D01*
Y12257D01*
Y12143D01*
X89846D01*
Y12029D01*
X89960D01*
Y11914D01*
X89846D01*
Y11800D01*
X89960D01*
Y11686D01*
Y11571D01*
X90074D01*
Y11457D01*
Y11343D01*
X90189D01*
Y11229D01*
X90074D01*
Y11114D01*
X90189D01*
Y11000D01*
Y10886D01*
X90303D01*
Y10771D01*
Y10657D01*
X90417D01*
Y10543D01*
X90303D01*
Y10429D01*
X90417D01*
Y10314D01*
X90532D01*
Y10200D01*
Y10086D01*
Y9971D01*
X90417D01*
Y9857D01*
X90074D01*
Y9743D01*
X89960D01*
Y9857D01*
X89846D01*
Y9743D01*
X89732D01*
Y9628D01*
X89389D01*
Y9514D01*
X89274D01*
Y9628D01*
X89160D01*
Y9514D01*
X89046D01*
Y9400D01*
X88703D01*
Y9285D01*
X88589D01*
Y9400D01*
X88474D01*
Y9285D01*
X88360D01*
Y9171D01*
X88017D01*
Y9057D01*
X87903D01*
Y9171D01*
X87788D01*
Y9057D01*
X87674D01*
Y8943D01*
X87331D01*
Y8828D01*
X87217D01*
Y8943D01*
X87103D01*
Y8828D01*
X86988D01*
Y8714D01*
X86646D01*
Y8600D01*
X86531D01*
Y8714D01*
X86417D01*
Y8600D01*
X86303D01*
Y8485D01*
X85960D01*
Y8371D01*
X85845D01*
Y8485D01*
X85731D01*
Y8371D01*
X85617D01*
Y8257D01*
X85274D01*
Y8143D01*
X85160D01*
Y8257D01*
X85045D01*
Y8143D01*
X84931D01*
Y8028D01*
X84588D01*
Y7914D01*
X84245D01*
Y7800D01*
X83902D01*
Y7685D01*
X83788D01*
Y7800D01*
X83674D01*
Y7685D01*
X83559D01*
Y7571D01*
X83217D01*
Y7457D01*
X83102D01*
Y7571D01*
X82988D01*
Y7685D01*
X82874D01*
Y7800D01*
Y7914D01*
Y8028D01*
X82759D01*
Y8143D01*
X82874D01*
Y8257D01*
X82759D01*
Y8371D01*
Y8485D01*
Y8600D01*
X82645D01*
Y8714D01*
X82531D01*
Y8828D01*
X82645D01*
Y8943D01*
X82531D01*
Y9057D01*
Y9171D01*
Y9285D01*
X82416D01*
Y9400D01*
Y9514D01*
Y9628D01*
X82302D01*
Y9743D01*
X82416D01*
Y9857D01*
X82302D01*
Y9971D01*
Y10086D01*
Y10200D01*
X82188D01*
Y10314D01*
Y10429D01*
Y10543D01*
X82073D01*
Y10657D01*
X82188D01*
Y10771D01*
X82073D01*
Y10886D01*
Y11000D01*
Y11114D01*
X81959D01*
Y11229D01*
X81845D01*
Y11343D01*
X81959D01*
Y11457D01*
X81845D01*
Y11571D01*
Y11686D01*
Y11800D01*
X81731D01*
Y11914D01*
Y12029D01*
Y12143D01*
X81616D01*
Y12257D01*
X81731D01*
Y12372D01*
X81616D01*
Y12486D01*
Y12600D01*
X81502D01*
Y12715D01*
Y12829D01*
Y12943D01*
Y13057D01*
X81388D01*
Y13172D01*
X81502D01*
Y13286D01*
X81388D01*
Y13400D01*
X81273D01*
Y13515D01*
Y13629D01*
Y13743D01*
X81159D01*
Y13858D01*
X81273D01*
Y13972D01*
X81159D01*
Y14086D01*
Y14200D01*
Y14315D01*
X81045D01*
Y14429D01*
Y14543D01*
Y14658D01*
X80931D01*
Y14772D01*
Y14886D01*
Y15000D01*
X80816D01*
Y15115D01*
Y15229D01*
Y15343D01*
X80702D01*
Y15458D01*
X80816D01*
Y15572D01*
X80702D01*
Y15686D01*
Y15801D01*
Y15915D01*
X80588D01*
Y16029D01*
Y16143D01*
Y16258D01*
X80473D01*
Y16372D01*
X80588D01*
Y16486D01*
X80473D01*
Y16601D01*
Y16715D01*
Y16829D01*
X80359D01*
Y16943D01*
Y17058D01*
Y17172D01*
X80245D01*
Y17286D01*
Y17401D01*
Y17515D01*
X80130D01*
Y17629D01*
Y17744D01*
Y17858D01*
X80016D01*
Y17972D01*
X80130D01*
Y18087D01*
X80245D01*
Y18201D01*
X80816D01*
Y18315D01*
X80931D01*
Y18429D01*
X81273D01*
Y18544D01*
X81616D01*
Y18658D01*
X81959D01*
Y18772D01*
X82302D01*
Y18887D01*
X82645D01*
Y19001D01*
X82759D01*
Y19115D01*
X82874D01*
Y19001D01*
X82988D01*
Y19115D01*
X83331D01*
Y19229D01*
X83445D01*
Y19344D01*
X83559D01*
Y19229D01*
X83674D01*
Y19344D01*
X83788D01*
Y19458D01*
X83902D01*
Y19344D01*
X84017D01*
Y19458D01*
X84131D01*
Y19572D01*
X84474D01*
Y19687D01*
X84588D01*
Y19572D01*
X84702D01*
Y19687D01*
X84817D01*
Y19801D01*
X85160D01*
Y19915D01*
X85274D01*
Y19801D01*
X85388D01*
Y19915D01*
X85502D01*
Y20030D01*
X85845D01*
Y20144D01*
X85960D01*
Y20030D01*
X86074D01*
Y20144D01*
X86188D01*
Y20258D01*
X86531D01*
Y20372D01*
X86874D01*
Y20258D01*
D02*
G37*
%LPC*%
G36*
X14326Y17082D02*
X14204D01*
Y16960D01*
X14082D01*
Y17082D01*
X10793D01*
Y16960D01*
X10672D01*
Y16838D01*
X10793D01*
Y16716D01*
X10672D01*
Y16594D01*
X10793D01*
Y16473D01*
X10672D01*
Y16351D01*
X10793D01*
Y16229D01*
X10672D01*
Y16107D01*
X10793D01*
Y15985D01*
X10672D01*
Y15864D01*
X10793D01*
Y15742D01*
X10672D01*
Y15620D01*
X10793D01*
Y15498D01*
X10672D01*
Y15376D01*
X10793D01*
Y15254D01*
X10672D01*
Y15133D01*
X10793D01*
Y15011D01*
X10672D01*
Y14889D01*
X10793D01*
Y14767D01*
X10672D01*
Y14645D01*
X10793D01*
Y14524D01*
X10672D01*
Y14402D01*
X10793D01*
Y14280D01*
X10672D01*
Y14158D01*
X10793D01*
Y14036D01*
X10672D01*
Y13915D01*
X10793D01*
Y13793D01*
X10672D01*
Y13671D01*
X10793D01*
Y13549D01*
X10672D01*
Y13427D01*
X10793D01*
Y13305D01*
X10672D01*
Y13184D01*
X10793D01*
Y13062D01*
X10672D01*
Y12940D01*
X10793D01*
Y12818D01*
X10672D01*
Y12696D01*
X10793D01*
Y12574D01*
X10672D01*
Y12453D01*
X10793D01*
Y12331D01*
X10672D01*
Y12209D01*
X10793D01*
Y12087D01*
X10672D01*
Y11965D01*
X10793D01*
Y11844D01*
X10672D01*
Y11722D01*
X10793D01*
Y11600D01*
X10672D01*
Y11478D01*
X10793D01*
Y11356D01*
X10672D01*
Y11235D01*
X10793D01*
Y11113D01*
X10672D01*
Y10991D01*
X10793D01*
Y10869D01*
X10672D01*
Y10747D01*
X10793D01*
Y10626D01*
X10672D01*
Y10504D01*
X10793D01*
Y10382D01*
X10672D01*
Y10260D01*
X10793D01*
Y10138D01*
X10672D01*
Y10016D01*
X10793D01*
Y9895D01*
X10672D01*
Y9773D01*
X10793D01*
Y9651D01*
X10672D01*
Y9529D01*
X10793D01*
Y9407D01*
X10915D01*
Y9285D01*
X11037D01*
Y9407D01*
X11159D01*
Y9285D01*
X11281D01*
Y9407D01*
X11402D01*
Y9285D01*
X11524D01*
Y9407D01*
X11646D01*
Y9285D01*
X11768D01*
Y9407D01*
X11890D01*
Y9285D01*
X12011D01*
Y9407D01*
X12133D01*
Y9285D01*
X12255D01*
Y9407D01*
X12377D01*
Y9285D01*
X12499D01*
Y9407D01*
X12621D01*
Y9285D01*
X12742D01*
Y9407D01*
X12864D01*
Y9285D01*
X12986D01*
Y9407D01*
X13108D01*
Y9285D01*
X13230D01*
Y9407D01*
X13352D01*
Y9285D01*
X13473D01*
Y9407D01*
X13595D01*
Y9285D01*
X13717D01*
Y9407D01*
X13839D01*
Y9285D01*
X13961D01*
Y9407D01*
X14082D01*
Y9285D01*
X14204D01*
Y9407D01*
X14570D01*
Y9529D01*
X14692D01*
Y9407D01*
X14813D01*
Y9529D01*
X14935D01*
Y9651D01*
X15057D01*
Y9773D01*
X15179D01*
Y9895D01*
X15301D01*
Y10016D01*
X15422D01*
Y10138D01*
Y10260D01*
Y10382D01*
X15544D01*
Y10504D01*
Y10626D01*
Y10747D01*
X15666D01*
Y10869D01*
X15544D01*
Y10991D01*
X15666D01*
Y11113D01*
X15544D01*
Y11235D01*
X15666D01*
Y11356D01*
X15544D01*
Y11478D01*
Y11600D01*
Y11722D01*
X15422D01*
Y11844D01*
X15544D01*
Y11965D01*
X15422D01*
Y12087D01*
Y12209D01*
X15301D01*
Y12331D01*
Y12453D01*
X15179D01*
Y12574D01*
X15057D01*
Y12696D01*
X14813D01*
Y12818D01*
Y12940D01*
X14935D01*
Y13062D01*
X15057D01*
Y13184D01*
X15179D01*
Y13305D01*
X15301D01*
Y13427D01*
X15179D01*
Y13549D01*
X15422D01*
Y13671D01*
Y13793D01*
X15544D01*
Y13915D01*
X15422D01*
Y14036D01*
X15544D01*
Y14158D01*
Y14280D01*
Y14402D01*
X15666D01*
Y14524D01*
X15544D01*
Y14645D01*
X15666D01*
Y14767D01*
X15544D01*
Y14889D01*
X15666D01*
Y15011D01*
X15544D01*
Y15133D01*
Y15254D01*
Y15376D01*
Y15498D01*
Y15620D01*
X15422D01*
Y15742D01*
X15544D01*
Y15864D01*
X15422D01*
Y15985D01*
X15544D01*
Y16107D01*
X15422D01*
Y16229D01*
X15301D01*
Y16351D01*
X15179D01*
Y16473D01*
X15301D01*
Y16594D01*
X15057D01*
Y16716D01*
Y16838D01*
X14692D01*
Y16960D01*
X14326D01*
Y17082D01*
D02*
G37*
%LPD*%
G36*
X13595Y16107D02*
X13717D01*
Y15985D01*
X13839D01*
Y15864D01*
X13961D01*
Y15742D01*
Y15620D01*
Y15498D01*
Y15376D01*
Y15254D01*
X14082D01*
Y15133D01*
X13961D01*
Y15011D01*
X14082D01*
Y14889D01*
X13961D01*
Y14767D01*
X14082D01*
Y14645D01*
X13961D01*
Y14524D01*
X14082D01*
Y14402D01*
X13961D01*
Y14280D01*
X14082D01*
Y14158D01*
X13961D01*
Y14036D01*
Y13915D01*
Y13793D01*
X13839D01*
Y13671D01*
X13717D01*
Y13793D01*
X13595D01*
Y13671D01*
X13473D01*
Y13793D01*
X13352D01*
Y13671D01*
X13230D01*
Y13793D01*
X13108D01*
Y13671D01*
X12986D01*
Y13793D01*
X12864D01*
Y13671D01*
X12742D01*
Y13793D01*
X12377D01*
Y13915D01*
Y14036D01*
Y14158D01*
X12499D01*
Y14280D01*
X12377D01*
Y14402D01*
X12499D01*
Y14524D01*
Y14645D01*
Y14767D01*
X12377D01*
Y14889D01*
X12499D01*
Y15011D01*
X12377D01*
Y15133D01*
X12499D01*
Y15254D01*
X12377D01*
Y15376D01*
X12499D01*
Y15498D01*
Y15620D01*
Y15742D01*
X12377D01*
Y15864D01*
Y15985D01*
Y16107D01*
X12499D01*
Y16229D01*
X13352D01*
Y16107D01*
X13473D01*
Y16229D01*
X13595D01*
Y16107D01*
D02*
G37*
G36*
X12986Y12574D02*
X13352D01*
Y12453D01*
X13230D01*
Y12331D01*
X13352D01*
Y12209D01*
Y12087D01*
Y11965D01*
X13473D01*
Y11844D01*
X13352D01*
Y11722D01*
X13473D01*
Y11600D01*
Y11478D01*
Y11356D01*
Y11235D01*
Y11113D01*
Y10991D01*
Y10869D01*
X13352D01*
Y10747D01*
X13473D01*
Y10626D01*
X13352D01*
Y10504D01*
Y10382D01*
Y10260D01*
X13230D01*
Y10138D01*
X13108D01*
Y10260D01*
X12742D01*
Y10138D01*
X12621D01*
Y10260D01*
X12499D01*
Y10138D01*
X12377D01*
Y10260D01*
X12255D01*
Y10138D01*
X12133D01*
Y10260D01*
X12011D01*
Y10382D01*
X12133D01*
Y10504D01*
X12011D01*
Y10626D01*
X12133D01*
Y10747D01*
X12011D01*
Y10869D01*
X12133D01*
Y10991D01*
X12011D01*
Y11113D01*
X12133D01*
Y11235D01*
X12011D01*
Y11356D01*
X12133D01*
Y11478D01*
X12011D01*
Y11600D01*
X12133D01*
Y11722D01*
X12011D01*
Y11844D01*
X12133D01*
Y11965D01*
X12011D01*
Y12087D01*
X12133D01*
Y12209D01*
X12011D01*
Y12331D01*
X12133D01*
Y12453D01*
X12011D01*
Y12574D01*
X12133D01*
Y12696D01*
X12742D01*
Y12574D01*
X12864D01*
Y12696D01*
X12986D01*
Y12574D01*
D02*
G37*
%LPC*%
G36*
X20904Y17325D02*
X20295D01*
Y17203D01*
X20173D01*
Y17325D01*
X19808D01*
Y17203D01*
X19686D01*
Y17082D01*
Y16960D01*
Y16838D01*
Y16716D01*
Y16594D01*
Y16473D01*
Y16351D01*
Y16229D01*
Y16107D01*
Y15985D01*
Y15864D01*
Y15742D01*
Y15620D01*
Y15498D01*
Y15376D01*
Y15254D01*
Y15133D01*
Y15011D01*
Y14889D01*
Y14767D01*
Y14645D01*
Y14524D01*
Y14402D01*
Y14280D01*
Y14158D01*
Y14036D01*
Y13915D01*
Y13793D01*
Y13671D01*
Y13549D01*
Y13427D01*
Y13305D01*
Y13184D01*
Y13062D01*
Y12940D01*
Y12818D01*
Y12696D01*
X19564D01*
Y12574D01*
X19686D01*
Y12453D01*
X19564D01*
Y12331D01*
X19686D01*
Y12209D01*
X19564D01*
Y12087D01*
X19686D01*
Y11965D01*
X19564D01*
Y11844D01*
X19686D01*
Y11722D01*
X19564D01*
Y11600D01*
X19686D01*
Y11478D01*
X19564D01*
Y11356D01*
X19686D01*
Y11235D01*
X19564D01*
Y11113D01*
X19686D01*
Y10991D01*
X19564D01*
Y10869D01*
X19686D01*
Y10747D01*
X19564D01*
Y10626D01*
X19686D01*
Y10504D01*
X19808D01*
Y10382D01*
X19929D01*
Y10504D01*
X20051D01*
Y10382D01*
X20173D01*
Y10504D01*
X20295D01*
Y10382D01*
X20417D01*
Y10504D01*
X20539D01*
Y10382D01*
X20660D01*
Y10504D01*
X20782D01*
Y10626D01*
Y10747D01*
Y10869D01*
Y10991D01*
Y11113D01*
Y11235D01*
Y11356D01*
Y11478D01*
Y11600D01*
Y11722D01*
Y11844D01*
Y11965D01*
Y12087D01*
Y12209D01*
Y12331D01*
Y12453D01*
Y12574D01*
Y12696D01*
Y12818D01*
Y12940D01*
Y13062D01*
Y13184D01*
Y13305D01*
Y13427D01*
Y13549D01*
Y13671D01*
Y13793D01*
Y13915D01*
Y14036D01*
Y14158D01*
Y14280D01*
Y14402D01*
Y14524D01*
Y14645D01*
Y14767D01*
Y14889D01*
Y15011D01*
Y15133D01*
Y15254D01*
X20904D01*
Y15376D01*
X20782D01*
Y15498D01*
X20904D01*
Y15620D01*
X20782D01*
Y15742D01*
X20904D01*
Y15864D01*
X20782D01*
Y15985D01*
X20904D01*
Y16107D01*
X20782D01*
Y16229D01*
X20904D01*
Y16351D01*
X20782D01*
Y16473D01*
X20904D01*
Y16594D01*
X20782D01*
Y16716D01*
X20904D01*
Y16838D01*
X20782D01*
Y16960D01*
X20904D01*
Y17082D01*
X20782D01*
Y17203D01*
X20904D01*
Y17325D01*
D02*
G37*
G36*
X29066Y15498D02*
X28944D01*
Y15376D01*
X28822D01*
Y15498D01*
X28700D01*
Y15376D01*
X28578D01*
Y15498D01*
X28457D01*
Y15376D01*
X28335D01*
Y15498D01*
X28213D01*
Y15376D01*
X28091D01*
Y15254D01*
Y15133D01*
Y15011D01*
Y14889D01*
Y14767D01*
Y14645D01*
Y14524D01*
Y14402D01*
Y14280D01*
X28213D01*
Y14158D01*
X28091D01*
Y14036D01*
X28213D01*
Y13915D01*
X28091D01*
Y13793D01*
X28213D01*
Y13671D01*
X28091D01*
Y13549D01*
X28213D01*
Y13427D01*
X28091D01*
Y13305D01*
X28213D01*
Y13184D01*
X28091D01*
Y13062D01*
X28213D01*
Y12940D01*
X28091D01*
Y12818D01*
X28213D01*
Y12696D01*
X28091D01*
Y12574D01*
X28213D01*
Y12453D01*
X28091D01*
Y12331D01*
X28213D01*
Y12209D01*
X27847D01*
Y12087D01*
X27726D01*
Y12209D01*
X27604D01*
Y12087D01*
X27482D01*
Y12209D01*
X27360D01*
Y12087D01*
X27238D01*
Y12209D01*
X27117D01*
Y12087D01*
X26995D01*
Y12209D01*
X26873D01*
Y12087D01*
X26751D01*
Y12209D01*
X26629D01*
Y12331D01*
Y12453D01*
Y12574D01*
Y12696D01*
Y12818D01*
Y12940D01*
Y13062D01*
Y13184D01*
Y13305D01*
Y13427D01*
Y13549D01*
Y13671D01*
Y13793D01*
Y13915D01*
Y14036D01*
Y14158D01*
Y14280D01*
Y14402D01*
Y14524D01*
Y14645D01*
Y14767D01*
Y14889D01*
Y15011D01*
Y15133D01*
Y15254D01*
Y15376D01*
Y15498D01*
X26507D01*
Y15376D01*
X26386D01*
Y15498D01*
X26264D01*
Y15376D01*
X26142D01*
Y15498D01*
X26020D01*
Y15376D01*
X25898D01*
Y15498D01*
X25411D01*
Y15376D01*
Y15254D01*
Y15133D01*
Y15011D01*
Y14889D01*
Y14767D01*
Y14645D01*
Y14524D01*
Y14402D01*
Y14280D01*
Y14158D01*
Y14036D01*
Y13915D01*
Y13793D01*
Y13671D01*
Y13549D01*
Y13427D01*
Y13305D01*
Y13184D01*
Y13062D01*
Y12940D01*
Y12818D01*
Y12696D01*
Y12574D01*
Y12453D01*
Y12331D01*
Y12209D01*
Y12087D01*
Y11965D01*
Y11844D01*
Y11722D01*
Y11600D01*
X25533D01*
Y11478D01*
X25411D01*
Y11356D01*
X25533D01*
Y11235D01*
Y11113D01*
X25777D01*
Y10991D01*
X25898D01*
Y10869D01*
X26020D01*
Y10747D01*
X26142D01*
Y10626D01*
X26264D01*
Y10747D01*
X26386D01*
Y10626D01*
X27238D01*
Y10747D01*
X27482D01*
Y10869D01*
X27726D01*
Y10991D01*
X27847D01*
Y10869D01*
Y10747D01*
Y10626D01*
X27969D01*
Y10504D01*
X28091D01*
Y10626D01*
X28213D01*
Y10504D01*
X28335D01*
Y10626D01*
X28457D01*
Y10504D01*
X28578D01*
Y10626D01*
X28700D01*
Y10504D01*
X28822D01*
Y10626D01*
X28944D01*
Y10504D01*
X29066D01*
Y10626D01*
X29187D01*
Y10747D01*
Y10869D01*
Y10991D01*
Y11113D01*
Y11235D01*
Y11356D01*
Y11478D01*
Y11600D01*
Y11722D01*
Y11844D01*
Y11965D01*
Y12087D01*
Y12209D01*
Y12331D01*
Y12453D01*
Y12574D01*
Y12696D01*
Y12818D01*
Y12940D01*
Y13062D01*
Y13184D01*
Y13305D01*
Y13427D01*
Y13549D01*
Y13671D01*
Y13793D01*
Y13915D01*
Y14036D01*
Y14158D01*
Y14280D01*
Y14402D01*
Y14524D01*
Y14645D01*
Y14767D01*
Y14889D01*
Y15011D01*
Y15133D01*
Y15254D01*
Y15376D01*
X29066D01*
Y15498D01*
D02*
G37*
G36*
X23949Y10138D02*
X23828D01*
Y10016D01*
X23949D01*
Y10138D01*
D02*
G37*
G36*
Y9895D02*
X23828D01*
Y9773D01*
X23949D01*
Y9895D01*
D02*
G37*
G36*
X37836Y16960D02*
X37714D01*
Y16838D01*
X37836D01*
Y16960D01*
D02*
G37*
G36*
Y16716D02*
X37714D01*
Y16594D01*
Y16473D01*
Y16351D01*
X37836D01*
Y16229D01*
X37958D01*
Y16351D01*
X37836D01*
Y16473D01*
X37958D01*
Y16594D01*
X37836D01*
Y16716D01*
D02*
G37*
G36*
X42100Y15620D02*
X41978D01*
Y15498D01*
X41856D01*
Y15620D01*
X40516D01*
Y15498D01*
X40394D01*
Y15620D01*
X40272D01*
Y15498D01*
X40151D01*
Y15376D01*
X40029D01*
Y15498D01*
X39907D01*
Y15376D01*
X39785D01*
Y15254D01*
X39663D01*
Y15133D01*
X39542D01*
Y15011D01*
X39420D01*
Y14889D01*
Y14767D01*
Y14645D01*
X39298D01*
Y14524D01*
X39420D01*
Y14402D01*
X39298D01*
Y14280D01*
X39420D01*
Y14158D01*
X39298D01*
Y14036D01*
X39420D01*
Y13915D01*
X39298D01*
Y13793D01*
X39420D01*
Y13671D01*
X39298D01*
Y13549D01*
X39420D01*
Y13427D01*
Y13305D01*
Y13184D01*
X39542D01*
Y13062D01*
X39663D01*
Y12940D01*
X39785D01*
Y12818D01*
X39907D01*
Y12696D01*
X40029D01*
Y12818D01*
X40151D01*
Y12696D01*
X40272D01*
Y12818D01*
X40394D01*
Y12696D01*
X40516D01*
Y12818D01*
X40638D01*
Y12696D01*
X40760D01*
Y12818D01*
X40881D01*
Y12696D01*
X41003D01*
Y12818D01*
X41125D01*
Y12696D01*
X41247D01*
Y12818D01*
X41369D01*
Y12696D01*
X41491D01*
Y12818D01*
X41612D01*
Y12696D01*
X41734D01*
Y12818D01*
X41856D01*
Y12696D01*
X41978D01*
Y12574D01*
X41856D01*
Y12453D01*
X41978D01*
Y12331D01*
X41856D01*
Y12209D01*
X41978D01*
Y12087D01*
X41856D01*
Y11965D01*
X41978D01*
Y11844D01*
X41856D01*
Y11722D01*
X41734D01*
Y11600D01*
X40760D01*
Y11722D01*
X40638D01*
Y11844D01*
Y11965D01*
X40516D01*
Y12087D01*
X40638D01*
Y12209D01*
X39542D01*
Y12087D01*
X39663D01*
Y11965D01*
X39542D01*
Y11844D01*
X39663D01*
Y11722D01*
X39542D01*
Y11600D01*
X39663D01*
Y11478D01*
X39785D01*
Y11356D01*
X39663D01*
Y11235D01*
X39785D01*
Y11113D01*
X39907D01*
Y10991D01*
X40029D01*
Y10869D01*
X40151D01*
Y10747D01*
X40272D01*
Y10626D01*
X40394D01*
Y10747D01*
X40516D01*
Y10626D01*
X41856D01*
Y10747D01*
X41978D01*
Y10626D01*
X42100D01*
Y10747D01*
X42222D01*
Y10869D01*
X42587D01*
Y10991D01*
X42709D01*
Y11113D01*
X42831D01*
Y11235D01*
X42709D01*
Y11356D01*
X42831D01*
Y11478D01*
X42952D01*
Y11600D01*
Y11722D01*
Y11844D01*
Y11965D01*
Y12087D01*
X43074D01*
Y12209D01*
X42952D01*
Y12331D01*
Y12453D01*
Y12574D01*
X43074D01*
Y12696D01*
X42952D01*
Y12818D01*
Y12940D01*
Y13062D01*
X42831D01*
Y13184D01*
Y13305D01*
Y13427D01*
X42709D01*
Y13549D01*
X42587D01*
Y13671D01*
X42465D01*
Y13549D01*
X42343D01*
Y13671D01*
X40272D01*
Y13793D01*
Y13915D01*
Y14036D01*
Y14158D01*
Y14280D01*
Y14402D01*
Y14524D01*
X40394D01*
Y14645D01*
X41856D01*
Y14524D01*
X41978D01*
Y14402D01*
Y14280D01*
Y14158D01*
Y14036D01*
X42343D01*
Y14158D01*
X42465D01*
Y14036D01*
X42587D01*
Y14158D01*
X42709D01*
Y14036D01*
X42831D01*
Y14158D01*
X42952D01*
Y14036D01*
X43074D01*
Y14158D01*
X42952D01*
Y14280D01*
Y14402D01*
Y14524D01*
Y14645D01*
Y14767D01*
X42831D01*
Y14889D01*
Y15011D01*
Y15133D01*
X42709D01*
Y15254D01*
X42587D01*
Y15376D01*
X42222D01*
Y15498D01*
X42100D01*
Y15620D01*
D02*
G37*
G36*
X35522Y15376D02*
X35400D01*
Y15254D01*
X35278D01*
Y15376D01*
X33451D01*
Y15254D01*
X33329D01*
Y15376D01*
X33207D01*
Y15254D01*
X32842D01*
Y15133D01*
X32720D01*
Y15011D01*
X32598D01*
Y14889D01*
X32476D01*
Y14767D01*
X32355D01*
Y14645D01*
Y14524D01*
Y14402D01*
X32233D01*
Y14280D01*
X32355D01*
Y14158D01*
X32233D01*
Y14036D01*
X32355D01*
Y13915D01*
X32233D01*
Y13793D01*
Y13671D01*
Y13549D01*
Y13427D01*
Y13305D01*
Y13184D01*
Y13062D01*
Y12940D01*
Y12818D01*
Y12696D01*
Y12574D01*
Y12453D01*
Y12331D01*
Y12209D01*
Y12087D01*
Y11965D01*
Y11844D01*
Y11722D01*
Y11600D01*
X32355D01*
Y11478D01*
X32233D01*
Y11356D01*
X32355D01*
Y11235D01*
Y11113D01*
Y10991D01*
X32476D01*
Y10869D01*
X32598D01*
Y10747D01*
X32720D01*
Y10626D01*
X32842D01*
Y10504D01*
X32964D01*
Y10626D01*
X33085D01*
Y10504D01*
X33207D01*
Y10382D01*
X33329D01*
Y10504D01*
X33451D01*
Y10382D01*
X35034D01*
Y10504D01*
X35156D01*
Y10382D01*
X35278D01*
Y10504D01*
X35644D01*
Y10626D01*
X35887D01*
Y10747D01*
Y10869D01*
X36009D01*
Y10991D01*
X36131D01*
Y11113D01*
X36253D01*
Y11235D01*
X36131D01*
Y11356D01*
X36253D01*
Y11478D01*
X36131D01*
Y11600D01*
X36253D01*
Y11722D01*
Y11844D01*
Y11965D01*
Y12087D01*
Y12209D01*
X36131D01*
Y12331D01*
X36009D01*
Y12209D01*
X35887D01*
Y12331D01*
X35765D01*
Y12209D01*
X35644D01*
Y12331D01*
X35522D01*
Y12209D01*
X35400D01*
Y12331D01*
X35278D01*
Y12209D01*
X35156D01*
Y12087D01*
Y11965D01*
Y11844D01*
Y11722D01*
Y11600D01*
X35034D01*
Y11478D01*
X33451D01*
Y11600D01*
Y11722D01*
Y11844D01*
Y11965D01*
Y12087D01*
Y12209D01*
Y12331D01*
Y12453D01*
Y12574D01*
Y12696D01*
Y12818D01*
X36496D01*
Y12940D01*
X36374D01*
Y13062D01*
X36496D01*
Y13184D01*
X36374D01*
Y13305D01*
X36496D01*
Y13427D01*
X36374D01*
Y13549D01*
X36496D01*
Y13671D01*
X36374D01*
Y13793D01*
X36496D01*
Y13915D01*
X36374D01*
Y14036D01*
X36496D01*
Y14158D01*
X36374D01*
Y14280D01*
Y14402D01*
Y14524D01*
X36253D01*
Y14645D01*
Y14767D01*
Y14889D01*
X36131D01*
Y15011D01*
X36009D01*
Y15133D01*
X35644D01*
Y15254D01*
X35522D01*
Y15376D01*
D02*
G37*
%LPD*%
G36*
X35156Y14280D02*
X35278D01*
Y14158D01*
X35156D01*
Y14036D01*
X35278D01*
Y13915D01*
X35156D01*
Y13793D01*
X33694D01*
Y13915D01*
Y14036D01*
Y14158D01*
Y14280D01*
Y14402D01*
X35156D01*
Y14280D01*
D02*
G37*
%LPC*%
G36*
X51441Y20258D02*
X51327D01*
Y20144D01*
X51213D01*
Y20030D01*
X51327D01*
Y19915D01*
X51213D01*
Y19801D01*
Y19687D01*
X51099D01*
Y19572D01*
Y19458D01*
X50984D01*
Y19344D01*
X51099D01*
Y19229D01*
X50984D01*
Y19115D01*
Y19001D01*
Y18887D01*
X50870D01*
Y18772D01*
X50756D01*
Y18658D01*
X50870D01*
Y18544D01*
X50756D01*
Y18429D01*
X50641D01*
Y18315D01*
Y18201D01*
Y18087D01*
X50527D01*
Y17972D01*
X50641D01*
Y17858D01*
X50527D01*
Y17744D01*
Y17629D01*
X50413D01*
Y17515D01*
Y17401D01*
X50298D01*
Y17286D01*
X50413D01*
Y17172D01*
X50298D01*
Y17058D01*
X50184D01*
Y16943D01*
Y16829D01*
Y16715D01*
X50070D01*
Y16601D01*
X50184D01*
Y16486D01*
X50070D01*
Y16372D01*
X49955D01*
Y16258D01*
Y16143D01*
Y16029D01*
X49841D01*
Y15915D01*
X49955D01*
Y15801D01*
X49841D01*
Y15686D01*
X49727D01*
Y15572D01*
Y15458D01*
Y15343D01*
X49613D01*
Y15229D01*
X49727D01*
Y15115D01*
X49613D01*
Y15000D01*
X49498D01*
Y14886D01*
Y14772D01*
Y14658D01*
X49384D01*
Y14543D01*
X49498D01*
Y14429D01*
X49384D01*
Y14315D01*
X49270D01*
Y14200D01*
Y14086D01*
Y13972D01*
X49156D01*
Y13858D01*
X49270D01*
Y13743D01*
X49156D01*
Y13629D01*
X49041D01*
Y13515D01*
Y13400D01*
Y13286D01*
X48927D01*
Y13172D01*
X49041D01*
Y13057D01*
X48927D01*
Y12943D01*
X48813D01*
Y12829D01*
Y12715D01*
Y12600D01*
X48698D01*
Y12486D01*
Y12372D01*
Y12257D01*
X48584D01*
Y12143D01*
Y12029D01*
Y11914D01*
X48470D01*
Y11800D01*
X48584D01*
Y11686D01*
X48698D01*
Y11571D01*
X48927D01*
Y11457D01*
X49156D01*
Y11343D01*
X49498D01*
Y11229D01*
X49841D01*
Y11114D01*
X50184D01*
Y11000D01*
X50298D01*
Y10886D01*
X50413D01*
Y11000D01*
X50527D01*
Y10886D01*
X50870D01*
Y10771D01*
X50984D01*
Y10657D01*
X51099D01*
Y10771D01*
X51213D01*
Y10657D01*
X51556D01*
Y10543D01*
X51670D01*
Y10429D01*
X52241D01*
Y10314D01*
X52356D01*
Y10429D01*
X52470D01*
Y10314D01*
X52584D01*
Y10429D01*
X52699D01*
Y10314D01*
X52813D01*
Y10429D01*
X52927D01*
Y10314D01*
X53042D01*
Y10429D01*
X53385D01*
Y10543D01*
X53499D01*
Y10429D01*
X53613D01*
Y10543D01*
X53727D01*
Y10657D01*
X53842D01*
Y10771D01*
X53956D01*
Y10886D01*
X54070D01*
Y11000D01*
X54185D01*
Y11114D01*
X54299D01*
Y11229D01*
Y11343D01*
Y11457D01*
X54413D01*
Y11571D01*
X54527D01*
Y11686D01*
X54413D01*
Y11800D01*
X54527D01*
Y11914D01*
X54642D01*
Y12029D01*
X54527D01*
Y12143D01*
X54642D01*
Y12257D01*
Y12372D01*
Y12486D01*
X54756D01*
Y12600D01*
X54642D01*
Y12715D01*
X54756D01*
Y12829D01*
X54642D01*
Y12943D01*
X54756D01*
Y13057D01*
X54642D01*
Y13172D01*
Y13286D01*
Y13400D01*
X54527D01*
Y13515D01*
X54413D01*
Y13629D01*
X54527D01*
Y13743D01*
X54413D01*
Y13858D01*
X54299D01*
Y13972D01*
X54185D01*
Y14086D01*
X54299D01*
Y14200D01*
X54413D01*
Y14086D01*
X54527D01*
Y14200D01*
X54642D01*
Y14315D01*
X54756D01*
Y14429D01*
X54870D01*
Y14543D01*
X55213D01*
Y14658D01*
Y14772D01*
X55328D01*
Y14886D01*
Y15000D01*
X55556D01*
Y15115D01*
Y15229D01*
X55670D01*
Y15343D01*
Y15458D01*
X55785D01*
Y15572D01*
Y15686D01*
X55899D01*
Y15801D01*
X55785D01*
Y15915D01*
X55899D01*
Y16029D01*
X56013D01*
Y16143D01*
Y16258D01*
Y16372D01*
X56128D01*
Y16486D01*
X56013D01*
Y16601D01*
X56128D01*
Y16715D01*
Y16829D01*
Y16943D01*
Y17058D01*
Y17172D01*
X56242D01*
Y17286D01*
Y17401D01*
Y17515D01*
X56128D01*
Y17629D01*
X56242D01*
Y17744D01*
X56128D01*
Y17858D01*
X56013D01*
Y17972D01*
X56128D01*
Y18087D01*
X56013D01*
Y18201D01*
Y18315D01*
X55899D01*
Y18429D01*
X55785D01*
Y18544D01*
X55556D01*
Y18658D01*
X55442D01*
Y18772D01*
X55328D01*
Y18887D01*
X55213D01*
Y19001D01*
X55099D01*
Y18887D01*
X54985D01*
Y19001D01*
X54870D01*
Y19115D01*
X54756D01*
Y19001D01*
X54642D01*
Y19115D01*
X54527D01*
Y19229D01*
X54185D01*
Y19344D01*
X53842D01*
Y19458D01*
X53499D01*
Y19572D01*
X53156D01*
Y19687D01*
X52813D01*
Y19801D01*
X52470D01*
Y19915D01*
X52127D01*
Y20030D01*
X51784D01*
Y20144D01*
X51441D01*
Y20258D01*
D02*
G37*
G36*
X48584Y11686D02*
X48470D01*
Y11571D01*
X48584D01*
Y11686D01*
D02*
G37*
%LPD*%
G36*
X53156Y18544D02*
X53270D01*
Y18429D01*
X53613D01*
Y18315D01*
X53727D01*
Y18429D01*
X53842D01*
Y18315D01*
X53956D01*
Y18201D01*
X54185D01*
Y18087D01*
Y17972D01*
X54413D01*
Y17858D01*
Y17744D01*
Y17629D01*
Y17515D01*
Y17401D01*
Y17286D01*
X54299D01*
Y17172D01*
Y17058D01*
Y16943D01*
X54185D01*
Y16829D01*
X54299D01*
Y16715D01*
X54185D01*
Y16601D01*
Y16486D01*
X54070D01*
Y16372D01*
Y16258D01*
Y16143D01*
Y16029D01*
X53956D01*
Y15915D01*
X53842D01*
Y15801D01*
X53727D01*
Y15686D01*
X53842D01*
Y15572D01*
X53727D01*
Y15458D01*
X53613D01*
Y15343D01*
X53499D01*
Y15458D01*
X53385D01*
Y15343D01*
X53270D01*
Y15458D01*
X53156D01*
Y15572D01*
X52813D01*
Y15686D01*
X52584D01*
Y15801D01*
X52127D01*
Y15915D01*
X52013D01*
Y16029D01*
X51899D01*
Y16143D01*
X52013D01*
Y16258D01*
X52127D01*
Y16372D01*
X52241D01*
Y16486D01*
X52127D01*
Y16601D01*
X52241D01*
Y16715D01*
Y16829D01*
X52356D01*
Y16943D01*
Y17058D01*
X52470D01*
Y17172D01*
Y17286D01*
Y17401D01*
X52584D01*
Y17515D01*
Y17629D01*
Y17744D01*
X52699D01*
Y17858D01*
X52584D01*
Y17972D01*
X52699D01*
Y18087D01*
Y18201D01*
X52813D01*
Y18315D01*
Y18429D01*
Y18544D01*
Y18658D01*
X52927D01*
Y18544D01*
X53042D01*
Y18658D01*
X53156D01*
Y18544D01*
D02*
G37*
G36*
X51441Y14772D02*
X51784D01*
Y14658D01*
X51899D01*
Y14543D01*
X52241D01*
Y14429D01*
X52356D01*
Y14315D01*
X52470D01*
Y14200D01*
Y14086D01*
Y13972D01*
Y13858D01*
Y13743D01*
X52356D01*
Y13629D01*
X52470D01*
Y13515D01*
X52356D01*
Y13400D01*
X52470D01*
Y13286D01*
X52356D01*
Y13172D01*
Y13057D01*
Y12943D01*
X52241D01*
Y12829D01*
X52127D01*
Y12715D01*
X52241D01*
Y12600D01*
X52127D01*
Y12486D01*
Y12372D01*
X52013D01*
Y12257D01*
Y12143D01*
X51899D01*
Y12029D01*
X51784D01*
Y11914D01*
X51670D01*
Y11800D01*
X51784D01*
Y11686D01*
X51213D01*
Y11800D01*
X51099D01*
Y11914D01*
X50756D01*
Y12029D01*
X50641D01*
Y11914D01*
X50527D01*
Y12029D01*
X50413D01*
Y12143D01*
X50298D01*
Y12257D01*
Y12372D01*
Y12486D01*
X50413D01*
Y12600D01*
X50298D01*
Y12715D01*
X50413D01*
Y12829D01*
X50527D01*
Y12943D01*
X50641D01*
Y13057D01*
X50527D01*
Y13172D01*
X50641D01*
Y13286D01*
Y13400D01*
Y13515D01*
X50756D01*
Y13629D01*
X50870D01*
Y13743D01*
X50756D01*
Y13858D01*
X50870D01*
Y13972D01*
Y14086D01*
X50984D01*
Y14200D01*
Y14315D01*
X51099D01*
Y14429D01*
X50984D01*
Y14543D01*
X51099D01*
Y14658D01*
Y14772D01*
Y14886D01*
X51213D01*
Y14772D01*
X51327D01*
Y14886D01*
X51441D01*
Y14772D01*
D02*
G37*
%LPC*%
G36*
X64814Y16715D02*
X64700D01*
Y16601D01*
X64586D01*
Y16715D01*
X63786D01*
Y16601D01*
X63671D01*
Y16715D01*
X63557D01*
Y16601D01*
X63443D01*
Y16486D01*
X63328D01*
Y16601D01*
X63214D01*
Y16486D01*
X62871D01*
Y16372D01*
X62757D01*
Y16258D01*
X62414D01*
Y16143D01*
X62300D01*
Y16029D01*
X62071D01*
Y15915D01*
X61957D01*
Y15801D01*
X61728D01*
Y15686D01*
Y15572D01*
Y15458D01*
X61614D01*
Y15572D01*
X61500D01*
Y15686D01*
X61157D01*
Y15572D01*
X60814D01*
Y15458D01*
X60700D01*
Y15343D01*
X60585D01*
Y15229D01*
X60700D01*
Y15115D01*
X60814D01*
Y15000D01*
X60928D01*
Y14886D01*
X60814D01*
Y14772D01*
X60928D01*
Y14658D01*
Y14543D01*
X61042D01*
Y14429D01*
Y14315D01*
X61157D01*
Y14200D01*
Y14086D01*
Y13972D01*
X61271D01*
Y13858D01*
Y13743D01*
Y13629D01*
X61385D01*
Y13515D01*
X61500D01*
Y13400D01*
Y13286D01*
Y13172D01*
X61614D01*
Y13057D01*
Y12943D01*
Y12829D01*
X61728D01*
Y12715D01*
X61843D01*
Y12600D01*
X61728D01*
Y12486D01*
X61843D01*
Y12372D01*
X61957D01*
Y12257D01*
Y12143D01*
Y12029D01*
X62071D01*
Y11914D01*
Y11800D01*
Y11686D01*
X62186D01*
Y11571D01*
X62300D01*
Y11457D01*
X62186D01*
Y11343D01*
X62300D01*
Y11229D01*
X62414D01*
Y11114D01*
X62528D01*
Y11000D01*
X62414D01*
Y10886D01*
X62528D01*
Y10771D01*
Y10657D01*
X62643D01*
Y10543D01*
Y10429D01*
X62757D01*
Y10314D01*
Y10200D01*
X63214D01*
Y10314D01*
X63328D01*
Y10200D01*
X63443D01*
Y10314D01*
X63557D01*
Y10429D01*
X63900D01*
Y10543D01*
Y10657D01*
Y10771D01*
Y10886D01*
Y11000D01*
X63786D01*
Y11114D01*
X63671D01*
Y11229D01*
Y11343D01*
Y11457D01*
X63557D01*
Y11571D01*
Y11686D01*
Y11800D01*
X63443D01*
Y11914D01*
X63328D01*
Y12029D01*
X63443D01*
Y12143D01*
X63328D01*
Y12257D01*
X63214D01*
Y12372D01*
Y12486D01*
Y12600D01*
X63100D01*
Y12715D01*
Y12829D01*
Y12943D01*
X62986D01*
Y13057D01*
X62871D01*
Y13172D01*
X62986D01*
Y13286D01*
X62871D01*
Y13400D01*
X62757D01*
Y13515D01*
X62643D01*
Y13629D01*
X62757D01*
Y13743D01*
X62643D01*
Y13858D01*
Y13972D01*
X62528D01*
Y14086D01*
Y14200D01*
X62414D01*
Y14315D01*
Y14429D01*
Y14543D01*
X62528D01*
Y14658D01*
X62414D01*
Y14772D01*
X62757D01*
Y14886D01*
X63100D01*
Y15000D01*
X63443D01*
Y15115D01*
X63557D01*
Y15229D01*
X64129D01*
Y15115D01*
X64243D01*
Y15000D01*
X64357D01*
Y14886D01*
X64243D01*
Y14772D01*
X64357D01*
Y14658D01*
X64472D01*
Y14772D01*
X64814D01*
Y14886D01*
X64929D01*
Y15000D01*
X65272D01*
Y15115D01*
X65614D01*
Y15229D01*
X65729D01*
Y15343D01*
X65614D01*
Y15458D01*
Y15572D01*
X65500D01*
Y15686D01*
Y15801D01*
X65386D01*
Y15915D01*
X65272D01*
Y16029D01*
X65157D01*
Y16143D01*
X65272D01*
Y16258D01*
X65043D01*
Y16372D01*
Y16486D01*
X64929D01*
Y16601D01*
X64814D01*
Y16715D01*
D02*
G37*
G36*
X73615Y19572D02*
X73387D01*
Y19458D01*
Y19344D01*
X73273D01*
Y19229D01*
X73158D01*
Y19115D01*
X73273D01*
Y19001D01*
X73158D01*
Y18887D01*
Y18772D01*
Y18658D01*
X73044D01*
Y18544D01*
X72930D01*
Y18429D01*
X73044D01*
Y18315D01*
X72930D01*
Y18201D01*
Y18087D01*
Y17972D01*
X72815D01*
Y17858D01*
X72701D01*
Y17744D01*
X72815D01*
Y17629D01*
X72701D01*
Y17515D01*
Y17401D01*
Y17286D01*
X72587D01*
Y17172D01*
X72472D01*
Y17058D01*
X72587D01*
Y16943D01*
X72472D01*
Y16829D01*
Y16715D01*
Y16601D01*
X72358D01*
Y16486D01*
X72244D01*
Y16372D01*
X72358D01*
Y16258D01*
X72244D01*
Y16143D01*
Y16029D01*
Y15915D01*
X72129D01*
Y15801D01*
X72015D01*
Y15686D01*
X72129D01*
Y15572D01*
X72015D01*
Y15458D01*
Y15343D01*
Y15229D01*
X71901D01*
Y15115D01*
X71787D01*
Y15000D01*
X71901D01*
Y14886D01*
X71787D01*
Y14772D01*
Y14658D01*
Y14543D01*
X71672D01*
Y14429D01*
X71558D01*
Y14315D01*
X71672D01*
Y14200D01*
X71558D01*
Y14086D01*
Y13972D01*
Y13858D01*
X71444D01*
Y13743D01*
X71329D01*
Y13629D01*
X71444D01*
Y13515D01*
X71329D01*
Y13400D01*
Y13286D01*
X71215D01*
Y13172D01*
Y13057D01*
X71101D01*
Y12943D01*
X71215D01*
Y12829D01*
X71101D01*
Y12715D01*
Y12600D01*
X70986D01*
Y12486D01*
Y12372D01*
X70872D01*
Y12257D01*
X70986D01*
Y12143D01*
X71101D01*
Y12029D01*
X71444D01*
Y11914D01*
X71558D01*
Y11800D01*
X71672D01*
Y11914D01*
X71787D01*
Y12029D01*
X71901D01*
Y12143D01*
Y12257D01*
X72015D01*
Y12372D01*
Y12486D01*
X72129D01*
Y12600D01*
X72015D01*
Y12715D01*
X72129D01*
Y12829D01*
Y12943D01*
X72244D01*
Y13057D01*
Y13172D01*
X72358D01*
Y13286D01*
X72244D01*
Y13400D01*
X72358D01*
Y13515D01*
X72472D01*
Y13629D01*
X72587D01*
Y13515D01*
X72701D01*
Y13629D01*
X72815D01*
Y13743D01*
X73158D01*
Y13858D01*
X73273D01*
Y13743D01*
X73387D01*
Y13629D01*
Y13515D01*
Y13400D01*
X73501D01*
Y13286D01*
Y13172D01*
Y13057D01*
X73615D01*
Y12943D01*
X73730D01*
Y12829D01*
X73615D01*
Y12715D01*
X73730D01*
Y12600D01*
X73844D01*
Y12486D01*
X73730D01*
Y12372D01*
X73844D01*
Y12257D01*
X73958D01*
Y12143D01*
X73844D01*
Y12029D01*
X73958D01*
Y11914D01*
X74073D01*
Y11800D01*
X74187D01*
Y11686D01*
X74073D01*
Y11571D01*
X74187D01*
Y11457D01*
Y11343D01*
Y11229D01*
X74301D01*
Y11114D01*
X74415D01*
Y11000D01*
X74301D01*
Y10886D01*
X74644D01*
Y10771D01*
X74758D01*
Y10886D01*
X74873D01*
Y10771D01*
X74987D01*
Y10657D01*
X75330D01*
Y10771D01*
X75216D01*
Y10886D01*
X75330D01*
Y11000D01*
X75216D01*
Y11114D01*
X75101D01*
Y11229D01*
Y11343D01*
Y11457D01*
X74987D01*
Y11571D01*
X75101D01*
Y11686D01*
X74987D01*
Y11800D01*
Y11914D01*
X74873D01*
Y12029D01*
Y12143D01*
X74758D01*
Y12257D01*
X74873D01*
Y12372D01*
X74758D01*
Y12486D01*
Y12600D01*
X74644D01*
Y12715D01*
Y12829D01*
X74530D01*
Y12943D01*
X74644D01*
Y13057D01*
X74530D01*
Y13172D01*
Y13286D01*
Y13400D01*
X74415D01*
Y13515D01*
Y13629D01*
Y13743D01*
X74301D01*
Y13858D01*
X74415D01*
Y13972D01*
X74301D01*
Y14086D01*
Y14200D01*
Y14315D01*
Y14429D01*
X74530D01*
Y14543D01*
X74644D01*
Y14658D01*
X74758D01*
Y14772D01*
X75101D01*
Y14886D01*
X75216D01*
Y15000D01*
X75559D01*
Y15115D01*
X75673D01*
Y15229D01*
X75901D01*
Y15343D01*
Y15458D01*
X76016D01*
Y15343D01*
X76130D01*
Y15458D01*
X76244D01*
Y15572D01*
X76359D01*
Y15458D01*
X76473D01*
Y15572D01*
X76587D01*
Y15686D01*
X76701D01*
Y15801D01*
X76816D01*
Y15915D01*
X77159D01*
Y16029D01*
X76816D01*
Y16143D01*
X76701D01*
Y16258D01*
X76587D01*
Y16143D01*
X76473D01*
Y16258D01*
X76130D01*
Y16372D01*
X76016D01*
Y16486D01*
X75901D01*
Y16372D01*
X75787D01*
Y16258D01*
X75444D01*
Y16143D01*
X75330D01*
Y16029D01*
X75216D01*
Y16143D01*
X75101D01*
Y16029D01*
X74987D01*
Y15915D01*
X74873D01*
Y15801D01*
X74530D01*
Y15686D01*
X74415D01*
Y15572D01*
X74073D01*
Y15458D01*
X73958D01*
Y15343D01*
X73615D01*
Y15229D01*
X73501D01*
Y15343D01*
X73387D01*
Y15458D01*
X73501D01*
Y15572D01*
Y15686D01*
Y15801D01*
X73615D01*
Y15915D01*
X73730D01*
Y16029D01*
X73615D01*
Y16143D01*
X73730D01*
Y16258D01*
Y16372D01*
Y16486D01*
X73844D01*
Y16601D01*
Y16715D01*
Y16829D01*
X73958D01*
Y16943D01*
Y17058D01*
Y17172D01*
X74073D01*
Y17286D01*
Y17401D01*
Y17515D01*
X74187D01*
Y17629D01*
X74073D01*
Y17744D01*
X74187D01*
Y17858D01*
X74301D01*
Y17972D01*
Y18087D01*
Y18201D01*
X74415D01*
Y18315D01*
Y18429D01*
Y18544D01*
X74530D01*
Y18658D01*
X74644D01*
Y18772D01*
X74530D01*
Y18887D01*
X74644D01*
Y19001D01*
X74758D01*
Y19115D01*
X74644D01*
Y19229D01*
X74301D01*
Y19344D01*
X73958D01*
Y19458D01*
X73615D01*
Y19572D01*
D02*
G37*
G36*
X86303Y16715D02*
X85274D01*
Y16601D01*
X84931D01*
Y16486D01*
X84588D01*
Y16372D01*
X84474D01*
Y16258D01*
X84131D01*
Y16143D01*
X83788D01*
Y16029D01*
X83674D01*
Y15915D01*
X83559D01*
Y15801D01*
X83445D01*
Y15686D01*
X83331D01*
Y15572D01*
X83102D01*
Y15686D01*
Y15801D01*
X82988D01*
Y15686D01*
X82874D01*
Y15572D01*
X82531D01*
Y15458D01*
X82416D01*
Y15343D01*
X82302D01*
Y15229D01*
X82416D01*
Y15115D01*
X82302D01*
Y15000D01*
X82416D01*
Y14886D01*
X82531D01*
Y14772D01*
Y14658D01*
Y14543D01*
X82645D01*
Y14429D01*
Y14315D01*
Y14200D01*
X82759D01*
Y14086D01*
X82874D01*
Y13972D01*
Y13858D01*
Y13743D01*
X82988D01*
Y13629D01*
Y13515D01*
Y13400D01*
X83102D01*
Y13286D01*
Y13172D01*
X83217D01*
Y13057D01*
Y12943D01*
X83331D01*
Y12829D01*
X83217D01*
Y12715D01*
X83331D01*
Y12600D01*
X83445D01*
Y12486D01*
X83559D01*
Y12372D01*
X83445D01*
Y12257D01*
X83559D01*
Y12143D01*
Y12029D01*
X83674D01*
Y11914D01*
Y11800D01*
X83788D01*
Y11686D01*
Y11571D01*
Y11457D01*
X83902D01*
Y11343D01*
X84017D01*
Y11229D01*
X83902D01*
Y11114D01*
X84017D01*
Y11000D01*
X84131D01*
Y10886D01*
X84245D01*
Y10771D01*
X84131D01*
Y10657D01*
X84245D01*
Y10543D01*
Y10429D01*
X84360D01*
Y10314D01*
Y10200D01*
X84474D01*
Y10086D01*
X84588D01*
Y10200D01*
X84931D01*
Y10314D01*
X85045D01*
Y10429D01*
X85388D01*
Y10543D01*
X85502D01*
Y10657D01*
X85617D01*
Y10771D01*
X85502D01*
Y10886D01*
X85388D01*
Y11000D01*
Y11114D01*
Y11229D01*
X85274D01*
Y11343D01*
Y11457D01*
Y11571D01*
X85160D01*
Y11686D01*
X85045D01*
Y11800D01*
X85160D01*
Y11914D01*
X85045D01*
Y12029D01*
X84931D01*
Y12143D01*
Y12257D01*
Y12372D01*
X84817D01*
Y12486D01*
X84702D01*
Y12600D01*
Y12715D01*
Y12829D01*
X84588D01*
Y12943D01*
Y13057D01*
Y13172D01*
X84474D01*
Y13286D01*
X84360D01*
Y13400D01*
X84474D01*
Y13515D01*
X84360D01*
Y13629D01*
Y13743D01*
X84245D01*
Y13858D01*
Y13972D01*
X84131D01*
Y14086D01*
Y14200D01*
Y14315D01*
X84017D01*
Y14429D01*
Y14543D01*
Y14658D01*
X84131D01*
Y14772D01*
X84474D01*
Y14886D01*
X84588D01*
Y15000D01*
X84931D01*
Y15115D01*
X85274D01*
Y15229D01*
X85845D01*
Y15115D01*
X85731D01*
Y15000D01*
X85845D01*
Y14886D01*
X85960D01*
Y14772D01*
X86303D01*
Y14886D01*
X86417D01*
Y15000D01*
X86531D01*
Y14886D01*
X86646D01*
Y15000D01*
X86988D01*
Y15115D01*
X87103D01*
Y15229D01*
X87331D01*
Y15343D01*
X87217D01*
Y15458D01*
Y15572D01*
X87103D01*
Y15686D01*
X86988D01*
Y15801D01*
Y15915D01*
Y16029D01*
X86874D01*
Y16143D01*
X86760D01*
Y16258D01*
X86646D01*
Y16372D01*
Y16486D01*
X86417D01*
Y16601D01*
X86303D01*
Y16715D01*
D02*
G37*
%LPD*%
D10*
X83962Y191589D02*
G03*
X84962Y192589I0J1000D01*
G01*
X76962D02*
G03*
X77962Y191589I1000J0D01*
G01*
Y209589D02*
G03*
X76962Y208589I0J-1000D01*
G01*
X84962D02*
G03*
X83962Y209589I-1000J0D01*
G01*
X35000Y148000D02*
G03*
X36000Y147000I1000J0D01*
G01*
Y155000D02*
G03*
X35000Y154000I0J-1000D01*
G01*
X53000D02*
G03*
X52000Y155000I-1000J0D01*
G01*
Y147000D02*
G03*
X53000Y148000I0J1000D01*
G01*
Y174000D02*
G03*
X52000Y175000I-1000J0D01*
G01*
Y167000D02*
G03*
X53000Y168000I0J1000D01*
G01*
X35000D02*
G03*
X36000Y167000I1000J0D01*
G01*
Y175000D02*
G03*
X35000Y174000I0J-1000D01*
G01*
X47567Y255000D02*
G03*
X48568Y256000I0J1000D01*
G01*
Y262000D02*
G03*
X47567Y263000I-1000J0D01*
G01*
X27441D02*
G03*
X26441Y262000I0J-1000D01*
G01*
Y256000D02*
G03*
X27441Y255000I1000J0D01*
G01*
X189315Y196800D02*
G03*
X191921Y212500I-3816J8700D01*
G01*
X181684Y196800D02*
G03*
X189316Y196800I3816J8701D01*
G01*
X179079Y212500D02*
G03*
X181685Y196800I6422J-7000D01*
G01*
X221343Y232387D02*
G03*
X221343Y232387I-9843J0D01*
G01*
X192189Y241563D02*
G03*
X191189Y240563I0J-1000D01*
G01*
X199189D02*
G03*
X198189Y241563I-1000J0D01*
G01*
Y219437D02*
G03*
X199189Y220437I0J1000D01*
G01*
X191189D02*
G03*
X192189Y219437I1000J0D01*
G01*
X220943Y253500D02*
G03*
X220943Y253500I-9843J0D01*
G01*
X181500Y220437D02*
G03*
X182500Y219437I1000J0D01*
G01*
X188500D02*
G03*
X189500Y220437I0J1000D01*
G01*
Y240563D02*
G03*
X188500Y241563I-1000J0D01*
G01*
X182500D02*
G03*
X181500Y240563I0J-1000D01*
G01*
X171500Y220437D02*
G03*
X172500Y219437I1000J0D01*
G01*
X178500D02*
G03*
X179500Y220437I0J1000D01*
G01*
Y240563D02*
G03*
X178500Y241563I-1000J0D01*
G01*
X172500D02*
G03*
X171500Y240563I0J-1000D01*
G01*
X196063Y194000D02*
G03*
X195063Y195000I-1000J0D01*
G01*
Y187000D02*
G03*
X196063Y188000I0J1000D01*
G01*
X173937D02*
G03*
X174937Y187000I1000J0D01*
G01*
Y195000D02*
G03*
X173937Y194000I0J-1000D01*
G01*
Y158000D02*
G03*
X174937Y157000I1000J0D01*
G01*
Y165000D02*
G03*
X173937Y164000I0J-1000D01*
G01*
X196063D02*
G03*
X195063Y165000I-1000J0D01*
G01*
Y157000D02*
G03*
X196063Y158000I0J1000D01*
G01*
X131000Y145000D02*
G03*
X126000Y150000I-5000J0D01*
G01*
Y140000D02*
G03*
X131000Y145000I0J5000D01*
G01*
X111000D02*
G03*
X116000Y140000I5000J0D01*
G01*
Y150000D02*
G03*
X111000Y145000I0J-5000D01*
G01*
X131000Y134500D02*
G03*
X126000Y139500I-5000J0D01*
G01*
Y129500D02*
G03*
X131000Y134500I0J5000D01*
G01*
X111000D02*
G03*
X116000Y129500I5000J0D01*
G01*
Y139500D02*
G03*
X111000Y134500I0J-5000D01*
G01*
X27437Y107000D02*
G03*
X28437Y106000I1000J0D01*
G01*
Y114000D02*
G03*
X27437Y113000I0J-1000D01*
G01*
X49563D02*
G03*
X48563Y114000I-1000J0D01*
G01*
Y106000D02*
G03*
X49563Y107000I0J1000D01*
G01*
X48563Y96000D02*
G03*
X49563Y97000I0J1000D01*
G01*
Y103000D02*
G03*
X48563Y104000I-1000J0D01*
G01*
X28437D02*
G03*
X27437Y103000I0J-1000D01*
G01*
Y97000D02*
G03*
X28437Y96000I1000J0D01*
G01*
X88563Y66000D02*
G03*
X89563Y67000I0J1000D01*
G01*
Y73000D02*
G03*
X88563Y74000I-1000J0D01*
G01*
X68437D02*
G03*
X67437Y73000I0J-1000D01*
G01*
Y67000D02*
G03*
X68437Y66000I1000J0D01*
G01*
X88563Y86000D02*
G03*
X89563Y87000I0J1000D01*
G01*
Y93000D02*
G03*
X88563Y94000I-1000J0D01*
G01*
X68437D02*
G03*
X67437Y93000I0J-1000D01*
G01*
Y87000D02*
G03*
X68437Y86000I1000J0D01*
G01*
X159343Y186000D02*
G03*
X159343Y186000I-9843J0D01*
G01*
X158862Y234500D02*
G03*
X158862Y234500I-9843J0D01*
G01*
X135500Y37737D02*
G03*
X136500Y36737I1000J0D01*
G01*
X142500D02*
G03*
X143500Y37737I0J1000D01*
G01*
Y57863D02*
G03*
X142500Y58863I-1000J0D01*
G01*
X136500D02*
G03*
X135500Y57863I0J-1000D01*
G01*
X197606Y82072D02*
G03*
X197606Y82072I-7906J0D01*
G01*
X119032Y254800D02*
G03*
X114032Y249800I0J-5000D01*
G01*
D02*
G03*
X119032Y244800I5000J0D01*
G01*
X129032D02*
G03*
X134032Y249800I0J5000D01*
G01*
D02*
G03*
X129032Y254800I-5000J0D01*
G01*
X110000Y276500D02*
G03*
X110000Y284500I0J4000D01*
G01*
X120185Y243200D02*
G03*
X117579Y227500I3816J-8700D01*
G01*
X127816Y243200D02*
G03*
X120184Y243200I-3816J-8701D01*
G01*
X130421Y227500D02*
G03*
X127815Y243200I-6422J7000D01*
G01*
X148577Y68606D02*
G03*
X151183Y84306I-3816J8700D01*
G01*
X140946Y68606D02*
G03*
X148578Y68606I3816J8701D01*
G01*
X138341Y84306D02*
G03*
X140947Y68606I6422J-7000D01*
G01*
X152500Y36743D02*
G03*
X153500Y37743I0J1000D01*
G01*
X145500D02*
G03*
X146500Y36743I1000J0D01*
G01*
Y58869D02*
G03*
X145500Y57869I0J-1000D01*
G01*
X153500D02*
G03*
X152500Y58869I-1000J0D01*
G01*
X103000Y237500D02*
G03*
X102000Y238500I-1000J0D01*
G01*
Y230500D02*
G03*
X103000Y231500I0J1000D01*
G01*
X85000D02*
G03*
X86000Y230500I1000J0D01*
G01*
Y238500D02*
G03*
X85000Y237500I0J-1000D01*
G01*
X20000Y153000D02*
G03*
X21000Y152000I1000J0D01*
G01*
X27000D02*
G03*
X28000Y153000I0J1000D01*
G01*
Y169000D02*
G03*
X27000Y170000I-1000J0D01*
G01*
X21000D02*
G03*
X20000Y169000I0J-1000D01*
G01*
X48500Y135500D02*
G03*
X53500Y140500I0J5000D01*
G01*
D02*
G03*
X48500Y145500I-5000J0D01*
G01*
X38500D02*
G03*
X33500Y140500I0J-5000D01*
G01*
D02*
G03*
X38500Y135500I5000J0D01*
G01*
X108500Y187063D02*
G03*
X107500Y186063I0J-1000D01*
G01*
X115500D02*
G03*
X114500Y187063I-1000J0D01*
G01*
Y164937D02*
G03*
X115500Y165937I0J1000D01*
G01*
X107500D02*
G03*
X108500Y164937I1000J0D01*
G01*
X125500Y186063D02*
G03*
X124500Y187063I-1000J0D01*
G01*
Y164937D02*
G03*
X125500Y165937I0J1000D01*
G01*
X118500Y187063D02*
G03*
X117500Y186063I0J-1000D01*
G01*
Y165937D02*
G03*
X118500Y164937I1000J0D01*
G01*
X204265Y85184D02*
G03*
X206872Y69484I6422J-7000D01*
G01*
X206871Y69484D02*
G03*
X214503Y69484I3816J8701D01*
G01*
X214502Y69484D02*
G03*
X217108Y85184I-3816J8700D01*
G01*
X170462Y67806D02*
G03*
X178462Y67806I4000J0D01*
G01*
X221868Y58746D02*
G03*
X221868Y58746I-7906J0D01*
G01*
X194462Y47806D02*
G03*
X199462Y42806I5000J0D01*
G01*
D02*
G03*
X204462Y47806I0J5000D01*
G01*
Y57806D02*
G03*
X199462Y62806I-5000J0D01*
G01*
D02*
G03*
X194462Y57806I0J-5000D01*
G01*
X159343Y166000D02*
G03*
X159343Y166000I-9843J0D01*
G01*
X88500Y136000D02*
G03*
X93500Y141000I0J5000D01*
G01*
X73500D02*
G03*
X78500Y136000I5000J0D01*
G01*
X93500Y141000D02*
G03*
X88500Y146000I-5000J0D01*
G01*
X78500D02*
G03*
X73500Y141000I0J-5000D01*
G01*
X89563Y184000D02*
G03*
X88563Y185000I-1000J0D01*
G01*
Y177000D02*
G03*
X89563Y178000I0J1000D01*
G01*
X68437Y185000D02*
G03*
X67437Y184000I0J-1000D01*
G01*
Y178000D02*
G03*
X68437Y177000I1000J0D01*
G01*
X74500Y135000D02*
G03*
X82500Y135000I4000J0D01*
G01*
X53000Y164000D02*
G03*
X52000Y165000I-1000J0D01*
G01*
Y157000D02*
G03*
X53000Y158000I0J1000D01*
G01*
X35000D02*
G03*
X36000Y157000I1000J0D01*
G01*
Y165000D02*
G03*
X35000Y164000I0J-1000D01*
G01*
X87424Y209589D02*
G03*
X86424Y208589I0J-1000D01*
G01*
X94424D02*
G03*
X93424Y209589I-1000J0D01*
G01*
Y191589D02*
G03*
X94424Y192589I0J1000D01*
G01*
X86424D02*
G03*
X87424Y191589I1000J0D01*
G01*
X27437Y127000D02*
G03*
X28437Y126000I1000J0D01*
G01*
Y134000D02*
G03*
X27437Y133000I0J-1000D01*
G01*
X49563D02*
G03*
X48563Y134000I-1000J0D01*
G01*
Y126000D02*
G03*
X49563Y127000I0J1000D01*
G01*
X27437Y117000D02*
G03*
X28437Y116000I1000J0D01*
G01*
Y124000D02*
G03*
X27437Y123000I0J-1000D01*
G01*
X49563D02*
G03*
X48563Y124000I-1000J0D01*
G01*
Y116000D02*
G03*
X49563Y117000I0J1000D01*
G01*
X89563Y164000D02*
G03*
X88563Y165000I-1000J0D01*
G01*
Y157000D02*
G03*
X89563Y158000I0J1000D01*
G01*
X67437D02*
G03*
X68437Y157000I1000J0D01*
G01*
Y165000D02*
G03*
X67437Y164000I0J-1000D01*
G01*
X196063Y174000D02*
G03*
X195063Y175000I-1000J0D01*
G01*
Y167000D02*
G03*
X196063Y168000I0J1000D01*
G01*
X173937D02*
G03*
X174937Y167000I1000J0D01*
G01*
Y175000D02*
G03*
X173937Y174000I0J-1000D01*
G01*
X89563Y154000D02*
G03*
X88563Y155000I-1000J0D01*
G01*
Y147000D02*
G03*
X89563Y148000I0J1000D01*
G01*
X67437D02*
G03*
X68437Y147000I1000J0D01*
G01*
Y155000D02*
G03*
X67437Y154000I0J-1000D01*
G01*
X8000Y263685D02*
G03*
X7000Y262685I0J-1000D01*
G01*
X15000D02*
G03*
X14000Y263685I-1000J0D01*
G01*
Y241559D02*
G03*
X15000Y242559I0J1000D01*
G01*
X7000D02*
G03*
X8000Y241559I1000J0D01*
G01*
X50063Y184000D02*
G03*
X49063Y185000I-1000J0D01*
G01*
Y177000D02*
G03*
X50063Y178000I0J1000D01*
G01*
X27937D02*
G03*
X28937Y177000I1000J0D01*
G01*
Y185000D02*
G03*
X27937Y184000I0J-1000D01*
G01*
X134500Y164937D02*
G03*
X135500Y165937I0J1000D01*
G01*
X127500D02*
G03*
X128500Y164937I1000J0D01*
G01*
Y187063D02*
G03*
X127500Y186063I0J-1000D01*
G01*
X135500D02*
G03*
X134500Y187063I-1000J0D01*
G01*
X77962Y191589D02*
X83962D01*
X76962Y192589D02*
Y208589D01*
X84962Y192589D02*
Y208589D01*
X77962Y209589D02*
X83962D01*
X35000Y148000D02*
Y154000D01*
X36000Y155000D02*
X52000D01*
X36000Y147000D02*
X52000D01*
X53000Y148000D02*
Y154000D01*
Y168000D02*
Y174000D01*
X36000Y167000D02*
X52000D01*
X36000Y175000D02*
X52000D01*
X35000Y168000D02*
Y174000D01*
X31442Y255000D02*
X31942Y255500D01*
X31442Y263000D02*
X31942Y262500D01*
X43067Y255500D02*
X43567Y255000D01*
X43067Y262500D02*
X43567Y263000D01*
X27441Y255000D02*
X31442D01*
X27441Y263000D02*
X31442D01*
X43567Y255000D02*
X47567D01*
X43567Y263000D02*
X47567D01*
X31942Y255500D02*
X43067D01*
X31942Y262500D02*
X43067D01*
X26441Y256000D02*
Y262000D01*
X48568Y256000D02*
Y262000D01*
X179079Y212500D02*
X191921D01*
X215600Y236888D02*
X218100D01*
X216900Y235588D02*
Y238188D01*
X192189Y219437D02*
X198189D01*
X192189Y241563D02*
X198189D01*
X198689Y224937D02*
Y236063D01*
X191689Y224937D02*
Y236063D01*
X199189Y220437D02*
Y224437D01*
X191189Y220437D02*
Y224437D01*
X199189Y236563D02*
Y240563D01*
X191189Y236563D02*
Y240563D01*
X198689Y224937D02*
X199189Y224437D01*
X191189D02*
X191689Y224937D01*
X198689Y236063D02*
X199189Y236563D01*
X191189D02*
X191689Y236063D01*
X205700Y247700D02*
Y250300D01*
X204500Y249000D02*
X207000D01*
X181500Y236563D02*
X182000Y236063D01*
X189000D02*
X189500Y236563D01*
X181500Y224437D02*
X182000Y224937D01*
X189000D02*
X189500Y224437D01*
X181500Y236563D02*
Y240563D01*
X189500Y236563D02*
Y240563D01*
X181500Y220437D02*
Y224437D01*
X189500Y220437D02*
Y224437D01*
X182000Y224937D02*
Y236063D01*
X189000Y224937D02*
Y236063D01*
X182500Y241563D02*
X188500D01*
X182500Y219437D02*
X188500D01*
X171500Y236563D02*
X172000Y236063D01*
X179000D02*
X179500Y236563D01*
X171500Y224437D02*
X172000Y224937D01*
X179000D02*
X179500Y224437D01*
X171500Y236563D02*
Y240563D01*
X179500Y236563D02*
Y240563D01*
X171500Y220437D02*
Y224437D01*
X179500Y220437D02*
Y224437D01*
X172000Y224937D02*
Y236063D01*
X179000Y224937D02*
Y236063D01*
X172500Y241563D02*
X178500D01*
X172500Y219437D02*
X178500D01*
X173937Y188000D02*
Y194000D01*
X196063Y188000D02*
Y194000D01*
X179437Y187500D02*
X190563D01*
X179437Y194500D02*
X190563D01*
X174937Y187000D02*
X178937D01*
X174937Y195000D02*
X178937D01*
X191063Y187000D02*
X195063D01*
X191063Y195000D02*
X195063D01*
X178937Y187000D02*
X179437Y187500D01*
X178937Y195000D02*
X179437Y194500D01*
X190563Y187500D02*
X191063Y187000D01*
X190563Y194500D02*
X191063Y195000D01*
X196063Y158000D02*
Y164000D01*
X173937Y158000D02*
Y164000D01*
X179437Y164500D02*
X190563D01*
X179437Y157500D02*
X190563D01*
X191063Y165000D02*
X195063D01*
X191063Y157000D02*
X195063D01*
X174937Y165000D02*
X178937D01*
X174937Y157000D02*
X178937D01*
X190563Y164500D02*
X191063Y165000D01*
X190563Y157500D02*
X191063Y157000D01*
X178937Y165000D02*
X179437Y164500D01*
X178937Y157000D02*
X179437Y157500D01*
X171400Y185882D02*
X199612D01*
X171400Y176118D02*
Y185882D01*
Y176118D02*
X199612D01*
Y185882D01*
X123500Y140000D02*
X126000D01*
X116000D02*
X123500D01*
X116000Y150000D02*
X126000D01*
X123500Y129500D02*
X126000D01*
X116000D02*
X123500D01*
X116000Y139500D02*
X126000D01*
X64394Y54882D02*
X92606D01*
X64394Y45118D02*
Y54882D01*
Y45118D02*
X92606D01*
Y54882D01*
X49563Y107000D02*
Y113000D01*
X27437Y107000D02*
Y113000D01*
X32937Y113500D02*
X44063D01*
X32937Y106500D02*
X44063D01*
X44563Y114000D02*
X48563D01*
X44563Y106000D02*
X48563D01*
X28437Y114000D02*
X32437D01*
X28437Y106000D02*
X32437D01*
X44063Y113500D02*
X44563Y114000D01*
X44063Y106500D02*
X44563Y106000D01*
X32437Y114000D02*
X32937Y113500D01*
X32437Y106000D02*
X32937Y106500D01*
X32437Y96000D02*
X32937Y96500D01*
X32437Y104000D02*
X32937Y103500D01*
X44063Y96500D02*
X44563Y96000D01*
X44063Y103500D02*
X44563Y104000D01*
X28437Y96000D02*
X32437D01*
X28437Y104000D02*
X32437D01*
X44563Y96000D02*
X48563D01*
X44563Y104000D02*
X48563D01*
X32937Y96500D02*
X44063D01*
X32937Y103500D02*
X44063D01*
X27437Y97000D02*
Y103000D01*
X49563Y97000D02*
Y103000D01*
X72437Y66000D02*
X72937Y66500D01*
X72437Y74000D02*
X72937Y73500D01*
X84063Y66500D02*
X84563Y66000D01*
X84063Y73500D02*
X84563Y74000D01*
X68437Y66000D02*
X72437D01*
X68437Y74000D02*
X72437D01*
X84563Y66000D02*
X88563D01*
X84563Y74000D02*
X88563D01*
X72937Y66500D02*
X84063D01*
X72937Y73500D02*
X84063D01*
X67437Y67000D02*
Y73000D01*
X89563Y67000D02*
Y73000D01*
X72437Y86000D02*
X72937Y86500D01*
X72437Y94000D02*
X72937Y93500D01*
X84063Y86500D02*
X84563Y86000D01*
X84063Y93500D02*
X84563Y94000D01*
X68437Y86000D02*
X72437D01*
X68437Y94000D02*
X72437D01*
X84563Y86000D02*
X88563D01*
X84563Y94000D02*
X88563D01*
X72937Y86500D02*
X84063D01*
X72937Y93500D02*
X84063D01*
X67437Y87000D02*
Y93000D01*
X89563Y87000D02*
Y93000D01*
X154900Y189200D02*
Y191800D01*
X153600Y190500D02*
X156100D01*
X143219Y239900D02*
X145819D01*
X144519Y238600D02*
Y241100D01*
X92606Y55118D02*
Y64882D01*
X64394Y55118D02*
X92606D01*
X64394D02*
Y64882D01*
X92606D01*
X135500Y53863D02*
X136000Y53363D01*
X143000D02*
X143500Y53863D01*
X135500Y41737D02*
X136000Y42237D01*
X143000D02*
X143500Y41737D01*
X135500Y53863D02*
Y57863D01*
X143500Y53863D02*
Y57863D01*
X135500Y37737D02*
Y41737D01*
X143500Y37737D02*
Y41737D01*
X136000Y42237D02*
Y53363D01*
X143000Y42237D02*
Y53363D01*
X136500Y58863D02*
X142500D01*
X136500Y36737D02*
X142500D01*
X184900Y80203D02*
X184928Y77738D01*
X183642Y78987D02*
X186142D01*
X119032Y254800D02*
X129032D01*
X119032Y244800D02*
X126532D01*
X129032D01*
X110000Y292000D02*
X130000D01*
X110000Y269000D02*
X130000D01*
Y292000D01*
X110000Y269000D02*
Y276500D01*
Y284500D02*
Y292000D01*
X117579Y227500D02*
X130421D01*
X138341Y84306D02*
X151183D01*
X146500Y58869D02*
X152500D01*
X146500Y36743D02*
X152500D01*
X146000Y42243D02*
Y53369D01*
X153000Y42243D02*
Y53369D01*
X145500Y53869D02*
Y57869D01*
X153500Y53869D02*
Y57869D01*
X145500Y37743D02*
Y41743D01*
X153500Y37743D02*
Y41743D01*
X145500Y53869D02*
X146000Y53369D01*
X153000D02*
X153500Y53869D01*
X145500Y41743D02*
X146000Y42243D01*
X153000D02*
X153500Y41743D01*
X103000Y231500D02*
Y237500D01*
X86000Y230500D02*
X102000D01*
X86000Y238500D02*
X102000D01*
X85000Y231500D02*
Y237500D01*
X21000Y152000D02*
X27000D01*
X20000Y153000D02*
Y169000D01*
X28000Y153000D02*
Y169000D01*
X21000Y170000D02*
X27000D01*
X38500Y135500D02*
X48500D01*
X41000Y145500D02*
X48500D01*
X38500D02*
X41000D01*
X108500Y164937D02*
X114500D01*
X108500Y187063D02*
X114500D01*
X115000Y170437D02*
Y181563D01*
X108000Y170437D02*
Y181563D01*
X115500Y165937D02*
Y169937D01*
X107500Y165937D02*
Y169937D01*
X115500Y182063D02*
Y186063D01*
X107500Y182063D02*
Y186063D01*
X115000Y170437D02*
X115500Y169937D01*
X107500D02*
X108000Y170437D01*
X115000Y181563D02*
X115500Y182063D01*
X107500D02*
X108000Y181563D01*
X125500Y182063D02*
Y186063D01*
X125000Y181563D02*
X125500Y182063D01*
X125000Y170437D02*
Y181563D01*
X125500Y165937D02*
Y169937D01*
X125000Y170437D02*
X125500Y169937D01*
X118500Y164937D02*
X124500D01*
X118500Y187063D02*
X124500D01*
X117500Y182063D02*
Y186063D01*
Y182063D02*
X118000Y181563D01*
Y170437D02*
Y181563D01*
X117500Y169937D02*
X118000Y170437D01*
X117500Y165937D02*
Y169937D01*
X204265Y85184D02*
X217108D01*
X185962Y27806D02*
Y67806D01*
X178462D02*
X185962D01*
X162962D02*
X170462D01*
X162962Y27806D02*
Y67806D01*
Y27806D02*
X185962D01*
X217520Y61831D02*
X220020D01*
X218734Y63079D02*
X218762Y60614D01*
X194462Y47806D02*
Y57806D01*
X204462Y47806D02*
Y55306D01*
Y57806D01*
X142900Y161500D02*
X145400D01*
X144100Y160200D02*
Y162800D01*
X78500Y136000D02*
X88500D01*
X81000Y146000D02*
X88500D01*
X78500D02*
X81000D01*
X89563Y178000D02*
Y184000D01*
X84563Y185000D02*
X88563D01*
X84063Y184500D02*
X84563Y185000D01*
X72937Y184500D02*
X84063D01*
X84563Y177000D02*
X88563D01*
X72937Y177500D02*
X84063D01*
X84563Y177000D01*
X68437Y185000D02*
X72437D01*
X72937Y184500D01*
X72437Y177000D02*
X72937Y177500D01*
X68437Y177000D02*
X72437D01*
X67437Y178000D02*
Y184000D01*
X148669Y263000D02*
X152669D01*
X152069D02*
X168019D01*
X148669Y253000D02*
Y263000D01*
X168019Y253000D02*
Y263000D01*
X148719Y253000D02*
X168019D01*
X67000Y95000D02*
X90000D01*
X67000D02*
Y135000D01*
X74500D01*
X82500D02*
X90000D01*
Y95000D02*
Y135000D01*
X53000Y158000D02*
Y164000D01*
X36000Y157000D02*
X52000D01*
X36000Y165000D02*
X52000D01*
X35000Y158000D02*
Y164000D01*
X87424Y209589D02*
X93424D01*
X94424Y192589D02*
Y208589D01*
X86424Y192589D02*
Y208589D01*
X87424Y191589D02*
X93424D01*
X47606Y20618D02*
Y30382D01*
X19394Y20618D02*
X47606D01*
X19394D02*
Y30382D01*
X47606D01*
X19394Y30618D02*
Y40382D01*
X47606D01*
Y30618D02*
Y40382D01*
X19394Y30618D02*
X47606D01*
X204106Y133618D02*
Y143382D01*
X175894Y133618D02*
X204106D01*
X175894D02*
Y143382D01*
X204106D01*
X175894Y123118D02*
Y132882D01*
X204106D01*
Y123118D02*
Y132882D01*
X175894Y123118D02*
X204106D01*
X92606Y166118D02*
Y175882D01*
X64394Y166118D02*
X92606D01*
X64394D02*
Y175882D01*
X92606D01*
Y75018D02*
Y84782D01*
X64394Y75018D02*
X92606D01*
X64394D02*
Y84782D01*
X92606D01*
X49563Y127000D02*
Y133000D01*
X27437Y127000D02*
Y133000D01*
X32937Y133500D02*
X44063D01*
X32937Y126500D02*
X44063D01*
X44563Y134000D02*
X48563D01*
X44563Y126000D02*
X48563D01*
X28437Y134000D02*
X32437D01*
X28437Y126000D02*
X32437D01*
X44063Y133500D02*
X44563Y134000D01*
X44063Y126500D02*
X44563Y126000D01*
X32437Y134000D02*
X32937Y133500D01*
X32437Y126000D02*
X32937Y126500D01*
X49563Y117000D02*
Y123000D01*
X27437Y117000D02*
Y123000D01*
X32937Y123500D02*
X44063D01*
X32937Y116500D02*
X44063D01*
X44563Y124000D02*
X48563D01*
X44563Y116000D02*
X48563D01*
X28437Y124000D02*
X32437D01*
X28437Y116000D02*
X32437D01*
X44063Y123500D02*
X44563Y124000D01*
X44063Y116500D02*
X44563Y116000D01*
X32437Y124000D02*
X32937Y123500D01*
X32437Y116000D02*
X32937Y116500D01*
X67437Y158000D02*
Y164000D01*
X89563Y158000D02*
Y164000D01*
X72937Y157500D02*
X84063D01*
X72937Y164500D02*
X84063D01*
X68437Y157000D02*
X72437D01*
X68437Y165000D02*
X72437D01*
X84563Y157000D02*
X88563D01*
X84563Y165000D02*
X88563D01*
X72437Y157000D02*
X72937Y157500D01*
X72437Y165000D02*
X72937Y164500D01*
X84063Y157500D02*
X84563Y157000D01*
X84063Y164500D02*
X84563Y165000D01*
X173937Y168000D02*
Y174000D01*
X196063Y168000D02*
Y174000D01*
X179437Y167500D02*
X190563D01*
X179437Y174500D02*
X190563D01*
X174937Y167000D02*
X178937D01*
X174937Y175000D02*
X178937D01*
X191063Y167000D02*
X195063D01*
X191063Y175000D02*
X195063D01*
X178937Y167000D02*
X179437Y167500D01*
X178937Y175000D02*
X179437Y174500D01*
X190563Y167500D02*
X191063Y167000D01*
X190563Y174500D02*
X191063Y175000D01*
X67437Y148000D02*
Y154000D01*
X89563Y148000D02*
Y154000D01*
X72937Y147500D02*
X84063D01*
X72937Y154500D02*
X84063D01*
X68437Y147000D02*
X72437D01*
X68437Y155000D02*
X72437D01*
X84563Y147000D02*
X88563D01*
X84563Y155000D02*
X88563D01*
X72437Y147000D02*
X72937Y147500D01*
X72437Y155000D02*
X72937Y154500D01*
X84063Y147500D02*
X84563Y147000D01*
X84063Y154500D02*
X84563Y155000D01*
X8000Y241559D02*
X14000D01*
X8000Y263685D02*
X14000D01*
X14500Y247059D02*
Y258185D01*
X7500Y247059D02*
Y258185D01*
X15000Y242559D02*
Y246559D01*
X7000Y242559D02*
Y246559D01*
X15000Y258685D02*
Y262685D01*
X7000Y258685D02*
Y262685D01*
X14500Y247059D02*
X15000Y246559D01*
X7000D02*
X7500Y247059D01*
X14500Y258185D02*
X15000Y258685D01*
X7000D02*
X7500Y258185D01*
X27937Y178000D02*
Y184000D01*
X50063Y178000D02*
Y184000D01*
X33437Y177500D02*
X44563D01*
X33437Y184500D02*
X44563D01*
X28937Y177000D02*
X32937D01*
X28937Y185000D02*
X32937D01*
X45063Y177000D02*
X49063D01*
X45063Y185000D02*
X49063D01*
X32937Y177000D02*
X33437Y177500D01*
X32937Y185000D02*
X33437Y184500D01*
X44563Y177500D02*
X45063Y177000D01*
X44563Y184500D02*
X45063Y185000D01*
X128500Y187063D02*
X134500D01*
X128500Y164937D02*
X134500D01*
X128000Y170437D02*
Y181563D01*
X135000Y170437D02*
Y181563D01*
X127500Y182063D02*
Y186063D01*
X135500Y182063D02*
Y186063D01*
X127500Y165937D02*
Y169937D01*
X135500Y165937D02*
Y169937D01*
X127500Y182063D02*
X128000Y181563D01*
X135000D02*
X135500Y182063D01*
X127500Y169937D02*
X128000Y170437D01*
X135000D02*
X135500Y169937D01*
X195166Y83167D02*
X195499Y83500D01*
Y84167D01*
X195166Y84500D01*
X193833D01*
X193500Y84167D01*
Y83500D01*
X193833Y83167D01*
X195499Y81168D02*
Y82501D01*
X194500D01*
X194833Y81834D01*
Y81501D01*
X194500Y81168D01*
X193833D01*
X193500Y81501D01*
Y82167D01*
X193833Y82501D01*
X144799Y70833D02*
Y72166D01*
X144466Y72499D01*
X143799D01*
X143466Y72166D01*
Y70833D01*
X143799Y70500D01*
X144466D01*
X144133Y71166D02*
X144799Y70500D01*
X144466D02*
X144799Y70833D01*
X145466Y70500D02*
X146132D01*
X145799D01*
Y72499D01*
X145466Y72166D01*
X120762Y239095D02*
Y241094D01*
X121762D01*
X122095Y240761D01*
Y240094D01*
X121762Y239761D01*
X120762D01*
X121428D02*
X122095Y239095D01*
X124094Y241094D02*
X122761D01*
Y239095D01*
X124094D01*
X122761Y240094D02*
X123428D01*
X126094Y240761D02*
X125760Y241094D01*
X125094D01*
X124761Y240761D01*
Y239428D01*
X125094Y239095D01*
X125760D01*
X126094Y239428D01*
Y240094D01*
X125427D01*
X128093Y239095D02*
X126760D01*
X128093Y240427D01*
Y240761D01*
X127760Y241094D01*
X127093D01*
X126760Y240761D01*
X207576Y71378D02*
Y73377D01*
X208576D01*
X208909Y73044D01*
Y72377D01*
X208576Y72044D01*
X207576D01*
X208243D02*
X208909Y71378D01*
X210909Y73377D02*
X209576D01*
Y71378D01*
X210909D01*
X209576Y72377D02*
X210242D01*
X212908Y73044D02*
X212575Y73377D01*
X211908D01*
X211575Y73044D01*
Y71711D01*
X211908Y71378D01*
X212575D01*
X212908Y71711D01*
Y72377D01*
X212241D01*
X213574Y71378D02*
X214241D01*
X213908D01*
Y73377D01*
X213574Y73044D01*
X209765Y58667D02*
X210099Y59000D01*
Y59667D01*
X209765Y60000D01*
X208433D01*
X208099Y59667D01*
Y59000D01*
X208433Y58667D01*
X210099Y56668D02*
X209765Y57334D01*
X209099Y58001D01*
X208433D01*
X208099Y57667D01*
Y57001D01*
X208433Y56668D01*
X208766D01*
X209099Y57001D01*
Y58001D01*
D11*
X19000Y68500D02*
X58000D01*
Y94500D01*
X19000Y68500D02*
Y94500D01*
X58000D01*
X19000Y68000D02*
X58000D01*
X19000Y42000D02*
Y68000D01*
X58000Y42000D02*
Y68000D01*
X19000Y42000D02*
X58000D01*
X101500Y128000D02*
X140500D01*
X101500Y102000D02*
Y128000D01*
X140500Y102000D02*
Y128000D01*
X101500Y102000D02*
X140500D01*
X17974Y237000D02*
X56973D01*
Y253150D01*
X17974Y237000D02*
Y253150D01*
X56973D01*
X209847Y16000D02*
Y21000D01*
X219847Y16000D02*
Y21000D01*
X209847Y6000D02*
Y11000D01*
X219847Y6000D02*
Y11000D01*
X212347Y23500D02*
X217347D01*
X212347Y3500D02*
X217347D01*
X209847Y21000D02*
X212347Y23500D01*
X217347D02*
X219847Y21000D01*
X209847Y11000D02*
X212347Y13500D01*
X209847Y6000D02*
X212347Y3500D01*
X217347Y13500D02*
X219847Y16000D01*
X217347Y3500D02*
X219847Y6000D01*
X217347Y13500D02*
X219847Y11000D01*
X209847Y16000D02*
X212347Y13500D01*
D12*
X104300Y2200D02*
X130678D01*
X104300D02*
Y29759D01*
X130678Y2200D02*
Y29759D01*
X104300D02*
X130678D01*
X200819Y2318D02*
Y24956D01*
X171685Y2318D02*
X200819D01*
X171685D02*
Y24956D01*
X200819D01*
X169067Y2318D02*
Y24956D01*
X139933Y2318D02*
X169067D01*
X139933D02*
Y24956D01*
X169067D01*
X131860Y381848D02*
X148419D01*
Y393462D01*
Y381848D02*
X193301D01*
X148419Y393462D02*
X193301D01*
Y381848D02*
Y393462D01*
Y381848D02*
X209860D01*
Y300746D02*
Y381848D01*
X187592Y300746D02*
X209860D01*
X154128D02*
X187592D01*
Y288935D02*
Y300746D01*
X154128Y288935D02*
X187592D01*
X154128D02*
Y300746D01*
X131860D02*
X154128D01*
X131860D02*
Y381848D01*
X22641D02*
X39200D01*
Y393462D01*
Y381848D02*
X84082D01*
X39200Y393462D02*
X84082D01*
Y381848D02*
Y393462D01*
Y381848D02*
X100641D01*
Y300746D02*
Y381848D01*
X78373Y300746D02*
X100641D01*
X44909D02*
X78373D01*
Y288935D02*
Y300746D01*
X44909Y288935D02*
X78373D01*
X44909D02*
Y300746D01*
X22641D02*
X44909D01*
X22641D02*
Y381848D01*
X54000Y37103D02*
Y36437D01*
X55333Y35104D01*
X56666Y36437D01*
Y37103D01*
X55333Y35104D02*
Y33104D01*
X60664Y36437D02*
X59998Y37103D01*
X58665D01*
X57999Y36437D01*
Y33771D01*
X58665Y33104D01*
X59998D01*
X60664Y33771D01*
Y35104D01*
X59332D01*
X61997Y33104D02*
Y37103D01*
X64663Y33104D01*
Y37103D01*
X69995Y35104D02*
X72661D01*
X77992Y35770D02*
X79325Y33104D01*
X80658Y35770D01*
X81991Y33104D02*
X83324D01*
X82657D01*
Y37103D01*
X81991Y36437D01*
X85323Y33104D02*
Y33771D01*
X85990D01*
Y33104D01*
X85323D01*
X88656Y36437D02*
X89322Y37103D01*
X90655D01*
X91321Y36437D01*
Y33771D01*
X90655Y33104D01*
X89322D01*
X88656Y33771D01*
Y36437D01*
X157359Y379098D02*
X155360D01*
X154360Y378098D01*
Y374100D01*
X155360Y373100D01*
X157359D01*
X158359Y374100D01*
Y378098D01*
X157359Y379098D01*
X160358D02*
Y374100D01*
X161358Y373100D01*
X163357D01*
X164357Y374100D01*
Y379098D01*
X166356D02*
X170355D01*
X168356D01*
Y373100D01*
X172354D02*
Y379098D01*
X175353D01*
X176353Y378098D01*
Y376099D01*
X175353Y375099D01*
X172354D01*
X178352Y379098D02*
Y374100D01*
X179352Y373100D01*
X181351D01*
X182351Y374100D01*
Y379098D01*
X184350D02*
X188349D01*
X186350D01*
Y373100D01*
X47641Y379098D02*
X49640D01*
X48641D01*
Y373100D01*
X47641D01*
X49640D01*
X52639D02*
Y379098D01*
X56638Y373100D01*
Y379098D01*
X58637Y373100D02*
Y379098D01*
X61637D01*
X62636Y378098D01*
Y376099D01*
X61637Y375099D01*
X58637D01*
X64635Y379098D02*
Y374100D01*
X65635Y373100D01*
X67634D01*
X68634Y374100D01*
Y379098D01*
X70634D02*
X74632D01*
X72633D01*
Y373100D01*
X82498Y121200D02*
Y119201D01*
Y120201D01*
X76500D01*
Y121200D01*
Y119201D01*
X81498Y112203D02*
X82498Y113203D01*
Y115202D01*
X81498Y116202D01*
X77500D01*
X76500Y115202D01*
Y113203D01*
X77500Y112203D01*
X76500Y110204D02*
Y108204D01*
Y109204D01*
X82498D01*
X81498Y110204D01*
D13*
X181134Y2545D02*
Y4513D01*
X191370D01*
Y2545D02*
Y4513D01*
X149382Y2545D02*
Y4513D01*
X159618D01*
Y2545D02*
Y4513D01*
D14*
X79827Y241350D02*
Y299224D01*
Y241350D02*
X108173D01*
Y299224D01*
X79827D02*
X108173D01*
X62332Y251334D02*
X62999Y252001D01*
Y253334D01*
X62332Y254000D01*
X59666D01*
X59000Y253334D01*
Y252001D01*
X59666Y251334D01*
X60999D01*
Y252667D01*
X59000Y250001D02*
X61666D01*
X62999Y248668D01*
X61666Y247336D01*
X59000D01*
X60999D01*
Y250001D01*
X62999Y246003D02*
Y244670D01*
Y245336D01*
X59000D01*
Y246003D01*
Y244670D01*
Y242670D02*
X62999D01*
X59000Y240004D01*
X62999D01*
X59000Y236006D02*
Y238672D01*
X61666Y236006D01*
X62332D01*
X62999Y236672D01*
Y238005D01*
X62332Y238672D01*
X34000Y257124D02*
Y261123D01*
X35999D01*
X36666Y260456D01*
Y259123D01*
X35999Y258457D01*
X34000D01*
X35333D02*
X36666Y257124D01*
X37999Y260456D02*
X38665Y261123D01*
X39998D01*
X40664Y260456D01*
Y259790D01*
X39998Y259123D01*
X40664Y258457D01*
Y257790D01*
X39998Y257124D01*
X38665D01*
X37999Y257790D01*
Y258457D01*
X38665Y259123D01*
X37999Y259790D01*
Y260456D01*
X38665Y259123D02*
X39998D01*
X193245Y236000D02*
X197244D01*
Y234001D01*
X196577Y233334D01*
X195244D01*
X194578Y234001D01*
Y236000D01*
Y234667D02*
X193245Y233334D01*
Y229335D02*
Y232001D01*
X195911Y229335D01*
X196577D01*
X197244Y230002D01*
Y231335D01*
X196577Y232001D01*
X193245Y225337D02*
Y228003D01*
X195911Y225337D01*
X196577D01*
X197244Y226003D01*
Y227336D01*
X196577Y228003D01*
X206499Y234948D02*
X206999Y235448D01*
Y236447D01*
X206499Y236947D01*
X204500D01*
X204000Y236447D01*
Y235448D01*
X204500Y234948D01*
X204000Y231949D02*
Y233948D01*
X205999Y231949D01*
X206499D01*
X206999Y232449D01*
Y233448D01*
X206499Y233948D01*
X204000Y230949D02*
Y229949D01*
Y230449D01*
X206999D01*
X206499Y230949D01*
X217999Y255675D02*
X218499Y256175D01*
Y257175D01*
X217999Y257675D01*
X216000D01*
X215500Y257175D01*
Y256175D01*
X216000Y255675D01*
X215500Y252676D02*
Y254676D01*
X217499Y252676D01*
X217999D01*
X218499Y253176D01*
Y254176D01*
X217999Y254676D01*
X215500Y249677D02*
Y251677D01*
X217499Y249677D01*
X217999D01*
X218499Y250177D01*
Y251177D01*
X217999Y251677D01*
X13999Y90000D02*
X11333D01*
X10000Y88667D01*
X11333Y87334D01*
X13999D01*
Y84002D02*
Y85335D01*
X13332Y86001D01*
X10667D01*
X10000Y85335D01*
Y84002D01*
X10667Y83336D01*
X13332D01*
X13999Y84002D01*
Y82003D02*
Y80670D01*
Y81336D01*
X10000D01*
Y82003D01*
Y80670D01*
X13332Y76004D02*
X13999Y76671D01*
Y78004D01*
X13332Y78670D01*
X10667D01*
X10000Y78004D01*
Y76671D01*
X10667Y76004D01*
X13999Y72006D02*
Y74672D01*
X10000D01*
Y72006D01*
X11999Y74672D02*
Y73339D01*
X180000Y189000D02*
Y192999D01*
X181999D01*
X182666Y192332D01*
Y190999D01*
X181999Y190333D01*
X180000D01*
X181333D02*
X182666Y189000D01*
X186664D02*
X183999D01*
X186664Y191666D01*
Y192332D01*
X185998Y192999D01*
X184665D01*
X183999Y192332D01*
X187997D02*
X188664Y192999D01*
X189997D01*
X190663Y192332D01*
Y191666D01*
X189997Y190999D01*
X189330D01*
X189997D01*
X190663Y190333D01*
Y189666D01*
X189997Y189000D01*
X188664D01*
X187997Y189666D01*
X183388Y236000D02*
X187387D01*
Y234001D01*
X186720Y233334D01*
X185387D01*
X184721Y234001D01*
Y236000D01*
Y234667D02*
X183388Y233334D01*
Y229335D02*
Y232001D01*
X186054Y229335D01*
X186720D01*
X187387Y230002D01*
Y231335D01*
X186720Y232001D01*
X183388Y228003D02*
Y226670D01*
Y227336D01*
X187387D01*
X186720Y228003D01*
X173528Y236000D02*
X177526D01*
Y234001D01*
X176860Y233334D01*
X175527D01*
X174861Y234001D01*
Y236000D01*
Y234667D02*
X173528Y233334D01*
Y229335D02*
Y232001D01*
X176193Y229335D01*
X176860D01*
X177526Y230002D01*
Y231335D01*
X176860Y232001D01*
Y228003D02*
X177526Y227336D01*
Y226003D01*
X176860Y225337D01*
X174194D01*
X173528Y226003D01*
Y227336D01*
X174194Y228003D01*
X176860D01*
X180000Y158885D02*
Y162884D01*
X181999D01*
X182666Y162217D01*
Y160884D01*
X181999Y160218D01*
X180000D01*
X181333D02*
X182666Y158885D01*
X183999D02*
X185332D01*
X184665D01*
Y162884D01*
X183999Y162217D01*
X187331Y159551D02*
X187997Y158885D01*
X189330D01*
X189997Y159551D01*
Y162217D01*
X189330Y162884D01*
X187997D01*
X187331Y162217D01*
Y161551D01*
X187997Y160884D01*
X189997D01*
X33825Y98000D02*
Y101999D01*
X35825D01*
X36491Y101332D01*
Y99999D01*
X35825Y99333D01*
X33825D01*
X35158D02*
X36491Y98000D01*
X37824D02*
X39157D01*
X38491D01*
Y101999D01*
X37824Y101332D01*
X41156D02*
X41823Y101999D01*
X43156D01*
X43822Y101332D01*
Y100666D01*
X43156Y99999D01*
X42489D01*
X43156D01*
X43822Y99333D01*
Y98666D01*
X43156Y98000D01*
X41823D01*
X41156Y98666D01*
X35000Y108008D02*
Y112007D01*
X36999D01*
X37666Y111340D01*
Y110008D01*
X36999Y109341D01*
X35000D01*
X36333D02*
X37666Y108008D01*
X38999D02*
X40332D01*
X39665D01*
Y112007D01*
X38999Y111340D01*
X44997Y108008D02*
X42331D01*
X44997Y110674D01*
Y111340D01*
X44330Y112007D01*
X42997D01*
X42331Y111340D01*
X184976Y198667D02*
Y201332D01*
X184310Y201999D01*
X182977D01*
X182311Y201332D01*
Y198667D01*
X182977Y198000D01*
X184310D01*
X183644Y199333D02*
X184976Y198000D01*
X184310D02*
X184976Y198667D01*
X188975Y198000D02*
X186309D01*
X188975Y200666D01*
Y201332D01*
X188309Y201999D01*
X186976D01*
X186309Y201332D01*
X10000Y59600D02*
X13999D01*
X12666Y58267D01*
X13999Y56934D01*
X10000D01*
X13999Y55601D02*
Y54268D01*
Y54935D01*
X10000D01*
Y55601D01*
Y54268D01*
X13999Y52269D02*
X10000D01*
Y50270D01*
X10667Y49603D01*
X13332D01*
X13999Y50270D01*
Y52269D01*
X147280Y122000D02*
X143281D01*
X145280D01*
Y119334D01*
X147280D01*
X143281D01*
X147280Y118001D02*
Y116668D01*
Y117335D01*
X143281D01*
Y118001D01*
Y116668D01*
X146613Y112003D02*
X147280Y112670D01*
Y114003D01*
X146613Y114669D01*
X143948D01*
X143281Y114003D01*
Y112670D01*
X143948Y112003D01*
X145280D01*
Y113336D01*
X147280Y110670D02*
X143281D01*
X145280D01*
Y108004D01*
X147280D01*
X143281D01*
X182966Y182332D02*
X182299Y182999D01*
X180966D01*
X180300Y182332D01*
Y179666D01*
X180966Y179000D01*
X182299D01*
X182966Y179666D01*
X186964Y179000D02*
X184299D01*
X186964Y181666D01*
Y182332D01*
X186298Y182999D01*
X184965D01*
X184299Y182332D01*
X188297D02*
X188964Y182999D01*
X190297D01*
X190963Y182332D01*
Y179666D01*
X190297Y179000D01*
X188964D01*
X188297Y179666D01*
Y182332D01*
X118916Y135686D02*
X118249Y136352D01*
X116917D01*
X116250Y135686D01*
Y133020D01*
X116917Y132354D01*
X118249D01*
X118916Y133020D01*
X120249Y132354D02*
X121582D01*
X120915D01*
Y136352D01*
X120249Y135686D01*
X123581Y136352D02*
X126247D01*
Y135686D01*
X123581Y133020D01*
Y132354D01*
X118916Y146526D02*
X118249Y147192D01*
X116917D01*
X116250Y146526D01*
Y143860D01*
X116917Y143193D01*
X118249D01*
X118916Y143860D01*
X120249Y143193D02*
X121582D01*
X120915D01*
Y147192D01*
X120249Y146526D01*
X126247Y147192D02*
X124914Y146526D01*
X123581Y145193D01*
Y143860D01*
X124247Y143193D01*
X125580D01*
X126247Y143860D01*
Y144526D01*
X125580Y145193D01*
X123581D01*
X76166Y51332D02*
X75499Y51999D01*
X74166D01*
X73500Y51332D01*
Y48666D01*
X74166Y48000D01*
X75499D01*
X76166Y48666D01*
X77499Y48000D02*
X78832D01*
X78165D01*
Y51999D01*
X77499Y51332D01*
X80831D02*
X81497Y51999D01*
X82830D01*
X83497Y51332D01*
Y50666D01*
X82830Y49999D01*
X82164D01*
X82830D01*
X83497Y49333D01*
Y48666D01*
X82830Y48000D01*
X81497D01*
X80831Y48666D01*
X100499Y26900D02*
X96500D01*
Y24901D01*
X97166Y24234D01*
X97833D01*
X98499Y24901D01*
Y26900D01*
Y24901D01*
X99166Y24234D01*
X99832D01*
X100499Y24901D01*
Y26900D01*
X96500Y22901D02*
X100499D01*
Y20902D01*
X99832Y20235D01*
X98499D01*
X97833Y20902D01*
Y22901D01*
Y21568D02*
X96500Y20235D01*
X100499Y18903D02*
Y17570D01*
Y18236D01*
X96500D01*
Y18903D01*
Y17570D01*
X99832Y12904D02*
X100499Y13571D01*
Y14904D01*
X99832Y15570D01*
X97166D01*
X96500Y14904D01*
Y13571D01*
X97166Y12904D01*
X98499D01*
Y14237D01*
X100499Y11572D02*
X96500D01*
X98499D01*
Y8906D01*
X100499D01*
X96500D01*
X100499Y7573D02*
Y4907D01*
Y6240D01*
X96500D01*
X122960Y251332D02*
X122293Y251999D01*
X120960D01*
X120294Y251332D01*
Y248666D01*
X120960Y248000D01*
X122293D01*
X122960Y248666D01*
X124293Y251332D02*
X124959Y251999D01*
X126292D01*
X126959Y251332D01*
Y250666D01*
X126292Y249999D01*
X126959Y249333D01*
Y248666D01*
X126292Y248000D01*
X124959D01*
X124293Y248666D01*
Y249333D01*
X124959Y249999D01*
X124293Y250666D01*
Y251332D01*
X124959Y249999D02*
X126292D01*
X147843Y51500D02*
X151841D01*
Y49501D01*
X151175Y48834D01*
X149842D01*
X149176Y49501D01*
Y51500D01*
Y50167D02*
X147843Y48834D01*
X151841Y44835D02*
Y47501D01*
X149842D01*
X150508Y46168D01*
Y45502D01*
X149842Y44835D01*
X148509D01*
X147843Y45502D01*
Y46835D01*
X148509Y47501D01*
X118599Y281899D02*
X117266D01*
X116600Y281232D01*
Y278566D01*
X117266Y277900D01*
X118599D01*
X119266Y278566D01*
Y281232D01*
X118599Y281899D01*
X120599D02*
Y277900D01*
Y279233D01*
X123265Y281899D01*
X121265Y279899D01*
X123265Y277900D01*
X124597D02*
X125930D01*
X125264D01*
Y281899D01*
X124597Y281232D01*
X222300Y20600D02*
X226299D01*
X224966Y19267D01*
X226299Y17934D01*
X222300D01*
X226299Y14602D02*
Y15935D01*
X225632Y16601D01*
X222966D01*
X222300Y15935D01*
Y14602D01*
X222966Y13936D01*
X225632D01*
X226299Y14602D01*
Y12603D02*
X222300D01*
Y10603D01*
X222966Y9937D01*
X225632D01*
X226299Y10603D01*
Y12603D01*
Y5938D02*
Y8604D01*
X222300D01*
Y5938D01*
X224299Y8604D02*
Y7271D01*
X88900Y236399D02*
Y232400D01*
X90899D01*
X91566Y233066D01*
Y235732D01*
X90899Y236399D01*
X88900D01*
X95565Y232400D02*
X92899D01*
X95565Y235066D01*
Y235732D01*
X94898Y236399D01*
X93565D01*
X92899Y235732D01*
X137524Y51500D02*
X141523D01*
Y49501D01*
X140856Y48834D01*
X139523D01*
X138857Y49501D01*
Y51500D01*
Y50167D02*
X137524Y48834D01*
Y45502D02*
X141523D01*
X139523Y47501D01*
Y44835D01*
X137599Y18000D02*
X133600D01*
Y15334D01*
X137599Y11336D02*
Y14001D01*
X133600D01*
Y11336D01*
X135599Y14001D02*
Y12668D01*
X137599Y10003D02*
X133600D01*
Y8003D01*
X134266Y7337D01*
X136932D01*
X137599Y8003D01*
Y10003D01*
X207199Y15834D02*
Y18500D01*
X205199D01*
Y17167D01*
Y18500D01*
X203200D01*
X206532Y11835D02*
X207199Y12502D01*
Y13835D01*
X206532Y14501D01*
X205866D01*
X205199Y13835D01*
Y12502D01*
X204533Y11835D01*
X203867D01*
X203200Y12502D01*
Y13835D01*
X203867Y14501D01*
X207199Y10503D02*
X203200D01*
X204533Y9170D01*
X203200Y7837D01*
X207199D01*
X76169Y61414D02*
X75502Y62080D01*
X74169D01*
X73503Y61414D01*
Y58748D01*
X74169Y58081D01*
X75502D01*
X76169Y58748D01*
X77502Y58081D02*
X78834D01*
X78168D01*
Y62080D01*
X77502Y61414D01*
X82833Y58081D02*
Y62080D01*
X80834Y60081D01*
X83500D01*
X41356Y141832D02*
X40690Y142499D01*
X39357D01*
X38691Y141832D01*
Y139166D01*
X39357Y138500D01*
X40690D01*
X41356Y139166D01*
X42689Y138500D02*
X44022D01*
X43356D01*
Y142499D01*
X42689Y141832D01*
X46022D02*
X46688Y142499D01*
X48021D01*
X48687Y141832D01*
Y139166D01*
X48021Y138500D01*
X46688D01*
X46022Y139166D01*
Y141832D01*
X113500Y173000D02*
X109501D01*
Y174999D01*
X110168Y175666D01*
X111501D01*
X112167Y174999D01*
Y173000D01*
Y174333D02*
X113500Y175666D01*
X110168Y176999D02*
X109501Y177665D01*
Y178998D01*
X110168Y179665D01*
X110834D01*
X111501Y178998D01*
Y178332D01*
Y178998D01*
X112167Y179665D01*
X112833D01*
X113500Y178998D01*
Y177665D01*
X112833Y176999D01*
X91750Y256365D02*
Y252366D01*
Y253699D01*
X94416Y256365D01*
X92416Y254365D01*
X94416Y252366D01*
X95749D02*
X97082D01*
X96415D01*
Y256365D01*
X95749Y255698D01*
X123500Y173000D02*
X119501D01*
Y174999D01*
X120168Y175666D01*
X121501D01*
X122167Y174999D01*
Y173000D01*
Y174333D02*
X123500Y175666D01*
Y179665D02*
Y176999D01*
X120834Y179665D01*
X120168D01*
X119501Y178998D01*
Y177665D01*
X120168Y176999D01*
X75000Y68000D02*
Y71999D01*
X76999D01*
X77666Y71332D01*
Y69999D01*
X76999Y69333D01*
X75000D01*
X76333D02*
X77666Y68000D01*
X81665Y71999D02*
X80332Y71332D01*
X78999Y69999D01*
Y68666D01*
X79665Y68000D01*
X80998D01*
X81665Y68666D01*
Y69333D01*
X80998Y69999D01*
X78999D01*
X82666Y142138D02*
X81999Y142805D01*
X80666D01*
X80000Y142138D01*
Y139472D01*
X80666Y138806D01*
X81999D01*
X82666Y139472D01*
X85998Y138806D02*
Y142805D01*
X83999Y140805D01*
X86664D01*
X82999Y205000D02*
X79000D01*
Y203001D01*
X79666Y202334D01*
X82332D01*
X82999Y203001D01*
Y205000D01*
Y201001D02*
Y198336D01*
X82332D01*
X79666Y201001D01*
X79000D01*
X149685Y229832D02*
X149018Y230499D01*
X147686D01*
X147019Y229832D01*
Y227166D01*
X147686Y226500D01*
X149018D01*
X149685Y227166D01*
X151018Y226500D02*
X152351D01*
X151684D01*
Y230499D01*
X151018Y229832D01*
X157500Y259999D02*
Y256000D01*
X159499D01*
X160166Y256666D01*
Y259332D01*
X159499Y259999D01*
X157500D01*
X161499Y256000D02*
X162832D01*
X162165D01*
Y259999D01*
X161499Y259332D01*
X39000Y172999D02*
Y169000D01*
X40999D01*
X41666Y169667D01*
Y172332D01*
X40999Y172999D01*
X39000D01*
X44998Y169000D02*
Y172999D01*
X42999Y170999D01*
X45665D01*
X171600Y49200D02*
Y45868D01*
X172266Y45202D01*
X173599D01*
X174266Y45868D01*
Y49200D01*
X175599Y45202D02*
X176932D01*
X176265D01*
Y49200D01*
X175599Y48534D01*
X33725Y128000D02*
Y131999D01*
X35724D01*
X36390Y131332D01*
Y129999D01*
X35724Y129333D01*
X33725D01*
X35058D02*
X36390Y128000D01*
X37723D02*
X39056D01*
X38390D01*
Y131999D01*
X37723Y131332D01*
X41056Y128000D02*
X42388D01*
X41722D01*
Y131999D01*
X41056Y131332D01*
X35000Y118000D02*
Y121999D01*
X36999D01*
X37666Y121332D01*
Y119999D01*
X36999Y119333D01*
X35000D01*
X36333D02*
X37666Y118000D01*
X38999D02*
X40332D01*
X39665D01*
Y121999D01*
X38999Y121332D01*
X42331D02*
X42997Y121999D01*
X44330D01*
X44997Y121332D01*
Y118667D01*
X44330Y118000D01*
X42997D01*
X42331Y118667D01*
Y121332D01*
X73500Y159000D02*
Y162999D01*
X75499D01*
X76166Y162332D01*
Y160999D01*
X75499Y160333D01*
X73500D01*
X74833D02*
X76166Y159000D01*
X77499D02*
X78832D01*
X78165D01*
Y162999D01*
X77499Y162332D01*
X83497Y162999D02*
X82164Y162332D01*
X80831Y160999D01*
Y159667D01*
X81497Y159000D01*
X82830D01*
X83497Y159667D01*
Y160333D01*
X82830Y160999D01*
X80831D01*
X180260Y168885D02*
Y172884D01*
X182259D01*
X182926Y172217D01*
Y170884D01*
X182259Y170218D01*
X180260D01*
X181593D02*
X182926Y168885D01*
X184258D02*
X185591D01*
X184925D01*
Y172884D01*
X184258Y172217D01*
X187591D02*
X188257Y172884D01*
X189590D01*
X190257Y172217D01*
Y171551D01*
X189590Y170884D01*
X190257Y170218D01*
Y169551D01*
X189590Y168885D01*
X188257D01*
X187591Y169551D01*
Y170218D01*
X188257Y170884D01*
X187591Y171551D01*
Y172217D01*
X188257Y170884D02*
X189590D01*
X73769Y149000D02*
Y152999D01*
X75768D01*
X76435Y152332D01*
Y150999D01*
X75768Y150333D01*
X73769D01*
X75102D02*
X76435Y149000D01*
X77768D02*
X79101D01*
X78434D01*
Y152999D01*
X77768Y152332D01*
X83766Y152999D02*
X81100D01*
Y150999D01*
X82433Y151666D01*
X83099D01*
X83766Y150999D01*
Y149667D01*
X83099Y149000D01*
X81766D01*
X81100Y149667D01*
X9000Y256111D02*
X12999D01*
Y254112D01*
X12332Y253445D01*
X10999D01*
X10333Y254112D01*
Y256111D01*
Y254778D02*
X9000Y253445D01*
X9667Y252112D02*
X9000Y251446D01*
Y250113D01*
X9667Y249446D01*
X12332D01*
X12999Y250113D01*
Y251446D01*
X12332Y252112D01*
X11666D01*
X10999Y251446D01*
Y249446D01*
X75000Y88000D02*
Y91999D01*
X76999D01*
X77666Y91332D01*
Y89999D01*
X76999Y89333D01*
X75000D01*
X76333D02*
X77666Y88000D01*
X78999Y91999D02*
X81665D01*
Y91332D01*
X78999Y88666D01*
Y88000D01*
X74000Y178887D02*
Y182886D01*
X75999D01*
X76666Y182220D01*
Y180887D01*
X75999Y180220D01*
X74000D01*
X75333D02*
X76666Y178887D01*
X77999D02*
X79332D01*
X78665D01*
Y182886D01*
X77999Y182220D01*
X81331Y182886D02*
X83997D01*
Y182220D01*
X81331Y179554D01*
Y178887D01*
X34377Y179000D02*
Y182999D01*
X36376D01*
X37043Y182332D01*
Y180999D01*
X36376Y180333D01*
X34377D01*
X35710D02*
X37043Y179000D01*
X38376D02*
X39709D01*
X39042D01*
Y182999D01*
X38376Y182332D01*
X43707Y179000D02*
Y182999D01*
X41708Y180999D01*
X44374D01*
X133615Y173540D02*
X129616D01*
Y175540D01*
X130283Y176206D01*
X131616D01*
X132282Y175540D01*
Y173540D01*
Y174873D02*
X133615Y176206D01*
Y177539D02*
Y178872D01*
Y178205D01*
X129616D01*
X130283Y177539D01*
X25999Y162326D02*
X22000D01*
Y160326D01*
X22667Y159660D01*
X25332D01*
X25999Y160326D01*
Y162326D01*
Y155661D02*
X25332Y156994D01*
X23999Y158327D01*
X22667D01*
X22000Y157660D01*
Y156327D01*
X22667Y155661D01*
X23333D01*
X23999Y156327D01*
Y158327D01*
X42500Y152943D02*
Y148944D01*
X44499D01*
X45166Y149611D01*
Y152276D01*
X44499Y152943D01*
X42500D01*
X49165D02*
X46499D01*
Y150944D01*
X47832Y151610D01*
X48498D01*
X49165Y150944D01*
Y149611D01*
X48498Y148944D01*
X47165D01*
X46499Y149611D01*
X39155Y162999D02*
Y159000D01*
X41155D01*
X41821Y159667D01*
Y162332D01*
X41155Y162999D01*
X39155D01*
X43154Y162332D02*
X43820Y162999D01*
X45153D01*
X45820Y162332D01*
Y161666D01*
X45153Y160999D01*
X44487D01*
X45153D01*
X45820Y160333D01*
Y159667D01*
X45153Y159000D01*
X43820D01*
X43154Y159667D01*
X92499Y201825D02*
X88500D01*
Y199826D01*
X89166Y199160D01*
X91832D01*
X92499Y199826D01*
Y201825D01*
X91832Y197827D02*
X92499Y197160D01*
Y195827D01*
X91832Y195161D01*
X91166D01*
X90499Y195827D01*
X89833Y195161D01*
X89166D01*
X88500Y195827D01*
Y197160D01*
X89166Y197827D01*
X89833D01*
X90499Y197160D01*
X91166Y197827D01*
X91832D01*
X90499Y197160D02*
Y195827D01*
X31166Y26832D02*
X30499Y27499D01*
X29166D01*
X28500Y26832D01*
Y24167D01*
X29166Y23500D01*
X30499D01*
X31166Y24167D01*
X32499Y23500D02*
X33832D01*
X33165D01*
Y27499D01*
X32499Y26832D01*
X38497Y23500D02*
X35831D01*
X38497Y26166D01*
Y26832D01*
X37830Y27499D01*
X36497D01*
X35831Y26832D01*
X32166Y36832D02*
X31499Y37499D01*
X30166D01*
X29500Y36832D01*
Y34166D01*
X30166Y33500D01*
X31499D01*
X32166Y34166D01*
X33499Y33500D02*
X34832D01*
X34165D01*
Y37499D01*
X33499Y36832D01*
X36831Y33500D02*
X38164D01*
X37497D01*
Y37499D01*
X36831Y36832D01*
X187666Y139832D02*
X186999Y140499D01*
X185667D01*
X185000Y139832D01*
Y137167D01*
X185667Y136500D01*
X186999D01*
X187666Y137167D01*
X188999Y136500D02*
X190332D01*
X189665D01*
Y140499D01*
X188999Y139832D01*
X192331Y137167D02*
X192997Y136500D01*
X194330D01*
X194997Y137167D01*
Y139832D01*
X194330Y140499D01*
X192997D01*
X192331Y139832D01*
Y139166D01*
X192997Y138499D01*
X194997D01*
X187345Y129427D02*
X186678Y130093D01*
X185345D01*
X184679Y129427D01*
Y126761D01*
X185345Y126094D01*
X186678D01*
X187345Y126761D01*
X188678Y126094D02*
X190011D01*
X189344D01*
Y130093D01*
X188678Y129427D01*
X192010D02*
X192676Y130093D01*
X194009D01*
X194676Y129427D01*
Y128760D01*
X194009Y128094D01*
X194676Y127427D01*
Y126761D01*
X194009Y126094D01*
X192676D01*
X192010Y126761D01*
Y127427D01*
X192676Y128094D01*
X192010Y128760D01*
Y129427D01*
X192676Y128094D02*
X194009D01*
X76166Y172077D02*
X75499Y172744D01*
X74166D01*
X73500Y172077D01*
Y169411D01*
X74166Y168745D01*
X75499D01*
X76166Y169411D01*
X77499Y168745D02*
X78832D01*
X78165D01*
Y172744D01*
X77499Y172077D01*
X83497Y172744D02*
X80831D01*
Y170744D01*
X82164Y171411D01*
X82830D01*
X83497Y170744D01*
Y169411D01*
X82830Y168745D01*
X81497D01*
X80831Y169411D01*
X77666Y81232D02*
X76999Y81899D01*
X75666D01*
X75000Y81232D01*
Y78566D01*
X75666Y77900D01*
X76999D01*
X77666Y78566D01*
X78999D02*
X79665Y77900D01*
X80998D01*
X81665Y78566D01*
Y81232D01*
X80998Y81899D01*
X79665D01*
X78999Y81232D01*
Y80566D01*
X79665Y79899D01*
X81665D01*
X156578Y167334D02*
X157245Y168001D01*
Y169334D01*
X156578Y170000D01*
X153912D01*
X153246Y169334D01*
Y168001D01*
X153912Y167334D01*
X156578Y166001D02*
X157245Y165335D01*
Y164002D01*
X156578Y163336D01*
X155912D01*
X155245Y164002D01*
Y164668D01*
Y164002D01*
X154579Y163336D01*
X153912D01*
X153246Y164002D01*
Y165335D01*
X153912Y166001D01*
X145332Y186598D02*
X145999Y187264D01*
Y188597D01*
X145332Y189264D01*
X142666D01*
X142000Y188597D01*
Y187264D01*
X142666Y186598D01*
X142000Y182599D02*
Y185265D01*
X144666Y182599D01*
X145332D01*
X145999Y183266D01*
Y184599D01*
X145332Y185265D01*
X200332Y53023D02*
X200999Y53689D01*
Y55022D01*
X200332Y55689D01*
X197667D01*
X197000Y55022D01*
Y53689D01*
X197667Y53023D01*
X200999Y51690D02*
Y49024D01*
X200332D01*
X197667Y51690D01*
X197000D01*
D15*
X80962Y196089D02*
D03*
X24002Y165500D02*
D03*
X90424Y205089D02*
D03*
D16*
X39500Y151000D02*
D03*
X48500Y171000D02*
D03*
X98500Y234500D02*
D03*
X48500Y161000D02*
D03*
D17*
X151169Y258000D02*
D03*
M02*
