G04*
G04 #@! TF.GenerationSoftware,Altium Limited,Altium Designer,19.0.12 (326)*
G04*
G04 Layer_Physical_Order=1*
G04 Layer_Color=255*
%FSLAX25Y25*%
%MOIN*%
G70*
G01*
G75*
%ADD12C,0.01000*%
%ADD39C,0.03200*%
%ADD40C,0.06299*%
%ADD41C,0.04724*%
%ADD42R,0.04724X0.04724*%
%ADD43R,0.04724X0.04724*%
%ADD44C,0.04331*%
%ADD45C,0.05118*%
%ADD46R,0.04331X0.04331*%
%ADD47C,0.05000*%
%ADD48R,0.07087X0.07087*%
%ADD49C,0.07087*%
%ADD50C,0.14765*%
%ADD51C,0.06600*%
%ADD52R,0.06600X0.06600*%
%ADD53C,0.06000*%
%ADD54C,0.08268*%
%ADD55C,0.04725*%
%ADD56R,0.10630X0.10630*%
%ADD57C,0.10630*%
%ADD58R,0.05512X0.05512*%
%ADD59C,0.05512*%
%ADD60C,0.03000*%
G36*
X207936Y367923D02*
X207436Y367823D01*
X207119Y368588D01*
X206328Y369619D01*
X205297Y370410D01*
X204097Y370907D01*
X202809Y371077D01*
X201521Y370907D01*
X200321Y370410D01*
X199290Y369619D01*
X198499Y368588D01*
X198002Y367388D01*
X197832Y366100D01*
X198002Y364812D01*
X198499Y363612D01*
X199290Y362581D01*
X200321Y361790D01*
X201521Y361293D01*
X202809Y361123D01*
X204097Y361293D01*
X205297Y361790D01*
X206328Y362581D01*
X207119Y363612D01*
X207436Y364377D01*
X207936Y364277D01*
Y359000D01*
X208052Y358415D01*
X208384Y357919D01*
X208880Y357587D01*
X209465Y357471D01*
X230971D01*
Y1529D01*
X1529D01*
Y357471D01*
X23030D01*
X23615Y357587D01*
X24111Y357919D01*
X24443Y358415D01*
X24559Y359000D01*
Y364987D01*
X25059Y365020D01*
X25080Y364864D01*
X25557Y363713D01*
X26316Y362724D01*
X27305Y361965D01*
X28456Y361488D01*
X29292Y361378D01*
Y366100D01*
Y370822D01*
X28456Y370712D01*
X27305Y370235D01*
X26316Y369476D01*
X25557Y368487D01*
X25080Y367336D01*
X25059Y367180D01*
X24559Y367213D01*
Y384971D01*
X207936D01*
Y367923D01*
D02*
G37*
%LPC*%
G36*
X139311Y370822D02*
Y366500D01*
X143633D01*
X143523Y367336D01*
X143046Y368487D01*
X142287Y369476D01*
X141298Y370235D01*
X140147Y370712D01*
X139311Y370822D01*
D02*
G37*
G36*
X30092D02*
Y366500D01*
X34414D01*
X34304Y367336D01*
X33827Y368487D01*
X33068Y369476D01*
X32079Y370235D01*
X30928Y370712D01*
X30092Y370822D01*
D02*
G37*
G36*
X138511D02*
X137675Y370712D01*
X136524Y370235D01*
X135535Y369476D01*
X134776Y368487D01*
X134299Y367336D01*
X134189Y366500D01*
X138511D01*
Y370822D01*
D02*
G37*
G36*
X143633Y365700D02*
X139311D01*
Y361378D01*
X140147Y361488D01*
X141298Y361965D01*
X142287Y362724D01*
X143046Y363713D01*
X143523Y364864D01*
X143633Y365700D01*
D02*
G37*
G36*
X34414D02*
X30092D01*
Y361378D01*
X30928Y361488D01*
X32079Y361965D01*
X33068Y362724D01*
X33827Y363713D01*
X34304Y364864D01*
X34414Y365700D01*
D02*
G37*
G36*
X138511D02*
X134189D01*
X134299Y364864D01*
X134776Y363713D01*
X135535Y362724D01*
X136524Y361965D01*
X137675Y361488D01*
X138511Y361378D01*
Y365700D01*
D02*
G37*
G36*
X93590Y371077D02*
X92302Y370907D01*
X91102Y370410D01*
X90071Y369619D01*
X89280Y368588D01*
X88783Y367388D01*
X88613Y366100D01*
X88783Y364812D01*
X89280Y363612D01*
X90071Y362581D01*
X91102Y361790D01*
X92302Y361293D01*
X93590Y361123D01*
X94878Y361293D01*
X96078Y361790D01*
X97109Y362581D01*
X97900Y363612D01*
X98397Y364812D01*
X98567Y366100D01*
X98397Y367388D01*
X97900Y368588D01*
X97109Y369619D01*
X96078Y370410D01*
X94878Y370907D01*
X93590Y371077D01*
D02*
G37*
G36*
X202809Y346077D02*
X201521Y345907D01*
X200321Y345410D01*
X199290Y344619D01*
X198499Y343588D01*
X198002Y342388D01*
X197832Y341100D01*
X198002Y339812D01*
X198499Y338612D01*
X199290Y337581D01*
X200321Y336790D01*
X201521Y336293D01*
X202809Y336123D01*
X204097Y336293D01*
X205297Y336790D01*
X206328Y337581D01*
X207119Y338612D01*
X207616Y339812D01*
X207786Y341100D01*
X207616Y342388D01*
X207119Y343588D01*
X206328Y344619D01*
X205297Y345410D01*
X204097Y345907D01*
X202809Y346077D01*
D02*
G37*
G36*
X138911D02*
X137623Y345907D01*
X136423Y345410D01*
X135392Y344619D01*
X134601Y343588D01*
X134104Y342388D01*
X133934Y341100D01*
X134104Y339812D01*
X134601Y338612D01*
X135392Y337581D01*
X136423Y336790D01*
X137623Y336293D01*
X138911Y336123D01*
X140199Y336293D01*
X141399Y336790D01*
X142430Y337581D01*
X143221Y338612D01*
X143718Y339812D01*
X143888Y341100D01*
X143718Y342388D01*
X143221Y343588D01*
X142430Y344619D01*
X141399Y345410D01*
X140199Y345907D01*
X138911Y346077D01*
D02*
G37*
G36*
X93590D02*
X92302Y345907D01*
X91102Y345410D01*
X90071Y344619D01*
X89280Y343588D01*
X88783Y342388D01*
X88613Y341100D01*
X88783Y339812D01*
X89280Y338612D01*
X90071Y337581D01*
X91102Y336790D01*
X92302Y336293D01*
X93590Y336123D01*
X94878Y336293D01*
X96078Y336790D01*
X97109Y337581D01*
X97900Y338612D01*
X98397Y339812D01*
X98567Y341100D01*
X98397Y342388D01*
X97900Y343588D01*
X97109Y344619D01*
X96078Y345410D01*
X94878Y345907D01*
X93590Y346077D01*
D02*
G37*
G36*
X29692D02*
X28404Y345907D01*
X27204Y345410D01*
X26173Y344619D01*
X25382Y343588D01*
X24885Y342388D01*
X24715Y341100D01*
X24885Y339812D01*
X25382Y338612D01*
X26173Y337581D01*
X27204Y336790D01*
X28404Y336293D01*
X29692Y336123D01*
X30980Y336293D01*
X32180Y336790D01*
X33211Y337581D01*
X34002Y338612D01*
X34499Y339812D01*
X34669Y341100D01*
X34499Y342388D01*
X34002Y343588D01*
X33211Y344619D01*
X32180Y345410D01*
X30980Y345907D01*
X29692Y346077D01*
D02*
G37*
G36*
X116650Y340260D02*
Y332678D01*
X124232D01*
X124117Y333843D01*
X123660Y335347D01*
X122919Y336734D01*
X121922Y337950D01*
X120706Y338947D01*
X119319Y339688D01*
X117815Y340145D01*
X116650Y340260D01*
D02*
G37*
G36*
X115850D02*
X114685Y340145D01*
X113180Y339688D01*
X111794Y338947D01*
X110578Y337950D01*
X109581Y336734D01*
X108840Y335347D01*
X108383Y333843D01*
X108268Y332678D01*
X115850D01*
Y340260D01*
D02*
G37*
G36*
X124232Y331878D02*
X116650D01*
Y324296D01*
X117815Y324411D01*
X119319Y324868D01*
X120706Y325609D01*
X121922Y326606D01*
X122919Y327822D01*
X123660Y329209D01*
X124117Y330713D01*
X124232Y331878D01*
D02*
G37*
G36*
X115850D02*
X108268D01*
X108383Y330713D01*
X108840Y329209D01*
X109581Y327822D01*
X110578Y326606D01*
X111794Y325609D01*
X113180Y324868D01*
X114685Y324411D01*
X115850Y324296D01*
Y331878D01*
D02*
G37*
G36*
X202809Y321077D02*
X201521Y320907D01*
X200321Y320410D01*
X199290Y319619D01*
X198499Y318588D01*
X198002Y317388D01*
X197832Y316100D01*
X198002Y314812D01*
X198499Y313612D01*
X199290Y312581D01*
X200321Y311790D01*
X201521Y311293D01*
X202809Y311123D01*
X204097Y311293D01*
X205297Y311790D01*
X206328Y312581D01*
X207119Y313612D01*
X207616Y314812D01*
X207786Y316100D01*
X207616Y317388D01*
X207119Y318588D01*
X206328Y319619D01*
X205297Y320410D01*
X204097Y320907D01*
X202809Y321077D01*
D02*
G37*
G36*
X138911D02*
X137623Y320907D01*
X136423Y320410D01*
X135392Y319619D01*
X134601Y318588D01*
X134104Y317388D01*
X133934Y316100D01*
X134104Y314812D01*
X134601Y313612D01*
X135392Y312581D01*
X136423Y311790D01*
X137623Y311293D01*
X138911Y311123D01*
X140199Y311293D01*
X141399Y311790D01*
X142430Y312581D01*
X143221Y313612D01*
X143718Y314812D01*
X143888Y316100D01*
X143718Y317388D01*
X143221Y318588D01*
X142430Y319619D01*
X141399Y320410D01*
X140199Y320907D01*
X138911Y321077D01*
D02*
G37*
G36*
X93590D02*
X92302Y320907D01*
X91102Y320410D01*
X90071Y319619D01*
X89280Y318588D01*
X88783Y317388D01*
X88613Y316100D01*
X88783Y314812D01*
X89280Y313612D01*
X90071Y312581D01*
X91102Y311790D01*
X92302Y311293D01*
X93590Y311123D01*
X94878Y311293D01*
X96078Y311790D01*
X97109Y312581D01*
X97900Y313612D01*
X98397Y314812D01*
X98567Y316100D01*
X98397Y317388D01*
X97900Y318588D01*
X97109Y319619D01*
X96078Y320410D01*
X94878Y320907D01*
X93590Y321077D01*
D02*
G37*
G36*
X125400Y298574D02*
Y295900D01*
X128074D01*
X128020Y296309D01*
X127708Y297063D01*
X127211Y297711D01*
X126563Y298208D01*
X125809Y298520D01*
X125400Y298574D01*
D02*
G37*
G36*
X124600D02*
X124191Y298520D01*
X123437Y298208D01*
X122789Y297711D01*
X122292Y297063D01*
X121980Y296309D01*
X121926Y295900D01*
X124600D01*
Y298574D01*
D02*
G37*
G36*
X128074Y295100D02*
X125400D01*
Y292426D01*
X125809Y292480D01*
X126563Y292792D01*
X127211Y293289D01*
X127708Y293937D01*
X128020Y294691D01*
X128074Y295100D01*
D02*
G37*
G36*
X124600D02*
X121926D01*
X121980Y294691D01*
X122292Y293937D01*
X122789Y293289D01*
X123437Y292792D01*
X124191Y292480D01*
X124600Y292426D01*
Y295100D01*
D02*
G37*
G36*
X104000Y288556D02*
X103174Y288447D01*
X102405Y288129D01*
X101744Y287622D01*
X101238Y286961D01*
X100919Y286192D01*
X100810Y285366D01*
X100919Y284541D01*
X101238Y283771D01*
X101744Y283111D01*
X102405Y282604D01*
X103174Y282285D01*
X104000Y282176D01*
X104826Y282285D01*
X105595Y282604D01*
X106255Y283111D01*
X106762Y283771D01*
X107081Y284541D01*
X107190Y285366D01*
X107081Y286192D01*
X106762Y286961D01*
X106255Y287622D01*
X105595Y288129D01*
X104826Y288447D01*
X104000Y288556D01*
D02*
G37*
G36*
X84000D02*
X83174Y288447D01*
X82405Y288129D01*
X81744Y287622D01*
X81238Y286961D01*
X80919Y286192D01*
X80810Y285366D01*
X80919Y284541D01*
X81238Y283771D01*
X81744Y283111D01*
X82405Y282604D01*
X83174Y282285D01*
X84000Y282176D01*
X84826Y282285D01*
X85595Y282604D01*
X86256Y283111D01*
X86762Y283771D01*
X87081Y284541D01*
X87190Y285366D01*
X87081Y286192D01*
X86762Y286961D01*
X86256Y287622D01*
X85595Y288129D01*
X84826Y288447D01*
X84000Y288556D01*
D02*
G37*
G36*
X115000Y298829D02*
X114138Y298715D01*
X113336Y298382D01*
X112646Y297854D01*
X112118Y297164D01*
X111785Y296361D01*
X111671Y295500D01*
X111785Y294638D01*
X112118Y293836D01*
X112646Y293146D01*
X113336Y292618D01*
X113674Y292477D01*
Y286915D01*
X105095Y278336D01*
X104826Y278447D01*
X104000Y278556D01*
X103174Y278447D01*
X102405Y278129D01*
X101744Y277622D01*
X101238Y276961D01*
X100919Y276192D01*
X100810Y275366D01*
X100919Y274540D01*
X101238Y273771D01*
X101744Y273111D01*
X102405Y272604D01*
X103174Y272285D01*
X104000Y272176D01*
X104826Y272285D01*
X105595Y272604D01*
X106255Y273111D01*
X106762Y273771D01*
X107081Y274540D01*
X107190Y275366D01*
X107081Y276192D01*
X106969Y276461D01*
X115937Y285429D01*
X116225Y285859D01*
X116325Y286366D01*
Y292477D01*
X116664Y292618D01*
X117354Y293146D01*
X117883Y293836D01*
X118215Y294638D01*
X118328Y295500D01*
X118215Y296361D01*
X117883Y297164D01*
X117354Y297854D01*
X116664Y298382D01*
X115861Y298715D01*
X115000Y298829D01*
D02*
G37*
G36*
X29692Y321077D02*
X28404Y320907D01*
X27204Y320410D01*
X26173Y319619D01*
X25382Y318588D01*
X24885Y317388D01*
X24715Y316100D01*
X24885Y314812D01*
X25382Y313612D01*
X26173Y312581D01*
X27204Y311790D01*
X28404Y311293D01*
X29692Y311123D01*
X30980Y311293D01*
X32180Y311790D01*
X33211Y312581D01*
X34002Y313612D01*
X34484Y314774D01*
X37217D01*
X77563Y274429D01*
X77993Y274142D01*
X78500Y274041D01*
X81126D01*
X81238Y273771D01*
X81744Y273111D01*
X82405Y272604D01*
X83174Y272285D01*
X84000Y272176D01*
X84826Y272285D01*
X85595Y272604D01*
X86256Y273111D01*
X86762Y273771D01*
X87081Y274540D01*
X87190Y275366D01*
X87081Y276192D01*
X86762Y276961D01*
X86256Y277622D01*
X85595Y278129D01*
X84826Y278447D01*
X84000Y278556D01*
X83174Y278447D01*
X82405Y278129D01*
X81744Y277622D01*
X81238Y276961D01*
X81126Y276692D01*
X79049D01*
X38703Y317037D01*
X38273Y317325D01*
X37766Y317425D01*
X34484D01*
X34002Y318588D01*
X33211Y319619D01*
X32180Y320410D01*
X30980Y320907D01*
X29692Y321077D01*
D02*
G37*
G36*
X213143Y273643D02*
X209400D01*
Y269900D01*
X213143D01*
Y273643D01*
D02*
G37*
G36*
X208600D02*
X204856D01*
Y269900D01*
X208600D01*
Y273643D01*
D02*
G37*
G36*
X125400Y268574D02*
Y265900D01*
X128074D01*
X128020Y266309D01*
X127708Y267063D01*
X127211Y267711D01*
X126563Y268208D01*
X125809Y268520D01*
X125400Y268574D01*
D02*
G37*
G36*
X124600D02*
X124191Y268520D01*
X123437Y268208D01*
X122789Y267711D01*
X122292Y267063D01*
X121980Y266309D01*
X121926Y265900D01*
X124600D01*
Y268574D01*
D02*
G37*
G36*
X213143Y269100D02*
X209400D01*
Y265356D01*
X213143D01*
Y269100D01*
D02*
G37*
G36*
X208600D02*
X204856D01*
Y265356D01*
X208600D01*
Y269100D01*
D02*
G37*
G36*
X67844Y273844D02*
X59157D01*
Y265157D01*
X67844D01*
Y273844D01*
D02*
G37*
G36*
X189000Y273881D02*
X187866Y273732D01*
X186810Y273294D01*
X185902Y272598D01*
X185206Y271691D01*
X184768Y270634D01*
X184619Y269500D01*
X184768Y268366D01*
X185206Y267309D01*
X185902Y266402D01*
X186810Y265706D01*
X187866Y265268D01*
X189000Y265119D01*
X190134Y265268D01*
X191191Y265706D01*
X192098Y266402D01*
X192794Y267309D01*
X193232Y268366D01*
X193381Y269500D01*
X193232Y270634D01*
X192794Y271691D01*
X192098Y272598D01*
X191191Y273294D01*
X190134Y273732D01*
X189000Y273881D01*
D02*
G37*
G36*
X169000D02*
X167866Y273732D01*
X166809Y273294D01*
X165902Y272598D01*
X165206Y271691D01*
X164768Y270634D01*
X164619Y269500D01*
X164768Y268366D01*
X165206Y267309D01*
X165902Y266402D01*
X166809Y265706D01*
X167866Y265268D01*
X169000Y265119D01*
X170134Y265268D01*
X171191Y265706D01*
X172098Y266402D01*
X172794Y267309D01*
X173232Y268366D01*
X173381Y269500D01*
X173232Y270634D01*
X172794Y271691D01*
X172098Y272598D01*
X171191Y273294D01*
X170134Y273732D01*
X169000Y273881D01*
D02*
G37*
G36*
X43500D02*
X42366Y273732D01*
X41309Y273294D01*
X40402Y272598D01*
X39706Y271691D01*
X39268Y270634D01*
X39119Y269500D01*
X39268Y268366D01*
X39627Y267501D01*
X33563Y261437D01*
X33275Y261007D01*
X33174Y260500D01*
Y189500D01*
X33275Y188993D01*
X33563Y188563D01*
X43930Y178196D01*
Y148745D01*
X44031Y148238D01*
X44318Y147808D01*
X50380Y141745D01*
X50227Y141377D01*
X50112Y140500D01*
X50227Y139623D01*
X50566Y138806D01*
X51104Y138104D01*
X51806Y137566D01*
X52623Y137227D01*
X53500Y137112D01*
X54377Y137227D01*
X55194Y137566D01*
X55896Y138104D01*
X56434Y138806D01*
X56773Y139623D01*
X56888Y140500D01*
X56773Y141377D01*
X56434Y142194D01*
X55896Y142896D01*
X55194Y143434D01*
X54377Y143772D01*
X53500Y143888D01*
X52623Y143772D01*
X52255Y143620D01*
X46581Y149294D01*
Y178745D01*
X46480Y179252D01*
X46192Y179682D01*
X35825Y190049D01*
Y259951D01*
X41501Y265627D01*
X42366Y265268D01*
X43500Y265119D01*
X44634Y265268D01*
X45691Y265706D01*
X46598Y266402D01*
X47294Y267309D01*
X47732Y268366D01*
X47881Y269500D01*
X47732Y270634D01*
X47294Y271691D01*
X46598Y272598D01*
X45691Y273294D01*
X44634Y273732D01*
X43500Y273881D01*
D02*
G37*
G36*
X23500D02*
X22366Y273732D01*
X21309Y273294D01*
X20402Y272598D01*
X19706Y271691D01*
X19268Y270634D01*
X19119Y269500D01*
X19268Y268366D01*
X19706Y267309D01*
X20402Y266402D01*
X21309Y265706D01*
X22366Y265268D01*
X23500Y265119D01*
X24634Y265268D01*
X25690Y265706D01*
X26598Y266402D01*
X27294Y267309D01*
X27732Y268366D01*
X27881Y269500D01*
X27732Y270634D01*
X27294Y271691D01*
X26598Y272598D01*
X25690Y273294D01*
X24634Y273732D01*
X23500Y273881D01*
D02*
G37*
G36*
X11000Y270613D02*
X10226Y270511D01*
X9505Y270212D01*
X8885Y269737D01*
X8410Y269117D01*
X8111Y268396D01*
X8009Y267622D01*
X8111Y266847D01*
X8410Y266126D01*
X8885Y265507D01*
X9505Y265031D01*
X10226Y264733D01*
X11000Y264631D01*
X11774Y264733D01*
X12495Y265031D01*
X13115Y265507D01*
X13590Y266126D01*
X13889Y266847D01*
X13991Y267622D01*
X13889Y268396D01*
X13590Y269117D01*
X13115Y269737D01*
X12495Y270212D01*
X11774Y270511D01*
X11000Y270613D01*
D02*
G37*
G36*
X128074Y265100D02*
X125400D01*
Y262426D01*
X125809Y262480D01*
X126563Y262792D01*
X127211Y263289D01*
X127708Y263937D01*
X128020Y264691D01*
X128074Y265100D01*
D02*
G37*
G36*
X124600D02*
X121926D01*
X121980Y264691D01*
X122292Y263937D01*
X122789Y263289D01*
X123437Y262792D01*
X124191Y262480D01*
X124600Y262426D01*
Y265100D01*
D02*
G37*
G36*
X104000Y268556D02*
X103174Y268447D01*
X102405Y268129D01*
X101744Y267622D01*
X101238Y266961D01*
X100919Y266192D01*
X100810Y265366D01*
X100919Y264541D01*
X101238Y263771D01*
X101744Y263111D01*
X102405Y262604D01*
X103174Y262285D01*
X104000Y262176D01*
X104826Y262285D01*
X105595Y262604D01*
X106255Y263111D01*
X106762Y263771D01*
X107081Y264541D01*
X107190Y265366D01*
X107081Y266192D01*
X106762Y266961D01*
X106255Y267622D01*
X105595Y268129D01*
X104826Y268447D01*
X104000Y268556D01*
D02*
G37*
G36*
X84000D02*
X83174Y268447D01*
X82405Y268129D01*
X81744Y267622D01*
X81238Y266961D01*
X80919Y266192D01*
X80810Y265366D01*
X80919Y264541D01*
X81238Y263771D01*
X81744Y263111D01*
X82405Y262604D01*
X83174Y262285D01*
X84000Y262176D01*
X84826Y262285D01*
X85595Y262604D01*
X86256Y263111D01*
X86762Y263771D01*
X87081Y264541D01*
X87190Y265366D01*
X87081Y266192D01*
X86762Y266961D01*
X86256Y267622D01*
X85595Y268129D01*
X84826Y268447D01*
X84000Y268556D01*
D02*
G37*
G36*
X115000Y268829D02*
X114138Y268715D01*
X113336Y268383D01*
X112646Y267854D01*
X112118Y267164D01*
X111785Y266361D01*
X111671Y265500D01*
X111785Y264638D01*
X112118Y263836D01*
X112646Y263146D01*
X113336Y262617D01*
X114138Y262285D01*
X115000Y262172D01*
X115861Y262285D01*
X116664Y262617D01*
X117354Y263146D01*
X117883Y263836D01*
X118215Y264638D01*
X118328Y265500D01*
X118215Y266361D01*
X117883Y267164D01*
X117354Y267854D01*
X116664Y268383D01*
X115861Y268715D01*
X115000Y268829D01*
D02*
G37*
G36*
X172419Y261332D02*
Y258400D01*
X175351D01*
X175289Y258876D01*
X174951Y259693D01*
X174413Y260394D01*
X173712Y260931D01*
X172895Y261270D01*
X172419Y261332D01*
D02*
G37*
G36*
X171619D02*
X171143Y261270D01*
X170326Y260931D01*
X169625Y260394D01*
X169088Y259693D01*
X168749Y258876D01*
X168687Y258400D01*
X171619D01*
Y261332D01*
D02*
G37*
G36*
X52504Y261991D02*
X51730Y261889D01*
X51009Y261590D01*
X50389Y261115D01*
X49914Y260495D01*
X49615Y259774D01*
X49513Y259000D01*
X49615Y258226D01*
X49914Y257505D01*
X50389Y256885D01*
X51009Y256410D01*
X51730Y256111D01*
X52504Y256009D01*
X53279Y256111D01*
X54000Y256410D01*
X54619Y256885D01*
X55095Y257505D01*
X55394Y258226D01*
X55496Y259000D01*
X55394Y259774D01*
X55095Y260495D01*
X54619Y261115D01*
X54000Y261590D01*
X53279Y261889D01*
X52504Y261991D01*
D02*
G37*
G36*
X22504D02*
X21730Y261889D01*
X21009Y261590D01*
X20389Y261115D01*
X19914Y260495D01*
X19615Y259774D01*
X19513Y259000D01*
X19615Y258226D01*
X19914Y257505D01*
X20389Y256885D01*
X21009Y256410D01*
X21730Y256111D01*
X22504Y256009D01*
X23279Y256111D01*
X24000Y256410D01*
X24620Y256885D01*
X25095Y257505D01*
X25394Y258226D01*
X25496Y259000D01*
X25394Y259774D01*
X25095Y260495D01*
X24620Y261115D01*
X24000Y261590D01*
X23279Y261889D01*
X22504Y261991D01*
D02*
G37*
G36*
X211100Y261689D02*
X210275Y261581D01*
X209505Y261262D01*
X208845Y260755D01*
X208338Y260095D01*
X208019Y259326D01*
X207911Y258500D01*
X208019Y257675D01*
X208338Y256905D01*
X208845Y256245D01*
X209505Y255738D01*
X210275Y255419D01*
X211100Y255311D01*
X211926Y255419D01*
X212695Y255738D01*
X213355Y256245D01*
X213862Y256905D01*
X214181Y257675D01*
X214289Y258500D01*
X214181Y259326D01*
X213862Y260095D01*
X213355Y260755D01*
X212695Y261262D01*
X211926Y261581D01*
X211100Y261689D01*
D02*
G37*
G36*
X175351Y257600D02*
X172419D01*
Y254668D01*
X172895Y254730D01*
X173712Y255068D01*
X174413Y255607D01*
X174951Y256308D01*
X175289Y257124D01*
X175351Y257600D01*
D02*
G37*
G36*
X171619D02*
X168687D01*
X168749Y257124D01*
X169088Y256308D01*
X169625Y255607D01*
X170326Y255068D01*
X171143Y254730D01*
X171619Y254668D01*
Y257600D01*
D02*
G37*
G36*
X134432Y252934D02*
Y250200D01*
X137165D01*
X137109Y250625D01*
X136791Y251393D01*
X136285Y252053D01*
X135625Y252559D01*
X134856Y252878D01*
X134432Y252934D01*
D02*
G37*
G36*
X133632D02*
X133207Y252878D01*
X132439Y252559D01*
X131779Y252053D01*
X131272Y251393D01*
X130954Y250625D01*
X130898Y250200D01*
X133632D01*
Y252934D01*
D02*
G37*
G36*
X137165Y249400D02*
X134432D01*
Y246666D01*
X134856Y246722D01*
X135625Y247041D01*
X136285Y247547D01*
X136791Y248207D01*
X137109Y248975D01*
X137165Y249400D01*
D02*
G37*
G36*
X133632D02*
X130898D01*
X130954Y248975D01*
X131272Y248207D01*
X131779Y247547D01*
X132439Y247041D01*
X133207Y246722D01*
X133632Y246666D01*
Y249400D01*
D02*
G37*
G36*
X114032Y253188D02*
X113155Y253073D01*
X112338Y252734D01*
X111636Y252196D01*
X111098Y251494D01*
X110759Y250677D01*
X110644Y249800D01*
X110759Y248923D01*
X111098Y248106D01*
X111636Y247404D01*
X112338Y246866D01*
X113155Y246528D01*
X114032Y246412D01*
X114909Y246528D01*
X115726Y246866D01*
X116427Y247404D01*
X116966Y248106D01*
X117304Y248923D01*
X117420Y249800D01*
X117304Y250677D01*
X116966Y251494D01*
X116427Y252196D01*
X115726Y252734D01*
X114909Y253073D01*
X114032Y253188D01*
D02*
G37*
G36*
X185900Y248237D02*
Y245900D01*
X188237D01*
X188194Y246222D01*
X187916Y246895D01*
X187472Y247472D01*
X186895Y247916D01*
X186222Y248194D01*
X185900Y248237D01*
D02*
G37*
G36*
X175900D02*
Y245900D01*
X178237D01*
X178194Y246222D01*
X177916Y246895D01*
X177472Y247472D01*
X176895Y247916D01*
X176222Y248194D01*
X175900Y248237D01*
D02*
G37*
G36*
X185100D02*
X184778Y248194D01*
X184105Y247916D01*
X183528Y247472D01*
X183084Y246895D01*
X182806Y246222D01*
X182763Y245900D01*
X185100D01*
Y248237D01*
D02*
G37*
G36*
X175100D02*
X174778Y248194D01*
X174105Y247916D01*
X173528Y247472D01*
X173084Y246895D01*
X172806Y246222D01*
X172763Y245900D01*
X175100D01*
Y248237D01*
D02*
G37*
G36*
X178237Y245100D02*
X175900D01*
Y242763D01*
X176222Y242806D01*
X176895Y243084D01*
X177472Y243528D01*
X177916Y244105D01*
X178194Y244778D01*
X178237Y245100D01*
D02*
G37*
G36*
X188237D02*
X185900D01*
Y242763D01*
X186222Y242806D01*
X186895Y243084D01*
X187472Y243528D01*
X187916Y244105D01*
X188194Y244778D01*
X188237Y245100D01*
D02*
G37*
G36*
X185100D02*
X182763D01*
X182806Y244778D01*
X183084Y244105D01*
X183528Y243528D01*
X184105Y243084D01*
X184778Y242806D01*
X185100Y242763D01*
Y245100D01*
D02*
G37*
G36*
X175100D02*
X172763D01*
X172806Y244778D01*
X173084Y244105D01*
X173528Y243528D01*
X174105Y243084D01*
X174778Y242806D01*
X175100Y242763D01*
Y245100D01*
D02*
G37*
G36*
X195189Y248491D02*
X194415Y248389D01*
X193693Y248090D01*
X193074Y247615D01*
X192599Y246995D01*
X192300Y246274D01*
X192198Y245500D01*
X192300Y244726D01*
X192599Y244005D01*
X193074Y243385D01*
X193693Y242910D01*
X194415Y242611D01*
X195189Y242509D01*
X195963Y242611D01*
X196685Y242910D01*
X197304Y243385D01*
X197779Y244005D01*
X198078Y244726D01*
X198180Y245500D01*
X198078Y246274D01*
X197779Y246995D01*
X197304Y247615D01*
X196685Y248090D01*
X195963Y248389D01*
X195189Y248491D01*
D02*
G37*
G36*
X104000Y248556D02*
X103174Y248447D01*
X102405Y248129D01*
X101744Y247622D01*
X101238Y246961D01*
X100919Y246192D01*
X100810Y245366D01*
X100919Y244541D01*
X101238Y243771D01*
X101744Y243111D01*
X102405Y242604D01*
X103174Y242285D01*
X104000Y242176D01*
X104826Y242285D01*
X105595Y242604D01*
X106255Y243111D01*
X106762Y243771D01*
X107081Y244541D01*
X107190Y245366D01*
X107081Y246192D01*
X106762Y246961D01*
X106255Y247622D01*
X105595Y248129D01*
X104826Y248447D01*
X104000Y248556D01*
D02*
G37*
G36*
X84000D02*
X83174Y248447D01*
X82405Y248129D01*
X81744Y247622D01*
X81238Y246961D01*
X80919Y246192D01*
X80810Y245366D01*
X80919Y244541D01*
X81238Y243771D01*
X81744Y243111D01*
X82405Y242604D01*
X83174Y242285D01*
X84000Y242176D01*
X84826Y242285D01*
X85595Y242604D01*
X86256Y243111D01*
X86762Y243771D01*
X87081Y244541D01*
X87190Y245366D01*
X87081Y246192D01*
X86762Y246961D01*
X86256Y247622D01*
X85595Y248129D01*
X84826Y248447D01*
X84000Y248556D01*
D02*
G37*
G36*
X52473Y248984D02*
X51442Y248848D01*
X50482Y248450D01*
X49657Y247817D01*
X49024Y246992D01*
X48626Y246031D01*
X48490Y245000D01*
X48626Y243969D01*
X49024Y243008D01*
X49657Y242183D01*
X50482Y241550D01*
X51442Y241152D01*
X52473Y241016D01*
X53505Y241152D01*
X54465Y241550D01*
X55290Y242183D01*
X55923Y243008D01*
X56321Y243969D01*
X56457Y245000D01*
X56321Y246031D01*
X55923Y246992D01*
X55290Y247817D01*
X54465Y248450D01*
X53505Y248848D01*
X52473Y248984D01*
D02*
G37*
G36*
X22474D02*
X21442Y248848D01*
X20482Y248450D01*
X19657Y247817D01*
X19024Y246992D01*
X18626Y246031D01*
X18490Y245000D01*
X18626Y243969D01*
X19024Y243008D01*
X19657Y242183D01*
X20482Y241550D01*
X21442Y241152D01*
X22474Y241016D01*
X23505Y241152D01*
X24465Y241550D01*
X25290Y242183D01*
X25923Y243008D01*
X26321Y243969D01*
X26457Y245000D01*
X26321Y246031D01*
X25923Y246992D01*
X25290Y247817D01*
X24465Y248450D01*
X23505Y248848D01*
X22474Y248984D01*
D02*
G37*
G36*
X116250Y364122D02*
X114646Y363964D01*
X113104Y363496D01*
X111682Y362736D01*
X110436Y361714D01*
X109414Y360468D01*
X108654Y359046D01*
X108186Y357504D01*
X108028Y355900D01*
X108186Y354296D01*
X108654Y352754D01*
X109414Y351332D01*
X110436Y350086D01*
X111682Y349064D01*
X113104Y348304D01*
X114646Y347836D01*
X116250Y347678D01*
X117854Y347836D01*
X119396Y348304D01*
X120818Y349064D01*
X122064Y350086D01*
X123086Y351332D01*
X123846Y352754D01*
X124058Y353453D01*
X124586D01*
X126553Y351486D01*
Y308519D01*
X126739Y307583D01*
X127270Y306789D01*
X141572Y292486D01*
Y261556D01*
X140463D01*
Y254444D01*
X141572D01*
Y237662D01*
X140857D01*
Y236947D01*
X136005D01*
X135595Y237262D01*
X134826Y237581D01*
X134000Y237689D01*
X133175Y237581D01*
X132405Y237262D01*
X131745Y236755D01*
X131238Y236095D01*
X130919Y235326D01*
X130811Y234500D01*
X130919Y233675D01*
X131238Y232905D01*
X131745Y232245D01*
X132405Y231738D01*
X133175Y231419D01*
X134000Y231311D01*
X134826Y231419D01*
X135595Y231738D01*
X136005Y232053D01*
X140857D01*
Y231338D01*
X141572D01*
Y207104D01*
X138270Y203801D01*
X137739Y203008D01*
X137553Y202071D01*
Y163447D01*
X133182D01*
X132995Y163590D01*
X132274Y163889D01*
X131500Y163991D01*
X130726Y163889D01*
X130005Y163590D01*
X129385Y163115D01*
X128910Y162496D01*
X128611Y161774D01*
X128509Y161000D01*
X128611Y160226D01*
X128910Y159504D01*
X129385Y158885D01*
X130005Y158410D01*
X130726Y158111D01*
X131500Y158009D01*
X132274Y158111D01*
X132995Y158410D01*
X133182Y158553D01*
X137553D01*
Y151500D01*
X137739Y150564D01*
X138270Y149770D01*
X173053Y114986D01*
Y87400D01*
X173239Y86463D01*
X173770Y85669D01*
X183038Y76401D01*
X183832Y75871D01*
X184768Y75684D01*
X186734D01*
Y75166D01*
X192666D01*
Y81097D01*
X186734D01*
Y80579D01*
X185782D01*
X177947Y88413D01*
Y116000D01*
X177761Y116936D01*
X177230Y117730D01*
X142447Y152514D01*
Y161000D01*
Y201058D01*
X145749Y204360D01*
X146280Y205154D01*
X146466Y206090D01*
Y231338D01*
X147181D01*
Y237662D01*
X146466D01*
Y254444D01*
X147575D01*
Y261556D01*
X146466D01*
Y293500D01*
X146280Y294436D01*
X145749Y295230D01*
X131447Y309533D01*
Y352500D01*
X131261Y353436D01*
X130730Y354230D01*
X127330Y357630D01*
X126536Y358161D01*
X125600Y358347D01*
X124058D01*
X123846Y359046D01*
X123086Y360468D01*
X122064Y361714D01*
X120818Y362736D01*
X119396Y363496D01*
X117854Y363964D01*
X116250Y364122D01*
D02*
G37*
G36*
X154419Y237435D02*
Y234900D01*
X156954D01*
X156905Y235273D01*
X156606Y235994D01*
X156131Y236613D01*
X155513Y237087D01*
X154792Y237386D01*
X154419Y237435D01*
D02*
G37*
G36*
X153619D02*
X153246Y237386D01*
X152525Y237087D01*
X151907Y236613D01*
X151432Y235994D01*
X151133Y235273D01*
X151084Y234900D01*
X153619D01*
Y237435D01*
D02*
G37*
G36*
X124400D02*
Y234900D01*
X126935D01*
X126886Y235273D01*
X126587Y235994D01*
X126112Y236613D01*
X125494Y237087D01*
X124773Y237386D01*
X124400Y237435D01*
D02*
G37*
G36*
X123600D02*
X123227Y237386D01*
X122506Y237087D01*
X121888Y236613D01*
X121413Y235994D01*
X121114Y235273D01*
X121065Y234900D01*
X123600D01*
Y237435D01*
D02*
G37*
G36*
X11000Y240613D02*
X10226Y240511D01*
X9505Y240212D01*
X8885Y239737D01*
X8410Y239117D01*
X8111Y238396D01*
X8009Y237622D01*
X8111Y236847D01*
X8410Y236126D01*
X8885Y235507D01*
X9505Y235031D01*
X10226Y234733D01*
X11000Y234630D01*
X11774Y234733D01*
X12495Y235031D01*
X13115Y235507D01*
X13590Y236126D01*
X13889Y236847D01*
X13991Y237622D01*
X13889Y238396D01*
X13590Y239117D01*
X13115Y239737D01*
X12495Y240212D01*
X11774Y240511D01*
X11000Y240613D01*
D02*
G37*
G36*
X214662Y240549D02*
X208338D01*
Y234226D01*
X214662D01*
Y240549D01*
D02*
G37*
G36*
X156954Y234100D02*
X154419D01*
Y231565D01*
X154792Y231614D01*
X155513Y231913D01*
X156131Y232387D01*
X156606Y233006D01*
X156905Y233727D01*
X156954Y234100D01*
D02*
G37*
G36*
X153619D02*
X151084D01*
X151133Y233727D01*
X151432Y233006D01*
X151907Y232387D01*
X152525Y231913D01*
X153246Y231614D01*
X153619Y231565D01*
Y234100D01*
D02*
G37*
G36*
X126935D02*
X124400D01*
Y231565D01*
X124773Y231614D01*
X125494Y231913D01*
X126112Y232387D01*
X126587Y233006D01*
X126886Y233727D01*
X126935Y234100D01*
D02*
G37*
G36*
X123600D02*
X121065D01*
X121114Y233727D01*
X121413Y233006D01*
X121888Y232387D01*
X122506Y231913D01*
X123227Y231614D01*
X123600Y231565D01*
Y234100D01*
D02*
G37*
G36*
X107162Y237662D02*
X100838D01*
Y231338D01*
X107162D01*
Y237662D01*
D02*
G37*
G36*
X114000Y237689D02*
X113174Y237581D01*
X112405Y237262D01*
X111745Y236755D01*
X111238Y236095D01*
X110919Y235326D01*
X110811Y234500D01*
X110919Y233675D01*
X111238Y232905D01*
X111745Y232245D01*
X112405Y231738D01*
X113174Y231419D01*
X114000Y231311D01*
X114825Y231419D01*
X115595Y231738D01*
X116255Y232245D01*
X116762Y232905D01*
X117081Y233675D01*
X117189Y234500D01*
X117081Y235326D01*
X116762Y236095D01*
X116255Y236755D01*
X115595Y237262D01*
X114825Y237581D01*
X114000Y237689D01*
D02*
G37*
G36*
X84000D02*
X83175Y237581D01*
X82405Y237262D01*
X81745Y236755D01*
X81238Y236095D01*
X80919Y235326D01*
X80811Y234500D01*
X80919Y233675D01*
X81238Y232905D01*
X81745Y232245D01*
X82405Y231738D01*
X83175Y231419D01*
X84000Y231311D01*
X84825Y231419D01*
X85595Y231738D01*
X86255Y232245D01*
X86762Y232905D01*
X87081Y233675D01*
X87189Y234500D01*
X87081Y235326D01*
X86762Y236095D01*
X86255Y236755D01*
X85595Y237262D01*
X84825Y237581D01*
X84000Y237689D01*
D02*
G37*
G36*
X211900Y230322D02*
Y227787D01*
X214435D01*
X214386Y228161D01*
X214087Y228881D01*
X213613Y229500D01*
X212994Y229975D01*
X212273Y230273D01*
X211900Y230322D01*
D02*
G37*
G36*
X211100D02*
X210727Y230273D01*
X210006Y229975D01*
X209387Y229500D01*
X208913Y228881D01*
X208614Y228161D01*
X208565Y227787D01*
X211100D01*
Y230322D01*
D02*
G37*
G36*
X214435Y226988D02*
X211900D01*
Y224453D01*
X212273Y224502D01*
X212994Y224800D01*
X213613Y225275D01*
X214087Y225894D01*
X214386Y226614D01*
X214435Y226988D01*
D02*
G37*
G36*
X211100D02*
X208565D01*
X208614Y226614D01*
X208913Y225894D01*
X209387Y225275D01*
X210006Y224800D01*
X210727Y224502D01*
X211100Y224453D01*
Y226988D01*
D02*
G37*
G36*
X29615Y227577D02*
X17385D01*
Y215347D01*
X29615D01*
Y227577D01*
D02*
G37*
G36*
X195189Y218491D02*
X194415Y218389D01*
X193693Y218090D01*
X193074Y217615D01*
X192599Y216996D01*
X192300Y216274D01*
X192198Y215500D01*
X192300Y214726D01*
X192599Y214004D01*
X193074Y213385D01*
X193693Y212910D01*
X194415Y212611D01*
X195189Y212509D01*
X195963Y212611D01*
X196685Y212910D01*
X197304Y213385D01*
X197779Y214004D01*
X198078Y214726D01*
X198180Y215500D01*
X198078Y216274D01*
X197779Y216996D01*
X197304Y217615D01*
X196685Y218090D01*
X195963Y218389D01*
X195189Y218491D01*
D02*
G37*
G36*
X185500D02*
X184726Y218389D01*
X184004Y218090D01*
X183385Y217615D01*
X182910Y216996D01*
X182611Y216274D01*
X182509Y215500D01*
X182611Y214726D01*
X182910Y214004D01*
X183385Y213385D01*
X184004Y212910D01*
X184726Y212611D01*
X185500Y212509D01*
X186274Y212611D01*
X186995Y212910D01*
X187615Y213385D01*
X188090Y214004D01*
X188389Y214726D01*
X188491Y215500D01*
X188389Y216274D01*
X188090Y216996D01*
X187615Y217615D01*
X186995Y218090D01*
X186274Y218389D01*
X185500Y218491D01*
D02*
G37*
G36*
X175500D02*
X174726Y218389D01*
X174004Y218090D01*
X173385Y217615D01*
X172910Y216996D01*
X172611Y216274D01*
X172509Y215500D01*
X172611Y214726D01*
X172910Y214004D01*
X173385Y213385D01*
X174004Y212910D01*
X174726Y212611D01*
X175500Y212509D01*
X176274Y212611D01*
X176996Y212910D01*
X177615Y213385D01*
X178090Y214004D01*
X178389Y214726D01*
X178491Y215500D01*
X178389Y216274D01*
X178090Y216996D01*
X177615Y217615D01*
X176996Y218090D01*
X176274Y218389D01*
X175500Y218491D01*
D02*
G37*
G36*
X214262Y251662D02*
X207938D01*
Y247213D01*
X200558Y239833D01*
X200271Y239403D01*
X200170Y238896D01*
Y212045D01*
X196595Y208469D01*
X196326Y208581D01*
X195500Y208689D01*
X194675Y208581D01*
X193905Y208262D01*
X193245Y207755D01*
X192738Y207095D01*
X192419Y206326D01*
X192311Y205500D01*
X192419Y204675D01*
X192738Y203905D01*
X193245Y203245D01*
X193905Y202738D01*
X194675Y202419D01*
X195500Y202311D01*
X196326Y202419D01*
X197095Y202738D01*
X197755Y203245D01*
X198262Y203905D01*
X198581Y204675D01*
X198689Y205500D01*
X198581Y206326D01*
X198469Y206595D01*
X202433Y210558D01*
X202720Y210988D01*
X202821Y211495D01*
Y238347D01*
X209812Y245338D01*
X214262D01*
Y251662D01*
D02*
G37*
G36*
X93586Y213751D02*
X87262D01*
Y207427D01*
X93586D01*
Y213751D01*
D02*
G37*
G36*
X63500Y227607D02*
X62301Y227488D01*
X61149Y227139D01*
X60086Y226571D01*
X59155Y225807D01*
X58391Y224876D01*
X57823Y223813D01*
X57473Y222661D01*
X57355Y221462D01*
X57473Y220263D01*
X57823Y219111D01*
X58391Y218048D01*
X59155Y217117D01*
X60086Y216353D01*
X61149Y215785D01*
X62301Y215436D01*
X63500Y215317D01*
X64699Y215436D01*
X65851Y215785D01*
X66797Y216290D01*
X73525Y209563D01*
X73955Y209275D01*
X74462Y209174D01*
X78125D01*
X78200Y208995D01*
X78707Y208334D01*
X79367Y207827D01*
X80137Y207509D01*
X80962Y207400D01*
X81788Y207509D01*
X82557Y207827D01*
X83217Y208334D01*
X83724Y208995D01*
X84043Y209764D01*
X84151Y210589D01*
X84043Y211415D01*
X83724Y212184D01*
X83217Y212844D01*
X82557Y213351D01*
X81788Y213670D01*
X80962Y213778D01*
X80137Y213670D01*
X79367Y213351D01*
X78707Y212844D01*
X78200Y212184D01*
X78052Y211825D01*
X75011D01*
X68672Y218165D01*
X69177Y219111D01*
X69526Y220263D01*
X69645Y221462D01*
X69526Y222661D01*
X69177Y223813D01*
X68609Y224876D01*
X67845Y225807D01*
X66914Y226571D01*
X65851Y227139D01*
X64699Y227488D01*
X63500Y227607D01*
D02*
G37*
G36*
X185500Y208689D02*
X184675Y208581D01*
X183905Y208262D01*
X183245Y207755D01*
X182738Y207095D01*
X182419Y206326D01*
X182311Y205500D01*
X182419Y204675D01*
X182738Y203905D01*
X183245Y203245D01*
X183905Y202738D01*
X184675Y202419D01*
X185500Y202311D01*
X186326Y202419D01*
X187095Y202738D01*
X187755Y203245D01*
X188262Y203905D01*
X188581Y204675D01*
X188689Y205500D01*
X188581Y206326D01*
X188262Y207095D01*
X187755Y207755D01*
X187095Y208262D01*
X186326Y208581D01*
X185500Y208689D01*
D02*
G37*
G36*
X175500D02*
X174674Y208581D01*
X173905Y208262D01*
X173245Y207755D01*
X172738Y207095D01*
X172419Y206326D01*
X172311Y205500D01*
X172419Y204675D01*
X172738Y203905D01*
X173245Y203245D01*
X173905Y202738D01*
X174674Y202419D01*
X175500Y202311D01*
X176326Y202419D01*
X177095Y202738D01*
X177755Y203245D01*
X178262Y203905D01*
X178581Y204675D01*
X178689Y205500D01*
X178581Y206326D01*
X178262Y207095D01*
X177755Y207755D01*
X177095Y208262D01*
X176326Y208581D01*
X175500Y208689D01*
D02*
G37*
G36*
X63500Y207607D02*
X62301Y207488D01*
X61149Y207139D01*
X60086Y206571D01*
X59155Y205807D01*
X58391Y204876D01*
X57823Y203813D01*
X57473Y202661D01*
X57355Y201462D01*
X57473Y200263D01*
X57823Y199111D01*
X58391Y198048D01*
X59155Y197117D01*
X60086Y196353D01*
X61149Y195785D01*
X62301Y195436D01*
X63500Y195317D01*
X64699Y195436D01*
X65851Y195785D01*
X66914Y196353D01*
X67845Y197117D01*
X68609Y198048D01*
X69177Y199111D01*
X69526Y200263D01*
X69645Y201462D01*
X69526Y202661D01*
X69177Y203813D01*
X68609Y204876D01*
X67845Y205807D01*
X66914Y206571D01*
X65851Y207139D01*
X64699Y207488D01*
X63500Y207607D01*
D02*
G37*
G36*
X43500D02*
X42301Y207488D01*
X41149Y207139D01*
X40086Y206571D01*
X39155Y205807D01*
X38391Y204876D01*
X37823Y203813D01*
X37473Y202661D01*
X37355Y201462D01*
X37473Y200263D01*
X37823Y199111D01*
X38391Y198048D01*
X39155Y197117D01*
X40086Y196353D01*
X41149Y195785D01*
X42301Y195436D01*
X43500Y195317D01*
X44699Y195436D01*
X45851Y195785D01*
X46914Y196353D01*
X47845Y197117D01*
X48609Y198048D01*
X49177Y199111D01*
X49527Y200263D01*
X49645Y201462D01*
X49527Y202661D01*
X49177Y203813D01*
X48609Y204876D01*
X47845Y205807D01*
X46914Y206571D01*
X45851Y207139D01*
X44699Y207488D01*
X43500Y207607D01*
D02*
G37*
G36*
X23500D02*
X22301Y207488D01*
X21149Y207139D01*
X20086Y206571D01*
X19155Y205807D01*
X18391Y204876D01*
X17823Y203813D01*
X17473Y202661D01*
X17355Y201462D01*
X17473Y200263D01*
X17823Y199111D01*
X18391Y198048D01*
X19155Y197117D01*
X20086Y196353D01*
X21149Y195785D01*
X22301Y195436D01*
X23500Y195317D01*
X24699Y195436D01*
X25851Y195785D01*
X26914Y196353D01*
X27845Y197117D01*
X28609Y198048D01*
X29177Y199111D01*
X29526Y200263D01*
X29645Y201462D01*
X29526Y202661D01*
X29177Y203813D01*
X28609Y204876D01*
X27845Y205807D01*
X26914Y206571D01*
X25851Y207139D01*
X24699Y207488D01*
X23500Y207607D01*
D02*
G37*
G36*
X111900Y193737D02*
Y191400D01*
X114237D01*
X114194Y191722D01*
X113916Y192395D01*
X113472Y192972D01*
X112895Y193416D01*
X112222Y193694D01*
X111900Y193737D01*
D02*
G37*
G36*
X111100D02*
X110778Y193694D01*
X110105Y193416D01*
X109528Y192972D01*
X109084Y192395D01*
X108806Y191722D01*
X108763Y191400D01*
X111100D01*
Y193737D01*
D02*
G37*
G36*
X114237Y190600D02*
X111900D01*
Y188263D01*
X112222Y188306D01*
X112895Y188584D01*
X113472Y189028D01*
X113916Y189605D01*
X114194Y190278D01*
X114237Y190600D01*
D02*
G37*
G36*
X111100D02*
X108763D01*
X108806Y190278D01*
X109084Y189605D01*
X109528Y189028D01*
X110105Y188584D01*
X110778Y188306D01*
X111100Y188263D01*
Y190600D01*
D02*
G37*
G36*
X200000Y193991D02*
X199226Y193889D01*
X198504Y193590D01*
X197885Y193115D01*
X197410Y192496D01*
X197111Y191774D01*
X197009Y191000D01*
X197111Y190226D01*
X197410Y189505D01*
X197885Y188885D01*
X198504Y188410D01*
X199226Y188111D01*
X200000Y188009D01*
X200774Y188111D01*
X201496Y188410D01*
X202115Y188885D01*
X202590Y189505D01*
X202889Y190226D01*
X202991Y191000D01*
X202889Y191774D01*
X202590Y192496D01*
X202115Y193115D01*
X201496Y193590D01*
X200774Y193889D01*
X200000Y193991D01*
D02*
G37*
G36*
X152662Y194162D02*
X146338D01*
Y187838D01*
X152662D01*
Y188553D01*
X168318D01*
X168505Y188410D01*
X169226Y188111D01*
X170000Y188009D01*
X170774Y188111D01*
X171495Y188410D01*
X172115Y188885D01*
X172590Y189505D01*
X172889Y190226D01*
X172991Y191000D01*
X172889Y191774D01*
X172590Y192496D01*
X172115Y193115D01*
X171495Y193590D01*
X170774Y193889D01*
X170000Y193991D01*
X169226Y193889D01*
X168505Y193590D01*
X168318Y193447D01*
X152662D01*
Y194162D01*
D02*
G37*
G36*
X131500Y193991D02*
X130726Y193889D01*
X130005Y193590D01*
X129385Y193115D01*
X128910Y192496D01*
X128611Y191774D01*
X128509Y191000D01*
X128611Y190226D01*
X128910Y189505D01*
X129385Y188885D01*
X130005Y188410D01*
X130726Y188111D01*
X131500Y188009D01*
X132274Y188111D01*
X132995Y188410D01*
X133615Y188885D01*
X134090Y189505D01*
X134389Y190226D01*
X134491Y191000D01*
X134389Y191774D01*
X134090Y192496D01*
X133615Y193115D01*
X132995Y193590D01*
X132274Y193889D01*
X131500Y193991D01*
D02*
G37*
G36*
X121500D02*
X120726Y193889D01*
X120004Y193590D01*
X119385Y193115D01*
X118910Y192496D01*
X118611Y191774D01*
X118509Y191000D01*
X118611Y190226D01*
X118910Y189505D01*
X119385Y188885D01*
X120004Y188410D01*
X120726Y188111D01*
X121500Y188009D01*
X122274Y188111D01*
X122995Y188410D01*
X123615Y188885D01*
X124090Y189505D01*
X124389Y190226D01*
X124491Y191000D01*
X124389Y191774D01*
X124090Y192496D01*
X123615Y193115D01*
X122995Y193590D01*
X122274Y193889D01*
X121500Y193991D01*
D02*
G37*
G36*
X84124Y193751D02*
X77800D01*
Y187427D01*
X84124D01*
Y193751D01*
D02*
G37*
G36*
X90424Y193778D02*
X89599Y193670D01*
X88829Y193351D01*
X88169Y192844D01*
X87662Y192184D01*
X87343Y191415D01*
X87235Y190589D01*
X87343Y189764D01*
X87662Y188995D01*
X88169Y188334D01*
X88829Y187827D01*
X89599Y187508D01*
X90424Y187400D01*
X91250Y187508D01*
X92019Y187827D01*
X92679Y188334D01*
X93186Y188995D01*
X93505Y189764D01*
X93613Y190589D01*
X93505Y191415D01*
X93186Y192184D01*
X92679Y192844D01*
X92019Y193351D01*
X91250Y193670D01*
X90424Y193778D01*
D02*
G37*
G36*
X149900Y183935D02*
Y181400D01*
X152435D01*
X152386Y181773D01*
X152087Y182494D01*
X151612Y183113D01*
X150994Y183587D01*
X150273Y183886D01*
X149900Y183935D01*
D02*
G37*
G36*
X149100D02*
X148727Y183886D01*
X148006Y183587D01*
X147388Y183113D01*
X146913Y182494D01*
X146614Y181773D01*
X146565Y181400D01*
X149100D01*
Y183935D01*
D02*
G37*
G36*
X152435Y180600D02*
X149900D01*
Y178065D01*
X150273Y178114D01*
X150994Y178413D01*
X151612Y178887D01*
X152087Y179506D01*
X152386Y180227D01*
X152435Y180600D01*
D02*
G37*
G36*
X149100D02*
X146565D01*
X146614Y180227D01*
X146913Y179506D01*
X147388Y178887D01*
X148006Y178413D01*
X148727Y178114D01*
X149100Y178065D01*
Y180600D01*
D02*
G37*
G36*
X93500Y183991D02*
X92726Y183889D01*
X92005Y183590D01*
X91385Y183115D01*
X90910Y182495D01*
X90611Y181774D01*
X90509Y181000D01*
X90611Y180226D01*
X90910Y179505D01*
X91385Y178885D01*
X92005Y178410D01*
X92726Y178111D01*
X93500Y178009D01*
X94274Y178111D01*
X94995Y178410D01*
X95615Y178885D01*
X96090Y179505D01*
X96389Y180226D01*
X96491Y181000D01*
X96389Y181774D01*
X96090Y182495D01*
X95615Y183115D01*
X94995Y183590D01*
X94274Y183889D01*
X93500Y183991D01*
D02*
G37*
G36*
X54000D02*
X53226Y183889D01*
X52504Y183590D01*
X51885Y183115D01*
X51410Y182495D01*
X51111Y181774D01*
X51009Y181000D01*
X51111Y180226D01*
X51410Y179505D01*
X51885Y178885D01*
X52504Y178410D01*
X53226Y178111D01*
X54000Y178009D01*
X54774Y178111D01*
X55496Y178410D01*
X56115Y178885D01*
X56590Y179505D01*
X56889Y180226D01*
X56991Y181000D01*
X56889Y181774D01*
X56590Y182495D01*
X56115Y183115D01*
X55496Y183590D01*
X54774Y183889D01*
X54000Y183991D01*
D02*
G37*
G36*
X24000D02*
X23226Y183889D01*
X22504Y183590D01*
X21885Y183115D01*
X21410Y182495D01*
X21111Y181774D01*
X21009Y181000D01*
X21111Y180226D01*
X21410Y179505D01*
X21885Y178885D01*
X22504Y178410D01*
X23226Y178111D01*
X24000Y178009D01*
X24774Y178111D01*
X25495Y178410D01*
X26115Y178885D01*
X26590Y179505D01*
X26889Y180226D01*
X26991Y181000D01*
X26889Y181774D01*
X26590Y182495D01*
X26115Y183115D01*
X25495Y183590D01*
X24774Y183889D01*
X24000Y183991D01*
D02*
G37*
G36*
X195506Y184388D02*
X194629Y184273D01*
X193812Y183934D01*
X193110Y183396D01*
X192572Y182694D01*
X192233Y181877D01*
X192118Y181000D01*
X192233Y180123D01*
X192572Y179306D01*
X193110Y178604D01*
X193812Y178066D01*
X194629Y177727D01*
X195506Y177612D01*
X196383Y177727D01*
X197200Y178066D01*
X197902Y178604D01*
X198440Y179306D01*
X198778Y180123D01*
X198894Y181000D01*
X198778Y181877D01*
X198440Y182694D01*
X197902Y183396D01*
X197200Y183934D01*
X196383Y184273D01*
X195506Y184388D01*
D02*
G37*
G36*
X175506D02*
X174629Y184273D01*
X173812Y183934D01*
X173110Y183396D01*
X172572Y182694D01*
X172233Y181877D01*
X172118Y181000D01*
X172233Y180123D01*
X172572Y179306D01*
X173110Y178604D01*
X173812Y178066D01*
X174629Y177727D01*
X175506Y177612D01*
X176383Y177727D01*
X177200Y178066D01*
X177902Y178604D01*
X178440Y179306D01*
X178779Y180123D01*
X178894Y181000D01*
X178779Y181877D01*
X178440Y182694D01*
X177902Y183396D01*
X177200Y183934D01*
X176383Y184273D01*
X175506Y184388D01*
D02*
G37*
G36*
X149900Y173935D02*
Y171400D01*
X152435D01*
X152386Y171773D01*
X152087Y172494D01*
X151612Y173112D01*
X150994Y173587D01*
X150273Y173886D01*
X149900Y173935D01*
D02*
G37*
G36*
X149100D02*
X148727Y173886D01*
X148006Y173587D01*
X147388Y173112D01*
X146913Y172494D01*
X146614Y171773D01*
X146565Y171400D01*
X149100D01*
Y173935D01*
D02*
G37*
G36*
X152435Y170600D02*
X149900D01*
Y168065D01*
X150273Y168114D01*
X150994Y168413D01*
X151612Y168887D01*
X152087Y169506D01*
X152386Y170227D01*
X152435Y170600D01*
D02*
G37*
G36*
X149100D02*
X146565D01*
X146614Y170227D01*
X146913Y169506D01*
X147388Y168887D01*
X148006Y168413D01*
X148727Y168114D01*
X149100Y168065D01*
Y170600D01*
D02*
G37*
G36*
X200000Y173991D02*
X199226Y173889D01*
X198504Y173590D01*
X197885Y173115D01*
X197410Y172495D01*
X197111Y171774D01*
X197009Y171000D01*
X197111Y170226D01*
X197410Y169504D01*
X197885Y168885D01*
X198504Y168410D01*
X199226Y168111D01*
X200000Y168009D01*
X200774Y168111D01*
X201496Y168410D01*
X202115Y168885D01*
X202590Y169504D01*
X202889Y170226D01*
X202991Y171000D01*
X202889Y171774D01*
X202590Y172495D01*
X202115Y173115D01*
X201496Y173590D01*
X200774Y173889D01*
X200000Y173991D01*
D02*
G37*
G36*
X170000D02*
X169226Y173889D01*
X168505Y173590D01*
X167885Y173115D01*
X167410Y172495D01*
X167111Y171774D01*
X167009Y171000D01*
X167111Y170226D01*
X167410Y169504D01*
X167885Y168885D01*
X168505Y168410D01*
X169226Y168111D01*
X170000Y168009D01*
X170774Y168111D01*
X171495Y168410D01*
X172115Y168885D01*
X172590Y169504D01*
X172889Y170226D01*
X172991Y171000D01*
X172889Y171774D01*
X172590Y172495D01*
X172115Y173115D01*
X171495Y173590D01*
X170774Y173889D01*
X170000Y173991D01*
D02*
G37*
G36*
X57162Y174162D02*
X50838D01*
Y167838D01*
X57162D01*
Y174162D01*
D02*
G37*
G36*
X27162D02*
X20838D01*
Y167838D01*
X27162D01*
Y174162D01*
D02*
G37*
G36*
X34000Y174189D02*
X33174Y174081D01*
X32405Y173762D01*
X31745Y173255D01*
X31238Y172595D01*
X30919Y171826D01*
X30811Y171000D01*
X30919Y170175D01*
X31238Y169405D01*
X31745Y168745D01*
X32405Y168238D01*
X33174Y167919D01*
X34000Y167811D01*
X34826Y167919D01*
X35595Y168238D01*
X36255Y168745D01*
X36762Y169405D01*
X37081Y170175D01*
X37189Y171000D01*
X37081Y171826D01*
X36762Y172595D01*
X36255Y173255D01*
X35595Y173762D01*
X34826Y174081D01*
X34000Y174189D01*
D02*
G37*
G36*
X88500Y174388D02*
X87623Y174273D01*
X86806Y173934D01*
X86104Y173396D01*
X85566Y172694D01*
X85228Y171877D01*
X85112Y171000D01*
X85228Y170123D01*
X85566Y169306D01*
X86104Y168604D01*
X86806Y168066D01*
X87623Y167727D01*
X88500Y167612D01*
X89377Y167727D01*
X90194Y168066D01*
X90896Y168604D01*
X91434Y169306D01*
X91773Y170123D01*
X91888Y171000D01*
X91773Y171877D01*
X91434Y172694D01*
X90896Y173396D01*
X90194Y173934D01*
X89377Y174273D01*
X88500Y174388D01*
D02*
G37*
G36*
X68500D02*
X67623Y174273D01*
X66806Y173934D01*
X66104Y173396D01*
X65566Y172694D01*
X65228Y171877D01*
X65112Y171000D01*
X65228Y170123D01*
X65566Y169306D01*
X66104Y168604D01*
X66806Y168066D01*
X67623Y167727D01*
X68500Y167612D01*
X69377Y167727D01*
X70194Y168066D01*
X70896Y168604D01*
X71434Y169306D01*
X71772Y170123D01*
X71888Y171000D01*
X71772Y171877D01*
X71434Y172694D01*
X70896Y173396D01*
X70194Y173934D01*
X69377Y174273D01*
X68500Y174388D01*
D02*
G37*
G36*
X200000Y163991D02*
X199226Y163889D01*
X198504Y163590D01*
X197885Y163115D01*
X197410Y162496D01*
X197111Y161774D01*
X197009Y161000D01*
X197111Y160226D01*
X197410Y159504D01*
X197885Y158885D01*
X198504Y158410D01*
X199226Y158111D01*
X200000Y158009D01*
X200774Y158111D01*
X201496Y158410D01*
X202115Y158885D01*
X202590Y159504D01*
X202889Y160226D01*
X202991Y161000D01*
X202889Y161774D01*
X202590Y162496D01*
X202115Y163115D01*
X201496Y163590D01*
X200774Y163889D01*
X200000Y163991D01*
D02*
G37*
G36*
X152662Y164162D02*
X146338D01*
Y157838D01*
X152662D01*
Y158553D01*
X168318D01*
X168505Y158410D01*
X169226Y158111D01*
X170000Y158009D01*
X170774Y158111D01*
X171495Y158410D01*
X172115Y158885D01*
X172590Y159504D01*
X172889Y160226D01*
X172991Y161000D01*
X172889Y161774D01*
X172590Y162496D01*
X172115Y163115D01*
X171495Y163590D01*
X170774Y163889D01*
X170000Y163991D01*
X169226Y163889D01*
X168505Y163590D01*
X168318Y163447D01*
X152662D01*
Y164162D01*
D02*
G37*
G36*
X93500Y163991D02*
X92726Y163889D01*
X92005Y163590D01*
X91385Y163115D01*
X90910Y162496D01*
X90611Y161774D01*
X90509Y161000D01*
X90611Y160226D01*
X90910Y159504D01*
X91385Y158885D01*
X92005Y158410D01*
X92726Y158111D01*
X93500Y158009D01*
X94274Y158111D01*
X94995Y158410D01*
X95615Y158885D01*
X96090Y159504D01*
X96389Y160226D01*
X96491Y161000D01*
X96389Y161774D01*
X96090Y162496D01*
X95615Y163115D01*
X94995Y163590D01*
X94274Y163889D01*
X93500Y163991D01*
D02*
G37*
G36*
X63500D02*
X62726Y163889D01*
X62005Y163590D01*
X61385Y163115D01*
X60910Y162496D01*
X60611Y161774D01*
X60509Y161000D01*
X60611Y160226D01*
X60910Y159504D01*
X61385Y158885D01*
X62005Y158410D01*
X62726Y158111D01*
X63500Y158009D01*
X64274Y158111D01*
X64995Y158410D01*
X65615Y158885D01*
X66090Y159504D01*
X66389Y160226D01*
X66491Y161000D01*
X66389Y161774D01*
X66090Y162496D01*
X65615Y163115D01*
X64995Y163590D01*
X64274Y163889D01*
X63500Y163991D01*
D02*
G37*
G36*
X57162Y164162D02*
X50838D01*
Y157838D01*
X57162D01*
Y164162D01*
D02*
G37*
G36*
X34000Y164189D02*
X33174Y164081D01*
X32405Y163762D01*
X31745Y163255D01*
X31238Y162595D01*
X30919Y161826D01*
X30811Y161000D01*
X30919Y160175D01*
X31238Y159405D01*
X31745Y158745D01*
X32405Y158238D01*
X33174Y157919D01*
X34000Y157811D01*
X34826Y157919D01*
X35595Y158238D01*
X36255Y158745D01*
X36762Y159405D01*
X37081Y160175D01*
X37189Y161000D01*
X37081Y161826D01*
X36762Y162595D01*
X36255Y163255D01*
X35595Y163762D01*
X34826Y164081D01*
X34000Y164189D01*
D02*
G37*
G36*
X63500Y183991D02*
X62726Y183889D01*
X62005Y183590D01*
X61385Y183115D01*
X60910Y182495D01*
X60611Y181774D01*
X60509Y181000D01*
X60611Y180226D01*
X60910Y179505D01*
X61385Y178885D01*
X62005Y178410D01*
X62726Y178111D01*
X63500Y178009D01*
X64274Y178111D01*
X64995Y178410D01*
X65615Y178885D01*
X66090Y179505D01*
X66161Y179674D01*
X69626D01*
X74674Y174626D01*
Y164049D01*
X64444Y153819D01*
X64274Y153889D01*
X63500Y153991D01*
X62726Y153889D01*
X62005Y153590D01*
X61385Y153115D01*
X60910Y152496D01*
X60611Y151774D01*
X60509Y151000D01*
X60611Y150226D01*
X60910Y149504D01*
X61385Y148885D01*
X62005Y148410D01*
X62174Y148339D01*
Y141146D01*
X62275Y140639D01*
X62563Y140209D01*
X83709Y119063D01*
X84139Y118775D01*
X84646Y118675D01*
X90477D01*
X90617Y118336D01*
X91146Y117646D01*
X91836Y117118D01*
X92638Y116785D01*
X93500Y116672D01*
X94362Y116785D01*
X95164Y117118D01*
X95854Y117646D01*
X96383Y118336D01*
X96715Y119139D01*
X96829Y120000D01*
X96715Y120861D01*
X96383Y121664D01*
X95854Y122354D01*
X95164Y122882D01*
X94362Y123215D01*
X93500Y123328D01*
X92638Y123215D01*
X91836Y122882D01*
X91146Y122354D01*
X90617Y121664D01*
X90477Y121326D01*
X85195D01*
X64825Y141695D01*
Y148339D01*
X64995Y148410D01*
X65615Y148885D01*
X66090Y149504D01*
X66389Y150226D01*
X66491Y151000D01*
X66389Y151774D01*
X66319Y151944D01*
X76937Y162563D01*
X77225Y162993D01*
X77325Y163500D01*
Y175174D01*
X77225Y175682D01*
X76937Y176112D01*
X71112Y181937D01*
X70682Y182225D01*
X70174Y182325D01*
X66161D01*
X66090Y182495D01*
X65615Y183115D01*
X64995Y183590D01*
X64274Y183889D01*
X63500Y183991D01*
D02*
G37*
G36*
X37162Y154162D02*
X30838D01*
Y147838D01*
X37162D01*
Y154162D01*
D02*
G37*
G36*
X54000Y154189D02*
X53175Y154081D01*
X52405Y153762D01*
X51745Y153255D01*
X51238Y152595D01*
X50919Y151825D01*
X50811Y151000D01*
X50919Y150174D01*
X51238Y149405D01*
X51745Y148745D01*
X52405Y148238D01*
X53175Y147919D01*
X54000Y147811D01*
X54826Y147919D01*
X55595Y148238D01*
X56255Y148745D01*
X56762Y149405D01*
X57081Y150174D01*
X57189Y151000D01*
X57081Y151825D01*
X56762Y152595D01*
X56255Y153255D01*
X55595Y153762D01*
X54826Y154081D01*
X54000Y154189D01*
D02*
G37*
G36*
X24000D02*
X23175Y154081D01*
X22405Y153762D01*
X21745Y153255D01*
X21238Y152595D01*
X20919Y151825D01*
X20811Y151000D01*
X20919Y150174D01*
X21238Y149405D01*
X21745Y148745D01*
X22405Y148238D01*
X23175Y147919D01*
X24000Y147811D01*
X24825Y147919D01*
X25595Y148238D01*
X26255Y148745D01*
X26762Y149405D01*
X27081Y150174D01*
X27189Y151000D01*
X27081Y151825D01*
X26762Y152595D01*
X26255Y153255D01*
X25595Y153762D01*
X24825Y154081D01*
X24000Y154189D01*
D02*
G37*
G36*
X213344Y154343D02*
X204657D01*
Y145657D01*
X213344D01*
Y154343D01*
D02*
G37*
G36*
X189000Y154381D02*
X187866Y154232D01*
X186810Y153794D01*
X185902Y153098D01*
X185206Y152190D01*
X184768Y151134D01*
X184619Y150000D01*
X184768Y148866D01*
X185206Y147810D01*
X185902Y146902D01*
X186810Y146206D01*
X187866Y145768D01*
X189000Y145619D01*
X190134Y145768D01*
X191191Y146206D01*
X192098Y146902D01*
X192794Y147810D01*
X193232Y148866D01*
X193381Y150000D01*
X193232Y151134D01*
X192794Y152190D01*
X192098Y153098D01*
X191191Y153794D01*
X190134Y154232D01*
X189000Y154381D01*
D02*
G37*
G36*
X169000D02*
X167866Y154232D01*
X166809Y153794D01*
X165902Y153098D01*
X165206Y152190D01*
X164768Y151134D01*
X164619Y150000D01*
X164768Y148866D01*
X165206Y147810D01*
X165902Y146902D01*
X166809Y146206D01*
X167866Y145768D01*
X169000Y145619D01*
X170134Y145768D01*
X171191Y146206D01*
X172098Y146902D01*
X172794Y147810D01*
X173232Y148866D01*
X173381Y150000D01*
X173232Y151134D01*
X172794Y152190D01*
X172098Y153098D01*
X171191Y153794D01*
X170134Y154232D01*
X169000Y154381D01*
D02*
G37*
G36*
X131000Y148388D02*
X130123Y148273D01*
X129306Y147934D01*
X128604Y147396D01*
X128066Y146694D01*
X127727Y145877D01*
X127612Y145000D01*
X127727Y144123D01*
X128066Y143306D01*
X128604Y142604D01*
X129306Y142066D01*
X130123Y141727D01*
X131000Y141612D01*
X131877Y141727D01*
X132694Y142066D01*
X133396Y142604D01*
X133934Y143306D01*
X134273Y144123D01*
X134388Y145000D01*
X134273Y145877D01*
X133934Y146694D01*
X133396Y147396D01*
X132694Y147934D01*
X131877Y148273D01*
X131000Y148388D01*
D02*
G37*
G36*
X111000D02*
X110123Y148273D01*
X109306Y147934D01*
X108604Y147396D01*
X108066Y146694D01*
X107728Y145877D01*
X107612Y145000D01*
X107728Y144123D01*
X108066Y143306D01*
X108604Y142604D01*
X109306Y142066D01*
X110123Y141727D01*
X111000Y141612D01*
X111877Y141727D01*
X112694Y142066D01*
X113396Y142604D01*
X113934Y143306D01*
X114272Y144123D01*
X114388Y145000D01*
X114272Y145877D01*
X113934Y146694D01*
X113396Y147396D01*
X112694Y147934D01*
X111877Y148273D01*
X111000Y148388D01*
D02*
G37*
G36*
X73900Y144134D02*
Y141400D01*
X76634D01*
X76578Y141825D01*
X76259Y142593D01*
X75753Y143253D01*
X75093Y143759D01*
X74325Y144078D01*
X73900Y144134D01*
D02*
G37*
G36*
X73100D02*
X72675Y144078D01*
X71907Y143759D01*
X71247Y143253D01*
X70741Y142593D01*
X70422Y141825D01*
X70366Y141400D01*
X73100D01*
Y144134D01*
D02*
G37*
G36*
X76634Y140600D02*
X73900D01*
Y137866D01*
X74325Y137922D01*
X75093Y138241D01*
X75753Y138747D01*
X76259Y139407D01*
X76578Y140175D01*
X76634Y140600D01*
D02*
G37*
G36*
X73100D02*
X70366D01*
X70422Y140175D01*
X70741Y139407D01*
X71247Y138747D01*
X71907Y138241D01*
X72675Y137922D01*
X73100Y137866D01*
Y140600D01*
D02*
G37*
G36*
X93500Y144388D02*
X92623Y144272D01*
X91806Y143934D01*
X91104Y143396D01*
X90566Y142694D01*
X90228Y141877D01*
X90112Y141000D01*
X90228Y140123D01*
X90566Y139306D01*
X91104Y138604D01*
X91806Y138066D01*
X92623Y137727D01*
X93500Y137612D01*
X94377Y137727D01*
X95194Y138066D01*
X95896Y138604D01*
X96434Y139306D01*
X96772Y140123D01*
X96888Y141000D01*
X96772Y141877D01*
X96434Y142694D01*
X95896Y143396D01*
X95194Y143934D01*
X94377Y144272D01*
X93500Y144388D01*
D02*
G37*
G36*
X33500Y143888D02*
X32623Y143772D01*
X31806Y143434D01*
X31104Y142896D01*
X30566Y142194D01*
X30228Y141377D01*
X30112Y140500D01*
X30228Y139623D01*
X30566Y138806D01*
X31104Y138104D01*
X31806Y137566D01*
X32623Y137227D01*
X33500Y137112D01*
X34377Y137227D01*
X35194Y137566D01*
X35896Y138104D01*
X36434Y138806D01*
X36773Y139623D01*
X36888Y140500D01*
X36773Y141377D01*
X36434Y142194D01*
X35896Y142896D01*
X35194Y143434D01*
X34377Y143772D01*
X33500Y143888D01*
D02*
G37*
G36*
X200000Y141888D02*
X199123Y141772D01*
X198306Y141434D01*
X197604Y140896D01*
X197066Y140194D01*
X196728Y139377D01*
X196612Y138500D01*
X196728Y137623D01*
X197066Y136806D01*
X197604Y136104D01*
X198306Y135566D01*
X199123Y135228D01*
X200000Y135112D01*
X200877Y135228D01*
X201694Y135566D01*
X202396Y136104D01*
X202934Y136806D01*
X203273Y137623D01*
X203388Y138500D01*
X203273Y139377D01*
X202934Y140194D01*
X202396Y140896D01*
X201694Y141434D01*
X200877Y141772D01*
X200000Y141888D01*
D02*
G37*
G36*
X180000D02*
X179123Y141772D01*
X178306Y141434D01*
X177604Y140896D01*
X177066Y140194D01*
X176727Y139377D01*
X176612Y138500D01*
X176727Y137623D01*
X177066Y136806D01*
X177604Y136104D01*
X178306Y135566D01*
X179123Y135228D01*
X180000Y135112D01*
X180877Y135228D01*
X181694Y135566D01*
X182396Y136104D01*
X182934Y136806D01*
X183273Y137623D01*
X183388Y138500D01*
X183273Y139377D01*
X182934Y140194D01*
X182396Y140896D01*
X181694Y141434D01*
X180877Y141772D01*
X180000Y141888D01*
D02*
G37*
G36*
X131000Y137888D02*
X130123Y137773D01*
X129306Y137434D01*
X128604Y136896D01*
X128066Y136194D01*
X127727Y135377D01*
X127612Y134500D01*
X127727Y133623D01*
X128066Y132806D01*
X128604Y132104D01*
X129306Y131566D01*
X130123Y131228D01*
X131000Y131112D01*
X131877Y131228D01*
X132694Y131566D01*
X133396Y132104D01*
X133934Y132806D01*
X134273Y133623D01*
X134388Y134500D01*
X134273Y135377D01*
X133934Y136194D01*
X133396Y136896D01*
X132694Y137434D01*
X131877Y137773D01*
X131000Y137888D01*
D02*
G37*
G36*
X111000D02*
X110123Y137773D01*
X109306Y137434D01*
X108604Y136896D01*
X108066Y136194D01*
X107728Y135377D01*
X107612Y134500D01*
X107728Y133623D01*
X108066Y132806D01*
X108604Y132104D01*
X109306Y131566D01*
X110123Y131228D01*
X111000Y131112D01*
X111877Y131228D01*
X112694Y131566D01*
X113396Y132104D01*
X113934Y132806D01*
X114272Y133623D01*
X114388Y134500D01*
X114272Y135377D01*
X113934Y136194D01*
X113396Y136896D01*
X112694Y137434D01*
X111877Y137773D01*
X111000Y137888D01*
D02*
G37*
G36*
X53500Y132991D02*
X52726Y132889D01*
X52004Y132590D01*
X51385Y132115D01*
X50910Y131495D01*
X50611Y130774D01*
X50509Y130000D01*
X50611Y129226D01*
X50910Y128505D01*
X51385Y127885D01*
X52004Y127410D01*
X52726Y127111D01*
X53500Y127009D01*
X54274Y127111D01*
X54996Y127410D01*
X55615Y127885D01*
X56090Y128505D01*
X56389Y129226D01*
X56491Y130000D01*
X56389Y130774D01*
X56090Y131495D01*
X55615Y132115D01*
X54996Y132590D01*
X54274Y132889D01*
X53500Y132991D01*
D02*
G37*
G36*
X23500D02*
X22726Y132889D01*
X22005Y132590D01*
X21385Y132115D01*
X20910Y131495D01*
X20611Y130774D01*
X20509Y130000D01*
X20611Y129226D01*
X20910Y128505D01*
X21385Y127885D01*
X22005Y127410D01*
X22726Y127111D01*
X23500Y127009D01*
X24274Y127111D01*
X24995Y127410D01*
X25615Y127885D01*
X26090Y128505D01*
X26389Y129226D01*
X26491Y130000D01*
X26389Y130774D01*
X26090Y131495D01*
X25615Y132115D01*
X24995Y132590D01*
X24274Y132889D01*
X23500Y132991D01*
D02*
G37*
G36*
X93500Y133328D02*
X92638Y133215D01*
X91836Y132882D01*
X91146Y132354D01*
X90617Y131664D01*
X90285Y130861D01*
X90171Y130000D01*
X90285Y129139D01*
X90617Y128336D01*
X91146Y127646D01*
X91836Y127118D01*
X92638Y126785D01*
X93500Y126672D01*
X94362Y126785D01*
X95164Y127118D01*
X95854Y127646D01*
X96383Y128336D01*
X96715Y129139D01*
X96829Y130000D01*
X96715Y130861D01*
X96383Y131664D01*
X95854Y132354D01*
X95164Y132882D01*
X94362Y133215D01*
X93500Y133328D01*
D02*
G37*
G36*
X63500D02*
X62638Y133215D01*
X61836Y132882D01*
X61146Y132354D01*
X60617Y131664D01*
X60285Y130861D01*
X60172Y130000D01*
X60285Y129139D01*
X60617Y128336D01*
X61146Y127646D01*
X61836Y127118D01*
X62638Y126785D01*
X63500Y126672D01*
X64362Y126785D01*
X65164Y127118D01*
X65854Y127646D01*
X66383Y128336D01*
X66715Y129139D01*
X66829Y130000D01*
X66715Y130861D01*
X66383Y131664D01*
X65854Y132354D01*
X65164Y132882D01*
X64362Y133215D01*
X63500Y133328D01*
D02*
G37*
G36*
X200000Y131388D02*
X199123Y131272D01*
X198306Y130934D01*
X197604Y130396D01*
X197066Y129694D01*
X196728Y128877D01*
X196612Y128000D01*
X196728Y127123D01*
X197066Y126306D01*
X197604Y125604D01*
X198306Y125066D01*
X199123Y124727D01*
X200000Y124612D01*
X200877Y124727D01*
X201694Y125066D01*
X202396Y125604D01*
X202934Y126306D01*
X203273Y127123D01*
X203388Y128000D01*
X203273Y128877D01*
X202934Y129694D01*
X202396Y130396D01*
X201694Y130934D01*
X200877Y131272D01*
X200000Y131388D01*
D02*
G37*
G36*
X180000D02*
X179123Y131272D01*
X178306Y130934D01*
X177604Y130396D01*
X177066Y129694D01*
X176727Y128877D01*
X176612Y128000D01*
X176727Y127123D01*
X177066Y126306D01*
X177604Y125604D01*
X178306Y125066D01*
X179123Y124727D01*
X180000Y124612D01*
X180877Y124727D01*
X181694Y125066D01*
X182396Y125604D01*
X182934Y126306D01*
X183273Y127123D01*
X183388Y128000D01*
X183273Y128877D01*
X182934Y129694D01*
X182396Y130396D01*
X181694Y130934D01*
X180877Y131272D01*
X180000Y131388D01*
D02*
G37*
G36*
X53500Y122991D02*
X52726Y122889D01*
X52004Y122590D01*
X51385Y122115D01*
X50910Y121495D01*
X50611Y120774D01*
X50509Y120000D01*
X50611Y119226D01*
X50910Y118505D01*
X51385Y117885D01*
X52004Y117410D01*
X52726Y117111D01*
X53500Y117009D01*
X54274Y117111D01*
X54996Y117410D01*
X55615Y117885D01*
X56090Y118505D01*
X56389Y119226D01*
X56491Y120000D01*
X56389Y120774D01*
X56090Y121495D01*
X55615Y122115D01*
X54996Y122590D01*
X54274Y122889D01*
X53500Y122991D01*
D02*
G37*
G36*
X23500D02*
X22726Y122889D01*
X22005Y122590D01*
X21385Y122115D01*
X20910Y121495D01*
X20611Y120774D01*
X20509Y120000D01*
X20611Y119226D01*
X20910Y118505D01*
X21385Y117885D01*
X22005Y117410D01*
X22726Y117111D01*
X23500Y117009D01*
X24274Y117111D01*
X24995Y117410D01*
X25615Y117885D01*
X26090Y118505D01*
X26389Y119226D01*
X26491Y120000D01*
X26389Y120774D01*
X26090Y121495D01*
X25615Y122115D01*
X24995Y122590D01*
X24274Y122889D01*
X23500Y122991D01*
D02*
G37*
G36*
X63500Y123328D02*
X62638Y123215D01*
X61836Y122882D01*
X61146Y122354D01*
X60617Y121664D01*
X60285Y120861D01*
X60172Y120000D01*
X60285Y119139D01*
X60617Y118336D01*
X61146Y117646D01*
X61836Y117118D01*
X62638Y116785D01*
X63500Y116672D01*
X64362Y116785D01*
X65164Y117118D01*
X65854Y117646D01*
X66383Y118336D01*
X66715Y119139D01*
X66829Y120000D01*
X66715Y120861D01*
X66383Y121664D01*
X65854Y122354D01*
X65164Y122882D01*
X64362Y123215D01*
X63500Y123328D01*
D02*
G37*
G36*
X136000Y123984D02*
X134969Y123848D01*
X134008Y123450D01*
X133183Y122817D01*
X132550Y121992D01*
X132152Y121031D01*
X132016Y120000D01*
X132152Y118969D01*
X132550Y118008D01*
X133183Y117183D01*
X134008Y116550D01*
X134969Y116152D01*
X136000Y116016D01*
X137031Y116152D01*
X137992Y116550D01*
X138817Y117183D01*
X139450Y118008D01*
X139848Y118969D01*
X139984Y120000D01*
X139848Y121031D01*
X139450Y121992D01*
X138817Y122817D01*
X137992Y123450D01*
X137031Y123848D01*
X136000Y123984D01*
D02*
G37*
G36*
X93500Y153991D02*
X92726Y153889D01*
X92005Y153590D01*
X91385Y153115D01*
X90910Y152496D01*
X90611Y151774D01*
X90509Y151000D01*
X90611Y150226D01*
X90910Y149504D01*
X91385Y148885D01*
X92005Y148410D01*
X92726Y148111D01*
X93500Y148009D01*
X94274Y148111D01*
X94444Y148181D01*
X100691Y141935D01*
Y123984D01*
X100792Y123476D01*
X101079Y123046D01*
X102428Y121697D01*
X102152Y121031D01*
X102016Y120000D01*
X102152Y118969D01*
X102550Y118008D01*
X103183Y117183D01*
X104008Y116550D01*
X104969Y116152D01*
X106000Y116016D01*
X107031Y116152D01*
X107992Y116550D01*
X108817Y117183D01*
X109450Y118008D01*
X109848Y118969D01*
X109984Y120000D01*
X109848Y121031D01*
X109450Y121992D01*
X108817Y122817D01*
X107992Y123450D01*
X107031Y123848D01*
X106000Y123984D01*
X104969Y123848D01*
X104303Y123572D01*
X103342Y124533D01*
Y142484D01*
X103241Y142991D01*
X102954Y143421D01*
X96319Y150056D01*
X96389Y150226D01*
X96491Y151000D01*
X96389Y151774D01*
X96090Y152496D01*
X95615Y153115D01*
X94995Y153590D01*
X94274Y153889D01*
X93500Y153991D01*
D02*
G37*
G36*
X53500Y112991D02*
X52726Y112889D01*
X52004Y112590D01*
X51385Y112115D01*
X50910Y111495D01*
X50775Y111170D01*
X50509D01*
X50002Y111069D01*
X49572Y110782D01*
X27397Y88607D01*
X26787Y88704D01*
X26317Y89317D01*
X25492Y89950D01*
X24531Y90348D01*
X23500Y90484D01*
X22469Y90348D01*
X21508Y89950D01*
X20683Y89317D01*
X20050Y88492D01*
X19652Y87531D01*
X19516Y86500D01*
X19652Y85469D01*
X20050Y84508D01*
X20683Y83683D01*
X21508Y83050D01*
X22469Y82652D01*
X23500Y82516D01*
X24531Y82652D01*
X25492Y83050D01*
X26317Y83683D01*
X26950Y84508D01*
X27348Y85469D01*
X27362Y85574D01*
X27564D01*
X28071Y85675D01*
X28501Y85962D01*
X50700Y108161D01*
X51199Y108128D01*
X51385Y107885D01*
X52004Y107410D01*
X52726Y107111D01*
X53500Y107009D01*
X54274Y107111D01*
X54996Y107410D01*
X55615Y107885D01*
X56090Y108504D01*
X56389Y109226D01*
X56491Y110000D01*
X56389Y110774D01*
X56090Y111495D01*
X55615Y112115D01*
X54996Y112590D01*
X54274Y112889D01*
X53500Y112991D01*
D02*
G37*
G36*
X23500D02*
X22726Y112889D01*
X22005Y112590D01*
X21385Y112115D01*
X20910Y111495D01*
X20611Y110774D01*
X20509Y110000D01*
X20611Y109226D01*
X20910Y108504D01*
X21385Y107885D01*
X22005Y107410D01*
X22726Y107111D01*
X23500Y107009D01*
X24274Y107111D01*
X24995Y107410D01*
X25615Y107885D01*
X26090Y108504D01*
X26389Y109226D01*
X26491Y110000D01*
X26389Y110774D01*
X26090Y111495D01*
X25615Y112115D01*
X24995Y112590D01*
X24274Y112889D01*
X23500Y112991D01*
D02*
G37*
G36*
X93500Y113329D02*
X92638Y113215D01*
X91836Y112882D01*
X91146Y112354D01*
X90617Y111664D01*
X90285Y110862D01*
X90171Y110000D01*
X90285Y109139D01*
X90617Y108336D01*
X91146Y107646D01*
X91836Y107117D01*
X92638Y106785D01*
X93500Y106672D01*
X94362Y106785D01*
X95164Y107117D01*
X95854Y107646D01*
X96383Y108336D01*
X96715Y109139D01*
X96829Y110000D01*
X96715Y110862D01*
X96383Y111664D01*
X95854Y112354D01*
X95164Y112882D01*
X94362Y113215D01*
X93500Y113329D01*
D02*
G37*
G36*
X63500D02*
X62638Y113215D01*
X61836Y112882D01*
X61146Y112354D01*
X60617Y111664D01*
X60285Y110862D01*
X60172Y110000D01*
X60285Y109139D01*
X60617Y108336D01*
X61146Y107646D01*
X61836Y107117D01*
X62638Y106785D01*
X63500Y106672D01*
X64362Y106785D01*
X65164Y107117D01*
X65854Y107646D01*
X66383Y108336D01*
X66715Y109139D01*
X66829Y110000D01*
X66715Y110862D01*
X66383Y111664D01*
X65854Y112354D01*
X65164Y112882D01*
X64362Y113215D01*
X63500Y113329D01*
D02*
G37*
G36*
X136000Y113984D02*
X134969Y113848D01*
X134008Y113450D01*
X133183Y112817D01*
X132550Y111992D01*
X132152Y111031D01*
X132016Y110000D01*
X132152Y108969D01*
X132550Y108008D01*
X133183Y107183D01*
X134008Y106550D01*
X134969Y106152D01*
X136000Y106016D01*
X137031Y106152D01*
X137992Y106550D01*
X138817Y107183D01*
X139450Y108008D01*
X139848Y108969D01*
X139984Y110000D01*
X139848Y111031D01*
X139450Y111992D01*
X138817Y112817D01*
X137992Y113450D01*
X137031Y113848D01*
X136000Y113984D01*
D02*
G37*
G36*
X106000D02*
X104969Y113848D01*
X104008Y113450D01*
X103183Y112817D01*
X102550Y111992D01*
X102152Y111031D01*
X102016Y110000D01*
X102152Y108969D01*
X102550Y108008D01*
X103183Y107183D01*
X104008Y106550D01*
X104969Y106152D01*
X106000Y106016D01*
X107031Y106152D01*
X107992Y106550D01*
X108817Y107183D01*
X109450Y108008D01*
X109848Y108969D01*
X109984Y110000D01*
X109848Y111031D01*
X109450Y111992D01*
X108817Y112817D01*
X107992Y113450D01*
X107031Y113848D01*
X106000Y113984D01*
D02*
G37*
G36*
X69241Y235947D02*
X55538D01*
X54602Y235761D01*
X53808Y235230D01*
X45748Y227170D01*
X44699Y227488D01*
X43500Y227607D01*
X42301Y227488D01*
X41149Y227139D01*
X40086Y226571D01*
X39155Y225807D01*
X38391Y224876D01*
X37823Y223813D01*
X37473Y222661D01*
X37355Y221462D01*
X37473Y220263D01*
X37823Y219111D01*
X38391Y218048D01*
X39155Y217117D01*
X40086Y216353D01*
X41149Y215785D01*
X42301Y215436D01*
X43500Y215317D01*
X44699Y215436D01*
X45851Y215785D01*
X46914Y216353D01*
X47845Y217117D01*
X48609Y218048D01*
X49177Y219111D01*
X49527Y220263D01*
X49645Y221462D01*
X49527Y222661D01*
X49208Y223710D01*
X56552Y231053D01*
X68227D01*
X81510Y217770D01*
X82304Y217239D01*
X83241Y217053D01*
X93986D01*
X99705Y211334D01*
Y170348D01*
X99891Y169411D01*
X100422Y168617D01*
X108580Y160459D01*
X108611Y160226D01*
X108910Y159504D01*
X109385Y158885D01*
X110004Y158410D01*
X110726Y158111D01*
X111500Y158009D01*
X112274Y158111D01*
X112996Y158410D01*
X113182Y158553D01*
X119053D01*
Y112403D01*
X109097Y102447D01*
X95732D01*
X95164Y102883D01*
X94362Y103215D01*
X93500Y103329D01*
X92638Y103215D01*
X91836Y102883D01*
X91146Y102354D01*
X90617Y101664D01*
X90285Y100862D01*
X90171Y100000D01*
X90285Y99138D01*
X90617Y98336D01*
X91146Y97646D01*
X91836Y97117D01*
X92638Y96785D01*
X93500Y96671D01*
X94362Y96785D01*
X95164Y97117D01*
X95732Y97553D01*
X110111D01*
X111047Y97739D01*
X111841Y98270D01*
X123230Y109659D01*
X123761Y110453D01*
X123947Y111389D01*
Y159318D01*
X124090Y159504D01*
X124389Y160226D01*
X124491Y161000D01*
X124389Y161774D01*
X124090Y162496D01*
X123615Y163115D01*
X122995Y163590D01*
X122274Y163889D01*
X121500Y163991D01*
X120726Y163889D01*
X120004Y163590D01*
X119818Y163447D01*
X113182D01*
X112996Y163590D01*
X112274Y163889D01*
X112041Y163920D01*
X104599Y171361D01*
Y212348D01*
X104413Y213284D01*
X103883Y214078D01*
X96730Y221230D01*
X95936Y221761D01*
X95000Y221947D01*
X84254D01*
X70971Y235230D01*
X70177Y235761D01*
X70022Y235792D01*
X69241Y235947D01*
D02*
G37*
G36*
X63900Y103074D02*
Y100400D01*
X66574D01*
X66520Y100809D01*
X66208Y101563D01*
X65711Y102211D01*
X65063Y102708D01*
X64309Y103020D01*
X63900Y103074D01*
D02*
G37*
G36*
X63100D02*
X62691Y103020D01*
X61937Y102708D01*
X61289Y102211D01*
X60792Y101563D01*
X60480Y100809D01*
X60426Y100400D01*
X63100D01*
Y103074D01*
D02*
G37*
G36*
X53500Y102991D02*
X52726Y102889D01*
X52004Y102590D01*
X51385Y102115D01*
X50910Y101496D01*
X50802Y101235D01*
X50304Y101136D01*
X49874Y100849D01*
X27437Y78411D01*
X26889Y78571D01*
X26317Y79317D01*
X25492Y79950D01*
X24531Y80348D01*
X23500Y80484D01*
X22469Y80348D01*
X21508Y79950D01*
X20683Y79317D01*
X20050Y78492D01*
X19652Y77531D01*
X19516Y76500D01*
X19652Y75469D01*
X20050Y74508D01*
X20683Y73683D01*
X21508Y73050D01*
X22469Y72652D01*
X23500Y72516D01*
X24531Y72652D01*
X25492Y73050D01*
X26317Y73683D01*
X26950Y74508D01*
X27226Y75174D01*
X27400D01*
X27907Y75275D01*
X28337Y75563D01*
X50802Y98027D01*
X51301Y97995D01*
X51385Y97885D01*
X52004Y97410D01*
X52726Y97111D01*
X53500Y97009D01*
X54274Y97111D01*
X54996Y97410D01*
X55615Y97885D01*
X56090Y98505D01*
X56389Y99226D01*
X56491Y100000D01*
X56389Y100774D01*
X56090Y101496D01*
X55615Y102115D01*
X54996Y102590D01*
X54274Y102889D01*
X53500Y102991D01*
D02*
G37*
G36*
X23500D02*
X22726Y102889D01*
X22005Y102590D01*
X21385Y102115D01*
X20910Y101496D01*
X20611Y100774D01*
X20509Y100000D01*
X20611Y99226D01*
X20910Y98505D01*
X21385Y97885D01*
X22005Y97410D01*
X22726Y97111D01*
X23500Y97009D01*
X24274Y97111D01*
X24995Y97410D01*
X25615Y97885D01*
X26090Y98505D01*
X26389Y99226D01*
X26491Y100000D01*
X26389Y100774D01*
X26090Y101496D01*
X25615Y102115D01*
X24995Y102590D01*
X24274Y102889D01*
X23500Y102991D01*
D02*
G37*
G36*
X66574Y99600D02*
X63900D01*
Y96926D01*
X64309Y96980D01*
X65063Y97292D01*
X65711Y97789D01*
X66208Y98437D01*
X66520Y99191D01*
X66574Y99600D01*
D02*
G37*
G36*
X63100D02*
X60426D01*
X60480Y99191D01*
X60792Y98437D01*
X61289Y97789D01*
X61937Y97292D01*
X62691Y96980D01*
X63100Y96926D01*
Y99600D01*
D02*
G37*
G36*
X93500Y92991D02*
X92726Y92889D01*
X92005Y92590D01*
X91385Y92115D01*
X90910Y91496D01*
X90611Y90774D01*
X90509Y90000D01*
X90611Y89226D01*
X90910Y88504D01*
X91385Y87885D01*
X92005Y87410D01*
X92726Y87111D01*
X93500Y87009D01*
X94274Y87111D01*
X94995Y87410D01*
X95615Y87885D01*
X96090Y88504D01*
X96389Y89226D01*
X96491Y90000D01*
X96389Y90774D01*
X96090Y91496D01*
X95615Y92115D01*
X94995Y92590D01*
X94274Y92889D01*
X93500Y92991D01*
D02*
G37*
G36*
X63500D02*
X62726Y92889D01*
X62005Y92590D01*
X61385Y92115D01*
X60910Y91496D01*
X60611Y90774D01*
X60509Y90000D01*
X60611Y89226D01*
X60910Y88504D01*
X61385Y87885D01*
X62005Y87410D01*
X62726Y87111D01*
X63500Y87009D01*
X64274Y87111D01*
X64995Y87410D01*
X65615Y87885D01*
X66090Y88504D01*
X66389Y89226D01*
X66491Y90000D01*
X66389Y90774D01*
X66090Y91496D01*
X65615Y92115D01*
X64995Y92590D01*
X64274Y92889D01*
X63500Y92991D01*
D02*
G37*
G36*
X190100Y88748D02*
Y86411D01*
X192437D01*
X192394Y86733D01*
X192116Y87406D01*
X191672Y87984D01*
X191095Y88427D01*
X190422Y88706D01*
X190100Y88748D01*
D02*
G37*
G36*
X189300D02*
X188978Y88706D01*
X188305Y88427D01*
X187728Y87984D01*
X187284Y87406D01*
X187006Y86733D01*
X186963Y86411D01*
X189300D01*
Y88748D01*
D02*
G37*
G36*
X192437Y85611D02*
X190100D01*
Y83275D01*
X190422Y83317D01*
X191095Y83596D01*
X191672Y84039D01*
X192116Y84617D01*
X192394Y85290D01*
X192437Y85611D01*
D02*
G37*
G36*
X189300D02*
X186963D01*
X187006Y85290D01*
X187284Y84617D01*
X187728Y84039D01*
X188305Y83596D01*
X188978Y83317D01*
X189300Y83275D01*
Y85611D01*
D02*
G37*
G36*
X53500Y90484D02*
X52469Y90348D01*
X51508Y89950D01*
X50683Y89317D01*
X50050Y88492D01*
X49652Y87531D01*
X49516Y86500D01*
X49652Y85469D01*
X50050Y84508D01*
X50683Y83683D01*
X51508Y83050D01*
X52469Y82652D01*
X53500Y82516D01*
X54531Y82652D01*
X55492Y83050D01*
X56317Y83683D01*
X56950Y84508D01*
X57348Y85469D01*
X57484Y86500D01*
X57348Y87531D01*
X56950Y88492D01*
X56317Y89317D01*
X55492Y89950D01*
X54531Y90348D01*
X53500Y90484D01*
D02*
G37*
G36*
X211087Y81119D02*
Y78584D01*
X213621D01*
X213572Y78957D01*
X213274Y79677D01*
X212799Y80296D01*
X212180Y80771D01*
X211460Y81069D01*
X211087Y81119D01*
D02*
G37*
G36*
X210286D02*
X209913Y81069D01*
X209193Y80771D01*
X208574Y80296D01*
X208099Y79677D01*
X207801Y78957D01*
X207752Y78584D01*
X210286D01*
Y81119D01*
D02*
G37*
G36*
X155162Y80241D02*
Y77706D01*
X157697D01*
X157648Y78079D01*
X157349Y78800D01*
X156875Y79418D01*
X156256Y79893D01*
X155535Y80192D01*
X155162Y80241D01*
D02*
G37*
G36*
X154362D02*
X153989Y80192D01*
X153268Y79893D01*
X152649Y79418D01*
X152175Y78800D01*
X151876Y78079D01*
X151827Y77706D01*
X154362D01*
Y80241D01*
D02*
G37*
G36*
X88500Y83288D02*
X87623Y83173D01*
X86806Y82834D01*
X86104Y82296D01*
X85566Y81594D01*
X85228Y80777D01*
X85112Y79900D01*
X85228Y79023D01*
X85566Y78206D01*
X86104Y77504D01*
X86806Y76966D01*
X87623Y76627D01*
X88500Y76512D01*
X89377Y76627D01*
X90194Y76966D01*
X90896Y77504D01*
X91434Y78206D01*
X91773Y79023D01*
X91888Y79900D01*
X91773Y80777D01*
X91434Y81594D01*
X90896Y82296D01*
X90194Y82834D01*
X89377Y83173D01*
X88500Y83288D01*
D02*
G37*
G36*
X68500D02*
X67623Y83173D01*
X66806Y82834D01*
X66104Y82296D01*
X65566Y81594D01*
X65228Y80777D01*
X65112Y79900D01*
X65228Y79023D01*
X65566Y78206D01*
X66104Y77504D01*
X66806Y76966D01*
X67623Y76627D01*
X68500Y76512D01*
X69377Y76627D01*
X70194Y76966D01*
X70896Y77504D01*
X71434Y78206D01*
X71772Y79023D01*
X71888Y79900D01*
X71772Y80777D01*
X71434Y81594D01*
X70896Y82296D01*
X70194Y82834D01*
X69377Y83173D01*
X68500Y83288D01*
D02*
G37*
G36*
X213621Y77784D02*
X211087D01*
Y75249D01*
X211460Y75298D01*
X212180Y75596D01*
X212799Y76071D01*
X213274Y76690D01*
X213572Y77410D01*
X213621Y77784D01*
D02*
G37*
G36*
X210286D02*
X207752D01*
X207801Y77410D01*
X208099Y76690D01*
X208574Y76071D01*
X209193Y75596D01*
X209913Y75298D01*
X210286Y75249D01*
Y77784D01*
D02*
G37*
G36*
X220687Y81373D02*
X219861Y81264D01*
X219092Y80946D01*
X218431Y80439D01*
X217924Y79778D01*
X217606Y79009D01*
X217497Y78184D01*
X217606Y77358D01*
X217924Y76589D01*
X218431Y75928D01*
X219092Y75422D01*
X219861Y75103D01*
X220687Y74994D01*
X221512Y75103D01*
X222281Y75422D01*
X222942Y75928D01*
X223448Y76589D01*
X223767Y77358D01*
X223876Y78184D01*
X223767Y79009D01*
X223448Y79778D01*
X222942Y80439D01*
X222281Y80946D01*
X221512Y81264D01*
X220687Y81373D01*
D02*
G37*
G36*
X200687D02*
X199861Y81264D01*
X199092Y80946D01*
X198431Y80439D01*
X197924Y79778D01*
X197606Y79009D01*
X197497Y78184D01*
X197606Y77358D01*
X197924Y76589D01*
X198431Y75928D01*
X199092Y75422D01*
X199861Y75103D01*
X200687Y74994D01*
X201512Y75103D01*
X202281Y75422D01*
X202942Y75928D01*
X203449Y76589D01*
X203767Y77358D01*
X203876Y78184D01*
X203767Y79009D01*
X203449Y79778D01*
X202942Y80439D01*
X202281Y80946D01*
X201512Y81264D01*
X200687Y81373D01*
D02*
G37*
G36*
X157697Y76906D02*
X155162D01*
Y74371D01*
X155535Y74420D01*
X156256Y74719D01*
X156875Y75194D01*
X157349Y75812D01*
X157648Y76533D01*
X157697Y76906D01*
D02*
G37*
G36*
X154362D02*
X151827D01*
X151876Y76533D01*
X152175Y75812D01*
X152649Y75194D01*
X153268Y74719D01*
X153989Y74420D01*
X154362Y74371D01*
Y76906D01*
D02*
G37*
G36*
X144762Y80495D02*
X143937Y80387D01*
X143167Y80068D01*
X142507Y79561D01*
X142000Y78901D01*
X141681Y78132D01*
X141573Y77306D01*
X141681Y76481D01*
X142000Y75711D01*
X142507Y75051D01*
X143167Y74544D01*
X143937Y74225D01*
X144762Y74117D01*
X145587Y74225D01*
X146357Y74544D01*
X147017Y75051D01*
X147524Y75711D01*
X147843Y76481D01*
X147951Y77306D01*
X147843Y78132D01*
X147524Y78901D01*
X147017Y79561D01*
X146357Y80068D01*
X145587Y80387D01*
X144762Y80495D01*
D02*
G37*
G36*
X134762D02*
X133937Y80387D01*
X133167Y80068D01*
X132507Y79561D01*
X132000Y78901D01*
X131681Y78132D01*
X131573Y77306D01*
X131681Y76481D01*
X132000Y75711D01*
X132507Y75051D01*
X133167Y74544D01*
X133937Y74225D01*
X134762Y74117D01*
X135587Y74225D01*
X136357Y74544D01*
X137017Y75051D01*
X137524Y75711D01*
X137843Y76481D01*
X137951Y77306D01*
X137843Y78132D01*
X137524Y78901D01*
X137017Y79561D01*
X136357Y80068D01*
X135587Y80387D01*
X134762Y80495D01*
D02*
G37*
G36*
X53500Y80484D02*
X52469Y80348D01*
X51508Y79950D01*
X50683Y79317D01*
X50050Y78492D01*
X49652Y77531D01*
X49516Y76500D01*
X49652Y75469D01*
X50050Y74508D01*
X50683Y73683D01*
X51508Y73050D01*
X52469Y72652D01*
X53500Y72516D01*
X54531Y72652D01*
X55492Y73050D01*
X56317Y73683D01*
X56950Y74508D01*
X57348Y75469D01*
X57484Y76500D01*
X57348Y77531D01*
X56950Y78492D01*
X56317Y79317D01*
X55492Y79950D01*
X54531Y80348D01*
X53500Y80484D01*
D02*
G37*
G36*
X63900Y72737D02*
Y70400D01*
X66237D01*
X66194Y70722D01*
X65916Y71395D01*
X65472Y71972D01*
X64895Y72416D01*
X64222Y72694D01*
X63900Y72737D01*
D02*
G37*
G36*
X63100D02*
X62778Y72694D01*
X62105Y72416D01*
X61528Y71972D01*
X61084Y71395D01*
X60806Y70722D01*
X60763Y70400D01*
X63100D01*
Y72737D01*
D02*
G37*
G36*
X66237Y69600D02*
X63900D01*
Y67263D01*
X64222Y67306D01*
X64895Y67584D01*
X65472Y68028D01*
X65916Y68605D01*
X66194Y69278D01*
X66237Y69600D01*
D02*
G37*
G36*
X63100D02*
X60763D01*
X60806Y69278D01*
X61084Y68605D01*
X61528Y68028D01*
X62105Y67584D01*
X62778Y67306D01*
X63100Y67263D01*
Y69600D01*
D02*
G37*
G36*
X93500Y72991D02*
X92726Y72889D01*
X92005Y72590D01*
X91385Y72115D01*
X90910Y71495D01*
X90611Y70774D01*
X90509Y70000D01*
X90611Y69226D01*
X90910Y68505D01*
X91385Y67885D01*
X92005Y67410D01*
X92726Y67111D01*
X93500Y67009D01*
X94274Y67111D01*
X94995Y67410D01*
X95615Y67885D01*
X96090Y68505D01*
X96389Y69226D01*
X96491Y70000D01*
X96389Y70774D01*
X96090Y71495D01*
X95615Y72115D01*
X94995Y72590D01*
X94274Y72889D01*
X93500Y72991D01*
D02*
G37*
G36*
X88900Y63134D02*
Y60400D01*
X91634D01*
X91578Y60825D01*
X91259Y61593D01*
X90753Y62253D01*
X90093Y62759D01*
X89325Y63078D01*
X88900Y63134D01*
D02*
G37*
G36*
X88100D02*
X87675Y63078D01*
X86907Y62759D01*
X86247Y62253D01*
X85741Y61593D01*
X85422Y60825D01*
X85366Y60400D01*
X88100D01*
Y63134D01*
D02*
G37*
G36*
X149500Y65797D02*
X148726Y65695D01*
X148004Y65396D01*
X147385Y64921D01*
X146910Y64302D01*
X146611Y63580D01*
X146509Y62806D01*
X146611Y62032D01*
X146910Y61310D01*
X147385Y60691D01*
X148004Y60216D01*
X148726Y59917D01*
X149500Y59815D01*
X150274Y59917D01*
X150996Y60216D01*
X151615Y60691D01*
X152090Y61310D01*
X152389Y62032D01*
X152491Y62806D01*
X152389Y63580D01*
X152090Y64302D01*
X151615Y64921D01*
X150996Y65396D01*
X150274Y65695D01*
X149500Y65797D01*
D02*
G37*
G36*
X139500Y65791D02*
X138726Y65689D01*
X138005Y65390D01*
X137385Y64915D01*
X136910Y64296D01*
X136611Y63574D01*
X136509Y62800D01*
X136611Y62026D01*
X136910Y61304D01*
X137385Y60685D01*
X138005Y60210D01*
X138726Y59911D01*
X139500Y59809D01*
X140274Y59911D01*
X140996Y60210D01*
X141615Y60685D01*
X142090Y61304D01*
X142389Y62026D01*
X142491Y62800D01*
X142389Y63574D01*
X142090Y64296D01*
X141615Y64915D01*
X140996Y65390D01*
X140274Y65689D01*
X139500Y65791D01*
D02*
G37*
G36*
X216928Y65652D02*
X210997D01*
Y59720D01*
X216928D01*
Y65652D01*
D02*
G37*
G36*
X189462Y66135D02*
X188601Y66021D01*
X187798Y65689D01*
X187108Y65160D01*
X186579Y64470D01*
X186247Y63668D01*
X186134Y62806D01*
X186247Y61945D01*
X186579Y61142D01*
X187108Y60452D01*
X187798Y59923D01*
X188601Y59591D01*
X189462Y59478D01*
X190323Y59591D01*
X191126Y59923D01*
X191816Y60452D01*
X192345Y61142D01*
X192677Y61945D01*
X192790Y62806D01*
X192677Y63668D01*
X192345Y64470D01*
X191816Y65160D01*
X191126Y65689D01*
X190323Y66021D01*
X189462Y66135D01*
D02*
G37*
G36*
X159462D02*
X158600Y66021D01*
X157798Y65689D01*
X157108Y65160D01*
X156579Y64470D01*
X156247Y63668D01*
X156133Y62806D01*
X156247Y61945D01*
X156579Y61142D01*
X157108Y60452D01*
X157798Y59923D01*
X158600Y59591D01*
X159462Y59478D01*
X160324Y59591D01*
X161126Y59923D01*
X161816Y60452D01*
X162345Y61142D01*
X162677Y61945D01*
X162791Y62806D01*
X162677Y63668D01*
X162345Y64470D01*
X161816Y65160D01*
X161126Y65689D01*
X160324Y66021D01*
X159462Y66135D01*
D02*
G37*
G36*
X199462Y66194D02*
X198585Y66079D01*
X197768Y65740D01*
X197066Y65202D01*
X196528Y64500D01*
X196189Y63683D01*
X196074Y62806D01*
X196189Y61929D01*
X196528Y61112D01*
X197066Y60410D01*
X197768Y59872D01*
X198585Y59534D01*
X199462Y59418D01*
X200339Y59534D01*
X201156Y59872D01*
X201858Y60410D01*
X202396Y61112D01*
X202734Y61929D01*
X202850Y62806D01*
X202734Y63683D01*
X202396Y64500D01*
X201858Y65202D01*
X201156Y65740D01*
X200339Y66079D01*
X199462Y66194D01*
D02*
G37*
G36*
X91634Y59600D02*
X88900D01*
Y56866D01*
X89325Y56922D01*
X90093Y57241D01*
X90753Y57747D01*
X91259Y58407D01*
X91578Y59175D01*
X91634Y59600D01*
D02*
G37*
G36*
X88100D02*
X85366D01*
X85422Y59175D01*
X85741Y58407D01*
X86247Y57747D01*
X86907Y57241D01*
X87675Y56922D01*
X88100Y56866D01*
Y59600D01*
D02*
G37*
G36*
X68500Y63388D02*
X67623Y63273D01*
X66806Y62934D01*
X66104Y62396D01*
X65566Y61694D01*
X65228Y60877D01*
X65112Y60000D01*
X65228Y59123D01*
X65566Y58306D01*
X66104Y57604D01*
X66806Y57066D01*
X67623Y56727D01*
X68500Y56612D01*
X69377Y56727D01*
X70194Y57066D01*
X70896Y57604D01*
X71434Y58306D01*
X71772Y59123D01*
X71888Y60000D01*
X71772Y60877D01*
X71434Y61694D01*
X70896Y62396D01*
X70194Y62934D01*
X69377Y63273D01*
X68500Y63388D01*
D02*
G37*
G36*
X53500Y63984D02*
X52469Y63848D01*
X51508Y63450D01*
X50683Y62817D01*
X50050Y61992D01*
X49652Y61031D01*
X49516Y60000D01*
X49652Y58969D01*
X50050Y58008D01*
X50683Y57183D01*
X51508Y56550D01*
X52469Y56152D01*
X53500Y56016D01*
X54531Y56152D01*
X55492Y56550D01*
X56317Y57183D01*
X56950Y58008D01*
X57348Y58969D01*
X57484Y60000D01*
X57348Y61031D01*
X56950Y61992D01*
X56317Y62817D01*
X55492Y63450D01*
X54531Y63848D01*
X53500Y63984D01*
D02*
G37*
G36*
X23500D02*
X22469Y63848D01*
X21508Y63450D01*
X20683Y62817D01*
X20050Y61992D01*
X19652Y61031D01*
X19516Y60000D01*
X19652Y58969D01*
X20050Y58008D01*
X20683Y57183D01*
X21508Y56550D01*
X22469Y56152D01*
X23500Y56016D01*
X24531Y56152D01*
X25492Y56550D01*
X26317Y57183D01*
X26950Y58008D01*
X27348Y58969D01*
X27484Y60000D01*
X27348Y61031D01*
X26950Y61992D01*
X26317Y62817D01*
X25492Y63450D01*
X24531Y63848D01*
X23500Y63984D01*
D02*
G37*
G36*
X214362Y57543D02*
Y55206D01*
X216699D01*
X216656Y55528D01*
X216378Y56201D01*
X215934Y56778D01*
X215357Y57222D01*
X214684Y57500D01*
X214362Y57543D01*
D02*
G37*
G36*
X213562D02*
X213240Y57500D01*
X212567Y57222D01*
X211990Y56778D01*
X211546Y56201D01*
X211268Y55528D01*
X211225Y55206D01*
X213562D01*
Y57543D01*
D02*
G37*
G36*
X216699Y54406D02*
X214362D01*
Y52069D01*
X214684Y52112D01*
X215357Y52390D01*
X215934Y52834D01*
X216378Y53411D01*
X216656Y54084D01*
X216699Y54406D01*
D02*
G37*
G36*
X213562D02*
X211225D01*
X211268Y54084D01*
X211546Y53411D01*
X211990Y52834D01*
X212567Y52390D01*
X213240Y52112D01*
X213562Y52069D01*
Y54406D01*
D02*
G37*
G36*
X88900Y53134D02*
Y50400D01*
X91634D01*
X91578Y50825D01*
X91259Y51593D01*
X90753Y52253D01*
X90093Y52759D01*
X89325Y53078D01*
X88900Y53134D01*
D02*
G37*
G36*
X88100D02*
X87675Y53078D01*
X86907Y52759D01*
X86247Y52253D01*
X85741Y51593D01*
X85422Y50825D01*
X85366Y50400D01*
X88100D01*
Y53134D01*
D02*
G37*
G36*
X189462Y56134D02*
X188601Y56021D01*
X187798Y55689D01*
X187108Y55160D01*
X186579Y54470D01*
X186247Y53667D01*
X186134Y52806D01*
X186247Y51945D01*
X186579Y51142D01*
X187108Y50452D01*
X187798Y49924D01*
X188601Y49591D01*
X189462Y49477D01*
X190323Y49591D01*
X191126Y49924D01*
X191816Y50452D01*
X192345Y51142D01*
X192677Y51945D01*
X192790Y52806D01*
X192677Y53667D01*
X192345Y54470D01*
X191816Y55160D01*
X191126Y55689D01*
X190323Y56021D01*
X189462Y56134D01*
D02*
G37*
G36*
X159462D02*
X158600Y56021D01*
X157798Y55689D01*
X157108Y55160D01*
X156579Y54470D01*
X156247Y53667D01*
X156133Y52806D01*
X156247Y51945D01*
X156579Y51142D01*
X157108Y50452D01*
X157798Y49924D01*
X158600Y49591D01*
X159462Y49477D01*
X160324Y49591D01*
X161126Y49924D01*
X161816Y50452D01*
X162345Y51142D01*
X162677Y51945D01*
X162791Y52806D01*
X162677Y53667D01*
X162345Y54470D01*
X161816Y55160D01*
X161126Y55689D01*
X160324Y56021D01*
X159462Y56134D01*
D02*
G37*
G36*
X91634Y49600D02*
X88900D01*
Y46866D01*
X89325Y46922D01*
X90093Y47241D01*
X90753Y47747D01*
X91259Y48407D01*
X91578Y49175D01*
X91634Y49600D01*
D02*
G37*
G36*
X88100D02*
X85366D01*
X85422Y49175D01*
X85741Y48407D01*
X86247Y47747D01*
X86907Y47241D01*
X87675Y46922D01*
X88100Y46866D01*
Y49600D01*
D02*
G37*
G36*
X68500Y53388D02*
X67623Y53272D01*
X66806Y52934D01*
X66104Y52396D01*
X65566Y51694D01*
X65228Y50877D01*
X65112Y50000D01*
X65228Y49123D01*
X65566Y48306D01*
X66104Y47604D01*
X66806Y47066D01*
X67623Y46727D01*
X68500Y46612D01*
X69377Y46727D01*
X70194Y47066D01*
X70896Y47604D01*
X71434Y48306D01*
X71772Y49123D01*
X71888Y50000D01*
X71772Y50877D01*
X71434Y51694D01*
X70896Y52396D01*
X70194Y52934D01*
X69377Y53272D01*
X68500Y53388D01*
D02*
G37*
G36*
X53500Y53984D02*
X52469Y53848D01*
X51508Y53450D01*
X50683Y52817D01*
X50050Y51992D01*
X49652Y51031D01*
X49516Y50000D01*
X49652Y48969D01*
X50050Y48008D01*
X50683Y47183D01*
X51508Y46550D01*
X52469Y46152D01*
X53500Y46016D01*
X54531Y46152D01*
X55492Y46550D01*
X56317Y47183D01*
X56950Y48008D01*
X57348Y48969D01*
X57484Y50000D01*
X57348Y51031D01*
X56950Y51992D01*
X56317Y52817D01*
X55492Y53450D01*
X54531Y53848D01*
X53500Y53984D01*
D02*
G37*
G36*
X23500D02*
X22469Y53848D01*
X21508Y53450D01*
X20683Y52817D01*
X20050Y51992D01*
X19652Y51031D01*
X19516Y50000D01*
X19652Y48969D01*
X20050Y48008D01*
X20683Y47183D01*
X21508Y46550D01*
X22469Y46152D01*
X23500Y46016D01*
X24531Y46152D01*
X25492Y46550D01*
X26317Y47183D01*
X26950Y48008D01*
X27348Y48969D01*
X27484Y50000D01*
X27348Y51031D01*
X26950Y51992D01*
X26317Y52817D01*
X25492Y53450D01*
X24531Y53848D01*
X23500Y53984D01*
D02*
G37*
G36*
X199862Y45940D02*
Y43206D01*
X202596D01*
X202540Y43631D01*
X202221Y44399D01*
X201715Y45059D01*
X201055Y45565D01*
X200287Y45884D01*
X199862Y45940D01*
D02*
G37*
G36*
X199062D02*
X198637Y45884D01*
X197869Y45565D01*
X197209Y45059D01*
X196703Y44399D01*
X196384Y43631D01*
X196328Y43206D01*
X199062D01*
Y45940D01*
D02*
G37*
G36*
X202596Y42406D02*
X199862D01*
Y39672D01*
X200287Y39728D01*
X201055Y40047D01*
X201715Y40553D01*
X202221Y41213D01*
X202540Y41981D01*
X202596Y42406D01*
D02*
G37*
G36*
X199062D02*
X196328D01*
X196384Y41981D01*
X196703Y41213D01*
X197209Y40553D01*
X197869Y40047D01*
X198637Y39728D01*
X199062Y39672D01*
Y42406D01*
D02*
G37*
G36*
X189462Y46134D02*
X188601Y46021D01*
X187798Y45689D01*
X187108Y45160D01*
X186579Y44470D01*
X186247Y43668D01*
X186134Y42806D01*
X186247Y41945D01*
X186579Y41142D01*
X187108Y40452D01*
X187798Y39924D01*
X188601Y39591D01*
X189462Y39478D01*
X190323Y39591D01*
X191126Y39924D01*
X191816Y40452D01*
X192345Y41142D01*
X192677Y41945D01*
X192790Y42806D01*
X192677Y43668D01*
X192345Y44470D01*
X191816Y45160D01*
X191126Y45689D01*
X190323Y46021D01*
X189462Y46134D01*
D02*
G37*
G36*
X159462D02*
X158600Y46021D01*
X157798Y45689D01*
X157108Y45160D01*
X156579Y44470D01*
X156247Y43668D01*
X156133Y42806D01*
X156247Y41945D01*
X156579Y41142D01*
X157108Y40452D01*
X157798Y39924D01*
X158600Y39591D01*
X159462Y39478D01*
X160324Y39591D01*
X161126Y39924D01*
X161816Y40452D01*
X162345Y41142D01*
X162677Y41945D01*
X162791Y42806D01*
X162677Y43668D01*
X162345Y44470D01*
X161816Y45160D01*
X161126Y45689D01*
X160324Y46021D01*
X159462Y46134D01*
D02*
G37*
G36*
X159862Y35880D02*
Y33206D01*
X162536D01*
X162482Y33615D01*
X162170Y34369D01*
X161673Y35017D01*
X161025Y35514D01*
X160271Y35826D01*
X159862Y35880D01*
D02*
G37*
G36*
X159062D02*
X158653Y35826D01*
X157899Y35514D01*
X157251Y35017D01*
X156754Y34369D01*
X156442Y33615D01*
X156388Y33206D01*
X159062D01*
Y35880D01*
D02*
G37*
G36*
X43500Y38888D02*
X42623Y38772D01*
X41806Y38434D01*
X41104Y37896D01*
X40566Y37194D01*
X40227Y36377D01*
X40112Y35500D01*
X40227Y34623D01*
X40566Y33806D01*
X41104Y33104D01*
X41806Y32566D01*
X42623Y32228D01*
X43500Y32112D01*
X44377Y32228D01*
X45194Y32566D01*
X45896Y33104D01*
X46434Y33806D01*
X46773Y34623D01*
X46888Y35500D01*
X46773Y36377D01*
X46434Y37194D01*
X45896Y37896D01*
X45194Y38434D01*
X44377Y38772D01*
X43500Y38888D01*
D02*
G37*
G36*
X23500D02*
X22623Y38772D01*
X21806Y38434D01*
X21104Y37896D01*
X20566Y37194D01*
X20227Y36377D01*
X20112Y35500D01*
X20227Y34623D01*
X20566Y33806D01*
X21104Y33104D01*
X21806Y32566D01*
X22623Y32228D01*
X23500Y32112D01*
X24377Y32228D01*
X25194Y32566D01*
X25896Y33104D01*
X26434Y33806D01*
X26772Y34623D01*
X26888Y35500D01*
X26772Y36377D01*
X26434Y37194D01*
X25896Y37896D01*
X25194Y38434D01*
X24377Y38772D01*
X23500Y38888D01*
D02*
G37*
G36*
X149500Y35797D02*
X148726Y35695D01*
X148004Y35396D01*
X147385Y34921D01*
X146910Y34301D01*
X146611Y33580D01*
X146509Y32806D01*
X146611Y32032D01*
X146910Y31310D01*
X147385Y30691D01*
X148004Y30216D01*
X148726Y29917D01*
X149500Y29815D01*
X150274Y29917D01*
X150996Y30216D01*
X151615Y30691D01*
X152090Y31310D01*
X152389Y32032D01*
X152491Y32806D01*
X152389Y33580D01*
X152090Y34301D01*
X151615Y34921D01*
X150996Y35396D01*
X150274Y35695D01*
X149500Y35797D01*
D02*
G37*
G36*
X139500Y35791D02*
X138726Y35689D01*
X138005Y35390D01*
X137385Y34915D01*
X136910Y34295D01*
X136611Y33574D01*
X136509Y32800D01*
X136611Y32026D01*
X136910Y31304D01*
X137385Y30685D01*
X138005Y30210D01*
X138726Y29911D01*
X139500Y29809D01*
X140274Y29911D01*
X140996Y30210D01*
X141615Y30685D01*
X142090Y31304D01*
X142389Y32026D01*
X142491Y32800D01*
X142389Y33574D01*
X142090Y34295D01*
X141615Y34915D01*
X140996Y35390D01*
X140274Y35689D01*
X139500Y35791D01*
D02*
G37*
G36*
X162536Y32406D02*
X159862D01*
Y29732D01*
X160271Y29786D01*
X161025Y30098D01*
X161673Y30595D01*
X162170Y31243D01*
X162482Y31997D01*
X162536Y32406D01*
D02*
G37*
G36*
X159062D02*
X156388D01*
X156442Y31997D01*
X156754Y31243D01*
X157251Y30595D01*
X157899Y30098D01*
X158653Y29786D01*
X159062Y29732D01*
Y32406D01*
D02*
G37*
G36*
X189462Y36134D02*
X188601Y36021D01*
X187798Y35689D01*
X187108Y35160D01*
X186579Y34470D01*
X186247Y33667D01*
X186134Y32806D01*
X186247Y31945D01*
X186579Y31142D01*
X187108Y30452D01*
X187798Y29923D01*
X188601Y29591D01*
X189462Y29478D01*
X190323Y29591D01*
X191126Y29923D01*
X191816Y30452D01*
X192345Y31142D01*
X192677Y31945D01*
X192790Y32806D01*
X192677Y33667D01*
X192345Y34470D01*
X191816Y35160D01*
X191126Y35689D01*
X190323Y36021D01*
X189462Y36134D01*
D02*
G37*
G36*
X43900Y28634D02*
Y25900D01*
X46634D01*
X46578Y26325D01*
X46259Y27093D01*
X45753Y27753D01*
X45093Y28259D01*
X44325Y28578D01*
X43900Y28634D01*
D02*
G37*
G36*
X43100D02*
X42675Y28578D01*
X41907Y28259D01*
X41247Y27753D01*
X40741Y27093D01*
X40422Y26325D01*
X40366Y25900D01*
X43100D01*
Y28634D01*
D02*
G37*
G36*
X117525Y29189D02*
X116699Y29081D01*
X115930Y28762D01*
X115269Y28255D01*
X114762Y27595D01*
X114444Y26825D01*
X114335Y26000D01*
X114444Y25174D01*
X114762Y24405D01*
X115269Y23745D01*
X115930Y23238D01*
X116699Y22919D01*
X117525Y22811D01*
X118350Y22919D01*
X119119Y23238D01*
X119780Y23745D01*
X120287Y24405D01*
X120605Y25174D01*
X120714Y26000D01*
X120605Y26825D01*
X120287Y27595D01*
X119780Y28255D01*
X119119Y28762D01*
X118350Y29081D01*
X117525Y29189D01*
D02*
G37*
G36*
X46634Y25100D02*
X43900D01*
Y22366D01*
X44325Y22422D01*
X45093Y22741D01*
X45753Y23247D01*
X46259Y23907D01*
X46578Y24675D01*
X46634Y25100D01*
D02*
G37*
G36*
X43100D02*
X40366D01*
X40422Y24675D01*
X40741Y23907D01*
X41247Y23247D01*
X41907Y22741D01*
X42675Y22422D01*
X43100Y22366D01*
Y25100D01*
D02*
G37*
G36*
X23500Y28888D02*
X22623Y28773D01*
X21806Y28434D01*
X21104Y27896D01*
X20566Y27194D01*
X20227Y26377D01*
X20112Y25500D01*
X20227Y24623D01*
X20566Y23806D01*
X21104Y23104D01*
X21806Y22566D01*
X22623Y22228D01*
X23500Y22112D01*
X24377Y22228D01*
X25194Y22566D01*
X25896Y23104D01*
X26434Y23806D01*
X26772Y24623D01*
X26888Y25500D01*
X26772Y26377D01*
X26434Y27194D01*
X25896Y27896D01*
X25194Y28434D01*
X24377Y28773D01*
X23500Y28888D01*
D02*
G37*
G36*
X214847Y22635D02*
X213777Y22494D01*
X212779Y22081D01*
X211923Y21424D01*
X211266Y20568D01*
X210853Y19570D01*
X210712Y18500D01*
X210853Y17430D01*
X211266Y16432D01*
X211923Y15576D01*
X212779Y14919D01*
X213777Y14505D01*
X214847Y14365D01*
X215917Y14505D01*
X216915Y14919D01*
X217771Y15576D01*
X218428Y16432D01*
X218841Y17430D01*
X218982Y18500D01*
X218841Y19570D01*
X218428Y20568D01*
X217771Y21424D01*
X216915Y22081D01*
X215917Y22494D01*
X214847Y22635D01*
D02*
G37*
G36*
X110687Y19162D02*
X104362D01*
Y12838D01*
X110687D01*
Y19162D01*
D02*
G37*
G36*
X127524Y19189D02*
X126699Y19081D01*
X125930Y18762D01*
X125269Y18255D01*
X124762Y17595D01*
X124444Y16826D01*
X124335Y16000D01*
X124444Y15175D01*
X124762Y14405D01*
X125269Y13745D01*
X125930Y13238D01*
X126699Y12919D01*
X127524Y12811D01*
X128350Y12919D01*
X129119Y13238D01*
X129780Y13745D01*
X130287Y14405D01*
X130605Y15175D01*
X130714Y16000D01*
X130605Y16826D01*
X130287Y17595D01*
X129780Y18255D01*
X129119Y18762D01*
X128350Y19081D01*
X127524Y19189D01*
D02*
G37*
G36*
X191652Y15178D02*
Y12000D01*
X194830D01*
X194759Y12540D01*
X194396Y13416D01*
X193819Y14167D01*
X193067Y14745D01*
X192192Y15107D01*
X191652Y15178D01*
D02*
G37*
G36*
X190852D02*
X190312Y15107D01*
X189436Y14745D01*
X188684Y14167D01*
X188107Y13416D01*
X187744Y12540D01*
X187673Y12000D01*
X190852D01*
Y15178D01*
D02*
G37*
G36*
X159900D02*
Y12000D01*
X163078D01*
X163007Y12540D01*
X162645Y13416D01*
X162068Y14167D01*
X161316Y14745D01*
X160440Y15107D01*
X159900Y15178D01*
D02*
G37*
G36*
X159100D02*
X158560Y15107D01*
X157685Y14745D01*
X156932Y14167D01*
X156355Y13416D01*
X155993Y12540D01*
X155922Y12000D01*
X159100D01*
Y15178D01*
D02*
G37*
G36*
X218747Y12400D02*
X215247D01*
Y8900D01*
X218747D01*
Y12400D01*
D02*
G37*
G36*
X214447D02*
X210947D01*
Y8900D01*
X214447D01*
Y12400D01*
D02*
G37*
G36*
X190852Y11200D02*
X187673D01*
X187744Y10660D01*
X188107Y9785D01*
X188684Y9032D01*
X189436Y8455D01*
X190312Y8093D01*
X190852Y8022D01*
Y11200D01*
D02*
G37*
G36*
X163078Y11200D02*
X159900D01*
Y8022D01*
X160440Y8093D01*
X161316Y8455D01*
X162068Y9032D01*
X162645Y9785D01*
X163007Y10660D01*
X163078Y11200D01*
D02*
G37*
G36*
X159100D02*
X155922D01*
X155993Y10660D01*
X156355Y9785D01*
X156932Y9032D01*
X157685Y8455D01*
X158560Y8093D01*
X159100Y8022D01*
Y11200D01*
D02*
G37*
G36*
X194830Y11200D02*
X191652D01*
Y8022D01*
X192192Y8093D01*
X193067Y8455D01*
X193819Y9032D01*
X194396Y9785D01*
X194759Y10660D01*
X194830Y11200D01*
D02*
G37*
G36*
X181252Y15433D02*
X180260Y15302D01*
X179335Y14919D01*
X178542Y14310D01*
X177933Y13516D01*
X177550Y12592D01*
X177419Y11600D01*
X177550Y10608D01*
X177933Y9684D01*
X178542Y8890D01*
X179335Y8281D01*
X180260Y7898D01*
X181252Y7767D01*
X182244Y7898D01*
X183168Y8281D01*
X183962Y8890D01*
X184571Y9684D01*
X184954Y10608D01*
X185085Y11600D01*
X184954Y12592D01*
X184571Y13516D01*
X183962Y14310D01*
X183168Y14919D01*
X182244Y15302D01*
X181252Y15433D01*
D02*
G37*
G36*
X149500D02*
X148508Y15302D01*
X147584Y14919D01*
X146790Y14310D01*
X146181Y13516D01*
X145798Y12592D01*
X145667Y11600D01*
X145798Y10608D01*
X146181Y9684D01*
X146790Y8890D01*
X147584Y8281D01*
X148508Y7898D01*
X149500Y7767D01*
X150492Y7898D01*
X151416Y8281D01*
X152210Y8890D01*
X152819Y9684D01*
X153202Y10608D01*
X153333Y11600D01*
X153202Y12592D01*
X152819Y13516D01*
X152210Y14310D01*
X151416Y14919D01*
X150492Y15302D01*
X149500Y15433D01*
D02*
G37*
G36*
X218747Y8100D02*
X215247D01*
Y4600D01*
X218747D01*
Y8100D01*
D02*
G37*
G36*
X214447D02*
X210947D01*
Y4600D01*
X214447D01*
Y8100D01*
D02*
G37*
%LPD*%
D12*
X201496Y238896D02*
X211100Y248500D01*
X201496Y211495D02*
Y238896D01*
X195500Y205500D02*
X201496Y211495D01*
X93500Y151000D02*
X102016Y142484D01*
Y123984D02*
Y142484D01*
Y123984D02*
X106000Y120000D01*
X115000Y286366D02*
Y295500D01*
X104000Y275366D02*
X115000Y286366D01*
X78500Y275366D02*
X84000D01*
X37766Y316100D02*
X78500Y275366D01*
X29692Y316100D02*
X37766D01*
X74462Y210500D02*
X80873D01*
X80962Y210589D01*
X63500Y221462D02*
X74462Y210500D01*
X76000Y163500D02*
Y175174D01*
X70174Y181000D02*
X76000Y175174D01*
X63500Y181000D02*
X70174D01*
X45255Y148745D02*
Y178745D01*
X34500Y189500D02*
X45255Y178745D01*
X34500Y189500D02*
Y260500D01*
X43500Y269500D01*
X45255Y148745D02*
X53500Y140500D01*
X63500Y151000D02*
X76000Y163500D01*
X63500Y141146D02*
Y151000D01*
Y141146D02*
X84646Y120000D01*
X93500D01*
X50811Y99911D02*
X53411D01*
X27400Y76500D02*
X50811Y99911D01*
X23500Y76500D02*
X27400D01*
X53411Y99911D02*
X53500Y100000D01*
X50509Y109845D02*
X53345D01*
X53500Y110000D01*
X27564Y86900D02*
X50509Y109845D01*
X23900Y86900D02*
X27564D01*
X23500Y86500D02*
X23900Y86900D01*
D39*
X95000Y219500D02*
X102152Y212348D01*
X83241Y219500D02*
X95000D01*
X69241Y233500D02*
X83241Y219500D01*
X149500Y161000D02*
X170000D01*
X149500Y191000D02*
X170000D01*
X121500Y111389D02*
Y161000D01*
X110111Y100000D02*
X121500Y111389D01*
X93500Y100000D02*
X110111D01*
X175500Y87400D02*
Y116000D01*
X140000Y151500D02*
X175500Y116000D01*
X140000Y151500D02*
Y161000D01*
X102152Y170348D02*
X111500Y161000D01*
X102152Y170348D02*
Y212348D01*
X111500Y161000D02*
X121500D01*
X140000D02*
Y202071D01*
X131500Y161000D02*
X140000D01*
Y202071D02*
X144019Y206090D01*
Y234500D01*
X134000D02*
X144019D01*
Y258000D01*
X129000Y308519D02*
X144019Y293500D01*
Y258000D02*
Y293500D01*
X129000Y308519D02*
Y352500D01*
X125600Y355900D02*
X129000Y352500D01*
X116250Y355900D02*
X125600D01*
X175500Y87400D02*
X184768Y78132D01*
X189700D01*
X43500Y221462D02*
X55538Y233500D01*
X69241D01*
D40*
X23500Y76500D02*
D03*
Y86500D02*
D03*
X53500Y76500D02*
D03*
Y86500D02*
D03*
Y60000D02*
D03*
Y50000D02*
D03*
X23500Y60000D02*
D03*
Y50000D02*
D03*
X136000Y120000D02*
D03*
Y110000D02*
D03*
X106000Y120000D02*
D03*
Y110000D02*
D03*
X22474Y245000D02*
D03*
X52473D02*
D03*
D41*
X80962Y210589D02*
D03*
X54000Y151000D02*
D03*
X34000Y171000D02*
D03*
X195500Y205500D02*
D03*
X185500D02*
D03*
X175500D02*
D03*
X211500Y227387D02*
D03*
X127524Y16000D02*
D03*
X117525Y26000D02*
D03*
X211100Y258500D02*
D03*
X149500Y181000D02*
D03*
X154019Y234500D02*
D03*
X114000D02*
D03*
X124000D02*
D03*
X134000D02*
D03*
X154762Y77306D02*
D03*
X144762D02*
D03*
X134762D02*
D03*
X84000Y234500D02*
D03*
X24000Y151000D02*
D03*
X200687Y78184D02*
D03*
X210686D02*
D03*
X220687D02*
D03*
X149500Y171000D02*
D03*
X34000Y161000D02*
D03*
X90424Y190589D02*
D03*
D42*
X80962D02*
D03*
X211500Y237387D02*
D03*
X211100Y248500D02*
D03*
X149500Y191000D02*
D03*
X24000Y171000D02*
D03*
X149500Y161000D02*
D03*
X90424Y210589D02*
D03*
D43*
X34000Y151000D02*
D03*
X54000Y171000D02*
D03*
X107525Y16000D02*
D03*
X144019Y234500D02*
D03*
X104000D02*
D03*
X54000Y161000D02*
D03*
D44*
X22504Y259000D02*
D03*
X52504D02*
D03*
X195189Y215500D02*
D03*
Y245500D02*
D03*
X185500D02*
D03*
Y215500D02*
D03*
X175500D02*
D03*
Y245500D02*
D03*
X200000Y191000D02*
D03*
X170000D02*
D03*
X200000Y161000D02*
D03*
X170000D02*
D03*
X23500Y110000D02*
D03*
X53500D02*
D03*
Y100000D02*
D03*
X23500D02*
D03*
X93500Y70000D02*
D03*
X63500D02*
D03*
X93500Y90000D02*
D03*
X63500D02*
D03*
X139500Y62800D02*
D03*
Y32800D02*
D03*
X189700Y86011D02*
D03*
X149500Y32806D02*
D03*
Y62806D02*
D03*
X111500Y191000D02*
D03*
Y161000D02*
D03*
X121500Y191000D02*
D03*
Y161000D02*
D03*
X213962Y54806D02*
D03*
X93500Y181000D02*
D03*
X63500D02*
D03*
X53500Y130000D02*
D03*
X23500D02*
D03*
X53500Y120000D02*
D03*
X23500D02*
D03*
X93500Y161000D02*
D03*
X63500D02*
D03*
X200000Y171000D02*
D03*
X170000D02*
D03*
X63500Y151000D02*
D03*
X93500D02*
D03*
X11000Y237622D02*
D03*
Y267622D02*
D03*
X24000Y181000D02*
D03*
X54000D02*
D03*
X131500Y161000D02*
D03*
Y191000D02*
D03*
D45*
X175506Y181000D02*
D03*
X195506D02*
D03*
X131000Y145000D02*
D03*
X111000D02*
D03*
X131000Y134500D02*
D03*
X111000D02*
D03*
X68500Y50000D02*
D03*
X88500D02*
D03*
Y60000D02*
D03*
X68500D02*
D03*
X114032Y249800D02*
D03*
X134032D02*
D03*
X53500Y140500D02*
D03*
X33500D02*
D03*
X199462Y42806D02*
D03*
Y62806D02*
D03*
X93500Y141000D02*
D03*
X73500D02*
D03*
X43500Y25500D02*
D03*
X23500D02*
D03*
Y35500D02*
D03*
X43500D02*
D03*
X200000Y138500D02*
D03*
X180000D02*
D03*
Y128000D02*
D03*
X200000D02*
D03*
X88500Y171000D02*
D03*
X68500D02*
D03*
X88500Y79900D02*
D03*
X68500D02*
D03*
D46*
X189700Y78132D02*
D03*
X213962Y62686D02*
D03*
D47*
X115000Y295500D02*
D03*
X125000D02*
D03*
Y265500D02*
D03*
X115000D02*
D03*
X189462Y32806D02*
D03*
Y42806D02*
D03*
Y62806D02*
D03*
Y52806D02*
D03*
X159462Y32806D02*
D03*
Y42806D02*
D03*
Y52806D02*
D03*
Y62806D02*
D03*
X63500Y130000D02*
D03*
Y120000D02*
D03*
Y110000D02*
D03*
Y100000D02*
D03*
X93500Y120000D02*
D03*
Y130000D02*
D03*
Y110000D02*
D03*
Y100000D02*
D03*
D48*
X209000Y269500D02*
D03*
Y150000D02*
D03*
X63500Y269500D02*
D03*
D49*
X189000D02*
D03*
X169000D02*
D03*
X189000Y150000D02*
D03*
X169000D02*
D03*
X43500Y269500D02*
D03*
X23500D02*
D03*
D50*
X116250Y355900D02*
D03*
Y332278D02*
D03*
D51*
X214847Y18500D02*
D03*
D52*
Y8500D02*
D03*
D53*
X181252Y11600D02*
D03*
X191252D02*
D03*
X149500D02*
D03*
X159500D02*
D03*
D54*
X138911Y341100D02*
D03*
X202809D02*
D03*
X138911Y366100D02*
D03*
X202809D02*
D03*
X138911Y316100D02*
D03*
X202809D02*
D03*
X29692Y341100D02*
D03*
X93590D02*
D03*
X29692Y366100D02*
D03*
X93590D02*
D03*
X29692Y316100D02*
D03*
X93590D02*
D03*
D55*
X84000Y245366D02*
D03*
Y265366D02*
D03*
Y275366D02*
D03*
Y285366D02*
D03*
X104000D02*
D03*
Y275366D02*
D03*
Y265366D02*
D03*
Y245366D02*
D03*
D56*
X23500Y221462D02*
D03*
D57*
X43500D02*
D03*
X63500D02*
D03*
X23500Y201462D02*
D03*
X43500D02*
D03*
X63500D02*
D03*
D58*
X144019Y258000D02*
D03*
D59*
X172019D02*
D03*
D60*
X109500Y229700D02*
D03*
X138400D02*
D03*
X131500Y125000D02*
D03*
X98300Y135500D02*
D03*
X41000Y155500D02*
D03*
X49177D02*
D03*
X38391Y254000D02*
D03*
X3700Y204000D02*
D03*
X43000Y190500D02*
D03*
X28700Y304000D02*
D03*
X69000Y208334D02*
D03*
X78700Y379000D02*
D03*
X203700Y279000D02*
D03*
X228700Y79000D02*
D03*
X38691Y167500D02*
D03*
X107728Y179000D02*
D03*
X33500Y184066D02*
D03*
X103700Y29000D02*
D03*
X153700Y4000D02*
D03*
X100500Y115500D02*
D03*
X153700Y129000D02*
D03*
X178700Y354000D02*
D03*
X156606Y156153D02*
D03*
X126500Y140175D02*
D03*
X84500Y153991D02*
D03*
X3700Y29000D02*
D03*
X98000Y154081D02*
D03*
X155535Y176000D02*
D03*
X3700Y254000D02*
D03*
X53700Y4000D02*
D03*
X73500Y125000D02*
D03*
X128700Y104000D02*
D03*
X78700Y304000D02*
D03*
X58000Y104000D02*
D03*
X228700Y254000D02*
D03*
X178700Y329000D02*
D03*
X228700Y204000D02*
D03*
X170500Y104000D02*
D03*
X28700Y379000D02*
D03*
X103700Y329000D02*
D03*
X43500Y140600D02*
D03*
X192666Y160000D02*
D03*
X138000Y291500D02*
D03*
X145000Y196500D02*
D03*
X3700Y129000D02*
D03*
X169226Y204000D02*
D03*
X38391Y209500D02*
D03*
X103700Y79000D02*
D03*
X203700Y29000D02*
D03*
X134826Y179000D02*
D03*
X3700Y354000D02*
D03*
X77000Y272000D02*
D03*
X228700Y279000D02*
D03*
X28700Y209500D02*
D03*
X69000Y254000D02*
D03*
X178700Y229000D02*
D03*
X228700Y154000D02*
D03*
X153700Y379000D02*
D03*
X35896Y105500D02*
D03*
X216000Y179000D02*
D03*
X178700Y254000D02*
D03*
X103700Y54000D02*
D03*
X228700Y354000D02*
D03*
X3700Y279000D02*
D03*
X216000Y153889D02*
D03*
X97000Y187000D02*
D03*
X28700Y254000D02*
D03*
X69000Y185000D02*
D03*
X76500Y153889D02*
D03*
X103700Y379000D02*
D03*
X3700Y4000D02*
D03*
X228700Y129000D02*
D03*
X145000Y153889D02*
D03*
X77000Y234900D02*
D03*
X165000Y185962D02*
D03*
X3700Y154000D02*
D03*
X48000Y81500D02*
D03*
X170000Y128943D02*
D03*
X107493Y196173D02*
D03*
X14000Y229000D02*
D03*
X77000Y206000D02*
D03*
X153700Y29000D02*
D03*
X228700Y104000D02*
D03*
X3700Y229000D02*
D03*
X228700Y54000D02*
D03*
X190325Y210589D02*
D03*
X170000Y143434D02*
D03*
X203700Y4000D02*
D03*
X151827Y104000D02*
D03*
X128700Y379000D02*
D03*
X24000Y190500D02*
D03*
X178700Y154000D02*
D03*
X103700Y4000D02*
D03*
X3700Y304000D02*
D03*
X53700Y29000D02*
D03*
X178700Y4000D02*
D03*
X78700Y29000D02*
D03*
X155000Y143434D02*
D03*
X138911Y279000D02*
D03*
X39000Y81594D02*
D03*
X203700Y204000D02*
D03*
X128700Y4000D02*
D03*
X203700Y54000D02*
D03*
Y329000D02*
D03*
X30919Y129000D02*
D03*
X69000Y239000D02*
D03*
X78700Y4000D02*
D03*
X28700Y329000D02*
D03*
X3700Y104000D02*
D03*
X80000Y184500D02*
D03*
X53700Y204000D02*
D03*
X59000Y155500D02*
D03*
X153700Y329000D02*
D03*
X59000Y166000D02*
D03*
X38391Y230500D02*
D03*
X180661Y104000D02*
D03*
X178700Y304000D02*
D03*
X204657Y143000D02*
D03*
X116762Y140123D02*
D03*
X70000Y278129D02*
D03*
X97000Y209000D02*
D03*
X53700Y279000D02*
D03*
X128700Y154000D02*
D03*
X180260Y210589D02*
D03*
X139000Y209000D02*
D03*
X103700Y354000D02*
D03*
X53700Y379000D02*
D03*
X58000Y125000D02*
D03*
X205297Y229000D02*
D03*
X185712Y179000D02*
D03*
X75000Y104000D02*
D03*
X112895Y125000D02*
D03*
X228700Y4000D02*
D03*
X175500Y274500D02*
D03*
X228700Y29000D02*
D03*
X28700Y279000D02*
D03*
X3700Y329000D02*
D03*
X78700Y54000D02*
D03*
X14000Y179000D02*
D03*
X149000Y208995D02*
D03*
X53700Y354000D02*
D03*
X85366Y125000D02*
D03*
X28700Y4000D02*
D03*
Y54000D02*
D03*
X228700Y304000D02*
D03*
X53700Y329000D02*
D03*
X78700Y354000D02*
D03*
X203700D02*
D03*
X14000Y154000D02*
D03*
X203700Y304000D02*
D03*
X153700D02*
D03*
X78700Y79000D02*
D03*
X28700Y230500D02*
D03*
X153725Y57500D02*
D03*
X178700Y54000D02*
D03*
X3700Y79000D02*
D03*
X153700Y354000D02*
D03*
X14000Y204000D02*
D03*
X17500Y79023D02*
D03*
X228700Y329000D02*
D03*
X164750Y165741D02*
D03*
X228700Y179000D02*
D03*
X128700Y29000D02*
D03*
X28700D02*
D03*
X228700Y229000D02*
D03*
X149100Y279000D02*
D03*
X107325Y209000D02*
D03*
X69000Y176789D02*
D03*
X77000Y217615D02*
D03*
X103700Y304000D02*
D03*
X205297Y104000D02*
D03*
X3700Y179000D02*
D03*
X213500Y129041D02*
D03*
X124000Y218275D02*
D03*
X3700Y54000D02*
D03*
X77000Y254000D02*
D03*
X153700D02*
D03*
X178700Y379000D02*
D03*
X85366Y104000D02*
D03*
X203700Y254000D02*
D03*
X187674Y128943D02*
D03*
X112500Y154081D02*
D03*
X203700Y379000D02*
D03*
X97000Y171400D02*
D03*
X78700Y329000D02*
D03*
X27348Y105500D02*
D03*
X128700Y54000D02*
D03*
X28700Y354000D02*
D03*
X102000Y252000D02*
D03*
X134675Y196500D02*
D03*
X113500Y111495D02*
D03*
X128700Y79000D02*
D03*
Y254000D02*
D03*
X100500Y105500D02*
D03*
X118000Y173396D02*
D03*
X198749Y114500D02*
D03*
X58000Y228500D02*
D03*
X48000Y53726D02*
D03*
X106500Y140123D02*
D03*
X126500Y303000D02*
D03*
X110578Y290000D02*
D03*
X114237Y279000D02*
D03*
X89199Y240000D02*
D03*
X98567D02*
D03*
X110726Y242000D02*
D03*
X93590Y269737D02*
D03*
Y261000D02*
D03*
X196000Y70774D02*
D03*
X175000Y79418D02*
D03*
M02*
