G04*
G04 #@! TF.GenerationSoftware,Altium Limited,Altium Designer,19.1.6 (110)*
G04*
G04 Layer_Color=32768*
%FSLAX25Y25*%
%MOIN*%
G70*
G01*
G75*
%ADD80C,0.00100*%
%ADD81C,0.07874*%
D80*
Y3937D01*
Y393701D01*
X590551D01*
X590551Y0D01*
X0D02*
X590551D01*
D81*
X40698Y318453D02*
G03*
X36761Y314516I0J-3937D01*
G01*
X40698Y318453D02*
G03*
X36761Y314516I0J-3937D01*
G01*
X36761Y56532D02*
G03*
X40698Y52594I3937J0D01*
G01*
X36761Y56532D02*
G03*
X40698Y52594I3937J0D01*
G01*
X277135Y314516D02*
G03*
X273198Y318453I-3937J0D01*
G01*
X277135Y314516D02*
G03*
X273198Y318453I-3937J0D01*
G01*
X273198Y52594D02*
G03*
X277135Y56532I0J3937D01*
G01*
X273198Y52594D02*
G03*
X277135Y56532I0J3937D01*
G01*
X254100Y342016D02*
G03*
X250163Y345953I-3937J0D01*
G01*
X254100Y342016D02*
G03*
X250163Y345953I-3937J0D01*
G01*
X63728D02*
G03*
X59791Y342016I0J-3937D01*
G01*
X63728Y345953D02*
G03*
X59791Y342016I0J-3937D01*
G01*
X63728Y345953D02*
X250163D01*
X40698Y52594D02*
X273198D01*
X254100Y318453D02*
X273198D01*
X40698D02*
X59791D01*
X277135Y260516D02*
X277135Y110516D01*
X36761Y110516D02*
X36761Y260516D01*
X277135Y285516D02*
Y314516D01*
X277135Y56532D02*
Y85516D01*
X254100Y318453D02*
Y342016D01*
X59791Y318453D02*
Y342016D01*
X36761Y285516D02*
Y314516D01*
X36761Y56532D02*
Y85516D01*
X312568Y318453D02*
G03*
X308631Y314516I0J-3937D01*
G01*
X312568Y318453D02*
G03*
X308631Y314516I0J-3937D01*
G01*
X308631Y56532D02*
G03*
X312568Y52594I3937J0D01*
G01*
X308631Y56532D02*
G03*
X312568Y52594I3937J0D01*
G01*
X549006Y314516D02*
G03*
X545069Y318453I-3937J0D01*
G01*
X549006Y314516D02*
G03*
X545069Y318453I-3937J0D01*
G01*
X545069Y52594D02*
G03*
X549006Y56532I0J3937D01*
G01*
X545069Y52594D02*
G03*
X549006Y56532I0J3937D01*
G01*
X525971Y342016D02*
G03*
X522034Y345953I-3937J0D01*
G01*
X525971Y342016D02*
G03*
X522034Y345953I-3937J0D01*
G01*
X335598D02*
G03*
X331661Y342016I0J-3937D01*
G01*
X335598Y345953D02*
G03*
X331661Y342016I0J-3937D01*
G01*
X335598Y345953D02*
X522034D01*
X312568Y52594D02*
X545069D01*
X525971Y318453D02*
X545069D01*
X312568D02*
X331661D01*
X549006Y260516D02*
X549006Y110516D01*
X308631Y110516D02*
X308631Y260516D01*
X549006Y285516D02*
Y314516D01*
X549006Y56532D02*
Y85516D01*
X525971Y318453D02*
Y342016D01*
X331661Y318453D02*
Y342016D01*
X308631Y285516D02*
Y314516D01*
X308631Y56532D02*
Y85516D01*
M02*
