G04*
G04 #@! TF.GenerationSoftware,Altium Limited,Altium Designer,19.1.6 (110)*
G04*
G04 Layer_Color=32896*
%FSLAX25Y25*%
%MOIN*%
G70*
G01*
G75*
%ADD81C,0.07874*%
D81*
X36761Y56551D02*
G03*
X40698Y52614I3937J0D01*
G01*
X36761Y56551D02*
G03*
X40698Y52614I3937J0D01*
G01*
X40698Y318473D02*
G03*
X36761Y314535I0J-3937D01*
G01*
X40698Y318473D02*
G03*
X36761Y314535I0J-3937D01*
G01*
X63728Y345973D02*
G03*
X59791Y342035I0J-3937D01*
G01*
X63728Y345973D02*
G03*
X59791Y342035I0J-3937D01*
G01*
X273198Y52614D02*
G03*
X277135Y56551I0J3937D01*
G01*
X273198Y52614D02*
G03*
X277135Y56551I0J3937D01*
G01*
X277135Y314535D02*
G03*
X273198Y318473I-3937J0D01*
G01*
X277135Y314535D02*
G03*
X273198Y318473I-3937J0D01*
G01*
X254100Y342035D02*
G03*
X250163Y345973I-3937J0D01*
G01*
X254100Y342035D02*
G03*
X250163Y345973I-3937J0D01*
G01*
X36761Y110535D02*
X36761Y260535D01*
X40698Y52614D02*
X273198D01*
X40698Y318473D02*
X59791D01*
Y342035D01*
X63728Y345973D02*
X250163D01*
X277135Y285535D02*
Y314535D01*
X254100Y318473D02*
X273198D01*
X254100D02*
Y342035D01*
X36761Y285535D02*
Y314535D01*
X36761Y56551D02*
Y85535D01*
X277135Y260535D02*
X277135Y110536D01*
X277135Y56551D02*
Y85536D01*
X308631Y56551D02*
G03*
X312568Y52614I3937J0D01*
G01*
X308631Y56551D02*
G03*
X312568Y52614I3937J0D01*
G01*
X312568Y318473D02*
G03*
X308631Y314535I0J-3937D01*
G01*
X312568Y318473D02*
G03*
X308631Y314535I0J-3937D01*
G01*
X335598Y345973D02*
G03*
X331661Y342035I0J-3937D01*
G01*
X335598Y345973D02*
G03*
X331661Y342035I0J-3937D01*
G01*
X545069Y52614D02*
G03*
X549006Y56551I0J3937D01*
G01*
X545069Y52614D02*
G03*
X549006Y56551I0J3937D01*
G01*
X549006Y314535D02*
G03*
X545069Y318473I-3937J0D01*
G01*
X549006Y314535D02*
G03*
X545069Y318473I-3937J0D01*
G01*
X525971Y342035D02*
G03*
X522034Y345973I-3937J0D01*
G01*
X525971Y342035D02*
G03*
X522034Y345973I-3937J0D01*
G01*
X308631Y110535D02*
X308631Y260535D01*
X312568Y52614D02*
X545069D01*
X312568Y318473D02*
X331661D01*
Y342035D01*
X335598Y345973D02*
X522034D01*
X549006Y285535D02*
Y314535D01*
X525971Y318473D02*
X545069D01*
X525971D02*
Y342035D01*
X308631Y285535D02*
Y314535D01*
X308631Y56551D02*
Y85535D01*
X549006Y260535D02*
X549006Y110536D01*
X549006Y56551D02*
Y85536D01*
M02*
