G04*
G04 #@! TF.GenerationSoftware,Altium Limited,Altium Designer,19.1.6 (110)*
G04*
G04 Layer_Physical_Order=1*
G04 Layer_Color=255*
%FSLAX25Y25*%
%MOIN*%
G70*
G01*
G75*
%ADD10C,0.11811*%
%ADD11R,0.06299X0.11024*%
%ADD12R,0.02165X0.03543*%
%ADD13R,0.06299X0.09843*%
%ADD14R,0.09843X0.06299*%
%ADD15R,0.07087X0.02362*%
%ADD16R,0.03740X0.03543*%
%ADD17R,0.04331X0.06890*%
%ADD18R,0.02362X0.03740*%
%ADD19R,0.02362X0.06299*%
%ADD20R,0.07087X0.03150*%
%ADD21R,0.05709X0.02362*%
%ADD22R,0.03543X0.03740*%
%ADD23R,0.12598X0.06299*%
%ADD24R,0.06890X0.04331*%
%ADD25R,0.03150X0.01575*%
%ADD26R,0.06299X0.12598*%
%ADD27R,0.06496X0.09843*%
%ADD28R,0.11024X0.06299*%
%ADD29R,0.03937X0.05512*%
%ADD30R,0.02362X0.05709*%
%ADD31C,0.01000*%
%ADD32C,0.02400*%
%ADD33C,0.01968*%
%ADD34C,0.06000*%
%ADD35C,0.06600*%
%ADD36R,0.04724X0.04724*%
%ADD37C,0.04724*%
%ADD38C,0.07087*%
%ADD39C,0.06299*%
%ADD40C,0.08268*%
%ADD41C,0.02756*%
%ADD42C,0.03500*%
G36*
X520504Y323439D02*
X520004Y323339D01*
X519687Y324104D01*
X518896Y325135D01*
X517866Y325925D01*
X516666Y326423D01*
X515378Y326592D01*
X514089Y326423D01*
X512889Y325925D01*
X511859Y325135D01*
X511068Y324104D01*
X510570Y322904D01*
X510401Y321616D01*
X510570Y320328D01*
X511068Y319127D01*
X511859Y318097D01*
X512889Y317306D01*
X514089Y316809D01*
X515378Y316639D01*
X516666Y316809D01*
X517866Y317306D01*
X518896Y318097D01*
X519687Y319127D01*
X520004Y319892D01*
X520504Y319793D01*
Y314516D01*
X520621Y313931D01*
X520952Y313434D01*
X521448Y313103D01*
X522034Y312986D01*
X543539D01*
X543539Y58061D01*
X314098D01*
X314098Y312986D01*
X335598D01*
X336184Y313103D01*
X336680Y313434D01*
X337011Y313931D01*
X337128Y314516D01*
Y319807D01*
X337628Y319907D01*
X337951Y319127D01*
X338741Y318097D01*
X339772Y317306D01*
X340972Y316809D01*
X341861Y316692D01*
Y321616D01*
Y326540D01*
X340972Y326423D01*
X339772Y325925D01*
X338741Y325135D01*
X337951Y324104D01*
X337628Y323325D01*
X337128Y323424D01*
Y340486D01*
X520504D01*
Y323439D01*
D02*
G37*
G36*
X248634D02*
X248134Y323339D01*
X247817Y324104D01*
X247026Y325135D01*
X245996Y325925D01*
X244795Y326423D01*
X243507Y326592D01*
X242219Y326423D01*
X241019Y325925D01*
X239988Y325135D01*
X239198Y324104D01*
X238700Y322904D01*
X238531Y321616D01*
X238700Y320328D01*
X239198Y319127D01*
X239988Y318097D01*
X241019Y317306D01*
X242219Y316809D01*
X243507Y316639D01*
X244795Y316809D01*
X245996Y317306D01*
X247026Y318097D01*
X247817Y319127D01*
X248134Y319892D01*
X248634Y319793D01*
Y314516D01*
X248750Y313931D01*
X249082Y313434D01*
X249578Y313103D01*
X250164Y312986D01*
X271669D01*
X271669Y58061D01*
X42228D01*
X42228Y312986D01*
X63728D01*
X64314Y313103D01*
X64810Y313434D01*
X65141Y313931D01*
X65258Y314516D01*
Y319807D01*
X65758Y319907D01*
X66081Y319127D01*
X66871Y318097D01*
X67902Y317306D01*
X69102Y316809D01*
X69990Y316692D01*
Y321616D01*
Y326540D01*
X69102Y326423D01*
X67902Y325925D01*
X66871Y325135D01*
X66081Y324104D01*
X65758Y323325D01*
X65258Y323424D01*
Y340486D01*
X248634D01*
Y323439D01*
D02*
G37*
%LPC*%
G36*
X451880Y326540D02*
Y322016D01*
X456403D01*
X456286Y322904D01*
X455789Y324104D01*
X454998Y325135D01*
X453968Y325925D01*
X452768Y326423D01*
X451880Y326540D01*
D02*
G37*
G36*
X342660D02*
Y322016D01*
X347184D01*
X347067Y322904D01*
X346570Y324104D01*
X345779Y325135D01*
X344749Y325925D01*
X343548Y326423D01*
X342660Y326540D01*
D02*
G37*
G36*
X451080D02*
X450191Y326423D01*
X448991Y325925D01*
X447961Y325135D01*
X447170Y324104D01*
X446672Y322904D01*
X446556Y322016D01*
X451080D01*
Y326540D01*
D02*
G37*
G36*
X456403Y321216D02*
X451880D01*
Y316692D01*
X452768Y316809D01*
X453968Y317306D01*
X454998Y318097D01*
X455789Y319127D01*
X456286Y320328D01*
X456403Y321216D01*
D02*
G37*
G36*
X347184D02*
X342660D01*
Y316692D01*
X343548Y316809D01*
X344749Y317306D01*
X345779Y318097D01*
X346570Y319127D01*
X347067Y320328D01*
X347184Y321216D01*
D02*
G37*
G36*
X451080D02*
X446556D01*
X446672Y320328D01*
X447170Y319127D01*
X447961Y318097D01*
X448991Y317306D01*
X450191Y316809D01*
X451080Y316692D01*
Y321216D01*
D02*
G37*
G36*
X406158Y326592D02*
X404871Y326423D01*
X403670Y325925D01*
X402639Y325135D01*
X401849Y324104D01*
X401351Y322904D01*
X401182Y321616D01*
X401351Y320328D01*
X401849Y319127D01*
X402639Y318097D01*
X403670Y317306D01*
X404871Y316809D01*
X406158Y316639D01*
X407446Y316809D01*
X408647Y317306D01*
X409678Y318097D01*
X410468Y319127D01*
X410965Y320328D01*
X411135Y321616D01*
X410965Y322904D01*
X410468Y324104D01*
X409678Y325135D01*
X408647Y325925D01*
X407446Y326423D01*
X406158Y326592D01*
D02*
G37*
G36*
X515378Y301592D02*
X514089Y301423D01*
X512889Y300925D01*
X511859Y300135D01*
X511068Y299104D01*
X510570Y297904D01*
X510401Y296616D01*
X510570Y295328D01*
X511068Y294127D01*
X511859Y293097D01*
X512889Y292306D01*
X514089Y291809D01*
X515378Y291639D01*
X516666Y291809D01*
X517866Y292306D01*
X518896Y293097D01*
X519687Y294127D01*
X520185Y295328D01*
X520354Y296616D01*
X520185Y297904D01*
X519687Y299104D01*
X518896Y300135D01*
X517866Y300925D01*
X516666Y301423D01*
X515378Y301592D01*
D02*
G37*
G36*
X451479D02*
X450191Y301423D01*
X448991Y300925D01*
X447961Y300135D01*
X447170Y299104D01*
X446672Y297904D01*
X446503Y296616D01*
X446672Y295328D01*
X447170Y294127D01*
X447961Y293097D01*
X448991Y292306D01*
X450191Y291809D01*
X451479Y291639D01*
X452768Y291809D01*
X453968Y292306D01*
X454998Y293097D01*
X455789Y294127D01*
X456286Y295328D01*
X456456Y296616D01*
X456286Y297904D01*
X455789Y299104D01*
X454998Y300135D01*
X453968Y300925D01*
X452768Y301423D01*
X451479Y301592D01*
D02*
G37*
G36*
X406158D02*
X404871Y301423D01*
X403670Y300925D01*
X402639Y300135D01*
X401849Y299104D01*
X401351Y297904D01*
X401182Y296616D01*
X401351Y295328D01*
X401849Y294127D01*
X402639Y293097D01*
X403670Y292306D01*
X404871Y291809D01*
X406158Y291639D01*
X407446Y291809D01*
X408647Y292306D01*
X409678Y293097D01*
X410468Y294127D01*
X410965Y295328D01*
X411135Y296616D01*
X410965Y297904D01*
X410468Y299104D01*
X409678Y300135D01*
X408647Y300925D01*
X407446Y301423D01*
X406158Y301592D01*
D02*
G37*
G36*
X342261D02*
X340972Y301423D01*
X339772Y300925D01*
X338741Y300135D01*
X337951Y299104D01*
X337454Y297904D01*
X337284Y296616D01*
X337454Y295328D01*
X337951Y294127D01*
X338741Y293097D01*
X339772Y292306D01*
X340972Y291809D01*
X342261Y291639D01*
X343548Y291809D01*
X344749Y292306D01*
X345779Y293097D01*
X346570Y294127D01*
X347067Y295328D01*
X347237Y296616D01*
X347067Y297904D01*
X346570Y299104D01*
X345779Y300135D01*
X344749Y300925D01*
X343548Y301423D01*
X342261Y301592D01*
D02*
G37*
G36*
X425028Y269498D02*
Y267082D01*
X427444D01*
X427147Y267798D01*
X426538Y268592D01*
X425744Y269201D01*
X425028Y269498D01*
D02*
G37*
G36*
X422628Y269498D02*
X421912Y269201D01*
X421118Y268592D01*
X420509Y267798D01*
X420212Y267082D01*
X422628D01*
Y269498D01*
D02*
G37*
G36*
X515378Y276592D02*
X514089Y276423D01*
X512889Y275925D01*
X511859Y275135D01*
X511068Y274104D01*
X510570Y272904D01*
X510401Y271616D01*
X510570Y270328D01*
X511068Y269127D01*
X511859Y268097D01*
X512889Y267306D01*
X514089Y266809D01*
X515378Y266639D01*
X516666Y266809D01*
X517866Y267306D01*
X518896Y268097D01*
X519687Y269127D01*
X520185Y270328D01*
X520354Y271616D01*
X520185Y272904D01*
X519687Y274104D01*
X518896Y275135D01*
X517866Y275925D01*
X516666Y276423D01*
X515378Y276592D01*
D02*
G37*
G36*
X451479D02*
X450191Y276423D01*
X448991Y275925D01*
X447961Y275135D01*
X447170Y274104D01*
X446672Y272904D01*
X446503Y271616D01*
X446672Y270328D01*
X447170Y269127D01*
X447961Y268097D01*
X448991Y267306D01*
X450191Y266809D01*
X451479Y266639D01*
X452768Y266809D01*
X453968Y267306D01*
X454998Y268097D01*
X455789Y269127D01*
X456286Y270328D01*
X456456Y271616D01*
X456286Y272904D01*
X455789Y274104D01*
X454998Y275135D01*
X453968Y275925D01*
X452768Y276423D01*
X451479Y276592D01*
D02*
G37*
G36*
X406158D02*
X404871Y276423D01*
X403670Y275925D01*
X402639Y275135D01*
X401849Y274104D01*
X401351Y272904D01*
X401182Y271616D01*
X401351Y270328D01*
X401849Y269127D01*
X402639Y268097D01*
X403670Y267306D01*
X404871Y266809D01*
X406158Y266639D01*
X407446Y266809D01*
X408647Y267306D01*
X409678Y268097D01*
X410468Y269127D01*
X410965Y270328D01*
X411135Y271616D01*
X410965Y272904D01*
X410468Y274104D01*
X409678Y275135D01*
X408647Y275925D01*
X407446Y276423D01*
X406158Y276592D01*
D02*
G37*
G36*
X342261D02*
X340972Y276423D01*
X339772Y275925D01*
X338741Y275135D01*
X337951Y274104D01*
X337454Y272904D01*
X337284Y271616D01*
X337454Y270328D01*
X337935Y269165D01*
X325411Y256640D01*
X325123Y256210D01*
X325022Y255703D01*
Y226376D01*
X324778Y226212D01*
X324296Y225491D01*
X324127Y224642D01*
X324296Y223792D01*
X324778Y223072D01*
X325498Y222590D01*
X326348Y222421D01*
X327198Y222590D01*
X327918Y223072D01*
X328399Y223792D01*
X328569Y224642D01*
X328399Y225491D01*
X327918Y226212D01*
X327673Y226376D01*
Y255154D01*
X339810Y267290D01*
X340972Y266809D01*
X342261Y266639D01*
X343548Y266809D01*
X344749Y267306D01*
X345779Y268097D01*
X346570Y269127D01*
X347067Y270328D01*
X347237Y271616D01*
X347067Y272904D01*
X346570Y274104D01*
X345779Y275135D01*
X344749Y275925D01*
X343548Y276423D01*
X342261Y276592D01*
D02*
G37*
G36*
X422628Y264682D02*
X420212D01*
X420509Y263966D01*
X421118Y263172D01*
X421912Y262563D01*
X422628Y262266D01*
Y264682D01*
D02*
G37*
G36*
X427444D02*
X425028D01*
Y262266D01*
X425744Y262563D01*
X426538Y263172D01*
X427147Y263966D01*
X427444Y264682D01*
D02*
G37*
G36*
X433632Y253536D02*
X432782Y253367D01*
X432061Y252885D01*
X431898Y252640D01*
X431765D01*
X431258Y252539D01*
X430828Y252252D01*
X427088Y248513D01*
X422245D01*
Y243763D01*
X430932D01*
Y248513D01*
X430932Y248513D01*
X430932D01*
X431209Y248884D01*
X432066Y249741D01*
X432782Y249263D01*
X433632Y249094D01*
X434481Y249263D01*
X435202Y249745D01*
X435683Y250465D01*
X435852Y251315D01*
X435683Y252165D01*
X435202Y252885D01*
X434481Y253367D01*
X433632Y253536D01*
D02*
G37*
G36*
X403372Y248513D02*
X394686D01*
Y247364D01*
X394679Y247362D01*
X394249Y247075D01*
X391893Y244718D01*
X391604Y244776D01*
X390754Y244607D01*
X390034Y244125D01*
X389552Y243405D01*
X389383Y242555D01*
X389552Y241705D01*
X390034Y240985D01*
X390754Y240504D01*
X391604Y240334D01*
X392454Y240504D01*
X393174Y240985D01*
X393655Y241705D01*
X393824Y242555D01*
X393767Y242844D01*
X394686Y243763D01*
X403372D01*
Y248513D01*
D02*
G37*
G36*
X447995Y244241D02*
X446413D01*
Y240691D01*
X447995D01*
Y244241D01*
D02*
G37*
G36*
X445613D02*
X444032D01*
Y240691D01*
X445613D01*
Y244241D01*
D02*
G37*
G36*
X438540Y258692D02*
X437690Y258523D01*
X436970Y258041D01*
X436489Y257321D01*
X436320Y256471D01*
X436489Y255621D01*
X436970Y254901D01*
X437215Y254737D01*
Y245336D01*
X436120Y244241D01*
X434032D01*
Y240185D01*
X431431Y237584D01*
X430932Y237755D01*
Y238513D01*
X422245D01*
Y233763D01*
X430932D01*
Y234812D01*
X431860D01*
X432367Y234913D01*
X432797Y235201D01*
X433662Y236065D01*
X434032Y236342D01*
Y236342D01*
X434032Y236342D01*
X437994D01*
Y242366D01*
X439477Y243849D01*
X439765Y244279D01*
X439866Y244787D01*
Y254737D01*
X440110Y254901D01*
X440592Y255621D01*
X440761Y256471D01*
X440592Y257321D01*
X440110Y258041D01*
X439390Y258523D01*
X438540Y258692D01*
D02*
G37*
G36*
X447995Y239891D02*
X446413D01*
Y236342D01*
X447995D01*
Y239891D01*
D02*
G37*
G36*
X445613D02*
X444032D01*
Y236342D01*
X445613D01*
Y239891D01*
D02*
G37*
G36*
X467306Y240698D02*
X463658D01*
Y235376D01*
X467306D01*
Y240698D01*
D02*
G37*
G36*
X462858D02*
X459210D01*
Y235376D01*
X462858D01*
Y240698D01*
D02*
G37*
G36*
X403372Y238513D02*
X394686D01*
Y237463D01*
X356262D01*
X355755Y237362D01*
X355325Y237075D01*
X347753Y229504D01*
X347466Y229074D01*
X347365Y228566D01*
Y219017D01*
X346699Y218741D01*
X345874Y218108D01*
X345241Y217283D01*
X344843Y216322D01*
X344707Y215291D01*
X344843Y214260D01*
X345241Y213300D01*
X345874Y212474D01*
X346699Y211842D01*
X347660Y211443D01*
X348691Y211308D01*
X349722Y211443D01*
X350682Y211842D01*
X351507Y212474D01*
X352140Y213300D01*
X352538Y214260D01*
X352674Y215291D01*
X352538Y216322D01*
X352140Y217283D01*
X351507Y218108D01*
X350682Y218741D01*
X350016Y219017D01*
Y228017D01*
X356811Y234812D01*
X394686D01*
Y233763D01*
X403372D01*
Y238513D01*
D02*
G37*
G36*
X467306Y234576D02*
X463658D01*
Y229255D01*
X467306D01*
Y234576D01*
D02*
G37*
G36*
X462858D02*
X459210D01*
Y229255D01*
X462858D01*
Y234576D01*
D02*
G37*
G36*
X430932Y228513D02*
X422245D01*
Y227463D01*
X403372D01*
Y228513D01*
X394686D01*
Y223763D01*
X403372D01*
Y224812D01*
X422245D01*
Y223763D01*
X430932D01*
Y228513D01*
D02*
G37*
G36*
X501569Y229397D02*
X500435Y229247D01*
X499378Y228810D01*
X498471Y228114D01*
X497775Y227206D01*
X497337Y226150D01*
X497188Y225016D01*
X497337Y223882D01*
X497695Y223017D01*
X492869Y218191D01*
X492582Y217761D01*
X492481Y217253D01*
Y201084D01*
X489387Y197990D01*
X489100Y197560D01*
X488999Y197053D01*
Y188083D01*
X489100Y187576D01*
X489387Y187146D01*
X494040Y182493D01*
X494249Y182353D01*
Y180741D01*
X495508D01*
Y179880D01*
X494261D01*
Y174540D01*
X496125D01*
Y173276D01*
X495469D01*
Y165968D01*
X499432D01*
Y173276D01*
X498776D01*
Y174540D01*
X499405D01*
Y179880D01*
X498159D01*
Y180741D01*
X499392D01*
Y186081D01*
X494249D01*
X494249Y186081D01*
Y186081D01*
X493895Y186387D01*
X491650Y188632D01*
Y196504D01*
X494744Y199598D01*
X495031Y200028D01*
X495132Y200535D01*
Y216705D01*
X499570Y221142D01*
X500435Y220784D01*
X501569Y220635D01*
X502702Y220784D01*
X503759Y221222D01*
X504666Y221918D01*
X505363Y222825D01*
X505800Y223882D01*
X505949Y225016D01*
X505800Y226150D01*
X505363Y227206D01*
X504666Y228114D01*
X503759Y228810D01*
X502702Y229247D01*
X501569Y229397D01*
D02*
G37*
G36*
X336069D02*
X334935Y229247D01*
X333878Y228810D01*
X332971Y228114D01*
X332275Y227206D01*
X331837Y226150D01*
X331687Y225016D01*
X331837Y223882D01*
X332195Y223017D01*
X322612Y213434D01*
X319642D01*
Y208291D01*
X324983D01*
Y212055D01*
X334070Y221142D01*
X334935Y220784D01*
X336069Y220635D01*
X337202Y220784D01*
X338259Y221222D01*
X339166Y221918D01*
X339863Y222825D01*
X340300Y223882D01*
X340450Y225016D01*
X340300Y226150D01*
X339863Y227206D01*
X339166Y228114D01*
X338259Y228810D01*
X337202Y229247D01*
X336069Y229397D01*
D02*
G37*
G36*
X447995Y218650D02*
X446413D01*
Y215101D01*
X447995D01*
Y218650D01*
D02*
G37*
G36*
X445613D02*
X444032D01*
Y215101D01*
X445613D01*
Y218650D01*
D02*
G37*
G36*
X446013Y214701D02*
D01*
D01*
D01*
D02*
G37*
G36*
X481568Y229397D02*
X480435Y229247D01*
X479378Y228810D01*
X478471Y228114D01*
X477774Y227206D01*
X477337Y226150D01*
X477187Y225016D01*
X477337Y223882D01*
X477774Y222825D01*
X478471Y221918D01*
X479378Y221222D01*
X480243Y220863D01*
Y216879D01*
X478993D01*
Y211539D01*
X484136D01*
Y216879D01*
X482894D01*
Y220863D01*
X483759Y221222D01*
X484666Y221918D01*
X485363Y222825D01*
X485800Y223882D01*
X485950Y225016D01*
X485800Y226150D01*
X485363Y227206D01*
X484666Y228114D01*
X483759Y228810D01*
X482702Y229247D01*
X481568Y229397D01*
D02*
G37*
G36*
X338848Y219275D02*
X337817Y219139D01*
X336856Y218741D01*
X336031Y218108D01*
X335398Y217283D01*
X335000Y216322D01*
X334864Y215291D01*
X335000Y214260D01*
X335276Y213594D01*
X327084Y205402D01*
X326797Y204972D01*
X326696Y204464D01*
Y193762D01*
X324072D01*
Y181139D01*
X331971D01*
Y186125D01*
X340758D01*
Y184879D01*
X346098D01*
Y190022D01*
X340758D01*
Y188776D01*
X331971D01*
Y193762D01*
X329346D01*
Y203915D01*
X337151Y211719D01*
X337817Y211443D01*
X338848Y211308D01*
X339879Y211443D01*
X340840Y211842D01*
X341665Y212474D01*
X342298Y213300D01*
X342696Y214260D01*
X342832Y215291D01*
X342696Y216322D01*
X342298Y217283D01*
X341665Y218108D01*
X340840Y218741D01*
X339879Y219139D01*
X338848Y219275D01*
D02*
G37*
G36*
X447995Y214301D02*
X446413D01*
Y210751D01*
X447995D01*
Y214301D01*
D02*
G37*
G36*
X445613D02*
X444032D01*
Y210751D01*
X445613D01*
Y214301D01*
D02*
G37*
G36*
X431461Y222547D02*
X422337D01*
X421830Y222446D01*
X421400Y222159D01*
X417188Y217947D01*
X416899Y218004D01*
X416049Y217835D01*
X415329Y217354D01*
X414847Y216633D01*
X414678Y215784D01*
X414847Y214934D01*
X415329Y214213D01*
X416049Y213732D01*
X416899Y213563D01*
X417749Y213732D01*
X418469Y214213D01*
X418951Y214934D01*
X419120Y215784D01*
X419062Y216072D01*
X422886Y219896D01*
X430912D01*
X434032Y216776D01*
Y210751D01*
X437994D01*
Y218650D01*
X435907D01*
X432398Y222159D01*
X431968Y222446D01*
X431461Y222547D01*
D02*
G37*
G36*
X461546Y253536D02*
X460697Y253367D01*
X459976Y252885D01*
X459495Y252165D01*
X459326Y251315D01*
X459495Y250465D01*
X459976Y249745D01*
X460697Y249263D01*
X461546Y249094D01*
X462396Y249263D01*
X463117Y249745D01*
X463280Y249990D01*
X489578D01*
X508979Y230589D01*
Y214154D01*
X505011Y210186D01*
X496624D01*
Y202287D01*
X501597D01*
Y192272D01*
X500351D01*
Y186932D01*
X505494D01*
Y192272D01*
X504248D01*
Y202287D01*
X509247D01*
Y210186D01*
X509247D01*
X509104Y210531D01*
X511242Y212668D01*
X511529Y213098D01*
X511630Y213605D01*
Y231138D01*
X511529Y231645D01*
X511242Y232075D01*
X490966Y252351D01*
X490536Y252638D01*
X490029Y252739D01*
X489534Y252640D01*
X463280D01*
X463117Y252885D01*
X462396Y253367D01*
X461546Y253536D01*
D02*
G37*
G36*
X483167Y210776D02*
X480799D01*
Y207620D01*
X483167D01*
Y210776D01*
D02*
G37*
G36*
X479999D02*
X477630D01*
Y207620D01*
X479999D01*
Y210776D01*
D02*
G37*
G36*
X438369Y209300D02*
X436787D01*
Y207030D01*
X438369D01*
Y209300D01*
D02*
G37*
G36*
X435987D02*
X434406D01*
Y207030D01*
X435987D01*
Y209300D01*
D02*
G37*
G36*
X403372Y218513D02*
X394686D01*
Y213763D01*
X400706D01*
X406566Y207903D01*
X406509Y207614D01*
X406678Y206764D01*
X407160Y206044D01*
X407880Y205563D01*
X408730Y205394D01*
X409580Y205563D01*
X410300Y206044D01*
X410463Y206289D01*
X415115D01*
Y206027D01*
X419865D01*
Y209202D01*
X415115D01*
Y208940D01*
X410463D01*
X410300Y209184D01*
X409580Y209666D01*
X408730Y209835D01*
X408441Y209777D01*
X403372Y214846D01*
Y218513D01*
D02*
G37*
G36*
X438369Y206230D02*
X436787D01*
Y203960D01*
X438369D01*
Y206230D01*
D02*
G37*
G36*
X435987D02*
X434406D01*
Y203960D01*
X435987D01*
Y206230D01*
D02*
G37*
G36*
X490239Y216879D02*
X485095D01*
Y211539D01*
X486341D01*
Y210776D01*
X484913D01*
Y203664D01*
X490450D01*
Y210776D01*
X488992D01*
Y211539D01*
X490239D01*
Y216879D01*
D02*
G37*
G36*
X483167Y206820D02*
X480799D01*
Y203664D01*
X483167D01*
Y206820D01*
D02*
G37*
G36*
X479999D02*
X477630D01*
Y203664D01*
X479999D01*
Y206820D01*
D02*
G37*
G36*
X448998Y204477D02*
X446728D01*
Y202306D01*
X448998D01*
Y204477D01*
D02*
G37*
G36*
X445928D02*
X443658D01*
Y202306D01*
X445928D01*
Y204477D01*
D02*
G37*
G36*
X448998Y201505D02*
X446728D01*
Y199334D01*
X448998D01*
Y201505D01*
D02*
G37*
G36*
X445928D02*
X443658D01*
Y199334D01*
X445928D01*
Y201505D01*
D02*
G37*
G36*
X358533Y219275D02*
X357502Y219139D01*
X356541Y218741D01*
X355716Y218108D01*
X355083Y217283D01*
X354685Y216322D01*
X354550Y215291D01*
X354685Y214260D01*
X355083Y213300D01*
X355716Y212474D01*
X356541Y211842D01*
X357208Y211565D01*
Y206419D01*
X356541Y206143D01*
X355716Y205510D01*
X355083Y204685D01*
X354685Y203724D01*
X354550Y202693D01*
X354685Y201662D01*
X355083Y200701D01*
X355716Y199876D01*
X356541Y199243D01*
X357502Y198845D01*
X358533Y198709D01*
X359564Y198845D01*
X360525Y199243D01*
X361350Y199876D01*
X361983Y200701D01*
X362381Y201662D01*
X362517Y202693D01*
X362381Y203724D01*
X361983Y204685D01*
X361350Y205510D01*
X360525Y206143D01*
X359859Y206419D01*
Y211565D01*
X360525Y211842D01*
X361350Y212474D01*
X361983Y213300D01*
X362381Y214260D01*
X362517Y215291D01*
X362381Y216322D01*
X361983Y217283D01*
X361350Y218108D01*
X360525Y218741D01*
X359564Y219139D01*
X358533Y219275D01*
D02*
G37*
G36*
X348691Y206677D02*
X347660Y206541D01*
X346699Y206143D01*
X345874Y205510D01*
X345241Y204685D01*
X344843Y203724D01*
X344707Y202693D01*
X344843Y201662D01*
X345241Y200701D01*
X345874Y199876D01*
X346699Y199243D01*
X347660Y198845D01*
X348691Y198709D01*
X349722Y198845D01*
X350682Y199243D01*
X351507Y199876D01*
X352140Y200701D01*
X352538Y201662D01*
X352674Y202693D01*
X352538Y203724D01*
X352140Y204685D01*
X351507Y205510D01*
X350682Y206143D01*
X349722Y206541D01*
X348691Y206677D01*
D02*
G37*
G36*
X433828Y269715D02*
X432836Y269584D01*
X431912Y269201D01*
X431118Y268592D01*
X430509Y267798D01*
X430126Y266874D01*
X429995Y265882D01*
X430126Y264890D01*
X430509Y263966D01*
X431118Y263172D01*
X431912Y262563D01*
X432836Y262180D01*
X433828Y262049D01*
X434820Y262180D01*
X435744Y262563D01*
X436538Y263172D01*
X437053Y263843D01*
X438765D01*
X452458Y250149D01*
Y227791D01*
X452613Y227011D01*
X453055Y226349D01*
X459210Y220195D01*
Y214491D01*
X461219D01*
Y213729D01*
X459308D01*
Y204027D01*
X453613Y198333D01*
X452973Y198205D01*
X452430Y197842D01*
X448998D01*
Y198375D01*
X443658D01*
Y197842D01*
X442109D01*
Y198473D01*
X438146D01*
Y196095D01*
X438088Y195803D01*
X438146Y195511D01*
Y193133D01*
X442109D01*
Y193764D01*
X443658D01*
Y193231D01*
X448998D01*
Y193764D01*
X452430D01*
X452973Y193401D01*
X453968Y193203D01*
X454963Y193401D01*
X455806Y193965D01*
X456370Y194808D01*
X456497Y195449D01*
X460579Y199531D01*
X467207D01*
Y213729D01*
X465297D01*
Y214491D01*
X467306D01*
Y225934D01*
X459239D01*
X456537Y228636D01*
Y250994D01*
X456381Y251774D01*
X455939Y252436D01*
X441051Y267324D01*
X440390Y267766D01*
X439609Y267921D01*
X437053D01*
X436538Y268592D01*
X435744Y269201D01*
X434820Y269584D01*
X433828Y269715D01*
D02*
G37*
G36*
X324983Y207331D02*
X319642D01*
Y202188D01*
X320987D01*
Y201080D01*
X320742Y200917D01*
X320261Y200196D01*
X320092Y199346D01*
X320261Y198497D01*
X320742Y197776D01*
X321463Y197295D01*
X322312Y197126D01*
X323162Y197295D01*
X323883Y197776D01*
X324364Y198497D01*
X324533Y199346D01*
X324364Y200196D01*
X323883Y200917D01*
X323638Y201080D01*
Y202188D01*
X324983D01*
Y207331D01*
D02*
G37*
G36*
X423014Y198473D02*
X420843D01*
Y196203D01*
X423014D01*
Y198473D01*
D02*
G37*
G36*
X420043D02*
X417871D01*
Y196203D01*
X420043D01*
Y198473D01*
D02*
G37*
G36*
X356068Y229397D02*
X354935Y229247D01*
X353878Y228810D01*
X352971Y228114D01*
X352274Y227206D01*
X351837Y226150D01*
X351688Y225016D01*
X351837Y223882D01*
X352274Y222825D01*
X352971Y221918D01*
X353878Y221222D01*
X354935Y220784D01*
X356068Y220635D01*
X357202Y220784D01*
X358259Y221222D01*
X359166Y221918D01*
X359863Y222825D01*
X359925Y222976D01*
X361958D01*
X368065Y216870D01*
Y193216D01*
X366223D01*
Y193749D01*
X360882D01*
Y188605D01*
X366223D01*
Y189138D01*
X368566D01*
X369109Y188775D01*
X370104Y188577D01*
X371099Y188775D01*
X371540Y189070D01*
X371755D01*
X376998Y183826D01*
X376827Y183414D01*
X376827D01*
Y178271D01*
X382168D01*
Y183414D01*
X381537D01*
Y184211D01*
X381381Y184991D01*
X380939Y185653D01*
X374041Y192551D01*
X373380Y192993D01*
X372599Y193148D01*
X372143D01*
Y217715D01*
X371988Y218495D01*
X371546Y219156D01*
X371546Y219156D01*
X364245Y226458D01*
X363583Y226900D01*
X362803Y227055D01*
X359925D01*
X359863Y227206D01*
X359166Y228114D01*
X358259Y228810D01*
X357202Y229247D01*
X356068Y229397D01*
D02*
G37*
G36*
X430932Y218513D02*
X422245D01*
Y213763D01*
X424506D01*
Y209202D01*
X424170D01*
Y206027D01*
X424506D01*
Y198473D01*
X423973D01*
Y193133D01*
X429117D01*
Y193764D01*
X430666D01*
Y193133D01*
X434628D01*
Y195511D01*
X434687Y195803D01*
X434628Y196095D01*
Y198473D01*
X430666D01*
Y197842D01*
X429117D01*
Y198473D01*
X428584D01*
Y206027D01*
X428920D01*
Y209202D01*
X428584D01*
Y213763D01*
X430932D01*
Y218513D01*
D02*
G37*
G36*
X423014Y195403D02*
X420843D01*
Y193133D01*
X423014D01*
Y195403D01*
D02*
G37*
G36*
X420043D02*
X417871D01*
Y193133D01*
X420043D01*
Y195403D01*
D02*
G37*
G36*
X499392Y192272D02*
X497221D01*
Y190002D01*
X499392D01*
Y192272D01*
D02*
G37*
G36*
X496420D02*
X494249D01*
Y190002D01*
X496420D01*
Y192272D01*
D02*
G37*
G36*
X338848Y206677D02*
X337817Y206541D01*
X336856Y206143D01*
X336031Y205510D01*
X335398Y204685D01*
X335000Y203724D01*
X334864Y202693D01*
X335000Y201662D01*
X335398Y200701D01*
X336031Y199876D01*
X336856Y199243D01*
X337817Y198845D01*
X338848Y198709D01*
X339879Y198845D01*
X340545Y199121D01*
X348678Y190989D01*
Y188605D01*
X354018D01*
Y189852D01*
X354780D01*
Y188605D01*
X360120D01*
Y193749D01*
X354780D01*
Y192503D01*
X354018D01*
Y193749D01*
X349667D01*
X342420Y200996D01*
X342696Y201662D01*
X342832Y202693D01*
X342696Y203724D01*
X342298Y204685D01*
X341665Y205510D01*
X340840Y206143D01*
X339879Y206541D01*
X338848Y206677D01*
D02*
G37*
G36*
X526151Y210186D02*
X513528D01*
Y202287D01*
X518514D01*
Y193847D01*
X517280D01*
Y188507D01*
X522424D01*
Y193847D01*
X521165D01*
Y202287D01*
X526151D01*
Y210186D01*
D02*
G37*
G36*
X467207Y193876D02*
X463658D01*
Y187176D01*
X467207D01*
Y193876D01*
D02*
G37*
G36*
X462858D02*
X459308D01*
Y187176D01*
X462858D01*
Y193876D01*
D02*
G37*
G36*
X499392Y189202D02*
X497221D01*
Y186932D01*
X499392D01*
Y189202D01*
D02*
G37*
G36*
X496420D02*
X494249D01*
Y186932D01*
X496420D01*
Y189202D01*
D02*
G37*
G36*
X360120Y187646D02*
X357850D01*
Y185475D01*
X360120D01*
Y187646D01*
D02*
G37*
G36*
X357050D02*
X354780D01*
Y185475D01*
X357050D01*
Y187646D01*
D02*
G37*
G36*
X516321Y193847D02*
X511178D01*
Y188507D01*
X512424D01*
Y187646D01*
X510784D01*
Y184737D01*
X505494D01*
Y186081D01*
X500351D01*
Y180741D01*
X501597D01*
Y179880D01*
X500364D01*
Y174540D01*
X501125D01*
Y173276D01*
X500469D01*
Y165968D01*
X504432D01*
Y173276D01*
X503776D01*
Y174540D01*
X505507D01*
Y179880D01*
X504248D01*
Y180741D01*
X505494D01*
Y182086D01*
X510784D01*
Y179157D01*
X516715D01*
Y187646D01*
X515075D01*
Y188507D01*
X516321D01*
Y193847D01*
D02*
G37*
G36*
X360120Y184675D02*
X357850D01*
Y182503D01*
X360120D01*
Y184675D01*
D02*
G37*
G36*
X357050D02*
X354780D01*
Y182503D01*
X357050D01*
Y184675D01*
D02*
G37*
G36*
X391604Y188870D02*
X390754Y188701D01*
X390034Y188220D01*
X389552Y187499D01*
X389383Y186650D01*
X389552Y185800D01*
X390034Y185079D01*
X390278Y184916D01*
Y183414D01*
X389032D01*
Y182168D01*
X388270D01*
Y183414D01*
X382930D01*
Y178271D01*
X388270D01*
Y179517D01*
X389032D01*
Y178271D01*
X394372D01*
Y183414D01*
X392929D01*
Y184916D01*
X393174Y185079D01*
X393655Y185800D01*
X393824Y186650D01*
X393655Y187499D01*
X393174Y188220D01*
X392454Y188701D01*
X391604Y188870D01*
D02*
G37*
G36*
X346098Y183920D02*
X343828D01*
Y181748D01*
X346098D01*
Y183920D01*
D02*
G37*
G36*
X343028D02*
X340758D01*
Y181748D01*
X343028D01*
Y183920D01*
D02*
G37*
G36*
X467207Y186376D02*
X463658D01*
Y179677D01*
X467207D01*
Y186376D01*
D02*
G37*
G36*
X462858D02*
X459308D01*
Y179677D01*
X462858D01*
Y186376D01*
D02*
G37*
G36*
X429525Y181150D02*
X415326D01*
Y179240D01*
X405394D01*
X404851Y179603D01*
X403856Y179801D01*
X402861Y179603D01*
X402017Y179039D01*
X401454Y178196D01*
X401256Y177201D01*
X401454Y176206D01*
X402017Y175362D01*
X402861Y174799D01*
X403856Y174601D01*
X404851Y174799D01*
X405394Y175162D01*
X415326D01*
Y173251D01*
X420386D01*
Y162646D01*
X418265D01*
Y156716D01*
X426754D01*
Y157642D01*
X428304D01*
Y156716D01*
X436794D01*
Y162646D01*
X436794Y162646D01*
X436794D01*
X436938Y163100D01*
X439256Y165418D01*
X454426D01*
X473120Y146723D01*
X473782Y146282D01*
X474562Y146126D01*
X485469D01*
Y144511D01*
X489432D01*
Y147873D01*
X489490Y148165D01*
X489432Y148457D01*
Y151820D01*
X485469D01*
Y150205D01*
X475407D01*
X456713Y168899D01*
X456051Y169341D01*
X455271Y169496D01*
X438411D01*
X437631Y169341D01*
X436969Y168899D01*
X431107Y163036D01*
X430846Y162646D01*
X428304D01*
Y161720D01*
X426754D01*
Y162646D01*
X424464D01*
Y173251D01*
X429525D01*
Y181150D01*
D02*
G37*
G36*
X346098Y180948D02*
X343828D01*
Y178776D01*
X346098D01*
Y180948D01*
D02*
G37*
G36*
X343028D02*
X340758D01*
Y178776D01*
X343028D01*
Y180948D01*
D02*
G37*
G36*
X449378Y181150D02*
X442679D01*
Y177601D01*
X449378D01*
Y181150D01*
D02*
G37*
G36*
X441879D02*
X435180D01*
Y177601D01*
X441879D01*
Y181150D01*
D02*
G37*
G36*
X388270Y177312D02*
X386000D01*
Y175140D01*
X388270D01*
Y177312D01*
D02*
G37*
G36*
X385200D02*
X382930D01*
Y175140D01*
X385200D01*
Y177312D01*
D02*
G37*
G36*
X366223Y187646D02*
X360882D01*
Y182503D01*
X362227D01*
Y181741D01*
X359997D01*
Y173251D01*
X359997Y173251D01*
X359997D01*
X359818Y172819D01*
X357769Y170770D01*
X354412D01*
Y171426D01*
X347103D01*
Y167464D01*
X354412D01*
Y168119D01*
X358318D01*
X358826Y168220D01*
X359256Y168508D01*
X363899Y173151D01*
X363966Y173251D01*
X365927D01*
Y181741D01*
X364878D01*
Y182503D01*
X366223D01*
Y187646D01*
D02*
G37*
G36*
X354018D02*
X348678D01*
Y182503D01*
X350022D01*
Y181741D01*
X348382D01*
Y173251D01*
X354313D01*
Y181741D01*
X352673D01*
Y182503D01*
X354018D01*
Y187646D01*
D02*
G37*
G36*
X449378Y176801D02*
X442679D01*
Y173251D01*
X449378D01*
Y176801D01*
D02*
G37*
G36*
X441879D02*
X435180D01*
Y173251D01*
X441879D01*
Y176801D01*
D02*
G37*
G36*
X521568Y229397D02*
X520435Y229247D01*
X519378Y228810D01*
X518471Y228114D01*
X517774Y227206D01*
X517337Y226150D01*
X517188Y225016D01*
X517337Y223882D01*
X517774Y222825D01*
X518471Y221918D01*
X519378Y221222D01*
X520435Y220784D01*
X521568Y220635D01*
X522702Y220784D01*
X523567Y221142D01*
X528861Y215849D01*
Y190053D01*
X526454Y187646D01*
X522399D01*
Y180047D01*
X520648Y178296D01*
X517280D01*
Y172956D01*
X522424D01*
Y176323D01*
X525257Y179157D01*
X528329D01*
Y185772D01*
X531124Y188567D01*
X531411Y188997D01*
X531512Y189504D01*
Y216398D01*
X531411Y216905D01*
X531124Y217335D01*
X525442Y223017D01*
X525800Y223882D01*
X525949Y225016D01*
X525800Y226150D01*
X525363Y227206D01*
X524666Y228114D01*
X523759Y228810D01*
X522702Y229247D01*
X521568Y229397D01*
D02*
G37*
G36*
X388270Y174340D02*
X386000D01*
Y172169D01*
X388270D01*
Y174340D01*
D02*
G37*
G36*
X385200D02*
X382930D01*
Y172169D01*
X385200D01*
Y174340D01*
D02*
G37*
G36*
X489432Y173276D02*
X487851D01*
Y170022D01*
X489432D01*
Y173276D01*
D02*
G37*
G36*
X487050D02*
X485469D01*
Y170022D01*
X487050D01*
Y173276D01*
D02*
G37*
G36*
X375868Y171426D02*
X372614D01*
Y169845D01*
X375868D01*
Y171426D01*
D02*
G37*
G36*
X371814D02*
X368560D01*
Y169845D01*
X371814D01*
Y171426D01*
D02*
G37*
G36*
X331971Y176858D02*
X324072D01*
Y164235D01*
X331971D01*
Y169221D01*
X340758D01*
Y167975D01*
X346098D01*
Y173118D01*
X340758D01*
Y171872D01*
X331971D01*
Y176858D01*
D02*
G37*
G36*
X375868Y169045D02*
X372614D01*
Y167464D01*
X375868D01*
Y169045D01*
D02*
G37*
G36*
X371814D02*
X368560D01*
Y167464D01*
X371814D01*
Y169045D01*
D02*
G37*
G36*
X489432Y169222D02*
X487851D01*
Y165968D01*
X489432D01*
Y169222D01*
D02*
G37*
G36*
X487050D02*
X485469D01*
Y165968D01*
X487050D01*
Y169222D01*
D02*
G37*
G36*
X394372Y177312D02*
X389032D01*
Y172169D01*
X390377D01*
Y171308D01*
X388146D01*
Y162818D01*
X394077D01*
Y171308D01*
X393028D01*
Y172169D01*
X394372D01*
Y177312D01*
D02*
G37*
G36*
X382168D02*
X376827D01*
Y172169D01*
X378172D01*
Y171308D01*
X376532D01*
Y166577D01*
X376356Y166455D01*
X375868Y166426D01*
Y166426D01*
X368560D01*
Y162464D01*
X375868D01*
Y163119D01*
X376532D01*
Y162818D01*
X382463D01*
Y171308D01*
X380823D01*
Y172169D01*
X382168D01*
Y177312D01*
D02*
G37*
G36*
X376068Y229397D02*
X374935Y229247D01*
X373878Y228810D01*
X372971Y228114D01*
X372274Y227206D01*
X371837Y226150D01*
X371688Y225016D01*
X371837Y223882D01*
X372274Y222825D01*
X372971Y221918D01*
X373878Y221222D01*
X374743Y220863D01*
Y210012D01*
X374844Y209505D01*
X375131Y209075D01*
X397267Y186939D01*
Y164955D01*
X394511Y162199D01*
X394077Y162016D01*
Y162016D01*
X394077Y162016D01*
X388737D01*
Y156872D01*
X394077D01*
Y158207D01*
X394138Y158220D01*
X394568Y158507D01*
X399529Y163468D01*
X399816Y163898D01*
X399917Y164406D01*
Y186163D01*
X446122D01*
X470293Y161992D01*
X470723Y161705D01*
X471230Y161604D01*
X489636D01*
X490143Y161705D01*
X490573Y161992D01*
X493388Y164807D01*
X493675Y165237D01*
X493776Y165744D01*
Y165968D01*
X494432D01*
Y173276D01*
X490469D01*
Y165968D01*
X490469Y165968D01*
X490469D01*
X490338Y165506D01*
X489086Y164255D01*
X471779D01*
X447608Y188426D01*
X447178Y188713D01*
X446671Y188814D01*
X399141D01*
X377394Y210561D01*
Y220863D01*
X378259Y221222D01*
X379166Y221918D01*
X379863Y222825D01*
X380300Y223882D01*
X380450Y225016D01*
X380300Y226150D01*
X379863Y227206D01*
X379166Y228114D01*
X378259Y228810D01*
X377202Y229247D01*
X376068Y229397D01*
D02*
G37*
G36*
X387975Y162016D02*
X382634D01*
Y160770D01*
X381872D01*
Y162016D01*
X376532D01*
Y160770D01*
X375868D01*
Y161426D01*
X368560D01*
Y160739D01*
X367421D01*
X367257Y160984D01*
X366537Y161465D01*
X365687Y161634D01*
X364837Y161465D01*
X364117Y160984D01*
X363636Y160263D01*
X363467Y159413D01*
X363636Y158564D01*
X364117Y157843D01*
X364362Y157680D01*
Y150737D01*
X362919D01*
Y143625D01*
X368456D01*
Y150737D01*
X367013D01*
Y157680D01*
X367257Y157843D01*
X367421Y158088D01*
X368560D01*
Y157464D01*
X375868D01*
Y158119D01*
X376532D01*
Y156872D01*
X381872D01*
Y158119D01*
X382634D01*
Y156872D01*
X387975D01*
Y162016D01*
D02*
G37*
G36*
X516321Y178296D02*
X511178D01*
Y172956D01*
X512424D01*
Y170212D01*
X512525Y169705D01*
X512812Y169275D01*
X515312Y166776D01*
Y158389D01*
X523211D01*
Y171013D01*
X515312D01*
X515075Y171415D01*
Y172956D01*
X516321D01*
Y178296D01*
D02*
G37*
G36*
X346098Y167016D02*
X340758D01*
Y161872D01*
X346098D01*
Y163119D01*
X347103D01*
Y162464D01*
X349432D01*
Y161426D01*
X347103D01*
Y157464D01*
X354412D01*
Y161426D01*
X352083D01*
Y162464D01*
X354412D01*
Y166426D01*
X347103D01*
Y165770D01*
X346098D01*
Y167016D01*
D02*
G37*
G36*
X447030Y162646D02*
X438540D01*
Y156716D01*
X447030D01*
Y157642D01*
X452430D01*
X452973Y157279D01*
X453968Y157081D01*
X454963Y157279D01*
X455806Y157843D01*
X456370Y158686D01*
X456568Y159681D01*
X456370Y160676D01*
X455806Y161520D01*
X454963Y162083D01*
X453968Y162281D01*
X452973Y162083D01*
X452430Y161720D01*
X447030D01*
Y162646D01*
D02*
G37*
G36*
X375868Y156426D02*
X368560D01*
Y152464D01*
X375868D01*
Y153119D01*
X376532D01*
Y150770D01*
X381872D01*
Y152016D01*
X382634D01*
Y150770D01*
X383979D01*
Y149851D01*
X382733D01*
Y144511D01*
X387876D01*
Y149851D01*
X386630D01*
Y150770D01*
X387975D01*
Y152016D01*
X388737D01*
Y150770D01*
X394077D01*
Y155913D01*
X388737D01*
Y154667D01*
X387975D01*
Y155913D01*
X382634D01*
Y154667D01*
X381872D01*
Y155913D01*
X376532D01*
Y155770D01*
X375868D01*
Y156426D01*
D02*
G37*
G36*
X499432Y151820D02*
X495469D01*
Y150205D01*
X494432D01*
Y151820D01*
X490469D01*
Y148457D01*
X490411Y148165D01*
X490469Y147873D01*
Y144511D01*
X494432D01*
Y146126D01*
X495469D01*
Y144511D01*
X499432D01*
Y147873D01*
X499490Y148165D01*
X499432Y148457D01*
Y151820D01*
D02*
G37*
G36*
X426754Y151032D02*
X422909D01*
Y148467D01*
X426754D01*
Y151032D01*
D02*
G37*
G36*
X422110D02*
X418265D01*
Y148467D01*
X422110D01*
Y151032D01*
D02*
G37*
G36*
X359431Y150624D02*
X357260D01*
Y148354D01*
X359431D01*
Y150624D01*
D02*
G37*
G36*
X356460D02*
X354288D01*
Y148354D01*
X356460D01*
Y150624D01*
D02*
G37*
G36*
X523211Y154109D02*
X519661D01*
Y148197D01*
X523211D01*
Y154109D01*
D02*
G37*
G36*
X518861D02*
X515312D01*
Y148197D01*
X518861D01*
Y154109D01*
D02*
G37*
G36*
X359431Y147554D02*
X357260D01*
Y145284D01*
X359431D01*
Y147554D01*
D02*
G37*
G36*
X356460D02*
X354288D01*
Y145284D01*
X356460D01*
Y147554D01*
D02*
G37*
G36*
X426754Y147667D02*
X422909D01*
Y145101D01*
X426754D01*
Y147667D01*
D02*
G37*
G36*
X422110D02*
X418265D01*
Y145101D01*
X422110D01*
Y147667D01*
D02*
G37*
G36*
X375739Y150737D02*
X370202D01*
Y143625D01*
X375739D01*
Y145856D01*
X376630D01*
Y144511D01*
X381774D01*
Y149851D01*
X376630D01*
Y148507D01*
X375739D01*
Y150737D01*
D02*
G37*
G36*
X523211Y147397D02*
X519661D01*
Y141485D01*
X523211D01*
Y147397D01*
D02*
G37*
G36*
X518861D02*
X515312D01*
Y141485D01*
X518861D01*
Y147397D01*
D02*
G37*
G36*
X498900Y143749D02*
X496728D01*
Y141479D01*
X498900D01*
Y143749D01*
D02*
G37*
G36*
X495928D02*
X493757D01*
Y141479D01*
X495928D01*
Y143749D01*
D02*
G37*
G36*
X498900Y140679D02*
X496728D01*
Y138409D01*
X498900D01*
Y140679D01*
D02*
G37*
G36*
X495928D02*
X493757D01*
Y138409D01*
X495928D01*
Y140679D01*
D02*
G37*
G36*
X430017Y134792D02*
X423317D01*
Y131243D01*
X430017D01*
Y134792D01*
D02*
G37*
G36*
X422517D02*
X415818D01*
Y131243D01*
X422517D01*
Y134792D01*
D02*
G37*
G36*
X350757Y156484D02*
X350465Y156426D01*
X347103D01*
Y152464D01*
X348718D01*
Y150624D01*
X348186D01*
Y145284D01*
X348718D01*
Y144130D01*
X348873Y143350D01*
X349315Y142688D01*
X362800Y129204D01*
X362800Y129204D01*
X363461Y128762D01*
X364242Y128606D01*
X364242Y128606D01*
X395738D01*
X396518Y128762D01*
X397180Y129204D01*
X405637Y137662D01*
X430148D01*
X435672Y132138D01*
Y126893D01*
X449870D01*
Y128803D01*
X495064D01*
X495845Y128958D01*
X496506Y129401D01*
X503873Y136767D01*
X504315Y137429D01*
X504470Y138209D01*
Y138409D01*
X505002D01*
Y143749D01*
X504490D01*
Y148165D01*
X504432Y148457D01*
Y151820D01*
X500469D01*
Y148457D01*
X500411Y148165D01*
Y143749D01*
X499859D01*
Y138521D01*
X494219Y132882D01*
X449870D01*
Y134792D01*
X444810D01*
Y145101D01*
X447030D01*
Y151032D01*
X438540D01*
Y150106D01*
X436794D01*
Y151032D01*
X428304D01*
Y145101D01*
X436794D01*
Y146028D01*
X438540D01*
Y145101D01*
X440732D01*
Y134792D01*
X438785D01*
X432434Y141143D01*
X431773Y141585D01*
X430992Y141740D01*
X404793D01*
X404012Y141585D01*
X403351Y141143D01*
X394893Y132685D01*
X365086D01*
X352987Y144784D01*
X353194Y145284D01*
X353329D01*
Y150624D01*
X352797D01*
Y152464D01*
X354412D01*
Y156426D01*
X351049D01*
X350757Y156484D01*
D02*
G37*
G36*
X430017Y130443D02*
X423317D01*
Y126893D01*
X430017D01*
Y130443D01*
D02*
G37*
G36*
X422517D02*
X415818D01*
Y126893D01*
X422517D01*
Y130443D01*
D02*
G37*
G36*
X400659Y130209D02*
X399809Y130040D01*
X399089Y129558D01*
X398607Y128838D01*
X398438Y127988D01*
X398607Y127138D01*
X399089Y126418D01*
X399334Y126254D01*
Y123768D01*
X398777D01*
Y118625D01*
X402542D01*
Y123768D01*
X401985D01*
Y126255D01*
X402229Y126418D01*
X402710Y127138D01*
X402879Y127988D01*
X402710Y128838D01*
X402229Y129558D01*
X401509Y130040D01*
X400659Y130209D01*
D02*
G37*
G36*
X462680Y121728D02*
X459130D01*
Y116407D01*
X462680D01*
Y121728D01*
D02*
G37*
G36*
X458330D02*
X454780D01*
Y116407D01*
X458330D01*
Y121728D01*
D02*
G37*
G36*
X410638Y136213D02*
X409788Y136044D01*
X409068Y135562D01*
X408586Y134842D01*
X408417Y133992D01*
X408586Y133142D01*
X409068Y132422D01*
X409312Y132258D01*
Y120816D01*
X408028D01*
Y115673D01*
X413369D01*
Y120816D01*
X411963D01*
Y132258D01*
X412208Y132422D01*
X412689Y133142D01*
X412858Y133992D01*
X412689Y134842D01*
X412208Y135562D01*
X411488Y136044D01*
X410638Y136213D01*
D02*
G37*
G36*
X482654Y115593D02*
X481073D01*
Y113323D01*
X482654D01*
Y115593D01*
D02*
G37*
G36*
X480272D02*
X478691D01*
Y113323D01*
X480272D01*
Y115593D01*
D02*
G37*
G36*
X405101Y114910D02*
X403618D01*
Y112739D01*
X405101D01*
Y114910D01*
D02*
G37*
G36*
X402818D02*
X401335D01*
Y112739D01*
X402818D01*
Y114910D01*
D02*
G37*
G36*
X462680Y115607D02*
X459130D01*
Y110286D01*
X462680D01*
Y115607D01*
D02*
G37*
G36*
X458330D02*
X454780D01*
Y110286D01*
X458330D01*
Y115607D01*
D02*
G37*
G36*
X482654Y112523D02*
X481073D01*
Y110253D01*
X482654D01*
Y112523D01*
D02*
G37*
G36*
X480272D02*
X478691D01*
Y110253D01*
X480272D01*
Y112523D01*
D02*
G37*
G36*
X519944Y113329D02*
X514623D01*
Y109780D01*
X519944D01*
Y113329D01*
D02*
G37*
G36*
X513823D02*
X508502D01*
Y109780D01*
X513823D01*
Y113329D01*
D02*
G37*
G36*
X405101Y111939D02*
X403618D01*
Y109767D01*
X405101D01*
Y111939D01*
D02*
G37*
G36*
X402818D02*
X401335D01*
Y109767D01*
X402818D01*
Y111939D01*
D02*
G37*
G36*
X493185Y110770D02*
X490915D01*
Y108598D01*
X493185D01*
Y110770D01*
D02*
G37*
G36*
X473500D02*
X471230D01*
Y108598D01*
X473500D01*
Y110770D01*
D02*
G37*
G36*
X470430D02*
X468160D01*
Y108598D01*
X470430D01*
Y110770D01*
D02*
G37*
G36*
X490115D02*
X487845D01*
Y108598D01*
X490115D01*
Y110770D01*
D02*
G37*
G36*
X462680Y107777D02*
X454780D01*
Y107094D01*
X447030D01*
Y107627D01*
X441690D01*
Y107114D01*
X436584D01*
X436292Y107056D01*
X432241D01*
Y103094D01*
X436292D01*
X436584Y103036D01*
X441690D01*
Y102483D01*
X447030D01*
Y103016D01*
X454780D01*
Y96335D01*
X462680D01*
Y100057D01*
X468160D01*
Y99524D01*
X473500D01*
Y100057D01*
X474951D01*
Y99426D01*
X478913D01*
Y101804D01*
X478971Y102096D01*
X478913Y102388D01*
Y104766D01*
X474951D01*
Y104135D01*
X473500D01*
Y104668D01*
X468160D01*
Y104135D01*
X462680D01*
Y107777D01*
D02*
G37*
G36*
X493185Y107799D02*
X490915D01*
Y105627D01*
X493185D01*
Y107799D01*
D02*
G37*
G36*
X490115D02*
X487845D01*
Y105627D01*
X490115D01*
Y107799D01*
D02*
G37*
G36*
X473500D02*
X471230D01*
Y105627D01*
X473500D01*
Y107799D01*
D02*
G37*
G36*
X470430D02*
X468160D01*
Y105627D01*
X470430D01*
Y107799D01*
D02*
G37*
G36*
X519944Y108980D02*
X514623D01*
Y105430D01*
X519944D01*
Y108980D01*
D02*
G37*
G36*
X513823D02*
X508502D01*
Y105430D01*
X513823D01*
Y108980D01*
D02*
G37*
G36*
X486781Y126257D02*
X485786Y126059D01*
X484942Y125496D01*
X484379Y124652D01*
X484181Y123658D01*
X484379Y122662D01*
X484942Y121819D01*
X485786Y121255D01*
X486427Y121128D01*
X494551Y113004D01*
Y106063D01*
X493155Y104668D01*
X487845D01*
Y104135D01*
X486394D01*
Y104766D01*
X482432D01*
Y102388D01*
X482373Y102096D01*
X482432Y101804D01*
Y99426D01*
X486394D01*
Y100057D01*
X487845D01*
Y99524D01*
X493185D01*
Y100057D01*
X493468D01*
X494248Y100212D01*
X494909Y100654D01*
X498754Y104499D01*
X499196Y105161D01*
X499250Y105430D01*
X505993D01*
Y113329D01*
X499311D01*
X499196Y113906D01*
X498754Y114568D01*
X489310Y124012D01*
X489183Y124652D01*
X488619Y125496D01*
X487776Y126059D01*
X486781Y126257D01*
D02*
G37*
G36*
X399983Y114910D02*
X396217D01*
Y109767D01*
X396775D01*
Y108710D01*
X395430D01*
Y103566D01*
X400770D01*
Y108710D01*
X399426D01*
Y109767D01*
X399983D01*
Y114910D01*
D02*
G37*
G36*
X447030Y101524D02*
X444760D01*
Y99353D01*
X447030D01*
Y101524D01*
D02*
G37*
G36*
X443960D02*
X441690D01*
Y99353D01*
X443960D01*
Y101524D01*
D02*
G37*
G36*
X413369Y114713D02*
X408028D01*
Y109570D01*
X413369D01*
Y110119D01*
X413869Y110326D01*
X424061Y100134D01*
X420783Y96856D01*
X420496Y96426D01*
X420395Y95919D01*
Y81576D01*
X415706Y76887D01*
X415419Y76457D01*
X415318Y75950D01*
Y73471D01*
X414576Y73163D01*
X413719Y72506D01*
X413062Y71650D01*
X412649Y70652D01*
X412508Y69582D01*
X412649Y68512D01*
X413062Y67514D01*
X413719Y66658D01*
X414576Y66001D01*
X415573Y65588D01*
X416643Y65447D01*
X417714Y65588D01*
X418711Y66001D01*
X419567Y66658D01*
X420225Y67514D01*
X420638Y68512D01*
X420779Y69582D01*
X420638Y70652D01*
X420225Y71650D01*
X419567Y72506D01*
X418711Y73163D01*
X417969Y73471D01*
Y75401D01*
X422658Y80090D01*
X422945Y80520D01*
X423046Y81027D01*
Y95370D01*
X426484Y98808D01*
X432241D01*
Y98094D01*
X440928D01*
Y102056D01*
X432241D01*
Y101459D01*
X426484D01*
X414865Y113079D01*
X414435Y113366D01*
X413927Y113467D01*
X413369D01*
Y114713D01*
D02*
G37*
G36*
X400770Y102607D02*
X395430D01*
Y97464D01*
X400770D01*
Y98749D01*
X403895D01*
Y98094D01*
X412581D01*
Y102056D01*
X403895D01*
Y101400D01*
X400770D01*
Y102607D01*
D02*
G37*
G36*
X447030Y98553D02*
X444760D01*
Y96381D01*
X447030D01*
Y98553D01*
D02*
G37*
G36*
X443960D02*
X441690D01*
Y96381D01*
X443960D01*
Y98553D01*
D02*
G37*
G36*
X412581Y97056D02*
X403895D01*
Y96400D01*
X361473D01*
X360966Y96299D01*
X360536Y96012D01*
X341344Y76820D01*
X340753Y77064D01*
X339761Y77195D01*
X338769Y77064D01*
X337844Y76682D01*
X337051Y76072D01*
X336441Y75279D01*
X336058Y74354D01*
X335928Y73362D01*
X336058Y72370D01*
X336441Y71446D01*
X337051Y70652D01*
X337844Y70043D01*
X338769Y69660D01*
X339761Y69529D01*
X340753Y69660D01*
X341677Y70043D01*
X342471Y70652D01*
X343080Y71446D01*
X343463Y72370D01*
X343594Y73362D01*
X343463Y74354D01*
X343218Y74945D01*
X362022Y93749D01*
X403895D01*
Y93094D01*
X412581D01*
Y97056D01*
D02*
G37*
G36*
Y92056D02*
X408638D01*
Y90475D01*
X412581D01*
Y92056D01*
D02*
G37*
G36*
X407838D02*
X403895D01*
Y90475D01*
X407838D01*
Y92056D01*
D02*
G37*
G36*
X412581Y89675D02*
X408638D01*
Y88094D01*
X412581D01*
Y89675D01*
D02*
G37*
G36*
X407838D02*
X403895D01*
Y88094D01*
X407838D01*
Y89675D01*
D02*
G37*
G36*
X440928Y97056D02*
X432241D01*
Y96394D01*
X432061Y96359D01*
X431631Y96071D01*
X425706Y90146D01*
X425419Y89716D01*
X425318Y89209D01*
Y73471D01*
X424576Y73163D01*
X423719Y72506D01*
X423062Y71650D01*
X422649Y70652D01*
X422508Y69582D01*
X422649Y68512D01*
X423062Y67514D01*
X423719Y66658D01*
X424576Y66001D01*
X425573Y65588D01*
X426643Y65447D01*
X427714Y65588D01*
X428711Y66001D01*
X429567Y66658D01*
X430225Y67514D01*
X430638Y68512D01*
X430779Y69582D01*
X430638Y70652D01*
X430225Y71650D01*
X429567Y72506D01*
X428711Y73163D01*
X427969Y73471D01*
Y88660D01*
X432403Y93094D01*
X440928D01*
Y93098D01*
X444160D01*
X446093Y91166D01*
Y85830D01*
X452024D01*
Y94320D01*
X446688D01*
X445647Y95361D01*
X445217Y95648D01*
X444709Y95749D01*
X440928D01*
Y97056D01*
D02*
G37*
G36*
X463638Y94320D02*
X457707D01*
Y85830D01*
X463638D01*
Y88749D01*
X484283D01*
X493855Y79177D01*
Y74728D01*
X500179D01*
Y81052D01*
X495730D01*
X485770Y91012D01*
X485340Y91299D01*
X484832Y91400D01*
X463638D01*
Y94320D01*
D02*
G37*
G36*
X350161Y77142D02*
Y73762D01*
X353541D01*
X353463Y74354D01*
X353080Y75279D01*
X352471Y76072D01*
X351677Y76682D01*
X350753Y77064D01*
X350161Y77142D01*
D02*
G37*
G36*
X349361D02*
X348769Y77064D01*
X347844Y76682D01*
X347050Y76072D01*
X346441Y75279D01*
X346059Y74354D01*
X345981Y73762D01*
X349361D01*
Y77142D01*
D02*
G37*
G36*
X522247Y77142D02*
Y73762D01*
X525627D01*
X525549Y74354D01*
X525166Y75279D01*
X524557Y76072D01*
X523764Y76682D01*
X522839Y77064D01*
X522247Y77142D01*
D02*
G37*
G36*
X521447D02*
X520855Y77064D01*
X519931Y76682D01*
X519137Y76072D01*
X518528Y75279D01*
X518145Y74354D01*
X518067Y73762D01*
X521447D01*
Y77142D01*
D02*
G37*
G36*
X462753Y73705D02*
Y70022D01*
X466436D01*
X466348Y70692D01*
X465935Y71690D01*
X465278Y72546D01*
X464421Y73203D01*
X463424Y73616D01*
X462753Y73705D01*
D02*
G37*
G36*
X461953D02*
X461283Y73616D01*
X460286Y73203D01*
X459429Y72546D01*
X458772Y71690D01*
X458359Y70692D01*
X458271Y70022D01*
X461953D01*
Y73705D01*
D02*
G37*
G36*
X353541Y72962D02*
X350161D01*
Y69582D01*
X350753Y69660D01*
X351677Y70043D01*
X352471Y70652D01*
X353080Y71446D01*
X353463Y72370D01*
X353541Y72962D01*
D02*
G37*
G36*
X349361D02*
X345981D01*
X346059Y72370D01*
X346441Y71446D01*
X347050Y70652D01*
X347844Y70043D01*
X348769Y69660D01*
X349361Y69582D01*
Y72962D01*
D02*
G37*
G36*
X525627Y72962D02*
X522247D01*
Y69582D01*
X522839Y69660D01*
X523764Y70043D01*
X524557Y70652D01*
X525166Y71446D01*
X525549Y72370D01*
X525627Y72962D01*
D02*
G37*
G36*
X521447D02*
X518067D01*
X518145Y72370D01*
X518528Y71446D01*
X519137Y70652D01*
X519931Y70043D01*
X520855Y69660D01*
X521447Y69582D01*
Y72962D01*
D02*
G37*
G36*
X477017Y81079D02*
X476192Y80970D01*
X475423Y80652D01*
X474762Y80145D01*
X474255Y79484D01*
X473937Y78715D01*
X473828Y77890D01*
X473937Y77064D01*
X474255Y76295D01*
X474762Y75635D01*
X475423Y75128D01*
X476192Y74809D01*
X477017Y74700D01*
X477843Y74809D01*
X478112Y74921D01*
X484048Y68984D01*
X483937Y68715D01*
X483828Y67890D01*
X483937Y67064D01*
X484255Y66295D01*
X484762Y65635D01*
X485423Y65128D01*
X486192Y64809D01*
X487017Y64701D01*
X487843Y64809D01*
X488612Y65128D01*
X489273Y65635D01*
X489779Y66295D01*
X489891Y66564D01*
X506375D01*
X506882Y66665D01*
X507312Y66953D01*
X510264Y69905D01*
X510855Y69660D01*
X511847Y69529D01*
X512839Y69660D01*
X513764Y70043D01*
X514557Y70652D01*
X515166Y71446D01*
X515549Y72370D01*
X515680Y73362D01*
X515549Y74354D01*
X515166Y75279D01*
X514557Y76072D01*
X513764Y76682D01*
X512839Y77064D01*
X511847Y77195D01*
X510855Y77064D01*
X509931Y76682D01*
X509137Y76072D01*
X508528Y75279D01*
X508145Y74354D01*
X508014Y73362D01*
X508145Y72370D01*
X508390Y71779D01*
X505826Y69215D01*
X489891D01*
X489779Y69484D01*
X489273Y70145D01*
X488612Y70652D01*
X487843Y70970D01*
X487017Y71079D01*
X486192Y70970D01*
X485923Y70859D01*
X479986Y76795D01*
X480098Y77064D01*
X480207Y77890D01*
X480098Y78715D01*
X479779Y79484D01*
X479273Y80145D01*
X478612Y80652D01*
X477843Y80970D01*
X477017Y81079D01*
D02*
G37*
G36*
X466436Y69222D02*
X462753D01*
Y65539D01*
X463424Y65628D01*
X464421Y66041D01*
X465278Y66698D01*
X465935Y67554D01*
X466348Y68552D01*
X466436Y69222D01*
D02*
G37*
G36*
X461953D02*
X458271D01*
X458359Y68552D01*
X458772Y67554D01*
X459429Y66698D01*
X460286Y66041D01*
X461283Y65628D01*
X461953Y65539D01*
Y69222D01*
D02*
G37*
G36*
X440928Y92056D02*
X432241D01*
Y88094D01*
X435318D01*
Y73471D01*
X434576Y73163D01*
X433719Y72506D01*
X433062Y71650D01*
X432649Y70652D01*
X432508Y69582D01*
X432649Y68512D01*
X433062Y67514D01*
X433719Y66658D01*
X434576Y66001D01*
X435573Y65588D01*
X436643Y65447D01*
X437714Y65588D01*
X438711Y66001D01*
X439568Y66658D01*
X440225Y67514D01*
X440532Y68257D01*
X448481D01*
X448772Y67554D01*
X449429Y66698D01*
X450286Y66041D01*
X451283Y65628D01*
X452353Y65487D01*
X453424Y65628D01*
X454421Y66041D01*
X455278Y66698D01*
X455935Y67554D01*
X456348Y68552D01*
X456489Y69622D01*
X456348Y70692D01*
X455935Y71690D01*
X455278Y72546D01*
X454421Y73203D01*
X453424Y73616D01*
X452353Y73757D01*
X451283Y73616D01*
X450286Y73203D01*
X449429Y72546D01*
X448772Y71690D01*
X448448Y70907D01*
X440532D01*
X440225Y71650D01*
X439568Y72506D01*
X438711Y73163D01*
X437969Y73471D01*
Y88094D01*
X440928D01*
Y92056D01*
D02*
G37*
G36*
X412581Y107056D02*
X403895D01*
Y103094D01*
X412419D01*
X414924Y100589D01*
Y86056D01*
X405706Y76837D01*
X405419Y76407D01*
X405318Y75900D01*
Y73471D01*
X404576Y73163D01*
X403719Y72506D01*
X403062Y71650D01*
X402649Y70652D01*
X402508Y69582D01*
X402649Y68512D01*
X403062Y67514D01*
X403719Y66658D01*
X404576Y66001D01*
X405573Y65588D01*
X406643Y65447D01*
X407714Y65588D01*
X408711Y66001D01*
X409567Y66658D01*
X410225Y67514D01*
X410638Y68512D01*
X410779Y69582D01*
X410638Y70652D01*
X410225Y71650D01*
X409567Y72506D01*
X408711Y73163D01*
X407969Y73471D01*
Y75351D01*
X417187Y84569D01*
X417474Y84999D01*
X417575Y85506D01*
Y101138D01*
X417474Y101645D01*
X417187Y102075D01*
X413250Y106012D01*
X412820Y106299D01*
X412581Y106347D01*
Y107056D01*
D02*
G37*
G36*
X180009Y326540D02*
Y322016D01*
X184533D01*
X184416Y322904D01*
X183919Y324104D01*
X183128Y325135D01*
X182098Y325925D01*
X180897Y326423D01*
X180009Y326540D01*
D02*
G37*
G36*
X70790D02*
Y322016D01*
X75314D01*
X75197Y322904D01*
X74700Y324104D01*
X73909Y325135D01*
X72879Y325925D01*
X71678Y326423D01*
X70790Y326540D01*
D02*
G37*
G36*
X179209D02*
X178321Y326423D01*
X177121Y325925D01*
X176090Y325135D01*
X175300Y324104D01*
X174802Y322904D01*
X174686Y322016D01*
X179209D01*
Y326540D01*
D02*
G37*
G36*
X184533Y321216D02*
X180009D01*
Y316692D01*
X180897Y316809D01*
X182098Y317306D01*
X183128Y318097D01*
X183919Y319127D01*
X184416Y320328D01*
X184533Y321216D01*
D02*
G37*
G36*
X75314D02*
X70790D01*
Y316692D01*
X71678Y316809D01*
X72879Y317306D01*
X73909Y318097D01*
X74700Y319127D01*
X75197Y320328D01*
X75314Y321216D01*
D02*
G37*
G36*
X179209D02*
X174686D01*
X174802Y320328D01*
X175300Y319127D01*
X176090Y318097D01*
X177121Y317306D01*
X178321Y316809D01*
X179209Y316692D01*
Y321216D01*
D02*
G37*
G36*
X134288Y326592D02*
X133000Y326423D01*
X131800Y325925D01*
X130769Y325135D01*
X129979Y324104D01*
X129481Y322904D01*
X129312Y321616D01*
X129481Y320328D01*
X129979Y319127D01*
X130769Y318097D01*
X131800Y317306D01*
X133000Y316809D01*
X134288Y316639D01*
X135576Y316809D01*
X136777Y317306D01*
X137807Y318097D01*
X138598Y319127D01*
X139095Y320328D01*
X139265Y321616D01*
X139095Y322904D01*
X138598Y324104D01*
X137807Y325135D01*
X136777Y325925D01*
X135576Y326423D01*
X134288Y326592D01*
D02*
G37*
G36*
X243507Y301592D02*
X242219Y301423D01*
X241019Y300925D01*
X239988Y300135D01*
X239198Y299104D01*
X238700Y297904D01*
X238531Y296616D01*
X238700Y295328D01*
X239198Y294127D01*
X239988Y293097D01*
X241019Y292306D01*
X242219Y291809D01*
X243507Y291639D01*
X244795Y291809D01*
X245996Y292306D01*
X247026Y293097D01*
X247817Y294127D01*
X248314Y295328D01*
X248484Y296616D01*
X248314Y297904D01*
X247817Y299104D01*
X247026Y300135D01*
X245996Y300925D01*
X244795Y301423D01*
X243507Y301592D01*
D02*
G37*
G36*
X179609D02*
X178321Y301423D01*
X177121Y300925D01*
X176090Y300135D01*
X175300Y299104D01*
X174802Y297904D01*
X174633Y296616D01*
X174802Y295328D01*
X175300Y294127D01*
X176090Y293097D01*
X177121Y292306D01*
X178321Y291809D01*
X179609Y291639D01*
X180897Y291809D01*
X182098Y292306D01*
X183128Y293097D01*
X183919Y294127D01*
X184416Y295328D01*
X184586Y296616D01*
X184416Y297904D01*
X183919Y299104D01*
X183128Y300135D01*
X182098Y300925D01*
X180897Y301423D01*
X179609Y301592D01*
D02*
G37*
G36*
X134288D02*
X133000Y301423D01*
X131800Y300925D01*
X130769Y300135D01*
X129979Y299104D01*
X129481Y297904D01*
X129312Y296616D01*
X129481Y295328D01*
X129979Y294127D01*
X130769Y293097D01*
X131800Y292306D01*
X133000Y291809D01*
X134288Y291639D01*
X135576Y291809D01*
X136777Y292306D01*
X137807Y293097D01*
X138598Y294127D01*
X139095Y295328D01*
X139265Y296616D01*
X139095Y297904D01*
X138598Y299104D01*
X137807Y300135D01*
X136777Y300925D01*
X135576Y301423D01*
X134288Y301592D01*
D02*
G37*
G36*
X70390D02*
X69102Y301423D01*
X67902Y300925D01*
X66871Y300135D01*
X66081Y299104D01*
X65583Y297904D01*
X65414Y296616D01*
X65583Y295328D01*
X66081Y294127D01*
X66871Y293097D01*
X67902Y292306D01*
X69102Y291809D01*
X70390Y291639D01*
X71678Y291809D01*
X72879Y292306D01*
X73909Y293097D01*
X74700Y294127D01*
X75197Y295328D01*
X75367Y296616D01*
X75197Y297904D01*
X74700Y299104D01*
X73909Y300135D01*
X72879Y300925D01*
X71678Y301423D01*
X70390Y301592D01*
D02*
G37*
G36*
X153158Y269498D02*
Y267082D01*
X155574D01*
X155277Y267798D01*
X154668Y268592D01*
X153875Y269201D01*
X153158Y269498D01*
D02*
G37*
G36*
X150758Y269498D02*
X150042Y269201D01*
X149248Y268592D01*
X148639Y267798D01*
X148342Y267082D01*
X150758D01*
Y269498D01*
D02*
G37*
G36*
X243507Y276592D02*
X242219Y276423D01*
X241019Y275925D01*
X239988Y275135D01*
X239198Y274104D01*
X238700Y272904D01*
X238531Y271616D01*
X238700Y270328D01*
X239198Y269127D01*
X239988Y268097D01*
X241019Y267306D01*
X242219Y266809D01*
X243507Y266639D01*
X244795Y266809D01*
X245996Y267306D01*
X247026Y268097D01*
X247817Y269127D01*
X248314Y270328D01*
X248484Y271616D01*
X248314Y272904D01*
X247817Y274104D01*
X247026Y275135D01*
X245996Y275925D01*
X244795Y276423D01*
X243507Y276592D01*
D02*
G37*
G36*
X179609D02*
X178321Y276423D01*
X177121Y275925D01*
X176090Y275135D01*
X175300Y274104D01*
X174802Y272904D01*
X174633Y271616D01*
X174802Y270328D01*
X175300Y269127D01*
X176090Y268097D01*
X177121Y267306D01*
X178321Y266809D01*
X179609Y266639D01*
X180897Y266809D01*
X182098Y267306D01*
X183128Y268097D01*
X183919Y269127D01*
X184416Y270328D01*
X184586Y271616D01*
X184416Y272904D01*
X183919Y274104D01*
X183128Y275135D01*
X182098Y275925D01*
X180897Y276423D01*
X179609Y276592D01*
D02*
G37*
G36*
X134288D02*
X133000Y276423D01*
X131800Y275925D01*
X130769Y275135D01*
X129979Y274104D01*
X129481Y272904D01*
X129312Y271616D01*
X129481Y270328D01*
X129979Y269127D01*
X130769Y268097D01*
X131800Y267306D01*
X133000Y266809D01*
X134288Y266639D01*
X135576Y266809D01*
X136777Y267306D01*
X137807Y268097D01*
X138598Y269127D01*
X139095Y270328D01*
X139265Y271616D01*
X139095Y272904D01*
X138598Y274104D01*
X137807Y275135D01*
X136777Y275925D01*
X135576Y276423D01*
X134288Y276592D01*
D02*
G37*
G36*
X70390D02*
X69102Y276423D01*
X67902Y275925D01*
X66871Y275135D01*
X66081Y274104D01*
X65583Y272904D01*
X65414Y271616D01*
X65583Y270328D01*
X66065Y269165D01*
X53540Y256640D01*
X53253Y256210D01*
X53152Y255703D01*
Y226376D01*
X52908Y226212D01*
X52426Y225491D01*
X52257Y224642D01*
X52426Y223792D01*
X52908Y223072D01*
X53628Y222590D01*
X54478Y222421D01*
X55327Y222590D01*
X56048Y223072D01*
X56529Y223792D01*
X56698Y224642D01*
X56529Y225491D01*
X56048Y226212D01*
X55803Y226376D01*
Y255154D01*
X67940Y267290D01*
X69102Y266809D01*
X70390Y266639D01*
X71678Y266809D01*
X72879Y267306D01*
X73909Y268097D01*
X74700Y269127D01*
X75197Y270328D01*
X75367Y271616D01*
X75197Y272904D01*
X74700Y274104D01*
X73909Y275135D01*
X72879Y275925D01*
X71678Y276423D01*
X70390Y276592D01*
D02*
G37*
G36*
X150758Y264682D02*
X148342D01*
X148639Y263966D01*
X149248Y263172D01*
X150042Y262563D01*
X150758Y262266D01*
Y264682D01*
D02*
G37*
G36*
X155574D02*
X153158D01*
Y262266D01*
X153875Y262563D01*
X154668Y263172D01*
X155277Y263966D01*
X155574Y264682D01*
D02*
G37*
G36*
X161761Y253536D02*
X160912Y253367D01*
X160191Y252885D01*
X160028Y252640D01*
X159895D01*
X159388Y252539D01*
X158958Y252252D01*
X155218Y248513D01*
X150375D01*
Y243763D01*
X159061D01*
Y248513D01*
X159061Y248513D01*
X159062D01*
X159339Y248884D01*
X160196Y249741D01*
X160912Y249263D01*
X161761Y249094D01*
X162611Y249263D01*
X163332Y249745D01*
X163813Y250465D01*
X163982Y251315D01*
X163813Y252165D01*
X163332Y252885D01*
X162611Y253367D01*
X161761Y253536D01*
D02*
G37*
G36*
X131502Y248513D02*
X122816D01*
Y247364D01*
X122809Y247362D01*
X122379Y247075D01*
X120022Y244718D01*
X119734Y244776D01*
X118884Y244607D01*
X118164Y244125D01*
X117682Y243405D01*
X117513Y242555D01*
X117682Y241705D01*
X118164Y240985D01*
X118884Y240504D01*
X119734Y240334D01*
X120583Y240504D01*
X121304Y240985D01*
X121785Y241705D01*
X121954Y242555D01*
X121897Y242844D01*
X122816Y243763D01*
X131502D01*
Y248513D01*
D02*
G37*
G36*
X176124Y244241D02*
X174543D01*
Y240691D01*
X176124D01*
Y244241D01*
D02*
G37*
G36*
X173743D02*
X172162D01*
Y240691D01*
X173743D01*
Y244241D01*
D02*
G37*
G36*
X166670Y258692D02*
X165820Y258523D01*
X165100Y258041D01*
X164619Y257321D01*
X164450Y256471D01*
X164619Y255621D01*
X165100Y254901D01*
X165345Y254737D01*
Y245336D01*
X164250Y244241D01*
X162162D01*
Y240185D01*
X159561Y237584D01*
X159061Y237755D01*
Y238513D01*
X150375D01*
Y233763D01*
X159061D01*
Y234812D01*
X159990D01*
X160497Y234913D01*
X160927Y235201D01*
X161792Y236065D01*
X162162Y236342D01*
Y236342D01*
X162162Y236342D01*
X166124D01*
Y242366D01*
X167607Y243849D01*
X167895Y244279D01*
X167996Y244787D01*
Y254737D01*
X168240Y254901D01*
X168722Y255621D01*
X168891Y256471D01*
X168722Y257321D01*
X168240Y258041D01*
X167520Y258523D01*
X166670Y258692D01*
D02*
G37*
G36*
X176124Y239891D02*
X174543D01*
Y236342D01*
X176124D01*
Y239891D01*
D02*
G37*
G36*
X173743D02*
X172162D01*
Y236342D01*
X173743D01*
Y239891D01*
D02*
G37*
G36*
X195436Y240698D02*
X191788D01*
Y235376D01*
X195436D01*
Y240698D01*
D02*
G37*
G36*
X190988D02*
X187340D01*
Y235376D01*
X190988D01*
Y240698D01*
D02*
G37*
G36*
X131502Y238513D02*
X122816D01*
Y237463D01*
X84392D01*
X83885Y237362D01*
X83455Y237075D01*
X75883Y229504D01*
X75596Y229074D01*
X75495Y228566D01*
Y219017D01*
X74829Y218741D01*
X74004Y218108D01*
X73371Y217283D01*
X72973Y216322D01*
X72837Y215291D01*
X72973Y214260D01*
X73371Y213300D01*
X74004Y212474D01*
X74829Y211842D01*
X75789Y211443D01*
X76820Y211308D01*
X77851Y211443D01*
X78812Y211842D01*
X79637Y212474D01*
X80270Y213300D01*
X80668Y214260D01*
X80804Y215291D01*
X80668Y216322D01*
X80270Y217283D01*
X79637Y218108D01*
X78812Y218741D01*
X78146Y219017D01*
Y228017D01*
X84941Y234812D01*
X122816D01*
Y233763D01*
X131502D01*
Y238513D01*
D02*
G37*
G36*
X195436Y234576D02*
X191788D01*
Y229255D01*
X195436D01*
Y234576D01*
D02*
G37*
G36*
X190988D02*
X187340D01*
Y229255D01*
X190988D01*
Y234576D01*
D02*
G37*
G36*
X159061Y228513D02*
X150375D01*
Y227463D01*
X131502D01*
Y228513D01*
X122816D01*
Y223763D01*
X131502D01*
Y224812D01*
X150375D01*
Y223763D01*
X159061D01*
Y228513D01*
D02*
G37*
G36*
X229698Y229397D02*
X228565Y229247D01*
X227508Y228810D01*
X226601Y228114D01*
X225904Y227206D01*
X225467Y226150D01*
X225317Y225016D01*
X225467Y223882D01*
X225825Y223017D01*
X220999Y218191D01*
X220712Y217761D01*
X220611Y217253D01*
Y201084D01*
X217517Y197990D01*
X217230Y197560D01*
X217129Y197053D01*
Y188083D01*
X217230Y187576D01*
X217517Y187146D01*
X222170Y182493D01*
X222379Y182353D01*
Y180741D01*
X223638D01*
Y179880D01*
X222391D01*
Y174540D01*
X224255D01*
Y173276D01*
X223599D01*
Y165968D01*
X227561D01*
Y173276D01*
X226906D01*
Y174540D01*
X227535D01*
Y179880D01*
X226288D01*
Y180741D01*
X227522D01*
Y186081D01*
X222379D01*
X222379Y186081D01*
Y186081D01*
X222024Y186387D01*
X219780Y188632D01*
Y196504D01*
X222873Y199598D01*
X223161Y200028D01*
X223262Y200535D01*
Y216705D01*
X227699Y221142D01*
X228565Y220784D01*
X229698Y220635D01*
X230832Y220784D01*
X231889Y221222D01*
X232796Y221918D01*
X233492Y222825D01*
X233930Y223882D01*
X234079Y225016D01*
X233930Y226150D01*
X233492Y227206D01*
X232796Y228114D01*
X231889Y228810D01*
X230832Y229247D01*
X229698Y229397D01*
D02*
G37*
G36*
X64198D02*
X63064Y229247D01*
X62008Y228810D01*
X61101Y228114D01*
X60404Y227206D01*
X59967Y226150D01*
X59817Y225016D01*
X59967Y223882D01*
X60325Y223017D01*
X50742Y213434D01*
X47772D01*
Y208291D01*
X53112D01*
Y212055D01*
X62199Y221142D01*
X63064Y220784D01*
X64198Y220635D01*
X65332Y220784D01*
X66389Y221222D01*
X67296Y221918D01*
X67992Y222825D01*
X68430Y223882D01*
X68579Y225016D01*
X68430Y226150D01*
X67992Y227206D01*
X67296Y228114D01*
X66389Y228810D01*
X65332Y229247D01*
X64198Y229397D01*
D02*
G37*
G36*
X176124Y218650D02*
X174543D01*
Y215101D01*
X176124D01*
Y218650D01*
D02*
G37*
G36*
X173743D02*
X172162D01*
Y215101D01*
X173743D01*
Y218650D01*
D02*
G37*
G36*
X174143Y214701D02*
D01*
D01*
D01*
D02*
G37*
G36*
X209698Y229397D02*
X208564Y229247D01*
X207508Y228810D01*
X206601Y228114D01*
X205904Y227206D01*
X205467Y226150D01*
X205317Y225016D01*
X205467Y223882D01*
X205904Y222825D01*
X206601Y221918D01*
X207508Y221222D01*
X208373Y220863D01*
Y216879D01*
X207123D01*
Y211539D01*
X212266D01*
Y216879D01*
X211024D01*
Y220863D01*
X211889Y221222D01*
X212796Y221918D01*
X213492Y222825D01*
X213930Y223882D01*
X214079Y225016D01*
X213930Y226150D01*
X213492Y227206D01*
X212796Y228114D01*
X211889Y228810D01*
X210832Y229247D01*
X209698Y229397D01*
D02*
G37*
G36*
X66978Y219275D02*
X65947Y219139D01*
X64986Y218741D01*
X64161Y218108D01*
X63528Y217283D01*
X63130Y216322D01*
X62994Y215291D01*
X63130Y214260D01*
X63406Y213594D01*
X55214Y205402D01*
X54926Y204972D01*
X54826Y204464D01*
Y193762D01*
X52201D01*
Y181139D01*
X60101D01*
Y186125D01*
X68888D01*
Y184879D01*
X74228D01*
Y190022D01*
X68888D01*
Y188776D01*
X60101D01*
Y193762D01*
X57476D01*
Y203915D01*
X65281Y211719D01*
X65947Y211443D01*
X66978Y211308D01*
X68009Y211443D01*
X68970Y211842D01*
X69795Y212474D01*
X70428Y213300D01*
X70826Y214260D01*
X70961Y215291D01*
X70826Y216322D01*
X70428Y217283D01*
X69795Y218108D01*
X68970Y218741D01*
X68009Y219139D01*
X66978Y219275D01*
D02*
G37*
G36*
X176124Y214301D02*
X174543D01*
Y210751D01*
X176124D01*
Y214301D01*
D02*
G37*
G36*
X173743D02*
X172162D01*
Y210751D01*
X173743D01*
Y214301D01*
D02*
G37*
G36*
X159591Y222547D02*
X150467D01*
X149960Y222446D01*
X149530Y222159D01*
X145318Y217947D01*
X145029Y218004D01*
X144179Y217835D01*
X143459Y217354D01*
X142977Y216633D01*
X142808Y215784D01*
X142977Y214934D01*
X143459Y214213D01*
X144179Y213732D01*
X145029Y213563D01*
X145879Y213732D01*
X146599Y214213D01*
X147081Y214934D01*
X147249Y215784D01*
X147192Y216072D01*
X151016Y219896D01*
X159042D01*
X162162Y216776D01*
Y210751D01*
X166124D01*
Y218650D01*
X164037D01*
X160528Y222159D01*
X160098Y222446D01*
X159591Y222547D01*
D02*
G37*
G36*
X189676Y253536D02*
X188827Y253367D01*
X188106Y252885D01*
X187625Y252165D01*
X187456Y251315D01*
X187625Y250465D01*
X188106Y249745D01*
X188827Y249263D01*
X189676Y249094D01*
X190526Y249263D01*
X191246Y249745D01*
X191410Y249990D01*
X217708D01*
X237109Y230589D01*
Y214154D01*
X233140Y210186D01*
X224754D01*
Y202287D01*
X229727D01*
Y192272D01*
X228481D01*
Y186932D01*
X233624D01*
Y192272D01*
X232378D01*
Y202287D01*
X237377D01*
Y210186D01*
X237377D01*
X237234Y210531D01*
X239372Y212668D01*
X239659Y213098D01*
X239760Y213605D01*
Y231138D01*
X239659Y231645D01*
X239372Y232075D01*
X219096Y252351D01*
X218666Y252638D01*
X218159Y252739D01*
X217664Y252640D01*
X191410D01*
X191246Y252885D01*
X190526Y253367D01*
X189676Y253536D01*
D02*
G37*
G36*
X211297Y210776D02*
X208928D01*
Y207620D01*
X211297D01*
Y210776D01*
D02*
G37*
G36*
X208128D02*
X205760D01*
Y207620D01*
X208128D01*
Y210776D01*
D02*
G37*
G36*
X166498Y209300D02*
X164917D01*
Y207030D01*
X166498D01*
Y209300D01*
D02*
G37*
G36*
X164117D02*
X162536D01*
Y207030D01*
X164117D01*
Y209300D01*
D02*
G37*
G36*
X131502Y218513D02*
X122816D01*
Y213763D01*
X128836D01*
X134696Y207903D01*
X134639Y207614D01*
X134808Y206764D01*
X135289Y206044D01*
X136010Y205563D01*
X136860Y205394D01*
X137709Y205563D01*
X138430Y206044D01*
X138593Y206289D01*
X143245D01*
Y206027D01*
X147994D01*
Y209202D01*
X143245D01*
Y208940D01*
X138593D01*
X138430Y209184D01*
X137709Y209666D01*
X136860Y209835D01*
X136571Y209777D01*
X131502Y214846D01*
Y218513D01*
D02*
G37*
G36*
X166498Y206230D02*
X164917D01*
Y203960D01*
X166498D01*
Y206230D01*
D02*
G37*
G36*
X164117D02*
X162536D01*
Y203960D01*
X164117D01*
Y206230D01*
D02*
G37*
G36*
X218369Y216879D02*
X213225D01*
Y211539D01*
X214471D01*
Y210776D01*
X213043D01*
Y203664D01*
X218580D01*
Y210776D01*
X217122D01*
Y211539D01*
X218369D01*
Y216879D01*
D02*
G37*
G36*
X211297Y206820D02*
X208928D01*
Y203664D01*
X211297D01*
Y206820D01*
D02*
G37*
G36*
X208128D02*
X205760D01*
Y203664D01*
X208128D01*
Y206820D01*
D02*
G37*
G36*
X177128Y204477D02*
X174858D01*
Y202306D01*
X177128D01*
Y204477D01*
D02*
G37*
G36*
X174058D02*
X171788D01*
Y202306D01*
X174058D01*
Y204477D01*
D02*
G37*
G36*
X177128Y201505D02*
X174858D01*
Y199334D01*
X177128D01*
Y201505D01*
D02*
G37*
G36*
X174058D02*
X171788D01*
Y199334D01*
X174058D01*
Y201505D01*
D02*
G37*
G36*
X86663Y219275D02*
X85632Y219139D01*
X84671Y218741D01*
X83846Y218108D01*
X83213Y217283D01*
X82815Y216322D01*
X82679Y215291D01*
X82815Y214260D01*
X83213Y213300D01*
X83846Y212474D01*
X84671Y211842D01*
X85338Y211565D01*
Y206419D01*
X84671Y206143D01*
X83846Y205510D01*
X83213Y204685D01*
X82815Y203724D01*
X82679Y202693D01*
X82815Y201662D01*
X83213Y200701D01*
X83846Y199876D01*
X84671Y199243D01*
X85632Y198845D01*
X86663Y198709D01*
X87694Y198845D01*
X88655Y199243D01*
X89480Y199876D01*
X90113Y200701D01*
X90511Y201662D01*
X90647Y202693D01*
X90511Y203724D01*
X90113Y204685D01*
X89480Y205510D01*
X88655Y206143D01*
X87989Y206419D01*
Y211565D01*
X88655Y211842D01*
X89480Y212474D01*
X90113Y213300D01*
X90511Y214260D01*
X90647Y215291D01*
X90511Y216322D01*
X90113Y217283D01*
X89480Y218108D01*
X88655Y218741D01*
X87694Y219139D01*
X86663Y219275D01*
D02*
G37*
G36*
X76820Y206677D02*
X75789Y206541D01*
X74829Y206143D01*
X74004Y205510D01*
X73371Y204685D01*
X72973Y203724D01*
X72837Y202693D01*
X72973Y201662D01*
X73371Y200701D01*
X74004Y199876D01*
X74829Y199243D01*
X75789Y198845D01*
X76820Y198709D01*
X77851Y198845D01*
X78812Y199243D01*
X79637Y199876D01*
X80270Y200701D01*
X80668Y201662D01*
X80804Y202693D01*
X80668Y203724D01*
X80270Y204685D01*
X79637Y205510D01*
X78812Y206143D01*
X77851Y206541D01*
X76820Y206677D01*
D02*
G37*
G36*
X161958Y269715D02*
X160966Y269584D01*
X160042Y269201D01*
X159248Y268592D01*
X158639Y267798D01*
X158256Y266874D01*
X158125Y265882D01*
X158256Y264890D01*
X158639Y263966D01*
X159248Y263172D01*
X160042Y262563D01*
X160966Y262180D01*
X161958Y262049D01*
X162950Y262180D01*
X163874Y262563D01*
X164668Y263172D01*
X165183Y263843D01*
X166895D01*
X180588Y250149D01*
Y227791D01*
X180743Y227011D01*
X181185Y226349D01*
X187340Y220195D01*
Y214491D01*
X189348D01*
Y213729D01*
X187438D01*
Y204027D01*
X181743Y198333D01*
X181103Y198205D01*
X180560Y197842D01*
X177128D01*
Y198375D01*
X171788D01*
Y197842D01*
X170239D01*
Y198473D01*
X166276D01*
Y196095D01*
X166218Y195803D01*
X166276Y195511D01*
Y193133D01*
X170239D01*
Y193764D01*
X171788D01*
Y193231D01*
X177128D01*
Y193764D01*
X180560D01*
X181103Y193401D01*
X182098Y193203D01*
X183093Y193401D01*
X183936Y193965D01*
X184500Y194808D01*
X184627Y195449D01*
X188709Y199531D01*
X195337D01*
Y213729D01*
X193427D01*
Y214491D01*
X195436D01*
Y225934D01*
X187369D01*
X184667Y228636D01*
Y250994D01*
X184511Y251774D01*
X184069Y252436D01*
X169181Y267324D01*
X168520Y267766D01*
X167739Y267921D01*
X165183D01*
X164668Y268592D01*
X163874Y269201D01*
X162950Y269584D01*
X161958Y269715D01*
D02*
G37*
G36*
X53112Y207331D02*
X47772D01*
Y202188D01*
X49117D01*
Y201080D01*
X48872Y200917D01*
X48391Y200196D01*
X48222Y199346D01*
X48391Y198497D01*
X48872Y197776D01*
X49593Y197295D01*
X50442Y197126D01*
X51292Y197295D01*
X52012Y197776D01*
X52494Y198497D01*
X52663Y199346D01*
X52494Y200196D01*
X52012Y200917D01*
X51768Y201080D01*
Y202188D01*
X53112D01*
Y207331D01*
D02*
G37*
G36*
X151144Y198473D02*
X148972D01*
Y196203D01*
X151144D01*
Y198473D01*
D02*
G37*
G36*
X148172D02*
X146001D01*
Y196203D01*
X148172D01*
Y198473D01*
D02*
G37*
G36*
X84198Y229397D02*
X83065Y229247D01*
X82008Y228810D01*
X81101Y228114D01*
X80404Y227206D01*
X79967Y226150D01*
X79817Y225016D01*
X79967Y223882D01*
X80404Y222825D01*
X81101Y221918D01*
X82008Y221222D01*
X83065Y220784D01*
X84198Y220635D01*
X85332Y220784D01*
X86389Y221222D01*
X87296Y221918D01*
X87992Y222825D01*
X88055Y222976D01*
X90088D01*
X96194Y216870D01*
Y193216D01*
X94353D01*
Y193749D01*
X89012D01*
Y188605D01*
X94353D01*
Y189138D01*
X96696D01*
X97239Y188775D01*
X98234Y188577D01*
X99229Y188775D01*
X99670Y189070D01*
X99885D01*
X105128Y183826D01*
X104957Y183414D01*
X104957D01*
Y178271D01*
X110297D01*
Y183414D01*
X109667D01*
Y184211D01*
X109511Y184991D01*
X109069Y185653D01*
X102171Y192551D01*
X101510Y192993D01*
X100729Y193148D01*
X100273D01*
Y217715D01*
X100118Y218495D01*
X99676Y219156D01*
X99676Y219156D01*
X92374Y226458D01*
X91713Y226900D01*
X90932Y227055D01*
X88055D01*
X87992Y227206D01*
X87296Y228114D01*
X86389Y228810D01*
X85332Y229247D01*
X84198Y229397D01*
D02*
G37*
G36*
X159061Y218513D02*
X150375D01*
Y213763D01*
X152636D01*
Y209202D01*
X152300D01*
Y206027D01*
X152636D01*
Y198473D01*
X152103D01*
Y193133D01*
X157246D01*
Y193764D01*
X158796D01*
Y193133D01*
X162758D01*
Y195511D01*
X162816Y195803D01*
X162758Y196095D01*
Y198473D01*
X158796D01*
Y197842D01*
X157246D01*
Y198473D01*
X156714D01*
Y206027D01*
X157050D01*
Y209202D01*
X156714D01*
Y213763D01*
X159061D01*
Y218513D01*
D02*
G37*
G36*
X151144Y195403D02*
X148972D01*
Y193133D01*
X151144D01*
Y195403D01*
D02*
G37*
G36*
X148172D02*
X146001D01*
Y193133D01*
X148172D01*
Y195403D01*
D02*
G37*
G36*
X227522Y192272D02*
X225350D01*
Y190002D01*
X227522D01*
Y192272D01*
D02*
G37*
G36*
X224550D02*
X222379D01*
Y190002D01*
X224550D01*
Y192272D01*
D02*
G37*
G36*
X66978Y206677D02*
X65947Y206541D01*
X64986Y206143D01*
X64161Y205510D01*
X63528Y204685D01*
X63130Y203724D01*
X62994Y202693D01*
X63130Y201662D01*
X63528Y200701D01*
X64161Y199876D01*
X64986Y199243D01*
X65947Y198845D01*
X66978Y198709D01*
X68009Y198845D01*
X68675Y199121D01*
X76808Y190989D01*
Y188605D01*
X82148D01*
Y189852D01*
X82910D01*
Y188605D01*
X88250D01*
Y193749D01*
X82910D01*
Y192503D01*
X82148D01*
Y193749D01*
X77797D01*
X70550Y200996D01*
X70826Y201662D01*
X70961Y202693D01*
X70826Y203724D01*
X70428Y204685D01*
X69795Y205510D01*
X68970Y206143D01*
X68009Y206541D01*
X66978Y206677D01*
D02*
G37*
G36*
X254281Y210186D02*
X241657D01*
Y202287D01*
X246644D01*
Y193847D01*
X245410D01*
Y188507D01*
X250554D01*
Y193847D01*
X249295D01*
Y202287D01*
X254281D01*
Y210186D01*
D02*
G37*
G36*
X195337Y193876D02*
X191788D01*
Y187176D01*
X195337D01*
Y193876D01*
D02*
G37*
G36*
X190988D02*
X187438D01*
Y187176D01*
X190988D01*
Y193876D01*
D02*
G37*
G36*
X227522Y189202D02*
X225350D01*
Y186932D01*
X227522D01*
Y189202D01*
D02*
G37*
G36*
X224550D02*
X222379D01*
Y186932D01*
X224550D01*
Y189202D01*
D02*
G37*
G36*
X88250Y187646D02*
X85980D01*
Y185475D01*
X88250D01*
Y187646D01*
D02*
G37*
G36*
X85180D02*
X82910D01*
Y185475D01*
X85180D01*
Y187646D01*
D02*
G37*
G36*
X244451Y193847D02*
X239308D01*
Y188507D01*
X240554D01*
Y187646D01*
X238914D01*
Y184737D01*
X233624D01*
Y186081D01*
X228481D01*
Y180741D01*
X229727D01*
Y179880D01*
X228494D01*
Y174540D01*
X229255D01*
Y173276D01*
X228599D01*
Y165968D01*
X232561D01*
Y173276D01*
X231906D01*
Y174540D01*
X233637D01*
Y179880D01*
X232378D01*
Y180741D01*
X233624D01*
Y182086D01*
X238914D01*
Y179157D01*
X244845D01*
Y187646D01*
X243205D01*
Y188507D01*
X244451D01*
Y193847D01*
D02*
G37*
G36*
X88250Y184675D02*
X85980D01*
Y182503D01*
X88250D01*
Y184675D01*
D02*
G37*
G36*
X85180D02*
X82910D01*
Y182503D01*
X85180D01*
Y184675D01*
D02*
G37*
G36*
X119734Y188870D02*
X118884Y188701D01*
X118164Y188220D01*
X117682Y187499D01*
X117513Y186650D01*
X117682Y185800D01*
X118164Y185079D01*
X118408Y184916D01*
Y183414D01*
X117162D01*
Y182168D01*
X116400D01*
Y183414D01*
X111060D01*
Y178271D01*
X116400D01*
Y179517D01*
X117162D01*
Y178271D01*
X122502D01*
Y183414D01*
X121059D01*
Y184916D01*
X121304Y185079D01*
X121785Y185800D01*
X121954Y186650D01*
X121785Y187499D01*
X121304Y188220D01*
X120583Y188701D01*
X119734Y188870D01*
D02*
G37*
G36*
X74228Y183920D02*
X71958D01*
Y181748D01*
X74228D01*
Y183920D01*
D02*
G37*
G36*
X71158D02*
X68888D01*
Y181748D01*
X71158D01*
Y183920D01*
D02*
G37*
G36*
X195337Y186376D02*
X191788D01*
Y179677D01*
X195337D01*
Y186376D01*
D02*
G37*
G36*
X190988D02*
X187438D01*
Y179677D01*
X190988D01*
Y186376D01*
D02*
G37*
G36*
X157654Y181150D02*
X143456D01*
Y179240D01*
X133524D01*
X132981Y179603D01*
X131985Y179801D01*
X130991Y179603D01*
X130147Y179039D01*
X129584Y178196D01*
X129386Y177201D01*
X129584Y176206D01*
X130147Y175362D01*
X130991Y174799D01*
X131985Y174601D01*
X132981Y174799D01*
X133524Y175162D01*
X143456D01*
Y173251D01*
X148516D01*
Y162646D01*
X146395D01*
Y156716D01*
X154884D01*
Y157642D01*
X156434D01*
Y156716D01*
X164924D01*
Y162646D01*
X164924Y162646D01*
X164924D01*
X165068Y163100D01*
X167386Y165418D01*
X182556D01*
X201250Y146723D01*
X201912Y146282D01*
X202692Y146126D01*
X213599D01*
Y144511D01*
X217562D01*
Y147873D01*
X217619Y148165D01*
X217562Y148457D01*
Y151820D01*
X213599D01*
Y150205D01*
X203537D01*
X184843Y168899D01*
X184181Y169341D01*
X183401Y169496D01*
X166541D01*
X165761Y169341D01*
X165099Y168899D01*
X159237Y163036D01*
X158976Y162646D01*
X156434D01*
Y161720D01*
X154884D01*
Y162646D01*
X152594D01*
Y173251D01*
X157654D01*
Y181150D01*
D02*
G37*
G36*
X74228Y180948D02*
X71958D01*
Y178776D01*
X74228D01*
Y180948D01*
D02*
G37*
G36*
X71158D02*
X68888D01*
Y178776D01*
X71158D01*
Y180948D01*
D02*
G37*
G36*
X177508Y181150D02*
X170809D01*
Y177601D01*
X177508D01*
Y181150D01*
D02*
G37*
G36*
X170009D02*
X163310D01*
Y177601D01*
X170009D01*
Y181150D01*
D02*
G37*
G36*
X116400Y177312D02*
X114130D01*
Y175140D01*
X116400D01*
Y177312D01*
D02*
G37*
G36*
X113330D02*
X111060D01*
Y175140D01*
X113330D01*
Y177312D01*
D02*
G37*
G36*
X94353Y187646D02*
X89012D01*
Y182503D01*
X90357D01*
Y181741D01*
X88127D01*
Y173251D01*
X88127Y173251D01*
X88126D01*
X87948Y172819D01*
X85899Y170770D01*
X82542D01*
Y171426D01*
X75233D01*
Y167464D01*
X82542D01*
Y168119D01*
X86448D01*
X86956Y168220D01*
X87386Y168508D01*
X92029Y173151D01*
X92096Y173251D01*
X94057D01*
Y181741D01*
X93008D01*
Y182503D01*
X94353D01*
Y187646D01*
D02*
G37*
G36*
X82148D02*
X76808D01*
Y182503D01*
X78152D01*
Y181741D01*
X76512D01*
Y173251D01*
X82443D01*
Y181741D01*
X80803D01*
Y182503D01*
X82148D01*
Y187646D01*
D02*
G37*
G36*
X177508Y176801D02*
X170809D01*
Y173251D01*
X177508D01*
Y176801D01*
D02*
G37*
G36*
X170009D02*
X163310D01*
Y173251D01*
X170009D01*
Y176801D01*
D02*
G37*
G36*
X249698Y229397D02*
X248565Y229247D01*
X247508Y228810D01*
X246601Y228114D01*
X245904Y227206D01*
X245467Y226150D01*
X245317Y225016D01*
X245467Y223882D01*
X245904Y222825D01*
X246601Y221918D01*
X247508Y221222D01*
X248565Y220784D01*
X249698Y220635D01*
X250832Y220784D01*
X251697Y221142D01*
X256991Y215849D01*
Y190053D01*
X254584Y187646D01*
X250528D01*
Y180047D01*
X248778Y178296D01*
X245410D01*
Y172956D01*
X250554D01*
Y176323D01*
X253387Y179157D01*
X256459D01*
Y185772D01*
X259254Y188567D01*
X259541Y188997D01*
X259642Y189504D01*
Y216398D01*
X259541Y216905D01*
X259254Y217335D01*
X253572Y223017D01*
X253930Y223882D01*
X254079Y225016D01*
X253930Y226150D01*
X253492Y227206D01*
X252796Y228114D01*
X251889Y228810D01*
X250832Y229247D01*
X249698Y229397D01*
D02*
G37*
G36*
X116400Y174340D02*
X114130D01*
Y172169D01*
X116400D01*
Y174340D01*
D02*
G37*
G36*
X113330D02*
X111060D01*
Y172169D01*
X113330D01*
Y174340D01*
D02*
G37*
G36*
X217562Y173276D02*
X215980D01*
Y170022D01*
X217562D01*
Y173276D01*
D02*
G37*
G36*
X215180D02*
X213599D01*
Y170022D01*
X215180D01*
Y173276D01*
D02*
G37*
G36*
X103998Y171426D02*
X100744D01*
Y169845D01*
X103998D01*
Y171426D01*
D02*
G37*
G36*
X99944D02*
X96690D01*
Y169845D01*
X99944D01*
Y171426D01*
D02*
G37*
G36*
X60101Y176858D02*
X52201D01*
Y164235D01*
X60101D01*
Y169221D01*
X68888D01*
Y167975D01*
X74228D01*
Y173118D01*
X68888D01*
Y171872D01*
X60101D01*
Y176858D01*
D02*
G37*
G36*
X103998Y169045D02*
X100744D01*
Y167464D01*
X103998D01*
Y169045D01*
D02*
G37*
G36*
X99944D02*
X96690D01*
Y167464D01*
X99944D01*
Y169045D01*
D02*
G37*
G36*
X217562Y169222D02*
X215980D01*
Y165968D01*
X217562D01*
Y169222D01*
D02*
G37*
G36*
X215180D02*
X213599D01*
Y165968D01*
X215180D01*
Y169222D01*
D02*
G37*
G36*
X122502Y177312D02*
X117162D01*
Y172169D01*
X118507D01*
Y171308D01*
X116276D01*
Y162818D01*
X122207D01*
Y171308D01*
X121158D01*
Y172169D01*
X122502D01*
Y177312D01*
D02*
G37*
G36*
X110297D02*
X104957D01*
Y172169D01*
X106302D01*
Y171308D01*
X104662D01*
Y166577D01*
X104486Y166455D01*
X103998Y166426D01*
Y166426D01*
X96690D01*
Y162464D01*
X103998D01*
Y163119D01*
X104662D01*
Y162818D01*
X110593D01*
Y171308D01*
X108953D01*
Y172169D01*
X110297D01*
Y177312D01*
D02*
G37*
G36*
X104198Y229397D02*
X103065Y229247D01*
X102008Y228810D01*
X101101Y228114D01*
X100404Y227206D01*
X99967Y226150D01*
X99817Y225016D01*
X99967Y223882D01*
X100404Y222825D01*
X101101Y221918D01*
X102008Y221222D01*
X102873Y220863D01*
Y210012D01*
X102974Y209505D01*
X103261Y209075D01*
X125396Y186939D01*
Y164955D01*
X122641Y162199D01*
X122207Y162016D01*
Y162016D01*
X122207Y162016D01*
X116867D01*
Y156872D01*
X122207D01*
Y158207D01*
X122268Y158220D01*
X122698Y158507D01*
X127659Y163468D01*
X127946Y163898D01*
X128047Y164406D01*
Y186163D01*
X174251D01*
X198423Y161992D01*
X198853Y161705D01*
X199360Y161604D01*
X217765D01*
X218273Y161705D01*
X218703Y161992D01*
X221518Y164807D01*
X221805Y165237D01*
X221906Y165744D01*
Y165968D01*
X222562D01*
Y173276D01*
X218599D01*
Y165968D01*
X218599Y165968D01*
X218599D01*
X218468Y165506D01*
X217216Y164255D01*
X199909D01*
X175738Y188426D01*
X175308Y188713D01*
X174801Y188814D01*
X127271D01*
X105524Y210561D01*
Y220863D01*
X106389Y221222D01*
X107296Y221918D01*
X107992Y222825D01*
X108430Y223882D01*
X108579Y225016D01*
X108430Y226150D01*
X107992Y227206D01*
X107296Y228114D01*
X106389Y228810D01*
X105332Y229247D01*
X104198Y229397D01*
D02*
G37*
G36*
X116104Y162016D02*
X110764D01*
Y160770D01*
X110002D01*
Y162016D01*
X104662D01*
Y160770D01*
X103998D01*
Y161426D01*
X96690D01*
Y160739D01*
X95551D01*
X95387Y160984D01*
X94667Y161465D01*
X93817Y161634D01*
X92967Y161465D01*
X92247Y160984D01*
X91765Y160263D01*
X91597Y159413D01*
X91765Y158564D01*
X92247Y157843D01*
X92492Y157680D01*
Y150737D01*
X91049D01*
Y143625D01*
X96586D01*
Y150737D01*
X95143D01*
Y157680D01*
X95387Y157843D01*
X95551Y158088D01*
X96690D01*
Y157464D01*
X103998D01*
Y158119D01*
X104662D01*
Y156872D01*
X110002D01*
Y158119D01*
X110764D01*
Y156872D01*
X116104D01*
Y162016D01*
D02*
G37*
G36*
X244451Y178296D02*
X239308D01*
Y172956D01*
X240554D01*
Y170212D01*
X240655Y169705D01*
X240942Y169275D01*
X243442Y166776D01*
Y158389D01*
X251341D01*
Y171013D01*
X243442D01*
X243205Y171415D01*
Y172956D01*
X244451D01*
Y178296D01*
D02*
G37*
G36*
X74228Y167016D02*
X68888D01*
Y161872D01*
X74228D01*
Y163119D01*
X75233D01*
Y162464D01*
X77562D01*
Y161426D01*
X75233D01*
Y157464D01*
X82542D01*
Y161426D01*
X80213D01*
Y162464D01*
X82542D01*
Y166426D01*
X75233D01*
Y165770D01*
X74228D01*
Y167016D01*
D02*
G37*
G36*
X175160Y162646D02*
X166670D01*
Y156716D01*
X175160D01*
Y157642D01*
X180560D01*
X181103Y157279D01*
X182098Y157081D01*
X183093Y157279D01*
X183936Y157843D01*
X184500Y158686D01*
X184698Y159681D01*
X184500Y160676D01*
X183936Y161520D01*
X183093Y162083D01*
X182098Y162281D01*
X181103Y162083D01*
X180560Y161720D01*
X175160D01*
Y162646D01*
D02*
G37*
G36*
X103998Y156426D02*
X96690D01*
Y152464D01*
X103998D01*
Y153119D01*
X104662D01*
Y150770D01*
X110002D01*
Y152016D01*
X110764D01*
Y150770D01*
X112109D01*
Y149851D01*
X110863D01*
Y144511D01*
X116006D01*
Y149851D01*
X114760D01*
Y150770D01*
X116104D01*
Y152016D01*
X116867D01*
Y150770D01*
X122207D01*
Y155913D01*
X116867D01*
Y154667D01*
X116104D01*
Y155913D01*
X110764D01*
Y154667D01*
X110002D01*
Y155913D01*
X104662D01*
Y155770D01*
X103998D01*
Y156426D01*
D02*
G37*
G36*
X227561Y151820D02*
X223599D01*
Y150205D01*
X222562D01*
Y151820D01*
X218599D01*
Y148457D01*
X218541Y148165D01*
X218599Y147873D01*
Y144511D01*
X222562D01*
Y146126D01*
X223599D01*
Y144511D01*
X227561D01*
Y147873D01*
X227620Y148165D01*
X227561Y148457D01*
Y151820D01*
D02*
G37*
G36*
X154884Y151032D02*
X151039D01*
Y148467D01*
X154884D01*
Y151032D01*
D02*
G37*
G36*
X150239D02*
X146395D01*
Y148467D01*
X150239D01*
Y151032D01*
D02*
G37*
G36*
X87561Y150624D02*
X85390D01*
Y148354D01*
X87561D01*
Y150624D01*
D02*
G37*
G36*
X84590D02*
X82418D01*
Y148354D01*
X84590D01*
Y150624D01*
D02*
G37*
G36*
X251341Y154109D02*
X247791D01*
Y148197D01*
X251341D01*
Y154109D01*
D02*
G37*
G36*
X246991D02*
X243442D01*
Y148197D01*
X246991D01*
Y154109D01*
D02*
G37*
G36*
X87561Y147554D02*
X85390D01*
Y145284D01*
X87561D01*
Y147554D01*
D02*
G37*
G36*
X84590D02*
X82418D01*
Y145284D01*
X84590D01*
Y147554D01*
D02*
G37*
G36*
X154884Y147667D02*
X151039D01*
Y145101D01*
X154884D01*
Y147667D01*
D02*
G37*
G36*
X150239D02*
X146395D01*
Y145101D01*
X150239D01*
Y147667D01*
D02*
G37*
G36*
X103869Y150737D02*
X98332D01*
Y143625D01*
X103869D01*
Y145856D01*
X104760D01*
Y144511D01*
X109904D01*
Y149851D01*
X104760D01*
Y148507D01*
X103869D01*
Y150737D01*
D02*
G37*
G36*
X251341Y147397D02*
X247791D01*
Y141485D01*
X251341D01*
Y147397D01*
D02*
G37*
G36*
X246991D02*
X243442D01*
Y141485D01*
X246991D01*
Y147397D01*
D02*
G37*
G36*
X227030Y143749D02*
X224858D01*
Y141479D01*
X227030D01*
Y143749D01*
D02*
G37*
G36*
X224058D02*
X221887D01*
Y141479D01*
X224058D01*
Y143749D01*
D02*
G37*
G36*
X227030Y140679D02*
X224858D01*
Y138409D01*
X227030D01*
Y140679D01*
D02*
G37*
G36*
X224058D02*
X221887D01*
Y138409D01*
X224058D01*
Y140679D01*
D02*
G37*
G36*
X158147Y134792D02*
X151447D01*
Y131243D01*
X158147D01*
Y134792D01*
D02*
G37*
G36*
X150647D02*
X143948D01*
Y131243D01*
X150647D01*
Y134792D01*
D02*
G37*
G36*
X78887Y156484D02*
X78595Y156426D01*
X75233D01*
Y152464D01*
X76848D01*
Y150624D01*
X76316D01*
Y145284D01*
X76848D01*
Y144130D01*
X77003Y143350D01*
X77445Y142688D01*
X90930Y129204D01*
X90930Y129204D01*
X91591Y128762D01*
X92371Y128606D01*
X92371Y128606D01*
X123867D01*
X124648Y128762D01*
X125309Y129204D01*
X133767Y137662D01*
X158277D01*
X163802Y132138D01*
Y126893D01*
X178000D01*
Y128803D01*
X223194D01*
X223974Y128958D01*
X224636Y129401D01*
X232003Y136767D01*
X232445Y137429D01*
X232600Y138209D01*
Y138409D01*
X233132D01*
Y143749D01*
X232620D01*
Y148165D01*
X232561Y148457D01*
Y151820D01*
X228599D01*
Y148457D01*
X228541Y148165D01*
Y143749D01*
X227989D01*
Y138521D01*
X222349Y132882D01*
X178000D01*
Y134792D01*
X172940D01*
Y145101D01*
X175160D01*
Y151032D01*
X166670D01*
Y150106D01*
X164924D01*
Y151032D01*
X156434D01*
Y145101D01*
X164924D01*
Y146028D01*
X166670D01*
Y145101D01*
X168862D01*
Y134792D01*
X166915D01*
X160564Y141143D01*
X159903Y141585D01*
X159122Y141740D01*
X132923D01*
X132142Y141585D01*
X131481Y141143D01*
X123023Y132685D01*
X93216D01*
X81117Y144784D01*
X81324Y145284D01*
X81459D01*
Y150624D01*
X80926D01*
Y152464D01*
X82542D01*
Y156426D01*
X79179D01*
X78887Y156484D01*
D02*
G37*
G36*
X158147Y130443D02*
X151447D01*
Y126893D01*
X158147D01*
Y130443D01*
D02*
G37*
G36*
X150647D02*
X143948D01*
Y126893D01*
X150647D01*
Y130443D01*
D02*
G37*
G36*
X128789Y130209D02*
X127939Y130040D01*
X127219Y129558D01*
X126737Y128838D01*
X126568Y127988D01*
X126737Y127138D01*
X127219Y126418D01*
X127464Y126254D01*
Y123768D01*
X126906D01*
Y118625D01*
X130672D01*
Y123768D01*
X130114D01*
Y126255D01*
X130359Y126418D01*
X130840Y127138D01*
X131009Y127988D01*
X130840Y128838D01*
X130359Y129558D01*
X129639Y130040D01*
X128789Y130209D01*
D02*
G37*
G36*
X190810Y121728D02*
X187260D01*
Y116407D01*
X190810D01*
Y121728D01*
D02*
G37*
G36*
X186460D02*
X182910D01*
Y116407D01*
X186460D01*
Y121728D01*
D02*
G37*
G36*
X138768Y136213D02*
X137918Y136044D01*
X137197Y135562D01*
X136716Y134842D01*
X136547Y133992D01*
X136716Y133142D01*
X137197Y132422D01*
X137442Y132258D01*
Y120816D01*
X136158D01*
Y115673D01*
X141498D01*
Y120816D01*
X140093D01*
Y132258D01*
X140338Y132422D01*
X140819Y133142D01*
X140988Y133992D01*
X140819Y134842D01*
X140338Y135562D01*
X139618Y136044D01*
X138768Y136213D01*
D02*
G37*
G36*
X210784Y115593D02*
X209202D01*
Y113323D01*
X210784D01*
Y115593D01*
D02*
G37*
G36*
X208402D02*
X206821D01*
Y113323D01*
X208402D01*
Y115593D01*
D02*
G37*
G36*
X133231Y114910D02*
X131748D01*
Y112739D01*
X133231D01*
Y114910D01*
D02*
G37*
G36*
X130948D02*
X129465D01*
Y112739D01*
X130948D01*
Y114910D01*
D02*
G37*
G36*
X190810Y115607D02*
X187260D01*
Y110286D01*
X190810D01*
Y115607D01*
D02*
G37*
G36*
X186460D02*
X182910D01*
Y110286D01*
X186460D01*
Y115607D01*
D02*
G37*
G36*
X210784Y112523D02*
X209202D01*
Y110253D01*
X210784D01*
Y112523D01*
D02*
G37*
G36*
X208402D02*
X206821D01*
Y110253D01*
X208402D01*
Y112523D01*
D02*
G37*
G36*
X248074Y113329D02*
X242753D01*
Y109780D01*
X248074D01*
Y113329D01*
D02*
G37*
G36*
X241953D02*
X236632D01*
Y109780D01*
X241953D01*
Y113329D01*
D02*
G37*
G36*
X133231Y111939D02*
X131748D01*
Y109767D01*
X133231D01*
Y111939D01*
D02*
G37*
G36*
X130948D02*
X129465D01*
Y109767D01*
X130948D01*
Y111939D01*
D02*
G37*
G36*
X221315Y110770D02*
X219045D01*
Y108598D01*
X221315D01*
Y110770D01*
D02*
G37*
G36*
X201630D02*
X199360D01*
Y108598D01*
X201630D01*
Y110770D01*
D02*
G37*
G36*
X198560D02*
X196290D01*
Y108598D01*
X198560D01*
Y110770D01*
D02*
G37*
G36*
X218245D02*
X215975D01*
Y108598D01*
X218245D01*
Y110770D01*
D02*
G37*
G36*
X190810Y107777D02*
X182910D01*
Y107094D01*
X175160D01*
Y107627D01*
X169820D01*
Y107114D01*
X164714D01*
X164422Y107056D01*
X160371D01*
Y103094D01*
X164422D01*
X164714Y103036D01*
X169820D01*
Y102483D01*
X175160D01*
Y103016D01*
X182910D01*
Y96335D01*
X190810D01*
Y100057D01*
X196290D01*
Y99524D01*
X201630D01*
Y100057D01*
X203081D01*
Y99426D01*
X207043D01*
Y101804D01*
X207101Y102096D01*
X207043Y102388D01*
Y104766D01*
X203081D01*
Y104135D01*
X201630D01*
Y104668D01*
X196290D01*
Y104135D01*
X190810D01*
Y107777D01*
D02*
G37*
G36*
X221315Y107799D02*
X219045D01*
Y105627D01*
X221315D01*
Y107799D01*
D02*
G37*
G36*
X218245D02*
X215975D01*
Y105627D01*
X218245D01*
Y107799D01*
D02*
G37*
G36*
X201630D02*
X199360D01*
Y105627D01*
X201630D01*
Y107799D01*
D02*
G37*
G36*
X198560D02*
X196290D01*
Y105627D01*
X198560D01*
Y107799D01*
D02*
G37*
G36*
X248074Y108980D02*
X242753D01*
Y105430D01*
X248074D01*
Y108980D01*
D02*
G37*
G36*
X241953D02*
X236632D01*
Y105430D01*
X241953D01*
Y108980D01*
D02*
G37*
G36*
X214911Y126257D02*
X213916Y126059D01*
X213072Y125496D01*
X212509Y124652D01*
X212311Y123658D01*
X212509Y122662D01*
X213072Y121819D01*
X213916Y121255D01*
X214556Y121128D01*
X222680Y113004D01*
Y106063D01*
X221285Y104668D01*
X215975D01*
Y104135D01*
X214524D01*
Y104766D01*
X210561D01*
Y102388D01*
X210503Y102096D01*
X210561Y101804D01*
Y99426D01*
X214524D01*
Y100057D01*
X215975D01*
Y99524D01*
X221315D01*
Y100057D01*
X221597D01*
X222378Y100212D01*
X223039Y100654D01*
X226884Y104499D01*
X227326Y105161D01*
X227380Y105430D01*
X234123D01*
Y113329D01*
X227441D01*
X227326Y113906D01*
X226884Y114568D01*
X217440Y124012D01*
X217313Y124652D01*
X216749Y125496D01*
X215906Y126059D01*
X214911Y126257D01*
D02*
G37*
G36*
X128113Y114910D02*
X124347D01*
Y109767D01*
X124905D01*
Y108710D01*
X123560D01*
Y103566D01*
X128900D01*
Y108710D01*
X127555D01*
Y109767D01*
X128113D01*
Y114910D01*
D02*
G37*
G36*
X175160Y101524D02*
X172890D01*
Y99353D01*
X175160D01*
Y101524D01*
D02*
G37*
G36*
X172090D02*
X169820D01*
Y99353D01*
X172090D01*
Y101524D01*
D02*
G37*
G36*
X141498Y114713D02*
X136158D01*
Y109570D01*
X141498D01*
Y110119D01*
X141998Y110326D01*
X152191Y100134D01*
X148913Y96856D01*
X148626Y96426D01*
X148525Y95919D01*
Y81576D01*
X143836Y76887D01*
X143549Y76457D01*
X143448Y75950D01*
Y73471D01*
X142706Y73163D01*
X141849Y72506D01*
X141192Y71650D01*
X140779Y70652D01*
X140638Y69582D01*
X140779Y68512D01*
X141192Y67514D01*
X141849Y66658D01*
X142706Y66001D01*
X143703Y65588D01*
X144773Y65447D01*
X145844Y65588D01*
X146841Y66001D01*
X147697Y66658D01*
X148355Y67514D01*
X148768Y68512D01*
X148909Y69582D01*
X148768Y70652D01*
X148355Y71650D01*
X147697Y72506D01*
X146841Y73163D01*
X146099Y73471D01*
Y75401D01*
X150788Y80090D01*
X151075Y80520D01*
X151176Y81027D01*
Y95370D01*
X154614Y98808D01*
X160371D01*
Y98094D01*
X169058D01*
Y102056D01*
X160371D01*
Y101459D01*
X154614D01*
X142995Y113079D01*
X142564Y113366D01*
X142057Y113467D01*
X141498D01*
Y114713D01*
D02*
G37*
G36*
X128900Y102607D02*
X123560D01*
Y97464D01*
X128900D01*
Y98749D01*
X132025D01*
Y98094D01*
X140711D01*
Y102056D01*
X132025D01*
Y101400D01*
X128900D01*
Y102607D01*
D02*
G37*
G36*
X175160Y98553D02*
X172890D01*
Y96381D01*
X175160D01*
Y98553D01*
D02*
G37*
G36*
X172090D02*
X169820D01*
Y96381D01*
X172090D01*
Y98553D01*
D02*
G37*
G36*
X140711Y97056D02*
X132025D01*
Y96400D01*
X89603D01*
X89096Y96299D01*
X88666Y96012D01*
X69474Y76820D01*
X68883Y77064D01*
X67891Y77195D01*
X66899Y77064D01*
X65974Y76682D01*
X65180Y76072D01*
X64571Y75279D01*
X64188Y74354D01*
X64058Y73362D01*
X64188Y72370D01*
X64571Y71446D01*
X65180Y70652D01*
X65974Y70043D01*
X66899Y69660D01*
X67891Y69529D01*
X68883Y69660D01*
X69807Y70043D01*
X70601Y70652D01*
X71210Y71446D01*
X71593Y72370D01*
X71723Y73362D01*
X71593Y74354D01*
X71348Y74945D01*
X90152Y93749D01*
X132025D01*
Y93094D01*
X140711D01*
Y97056D01*
D02*
G37*
G36*
Y92056D02*
X136768D01*
Y90475D01*
X140711D01*
Y92056D01*
D02*
G37*
G36*
X135968D02*
X132025D01*
Y90475D01*
X135968D01*
Y92056D01*
D02*
G37*
G36*
X140711Y89675D02*
X136768D01*
Y88094D01*
X140711D01*
Y89675D01*
D02*
G37*
G36*
X135968D02*
X132025D01*
Y88094D01*
X135968D01*
Y89675D01*
D02*
G37*
G36*
X169058Y97056D02*
X160371D01*
Y96394D01*
X160191Y96359D01*
X159761Y96071D01*
X153836Y90146D01*
X153549Y89716D01*
X153448Y89209D01*
Y73471D01*
X152706Y73163D01*
X151849Y72506D01*
X151192Y71650D01*
X150779Y70652D01*
X150638Y69582D01*
X150779Y68512D01*
X151192Y67514D01*
X151849Y66658D01*
X152706Y66001D01*
X153703Y65588D01*
X154773Y65447D01*
X155844Y65588D01*
X156841Y66001D01*
X157697Y66658D01*
X158355Y67514D01*
X158768Y68512D01*
X158909Y69582D01*
X158768Y70652D01*
X158355Y71650D01*
X157697Y72506D01*
X156841Y73163D01*
X156099Y73471D01*
Y88660D01*
X160533Y93094D01*
X169058D01*
Y93098D01*
X172290D01*
X174223Y91166D01*
Y85830D01*
X180153D01*
Y94320D01*
X174818D01*
X173776Y95361D01*
X173346Y95648D01*
X172839Y95749D01*
X169058D01*
Y97056D01*
D02*
G37*
G36*
X191768Y94320D02*
X185837D01*
Y85830D01*
X191768D01*
Y88749D01*
X212413D01*
X221985Y79177D01*
Y74728D01*
X228309D01*
Y81052D01*
X223860D01*
X213899Y91012D01*
X213470Y91299D01*
X212962Y91400D01*
X191768D01*
Y94320D01*
D02*
G37*
G36*
X78291Y77142D02*
Y73762D01*
X81671D01*
X81593Y74354D01*
X81210Y75279D01*
X80601Y76072D01*
X79807Y76682D01*
X78883Y77064D01*
X78291Y77142D01*
D02*
G37*
G36*
X77491D02*
X76899Y77064D01*
X75974Y76682D01*
X75180Y76072D01*
X74571Y75279D01*
X74188Y74354D01*
X74111Y73762D01*
X77491D01*
Y77142D01*
D02*
G37*
G36*
X250377Y77142D02*
Y73762D01*
X253757D01*
X253679Y74354D01*
X253296Y75279D01*
X252687Y76072D01*
X251893Y76682D01*
X250969Y77064D01*
X250377Y77142D01*
D02*
G37*
G36*
X249577D02*
X248985Y77064D01*
X248061Y76682D01*
X247267Y76072D01*
X246658Y75279D01*
X246275Y74354D01*
X246197Y73762D01*
X249577D01*
Y77142D01*
D02*
G37*
G36*
X190883Y73705D02*
Y70022D01*
X194566D01*
X194478Y70692D01*
X194065Y71690D01*
X193408Y72546D01*
X192551Y73203D01*
X191554Y73616D01*
X190883Y73705D01*
D02*
G37*
G36*
X190083D02*
X189413Y73616D01*
X188416Y73203D01*
X187559Y72546D01*
X186902Y71690D01*
X186489Y70692D01*
X186401Y70022D01*
X190083D01*
Y73705D01*
D02*
G37*
G36*
X81671Y72962D02*
X78291D01*
Y69582D01*
X78883Y69660D01*
X79807Y70043D01*
X80601Y70652D01*
X81210Y71446D01*
X81593Y72370D01*
X81671Y72962D01*
D02*
G37*
G36*
X77491D02*
X74111D01*
X74188Y72370D01*
X74571Y71446D01*
X75180Y70652D01*
X75974Y70043D01*
X76899Y69660D01*
X77491Y69582D01*
Y72962D01*
D02*
G37*
G36*
X253757Y72962D02*
X250377D01*
Y69582D01*
X250969Y69660D01*
X251893Y70043D01*
X252687Y70652D01*
X253296Y71446D01*
X253679Y72370D01*
X253757Y72962D01*
D02*
G37*
G36*
X249577D02*
X246197D01*
X246275Y72370D01*
X246658Y71446D01*
X247267Y70652D01*
X248061Y70043D01*
X248985Y69660D01*
X249577Y69582D01*
Y72962D01*
D02*
G37*
G36*
X205147Y81079D02*
X204322Y80970D01*
X203553Y80652D01*
X202892Y80145D01*
X202385Y79484D01*
X202067Y78715D01*
X201958Y77890D01*
X202067Y77064D01*
X202385Y76295D01*
X202892Y75635D01*
X203553Y75128D01*
X204322Y74809D01*
X205147Y74700D01*
X205973Y74809D01*
X206242Y74921D01*
X212178Y68984D01*
X212067Y68715D01*
X211958Y67890D01*
X212067Y67064D01*
X212385Y66295D01*
X212892Y65635D01*
X213553Y65128D01*
X214322Y64809D01*
X215147Y64701D01*
X215973Y64809D01*
X216742Y65128D01*
X217403Y65635D01*
X217909Y66295D01*
X218021Y66564D01*
X234505D01*
X235012Y66665D01*
X235442Y66953D01*
X238394Y69905D01*
X238985Y69660D01*
X239977Y69529D01*
X240969Y69660D01*
X241893Y70043D01*
X242687Y70652D01*
X243296Y71446D01*
X243679Y72370D01*
X243810Y73362D01*
X243679Y74354D01*
X243296Y75279D01*
X242687Y76072D01*
X241893Y76682D01*
X240969Y77064D01*
X239977Y77195D01*
X238985Y77064D01*
X238061Y76682D01*
X237267Y76072D01*
X236658Y75279D01*
X236275Y74354D01*
X236144Y73362D01*
X236275Y72370D01*
X236520Y71779D01*
X233956Y69215D01*
X218021D01*
X217909Y69484D01*
X217403Y70145D01*
X216742Y70652D01*
X215973Y70970D01*
X215147Y71079D01*
X214322Y70970D01*
X214053Y70859D01*
X208116Y76795D01*
X208228Y77064D01*
X208337Y77890D01*
X208228Y78715D01*
X207909Y79484D01*
X207402Y80145D01*
X206742Y80652D01*
X205973Y80970D01*
X205147Y81079D01*
D02*
G37*
G36*
X194566Y69222D02*
X190883D01*
Y65539D01*
X191554Y65628D01*
X192551Y66041D01*
X193408Y66698D01*
X194065Y67554D01*
X194478Y68552D01*
X194566Y69222D01*
D02*
G37*
G36*
X190083D02*
X186401D01*
X186489Y68552D01*
X186902Y67554D01*
X187559Y66698D01*
X188416Y66041D01*
X189413Y65628D01*
X190083Y65539D01*
Y69222D01*
D02*
G37*
G36*
X169058Y92056D02*
X160371D01*
Y88094D01*
X163448D01*
Y73471D01*
X162706Y73163D01*
X161849Y72506D01*
X161192Y71650D01*
X160779Y70652D01*
X160638Y69582D01*
X160779Y68512D01*
X161192Y67514D01*
X161849Y66658D01*
X162706Y66001D01*
X163703Y65588D01*
X164773Y65447D01*
X165844Y65588D01*
X166841Y66001D01*
X167697Y66658D01*
X168355Y67514D01*
X168662Y68257D01*
X176611D01*
X176902Y67554D01*
X177559Y66698D01*
X178416Y66041D01*
X179413Y65628D01*
X180483Y65487D01*
X181554Y65628D01*
X182551Y66041D01*
X183408Y66698D01*
X184065Y67554D01*
X184478Y68552D01*
X184619Y69622D01*
X184478Y70692D01*
X184065Y71690D01*
X183408Y72546D01*
X182551Y73203D01*
X181554Y73616D01*
X180483Y73757D01*
X179413Y73616D01*
X178416Y73203D01*
X177559Y72546D01*
X176902Y71690D01*
X176578Y70907D01*
X168662D01*
X168355Y71650D01*
X167697Y72506D01*
X166841Y73163D01*
X166099Y73471D01*
Y88094D01*
X169058D01*
Y92056D01*
D02*
G37*
G36*
X140711Y107056D02*
X132025D01*
Y103094D01*
X140549D01*
X143054Y100589D01*
Y86056D01*
X133836Y76837D01*
X133549Y76407D01*
X133448Y75900D01*
Y73471D01*
X132706Y73163D01*
X131849Y72506D01*
X131192Y71650D01*
X130779Y70652D01*
X130638Y69582D01*
X130779Y68512D01*
X131192Y67514D01*
X131849Y66658D01*
X132706Y66001D01*
X133703Y65588D01*
X134773Y65447D01*
X135844Y65588D01*
X136841Y66001D01*
X137697Y66658D01*
X138355Y67514D01*
X138768Y68512D01*
X138909Y69582D01*
X138768Y70652D01*
X138355Y71650D01*
X137697Y72506D01*
X136841Y73163D01*
X136099Y73471D01*
Y75351D01*
X145317Y84569D01*
X145604Y84999D01*
X145705Y85506D01*
Y101138D01*
X145604Y101645D01*
X145317Y102075D01*
X141379Y106012D01*
X140949Y106299D01*
X140711Y106347D01*
Y107056D01*
D02*
G37*
%LPD*%
D10*
X11811Y11811D02*
D03*
X578740Y11811D02*
D03*
Y381890D02*
D03*
X11811Y381890D02*
D03*
Y11811D02*
D03*
X578740D02*
D03*
Y381890D02*
D03*
X11811Y381890D02*
D03*
D11*
X247391Y164701D02*
D03*
Y147797D02*
D03*
X56151Y170546D02*
D03*
Y187450D02*
D03*
X519261Y164701D02*
D03*
Y147797D02*
D03*
X328021Y170546D02*
D03*
Y187450D02*
D03*
D12*
X128789Y121197D02*
D03*
X131348Y112339D02*
D03*
X126230D02*
D03*
X400659Y121197D02*
D03*
X403218Y112339D02*
D03*
X398100D02*
D03*
D13*
X186860Y102056D02*
D03*
Y116007D02*
D03*
X458730Y102056D02*
D03*
Y116007D02*
D03*
D14*
X228402Y109380D02*
D03*
X242353D02*
D03*
X500272D02*
D03*
X514223D02*
D03*
D15*
X136368Y105075D02*
D03*
Y100075D02*
D03*
Y95075D02*
D03*
Y90075D02*
D03*
X164714Y105075D02*
D03*
Y100075D02*
D03*
Y95075D02*
D03*
Y90075D02*
D03*
X408238Y105075D02*
D03*
Y100075D02*
D03*
Y95075D02*
D03*
Y90075D02*
D03*
X436584Y105075D02*
D03*
Y100075D02*
D03*
Y95075D02*
D03*
Y90075D02*
D03*
D16*
X126230Y100036D02*
D03*
Y106138D02*
D03*
X138828Y118244D02*
D03*
Y112142D02*
D03*
X172490Y105055D02*
D03*
Y98953D02*
D03*
X198960Y102096D02*
D03*
Y108198D02*
D03*
X218645Y102096D02*
D03*
Y108198D02*
D03*
X71558Y181348D02*
D03*
Y187450D02*
D03*
X119537Y153342D02*
D03*
Y159444D02*
D03*
X85580Y185075D02*
D03*
Y191177D02*
D03*
X79478D02*
D03*
Y185075D02*
D03*
X71558Y170546D02*
D03*
Y164444D02*
D03*
X91682Y185075D02*
D03*
Y191177D02*
D03*
X107627Y174740D02*
D03*
Y180842D02*
D03*
X119832D02*
D03*
Y174740D02*
D03*
X113730D02*
D03*
Y180842D02*
D03*
X174458Y195803D02*
D03*
Y201905D02*
D03*
X113435Y159444D02*
D03*
Y153342D02*
D03*
X107332D02*
D03*
Y159444D02*
D03*
X50442Y210862D02*
D03*
Y204760D02*
D03*
X398100Y100036D02*
D03*
Y106138D02*
D03*
X410699Y118244D02*
D03*
Y112142D02*
D03*
X444360Y105055D02*
D03*
Y98953D02*
D03*
X470830Y102096D02*
D03*
Y108198D02*
D03*
X490515Y102096D02*
D03*
Y108198D02*
D03*
X343428Y181348D02*
D03*
Y187450D02*
D03*
X391407Y153342D02*
D03*
Y159444D02*
D03*
X357450Y185075D02*
D03*
Y191177D02*
D03*
X351348D02*
D03*
Y185075D02*
D03*
X343428Y170546D02*
D03*
Y164444D02*
D03*
X363553Y185075D02*
D03*
Y191177D02*
D03*
X379497Y174740D02*
D03*
Y180842D02*
D03*
X391702D02*
D03*
Y174740D02*
D03*
X385600D02*
D03*
Y180842D02*
D03*
X446328Y195803D02*
D03*
Y201905D02*
D03*
X385305Y159444D02*
D03*
Y153342D02*
D03*
X379202D02*
D03*
Y159444D02*
D03*
X322312Y210862D02*
D03*
Y204760D02*
D03*
D17*
X177188Y90075D02*
D03*
X188802D02*
D03*
X91092Y177496D02*
D03*
X79478D02*
D03*
X107627Y167063D02*
D03*
X119241D02*
D03*
X241880Y183402D02*
D03*
X253494D02*
D03*
X449058Y90075D02*
D03*
X460672D02*
D03*
X362962Y177496D02*
D03*
X351348D02*
D03*
X379498Y167063D02*
D03*
X391112D02*
D03*
X513750Y183402D02*
D03*
X525364D02*
D03*
D18*
X208802Y112923D02*
D03*
X212543Y102096D02*
D03*
X205062D02*
D03*
X164517Y206630D02*
D03*
X168257Y195803D02*
D03*
X160777D02*
D03*
X480673Y112923D02*
D03*
X484413Y102096D02*
D03*
X476932D02*
D03*
X436387Y206630D02*
D03*
X440128Y195803D02*
D03*
X432647D02*
D03*
D19*
X164143Y214701D02*
D03*
X174143D02*
D03*
X164143Y240291D02*
D03*
X174143D02*
D03*
X436013Y214701D02*
D03*
X446013D02*
D03*
X436013Y240291D02*
D03*
X446013D02*
D03*
D20*
X127159Y216138D02*
D03*
Y226138D02*
D03*
Y246138D02*
D03*
Y236138D02*
D03*
X154718D02*
D03*
Y246138D02*
D03*
Y226138D02*
D03*
Y216138D02*
D03*
X399029D02*
D03*
Y226138D02*
D03*
Y246138D02*
D03*
Y236138D02*
D03*
X426588D02*
D03*
Y246138D02*
D03*
Y226138D02*
D03*
Y216138D02*
D03*
D21*
X78887Y169445D02*
D03*
Y164445D02*
D03*
Y159445D02*
D03*
Y154445D02*
D03*
X100344Y169445D02*
D03*
Y164445D02*
D03*
Y159445D02*
D03*
Y154445D02*
D03*
X350757Y169445D02*
D03*
Y164445D02*
D03*
Y159445D02*
D03*
Y154445D02*
D03*
X372214Y169445D02*
D03*
Y164445D02*
D03*
Y159445D02*
D03*
Y154445D02*
D03*
D22*
X78887Y147954D02*
D03*
X84990D02*
D03*
X154675Y195803D02*
D03*
X148573D02*
D03*
X215797Y214209D02*
D03*
X209695D02*
D03*
X241880Y191177D02*
D03*
X247982D02*
D03*
X247982Y175626D02*
D03*
X241880D02*
D03*
X224950Y189602D02*
D03*
X231053D02*
D03*
X224950Y183411D02*
D03*
X231053D02*
D03*
X231065Y177210D02*
D03*
X224963D02*
D03*
X230561Y141079D02*
D03*
X224458D02*
D03*
X113434Y147181D02*
D03*
X107332D02*
D03*
X350757Y147954D02*
D03*
X356860D02*
D03*
X426545Y195803D02*
D03*
X420443D02*
D03*
X487667Y214209D02*
D03*
X481565D02*
D03*
X513750Y191177D02*
D03*
X519852D02*
D03*
X519852Y175626D02*
D03*
X513750D02*
D03*
X496820Y189602D02*
D03*
X502923D02*
D03*
X496820Y183411D02*
D03*
X502923D02*
D03*
X502935Y177210D02*
D03*
X496833D02*
D03*
X502431Y141079D02*
D03*
X496328D02*
D03*
X385305Y147181D02*
D03*
X379202D02*
D03*
D23*
X170901Y130842D02*
D03*
X151047D02*
D03*
X150555Y177201D02*
D03*
X170409D02*
D03*
X442771Y130842D02*
D03*
X422917D02*
D03*
X422425Y177201D02*
D03*
X442279D02*
D03*
D24*
X170915Y159681D02*
D03*
Y148067D02*
D03*
X160679Y148067D02*
D03*
Y159681D02*
D03*
X150639Y148067D02*
D03*
Y159681D02*
D03*
X442785Y159681D02*
D03*
Y148067D02*
D03*
X432549Y148067D02*
D03*
Y159681D02*
D03*
X422509Y148067D02*
D03*
Y159681D02*
D03*
D25*
X145620Y207614D02*
D03*
X154675D02*
D03*
X417490D02*
D03*
X426545D02*
D03*
D26*
X191388Y206630D02*
D03*
Y186776D02*
D03*
X463258Y206630D02*
D03*
Y186776D02*
D03*
D27*
X191388Y220213D02*
D03*
Y234976D02*
D03*
X463258Y220213D02*
D03*
Y234976D02*
D03*
D28*
X247969Y206236D02*
D03*
X231065D02*
D03*
X519839D02*
D03*
X502936D02*
D03*
D29*
X208528Y207220D02*
D03*
X215812D02*
D03*
X101101Y147181D02*
D03*
X93817D02*
D03*
X480399Y207220D02*
D03*
X487682D02*
D03*
X372971Y147181D02*
D03*
X365687D02*
D03*
D30*
X215580Y148165D02*
D03*
X220580D02*
D03*
X225580D02*
D03*
X230580D02*
D03*
X215580Y169622D02*
D03*
X220580D02*
D03*
X225580D02*
D03*
X230580D02*
D03*
X487451Y148165D02*
D03*
X492451D02*
D03*
X497450D02*
D03*
X502451D02*
D03*
X487451Y169622D02*
D03*
X492451D02*
D03*
X497450D02*
D03*
X502451D02*
D03*
D31*
X218454Y188083D02*
X223107Y183430D01*
X218454Y188083D02*
Y197053D01*
X223107Y183430D02*
X224932D01*
X66978Y202693D02*
X78494Y191177D01*
X79478D01*
X67891Y73362D02*
X89603Y95075D01*
X215147Y67890D02*
X234505D01*
X239977Y73362D01*
X241880Y170212D02*
X247391Y164701D01*
X241880Y170212D02*
Y175626D01*
X126230Y106138D02*
X126230Y106138D01*
Y112339D01*
X126230Y100036D02*
X126269Y100075D01*
X136368D01*
X76820Y215291D02*
Y228566D01*
X56151Y187450D02*
Y204464D01*
X66978Y215291D01*
X86663Y202693D02*
Y215291D01*
X166670Y244787D02*
Y256471D01*
X189676Y251315D02*
X218060D01*
X218159Y251413D01*
X209695Y214209D02*
X209698Y214212D01*
Y225016D01*
X221936Y200535D02*
Y217253D01*
X218454Y197053D02*
X221936Y200535D01*
X253494Y181138D02*
Y183402D01*
X247982Y175626D02*
X253494Y181138D01*
Y183402D02*
Y184681D01*
X258316Y189504D01*
X84392Y236138D02*
X127159D01*
X76820Y228566D02*
X84392Y236138D01*
X119832Y167654D02*
Y174740D01*
X119241Y167063D02*
X119832Y167654D01*
X113730Y180842D02*
X119832D01*
X119734Y180941D02*
X119832Y180842D01*
X119734Y180941D02*
Y186650D01*
X142057Y112142D02*
X154065Y100134D01*
X138828Y112142D02*
X142057D01*
X149850Y95919D02*
X154065Y100134D01*
X149850Y81027D02*
Y95919D01*
X154065Y100134D02*
X163533D01*
X140442Y105075D02*
X144379Y101138D01*
X136368Y105075D02*
X140442D01*
X144379Y85506D02*
Y101138D01*
X127159Y216138D02*
X128336D01*
X136860Y207614D01*
X145620D01*
X128789Y121394D02*
Y127988D01*
X128789Y127988D02*
X128789Y127988D01*
X138768Y118305D02*
X138828Y118244D01*
X138768Y118305D02*
Y133992D01*
X150467Y221222D02*
X159591D01*
X145029Y215784D02*
X150467Y221222D01*
X54478Y224642D02*
Y255703D01*
X70390Y271616D01*
X50442Y211260D02*
X64198Y225016D01*
X50442Y210862D02*
Y211260D01*
Y199346D02*
Y204760D01*
X104198Y210012D02*
X126722Y187488D01*
X104198Y210012D02*
Y225016D01*
X126722Y164406D02*
Y187488D01*
X56151Y187450D02*
X71558D01*
X119734Y186650D02*
X119734Y186650D01*
X123316Y246138D02*
X127159D01*
X119734Y242555D02*
X123316Y246138D01*
X91682Y178087D02*
Y185075D01*
X91092Y177496D02*
X91682Y178087D01*
X91092Y174089D02*
Y177496D01*
X86448Y169445D02*
X91092Y174089D01*
X78887Y169445D02*
X86448D01*
X79478Y191177D02*
X85580D01*
X79478Y177496D02*
Y185075D01*
X56151Y170546D02*
X71558D01*
X78886Y164444D02*
X78887Y164445D01*
X71558Y164444D02*
X78886D01*
X78887Y159445D02*
Y164445D01*
X104714D02*
X107627Y167358D01*
Y174740D01*
X100344Y164445D02*
X104714D01*
X106229Y154445D02*
X107332Y153342D01*
X100344Y154445D02*
X106229D01*
X126722Y187488D02*
X174801D01*
X121760Y159444D02*
X126722Y164406D01*
X119537Y159444D02*
X121760D01*
X93817Y159413D02*
X100312D01*
X100344Y159445D01*
X93817Y147181D02*
Y159413D01*
X113435Y153342D02*
X119537D01*
X101101Y147181D02*
X107332D01*
X113434D02*
X113435Y147181D01*
Y153342D01*
X107332D02*
X113435D01*
X107331Y159445D02*
X107332Y159444D01*
X100344Y159445D02*
X107331D01*
X107332Y159444D02*
X113435D01*
X164143Y214701D02*
Y216669D01*
X159591Y221222D02*
X164143Y216669D01*
X159990Y236138D02*
X164143Y240291D01*
X154718Y236138D02*
X159990D01*
X164143Y242260D02*
X166670Y244787D01*
X164143Y240291D02*
Y242260D01*
X160698Y95134D02*
X164714D01*
X172839Y94424D02*
X177188Y90075D01*
X165366Y94424D02*
X172839D01*
X258316Y189504D02*
Y216398D01*
X159895Y251315D02*
X161761D01*
X154718Y246138D02*
X159895Y251315D01*
X154773Y89209D02*
X160698Y95134D01*
X154773Y69582D02*
Y89209D01*
X221936Y217253D02*
X229698Y225016D01*
X238434Y213605D02*
Y231138D01*
X218159Y251413D02*
X238434Y231138D01*
X231065Y206236D02*
X238434Y213605D01*
X249698Y225016D02*
X258316Y216398D01*
X224963Y177210D02*
X225580Y176593D01*
Y169622D02*
Y176593D01*
X230580Y176750D02*
X231053Y177223D01*
X230580Y169622D02*
Y176750D01*
X174801Y187488D02*
X199360Y162929D01*
X215797Y207235D02*
X215812Y207220D01*
X215797Y207235D02*
Y214209D01*
X217765Y162929D02*
X220580Y165744D01*
Y169622D01*
X199360Y162929D02*
X217765D01*
X177294Y69582D02*
X177334Y69622D01*
X164773Y69582D02*
X177294D01*
X205147Y77890D02*
X215147Y67890D01*
X212962Y90075D02*
X225147Y77890D01*
X188802Y90075D02*
X212962D01*
X164714Y95075D02*
X165366Y94424D01*
X144773Y75950D02*
X149850Y81027D01*
X144773Y69582D02*
Y75950D01*
X134773Y75900D02*
X144379Y85506D01*
X134773Y69582D02*
Y75900D01*
X164714Y90075D02*
X164773Y90016D01*
Y69582D02*
Y90016D01*
X89603Y95075D02*
X136368D01*
X224932Y183430D02*
X224950Y183411D01*
X231053Y206224D02*
X231065Y206236D01*
X231053Y189602D02*
Y206224D01*
X247969Y191190D02*
X247982Y191177D01*
X247969Y191190D02*
Y206236D01*
X241870Y183411D02*
X241880Y183420D01*
Y191177D01*
X231053Y183411D02*
X241870D01*
X231053Y177223D02*
Y183411D01*
X224950D02*
X224963Y183398D01*
Y177210D02*
Y183398D01*
X127159Y226138D02*
X154718D01*
X490324Y188083D02*
X494977Y183430D01*
X490324Y188083D02*
Y197053D01*
X494977Y183430D02*
X496802D01*
X338848Y202693D02*
X350364Y191177D01*
X351348D01*
X339761Y73362D02*
X361473Y95075D01*
X487017Y67890D02*
X506375D01*
X511847Y73362D01*
X513750Y170212D02*
X519261Y164701D01*
X513750Y170212D02*
Y175626D01*
X398100Y106138D02*
X398100Y106138D01*
Y112339D01*
X398100Y100036D02*
X398139Y100075D01*
X408238D01*
X348691Y215291D02*
Y228566D01*
X328021Y187450D02*
Y204464D01*
X338848Y215291D01*
X358533Y202693D02*
Y215291D01*
X438540Y244787D02*
Y256471D01*
X461546Y251315D02*
X489930D01*
X490029Y251413D01*
X481565Y214209D02*
X481568Y214212D01*
Y225016D01*
X493806Y200535D02*
Y217253D01*
X490324Y197053D02*
X493806Y200535D01*
X525364Y181138D02*
Y183402D01*
X519852Y175626D02*
X525364Y181138D01*
Y183402D02*
Y184681D01*
X530186Y189504D01*
X356262Y236138D02*
X399029D01*
X348691Y228566D02*
X356262Y236138D01*
X391702Y167654D02*
Y174740D01*
X391112Y167063D02*
X391702Y167654D01*
X385600Y180842D02*
X391702D01*
X391604Y180941D02*
X391702Y180842D01*
X391604Y180941D02*
Y186650D01*
X413927Y112142D02*
X425935Y100134D01*
X410699Y112142D02*
X413927D01*
X421721Y95919D02*
X425935Y100134D01*
X421721Y81027D02*
Y95919D01*
X425935Y100134D02*
X435403D01*
X412312Y105075D02*
X416250Y101138D01*
X408238Y105075D02*
X412312D01*
X416250Y85506D02*
Y101138D01*
X399029Y216138D02*
X400206D01*
X408730Y207614D01*
X417490D01*
X400659Y121394D02*
Y127988D01*
X400659Y127988D02*
X400659Y127988D01*
X410638Y118305D02*
X410699Y118244D01*
X410638Y118305D02*
Y133992D01*
X422337Y221222D02*
X431461D01*
X416899Y215784D02*
X422337Y221222D01*
X326348Y224642D02*
Y255703D01*
X342261Y271616D01*
X322312Y211260D02*
X336069Y225016D01*
X322312Y210862D02*
Y211260D01*
Y199346D02*
Y204760D01*
X376068Y210012D02*
X398592Y187488D01*
X376068Y210012D02*
Y225016D01*
X398592Y164406D02*
Y187488D01*
X328021Y187450D02*
X343428D01*
X391604Y186650D02*
X391604Y186650D01*
X395186Y246138D02*
X399029D01*
X391604Y242555D02*
X395186Y246138D01*
X363553Y178087D02*
Y185075D01*
X362962Y177496D02*
X363553Y178087D01*
X362962Y174089D02*
Y177496D01*
X358318Y169445D02*
X362962Y174089D01*
X350757Y169445D02*
X358318D01*
X351348Y191177D02*
X357450D01*
X351348Y177496D02*
Y185075D01*
X328021Y170546D02*
X343428D01*
X350757Y164444D02*
X350757Y164445D01*
X343428Y164444D02*
X350757D01*
X350757Y159445D02*
Y164445D01*
X376584D02*
X379497Y167358D01*
Y174740D01*
X372214Y164445D02*
X376584D01*
X378099Y154445D02*
X379202Y153342D01*
X372214Y154445D02*
X378099D01*
X398592Y187488D02*
X446671D01*
X393631Y159444D02*
X398592Y164406D01*
X391407Y159444D02*
X393631D01*
X365687Y159413D02*
X372182D01*
X372214Y159445D01*
X365687Y147181D02*
Y159413D01*
X385305Y153342D02*
X391407D01*
X372971Y147181D02*
X379202D01*
X385305D02*
X385305Y147181D01*
Y153342D01*
X379202D02*
X385305D01*
X379201Y159445D02*
X379202Y159444D01*
X372214Y159445D02*
X379201D01*
X379202Y159444D02*
X385305D01*
X436013Y214701D02*
Y216669D01*
X431461Y221222D02*
X436013Y216669D01*
X431860Y236138D02*
X436013Y240291D01*
X426588Y236138D02*
X431860D01*
X436013Y242260D02*
X438540Y244787D01*
X436013Y240291D02*
Y242260D01*
X432568Y95134D02*
X436584D01*
X444709Y94424D02*
X449058Y90075D01*
X437236Y94424D02*
X444709D01*
X530186Y189504D02*
Y216398D01*
X431765Y251315D02*
X433632D01*
X426588Y246138D02*
X431765Y251315D01*
X426643Y89209D02*
X432568Y95134D01*
X426643Y69582D02*
Y89209D01*
X493806Y217253D02*
X501569Y225016D01*
X510304Y213605D02*
Y231138D01*
X490029Y251413D02*
X510304Y231138D01*
X502936Y206236D02*
X510304Y213605D01*
X521568Y225016D02*
X530186Y216398D01*
X496833Y177210D02*
X497450Y176593D01*
Y169622D02*
Y176593D01*
X502451Y176750D02*
X502923Y177223D01*
X502451Y169622D02*
Y176750D01*
X446671Y187488D02*
X471230Y162929D01*
X487667Y207235D02*
X487682Y207220D01*
X487667Y207235D02*
Y214209D01*
X489636Y162929D02*
X492451Y165744D01*
Y169622D01*
X471230Y162929D02*
X489636D01*
X449164Y69582D02*
X449204Y69622D01*
X436643Y69582D02*
X449164D01*
X477017Y77890D02*
X487017Y67890D01*
X484832Y90075D02*
X497017Y77890D01*
X460672Y90075D02*
X484832D01*
X436584Y95075D02*
X437236Y94424D01*
X416643Y75950D02*
X421721Y81027D01*
X416643Y69582D02*
Y75950D01*
X406643Y75900D02*
X416250Y85506D01*
X406643Y69582D02*
Y75900D01*
X436584Y90075D02*
X436643Y90016D01*
Y69582D02*
Y90016D01*
X361473Y95075D02*
X408238D01*
X496802Y183430D02*
X496820Y183411D01*
X502923Y206224D02*
X502936Y206236D01*
X502923Y189602D02*
Y206224D01*
X519839Y191190D02*
X519852Y191177D01*
X519839Y191190D02*
Y206236D01*
X513740Y183411D02*
X513750Y183420D01*
Y191177D01*
X502923Y183411D02*
X513740D01*
X502923Y177223D02*
Y183411D01*
X496820D02*
X496833Y183398D01*
Y177210D02*
Y183398D01*
X399029Y226138D02*
X426588D01*
D32*
X98234Y191177D02*
Y217715D01*
X90932Y225016D02*
X98234Y217715D01*
X84198Y225016D02*
X90932D01*
X190110Y220309D02*
X191388D01*
X225442Y109287D02*
Y113126D01*
X182627Y227791D02*
Y250994D01*
X167739Y265882D02*
X182627Y250994D01*
X161958Y265882D02*
X167739D01*
X214911Y123658D02*
X225442Y113126D01*
Y109287D02*
X225535Y109380D01*
X221597Y102096D02*
X225442Y105941D01*
X218645Y102096D02*
X221597D01*
X225442Y105941D02*
Y109287D01*
X225535Y109380D02*
X228402D01*
X182627Y227791D02*
X190110Y220309D01*
X92371Y130646D02*
X123867D01*
X78887Y144130D02*
X92371Y130646D01*
X78887Y144130D02*
Y147954D01*
X132923Y139701D02*
X159122D01*
X167980Y130842D01*
X170901D01*
X123867Y130646D02*
X132923Y139701D01*
X107627Y180842D02*
Y184211D01*
X100729Y191109D02*
X107627Y184211D01*
X98302Y191109D02*
X100729D01*
X98234Y191177D02*
X98302Y191109D01*
X91682Y191177D02*
X98234D01*
X131985Y177201D02*
X150555D01*
X78887Y147954D02*
Y154445D01*
X183861Y105055D02*
X186860Y102056D01*
X172490Y105055D02*
X183861D01*
X191388Y205093D02*
Y206630D01*
X182098Y195803D02*
X191388Y205093D01*
X166541Y167457D02*
X183401D01*
X160679Y161594D02*
X166541Y167457D01*
X160679Y159681D02*
Y161594D01*
X170901Y130842D02*
X223194D01*
X230561Y138209D01*
Y141079D01*
X230580Y141098D01*
Y148165D01*
X202692D02*
X215580D01*
X172470Y105075D02*
X172490Y105055D01*
X164714Y105075D02*
X172470D01*
X186860Y102056D02*
X186900Y102096D01*
X198960D01*
X205062D01*
X212543D02*
X218645D01*
X154675Y195803D02*
X160777D01*
X168257D02*
X174458D01*
X182098D01*
X182098Y159681D02*
X182098Y159681D01*
X170915Y159681D02*
X182098D01*
X220580Y148165D02*
X225580D01*
X183401Y167457D02*
X202692Y148165D01*
X150639Y159681D02*
X160679D01*
X150555Y159765D02*
Y177201D01*
X191388Y206630D02*
Y220213D01*
X154675Y207614D02*
Y216113D01*
Y195803D02*
Y207614D01*
X160679Y148067D02*
X170887D01*
X170901Y130842D02*
Y148053D01*
X370104Y191177D02*
Y217715D01*
X362803Y225016D02*
X370104Y217715D01*
X356068Y225016D02*
X362803D01*
X461980Y220309D02*
X463258D01*
X497312Y109287D02*
Y113126D01*
X454497Y227791D02*
Y250994D01*
X439609Y265882D02*
X454497Y250994D01*
X433828Y265882D02*
X439609D01*
X486781Y123658D02*
X497312Y113126D01*
Y109287D02*
X497405Y109380D01*
X493468Y102096D02*
X497312Y105941D01*
X490515Y102096D02*
X493468D01*
X497312Y105941D02*
Y109287D01*
X497405Y109380D02*
X500272D01*
X454497Y227791D02*
X461980Y220309D01*
X364242Y130646D02*
X395738D01*
X350757Y144130D02*
X364242Y130646D01*
X350757Y144130D02*
Y147954D01*
X404793Y139701D02*
X430992D01*
X439851Y130842D01*
X442771D01*
X395738Y130646D02*
X404793Y139701D01*
X379497Y180842D02*
Y184211D01*
X372599Y191109D02*
X379497Y184211D01*
X370172Y191109D02*
X372599D01*
X370104Y191177D02*
X370172Y191109D01*
X363553Y191177D02*
X370104D01*
X403856Y177201D02*
X422425D01*
X350757Y147954D02*
Y154445D01*
X455731Y105055D02*
X458730Y102056D01*
X444360Y105055D02*
X455731D01*
X463258Y205093D02*
Y206630D01*
X453968Y195803D02*
X463258Y205093D01*
X438411Y167457D02*
X455271D01*
X432549Y161594D02*
X438411Y167457D01*
X432549Y159681D02*
Y161594D01*
X442771Y130842D02*
X495064D01*
X502431Y138209D01*
Y141079D01*
X502451Y141098D01*
Y148165D01*
X474562D02*
X487451D01*
X444340Y105075D02*
X444360Y105055D01*
X436584Y105075D02*
X444340D01*
X458730Y102056D02*
X458770Y102096D01*
X470830D01*
X476932D01*
X484413D02*
X490515D01*
X426545Y195803D02*
X432647D01*
X440128D02*
X446328D01*
X453968D01*
X453968Y159681D02*
X453968Y159681D01*
X442785Y159681D02*
X453968D01*
X492451Y148165D02*
X497450D01*
X455271Y167457D02*
X474562Y148165D01*
X422509Y159681D02*
X432549D01*
X422425Y159765D02*
Y177201D01*
X463258Y206630D02*
Y220213D01*
X426545Y207614D02*
Y216113D01*
Y195803D02*
Y207614D01*
X432549Y148067D02*
X442757D01*
X442771Y130842D02*
Y148053D01*
D33*
X312205Y280807D02*
D03*
Y276870D02*
D03*
Y272933D02*
D03*
Y265059D02*
D03*
Y268996D02*
D03*
X312106Y93996D02*
D03*
Y90059D02*
D03*
Y97933D02*
D03*
Y101870D02*
D03*
Y105807D02*
D03*
X545571Y268996D02*
D03*
Y265059D02*
D03*
Y272933D02*
D03*
Y276870D02*
D03*
Y280807D02*
D03*
X545571Y93996D02*
D03*
Y90059D02*
D03*
Y97933D02*
D03*
Y101870D02*
D03*
Y105807D02*
D03*
X273622Y105807D02*
D03*
Y101870D02*
D03*
Y97933D02*
D03*
Y90059D02*
D03*
Y93996D02*
D03*
X273622Y280807D02*
D03*
Y276870D02*
D03*
Y272933D02*
D03*
Y265059D02*
D03*
Y268996D02*
D03*
X40157Y105807D02*
D03*
Y101870D02*
D03*
Y97933D02*
D03*
Y90059D02*
D03*
Y93996D02*
D03*
X40256Y268996D02*
D03*
Y265059D02*
D03*
Y272933D02*
D03*
Y276870D02*
D03*
Y280807D02*
D03*
D34*
X161958Y265882D02*
D03*
X151958D02*
D03*
X77891Y73362D02*
D03*
X67891D02*
D03*
X249977Y73362D02*
D03*
X239977D02*
D03*
X433828Y265882D02*
D03*
X423828D02*
D03*
X349761Y73362D02*
D03*
X339761D02*
D03*
X521847Y73362D02*
D03*
X511847D02*
D03*
D35*
X144773Y69582D02*
D03*
X134773D02*
D03*
X154773D02*
D03*
X164773D02*
D03*
X180483Y69622D02*
D03*
X190483D02*
D03*
X416643Y69582D02*
D03*
X406643D02*
D03*
X426643D02*
D03*
X436643D02*
D03*
X452353Y69622D02*
D03*
X462354D02*
D03*
D36*
X225147Y77890D02*
D03*
X497017D02*
D03*
D37*
X215147Y67890D02*
D03*
X205147Y77890D02*
D03*
X487017Y67890D02*
D03*
X477017Y77890D02*
D03*
D38*
X249698Y225016D02*
D03*
X229698D02*
D03*
X209698D02*
D03*
X104198D02*
D03*
X84198D02*
D03*
X64198D02*
D03*
X521568D02*
D03*
X501569D02*
D03*
X481568D02*
D03*
X376068D02*
D03*
X356068D02*
D03*
X336069D02*
D03*
D39*
X76820Y202693D02*
D03*
X86663D02*
D03*
X66978D02*
D03*
Y215291D02*
D03*
X86663D02*
D03*
X76820D02*
D03*
X348691Y202693D02*
D03*
X358533D02*
D03*
X338848D02*
D03*
Y215291D02*
D03*
X358533D02*
D03*
X348691D02*
D03*
D40*
X179609Y296616D02*
D03*
X243507D02*
D03*
X179609Y321616D02*
D03*
X243507D02*
D03*
X179609Y271616D02*
D03*
X243507D02*
D03*
X70390Y296616D02*
D03*
X134288D02*
D03*
X70390Y321616D02*
D03*
X134288D02*
D03*
X70390Y271616D02*
D03*
X134288D02*
D03*
X451479Y296616D02*
D03*
X515378D02*
D03*
X451479Y321616D02*
D03*
X515378D02*
D03*
X451479Y271616D02*
D03*
X515378D02*
D03*
X342261Y296616D02*
D03*
X406158D02*
D03*
X342261Y321616D02*
D03*
X406158D02*
D03*
X342261Y271616D02*
D03*
X406158D02*
D03*
D41*
X171505Y269819D02*
D03*
X178000Y262831D02*
D03*
X142175Y130842D02*
D03*
X151047Y124937D02*
D03*
X160088Y130842D02*
D03*
X89320Y147954D02*
D03*
X177188Y98953D02*
D03*
X136368Y86008D02*
D03*
X130159Y90075D02*
D03*
X192667Y116007D02*
D03*
X186860Y123658D02*
D03*
X180976Y116007D02*
D03*
X218645Y112923D02*
D03*
X198960D02*
D03*
X208802Y117457D02*
D03*
X242353Y115318D02*
D03*
X249879Y109380D02*
D03*
X242353Y103480D02*
D03*
X241486Y147797D02*
D03*
X253198D02*
D03*
X247391Y139602D02*
D03*
X219892Y141079D02*
D03*
X215580Y175134D02*
D03*
X170310Y171394D02*
D03*
X170409Y183106D02*
D03*
X161367Y177201D02*
D03*
X84990Y152853D02*
D03*
X100344Y173461D02*
D03*
X94892Y169445D02*
D03*
X113730Y170054D02*
D03*
X85580Y180449D02*
D03*
X71558Y176906D02*
D03*
X164517Y202201D02*
D03*
X174143Y246039D02*
D03*
Y234386D02*
D03*
X170310Y240291D02*
D03*
X178000D02*
D03*
X174143Y220508D02*
D03*
X178000Y214701D02*
D03*
X170310D02*
D03*
X174458Y206335D02*
D03*
X191388Y177740D02*
D03*
X197293Y186776D02*
D03*
X191388Y195803D02*
D03*
X197687Y234976D02*
D03*
X191388Y242555D02*
D03*
X149753Y75232D02*
D03*
X142175Y78284D02*
D03*
X131348Y116768D02*
D03*
X72837Y221295D02*
D03*
X97239Y225823D02*
D03*
X90511Y208894D02*
D03*
X82657D02*
D03*
X55327Y210075D02*
D03*
X60665Y215587D02*
D03*
X198853Y95075D02*
D03*
X171788Y254957D02*
D03*
X161564Y257321D02*
D03*
X166670Y256471D02*
D03*
X148573Y183430D02*
D03*
X69498Y135516D02*
D03*
X207508Y157122D02*
D03*
X219498Y335516D02*
D03*
X223277Y125921D02*
D03*
X115797Y204572D02*
D03*
X148179Y100134D02*
D03*
X194498Y85516D02*
D03*
X169498Y285516D02*
D03*
X131192Y191109D02*
D03*
X94498Y239891D02*
D03*
X44498Y260516D02*
D03*
X119498Y285516D02*
D03*
Y60516D02*
D03*
X194498Y260516D02*
D03*
X123867Y221295D02*
D03*
X137442Y153874D02*
D03*
X144498Y335516D02*
D03*
X269498Y260516D02*
D03*
X148573Y191109D02*
D03*
X69498Y260516D02*
D03*
X166190Y140094D02*
D03*
X178887Y153050D02*
D03*
X203297Y142654D02*
D03*
X94498Y285516D02*
D03*
X178000Y163520D02*
D03*
X144498Y235516D02*
D03*
X69498Y85516D02*
D03*
X194498Y285516D02*
D03*
X44498Y85516D02*
D03*
X94498Y135516D02*
D03*
X236269Y177223D02*
D03*
X269498Y310516D02*
D03*
X215580Y77595D02*
D03*
X244498Y285516D02*
D03*
X129765Y160516D02*
D03*
X115009Y241177D02*
D03*
X131192Y171591D02*
D03*
X110863Y194327D02*
D03*
X244498Y60516D02*
D03*
Y235516D02*
D03*
X144498Y310516D02*
D03*
X203100Y207235D02*
D03*
X219498Y310516D02*
D03*
X207402Y167063D02*
D03*
X269498Y85516D02*
D03*
X44498Y110516D02*
D03*
X94498Y335516D02*
D03*
X169498Y310516D02*
D03*
X236466Y189701D02*
D03*
X224963Y194622D02*
D03*
X155659Y154071D02*
D03*
X115797Y221295D02*
D03*
X187942Y156716D02*
D03*
X119498Y260516D02*
D03*
X244498Y310516D02*
D03*
X44498D02*
D03*
X230659Y157152D02*
D03*
X155659Y165193D02*
D03*
X69498Y60516D02*
D03*
X131136Y183106D02*
D03*
X94498Y85516D02*
D03*
X140949Y191109D02*
D03*
X244498Y85516D02*
D03*
X44498Y235516D02*
D03*
X94498Y110516D02*
D03*
X69498Y335516D02*
D03*
X269498Y185516D02*
D03*
X144498Y60516D02*
D03*
X119498Y135516D02*
D03*
X175738Y140094D02*
D03*
X119498Y110516D02*
D03*
X194498Y135516D02*
D03*
X140949Y167752D02*
D03*
Y183106D02*
D03*
X269498Y110516D02*
D03*
X162762Y191109D02*
D03*
X231446Y215587D02*
D03*
X140949Y220635D02*
D03*
X194498Y335516D02*
D03*
X65414Y182417D02*
D03*
X154773Y95361D02*
D03*
X44498Y135516D02*
D03*
X140819Y203579D02*
D03*
X44498Y60516D02*
D03*
X69498Y110516D02*
D03*
X169498D02*
D03*
X269498Y135516D02*
D03*
Y160516D02*
D03*
X144498Y260516D02*
D03*
X169498Y85516D02*
D03*
X133218Y203579D02*
D03*
X191289Y165744D02*
D03*
X162253Y246591D02*
D03*
X245718Y215685D02*
D03*
X119498Y85516D02*
D03*
X159793Y78284D02*
D03*
X148573Y201567D02*
D03*
X244498Y260516D02*
D03*
X219498Y60516D02*
D03*
X269498Y235516D02*
D03*
X177312Y190685D02*
D03*
X63406Y193441D02*
D03*
X219498Y260516D02*
D03*
X194498Y60516D02*
D03*
X151144Y110516D02*
D03*
X144498Y285516D02*
D03*
X69498Y235516D02*
D03*
Y285516D02*
D03*
X244498Y335516D02*
D03*
X219498Y285516D02*
D03*
X253198Y196394D02*
D03*
X62352Y174340D02*
D03*
X44498Y160516D02*
D03*
X169498Y335516D02*
D03*
X143896Y148100D02*
D03*
X194498Y310516D02*
D03*
X165844Y154071D02*
D03*
X269498Y285516D02*
D03*
X123867Y204572D02*
D03*
X119498Y310516D02*
D03*
X94498D02*
D03*
Y60516D02*
D03*
X208528Y201118D02*
D03*
X133549Y144228D02*
D03*
X126033Y241177D02*
D03*
X44498Y185516D02*
D03*
X119498Y335516D02*
D03*
X44498Y210516D02*
D03*
Y285516D02*
D03*
X125049Y145705D02*
D03*
X69498Y310516D02*
D03*
X269498Y210516D02*
D03*
X219498Y235516D02*
D03*
X133703Y132122D02*
D03*
X169498Y60516D02*
D03*
X269498D02*
D03*
X94498Y260516D02*
D03*
X189676Y251315D02*
D03*
X128789Y127988D02*
D03*
X136860Y207614D02*
D03*
X138768Y133992D02*
D03*
X145029Y215784D02*
D03*
X54478Y224642D02*
D03*
X50442Y199346D02*
D03*
X119734Y186650D02*
D03*
Y242555D02*
D03*
X93817Y159413D02*
D03*
X161761Y251315D02*
D03*
X443375Y269819D02*
D03*
X449870Y262831D02*
D03*
X414045Y130842D02*
D03*
X422917Y124937D02*
D03*
X431958Y130842D02*
D03*
X361190Y147954D02*
D03*
X449058Y98953D02*
D03*
X408238Y86008D02*
D03*
X402029Y90075D02*
D03*
X464537Y116007D02*
D03*
X458730Y123658D02*
D03*
X452846Y116007D02*
D03*
X490515Y112923D02*
D03*
X470830D02*
D03*
X480673Y117457D02*
D03*
X514223Y115318D02*
D03*
X521749Y109380D02*
D03*
X514223Y103480D02*
D03*
X513356Y147797D02*
D03*
X525068D02*
D03*
X519261Y139602D02*
D03*
X491762Y141079D02*
D03*
X487451Y175134D02*
D03*
X442180Y171394D02*
D03*
X442279Y183106D02*
D03*
X433238Y177201D02*
D03*
X356860Y152853D02*
D03*
X372214Y173461D02*
D03*
X366762Y169445D02*
D03*
X385600Y170054D02*
D03*
X357450Y180449D02*
D03*
X343428Y176906D02*
D03*
X436387Y202201D02*
D03*
X446013Y246039D02*
D03*
Y234386D02*
D03*
X442180Y240291D02*
D03*
X449870D02*
D03*
X446013Y220508D02*
D03*
X449870Y214701D02*
D03*
X442180D02*
D03*
X446328Y206335D02*
D03*
X463258Y177740D02*
D03*
X469163Y186776D02*
D03*
X463258Y195803D02*
D03*
X469557Y234976D02*
D03*
X463258Y242555D02*
D03*
X421623Y75232D02*
D03*
X414045Y78284D02*
D03*
X403218Y116768D02*
D03*
X344707Y221295D02*
D03*
X369109Y225823D02*
D03*
X362381Y208894D02*
D03*
X354528D02*
D03*
X327198Y210075D02*
D03*
X332535Y215587D02*
D03*
X470723Y95075D02*
D03*
X443658Y254957D02*
D03*
X433434Y257321D02*
D03*
X438540Y256471D02*
D03*
X420443Y183430D02*
D03*
X341369Y135516D02*
D03*
X479378Y157122D02*
D03*
X491368Y335516D02*
D03*
X495147Y125921D02*
D03*
X387667Y204572D02*
D03*
X420049Y100134D02*
D03*
X466368Y85516D02*
D03*
X441368Y285516D02*
D03*
X403062Y191109D02*
D03*
X366369Y239891D02*
D03*
X316369Y260516D02*
D03*
X391369Y285516D02*
D03*
Y60516D02*
D03*
X466368Y260516D02*
D03*
X395738Y221295D02*
D03*
X409312Y153874D02*
D03*
X416368Y335516D02*
D03*
X541368Y260516D02*
D03*
X420443Y191109D02*
D03*
X341369Y260516D02*
D03*
X438061Y140094D02*
D03*
X450757Y153050D02*
D03*
X475167Y142654D02*
D03*
X366369Y285516D02*
D03*
X449870Y163520D02*
D03*
X416368Y235516D02*
D03*
X341369Y85516D02*
D03*
X466368Y285516D02*
D03*
X316369Y85516D02*
D03*
X366369Y135516D02*
D03*
X508139Y177223D02*
D03*
X541368Y310516D02*
D03*
X487451Y77595D02*
D03*
X516368Y285516D02*
D03*
X401635Y160516D02*
D03*
X386879Y241177D02*
D03*
X403062Y171591D02*
D03*
X382733Y194327D02*
D03*
X516368Y60516D02*
D03*
Y235516D02*
D03*
X416368Y310516D02*
D03*
X474970Y207235D02*
D03*
X491368Y310516D02*
D03*
X479273Y167063D02*
D03*
X541368Y85516D02*
D03*
X316369Y110516D02*
D03*
X366369Y335516D02*
D03*
X441368Y310516D02*
D03*
X508336Y189701D02*
D03*
X496833Y194622D02*
D03*
X427529Y154071D02*
D03*
X387667Y221295D02*
D03*
X459812Y156716D02*
D03*
X391369Y260516D02*
D03*
X516368Y310516D02*
D03*
X316369D02*
D03*
X502529Y157152D02*
D03*
X427529Y165193D02*
D03*
X341369Y60516D02*
D03*
X403006Y183106D02*
D03*
X366369Y85516D02*
D03*
X412820Y191109D02*
D03*
X516368Y85516D02*
D03*
X316369Y235516D02*
D03*
X366369Y110516D02*
D03*
X341369Y335516D02*
D03*
X541368Y185516D02*
D03*
X416368Y60516D02*
D03*
X391369Y135516D02*
D03*
X447608Y140094D02*
D03*
X391369Y110516D02*
D03*
X466368Y135516D02*
D03*
X412820Y167752D02*
D03*
Y183106D02*
D03*
X541368Y110516D02*
D03*
X434632Y191109D02*
D03*
X503316Y215587D02*
D03*
X412820Y220635D02*
D03*
X466368Y335516D02*
D03*
X337284Y182417D02*
D03*
X426643Y95361D02*
D03*
X316369Y135516D02*
D03*
X412689Y203579D02*
D03*
X316369Y60516D02*
D03*
X341369Y110516D02*
D03*
X441368D02*
D03*
X541368Y135516D02*
D03*
Y160516D02*
D03*
X416368Y260516D02*
D03*
X441368Y85516D02*
D03*
X405088Y203579D02*
D03*
X463159Y165744D02*
D03*
X434123Y246591D02*
D03*
X517588Y215685D02*
D03*
X391369Y85516D02*
D03*
X431663Y78284D02*
D03*
X420443Y201567D02*
D03*
X516368Y260516D02*
D03*
X491368Y60516D02*
D03*
X541368Y235516D02*
D03*
X449183Y190685D02*
D03*
X335276Y193441D02*
D03*
X491368Y260516D02*
D03*
X466368Y60516D02*
D03*
X423014Y110516D02*
D03*
X416368Y285516D02*
D03*
X341369Y235516D02*
D03*
Y285516D02*
D03*
X516368Y335516D02*
D03*
X491368Y285516D02*
D03*
X525068Y196394D02*
D03*
X334222Y174340D02*
D03*
X316369Y160516D02*
D03*
X441368Y335516D02*
D03*
X415766Y148100D02*
D03*
X466368Y310516D02*
D03*
X437714Y154071D02*
D03*
X541368Y285516D02*
D03*
X395738Y204572D02*
D03*
X391369Y310516D02*
D03*
X366369D02*
D03*
Y60516D02*
D03*
X480399Y201118D02*
D03*
X405419Y144228D02*
D03*
X397903Y241177D02*
D03*
X316369Y185516D02*
D03*
X391369Y335516D02*
D03*
X316369Y210516D02*
D03*
Y285516D02*
D03*
X396919Y145705D02*
D03*
X341369Y310516D02*
D03*
X541368Y210516D02*
D03*
X491368Y235516D02*
D03*
X405573Y132122D02*
D03*
X441368Y60516D02*
D03*
X541368D02*
D03*
X366369Y260516D02*
D03*
X461546Y251315D02*
D03*
X400659Y127988D02*
D03*
X408730Y207614D02*
D03*
X410638Y133992D02*
D03*
X416899Y215784D02*
D03*
X326348Y224642D02*
D03*
X322312Y199346D02*
D03*
X391604Y186650D02*
D03*
Y242555D02*
D03*
X365687Y159413D02*
D03*
X433632Y251315D02*
D03*
D42*
X214911Y123658D02*
D03*
X98234Y191177D02*
D03*
X131985Y177201D02*
D03*
X182098Y159681D02*
D03*
Y195803D02*
D03*
X486781Y123658D02*
D03*
X370104Y191177D02*
D03*
X403856Y177201D02*
D03*
X453968Y159681D02*
D03*
Y195803D02*
D03*
M02*
