M48
;Layer_Color=9474304
;FILE_FORMAT=2:5
INCH,TZ
;TYPE=PLATED
T1F00S00C0.01378
T2F00S00C0.01969
T3F00S00C0.02000
T4F00S00C0.03150
T5F00S00C0.03543
T6F00S00C0.04000
T7F00S00C0.04331
T8F00S00C0.05512
;TYPE=NON_PLATED
T9F00S00C0.01968
T10F00S00C0.11811
%
T01
X44498Y60516
Y85516
X69498
Y60516
X94498
X119498
X144498
X149753Y75232
X142175Y78284
X136368Y86008
X130159Y90075
X119498Y85516
X94498
Y110516
Y135516
X89320Y147954
X84990Y152853
X69498Y135516
X44498
Y110516
X69498
X119498
X131348Y116768
X128789Y127988
X133703Y132122
X138768Y133992
X142175Y130842
X151047Y124937
X151144Y110516
X148179Y100134
X154773Y95361
X155659Y154071
X143896Y148100
X137442Y153874
X133549Y144228
X125049Y145705
X119498Y135516
X160088Y130842
X166190Y140094
X175738
X178887Y153050
X165844Y154071
X194498Y135516
X203297Y142654
X219892Y141079
X223277Y125921
X218645Y112923
X208802Y117457
X198960Y112923
X192667Y116007
X180976
X186860Y123658
X169498Y110516
X177188Y98953
X169498Y85516
X159793Y78284
X169498Y60516
X194498
Y85516
X198853Y95075
X215580Y77595
X219498Y60516
X244498
Y85516
X242353Y103480
Y115318
X249879Y109380
X269498Y110516
Y85516
Y60516
Y135516
X247391Y139602
X253198Y147797
X241486
X316369Y135516
X341369
X366369
X361190Y147954
X356860Y152853
X396919Y145705
X405419Y144228
X405573Y132122
X410638Y133992
X414045Y130842
X422917Y124937
X423014Y110516
X420049Y100134
X426643Y95361
X431663Y78284
X421623Y75232
X414045Y78284
X408238Y86008
X402029Y90075
X391369Y85516
Y60516
X416368
X441368
Y85516
X449058Y98953
X441368Y110516
X452846Y116007
X464537
X458730Y123658
X466368Y135516
X447608Y140094
X438061
X437714Y154071
X427529
X415766Y148100
X409312Y153874
X400659Y127988
X403218Y116768
X391369Y110516
X366369
Y85516
X341369
X316369
Y110516
X341369
Y60516
X316369
X366369
X391369Y135516
X431958Y130842
X450757Y153050
X466368Y85516
Y60516
X491368
X487451Y77595
X470723Y95075
X470830Y112923
X480673Y117457
X490515Y112923
X495147Y125921
X491762Y141079
X475167Y142654
X513356Y147797
X525068
X519261Y139602
X541368Y135516
Y110516
X521749Y109380
X514223Y103480
Y115318
X516368Y85516
Y60516
X541368
Y85516
Y160516
Y185516
Y210516
Y235516
Y260516
X516368
Y285516
Y310516
X541368
Y285516
X491368
Y310516
Y260516
Y235516
X469557Y234976
X474970Y207235
X480399Y201118
X496833Y194622
X508336Y189701
X508139Y177223
X487451Y175134
X479273Y167063
X479378Y157122
X502529Y157152
X503316Y215587
X517588Y215685
X516368Y235516
X525068Y196394
X469163Y186776
X463258Y195803
Y177740
X463159Y165744
X459812Y156716
X449870Y163520
X442180Y171394
X442279Y183106
X449183Y190685
X434632Y191109
X436387Y202201
X446328Y206335
X449870Y214701
X442180
X446013Y220508
Y234386
X442180Y240291
X449870
X446013Y246039
X443658Y254957
X438540Y256471
X433434Y257321
X433632Y251315
X434123Y246591
X416368Y235516
X412820Y220635
X416899Y215784
X408730Y207614
X405088Y203579
X412689
X420443Y201567
Y191109
X412820
Y183106
X420443Y183430
X403006Y183106
X403062Y191109
X391604Y186650
X382733Y194327
X387667Y204572
X395738
Y221295
X387667
X386879Y241177
X391604Y242555
X397903Y241177
X391369Y260516
Y285516
X366369
X341369
Y260516
X316369
Y235516
X326348Y224642
X332535Y215587
X327198Y210075
X316369Y210516
X322312Y199346
X335276Y193441
X337284Y182417
X334222Y174340
X343428Y176906
X357450Y180449
X366762Y169445
X372214Y173461
X385600Y170054
X403062Y171591
X401635Y160516
X412820Y167752
X427529Y165193
X433238Y177201
X365687Y159413
X316369Y160516
Y185516
X354528Y208894
X362381
X369109Y225823
X366369Y239891
Y260516
X416368
Y285516
X441368
X443375Y269819
X449870Y262831
X466368Y260516
X461546Y251315
X463258Y242555
X466368Y285516
Y310516
X441368
X416368
X391369
X366369
X341369
X316369
Y285516
X341369Y235516
X344707Y221295
X269498Y210516
Y185516
Y160516
X230659Y157152
X207508Y157122
X207402Y167063
X215580Y175134
X236269Y177223
X236466Y189701
X224963Y194622
X208528Y201118
X203100Y207235
X191388Y195803
X197293Y186776
X191388Y177740
X191289Y165744
X187942Y156716
X178000Y163520
X170310Y171394
X170409Y183106
X177312Y190685
X162762Y191109
X164517Y202201
X174458Y206335
X178000Y214701
X170310
X174143Y220508
Y234386
X170310Y240291
X178000
X174143Y246039
X171788Y254957
X166670Y256471
X161564Y257321
X161761Y251315
X162253Y246591
X178000Y262831
X171505Y269819
X169498Y285516
X194498
Y260516
X189676Y251315
X191388Y242555
X197687Y234976
X219498Y235516
X244498
X245718Y215685
X231446Y215587
X253198Y196394
X269498Y235516
Y260516
X244498
Y285516
Y310516
X269498
Y285516
X219498
Y310516
X194498
X169498
X219498Y260516
X161367Y177201
X155659Y165193
X140949Y167752
X131192Y171591
X131136Y183106
X131192Y191109
X140949
X148573
Y183430
X140949Y183106
X140819Y203579
X133218
X136860Y207614
X123867Y204572
X115797
X110863Y194327
X119734Y186650
X113730Y170054
X100344Y173461
X94892Y169445
X93817Y159413
X85580Y180449
X71558Y176906
X65414Y182417
X62352Y174340
X63406Y193441
X50442Y199346
X55327Y210075
X60665Y215587
X54478Y224642
X44498Y235516
Y260516
X69498
Y235516
X72837Y221295
X82657Y208894
X90511
X97239Y225823
X94498Y239891
Y260516
Y285516
X119498
Y260516
X119734Y242555
X115009Y241177
X126033
X123867Y221295
X115797
X140949Y220635
X145029Y215784
X148573Y201567
X144498Y235516
Y260516
Y285516
Y310516
X119498
X94498
X69498
X44498
Y285516
X69498
X44498Y210516
Y185516
Y160516
X129765
X119498Y335516
X144498
X94498
X69498
X169498
X194498
X219498
X244498
X341369
X366369
X391369
X416368
X441368
X466368
X491368
X516368
T02
X215147Y67890
X225147Y77890
X205147
X477017
X497017
X487017Y67890
T03
X214911Y123658
X486781
X453968Y159681
Y195803
X403856Y177201
X370104Y191177
X182098Y195803
Y159681
X131985Y177201
X98234Y191177
T04
X338848Y202693
X348691
X358533
Y215291
X348691
X338848
X86663
X76820
X66978
Y202693
X76820
X86663
T05
X134773Y69582
X144773
X154773
X164773
X180483Y69622
X190483
X406643Y69582
X416643
X426643
X436643
X452353Y69622
X462354
T06
X67891Y73362
X77891
X239977Y73362
X249977
X339761Y73362
X349761
X511847Y73362
X521847
X433828Y265882
X423828
X161958
X151958
T07
X481568Y225016
X501569
X521568
X376068
X356068
X336069
X249698
X229698
X209698
X104198
X84198
X64198
T08
X515378Y271616
Y296616
X451479
Y271616
X406158
Y296616
X342261
Y271616
X243507
Y296616
X179609
Y271616
X134288
Y296616
X70390
Y271616
Y321616
X134288
X179609
X243507
X342261
X406158
X451479
X515378
T09
X40157Y90059
Y93996
Y97933
Y101870
Y105807
X273622
Y101870
Y97933
Y93996
Y90059
X312106Y90059
Y93996
Y97933
Y101870
Y105807
X545571
Y101870
Y97933
Y93996
Y90059
X545571Y265059
Y268996
Y272933
Y276870
Y280807
X312205
Y276870
Y272933
Y268996
Y265059
X273622Y265059
Y268996
Y272933
Y276870
Y280807
X40256
Y276870
Y272933
Y268996
Y265059
T10
X11811Y11811
X578740
X11811Y381890
X578740Y381890
M30
