G04*
G04 #@! TF.GenerationSoftware,Altium Limited,Altium Designer,19.1.6 (110)*
G04*
G04 Layer_Color=65535*
%FSLAX25Y25*%
%MOIN*%
G70*
G01*
G75*
%ADD31C,0.01000*%
%ADD43C,0.00394*%
%ADD44C,0.00787*%
%ADD45C,0.00500*%
%ADD46C,0.00591*%
%ADD47C,0.00787*%
%ADD48R,0.02067X0.05315*%
%ADD49R,0.11417X0.02118*%
G36*
X371204Y118791D02*
X372510D01*
Y118628D01*
X373163D01*
Y118465D01*
X373489D01*
Y118302D01*
X373816D01*
Y118138D01*
X373979D01*
Y117975D01*
X374142D01*
Y117812D01*
X374305D01*
Y117649D01*
X374469D01*
Y117485D01*
Y117322D01*
X374632D01*
Y117159D01*
Y116996D01*
Y116832D01*
Y116669D01*
Y116506D01*
Y116343D01*
Y116180D01*
Y116016D01*
Y115853D01*
X374469D01*
Y115690D01*
Y115527D01*
X374305D01*
Y115364D01*
X374142D01*
Y115200D01*
X373979D01*
Y115037D01*
X373816D01*
Y114874D01*
X373489D01*
Y114710D01*
X372836D01*
Y114547D01*
X371367D01*
Y114710D01*
X370714D01*
Y114547D01*
Y114384D01*
Y114221D01*
X370878D01*
Y114058D01*
X371041D01*
Y113894D01*
X372020D01*
Y114058D01*
X372673D01*
Y114221D01*
X373163D01*
Y114058D01*
X373326D01*
Y113894D01*
X373489D01*
Y113731D01*
Y113568D01*
X373653D01*
Y113405D01*
Y113242D01*
Y113078D01*
X373816D01*
Y112915D01*
Y112752D01*
Y112589D01*
Y112425D01*
Y112262D01*
X373653D01*
Y112099D01*
X373489D01*
Y111936D01*
X370388D01*
Y112099D01*
X369735D01*
Y112262D01*
X369245D01*
Y112425D01*
X368919D01*
Y112589D01*
X368592D01*
Y112752D01*
X368429D01*
Y112915D01*
X368266D01*
Y113078D01*
X368103D01*
Y113242D01*
X367939D01*
Y113405D01*
X367776D01*
Y113568D01*
Y113731D01*
X367613D01*
Y113894D01*
Y114058D01*
X367450D01*
Y114221D01*
Y114384D01*
Y114547D01*
Y114710D01*
Y114874D01*
Y115037D01*
Y115200D01*
Y115364D01*
Y115527D01*
Y115690D01*
Y115853D01*
Y116016D01*
Y116180D01*
X367613D01*
Y116343D01*
Y116506D01*
Y116669D01*
Y116832D01*
X367776D01*
Y116996D01*
Y117159D01*
X367939D01*
Y117322D01*
Y117485D01*
X368103D01*
Y117649D01*
Y117812D01*
X368266D01*
Y117975D01*
X368429D01*
Y118138D01*
X368592D01*
Y118302D01*
X368756D01*
Y118465D01*
X369082D01*
Y118628D01*
X369572D01*
Y118791D01*
X370388D01*
Y118955D01*
X371204D01*
Y118791D01*
D02*
G37*
G36*
X99334D02*
X100640D01*
Y118628D01*
X101293D01*
Y118465D01*
X101619D01*
Y118302D01*
X101946D01*
Y118138D01*
X102109D01*
Y117975D01*
X102272D01*
Y117812D01*
X102435D01*
Y117649D01*
X102599D01*
Y117485D01*
Y117322D01*
X102762D01*
Y117159D01*
Y116996D01*
Y116832D01*
Y116669D01*
Y116506D01*
Y116343D01*
Y116180D01*
Y116016D01*
Y115853D01*
X102599D01*
Y115690D01*
Y115527D01*
X102435D01*
Y115364D01*
X102272D01*
Y115200D01*
X102109D01*
Y115037D01*
X101946D01*
Y114874D01*
X101619D01*
Y114710D01*
X100966D01*
Y114547D01*
X99497D01*
Y114710D01*
X98844D01*
Y114547D01*
Y114384D01*
Y114221D01*
X99007D01*
Y114058D01*
X99171D01*
Y113894D01*
X100150D01*
Y114058D01*
X100803D01*
Y114221D01*
X101293D01*
Y114058D01*
X101456D01*
Y113894D01*
X101619D01*
Y113731D01*
Y113568D01*
X101782D01*
Y113405D01*
Y113242D01*
Y113078D01*
X101946D01*
Y112915D01*
Y112752D01*
Y112589D01*
Y112425D01*
Y112262D01*
X101782D01*
Y112099D01*
X101619D01*
Y111936D01*
X98518D01*
Y112099D01*
X97865D01*
Y112262D01*
X97375D01*
Y112425D01*
X97049D01*
Y112589D01*
X96722D01*
Y112752D01*
X96559D01*
Y112915D01*
X96396D01*
Y113078D01*
X96233D01*
Y113242D01*
X96069D01*
Y113405D01*
X95906D01*
Y113568D01*
Y113731D01*
X95743D01*
Y113894D01*
Y114058D01*
X95580D01*
Y114221D01*
Y114384D01*
Y114547D01*
Y114710D01*
Y114874D01*
Y115037D01*
Y115200D01*
Y115364D01*
Y115527D01*
Y115690D01*
Y115853D01*
Y116016D01*
Y116180D01*
X95743D01*
Y116343D01*
Y116506D01*
Y116669D01*
Y116832D01*
X95906D01*
Y116996D01*
Y117159D01*
X96069D01*
Y117322D01*
Y117485D01*
X96233D01*
Y117649D01*
Y117812D01*
X96396D01*
Y117975D01*
X96559D01*
Y118138D01*
X96722D01*
Y118302D01*
X96886D01*
Y118465D01*
X97212D01*
Y118628D01*
X97702D01*
Y118791D01*
X98518D01*
Y118955D01*
X99334D01*
Y118791D01*
D02*
G37*
G36*
X351290Y121730D02*
X351453D01*
Y121566D01*
Y121403D01*
Y121240D01*
Y121077D01*
Y120913D01*
Y120750D01*
Y120587D01*
Y120424D01*
Y120260D01*
Y120097D01*
Y119934D01*
Y119771D01*
Y119607D01*
Y119444D01*
Y119281D01*
X351290D01*
Y119118D01*
Y118955D01*
X351127D01*
Y118791D01*
X349658D01*
Y118628D01*
Y118465D01*
Y118302D01*
Y118138D01*
Y117975D01*
Y117812D01*
Y117649D01*
Y117485D01*
Y117322D01*
Y117159D01*
Y116996D01*
Y116832D01*
Y116669D01*
Y116506D01*
Y116343D01*
Y116180D01*
Y116016D01*
Y115853D01*
Y115690D01*
Y115527D01*
Y115364D01*
Y115200D01*
Y115037D01*
Y114874D01*
Y114710D01*
Y114547D01*
Y114384D01*
Y114221D01*
Y114058D01*
Y113894D01*
X349494D01*
Y113731D01*
X348352D01*
Y113568D01*
X346556D01*
Y113731D01*
X346230D01*
Y113894D01*
Y114058D01*
Y114221D01*
Y114384D01*
Y114547D01*
Y114710D01*
Y114874D01*
Y115037D01*
Y115200D01*
Y115364D01*
Y115527D01*
Y115690D01*
Y115853D01*
Y116016D01*
Y116180D01*
Y116343D01*
Y116506D01*
Y116669D01*
Y116832D01*
Y116996D01*
Y117159D01*
Y117322D01*
Y117485D01*
Y117649D01*
Y117812D01*
Y117975D01*
Y118138D01*
Y118302D01*
Y118465D01*
Y118628D01*
Y118791D01*
X344597D01*
Y118955D01*
X344434D01*
Y119118D01*
X344271D01*
Y119281D01*
Y119444D01*
Y119607D01*
Y119771D01*
Y119934D01*
Y120097D01*
Y120260D01*
Y120424D01*
Y120587D01*
Y120750D01*
Y120913D01*
Y121077D01*
X344434D01*
Y121240D01*
Y121403D01*
Y121566D01*
Y121730D01*
X344597D01*
Y121893D01*
X351290D01*
Y121730D01*
D02*
G37*
G36*
X79420D02*
X79583D01*
Y121566D01*
Y121403D01*
Y121240D01*
Y121077D01*
Y120913D01*
Y120750D01*
Y120587D01*
Y120424D01*
Y120260D01*
Y120097D01*
Y119934D01*
Y119771D01*
Y119607D01*
Y119444D01*
Y119281D01*
X79420D01*
Y119118D01*
Y118955D01*
X79257D01*
Y118791D01*
X77788D01*
Y118628D01*
Y118465D01*
Y118302D01*
Y118138D01*
Y117975D01*
Y117812D01*
Y117649D01*
Y117485D01*
Y117322D01*
Y117159D01*
Y116996D01*
Y116832D01*
Y116669D01*
Y116506D01*
Y116343D01*
Y116180D01*
Y116016D01*
Y115853D01*
Y115690D01*
Y115527D01*
Y115364D01*
Y115200D01*
Y115037D01*
Y114874D01*
Y114710D01*
Y114547D01*
Y114384D01*
Y114221D01*
Y114058D01*
Y113894D01*
X77624D01*
Y113731D01*
X76482D01*
Y113568D01*
X74686D01*
Y113731D01*
X74360D01*
Y113894D01*
Y114058D01*
Y114221D01*
Y114384D01*
Y114547D01*
Y114710D01*
Y114874D01*
Y115037D01*
Y115200D01*
Y115364D01*
Y115527D01*
Y115690D01*
Y115853D01*
Y116016D01*
Y116180D01*
Y116343D01*
Y116506D01*
Y116669D01*
Y116832D01*
Y116996D01*
Y117159D01*
Y117322D01*
Y117485D01*
Y117649D01*
Y117812D01*
Y117975D01*
Y118138D01*
Y118302D01*
Y118465D01*
Y118628D01*
Y118791D01*
X72727D01*
Y118955D01*
X72564D01*
Y119118D01*
X72401D01*
Y119281D01*
Y119444D01*
Y119607D01*
Y119771D01*
Y119934D01*
Y120097D01*
Y120260D01*
Y120424D01*
Y120587D01*
Y120750D01*
Y120913D01*
Y121077D01*
X72564D01*
Y121240D01*
Y121403D01*
Y121566D01*
Y121730D01*
X72727D01*
Y121893D01*
X79420D01*
Y121730D01*
D02*
G37*
G36*
X357003Y120097D02*
X357656D01*
Y119934D01*
X357982D01*
Y119771D01*
X358309D01*
Y119607D01*
X358472D01*
Y119444D01*
X358635D01*
Y119281D01*
X358799D01*
Y119118D01*
X358962D01*
Y118955D01*
Y118791D01*
X359125D01*
Y118628D01*
Y118465D01*
Y118302D01*
Y118138D01*
X359288D01*
Y117975D01*
Y117812D01*
Y117649D01*
Y117485D01*
Y117322D01*
Y117159D01*
Y116996D01*
Y116832D01*
Y116669D01*
Y116506D01*
Y116343D01*
Y116180D01*
Y116016D01*
Y115853D01*
X359125D01*
Y115690D01*
Y115527D01*
Y115364D01*
X358962D01*
Y115200D01*
Y115037D01*
X358799D01*
Y114874D01*
Y114710D01*
X358635D01*
Y114547D01*
X358472D01*
Y114384D01*
X358309D01*
Y114221D01*
X358146D01*
Y114058D01*
X357982D01*
Y113894D01*
X357656D01*
Y113731D01*
X357329D01*
Y113568D01*
X356840D01*
Y113405D01*
X354391D01*
Y113568D01*
X353738D01*
Y113731D01*
X353249D01*
Y113894D01*
X353085D01*
Y114058D01*
X352759D01*
Y114221D01*
X352596D01*
Y114384D01*
X352432D01*
Y114547D01*
X352269D01*
Y114710D01*
Y114874D01*
X352106D01*
Y115037D01*
Y115200D01*
X351943D01*
Y115364D01*
Y115527D01*
Y115690D01*
X351780D01*
Y115853D01*
Y116016D01*
Y116180D01*
Y116343D01*
Y116506D01*
Y116669D01*
Y116832D01*
Y116996D01*
Y117159D01*
Y117322D01*
Y117485D01*
Y117649D01*
Y117812D01*
X351943D01*
Y117975D01*
Y118138D01*
Y118302D01*
Y118465D01*
X352106D01*
Y118628D01*
Y118791D01*
X352269D01*
Y118955D01*
Y119118D01*
X352432D01*
Y119281D01*
X352596D01*
Y119444D01*
X352759D01*
Y119607D01*
X352922D01*
Y119771D01*
X353249D01*
Y119934D01*
X353575D01*
Y120097D01*
X354065D01*
Y120260D01*
X357003D01*
Y120097D01*
D02*
G37*
G36*
X85133D02*
X85786D01*
Y119934D01*
X86112D01*
Y119771D01*
X86439D01*
Y119607D01*
X86602D01*
Y119444D01*
X86765D01*
Y119281D01*
X86928D01*
Y119118D01*
X87092D01*
Y118955D01*
Y118791D01*
X87255D01*
Y118628D01*
Y118465D01*
Y118302D01*
Y118138D01*
X87418D01*
Y117975D01*
Y117812D01*
Y117649D01*
Y117485D01*
Y117322D01*
Y117159D01*
Y116996D01*
Y116832D01*
Y116669D01*
Y116506D01*
Y116343D01*
Y116180D01*
Y116016D01*
Y115853D01*
X87255D01*
Y115690D01*
Y115527D01*
Y115364D01*
X87092D01*
Y115200D01*
Y115037D01*
X86928D01*
Y114874D01*
Y114710D01*
X86765D01*
Y114547D01*
X86602D01*
Y114384D01*
X86439D01*
Y114221D01*
X86276D01*
Y114058D01*
X86112D01*
Y113894D01*
X85786D01*
Y113731D01*
X85459D01*
Y113568D01*
X84970D01*
Y113405D01*
X82521D01*
Y113568D01*
X81868D01*
Y113731D01*
X81379D01*
Y113894D01*
X81215D01*
Y114058D01*
X80889D01*
Y114221D01*
X80726D01*
Y114384D01*
X80562D01*
Y114547D01*
X80399D01*
Y114710D01*
Y114874D01*
X80236D01*
Y115037D01*
Y115200D01*
X80073D01*
Y115364D01*
Y115527D01*
Y115690D01*
X79909D01*
Y115853D01*
Y116016D01*
Y116180D01*
Y116343D01*
Y116506D01*
Y116669D01*
Y116832D01*
Y116996D01*
Y117159D01*
Y117322D01*
Y117485D01*
Y117649D01*
Y117812D01*
X80073D01*
Y117975D01*
Y118138D01*
Y118302D01*
Y118465D01*
X80236D01*
Y118628D01*
Y118791D01*
X80399D01*
Y118955D01*
Y119118D01*
X80562D01*
Y119281D01*
X80726D01*
Y119444D01*
X80889D01*
Y119607D01*
X81052D01*
Y119771D01*
X81379D01*
Y119934D01*
X81705D01*
Y120097D01*
X82195D01*
Y120260D01*
X85133D01*
Y120097D01*
D02*
G37*
G36*
X339374D02*
X340190D01*
Y119934D01*
X340517D01*
Y119771D01*
X340843D01*
Y119607D01*
X341006D01*
Y119444D01*
X341170D01*
Y119281D01*
Y119118D01*
X341333D01*
Y118955D01*
Y118791D01*
Y118628D01*
Y118465D01*
X341496D01*
Y118302D01*
Y118138D01*
Y117975D01*
Y117812D01*
X341333D01*
Y117649D01*
Y117485D01*
Y117322D01*
X341170D01*
Y117159D01*
Y116996D01*
X341006D01*
Y116832D01*
X340843D01*
Y116669D01*
X340680D01*
Y116506D01*
X340353D01*
Y116343D01*
X340027D01*
Y116180D01*
X339374D01*
Y116016D01*
X337905D01*
Y115853D01*
Y115690D01*
Y115527D01*
X338068D01*
Y115364D01*
X338395D01*
Y115200D01*
X338558D01*
Y115364D01*
X339211D01*
Y115527D01*
X339537D01*
Y115690D01*
X339864D01*
Y115853D01*
X340680D01*
Y115690D01*
X340843D01*
Y115527D01*
Y115364D01*
X341006D01*
Y115200D01*
X341170D01*
Y115037D01*
Y114874D01*
X341333D01*
Y114710D01*
Y114547D01*
Y114384D01*
X341496D01*
Y114221D01*
X341333D01*
Y114058D01*
Y113894D01*
X341170D01*
Y113731D01*
X340680D01*
Y113568D01*
X340190D01*
Y113405D01*
X339537D01*
Y113242D01*
X336926D01*
Y113405D01*
X336273D01*
Y113568D01*
X335946D01*
Y113731D01*
X335783D01*
Y113894D01*
X335456D01*
Y114058D01*
X335293D01*
Y114221D01*
X335130D01*
Y114384D01*
Y114547D01*
X334967D01*
Y114710D01*
X334804D01*
Y114874D01*
Y115037D01*
X334640D01*
Y115200D01*
Y115364D01*
Y115527D01*
Y115690D01*
X334477D01*
Y115853D01*
Y116016D01*
Y116180D01*
Y116343D01*
Y116506D01*
Y116669D01*
Y116832D01*
Y116996D01*
Y117159D01*
Y117322D01*
Y117485D01*
Y117649D01*
X334640D01*
Y117812D01*
Y117975D01*
Y118138D01*
Y118302D01*
X334804D01*
Y118465D01*
Y118628D01*
X334967D01*
Y118791D01*
Y118955D01*
X335130D01*
Y119118D01*
X335293D01*
Y119281D01*
X335456D01*
Y119444D01*
X335783D01*
Y119607D01*
X335946D01*
Y119771D01*
X336273D01*
Y119934D01*
X336762D01*
Y120097D01*
X337905D01*
Y120260D01*
X339374D01*
Y120097D01*
D02*
G37*
G36*
X67504D02*
X68320D01*
Y119934D01*
X68647D01*
Y119771D01*
X68973D01*
Y119607D01*
X69136D01*
Y119444D01*
X69300D01*
Y119281D01*
Y119118D01*
X69463D01*
Y118955D01*
Y118791D01*
Y118628D01*
Y118465D01*
X69626D01*
Y118302D01*
Y118138D01*
Y117975D01*
Y117812D01*
X69463D01*
Y117649D01*
Y117485D01*
Y117322D01*
X69300D01*
Y117159D01*
Y116996D01*
X69136D01*
Y116832D01*
X68973D01*
Y116669D01*
X68810D01*
Y116506D01*
X68483D01*
Y116343D01*
X68157D01*
Y116180D01*
X67504D01*
Y116016D01*
X66035D01*
Y115853D01*
Y115690D01*
Y115527D01*
X66198D01*
Y115364D01*
X66525D01*
Y115200D01*
X66688D01*
Y115364D01*
X67341D01*
Y115527D01*
X67667D01*
Y115690D01*
X67994D01*
Y115853D01*
X68810D01*
Y115690D01*
X68973D01*
Y115527D01*
Y115364D01*
X69136D01*
Y115200D01*
X69300D01*
Y115037D01*
Y114874D01*
X69463D01*
Y114710D01*
Y114547D01*
Y114384D01*
X69626D01*
Y114221D01*
X69463D01*
Y114058D01*
Y113894D01*
X69300D01*
Y113731D01*
X68810D01*
Y113568D01*
X68320D01*
Y113405D01*
X67667D01*
Y113242D01*
X65056D01*
Y113405D01*
X64403D01*
Y113568D01*
X64076D01*
Y113731D01*
X63913D01*
Y113894D01*
X63586D01*
Y114058D01*
X63423D01*
Y114221D01*
X63260D01*
Y114384D01*
Y114547D01*
X63097D01*
Y114710D01*
X62933D01*
Y114874D01*
Y115037D01*
X62770D01*
Y115200D01*
Y115364D01*
Y115527D01*
Y115690D01*
X62607D01*
Y115853D01*
Y116016D01*
Y116180D01*
Y116343D01*
Y116506D01*
Y116669D01*
Y116832D01*
Y116996D01*
Y117159D01*
Y117322D01*
Y117485D01*
Y117649D01*
X62770D01*
Y117812D01*
Y117975D01*
Y118138D01*
Y118302D01*
X62933D01*
Y118465D01*
Y118628D01*
X63097D01*
Y118791D01*
Y118955D01*
X63260D01*
Y119118D01*
X63423D01*
Y119281D01*
X63586D01*
Y119444D01*
X63913D01*
Y119607D01*
X64076D01*
Y119771D01*
X64403D01*
Y119934D01*
X64892D01*
Y120097D01*
X66035D01*
Y120260D01*
X67504D01*
Y120097D01*
D02*
G37*
G36*
X329580Y121566D02*
X329743D01*
Y121403D01*
Y121240D01*
Y121077D01*
Y120913D01*
Y120750D01*
Y120587D01*
Y120424D01*
X329907D01*
Y120260D01*
Y120097D01*
Y119934D01*
Y119771D01*
Y119607D01*
Y119444D01*
Y119281D01*
X330233D01*
Y119444D01*
X330396D01*
Y119607D01*
X330886D01*
Y119771D01*
X331539D01*
Y119934D01*
X332355D01*
Y119771D01*
X332845D01*
Y119607D01*
X333171D01*
Y119444D01*
X333334D01*
Y119281D01*
Y119118D01*
X333498D01*
Y118955D01*
Y118791D01*
X333661D01*
Y118628D01*
Y118465D01*
Y118302D01*
X333824D01*
Y118138D01*
Y117975D01*
Y117812D01*
Y117649D01*
Y117485D01*
Y117322D01*
X333987D01*
Y117159D01*
Y116996D01*
Y116832D01*
Y116669D01*
Y116506D01*
Y116343D01*
Y116180D01*
Y116016D01*
Y115853D01*
Y115690D01*
X334151D01*
Y115527D01*
Y115364D01*
Y115200D01*
Y115037D01*
Y114874D01*
Y114710D01*
Y114547D01*
Y114384D01*
Y114221D01*
Y114058D01*
X334314D01*
Y113894D01*
Y113731D01*
Y113568D01*
Y113405D01*
X334151D01*
Y113242D01*
X333498D01*
Y113078D01*
X332518D01*
Y112915D01*
X331049D01*
Y113078D01*
Y113242D01*
X330886D01*
Y113405D01*
Y113568D01*
Y113731D01*
Y113894D01*
Y114058D01*
Y114221D01*
Y114384D01*
Y114547D01*
Y114710D01*
Y114874D01*
X330723D01*
Y115037D01*
Y115200D01*
Y115364D01*
Y115527D01*
Y115690D01*
Y115853D01*
Y116016D01*
Y116180D01*
Y116343D01*
Y116506D01*
X330560D01*
Y116669D01*
Y116832D01*
Y116996D01*
Y117159D01*
Y117322D01*
Y117485D01*
X330396D01*
Y117649D01*
Y117812D01*
X330070D01*
Y117649D01*
Y117485D01*
Y117322D01*
Y117159D01*
X330233D01*
Y116996D01*
Y116832D01*
Y116669D01*
Y116506D01*
Y116343D01*
Y116180D01*
Y116016D01*
Y115853D01*
Y115690D01*
Y115527D01*
X330396D01*
Y115364D01*
Y115200D01*
Y115037D01*
Y114874D01*
Y114710D01*
Y114547D01*
Y114384D01*
Y114221D01*
Y114058D01*
Y113894D01*
X330560D01*
Y113731D01*
Y113568D01*
Y113405D01*
Y113242D01*
Y113078D01*
Y112915D01*
X330070D01*
Y112752D01*
X329090D01*
Y112589D01*
X327295D01*
Y112752D01*
Y112915D01*
Y113078D01*
X327132D01*
Y113242D01*
Y113405D01*
Y113568D01*
Y113731D01*
Y113894D01*
Y114058D01*
Y114221D01*
Y114384D01*
Y114547D01*
Y114710D01*
X326969D01*
Y114874D01*
Y115037D01*
Y115200D01*
Y115364D01*
Y115527D01*
Y115690D01*
Y115853D01*
Y116016D01*
Y116180D01*
X326805D01*
Y116343D01*
Y116506D01*
Y116669D01*
Y116832D01*
Y116996D01*
Y117159D01*
Y117322D01*
Y117485D01*
Y117649D01*
Y117812D01*
X326642D01*
Y117975D01*
Y118138D01*
Y118302D01*
Y118465D01*
Y118628D01*
Y118791D01*
Y118955D01*
Y119118D01*
Y119281D01*
Y119444D01*
X326479D01*
Y119607D01*
Y119771D01*
Y119934D01*
Y120097D01*
Y120260D01*
Y120424D01*
Y120587D01*
Y120750D01*
Y120913D01*
Y121077D01*
X326642D01*
Y121240D01*
X326969D01*
Y121403D01*
X327295D01*
Y121566D01*
X327785D01*
Y121730D01*
X329580D01*
Y121566D01*
D02*
G37*
G36*
X57710D02*
X57873D01*
Y121403D01*
Y121240D01*
Y121077D01*
Y120913D01*
Y120750D01*
Y120587D01*
Y120424D01*
X58037D01*
Y120260D01*
Y120097D01*
Y119934D01*
Y119771D01*
Y119607D01*
Y119444D01*
Y119281D01*
X58363D01*
Y119444D01*
X58526D01*
Y119607D01*
X59016D01*
Y119771D01*
X59669D01*
Y119934D01*
X60485D01*
Y119771D01*
X60975D01*
Y119607D01*
X61301D01*
Y119444D01*
X61464D01*
Y119281D01*
Y119118D01*
X61628D01*
Y118955D01*
Y118791D01*
X61791D01*
Y118628D01*
Y118465D01*
Y118302D01*
X61954D01*
Y118138D01*
Y117975D01*
Y117812D01*
Y117649D01*
Y117485D01*
Y117322D01*
X62117D01*
Y117159D01*
Y116996D01*
Y116832D01*
Y116669D01*
Y116506D01*
Y116343D01*
Y116180D01*
Y116016D01*
Y115853D01*
Y115690D01*
X62281D01*
Y115527D01*
Y115364D01*
Y115200D01*
Y115037D01*
Y114874D01*
Y114710D01*
Y114547D01*
Y114384D01*
Y114221D01*
Y114058D01*
X62444D01*
Y113894D01*
Y113731D01*
Y113568D01*
Y113405D01*
X62281D01*
Y113242D01*
X61628D01*
Y113078D01*
X60648D01*
Y112915D01*
X59179D01*
Y113078D01*
Y113242D01*
X59016D01*
Y113405D01*
Y113568D01*
Y113731D01*
Y113894D01*
Y114058D01*
Y114221D01*
Y114384D01*
Y114547D01*
Y114710D01*
Y114874D01*
X58853D01*
Y115037D01*
Y115200D01*
Y115364D01*
Y115527D01*
Y115690D01*
Y115853D01*
Y116016D01*
Y116180D01*
Y116343D01*
Y116506D01*
X58689D01*
Y116669D01*
Y116832D01*
Y116996D01*
Y117159D01*
Y117322D01*
Y117485D01*
X58526D01*
Y117649D01*
Y117812D01*
X58200D01*
Y117649D01*
Y117485D01*
Y117322D01*
Y117159D01*
X58363D01*
Y116996D01*
Y116832D01*
Y116669D01*
Y116506D01*
Y116343D01*
Y116180D01*
Y116016D01*
Y115853D01*
Y115690D01*
Y115527D01*
X58526D01*
Y115364D01*
Y115200D01*
Y115037D01*
Y114874D01*
Y114710D01*
Y114547D01*
Y114384D01*
Y114221D01*
Y114058D01*
Y113894D01*
X58689D01*
Y113731D01*
Y113568D01*
Y113405D01*
Y113242D01*
Y113078D01*
Y112915D01*
X58200D01*
Y112752D01*
X57220D01*
Y112589D01*
X55425D01*
Y112752D01*
Y112915D01*
Y113078D01*
X55262D01*
Y113242D01*
Y113405D01*
Y113568D01*
Y113731D01*
Y113894D01*
Y114058D01*
Y114221D01*
Y114384D01*
Y114547D01*
Y114710D01*
X55098D01*
Y114874D01*
Y115037D01*
Y115200D01*
Y115364D01*
Y115527D01*
Y115690D01*
Y115853D01*
Y116016D01*
Y116180D01*
X54935D01*
Y116343D01*
Y116506D01*
Y116669D01*
Y116832D01*
Y116996D01*
Y117159D01*
Y117322D01*
Y117485D01*
Y117649D01*
Y117812D01*
X54772D01*
Y117975D01*
Y118138D01*
Y118302D01*
Y118465D01*
Y118628D01*
Y118791D01*
Y118955D01*
Y119118D01*
Y119281D01*
Y119444D01*
X54609D01*
Y119607D01*
Y119771D01*
Y119934D01*
Y120097D01*
Y120260D01*
Y120424D01*
Y120587D01*
Y120750D01*
Y120913D01*
Y121077D01*
X54772D01*
Y121240D01*
X55098D01*
Y121403D01*
X55425D01*
Y121566D01*
X55915D01*
Y121730D01*
X57710D01*
Y121566D01*
D02*
G37*
G36*
X362879Y119607D02*
X363206D01*
Y119444D01*
Y119281D01*
Y119118D01*
X363532D01*
Y119281D01*
X363859D01*
Y119444D01*
X364185D01*
Y119607D01*
X365981D01*
Y119444D01*
X366307D01*
Y119281D01*
X366634D01*
Y119118D01*
X366797D01*
Y118955D01*
Y118791D01*
X366960D01*
Y118628D01*
Y118465D01*
Y118302D01*
X367123D01*
Y118138D01*
Y117975D01*
Y117812D01*
Y117649D01*
Y117485D01*
Y117322D01*
Y117159D01*
Y116996D01*
Y116832D01*
Y116669D01*
Y116506D01*
Y116343D01*
Y116180D01*
Y116016D01*
X366960D01*
Y115853D01*
Y115690D01*
Y115527D01*
Y115364D01*
Y115200D01*
Y115037D01*
Y114874D01*
Y114710D01*
Y114547D01*
Y114384D01*
Y114221D01*
X366797D01*
Y114058D01*
Y113894D01*
Y113731D01*
Y113568D01*
Y113405D01*
Y113242D01*
Y113078D01*
Y112915D01*
X366470D01*
Y112752D01*
X364838D01*
Y112915D01*
X363695D01*
Y113078D01*
X363532D01*
Y113242D01*
Y113405D01*
Y113568D01*
Y113731D01*
Y113894D01*
Y114058D01*
Y114221D01*
Y114384D01*
Y114547D01*
Y114710D01*
Y114874D01*
Y115037D01*
X363695D01*
Y115200D01*
Y115364D01*
Y115527D01*
Y115690D01*
Y115853D01*
Y116016D01*
Y116180D01*
Y116343D01*
Y116506D01*
Y116669D01*
Y116832D01*
X363859D01*
Y116996D01*
Y117159D01*
Y117322D01*
Y117485D01*
Y117649D01*
Y117812D01*
X363695D01*
Y117975D01*
Y118138D01*
X363369D01*
Y117975D01*
Y117812D01*
Y117649D01*
Y117485D01*
Y117322D01*
Y117159D01*
X363206D01*
Y116996D01*
Y116832D01*
Y116669D01*
Y116506D01*
Y116343D01*
Y116180D01*
Y116016D01*
Y115853D01*
Y115690D01*
Y115527D01*
X363042D01*
Y115364D01*
Y115200D01*
Y115037D01*
Y114874D01*
Y114710D01*
Y114547D01*
Y114384D01*
Y114221D01*
Y114058D01*
Y113894D01*
Y113731D01*
X362879D01*
Y113568D01*
Y113405D01*
Y113242D01*
X362390D01*
Y113078D01*
X361410D01*
Y113242D01*
X359941D01*
Y113405D01*
X359615D01*
Y113568D01*
Y113731D01*
Y113894D01*
Y114058D01*
Y114221D01*
Y114384D01*
Y114547D01*
X359778D01*
Y114710D01*
Y114874D01*
Y115037D01*
Y115200D01*
Y115364D01*
Y115527D01*
Y115690D01*
Y115853D01*
Y116016D01*
Y116180D01*
X359941D01*
Y116343D01*
Y116506D01*
Y116669D01*
Y116832D01*
Y116996D01*
Y117159D01*
Y117322D01*
Y117485D01*
Y117649D01*
Y117812D01*
Y117975D01*
X360104D01*
Y118138D01*
Y118302D01*
Y118465D01*
Y118628D01*
Y118791D01*
Y118955D01*
Y119118D01*
Y119281D01*
Y119444D01*
X360431D01*
Y119607D01*
X360921D01*
Y119771D01*
X362879D01*
Y119607D01*
D02*
G37*
G36*
X91009D02*
X91336D01*
Y119444D01*
Y119281D01*
Y119118D01*
X91662D01*
Y119281D01*
X91988D01*
Y119444D01*
X92315D01*
Y119607D01*
X94111D01*
Y119444D01*
X94437D01*
Y119281D01*
X94763D01*
Y119118D01*
X94927D01*
Y118955D01*
Y118791D01*
X95090D01*
Y118628D01*
Y118465D01*
Y118302D01*
X95253D01*
Y118138D01*
Y117975D01*
Y117812D01*
Y117649D01*
Y117485D01*
Y117322D01*
Y117159D01*
Y116996D01*
Y116832D01*
Y116669D01*
Y116506D01*
Y116343D01*
Y116180D01*
Y116016D01*
X95090D01*
Y115853D01*
Y115690D01*
Y115527D01*
Y115364D01*
Y115200D01*
Y115037D01*
Y114874D01*
Y114710D01*
Y114547D01*
Y114384D01*
Y114221D01*
X94927D01*
Y114058D01*
Y113894D01*
Y113731D01*
Y113568D01*
Y113405D01*
Y113242D01*
Y113078D01*
Y112915D01*
X94600D01*
Y112752D01*
X92968D01*
Y112915D01*
X91825D01*
Y113078D01*
X91662D01*
Y113242D01*
Y113405D01*
Y113568D01*
Y113731D01*
Y113894D01*
Y114058D01*
Y114221D01*
Y114384D01*
Y114547D01*
Y114710D01*
Y114874D01*
Y115037D01*
X91825D01*
Y115200D01*
Y115364D01*
Y115527D01*
Y115690D01*
Y115853D01*
Y116016D01*
Y116180D01*
Y116343D01*
Y116506D01*
Y116669D01*
Y116832D01*
X91988D01*
Y116996D01*
Y117159D01*
Y117322D01*
Y117485D01*
Y117649D01*
Y117812D01*
X91825D01*
Y117975D01*
Y118138D01*
X91499D01*
Y117975D01*
Y117812D01*
Y117649D01*
Y117485D01*
Y117322D01*
Y117159D01*
X91336D01*
Y116996D01*
Y116832D01*
Y116669D01*
Y116506D01*
Y116343D01*
Y116180D01*
Y116016D01*
Y115853D01*
Y115690D01*
Y115527D01*
X91172D01*
Y115364D01*
Y115200D01*
Y115037D01*
Y114874D01*
Y114710D01*
Y114547D01*
Y114384D01*
Y114221D01*
Y114058D01*
Y113894D01*
Y113731D01*
X91009D01*
Y113568D01*
Y113405D01*
Y113242D01*
X90519D01*
Y113078D01*
X89540D01*
Y113242D01*
X88071D01*
Y113405D01*
X87745D01*
Y113568D01*
Y113731D01*
Y113894D01*
Y114058D01*
Y114221D01*
Y114384D01*
Y114547D01*
X87908D01*
Y114710D01*
Y114874D01*
Y115037D01*
Y115200D01*
Y115364D01*
Y115527D01*
Y115690D01*
Y115853D01*
Y116016D01*
Y116180D01*
X88071D01*
Y116343D01*
Y116506D01*
Y116669D01*
Y116832D01*
Y116996D01*
Y117159D01*
Y117322D01*
Y117485D01*
Y117649D01*
Y117812D01*
Y117975D01*
X88234D01*
Y118138D01*
Y118302D01*
Y118465D01*
Y118628D01*
Y118791D01*
Y118955D01*
Y119118D01*
Y119281D01*
Y119444D01*
X88561D01*
Y119607D01*
X89050D01*
Y119771D01*
X91009D01*
Y119607D01*
D02*
G37*
G36*
X325336Y120260D02*
X325499D01*
Y120097D01*
Y119934D01*
X325663D01*
Y119771D01*
Y119607D01*
Y119444D01*
Y119281D01*
Y119118D01*
Y118955D01*
X325826D01*
Y118791D01*
Y118628D01*
Y118465D01*
Y118302D01*
Y118138D01*
Y117975D01*
Y117812D01*
X325663D01*
Y117649D01*
Y117485D01*
X325173D01*
Y117322D01*
X324357D01*
Y117159D01*
X324194D01*
Y116996D01*
Y116832D01*
Y116669D01*
Y116506D01*
Y116343D01*
X324357D01*
Y116180D01*
Y116016D01*
Y115853D01*
Y115690D01*
Y115527D01*
Y115364D01*
X324520D01*
Y115200D01*
Y115037D01*
Y114874D01*
Y114710D01*
Y114547D01*
Y114384D01*
X324683D01*
Y114221D01*
Y114058D01*
Y113894D01*
Y113731D01*
Y113568D01*
Y113405D01*
X324847D01*
Y113242D01*
Y113078D01*
Y112915D01*
Y112752D01*
Y112589D01*
Y112425D01*
X325010D01*
Y112262D01*
X324847D01*
Y112099D01*
X324357D01*
Y111936D01*
X323704D01*
Y111772D01*
X322888D01*
Y111609D01*
X321582D01*
Y111772D01*
Y111936D01*
Y112099D01*
Y112262D01*
X321419D01*
Y112425D01*
Y112589D01*
Y112752D01*
Y112915D01*
Y113078D01*
Y113242D01*
X321255D01*
Y113405D01*
Y113568D01*
Y113731D01*
Y113894D01*
Y114058D01*
Y114221D01*
X321092D01*
Y114384D01*
Y114547D01*
Y114710D01*
Y114874D01*
Y115037D01*
Y115200D01*
X320929D01*
Y115364D01*
Y115527D01*
Y115690D01*
Y115853D01*
Y116016D01*
Y116180D01*
X320766D01*
Y116343D01*
Y116506D01*
Y116669D01*
X320439D01*
Y116506D01*
X319460D01*
Y116343D01*
X319133D01*
Y116506D01*
X318970D01*
Y116669D01*
X318807D01*
Y116832D01*
Y116996D01*
Y117159D01*
Y117322D01*
X318644D01*
Y117485D01*
Y117649D01*
Y117812D01*
Y117975D01*
Y118138D01*
Y118302D01*
Y118465D01*
Y118628D01*
Y118791D01*
Y118955D01*
Y119118D01*
Y119281D01*
X318807D01*
Y119444D01*
X319460D01*
Y119607D01*
X320439D01*
Y119771D01*
X321419D01*
Y119934D01*
X322398D01*
Y120097D01*
X323214D01*
Y120260D01*
X324194D01*
Y120424D01*
X325336D01*
Y120260D01*
D02*
G37*
G36*
X53466D02*
X53629D01*
Y120097D01*
Y119934D01*
X53793D01*
Y119771D01*
Y119607D01*
Y119444D01*
Y119281D01*
Y119118D01*
Y118955D01*
X53956D01*
Y118791D01*
Y118628D01*
Y118465D01*
Y118302D01*
Y118138D01*
Y117975D01*
Y117812D01*
X53793D01*
Y117649D01*
Y117485D01*
X53303D01*
Y117322D01*
X52487D01*
Y117159D01*
X52324D01*
Y116996D01*
Y116832D01*
Y116669D01*
Y116506D01*
Y116343D01*
X52487D01*
Y116180D01*
Y116016D01*
Y115853D01*
Y115690D01*
Y115527D01*
Y115364D01*
X52650D01*
Y115200D01*
Y115037D01*
Y114874D01*
Y114710D01*
Y114547D01*
Y114384D01*
X52813D01*
Y114221D01*
Y114058D01*
Y113894D01*
Y113731D01*
Y113568D01*
Y113405D01*
X52976D01*
Y113242D01*
Y113078D01*
Y112915D01*
Y112752D01*
Y112589D01*
Y112425D01*
X53140D01*
Y112262D01*
X52976D01*
Y112099D01*
X52487D01*
Y111936D01*
X51834D01*
Y111772D01*
X51018D01*
Y111609D01*
X49712D01*
Y111772D01*
Y111936D01*
Y112099D01*
Y112262D01*
X49549D01*
Y112425D01*
Y112589D01*
Y112752D01*
Y112915D01*
Y113078D01*
Y113242D01*
X49385D01*
Y113405D01*
Y113568D01*
Y113731D01*
Y113894D01*
Y114058D01*
Y114221D01*
X49222D01*
Y114384D01*
Y114547D01*
Y114710D01*
Y114874D01*
Y115037D01*
Y115200D01*
X49059D01*
Y115364D01*
Y115527D01*
Y115690D01*
Y115853D01*
Y116016D01*
Y116180D01*
X48896D01*
Y116343D01*
Y116506D01*
Y116669D01*
X48569D01*
Y116506D01*
X47590D01*
Y116343D01*
X47263D01*
Y116506D01*
X47100D01*
Y116669D01*
X46937D01*
Y116832D01*
Y116996D01*
Y117159D01*
Y117322D01*
X46774D01*
Y117485D01*
Y117649D01*
Y117812D01*
Y117975D01*
Y118138D01*
Y118302D01*
Y118465D01*
Y118628D01*
Y118791D01*
Y118955D01*
Y119118D01*
Y119281D01*
X46937D01*
Y119444D01*
X47590D01*
Y119607D01*
X48569D01*
Y119771D01*
X49549D01*
Y119934D01*
X50528D01*
Y120097D01*
X51344D01*
Y120260D01*
X52324D01*
Y120424D01*
X53466D01*
Y120260D01*
D02*
G37*
G36*
X324623Y107723D02*
X325185D01*
Y107611D01*
X325635D01*
Y107499D01*
X325860D01*
Y107386D01*
X325972D01*
Y107274D01*
Y107161D01*
X326084D01*
Y107049D01*
Y106937D01*
Y106824D01*
Y106712D01*
Y106599D01*
Y106487D01*
Y106375D01*
X325972D01*
Y106262D01*
Y106150D01*
X325860D01*
Y106037D01*
X324736D01*
Y106150D01*
X323949D01*
Y106037D01*
X323724D01*
Y105925D01*
X323499D01*
Y105813D01*
X323387D01*
Y105700D01*
Y105588D01*
X323275D01*
Y105475D01*
X323162D01*
Y105363D01*
Y105251D01*
Y105138D01*
X323050D01*
Y105026D01*
Y104913D01*
Y104801D01*
Y104689D01*
Y104576D01*
Y104464D01*
Y104351D01*
Y104239D01*
Y104127D01*
Y104014D01*
X323162D01*
Y103902D01*
Y103790D01*
Y103677D01*
X323275D01*
Y103565D01*
X323387D01*
Y103452D01*
Y103340D01*
X323499D01*
Y103228D01*
X323724D01*
Y103115D01*
X323949D01*
Y103003D01*
X325860D01*
Y102890D01*
X326084D01*
Y102778D01*
Y102666D01*
X326197D01*
Y102553D01*
Y102441D01*
Y102329D01*
Y102216D01*
Y102104D01*
Y101991D01*
Y101879D01*
Y101767D01*
Y101654D01*
X326084D01*
Y101542D01*
X325972D01*
Y101429D01*
X325747D01*
Y101317D01*
X325522D01*
Y101205D01*
X324960D01*
Y101092D01*
X324174D01*
Y100980D01*
X321589D01*
Y101092D01*
X321139D01*
Y101205D01*
X320802D01*
Y101317D01*
X320577D01*
Y101429D01*
X320352D01*
Y101542D01*
X320128D01*
Y101654D01*
X320015D01*
Y101767D01*
X319903D01*
Y101879D01*
X319790D01*
Y101991D01*
X319678D01*
Y102104D01*
X319566D01*
Y102216D01*
X319453D01*
Y102329D01*
Y102441D01*
X319341D01*
Y102553D01*
X319228D01*
Y102666D01*
Y102778D01*
X319116D01*
Y102890D01*
Y103003D01*
Y103115D01*
X319004D01*
Y103228D01*
Y103340D01*
Y103452D01*
Y103565D01*
Y103677D01*
Y103790D01*
X318891D01*
Y103902D01*
Y104014D01*
Y104127D01*
Y104239D01*
Y104351D01*
Y104464D01*
Y104576D01*
Y104689D01*
X319004D01*
Y104801D01*
Y104913D01*
Y105026D01*
Y105138D01*
Y105251D01*
Y105363D01*
X319116D01*
Y105475D01*
Y105588D01*
Y105700D01*
X319228D01*
Y105813D01*
Y105925D01*
Y106037D01*
X319341D01*
Y106150D01*
Y106262D01*
X319453D01*
Y106375D01*
X319566D01*
Y106487D01*
Y106599D01*
X319678D01*
Y106712D01*
X319790D01*
Y106824D01*
X319903D01*
Y106937D01*
X320015D01*
Y107049D01*
X320240D01*
Y107161D01*
X320352D01*
Y107274D01*
X320577D01*
Y107386D01*
X320802D01*
Y107499D01*
X321027D01*
Y107611D01*
X321364D01*
Y107723D01*
X321814D01*
Y107836D01*
X324623D01*
Y107723D01*
D02*
G37*
G36*
X52753D02*
X53315D01*
Y107611D01*
X53765D01*
Y107499D01*
X53989D01*
Y107386D01*
X54102D01*
Y107274D01*
Y107161D01*
X54214D01*
Y107049D01*
Y106937D01*
Y106824D01*
Y106712D01*
Y106599D01*
Y106487D01*
Y106375D01*
X54102D01*
Y106262D01*
Y106150D01*
X53989D01*
Y106037D01*
X52866D01*
Y106150D01*
X52079D01*
Y106037D01*
X51854D01*
Y105925D01*
X51629D01*
Y105813D01*
X51517D01*
Y105700D01*
Y105588D01*
X51405D01*
Y105475D01*
X51292D01*
Y105363D01*
Y105251D01*
Y105138D01*
X51180D01*
Y105026D01*
Y104913D01*
Y104801D01*
Y104689D01*
Y104576D01*
Y104464D01*
Y104351D01*
Y104239D01*
Y104127D01*
Y104014D01*
X51292D01*
Y103902D01*
Y103790D01*
Y103677D01*
X51405D01*
Y103565D01*
X51517D01*
Y103452D01*
Y103340D01*
X51629D01*
Y103228D01*
X51854D01*
Y103115D01*
X52079D01*
Y103003D01*
X53989D01*
Y102890D01*
X54214D01*
Y102778D01*
Y102666D01*
X54327D01*
Y102553D01*
Y102441D01*
Y102329D01*
Y102216D01*
Y102104D01*
Y101991D01*
Y101879D01*
Y101767D01*
Y101654D01*
X54214D01*
Y101542D01*
X54102D01*
Y101429D01*
X53877D01*
Y101317D01*
X53652D01*
Y101205D01*
X53090D01*
Y101092D01*
X52304D01*
Y100980D01*
X49719D01*
Y101092D01*
X49269D01*
Y101205D01*
X48932D01*
Y101317D01*
X48707D01*
Y101429D01*
X48482D01*
Y101542D01*
X48257D01*
Y101654D01*
X48145D01*
Y101767D01*
X48033D01*
Y101879D01*
X47920D01*
Y101991D01*
X47808D01*
Y102104D01*
X47695D01*
Y102216D01*
X47583D01*
Y102329D01*
Y102441D01*
X47471D01*
Y102553D01*
X47358D01*
Y102666D01*
Y102778D01*
X47246D01*
Y102890D01*
Y103003D01*
Y103115D01*
X47134D01*
Y103228D01*
Y103340D01*
Y103452D01*
Y103565D01*
Y103677D01*
Y103790D01*
X47021D01*
Y103902D01*
Y104014D01*
Y104127D01*
Y104239D01*
Y104351D01*
Y104464D01*
Y104576D01*
Y104689D01*
X47134D01*
Y104801D01*
Y104913D01*
Y105026D01*
Y105138D01*
Y105251D01*
Y105363D01*
X47246D01*
Y105475D01*
Y105588D01*
Y105700D01*
X47358D01*
Y105813D01*
Y105925D01*
Y106037D01*
X47471D01*
Y106150D01*
Y106262D01*
X47583D01*
Y106375D01*
X47695D01*
Y106487D01*
Y106599D01*
X47808D01*
Y106712D01*
X47920D01*
Y106824D01*
X48033D01*
Y106937D01*
X48145D01*
Y107049D01*
X48370D01*
Y107161D01*
X48482D01*
Y107274D01*
X48707D01*
Y107386D01*
X48932D01*
Y107499D01*
X49157D01*
Y107611D01*
X49494D01*
Y107723D01*
X49943D01*
Y107836D01*
X52753D01*
Y107723D01*
D02*
G37*
G36*
X339234D02*
X339796D01*
Y107611D01*
X340134D01*
Y107499D01*
X340358D01*
Y107386D01*
X340471D01*
Y107274D01*
X340583D01*
Y107161D01*
X340696D01*
Y107049D01*
X340808D01*
Y106937D01*
Y106824D01*
Y106712D01*
Y106599D01*
Y106487D01*
X340696D01*
Y106375D01*
Y106262D01*
Y106150D01*
X340583D01*
Y106037D01*
X340471D01*
Y105925D01*
X339796D01*
Y106037D01*
X339459D01*
Y106150D01*
X338785D01*
Y106037D01*
X338672D01*
Y105925D01*
X338560D01*
Y105813D01*
Y105700D01*
Y105588D01*
X338672D01*
Y105475D01*
X338785D01*
Y105363D01*
X338897D01*
Y105251D01*
X339122D01*
Y105138D01*
X339347D01*
Y105026D01*
X339572D01*
Y104913D01*
X339796D01*
Y104801D01*
X340021D01*
Y104689D01*
X340246D01*
Y104576D01*
X340471D01*
Y104464D01*
X340583D01*
Y104351D01*
X340696D01*
Y104239D01*
X340808D01*
Y104127D01*
X340920D01*
Y104014D01*
X341033D01*
Y103902D01*
X341145D01*
Y103790D01*
Y103677D01*
X341258D01*
Y103565D01*
Y103452D01*
Y103340D01*
Y103228D01*
Y103115D01*
Y103003D01*
Y102890D01*
Y102778D01*
Y102666D01*
Y102553D01*
X341145D01*
Y102441D01*
Y102329D01*
X341033D01*
Y102216D01*
Y102104D01*
X340920D01*
Y101991D01*
X340808D01*
Y101879D01*
X340696D01*
Y101767D01*
X340583D01*
Y101654D01*
X340358D01*
Y101542D01*
X340246D01*
Y101429D01*
X339909D01*
Y101317D01*
X339684D01*
Y101205D01*
X339234D01*
Y101092D01*
X338672D01*
Y100980D01*
X336200D01*
Y101092D01*
X335750D01*
Y101205D01*
X335413D01*
Y101317D01*
X335076D01*
Y101429D01*
X334851D01*
Y101542D01*
X334626D01*
Y101654D01*
X334514D01*
Y101767D01*
X334401D01*
Y101879D01*
X334289D01*
Y101991D01*
Y102104D01*
Y102216D01*
Y102329D01*
Y102441D01*
Y102553D01*
Y102666D01*
Y102778D01*
Y102890D01*
Y103003D01*
X334401D01*
Y103115D01*
X334514D01*
Y103228D01*
X335188D01*
Y103115D01*
X335525D01*
Y103003D01*
X335863D01*
Y102890D01*
X336649D01*
Y103003D01*
X336762D01*
Y103115D01*
Y103228D01*
Y103340D01*
X336649D01*
Y103452D01*
Y103565D01*
X336537D01*
Y103677D01*
X336312D01*
Y103790D01*
X336200D01*
Y103902D01*
X335975D01*
Y104014D01*
X335750D01*
Y104127D01*
X335525D01*
Y104239D01*
X335413D01*
Y104351D01*
X335188D01*
Y104464D01*
X335076D01*
Y104576D01*
X334963D01*
Y104689D01*
X334851D01*
Y104801D01*
Y104913D01*
X334739D01*
Y105026D01*
X334626D01*
Y105138D01*
Y105251D01*
Y105363D01*
X334514D01*
Y105475D01*
Y105588D01*
Y105700D01*
Y105813D01*
Y105925D01*
Y106037D01*
Y106150D01*
Y106262D01*
Y106375D01*
Y106487D01*
X334626D01*
Y106599D01*
Y106712D01*
X334739D01*
Y106824D01*
Y106937D01*
X334851D01*
Y107049D01*
X334963D01*
Y107161D01*
X335076D01*
Y107274D01*
X335301D01*
Y107386D01*
X335413D01*
Y107499D01*
X335750D01*
Y107611D01*
X335975D01*
Y107723D01*
X336425D01*
Y107836D01*
X339234D01*
Y107723D01*
D02*
G37*
G36*
X67364D02*
X67926D01*
Y107611D01*
X68263D01*
Y107499D01*
X68488D01*
Y107386D01*
X68601D01*
Y107274D01*
X68713D01*
Y107161D01*
X68825D01*
Y107049D01*
X68938D01*
Y106937D01*
Y106824D01*
Y106712D01*
Y106599D01*
Y106487D01*
X68825D01*
Y106375D01*
Y106262D01*
Y106150D01*
X68713D01*
Y106037D01*
X68601D01*
Y105925D01*
X67926D01*
Y106037D01*
X67589D01*
Y106150D01*
X66915D01*
Y106037D01*
X66802D01*
Y105925D01*
X66690D01*
Y105813D01*
Y105700D01*
Y105588D01*
X66802D01*
Y105475D01*
X66915D01*
Y105363D01*
X67027D01*
Y105251D01*
X67252D01*
Y105138D01*
X67477D01*
Y105026D01*
X67702D01*
Y104913D01*
X67926D01*
Y104801D01*
X68151D01*
Y104689D01*
X68376D01*
Y104576D01*
X68601D01*
Y104464D01*
X68713D01*
Y104351D01*
X68825D01*
Y104239D01*
X68938D01*
Y104127D01*
X69050D01*
Y104014D01*
X69163D01*
Y103902D01*
X69275D01*
Y103790D01*
Y103677D01*
X69387D01*
Y103565D01*
Y103452D01*
Y103340D01*
Y103228D01*
Y103115D01*
Y103003D01*
Y102890D01*
Y102778D01*
Y102666D01*
Y102553D01*
X69275D01*
Y102441D01*
Y102329D01*
X69163D01*
Y102216D01*
Y102104D01*
X69050D01*
Y101991D01*
X68938D01*
Y101879D01*
X68825D01*
Y101767D01*
X68713D01*
Y101654D01*
X68488D01*
Y101542D01*
X68376D01*
Y101429D01*
X68039D01*
Y101317D01*
X67814D01*
Y101205D01*
X67364D01*
Y101092D01*
X66802D01*
Y100980D01*
X64330D01*
Y101092D01*
X63880D01*
Y101205D01*
X63543D01*
Y101317D01*
X63206D01*
Y101429D01*
X62981D01*
Y101542D01*
X62756D01*
Y101654D01*
X62644D01*
Y101767D01*
X62531D01*
Y101879D01*
X62419D01*
Y101991D01*
Y102104D01*
Y102216D01*
Y102329D01*
Y102441D01*
Y102553D01*
Y102666D01*
Y102778D01*
Y102890D01*
Y103003D01*
X62531D01*
Y103115D01*
X62644D01*
Y103228D01*
X63318D01*
Y103115D01*
X63655D01*
Y103003D01*
X63993D01*
Y102890D01*
X64779D01*
Y103003D01*
X64892D01*
Y103115D01*
Y103228D01*
Y103340D01*
X64779D01*
Y103452D01*
Y103565D01*
X64667D01*
Y103677D01*
X64442D01*
Y103790D01*
X64330D01*
Y103902D01*
X64105D01*
Y104014D01*
X63880D01*
Y104127D01*
X63655D01*
Y104239D01*
X63543D01*
Y104351D01*
X63318D01*
Y104464D01*
X63206D01*
Y104576D01*
X63093D01*
Y104689D01*
X62981D01*
Y104801D01*
Y104913D01*
X62869D01*
Y105026D01*
X62756D01*
Y105138D01*
Y105251D01*
Y105363D01*
X62644D01*
Y105475D01*
Y105588D01*
Y105700D01*
Y105813D01*
Y105925D01*
Y106037D01*
Y106150D01*
Y106262D01*
Y106375D01*
Y106487D01*
X62756D01*
Y106599D01*
Y106712D01*
X62869D01*
Y106824D01*
Y106937D01*
X62981D01*
Y107049D01*
X63093D01*
Y107161D01*
X63206D01*
Y107274D01*
X63431D01*
Y107386D01*
X63543D01*
Y107499D01*
X63880D01*
Y107611D01*
X64105D01*
Y107723D01*
X64555D01*
Y107836D01*
X67364D01*
Y107723D01*
D02*
G37*
G36*
X373289Y107611D02*
X373627D01*
Y107499D01*
X373739D01*
Y107386D01*
Y107274D01*
Y107161D01*
Y107049D01*
Y106937D01*
Y106824D01*
Y106712D01*
Y106599D01*
Y106487D01*
Y106375D01*
Y106262D01*
Y106150D01*
Y106037D01*
Y105925D01*
Y105813D01*
Y105700D01*
Y105588D01*
Y105475D01*
Y105363D01*
Y105251D01*
Y105138D01*
Y105026D01*
Y104913D01*
Y104801D01*
Y104689D01*
Y104576D01*
Y104464D01*
Y104351D01*
Y104239D01*
Y104127D01*
Y104014D01*
Y103902D01*
Y103790D01*
Y103677D01*
Y103565D01*
Y103452D01*
Y103340D01*
Y103228D01*
Y103115D01*
Y103003D01*
Y102890D01*
Y102778D01*
Y102666D01*
Y102553D01*
Y102441D01*
Y102329D01*
Y102216D01*
Y102104D01*
Y101991D01*
Y101879D01*
Y101767D01*
Y101654D01*
Y101542D01*
X373627D01*
Y101429D01*
Y101317D01*
X373514D01*
Y101205D01*
X373289D01*
Y101092D01*
X371266D01*
Y101205D01*
X370929D01*
Y101317D01*
X370704D01*
Y101429D01*
X370592D01*
Y101542D01*
X370367D01*
Y101654D01*
X370142D01*
Y101767D01*
X369918D01*
Y101879D01*
X369805D01*
Y101991D01*
X369581D01*
Y102104D01*
X369356D01*
Y102216D01*
X369243D01*
Y102329D01*
X369019D01*
Y102441D01*
X368794D01*
Y102553D01*
X368569D01*
Y102666D01*
X368344D01*
Y102778D01*
X368232D01*
Y102890D01*
X368007D01*
Y102778D01*
Y102666D01*
X367895D01*
Y102553D01*
Y102441D01*
Y102329D01*
Y102216D01*
Y102104D01*
Y101991D01*
Y101879D01*
Y101767D01*
Y101654D01*
Y101542D01*
Y101429D01*
Y101317D01*
X367782D01*
Y101205D01*
X367333D01*
Y101092D01*
X366096D01*
Y101205D01*
X365872D01*
Y101317D01*
Y101429D01*
X365759D01*
Y101542D01*
Y101654D01*
Y101767D01*
Y101879D01*
Y101991D01*
Y102104D01*
Y102216D01*
X365647D01*
Y102329D01*
Y102441D01*
Y102553D01*
Y102666D01*
Y102778D01*
Y102890D01*
Y103003D01*
Y103115D01*
Y103228D01*
Y103340D01*
Y103452D01*
Y103565D01*
Y103677D01*
Y103790D01*
Y103902D01*
Y104014D01*
Y104127D01*
Y104239D01*
Y104351D01*
Y104464D01*
Y104576D01*
Y104689D01*
Y104801D01*
Y104913D01*
Y105026D01*
Y105138D01*
Y105251D01*
Y105363D01*
Y105475D01*
Y105588D01*
Y105700D01*
Y105813D01*
Y105925D01*
Y106037D01*
Y106150D01*
Y106262D01*
Y106375D01*
Y106487D01*
Y106599D01*
Y106712D01*
Y106824D01*
Y106937D01*
X365759D01*
Y107049D01*
Y107161D01*
Y107274D01*
Y107386D01*
Y107499D01*
X365872D01*
Y107611D01*
X366096D01*
Y107723D01*
X367557D01*
Y107611D01*
X368007D01*
Y107499D01*
X368232D01*
Y107386D01*
X368457D01*
Y107274D01*
X368569D01*
Y107161D01*
X368794D01*
Y107049D01*
X369019D01*
Y106937D01*
X369243D01*
Y106824D01*
X369468D01*
Y106712D01*
X369693D01*
Y106599D01*
X369918D01*
Y106487D01*
X370142D01*
Y106375D01*
X370367D01*
Y106262D01*
X370592D01*
Y106150D01*
X370817D01*
Y106037D01*
X371042D01*
Y105925D01*
X371266D01*
Y105813D01*
X371491D01*
Y105700D01*
X371603D01*
Y105813D01*
Y105925D01*
Y106037D01*
Y106150D01*
Y106262D01*
Y106375D01*
Y106487D01*
Y106599D01*
Y106712D01*
Y106824D01*
Y106937D01*
Y107049D01*
Y107161D01*
Y107274D01*
Y107386D01*
X371716D01*
Y107499D01*
Y107611D01*
X371941D01*
Y107723D01*
X373289D01*
Y107611D01*
D02*
G37*
G36*
X101419D02*
X101757D01*
Y107499D01*
X101869D01*
Y107386D01*
Y107274D01*
Y107161D01*
Y107049D01*
Y106937D01*
Y106824D01*
Y106712D01*
Y106599D01*
Y106487D01*
Y106375D01*
Y106262D01*
Y106150D01*
Y106037D01*
Y105925D01*
Y105813D01*
Y105700D01*
Y105588D01*
Y105475D01*
Y105363D01*
Y105251D01*
Y105138D01*
Y105026D01*
Y104913D01*
Y104801D01*
Y104689D01*
Y104576D01*
Y104464D01*
Y104351D01*
Y104239D01*
Y104127D01*
Y104014D01*
Y103902D01*
Y103790D01*
Y103677D01*
Y103565D01*
Y103452D01*
Y103340D01*
Y103228D01*
Y103115D01*
Y103003D01*
Y102890D01*
Y102778D01*
Y102666D01*
Y102553D01*
Y102441D01*
Y102329D01*
Y102216D01*
Y102104D01*
Y101991D01*
Y101879D01*
Y101767D01*
Y101654D01*
Y101542D01*
X101757D01*
Y101429D01*
Y101317D01*
X101644D01*
Y101205D01*
X101419D01*
Y101092D01*
X99396D01*
Y101205D01*
X99059D01*
Y101317D01*
X98834D01*
Y101429D01*
X98722D01*
Y101542D01*
X98497D01*
Y101654D01*
X98272D01*
Y101767D01*
X98048D01*
Y101879D01*
X97935D01*
Y101991D01*
X97710D01*
Y102104D01*
X97486D01*
Y102216D01*
X97373D01*
Y102329D01*
X97148D01*
Y102441D01*
X96924D01*
Y102553D01*
X96699D01*
Y102666D01*
X96474D01*
Y102778D01*
X96362D01*
Y102890D01*
X96137D01*
Y102778D01*
Y102666D01*
X96025D01*
Y102553D01*
Y102441D01*
Y102329D01*
Y102216D01*
Y102104D01*
Y101991D01*
Y101879D01*
Y101767D01*
Y101654D01*
Y101542D01*
Y101429D01*
Y101317D01*
X95912D01*
Y101205D01*
X95463D01*
Y101092D01*
X94226D01*
Y101205D01*
X94001D01*
Y101317D01*
Y101429D01*
X93889D01*
Y101542D01*
Y101654D01*
Y101767D01*
Y101879D01*
Y101991D01*
Y102104D01*
Y102216D01*
X93777D01*
Y102329D01*
Y102441D01*
Y102553D01*
Y102666D01*
Y102778D01*
Y102890D01*
Y103003D01*
Y103115D01*
Y103228D01*
Y103340D01*
Y103452D01*
Y103565D01*
Y103677D01*
Y103790D01*
Y103902D01*
Y104014D01*
Y104127D01*
Y104239D01*
Y104351D01*
Y104464D01*
Y104576D01*
Y104689D01*
Y104801D01*
Y104913D01*
Y105026D01*
Y105138D01*
Y105251D01*
Y105363D01*
Y105475D01*
Y105588D01*
Y105700D01*
Y105813D01*
Y105925D01*
Y106037D01*
Y106150D01*
Y106262D01*
Y106375D01*
Y106487D01*
Y106599D01*
Y106712D01*
Y106824D01*
Y106937D01*
X93889D01*
Y107049D01*
Y107161D01*
Y107274D01*
Y107386D01*
Y107499D01*
X94001D01*
Y107611D01*
X94226D01*
Y107723D01*
X95687D01*
Y107611D01*
X96137D01*
Y107499D01*
X96362D01*
Y107386D01*
X96586D01*
Y107274D01*
X96699D01*
Y107161D01*
X96924D01*
Y107049D01*
X97148D01*
Y106937D01*
X97373D01*
Y106824D01*
X97598D01*
Y106712D01*
X97823D01*
Y106599D01*
X98048D01*
Y106487D01*
X98272D01*
Y106375D01*
X98497D01*
Y106262D01*
X98722D01*
Y106150D01*
X98947D01*
Y106037D01*
X99172D01*
Y105925D01*
X99396D01*
Y105813D01*
X99621D01*
Y105700D01*
X99733D01*
Y105813D01*
Y105925D01*
Y106037D01*
Y106150D01*
Y106262D01*
Y106375D01*
Y106487D01*
Y106599D01*
Y106712D01*
Y106824D01*
Y106937D01*
Y107049D01*
Y107161D01*
Y107274D01*
Y107386D01*
X99846D01*
Y107499D01*
Y107611D01*
X100071D01*
Y107723D01*
X101419D01*
Y107611D01*
D02*
G37*
G36*
X350361D02*
X350586D01*
Y107499D01*
X350698D01*
Y107386D01*
Y107274D01*
Y107161D01*
X350811D01*
Y107049D01*
Y106937D01*
Y106824D01*
Y106712D01*
Y106599D01*
Y106487D01*
Y106375D01*
Y106262D01*
Y106150D01*
Y106037D01*
Y105925D01*
Y105813D01*
Y105700D01*
Y105588D01*
Y105475D01*
Y105363D01*
Y105251D01*
Y105138D01*
Y105026D01*
Y104913D01*
Y104801D01*
Y104689D01*
Y104576D01*
Y104464D01*
Y104351D01*
Y104239D01*
Y104127D01*
Y104014D01*
Y103902D01*
Y103790D01*
Y103677D01*
Y103565D01*
Y103452D01*
Y103340D01*
Y103228D01*
Y103115D01*
Y103003D01*
Y102890D01*
Y102778D01*
Y102666D01*
Y102553D01*
Y102441D01*
Y102329D01*
Y102216D01*
Y102104D01*
Y101991D01*
Y101879D01*
Y101767D01*
Y101654D01*
X350698D01*
Y101542D01*
Y101429D01*
X350586D01*
Y101317D01*
X350474D01*
Y101205D01*
X350024D01*
Y101092D01*
X347664D01*
Y101205D01*
X347214D01*
Y101317D01*
X347102D01*
Y101429D01*
X346989D01*
Y101542D01*
Y101654D01*
Y101767D01*
Y101879D01*
Y101991D01*
Y102104D01*
Y102216D01*
Y102329D01*
Y102441D01*
Y102553D01*
Y102666D01*
X346877D01*
Y102778D01*
X346765D01*
Y102890D01*
X345753D01*
Y102778D01*
X345641D01*
Y102666D01*
Y102553D01*
Y102441D01*
Y102329D01*
Y102216D01*
Y102104D01*
Y101991D01*
Y101879D01*
Y101767D01*
X345528D01*
Y101654D01*
Y101542D01*
Y101429D01*
Y101317D01*
X345416D01*
Y101205D01*
X344966D01*
Y101092D01*
X342381D01*
Y101205D01*
X341932D01*
Y101317D01*
X341819D01*
Y101429D01*
Y101542D01*
X341707D01*
Y101654D01*
Y101767D01*
Y101879D01*
Y101991D01*
Y102104D01*
Y102216D01*
Y102329D01*
Y102441D01*
Y102553D01*
Y102666D01*
Y102778D01*
X341595D01*
Y102890D01*
Y103003D01*
Y103115D01*
Y103228D01*
Y103340D01*
Y103452D01*
Y103565D01*
Y103677D01*
Y103790D01*
Y103902D01*
Y104014D01*
Y104127D01*
Y104239D01*
Y104351D01*
Y104464D01*
Y104576D01*
Y104689D01*
Y104801D01*
Y104913D01*
Y105026D01*
Y105138D01*
Y105251D01*
Y105363D01*
Y105475D01*
Y105588D01*
Y105700D01*
Y105813D01*
Y105925D01*
Y106037D01*
Y106150D01*
Y106262D01*
X341707D01*
Y106375D01*
Y106487D01*
Y106599D01*
Y106712D01*
Y106824D01*
Y106937D01*
Y107049D01*
Y107161D01*
Y107274D01*
X341819D01*
Y107386D01*
Y107499D01*
X341932D01*
Y107611D01*
X342157D01*
Y107723D01*
X344966D01*
Y107611D01*
X345191D01*
Y107499D01*
X345416D01*
Y107386D01*
Y107274D01*
X345528D01*
Y107161D01*
Y107049D01*
Y106937D01*
Y106824D01*
Y106712D01*
Y106599D01*
Y106487D01*
Y106375D01*
Y106262D01*
Y106150D01*
Y106037D01*
Y105925D01*
Y105813D01*
Y105700D01*
Y105588D01*
Y105475D01*
Y105363D01*
Y105251D01*
Y105138D01*
Y105026D01*
Y104913D01*
Y104801D01*
X345641D01*
Y104689D01*
X345753D01*
Y104576D01*
X346877D01*
Y104689D01*
X346989D01*
Y104801D01*
Y104913D01*
Y105026D01*
Y105138D01*
Y105251D01*
Y105363D01*
Y105475D01*
Y105588D01*
Y105700D01*
Y105813D01*
Y105925D01*
Y106037D01*
Y106150D01*
Y106262D01*
Y106375D01*
Y106487D01*
Y106599D01*
Y106712D01*
Y106824D01*
Y106937D01*
Y107049D01*
Y107161D01*
X347102D01*
Y107274D01*
Y107386D01*
X347214D01*
Y107499D01*
X347327D01*
Y107611D01*
X347664D01*
Y107723D01*
X350361D01*
Y107611D01*
D02*
G37*
G36*
X78491D02*
X78716D01*
Y107499D01*
X78828D01*
Y107386D01*
Y107274D01*
Y107161D01*
X78941D01*
Y107049D01*
Y106937D01*
Y106824D01*
Y106712D01*
Y106599D01*
Y106487D01*
Y106375D01*
Y106262D01*
Y106150D01*
Y106037D01*
Y105925D01*
Y105813D01*
Y105700D01*
Y105588D01*
Y105475D01*
Y105363D01*
Y105251D01*
Y105138D01*
Y105026D01*
Y104913D01*
Y104801D01*
Y104689D01*
Y104576D01*
Y104464D01*
Y104351D01*
Y104239D01*
Y104127D01*
Y104014D01*
Y103902D01*
Y103790D01*
Y103677D01*
Y103565D01*
Y103452D01*
Y103340D01*
Y103228D01*
Y103115D01*
Y103003D01*
Y102890D01*
Y102778D01*
Y102666D01*
Y102553D01*
Y102441D01*
Y102329D01*
Y102216D01*
Y102104D01*
Y101991D01*
Y101879D01*
Y101767D01*
Y101654D01*
X78828D01*
Y101542D01*
Y101429D01*
X78716D01*
Y101317D01*
X78604D01*
Y101205D01*
X78154D01*
Y101092D01*
X75794D01*
Y101205D01*
X75344D01*
Y101317D01*
X75232D01*
Y101429D01*
X75119D01*
Y101542D01*
Y101654D01*
Y101767D01*
Y101879D01*
Y101991D01*
Y102104D01*
Y102216D01*
Y102329D01*
Y102441D01*
Y102553D01*
Y102666D01*
X75007D01*
Y102778D01*
X74895D01*
Y102890D01*
X73883D01*
Y102778D01*
X73771D01*
Y102666D01*
Y102553D01*
Y102441D01*
Y102329D01*
Y102216D01*
Y102104D01*
Y101991D01*
Y101879D01*
Y101767D01*
X73658D01*
Y101654D01*
Y101542D01*
Y101429D01*
Y101317D01*
X73546D01*
Y101205D01*
X73096D01*
Y101092D01*
X70511D01*
Y101205D01*
X70062D01*
Y101317D01*
X69949D01*
Y101429D01*
Y101542D01*
X69837D01*
Y101654D01*
Y101767D01*
Y101879D01*
Y101991D01*
Y102104D01*
Y102216D01*
Y102329D01*
Y102441D01*
Y102553D01*
Y102666D01*
Y102778D01*
X69725D01*
Y102890D01*
Y103003D01*
Y103115D01*
Y103228D01*
Y103340D01*
Y103452D01*
Y103565D01*
Y103677D01*
Y103790D01*
Y103902D01*
Y104014D01*
Y104127D01*
Y104239D01*
Y104351D01*
Y104464D01*
Y104576D01*
Y104689D01*
Y104801D01*
Y104913D01*
Y105026D01*
Y105138D01*
Y105251D01*
Y105363D01*
Y105475D01*
Y105588D01*
Y105700D01*
Y105813D01*
Y105925D01*
Y106037D01*
Y106150D01*
Y106262D01*
X69837D01*
Y106375D01*
Y106487D01*
Y106599D01*
Y106712D01*
Y106824D01*
Y106937D01*
Y107049D01*
Y107161D01*
Y107274D01*
X69949D01*
Y107386D01*
Y107499D01*
X70062D01*
Y107611D01*
X70287D01*
Y107723D01*
X73096D01*
Y107611D01*
X73321D01*
Y107499D01*
X73546D01*
Y107386D01*
Y107274D01*
X73658D01*
Y107161D01*
Y107049D01*
Y106937D01*
Y106824D01*
Y106712D01*
Y106599D01*
Y106487D01*
Y106375D01*
Y106262D01*
Y106150D01*
Y106037D01*
Y105925D01*
Y105813D01*
Y105700D01*
Y105588D01*
Y105475D01*
Y105363D01*
Y105251D01*
Y105138D01*
Y105026D01*
Y104913D01*
Y104801D01*
X73771D01*
Y104689D01*
X73883D01*
Y104576D01*
X75007D01*
Y104689D01*
X75119D01*
Y104801D01*
Y104913D01*
Y105026D01*
Y105138D01*
Y105251D01*
Y105363D01*
Y105475D01*
Y105588D01*
Y105700D01*
Y105813D01*
Y105925D01*
Y106037D01*
Y106150D01*
Y106262D01*
Y106375D01*
Y106487D01*
Y106599D01*
Y106712D01*
Y106824D01*
Y106937D01*
Y107049D01*
Y107161D01*
X75232D01*
Y107274D01*
Y107386D01*
X75344D01*
Y107499D01*
X75457D01*
Y107611D01*
X75794D01*
Y107723D01*
X78491D01*
Y107611D01*
D02*
G37*
G36*
X333502D02*
X333727D01*
Y107499D01*
X333840D01*
Y107386D01*
Y107274D01*
X333952D01*
Y107161D01*
Y107049D01*
Y106937D01*
Y106824D01*
Y106712D01*
Y106599D01*
Y106487D01*
X334064D01*
Y106375D01*
Y106262D01*
Y106150D01*
Y106037D01*
Y105925D01*
Y105813D01*
Y105700D01*
Y105588D01*
Y105475D01*
Y105363D01*
Y105251D01*
Y105138D01*
Y105026D01*
Y104913D01*
Y104801D01*
Y104689D01*
Y104576D01*
Y104464D01*
Y104351D01*
Y104239D01*
Y104127D01*
Y104014D01*
Y103902D01*
Y103790D01*
Y103677D01*
X333952D01*
Y103565D01*
Y103452D01*
Y103340D01*
Y103228D01*
Y103115D01*
X333840D01*
Y103003D01*
Y102890D01*
Y102778D01*
X333727D01*
Y102666D01*
Y102553D01*
X333615D01*
Y102441D01*
X333502D01*
Y102329D01*
Y102216D01*
X333390D01*
Y102104D01*
X333278D01*
Y101991D01*
X333165D01*
Y101879D01*
X333053D01*
Y101767D01*
X332940D01*
Y101654D01*
X332716D01*
Y101542D01*
X332603D01*
Y101429D01*
X332378D01*
Y101317D01*
X332154D01*
Y101205D01*
X331816D01*
Y101092D01*
X331367D01*
Y100980D01*
X329344D01*
Y101092D01*
X328782D01*
Y101205D01*
X328445D01*
Y101317D01*
X328220D01*
Y101429D01*
X327995D01*
Y101542D01*
X327770D01*
Y101654D01*
X327658D01*
Y101767D01*
X327433D01*
Y101879D01*
X327321D01*
Y101991D01*
X327208D01*
Y102104D01*
X327096D01*
Y102216D01*
X326984D01*
Y102329D01*
Y102441D01*
X326871D01*
Y102553D01*
X326759D01*
Y102666D01*
Y102778D01*
X326646D01*
Y102890D01*
Y103003D01*
Y103115D01*
X326534D01*
Y103228D01*
Y103340D01*
Y103452D01*
X326422D01*
Y103565D01*
Y103677D01*
Y103790D01*
Y103902D01*
Y104014D01*
Y104127D01*
Y104239D01*
Y104351D01*
Y104464D01*
Y104576D01*
Y104689D01*
Y104801D01*
Y104913D01*
Y105026D01*
Y105138D01*
Y105251D01*
Y105363D01*
Y105475D01*
Y105588D01*
Y105700D01*
Y105813D01*
Y105925D01*
Y106037D01*
Y106150D01*
Y106262D01*
Y106375D01*
Y106487D01*
Y106599D01*
Y106712D01*
Y106824D01*
Y106937D01*
Y107049D01*
Y107161D01*
Y107274D01*
Y107386D01*
X326534D01*
Y107499D01*
X326646D01*
Y107611D01*
X326871D01*
Y107723D01*
X329793D01*
Y107611D01*
X330131D01*
Y107499D01*
X330243D01*
Y107386D01*
Y107274D01*
Y107161D01*
X330355D01*
Y107049D01*
Y106937D01*
Y106824D01*
Y106712D01*
Y106599D01*
Y106487D01*
Y106375D01*
Y106262D01*
Y106150D01*
Y106037D01*
Y105925D01*
Y105813D01*
Y105700D01*
Y105588D01*
Y105475D01*
Y105363D01*
Y105251D01*
Y105138D01*
Y105026D01*
Y104913D01*
Y104801D01*
Y104689D01*
Y104576D01*
Y104464D01*
Y104351D01*
Y104239D01*
Y104127D01*
Y104014D01*
Y103902D01*
Y103790D01*
Y103677D01*
X330468D01*
Y103565D01*
Y103452D01*
X330693D01*
Y103340D01*
X330805D01*
Y103228D01*
X331255D01*
Y103340D01*
X331479D01*
Y103452D01*
X331592D01*
Y103565D01*
X331704D01*
Y103677D01*
Y103790D01*
Y103902D01*
X331816D01*
Y104014D01*
Y104127D01*
Y104239D01*
Y104351D01*
Y104464D01*
Y104576D01*
Y104689D01*
Y104801D01*
Y104913D01*
Y105026D01*
Y105138D01*
Y105251D01*
Y105363D01*
Y105475D01*
Y105588D01*
Y105700D01*
Y105813D01*
Y105925D01*
Y106037D01*
Y106150D01*
Y106262D01*
Y106375D01*
Y106487D01*
Y106599D01*
Y106712D01*
Y106824D01*
Y106937D01*
Y107049D01*
Y107161D01*
Y107274D01*
Y107386D01*
X331929D01*
Y107499D01*
Y107611D01*
X332266D01*
Y107723D01*
X333502D01*
Y107611D01*
D02*
G37*
G36*
X61632D02*
X61857D01*
Y107499D01*
X61969D01*
Y107386D01*
Y107274D01*
X62082D01*
Y107161D01*
Y107049D01*
Y106937D01*
Y106824D01*
Y106712D01*
Y106599D01*
Y106487D01*
X62194D01*
Y106375D01*
Y106262D01*
Y106150D01*
Y106037D01*
Y105925D01*
Y105813D01*
Y105700D01*
Y105588D01*
Y105475D01*
Y105363D01*
Y105251D01*
Y105138D01*
Y105026D01*
Y104913D01*
Y104801D01*
Y104689D01*
Y104576D01*
Y104464D01*
Y104351D01*
Y104239D01*
Y104127D01*
Y104014D01*
Y103902D01*
Y103790D01*
Y103677D01*
X62082D01*
Y103565D01*
Y103452D01*
Y103340D01*
Y103228D01*
Y103115D01*
X61969D01*
Y103003D01*
Y102890D01*
Y102778D01*
X61857D01*
Y102666D01*
Y102553D01*
X61745D01*
Y102441D01*
X61632D01*
Y102329D01*
Y102216D01*
X61520D01*
Y102104D01*
X61408D01*
Y101991D01*
X61295D01*
Y101879D01*
X61183D01*
Y101767D01*
X61070D01*
Y101654D01*
X60846D01*
Y101542D01*
X60733D01*
Y101429D01*
X60508D01*
Y101317D01*
X60283D01*
Y101205D01*
X59946D01*
Y101092D01*
X59497D01*
Y100980D01*
X57474D01*
Y101092D01*
X56912D01*
Y101205D01*
X56575D01*
Y101317D01*
X56350D01*
Y101429D01*
X56125D01*
Y101542D01*
X55900D01*
Y101654D01*
X55788D01*
Y101767D01*
X55563D01*
Y101879D01*
X55451D01*
Y101991D01*
X55338D01*
Y102104D01*
X55226D01*
Y102216D01*
X55114D01*
Y102329D01*
Y102441D01*
X55001D01*
Y102553D01*
X54889D01*
Y102666D01*
Y102778D01*
X54776D01*
Y102890D01*
Y103003D01*
Y103115D01*
X54664D01*
Y103228D01*
Y103340D01*
Y103452D01*
X54552D01*
Y103565D01*
Y103677D01*
Y103790D01*
Y103902D01*
Y104014D01*
Y104127D01*
Y104239D01*
Y104351D01*
Y104464D01*
Y104576D01*
Y104689D01*
Y104801D01*
Y104913D01*
Y105026D01*
Y105138D01*
Y105251D01*
Y105363D01*
Y105475D01*
Y105588D01*
Y105700D01*
Y105813D01*
Y105925D01*
Y106037D01*
Y106150D01*
Y106262D01*
Y106375D01*
Y106487D01*
Y106599D01*
Y106712D01*
Y106824D01*
Y106937D01*
Y107049D01*
Y107161D01*
Y107274D01*
Y107386D01*
X54664D01*
Y107499D01*
X54776D01*
Y107611D01*
X55001D01*
Y107723D01*
X57923D01*
Y107611D01*
X58261D01*
Y107499D01*
X58373D01*
Y107386D01*
Y107274D01*
Y107161D01*
X58485D01*
Y107049D01*
Y106937D01*
Y106824D01*
Y106712D01*
Y106599D01*
Y106487D01*
Y106375D01*
Y106262D01*
Y106150D01*
Y106037D01*
Y105925D01*
Y105813D01*
Y105700D01*
Y105588D01*
Y105475D01*
Y105363D01*
Y105251D01*
Y105138D01*
Y105026D01*
Y104913D01*
Y104801D01*
Y104689D01*
Y104576D01*
Y104464D01*
Y104351D01*
Y104239D01*
Y104127D01*
Y104014D01*
Y103902D01*
Y103790D01*
Y103677D01*
X58598D01*
Y103565D01*
Y103452D01*
X58822D01*
Y103340D01*
X58935D01*
Y103228D01*
X59384D01*
Y103340D01*
X59609D01*
Y103452D01*
X59722D01*
Y103565D01*
X59834D01*
Y103677D01*
Y103790D01*
Y103902D01*
X59946D01*
Y104014D01*
Y104127D01*
Y104239D01*
Y104351D01*
Y104464D01*
Y104576D01*
Y104689D01*
Y104801D01*
Y104913D01*
Y105026D01*
Y105138D01*
Y105251D01*
Y105363D01*
Y105475D01*
Y105588D01*
Y105700D01*
Y105813D01*
Y105925D01*
Y106037D01*
Y106150D01*
Y106262D01*
Y106375D01*
Y106487D01*
Y106599D01*
Y106712D01*
Y106824D01*
Y106937D01*
Y107049D01*
Y107161D01*
Y107274D01*
Y107386D01*
X60059D01*
Y107499D01*
Y107611D01*
X60396D01*
Y107723D01*
X61632D01*
Y107611D01*
D02*
G37*
G36*
X355082D02*
X355307D01*
Y107499D01*
X355419D01*
Y107386D01*
X355531D01*
Y107274D01*
Y107161D01*
Y107049D01*
Y106937D01*
Y106824D01*
Y106712D01*
X355644D01*
Y106599D01*
Y106487D01*
Y106375D01*
Y106262D01*
Y106150D01*
Y106037D01*
Y105925D01*
Y105813D01*
Y105700D01*
Y105588D01*
Y105475D01*
Y105363D01*
Y105251D01*
Y105138D01*
Y105026D01*
Y104913D01*
Y104801D01*
Y104689D01*
Y104576D01*
Y104464D01*
Y104351D01*
Y104239D01*
Y104127D01*
Y104014D01*
Y103902D01*
Y103790D01*
Y103677D01*
Y103565D01*
Y103452D01*
Y103340D01*
Y103228D01*
Y103115D01*
Y103003D01*
Y102890D01*
Y102778D01*
Y102666D01*
Y102553D01*
Y102441D01*
Y102329D01*
Y102216D01*
Y102104D01*
X355531D01*
Y101991D01*
Y101879D01*
Y101767D01*
Y101654D01*
Y101542D01*
Y101429D01*
X355419D01*
Y101317D01*
X355307D01*
Y101205D01*
X354969D01*
Y101092D01*
X352160D01*
Y101205D01*
X351822D01*
Y101317D01*
X351710D01*
Y101429D01*
Y101542D01*
X351598D01*
Y101654D01*
Y101767D01*
Y101879D01*
Y101991D01*
Y102104D01*
Y102216D01*
Y102329D01*
Y102441D01*
Y102553D01*
Y102666D01*
Y102778D01*
X351485D01*
Y102890D01*
Y103003D01*
Y103115D01*
Y103228D01*
Y103340D01*
Y103452D01*
Y103565D01*
Y103677D01*
Y103790D01*
Y103902D01*
Y104014D01*
Y104127D01*
Y104239D01*
Y104351D01*
Y104464D01*
Y104576D01*
Y104689D01*
Y104801D01*
Y104913D01*
Y105026D01*
Y105138D01*
Y105251D01*
Y105363D01*
Y105475D01*
Y105588D01*
Y105700D01*
Y105813D01*
Y105925D01*
Y106037D01*
Y106150D01*
X351598D01*
Y106262D01*
Y106375D01*
Y106487D01*
Y106599D01*
Y106712D01*
Y106824D01*
Y106937D01*
Y107049D01*
Y107161D01*
Y107274D01*
X351710D01*
Y107386D01*
Y107499D01*
X351822D01*
Y107611D01*
X352160D01*
Y107723D01*
X355082D01*
Y107611D01*
D02*
G37*
G36*
X83212D02*
X83437D01*
Y107499D01*
X83549D01*
Y107386D01*
X83661D01*
Y107274D01*
Y107161D01*
Y107049D01*
Y106937D01*
Y106824D01*
Y106712D01*
X83774D01*
Y106599D01*
Y106487D01*
Y106375D01*
Y106262D01*
Y106150D01*
Y106037D01*
Y105925D01*
Y105813D01*
Y105700D01*
Y105588D01*
Y105475D01*
Y105363D01*
Y105251D01*
Y105138D01*
Y105026D01*
Y104913D01*
Y104801D01*
Y104689D01*
Y104576D01*
Y104464D01*
Y104351D01*
Y104239D01*
Y104127D01*
Y104014D01*
Y103902D01*
Y103790D01*
Y103677D01*
Y103565D01*
Y103452D01*
Y103340D01*
Y103228D01*
Y103115D01*
Y103003D01*
Y102890D01*
Y102778D01*
Y102666D01*
Y102553D01*
Y102441D01*
Y102329D01*
Y102216D01*
Y102104D01*
X83661D01*
Y101991D01*
Y101879D01*
Y101767D01*
Y101654D01*
Y101542D01*
Y101429D01*
X83549D01*
Y101317D01*
X83437D01*
Y101205D01*
X83099D01*
Y101092D01*
X80290D01*
Y101205D01*
X79952D01*
Y101317D01*
X79840D01*
Y101429D01*
Y101542D01*
X79728D01*
Y101654D01*
Y101767D01*
Y101879D01*
Y101991D01*
Y102104D01*
Y102216D01*
Y102329D01*
Y102441D01*
Y102553D01*
Y102666D01*
Y102778D01*
X79615D01*
Y102890D01*
Y103003D01*
Y103115D01*
Y103228D01*
Y103340D01*
Y103452D01*
Y103565D01*
Y103677D01*
Y103790D01*
Y103902D01*
Y104014D01*
Y104127D01*
Y104239D01*
Y104351D01*
Y104464D01*
Y104576D01*
Y104689D01*
Y104801D01*
Y104913D01*
Y105026D01*
Y105138D01*
Y105251D01*
Y105363D01*
Y105475D01*
Y105588D01*
Y105700D01*
Y105813D01*
Y105925D01*
Y106037D01*
Y106150D01*
X79728D01*
Y106262D01*
Y106375D01*
Y106487D01*
Y106599D01*
Y106712D01*
Y106824D01*
Y106937D01*
Y107049D01*
Y107161D01*
Y107274D01*
X79840D01*
Y107386D01*
Y107499D01*
X79952D01*
Y107611D01*
X80290D01*
Y107723D01*
X83212D01*
Y107611D01*
D02*
G37*
G36*
X362162Y107723D02*
X362612D01*
Y107611D01*
X362949D01*
Y107499D01*
X363286D01*
Y107386D01*
X363511D01*
Y107274D01*
X363736D01*
Y107161D01*
X363848D01*
Y107049D01*
X363961D01*
Y106937D01*
X364186D01*
Y106824D01*
X364298D01*
Y106712D01*
X364410D01*
Y106599D01*
X364523D01*
Y106487D01*
Y106375D01*
X364635D01*
Y106262D01*
X364748D01*
Y106150D01*
Y106037D01*
X364860D01*
Y105925D01*
Y105813D01*
X364972D01*
Y105700D01*
Y105588D01*
X365085D01*
Y105475D01*
Y105363D01*
Y105251D01*
Y105138D01*
X365197D01*
Y105026D01*
Y104913D01*
Y104801D01*
Y104689D01*
Y104576D01*
Y104464D01*
Y104351D01*
Y104239D01*
Y104127D01*
X365085D01*
Y104014D01*
Y103902D01*
Y103790D01*
Y103677D01*
X364972D01*
Y103565D01*
Y103452D01*
Y103340D01*
X364860D01*
Y103228D01*
Y103115D01*
X364748D01*
Y103003D01*
Y102890D01*
X364635D01*
Y102778D01*
X364523D01*
Y102666D01*
Y102553D01*
X364410D01*
Y102441D01*
X364298D01*
Y102329D01*
X364186D01*
Y102216D01*
X364073D01*
Y102104D01*
X363961D01*
Y101991D01*
X363848D01*
Y101879D01*
X363736D01*
Y101767D01*
X363511D01*
Y101654D01*
X363286D01*
Y101542D01*
X363174D01*
Y101429D01*
X362837D01*
Y101317D01*
X362612D01*
Y101205D01*
X362275D01*
Y101092D01*
X361713D01*
Y100980D01*
X359577D01*
Y101092D01*
X359015D01*
Y101205D01*
X358678D01*
Y101317D01*
X358341D01*
Y101429D01*
X358116D01*
Y101542D01*
X357892D01*
Y101654D01*
X357667D01*
Y101767D01*
X357442D01*
Y101879D01*
X357330D01*
Y101991D01*
X357217D01*
Y102104D01*
X357105D01*
Y102216D01*
X356993D01*
Y102329D01*
X356880D01*
Y102441D01*
X356768D01*
Y102553D01*
X356655D01*
Y102666D01*
X356543D01*
Y102778D01*
Y102890D01*
X356431D01*
Y103003D01*
Y103115D01*
X356318D01*
Y103228D01*
Y103340D01*
X356206D01*
Y103452D01*
Y103565D01*
Y103677D01*
X356093D01*
Y103790D01*
Y103902D01*
Y104014D01*
Y104127D01*
Y104239D01*
Y104351D01*
Y104464D01*
Y104576D01*
Y104689D01*
Y104801D01*
Y104913D01*
Y105026D01*
Y105138D01*
X356206D01*
Y105251D01*
Y105363D01*
Y105475D01*
X356318D01*
Y105588D01*
Y105700D01*
X356431D01*
Y105813D01*
Y105925D01*
X356543D01*
Y106037D01*
Y106150D01*
X356655D01*
Y106262D01*
X356768D01*
Y106375D01*
X356880D01*
Y106487D01*
X356993D01*
Y106599D01*
X357105D01*
Y106712D01*
X357217D01*
Y106824D01*
X357330D01*
Y106937D01*
X357442D01*
Y107049D01*
X357667D01*
Y107161D01*
X357779D01*
Y107274D01*
X358004D01*
Y107386D01*
X358341D01*
Y107499D01*
X358566D01*
Y107611D01*
X359015D01*
Y107723D01*
X359465D01*
Y107836D01*
X362162D01*
Y107723D01*
D02*
G37*
G36*
X90292D02*
X90742D01*
Y107611D01*
X91079D01*
Y107499D01*
X91416D01*
Y107386D01*
X91641D01*
Y107274D01*
X91866D01*
Y107161D01*
X91978D01*
Y107049D01*
X92091D01*
Y106937D01*
X92316D01*
Y106824D01*
X92428D01*
Y106712D01*
X92540D01*
Y106599D01*
X92653D01*
Y106487D01*
Y106375D01*
X92765D01*
Y106262D01*
X92878D01*
Y106150D01*
Y106037D01*
X92990D01*
Y105925D01*
Y105813D01*
X93102D01*
Y105700D01*
Y105588D01*
X93215D01*
Y105475D01*
Y105363D01*
Y105251D01*
Y105138D01*
X93327D01*
Y105026D01*
Y104913D01*
Y104801D01*
Y104689D01*
Y104576D01*
Y104464D01*
Y104351D01*
Y104239D01*
Y104127D01*
X93215D01*
Y104014D01*
Y103902D01*
Y103790D01*
Y103677D01*
X93102D01*
Y103565D01*
Y103452D01*
Y103340D01*
X92990D01*
Y103228D01*
Y103115D01*
X92878D01*
Y103003D01*
Y102890D01*
X92765D01*
Y102778D01*
X92653D01*
Y102666D01*
Y102553D01*
X92540D01*
Y102441D01*
X92428D01*
Y102329D01*
X92316D01*
Y102216D01*
X92203D01*
Y102104D01*
X92091D01*
Y101991D01*
X91978D01*
Y101879D01*
X91866D01*
Y101767D01*
X91641D01*
Y101654D01*
X91416D01*
Y101542D01*
X91304D01*
Y101429D01*
X90967D01*
Y101317D01*
X90742D01*
Y101205D01*
X90405D01*
Y101092D01*
X89843D01*
Y100980D01*
X87707D01*
Y101092D01*
X87145D01*
Y101205D01*
X86808D01*
Y101317D01*
X86471D01*
Y101429D01*
X86246D01*
Y101542D01*
X86022D01*
Y101654D01*
X85797D01*
Y101767D01*
X85572D01*
Y101879D01*
X85460D01*
Y101991D01*
X85347D01*
Y102104D01*
X85235D01*
Y102216D01*
X85122D01*
Y102329D01*
X85010D01*
Y102441D01*
X84898D01*
Y102553D01*
X84785D01*
Y102666D01*
X84673D01*
Y102778D01*
Y102890D01*
X84560D01*
Y103003D01*
Y103115D01*
X84448D01*
Y103228D01*
Y103340D01*
X84336D01*
Y103452D01*
Y103565D01*
Y103677D01*
X84223D01*
Y103790D01*
Y103902D01*
Y104014D01*
Y104127D01*
Y104239D01*
Y104351D01*
Y104464D01*
Y104576D01*
Y104689D01*
Y104801D01*
Y104913D01*
Y105026D01*
Y105138D01*
X84336D01*
Y105251D01*
Y105363D01*
Y105475D01*
X84448D01*
Y105588D01*
Y105700D01*
X84560D01*
Y105813D01*
Y105925D01*
X84673D01*
Y106037D01*
Y106150D01*
X84785D01*
Y106262D01*
X84898D01*
Y106375D01*
X85010D01*
Y106487D01*
X85122D01*
Y106599D01*
X85235D01*
Y106712D01*
X85347D01*
Y106824D01*
X85460D01*
Y106937D01*
X85572D01*
Y107049D01*
X85797D01*
Y107161D01*
X85909D01*
Y107274D01*
X86134D01*
Y107386D01*
X86471D01*
Y107499D01*
X86696D01*
Y107611D01*
X87145D01*
Y107723D01*
X87595D01*
Y107836D01*
X90292D01*
Y107723D01*
D02*
G37*
%LPC*%
G36*
X371531Y117159D02*
X371204D01*
Y116996D01*
X371041D01*
Y116832D01*
Y116669D01*
Y116506D01*
X370878D01*
Y116343D01*
Y116180D01*
Y116016D01*
Y115853D01*
Y115690D01*
X371041D01*
Y115853D01*
X371367D01*
Y116016D01*
Y116180D01*
X371531D01*
Y116343D01*
Y116506D01*
Y116669D01*
Y116832D01*
Y116996D01*
Y117159D01*
D02*
G37*
G36*
X99660D02*
X99334D01*
Y116996D01*
X99171D01*
Y116832D01*
Y116669D01*
Y116506D01*
X99007D01*
Y116343D01*
Y116180D01*
Y116016D01*
Y115853D01*
Y115690D01*
X99171D01*
Y115853D01*
X99497D01*
Y116016D01*
Y116180D01*
X99660D01*
Y116343D01*
Y116506D01*
Y116669D01*
Y116832D01*
Y116996D01*
Y117159D01*
D02*
G37*
G36*
X355697Y118628D02*
X355534D01*
Y118465D01*
X355371D01*
Y118302D01*
Y118138D01*
Y117975D01*
X355207D01*
Y117812D01*
Y117649D01*
Y117485D01*
Y117322D01*
Y117159D01*
Y116996D01*
Y116832D01*
Y116669D01*
Y116506D01*
Y116343D01*
Y116180D01*
Y116016D01*
Y115853D01*
Y115690D01*
Y115527D01*
Y115364D01*
Y115200D01*
X355371D01*
Y115037D01*
X355534D01*
Y115200D01*
X355697D01*
Y115364D01*
Y115527D01*
X355860D01*
Y115690D01*
Y115853D01*
Y116016D01*
Y116180D01*
Y116343D01*
Y116506D01*
Y116669D01*
Y116832D01*
Y116996D01*
Y117159D01*
Y117322D01*
Y117485D01*
Y117649D01*
Y117812D01*
Y117975D01*
Y118138D01*
Y118302D01*
Y118465D01*
X355697D01*
Y118628D01*
D02*
G37*
G36*
X83827D02*
X83664D01*
Y118465D01*
X83501D01*
Y118302D01*
Y118138D01*
Y117975D01*
X83337D01*
Y117812D01*
Y117649D01*
Y117485D01*
Y117322D01*
Y117159D01*
Y116996D01*
Y116832D01*
Y116669D01*
Y116506D01*
Y116343D01*
Y116180D01*
Y116016D01*
Y115853D01*
Y115690D01*
Y115527D01*
Y115364D01*
Y115200D01*
X83501D01*
Y115037D01*
X83664D01*
Y115200D01*
X83827D01*
Y115364D01*
Y115527D01*
X83990D01*
Y115690D01*
Y115853D01*
Y116016D01*
Y116180D01*
Y116343D01*
Y116506D01*
Y116669D01*
Y116832D01*
Y116996D01*
Y117159D01*
Y117322D01*
Y117485D01*
Y117649D01*
Y117812D01*
Y117975D01*
Y118138D01*
Y118302D01*
Y118465D01*
X83827D01*
Y118628D01*
D02*
G37*
G36*
X338231Y118465D02*
X337905D01*
Y118302D01*
Y118138D01*
X337742D01*
Y117975D01*
Y117812D01*
Y117649D01*
Y117485D01*
Y117322D01*
Y117159D01*
Y116996D01*
X338068D01*
Y117159D01*
X338231D01*
Y117322D01*
Y117485D01*
Y117649D01*
X338395D01*
Y117812D01*
Y117975D01*
X338231D01*
Y118138D01*
Y118302D01*
Y118465D01*
D02*
G37*
G36*
X66361D02*
X66035D01*
Y118302D01*
Y118138D01*
X65872D01*
Y117975D01*
Y117812D01*
Y117649D01*
Y117485D01*
Y117322D01*
Y117159D01*
Y116996D01*
X66198D01*
Y117159D01*
X66361D01*
Y117322D01*
Y117485D01*
Y117649D01*
X66525D01*
Y117812D01*
Y117975D01*
X66361D01*
Y118138D01*
Y118302D01*
Y118465D01*
D02*
G37*
G36*
X361601Y105700D02*
X361151D01*
Y105588D01*
X360814D01*
Y105475D01*
X360589D01*
Y105363D01*
X360477D01*
Y105251D01*
X360364D01*
Y105138D01*
X360252D01*
Y105026D01*
X360139D01*
Y104913D01*
Y104801D01*
Y104689D01*
X360027D01*
Y104576D01*
Y104464D01*
Y104351D01*
Y104239D01*
X360139D01*
Y104127D01*
Y104014D01*
X360252D01*
Y103902D01*
X360364D01*
Y103790D01*
X360477D01*
Y103677D01*
X360589D01*
Y103565D01*
X360814D01*
Y103452D01*
X361713D01*
Y103565D01*
X361938D01*
Y103677D01*
X362162D01*
Y103790D01*
X362275D01*
Y103902D01*
X362387D01*
Y104014D01*
Y104127D01*
X362500D01*
Y104239D01*
Y104351D01*
X362612D01*
Y104464D01*
Y104576D01*
Y104689D01*
Y104801D01*
X362500D01*
Y104913D01*
Y105026D01*
Y105138D01*
X362387D01*
Y105251D01*
X362275D01*
Y105363D01*
X362162D01*
Y105475D01*
X361938D01*
Y105588D01*
X361601D01*
Y105700D01*
D02*
G37*
G36*
X89731D02*
X89281D01*
Y105588D01*
X88944D01*
Y105475D01*
X88719D01*
Y105363D01*
X88607D01*
Y105251D01*
X88494D01*
Y105138D01*
X88382D01*
Y105026D01*
X88269D01*
Y104913D01*
Y104801D01*
Y104689D01*
X88157D01*
Y104576D01*
Y104464D01*
Y104351D01*
Y104239D01*
X88269D01*
Y104127D01*
Y104014D01*
X88382D01*
Y103902D01*
X88494D01*
Y103790D01*
X88607D01*
Y103677D01*
X88719D01*
Y103565D01*
X88944D01*
Y103452D01*
X89843D01*
Y103565D01*
X90068D01*
Y103677D01*
X90292D01*
Y103790D01*
X90405D01*
Y103902D01*
X90517D01*
Y104014D01*
Y104127D01*
X90630D01*
Y104239D01*
Y104351D01*
X90742D01*
Y104464D01*
Y104576D01*
Y104689D01*
Y104801D01*
X90630D01*
Y104913D01*
Y105026D01*
Y105138D01*
X90517D01*
Y105251D01*
X90405D01*
Y105363D01*
X90292D01*
Y105475D01*
X90068D01*
Y105588D01*
X89731D01*
Y105700D01*
D02*
G37*
%LPD*%
D31*
X58324Y86718D02*
X87458D01*
X58324Y64080D02*
Y86718D01*
Y64080D02*
X87458D01*
Y86718D01*
X201994Y64131D02*
X228372D01*
X201994D02*
Y91690D01*
X228372Y64131D02*
Y91690D01*
X201994D02*
X228372D01*
X230410Y86718D02*
X259544D01*
X230410Y64080D02*
Y86718D01*
Y64080D02*
X259544D01*
Y86718D01*
X172558Y337364D02*
X189117D01*
Y348978D01*
Y337364D02*
X233999D01*
X189117Y348978D02*
X233999D01*
Y337364D02*
Y348978D01*
Y337364D02*
X250558D01*
Y256262D02*
Y337364D01*
X228290Y256262D02*
X250558D01*
X194826D02*
X228290D01*
Y244451D02*
Y256262D01*
X194826Y244451D02*
X228290D01*
X194826D02*
Y256262D01*
X172558D02*
X194826D01*
X172558D02*
Y337364D01*
X63339D02*
X79898D01*
Y348978D01*
Y337364D02*
X124780D01*
X79898Y348978D02*
X124780D01*
Y337364D02*
Y348978D01*
Y337364D02*
X141339D01*
Y256262D02*
Y337364D01*
X119071Y256262D02*
X141339D01*
X85607D02*
X119071D01*
Y244451D02*
Y256262D01*
X85607Y244451D02*
X119071D01*
X85607D02*
Y256262D01*
X63339D02*
X85607D01*
X63339D02*
Y337364D01*
X330194Y86718D02*
X359328D01*
X330194Y64080D02*
Y86718D01*
Y64080D02*
X359328D01*
Y86718D01*
X473864Y64131D02*
X500242D01*
X473864D02*
Y91690D01*
X500242Y64131D02*
Y91690D01*
X473864D02*
X500242D01*
X502280Y86718D02*
X531414D01*
X502280Y64080D02*
Y86718D01*
Y64080D02*
X531414D01*
Y86718D01*
X444428Y337364D02*
X460988D01*
Y348978D01*
Y337364D02*
X505869D01*
X460988Y348978D02*
X505869D01*
Y337364D02*
Y348978D01*
Y337364D02*
X522429D01*
Y256262D02*
Y337364D01*
X500161Y256262D02*
X522429D01*
X466697D02*
X500161D01*
Y244451D02*
Y256262D01*
X466697Y244451D02*
X500161D01*
X466697D02*
Y256262D01*
X444428D02*
X466697D01*
X444428D02*
Y337364D01*
X335209D02*
X351768D01*
Y348978D01*
Y337364D02*
X396651D01*
X351768Y348978D02*
X396651D01*
Y337364D02*
Y348978D01*
Y337364D02*
X413209D01*
Y256262D02*
Y337364D01*
X390942Y256262D02*
X413209D01*
X357477D02*
X390942D01*
Y244451D02*
Y256262D01*
X357477Y244451D02*
X390942D01*
X357477D02*
Y256262D01*
X335209D02*
X357477D01*
X335209D02*
Y337364D01*
D43*
X145423Y104661D02*
G03*
X145423Y104661I-1969J0D01*
G01*
X166781Y221590D02*
G03*
X166781Y221590I-1969J0D01*
G01*
X95915Y155646D02*
G03*
X95915Y155646I-1969J0D01*
G01*
X231348Y163224D02*
G03*
X231348Y163224I-1969J0D01*
G01*
X236564Y145422D02*
Y163139D01*
Y145422D02*
X243891D01*
X250891D02*
X258218D01*
Y163139D01*
X240501Y167076D02*
X243848D01*
X236564Y163139D02*
X240501Y167076D01*
X254281D02*
X258218Y163139D01*
X250891Y167076D02*
X254281D01*
X133120Y114012D02*
Y119425D01*
X124458Y114012D02*
Y119425D01*
X131250D02*
X133120D01*
X124458D02*
X131250D01*
X124458Y114012D02*
X133120D01*
X191978Y100567D02*
X195324Y103913D01*
Y117496D01*
X190403Y100567D02*
X191978D01*
X190403Y117496D02*
X195324D01*
X178395D02*
X183317D01*
X181742Y100567D02*
X183317D01*
X178395Y103913D02*
X181742Y100567D01*
X178395Y103913D02*
Y117496D01*
X226913Y104262D02*
X230259Y100915D01*
X243842D01*
X226913Y104262D02*
Y105836D01*
X243842Y100915D02*
Y105836D01*
Y112923D02*
Y117844D01*
X226913Y112923D02*
Y114498D01*
X230259Y117844D01*
X243842D01*
X139911Y86945D02*
Y108205D01*
X161171Y86945D02*
Y108205D01*
X139911Y86945D02*
X161171D01*
X139911Y108205D02*
X161171D01*
X127805Y99937D02*
Y106236D01*
X124655Y99937D02*
Y106236D01*
Y99937D02*
X127805D01*
X124655Y106236D02*
X127805D01*
X137254Y118342D02*
X140403D01*
X137254Y112043D02*
X140403D01*
X137254D02*
Y118342D01*
X140403Y112043D02*
Y118342D01*
X176696Y86925D02*
Y93224D01*
X189294Y86925D02*
Y93224D01*
X176696D02*
X189294D01*
X176696Y86925D02*
X189294D01*
X170915Y98854D02*
Y105154D01*
X174065Y98854D02*
Y105154D01*
X170915D02*
X174065D01*
X170915Y98854D02*
X174065D01*
X200535Y101998D02*
Y108297D01*
X197385Y101998D02*
Y108297D01*
Y101998D02*
X200535D01*
X197385Y108297D02*
X200535D01*
X203094Y103966D02*
Y111053D01*
X214511Y103966D02*
Y111053D01*
X203094D02*
X214511D01*
X203094Y103966D02*
X214511D01*
X220220Y101998D02*
Y108297D01*
X217070Y101998D02*
Y108297D01*
Y101998D02*
X220220D01*
X217070Y108297D02*
X220220D01*
X158809Y197673D02*
Y204760D01*
X170226Y197673D02*
Y204760D01*
X158809D02*
X170226D01*
X158809Y197673D02*
X170226D01*
X161269Y218047D02*
X177017D01*
X161269Y236945D02*
X177017D01*
Y218047D02*
Y236945D01*
X161269Y218047D02*
Y236945D01*
X128198Y211453D02*
X153789D01*
X128198D02*
Y250823D01*
X153789D01*
Y211453D02*
Y250823D01*
X66978Y172109D02*
Y189825D01*
X59651D02*
X66978D01*
X45324D02*
X52651D01*
X45324Y172109D02*
Y189825D01*
X59694Y168172D02*
X63041D01*
X66978Y172109D01*
X45324D02*
X49261Y168172D01*
X52651D01*
X73133Y181250D02*
Y187549D01*
X69983Y181250D02*
Y187549D01*
Y181250D02*
X73133D01*
X69983Y187549D02*
X73133D01*
X121112Y153243D02*
Y159543D01*
X117962Y153243D02*
Y159543D01*
Y153243D02*
X121112D01*
X117962Y159543D02*
X121112D01*
X87155Y184976D02*
Y191276D01*
X84005Y184976D02*
Y191276D01*
Y184976D02*
X87155D01*
X84005Y191276D02*
X87155D01*
X77903Y184976D02*
Y191276D01*
X81053Y184976D02*
Y191276D01*
X77903D02*
X81053D01*
X77903Y184976D02*
X81053D01*
X91584Y174346D02*
Y180646D01*
X78986Y174346D02*
Y180646D01*
Y174346D02*
X91584D01*
X78986Y180646D02*
X91584D01*
X69983Y170645D02*
X73133D01*
X69983Y164346D02*
X73133D01*
X69983D02*
Y170645D01*
X73133Y164346D02*
Y170645D01*
X81741Y152102D02*
X97490D01*
X81741Y171787D02*
X97490D01*
X81741Y152102D02*
Y171787D01*
X97490Y152102D02*
Y171787D01*
X93257Y184976D02*
Y191276D01*
X90108Y184976D02*
Y191276D01*
Y184976D02*
X93257D01*
X90108Y191276D02*
X93257D01*
X109202Y174642D02*
Y180941D01*
X106052Y174642D02*
Y180941D01*
Y174642D02*
X109202D01*
X106052Y180941D02*
X109202D01*
X118257Y174642D02*
Y180941D01*
X121407Y174642D02*
Y180941D01*
X118257D02*
X121407D01*
X118257Y174642D02*
X121407D01*
X115305D02*
Y180941D01*
X112155Y174642D02*
Y180941D01*
Y174642D02*
X115305D01*
X112155Y180941D02*
X115305D01*
X107135Y163913D02*
Y170213D01*
X119734Y163913D02*
Y170213D01*
X107135D02*
X119734D01*
X107135Y163913D02*
X119734D01*
X78789Y146379D02*
X85088D01*
X78789Y149529D02*
X85088D01*
X78789Y146379D02*
Y149529D01*
X85088Y146379D02*
Y149529D01*
X147982Y143835D02*
X169242D01*
X147982Y134343D02*
Y143835D01*
Y117850D02*
Y127342D01*
Y117850D02*
X169242D01*
X173966Y134343D02*
Y139110D01*
X169242Y143835D02*
X173966Y139110D01*
X169242Y117850D02*
X173966Y122575D01*
Y127342D01*
X167765Y160173D02*
X174065D01*
X167765Y147575D02*
X174065D01*
Y160173D01*
X167765Y147575D02*
Y160173D01*
X157529Y147575D02*
X163828D01*
X157529Y160173D02*
X163828D01*
X157529Y147575D02*
Y160173D01*
X163828Y147575D02*
Y160173D01*
X147490Y147575D02*
X153789D01*
X147490Y160173D02*
X153789D01*
X147490Y147575D02*
Y160173D01*
X153789Y147575D02*
Y160173D01*
X148474Y197378D02*
X154773D01*
X148474Y194228D02*
X154773D01*
Y197378D01*
X148474Y194228D02*
Y197378D01*
X152214Y164209D02*
X173474D01*
Y173701D01*
Y180701D02*
Y190193D01*
X152214D02*
X173474D01*
X147490Y168933D02*
Y173701D01*
Y168933D02*
X152214Y164209D01*
X147490Y185468D02*
X152214Y190193D01*
X147490Y180701D02*
Y185468D01*
X146604Y204957D02*
Y210272D01*
X153691D01*
Y204957D02*
Y210272D01*
X146604Y204957D02*
X153691D01*
X176033Y195705D02*
Y202004D01*
X172883Y195705D02*
Y202004D01*
Y195705D02*
X176033D01*
X172883Y202004D02*
X176033D01*
X178395Y183711D02*
Y204971D01*
Y183711D02*
X187888D01*
X194888D02*
X204380D01*
Y204971D01*
X183120Y209695D02*
X187888D01*
X178395Y204971D02*
X183120Y209695D01*
X199655D02*
X204380Y204971D01*
X194888Y209695D02*
X199655D01*
X185679Y219721D02*
Y235469D01*
X197096Y219721D02*
Y235469D01*
X185679D02*
X197096D01*
X185679Y219721D02*
X197096D01*
X228691Y217063D02*
X246407D01*
X228691Y209736D02*
Y217063D01*
Y195409D02*
Y202736D01*
Y195409D02*
X246407D01*
X250344Y209780D02*
Y213126D01*
X246407Y217063D02*
X250344Y213126D01*
X246407Y195409D02*
X250344Y199346D01*
Y202736D01*
X208233Y204858D02*
Y209582D01*
X216107Y204858D02*
Y209582D01*
X208233Y204858D02*
X216107D01*
X208233Y209582D02*
X216107D01*
X209596Y215783D02*
X215895D01*
X209596Y212634D02*
X215895D01*
Y215783D01*
X209596Y212634D02*
Y215783D01*
X241781Y189602D02*
X248080D01*
X241781Y192752D02*
X248080D01*
X241781Y189602D02*
Y192752D01*
X248080Y189602D02*
Y192752D01*
X241387Y180252D02*
Y186551D01*
X253986Y180252D02*
Y186551D01*
X241387D02*
X253986D01*
X241387Y180252D02*
X253986D01*
X241781Y177201D02*
X248080D01*
X241781Y174051D02*
X248080D01*
Y177201D01*
X241781Y174051D02*
Y177201D01*
X224852Y188028D02*
X231151D01*
X224852Y191177D02*
X231151D01*
X224852Y188028D02*
Y191177D01*
X231151Y188028D02*
Y191177D01*
X224852Y181836D02*
X231151D01*
X224852Y184986D02*
X231151D01*
X224852Y181836D02*
Y184986D01*
X231151Y181836D02*
Y184986D01*
X224865Y178785D02*
X231164D01*
X224865Y175635D02*
X231164D01*
Y178785D01*
X224865Y175635D02*
Y178785D01*
X224360Y142654D02*
X230659D01*
X224360Y139504D02*
X230659D01*
Y142654D01*
X224360Y139504D02*
Y142654D01*
X232923Y151020D02*
Y166768D01*
X213238Y151020D02*
Y166768D01*
Y151020D02*
X232923D01*
X213238Y166768D02*
X232923D01*
X113533Y145606D02*
Y148756D01*
X107234Y145606D02*
Y148756D01*
X113533D01*
X107234Y145606D02*
X113533D01*
X111860Y159543D02*
X115009D01*
X111860Y153243D02*
X115009D01*
X111860D02*
Y159543D01*
X115009Y153243D02*
Y159543D01*
X105757Y153243D02*
X108907D01*
X105757Y159543D02*
X108907D01*
Y153243D02*
Y159543D01*
X105757Y153243D02*
Y159543D01*
X93522Y149543D02*
X101396D01*
X93522Y144819D02*
X101396D01*
Y149543D01*
X93522Y144819D02*
Y149543D01*
X48867Y210961D02*
X52017D01*
X48867Y204661D02*
X52017D01*
X48867D02*
Y210961D01*
X52017Y204661D02*
Y210961D01*
X417293Y104661D02*
G03*
X417293Y104661I-1969J0D01*
G01*
X438651Y221590D02*
G03*
X438651Y221590I-1969J0D01*
G01*
X367785Y155646D02*
G03*
X367785Y155646I-1969J0D01*
G01*
X503218Y163224D02*
G03*
X503218Y163224I-1969J0D01*
G01*
X508434Y145422D02*
Y163139D01*
Y145422D02*
X515761D01*
X522761D02*
X530088D01*
Y163139D01*
X512371Y167076D02*
X515718D01*
X508434Y163139D02*
X512371Y167076D01*
X526151D02*
X530088Y163139D01*
X522761Y167076D02*
X526151D01*
X404990Y114012D02*
Y119425D01*
X396328Y114012D02*
Y119425D01*
X403120D02*
X404990D01*
X396328D02*
X403120D01*
X396328Y114012D02*
X404990D01*
X463848Y100567D02*
X467195Y103913D01*
Y117496D01*
X462273Y100567D02*
X463848D01*
X462273Y117496D02*
X467195D01*
X450265D02*
X455187D01*
X453612Y100567D02*
X455187D01*
X450265Y103913D02*
X453612Y100567D01*
X450265Y103913D02*
Y117496D01*
X498783Y104262D02*
X502129Y100915D01*
X515712D01*
X498783Y104262D02*
Y105836D01*
X515712Y100915D02*
Y105836D01*
Y112923D02*
Y117844D01*
X498783Y112923D02*
Y114498D01*
X502129Y117844D01*
X515712D01*
X411781Y86945D02*
Y108205D01*
X433041Y86945D02*
Y108205D01*
X411781Y86945D02*
X433041D01*
X411781Y108205D02*
X433041D01*
X399675Y99937D02*
Y106236D01*
X396525Y99937D02*
Y106236D01*
Y99937D02*
X399675D01*
X396525Y106236D02*
X399675D01*
X409124Y118342D02*
X412273D01*
X409124Y112043D02*
X412273D01*
X409124D02*
Y118342D01*
X412273Y112043D02*
Y118342D01*
X448566Y86925D02*
Y93224D01*
X461164Y86925D02*
Y93224D01*
X448566D02*
X461164D01*
X448566Y86925D02*
X461164D01*
X442785Y98854D02*
Y105154D01*
X445935Y98854D02*
Y105154D01*
X442785D02*
X445935D01*
X442785Y98854D02*
X445935D01*
X472405Y101998D02*
Y108297D01*
X469255Y101998D02*
Y108297D01*
Y101998D02*
X472405D01*
X469255Y108297D02*
X472405D01*
X474964Y103966D02*
Y111053D01*
X486381Y103966D02*
Y111053D01*
X474964D02*
X486381D01*
X474964Y103966D02*
X486381D01*
X492090Y101998D02*
Y108297D01*
X488940Y101998D02*
Y108297D01*
Y101998D02*
X492090D01*
X488940Y108297D02*
X492090D01*
X430679Y197673D02*
Y204760D01*
X442096Y197673D02*
Y204760D01*
X430679D02*
X442096D01*
X430679Y197673D02*
X442096D01*
X433139Y218047D02*
X448887D01*
X433139Y236945D02*
X448887D01*
Y218047D02*
Y236945D01*
X433139Y218047D02*
Y236945D01*
X400069Y211453D02*
X425659D01*
X400069D02*
Y250823D01*
X425659D01*
Y211453D02*
Y250823D01*
X338848Y172109D02*
Y189825D01*
X331521D02*
X338848D01*
X317194D02*
X324521D01*
X317194Y172109D02*
Y189825D01*
X331564Y168172D02*
X334911D01*
X338848Y172109D01*
X317194D02*
X321131Y168172D01*
X324521D01*
X345003Y181250D02*
Y187549D01*
X341853Y181250D02*
Y187549D01*
Y181250D02*
X345003D01*
X341853Y187549D02*
X345003D01*
X392982Y153243D02*
Y159543D01*
X389832Y153243D02*
Y159543D01*
Y153243D02*
X392982D01*
X389832Y159543D02*
X392982D01*
X359025Y184976D02*
Y191276D01*
X355875Y184976D02*
Y191276D01*
Y184976D02*
X359025D01*
X355875Y191276D02*
X359025D01*
X349773Y184976D02*
Y191276D01*
X352923Y184976D02*
Y191276D01*
X349773D02*
X352923D01*
X349773Y184976D02*
X352923D01*
X363454Y174346D02*
Y180646D01*
X350856Y174346D02*
Y180646D01*
Y174346D02*
X363454D01*
X350856Y180646D02*
X363454D01*
X341853Y170645D02*
X345003D01*
X341853Y164346D02*
X345003D01*
X341853D02*
Y170645D01*
X345003Y164346D02*
Y170645D01*
X353612Y152102D02*
X369360D01*
X353612Y171787D02*
X369360D01*
X353612Y152102D02*
Y171787D01*
X369360Y152102D02*
Y171787D01*
X365127Y184976D02*
Y191276D01*
X361978Y184976D02*
Y191276D01*
Y184976D02*
X365127D01*
X361978Y191276D02*
X365127D01*
X381072Y174642D02*
Y180941D01*
X377923Y174642D02*
Y180941D01*
Y174642D02*
X381072D01*
X377923Y180941D02*
X381072D01*
X390127Y174642D02*
Y180941D01*
X393277Y174642D02*
Y180941D01*
X390127D02*
X393277D01*
X390127Y174642D02*
X393277D01*
X387175D02*
Y180941D01*
X384025Y174642D02*
Y180941D01*
Y174642D02*
X387175D01*
X384025Y180941D02*
X387175D01*
X379005Y163913D02*
Y170213D01*
X391604Y163913D02*
Y170213D01*
X379005D02*
X391604D01*
X379005Y163913D02*
X391604D01*
X350659Y146379D02*
X356958D01*
X350659Y149529D02*
X356958D01*
X350659Y146379D02*
Y149529D01*
X356958Y146379D02*
Y149529D01*
X419852Y143835D02*
X441112D01*
X419852Y134343D02*
Y143835D01*
Y117850D02*
Y127342D01*
Y117850D02*
X441112D01*
X445836Y134343D02*
Y139110D01*
X441112Y143835D02*
X445836Y139110D01*
X441112Y117850D02*
X445836Y122575D01*
Y127342D01*
X439636Y160173D02*
X445935D01*
X439636Y147575D02*
X445935D01*
Y160173D01*
X439636Y147575D02*
Y160173D01*
X429399Y147575D02*
X435699D01*
X429399Y160173D02*
X435699D01*
X429399Y147575D02*
Y160173D01*
X435699Y147575D02*
Y160173D01*
X419360Y147575D02*
X425659D01*
X419360Y160173D02*
X425659D01*
X419360Y147575D02*
Y160173D01*
X425659Y147575D02*
Y160173D01*
X420344Y197378D02*
X426643D01*
X420344Y194228D02*
X426643D01*
Y197378D01*
X420344Y194228D02*
Y197378D01*
X424084Y164209D02*
X445344D01*
Y173701D01*
Y180701D02*
Y190193D01*
X424084D02*
X445344D01*
X419360Y168933D02*
Y173701D01*
Y168933D02*
X424084Y164209D01*
X419360Y185468D02*
X424084Y190193D01*
X419360Y180701D02*
Y185468D01*
X418474Y204957D02*
Y210272D01*
X425561D01*
Y204957D02*
Y210272D01*
X418474Y204957D02*
X425561D01*
X447903Y195705D02*
Y202004D01*
X444754Y195705D02*
Y202004D01*
Y195705D02*
X447903D01*
X444754Y202004D02*
X447903D01*
X450266Y183711D02*
Y204971D01*
Y183711D02*
X459758D01*
X466758D02*
X476250D01*
Y204971D01*
X454990Y209695D02*
X459758D01*
X450266Y204971D02*
X454990Y209695D01*
X471525D02*
X476250Y204971D01*
X466758Y209695D02*
X471525D01*
X457549Y219721D02*
Y235469D01*
X468966Y219721D02*
Y235469D01*
X457549D02*
X468966D01*
X457549Y219721D02*
X468966D01*
X500561Y217063D02*
X518277D01*
X500561Y209736D02*
Y217063D01*
Y195409D02*
Y202736D01*
Y195409D02*
X518277D01*
X522214Y209780D02*
Y213126D01*
X518277Y217063D02*
X522214Y213126D01*
X518277Y195409D02*
X522214Y199346D01*
Y202736D01*
X480103Y204858D02*
Y209582D01*
X487977Y204858D02*
Y209582D01*
X480103Y204858D02*
X487977D01*
X480103Y209582D02*
X487977D01*
X481466Y215783D02*
X487765D01*
X481466Y212634D02*
X487765D01*
Y215783D01*
X481466Y212634D02*
Y215783D01*
X513651Y189602D02*
X519950D01*
X513651Y192752D02*
X519950D01*
X513651Y189602D02*
Y192752D01*
X519950Y189602D02*
Y192752D01*
X513258Y180252D02*
Y186551D01*
X525856Y180252D02*
Y186551D01*
X513258D02*
X525856D01*
X513258Y180252D02*
X525856D01*
X513651Y177201D02*
X519950D01*
X513651Y174051D02*
X519950D01*
Y177201D01*
X513651Y174051D02*
Y177201D01*
X496722Y188028D02*
X503021D01*
X496722Y191177D02*
X503021D01*
X496722Y188028D02*
Y191177D01*
X503021Y188028D02*
Y191177D01*
X496722Y181836D02*
X503021D01*
X496722Y184986D02*
X503021D01*
X496722Y181836D02*
Y184986D01*
X503021Y181836D02*
Y184986D01*
X496735Y178785D02*
X503034D01*
X496735Y175635D02*
X503034D01*
Y178785D01*
X496735Y175635D02*
Y178785D01*
X496230Y142654D02*
X502529D01*
X496230Y139504D02*
X502529D01*
Y142654D01*
X496230Y139504D02*
Y142654D01*
X504793Y151020D02*
Y166768D01*
X485108Y151020D02*
Y166768D01*
Y151020D02*
X504793D01*
X485108Y166768D02*
X504793D01*
X385403Y145606D02*
Y148756D01*
X379104Y145606D02*
Y148756D01*
X385403D01*
X379104Y145606D02*
X385403D01*
X383730Y159543D02*
X386879D01*
X383730Y153243D02*
X386879D01*
X383730D02*
Y159543D01*
X386879Y153243D02*
Y159543D01*
X377627Y153243D02*
X380777D01*
X377627Y159543D02*
X380777D01*
Y153243D02*
Y159543D01*
X377627Y153243D02*
Y159543D01*
X365392Y149543D02*
X373266D01*
X365392Y144819D02*
X373266D01*
Y149543D01*
X365392Y144819D02*
Y149543D01*
X320738Y210961D02*
X323887D01*
X320738Y204661D02*
X323887D01*
X320738D02*
Y210961D01*
X323887Y204661D02*
Y210961D01*
D44*
X78009Y64307D02*
Y66275D01*
X67773D02*
X78009D01*
X67773Y64307D02*
Y66275D01*
X250095Y64307D02*
Y66275D01*
X239859D02*
X250095D01*
X239859Y64307D02*
Y66275D01*
X349879Y64307D02*
Y66275D01*
X339643D02*
X349879D01*
X339643Y64307D02*
Y66275D01*
X521965Y64307D02*
Y66275D01*
X511729D02*
X521965D01*
X511729Y64307D02*
Y66275D01*
D45*
X169773Y64582D02*
Y74582D01*
X129773Y64582D02*
Y74581D01*
Y74582D02*
X169773D01*
X129773Y64582D02*
X169773D01*
X177983Y64622D02*
X182983D01*
X177983Y74622D02*
X182983D01*
X187983Y64622D02*
X192983D01*
X187983Y74622D02*
X192983D01*
X175483Y67122D02*
Y72122D01*
X195483Y67122D02*
Y72122D01*
X175483Y67122D02*
X177983Y64622D01*
X175483Y72122D02*
X177983Y74622D01*
X185483Y67122D02*
X187983Y64622D01*
X192983D02*
X195483Y67122D01*
X182983Y74622D02*
X185483Y72122D01*
X192983Y74622D02*
X195483Y72122D01*
X185483D02*
X187983Y74622D01*
X182983Y64622D02*
X185483Y67122D01*
X59104Y202102D02*
X94537D01*
X59104D02*
Y215882D01*
X94537D01*
Y202102D02*
Y215882D01*
X441643Y64582D02*
Y74582D01*
X401643Y64582D02*
Y74581D01*
Y74582D02*
X441643D01*
X401643Y64582D02*
X441643D01*
X449854Y64622D02*
X454853D01*
X449854Y74622D02*
X454853D01*
X459854Y64622D02*
X464853D01*
X459854Y74622D02*
X464853D01*
X447354Y67122D02*
Y72122D01*
X467353Y67122D02*
Y72122D01*
X447354Y67122D02*
X449854Y64622D01*
X447354Y72122D02*
X449854Y74622D01*
X457353Y67122D02*
X459854Y64622D01*
X464853D02*
X467353Y67122D01*
X454853Y74622D02*
X457353Y72122D01*
X464853Y74622D02*
X467353Y72122D01*
X457353D02*
X459854Y74622D01*
X454853Y64622D02*
X457353Y67122D01*
X330974Y202102D02*
X366407D01*
X330974D02*
Y215882D01*
X366407D01*
Y202102D02*
Y215882D01*
D46*
X266485Y92949D02*
X265960D01*
X264910Y91899D01*
X265960Y90850D01*
X266485D01*
X264910Y91899D02*
X263336D01*
X265960Y87701D02*
X266485Y88226D01*
Y89275D01*
X265960Y89800D01*
X263861D01*
X263336Y89275D01*
Y88226D01*
X263861Y87701D01*
X264910D01*
Y88751D01*
X263336Y86652D02*
X266485D01*
X263336Y84553D01*
X266485D01*
X264910Y80354D02*
Y78255D01*
X265435Y74057D02*
X263336Y73008D01*
X265435Y71958D01*
X263336Y68810D02*
Y70909D01*
X265435Y68810D01*
X265960D01*
X266485Y69334D01*
Y70384D01*
X265960Y70909D01*
X263336Y67760D02*
X263861D01*
Y67235D01*
X263336D01*
Y67760D01*
Y65136D02*
Y64087D01*
Y64612D01*
X266485D01*
X265960Y65136D01*
X137254Y127201D02*
X140402D01*
Y125627D01*
X139877Y125102D01*
X138828D01*
X138303Y125627D01*
Y127201D01*
Y126151D02*
X137254Y125102D01*
X140402Y121953D02*
X139877Y123003D01*
X138828Y124052D01*
X137778D01*
X137254Y123527D01*
Y122478D01*
X137778Y121953D01*
X138303D01*
X138828Y122478D01*
Y124052D01*
X69930Y161059D02*
X73079D01*
Y159485D01*
X72554Y158960D01*
X71505D01*
X70980Y159485D01*
Y161059D01*
Y160010D02*
X69930Y158960D01*
Y157911D02*
Y156861D01*
Y157386D01*
X73079D01*
X72554Y157911D01*
Y155287D02*
X73079Y154762D01*
Y153712D01*
X72554Y153188D01*
X70455D01*
X69930Y153712D01*
Y154762D01*
X70455Y155287D01*
X72554D01*
X173309Y208017D02*
X172784Y208542D01*
X171735D01*
X171210Y208017D01*
Y205918D01*
X171735Y205394D01*
X172784D01*
X173309Y205918D01*
X174359Y205394D02*
X175408D01*
X174883D01*
Y208542D01*
X174359Y208017D01*
X176982Y205394D02*
X178032D01*
X177507D01*
Y208542D01*
X176982Y208017D01*
X139746Y196852D02*
X139221Y197377D01*
X138172D01*
X137647Y196852D01*
Y194753D01*
X138172Y194228D01*
X139221D01*
X139746Y194753D01*
X140796Y194228D02*
X141845D01*
X141320D01*
Y197377D01*
X140796Y196852D01*
X145519Y194228D02*
X143420D01*
X145519Y196327D01*
Y196852D01*
X144994Y197377D01*
X143944D01*
X143420Y196852D01*
X148277Y99247D02*
Y96623D01*
X148802Y96099D01*
X149852D01*
X150376Y96623D01*
Y99247D01*
X151426Y96099D02*
X152475D01*
X151951D01*
Y99247D01*
X151426Y98722D01*
X213139Y187929D02*
Y191078D01*
X214714D01*
X215238Y190553D01*
Y189503D01*
X214714Y188979D01*
X213139D01*
X214189D02*
X215238Y187929D01*
X218387D02*
X216288D01*
X218387Y190028D01*
Y190553D01*
X217862Y191078D01*
X216812D01*
X216288Y190553D01*
X219436D02*
X219961Y191078D01*
X221011D01*
X221535Y190553D01*
Y190028D01*
X221011Y189503D01*
X220486D01*
X221011D01*
X221535Y188979D01*
Y188454D01*
X221011Y187929D01*
X219961D01*
X219436Y188454D01*
X251623Y189307D02*
Y192456D01*
X253198D01*
X253723Y191931D01*
Y190881D01*
X253198Y190357D01*
X251623D01*
X252673D02*
X253723Y189307D01*
X256871D02*
X254772D01*
X256871Y191406D01*
Y191931D01*
X256346Y192456D01*
X255297D01*
X254772Y191931D01*
X260020Y189307D02*
X257921D01*
X260020Y191406D01*
Y191931D01*
X259495Y192456D01*
X258445D01*
X257921Y191931D01*
X251525Y173854D02*
Y177003D01*
X253099D01*
X253624Y176478D01*
Y175429D01*
X253099Y174904D01*
X251525D01*
X252574D02*
X253624Y173854D01*
X256773D02*
X254674D01*
X256773Y175953D01*
Y176478D01*
X256248Y177003D01*
X255198D01*
X254674Y176478D01*
X257822Y173854D02*
X258872D01*
X258347D01*
Y177003D01*
X257822Y176478D01*
X212745Y217850D02*
Y220999D01*
X214320D01*
X214844Y220474D01*
Y219425D01*
X214320Y218900D01*
X212745D01*
X213795D02*
X214844Y217850D01*
X217993D02*
X215894D01*
X217993Y219950D01*
Y220474D01*
X217468Y220999D01*
X216419D01*
X215894Y220474D01*
X219043D02*
X219567Y220999D01*
X220617D01*
X221142Y220474D01*
Y218375D01*
X220617Y217850D01*
X219567D01*
X219043Y218375D01*
Y220474D01*
X213533Y181728D02*
Y184877D01*
X215107D01*
X215632Y184352D01*
Y183303D01*
X215107Y182778D01*
X213533D01*
X214583D02*
X215632Y181728D01*
X216682D02*
X217731D01*
X217206D01*
Y184877D01*
X216682Y184352D01*
X219305Y182253D02*
X219830Y181728D01*
X220880D01*
X221405Y182253D01*
Y184352D01*
X220880Y184877D01*
X219830D01*
X219305Y184352D01*
Y183827D01*
X219830Y183303D01*
X221405D01*
X48572Y222083D02*
X51721D01*
Y220508D01*
X51196Y219984D01*
X50147D01*
X49622Y220508D01*
Y222083D01*
Y221033D02*
X48572Y219984D01*
Y218934D02*
Y217885D01*
Y218409D01*
X51721D01*
X51196Y218934D01*
Y216310D02*
X51721Y215786D01*
Y214736D01*
X51196Y214211D01*
X50671D01*
X50147Y214736D01*
X49622Y214211D01*
X49097D01*
X48572Y214736D01*
Y215786D01*
X49097Y216310D01*
X49622D01*
X50147Y215786D01*
X50671Y216310D01*
X51196D01*
X50147Y215786D02*
Y214736D01*
X117962Y149839D02*
X121111D01*
Y148264D01*
X120586Y147740D01*
X119536D01*
X119011Y148264D01*
Y149839D01*
Y148789D02*
X117962Y147740D01*
Y146690D02*
Y145641D01*
Y146165D01*
X121111D01*
X120586Y146690D01*
X121111Y144066D02*
Y141967D01*
X120586D01*
X118487Y144066D01*
X117962D01*
X106938Y140587D02*
Y143735D01*
X108513D01*
X109037Y143210D01*
Y142161D01*
X108513Y141636D01*
X106938D01*
X107988D02*
X109037Y140587D01*
X110087D02*
X111136D01*
X110612D01*
Y143735D01*
X110087Y143210D01*
X114810Y143735D02*
X113760Y143210D01*
X112711Y142161D01*
Y141111D01*
X113236Y140587D01*
X114285D01*
X114810Y141111D01*
Y141636D01*
X114285Y142161D01*
X112711D01*
X106151Y139012D02*
X109300D01*
Y137437D01*
X108775Y136913D01*
X107725D01*
X107201Y137437D01*
Y139012D01*
Y137962D02*
X106151Y136913D01*
Y135863D02*
Y134814D01*
Y135338D01*
X109300D01*
X108775Y135863D01*
X109300Y131140D02*
Y133239D01*
X107725D01*
X108250Y132190D01*
Y131665D01*
X107725Y131140D01*
X106676D01*
X106151Y131665D01*
Y132715D01*
X106676Y133239D01*
X105954Y192358D02*
X109103D01*
Y190784D01*
X108578Y190259D01*
X107528D01*
X107004Y190784D01*
Y192358D01*
Y191309D02*
X105954Y190259D01*
Y189210D02*
Y188160D01*
Y188685D01*
X109103D01*
X108578Y189210D01*
X105954Y185012D02*
X109103D01*
X107528Y186586D01*
Y184487D01*
X123671Y181925D02*
X126819D01*
Y180351D01*
X126295Y179826D01*
X125245D01*
X124720Y180351D01*
Y181925D01*
Y180876D02*
X123671Y179826D01*
Y178777D02*
Y177727D01*
Y178252D01*
X126819D01*
X126295Y178777D01*
Y176153D02*
X126819Y175628D01*
Y174578D01*
X126295Y174054D01*
X125770D01*
X125245Y174578D01*
Y175103D01*
Y174578D01*
X124720Y174054D01*
X124195D01*
X123671Y174578D01*
Y175628D01*
X124195Y176153D01*
X112253Y192457D02*
X115402D01*
Y190882D01*
X114877Y190358D01*
X113828D01*
X113303Y190882D01*
Y192457D01*
Y191407D02*
X112253Y190358D01*
Y189308D02*
Y188259D01*
Y188783D01*
X115402D01*
X114877Y189308D01*
X112253Y184585D02*
Y186684D01*
X114352Y184585D01*
X114877D01*
X115402Y185110D01*
Y186160D01*
X114877Y186684D01*
X70127Y197575D02*
X73276D01*
Y196001D01*
X72751Y195476D01*
X71702D01*
X71177Y196001D01*
Y197575D01*
Y196525D02*
X70127Y195476D01*
Y194426D02*
Y193377D01*
Y193902D01*
X73276D01*
X72751Y194426D01*
X70127Y191802D02*
Y190753D01*
Y191278D01*
X73276D01*
X72751Y191802D01*
X89911Y194808D02*
Y197957D01*
X91485D01*
X92010Y197432D01*
Y196382D01*
X91485Y195858D01*
X89911D01*
X90960D02*
X92010Y194808D01*
X93059Y195333D02*
X93584Y194808D01*
X94634D01*
X95158Y195333D01*
Y197432D01*
X94634Y197957D01*
X93584D01*
X93059Y197432D01*
Y196907D01*
X93584Y196382D01*
X95158D01*
X75934Y194720D02*
Y197869D01*
X77509D01*
X78034Y197344D01*
Y196295D01*
X77509Y195770D01*
X75934D01*
X76984D02*
X78034Y194720D01*
X79083Y197344D02*
X79608Y197869D01*
X80657D01*
X81182Y197344D01*
Y196820D01*
X80657Y196295D01*
X81182Y195770D01*
Y195245D01*
X80657Y194720D01*
X79608D01*
X79083Y195245D01*
Y195770D01*
X79608Y196295D01*
X79083Y196820D01*
Y197344D01*
X79608Y196295D02*
X80657D01*
X83119Y194720D02*
Y197869D01*
X84694D01*
X85219Y197344D01*
Y196295D01*
X84694Y195770D01*
X83119D01*
X84169D02*
X85219Y194720D01*
X86268Y197869D02*
X88367D01*
Y197344D01*
X86268Y195245D01*
Y194720D01*
X124556Y96787D02*
X127705D01*
Y95213D01*
X127180Y94688D01*
X126130D01*
X125606Y95213D01*
Y96787D01*
Y95738D02*
X124556Y94688D01*
X127705Y91540D02*
Y93639D01*
X126130D01*
X126655Y92589D01*
Y92064D01*
X126130Y91540D01*
X125081D01*
X124556Y92064D01*
Y93114D01*
X125081Y93639D01*
X192588Y88402D02*
Y91550D01*
X194162D01*
X194687Y91025D01*
Y89976D01*
X194162Y89451D01*
X192588D01*
X193638D02*
X194687Y88402D01*
X197311D02*
Y91550D01*
X195737Y89976D01*
X197836D01*
X147982Y152399D02*
Y155548D01*
X149556D01*
X150081Y155023D01*
Y153974D01*
X149556Y153449D01*
X147982D01*
X149031D02*
X150081Y152399D01*
X151130Y155023D02*
X151655Y155548D01*
X152705D01*
X153230Y155023D01*
Y154499D01*
X152705Y153974D01*
X152180D01*
X152705D01*
X153230Y153449D01*
Y152924D01*
X152705Y152399D01*
X151655D01*
X151130Y152924D01*
X158147Y152299D02*
Y155448D01*
X159721D01*
X160246Y154923D01*
Y153874D01*
X159721Y153349D01*
X158147D01*
X159196D02*
X160246Y152299D01*
X163394D02*
X161295D01*
X163394Y154398D01*
Y154923D01*
X162869Y155448D01*
X161820D01*
X161295Y154923D01*
X168993Y152299D02*
Y155448D01*
X170568D01*
X171092Y154923D01*
Y153874D01*
X170568Y153349D01*
X168993D01*
X170043D02*
X171092Y152299D01*
X172142D02*
X173191D01*
X172667D01*
Y155448D01*
X172142Y154923D01*
X124097Y120934D02*
Y123033D01*
X123572Y123558D01*
X122522D01*
X121998Y123033D01*
Y120934D01*
X122522Y120410D01*
X123572D01*
X123047Y121459D02*
X124097Y120410D01*
X123572D02*
X124097Y120934D01*
X125146Y120410D02*
X126196D01*
X125671D01*
Y123558D01*
X125146Y123033D01*
X165994Y229759D02*
Y226610D01*
Y227660D01*
X168093Y229759D01*
X166518Y228185D01*
X168093Y226610D01*
X171241D02*
X169142D01*
X171241Y228709D01*
Y229234D01*
X170717Y229759D01*
X169667D01*
X169142Y229234D01*
X138533Y233007D02*
Y229858D01*
Y230908D01*
X140632Y233007D01*
X139058Y231433D01*
X140632Y229858D01*
X141682D02*
X142731D01*
X142207D01*
Y233007D01*
X141682Y232482D01*
X218257Y159778D02*
X219307D01*
X218782D01*
Y156630D01*
X218257D01*
X219307D01*
X222980Y159254D02*
X222456Y159778D01*
X221406D01*
X220881Y159254D01*
Y157155D01*
X221406Y156630D01*
X222456D01*
X222980Y157155D01*
X226129Y156630D02*
X224030D01*
X226129Y158729D01*
Y159254D01*
X225604Y159778D01*
X224555D01*
X224030Y159254D01*
X85580Y165232D02*
X86630D01*
X86105D01*
Y162083D01*
X85580D01*
X86630D01*
X90303Y164707D02*
X89778Y165232D01*
X88729D01*
X88204Y164707D01*
Y162608D01*
X88729Y162083D01*
X89778D01*
X90303Y162608D01*
X91352Y162083D02*
X92402D01*
X91877D01*
Y165232D01*
X91352Y164707D01*
X201524Y228579D02*
X198376D01*
Y227004D01*
X198900Y226480D01*
X200999D01*
X201524Y227004D01*
Y228579D01*
X198376Y225430D02*
Y224381D01*
Y224905D01*
X201524D01*
X200999Y225430D01*
X253952Y217228D02*
X254477Y217753D01*
Y218802D01*
X253952Y219327D01*
X251853D01*
X251328Y218802D01*
Y217753D01*
X251853Y217228D01*
X251328Y214079D02*
Y216178D01*
X253427Y214079D01*
X253952D01*
X254477Y214604D01*
Y215653D01*
X253952Y216178D01*
X251328Y210930D02*
Y213030D01*
X253427Y210930D01*
X253952D01*
X254477Y211455D01*
Y212505D01*
X253952Y213030D01*
X213368Y202069D02*
X212843Y202593D01*
X211794D01*
X211269Y202069D01*
Y199970D01*
X211794Y199445D01*
X212843D01*
X213368Y199970D01*
X216517Y199445D02*
X214418D01*
X216517Y201544D01*
Y202069D01*
X215992Y202593D01*
X214943D01*
X214418Y202069D01*
X217566D02*
X218091Y202593D01*
X219141D01*
X219665Y202069D01*
Y199970D01*
X219141Y199445D01*
X218091D01*
X217566Y199970D01*
Y202069D01*
X254412Y143899D02*
X253887Y144424D01*
X252837D01*
X252312Y143899D01*
Y141800D01*
X252837Y141276D01*
X253887D01*
X254412Y141800D01*
X257560Y141276D02*
X255461D01*
X257560Y143375D01*
Y143899D01*
X257035Y144424D01*
X255986D01*
X255461Y143899D01*
X258610Y141276D02*
X259659D01*
X259134D01*
Y144424D01*
X258610Y143899D01*
X259530Y184155D02*
X259005Y184680D01*
X257955D01*
X257431Y184155D01*
Y182056D01*
X257955Y181532D01*
X259005D01*
X259530Y182056D01*
X260579Y181532D02*
X261629D01*
X261104D01*
Y184680D01*
X260579Y184155D01*
X263203Y182056D02*
X263728Y181532D01*
X264777D01*
X265302Y182056D01*
Y184155D01*
X264777Y184680D01*
X263728D01*
X263203Y184155D01*
Y183631D01*
X263728Y183106D01*
X265302D01*
X215632Y178053D02*
X215107Y178578D01*
X214058D01*
X213533Y178053D01*
Y175954D01*
X214058Y175429D01*
X215107D01*
X215632Y175954D01*
X216682Y175429D02*
X217731D01*
X217206D01*
Y178578D01*
X216682Y178053D01*
X219305D02*
X219830Y178578D01*
X220880D01*
X221404Y178053D01*
Y177528D01*
X220880Y177003D01*
X221404Y176479D01*
Y175954D01*
X220880Y175429D01*
X219830D01*
X219305Y175954D01*
Y176479D01*
X219830Y177003D01*
X219305Y177528D01*
Y178053D01*
X219830Y177003D02*
X220880D01*
X114779Y136716D02*
X115304Y137241D01*
Y138290D01*
X114779Y138815D01*
X112680D01*
X112155Y138290D01*
Y137241D01*
X112680Y136716D01*
X112155Y135666D02*
Y134617D01*
Y135142D01*
X115304D01*
X114779Y135666D01*
X115304Y133043D02*
Y130944D01*
X114779D01*
X112680Y133043D01*
X112155D01*
X95849Y142226D02*
X95324Y142751D01*
X94274D01*
X93749Y142226D01*
Y140127D01*
X94274Y139602D01*
X95324D01*
X95849Y140127D01*
X96898Y139602D02*
X97948D01*
X97423D01*
Y142751D01*
X96898Y142226D01*
X101621Y142751D02*
X100571Y142226D01*
X99522Y141177D01*
Y140127D01*
X100047Y139602D01*
X101096D01*
X101621Y140127D01*
Y140652D01*
X101096Y141177D01*
X99522D01*
X125081Y167578D02*
X124556Y168103D01*
X123506D01*
X122982Y167578D01*
Y165479D01*
X123506Y164955D01*
X124556D01*
X125081Y165479D01*
X126130Y164955D02*
X127180D01*
X126655D01*
Y168103D01*
X126130Y167578D01*
X130853Y168103D02*
X128754D01*
Y166529D01*
X129804Y167054D01*
X130328D01*
X130853Y166529D01*
Y165479D01*
X130328Y164955D01*
X129279D01*
X128754Y165479D01*
X46144Y193433D02*
X45619Y193958D01*
X44570D01*
X44045Y193433D01*
Y191334D01*
X44570Y190810D01*
X45619D01*
X46144Y191334D01*
X47193Y190810D02*
X48243D01*
X47718D01*
Y193958D01*
X47193Y193433D01*
X51391Y190810D02*
Y193958D01*
X49817Y192384D01*
X51916D01*
X97325Y178644D02*
X96800Y179168D01*
X95750D01*
X95226Y178644D01*
Y176544D01*
X95750Y176020D01*
X96800D01*
X97325Y176544D01*
X98374Y176020D02*
X99424D01*
X98899D01*
Y179168D01*
X98374Y178644D01*
X100998D02*
X101523Y179168D01*
X102573D01*
X103097Y178644D01*
Y178119D01*
X102573Y177594D01*
X102048D01*
X102573D01*
X103097Y177069D01*
Y176544D01*
X102573Y176020D01*
X101523D01*
X100998Y176544D01*
X199917Y117425D02*
X200441Y117949D01*
Y118999D01*
X199917Y119524D01*
X197818D01*
X197293Y118999D01*
Y117949D01*
X197818Y117425D01*
X197293Y116375D02*
Y115325D01*
Y115850D01*
X200441D01*
X199917Y116375D01*
Y113751D02*
X200441Y113226D01*
Y112177D01*
X199917Y111652D01*
X197818D01*
X197293Y112177D01*
Y113226D01*
X197818Y113751D01*
X199917D01*
X173440Y111913D02*
X173965Y112437D01*
Y113487D01*
X173440Y114012D01*
X171341D01*
X170816Y113487D01*
Y112437D01*
X171341Y111913D01*
Y110863D02*
X170816Y110338D01*
Y109289D01*
X171341Y108764D01*
X173440D01*
X173965Y109289D01*
Y110338D01*
X173440Y110863D01*
X172915D01*
X172391Y110338D01*
Y108764D01*
X219503Y114866D02*
X220028Y115390D01*
Y116440D01*
X219503Y116965D01*
X217404D01*
X216879Y116440D01*
Y115390D01*
X217404Y114866D01*
X219503Y113816D02*
X220028Y113291D01*
Y112242D01*
X219503Y111717D01*
X218978D01*
X218454Y112242D01*
X217929Y111717D01*
X217404D01*
X216879Y112242D01*
Y113291D01*
X217404Y113816D01*
X217929D01*
X218454Y113291D01*
X218978Y113816D01*
X219503D01*
X218454Y113291D02*
Y112242D01*
X179707Y121065D02*
X179182Y121590D01*
X178133D01*
X177608Y121065D01*
Y118966D01*
X178133Y118441D01*
X179182D01*
X179707Y118966D01*
X180756Y121590D02*
X182855D01*
Y121065D01*
X180756Y118966D01*
Y118441D01*
X247259Y116932D02*
X247784Y117457D01*
Y118507D01*
X247259Y119032D01*
X245160D01*
X244635Y118507D01*
Y117457D01*
X245160Y116932D01*
X247784Y113784D02*
X247259Y114833D01*
X246210Y115883D01*
X245160D01*
X244635Y115358D01*
Y114309D01*
X245160Y113784D01*
X245685D01*
X246210Y114309D01*
Y115883D01*
X217699Y142029D02*
X217174Y142554D01*
X216125D01*
X215600Y142029D01*
Y139930D01*
X216125Y139406D01*
X217174D01*
X217699Y139930D01*
X220848Y142554D02*
X218749D01*
Y140980D01*
X219798Y141505D01*
X220323D01*
X220848Y140980D01*
Y139930D01*
X220323Y139406D01*
X219273D01*
X218749Y139930D01*
X81478Y143801D02*
X80954Y144326D01*
X79904D01*
X79379Y143801D01*
Y141702D01*
X79904Y141177D01*
X80954D01*
X81478Y141702D01*
X84102Y141177D02*
Y144326D01*
X82528Y142752D01*
X84627D01*
X176767Y170476D02*
X177292Y171001D01*
Y172050D01*
X176767Y172575D01*
X174668D01*
X174143Y172050D01*
Y171001D01*
X174668Y170476D01*
X176767Y169426D02*
X177292Y168902D01*
Y167852D01*
X176767Y167327D01*
X176242D01*
X175718Y167852D01*
Y168377D01*
Y167852D01*
X175193Y167327D01*
X174668D01*
X174143Y167852D01*
Y168902D01*
X174668Y169426D01*
X146669Y138783D02*
X147193Y139308D01*
Y140357D01*
X146669Y140882D01*
X144570D01*
X144045Y140357D01*
Y139308D01*
X144570Y138783D01*
X144045Y135634D02*
Y137733D01*
X146144Y135634D01*
X146669D01*
X147193Y136159D01*
Y137208D01*
X146669Y137733D01*
X198998Y181990D02*
X198474Y182515D01*
X197424D01*
X196899Y181990D01*
Y179891D01*
X197424Y179366D01*
X198474D01*
X198998Y179891D01*
X200048Y179366D02*
X201097D01*
X200573D01*
Y182515D01*
X200048Y181990D01*
X196633Y331764D02*
X195583D01*
X195058Y331240D01*
Y329140D01*
X195583Y328616D01*
X196633D01*
X197158Y329140D01*
Y331240D01*
X196633Y331764D01*
X198207D02*
Y329140D01*
X198732Y328616D01*
X199781D01*
X200306Y329140D01*
Y331764D01*
X201356D02*
X203455D01*
X202405D01*
Y328616D01*
X204504D02*
Y331764D01*
X206079D01*
X206603Y331240D01*
Y330190D01*
X206079Y329665D01*
X204504D01*
X207653Y331764D02*
Y329140D01*
X208177Y328616D01*
X209227D01*
X209752Y329140D01*
Y331764D01*
X210801D02*
X212900D01*
X211851D01*
Y328616D01*
X88339Y331764D02*
X89389D01*
X88864D01*
Y328616D01*
X88339D01*
X89389D01*
X90963D02*
Y331764D01*
X93062Y328616D01*
Y331764D01*
X94112Y328616D02*
Y331764D01*
X95686D01*
X96211Y331240D01*
Y330190D01*
X95686Y329665D01*
X94112D01*
X97260Y331764D02*
Y329140D01*
X97785Y328616D01*
X98835D01*
X99360Y329140D01*
Y331764D01*
X100409D02*
X102508D01*
X101459D01*
Y328616D01*
X538355Y92949D02*
X537830D01*
X536780Y91899D01*
X537830Y90850D01*
X538355D01*
X536780Y91899D02*
X535206D01*
X537830Y87701D02*
X538355Y88226D01*
Y89275D01*
X537830Y89800D01*
X535731D01*
X535206Y89275D01*
Y88226D01*
X535731Y87701D01*
X536780D01*
Y88751D01*
X535206Y86652D02*
X538355D01*
X535206Y84553D01*
X538355D01*
X536780Y80354D02*
Y78255D01*
X537305Y74057D02*
X535206Y73008D01*
X537305Y71958D01*
X535206Y68810D02*
Y70909D01*
X537305Y68810D01*
X537830D01*
X538355Y69334D01*
Y70384D01*
X537830Y70909D01*
X535206Y67760D02*
X535731D01*
Y67235D01*
X535206D01*
Y67760D01*
Y65136D02*
Y64087D01*
Y64612D01*
X538355D01*
X537830Y65136D01*
X409124Y127201D02*
X412272D01*
Y125627D01*
X411748Y125102D01*
X410698D01*
X410173Y125627D01*
Y127201D01*
Y126151D02*
X409124Y125102D01*
X412272Y121953D02*
X411748Y123003D01*
X410698Y124052D01*
X409648D01*
X409124Y123527D01*
Y122478D01*
X409648Y121953D01*
X410173D01*
X410698Y122478D01*
Y124052D01*
X341801Y161059D02*
X344949D01*
Y159485D01*
X344424Y158960D01*
X343375D01*
X342850Y159485D01*
Y161059D01*
Y160010D02*
X341801Y158960D01*
Y157911D02*
Y156861D01*
Y157386D01*
X344949D01*
X344424Y157911D01*
Y155287D02*
X344949Y154762D01*
Y153712D01*
X344424Y153188D01*
X342325D01*
X341801Y153712D01*
Y154762D01*
X342325Y155287D01*
X344424D01*
X445179Y208017D02*
X444654Y208542D01*
X443605D01*
X443080Y208017D01*
Y205918D01*
X443605Y205394D01*
X444654D01*
X445179Y205918D01*
X446229Y205394D02*
X447278D01*
X446754D01*
Y208542D01*
X446229Y208017D01*
X448852Y205394D02*
X449902D01*
X449377D01*
Y208542D01*
X448852Y208017D01*
X411616Y196852D02*
X411091Y197377D01*
X410042D01*
X409517Y196852D01*
Y194753D01*
X410042Y194228D01*
X411091D01*
X411616Y194753D01*
X412666Y194228D02*
X413715D01*
X413191D01*
Y197377D01*
X412666Y196852D01*
X417389Y194228D02*
X415290D01*
X417389Y196327D01*
Y196852D01*
X416864Y197377D01*
X415814D01*
X415290Y196852D01*
X420147Y99247D02*
Y96623D01*
X420672Y96099D01*
X421722D01*
X422246Y96623D01*
Y99247D01*
X423296Y96099D02*
X424345D01*
X423821D01*
Y99247D01*
X423296Y98722D01*
X485009Y187929D02*
Y191078D01*
X486584D01*
X487108Y190553D01*
Y189503D01*
X486584Y188979D01*
X485009D01*
X486059D02*
X487108Y187929D01*
X490257D02*
X488158D01*
X490257Y190028D01*
Y190553D01*
X489732Y191078D01*
X488683D01*
X488158Y190553D01*
X491306D02*
X491831Y191078D01*
X492881D01*
X493405Y190553D01*
Y190028D01*
X492881Y189503D01*
X492356D01*
X492881D01*
X493405Y188979D01*
Y188454D01*
X492881Y187929D01*
X491831D01*
X491306Y188454D01*
X523493Y189307D02*
Y192456D01*
X525068D01*
X525593Y191931D01*
Y190881D01*
X525068Y190357D01*
X523493D01*
X524543D02*
X525593Y189307D01*
X528741D02*
X526642D01*
X528741Y191406D01*
Y191931D01*
X528216Y192456D01*
X527167D01*
X526642Y191931D01*
X531890Y189307D02*
X529791D01*
X531890Y191406D01*
Y191931D01*
X531365Y192456D01*
X530315D01*
X529791Y191931D01*
X523395Y173854D02*
Y177003D01*
X524969D01*
X525494Y176478D01*
Y175429D01*
X524969Y174904D01*
X523395D01*
X524445D02*
X525494Y173854D01*
X528643D02*
X526544D01*
X528643Y175953D01*
Y176478D01*
X528118Y177003D01*
X527069D01*
X526544Y176478D01*
X529692Y173854D02*
X530742D01*
X530217D01*
Y177003D01*
X529692Y176478D01*
X484616Y217850D02*
Y220999D01*
X486190D01*
X486715Y220474D01*
Y219425D01*
X486190Y218900D01*
X484616D01*
X485665D02*
X486715Y217850D01*
X489863D02*
X487764D01*
X489863Y219950D01*
Y220474D01*
X489338Y220999D01*
X488289D01*
X487764Y220474D01*
X490913D02*
X491437Y220999D01*
X492487D01*
X493012Y220474D01*
Y218375D01*
X492487Y217850D01*
X491437D01*
X490913Y218375D01*
Y220474D01*
X485403Y181728D02*
Y184877D01*
X486977D01*
X487502Y184352D01*
Y183303D01*
X486977Y182778D01*
X485403D01*
X486453D02*
X487502Y181728D01*
X488552D02*
X489601D01*
X489077D01*
Y184877D01*
X488552Y184352D01*
X491176Y182253D02*
X491700Y181728D01*
X492750D01*
X493275Y182253D01*
Y184352D01*
X492750Y184877D01*
X491700D01*
X491176Y184352D01*
Y183827D01*
X491700Y183303D01*
X493275D01*
X320442Y222083D02*
X323591D01*
Y220508D01*
X323066Y219984D01*
X322017D01*
X321492Y220508D01*
Y222083D01*
Y221033D02*
X320442Y219984D01*
Y218934D02*
Y217885D01*
Y218409D01*
X323591D01*
X323066Y218934D01*
Y216310D02*
X323591Y215786D01*
Y214736D01*
X323066Y214211D01*
X322541D01*
X322017Y214736D01*
X321492Y214211D01*
X320967D01*
X320442Y214736D01*
Y215786D01*
X320967Y216310D01*
X321492D01*
X322017Y215786D01*
X322541Y216310D01*
X323066D01*
X322017Y215786D02*
Y214736D01*
X389832Y149839D02*
X392981D01*
Y148264D01*
X392456Y147740D01*
X391406D01*
X390882Y148264D01*
Y149839D01*
Y148789D02*
X389832Y147740D01*
Y146690D02*
Y145641D01*
Y146165D01*
X392981D01*
X392456Y146690D01*
X392981Y144066D02*
Y141967D01*
X392456D01*
X390357Y144066D01*
X389832D01*
X378808Y140587D02*
Y143735D01*
X380383D01*
X380908Y143210D01*
Y142161D01*
X380383Y141636D01*
X378808D01*
X379858D02*
X380908Y140587D01*
X381957D02*
X383007D01*
X382482D01*
Y143735D01*
X381957Y143210D01*
X386680Y143735D02*
X385630Y143210D01*
X384581Y142161D01*
Y141111D01*
X385106Y140587D01*
X386155D01*
X386680Y141111D01*
Y141636D01*
X386155Y142161D01*
X384581D01*
X378021Y139012D02*
X381170D01*
Y137437D01*
X380645Y136913D01*
X379595D01*
X379071Y137437D01*
Y139012D01*
Y137962D02*
X378021Y136913D01*
Y135863D02*
Y134814D01*
Y135338D01*
X381170D01*
X380645Y135863D01*
X381170Y131140D02*
Y133239D01*
X379595D01*
X380120Y132190D01*
Y131665D01*
X379595Y131140D01*
X378546D01*
X378021Y131665D01*
Y132715D01*
X378546Y133239D01*
X377824Y192358D02*
X380973D01*
Y190784D01*
X380448Y190259D01*
X379398D01*
X378874Y190784D01*
Y192358D01*
Y191309D02*
X377824Y190259D01*
Y189210D02*
Y188160D01*
Y188685D01*
X380973D01*
X380448Y189210D01*
X377824Y185012D02*
X380973D01*
X379398Y186586D01*
Y184487D01*
X395541Y181925D02*
X398689D01*
Y180351D01*
X398165Y179826D01*
X397115D01*
X396590Y180351D01*
Y181925D01*
Y180876D02*
X395541Y179826D01*
Y178777D02*
Y177727D01*
Y178252D01*
X398689D01*
X398165Y178777D01*
Y176153D02*
X398689Y175628D01*
Y174578D01*
X398165Y174054D01*
X397640D01*
X397115Y174578D01*
Y175103D01*
Y174578D01*
X396590Y174054D01*
X396065D01*
X395541Y174578D01*
Y175628D01*
X396065Y176153D01*
X384123Y192457D02*
X387272D01*
Y190882D01*
X386747Y190358D01*
X385698D01*
X385173Y190882D01*
Y192457D01*
Y191407D02*
X384123Y190358D01*
Y189308D02*
Y188259D01*
Y188783D01*
X387272D01*
X386747Y189308D01*
X384123Y184585D02*
Y186684D01*
X386223Y184585D01*
X386747D01*
X387272Y185110D01*
Y186160D01*
X386747Y186684D01*
X341997Y197575D02*
X345146D01*
Y196001D01*
X344621Y195476D01*
X343572D01*
X343047Y196001D01*
Y197575D01*
Y196525D02*
X341997Y195476D01*
Y194426D02*
Y193377D01*
Y193902D01*
X345146D01*
X344621Y194426D01*
X341997Y191802D02*
Y190753D01*
Y191278D01*
X345146D01*
X344621Y191802D01*
X361781Y194808D02*
Y197957D01*
X363355D01*
X363880Y197432D01*
Y196382D01*
X363355Y195858D01*
X361781D01*
X362830D02*
X363880Y194808D01*
X364930Y195333D02*
X365454Y194808D01*
X366504D01*
X367029Y195333D01*
Y197432D01*
X366504Y197957D01*
X365454D01*
X364930Y197432D01*
Y196907D01*
X365454Y196382D01*
X367029D01*
X347804Y194720D02*
Y197869D01*
X349379D01*
X349904Y197344D01*
Y196295D01*
X349379Y195770D01*
X347804D01*
X348854D02*
X349904Y194720D01*
X350953Y197344D02*
X351478Y197869D01*
X352527D01*
X353052Y197344D01*
Y196820D01*
X352527Y196295D01*
X353052Y195770D01*
Y195245D01*
X352527Y194720D01*
X351478D01*
X350953Y195245D01*
Y195770D01*
X351478Y196295D01*
X350953Y196820D01*
Y197344D01*
X351478Y196295D02*
X352527D01*
X354990Y194720D02*
Y197869D01*
X356564D01*
X357089Y197344D01*
Y196295D01*
X356564Y195770D01*
X354990D01*
X356039D02*
X357089Y194720D01*
X358138Y197869D02*
X360237D01*
Y197344D01*
X358138Y195245D01*
Y194720D01*
X396426Y96787D02*
X399575D01*
Y95213D01*
X399050Y94688D01*
X398001D01*
X397476Y95213D01*
Y96787D01*
Y95738D02*
X396426Y94688D01*
X399575Y91540D02*
Y93639D01*
X398001D01*
X398525Y92589D01*
Y92064D01*
X398001Y91540D01*
X396951D01*
X396426Y92064D01*
Y93114D01*
X396951Y93639D01*
X464458Y88402D02*
Y91550D01*
X466032D01*
X466557Y91025D01*
Y89976D01*
X466032Y89451D01*
X464458D01*
X465508D02*
X466557Y88402D01*
X469181D02*
Y91550D01*
X467607Y89976D01*
X469706D01*
X419852Y152399D02*
Y155548D01*
X421426D01*
X421951Y155023D01*
Y153974D01*
X421426Y153449D01*
X419852D01*
X420901D02*
X421951Y152399D01*
X423001Y155023D02*
X423525Y155548D01*
X424575D01*
X425100Y155023D01*
Y154499D01*
X424575Y153974D01*
X424050D01*
X424575D01*
X425100Y153449D01*
Y152924D01*
X424575Y152399D01*
X423525D01*
X423001Y152924D01*
X430017Y152299D02*
Y155448D01*
X431591D01*
X432116Y154923D01*
Y153874D01*
X431591Y153349D01*
X430017D01*
X431066D02*
X432116Y152299D01*
X435264D02*
X433165D01*
X435264Y154398D01*
Y154923D01*
X434739Y155448D01*
X433690D01*
X433165Y154923D01*
X440863Y152299D02*
Y155448D01*
X442438D01*
X442962Y154923D01*
Y153874D01*
X442438Y153349D01*
X440863D01*
X441913D02*
X442962Y152299D01*
X444012D02*
X445061D01*
X444537D01*
Y155448D01*
X444012Y154923D01*
X395967Y120934D02*
Y123033D01*
X395442Y123558D01*
X394392D01*
X393868Y123033D01*
Y120934D01*
X394392Y120410D01*
X395442D01*
X394917Y121459D02*
X395967Y120410D01*
X395442D02*
X395967Y120934D01*
X397016Y120410D02*
X398066D01*
X397541D01*
Y123558D01*
X397016Y123033D01*
X437864Y229759D02*
Y226610D01*
Y227660D01*
X439963Y229759D01*
X438389Y228185D01*
X439963Y226610D01*
X443112D02*
X441012D01*
X443112Y228709D01*
Y229234D01*
X442587Y229759D01*
X441537D01*
X441012Y229234D01*
X410403Y233007D02*
Y229858D01*
Y230908D01*
X412502Y233007D01*
X410928Y231433D01*
X412502Y229858D01*
X413552D02*
X414601D01*
X414077D01*
Y233007D01*
X413552Y232482D01*
X490128Y159778D02*
X491177D01*
X490652D01*
Y156630D01*
X490128D01*
X491177D01*
X494850Y159254D02*
X494326Y159778D01*
X493276D01*
X492751Y159254D01*
Y157155D01*
X493276Y156630D01*
X494326D01*
X494850Y157155D01*
X497999Y156630D02*
X495900D01*
X497999Y158729D01*
Y159254D01*
X497474Y159778D01*
X496425D01*
X495900Y159254D01*
X357450Y165232D02*
X358500D01*
X357975D01*
Y162083D01*
X357450D01*
X358500D01*
X362173Y164707D02*
X361648Y165232D01*
X360599D01*
X360074Y164707D01*
Y162608D01*
X360599Y162083D01*
X361648D01*
X362173Y162608D01*
X363223Y162083D02*
X364272D01*
X363747D01*
Y165232D01*
X363223Y164707D01*
X473394Y228579D02*
X470246D01*
Y227004D01*
X470771Y226480D01*
X472869D01*
X473394Y227004D01*
Y228579D01*
X470246Y225430D02*
Y224381D01*
Y224905D01*
X473394D01*
X472869Y225430D01*
X525822Y217228D02*
X526347Y217753D01*
Y218802D01*
X525822Y219327D01*
X523723D01*
X523198Y218802D01*
Y217753D01*
X523723Y217228D01*
X523198Y214079D02*
Y216178D01*
X525297Y214079D01*
X525822D01*
X526347Y214604D01*
Y215653D01*
X525822Y216178D01*
X523198Y210930D02*
Y213030D01*
X525297Y210930D01*
X525822D01*
X526347Y211455D01*
Y212505D01*
X525822Y213030D01*
X485238Y202069D02*
X484714Y202593D01*
X483664D01*
X483139Y202069D01*
Y199970D01*
X483664Y199445D01*
X484714D01*
X485238Y199970D01*
X488387Y199445D02*
X486288D01*
X488387Y201544D01*
Y202069D01*
X487862Y202593D01*
X486813D01*
X486288Y202069D01*
X489436D02*
X489961Y202593D01*
X491011D01*
X491535Y202069D01*
Y199970D01*
X491011Y199445D01*
X489961D01*
X489436Y199970D01*
Y202069D01*
X526281Y143899D02*
X525757Y144424D01*
X524707D01*
X524183Y143899D01*
Y141800D01*
X524707Y141276D01*
X525757D01*
X526281Y141800D01*
X529430Y141276D02*
X527331D01*
X529430Y143375D01*
Y143899D01*
X528905Y144424D01*
X527856D01*
X527331Y143899D01*
X530480Y141276D02*
X531529D01*
X531004D01*
Y144424D01*
X530480Y143899D01*
X531400Y184155D02*
X530875Y184680D01*
X529825D01*
X529301Y184155D01*
Y182056D01*
X529825Y181532D01*
X530875D01*
X531400Y182056D01*
X532449Y181532D02*
X533499D01*
X532974D01*
Y184680D01*
X532449Y184155D01*
X535073Y182056D02*
X535598Y181532D01*
X536647D01*
X537172Y182056D01*
Y184155D01*
X536647Y184680D01*
X535598D01*
X535073Y184155D01*
Y183631D01*
X535598Y183106D01*
X537172D01*
X487502Y178053D02*
X486977Y178578D01*
X485928D01*
X485403Y178053D01*
Y175954D01*
X485928Y175429D01*
X486977D01*
X487502Y175954D01*
X488552Y175429D02*
X489601D01*
X489076D01*
Y178578D01*
X488552Y178053D01*
X491175D02*
X491700Y178578D01*
X492750D01*
X493274Y178053D01*
Y177528D01*
X492750Y177003D01*
X493274Y176479D01*
Y175954D01*
X492750Y175429D01*
X491700D01*
X491175Y175954D01*
Y176479D01*
X491700Y177003D01*
X491175Y177528D01*
Y178053D01*
X491700Y177003D02*
X492750D01*
X386649Y136716D02*
X387174Y137241D01*
Y138290D01*
X386649Y138815D01*
X384550D01*
X384025Y138290D01*
Y137241D01*
X384550Y136716D01*
X384025Y135666D02*
Y134617D01*
Y135142D01*
X387174D01*
X386649Y135666D01*
X387174Y133043D02*
Y130944D01*
X386649D01*
X384550Y133043D01*
X384025D01*
X367719Y142226D02*
X367194Y142751D01*
X366144D01*
X365619Y142226D01*
Y140127D01*
X366144Y139602D01*
X367194D01*
X367719Y140127D01*
X368768Y139602D02*
X369818D01*
X369293D01*
Y142751D01*
X368768Y142226D01*
X373491Y142751D02*
X372441Y142226D01*
X371392Y141177D01*
Y140127D01*
X371917Y139602D01*
X372966D01*
X373491Y140127D01*
Y140652D01*
X372966Y141177D01*
X371392D01*
X396951Y167578D02*
X396426Y168103D01*
X395376D01*
X394852Y167578D01*
Y165479D01*
X395376Y164955D01*
X396426D01*
X396951Y165479D01*
X398000Y164955D02*
X399050D01*
X398525D01*
Y168103D01*
X398000Y167578D01*
X402723Y168103D02*
X400624D01*
Y166529D01*
X401674Y167054D01*
X402199D01*
X402723Y166529D01*
Y165479D01*
X402199Y164955D01*
X401149D01*
X400624Y165479D01*
X318014Y193433D02*
X317489Y193958D01*
X316440D01*
X315915Y193433D01*
Y191334D01*
X316440Y190810D01*
X317489D01*
X318014Y191334D01*
X319063Y190810D02*
X320113D01*
X319588D01*
Y193958D01*
X319063Y193433D01*
X323261Y190810D02*
Y193958D01*
X321687Y192384D01*
X323786D01*
X369195Y178644D02*
X368670Y179168D01*
X367621D01*
X367096Y178644D01*
Y176544D01*
X367621Y176020D01*
X368670D01*
X369195Y176544D01*
X370245Y176020D02*
X371294D01*
X370769D01*
Y179168D01*
X370245Y178644D01*
X372868D02*
X373393Y179168D01*
X374443D01*
X374967Y178644D01*
Y178119D01*
X374443Y177594D01*
X373918D01*
X374443D01*
X374967Y177069D01*
Y176544D01*
X374443Y176020D01*
X373393D01*
X372868Y176544D01*
X471787Y117425D02*
X472311Y117949D01*
Y118999D01*
X471787Y119524D01*
X469688D01*
X469163Y118999D01*
Y117949D01*
X469688Y117425D01*
X469163Y116375D02*
Y115325D01*
Y115850D01*
X472311D01*
X471787Y116375D01*
Y113751D02*
X472311Y113226D01*
Y112177D01*
X471787Y111652D01*
X469688D01*
X469163Y112177D01*
Y113226D01*
X469688Y113751D01*
X471787D01*
X445310Y111913D02*
X445835Y112437D01*
Y113487D01*
X445310Y114012D01*
X443211D01*
X442686Y113487D01*
Y112437D01*
X443211Y111913D01*
Y110863D02*
X442686Y110338D01*
Y109289D01*
X443211Y108764D01*
X445310D01*
X445835Y109289D01*
Y110338D01*
X445310Y110863D01*
X444785D01*
X444261Y110338D01*
Y108764D01*
X491373Y114866D02*
X491898Y115390D01*
Y116440D01*
X491373Y116965D01*
X489274D01*
X488749Y116440D01*
Y115390D01*
X489274Y114866D01*
X491373Y113816D02*
X491898Y113291D01*
Y112242D01*
X491373Y111717D01*
X490848D01*
X490324Y112242D01*
X489799Y111717D01*
X489274D01*
X488749Y112242D01*
Y113291D01*
X489274Y113816D01*
X489799D01*
X490324Y113291D01*
X490848Y113816D01*
X491373D01*
X490324Y113291D02*
Y112242D01*
X451577Y121065D02*
X451052Y121590D01*
X450003D01*
X449478Y121065D01*
Y118966D01*
X450003Y118441D01*
X451052D01*
X451577Y118966D01*
X452627Y121590D02*
X454726D01*
Y121065D01*
X452627Y118966D01*
Y118441D01*
X519129Y116932D02*
X519654Y117457D01*
Y118507D01*
X519129Y119032D01*
X517030D01*
X516506Y118507D01*
Y117457D01*
X517030Y116932D01*
X519654Y113784D02*
X519129Y114833D01*
X518080Y115883D01*
X517030D01*
X516506Y115358D01*
Y114309D01*
X517030Y113784D01*
X517555D01*
X518080Y114309D01*
Y115883D01*
X489569Y142029D02*
X489044Y142554D01*
X487995D01*
X487470Y142029D01*
Y139930D01*
X487995Y139406D01*
X489044D01*
X489569Y139930D01*
X492718Y142554D02*
X490619D01*
Y140980D01*
X491668Y141505D01*
X492193D01*
X492718Y140980D01*
Y139930D01*
X492193Y139406D01*
X491144D01*
X490619Y139930D01*
X353348Y143801D02*
X352824Y144326D01*
X351774D01*
X351249Y143801D01*
Y141702D01*
X351774Y141177D01*
X352824D01*
X353348Y141702D01*
X355972Y141177D02*
Y144326D01*
X354398Y142752D01*
X356497D01*
X448637Y170476D02*
X449162Y171001D01*
Y172050D01*
X448637Y172575D01*
X446538D01*
X446013Y172050D01*
Y171001D01*
X446538Y170476D01*
X448637Y169426D02*
X449162Y168902D01*
Y167852D01*
X448637Y167327D01*
X448112D01*
X447588Y167852D01*
Y168377D01*
Y167852D01*
X447063Y167327D01*
X446538D01*
X446013Y167852D01*
Y168902D01*
X446538Y169426D01*
X418539Y138783D02*
X419063Y139308D01*
Y140357D01*
X418539Y140882D01*
X416439D01*
X415915Y140357D01*
Y139308D01*
X416439Y138783D01*
X415915Y135634D02*
Y137733D01*
X418014Y135634D01*
X418539D01*
X419063Y136159D01*
Y137208D01*
X418539Y137733D01*
X470868Y181990D02*
X470344Y182515D01*
X469294D01*
X468769Y181990D01*
Y179891D01*
X469294Y179366D01*
X470344D01*
X470868Y179891D01*
X471918Y179366D02*
X472967D01*
X472443D01*
Y182515D01*
X471918Y181990D01*
X468503Y331764D02*
X467453D01*
X466928Y331240D01*
Y329140D01*
X467453Y328616D01*
X468503D01*
X469028Y329140D01*
Y331240D01*
X468503Y331764D01*
X470077D02*
Y329140D01*
X470602Y328616D01*
X471651D01*
X472176Y329140D01*
Y331764D01*
X473226D02*
X475325D01*
X474275D01*
Y328616D01*
X476374D02*
Y331764D01*
X477949D01*
X478473Y331240D01*
Y330190D01*
X477949Y329665D01*
X476374D01*
X479523Y331764D02*
Y329140D01*
X480048Y328616D01*
X481097D01*
X481622Y329140D01*
Y331764D01*
X482671D02*
X484770D01*
X483721D01*
Y328616D01*
X360209Y331764D02*
X361259D01*
X360734D01*
Y328616D01*
X360209D01*
X361259D01*
X362833D02*
Y331764D01*
X364932Y328616D01*
Y331764D01*
X365982Y328616D02*
Y331764D01*
X367556D01*
X368081Y331240D01*
Y330190D01*
X367556Y329665D01*
X365982D01*
X369130Y331764D02*
Y329140D01*
X369655Y328616D01*
X370705D01*
X371230Y329140D01*
Y331764D01*
X372279D02*
X374378D01*
X373329D01*
Y328616D01*
D47*
X99359Y205940D02*
X98047D01*
X97391Y205284D01*
Y202660D01*
X98047Y202004D01*
X99359D01*
X100015Y202660D01*
Y205284D01*
X99359Y205940D01*
X101327Y202004D02*
Y205940D01*
X103951Y202004D01*
Y205940D01*
X105263Y203972D02*
X107886D01*
X111166Y205940D02*
X109854D01*
X109198Y205284D01*
Y202660D01*
X109854Y202004D01*
X111166D01*
X111822Y202660D01*
Y205284D01*
X111166Y205940D01*
X115758D02*
X113134D01*
Y203972D01*
X114446D01*
X113134D01*
Y202004D01*
X119694Y205940D02*
X117070D01*
Y203972D01*
X118382D01*
X117070D01*
Y202004D01*
X178310Y76610D02*
Y80546D01*
X179621Y79234D01*
X180933Y80546D01*
Y76610D01*
X184213Y80546D02*
X182901D01*
X182245Y79890D01*
Y77266D01*
X182901Y76610D01*
X184213D01*
X184869Y77266D01*
Y79890D01*
X184213Y80546D01*
X186181D02*
Y76610D01*
X188149D01*
X188805Y77266D01*
Y79890D01*
X188149Y80546D01*
X186181D01*
X192740D02*
X190117D01*
Y76610D01*
X192740D01*
X190117Y78578D02*
X191429D01*
X97194Y214306D02*
Y210370D01*
X99162D01*
X99818Y211026D01*
Y211682D01*
X99162Y212338D01*
X97194D01*
X99162D01*
X99818Y212994D01*
Y213650D01*
X99162Y214306D01*
X97194D01*
X101130D02*
Y211026D01*
X101786Y210370D01*
X103098D01*
X103754Y211026D01*
Y214306D01*
X107690D02*
X105066D01*
Y212338D01*
X106378D01*
X105066D01*
Y210370D01*
X111625Y214306D02*
X109002D01*
Y212338D01*
X110313D01*
X109002D01*
Y210370D01*
X115561Y214306D02*
X112937D01*
Y210370D01*
X115561D01*
X112937Y212338D02*
X114249D01*
X116873Y210370D02*
Y214306D01*
X118841D01*
X119497Y213650D01*
Y212338D01*
X118841Y211682D01*
X116873D01*
X118185D02*
X119497Y210370D01*
X204478Y97685D02*
Y93749D01*
X206446D01*
X207102Y94405D01*
Y95061D01*
X206446Y95717D01*
X204478D01*
X206446D01*
X207102Y96373D01*
Y97029D01*
X206446Y97685D01*
X204478D01*
X208414Y93749D02*
Y97685D01*
X210381D01*
X211037Y97029D01*
Y95717D01*
X210381Y95061D01*
X208414D01*
X209725D02*
X211037Y93749D01*
X212349Y97685D02*
X213661D01*
X213005D01*
Y93749D01*
X212349D01*
X213661D01*
X218253Y97029D02*
X217597Y97685D01*
X216285D01*
X215629Y97029D01*
Y94405D01*
X216285Y93749D01*
X217597D01*
X218253Y94405D01*
Y95717D01*
X216941D01*
X219565Y97685D02*
Y93749D01*
Y95717D01*
X222189D01*
Y97685D01*
Y93749D01*
X223500Y97685D02*
X226124D01*
X224812D01*
Y93749D01*
X371229Y205940D02*
X369917D01*
X369261Y205284D01*
Y202660D01*
X369917Y202004D01*
X371229D01*
X371885Y202660D01*
Y205284D01*
X371229Y205940D01*
X373197Y202004D02*
Y205940D01*
X375821Y202004D01*
Y205940D01*
X377133Y203972D02*
X379756D01*
X383036Y205940D02*
X381724D01*
X381068Y205284D01*
Y202660D01*
X381724Y202004D01*
X383036D01*
X383692Y202660D01*
Y205284D01*
X383036Y205940D01*
X387628D02*
X385004D01*
Y203972D01*
X386316D01*
X385004D01*
Y202004D01*
X391564Y205940D02*
X388940D01*
Y203972D01*
X390252D01*
X388940D01*
Y202004D01*
X450180Y76610D02*
Y80546D01*
X451491Y79234D01*
X452803Y80546D01*
Y76610D01*
X456083Y80546D02*
X454771D01*
X454115Y79890D01*
Y77266D01*
X454771Y76610D01*
X456083D01*
X456739Y77266D01*
Y79890D01*
X456083Y80546D01*
X458051D02*
Y76610D01*
X460019D01*
X460675Y77266D01*
Y79890D01*
X460019Y80546D01*
X458051D01*
X464611D02*
X461987D01*
Y76610D01*
X464611D01*
X461987Y78578D02*
X463299D01*
X369064Y214306D02*
Y210370D01*
X371032D01*
X371688Y211026D01*
Y211682D01*
X371032Y212338D01*
X369064D01*
X371032D01*
X371688Y212994D01*
Y213650D01*
X371032Y214306D01*
X369064D01*
X373000D02*
Y211026D01*
X373656Y210370D01*
X374968D01*
X375624Y211026D01*
Y214306D01*
X379560D02*
X376936D01*
Y212338D01*
X378248D01*
X376936D01*
Y210370D01*
X383495Y214306D02*
X380872D01*
Y212338D01*
X382184D01*
X380872D01*
Y210370D01*
X387431Y214306D02*
X384807D01*
Y210370D01*
X387431D01*
X384807Y212338D02*
X386119D01*
X388743Y210370D02*
Y214306D01*
X390711D01*
X391367Y213650D01*
Y212338D01*
X390711Y211682D01*
X388743D01*
X390055D02*
X391367Y210370D01*
X476348Y97685D02*
Y93749D01*
X478316D01*
X478972Y94405D01*
Y95061D01*
X478316Y95717D01*
X476348D01*
X478316D01*
X478972Y96373D01*
Y97029D01*
X478316Y97685D01*
X476348D01*
X480284Y93749D02*
Y97685D01*
X482252D01*
X482907Y97029D01*
Y95717D01*
X482252Y95061D01*
X480284D01*
X481596D02*
X482907Y93749D01*
X484219Y97685D02*
X485531D01*
X484875D01*
Y93749D01*
X484219D01*
X485531D01*
X490123Y97029D02*
X489467Y97685D01*
X488155D01*
X487499Y97029D01*
Y94405D01*
X488155Y93749D01*
X489467D01*
X490123Y94405D01*
Y95717D01*
X488811D01*
X491435Y97685D02*
Y93749D01*
Y95717D01*
X494059D01*
Y97685D01*
Y93749D01*
X495371Y97685D02*
X497994D01*
X496683D01*
Y93749D01*
D48*
X152657Y207614D02*
D03*
X424527D02*
D03*
D49*
X191388Y220780D02*
D03*
X463258D02*
D03*
M02*
