G04*
G04 #@! TF.GenerationSoftware,Altium Limited,Altium Designer,19.1.6 (110)*
G04*
G04 Layer_Color=16711935*
%FSLAX25Y25*%
%MOIN*%
G70*
G01*
G75*
%ADD10C,0.11811*%
%ADD33C,0.01968*%
%ADD71C,0.06591*%
%ADD72C,0.07191*%
%ADD73R,0.05315X0.05315*%
%ADD74C,0.05315*%
%ADD75C,0.07678*%
%ADD76C,0.06890*%
%ADD77C,0.08859*%
%ADD78C,0.03347*%
%ADD79C,0.04091*%
D10*
X11811Y11811D02*
D03*
X578740D02*
D03*
Y381890D02*
D03*
X11811Y381890D02*
D03*
D33*
X312205Y280807D02*
D03*
Y276870D02*
D03*
Y272933D02*
D03*
Y265059D02*
D03*
Y268996D02*
D03*
X312106Y93996D02*
D03*
Y90059D02*
D03*
Y97933D02*
D03*
Y101870D02*
D03*
Y105807D02*
D03*
X545571Y268996D02*
D03*
Y265059D02*
D03*
Y272933D02*
D03*
Y276870D02*
D03*
Y280807D02*
D03*
X545571Y93996D02*
D03*
Y90059D02*
D03*
Y97933D02*
D03*
Y101870D02*
D03*
Y105807D02*
D03*
X273622Y105807D02*
D03*
Y101870D02*
D03*
Y97933D02*
D03*
Y90059D02*
D03*
Y93996D02*
D03*
X273622Y280807D02*
D03*
Y276870D02*
D03*
Y272933D02*
D03*
Y265059D02*
D03*
Y268996D02*
D03*
X40157Y105807D02*
D03*
Y101870D02*
D03*
Y97933D02*
D03*
Y90059D02*
D03*
Y93996D02*
D03*
X40256Y268996D02*
D03*
Y265059D02*
D03*
Y272933D02*
D03*
Y276870D02*
D03*
Y280807D02*
D03*
D71*
X161958Y265882D02*
D03*
X151958D02*
D03*
X77891Y73362D02*
D03*
X67891D02*
D03*
X249977Y73362D02*
D03*
X239977D02*
D03*
X433828Y265882D02*
D03*
X423828D02*
D03*
X349761Y73362D02*
D03*
X339761D02*
D03*
X521847Y73362D02*
D03*
X511847D02*
D03*
D72*
X144773Y69582D02*
D03*
X134773D02*
D03*
X154773D02*
D03*
X164773D02*
D03*
X180483Y69622D02*
D03*
X190483D02*
D03*
X416643Y69582D02*
D03*
X406643D02*
D03*
X426643D02*
D03*
X436643D02*
D03*
X452353Y69622D02*
D03*
X462354D02*
D03*
D73*
X225147Y77890D02*
D03*
X497017D02*
D03*
D74*
X215147Y67890D02*
D03*
X205147Y77890D02*
D03*
X487017Y67890D02*
D03*
X477017Y77890D02*
D03*
D75*
X249698Y225016D02*
D03*
X229698D02*
D03*
X209698D02*
D03*
X104198D02*
D03*
X84198D02*
D03*
X64198D02*
D03*
X521568D02*
D03*
X501569D02*
D03*
X481568D02*
D03*
X376068D02*
D03*
X356068D02*
D03*
X336069D02*
D03*
D76*
X76820Y202693D02*
D03*
X86663D02*
D03*
X66978D02*
D03*
Y215291D02*
D03*
X86663D02*
D03*
X76820D02*
D03*
X348691Y202693D02*
D03*
X358533D02*
D03*
X338848D02*
D03*
Y215291D02*
D03*
X358533D02*
D03*
X348691D02*
D03*
D77*
X179609Y296616D02*
D03*
X243507D02*
D03*
X179609Y321616D02*
D03*
X243507D02*
D03*
X179609Y271616D02*
D03*
X243507D02*
D03*
X70390Y296616D02*
D03*
X134288D02*
D03*
X70390Y321616D02*
D03*
X134288D02*
D03*
X70390Y271616D02*
D03*
X134288D02*
D03*
X451479Y296616D02*
D03*
X515378D02*
D03*
X451479Y321616D02*
D03*
X515378D02*
D03*
X451479Y271616D02*
D03*
X515378D02*
D03*
X342261Y296616D02*
D03*
X406158D02*
D03*
X342261Y321616D02*
D03*
X406158D02*
D03*
X342261Y271616D02*
D03*
X406158D02*
D03*
D78*
X166670Y256471D02*
D03*
X219498Y335516D02*
D03*
X44498Y260516D02*
D03*
X119498Y60516D02*
D03*
X144498Y335516D02*
D03*
X269498Y260516D02*
D03*
X44498Y85516D02*
D03*
X269498Y310516D02*
D03*
X244498Y60516D02*
D03*
X269498Y85516D02*
D03*
X44498Y110516D02*
D03*
X94498Y335516D02*
D03*
X244498Y310516D02*
D03*
X44498D02*
D03*
X69498Y60516D02*
D03*
X44498Y235516D02*
D03*
X69498Y335516D02*
D03*
X269498Y185516D02*
D03*
X144498Y60516D02*
D03*
X269498Y110516D02*
D03*
X194498Y335516D02*
D03*
X44498Y135516D02*
D03*
Y60516D02*
D03*
X269498Y135516D02*
D03*
Y160516D02*
D03*
X219498Y60516D02*
D03*
X269498Y235516D02*
D03*
X194498Y60516D02*
D03*
X244498Y335516D02*
D03*
X44498Y160516D02*
D03*
X169498Y335516D02*
D03*
X269498Y285516D02*
D03*
X94498Y60516D02*
D03*
X44498Y185516D02*
D03*
X119498Y335516D02*
D03*
X44498Y210516D02*
D03*
Y285516D02*
D03*
X69498Y310516D02*
D03*
X269498Y210516D02*
D03*
X169498Y60516D02*
D03*
X269498D02*
D03*
X189676Y251315D02*
D03*
X128789Y127988D02*
D03*
X136860Y207614D02*
D03*
X138768Y133992D02*
D03*
X145029Y215784D02*
D03*
X54478Y224642D02*
D03*
X50442Y199346D02*
D03*
X119734Y186650D02*
D03*
Y242555D02*
D03*
X93817Y159413D02*
D03*
X161761Y251315D02*
D03*
X438540Y256471D02*
D03*
X491368Y335516D02*
D03*
X316369Y260516D02*
D03*
X391369Y60516D02*
D03*
X416368Y335516D02*
D03*
X541368Y260516D02*
D03*
X316369Y85516D02*
D03*
X541368Y310516D02*
D03*
X516368Y60516D02*
D03*
X541368Y85516D02*
D03*
X316369Y110516D02*
D03*
X366369Y335516D02*
D03*
X516368Y310516D02*
D03*
X316369D02*
D03*
X341369Y60516D02*
D03*
X316369Y235516D02*
D03*
X341369Y335516D02*
D03*
X541368Y185516D02*
D03*
X416368Y60516D02*
D03*
X541368Y110516D02*
D03*
X466368Y335516D02*
D03*
X316369Y135516D02*
D03*
Y60516D02*
D03*
X541368Y135516D02*
D03*
Y160516D02*
D03*
X491368Y60516D02*
D03*
X541368Y235516D02*
D03*
X466368Y60516D02*
D03*
X516368Y335516D02*
D03*
X316369Y160516D02*
D03*
X441368Y335516D02*
D03*
X541368Y285516D02*
D03*
X366369Y60516D02*
D03*
X316369Y185516D02*
D03*
X391369Y335516D02*
D03*
X316369Y210516D02*
D03*
Y285516D02*
D03*
X341369Y310516D02*
D03*
X541368Y210516D02*
D03*
X441368Y60516D02*
D03*
X541368D02*
D03*
X461546Y251315D02*
D03*
X400659Y127988D02*
D03*
X408730Y207614D02*
D03*
X410638Y133992D02*
D03*
X416899Y215784D02*
D03*
X326348Y224642D02*
D03*
X322312Y199346D02*
D03*
X391604Y186650D02*
D03*
Y242555D02*
D03*
X365687Y159413D02*
D03*
X433632Y251315D02*
D03*
D79*
X214911Y123658D02*
D03*
X98234Y191177D02*
D03*
X131985Y177201D02*
D03*
X182098Y159681D02*
D03*
Y195803D02*
D03*
X486781Y123658D02*
D03*
X370104Y191177D02*
D03*
X403856Y177201D02*
D03*
X453968Y159681D02*
D03*
Y195803D02*
D03*
M02*
