G04*
G04 #@! TF.GenerationSoftware,Altium Limited,Altium Designer,19.0.12 (326)*
G04*
G04 Layer_Color=65535*
%FSLAX25Y25*%
%MOIN*%
G70*
G01*
G75*
%ADD10C,0.00600*%
%ADD11C,0.01000*%
%ADD12C,0.00500*%
%ADD13C,0.00787*%
%ADD14C,0.00800*%
%ADD15R,0.02000X0.08000*%
%ADD16R,0.02000X0.10000*%
G36*
X215164Y99469D02*
X215588D01*
Y99328D01*
X215729D01*
Y99186D01*
X215871D01*
Y99045D01*
X216012D01*
Y98763D01*
X216153D01*
Y97632D01*
X216012D01*
Y97491D01*
X215871D01*
Y97208D01*
X215588D01*
Y97067D01*
X215447D01*
Y96926D01*
X215305D01*
Y96785D01*
X215729D01*
Y96926D01*
X215871D01*
Y96785D01*
X216012D01*
Y96926D01*
X216153D01*
Y96785D01*
X216295D01*
Y96926D01*
X216436D01*
Y96785D01*
X216577D01*
Y96926D01*
X216718D01*
Y96785D01*
X217142D01*
Y96643D01*
X217566D01*
Y96502D01*
X217707D01*
Y96361D01*
X217848D01*
Y96219D01*
X218131D01*
Y96078D01*
X218414D01*
Y95796D01*
X218555D01*
Y95654D01*
X218696D01*
Y95372D01*
X218837D01*
Y95231D01*
X218979D01*
Y94807D01*
X219120D01*
Y94665D01*
X219261D01*
Y94524D01*
X219120D01*
Y94383D01*
X219261D01*
Y93959D01*
X219403D01*
Y93818D01*
X219261D01*
Y93676D01*
X219403D01*
Y93535D01*
X219544D01*
Y93394D01*
X219403D01*
Y93253D01*
X219544D01*
Y93111D01*
X219403D01*
Y92970D01*
X219544D01*
Y92829D01*
X219403D01*
Y92687D01*
X219544D01*
Y92264D01*
X219403D01*
Y92122D01*
X219544D01*
Y91981D01*
X219403D01*
Y91840D01*
X219544D01*
Y91699D01*
X219403D01*
Y91557D01*
X219544D01*
Y91416D01*
X219403D01*
Y90992D01*
X219261D01*
Y90286D01*
X219685D01*
Y90710D01*
X219826D01*
Y91133D01*
X219968D01*
Y91275D01*
X219826D01*
Y91416D01*
X219968D01*
Y91557D01*
X219826D01*
Y91699D01*
X219968D01*
Y91840D01*
X219826D01*
Y91981D01*
X219968D01*
Y92122D01*
X219826D01*
Y92264D01*
X219968D01*
Y92405D01*
X219826D01*
Y92546D01*
X219685D01*
Y92687D01*
X219826D01*
Y92829D01*
X219685D01*
Y92970D01*
X219826D01*
Y93111D01*
X219685D01*
Y93253D01*
X219826D01*
Y93394D01*
X219685D01*
Y93535D01*
X219826D01*
Y93676D01*
X219685D01*
Y93818D01*
X219826D01*
Y93959D01*
X219685D01*
Y94100D01*
X219826D01*
Y94242D01*
X219685D01*
Y94383D01*
X219826D01*
Y94524D01*
X219685D01*
Y94665D01*
X219826D01*
Y94807D01*
X219685D01*
Y94948D01*
X219826D01*
Y95089D01*
X219685D01*
Y95231D01*
X219826D01*
Y95372D01*
X219685D01*
Y95513D01*
X219826D01*
Y95937D01*
X219968D01*
Y96078D01*
X219826D01*
Y96219D01*
X219968D01*
Y96643D01*
X220109D01*
Y96785D01*
X219968D01*
Y96926D01*
X220109D01*
Y97067D01*
X220250D01*
Y97208D01*
X220392D01*
Y97350D01*
X220533D01*
Y97632D01*
X220815D01*
Y97773D01*
X220957D01*
Y97915D01*
X221098D01*
Y98056D01*
X221522D01*
Y98197D01*
X221946D01*
Y98339D01*
X222087D01*
Y98197D01*
X222228D01*
Y98339D01*
X222369D01*
Y98197D01*
X222511D01*
Y98339D01*
X222652D01*
Y98197D01*
X223076D01*
Y98056D01*
X223217D01*
Y97915D01*
X223358D01*
Y98056D01*
X223500D01*
Y97915D01*
X223641D01*
Y97773D01*
X223782D01*
Y97632D01*
X224065D01*
Y97350D01*
X224206D01*
Y97208D01*
X224347D01*
Y97067D01*
X224489D01*
Y96926D01*
X224630D01*
Y96502D01*
X224771D01*
Y96078D01*
X224912D01*
Y95654D01*
X225054D01*
Y95513D01*
X224912D01*
Y95372D01*
X225054D01*
Y95231D01*
X225195D01*
Y95089D01*
X225054D01*
Y94948D01*
X225195D01*
Y93676D01*
X225336D01*
Y93535D01*
X225195D01*
Y93394D01*
X225336D01*
Y93253D01*
X225195D01*
Y93111D01*
X225336D01*
Y92970D01*
X225195D01*
Y92829D01*
X225336D01*
Y92687D01*
X225195D01*
Y92546D01*
X225336D01*
Y92405D01*
X225195D01*
Y92264D01*
X225336D01*
Y92122D01*
X225195D01*
Y91981D01*
X225336D01*
Y91840D01*
X225195D01*
Y90568D01*
X225054D01*
Y90427D01*
X225195D01*
Y90286D01*
X225054D01*
Y90144D01*
X225195D01*
Y90003D01*
X225054D01*
Y89862D01*
X224912D01*
Y89721D01*
X225054D01*
Y89579D01*
X224912D01*
Y89156D01*
X224771D01*
Y88732D01*
X224630D01*
Y88308D01*
X224489D01*
Y88167D01*
X224347D01*
Y88025D01*
X224206D01*
Y87884D01*
X224065D01*
Y87743D01*
X223782D01*
Y87602D01*
X223500D01*
Y87460D01*
X223358D01*
Y87602D01*
X223217D01*
Y87460D01*
X223076D01*
Y87602D01*
X222935D01*
Y87460D01*
X222793D01*
Y87602D01*
X222652D01*
Y87743D01*
X222228D01*
Y88025D01*
X221946D01*
Y88449D01*
X221804D01*
Y88590D01*
X221663D01*
Y88449D01*
X221522D01*
Y88308D01*
X221380D01*
Y88167D01*
X221522D01*
Y88025D01*
X221380D01*
Y87884D01*
X221522D01*
Y87743D01*
X221380D01*
Y87602D01*
X221522D01*
Y87460D01*
X221380D01*
Y87319D01*
X221522D01*
Y87178D01*
X221380D01*
Y87036D01*
X221522D01*
Y86895D01*
X221380D01*
Y86754D01*
X221522D01*
Y86613D01*
X221380D01*
Y86471D01*
X221522D01*
Y86330D01*
X221380D01*
Y86189D01*
X221522D01*
Y86048D01*
X221380D01*
Y85906D01*
X221522D01*
Y85765D01*
X221380D01*
Y85624D01*
X221522D01*
Y85482D01*
X221380D01*
Y85341D01*
X221522D01*
Y85200D01*
X221380D01*
Y85058D01*
X221522D01*
Y84917D01*
X221380D01*
Y84776D01*
X221522D01*
Y84635D01*
X221380D01*
Y84493D01*
X221522D01*
Y84352D01*
X221380D01*
Y84211D01*
X221522D01*
Y84070D01*
X221380D01*
Y83928D01*
X221522D01*
Y83787D01*
X221380D01*
Y83646D01*
X221522D01*
Y83504D01*
X221380D01*
Y83363D01*
X221522D01*
Y83222D01*
X221380D01*
Y83081D01*
X221522D01*
Y82939D01*
X221380D01*
Y82798D01*
X221522D01*
Y82657D01*
X221380D01*
Y82516D01*
X221522D01*
Y82374D01*
X221380D01*
Y82233D01*
X221239D01*
Y82092D01*
X221098D01*
Y82233D01*
X220957D01*
Y82092D01*
X220815D01*
Y82233D01*
X220674D01*
Y82092D01*
X220533D01*
Y82233D01*
X220392D01*
Y82092D01*
X220250D01*
Y82233D01*
X220109D01*
Y82092D01*
X220250D01*
Y81950D01*
X220392D01*
Y81809D01*
X220533D01*
Y81668D01*
X220674D01*
Y81527D01*
X220815D01*
Y81385D01*
X220957D01*
Y80962D01*
X221098D01*
Y80820D01*
X221239D01*
Y80679D01*
X221380D01*
Y80538D01*
X221239D01*
Y80396D01*
X221380D01*
Y80255D01*
X221522D01*
Y80114D01*
X221380D01*
Y79972D01*
X221522D01*
Y79266D01*
X221663D01*
Y79125D01*
X221522D01*
Y78984D01*
X221663D01*
Y78842D01*
X221522D01*
Y78701D01*
X221663D01*
Y78560D01*
X221522D01*
Y77571D01*
X221380D01*
Y77429D01*
X221239D01*
Y77006D01*
X221098D01*
Y76864D01*
X220957D01*
Y76582D01*
X222652D01*
Y76723D01*
X222793D01*
Y76864D01*
X222935D01*
Y77006D01*
X222793D01*
Y77429D01*
X222935D01*
Y77571D01*
X222793D01*
Y77995D01*
X223076D01*
Y78136D01*
X224630D01*
Y77995D01*
X224912D01*
Y77853D01*
X224771D01*
Y77712D01*
X224912D01*
Y77571D01*
X224771D01*
Y77429D01*
X224912D01*
Y77288D01*
X224771D01*
Y77147D01*
X224912D01*
Y77006D01*
X224771D01*
Y76864D01*
X224912D01*
Y76723D01*
X224771D01*
Y76582D01*
X224912D01*
Y76441D01*
X224771D01*
Y76299D01*
X224912D01*
Y76158D01*
X224771D01*
Y76017D01*
X224912D01*
Y75876D01*
X224771D01*
Y75734D01*
X224912D01*
Y75593D01*
X224771D01*
Y75452D01*
X224912D01*
Y75310D01*
X224771D01*
Y75169D01*
X224912D01*
Y75028D01*
X224771D01*
Y74887D01*
X224912D01*
Y74745D01*
X224771D01*
Y74604D01*
X224912D01*
Y74463D01*
X224771D01*
Y74321D01*
X224912D01*
Y74180D01*
X224771D01*
Y74039D01*
X224912D01*
Y73898D01*
X224771D01*
Y73756D01*
X224912D01*
Y73615D01*
X224771D01*
Y73474D01*
X224912D01*
Y73332D01*
X224771D01*
Y73191D01*
X224912D01*
Y73050D01*
X224771D01*
Y72909D01*
X224912D01*
Y72767D01*
X224771D01*
Y72626D01*
X224912D01*
Y72485D01*
X224771D01*
Y72343D01*
X224912D01*
Y72202D01*
X224771D01*
Y72061D01*
X224912D01*
Y71920D01*
X224771D01*
Y71778D01*
X224912D01*
Y71637D01*
X224771D01*
Y71496D01*
X224630D01*
Y71355D01*
X224489D01*
Y71496D01*
X224347D01*
Y71355D01*
X224206D01*
Y71496D01*
X224065D01*
Y71355D01*
X223923D01*
Y71496D01*
X223782D01*
Y71355D01*
X223641D01*
Y71496D01*
X223500D01*
Y71355D01*
X223641D01*
Y71213D01*
X223782D01*
Y71072D01*
X224065D01*
Y70789D01*
X224206D01*
Y70648D01*
X224347D01*
Y70507D01*
X224489D01*
Y70366D01*
X224630D01*
Y69942D01*
X224771D01*
Y69518D01*
X224912D01*
Y69094D01*
X225054D01*
Y68953D01*
X224912D01*
Y68812D01*
X225054D01*
Y68670D01*
X225195D01*
Y68529D01*
X225054D01*
Y68388D01*
X225195D01*
Y67116D01*
X225336D01*
Y66975D01*
X225195D01*
Y66834D01*
X225336D01*
Y66692D01*
X225195D01*
Y66551D01*
X225336D01*
Y66410D01*
X225195D01*
Y66269D01*
X225336D01*
Y66127D01*
X225195D01*
Y65986D01*
X225336D01*
Y65845D01*
X225195D01*
Y65703D01*
X225336D01*
Y65562D01*
X225195D01*
Y65421D01*
X225336D01*
Y65280D01*
X225195D01*
Y64008D01*
X225054D01*
Y63867D01*
X225195D01*
Y63726D01*
X225054D01*
Y63584D01*
X225195D01*
Y63443D01*
X225054D01*
Y63302D01*
X224912D01*
Y63160D01*
X225054D01*
Y63019D01*
X224912D01*
Y62595D01*
X224771D01*
Y62172D01*
X224630D01*
Y61748D01*
X224489D01*
Y61889D01*
X224347D01*
Y61748D01*
X224489D01*
Y61606D01*
X224347D01*
Y61465D01*
X224206D01*
Y61324D01*
X224065D01*
Y61183D01*
X223782D01*
Y61041D01*
X223500D01*
Y60900D01*
X223358D01*
Y61041D01*
X223217D01*
Y60900D01*
X223076D01*
Y61041D01*
X222935D01*
Y60900D01*
X222793D01*
Y61041D01*
X222652D01*
Y61183D01*
X222228D01*
Y61465D01*
X221946D01*
Y61889D01*
X221804D01*
Y62030D01*
X221663D01*
Y61889D01*
X221522D01*
Y61748D01*
X221380D01*
Y61606D01*
X221522D01*
Y61465D01*
X221380D01*
Y61324D01*
X221522D01*
Y61183D01*
X221380D01*
Y61041D01*
X221522D01*
Y60900D01*
X221380D01*
Y60759D01*
X221522D01*
Y60617D01*
X221380D01*
Y60476D01*
X221522D01*
Y60335D01*
X221380D01*
Y60194D01*
X221522D01*
Y60052D01*
X221380D01*
Y59911D01*
X221522D01*
Y59770D01*
X221380D01*
Y59628D01*
X221522D01*
Y59487D01*
X221380D01*
Y59346D01*
X221522D01*
Y59205D01*
X221380D01*
Y59063D01*
X221522D01*
Y58922D01*
X221380D01*
Y58781D01*
X221522D01*
Y58640D01*
X221380D01*
Y58498D01*
X221522D01*
Y58357D01*
X221380D01*
Y58216D01*
X221522D01*
Y58074D01*
X221380D01*
Y57933D01*
X221522D01*
Y57792D01*
X221380D01*
Y57651D01*
X221522D01*
Y57509D01*
X221380D01*
Y57368D01*
X221522D01*
Y57227D01*
X221380D01*
Y57086D01*
X221522D01*
Y56944D01*
X221380D01*
Y56803D01*
X221522D01*
Y56662D01*
X221380D01*
Y56520D01*
X221522D01*
Y56379D01*
X221380D01*
Y56238D01*
X221239D01*
Y56097D01*
X221098D01*
Y56238D01*
X220674D01*
Y56097D01*
X220533D01*
Y56238D01*
X220109D01*
Y56097D01*
X219968D01*
Y56238D01*
X219544D01*
Y56379D01*
X219403D01*
Y56520D01*
X219544D01*
Y56662D01*
X219403D01*
Y57086D01*
X216153D01*
Y56944D01*
X216012D01*
Y57086D01*
X215871D01*
Y56944D01*
X215729D01*
Y56803D01*
X215588D01*
Y56662D01*
X215447D01*
Y56520D01*
X215305D01*
Y56379D01*
X215447D01*
Y56238D01*
X215305D01*
Y56097D01*
X215447D01*
Y55673D01*
X215588D01*
Y55249D01*
X215871D01*
Y55108D01*
X216153D01*
Y54966D01*
X216577D01*
Y54825D01*
X216718D01*
Y54966D01*
X216860D01*
Y54825D01*
X217001D01*
Y54966D01*
X217142D01*
Y54825D01*
X217283D01*
Y54966D01*
X217425D01*
Y54825D01*
X217566D01*
Y54966D01*
X217707D01*
Y54825D01*
X217848D01*
Y54966D01*
X217990D01*
Y54825D01*
X218131D01*
Y54966D01*
X218272D01*
Y54825D01*
X218414D01*
Y54966D01*
X218555D01*
Y54825D01*
X218696D01*
Y54966D01*
X218837D01*
Y54825D01*
X218979D01*
Y54966D01*
X219120D01*
Y54825D01*
X219261D01*
Y54966D01*
X219403D01*
Y55390D01*
X219544D01*
Y55531D01*
X219403D01*
Y55673D01*
X219544D01*
Y55814D01*
X219685D01*
Y55955D01*
X219826D01*
Y55814D01*
X219968D01*
Y55955D01*
X220109D01*
Y55814D01*
X220250D01*
Y55955D01*
X220392D01*
Y55814D01*
X220533D01*
Y55955D01*
X220674D01*
Y55814D01*
X220815D01*
Y55955D01*
X220957D01*
Y55814D01*
X221098D01*
Y55955D01*
X221239D01*
Y55814D01*
X221380D01*
Y55673D01*
X221522D01*
Y55531D01*
X221380D01*
Y55390D01*
X221522D01*
Y55249D01*
X221380D01*
Y55108D01*
X221522D01*
Y54966D01*
X221380D01*
Y54825D01*
X221522D01*
Y54684D01*
X221380D01*
Y54542D01*
X221522D01*
Y54401D01*
X221380D01*
Y54260D01*
X221522D01*
Y54119D01*
X221380D01*
Y53977D01*
X221522D01*
Y53836D01*
X221380D01*
Y53695D01*
X221522D01*
Y53553D01*
X221380D01*
Y53412D01*
X221522D01*
Y53271D01*
X221380D01*
Y53130D01*
X221522D01*
Y52988D01*
X221380D01*
Y52847D01*
X221522D01*
Y52706D01*
X221380D01*
Y52565D01*
X221522D01*
Y52423D01*
X221380D01*
Y52282D01*
X221522D01*
Y52141D01*
X221380D01*
Y51999D01*
X221522D01*
Y51858D01*
X221380D01*
Y51717D01*
X221522D01*
Y51576D01*
X221380D01*
Y51434D01*
X221522D01*
Y51293D01*
X221380D01*
Y51152D01*
X221522D01*
Y51011D01*
X221380D01*
Y50869D01*
X221522D01*
Y50728D01*
X221380D01*
Y50587D01*
X221522D01*
Y50445D01*
X221380D01*
Y50304D01*
X221522D01*
Y50163D01*
X221380D01*
Y50022D01*
X221522D01*
Y49880D01*
X221380D01*
Y49739D01*
X221522D01*
Y49598D01*
X221380D01*
Y49457D01*
X221522D01*
Y49315D01*
X221380D01*
Y49174D01*
X221522D01*
Y49033D01*
X221380D01*
Y48891D01*
X221522D01*
Y48750D01*
X221380D01*
Y48609D01*
X221522D01*
Y48467D01*
X221380D01*
Y48326D01*
X221522D01*
Y48185D01*
X221380D01*
Y48044D01*
X221522D01*
Y47902D01*
X221380D01*
Y47761D01*
X221522D01*
Y47620D01*
X221380D01*
Y47479D01*
X221522D01*
Y47337D01*
X221380D01*
Y47196D01*
X221522D01*
Y47055D01*
X221380D01*
Y46913D01*
X221522D01*
Y46772D01*
X221380D01*
Y46631D01*
X221522D01*
Y46490D01*
X221380D01*
Y46348D01*
X221522D01*
Y46207D01*
X221380D01*
Y46066D01*
X221522D01*
Y45924D01*
X221380D01*
Y45783D01*
X221522D01*
Y45642D01*
X221380D01*
Y45501D01*
X221522D01*
Y45359D01*
X221380D01*
Y45218D01*
X221522D01*
Y45077D01*
X221380D01*
Y44936D01*
X221522D01*
Y44794D01*
X221380D01*
Y44653D01*
X221522D01*
Y44512D01*
X221380D01*
Y44370D01*
X221522D01*
Y44229D01*
X221380D01*
Y44088D01*
X221522D01*
Y43947D01*
X221380D01*
Y43805D01*
X221522D01*
Y43664D01*
X221380D01*
Y43523D01*
X221522D01*
Y43382D01*
X221380D01*
Y43240D01*
X221522D01*
Y43099D01*
X221380D01*
Y42958D01*
X221522D01*
Y42816D01*
X221380D01*
Y42675D01*
X221522D01*
Y42534D01*
X221380D01*
Y42393D01*
X221522D01*
Y42251D01*
X221380D01*
Y42110D01*
X221522D01*
Y41969D01*
X221380D01*
Y41827D01*
X221522D01*
Y41686D01*
X221380D01*
Y41545D01*
X221522D01*
Y41404D01*
X221380D01*
Y41262D01*
X221522D01*
Y41121D01*
X221380D01*
Y40980D01*
X221522D01*
Y40839D01*
X221380D01*
Y40697D01*
X221522D01*
Y40556D01*
X221380D01*
Y40415D01*
X221522D01*
Y40273D01*
X221380D01*
Y40132D01*
X221522D01*
Y39991D01*
X221380D01*
Y39850D01*
X221522D01*
Y39708D01*
X221380D01*
Y39567D01*
X221522D01*
Y39426D01*
X221380D01*
Y39285D01*
X221239D01*
Y39143D01*
X219685D01*
Y39285D01*
X219544D01*
Y39426D01*
X219403D01*
Y39567D01*
X219544D01*
Y39708D01*
X219403D01*
Y39991D01*
X219120D01*
Y40132D01*
X218979D01*
Y39991D01*
X218837D01*
Y40132D01*
X218696D01*
Y39991D01*
X218555D01*
Y40132D01*
X218414D01*
Y39991D01*
X218272D01*
Y40132D01*
X218131D01*
Y39991D01*
X217990D01*
Y40132D01*
X217848D01*
Y39991D01*
X217707D01*
Y40132D01*
X217566D01*
Y39991D01*
X217425D01*
Y40132D01*
X217283D01*
Y39991D01*
X217142D01*
Y40132D01*
X217001D01*
Y39991D01*
X216860D01*
Y40132D01*
X216718D01*
Y39991D01*
X216012D01*
Y39850D01*
X215588D01*
Y39708D01*
X215447D01*
Y39285D01*
X215305D01*
Y39143D01*
X215447D01*
Y39002D01*
X215305D01*
Y38861D01*
X215447D01*
Y38719D01*
X215588D01*
Y38578D01*
X215447D01*
Y38437D01*
X215588D01*
Y38296D01*
X215729D01*
Y38154D01*
X215871D01*
Y38013D01*
X216012D01*
Y37872D01*
X216436D01*
Y37730D01*
X216577D01*
Y37872D01*
X216718D01*
Y37730D01*
X216860D01*
Y37872D01*
X217001D01*
Y37730D01*
X217142D01*
Y37872D01*
X217283D01*
Y37730D01*
X217425D01*
Y37872D01*
X217566D01*
Y37730D01*
X217707D01*
Y37872D01*
X217848D01*
Y37730D01*
X217990D01*
Y37872D01*
X218131D01*
Y37730D01*
X218272D01*
Y37872D01*
X218414D01*
Y37730D01*
X218555D01*
Y37872D01*
X218696D01*
Y37730D01*
X218837D01*
Y37872D01*
X218979D01*
Y37730D01*
X219120D01*
Y37872D01*
X219261D01*
Y37730D01*
X219403D01*
Y37872D01*
X219544D01*
Y38013D01*
X219403D01*
Y38437D01*
X219544D01*
Y38578D01*
X219403D01*
Y38719D01*
X219826D01*
Y38861D01*
X220250D01*
Y38719D01*
X220392D01*
Y38861D01*
X220815D01*
Y38719D01*
X220957D01*
Y38861D01*
X221239D01*
Y38719D01*
X221380D01*
Y38437D01*
X221522D01*
Y38296D01*
X221380D01*
Y38154D01*
X221522D01*
Y38013D01*
X221380D01*
Y37872D01*
X221522D01*
Y37730D01*
X221380D01*
Y37589D01*
X221522D01*
Y37448D01*
X221380D01*
Y37307D01*
X221522D01*
Y37165D01*
X221380D01*
Y37024D01*
X221522D01*
Y36883D01*
X221380D01*
Y36742D01*
X221522D01*
Y36600D01*
X221380D01*
Y36459D01*
X221522D01*
Y36318D01*
X221380D01*
Y36176D01*
X221522D01*
Y36035D01*
X221380D01*
Y35894D01*
X221522D01*
Y35753D01*
X221380D01*
Y35611D01*
X221522D01*
Y35470D01*
X221380D01*
Y35329D01*
X221522D01*
Y35187D01*
X221380D01*
Y35046D01*
X221522D01*
Y34905D01*
X221380D01*
Y34764D01*
X221522D01*
Y34622D01*
X221380D01*
Y34481D01*
X221522D01*
Y34340D01*
X221380D01*
Y34198D01*
X221522D01*
Y34057D01*
X221380D01*
Y33916D01*
X221522D01*
Y33775D01*
X221380D01*
Y33633D01*
X221522D01*
Y33492D01*
X221380D01*
Y33351D01*
X221522D01*
Y33209D01*
X221380D01*
Y33068D01*
X221522D01*
Y32927D01*
X221380D01*
Y32786D01*
X221522D01*
Y32644D01*
X221380D01*
Y32503D01*
X221522D01*
Y32362D01*
X221380D01*
Y32221D01*
X221522D01*
Y32079D01*
X221380D01*
Y31938D01*
X221522D01*
Y31797D01*
X221380D01*
Y31655D01*
X221522D01*
Y31514D01*
X221380D01*
Y31373D01*
X221522D01*
Y31232D01*
X221380D01*
Y31090D01*
X221522D01*
Y30949D01*
X221380D01*
Y30808D01*
X221522D01*
Y30667D01*
X221380D01*
Y30525D01*
X221522D01*
Y30384D01*
X221380D01*
Y30243D01*
X221522D01*
Y30101D01*
X221380D01*
Y29960D01*
X221522D01*
Y29819D01*
X221380D01*
Y29678D01*
X221522D01*
Y29536D01*
X221380D01*
Y29395D01*
X221522D01*
Y29254D01*
X221380D01*
Y29112D01*
X221522D01*
Y28971D01*
X221380D01*
Y28830D01*
X221522D01*
Y28689D01*
X221380D01*
Y28547D01*
X221522D01*
Y28406D01*
X221380D01*
Y28265D01*
X221522D01*
Y28124D01*
X221380D01*
Y27982D01*
X221522D01*
Y27841D01*
X221380D01*
Y27700D01*
X221522D01*
Y27558D01*
X221380D01*
Y27417D01*
X221522D01*
Y27276D01*
X221380D01*
Y27135D01*
X221522D01*
Y26993D01*
X221380D01*
Y26852D01*
X221522D01*
Y26711D01*
X221380D01*
Y26570D01*
X221522D01*
Y26428D01*
X221380D01*
Y26287D01*
X221522D01*
Y26146D01*
X221380D01*
Y26004D01*
X221522D01*
Y25863D01*
X221380D01*
Y25722D01*
X221522D01*
Y25580D01*
X221380D01*
Y25439D01*
X221522D01*
Y25298D01*
X221380D01*
Y25157D01*
X221522D01*
Y25015D01*
X221380D01*
Y24874D01*
X221522D01*
Y24733D01*
X221380D01*
Y24592D01*
X221522D01*
Y24450D01*
X221380D01*
Y24309D01*
X221522D01*
Y24168D01*
X221380D01*
Y24026D01*
X221522D01*
Y23885D01*
X221380D01*
Y23744D01*
X221522D01*
Y23603D01*
X221380D01*
Y23461D01*
X221522D01*
Y23320D01*
X221380D01*
Y23179D01*
X221522D01*
Y23038D01*
X221380D01*
Y22896D01*
X221522D01*
Y22755D01*
X221380D01*
Y22614D01*
X221522D01*
Y22472D01*
X221380D01*
Y22331D01*
X221522D01*
Y22190D01*
X221380D01*
Y22049D01*
X221239D01*
Y21766D01*
X221380D01*
Y21484D01*
X221522D01*
Y21342D01*
X221380D01*
Y21201D01*
X221522D01*
Y21060D01*
X221380D01*
Y20918D01*
X221522D01*
Y20777D01*
X221380D01*
Y20636D01*
X221522D01*
Y20494D01*
X221380D01*
Y20353D01*
X221522D01*
Y20212D01*
X221380D01*
Y20071D01*
X221522D01*
Y19929D01*
X221380D01*
Y19788D01*
X221522D01*
Y19647D01*
X221380D01*
Y19506D01*
X221522D01*
Y19364D01*
X221380D01*
Y19223D01*
X221522D01*
Y19082D01*
X221380D01*
Y18940D01*
X221522D01*
Y18799D01*
X221380D01*
Y18658D01*
X221522D01*
Y18517D01*
X221380D01*
Y18375D01*
X221522D01*
Y18234D01*
X221380D01*
Y18093D01*
X221522D01*
Y17952D01*
X221380D01*
Y17810D01*
X221522D01*
Y17669D01*
X221380D01*
Y17528D01*
X221522D01*
Y17386D01*
X221380D01*
Y17245D01*
X221522D01*
Y17104D01*
X221380D01*
Y16963D01*
X221522D01*
Y16821D01*
X221380D01*
Y16680D01*
X221522D01*
Y16539D01*
X221380D01*
Y16398D01*
X221522D01*
Y16256D01*
X221380D01*
Y16115D01*
X221522D01*
Y15974D01*
X221380D01*
Y15832D01*
X221522D01*
Y15691D01*
X221380D01*
Y15550D01*
X220674D01*
Y15126D01*
X220815D01*
Y14985D01*
X220957D01*
Y14843D01*
X221098D01*
Y14420D01*
X221239D01*
Y13996D01*
X221380D01*
Y13572D01*
X221522D01*
Y12583D01*
X221663D01*
Y12442D01*
X221522D01*
Y12300D01*
X221663D01*
Y12159D01*
X221522D01*
Y12018D01*
X221663D01*
Y11877D01*
X221522D01*
Y11735D01*
X221663D01*
Y11594D01*
X221522D01*
Y11453D01*
X221663D01*
Y11311D01*
X221522D01*
Y10605D01*
X221380D01*
Y10464D01*
X221522D01*
Y10323D01*
X221380D01*
Y10181D01*
X221239D01*
Y10040D01*
X221380D01*
Y9899D01*
X221239D01*
Y9475D01*
X221098D01*
Y9334D01*
X220957D01*
Y9192D01*
X221098D01*
Y9051D01*
X221239D01*
Y8910D01*
X221380D01*
Y8768D01*
X221522D01*
Y8627D01*
X221380D01*
Y8486D01*
X221522D01*
Y8345D01*
X221380D01*
Y8203D01*
X221522D01*
Y8062D01*
X221380D01*
Y7921D01*
X221522D01*
Y7779D01*
X221380D01*
Y7638D01*
X221522D01*
Y7497D01*
X221380D01*
Y7356D01*
X221239D01*
Y7214D01*
X220815D01*
Y7073D01*
X220674D01*
Y7214D01*
X220250D01*
Y7073D01*
X220109D01*
Y7214D01*
X219685D01*
Y7073D01*
X219544D01*
Y7214D01*
X219120D01*
Y7073D01*
X218979D01*
Y7214D01*
X218555D01*
Y7073D01*
X218414D01*
Y7214D01*
X218272D01*
Y7356D01*
X218131D01*
Y7497D01*
X218272D01*
Y7638D01*
X218131D01*
Y7779D01*
X218272D01*
Y7921D01*
X218131D01*
Y8062D01*
X218272D01*
Y8203D01*
X218131D01*
Y8345D01*
X218272D01*
Y8486D01*
X218131D01*
Y8627D01*
X218272D01*
Y8768D01*
X218131D01*
Y8910D01*
X217990D01*
Y8627D01*
X217848D01*
Y8345D01*
X217707D01*
Y8203D01*
X217848D01*
Y8062D01*
X217707D01*
Y8203D01*
X217566D01*
Y8062D01*
X217707D01*
Y7921D01*
X217566D01*
Y7779D01*
X217425D01*
Y7638D01*
X217283D01*
Y7497D01*
X217142D01*
Y7356D01*
X217001D01*
Y7214D01*
X216718D01*
Y7073D01*
X216153D01*
Y6932D01*
X216012D01*
Y7073D01*
X215871D01*
Y6932D01*
X215729D01*
Y7073D01*
X215588D01*
Y6932D01*
X215447D01*
Y7073D01*
X215305D01*
Y6932D01*
X215164D01*
Y7073D01*
X215023D01*
Y6932D01*
X214882D01*
Y7073D01*
X214740D01*
Y7214D01*
X214599D01*
Y7356D01*
X214458D01*
Y7214D01*
X214317D01*
Y7356D01*
X214175D01*
Y7497D01*
X214034D01*
Y7638D01*
X213893D01*
Y7779D01*
X213752D01*
Y7921D01*
X213610D01*
Y8062D01*
X213469D01*
Y8486D01*
X213328D01*
Y8627D01*
X213186D01*
Y8910D01*
X213045D01*
Y9192D01*
X212904D01*
Y9616D01*
X212762D01*
Y9757D01*
X212904D01*
Y9899D01*
X212762D01*
Y10323D01*
X212621D01*
Y10464D01*
X212762D01*
Y10605D01*
X212621D01*
Y10746D01*
X212762D01*
Y10888D01*
X212621D01*
Y11029D01*
X212762D01*
Y11170D01*
X212621D01*
Y11311D01*
X212762D01*
Y11453D01*
X212621D01*
Y11877D01*
X212762D01*
Y12018D01*
X212621D01*
Y12159D01*
X212762D01*
Y12583D01*
X212904D01*
Y12724D01*
X212762D01*
Y12866D01*
X212904D01*
Y13289D01*
X213045D01*
Y13431D01*
X213186D01*
Y13855D01*
X213328D01*
Y13996D01*
X213469D01*
Y14137D01*
X213045D01*
Y14278D01*
X212904D01*
Y14420D01*
X213045D01*
Y14561D01*
X212904D01*
Y14702D01*
X213045D01*
Y14843D01*
X212904D01*
Y14985D01*
X213045D01*
Y15126D01*
X212904D01*
Y15267D01*
X213045D01*
Y15408D01*
X212904D01*
Y15550D01*
X213045D01*
Y15691D01*
X212904D01*
Y15832D01*
X213045D01*
Y15974D01*
X215729D01*
Y15832D01*
X215871D01*
Y15691D01*
X216012D01*
Y15550D01*
X215871D01*
Y15408D01*
X216012D01*
Y15267D01*
X215871D01*
Y15126D01*
X216012D01*
Y14985D01*
X215871D01*
Y14843D01*
X216012D01*
Y14702D01*
X215871D01*
Y14561D01*
X216012D01*
Y14420D01*
X216153D01*
Y14561D01*
X216295D01*
Y14985D01*
X216436D01*
Y15126D01*
X216577D01*
Y15550D01*
X216718D01*
Y15691D01*
X216860D01*
Y15832D01*
X217142D01*
Y16115D01*
X217283D01*
Y15974D01*
X217425D01*
Y16115D01*
X217566D01*
Y16256D01*
X217990D01*
Y16398D01*
X218131D01*
Y16256D01*
X218272D01*
Y16398D01*
X218979D01*
Y16256D01*
X219120D01*
Y16398D01*
X219261D01*
Y16256D01*
X219403D01*
Y16398D01*
X219544D01*
Y16539D01*
X219403D01*
Y16963D01*
X219261D01*
Y17104D01*
X218272D01*
Y17245D01*
X218131D01*
Y17104D01*
X217707D01*
Y17245D01*
X217566D01*
Y17104D01*
X217142D01*
Y17245D01*
X217001D01*
Y17104D01*
X216577D01*
Y17245D01*
X216436D01*
Y17104D01*
X216012D01*
Y17245D01*
X215871D01*
Y17104D01*
X215447D01*
Y17245D01*
X215305D01*
Y17104D01*
X214882D01*
Y17245D01*
X214740D01*
Y17104D01*
X214317D01*
Y17245D01*
X214175D01*
Y17104D01*
X213752D01*
Y17245D01*
X213610D01*
Y17104D01*
X213186D01*
Y17245D01*
X213045D01*
Y17104D01*
X212621D01*
Y17245D01*
X212480D01*
Y17104D01*
X211774D01*
Y16963D01*
X211632D01*
Y16539D01*
X211491D01*
Y16398D01*
X211632D01*
Y15974D01*
X211491D01*
Y15832D01*
X211632D01*
Y15691D01*
X211209D01*
Y15550D01*
X210785D01*
Y15691D01*
X210643D01*
Y15550D01*
X210220D01*
Y15691D01*
X210078D01*
Y15550D01*
X209796D01*
Y15691D01*
X209513D01*
Y15832D01*
X209654D01*
Y15974D01*
X209513D01*
Y16115D01*
X209654D01*
Y16256D01*
X209513D01*
Y16398D01*
X209654D01*
Y16539D01*
X209513D01*
Y16680D01*
X209654D01*
Y16821D01*
X209513D01*
Y16963D01*
X209654D01*
Y17104D01*
X209513D01*
Y17245D01*
X209654D01*
Y17386D01*
X209513D01*
Y17528D01*
X209654D01*
Y17669D01*
X209513D01*
Y17810D01*
X209654D01*
Y17952D01*
X209513D01*
Y18093D01*
X209654D01*
Y18234D01*
X209513D01*
Y18375D01*
X209654D01*
Y18517D01*
X209513D01*
Y18658D01*
X209654D01*
Y18799D01*
X209513D01*
Y18940D01*
X209654D01*
Y19082D01*
X209513D01*
Y19223D01*
X209654D01*
Y19364D01*
X209513D01*
Y19506D01*
X209654D01*
Y19647D01*
X209513D01*
Y19788D01*
X209654D01*
Y19929D01*
X209513D01*
Y20071D01*
X209654D01*
Y20212D01*
X209513D01*
Y20353D01*
X209654D01*
Y20494D01*
X209513D01*
Y20636D01*
X209654D01*
Y20777D01*
X209796D01*
Y20918D01*
X209937D01*
Y20777D01*
X210078D01*
Y20918D01*
X210220D01*
Y20777D01*
X210361D01*
Y20918D01*
X210502D01*
Y20777D01*
X210643D01*
Y20918D01*
X210785D01*
Y20777D01*
X210926D01*
Y20918D01*
X211067D01*
Y20777D01*
X211209D01*
Y20918D01*
X211350D01*
Y20777D01*
X211491D01*
Y20918D01*
X211632D01*
Y20777D01*
X211774D01*
Y20918D01*
X211915D01*
Y20777D01*
X212056D01*
Y20918D01*
X212197D01*
Y20777D01*
X212339D01*
Y20918D01*
X212480D01*
Y20777D01*
X212621D01*
Y20918D01*
X212762D01*
Y20777D01*
X212904D01*
Y20918D01*
X213045D01*
Y20777D01*
X213186D01*
Y20918D01*
X213328D01*
Y20777D01*
X213469D01*
Y20918D01*
X213610D01*
Y20777D01*
X213752D01*
Y20918D01*
X213610D01*
Y21060D01*
X213469D01*
Y21201D01*
X213328D01*
Y21484D01*
X213186D01*
Y21766D01*
X213045D01*
Y22190D01*
X212904D01*
Y22896D01*
X212762D01*
Y23038D01*
X212904D01*
Y23179D01*
X212762D01*
Y23320D01*
X212904D01*
Y23461D01*
X212762D01*
Y23603D01*
X212904D01*
Y23744D01*
X212762D01*
Y23885D01*
X212904D01*
Y24026D01*
X212762D01*
Y24168D01*
X212904D01*
Y24592D01*
X213045D01*
Y24733D01*
X212904D01*
Y24874D01*
X213045D01*
Y25015D01*
X213186D01*
Y25439D01*
X213328D01*
Y25580D01*
X213469D01*
Y26004D01*
X213752D01*
Y26287D01*
X214175D01*
Y26428D01*
X214317D01*
Y26570D01*
X214740D01*
Y26711D01*
X214882D01*
Y26852D01*
X215023D01*
Y26711D01*
X215164D01*
Y26852D01*
X215305D01*
Y26711D01*
X215447D01*
Y26852D01*
X215588D01*
Y26711D01*
X215729D01*
Y26852D01*
X215871D01*
Y26711D01*
X216012D01*
Y26852D01*
X216153D01*
Y26711D01*
X216295D01*
Y26852D01*
X216436D01*
Y26711D01*
X216577D01*
Y26852D01*
X216718D01*
Y26711D01*
X216860D01*
Y26852D01*
X217001D01*
Y26711D01*
X217142D01*
Y26852D01*
X217283D01*
Y26711D01*
X217425D01*
Y26852D01*
X217566D01*
Y26711D01*
X217707D01*
Y26852D01*
X217848D01*
Y26711D01*
X217990D01*
Y26852D01*
X218131D01*
Y26711D01*
X218272D01*
Y26852D01*
X218414D01*
Y26711D01*
X218555D01*
Y26852D01*
X218696D01*
Y26711D01*
X218837D01*
Y26852D01*
X218979D01*
Y26711D01*
X219120D01*
Y26852D01*
X219261D01*
Y26711D01*
X219403D01*
Y27135D01*
X219544D01*
Y27276D01*
X219403D01*
Y27700D01*
X219544D01*
Y27841D01*
X219403D01*
Y28265D01*
X219261D01*
Y28406D01*
X215164D01*
Y28265D01*
X215023D01*
Y28124D01*
X215164D01*
Y27982D01*
X215023D01*
Y27841D01*
X215164D01*
Y27700D01*
X215023D01*
Y27558D01*
X215164D01*
Y27417D01*
X215023D01*
Y27276D01*
X215164D01*
Y27135D01*
X215023D01*
Y26993D01*
X214599D01*
Y26852D01*
X214458D01*
Y26993D01*
X214034D01*
Y26852D01*
X213893D01*
Y26993D01*
X213469D01*
Y26852D01*
X213328D01*
Y26993D01*
X213186D01*
Y27135D01*
X213045D01*
Y27276D01*
X212904D01*
Y27417D01*
X213045D01*
Y27558D01*
X212904D01*
Y27700D01*
X213045D01*
Y27841D01*
X212904D01*
Y27982D01*
X213045D01*
Y28124D01*
X212904D01*
Y28265D01*
X213045D01*
Y28406D01*
X212904D01*
Y28547D01*
X213045D01*
Y28689D01*
X212904D01*
Y28830D01*
X213045D01*
Y28971D01*
X212904D01*
Y29112D01*
X213045D01*
Y29254D01*
X212904D01*
Y29395D01*
X213045D01*
Y29536D01*
X212904D01*
Y29678D01*
X213045D01*
Y29819D01*
X212904D01*
Y29960D01*
X213045D01*
Y30101D01*
X212904D01*
Y30243D01*
X213045D01*
Y30384D01*
X212904D01*
Y30525D01*
X213045D01*
Y30667D01*
X212904D01*
Y30808D01*
X213045D01*
Y30949D01*
X212904D01*
Y31090D01*
X213045D01*
Y31232D01*
X212904D01*
Y31373D01*
X213045D01*
Y31514D01*
X212904D01*
Y31655D01*
X213045D01*
Y31797D01*
X212904D01*
Y31938D01*
X213045D01*
Y32079D01*
X213186D01*
Y32221D01*
X213328D01*
Y32079D01*
X213469D01*
Y32221D01*
X213610D01*
Y32079D01*
X213752D01*
Y32221D01*
X213893D01*
Y32079D01*
X214034D01*
Y32221D01*
X214175D01*
Y32079D01*
X214317D01*
Y32221D01*
X214458D01*
Y32079D01*
X214599D01*
Y32221D01*
X214740D01*
Y32079D01*
X214882D01*
Y32221D01*
X215023D01*
Y32079D01*
X215164D01*
Y32221D01*
X215305D01*
Y32079D01*
X215447D01*
Y32221D01*
X215588D01*
Y32079D01*
X215729D01*
Y32221D01*
X215871D01*
Y32079D01*
X216012D01*
Y32221D01*
X216153D01*
Y32079D01*
X216295D01*
Y32221D01*
X216436D01*
Y32079D01*
X216577D01*
Y32221D01*
X216718D01*
Y32079D01*
X216860D01*
Y32221D01*
X217001D01*
Y32079D01*
X217142D01*
Y32221D01*
X217283D01*
Y32079D01*
X217425D01*
Y32221D01*
X217566D01*
Y32079D01*
X217707D01*
Y32221D01*
X217848D01*
Y32079D01*
X217990D01*
Y32221D01*
X218131D01*
Y32079D01*
X218272D01*
Y32221D01*
X218414D01*
Y32079D01*
X218555D01*
Y32221D01*
X218696D01*
Y32079D01*
X218837D01*
Y32221D01*
X218979D01*
Y32079D01*
X219120D01*
Y32221D01*
X219403D01*
Y32786D01*
X219544D01*
Y32927D01*
X219403D01*
Y33351D01*
X219544D01*
Y33492D01*
X219403D01*
Y33916D01*
X219261D01*
Y34057D01*
X215164D01*
Y33916D01*
X215023D01*
Y33775D01*
X215164D01*
Y33633D01*
X215023D01*
Y33492D01*
X215164D01*
Y33351D01*
X215023D01*
Y33209D01*
X215164D01*
Y33068D01*
X215023D01*
Y32927D01*
X215164D01*
Y32786D01*
X215023D01*
Y32644D01*
X214599D01*
Y32503D01*
X214458D01*
Y32644D01*
X214034D01*
Y32503D01*
X213893D01*
Y32644D01*
X213469D01*
Y32503D01*
X213328D01*
Y32644D01*
X213186D01*
Y32786D01*
X213045D01*
Y32927D01*
X212904D01*
Y33068D01*
X213045D01*
Y33209D01*
X212904D01*
Y33351D01*
X213045D01*
Y33492D01*
X212904D01*
Y33633D01*
X213045D01*
Y33775D01*
X212904D01*
Y33916D01*
X213045D01*
Y34057D01*
X212904D01*
Y34198D01*
X213045D01*
Y34340D01*
X212904D01*
Y34481D01*
X213045D01*
Y34622D01*
X212904D01*
Y34764D01*
X213045D01*
Y34905D01*
X212904D01*
Y35046D01*
X213045D01*
Y35187D01*
X212904D01*
Y35329D01*
X213045D01*
Y35470D01*
X212904D01*
Y35611D01*
X213045D01*
Y35753D01*
X212904D01*
Y35894D01*
X213045D01*
Y36035D01*
X212904D01*
Y36176D01*
X213045D01*
Y36318D01*
X212904D01*
Y36459D01*
X213045D01*
Y36600D01*
X212904D01*
Y36742D01*
X213045D01*
Y36883D01*
X212904D01*
Y37024D01*
X213045D01*
Y37165D01*
X212904D01*
Y37307D01*
X213045D01*
Y37448D01*
X213186D01*
Y37730D01*
X213469D01*
Y37589D01*
X213610D01*
Y37730D01*
X213752D01*
Y37872D01*
X213610D01*
Y38013D01*
X213752D01*
Y38154D01*
X213469D01*
Y38437D01*
X213328D01*
Y38578D01*
X213186D01*
Y39002D01*
X213045D01*
Y39143D01*
X213186D01*
Y39285D01*
X213045D01*
Y39708D01*
X212904D01*
Y39850D01*
X213045D01*
Y39991D01*
X212904D01*
Y40132D01*
X213045D01*
Y40273D01*
X212904D01*
Y40415D01*
X213045D01*
Y40556D01*
X212904D01*
Y40697D01*
X213045D01*
Y40839D01*
X212904D01*
Y40980D01*
X213045D01*
Y41121D01*
X212904D01*
Y41262D01*
X213045D01*
Y41969D01*
X213186D01*
Y42393D01*
X213328D01*
Y42534D01*
X213186D01*
Y42675D01*
X213328D01*
Y42816D01*
X213469D01*
Y42958D01*
X213610D01*
Y43099D01*
X213752D01*
Y43240D01*
X213893D01*
Y43382D01*
X214034D01*
Y43523D01*
X214175D01*
Y43382D01*
X214317D01*
Y43523D01*
X214458D01*
Y43664D01*
X214882D01*
Y43805D01*
X215023D01*
Y43664D01*
X215164D01*
Y43805D01*
X215305D01*
Y43664D01*
X215447D01*
Y43805D01*
X215588D01*
Y43664D01*
X215729D01*
Y43805D01*
X215871D01*
Y43664D01*
X216012D01*
Y43805D01*
X216153D01*
Y43664D01*
X216295D01*
Y43805D01*
X216436D01*
Y43664D01*
X216577D01*
Y43805D01*
X216718D01*
Y43664D01*
X216860D01*
Y43805D01*
X217001D01*
Y43664D01*
X217142D01*
Y43805D01*
X217283D01*
Y43664D01*
X217425D01*
Y43805D01*
X217566D01*
Y43664D01*
X217707D01*
Y43805D01*
X217848D01*
Y43664D01*
X217990D01*
Y43805D01*
X218131D01*
Y43664D01*
X218272D01*
Y43805D01*
X218414D01*
Y43664D01*
X218555D01*
Y43805D01*
X218696D01*
Y43664D01*
X218837D01*
Y43805D01*
X218979D01*
Y43664D01*
X219120D01*
Y43805D01*
X219261D01*
Y43664D01*
X219403D01*
Y44088D01*
X219544D01*
Y44229D01*
X219403D01*
Y44653D01*
X219544D01*
Y44794D01*
X219403D01*
Y45501D01*
X215305D01*
Y45359D01*
X215164D01*
Y45218D01*
X215023D01*
Y45077D01*
X215164D01*
Y44936D01*
X215023D01*
Y44794D01*
X215164D01*
Y44653D01*
X215023D01*
Y44512D01*
X215164D01*
Y44370D01*
X215023D01*
Y44088D01*
X214740D01*
Y43947D01*
X214599D01*
Y44088D01*
X214458D01*
Y43947D01*
X214317D01*
Y44088D01*
X214175D01*
Y43947D01*
X214034D01*
Y44088D01*
X213893D01*
Y43947D01*
X213752D01*
Y44088D01*
X213610D01*
Y43947D01*
X213469D01*
Y44088D01*
X213328D01*
Y43947D01*
X213186D01*
Y44088D01*
X213045D01*
Y44229D01*
X212904D01*
Y44370D01*
X213045D01*
Y44512D01*
X212904D01*
Y44653D01*
X213045D01*
Y44794D01*
X212904D01*
Y44936D01*
X213045D01*
Y45077D01*
X212904D01*
Y45218D01*
X213045D01*
Y45359D01*
X212904D01*
Y45501D01*
X213045D01*
Y45642D01*
X212904D01*
Y45783D01*
X213045D01*
Y45924D01*
X212904D01*
Y46066D01*
X213045D01*
Y46207D01*
X212904D01*
Y46348D01*
X213045D01*
Y46490D01*
X212904D01*
Y46631D01*
X213045D01*
Y46772D01*
X212904D01*
Y46913D01*
X213045D01*
Y47055D01*
X212904D01*
Y47196D01*
X213045D01*
Y47337D01*
X212904D01*
Y47479D01*
X213045D01*
Y47620D01*
X212904D01*
Y47761D01*
X213045D01*
Y47902D01*
X212904D01*
Y48044D01*
X213045D01*
Y48185D01*
X212904D01*
Y48326D01*
X213045D01*
Y48467D01*
X212904D01*
Y48609D01*
X213045D01*
Y48750D01*
X212904D01*
Y48891D01*
X213045D01*
Y49033D01*
X212904D01*
Y49174D01*
X213328D01*
Y49315D01*
X213752D01*
Y49174D01*
X213893D01*
Y49315D01*
X214317D01*
Y49174D01*
X214458D01*
Y49315D01*
X214882D01*
Y49174D01*
X215023D01*
Y49315D01*
X215447D01*
Y49174D01*
X215588D01*
Y49315D01*
X216012D01*
Y49174D01*
X216153D01*
Y49315D01*
X216577D01*
Y49174D01*
X216718D01*
Y49315D01*
X217142D01*
Y49174D01*
X217283D01*
Y49315D01*
X217707D01*
Y49174D01*
X217848D01*
Y49315D01*
X218272D01*
Y49174D01*
X218414D01*
Y49315D01*
X218837D01*
Y49174D01*
X218979D01*
Y49315D01*
X219403D01*
Y49739D01*
X219544D01*
Y49880D01*
X219403D01*
Y50304D01*
X219544D01*
Y50445D01*
X219403D01*
Y51152D01*
X218979D01*
Y51011D01*
X218837D01*
Y51152D01*
X218414D01*
Y51011D01*
X218272D01*
Y51152D01*
X217848D01*
Y51011D01*
X217707D01*
Y51152D01*
X217283D01*
Y51011D01*
X217142D01*
Y51152D01*
X216718D01*
Y51011D01*
X216577D01*
Y51152D01*
X216153D01*
Y51011D01*
X216012D01*
Y51152D01*
X215588D01*
Y51011D01*
X215447D01*
Y51152D01*
X215305D01*
Y51011D01*
X215164D01*
Y50869D01*
X215023D01*
Y50728D01*
X215164D01*
Y50587D01*
X215023D01*
Y50445D01*
X215164D01*
Y50304D01*
X215023D01*
Y50163D01*
X215164D01*
Y50022D01*
X215023D01*
Y49739D01*
X214740D01*
Y49598D01*
X214599D01*
Y49739D01*
X214458D01*
Y49598D01*
X214317D01*
Y49739D01*
X214175D01*
Y49598D01*
X214034D01*
Y49739D01*
X213893D01*
Y49598D01*
X213752D01*
Y49739D01*
X213610D01*
Y49598D01*
X213469D01*
Y49739D01*
X213328D01*
Y49598D01*
X213186D01*
Y49739D01*
X213045D01*
Y49880D01*
X212904D01*
Y50022D01*
X213045D01*
Y50163D01*
X212904D01*
Y50304D01*
X213045D01*
Y50445D01*
X212904D01*
Y50587D01*
X213045D01*
Y50728D01*
X212904D01*
Y50869D01*
X213045D01*
Y51011D01*
X212904D01*
Y51152D01*
X213045D01*
Y51293D01*
X212904D01*
Y51434D01*
X213045D01*
Y51576D01*
X212904D01*
Y51717D01*
X213045D01*
Y51858D01*
X212904D01*
Y51999D01*
X213045D01*
Y52141D01*
X212904D01*
Y52282D01*
X213045D01*
Y52423D01*
X212904D01*
Y52565D01*
X213045D01*
Y52706D01*
X212904D01*
Y52847D01*
X213045D01*
Y52988D01*
X212904D01*
Y53130D01*
X213045D01*
Y53271D01*
X212904D01*
Y53412D01*
X213045D01*
Y53553D01*
X212904D01*
Y53695D01*
X213045D01*
Y53836D01*
X212904D01*
Y53977D01*
X213045D01*
Y54119D01*
X212904D01*
Y54260D01*
X213045D01*
Y54401D01*
X212904D01*
Y54542D01*
X213045D01*
Y54684D01*
X213186D01*
Y54825D01*
X213328D01*
Y54684D01*
X213469D01*
Y54825D01*
X213610D01*
Y54684D01*
X213752D01*
Y55108D01*
X213610D01*
Y55249D01*
X213469D01*
Y55390D01*
X213328D01*
Y55531D01*
X213186D01*
Y56238D01*
X213045D01*
Y56662D01*
X212904D01*
Y56803D01*
X213045D01*
Y56944D01*
X212904D01*
Y57086D01*
X213045D01*
Y57227D01*
X212904D01*
Y57368D01*
X213045D01*
Y57509D01*
X212904D01*
Y57651D01*
X213045D01*
Y57792D01*
X212904D01*
Y57933D01*
X213045D01*
Y58074D01*
X212904D01*
Y58216D01*
X213045D01*
Y58357D01*
X212904D01*
Y58498D01*
X213045D01*
Y58922D01*
X213186D01*
Y59063D01*
X213045D01*
Y59205D01*
X213186D01*
Y59628D01*
X213328D01*
Y59770D01*
X213469D01*
Y60052D01*
X213752D01*
Y60335D01*
X214034D01*
Y60476D01*
X214175D01*
Y60617D01*
X214317D01*
Y60759D01*
X214458D01*
Y60617D01*
X214599D01*
Y60759D01*
X215023D01*
Y60900D01*
X215164D01*
Y60759D01*
X215305D01*
Y60900D01*
X219403D01*
Y61041D01*
X219544D01*
Y61183D01*
X219403D01*
Y61606D01*
X219261D01*
Y61748D01*
X219120D01*
Y61889D01*
X218979D01*
Y62030D01*
X218837D01*
Y62172D01*
X218696D01*
Y62595D01*
X218555D01*
Y62454D01*
X218414D01*
Y62313D01*
X218272D01*
Y62172D01*
X218131D01*
Y62030D01*
X217990D01*
Y61889D01*
X217848D01*
Y61748D01*
X217707D01*
Y61889D01*
X217566D01*
Y61748D01*
X217425D01*
Y61606D01*
X216718D01*
Y61465D01*
X216577D01*
Y61606D01*
X216436D01*
Y61465D01*
X216295D01*
Y61606D01*
X216153D01*
Y61465D01*
X216012D01*
Y61606D01*
X215588D01*
Y61748D01*
X215447D01*
Y61606D01*
X215305D01*
Y61748D01*
X215164D01*
Y61889D01*
X215023D01*
Y61748D01*
X214882D01*
Y61889D01*
X214740D01*
Y62030D01*
X214599D01*
Y62172D01*
X214458D01*
Y62313D01*
X214317D01*
Y62454D01*
X214175D01*
Y62595D01*
X214034D01*
Y62737D01*
X213893D01*
Y62878D01*
X213752D01*
Y63019D01*
X213610D01*
Y63160D01*
X213469D01*
Y63584D01*
X213328D01*
Y64008D01*
X213186D01*
Y64432D01*
X213045D01*
Y64573D01*
X213186D01*
Y64714D01*
X213045D01*
Y64856D01*
X212904D01*
Y64997D01*
X213045D01*
Y65138D01*
X212904D01*
Y65280D01*
X213045D01*
Y65421D01*
X212904D01*
Y65562D01*
X213045D01*
Y65703D01*
X212904D01*
Y65845D01*
X213045D01*
Y65986D01*
X212904D01*
Y66127D01*
X213045D01*
Y66269D01*
X212904D01*
Y66410D01*
X213045D01*
Y66551D01*
X212904D01*
Y66692D01*
X213045D01*
Y67116D01*
X213186D01*
Y67257D01*
X213045D01*
Y67399D01*
X213186D01*
Y68105D01*
X213328D01*
Y68246D01*
X213469D01*
Y68670D01*
X213610D01*
Y69094D01*
X213469D01*
Y69518D01*
X213328D01*
Y69659D01*
X213186D01*
Y70083D01*
X213045D01*
Y70224D01*
X213186D01*
Y70366D01*
X213045D01*
Y70507D01*
X212904D01*
Y70648D01*
X213045D01*
Y70789D01*
X212904D01*
Y70931D01*
X213045D01*
Y71072D01*
X212904D01*
Y71213D01*
X213045D01*
Y71355D01*
X212904D01*
Y71496D01*
X213045D01*
Y71637D01*
X212904D01*
Y71778D01*
X213045D01*
Y71920D01*
X212904D01*
Y72061D01*
X213045D01*
Y72202D01*
X212904D01*
Y72343D01*
X213045D01*
Y72485D01*
X212904D01*
Y72626D01*
X213045D01*
Y72767D01*
X212904D01*
Y72909D01*
X213045D01*
Y73050D01*
X212904D01*
Y73191D01*
X213045D01*
Y73332D01*
X212904D01*
Y73474D01*
X213045D01*
Y73615D01*
X212904D01*
Y73756D01*
X213045D01*
Y73898D01*
X212904D01*
Y74039D01*
X213045D01*
Y74180D01*
X212904D01*
Y74321D01*
X213045D01*
Y74463D01*
X212904D01*
Y74604D01*
X213045D01*
Y74745D01*
X212904D01*
Y74887D01*
X213045D01*
Y75028D01*
X212904D01*
Y75169D01*
X213045D01*
Y75310D01*
X212904D01*
Y75452D01*
X213045D01*
Y75593D01*
X212904D01*
Y75734D01*
X213045D01*
Y75876D01*
X212904D01*
Y76017D01*
X213045D01*
Y76158D01*
X212904D01*
Y76299D01*
X213045D01*
Y76441D01*
X213186D01*
Y76582D01*
X213328D01*
Y76441D01*
X213469D01*
Y76582D01*
X213610D01*
Y76441D01*
X213752D01*
Y76582D01*
X213610D01*
Y76723D01*
X213469D01*
Y76864D01*
X213328D01*
Y77288D01*
X213186D01*
Y77712D01*
X213045D01*
Y77853D01*
X213186D01*
Y77995D01*
X213045D01*
Y78418D01*
X212904D01*
Y78560D01*
X213045D01*
Y78701D01*
X212904D01*
Y78842D01*
X213045D01*
Y78984D01*
X212904D01*
Y79125D01*
X213045D01*
Y79266D01*
X212904D01*
Y79407D01*
X213045D01*
Y79549D01*
X212904D01*
Y79690D01*
X213045D01*
Y79831D01*
X213186D01*
Y79972D01*
X213045D01*
Y80114D01*
X213186D01*
Y80538D01*
X213328D01*
Y80679D01*
X213469D01*
Y80820D01*
X213328D01*
Y80962D01*
X213469D01*
Y81103D01*
X213610D01*
Y81244D01*
X213752D01*
Y81668D01*
X214034D01*
Y81950D01*
X214317D01*
Y82233D01*
X214175D01*
Y82092D01*
X214034D01*
Y82233D01*
X213893D01*
Y82092D01*
X213752D01*
Y82233D01*
X213610D01*
Y82092D01*
X213469D01*
Y82233D01*
X213328D01*
Y82092D01*
X213186D01*
Y82233D01*
X213045D01*
Y82374D01*
X212904D01*
Y82516D01*
X213045D01*
Y82657D01*
X212904D01*
Y82798D01*
X213045D01*
Y82939D01*
X212904D01*
Y83081D01*
X213045D01*
Y83222D01*
X212904D01*
Y83363D01*
X213045D01*
Y83504D01*
X212904D01*
Y83646D01*
X213045D01*
Y83787D01*
X212904D01*
Y83928D01*
X213045D01*
Y84070D01*
X212904D01*
Y84211D01*
X213045D01*
Y84352D01*
X212904D01*
Y84493D01*
X213045D01*
Y84635D01*
X212904D01*
Y84776D01*
X213045D01*
Y84917D01*
X212904D01*
Y85058D01*
X213045D01*
Y85200D01*
X212904D01*
Y85341D01*
X213045D01*
Y85482D01*
X212904D01*
Y85624D01*
X213045D01*
Y85765D01*
X212904D01*
Y85906D01*
X213045D01*
Y86048D01*
X212904D01*
Y86189D01*
X213045D01*
Y86330D01*
X212904D01*
Y86471D01*
X213045D01*
Y86613D01*
X212904D01*
Y86754D01*
X213045D01*
Y86895D01*
X212904D01*
Y87036D01*
X213045D01*
Y87178D01*
X213186D01*
Y87460D01*
X213469D01*
Y87319D01*
X213610D01*
Y87460D01*
X214034D01*
Y87319D01*
X214175D01*
Y87460D01*
X214599D01*
Y87319D01*
X214740D01*
Y87460D01*
X215164D01*
Y87319D01*
X215305D01*
Y87460D01*
X215729D01*
Y87319D01*
X215871D01*
Y87460D01*
X216295D01*
Y87319D01*
X216436D01*
Y87460D01*
X216860D01*
Y87319D01*
X217001D01*
Y87460D01*
X217425D01*
Y87319D01*
X217566D01*
Y87460D01*
X217990D01*
Y87319D01*
X218131D01*
Y87460D01*
X218555D01*
Y87319D01*
X218696D01*
Y87460D01*
X219120D01*
Y87319D01*
X219261D01*
Y87460D01*
X219403D01*
Y87602D01*
X219544D01*
Y87743D01*
X219403D01*
Y88167D01*
X219261D01*
Y88308D01*
X219120D01*
Y88449D01*
X218979D01*
Y88590D01*
X218837D01*
Y88732D01*
X218696D01*
Y88873D01*
X218837D01*
Y89014D01*
X218696D01*
Y89156D01*
X218555D01*
Y89014D01*
X218414D01*
Y88873D01*
X218272D01*
Y88732D01*
X218131D01*
Y88590D01*
X217990D01*
Y88449D01*
X217848D01*
Y88308D01*
X217707D01*
Y88449D01*
X217566D01*
Y88308D01*
X217425D01*
Y88167D01*
X217001D01*
Y88025D01*
X216860D01*
Y88167D01*
X216718D01*
Y88025D01*
X216577D01*
Y88167D01*
X216436D01*
Y88025D01*
X216295D01*
Y88167D01*
X216153D01*
Y88025D01*
X216012D01*
Y88167D01*
X215588D01*
Y88308D01*
X215164D01*
Y88449D01*
X215023D01*
Y88308D01*
X214882D01*
Y88449D01*
X214740D01*
Y88590D01*
X214599D01*
Y88732D01*
X214458D01*
Y88873D01*
X214317D01*
Y89014D01*
X214175D01*
Y89156D01*
X214034D01*
Y89297D01*
X213893D01*
Y89438D01*
X213752D01*
Y89721D01*
X213610D01*
Y89862D01*
X213469D01*
Y90144D01*
X213328D01*
Y90568D01*
X213186D01*
Y90992D01*
X213045D01*
Y91133D01*
X213186D01*
Y91275D01*
X213045D01*
Y91699D01*
X212904D01*
Y91840D01*
X213045D01*
Y91981D01*
X212904D01*
Y92122D01*
X213045D01*
Y92264D01*
X212904D01*
Y92405D01*
X213045D01*
Y92546D01*
X212904D01*
Y92687D01*
X213045D01*
Y92829D01*
X212904D01*
Y92970D01*
X213045D01*
Y93111D01*
X212904D01*
Y93253D01*
X213045D01*
Y93676D01*
X213186D01*
Y93818D01*
X213045D01*
Y93959D01*
X213186D01*
Y94665D01*
X213328D01*
Y94807D01*
X213469D01*
Y95231D01*
X213610D01*
Y95654D01*
X213469D01*
Y96078D01*
X213328D01*
Y96219D01*
X213186D01*
Y96643D01*
X213045D01*
Y96785D01*
X213186D01*
Y96926D01*
X213045D01*
Y97067D01*
X212904D01*
Y97208D01*
X213045D01*
Y97350D01*
X212904D01*
Y97491D01*
X213045D01*
Y97632D01*
X212904D01*
Y97773D01*
X213045D01*
Y97915D01*
X212904D01*
Y98056D01*
X213045D01*
Y98480D01*
X213186D01*
Y98904D01*
X213328D01*
Y99045D01*
X213469D01*
Y99186D01*
X213610D01*
Y99328D01*
X213752D01*
Y99469D01*
X214175D01*
Y99610D01*
X215164D01*
Y99469D01*
D02*
G37*
G36*
X211350Y87460D02*
X211632D01*
Y87319D01*
X211915D01*
Y87178D01*
X212056D01*
Y87036D01*
X212197D01*
Y86895D01*
X212339D01*
Y86754D01*
X212480D01*
Y86330D01*
X212621D01*
Y86189D01*
X212762D01*
Y86048D01*
X212621D01*
Y86189D01*
X212480D01*
Y86048D01*
X212621D01*
Y85906D01*
X212762D01*
Y85765D01*
X212621D01*
Y85624D01*
X212762D01*
Y85482D01*
X212621D01*
Y85341D01*
X212762D01*
Y85200D01*
X212621D01*
Y85058D01*
X212762D01*
Y84917D01*
X212621D01*
Y84776D01*
X212480D01*
Y84352D01*
X212339D01*
Y84211D01*
X212197D01*
Y83928D01*
X211915D01*
Y83787D01*
X211774D01*
Y83646D01*
X211632D01*
Y83504D01*
X211491D01*
Y83646D01*
X211350D01*
Y83504D01*
X210643D01*
Y83646D01*
X210502D01*
Y83504D01*
X210361D01*
Y83646D01*
X210220D01*
Y83787D01*
X210078D01*
Y83928D01*
X209937D01*
Y84070D01*
X209796D01*
Y84211D01*
X209654D01*
Y84352D01*
X209513D01*
Y84776D01*
X209372D01*
Y84917D01*
X209231D01*
Y85058D01*
X209372D01*
Y85200D01*
X209231D01*
Y85341D01*
X209372D01*
Y85482D01*
X209231D01*
Y85624D01*
X209372D01*
Y85765D01*
X209231D01*
Y85906D01*
X209372D01*
Y86048D01*
X209231D01*
Y86189D01*
X209372D01*
Y86330D01*
X209513D01*
Y86613D01*
X209654D01*
Y86895D01*
X209796D01*
Y87036D01*
X209937D01*
Y87178D01*
X210078D01*
Y87319D01*
X210361D01*
Y87460D01*
X210643D01*
Y87602D01*
X210785D01*
Y87460D01*
X210926D01*
Y87602D01*
X211067D01*
Y87460D01*
X211209D01*
Y87602D01*
X211350D01*
Y87460D01*
D02*
G37*
G36*
X211067Y49315D02*
X211491D01*
Y49174D01*
X211915D01*
Y49033D01*
X212056D01*
Y48891D01*
X212197D01*
Y48750D01*
X212339D01*
Y48609D01*
X212480D01*
Y48185D01*
X212621D01*
Y47761D01*
X212762D01*
Y47620D01*
X212621D01*
Y47479D01*
X212762D01*
Y47337D01*
X212621D01*
Y47196D01*
X212762D01*
Y47055D01*
X212621D01*
Y46913D01*
X212762D01*
Y46772D01*
X212621D01*
Y46631D01*
X212480D01*
Y46207D01*
X212339D01*
Y46066D01*
X212197D01*
Y45783D01*
X211915D01*
Y45642D01*
X211774D01*
Y45501D01*
X211632D01*
Y45359D01*
X211491D01*
Y45501D01*
X211350D01*
Y45359D01*
X210643D01*
Y45501D01*
X210502D01*
Y45359D01*
X210361D01*
Y45501D01*
X210220D01*
Y45642D01*
X210078D01*
Y45783D01*
X209937D01*
Y45924D01*
X209796D01*
Y46066D01*
X209654D01*
Y46207D01*
X209513D01*
Y46631D01*
X209372D01*
Y46772D01*
X209231D01*
Y46913D01*
X209372D01*
Y47055D01*
X209231D01*
Y47479D01*
X209372D01*
Y47620D01*
X209231D01*
Y47761D01*
X209372D01*
Y48185D01*
X209513D01*
Y48609D01*
X209654D01*
Y48750D01*
X209796D01*
Y48891D01*
X209937D01*
Y49033D01*
X210078D01*
Y49174D01*
X210361D01*
Y49315D01*
X210643D01*
Y49457D01*
X210785D01*
Y49315D01*
X210926D01*
Y49457D01*
X211067D01*
Y49315D01*
D02*
G37*
G36*
X210926Y32221D02*
X211632D01*
Y32079D01*
X211774D01*
Y31938D01*
X211915D01*
Y31797D01*
X212197D01*
Y31514D01*
X212339D01*
Y31373D01*
X212480D01*
Y30949D01*
X212621D01*
Y30808D01*
X212762D01*
Y30667D01*
X212621D01*
Y30525D01*
X212762D01*
Y30384D01*
X212621D01*
Y30243D01*
X212762D01*
Y30101D01*
X212621D01*
Y29960D01*
X212762D01*
Y29819D01*
X212621D01*
Y29678D01*
X212762D01*
Y29536D01*
X212621D01*
Y29678D01*
X212480D01*
Y29536D01*
X212621D01*
Y29395D01*
X212480D01*
Y28971D01*
X212339D01*
Y28830D01*
X212197D01*
Y28689D01*
X212056D01*
Y28547D01*
X211915D01*
Y28406D01*
X211491D01*
Y28265D01*
X210502D01*
Y28406D01*
X210361D01*
Y28547D01*
X209937D01*
Y28689D01*
X209796D01*
Y28830D01*
X209654D01*
Y28971D01*
X209796D01*
Y29112D01*
X209654D01*
Y29254D01*
X209513D01*
Y29395D01*
X209372D01*
Y29536D01*
X209231D01*
Y29678D01*
X209372D01*
Y29819D01*
X209231D01*
Y29960D01*
X209372D01*
Y30101D01*
X209231D01*
Y30243D01*
X209372D01*
Y30384D01*
X209231D01*
Y30525D01*
X209372D01*
Y30667D01*
X209231D01*
Y30808D01*
X209372D01*
Y30949D01*
X209513D01*
Y31373D01*
X209654D01*
Y31514D01*
X209796D01*
Y31797D01*
X210078D01*
Y31938D01*
X210220D01*
Y32079D01*
X210361D01*
Y32221D01*
X210785D01*
Y32362D01*
X210926D01*
Y32221D01*
D02*
G37*
G36*
X221522Y8910D02*
X221380D01*
Y9051D01*
X221522D01*
Y8910D01*
D02*
G37*
%LPC*%
G36*
X215164Y96926D02*
X215023D01*
Y96785D01*
X214882D01*
Y96926D01*
X214740D01*
Y96785D01*
X214599D01*
Y96643D01*
X215305D01*
Y96785D01*
X215164D01*
Y96926D01*
D02*
G37*
G36*
X217001Y93394D02*
X215447D01*
Y93253D01*
X215023D01*
Y93111D01*
X214882D01*
Y92970D01*
X214740D01*
Y92546D01*
X214599D01*
Y92405D01*
X214740D01*
Y91981D01*
X214882D01*
Y91840D01*
X215023D01*
Y91699D01*
X215729D01*
Y91557D01*
X215871D01*
Y91699D01*
X216012D01*
Y91557D01*
X216718D01*
Y91699D01*
X217142D01*
Y91840D01*
X217283D01*
Y91699D01*
X217425D01*
Y91840D01*
X217566D01*
Y91981D01*
X217707D01*
Y92122D01*
X217848D01*
Y92264D01*
X217707D01*
Y92405D01*
X217848D01*
Y92546D01*
X217707D01*
Y92687D01*
X217848D01*
Y92829D01*
X217707D01*
Y92970D01*
X217566D01*
Y93111D01*
X217425D01*
Y93253D01*
X217001D01*
Y93394D01*
D02*
G37*
G36*
X223076Y95372D02*
X222793D01*
Y95231D01*
X222652D01*
Y94807D01*
X222511D01*
Y94665D01*
X222652D01*
Y94524D01*
X222511D01*
Y94383D01*
X222652D01*
Y94242D01*
X222511D01*
Y93818D01*
X222369D01*
Y93676D01*
X222511D01*
Y93535D01*
X222369D01*
Y93394D01*
X222511D01*
Y93253D01*
X222369D01*
Y93111D01*
X222511D01*
Y92970D01*
X222369D01*
Y92829D01*
X222511D01*
Y92687D01*
X222369D01*
Y92546D01*
X222511D01*
Y92405D01*
X222369D01*
Y92264D01*
X222511D01*
Y92122D01*
X222369D01*
Y91981D01*
X222511D01*
Y91840D01*
X222369D01*
Y91699D01*
X222511D01*
Y91557D01*
X222369D01*
Y91416D01*
X222511D01*
Y90710D01*
X222652D01*
Y90568D01*
X222793D01*
Y90427D01*
X222935D01*
Y90568D01*
X223076D01*
Y90710D01*
X223217D01*
Y91133D01*
X223358D01*
Y92122D01*
X223500D01*
Y92264D01*
X223358D01*
Y92687D01*
X223500D01*
Y92829D01*
X223358D01*
Y93253D01*
X223500D01*
Y93394D01*
X223358D01*
Y94665D01*
X223217D01*
Y94807D01*
X223358D01*
Y94948D01*
X223217D01*
Y95089D01*
X223076D01*
Y95372D01*
D02*
G37*
G36*
X219403Y83646D02*
X219261D01*
Y83504D01*
X219120D01*
Y83646D01*
X215305D01*
Y83504D01*
X215164D01*
Y83363D01*
X215023D01*
Y83222D01*
X215164D01*
Y83081D01*
X215023D01*
Y82939D01*
X215164D01*
Y82798D01*
X215023D01*
Y82657D01*
X215164D01*
Y82516D01*
X215305D01*
Y82657D01*
X215447D01*
Y82798D01*
X215588D01*
Y82657D01*
X215729D01*
Y82798D01*
X215871D01*
Y82657D01*
X216012D01*
Y82798D01*
X216153D01*
Y82939D01*
X216295D01*
Y82798D01*
X216436D01*
Y82939D01*
X218272D01*
Y82798D01*
X218696D01*
Y82657D01*
X218837D01*
Y82798D01*
X218979D01*
Y82657D01*
X219261D01*
Y82516D01*
X219544D01*
Y82657D01*
X219403D01*
Y83081D01*
X219544D01*
Y83222D01*
X219403D01*
Y83646D01*
D02*
G37*
G36*
X218272Y79125D02*
X218131D01*
Y78984D01*
X217990D01*
Y79125D01*
X216436D01*
Y78984D01*
X216295D01*
Y79125D01*
X216153D01*
Y78984D01*
X215729D01*
Y78842D01*
X215588D01*
Y78701D01*
X215447D01*
Y78560D01*
X215305D01*
Y78418D01*
X215164D01*
Y77995D01*
X215023D01*
Y77853D01*
X215164D01*
Y77712D01*
X215023D01*
Y77571D01*
X215164D01*
Y77429D01*
X215305D01*
Y77006D01*
X215588D01*
Y76864D01*
X215871D01*
Y76723D01*
X216295D01*
Y76582D01*
X218272D01*
Y76723D01*
X218555D01*
Y76864D01*
X218696D01*
Y76723D01*
X218837D01*
Y76864D01*
X218979D01*
Y77006D01*
X219120D01*
Y77147D01*
X219261D01*
Y77571D01*
X219403D01*
Y77712D01*
X219261D01*
Y77853D01*
X219403D01*
Y77995D01*
X219261D01*
Y78136D01*
X219403D01*
Y78277D01*
X219261D01*
Y78418D01*
X219120D01*
Y78701D01*
X218837D01*
Y78842D01*
X218696D01*
Y78984D01*
X218272D01*
Y79125D01*
D02*
G37*
G36*
X222511Y72909D02*
X222369D01*
Y72767D01*
X222228D01*
Y72909D01*
X222087D01*
Y72767D01*
X221946D01*
Y72909D01*
X221804D01*
Y72767D01*
X221663D01*
Y72909D01*
X221522D01*
Y72767D01*
X221380D01*
Y72909D01*
X221239D01*
Y72767D01*
X221098D01*
Y72909D01*
X220957D01*
Y72767D01*
X220815D01*
Y72909D01*
X220674D01*
Y72767D01*
X220533D01*
Y72909D01*
X220392D01*
Y72767D01*
X220250D01*
Y72909D01*
X220109D01*
Y72767D01*
X219968D01*
Y72909D01*
X219826D01*
Y72767D01*
X219685D01*
Y72909D01*
X219544D01*
Y72767D01*
X219403D01*
Y72909D01*
X219261D01*
Y72767D01*
X219120D01*
Y72909D01*
X218979D01*
Y72767D01*
X218837D01*
Y72909D01*
X218696D01*
Y72767D01*
X218555D01*
Y72909D01*
X218414D01*
Y72767D01*
X218272D01*
Y72909D01*
X218131D01*
Y72767D01*
X217990D01*
Y72909D01*
X217848D01*
Y72767D01*
X217707D01*
Y72909D01*
X217566D01*
Y72767D01*
X217425D01*
Y72909D01*
X217283D01*
Y72767D01*
X217142D01*
Y72909D01*
X217001D01*
Y72767D01*
X216860D01*
Y72909D01*
X216718D01*
Y72767D01*
X216577D01*
Y72909D01*
X216436D01*
Y72767D01*
X216295D01*
Y72909D01*
X216153D01*
Y72767D01*
X216012D01*
Y72909D01*
X215871D01*
Y72767D01*
X215729D01*
Y72909D01*
X215588D01*
Y72767D01*
X215729D01*
Y72626D01*
X215871D01*
Y72485D01*
X216012D01*
Y72061D01*
X216153D01*
Y71072D01*
X216012D01*
Y70931D01*
X215871D01*
Y70648D01*
X215588D01*
Y70507D01*
X215447D01*
Y70366D01*
X215305D01*
Y70224D01*
X215729D01*
Y70366D01*
X215871D01*
Y70224D01*
X216012D01*
Y70366D01*
X216153D01*
Y70224D01*
X216295D01*
Y70366D01*
X216436D01*
Y70224D01*
X216577D01*
Y70366D01*
X216718D01*
Y70224D01*
X217142D01*
Y70083D01*
X217283D01*
Y69942D01*
X217425D01*
Y70083D01*
X217566D01*
Y69942D01*
X217707D01*
Y69801D01*
X217848D01*
Y69659D01*
X218131D01*
Y69518D01*
X218414D01*
Y69235D01*
X218555D01*
Y69094D01*
X218696D01*
Y68812D01*
X218837D01*
Y68670D01*
X218979D01*
Y68246D01*
X219120D01*
Y68105D01*
X219261D01*
Y67964D01*
X219120D01*
Y67823D01*
X219261D01*
Y67399D01*
X219403D01*
Y67257D01*
X219261D01*
Y67116D01*
X219403D01*
Y66975D01*
X219544D01*
Y66834D01*
X219403D01*
Y66692D01*
X219544D01*
Y66551D01*
X219403D01*
Y66410D01*
X219544D01*
Y66269D01*
X219403D01*
Y66127D01*
X219544D01*
Y65703D01*
X219403D01*
Y65562D01*
X219544D01*
Y65421D01*
X219403D01*
Y65280D01*
X219544D01*
Y65138D01*
X219403D01*
Y64997D01*
X219544D01*
Y64856D01*
X219403D01*
Y64714D01*
X219261D01*
Y64573D01*
X219403D01*
Y64432D01*
X219261D01*
Y64291D01*
X219403D01*
Y64149D01*
X219261D01*
Y63726D01*
X219685D01*
Y64149D01*
X219826D01*
Y64573D01*
X219968D01*
Y64714D01*
X219826D01*
Y64856D01*
X219968D01*
Y64997D01*
X219826D01*
Y65138D01*
X219968D01*
Y65280D01*
X219826D01*
Y65421D01*
X219968D01*
Y65562D01*
X219826D01*
Y65703D01*
X219968D01*
Y65845D01*
X219826D01*
Y65986D01*
X219685D01*
Y66127D01*
X219826D01*
Y66269D01*
X219685D01*
Y66410D01*
X219826D01*
Y66551D01*
X219685D01*
Y66692D01*
X219826D01*
Y66834D01*
X219685D01*
Y66975D01*
X219826D01*
Y67116D01*
X219685D01*
Y67257D01*
X219826D01*
Y67399D01*
X219685D01*
Y67540D01*
X219826D01*
Y67681D01*
X219685D01*
Y67823D01*
X219826D01*
Y67964D01*
X219685D01*
Y68105D01*
X219826D01*
Y68246D01*
X219685D01*
Y68388D01*
X219826D01*
Y68529D01*
X219685D01*
Y68670D01*
X219826D01*
Y68812D01*
X219685D01*
Y68953D01*
X219826D01*
Y69094D01*
X219685D01*
Y69235D01*
X219826D01*
Y69377D01*
X219968D01*
Y69518D01*
X219826D01*
Y69659D01*
X219968D01*
Y70083D01*
X220109D01*
Y70224D01*
X219968D01*
Y70366D01*
X220109D01*
Y70507D01*
X220250D01*
Y70648D01*
X220392D01*
Y70789D01*
X220533D01*
Y70931D01*
X220674D01*
Y71072D01*
X220815D01*
Y71213D01*
X220957D01*
Y71355D01*
X221098D01*
Y71496D01*
X221522D01*
Y71637D01*
X221946D01*
Y71778D01*
X222087D01*
Y71637D01*
X222228D01*
Y71778D01*
X222369D01*
Y71637D01*
X222511D01*
Y71778D01*
X222652D01*
Y71637D01*
X222793D01*
Y71778D01*
X222935D01*
Y71920D01*
X222793D01*
Y72343D01*
X222935D01*
Y72485D01*
X222793D01*
Y72767D01*
X222511D01*
Y72909D01*
D02*
G37*
G36*
X215164Y70366D02*
X215023D01*
Y70224D01*
X214882D01*
Y70366D01*
X214740D01*
Y70224D01*
X214599D01*
Y70083D01*
X215305D01*
Y70224D01*
X215164D01*
Y70366D01*
D02*
G37*
G36*
X217001Y66834D02*
X215447D01*
Y66692D01*
X215023D01*
Y66551D01*
X214882D01*
Y66410D01*
X214740D01*
Y65986D01*
X214599D01*
Y65845D01*
X214740D01*
Y65421D01*
X214882D01*
Y65280D01*
X215023D01*
Y65138D01*
X215447D01*
Y64997D01*
X215588D01*
Y65138D01*
X215729D01*
Y64997D01*
X215871D01*
Y65138D01*
X216012D01*
Y64997D01*
X216718D01*
Y65138D01*
X216860D01*
Y64997D01*
X217001D01*
Y65138D01*
X217142D01*
Y65280D01*
X217283D01*
Y65138D01*
X217425D01*
Y65280D01*
X217566D01*
Y65421D01*
X217707D01*
Y65562D01*
X217848D01*
Y65703D01*
X217707D01*
Y65845D01*
X217848D01*
Y65986D01*
X217707D01*
Y66127D01*
X217848D01*
Y66269D01*
X217707D01*
Y66410D01*
X217566D01*
Y66551D01*
X217425D01*
Y66692D01*
X217001D01*
Y66834D01*
D02*
G37*
G36*
X223076Y68812D02*
X222793D01*
Y68670D01*
X222652D01*
Y68246D01*
X222511D01*
Y68105D01*
X222652D01*
Y67964D01*
X222511D01*
Y67823D01*
X222652D01*
Y67681D01*
X222511D01*
Y67257D01*
X222369D01*
Y67116D01*
X222511D01*
Y66975D01*
X222369D01*
Y66834D01*
X222511D01*
Y66692D01*
X222369D01*
Y66551D01*
X222511D01*
Y66410D01*
X222369D01*
Y66269D01*
X222511D01*
Y66127D01*
X222369D01*
Y65986D01*
X222511D01*
Y65845D01*
X222369D01*
Y65703D01*
X222511D01*
Y65562D01*
X222369D01*
Y65421D01*
X222511D01*
Y65280D01*
X222369D01*
Y65138D01*
X222511D01*
Y64997D01*
X222369D01*
Y64856D01*
X222511D01*
Y64714D01*
X222369D01*
Y64573D01*
X222511D01*
Y64149D01*
X222652D01*
Y64008D01*
X222793D01*
Y63867D01*
X222935D01*
Y64008D01*
X223076D01*
Y64149D01*
X223217D01*
Y64573D01*
X223358D01*
Y65562D01*
X223500D01*
Y65703D01*
X223358D01*
Y66127D01*
X223500D01*
Y66269D01*
X223358D01*
Y66692D01*
X223500D01*
Y66834D01*
X223358D01*
Y68105D01*
X223217D01*
Y68246D01*
X223358D01*
Y68388D01*
X223217D01*
Y68529D01*
X223076D01*
Y68812D01*
D02*
G37*
G36*
X219120Y23179D02*
X218979D01*
Y23038D01*
X218555D01*
Y23179D01*
X218414D01*
Y23038D01*
X217990D01*
Y23179D01*
X217848D01*
Y23038D01*
X217425D01*
Y23179D01*
X217283D01*
Y23038D01*
X216860D01*
Y23179D01*
X216718D01*
Y23038D01*
X215729D01*
Y22896D01*
X215588D01*
Y22755D01*
X215447D01*
Y22896D01*
X215305D01*
Y22472D01*
X215164D01*
Y22331D01*
X215305D01*
Y21625D01*
X215447D01*
Y21484D01*
X215588D01*
Y21342D01*
X215729D01*
Y21201D01*
X215871D01*
Y21060D01*
X216012D01*
Y20918D01*
X216436D01*
Y20777D01*
X216577D01*
Y20918D01*
X216718D01*
Y20777D01*
X216860D01*
Y20918D01*
X217001D01*
Y20777D01*
X217142D01*
Y20918D01*
X217283D01*
Y20777D01*
X217425D01*
Y20918D01*
X217566D01*
Y20777D01*
X217707D01*
Y20918D01*
X217848D01*
Y20777D01*
X217990D01*
Y20918D01*
X218131D01*
Y20777D01*
X218272D01*
Y20918D01*
X218414D01*
Y20777D01*
X218555D01*
Y20918D01*
X218696D01*
Y20777D01*
X218837D01*
Y20918D01*
X218979D01*
Y20777D01*
X219120D01*
Y20918D01*
X219261D01*
Y20777D01*
X219403D01*
Y20918D01*
X219544D01*
Y21060D01*
X219403D01*
Y21484D01*
X219544D01*
Y21625D01*
X219403D01*
Y21766D01*
X219826D01*
Y21907D01*
X219685D01*
Y22049D01*
X219544D01*
Y22190D01*
X219403D01*
Y22614D01*
X219544D01*
Y22755D01*
X219403D01*
Y23038D01*
X219120D01*
Y23179D01*
D02*
G37*
G36*
X221098Y22049D02*
X220957D01*
Y21907D01*
X221098D01*
Y22049D01*
D02*
G37*
G36*
X220533D02*
X220392D01*
Y21907D01*
X220533D01*
Y22049D01*
D02*
G37*
G36*
X219968D02*
X219826D01*
Y21907D01*
X219968D01*
Y22049D01*
D02*
G37*
G36*
X220815D02*
X220674D01*
Y21907D01*
X220815D01*
Y21766D01*
X220957D01*
Y21907D01*
X220815D01*
Y22049D01*
D02*
G37*
G36*
X220250D02*
X220109D01*
Y21907D01*
X220250D01*
Y21766D01*
X220392D01*
Y21907D01*
X220250D01*
Y22049D01*
D02*
G37*
G36*
X220533Y15550D02*
X220392D01*
Y15408D01*
X220533D01*
Y15550D01*
D02*
G37*
G36*
X216012Y14420D02*
X215871D01*
Y14278D01*
X216012D01*
Y14420D01*
D02*
G37*
G36*
Y14137D02*
X215871D01*
Y13996D01*
X215729D01*
Y14137D01*
X215588D01*
Y13855D01*
X215305D01*
Y13713D01*
X215164D01*
Y13572D01*
X215023D01*
Y13431D01*
X214882D01*
Y13289D01*
X214740D01*
Y12866D01*
X214599D01*
Y12442D01*
X214458D01*
Y12300D01*
X214599D01*
Y12159D01*
X214458D01*
Y12018D01*
X214599D01*
Y11877D01*
X214458D01*
Y11735D01*
X214599D01*
Y11594D01*
X214458D01*
Y11453D01*
X214599D01*
Y11029D01*
X214740D01*
Y10888D01*
X214882D01*
Y10746D01*
X215164D01*
Y10888D01*
X215305D01*
Y11170D01*
X215447D01*
Y11877D01*
X215588D01*
Y12300D01*
X215729D01*
Y12442D01*
X215588D01*
Y12583D01*
X215729D01*
Y13289D01*
X215871D01*
Y13431D01*
X215729D01*
Y13572D01*
X215871D01*
Y13713D01*
X216012D01*
Y14137D01*
D02*
G37*
G36*
X219403Y12724D02*
X219261D01*
Y12583D01*
X218979D01*
Y12300D01*
X218837D01*
Y12159D01*
X218979D01*
Y12018D01*
X218837D01*
Y11877D01*
X218696D01*
Y11170D01*
X218555D01*
Y10746D01*
X218414D01*
Y10605D01*
X218555D01*
Y10464D01*
X218414D01*
Y9757D01*
X218272D01*
Y9334D01*
X218131D01*
Y8910D01*
X218272D01*
Y9051D01*
X218414D01*
Y9192D01*
X218555D01*
Y9334D01*
X218837D01*
Y9616D01*
X218979D01*
Y9757D01*
X219120D01*
Y9899D01*
X219261D01*
Y10040D01*
X219403D01*
Y10464D01*
X219544D01*
Y10888D01*
X219685D01*
Y11594D01*
X219826D01*
Y11735D01*
X219685D01*
Y12442D01*
X219544D01*
Y12583D01*
X219403D01*
Y12724D01*
D02*
G37*
%LPD*%
D10*
X87000Y213000D02*
G03*
X86000Y212000I0J-1000D01*
G01*
Y206000D02*
G03*
X87000Y205000I1000J0D01*
G01*
X103000D02*
G03*
X104000Y206000I0J1000D01*
G01*
Y212000D02*
G03*
X103000Y213000I-1000J0D01*
G01*
X75900Y35668D02*
G03*
X76900Y34668I1000J0D01*
G01*
X82900D02*
G03*
X83900Y35668I0J1000D01*
G01*
Y55794D02*
G03*
X82900Y56794I-1000J0D01*
G01*
X76900D02*
G03*
X75900Y55794I0J-1000D01*
G01*
X137955Y76100D02*
G03*
X137955Y76100I-7906J0D01*
G01*
X119011Y229400D02*
G03*
X114011Y224400I0J-5000D01*
G01*
D02*
G03*
X119011Y219400I5000J0D01*
G01*
X129011D02*
G03*
X134011Y224400I0J5000D01*
G01*
D02*
G03*
X129011Y229400I-5000J0D01*
G01*
X93900Y55794D02*
G03*
X92900Y56794I-1000J0D01*
G01*
X86900D02*
G03*
X85900Y55794I0J-1000D01*
G01*
Y35668D02*
G03*
X86900Y34668I1000J0D01*
G01*
X92900D02*
G03*
X93900Y35668I0J1000D01*
G01*
X202843Y190000D02*
G03*
X202843Y190000I-9843J0D01*
G01*
X184300Y161185D02*
G03*
X200000Y158579I8700J3816D01*
G01*
X184300Y168816D02*
G03*
X184300Y161184I8701J-3816D01*
G01*
X200000Y171421D02*
G03*
X184300Y168815I-7000J-6422D01*
G01*
X223154Y165000D02*
G03*
X223154Y165000I-9843J0D01*
G01*
X202775Y140000D02*
G03*
X202775Y140000I-9843J0D01*
G01*
X155339Y189000D02*
G03*
X154339Y188000I0J-1000D01*
G01*
Y182000D02*
G03*
X155339Y181000I1000J0D01*
G01*
X175465D02*
G03*
X176465Y182000I0J1000D01*
G01*
Y188000D02*
G03*
X175465Y189000I-1000J0D01*
G01*
X155337Y179000D02*
G03*
X154337Y178000I0J-1000D01*
G01*
Y172000D02*
G03*
X155337Y171000I1000J0D01*
G01*
X175463D02*
G03*
X176463Y172000I0J1000D01*
G01*
Y178000D02*
G03*
X175463Y179000I-1000J0D01*
G01*
X155339Y169000D02*
G03*
X154339Y168000I0J-1000D01*
G01*
Y162000D02*
G03*
X155339Y161000I1000J0D01*
G01*
X175465D02*
G03*
X176465Y162000I0J1000D01*
G01*
Y168000D02*
G03*
X175465Y169000I-1000J0D01*
G01*
X175563Y151000D02*
G03*
X176563Y152000I0J1000D01*
G01*
Y158000D02*
G03*
X175563Y159000I-1000J0D01*
G01*
X155437D02*
G03*
X154437Y158000I0J-1000D01*
G01*
Y152000D02*
G03*
X155437Y151000I1000J0D01*
G01*
X176563Y138000D02*
G03*
X175563Y139000I-1000J0D01*
G01*
Y131000D02*
G03*
X176563Y132000I0J1000D01*
G01*
X154437D02*
G03*
X155437Y131000I1000J0D01*
G01*
Y139000D02*
G03*
X154437Y138000I0J-1000D01*
G01*
X165902Y208875D02*
G03*
X165902Y208875I-12402J0D01*
G01*
X120174Y217596D02*
G03*
X117568Y201896I3816J-8700D01*
G01*
X127805Y217596D02*
G03*
X120173Y217596I-3816J-8701D01*
G01*
X130410Y201896D02*
G03*
X127804Y217596I-6422J7000D01*
G01*
X123292Y154902D02*
G03*
X128292Y159902I0J5000D01*
G01*
X118292D02*
G03*
X123292Y154902I5000J0D01*
G01*
Y174902D02*
G03*
X118292Y169902I0J-5000D01*
G01*
X128292D02*
G03*
X123292Y174902I-5000J0D01*
G01*
X109032Y190602D02*
G03*
X108032Y189602I0J-1000D01*
G01*
Y183602D02*
G03*
X109032Y182602I1000J0D01*
G01*
X129158D02*
G03*
X130158Y183602I0J1000D01*
G01*
Y189602D02*
G03*
X129158Y190602I-1000J0D01*
G01*
X116402Y167990D02*
G03*
X116402Y167990I-12402J0D01*
G01*
X11800Y172685D02*
G03*
X27500Y170079I8700J3816D01*
G01*
X11800Y180316D02*
G03*
X11800Y172684I8701J-3816D01*
G01*
X27500Y182921D02*
G03*
X11800Y180315I-7000J-6422D01*
G01*
X34500Y166500D02*
G03*
X39500Y171500I0J5000D01*
G01*
X29500D02*
G03*
X34500Y166500I5000J0D01*
G01*
Y186500D02*
G03*
X29500Y181500I0J-5000D01*
G01*
X39500D02*
G03*
X34500Y186500I-5000J0D01*
G01*
X39843Y231500D02*
G03*
X39843Y231500I-9843J0D01*
G01*
X38700Y210315D02*
G03*
X23000Y212921I-8700J-3816D01*
G01*
X38700Y202684D02*
G03*
X38700Y210316I-8701J3816D01*
G01*
X23000Y200079D02*
G03*
X38700Y202685I7000J6422D01*
G01*
X47937Y233500D02*
G03*
X48937Y232500I1000J0D01*
G01*
Y240500D02*
G03*
X47937Y239500I0J-1000D01*
G01*
X70063D02*
G03*
X69063Y240500I-1000J0D01*
G01*
Y232500D02*
G03*
X70063Y233500I0J1000D01*
G01*
X48937Y230500D02*
G03*
X47937Y229500I0J-1000D01*
G01*
Y223500D02*
G03*
X48937Y222500I1000J0D01*
G01*
X69063D02*
G03*
X70063Y223500I0J1000D01*
G01*
Y229500D02*
G03*
X69063Y230500I-1000J0D01*
G01*
Y202521D02*
G03*
X70063Y203521I0J1000D01*
G01*
Y209521D02*
G03*
X69063Y210521I-1000J0D01*
G01*
X48937D02*
G03*
X47937Y209521I0J-1000D01*
G01*
Y203521D02*
G03*
X48937Y202521I1000J0D01*
G01*
X47937Y193500D02*
G03*
X48937Y192500I1000J0D01*
G01*
Y200500D02*
G03*
X47937Y199500I0J-1000D01*
G01*
X70063D02*
G03*
X69063Y200500I-1000J0D01*
G01*
Y192500D02*
G03*
X70063Y193500I0J1000D01*
G01*
X69063Y182500D02*
G03*
X70063Y183500I0J1000D01*
G01*
Y189500D02*
G03*
X69063Y190500I-1000J0D01*
G01*
X48937D02*
G03*
X47937Y189500I0J-1000D01*
G01*
Y183500D02*
G03*
X48937Y182500I1000J0D01*
G01*
X69063Y172500D02*
G03*
X70063Y173500I0J1000D01*
G01*
Y179500D02*
G03*
X69063Y180500I-1000J0D01*
G01*
X48937D02*
G03*
X47937Y179500I0J-1000D01*
G01*
Y173500D02*
G03*
X48937Y172500I1000J0D01*
G01*
Y170500D02*
G03*
X47937Y169500I0J-1000D01*
G01*
Y163500D02*
G03*
X48937Y162500I1000J0D01*
G01*
X69063D02*
G03*
X70063Y163500I0J1000D01*
G01*
Y169500D02*
G03*
X69063Y170500I-1000J0D01*
G01*
X48837Y160500D02*
G03*
X47837Y159500I0J-1000D01*
G01*
Y153500D02*
G03*
X48837Y152500I1000J0D01*
G01*
X68963D02*
G03*
X69963Y153500I0J1000D01*
G01*
Y159500D02*
G03*
X68963Y160500I-1000J0D01*
G01*
X77843Y141000D02*
G03*
X77843Y141000I-9843J0D01*
G01*
X53843D02*
G03*
X53843Y141000I-9843J0D01*
G01*
X48437Y119000D02*
G03*
X47437Y118000I0J-1000D01*
G01*
Y112000D02*
G03*
X48437Y111000I1000J0D01*
G01*
X68563D02*
G03*
X69563Y112000I0J1000D01*
G01*
Y118000D02*
G03*
X68563Y119000I-1000J0D01*
G01*
X48437Y109000D02*
G03*
X47437Y108000I0J-1000D01*
G01*
Y102000D02*
G03*
X48437Y101000I1000J0D01*
G01*
X68563D02*
G03*
X69563Y102000I0J1000D01*
G01*
Y108000D02*
G03*
X68563Y109000I-1000J0D01*
G01*
Y91000D02*
G03*
X69563Y92000I0J1000D01*
G01*
Y98000D02*
G03*
X68563Y99000I-1000J0D01*
G01*
X48437D02*
G03*
X47437Y98000I0J-1000D01*
G01*
Y92000D02*
G03*
X48437Y91000I1000J0D01*
G01*
X83479Y83100D02*
G03*
X86085Y67400I6422J-7000D01*
G01*
X93715D02*
G03*
X96321Y83100I-3816J8700D01*
G01*
X86084Y67400D02*
G03*
X93716Y67400I3816J8701D01*
G01*
X146042Y83100D02*
G03*
X148648Y67400I6422J-7000D01*
G01*
X148647Y67400D02*
G03*
X156279Y67400I3816J8701D01*
G01*
X156278Y67400D02*
G03*
X158884Y83100I-3816J8700D01*
G01*
X110675Y249500D02*
G03*
X110675Y257500I0J4000D01*
G01*
X110946Y65728D02*
G03*
X118946Y65728I4000J0D01*
G01*
X161779Y56629D02*
G03*
X161779Y56629I-7906J0D01*
G01*
X134966Y45731D02*
G03*
X139966Y40731I5000J0D01*
G01*
D02*
G03*
X144966Y45731I0J5000D01*
G01*
Y55731D02*
G03*
X139966Y60731I-5000J0D01*
G01*
D02*
G03*
X134966Y55731I0J-5000D01*
G01*
X86000Y206000D02*
Y212000D01*
X87000Y213000D02*
X103000D01*
X87000Y205000D02*
X103000D01*
X104000Y206000D02*
Y212000D01*
X75900Y51794D02*
X76400Y51294D01*
X83400D02*
X83900Y51794D01*
X75900Y39668D02*
X76400Y40168D01*
X83400D02*
X83900Y39668D01*
X75900Y51794D02*
Y55794D01*
X83900Y51794D02*
Y55794D01*
X75900Y35668D02*
Y39668D01*
X83900Y35668D02*
Y39668D01*
X76400Y40168D02*
Y51294D01*
X83400Y40168D02*
Y51294D01*
X76900Y56794D02*
X82900D01*
X76900Y34668D02*
X82900D01*
X131917Y71300D02*
X134382Y71328D01*
X133134Y70042D02*
Y72542D01*
X119011Y229400D02*
X129011D01*
X119011Y219400D02*
X126511D01*
X129011D01*
X93400Y40168D02*
X93900Y39668D01*
X85900D02*
X86400Y40168D01*
X93400Y51294D02*
X93900Y51794D01*
X85900D02*
X86400Y51294D01*
X93900Y35668D02*
Y39668D01*
X85900Y35668D02*
Y39668D01*
X93900Y51794D02*
Y55794D01*
X85900Y51794D02*
Y55794D01*
X93400Y40168D02*
Y51294D01*
X86400Y40168D02*
Y51294D01*
X86900Y34668D02*
X92900D01*
X86900Y56794D02*
X92900D01*
X187600Y184200D02*
Y186800D01*
X186400Y185500D02*
X188900D01*
X200000Y158579D02*
Y171421D01*
X207511Y170400D02*
X210111D01*
X208811Y169100D02*
Y171600D01*
X198332Y143200D02*
Y145800D01*
X197032Y144500D02*
X199532D01*
X170965Y188500D02*
X171465Y189000D01*
X170965Y181500D02*
X171465Y181000D01*
X159339Y189000D02*
X159839Y188500D01*
X159339Y181000D02*
X159839Y181500D01*
X171465Y189000D02*
X175465D01*
X171465Y181000D02*
X175465D01*
X155339Y189000D02*
X159339D01*
X155339Y181000D02*
X159339D01*
X159839Y188500D02*
X170965D01*
X159839Y181500D02*
X170965D01*
X176465Y182000D02*
Y188000D01*
X154339Y182000D02*
Y188000D01*
X170963Y178500D02*
X171463Y179000D01*
X170963Y171500D02*
X171463Y171000D01*
X159337Y179000D02*
X159837Y178500D01*
X159337Y171000D02*
X159837Y171500D01*
X171463Y179000D02*
X175463D01*
X171463Y171000D02*
X175463D01*
X155337Y179000D02*
X159337D01*
X155337Y171000D02*
X159337D01*
X159837Y178500D02*
X170963D01*
X159837Y171500D02*
X170963D01*
X176463Y172000D02*
Y178000D01*
X154337Y172000D02*
Y178000D01*
X170965Y168500D02*
X171465Y169000D01*
X170965Y161500D02*
X171465Y161000D01*
X159339Y169000D02*
X159839Y168500D01*
X159339Y161000D02*
X159839Y161500D01*
X171465Y169000D02*
X175465D01*
X171465Y161000D02*
X175465D01*
X155339Y169000D02*
X159339D01*
X155339Y161000D02*
X159339D01*
X159839Y168500D02*
X170965D01*
X159839Y161500D02*
X170965D01*
X176465Y162000D02*
Y168000D01*
X154339Y162000D02*
Y168000D01*
X159437Y151000D02*
X159937Y151500D01*
X159437Y159000D02*
X159937Y158500D01*
X171063Y151500D02*
X171563Y151000D01*
X171063Y158500D02*
X171563Y159000D01*
X155437Y151000D02*
X159437D01*
X155437Y159000D02*
X159437D01*
X171563Y151000D02*
X175563D01*
X171563Y159000D02*
X175563D01*
X159937Y151500D02*
X171063D01*
X159937Y158500D02*
X171063D01*
X154437Y152000D02*
Y158000D01*
X176563Y152000D02*
Y158000D01*
X146394Y140118D02*
X174606D01*
Y149882D01*
X146394D02*
X174606D01*
X146394Y140118D02*
Y149882D01*
X154437Y132000D02*
Y138000D01*
X176563Y132000D02*
Y138000D01*
X159937Y131500D02*
X171063D01*
X159937Y138500D02*
X171063D01*
X155437Y131000D02*
X159437D01*
X155437Y139000D02*
X159437D01*
X171563Y131000D02*
X175563D01*
X171563Y139000D02*
X175563D01*
X159437Y131000D02*
X159937Y131500D01*
X159437Y139000D02*
X159937Y138500D01*
X171063Y131500D02*
X171563Y131000D01*
X171063Y138500D02*
X171563Y139000D01*
X144894Y110246D02*
X173106D01*
Y120010D01*
X144894D02*
X173106D01*
X144894Y110246D02*
Y120010D01*
Y108882D02*
X173106D01*
X144894Y99118D02*
Y108882D01*
Y99118D02*
X173106D01*
Y108882D01*
X149000Y212975D02*
Y215475D01*
X147700Y214275D02*
X150300D01*
X153150Y224285D02*
Y234285D01*
X172500Y224285D02*
Y234285D01*
X153150D02*
X157150D01*
X153200Y224285D02*
X172500D01*
X156550Y234285D02*
X172500D01*
X117568Y201896D02*
X130410D01*
X118292Y159902D02*
Y162402D01*
Y169902D01*
X128292Y159902D02*
Y169902D01*
X124658Y190102D02*
X125158Y190602D01*
X124658Y183102D02*
X125158Y182602D01*
X113032Y190602D02*
X113532Y190102D01*
X113032Y182602D02*
X113532Y183102D01*
X125158Y190602D02*
X129158D01*
X125158Y182602D02*
X129158D01*
X109032Y190602D02*
X113032D01*
X109032Y182602D02*
X113032D01*
X113532Y190102D02*
X124658D01*
X113532Y183102D02*
X124658D01*
X130158Y183602D02*
Y189602D01*
X108032Y183602D02*
Y189602D01*
X108100Y172490D02*
X110600D01*
X109400Y171190D02*
Y173790D01*
X27500Y170079D02*
Y182921D01*
X29500Y171500D02*
Y174000D01*
Y181500D01*
X39500Y171500D02*
Y181500D01*
X24600Y225700D02*
Y228300D01*
X23400Y227000D02*
X25900D01*
X23000Y200079D02*
Y212921D01*
X70063Y233500D02*
Y239500D01*
X47937Y233500D02*
Y239500D01*
X53437Y240000D02*
X64563D01*
X53437Y233000D02*
X64563D01*
X65063Y240500D02*
X69063D01*
X65063Y232500D02*
X69063D01*
X48937Y240500D02*
X52937D01*
X48937Y232500D02*
X52937D01*
X64563Y240000D02*
X65063Y240500D01*
X64563Y233000D02*
X65063Y232500D01*
X52937Y240500D02*
X53437Y240000D01*
X52937Y232500D02*
X53437Y233000D01*
X64563Y230000D02*
X65063Y230500D01*
X64563Y223000D02*
X65063Y222500D01*
X52937Y230500D02*
X53437Y230000D01*
X52937Y222500D02*
X53437Y223000D01*
X65063Y230500D02*
X69063D01*
X65063Y222500D02*
X69063D01*
X48937Y230500D02*
X52937D01*
X48937Y222500D02*
X52937D01*
X53437Y230000D02*
X64563D01*
X53437Y223000D02*
X64563D01*
X70063Y223500D02*
Y229500D01*
X47937Y223500D02*
Y229500D01*
X39894Y221382D02*
X68106D01*
X39894Y211618D02*
Y221382D01*
Y211618D02*
X68106D01*
Y221382D01*
X52937Y202521D02*
X53437Y203021D01*
X52937Y210521D02*
X53437Y210021D01*
X64563Y203021D02*
X65063Y202521D01*
X64563Y210021D02*
X65063Y210521D01*
X48937Y202521D02*
X52937D01*
X48937Y210521D02*
X52937D01*
X65063Y202521D02*
X69063D01*
X65063Y210521D02*
X69063D01*
X53437Y203021D02*
X64563D01*
X53437Y210021D02*
X64563D01*
X47937Y203521D02*
Y209521D01*
X70063Y203521D02*
Y209521D01*
Y193500D02*
Y199500D01*
X47937Y193500D02*
Y199500D01*
X53437Y200000D02*
X64563D01*
X53437Y193000D02*
X64563D01*
X65063Y200500D02*
X69063D01*
X65063Y192500D02*
X69063D01*
X48937Y200500D02*
X52937D01*
X48937Y192500D02*
X52937D01*
X64563Y200000D02*
X65063Y200500D01*
X64563Y193000D02*
X65063Y192500D01*
X52937Y200500D02*
X53437Y200000D01*
X52937Y192500D02*
X53437Y193000D01*
X52937Y182500D02*
X53437Y183000D01*
X52937Y190500D02*
X53437Y190000D01*
X64563Y183000D02*
X65063Y182500D01*
X64563Y190000D02*
X65063Y190500D01*
X48937Y182500D02*
X52937D01*
X48937Y190500D02*
X52937D01*
X65063Y182500D02*
X69063D01*
X65063Y190500D02*
X69063D01*
X53437Y183000D02*
X64563D01*
X53437Y190000D02*
X64563D01*
X47937Y183500D02*
Y189500D01*
X70063Y183500D02*
Y189500D01*
X52937Y172500D02*
X53437Y173000D01*
X52937Y180500D02*
X53437Y180000D01*
X64563Y173000D02*
X65063Y172500D01*
X64563Y180000D02*
X65063Y180500D01*
X48937Y172500D02*
X52937D01*
X48937Y180500D02*
X52937D01*
X65063Y172500D02*
X69063D01*
X65063Y180500D02*
X69063D01*
X53437Y173000D02*
X64563D01*
X53437Y180000D02*
X64563D01*
X47937Y173500D02*
Y179500D01*
X70063Y173500D02*
Y179500D01*
X64563Y170000D02*
X65063Y170500D01*
X64563Y163000D02*
X65063Y162500D01*
X52937Y170500D02*
X53437Y170000D01*
X52937Y162500D02*
X53437Y163000D01*
X65063Y170500D02*
X69063D01*
X65063Y162500D02*
X69063D01*
X48937Y170500D02*
X52937D01*
X48937Y162500D02*
X52937D01*
X53437Y170000D02*
X64563D01*
X53437Y163000D02*
X64563D01*
X70063Y163500D02*
Y169500D01*
X47937Y163500D02*
Y169500D01*
X64463Y160000D02*
X64963Y160500D01*
X64463Y153000D02*
X64963Y152500D01*
X52837Y160500D02*
X53337Y160000D01*
X52837Y152500D02*
X53337Y153000D01*
X64963Y160500D02*
X68963D01*
X64963Y152500D02*
X68963D01*
X48837Y160500D02*
X52837D01*
X48837Y152500D02*
X52837D01*
X53337Y160000D02*
X64463D01*
X53337Y153000D02*
X64463D01*
X69963Y153500D02*
Y159500D01*
X47837Y153500D02*
Y159500D01*
X73400Y144200D02*
Y146800D01*
X72100Y145500D02*
X74600D01*
X49400Y144200D02*
Y146800D01*
X48100Y145500D02*
X50600D01*
X28618Y91022D02*
Y119234D01*
Y91022D02*
X38382D01*
Y119234D01*
X28618D02*
X38382D01*
X64063Y118500D02*
X64563Y119000D01*
X64063Y111500D02*
X64563Y111000D01*
X52437Y119000D02*
X52937Y118500D01*
X52437Y111000D02*
X52937Y111500D01*
X64563Y119000D02*
X68563D01*
X64563Y111000D02*
X68563D01*
X48437Y119000D02*
X52437D01*
X48437Y111000D02*
X52437D01*
X52937Y118500D02*
X64063D01*
X52937Y111500D02*
X64063D01*
X69563Y112000D02*
Y118000D01*
X47437Y112000D02*
Y118000D01*
X64063Y108500D02*
X64563Y109000D01*
X64063Y101500D02*
X64563Y101000D01*
X52437Y109000D02*
X52937Y108500D01*
X52437Y101000D02*
X52937Y101500D01*
X64563Y109000D02*
X68563D01*
X64563Y101000D02*
X68563D01*
X48437Y109000D02*
X52437D01*
X48437Y101000D02*
X52437D01*
X52937Y108500D02*
X64063D01*
X52937Y101500D02*
X64063D01*
X69563Y102000D02*
Y108000D01*
X47437Y102000D02*
Y108000D01*
X52437Y91000D02*
X52937Y91500D01*
X52437Y99000D02*
X52937Y98500D01*
X64063Y91500D02*
X64563Y91000D01*
X64063Y98500D02*
X64563Y99000D01*
X48437Y91000D02*
X52437D01*
X48437Y99000D02*
X52437D01*
X64563Y91000D02*
X68563D01*
X64563Y99000D02*
X68563D01*
X52937Y91500D02*
X64063D01*
X52937Y98500D02*
X64063D01*
X47437Y92000D02*
Y98000D01*
X69563Y92000D02*
Y98000D01*
X83479Y83100D02*
X96321D01*
X146042D02*
X158884D01*
X110675Y257500D02*
Y265000D01*
Y242000D02*
Y249500D01*
X130675Y242000D02*
Y265000D01*
X110675Y242000D02*
X130675D01*
X110675Y265000D02*
X130675D01*
X126446Y25728D02*
Y65728D01*
X118946D02*
X126446D01*
X103446D02*
X110946D01*
X103446Y25728D02*
Y65728D01*
Y25728D02*
X126446D01*
X157431Y59714D02*
X159931D01*
X158645Y60962D02*
X158673Y58497D01*
X134966Y45731D02*
Y55731D01*
X144966Y45731D02*
Y53231D01*
Y55731D01*
X129533Y81766D02*
X129200Y82099D01*
X128533D01*
X128200Y81766D01*
Y80433D01*
X128533Y80100D01*
X129200D01*
X129533Y80433D01*
X131199Y80100D02*
Y82099D01*
X130199Y81100D01*
X131532D01*
X120300Y213311D02*
Y215310D01*
X121300D01*
X121633Y214977D01*
Y214310D01*
X121300Y213977D01*
X120300D01*
X120966D02*
X121633Y213311D01*
X123632Y215310D02*
X122299D01*
Y213311D01*
X123632D01*
X122299Y214310D02*
X122966D01*
X125632Y214977D02*
X125298Y215310D01*
X124632D01*
X124299Y214977D01*
Y213644D01*
X124632Y213311D01*
X125298D01*
X125632Y213644D01*
Y214310D01*
X124965D01*
X127631Y213311D02*
X126298D01*
X127631Y214644D01*
Y214977D01*
X127298Y215310D01*
X126631D01*
X126298Y214977D01*
X186833Y165667D02*
X188166D01*
X188499Y166000D01*
Y166667D01*
X188166Y167000D01*
X186833D01*
X186500Y166667D01*
Y166000D01*
X187167Y166333D02*
X186500Y165667D01*
Y166000D02*
X186833Y165667D01*
X186500Y164001D02*
X188499D01*
X187500Y165001D01*
Y163668D01*
X13833Y176663D02*
X15166D01*
X15499Y176996D01*
Y177662D01*
X15166Y177996D01*
X13833D01*
X13500Y177662D01*
Y176996D01*
X14166Y177329D02*
X13500Y176663D01*
Y176996D02*
X13833Y176663D01*
X15166Y175996D02*
X15499Y175663D01*
Y174996D01*
X15166Y174663D01*
X14833D01*
X14500Y174996D01*
Y175330D01*
Y174996D01*
X14166Y174663D01*
X13833D01*
X13500Y174996D01*
Y175663D01*
X13833Y175996D01*
X34833Y207167D02*
X36166D01*
X36499Y207500D01*
Y208167D01*
X36166Y208500D01*
X34833D01*
X34500Y208167D01*
Y207500D01*
X35166Y207834D02*
X34500Y207167D01*
Y207500D02*
X34833Y207167D01*
X34500Y205168D02*
Y206501D01*
X35833Y205168D01*
X36166D01*
X36499Y205501D01*
Y206167D01*
X36166Y206501D01*
X89902Y69933D02*
Y71266D01*
X89568Y71599D01*
X88902D01*
X88569Y71266D01*
Y69933D01*
X88902Y69600D01*
X89568D01*
X89235Y70266D02*
X89902Y69600D01*
X89568D02*
X89902Y69933D01*
X90568Y69600D02*
X91234D01*
X90901D01*
Y71599D01*
X90568Y71266D01*
X149447Y69767D02*
Y71766D01*
X150447D01*
X150780Y71433D01*
Y70767D01*
X150447Y70433D01*
X149447D01*
X150114D02*
X150780Y69767D01*
X152780Y71766D02*
X151447D01*
Y69767D01*
X152780D01*
X151447Y70767D02*
X152113D01*
X154779Y71433D02*
X154446Y71766D01*
X153779D01*
X153446Y71433D01*
Y70100D01*
X153779Y69767D01*
X154446D01*
X154779Y70100D01*
Y70767D01*
X154113D01*
X155445Y69767D02*
X156112D01*
X155779D01*
Y71766D01*
X155445Y71433D01*
X149539Y57356D02*
X149872Y57689D01*
Y58356D01*
X149539Y58689D01*
X148206D01*
X147873Y58356D01*
Y57689D01*
X148206Y57356D01*
X149872Y55357D02*
Y56690D01*
X148873D01*
X149206Y56023D01*
Y55690D01*
X148873Y55357D01*
X148206D01*
X147873Y55690D01*
Y56357D01*
X148206Y56690D01*
D11*
X46200Y800D02*
X72578D01*
X46200D02*
Y28359D01*
X72578Y800D02*
Y28359D01*
X46200D02*
X72578D01*
X131860Y357848D02*
X148419D01*
Y369462D01*
Y357848D02*
X193301D01*
X148419Y369462D02*
X193301D01*
Y357848D02*
Y369462D01*
Y357848D02*
X209860D01*
Y276746D02*
Y357848D01*
X187592Y276746D02*
X209860D01*
X154128D02*
X187592D01*
Y264935D02*
Y276746D01*
X154128Y264935D02*
X187592D01*
X154128D02*
Y276746D01*
X131860D02*
X154128D01*
X131860D02*
Y357848D01*
X22641D02*
X39200D01*
Y369462D01*
Y357848D02*
X84082D01*
X39200Y369462D02*
X84082D01*
Y357848D02*
Y369462D01*
Y357848D02*
X100641D01*
Y276746D02*
Y357848D01*
X78373Y276746D02*
X100641D01*
X44909D02*
X78373D01*
Y264935D02*
Y276746D01*
X44909Y264935D02*
X78373D01*
X44909D02*
Y276746D01*
X22641D02*
X44909D01*
X22641D02*
Y357848D01*
X109319Y718D02*
Y23356D01*
X80185Y718D02*
X109319D01*
X80185D02*
Y23356D01*
X109319D01*
X142064Y783D02*
Y23422D01*
X112930D02*
X142064D01*
X112930Y783D02*
X142064D01*
X112930D02*
Y23422D01*
X218501Y103674D02*
X219168D01*
X220501Y105007D01*
X219168Y106340D01*
X218501D01*
X220501Y105007D02*
X222500D01*
X219168Y110339D02*
X218501Y109673D01*
Y108340D01*
X219168Y107673D01*
X221834D01*
X222500Y108340D01*
Y109673D01*
X221834Y110339D01*
X220501D01*
Y109006D01*
X222500Y111672D02*
X218501D01*
X222500Y114338D01*
X218501D01*
X220501Y119669D02*
Y122335D01*
X219834Y127667D02*
X222500Y129000D01*
X219834Y130333D01*
X222500Y131666D02*
Y132998D01*
Y132332D01*
X218501D01*
X219168Y131666D01*
X222500Y134998D02*
X221834D01*
Y135664D01*
X222500D01*
Y134998D01*
Y138330D02*
Y139663D01*
Y138997D01*
X218501D01*
X219168Y138330D01*
X157359Y355098D02*
X155360D01*
X154360Y354098D01*
Y350100D01*
X155360Y349100D01*
X157359D01*
X158359Y350100D01*
Y354098D01*
X157359Y355098D01*
X160358D02*
Y350100D01*
X161358Y349100D01*
X163357D01*
X164357Y350100D01*
Y355098D01*
X166356D02*
X170355D01*
X168356D01*
Y349100D01*
X172354D02*
Y355098D01*
X175353D01*
X176353Y354098D01*
Y352099D01*
X175353Y351099D01*
X172354D01*
X178352Y355098D02*
Y350100D01*
X179352Y349100D01*
X181351D01*
X182351Y350100D01*
Y355098D01*
X184350D02*
X188349D01*
X186350D01*
Y349100D01*
X47641Y355098D02*
X49640D01*
X48641D01*
Y349100D01*
X47641D01*
X49640D01*
X52639D02*
Y355098D01*
X56638Y349100D01*
Y355098D01*
X58637Y349100D02*
Y355098D01*
X61637D01*
X62636Y354098D01*
Y352099D01*
X61637Y351099D01*
X58637D01*
X64635Y355098D02*
Y350100D01*
X65635Y349100D01*
X67634D01*
X68634Y350100D01*
Y355098D01*
X70634D02*
X74632D01*
X72633D01*
Y349100D01*
D12*
X152000Y14800D02*
Y19800D01*
X162000Y14800D02*
Y19800D01*
X152000Y4800D02*
Y9800D01*
X162000Y4800D02*
Y9800D01*
X154500Y22300D02*
X159500D01*
X154500Y2300D02*
X159500D01*
X152000Y19800D02*
X154500Y22300D01*
X159500D02*
X162000Y19800D01*
X152000Y9800D02*
X154500Y12300D01*
X152000Y4800D02*
X154500Y2300D01*
X159500Y12300D02*
X162000Y14800D01*
X159500Y2300D02*
X162000Y4800D01*
X159500Y12300D02*
X162000Y9800D01*
X152000Y14800D02*
X154500Y12300D01*
D13*
X89634Y945D02*
Y2913D01*
X99870D01*
Y945D02*
Y2913D01*
X122379Y2978D02*
X132615D01*
Y1010D02*
Y2978D01*
X122379Y1010D02*
Y2978D01*
D14*
X80827Y214484D02*
Y272358D01*
Y214484D02*
X109173D01*
Y272358D01*
X80827D02*
X109173D01*
X43499Y24200D02*
X39500D01*
Y22201D01*
X40166Y21534D01*
X40833D01*
X41499Y22201D01*
Y24200D01*
Y22201D01*
X42166Y21534D01*
X42832D01*
X43499Y22201D01*
Y24200D01*
X39500Y20201D02*
X43499D01*
Y18202D01*
X42832Y17536D01*
X41499D01*
X40833Y18202D01*
Y20201D01*
Y18868D02*
X39500Y17536D01*
X43499Y16203D02*
Y14870D01*
Y15536D01*
X39500D01*
Y16203D01*
Y14870D01*
X42832Y10204D02*
X43499Y10871D01*
Y12204D01*
X42832Y12870D01*
X40166D01*
X39500Y12204D01*
Y10871D01*
X40166Y10204D01*
X41499D01*
Y11537D01*
X43499Y8872D02*
X39500D01*
X41499D01*
Y6206D01*
X43499D01*
X39500D01*
X43499Y4873D02*
Y2207D01*
Y3540D01*
X39500D01*
X165100Y19600D02*
X169099D01*
X167766Y18267D01*
X169099Y16934D01*
X165100D01*
X169099Y13602D02*
Y14935D01*
X168432Y15601D01*
X165767D01*
X165100Y14935D01*
Y13602D01*
X165767Y12935D01*
X168432D01*
X169099Y13602D01*
Y11603D02*
X165100D01*
Y9603D01*
X165767Y8937D01*
X168432D01*
X169099Y9603D01*
Y11603D01*
Y4938D02*
Y7604D01*
X165100D01*
Y4938D01*
X167099Y7604D02*
Y6271D01*
X122966Y225932D02*
X122299Y226599D01*
X120966D01*
X120300Y225932D01*
Y223266D01*
X120966Y222600D01*
X122299D01*
X122966Y223266D01*
X124299Y226599D02*
X126964D01*
Y225932D01*
X124299Y223266D01*
Y222600D01*
X77884Y49631D02*
X81883D01*
Y47632D01*
X81216Y46965D01*
X79883D01*
X79217Y47632D01*
Y49631D01*
Y48298D02*
X77884Y46965D01*
Y42967D02*
Y45632D01*
X80550Y42967D01*
X81216D01*
X81883Y43633D01*
Y44966D01*
X81216Y45632D01*
X78499Y18177D02*
X74500D01*
Y15511D01*
X78499Y11512D02*
Y14178D01*
X74500D01*
Y11512D01*
X76499Y14178D02*
Y12845D01*
X78499Y10179D02*
X74500D01*
Y8180D01*
X75166Y7514D01*
X77832D01*
X78499Y8180D01*
Y10179D01*
X160500Y153000D02*
Y156999D01*
X162499D01*
X163166Y156332D01*
Y154999D01*
X162499Y154333D01*
X160500D01*
X161833D02*
X163166Y153000D01*
X164499D02*
X165832D01*
X165165D01*
Y156999D01*
X164499Y156332D01*
X167831Y153666D02*
X168497Y153000D01*
X169830D01*
X170497Y153666D01*
Y156332D01*
X169830Y156999D01*
X168497D01*
X167831Y156332D01*
Y155666D01*
X168497Y154999D01*
X170497D01*
X160500Y173000D02*
Y176999D01*
X162499D01*
X163166Y176332D01*
Y174999D01*
X162499Y174333D01*
X160500D01*
X161833D02*
X163166Y173000D01*
X164499D02*
X165832D01*
X165165D01*
Y176999D01*
X164499Y176332D01*
X167831D02*
X168497Y176999D01*
X169830D01*
X170497Y176332D01*
Y175666D01*
X169830Y174999D01*
X170497Y174333D01*
Y173667D01*
X169830Y173000D01*
X168497D01*
X167831Y173667D01*
Y174333D01*
X168497Y174999D01*
X167831Y175666D01*
Y176332D01*
X168497Y174999D02*
X169830D01*
X160500Y183000D02*
Y186999D01*
X162499D01*
X163166Y186332D01*
Y184999D01*
X162499Y184333D01*
X160500D01*
X161833D02*
X163166Y183000D01*
X164499D02*
X165832D01*
X165165D01*
Y186999D01*
X164499Y186332D01*
X167831Y186999D02*
X170497D01*
Y186332D01*
X167831Y183667D01*
Y183000D01*
X160500Y163000D02*
Y166999D01*
X162499D01*
X163166Y166332D01*
Y164999D01*
X162499Y164333D01*
X160500D01*
X161833D02*
X163166Y163000D01*
X164499D02*
X165832D01*
X165165D01*
Y166999D01*
X164499Y166332D01*
X170497Y166999D02*
X169164Y166332D01*
X167831Y164999D01*
Y163666D01*
X168497Y163000D01*
X169830D01*
X170497Y163666D01*
Y164333D01*
X169830Y164999D01*
X167831D01*
X160500Y133000D02*
Y136999D01*
X162499D01*
X163166Y136332D01*
Y134999D01*
X162499Y134333D01*
X160500D01*
X161833D02*
X163166Y133000D01*
X164499D02*
X165832D01*
X165165D01*
Y136999D01*
X164499Y136332D01*
X170497Y136999D02*
X167831D01*
Y134999D01*
X169164Y135666D01*
X169830D01*
X170497Y134999D01*
Y133667D01*
X169830Y133000D01*
X168497D01*
X167831Y133667D01*
X53500Y113000D02*
Y116999D01*
X55499D01*
X56166Y116332D01*
Y114999D01*
X55499Y114333D01*
X53500D01*
X54833D02*
X56166Y113000D01*
X57499D02*
X58832D01*
X58165D01*
Y116999D01*
X57499Y116332D01*
X62830Y113000D02*
Y116999D01*
X60831Y114999D01*
X63497D01*
X53500Y92885D02*
Y96884D01*
X55499D01*
X56166Y96217D01*
Y94884D01*
X55499Y94218D01*
X53500D01*
X54833D02*
X56166Y92885D01*
X57499D02*
X58832D01*
X58165D01*
Y96884D01*
X57499Y96217D01*
X60831D02*
X61497Y96884D01*
X62830D01*
X63497Y96217D01*
Y95551D01*
X62830Y94884D01*
X62164D01*
X62830D01*
X63497Y94218D01*
Y93551D01*
X62830Y92885D01*
X61497D01*
X60831Y93551D01*
X53500Y103000D02*
Y106999D01*
X55499D01*
X56166Y106332D01*
Y104999D01*
X55499Y104333D01*
X53500D01*
X54833D02*
X56166Y103000D01*
X57499D02*
X58832D01*
X58165D01*
Y106999D01*
X57499Y106332D01*
X63497Y103000D02*
X60831D01*
X63497Y105666D01*
Y106332D01*
X62830Y106999D01*
X61497D01*
X60831Y106332D01*
X54647Y184500D02*
Y188499D01*
X56647D01*
X57313Y187832D01*
Y186499D01*
X56647Y185833D01*
X54647D01*
X55980D02*
X57313Y184500D01*
X58646D02*
X59979D01*
X59313D01*
Y188499D01*
X58646Y187832D01*
X61978Y184500D02*
X63311D01*
X62645D01*
Y188499D01*
X61978Y187832D01*
X53750Y154400D02*
Y158399D01*
X55749D01*
X56416Y157732D01*
Y156399D01*
X55749Y155733D01*
X53750D01*
X55083D02*
X56416Y154400D01*
X57749D02*
X59082D01*
X58415D01*
Y158399D01*
X57749Y157732D01*
X61081D02*
X61747Y158399D01*
X63080D01*
X63747Y157732D01*
Y155067D01*
X63080Y154400D01*
X61747D01*
X61081Y155067D01*
Y157732D01*
X55917Y174500D02*
Y178499D01*
X57916D01*
X58582Y177832D01*
Y176499D01*
X57916Y175833D01*
X55917D01*
X57249D02*
X58582Y174500D01*
X59915Y175166D02*
X60582Y174500D01*
X61915D01*
X62581Y175166D01*
Y177832D01*
X61915Y178499D01*
X60582D01*
X59915Y177832D01*
Y177166D01*
X60582Y176499D01*
X62581D01*
X56000Y204500D02*
Y208499D01*
X57999D01*
X58666Y207832D01*
Y206499D01*
X57999Y205833D01*
X56000D01*
X57333D02*
X58666Y204500D01*
X59999Y207832D02*
X60665Y208499D01*
X61998D01*
X62665Y207832D01*
Y207166D01*
X61998Y206499D01*
X62665Y205833D01*
Y205166D01*
X61998Y204500D01*
X60665D01*
X59999Y205166D01*
Y205833D01*
X60665Y206499D01*
X59999Y207166D01*
Y207832D01*
X60665Y206499D02*
X61998D01*
X56000Y164500D02*
Y168499D01*
X57999D01*
X58666Y167832D01*
Y166499D01*
X57999Y165833D01*
X56000D01*
X57333D02*
X58666Y164500D01*
X59999Y168499D02*
X62665D01*
Y167832D01*
X59999Y165166D01*
Y164500D01*
X55917Y224500D02*
Y228499D01*
X57916D01*
X58582Y227832D01*
Y226499D01*
X57916Y225833D01*
X55917D01*
X57249D02*
X58582Y224500D01*
X62581Y228499D02*
X61248Y227832D01*
X59915Y226499D01*
Y225166D01*
X60582Y224500D01*
X61915D01*
X62581Y225166D01*
Y225833D01*
X61915Y226499D01*
X59915D01*
X55917Y194500D02*
Y198499D01*
X57916D01*
X58582Y197832D01*
Y196499D01*
X57916Y195833D01*
X55917D01*
X57249D02*
X58582Y194500D01*
X62581Y198499D02*
X59915D01*
Y196499D01*
X61248Y197166D01*
X61915D01*
X62581Y196499D01*
Y195167D01*
X61915Y194500D01*
X60582D01*
X59915Y195167D01*
X55500Y234385D02*
Y238384D01*
X57499D01*
X58166Y237717D01*
Y236384D01*
X57499Y235718D01*
X55500D01*
X56833D02*
X58166Y234385D01*
X61498D02*
Y238384D01*
X59499Y236384D01*
X62164D01*
X117000Y184500D02*
Y188499D01*
X118999D01*
X119666Y187832D01*
Y186499D01*
X118999Y185833D01*
X117000D01*
X118333D02*
X119666Y184500D01*
X120999D02*
X122332D01*
X121665D01*
Y188499D01*
X120999Y187832D01*
X160500Y231273D02*
Y227274D01*
X162499D01*
X163166Y227941D01*
Y230606D01*
X162499Y231273D01*
X160500D01*
X164499Y227274D02*
X165832D01*
X165165D01*
Y231273D01*
X164499Y230606D01*
X199699Y192101D02*
X200199Y192601D01*
Y193600D01*
X199699Y194100D01*
X197700D01*
X197200Y193600D01*
Y192601D01*
X197700Y192101D01*
X197200Y191101D02*
Y190101D01*
Y190601D01*
X200199D01*
X199699Y191101D01*
X197700Y188602D02*
X197200Y188102D01*
Y187102D01*
X197700Y186602D01*
X199699D01*
X200199Y187102D01*
Y188102D01*
X199699Y188602D01*
X199199D01*
X198699Y188102D01*
Y186602D01*
X188199Y141601D02*
X188699Y142101D01*
Y143100D01*
X188199Y143600D01*
X186200D01*
X185700Y143100D01*
Y142101D01*
X186200Y141601D01*
X185700Y140601D02*
Y139601D01*
Y140101D01*
X188699D01*
X188199Y140601D01*
Y138102D02*
X188699Y137602D01*
Y136602D01*
X188199Y136102D01*
X187699D01*
X187199Y136602D01*
X186700Y136102D01*
X186200D01*
X185700Y136602D01*
Y137602D01*
X186200Y138102D01*
X186700D01*
X187199Y137602D01*
X187699Y138102D01*
X188199D01*
X187199Y137602D02*
Y136602D01*
X211699Y160090D02*
X211199Y160589D01*
X210200D01*
X209700Y160090D01*
Y158090D01*
X210200Y157590D01*
X211199D01*
X211699Y158090D01*
X212699Y157590D02*
X213699D01*
X213199D01*
Y160589D01*
X212699Y160090D01*
X215198Y160589D02*
X217198D01*
Y160090D01*
X215198Y158090D01*
Y157590D01*
X158103Y146332D02*
X157436Y146999D01*
X156103D01*
X155437Y146332D01*
Y143667D01*
X156103Y143000D01*
X157436D01*
X158103Y143667D01*
X159436Y143000D02*
X160769D01*
X160102D01*
Y146999D01*
X159436Y146332D01*
X165434Y146999D02*
X164101Y146332D01*
X162768Y144999D01*
Y143667D01*
X163434Y143000D01*
X164767D01*
X165434Y143667D01*
Y144333D01*
X164767Y144999D01*
X162768D01*
X156666Y105332D02*
X155999Y105999D01*
X154666D01*
X154000Y105332D01*
Y102666D01*
X154666Y102000D01*
X155999D01*
X156666Y102666D01*
X157999Y102000D02*
X159332D01*
X158665D01*
Y105999D01*
X157999Y105332D01*
X163997Y105999D02*
X161331D01*
Y103999D01*
X162664Y104666D01*
X163330D01*
X163997Y103999D01*
Y102666D01*
X163330Y102000D01*
X161997D01*
X161331Y102666D01*
X156539Y116332D02*
X155872Y116999D01*
X154540D01*
X153873Y116332D01*
Y113666D01*
X154540Y113000D01*
X155872D01*
X156539Y113666D01*
X157872Y113000D02*
X159205D01*
X158538D01*
Y116999D01*
X157872Y116332D01*
X163203Y113000D02*
Y116999D01*
X161204Y114999D01*
X163870D01*
X34832Y107334D02*
X35499Y108001D01*
Y109334D01*
X34832Y110000D01*
X32166D01*
X31500Y109334D01*
Y108001D01*
X32166Y107334D01*
X31500Y106001D02*
Y104668D01*
Y105335D01*
X35499D01*
X34832Y106001D01*
Y102669D02*
X35499Y102003D01*
Y100670D01*
X34832Y100003D01*
X34166D01*
X33499Y100670D01*
Y101336D01*
Y100670D01*
X32833Y100003D01*
X32166D01*
X31500Y100670D01*
Y102003D01*
X32166Y102669D01*
X63399Y142801D02*
X63899Y143300D01*
Y144300D01*
X63399Y144800D01*
X61400D01*
X60900Y144300D01*
Y143300D01*
X61400Y142801D01*
X60900Y141801D02*
Y140801D01*
Y141301D01*
X63899D01*
X63399Y141801D01*
X60900Y137302D02*
Y139302D01*
X62899Y137302D01*
X63399D01*
X63899Y137802D01*
Y138802D01*
X63399Y139302D01*
X35832Y178834D02*
X36499Y179501D01*
Y180833D01*
X35832Y181500D01*
X33166D01*
X32500Y180833D01*
Y179501D01*
X33166Y178834D01*
X32500Y177501D02*
Y176168D01*
Y176835D01*
X36499D01*
X35832Y177501D01*
Y174169D02*
X36499Y173503D01*
Y172170D01*
X35832Y171503D01*
X33166D01*
X32500Y172170D01*
Y173503D01*
X33166Y174169D01*
X35832D01*
X39119Y142201D02*
X39619Y142701D01*
Y143700D01*
X39119Y144200D01*
X37120D01*
X36620Y143700D01*
Y142701D01*
X37120Y142201D01*
X36620Y141201D02*
Y140201D01*
Y140701D01*
X39619D01*
X39119Y141201D01*
X36620Y138702D02*
Y137702D01*
Y138202D01*
X39619D01*
X39119Y138702D01*
X25399Y233501D02*
X25899Y234000D01*
Y235000D01*
X25399Y235500D01*
X23400D01*
X22900Y235000D01*
Y234000D01*
X23400Y233501D01*
Y232501D02*
X22900Y232001D01*
Y231001D01*
X23400Y230502D01*
X25399D01*
X25899Y231001D01*
Y232001D01*
X25399Y232501D01*
X24899D01*
X24399Y232001D01*
Y230502D01*
X53666Y217832D02*
X52999Y218499D01*
X51666D01*
X51000Y217832D01*
Y215166D01*
X51666Y214500D01*
X52999D01*
X53666Y215166D01*
X54999Y217832D02*
X55665Y218499D01*
X56998D01*
X57665Y217832D01*
Y217166D01*
X56998Y216499D01*
X57665Y215833D01*
Y215166D01*
X56998Y214500D01*
X55665D01*
X54999Y215166D01*
Y215833D01*
X55665Y216499D01*
X54999Y217166D01*
Y217832D01*
X55665Y216499D02*
X56998D01*
X124832Y165834D02*
X125499Y166501D01*
Y167833D01*
X124832Y168500D01*
X122167D01*
X121500Y167833D01*
Y166501D01*
X122167Y165834D01*
X124832Y164501D02*
X125499Y163835D01*
Y162502D01*
X124832Y161836D01*
X124166D01*
X123499Y162502D01*
Y163168D01*
Y162502D01*
X122833Y161836D01*
X122167D01*
X121500Y162502D01*
Y163835D01*
X122167Y164501D01*
X98832Y168834D02*
X99499Y169501D01*
Y170834D01*
X98832Y171500D01*
X96166D01*
X95500Y170834D01*
Y169501D01*
X96166Y168834D01*
X95500Y164836D02*
Y167501D01*
X98166Y164836D01*
X98832D01*
X99499Y165502D01*
Y166835D01*
X98832Y167501D01*
X153166Y203532D02*
X152499Y204199D01*
X151166D01*
X150500Y203532D01*
Y200867D01*
X151166Y200200D01*
X152499D01*
X153166Y200867D01*
X154499Y200200D02*
X155832D01*
X155165D01*
Y204199D01*
X154499Y203532D01*
X92750Y229499D02*
Y225500D01*
Y226833D01*
X95416Y229499D01*
X93416Y227499D01*
X95416Y225500D01*
X96749D02*
X98082D01*
X97415D01*
Y229499D01*
X96749Y228832D01*
X123846Y255701D02*
Y257034D01*
X123180Y257700D01*
X120514D01*
X119847Y257034D01*
Y255701D01*
X120514Y255034D01*
X123180D01*
X123846Y255701D01*
Y253701D02*
X119847D01*
X121180D01*
X123846Y251035D01*
X121847Y253035D01*
X119847Y251035D01*
Y249703D02*
Y248370D01*
Y249036D01*
X123846D01*
X123180Y249703D01*
X112400Y50499D02*
Y47166D01*
X113066Y46500D01*
X114399D01*
X115066Y47166D01*
Y50499D01*
X116399Y46500D02*
X117732D01*
X117065D01*
Y50499D01*
X116399Y49832D01*
X148399Y15634D02*
Y18300D01*
X146399D01*
Y16967D01*
Y18300D01*
X144400D01*
X147732Y11636D02*
X148399Y12302D01*
Y13635D01*
X147732Y14301D01*
X147066D01*
X146399Y13635D01*
Y12302D01*
X145733Y11636D01*
X145066D01*
X144400Y12302D01*
Y13635D01*
X145066Y14301D01*
X148399Y10303D02*
X144400D01*
X145733Y8970D01*
X144400Y7637D01*
X148399D01*
X87987Y49731D02*
X91985D01*
Y47732D01*
X91319Y47065D01*
X89986D01*
X89320Y47732D01*
Y49731D01*
Y48398D02*
X87987Y47065D01*
X91319Y45733D02*
X91985Y45066D01*
Y43733D01*
X91319Y43067D01*
X90653D01*
X89986Y43733D01*
Y44400D01*
Y43733D01*
X89320Y43067D01*
X88653D01*
X87987Y43733D01*
Y45066D01*
X88653Y45733D01*
X89750Y210999D02*
Y207000D01*
X91749D01*
X92416Y207666D01*
Y210332D01*
X91749Y210999D01*
X89750D01*
X96415Y207000D02*
X93749D01*
X96415Y209666D01*
Y210332D01*
X95748Y210999D01*
X94415D01*
X93749Y210332D01*
X141298Y51065D02*
X141965Y51732D01*
Y53065D01*
X141298Y53731D01*
X138632D01*
X137966Y53065D01*
Y51732D01*
X138632Y51065D01*
X141965Y47067D02*
X141298Y48400D01*
X139965Y49733D01*
X138632D01*
X137966Y49066D01*
Y47733D01*
X138632Y47067D01*
X139299D01*
X139965Y47733D01*
Y49733D01*
D15*
X99500Y209000D02*
D03*
D16*
X155650Y229285D02*
D03*
M02*
